%TF.GenerationSoftware,KiCad,Pcbnew,10.0.2*%
%TF.CreationDate,2026-05-23T15:37:35-04:00*%
%TF.ProjectId,tag-breakout-l432v2,7461672d-6272-4656-916b-6f75742d6c34,rev?*%
%TF.SameCoordinates,Original*%
%TF.FileFunction,Paste,Top*%
%TF.FilePolarity,Positive*%
%FSLAX46Y46*%
G04 Gerber Fmt 4.6, Leading zero omitted, Abs format (unit mm)*
G04 Created by KiCad (PCBNEW 10.0.2) date 2026-05-23 15:37:35*
%MOMM*%
%LPD*%
G01*
G04 APERTURE LIST*
G04 Aperture macros list*
%AMRoundRect*
0 Rectangle with rounded corners*
0 $1 Rounding radius*
0 $2 $3 $4 $5 $6 $7 $8 $9 X,Y pos of 4 corners*
0 Add a 4 corners polygon primitive as box body*
4,1,4,$2,$3,$4,$5,$6,$7,$8,$9,$2,$3,0*
0 Add four circle primitives for the rounded corners*
1,1,$1+$1,$2,$3*
1,1,$1+$1,$4,$5*
1,1,$1+$1,$6,$7*
1,1,$1+$1,$8,$9*
0 Add four rect primitives between the rounded corners*
20,1,$1+$1,$2,$3,$4,$5,0*
20,1,$1+$1,$4,$5,$6,$7,0*
20,1,$1+$1,$6,$7,$8,$9,0*
20,1,$1+$1,$8,$9,$2,$3,0*%
G04 Aperture macros list end*
%ADD10R,1.000000X0.750000*%
%ADD11RoundRect,0.150000X0.150000X-0.512500X0.150000X0.512500X-0.150000X0.512500X-0.150000X-0.512500X0*%
%ADD12RoundRect,0.225000X-0.250000X0.225000X-0.250000X-0.225000X0.250000X-0.225000X0.250000X0.225000X0*%
%ADD13RoundRect,0.225000X0.250000X-0.225000X0.250000X0.225000X-0.250000X0.225000X-0.250000X-0.225000X0*%
%ADD14RoundRect,0.200000X0.275000X-0.200000X0.275000X0.200000X-0.275000X0.200000X-0.275000X-0.200000X0*%
%ADD15RoundRect,0.200000X-0.275000X0.200000X-0.275000X-0.200000X0.275000X-0.200000X0.275000X0.200000X0*%
%ADD16RoundRect,0.225000X-0.225000X-0.250000X0.225000X-0.250000X0.225000X0.250000X-0.225000X0.250000X0*%
%ADD17RoundRect,0.225000X0.225000X0.250000X-0.225000X0.250000X-0.225000X-0.250000X0.225000X-0.250000X0*%
%ADD18RoundRect,0.150000X-0.150000X0.587500X-0.150000X-0.587500X0.150000X-0.587500X0.150000X0.587500X0*%
%ADD19R,0.800000X0.500000*%
%ADD20RoundRect,0.218750X-0.218750X-0.256250X0.218750X-0.256250X0.218750X0.256250X-0.218750X0.256250X0*%
%ADD21RoundRect,0.200000X-0.200000X-0.275000X0.200000X-0.275000X0.200000X0.275000X-0.200000X0.275000X0*%
%ADD22RoundRect,0.218750X0.256250X-0.218750X0.256250X0.218750X-0.256250X0.218750X-0.256250X-0.218750X0*%
%ADD23RoundRect,0.125000X0.125000X-0.625000X0.125000X0.625000X-0.125000X0.625000X-0.125000X-0.625000X0*%
%ADD24RoundRect,0.125000X0.625000X-0.125000X0.625000X0.125000X-0.625000X0.125000X-0.625000X-0.125000X0*%
%ADD25RoundRect,0.225000X-0.225000X-0.375000X0.225000X-0.375000X0.225000X0.375000X-0.225000X0.375000X0*%
%ADD26RoundRect,0.225000X0.225000X0.375000X-0.225000X0.375000X-0.225000X-0.375000X0.225000X-0.375000X0*%
%ADD27R,0.760000X1.270000*%
%ADD28R,0.500000X2.000000*%
%ADD29R,2.000000X1.700000*%
%ADD30RoundRect,0.250000X-0.455000X-0.455000X0.455000X-0.455000X0.455000X0.455000X-0.455000X0.455000X0*%
%ADD31RoundRect,0.062500X-0.375000X-0.062500X0.375000X-0.062500X0.375000X0.062500X-0.375000X0.062500X0*%
%ADD32RoundRect,0.062500X-0.062500X-0.375000X0.062500X-0.375000X0.062500X0.375000X-0.062500X0.375000X0*%
G04 APERTURE END LIST*
D10*
%TO.C,U105*%
X11900000Y65375000D03*
X5900000Y65375000D03*
X11900000Y69125000D03*
X5900000Y69125000D03*
%TD*%
D11*
%TO.C,U1*%
X39865300Y63981660D03*
X41765300Y63981660D03*
X40815300Y66256660D03*
%TD*%
D12*
%TO.C,C1*%
X38044940Y66320020D03*
X38044940Y64770020D03*
%TD*%
%TO.C,C101*%
X25100000Y42375000D03*
X25100000Y40825000D03*
%TD*%
D13*
%TO.C,C104*%
X43500000Y64325000D03*
X43500000Y65875000D03*
%TD*%
D12*
%TO.C,C107*%
X26800000Y42375000D03*
X26800000Y40825000D03*
%TD*%
D14*
%TO.C,R4*%
X29800000Y59975000D03*
X29800000Y61625000D03*
%TD*%
%TO.C,R104*%
X28600000Y40775000D03*
X28600000Y42425000D03*
%TD*%
%TO.C,R105*%
X20600000Y44975000D03*
X20600000Y46625000D03*
%TD*%
D15*
%TO.C,R106*%
X33984400Y47493100D03*
X33984400Y45843100D03*
%TD*%
D14*
%TO.C,R107*%
X35815300Y64794160D03*
X35815300Y66444160D03*
%TD*%
D11*
%TO.C,U4*%
X32050000Y59162500D03*
X33000000Y59162500D03*
X33950000Y59162500D03*
X33950000Y61437500D03*
X33000000Y61437500D03*
X32050000Y61437500D03*
%TD*%
D16*
%TO.C,C3*%
X27425000Y29900000D03*
X28975000Y29900000D03*
%TD*%
%TO.C,C4*%
X35125000Y29900000D03*
X36675000Y29900000D03*
%TD*%
D17*
%TO.C,C5*%
X22875000Y24500000D03*
X21325000Y24500000D03*
%TD*%
D12*
%TO.C,C6*%
X35300000Y23475000D03*
X35300000Y21925000D03*
%TD*%
%TO.C,C7*%
X19400000Y27475000D03*
X19400000Y25925000D03*
%TD*%
%TO.C,C9*%
X24600000Y25075000D03*
X24600000Y23525000D03*
%TD*%
D18*
%TO.C,Q1*%
X28750300Y38545700D03*
X26850300Y38545700D03*
X27800300Y36670700D03*
%TD*%
D19*
%TO.C,U6*%
X22350000Y27000000D03*
X22350000Y27900000D03*
X22350000Y28800000D03*
X22350000Y29700000D03*
X21150000Y29700000D03*
X21150000Y28800000D03*
X21150000Y27900000D03*
X21150000Y27000000D03*
%TD*%
D20*
%TO.C,D1*%
X18612500Y51000000D03*
X20187500Y51000000D03*
%TD*%
D21*
%TO.C,R1*%
X18575000Y52800000D03*
X20225000Y52800000D03*
%TD*%
D16*
%TO.C,C10*%
X35125000Y31700000D03*
X36675000Y31700000D03*
%TD*%
D22*
%TO.C,D105*%
X34115300Y64831660D03*
X34115300Y66406660D03*
%TD*%
D17*
%TO.C,C11*%
X23375000Y42400000D03*
X21825000Y42400000D03*
%TD*%
D23*
%TO.C,U101*%
X24100000Y44650000D03*
X24900000Y44650000D03*
X25700000Y44650000D03*
X26500000Y44650000D03*
X27300000Y44650000D03*
X28100000Y44650000D03*
X28900000Y44650000D03*
X29700000Y44650000D03*
D24*
X31075000Y46025000D03*
X31075000Y46825000D03*
X31075000Y47625000D03*
X31075000Y48425000D03*
X31075000Y49225000D03*
X31075000Y50025000D03*
X31075000Y50825000D03*
X31075000Y51625000D03*
D23*
X29700000Y53000000D03*
X28900000Y53000000D03*
X28100000Y53000000D03*
X27300000Y53000000D03*
X26500000Y53000000D03*
X25700000Y53000000D03*
X24900000Y53000000D03*
X24100000Y53000000D03*
D24*
X22725000Y51625000D03*
X22725000Y50825000D03*
X22725000Y50025000D03*
X22725000Y49225000D03*
X22725000Y48425000D03*
X22725000Y47625000D03*
X22725000Y46825000D03*
X22725000Y46025000D03*
%TD*%
D17*
%TO.C,C2*%
X29675000Y55100000D03*
X28125000Y55100000D03*
%TD*%
D25*
%TO.C,D3*%
X37350000Y70900000D03*
X40650000Y70900000D03*
%TD*%
D26*
%TO.C,D2*%
X40650000Y68400000D03*
X37350000Y68400000D03*
%TD*%
D14*
%TO.C,R2*%
X39200000Y59975000D03*
X39200000Y61625000D03*
%TD*%
%TO.C,R5*%
X37500000Y59975000D03*
X37500000Y61625000D03*
%TD*%
D27*
%TO.C,SW1*%
X39405000Y57090000D03*
X38135000Y57090000D03*
X36865000Y57090000D03*
X35595000Y57090000D03*
X35595000Y49470000D03*
X36865000Y49470000D03*
X38135000Y49470000D03*
X39405000Y49470000D03*
%TD*%
D14*
%TO.C,R6*%
X35800000Y59975000D03*
X35800000Y61625000D03*
%TD*%
D15*
%TO.C,R3*%
X19400000Y30625000D03*
X19400000Y28975000D03*
%TD*%
D28*
%TO.C,J104*%
X27575000Y64875000D03*
X26775000Y64875000D03*
X25975000Y64875000D03*
X25175000Y64875000D03*
X24375000Y64875000D03*
D29*
X30425000Y64975000D03*
X30425000Y70425000D03*
X21525000Y64975000D03*
X21525000Y70425000D03*
%TD*%
D30*
%TO.C,U3*%
X29980000Y26620000D03*
X29980000Y24870000D03*
X31730000Y26620000D03*
X31730000Y24870000D03*
D31*
X28417500Y27495000D03*
X28417500Y26995000D03*
X28417500Y26495000D03*
X28417500Y25995000D03*
X28417500Y25495000D03*
X28417500Y24995000D03*
X28417500Y24495000D03*
X28417500Y23995000D03*
D32*
X29105000Y23307500D03*
X29605000Y23307500D03*
X30105000Y23307500D03*
X30605000Y23307500D03*
X31105000Y23307500D03*
X31605000Y23307500D03*
X32105000Y23307500D03*
X32605000Y23307500D03*
D31*
X33292500Y23995000D03*
X33292500Y24495000D03*
X33292500Y24995000D03*
X33292500Y25495000D03*
X33292500Y25995000D03*
X33292500Y26495000D03*
X33292500Y26995000D03*
X33292500Y27495000D03*
D32*
X32605000Y28182500D03*
X32105000Y28182500D03*
X31605000Y28182500D03*
X31105000Y28182500D03*
X30605000Y28182500D03*
X30105000Y28182500D03*
X29605000Y28182500D03*
X29105000Y28182500D03*
%TD*%
M02*
