%TF.GenerationSoftware,KiCad,Pcbnew,10.0.2*%
%TF.CreationDate,2026-05-23T15:37:35-04:00*%
%TF.ProjectId,tag-breakout-l432v2,7461672d-6272-4656-916b-6f75742d6c34,rev?*%
%TF.SameCoordinates,Original*%
%TF.FileFunction,Copper,L2,Bot*%
%TF.FilePolarity,Positive*%
%FSLAX46Y46*%
G04 Gerber Fmt 4.6, Leading zero omitted, Abs format (unit mm)*
G04 Created by KiCad (PCBNEW 10.0.2) date 2026-05-23 15:37:35*
%MOMM*%
%LPD*%
G01*
G04 APERTURE LIST*
G04 Aperture macros list*
%AMRoundRect*
0 Rectangle with rounded corners*
0 $1 Rounding radius*
0 $2 $3 $4 $5 $6 $7 $8 $9 X,Y pos of 4 corners*
0 Add a 4 corners polygon primitive as box body*
4,1,4,$2,$3,$4,$5,$6,$7,$8,$9,$2,$3,0*
0 Add four circle primitives for the rounded corners*
1,1,$1+$1,$2,$3*
1,1,$1+$1,$4,$5*
1,1,$1+$1,$6,$7*
1,1,$1+$1,$8,$9*
0 Add four rect primitives between the rounded corners*
20,1,$1+$1,$2,$3,$4,$5,0*
20,1,$1+$1,$4,$5,$6,$7,0*
20,1,$1+$1,$6,$7,$8,$9,0*
20,1,$1+$1,$8,$9,$2,$3,0*%
G04 Aperture macros list end*
%TA.AperFunction,Conductor*%
%ADD10C,0.200000*%
%TD*%
%TA.AperFunction,ComponentPad*%
%ADD11C,1.016000*%
%TD*%
%TA.AperFunction,ComponentPad*%
%ADD12R,1.700000X1.700000*%
%TD*%
%TA.AperFunction,ComponentPad*%
%ADD13O,1.700000X1.700000*%
%TD*%
%TA.AperFunction,ComponentPad*%
%ADD14RoundRect,0.250000X0.725000X-0.600000X0.725000X0.600000X-0.725000X0.600000X-0.725000X-0.600000X0*%
%TD*%
%TA.AperFunction,ComponentPad*%
%ADD15O,1.950000X1.700000*%
%TD*%
%TA.AperFunction,SMDPad,CuDef*%
%ADD16C,2.000000*%
%TD*%
%TA.AperFunction,ViaPad*%
%ADD17C,0.660400*%
%TD*%
%TA.AperFunction,Conductor*%
%ADD18C,0.152400*%
%TD*%
%TA.AperFunction,Conductor*%
%ADD19C,0.304800*%
%TD*%
G04 APERTURE END LIST*
%TO.N,TAG_SWDIO*%
D10*
X36325000Y35575000D02*
X34000000Y35600000D01*
%TD*%
D11*
%TO.P,J102,1,Pin_1_1*%
%TO.N,+3V3*%
X18140000Y58835000D03*
%TO.P,J102,2,Pin_2_2*%
%TO.N,/SWDIO*%
X18140000Y57565000D03*
%TO.P,J102,3,Pin_3_3*%
%TO.N,GND*%
X16870000Y58835000D03*
%TO.P,J102,4,Pin_4_4*%
%TO.N,/SCLK*%
X16870000Y57565000D03*
%TO.P,J102,5,Pin_5_5*%
%TO.N,GND*%
X15600000Y58835000D03*
%TO.P,J102,6,Pin_6_6*%
%TO.N,unconnected-(J102-Pin_6-Pad6)*%
X15600000Y57565000D03*
%TO.P,J102,7,Pin_7_7*%
%TO.N,unconnected-(J102-Pin_7-Pad7)*%
X14330000Y58835000D03*
%TO.P,J102,8,Pin_8_8*%
%TO.N,unconnected-(J102-Pin_8-Pad8)*%
X14330000Y57565000D03*
%TO.P,J102,9,Pin_9_9*%
%TO.N,GND*%
X13060000Y58835000D03*
%TO.P,J102,10,Pin_10_10*%
%TO.N,/NRST*%
X13060000Y57565000D03*
%TD*%
D12*
%TO.P,J2,1,Pin_1_1*%
%TO.N,/UART_TX*%
X5080000Y58360000D03*
D13*
%TO.P,J2,2,Pin_2_2*%
%TO.N,GND*%
X5080000Y55820000D03*
%TD*%
D12*
%TO.P,J3,1,Pin_1_1*%
%TO.N,/stm32/PB4*%
X5207000Y48200000D03*
D13*
%TO.P,J3,2,Pin_2_2*%
%TO.N,/stm32/PB5*%
X4953000Y45660000D03*
%TO.P,J3,3,Pin_3_3*%
%TO.N,/stm32/rtc_scl*%
X5207000Y43120000D03*
%TO.P,J3,4,Pin_4_4*%
%TO.N,/stm32/rtc_sda*%
X4953000Y40580000D03*
%TO.P,J3,5,Pin_5_5*%
%TO.N,/stm32/PB8*%
X5207000Y38040000D03*
%TO.P,J3,6,Pin_6_6*%
%TO.N,/stm32/PB9*%
X4953000Y35500000D03*
%TO.P,J3,7,Pin_7_7*%
%TO.N,TAG_3V3*%
X5207000Y32960000D03*
%TO.P,J3,8,Pin_8_8*%
%TO.N,/stm32/PA0*%
X4953000Y30420000D03*
%TO.P,J3,9,Pin_9_9*%
%TO.N,/stm32/PA1*%
X5207000Y27880000D03*
%TO.P,J3,10,Pin_10_10*%
%TO.N,/stm32/PA2*%
X4953000Y25340000D03*
%TO.P,J3,11,Pin_11_11*%
%TO.N,/stm32/PA3*%
X5207000Y22800000D03*
%TO.P,J3,12,Pin_12_12*%
%TO.N,/stm32/PA4*%
X4953000Y20260000D03*
%TO.P,J3,13,Pin_13_13*%
%TO.N,/stm32/PA5*%
X5207000Y17720000D03*
%TO.P,J3,14,Pin_14_14*%
%TO.N,/stm32/PA6*%
X4953000Y15180000D03*
%TO.P,J3,15,Pin_15_15*%
%TO.N,/stm32/PA7*%
X5207000Y12640000D03*
%TO.P,J3,16,Pin_16_16*%
%TO.N,/stm32/PB0*%
X4953000Y10100000D03*
%TO.P,J3,17,Pin_17_17*%
%TO.N,GND*%
X5207000Y7560000D03*
%TD*%
D12*
%TO.P,J4,1,Pin_1_1*%
%TO.N,TAG_3V3*%
X48387000Y48200000D03*
D13*
%TO.P,J4,2,Pin_2_2*%
%TO.N,/stm32/PB3*%
X48133000Y45660000D03*
%TO.P,J4,3,Pin_3_3*%
%TO.N,/stm32/PA15*%
X48387000Y43120000D03*
%TO.P,J4,4,Pin_4_4*%
%TO.N,/stm32/PA12*%
X48133000Y40580000D03*
%TO.P,J4,5,Pin_5_5*%
%TO.N,/stm32/PA11*%
X48387000Y38040000D03*
%TO.P,J4,6,Pin_6_6*%
%TO.N,/stm32/PA10*%
X48133000Y35500000D03*
%TO.P,J4,7,Pin_7_7*%
%TO.N,/stm32/PA9*%
X48387000Y32960000D03*
%TO.P,J4,8,Pin_8_8*%
%TO.N,/stm32/PA8*%
X48133000Y30420000D03*
%TO.P,J4,9,Pin_9_9*%
%TO.N,/stm32/PB15*%
X48387000Y27880000D03*
%TO.P,J4,10,Pin_10_10*%
%TO.N,/stm32/PB14*%
X48133000Y25340000D03*
%TO.P,J4,11,Pin_11_11*%
%TO.N,/stm32/PB13*%
X48387000Y22800000D03*
%TO.P,J4,12,Pin_12_12*%
%TO.N,/stm32/PB12*%
X48133000Y20260000D03*
%TO.P,J4,13,Pin_13_13*%
%TO.N,/stm32/PB11*%
X48387000Y17720000D03*
%TO.P,J4,14,Pin_14_14*%
%TO.N,/stm32/PB10*%
X48133000Y15180000D03*
%TO.P,J4,15,Pin_15_15*%
%TO.N,/stm32/PB2*%
X48387000Y12640000D03*
%TO.P,J4,16,Pin_16_16*%
%TO.N,/stm32/PB1*%
X48133000Y10100000D03*
%TO.P,J4,17,Pin_17_17*%
%TO.N,GND*%
X48387000Y7560000D03*
%TD*%
D14*
%TO.P,J1,1,Pin_1_1*%
%TO.N,PWR_IN_MIRROR*%
X48260000Y58360000D03*
D15*
%TO.P,J1,2,Pin_2_2*%
%TO.N,PWR_IN*%
X48260000Y60860000D03*
%TO.P,J1,3,Pin_3_3*%
%TO.N,EXT_PWR*%
X48260000Y63360000D03*
%TO.P,J1,4,Pin_4_4*%
%TO.N,GND*%
X48260000Y65860000D03*
%TD*%
D16*
%TO.P,TP2,1,1_1*%
%TO.N,TAG_SCK*%
X30575000Y33025000D03*
%TD*%
%TO.P,TP1,1,1_1*%
%TO.N,TAG_SWDIO*%
X36325000Y35575000D03*
%TD*%
D17*
%TO.N,+3V3*%
X29500000Y56800000D03*
%TO.N,GND*%
X20200000Y24500000D03*
X38115300Y63619160D03*
X21100000Y26400000D03*
X25200000Y39700000D03*
X32200000Y70600000D03*
X24200000Y63200000D03*
X37700000Y29900000D03*
X25100000Y63300000D03*
X21200000Y52800000D03*
X29800000Y62500000D03*
X21150000Y30541190D03*
X22200000Y43900000D03*
X19905960Y65464400D03*
X36802800Y66406660D03*
X28125000Y56175000D03*
X37600000Y31700000D03*
X32300000Y57900000D03*
X31100000Y26000000D03*
X33400000Y23043600D03*
X30400000Y63600000D03*
X22200000Y44900000D03*
X25638000Y38608200D03*
X19656140Y70964400D03*
X31635700Y52657700D03*
X23175000Y23325000D03*
X26800000Y39800000D03*
X43200000Y66900000D03*
X38915300Y63219160D03*
%TO.N,/NRST*%
X26100000Y47100000D03*
X17300000Y50700000D03*
%TO.N,/boot0*%
X17400000Y49300000D03*
X19212500Y46587500D03*
%TO.N,EXT_PWR*%
X41900000Y62200000D03*
X37200000Y62964820D03*
%TO.N,TAG_SWDIO*%
X34000000Y32300000D03*
X34000000Y35600000D03*
%TO.N,PWR_IN*%
X40900000Y59200000D03*
X31000000Y59200000D03*
%TO.N,TAG_3V3*%
X27405000Y25651400D03*
X36500000Y23700000D03*
X27500000Y27651400D03*
X35200000Y28400000D03*
%TO.N,/stm32/NRST*%
X25746200Y36608200D03*
X23500000Y26200000D03*
%TO.N,/stm32/rtc_scl*%
X23139400Y32512000D03*
X23200000Y34800000D03*
X23142709Y29169494D03*
%TO.N,/stm32/rtc_sda*%
X22400000Y33500000D03*
X22300000Y30800000D03*
%TO.N,TAG_SCK*%
X33083500Y30877200D03*
X33083500Y33988700D03*
%TD*%
%TO.N,+3V3*%
D18*
X27465000Y58835000D02*
X29500000Y56800000D01*
X18140000Y58835000D02*
X27465000Y58835000D01*
%TO.N,GND*%
X13796601Y59571601D02*
X13060000Y58835000D01*
X15600000Y58835000D02*
X14863399Y59571601D01*
X14863399Y59571601D02*
X13796601Y59571601D01*
X15600000Y58835000D02*
X16870000Y58835000D01*
%TO.N,/NRST*%
X17300000Y50700000D02*
X18400000Y49600000D01*
X23600000Y49600000D02*
X21000000Y49600000D01*
X18400000Y49600000D02*
X21000000Y49600000D01*
X26100000Y47100000D02*
X23600000Y49600000D01*
%TO.N,/boot0*%
X19212500Y47487500D02*
X17400000Y49300000D01*
X19212500Y46587500D02*
X19212500Y47487500D01*
%TO.N,EXT_PWR*%
X37964820Y62200000D02*
X41900000Y62200000D01*
X37200000Y62964820D02*
X37964820Y62200000D01*
%TO.N,TAG_SWDIO*%
X34000000Y35600000D02*
X34000000Y32300000D01*
%TO.N,PWR_IN*%
D19*
X40900000Y59200000D02*
X31000000Y59200000D01*
%TO.N,TAG_3V3*%
D18*
X27500000Y25746400D02*
X27405000Y25651400D01*
X27405000Y25651400D02*
X29356400Y23700000D01*
X35200000Y25000000D02*
X35200000Y28400000D01*
X29356400Y23700000D02*
X36500000Y23700000D01*
X27500000Y27651400D02*
X27500000Y25746400D01*
X36500000Y23700000D02*
X35200000Y25000000D01*
%TO.N,/stm32/NRST*%
X23758802Y26925775D02*
X23500000Y26666973D01*
X23500000Y26666973D02*
X23500000Y26200000D01*
X23758802Y34620802D02*
X23758802Y26925775D01*
X25746200Y36608200D02*
X23758802Y34620802D01*
%TO.N,/stm32/rtc_scl*%
X23100000Y29212203D02*
X23142709Y29169494D01*
X23200000Y34800000D02*
X23100000Y34700000D01*
X23100000Y29400000D02*
X23100000Y29212203D01*
X23100000Y34700000D02*
X23100000Y29400000D01*
%TO.N,/stm32/rtc_sda*%
X22400000Y30900000D02*
X22300000Y30800000D01*
X22400000Y33500000D02*
X22400000Y30900000D01*
%TO.N,TAG_SCK*%
X30575000Y33025000D02*
X32119800Y33025000D01*
X32119800Y33025000D02*
X33083500Y33988700D01*
X33083500Y33988700D02*
X33083500Y30877200D01*
%TD*%
%TA.AperFunction,Conductor*%
%TO.N,GND*%
G36*
X50803801Y73524270D02*
G01*
X50832245Y73522550D01*
X51089466Y73506991D01*
X51104547Y73505160D01*
X51382305Y73454259D01*
X51397052Y73450624D01*
X51666660Y73366611D01*
X51680872Y73361220D01*
X51699685Y73352753D01*
X51938355Y73245336D01*
X51951827Y73238266D01*
X52193476Y73092185D01*
X52205998Y73083541D01*
X52428267Y72909405D01*
X52439656Y72899315D01*
X52639314Y72699657D01*
X52649404Y72688268D01*
X52823540Y72465999D01*
X52832184Y72453477D01*
X52978265Y72211828D01*
X52985335Y72198356D01*
X53101217Y71940878D01*
X53106613Y71926652D01*
X53190619Y71657069D01*
X53194260Y71642295D01*
X53245157Y71364560D01*
X53246991Y71349456D01*
X53264270Y71063803D01*
X53264500Y71056195D01*
X53264500Y2483806D01*
X53264270Y2476198D01*
X53246991Y2190545D01*
X53245157Y2175441D01*
X53194260Y1897706D01*
X53190619Y1882932D01*
X53106613Y1613349D01*
X53101217Y1599123D01*
X52985335Y1341645D01*
X52978265Y1328173D01*
X52832184Y1086524D01*
X52823540Y1074002D01*
X52649404Y851733D01*
X52639314Y840344D01*
X52439656Y640686D01*
X52428267Y630596D01*
X52205998Y456460D01*
X52193476Y447816D01*
X51951827Y301735D01*
X51938355Y294665D01*
X51680877Y178783D01*
X51666651Y173387D01*
X51397068Y89381D01*
X51382294Y85740D01*
X51104559Y34843D01*
X51089455Y33009D01*
X50803802Y15730D01*
X50796194Y15500D01*
X2543806Y15500D01*
X2536198Y15730D01*
X2250544Y33009D01*
X2235440Y34843D01*
X1957705Y85740D01*
X1942935Y89380D01*
X1673348Y173387D01*
X1659122Y178783D01*
X1401644Y294665D01*
X1388172Y301735D01*
X1146523Y447816D01*
X1134001Y456460D01*
X911732Y630596D01*
X900343Y640686D01*
X700685Y840344D01*
X690595Y851733D01*
X516459Y1074002D01*
X507815Y1086524D01*
X361734Y1328173D01*
X354664Y1341645D01*
X238782Y1599123D01*
X233389Y1613340D01*
X149376Y1882948D01*
X145741Y1897695D01*
X94840Y2175453D01*
X93009Y2190534D01*
X75730Y2476199D01*
X75500Y2483806D01*
X75500Y45766916D01*
X3594500Y45766916D01*
X3594500Y45553084D01*
X3627951Y45341884D01*
X3627952Y45341879D01*
X3694026Y45138522D01*
X3694028Y45138517D01*
X3791106Y44947991D01*
X3916794Y44774996D01*
X3916796Y44774994D01*
X3916798Y44774991D01*
X4067990Y44623799D01*
X4067993Y44623797D01*
X4067996Y44623794D01*
X4240991Y44498106D01*
X4382005Y44426256D01*
X4433620Y44377509D01*
X4450686Y44308594D01*
X4427786Y44241393D01*
X4398864Y44212054D01*
X4321989Y44156201D01*
X4170798Y44005010D01*
X4170796Y44005007D01*
X4045108Y43832013D01*
X3948029Y43641485D01*
X3948026Y43641479D01*
X3881952Y43438122D01*
X3881951Y43438117D01*
X3881951Y43438116D01*
X3848500Y43226916D01*
X3848500Y43013084D01*
X3881951Y42801884D01*
X3881952Y42801879D01*
X3948026Y42598522D01*
X3948028Y42598517D01*
X4045106Y42407991D01*
X4170794Y42234996D01*
X4170796Y42234994D01*
X4170798Y42234991D01*
X4321990Y42083799D01*
X4321993Y42083797D01*
X4321996Y42083794D01*
X4398863Y42027947D01*
X4442217Y41971725D01*
X4448292Y41900989D01*
X4415161Y41838197D01*
X4382006Y41813746D01*
X4255355Y41749214D01*
X4240987Y41741892D01*
X4067993Y41616204D01*
X4067990Y41616202D01*
X3916798Y41465010D01*
X3916796Y41465007D01*
X3791108Y41292013D01*
X3694029Y41101485D01*
X3694026Y41101479D01*
X3627952Y40898122D01*
X3627951Y40898117D01*
X3627951Y40898116D01*
X3594500Y40686916D01*
X3594500Y40473084D01*
X3627951Y40261884D01*
X3627952Y40261879D01*
X3694026Y40058522D01*
X3694028Y40058517D01*
X3791106Y39867991D01*
X3916794Y39694996D01*
X3916796Y39694994D01*
X3916798Y39694991D01*
X4067990Y39543799D01*
X4067993Y39543797D01*
X4067996Y39543794D01*
X4240991Y39418106D01*
X4382005Y39346256D01*
X4433620Y39297509D01*
X4450686Y39228594D01*
X4427786Y39161393D01*
X4398864Y39132054D01*
X4321989Y39076201D01*
X4170798Y38925010D01*
X4170796Y38925007D01*
X4045108Y38752013D01*
X3948029Y38561485D01*
X3948026Y38561479D01*
X3881952Y38358122D01*
X3881951Y38358117D01*
X3881951Y38358116D01*
X3848500Y38146916D01*
X3848500Y37933084D01*
X3881951Y37721884D01*
X3881952Y37721879D01*
X3948026Y37518522D01*
X3948028Y37518517D01*
X4045106Y37327991D01*
X4170794Y37154996D01*
X4170796Y37154994D01*
X4170798Y37154991D01*
X4321990Y37003799D01*
X4321993Y37003797D01*
X4321996Y37003794D01*
X4364407Y36972981D01*
X4398863Y36947947D01*
X4442217Y36891725D01*
X4448292Y36820989D01*
X4415161Y36758197D01*
X4382006Y36733746D01*
X4297738Y36690808D01*
X4240987Y36661892D01*
X4067993Y36536204D01*
X4067990Y36536202D01*
X3916798Y36385010D01*
X3916796Y36385007D01*
X3791108Y36212013D01*
X3694029Y36021485D01*
X3694026Y36021479D01*
X3627952Y35818122D01*
X3627951Y35818117D01*
X3627951Y35818116D01*
X3594500Y35606916D01*
X3594500Y35393084D01*
X3625514Y35197273D01*
X3627952Y35181879D01*
X3693085Y34981418D01*
X3694028Y34978517D01*
X3791106Y34787991D01*
X3791108Y34787988D01*
X3793737Y34784370D01*
X3916794Y34614996D01*
X3916796Y34614994D01*
X3916798Y34614991D01*
X4067990Y34463799D01*
X4067993Y34463797D01*
X4067996Y34463794D01*
X4240991Y34338106D01*
X4382005Y34266256D01*
X4433620Y34217509D01*
X4450686Y34148594D01*
X4427786Y34081393D01*
X4398864Y34052054D01*
X4321989Y33996201D01*
X4170798Y33845010D01*
X4170796Y33845007D01*
X4045108Y33672013D01*
X3948029Y33481485D01*
X3948026Y33481479D01*
X3881952Y33278122D01*
X3881951Y33278117D01*
X3881951Y33278116D01*
X3848500Y33066916D01*
X3848500Y32853084D01*
X3877220Y32671754D01*
X3881952Y32641879D01*
X3948026Y32438522D01*
X3948028Y32438517D01*
X4045106Y32247991D01*
X4170794Y32074996D01*
X4170796Y32074994D01*
X4170798Y32074991D01*
X4321990Y31923799D01*
X4321993Y31923797D01*
X4321996Y31923794D01*
X4350994Y31902726D01*
X4398863Y31867947D01*
X4442217Y31811725D01*
X4448292Y31740989D01*
X4415161Y31678197D01*
X4382006Y31653746D01*
X4329556Y31627020D01*
X4240987Y31581892D01*
X4067993Y31456204D01*
X4067990Y31456202D01*
X3916798Y31305010D01*
X3916796Y31305007D01*
X3791108Y31132013D01*
X3694029Y30941485D01*
X3694026Y30941479D01*
X3627952Y30738122D01*
X3627951Y30738117D01*
X3627951Y30738116D01*
X3594500Y30526916D01*
X3594500Y30313084D01*
X3622872Y30133954D01*
X3627952Y30101879D01*
X3694026Y29898522D01*
X3694028Y29898517D01*
X3791106Y29707991D01*
X3916794Y29534996D01*
X3916796Y29534994D01*
X3916798Y29534991D01*
X4067990Y29383799D01*
X4067993Y29383797D01*
X4067996Y29383794D01*
X4240991Y29258106D01*
X4382005Y29186256D01*
X4433620Y29137509D01*
X4450686Y29068594D01*
X4427786Y29001393D01*
X4398864Y28972054D01*
X4321989Y28916201D01*
X4170798Y28765010D01*
X4170796Y28765007D01*
X4045108Y28592013D01*
X3948029Y28401485D01*
X3948026Y28401479D01*
X3881952Y28198122D01*
X3881951Y28198117D01*
X3881951Y28198116D01*
X3848500Y27986916D01*
X3848500Y27773084D01*
X3880857Y27568793D01*
X3881952Y27561879D01*
X3948026Y27358522D01*
X3948028Y27358517D01*
X4045106Y27167991D01*
X4170794Y26994996D01*
X4170796Y26994994D01*
X4170798Y26994991D01*
X4321990Y26843799D01*
X4321993Y26843797D01*
X4321996Y26843794D01*
X4384258Y26798558D01*
X4398863Y26787947D01*
X4442217Y26731725D01*
X4448292Y26660989D01*
X4415161Y26598197D01*
X4382006Y26573746D01*
X4313443Y26538810D01*
X4240987Y26501892D01*
X4067993Y26376204D01*
X4067990Y26376202D01*
X3916798Y26225010D01*
X3916796Y26225007D01*
X3791108Y26052013D01*
X3694029Y25861485D01*
X3694026Y25861479D01*
X3627952Y25658122D01*
X3627951Y25658117D01*
X3627951Y25658116D01*
X3594500Y25446916D01*
X3594500Y25233084D01*
X3627951Y25021884D01*
X3627952Y25021879D01*
X3694026Y24818522D01*
X3694028Y24818517D01*
X3791106Y24627991D01*
X3916794Y24454996D01*
X3916796Y24454994D01*
X3916798Y24454991D01*
X4067990Y24303799D01*
X4067993Y24303797D01*
X4067996Y24303794D01*
X4240991Y24178106D01*
X4382005Y24106256D01*
X4433620Y24057509D01*
X4450686Y23988594D01*
X4427786Y23921393D01*
X4398864Y23892054D01*
X4321989Y23836201D01*
X4170798Y23685010D01*
X4170796Y23685007D01*
X4045108Y23512013D01*
X3948029Y23321485D01*
X3948026Y23321479D01*
X3881952Y23118122D01*
X3881951Y23118117D01*
X3881951Y23118116D01*
X3848500Y22906916D01*
X3848500Y22693084D01*
X3881951Y22481884D01*
X3881952Y22481879D01*
X3948026Y22278522D01*
X3948028Y22278517D01*
X4045106Y22087991D01*
X4170794Y21914996D01*
X4170796Y21914994D01*
X4170798Y21914991D01*
X4321990Y21763799D01*
X4321993Y21763797D01*
X4321996Y21763794D01*
X4398863Y21707947D01*
X4442217Y21651725D01*
X4448292Y21580989D01*
X4415161Y21518197D01*
X4382006Y21493746D01*
X4255355Y21429214D01*
X4240987Y21421892D01*
X4067993Y21296204D01*
X4067990Y21296202D01*
X3916798Y21145010D01*
X3916796Y21145007D01*
X3791108Y20972013D01*
X3694029Y20781485D01*
X3694026Y20781479D01*
X3627952Y20578122D01*
X3627951Y20578117D01*
X3627951Y20578116D01*
X3594500Y20366916D01*
X3594500Y20153084D01*
X3627951Y19941884D01*
X3627952Y19941879D01*
X3694026Y19738522D01*
X3694028Y19738517D01*
X3791106Y19547991D01*
X3916794Y19374996D01*
X3916796Y19374994D01*
X3916798Y19374991D01*
X4067990Y19223799D01*
X4067993Y19223797D01*
X4067996Y19223794D01*
X4240991Y19098106D01*
X4382005Y19026256D01*
X4433620Y18977509D01*
X4450686Y18908594D01*
X4427786Y18841393D01*
X4398864Y18812054D01*
X4321989Y18756201D01*
X4170798Y18605010D01*
X4170796Y18605007D01*
X4045108Y18432013D01*
X3948029Y18241485D01*
X3948026Y18241479D01*
X3881952Y18038122D01*
X3881951Y18038117D01*
X3881951Y18038116D01*
X3848500Y17826916D01*
X3848500Y17613084D01*
X3881951Y17401884D01*
X3881952Y17401879D01*
X3948026Y17198522D01*
X3948028Y17198517D01*
X4045106Y17007991D01*
X4170794Y16834996D01*
X4170796Y16834994D01*
X4170798Y16834991D01*
X4321990Y16683799D01*
X4321993Y16683797D01*
X4321996Y16683794D01*
X4398863Y16627947D01*
X4442217Y16571725D01*
X4448292Y16500989D01*
X4415161Y16438197D01*
X4382006Y16413746D01*
X4255355Y16349214D01*
X4240987Y16341892D01*
X4067993Y16216204D01*
X4067990Y16216202D01*
X3916798Y16065010D01*
X3916796Y16065007D01*
X3791108Y15892013D01*
X3694029Y15701485D01*
X3694026Y15701479D01*
X3627952Y15498122D01*
X3627951Y15498117D01*
X3627951Y15498116D01*
X3594500Y15286916D01*
X3594500Y15073084D01*
X3627951Y14861884D01*
X3627952Y14861879D01*
X3694026Y14658522D01*
X3694028Y14658517D01*
X3791106Y14467991D01*
X3916794Y14294996D01*
X3916796Y14294994D01*
X3916798Y14294991D01*
X4067990Y14143799D01*
X4067993Y14143797D01*
X4067996Y14143794D01*
X4240991Y14018106D01*
X4382005Y13946256D01*
X4433620Y13897509D01*
X4450686Y13828594D01*
X4427786Y13761393D01*
X4398864Y13732054D01*
X4321989Y13676201D01*
X4170798Y13525010D01*
X4170796Y13525007D01*
X4045108Y13352013D01*
X3948029Y13161485D01*
X3948026Y13161479D01*
X3881952Y12958122D01*
X3881951Y12958117D01*
X3881951Y12958116D01*
X3848500Y12746916D01*
X3848500Y12533084D01*
X3881951Y12321884D01*
X3881952Y12321879D01*
X3948026Y12118522D01*
X3948028Y12118517D01*
X4045106Y11927991D01*
X4170794Y11754996D01*
X4170796Y11754994D01*
X4170798Y11754991D01*
X4321990Y11603799D01*
X4321993Y11603797D01*
X4321996Y11603794D01*
X4398863Y11547947D01*
X4442217Y11491725D01*
X4448292Y11420989D01*
X4415161Y11358197D01*
X4382006Y11333746D01*
X4255355Y11269214D01*
X4240987Y11261892D01*
X4067993Y11136204D01*
X4067990Y11136202D01*
X3916798Y10985010D01*
X3916796Y10985007D01*
X3791108Y10812013D01*
X3694029Y10621485D01*
X3694026Y10621479D01*
X3627952Y10418122D01*
X3627951Y10418117D01*
X3627951Y10418116D01*
X3594500Y10206916D01*
X3594500Y9993084D01*
X3627951Y9781884D01*
X3627952Y9781879D01*
X3694026Y9578522D01*
X3694028Y9578517D01*
X3791106Y9387991D01*
X3916794Y9214996D01*
X3916796Y9214994D01*
X3916798Y9214991D01*
X4067990Y9063799D01*
X4067993Y9063797D01*
X4067996Y9063794D01*
X4240991Y8938106D01*
X4382505Y8866001D01*
X4434120Y8817252D01*
X4451186Y8748337D01*
X4428285Y8681136D01*
X4399364Y8651799D01*
X4322323Y8595825D01*
X4322317Y8595820D01*
X4171177Y8444680D01*
X4045536Y8271751D01*
X3948493Y8081293D01*
X3948490Y8081287D01*
X3882440Y7878005D01*
X3872302Y7814000D01*
X4776297Y7814000D01*
X4741075Y7752993D01*
X4707000Y7625826D01*
X4707000Y7494174D01*
X4741075Y7367007D01*
X4776297Y7306000D01*
X3872302Y7306000D01*
X3882440Y7241996D01*
X3948490Y7038714D01*
X3948493Y7038708D01*
X4045536Y6848250D01*
X4171177Y6675321D01*
X4322320Y6524178D01*
X4495249Y6398537D01*
X4685707Y6301494D01*
X4685713Y6301491D01*
X4888998Y6235440D01*
X4953000Y6225304D01*
X4953000Y7129298D01*
X5014007Y7094075D01*
X5141174Y7060000D01*
X5272826Y7060000D01*
X5399993Y7094075D01*
X5461000Y7129298D01*
X5461000Y6225304D01*
X5525001Y6235440D01*
X5728286Y6301491D01*
X5728292Y6301494D01*
X5918750Y6398537D01*
X6091679Y6524178D01*
X6242822Y6675321D01*
X6368463Y6848250D01*
X6465506Y7038708D01*
X6465509Y7038714D01*
X6531559Y7241996D01*
X6541698Y7306000D01*
X5637703Y7306000D01*
X5672925Y7367007D01*
X5707000Y7494174D01*
X5707000Y7625826D01*
X5672925Y7752993D01*
X5637703Y7814000D01*
X6541697Y7814000D01*
X6531559Y7878005D01*
X6465509Y8081287D01*
X6465506Y8081293D01*
X6368463Y8271751D01*
X6242822Y8444680D01*
X6091679Y8595823D01*
X5918750Y8721464D01*
X5777540Y8793414D01*
X5725925Y8842162D01*
X5708859Y8911077D01*
X5731760Y8978279D01*
X5760679Y9007615D01*
X5838004Y9063794D01*
X5989206Y9214996D01*
X6114894Y9387991D01*
X6211972Y9578517D01*
X6278049Y9781884D01*
X6311500Y9993084D01*
X6311500Y10206916D01*
X6278049Y10418116D01*
X6211972Y10621483D01*
X6114894Y10812009D01*
X5989206Y10985004D01*
X5989203Y10985007D01*
X5989201Y10985010D01*
X5838006Y11136205D01*
X5761136Y11192054D01*
X5717782Y11248277D01*
X5711707Y11319013D01*
X5744839Y11381804D01*
X5777989Y11406253D01*
X5919009Y11478106D01*
X6092004Y11603794D01*
X6243206Y11754996D01*
X6368894Y11927991D01*
X6465972Y12118517D01*
X6532049Y12321884D01*
X6565500Y12533084D01*
X6565500Y12746916D01*
X6532049Y12958116D01*
X6465972Y13161483D01*
X6368894Y13352009D01*
X6243206Y13525004D01*
X6243203Y13525007D01*
X6243201Y13525010D01*
X6092009Y13676202D01*
X6092006Y13676204D01*
X6092004Y13676206D01*
X5919009Y13801894D01*
X5777992Y13873746D01*
X5726379Y13922492D01*
X5709313Y13991407D01*
X5732214Y14058609D01*
X5761133Y14087945D01*
X5838004Y14143794D01*
X5989206Y14294996D01*
X6114894Y14467991D01*
X6211972Y14658517D01*
X6278049Y14861884D01*
X6311500Y15073084D01*
X6311500Y15286916D01*
X6278049Y15498116D01*
X6211972Y15701483D01*
X6114894Y15892009D01*
X5989206Y16065004D01*
X5989203Y16065007D01*
X5989201Y16065010D01*
X5838006Y16216205D01*
X5761136Y16272054D01*
X5717782Y16328277D01*
X5711707Y16399013D01*
X5744839Y16461804D01*
X5777989Y16486253D01*
X5919009Y16558106D01*
X6092004Y16683794D01*
X6243206Y16834996D01*
X6368894Y17007991D01*
X6465972Y17198517D01*
X6532049Y17401884D01*
X6565500Y17613084D01*
X6565500Y17826916D01*
X6532049Y18038116D01*
X6465972Y18241483D01*
X6368894Y18432009D01*
X6243206Y18605004D01*
X6243203Y18605007D01*
X6243201Y18605010D01*
X6092009Y18756202D01*
X6092006Y18756204D01*
X6092004Y18756206D01*
X5919009Y18881894D01*
X5777992Y18953746D01*
X5726379Y19002492D01*
X5709313Y19071407D01*
X5732214Y19138609D01*
X5761133Y19167945D01*
X5838004Y19223794D01*
X5989206Y19374996D01*
X6114894Y19547991D01*
X6211972Y19738517D01*
X6278049Y19941884D01*
X6311500Y20153084D01*
X6311500Y20366916D01*
X6278049Y20578116D01*
X6211972Y20781483D01*
X6114894Y20972009D01*
X5989206Y21145004D01*
X5989203Y21145007D01*
X5989201Y21145010D01*
X5838006Y21296205D01*
X5761136Y21352054D01*
X5717782Y21408277D01*
X5711707Y21479013D01*
X5744839Y21541804D01*
X5777989Y21566253D01*
X5919009Y21638106D01*
X6092004Y21763794D01*
X6243206Y21914996D01*
X6368894Y22087991D01*
X6465972Y22278517D01*
X6532049Y22481884D01*
X6565500Y22693084D01*
X6565500Y22906916D01*
X6532049Y23118116D01*
X6465972Y23321483D01*
X6368894Y23512009D01*
X6243206Y23685004D01*
X6243203Y23685007D01*
X6243201Y23685010D01*
X6092009Y23836202D01*
X6092006Y23836204D01*
X6092004Y23836206D01*
X5919009Y23961894D01*
X5777992Y24033746D01*
X5726379Y24082492D01*
X5709313Y24151407D01*
X5732214Y24218609D01*
X5761133Y24247945D01*
X5838004Y24303794D01*
X5989206Y24454996D01*
X6114894Y24627991D01*
X6211972Y24818517D01*
X6278049Y25021884D01*
X6311500Y25233084D01*
X6311500Y25446916D01*
X6278049Y25658116D01*
X6211972Y25861483D01*
X6114894Y26052009D01*
X5989206Y26225004D01*
X5989203Y26225007D01*
X5989201Y26225010D01*
X5838006Y26376205D01*
X5761136Y26432054D01*
X5717782Y26488277D01*
X5711707Y26559013D01*
X5744839Y26621804D01*
X5777989Y26646253D01*
X5919009Y26718106D01*
X6092004Y26843794D01*
X6243206Y26994996D01*
X6368894Y27167991D01*
X6465972Y27358517D01*
X6532049Y27561884D01*
X6565500Y27773084D01*
X6565500Y27986916D01*
X6532049Y28198116D01*
X6465972Y28401483D01*
X6368894Y28592009D01*
X6243206Y28765004D01*
X6243203Y28765007D01*
X6243201Y28765010D01*
X6092009Y28916202D01*
X6092006Y28916204D01*
X6092004Y28916206D01*
X5919009Y29041894D01*
X5777992Y29113746D01*
X5726379Y29162492D01*
X5709313Y29231407D01*
X5732214Y29298609D01*
X5761133Y29327945D01*
X5838004Y29383794D01*
X5989206Y29534996D01*
X6114894Y29707991D01*
X6211972Y29898517D01*
X6278049Y30101884D01*
X6311500Y30313084D01*
X6311500Y30526916D01*
X6278049Y30738116D01*
X6231101Y30882608D01*
X21461300Y30882608D01*
X21461300Y30882605D01*
X21461300Y30717395D01*
X21493531Y30555360D01*
X21556754Y30402727D01*
X21616649Y30313088D01*
X21648540Y30265359D01*
X21648545Y30265353D01*
X21765352Y30148546D01*
X21765358Y30148541D01*
X21765360Y30148539D01*
X21902727Y30056754D01*
X22055360Y29993531D01*
X22217395Y29961300D01*
X22217396Y29961300D01*
X22388795Y29961300D01*
X22388795Y29958485D01*
X22392001Y29957879D01*
X22407232Y29960068D01*
X22426179Y29951415D01*
X22446646Y29947544D01*
X22457818Y29936965D01*
X22471812Y29930574D01*
X22483071Y29913054D01*
X22498199Y29898730D01*
X22502484Y29882848D01*
X22510196Y29870848D01*
X22515300Y29835350D01*
X22515300Y29778352D01*
X22495298Y29710231D01*
X22494065Y29708351D01*
X22399465Y29566772D01*
X22399464Y29566771D01*
X22336241Y29414137D01*
X22336240Y29414136D01*
X22304009Y29252102D01*
X22304009Y29086887D01*
X22321015Y29001393D01*
X22336240Y28924854D01*
X22399463Y28772221D01*
X22484710Y28644640D01*
X22491249Y28634853D01*
X22491254Y28634847D01*
X22608061Y28518040D01*
X22608067Y28518035D01*
X22608069Y28518033D01*
X22745436Y28426248D01*
X22898069Y28363025D01*
X23020696Y28338633D01*
X23060098Y28330795D01*
X23060099Y28330795D01*
X23060104Y28330794D01*
X23060108Y28330794D01*
X23060433Y28330762D01*
X23060597Y28330696D01*
X23066176Y28329586D01*
X23065965Y28328529D01*
X23126270Y28304189D01*
X23167288Y28246241D01*
X23174102Y28205367D01*
X23174102Y27220156D01*
X23154100Y27152035D01*
X23137197Y27131061D01*
X23032129Y27025994D01*
X23032121Y27025984D01*
X22955145Y26892657D01*
X22945066Y26855040D01*
X22912456Y26798558D01*
X22848538Y26734640D01*
X22756754Y26597274D01*
X22693532Y26444643D01*
X22693531Y26444642D01*
X22661300Y26282608D01*
X22661300Y26117393D01*
X22674970Y26048670D01*
X22693531Y25955360D01*
X22756754Y25802727D01*
X22830886Y25691781D01*
X22848540Y25665359D01*
X22848545Y25665353D01*
X22965352Y25548546D01*
X22965358Y25548541D01*
X22965360Y25548539D01*
X23102727Y25456754D01*
X23255360Y25393531D01*
X23417395Y25361300D01*
X23417396Y25361300D01*
X23582604Y25361300D01*
X23582605Y25361300D01*
X23744640Y25393531D01*
X23897273Y25456754D01*
X24034640Y25548539D01*
X24151461Y25665360D01*
X24197330Y25734008D01*
X26566300Y25734008D01*
X26566300Y25568793D01*
X26590543Y25446916D01*
X26598531Y25406760D01*
X26661754Y25254127D01*
X26694389Y25205286D01*
X26753540Y25116759D01*
X26753545Y25116753D01*
X26870352Y24999946D01*
X26870358Y24999941D01*
X26870360Y24999939D01*
X27007727Y24908154D01*
X27160360Y24844931D01*
X27322395Y24812700D01*
X27364620Y24812700D01*
X27432741Y24792698D01*
X27453710Y24775800D01*
X28997385Y23232124D01*
X29064048Y23193637D01*
X29064050Y23193635D01*
X29130708Y23155150D01*
X29130711Y23155149D01*
X29130714Y23155147D01*
X29279423Y23115300D01*
X35846408Y23115300D01*
X35914529Y23095298D01*
X35935503Y23078395D01*
X35965352Y23048546D01*
X35965358Y23048541D01*
X35965360Y23048539D01*
X36102727Y22956754D01*
X36255360Y22893531D01*
X36417395Y22861300D01*
X36417396Y22861300D01*
X36582604Y22861300D01*
X36582605Y22861300D01*
X36744640Y22893531D01*
X36897273Y22956754D01*
X37034640Y23048539D01*
X37151461Y23165360D01*
X37243246Y23302727D01*
X37306469Y23455360D01*
X37338700Y23617395D01*
X37338700Y23782605D01*
X37306469Y23944640D01*
X37243246Y24097273D01*
X37151461Y24234640D01*
X37151459Y24234642D01*
X37151454Y24234648D01*
X37034647Y24351455D01*
X37034641Y24351460D01*
X37011881Y24366668D01*
X36897273Y24443246D01*
X36744641Y24506469D01*
X36582607Y24538700D01*
X36582605Y24538700D01*
X36540381Y24538700D01*
X36472260Y24558702D01*
X36451286Y24575605D01*
X35821605Y25205286D01*
X35787579Y25267598D01*
X35784700Y25294381D01*
X35784700Y27746409D01*
X35804702Y27814530D01*
X35821601Y27835501D01*
X35851461Y27865360D01*
X35943246Y28002727D01*
X36006469Y28155360D01*
X36038700Y28317395D01*
X36038700Y28482605D01*
X36006469Y28644640D01*
X35943246Y28797273D01*
X35851461Y28934640D01*
X35851459Y28934642D01*
X35851454Y28934648D01*
X35734647Y29051455D01*
X35734641Y29051460D01*
X35681621Y29086887D01*
X35597273Y29143246D01*
X35444641Y29206469D01*
X35282607Y29238700D01*
X35282605Y29238700D01*
X35117395Y29238700D01*
X35117392Y29238700D01*
X34955358Y29206469D01*
X34955357Y29206468D01*
X34802725Y29143245D01*
X34665358Y29051460D01*
X34665352Y29051455D01*
X34548545Y28934648D01*
X34548540Y28934642D01*
X34456755Y28797275D01*
X34393532Y28644643D01*
X34393531Y28644642D01*
X34361300Y28482608D01*
X34361300Y28317393D01*
X34387428Y28186042D01*
X34393531Y28155360D01*
X34456754Y28002727D01*
X34548539Y27865360D01*
X34578395Y27835504D01*
X34612420Y27773194D01*
X34615300Y27746409D01*
X34615300Y24923025D01*
X34615299Y24923025D01*
X34655147Y24774314D01*
X34699715Y24697121D01*
X34699715Y24697120D01*
X34732121Y24640990D01*
X34732129Y24640980D01*
X34873314Y24499795D01*
X34907340Y24437483D01*
X34902275Y24366668D01*
X34859728Y24309832D01*
X34793208Y24285021D01*
X34784219Y24284700D01*
X29650781Y24284700D01*
X29582660Y24304702D01*
X29561686Y24321605D01*
X28280605Y25602686D01*
X28246579Y25664998D01*
X28243700Y25691781D01*
X28243700Y25734004D01*
X28243699Y25734008D01*
X28230030Y25802727D01*
X28211469Y25896040D01*
X28148246Y26048673D01*
X28105932Y26112001D01*
X28084720Y26179754D01*
X28084700Y26182000D01*
X28084700Y26997809D01*
X28104702Y27065930D01*
X28121601Y27086901D01*
X28151461Y27116760D01*
X28243246Y27254127D01*
X28306469Y27406760D01*
X28338700Y27568795D01*
X28338700Y27734005D01*
X28306469Y27896040D01*
X28243246Y28048673D01*
X28151461Y28186040D01*
X28151459Y28186042D01*
X28151454Y28186048D01*
X28034647Y28302855D01*
X28034641Y28302860D01*
X27996225Y28328529D01*
X27897273Y28394646D01*
X27744641Y28457869D01*
X27582607Y28490100D01*
X27582605Y28490100D01*
X27417395Y28490100D01*
X27417392Y28490100D01*
X27255358Y28457869D01*
X27255357Y28457868D01*
X27165945Y28420832D01*
X27119224Y28401479D01*
X27102725Y28394645D01*
X26965358Y28302860D01*
X26965352Y28302855D01*
X26848545Y28186048D01*
X26848540Y28186042D01*
X26756755Y28048675D01*
X26693532Y27896043D01*
X26693531Y27896042D01*
X26661300Y27734008D01*
X26661300Y27568793D01*
X26693531Y27406760D01*
X26756754Y27254127D01*
X26848539Y27116760D01*
X26878395Y27086904D01*
X26912420Y27024594D01*
X26915300Y26997809D01*
X26915300Y26399336D01*
X26895298Y26331215D01*
X26874323Y26307651D01*
X26874737Y26307237D01*
X26870362Y26302863D01*
X26870360Y26302861D01*
X26814139Y26246640D01*
X26753541Y26186043D01*
X26753540Y26186042D01*
X26661755Y26048675D01*
X26598532Y25896043D01*
X26598531Y25896042D01*
X26566300Y25734008D01*
X24197330Y25734008D01*
X24243246Y25802727D01*
X24306469Y25955360D01*
X24338700Y26117395D01*
X24338700Y26282605D01*
X24306469Y26444640D01*
X24267462Y26538810D01*
X24259873Y26609400D01*
X24274752Y26650029D01*
X24303655Y26700089D01*
X24343502Y26848798D01*
X24343502Y33143722D01*
X29066500Y33143722D01*
X29066500Y32906278D01*
X29099603Y32697275D01*
X29103645Y32671754D01*
X29177016Y32445942D01*
X29177018Y32445937D01*
X29284815Y32234373D01*
X29424380Y32042278D01*
X29424382Y32042276D01*
X29424384Y32042273D01*
X29592272Y31874385D01*
X29592275Y31874383D01*
X29592278Y31874380D01*
X29784373Y31734815D01*
X29995937Y31627018D01*
X30221759Y31553644D01*
X30456278Y31516500D01*
X30456281Y31516500D01*
X30693719Y31516500D01*
X30693722Y31516500D01*
X30928241Y31553644D01*
X31154063Y31627018D01*
X31365627Y31734815D01*
X31557722Y31874380D01*
X31725620Y32042278D01*
X31865185Y32234373D01*
X31935056Y32371504D01*
X31983804Y32423118D01*
X32047323Y32440300D01*
X32196774Y32440300D01*
X32196777Y32440300D01*
X32340190Y32478728D01*
X32411165Y32477038D01*
X32469961Y32437244D01*
X32497909Y32371980D01*
X32498800Y32357021D01*
X32498800Y31530792D01*
X32478798Y31462671D01*
X32461895Y31441697D01*
X32432045Y31411848D01*
X32432040Y31411842D01*
X32340255Y31274475D01*
X32277032Y31121843D01*
X32277031Y31121842D01*
X32244800Y30959808D01*
X32244800Y30794593D01*
X32277031Y30632560D01*
X32340254Y30479927D01*
X32340255Y30479926D01*
X32432040Y30342559D01*
X32432045Y30342553D01*
X32548852Y30225746D01*
X32548858Y30225741D01*
X32548860Y30225739D01*
X32686227Y30133954D01*
X32838860Y30070731D01*
X33000895Y30038500D01*
X33000896Y30038500D01*
X33166104Y30038500D01*
X33166105Y30038500D01*
X33328140Y30070731D01*
X33480773Y30133954D01*
X33618140Y30225739D01*
X33734961Y30342560D01*
X33826746Y30479927D01*
X33889969Y30632560D01*
X33922200Y30794595D01*
X33922200Y30959805D01*
X33889969Y31121840D01*
X33826746Y31274473D01*
X33826743Y31274478D01*
X33825982Y31275901D01*
X33825808Y31276736D01*
X33824377Y31280191D01*
X33825032Y31280463D01*
X33811509Y31345407D01*
X33836911Y31411704D01*
X33894123Y31453743D01*
X33937103Y31461300D01*
X34082604Y31461300D01*
X34082605Y31461300D01*
X34244640Y31493531D01*
X34397273Y31556754D01*
X34534640Y31648539D01*
X34651461Y31765360D01*
X34743246Y31902727D01*
X34806469Y32055360D01*
X34838700Y32217395D01*
X34838700Y32382605D01*
X34806469Y32544640D01*
X34743246Y32697273D01*
X34651461Y32834640D01*
X34651459Y32834642D01*
X34651454Y32834648D01*
X34621605Y32864497D01*
X34587579Y32926809D01*
X34584700Y32953592D01*
X34584700Y34857817D01*
X34587483Y34867297D01*
X34586183Y34877089D01*
X34597320Y34900801D01*
X34604702Y34925938D01*
X34612167Y34932407D01*
X34616368Y34941349D01*
X34638559Y34955276D01*
X34658358Y34972431D01*
X34669739Y34974843D01*
X34676504Y34979088D01*
X34712050Y34983810D01*
X34858137Y34982239D01*
X34926037Y34961505D01*
X34969046Y34913449D01*
X35034813Y34784376D01*
X35034813Y34784375D01*
X35072905Y34731946D01*
X35174380Y34592278D01*
X35174382Y34592276D01*
X35174384Y34592273D01*
X35342272Y34424385D01*
X35342275Y34424383D01*
X35342278Y34424380D01*
X35534373Y34284815D01*
X35745937Y34177018D01*
X35971759Y34103644D01*
X36206278Y34066500D01*
X36206281Y34066500D01*
X36443719Y34066500D01*
X36443722Y34066500D01*
X36678241Y34103644D01*
X36904063Y34177018D01*
X37115627Y34284815D01*
X37307722Y34424380D01*
X37475620Y34592278D01*
X37615185Y34784373D01*
X37722982Y34995937D01*
X37796356Y35221759D01*
X37833500Y35456278D01*
X37833500Y35693722D01*
X37796356Y35928241D01*
X37722982Y36154063D01*
X37615185Y36365627D01*
X37475620Y36557722D01*
X37475617Y36557725D01*
X37475615Y36557728D01*
X37307727Y36725616D01*
X37307724Y36725618D01*
X37307722Y36725620D01*
X37163121Y36830678D01*
X37115630Y36865183D01*
X37115629Y36865184D01*
X37115627Y36865185D01*
X36904063Y36972982D01*
X36904060Y36972983D01*
X36904058Y36972984D01*
X36678246Y37046355D01*
X36678242Y37046356D01*
X36678241Y37046356D01*
X36443722Y37083500D01*
X36206278Y37083500D01*
X35971759Y37046356D01*
X35971753Y37046355D01*
X35745941Y36972984D01*
X35745935Y36972981D01*
X35534369Y36865183D01*
X35342275Y36725618D01*
X35342272Y36725616D01*
X35174384Y36557728D01*
X35174382Y36557725D01*
X35034815Y36365628D01*
X34985047Y36267955D01*
X34973971Y36256229D01*
X34967113Y36241627D01*
X34950092Y36230946D01*
X34936298Y36216340D01*
X34919902Y36212000D01*
X34906977Y36203888D01*
X34871426Y36199166D01*
X34635238Y36201706D01*
X34567336Y36222440D01*
X34547498Y36238604D01*
X34534647Y36251455D01*
X34534641Y36251460D01*
X34509955Y36267955D01*
X34397273Y36343246D01*
X34244641Y36406469D01*
X34082607Y36438700D01*
X34082605Y36438700D01*
X33917395Y36438700D01*
X33917392Y36438700D01*
X33755358Y36406469D01*
X33755357Y36406468D01*
X33602725Y36343245D01*
X33465358Y36251460D01*
X33465352Y36251455D01*
X33348545Y36134648D01*
X33348540Y36134642D01*
X33256755Y35997275D01*
X33193532Y35844643D01*
X33193531Y35844642D01*
X33161300Y35682608D01*
X33161300Y35517393D01*
X33168864Y35479367D01*
X33193531Y35355360D01*
X33256754Y35202727D01*
X33348539Y35065360D01*
X33378395Y35035504D01*
X33393340Y35008135D01*
X33410196Y34981907D01*
X33411101Y34975609D01*
X33412420Y34973194D01*
X33415300Y34946409D01*
X33415300Y34931364D01*
X33395298Y34863243D01*
X33341642Y34816750D01*
X33271368Y34806646D01*
X33264719Y34807785D01*
X33166110Y34827400D01*
X33166105Y34827400D01*
X33000895Y34827400D01*
X33000892Y34827400D01*
X32838858Y34795169D01*
X32838857Y34795168D01*
X32686225Y34731945D01*
X32548858Y34640160D01*
X32548852Y34640155D01*
X32432045Y34523348D01*
X32432040Y34523342D01*
X32351449Y34402727D01*
X32340254Y34385973D01*
X32321512Y34340725D01*
X32277032Y34233343D01*
X32277031Y34233342D01*
X32244800Y34071308D01*
X32244800Y34029081D01*
X32236014Y33999161D01*
X32229387Y33968695D01*
X32225573Y33963601D01*
X32224798Y33960960D01*
X32207899Y33939991D01*
X32112919Y33845010D01*
X32061166Y33793257D01*
X31998854Y33759232D01*
X31928038Y33764297D01*
X31871203Y33806844D01*
X31866070Y33814409D01*
X31843837Y33845010D01*
X31725620Y34007722D01*
X31725617Y34007725D01*
X31725615Y34007728D01*
X31557727Y34175616D01*
X31557724Y34175618D01*
X31557722Y34175620D01*
X31365627Y34315185D01*
X31154063Y34422982D01*
X31154060Y34422983D01*
X31154058Y34422984D01*
X30928246Y34496355D01*
X30928242Y34496356D01*
X30928241Y34496356D01*
X30693722Y34533500D01*
X30456278Y34533500D01*
X30221759Y34496356D01*
X30221753Y34496355D01*
X29995941Y34422984D01*
X29995935Y34422981D01*
X29784369Y34315183D01*
X29592275Y34175618D01*
X29592272Y34175616D01*
X29424384Y34007728D01*
X29424382Y34007725D01*
X29284817Y33815631D01*
X29177019Y33604065D01*
X29177016Y33604059D01*
X29103645Y33378247D01*
X29103644Y33378242D01*
X29103644Y33378241D01*
X29066500Y33143722D01*
X24343502Y33143722D01*
X24343502Y34326422D01*
X24363504Y34394543D01*
X24380407Y34415517D01*
X25697486Y35732595D01*
X25759798Y35766621D01*
X25786581Y35769500D01*
X25828804Y35769500D01*
X25828805Y35769500D01*
X25990840Y35801731D01*
X26143473Y35864954D01*
X26280840Y35956739D01*
X26397661Y36073560D01*
X26489446Y36210927D01*
X26552669Y36363560D01*
X26584900Y36525595D01*
X26584900Y36690805D01*
X26552669Y36852840D01*
X26489446Y37005473D01*
X26397661Y37142840D01*
X26397659Y37142842D01*
X26397654Y37142848D01*
X26280847Y37259655D01*
X26280841Y37259660D01*
X26178581Y37327988D01*
X26143473Y37351446D01*
X25990841Y37414669D01*
X25828807Y37446900D01*
X25828805Y37446900D01*
X25663595Y37446900D01*
X25663592Y37446900D01*
X25501558Y37414669D01*
X25501557Y37414668D01*
X25348925Y37351445D01*
X25211558Y37259660D01*
X25211552Y37259655D01*
X25094745Y37142848D01*
X25094740Y37142842D01*
X25002955Y37005475D01*
X24939732Y36852843D01*
X24939731Y36852842D01*
X24907500Y36690808D01*
X24907500Y36648581D01*
X24887498Y36580460D01*
X24870595Y36559486D01*
X23824501Y35513393D01*
X23762189Y35479367D01*
X23691373Y35484432D01*
X23665405Y35497722D01*
X23597273Y35543246D01*
X23444642Y35606468D01*
X23444641Y35606469D01*
X23282607Y35638700D01*
X23282605Y35638700D01*
X23117395Y35638700D01*
X23117392Y35638700D01*
X22955358Y35606469D01*
X22955357Y35606468D01*
X22802725Y35543245D01*
X22665358Y35451460D01*
X22665352Y35451455D01*
X22548545Y35334648D01*
X22548540Y35334642D01*
X22456755Y35197275D01*
X22393532Y35044643D01*
X22393531Y35044642D01*
X22361300Y34882608D01*
X22361300Y34717393D01*
X22393531Y34555359D01*
X22393533Y34555354D01*
X22411893Y34511029D01*
X22419482Y34440439D01*
X22387703Y34376952D01*
X22326645Y34340725D01*
X22320066Y34339232D01*
X22155358Y34306469D01*
X22155357Y34306468D01*
X22002725Y34243245D01*
X21865358Y34151460D01*
X21865352Y34151455D01*
X21748545Y34034648D01*
X21748540Y34034642D01*
X21656755Y33897275D01*
X21593532Y33744643D01*
X21593531Y33744642D01*
X21561300Y33582608D01*
X21561300Y33417393D01*
X21593531Y33255360D01*
X21656754Y33102727D01*
X21748539Y32965360D01*
X21778395Y32935504D01*
X21812420Y32873194D01*
X21815300Y32846409D01*
X21815300Y31552040D01*
X21795298Y31483919D01*
X21769239Y31454645D01*
X21765355Y31451458D01*
X21648545Y31334648D01*
X21648540Y31334642D01*
X21556755Y31197275D01*
X21493532Y31044643D01*
X21493531Y31044642D01*
X21461300Y30882608D01*
X6231101Y30882608D01*
X6211972Y30941483D01*
X6114894Y31132009D01*
X5989206Y31305004D01*
X5989203Y31305007D01*
X5989201Y31305010D01*
X5838006Y31456205D01*
X5761136Y31512054D01*
X5717782Y31568277D01*
X5711707Y31639013D01*
X5744839Y31701804D01*
X5777989Y31726253D01*
X5919009Y31798106D01*
X6092004Y31923794D01*
X6243206Y32074996D01*
X6368894Y32247991D01*
X6465972Y32438517D01*
X6532049Y32641884D01*
X6565500Y32853084D01*
X6565500Y33066916D01*
X6532049Y33278116D01*
X6465972Y33481483D01*
X6368894Y33672009D01*
X6243206Y33845004D01*
X6243203Y33845007D01*
X6243201Y33845010D01*
X6092009Y33996202D01*
X6092006Y33996204D01*
X6092004Y33996206D01*
X5919009Y34121894D01*
X5777992Y34193746D01*
X5726379Y34242492D01*
X5709313Y34311407D01*
X5732214Y34378609D01*
X5761133Y34407945D01*
X5838004Y34463794D01*
X5989206Y34614996D01*
X6114894Y34787991D01*
X6211972Y34978517D01*
X6278049Y35181884D01*
X6311500Y35393084D01*
X6311500Y35606916D01*
X6278049Y35818116D01*
X6211972Y36021483D01*
X6114894Y36212009D01*
X5989206Y36385004D01*
X5989203Y36385007D01*
X5989201Y36385010D01*
X5838006Y36536205D01*
X5761136Y36592054D01*
X5717782Y36648277D01*
X5711707Y36719013D01*
X5744839Y36781804D01*
X5777989Y36806253D01*
X5919009Y36878106D01*
X6092004Y37003794D01*
X6243206Y37154996D01*
X6368894Y37327991D01*
X6465972Y37518517D01*
X6532049Y37721884D01*
X6565500Y37933084D01*
X6565500Y38146916D01*
X6532049Y38358116D01*
X6465972Y38561483D01*
X6368894Y38752009D01*
X6243206Y38925004D01*
X6243203Y38925007D01*
X6243201Y38925010D01*
X6092009Y39076202D01*
X6092006Y39076204D01*
X6092004Y39076206D01*
X5919009Y39201894D01*
X5777992Y39273746D01*
X5726379Y39322492D01*
X5709313Y39391407D01*
X5732214Y39458609D01*
X5761133Y39487945D01*
X5838004Y39543794D01*
X5989206Y39694996D01*
X6114894Y39867991D01*
X6211972Y40058517D01*
X6278049Y40261884D01*
X6311500Y40473084D01*
X6311500Y40686916D01*
X6278049Y40898116D01*
X6211972Y41101483D01*
X6114894Y41292009D01*
X5989206Y41465004D01*
X5989203Y41465007D01*
X5989201Y41465010D01*
X5838006Y41616205D01*
X5761136Y41672054D01*
X5717782Y41728277D01*
X5711707Y41799013D01*
X5744839Y41861804D01*
X5777989Y41886253D01*
X5919009Y41958106D01*
X6092004Y42083794D01*
X6243206Y42234996D01*
X6368894Y42407991D01*
X6465972Y42598517D01*
X6532049Y42801884D01*
X6565500Y43013084D01*
X6565500Y43226916D01*
X6532049Y43438116D01*
X6465972Y43641483D01*
X6368894Y43832009D01*
X6243206Y44005004D01*
X6243203Y44005007D01*
X6243201Y44005010D01*
X6092009Y44156202D01*
X6092006Y44156204D01*
X6092004Y44156206D01*
X5919009Y44281894D01*
X5777992Y44353746D01*
X5726379Y44402492D01*
X5709313Y44471407D01*
X5732214Y44538609D01*
X5761133Y44567945D01*
X5838004Y44623794D01*
X5989206Y44774996D01*
X6114894Y44947991D01*
X6211972Y45138517D01*
X6278049Y45341884D01*
X6311500Y45553084D01*
X6311500Y45766916D01*
X6278049Y45978116D01*
X6211972Y46181483D01*
X6114894Y46372009D01*
X5989206Y46545004D01*
X5989203Y46545007D01*
X5989201Y46545010D01*
X5907806Y46626405D01*
X5873780Y46688717D01*
X5878845Y46759532D01*
X5921392Y46816368D01*
X5987912Y46841179D01*
X5996901Y46841500D01*
X6105632Y46841500D01*
X6105638Y46841500D01*
X6105645Y46841501D01*
X6105649Y46841501D01*
X6166196Y46848010D01*
X6166199Y46848011D01*
X6166201Y46848011D01*
X6303204Y46899111D01*
X6420261Y46986739D01*
X6507889Y47103796D01*
X6558989Y47240799D01*
X6559021Y47241092D01*
X6565499Y47301351D01*
X6565500Y47301368D01*
X6565500Y49098633D01*
X6565499Y49098650D01*
X6558990Y49159197D01*
X6558988Y49159205D01*
X6507889Y49296203D01*
X6507887Y49296208D01*
X6420261Y49413262D01*
X6303207Y49500888D01*
X6303202Y49500890D01*
X6166204Y49551989D01*
X6166196Y49551991D01*
X6105649Y49558500D01*
X6105638Y49558500D01*
X4308362Y49558500D01*
X4308350Y49558500D01*
X4247803Y49551991D01*
X4247795Y49551989D01*
X4110797Y49500890D01*
X4110792Y49500888D01*
X3993738Y49413262D01*
X3906112Y49296208D01*
X3906110Y49296203D01*
X3855011Y49159205D01*
X3855009Y49159197D01*
X3848500Y49098650D01*
X3848500Y47301351D01*
X3855009Y47240804D01*
X3855011Y47240796D01*
X3906110Y47103798D01*
X3906112Y47103793D01*
X3993738Y46986739D01*
X4090497Y46914306D01*
X4133044Y46857470D01*
X4138108Y46786654D01*
X4104083Y46724342D01*
X4089054Y46711507D01*
X4076970Y46702726D01*
X4067989Y46696201D01*
X3916798Y46545010D01*
X3916796Y46545007D01*
X3791108Y46372013D01*
X3694029Y46181485D01*
X3694026Y46181479D01*
X3627952Y45978122D01*
X3627951Y45978117D01*
X3627951Y45978116D01*
X3594500Y45766916D01*
X75500Y45766916D01*
X75500Y50782608D01*
X16461300Y50782608D01*
X16461300Y50782605D01*
X16461300Y50617395D01*
X16493531Y50455360D01*
X16556754Y50302727D01*
X16556755Y50302726D01*
X16648540Y50165359D01*
X16648545Y50165353D01*
X16765360Y50048538D01*
X16766147Y50047892D01*
X16766448Y50047450D01*
X16769737Y50044161D01*
X16769113Y50043538D01*
X16806112Y49989212D01*
X16808007Y49918240D01*
X16775303Y49861405D01*
X16748540Y49834642D01*
X16656755Y49697275D01*
X16593532Y49544643D01*
X16593531Y49544642D01*
X16561300Y49382608D01*
X16561300Y49217393D01*
X16572876Y49159197D01*
X16593531Y49055360D01*
X16656754Y48902727D01*
X16725257Y48800205D01*
X16748540Y48765359D01*
X16748545Y48765353D01*
X16865352Y48648546D01*
X16865358Y48648541D01*
X16865360Y48648539D01*
X17002727Y48556754D01*
X17155360Y48493531D01*
X17317395Y48461300D01*
X17359620Y48461300D01*
X17427741Y48441298D01*
X17448715Y48424395D01*
X18566909Y47306201D01*
X18600935Y47243889D01*
X18595870Y47173074D01*
X18566909Y47128011D01*
X18561045Y47122148D01*
X18561040Y47122142D01*
X18469255Y46984775D01*
X18406032Y46832143D01*
X18406031Y46832142D01*
X18373800Y46670108D01*
X18373800Y46504893D01*
X18385010Y46448539D01*
X18406031Y46342860D01*
X18469254Y46190227D01*
X18475100Y46181479D01*
X18561040Y46052859D01*
X18561045Y46052853D01*
X18677852Y45936046D01*
X18677858Y45936041D01*
X18677860Y45936039D01*
X18815227Y45844254D01*
X18967860Y45781031D01*
X19129895Y45748800D01*
X19129896Y45748800D01*
X19295104Y45748800D01*
X19295105Y45748800D01*
X19386180Y45766916D01*
X46774500Y45766916D01*
X46774500Y45553084D01*
X46807951Y45341884D01*
X46807952Y45341879D01*
X46874026Y45138522D01*
X46874028Y45138517D01*
X46971106Y44947991D01*
X47096794Y44774996D01*
X47096796Y44774994D01*
X47096798Y44774991D01*
X47247990Y44623799D01*
X47247993Y44623797D01*
X47247996Y44623794D01*
X47420991Y44498106D01*
X47562005Y44426256D01*
X47613620Y44377509D01*
X47630686Y44308594D01*
X47607786Y44241393D01*
X47578864Y44212054D01*
X47501989Y44156201D01*
X47350798Y44005010D01*
X47350796Y44005007D01*
X47225108Y43832013D01*
X47128029Y43641485D01*
X47128026Y43641479D01*
X47061952Y43438122D01*
X47061951Y43438117D01*
X47061951Y43438116D01*
X47028500Y43226916D01*
X47028500Y43013084D01*
X47061951Y42801884D01*
X47061952Y42801879D01*
X47128026Y42598522D01*
X47128028Y42598517D01*
X47225106Y42407991D01*
X47350794Y42234996D01*
X47350796Y42234994D01*
X47350798Y42234991D01*
X47501990Y42083799D01*
X47501993Y42083797D01*
X47501996Y42083794D01*
X47578863Y42027947D01*
X47622217Y41971725D01*
X47628292Y41900989D01*
X47595161Y41838197D01*
X47562006Y41813746D01*
X47435355Y41749214D01*
X47420987Y41741892D01*
X47247993Y41616204D01*
X47247990Y41616202D01*
X47096798Y41465010D01*
X47096796Y41465007D01*
X46971108Y41292013D01*
X46874029Y41101485D01*
X46874026Y41101479D01*
X46807952Y40898122D01*
X46807951Y40898117D01*
X46807951Y40898116D01*
X46774500Y40686916D01*
X46774500Y40473084D01*
X46807951Y40261884D01*
X46807952Y40261879D01*
X46874026Y40058522D01*
X46874028Y40058517D01*
X46971106Y39867991D01*
X47096794Y39694996D01*
X47096796Y39694994D01*
X47096798Y39694991D01*
X47247990Y39543799D01*
X47247993Y39543797D01*
X47247996Y39543794D01*
X47420991Y39418106D01*
X47562005Y39346256D01*
X47613620Y39297509D01*
X47630686Y39228594D01*
X47607786Y39161393D01*
X47578864Y39132054D01*
X47501989Y39076201D01*
X47350798Y38925010D01*
X47350796Y38925007D01*
X47225108Y38752013D01*
X47128029Y38561485D01*
X47128026Y38561479D01*
X47061952Y38358122D01*
X47061951Y38358117D01*
X47061951Y38358116D01*
X47028500Y38146916D01*
X47028500Y37933084D01*
X47061951Y37721884D01*
X47061952Y37721879D01*
X47128026Y37518522D01*
X47128028Y37518517D01*
X47225106Y37327991D01*
X47350794Y37154996D01*
X47350796Y37154994D01*
X47350798Y37154991D01*
X47501990Y37003799D01*
X47501993Y37003797D01*
X47501996Y37003794D01*
X47544407Y36972981D01*
X47578863Y36947947D01*
X47622217Y36891725D01*
X47628292Y36820989D01*
X47595161Y36758197D01*
X47562006Y36733746D01*
X47477738Y36690808D01*
X47420987Y36661892D01*
X47247993Y36536204D01*
X47247990Y36536202D01*
X47096798Y36385010D01*
X47096796Y36385007D01*
X46971108Y36212013D01*
X46874029Y36021485D01*
X46874026Y36021479D01*
X46807952Y35818122D01*
X46807951Y35818117D01*
X46807951Y35818116D01*
X46774500Y35606916D01*
X46774500Y35393084D01*
X46805514Y35197273D01*
X46807952Y35181879D01*
X46873085Y34981418D01*
X46874028Y34978517D01*
X46971106Y34787991D01*
X46971108Y34787988D01*
X46973737Y34784370D01*
X47096794Y34614996D01*
X47096796Y34614994D01*
X47096798Y34614991D01*
X47247990Y34463799D01*
X47247993Y34463797D01*
X47247996Y34463794D01*
X47420991Y34338106D01*
X47562005Y34266256D01*
X47613620Y34217509D01*
X47630686Y34148594D01*
X47607786Y34081393D01*
X47578864Y34052054D01*
X47501989Y33996201D01*
X47350798Y33845010D01*
X47350796Y33845007D01*
X47225108Y33672013D01*
X47128029Y33481485D01*
X47128026Y33481479D01*
X47061952Y33278122D01*
X47061951Y33278117D01*
X47061951Y33278116D01*
X47028500Y33066916D01*
X47028500Y32853084D01*
X47057220Y32671754D01*
X47061952Y32641879D01*
X47128026Y32438522D01*
X47128028Y32438517D01*
X47225106Y32247991D01*
X47350794Y32074996D01*
X47350796Y32074994D01*
X47350798Y32074991D01*
X47501990Y31923799D01*
X47501993Y31923797D01*
X47501996Y31923794D01*
X47530994Y31902726D01*
X47578863Y31867947D01*
X47622217Y31811725D01*
X47628292Y31740989D01*
X47595161Y31678197D01*
X47562006Y31653746D01*
X47509556Y31627020D01*
X47420987Y31581892D01*
X47247993Y31456204D01*
X47247990Y31456202D01*
X47096798Y31305010D01*
X47096796Y31305007D01*
X46971108Y31132013D01*
X46874029Y30941485D01*
X46874026Y30941479D01*
X46807952Y30738122D01*
X46807951Y30738117D01*
X46807951Y30738116D01*
X46774500Y30526916D01*
X46774500Y30313084D01*
X46802872Y30133954D01*
X46807952Y30101879D01*
X46874026Y29898522D01*
X46874028Y29898517D01*
X46971106Y29707991D01*
X47096794Y29534996D01*
X47096796Y29534994D01*
X47096798Y29534991D01*
X47247990Y29383799D01*
X47247993Y29383797D01*
X47247996Y29383794D01*
X47420991Y29258106D01*
X47562005Y29186256D01*
X47613620Y29137509D01*
X47630686Y29068594D01*
X47607786Y29001393D01*
X47578864Y28972054D01*
X47501989Y28916201D01*
X47350798Y28765010D01*
X47350796Y28765007D01*
X47225108Y28592013D01*
X47128029Y28401485D01*
X47128026Y28401479D01*
X47061952Y28198122D01*
X47061951Y28198117D01*
X47061951Y28198116D01*
X47028500Y27986916D01*
X47028500Y27773084D01*
X47060857Y27568793D01*
X47061952Y27561879D01*
X47128026Y27358522D01*
X47128028Y27358517D01*
X47225106Y27167991D01*
X47350794Y26994996D01*
X47350796Y26994994D01*
X47350798Y26994991D01*
X47501990Y26843799D01*
X47501993Y26843797D01*
X47501996Y26843794D01*
X47564258Y26798558D01*
X47578863Y26787947D01*
X47622217Y26731725D01*
X47628292Y26660989D01*
X47595161Y26598197D01*
X47562006Y26573746D01*
X47493443Y26538810D01*
X47420987Y26501892D01*
X47247993Y26376204D01*
X47247990Y26376202D01*
X47096798Y26225010D01*
X47096796Y26225007D01*
X46971108Y26052013D01*
X46874029Y25861485D01*
X46874026Y25861479D01*
X46807952Y25658122D01*
X46807951Y25658117D01*
X46807951Y25658116D01*
X46774500Y25446916D01*
X46774500Y25233084D01*
X46807951Y25021884D01*
X46807952Y25021879D01*
X46874026Y24818522D01*
X46874028Y24818517D01*
X46971106Y24627991D01*
X47096794Y24454996D01*
X47096796Y24454994D01*
X47096798Y24454991D01*
X47247990Y24303799D01*
X47247993Y24303797D01*
X47247996Y24303794D01*
X47420991Y24178106D01*
X47562005Y24106256D01*
X47613620Y24057509D01*
X47630686Y23988594D01*
X47607786Y23921393D01*
X47578864Y23892054D01*
X47501989Y23836201D01*
X47350798Y23685010D01*
X47350796Y23685007D01*
X47225108Y23512013D01*
X47128029Y23321485D01*
X47128026Y23321479D01*
X47061952Y23118122D01*
X47061951Y23118117D01*
X47061951Y23118116D01*
X47028500Y22906916D01*
X47028500Y22693084D01*
X47061951Y22481884D01*
X47061952Y22481879D01*
X47128026Y22278522D01*
X47128028Y22278517D01*
X47225106Y22087991D01*
X47350794Y21914996D01*
X47350796Y21914994D01*
X47350798Y21914991D01*
X47501990Y21763799D01*
X47501993Y21763797D01*
X47501996Y21763794D01*
X47578863Y21707947D01*
X47622217Y21651725D01*
X47628292Y21580989D01*
X47595161Y21518197D01*
X47562006Y21493746D01*
X47435355Y21429214D01*
X47420987Y21421892D01*
X47247993Y21296204D01*
X47247990Y21296202D01*
X47096798Y21145010D01*
X47096796Y21145007D01*
X46971108Y20972013D01*
X46874029Y20781485D01*
X46874026Y20781479D01*
X46807952Y20578122D01*
X46807951Y20578117D01*
X46807951Y20578116D01*
X46774500Y20366916D01*
X46774500Y20153084D01*
X46807951Y19941884D01*
X46807952Y19941879D01*
X46874026Y19738522D01*
X46874028Y19738517D01*
X46971106Y19547991D01*
X47096794Y19374996D01*
X47096796Y19374994D01*
X47096798Y19374991D01*
X47247990Y19223799D01*
X47247993Y19223797D01*
X47247996Y19223794D01*
X47420991Y19098106D01*
X47562005Y19026256D01*
X47613620Y18977509D01*
X47630686Y18908594D01*
X47607786Y18841393D01*
X47578864Y18812054D01*
X47501989Y18756201D01*
X47350798Y18605010D01*
X47350796Y18605007D01*
X47225108Y18432013D01*
X47128029Y18241485D01*
X47128026Y18241479D01*
X47061952Y18038122D01*
X47061951Y18038117D01*
X47061951Y18038116D01*
X47028500Y17826916D01*
X47028500Y17613084D01*
X47061951Y17401884D01*
X47061952Y17401879D01*
X47128026Y17198522D01*
X47128028Y17198517D01*
X47225106Y17007991D01*
X47350794Y16834996D01*
X47350796Y16834994D01*
X47350798Y16834991D01*
X47501990Y16683799D01*
X47501993Y16683797D01*
X47501996Y16683794D01*
X47578863Y16627947D01*
X47622217Y16571725D01*
X47628292Y16500989D01*
X47595161Y16438197D01*
X47562006Y16413746D01*
X47435355Y16349214D01*
X47420987Y16341892D01*
X47247993Y16216204D01*
X47247990Y16216202D01*
X47096798Y16065010D01*
X47096796Y16065007D01*
X46971108Y15892013D01*
X46874029Y15701485D01*
X46874026Y15701479D01*
X46807952Y15498122D01*
X46807951Y15498117D01*
X46807951Y15498116D01*
X46774500Y15286916D01*
X46774500Y15073084D01*
X46807951Y14861884D01*
X46807952Y14861879D01*
X46874026Y14658522D01*
X46874028Y14658517D01*
X46971106Y14467991D01*
X47096794Y14294996D01*
X47096796Y14294994D01*
X47096798Y14294991D01*
X47247990Y14143799D01*
X47247993Y14143797D01*
X47247996Y14143794D01*
X47420991Y14018106D01*
X47562005Y13946256D01*
X47613620Y13897509D01*
X47630686Y13828594D01*
X47607786Y13761393D01*
X47578864Y13732054D01*
X47501989Y13676201D01*
X47350798Y13525010D01*
X47350796Y13525007D01*
X47225108Y13352013D01*
X47128029Y13161485D01*
X47128026Y13161479D01*
X47061952Y12958122D01*
X47061951Y12958117D01*
X47061951Y12958116D01*
X47028500Y12746916D01*
X47028500Y12533084D01*
X47061951Y12321884D01*
X47061952Y12321879D01*
X47128026Y12118522D01*
X47128028Y12118517D01*
X47225106Y11927991D01*
X47350794Y11754996D01*
X47350796Y11754994D01*
X47350798Y11754991D01*
X47501990Y11603799D01*
X47501993Y11603797D01*
X47501996Y11603794D01*
X47578863Y11547947D01*
X47622217Y11491725D01*
X47628292Y11420989D01*
X47595161Y11358197D01*
X47562006Y11333746D01*
X47435355Y11269214D01*
X47420987Y11261892D01*
X47247993Y11136204D01*
X47247990Y11136202D01*
X47096798Y10985010D01*
X47096796Y10985007D01*
X46971108Y10812013D01*
X46874029Y10621485D01*
X46874026Y10621479D01*
X46807952Y10418122D01*
X46807951Y10418117D01*
X46807951Y10418116D01*
X46774500Y10206916D01*
X46774500Y9993084D01*
X46807951Y9781884D01*
X46807952Y9781879D01*
X46874026Y9578522D01*
X46874028Y9578517D01*
X46971106Y9387991D01*
X47096794Y9214996D01*
X47096796Y9214994D01*
X47096798Y9214991D01*
X47247990Y9063799D01*
X47247993Y9063797D01*
X47247996Y9063794D01*
X47420991Y8938106D01*
X47562505Y8866001D01*
X47614120Y8817252D01*
X47631186Y8748337D01*
X47608285Y8681136D01*
X47579364Y8651799D01*
X47502323Y8595825D01*
X47502317Y8595820D01*
X47351177Y8444680D01*
X47225536Y8271751D01*
X47128493Y8081293D01*
X47128490Y8081287D01*
X47062440Y7878005D01*
X47052302Y7814000D01*
X47956297Y7814000D01*
X47921075Y7752993D01*
X47887000Y7625826D01*
X47887000Y7494174D01*
X47921075Y7367007D01*
X47956297Y7306000D01*
X47052302Y7306000D01*
X47062440Y7241996D01*
X47128490Y7038714D01*
X47128493Y7038708D01*
X47225536Y6848250D01*
X47351177Y6675321D01*
X47502320Y6524178D01*
X47675249Y6398537D01*
X47865707Y6301494D01*
X47865713Y6301491D01*
X48068998Y6235440D01*
X48133000Y6225304D01*
X48133000Y7129298D01*
X48194007Y7094075D01*
X48321174Y7060000D01*
X48452826Y7060000D01*
X48579993Y7094075D01*
X48641000Y7129298D01*
X48641000Y6225304D01*
X48705001Y6235440D01*
X48908286Y6301491D01*
X48908292Y6301494D01*
X49098750Y6398537D01*
X49271679Y6524178D01*
X49422822Y6675321D01*
X49548463Y6848250D01*
X49645506Y7038708D01*
X49645509Y7038714D01*
X49711559Y7241996D01*
X49721698Y7306000D01*
X48817703Y7306000D01*
X48852925Y7367007D01*
X48887000Y7494174D01*
X48887000Y7625826D01*
X48852925Y7752993D01*
X48817703Y7814000D01*
X49721697Y7814000D01*
X49711559Y7878005D01*
X49645509Y8081287D01*
X49645506Y8081293D01*
X49548463Y8271751D01*
X49422822Y8444680D01*
X49271679Y8595823D01*
X49098750Y8721464D01*
X48957540Y8793414D01*
X48905925Y8842162D01*
X48888859Y8911077D01*
X48911760Y8978279D01*
X48940679Y9007615D01*
X49018004Y9063794D01*
X49169206Y9214996D01*
X49294894Y9387991D01*
X49391972Y9578517D01*
X49458049Y9781884D01*
X49491500Y9993084D01*
X49491500Y10206916D01*
X49458049Y10418116D01*
X49391972Y10621483D01*
X49294894Y10812009D01*
X49169206Y10985004D01*
X49169203Y10985007D01*
X49169201Y10985010D01*
X49018006Y11136205D01*
X48941136Y11192054D01*
X48897782Y11248277D01*
X48891707Y11319013D01*
X48924839Y11381804D01*
X48957989Y11406253D01*
X49099009Y11478106D01*
X49272004Y11603794D01*
X49423206Y11754996D01*
X49548894Y11927991D01*
X49645972Y12118517D01*
X49712049Y12321884D01*
X49745500Y12533084D01*
X49745500Y12746916D01*
X49712049Y12958116D01*
X49645972Y13161483D01*
X49548894Y13352009D01*
X49423206Y13525004D01*
X49423203Y13525007D01*
X49423201Y13525010D01*
X49272009Y13676202D01*
X49272006Y13676204D01*
X49272004Y13676206D01*
X49099009Y13801894D01*
X48957992Y13873746D01*
X48906379Y13922492D01*
X48889313Y13991407D01*
X48912214Y14058609D01*
X48941133Y14087945D01*
X49018004Y14143794D01*
X49169206Y14294996D01*
X49294894Y14467991D01*
X49391972Y14658517D01*
X49458049Y14861884D01*
X49491500Y15073084D01*
X49491500Y15286916D01*
X49458049Y15498116D01*
X49391972Y15701483D01*
X49294894Y15892009D01*
X49169206Y16065004D01*
X49169203Y16065007D01*
X49169201Y16065010D01*
X49018006Y16216205D01*
X48941136Y16272054D01*
X48897782Y16328277D01*
X48891707Y16399013D01*
X48924839Y16461804D01*
X48957989Y16486253D01*
X49099009Y16558106D01*
X49272004Y16683794D01*
X49423206Y16834996D01*
X49548894Y17007991D01*
X49645972Y17198517D01*
X49712049Y17401884D01*
X49745500Y17613084D01*
X49745500Y17826916D01*
X49712049Y18038116D01*
X49645972Y18241483D01*
X49548894Y18432009D01*
X49423206Y18605004D01*
X49423203Y18605007D01*
X49423201Y18605010D01*
X49272009Y18756202D01*
X49272006Y18756204D01*
X49272004Y18756206D01*
X49099009Y18881894D01*
X48957992Y18953746D01*
X48906379Y19002492D01*
X48889313Y19071407D01*
X48912214Y19138609D01*
X48941133Y19167945D01*
X49018004Y19223794D01*
X49169206Y19374996D01*
X49294894Y19547991D01*
X49391972Y19738517D01*
X49458049Y19941884D01*
X49491500Y20153084D01*
X49491500Y20366916D01*
X49458049Y20578116D01*
X49391972Y20781483D01*
X49294894Y20972009D01*
X49169206Y21145004D01*
X49169203Y21145007D01*
X49169201Y21145010D01*
X49018006Y21296205D01*
X48941136Y21352054D01*
X48897782Y21408277D01*
X48891707Y21479013D01*
X48924839Y21541804D01*
X48957989Y21566253D01*
X49099009Y21638106D01*
X49272004Y21763794D01*
X49423206Y21914996D01*
X49548894Y22087991D01*
X49645972Y22278517D01*
X49712049Y22481884D01*
X49745500Y22693084D01*
X49745500Y22906916D01*
X49712049Y23118116D01*
X49645972Y23321483D01*
X49548894Y23512009D01*
X49423206Y23685004D01*
X49423203Y23685007D01*
X49423201Y23685010D01*
X49272009Y23836202D01*
X49272006Y23836204D01*
X49272004Y23836206D01*
X49099009Y23961894D01*
X48957992Y24033746D01*
X48906379Y24082492D01*
X48889313Y24151407D01*
X48912214Y24218609D01*
X48941133Y24247945D01*
X49018004Y24303794D01*
X49169206Y24454996D01*
X49294894Y24627991D01*
X49391972Y24818517D01*
X49458049Y25021884D01*
X49491500Y25233084D01*
X49491500Y25446916D01*
X49458049Y25658116D01*
X49391972Y25861483D01*
X49294894Y26052009D01*
X49169206Y26225004D01*
X49169203Y26225007D01*
X49169201Y26225010D01*
X49018006Y26376205D01*
X48941136Y26432054D01*
X48897782Y26488277D01*
X48891707Y26559013D01*
X48924839Y26621804D01*
X48957989Y26646253D01*
X49099009Y26718106D01*
X49272004Y26843794D01*
X49423206Y26994996D01*
X49548894Y27167991D01*
X49645972Y27358517D01*
X49712049Y27561884D01*
X49745500Y27773084D01*
X49745500Y27986916D01*
X49712049Y28198116D01*
X49645972Y28401483D01*
X49548894Y28592009D01*
X49423206Y28765004D01*
X49423203Y28765007D01*
X49423201Y28765010D01*
X49272009Y28916202D01*
X49272006Y28916204D01*
X49272004Y28916206D01*
X49099009Y29041894D01*
X48957992Y29113746D01*
X48906379Y29162492D01*
X48889313Y29231407D01*
X48912214Y29298609D01*
X48941133Y29327945D01*
X49018004Y29383794D01*
X49169206Y29534996D01*
X49294894Y29707991D01*
X49391972Y29898517D01*
X49458049Y30101884D01*
X49491500Y30313084D01*
X49491500Y30526916D01*
X49458049Y30738116D01*
X49391972Y30941483D01*
X49294894Y31132009D01*
X49169206Y31305004D01*
X49169203Y31305007D01*
X49169201Y31305010D01*
X49018006Y31456205D01*
X48941136Y31512054D01*
X48897782Y31568277D01*
X48891707Y31639013D01*
X48924839Y31701804D01*
X48957989Y31726253D01*
X49099009Y31798106D01*
X49272004Y31923794D01*
X49423206Y32074996D01*
X49548894Y32247991D01*
X49645972Y32438517D01*
X49712049Y32641884D01*
X49745500Y32853084D01*
X49745500Y33066916D01*
X49712049Y33278116D01*
X49645972Y33481483D01*
X49548894Y33672009D01*
X49423206Y33845004D01*
X49423203Y33845007D01*
X49423201Y33845010D01*
X49272009Y33996202D01*
X49272006Y33996204D01*
X49272004Y33996206D01*
X49099009Y34121894D01*
X48957992Y34193746D01*
X48906379Y34242492D01*
X48889313Y34311407D01*
X48912214Y34378609D01*
X48941133Y34407945D01*
X49018004Y34463794D01*
X49169206Y34614996D01*
X49294894Y34787991D01*
X49391972Y34978517D01*
X49458049Y35181884D01*
X49491500Y35393084D01*
X49491500Y35606916D01*
X49458049Y35818116D01*
X49391972Y36021483D01*
X49294894Y36212009D01*
X49169206Y36385004D01*
X49169203Y36385007D01*
X49169201Y36385010D01*
X49018006Y36536205D01*
X48941136Y36592054D01*
X48897782Y36648277D01*
X48891707Y36719013D01*
X48924839Y36781804D01*
X48957989Y36806253D01*
X49099009Y36878106D01*
X49272004Y37003794D01*
X49423206Y37154996D01*
X49548894Y37327991D01*
X49645972Y37518517D01*
X49712049Y37721884D01*
X49745500Y37933084D01*
X49745500Y38146916D01*
X49712049Y38358116D01*
X49645972Y38561483D01*
X49548894Y38752009D01*
X49423206Y38925004D01*
X49423203Y38925007D01*
X49423201Y38925010D01*
X49272009Y39076202D01*
X49272006Y39076204D01*
X49272004Y39076206D01*
X49099009Y39201894D01*
X48957992Y39273746D01*
X48906379Y39322492D01*
X48889313Y39391407D01*
X48912214Y39458609D01*
X48941133Y39487945D01*
X49018004Y39543794D01*
X49169206Y39694996D01*
X49294894Y39867991D01*
X49391972Y40058517D01*
X49458049Y40261884D01*
X49491500Y40473084D01*
X49491500Y40686916D01*
X49458049Y40898116D01*
X49391972Y41101483D01*
X49294894Y41292009D01*
X49169206Y41465004D01*
X49169203Y41465007D01*
X49169201Y41465010D01*
X49018006Y41616205D01*
X48941136Y41672054D01*
X48897782Y41728277D01*
X48891707Y41799013D01*
X48924839Y41861804D01*
X48957989Y41886253D01*
X49099009Y41958106D01*
X49272004Y42083794D01*
X49423206Y42234996D01*
X49548894Y42407991D01*
X49645972Y42598517D01*
X49712049Y42801884D01*
X49745500Y43013084D01*
X49745500Y43226916D01*
X49712049Y43438116D01*
X49645972Y43641483D01*
X49548894Y43832009D01*
X49423206Y44005004D01*
X49423203Y44005007D01*
X49423201Y44005010D01*
X49272009Y44156202D01*
X49272006Y44156204D01*
X49272004Y44156206D01*
X49099009Y44281894D01*
X48957992Y44353746D01*
X48906379Y44402492D01*
X48889313Y44471407D01*
X48912214Y44538609D01*
X48941133Y44567945D01*
X49018004Y44623794D01*
X49169206Y44774996D01*
X49294894Y44947991D01*
X49391972Y45138517D01*
X49458049Y45341884D01*
X49491500Y45553084D01*
X49491500Y45766916D01*
X49458049Y45978116D01*
X49391972Y46181483D01*
X49294894Y46372009D01*
X49169206Y46545004D01*
X49169203Y46545007D01*
X49169201Y46545010D01*
X49087806Y46626405D01*
X49053780Y46688717D01*
X49058845Y46759532D01*
X49101392Y46816368D01*
X49167912Y46841179D01*
X49176901Y46841500D01*
X49285632Y46841500D01*
X49285638Y46841500D01*
X49285645Y46841501D01*
X49285649Y46841501D01*
X49346196Y46848010D01*
X49346199Y46848011D01*
X49346201Y46848011D01*
X49483204Y46899111D01*
X49600261Y46986739D01*
X49687889Y47103796D01*
X49738989Y47240799D01*
X49739021Y47241092D01*
X49745499Y47301351D01*
X49745500Y47301368D01*
X49745500Y49098633D01*
X49745499Y49098650D01*
X49738990Y49159197D01*
X49738988Y49159205D01*
X49687889Y49296203D01*
X49687887Y49296208D01*
X49600261Y49413262D01*
X49483207Y49500888D01*
X49483202Y49500890D01*
X49346204Y49551989D01*
X49346196Y49551991D01*
X49285649Y49558500D01*
X49285638Y49558500D01*
X47488362Y49558500D01*
X47488350Y49558500D01*
X47427803Y49551991D01*
X47427795Y49551989D01*
X47290797Y49500890D01*
X47290792Y49500888D01*
X47173738Y49413262D01*
X47086112Y49296208D01*
X47086110Y49296203D01*
X47035011Y49159205D01*
X47035009Y49159197D01*
X47028500Y49098650D01*
X47028500Y47301351D01*
X47035009Y47240804D01*
X47035011Y47240796D01*
X47086110Y47103798D01*
X47086112Y47103793D01*
X47173738Y46986739D01*
X47270497Y46914306D01*
X47313044Y46857470D01*
X47318108Y46786654D01*
X47284083Y46724342D01*
X47269054Y46711507D01*
X47256970Y46702726D01*
X47247989Y46696201D01*
X47096798Y46545010D01*
X47096796Y46545007D01*
X46971108Y46372013D01*
X46874029Y46181485D01*
X46874026Y46181479D01*
X46807952Y45978122D01*
X46807951Y45978117D01*
X46807951Y45978116D01*
X46774500Y45766916D01*
X19386180Y45766916D01*
X19457140Y45781031D01*
X19609773Y45844254D01*
X19747140Y45936039D01*
X19863961Y46052860D01*
X19955746Y46190227D01*
X20018969Y46342860D01*
X20051200Y46504895D01*
X20051200Y46670105D01*
X20018969Y46832140D01*
X19955746Y46984773D01*
X19863961Y47122140D01*
X19863959Y47122142D01*
X19863954Y47122148D01*
X19834105Y47151997D01*
X19800079Y47214309D01*
X19797200Y47241092D01*
X19797200Y47564476D01*
X19797200Y47564477D01*
X19757353Y47713186D01*
X19710243Y47794782D01*
X19680378Y47846511D01*
X19680374Y47846516D01*
X19571514Y47955376D01*
X18726685Y48800205D01*
X18692659Y48862517D01*
X18697724Y48933332D01*
X18740271Y48990168D01*
X18806791Y49014979D01*
X18815780Y49015300D01*
X20923023Y49015300D01*
X23305620Y49015300D01*
X23373741Y48995298D01*
X23394715Y48978395D01*
X25224395Y47148715D01*
X25258421Y47086403D01*
X25261300Y47059620D01*
X25261300Y47017393D01*
X25267789Y46984773D01*
X25293531Y46855360D01*
X25356754Y46702727D01*
X25407751Y46626405D01*
X25448540Y46565359D01*
X25448545Y46565353D01*
X25565352Y46448546D01*
X25565358Y46448541D01*
X25565360Y46448539D01*
X25702727Y46356754D01*
X25855360Y46293531D01*
X26017395Y46261300D01*
X26017396Y46261300D01*
X26182604Y46261300D01*
X26182605Y46261300D01*
X26344640Y46293531D01*
X26497273Y46356754D01*
X26634640Y46448539D01*
X26751461Y46565360D01*
X26843246Y46702727D01*
X26906469Y46855360D01*
X26938700Y47017395D01*
X26938700Y47182605D01*
X26906469Y47344640D01*
X26843246Y47497273D01*
X26751461Y47634640D01*
X26751459Y47634642D01*
X26751454Y47634648D01*
X26634647Y47751455D01*
X26634641Y47751460D01*
X26497274Y47843245D01*
X26497275Y47843245D01*
X26497273Y47843246D01*
X26344641Y47906469D01*
X26182607Y47938700D01*
X26182605Y47938700D01*
X26140380Y47938700D01*
X26072259Y47958702D01*
X26051285Y47975605D01*
X23959020Y50067871D01*
X23959010Y50067879D01*
X23825686Y50144853D01*
X23676977Y50184700D01*
X23676975Y50184700D01*
X18694380Y50184700D01*
X18626259Y50204702D01*
X18605285Y50221605D01*
X18175605Y50651285D01*
X18141579Y50713597D01*
X18138700Y50740380D01*
X18138700Y50782604D01*
X18138699Y50782608D01*
X18106469Y50944640D01*
X18043246Y51097273D01*
X17951461Y51234640D01*
X17951459Y51234642D01*
X17951454Y51234648D01*
X17834647Y51351455D01*
X17834641Y51351460D01*
X17697274Y51443245D01*
X17697275Y51443245D01*
X17697273Y51443246D01*
X17544641Y51506469D01*
X17382607Y51538700D01*
X17382605Y51538700D01*
X17217395Y51538700D01*
X17217392Y51538700D01*
X17055358Y51506469D01*
X17055357Y51506468D01*
X16902725Y51443245D01*
X16765358Y51351460D01*
X16765352Y51351455D01*
X16648545Y51234648D01*
X16648540Y51234642D01*
X16556755Y51097275D01*
X16493532Y50944643D01*
X16493531Y50944642D01*
X16461300Y50782608D01*
X75500Y50782608D01*
X75500Y59258650D01*
X3721500Y59258650D01*
X3721500Y57461351D01*
X3728009Y57400804D01*
X3728011Y57400796D01*
X3779110Y57263798D01*
X3779112Y57263793D01*
X3866738Y57146739D01*
X3983792Y57059113D01*
X3983796Y57059111D01*
X4102224Y57014939D01*
X4159059Y56972393D01*
X4183870Y56905872D01*
X4168778Y56836498D01*
X4147287Y56807789D01*
X4044176Y56704678D01*
X3918536Y56531751D01*
X3821493Y56341293D01*
X3821490Y56341287D01*
X3755440Y56138005D01*
X3745302Y56074000D01*
X4649297Y56074000D01*
X4614075Y56012993D01*
X4580000Y55885826D01*
X4580000Y55754174D01*
X4614075Y55627007D01*
X4649297Y55566000D01*
X3745302Y55566000D01*
X3755440Y55501996D01*
X3821490Y55298714D01*
X3821493Y55298708D01*
X3918536Y55108250D01*
X4044177Y54935321D01*
X4195320Y54784178D01*
X4368249Y54658537D01*
X4558707Y54561494D01*
X4558713Y54561491D01*
X4761998Y54495440D01*
X4826000Y54485304D01*
X4826000Y55389298D01*
X4887007Y55354075D01*
X5014174Y55320000D01*
X5145826Y55320000D01*
X5272993Y55354075D01*
X5334000Y55389298D01*
X5334000Y54485304D01*
X5398001Y54495440D01*
X5601286Y54561491D01*
X5601292Y54561494D01*
X5791750Y54658537D01*
X5964679Y54784178D01*
X6115822Y54935321D01*
X6241463Y55108250D01*
X6338506Y55298708D01*
X6338509Y55298714D01*
X6404559Y55501996D01*
X6414698Y55566000D01*
X5510703Y55566000D01*
X5545925Y55627007D01*
X5580000Y55754174D01*
X5580000Y55885826D01*
X5545925Y56012993D01*
X5510703Y56074000D01*
X6414697Y56074000D01*
X6404559Y56138005D01*
X6338509Y56341287D01*
X6338506Y56341293D01*
X6241463Y56531751D01*
X6115822Y56704680D01*
X6012713Y56807789D01*
X5978687Y56870101D01*
X5983752Y56940916D01*
X6026299Y56997752D01*
X6057768Y57014937D01*
X6176204Y57059111D01*
X6293261Y57146739D01*
X6380889Y57263796D01*
X6431989Y57400799D01*
X6437436Y57451460D01*
X6438499Y57461351D01*
X6438500Y57461368D01*
X6438500Y57665120D01*
X12043500Y57665120D01*
X12043500Y57464881D01*
X12082564Y57268498D01*
X12082565Y57268495D01*
X12084513Y57263793D01*
X12159190Y57083507D01*
X12233434Y56972393D01*
X12270434Y56917018D01*
X12270439Y56917012D01*
X12412011Y56775440D01*
X12412017Y56775435D01*
X12412019Y56775433D01*
X12578507Y56664190D01*
X12763498Y56587564D01*
X12959884Y56548500D01*
X13160116Y56548500D01*
X13356502Y56587564D01*
X13541493Y56664190D01*
X13625000Y56719988D01*
X13692750Y56741202D01*
X13761217Y56722419D01*
X13764970Y56720007D01*
X13848507Y56664190D01*
X14033498Y56587564D01*
X14229884Y56548500D01*
X14430116Y56548500D01*
X14626502Y56587564D01*
X14811493Y56664190D01*
X14895000Y56719988D01*
X14962750Y56741202D01*
X15031217Y56722419D01*
X15034970Y56720007D01*
X15118507Y56664190D01*
X15303498Y56587564D01*
X15499884Y56548500D01*
X15700116Y56548500D01*
X15896502Y56587564D01*
X16081493Y56664190D01*
X16165000Y56719988D01*
X16232750Y56741202D01*
X16301217Y56722419D01*
X16304970Y56720007D01*
X16388507Y56664190D01*
X16573498Y56587564D01*
X16769884Y56548500D01*
X16970116Y56548500D01*
X17166502Y56587564D01*
X17351493Y56664190D01*
X17435000Y56719988D01*
X17502750Y56741202D01*
X17571217Y56722419D01*
X17574970Y56720007D01*
X17658507Y56664190D01*
X17843498Y56587564D01*
X18039884Y56548500D01*
X18240116Y56548500D01*
X18436502Y56587564D01*
X18621493Y56664190D01*
X18787981Y56775433D01*
X18929567Y56917019D01*
X19040810Y57083507D01*
X19117436Y57268498D01*
X19156500Y57464884D01*
X19156500Y57665116D01*
X19117436Y57861502D01*
X19040810Y58046493D01*
X19035594Y58054300D01*
X19014380Y58122053D01*
X19033164Y58190519D01*
X19085982Y58237962D01*
X19140360Y58250300D01*
X27170620Y58250300D01*
X27238741Y58230298D01*
X27259715Y58213395D01*
X28624395Y56848715D01*
X28658421Y56786403D01*
X28661300Y56759620D01*
X28661300Y56717393D01*
X28669488Y56676231D01*
X28693531Y56555360D01*
X28756754Y56402727D01*
X28756755Y56402726D01*
X28848540Y56265359D01*
X28848545Y56265353D01*
X28965352Y56148546D01*
X28965358Y56148541D01*
X28965360Y56148539D01*
X29102727Y56056754D01*
X29255360Y55993531D01*
X29417395Y55961300D01*
X29417396Y55961300D01*
X29582604Y55961300D01*
X29582605Y55961300D01*
X29744640Y55993531D01*
X29897273Y56056754D01*
X30034640Y56148539D01*
X30151461Y56265360D01*
X30243246Y56402727D01*
X30306469Y56555360D01*
X30338700Y56717395D01*
X30338700Y56882605D01*
X30306469Y57044640D01*
X30243246Y57197273D01*
X30151461Y57334640D01*
X30151459Y57334642D01*
X30151454Y57334648D01*
X30034647Y57451455D01*
X30034641Y57451460D01*
X30019822Y57461362D01*
X29897273Y57543246D01*
X29744641Y57606469D01*
X29582607Y57638700D01*
X29582605Y57638700D01*
X29540381Y57638700D01*
X29472260Y57658702D01*
X29451286Y57675605D01*
X27844283Y59282608D01*
X30161300Y59282608D01*
X30161300Y59117393D01*
X30176419Y59041388D01*
X30193531Y58955360D01*
X30256754Y58802727D01*
X30340881Y58676822D01*
X30348540Y58665359D01*
X30348545Y58665353D01*
X30465352Y58548546D01*
X30465358Y58548541D01*
X30465360Y58548539D01*
X30602727Y58456754D01*
X30755360Y58393531D01*
X30917395Y58361300D01*
X30917396Y58361300D01*
X31082604Y58361300D01*
X31082605Y58361300D01*
X31244640Y58393531D01*
X31397273Y58456754D01*
X31488732Y58517866D01*
X31556485Y58539080D01*
X31558734Y58539100D01*
X40341266Y58539100D01*
X40409387Y58519098D01*
X40411244Y58517881D01*
X40502727Y58456754D01*
X40655360Y58393531D01*
X40817395Y58361300D01*
X40817396Y58361300D01*
X40982604Y58361300D01*
X40982605Y58361300D01*
X41144640Y58393531D01*
X41297273Y58456754D01*
X41434640Y58548539D01*
X41551461Y58665360D01*
X41643246Y58802727D01*
X41706469Y58955360D01*
X41738700Y59117395D01*
X41738700Y59282605D01*
X41706469Y59444640D01*
X41643246Y59597273D01*
X41551461Y59734640D01*
X41551459Y59734642D01*
X41551454Y59734648D01*
X41434647Y59851455D01*
X41434641Y59851460D01*
X41434582Y59851500D01*
X41297273Y59943246D01*
X41144641Y60006469D01*
X40982607Y60038700D01*
X40982605Y60038700D01*
X40817395Y60038700D01*
X40817392Y60038700D01*
X40655358Y60006469D01*
X40655357Y60006468D01*
X40502725Y59943245D01*
X40411268Y59882135D01*
X40343515Y59860920D01*
X40341266Y59860900D01*
X31558734Y59860900D01*
X31490613Y59880902D01*
X31488732Y59882135D01*
X31397274Y59943245D01*
X31397275Y59943245D01*
X31397273Y59943246D01*
X31244641Y60006469D01*
X31082607Y60038700D01*
X31082605Y60038700D01*
X30917395Y60038700D01*
X30917392Y60038700D01*
X30755358Y60006469D01*
X30755357Y60006468D01*
X30602725Y59943245D01*
X30465358Y59851460D01*
X30465352Y59851455D01*
X30348545Y59734648D01*
X30348540Y59734642D01*
X30256755Y59597275D01*
X30193532Y59444643D01*
X30193531Y59444642D01*
X30161300Y59282608D01*
X27844283Y59282608D01*
X27824020Y59302871D01*
X27824010Y59302879D01*
X27722396Y59361545D01*
X27722395Y59361546D01*
X27708993Y59369284D01*
X27690686Y59379853D01*
X27541977Y59419700D01*
X27541975Y59419700D01*
X19039198Y59419700D01*
X18971077Y59439702D01*
X18934431Y59475701D01*
X18929568Y59482979D01*
X18929567Y59482981D01*
X18787981Y59624567D01*
X18621493Y59735810D01*
X18437661Y59811956D01*
X18436505Y59812435D01*
X18436502Y59812436D01*
X18240119Y59851500D01*
X18240116Y59851500D01*
X18039884Y59851500D01*
X18039880Y59851500D01*
X17843497Y59812436D01*
X17843494Y59812435D01*
X17658503Y59735809D01*
X17574549Y59679714D01*
X17506796Y59658500D01*
X17438329Y59677284D01*
X17434547Y59679715D01*
X17351256Y59735368D01*
X17166361Y59811954D01*
X17166356Y59811956D01*
X16970069Y59851000D01*
X16769930Y59851000D01*
X16573643Y59811956D01*
X16573638Y59811954D01*
X16388742Y59735367D01*
X16352834Y59711377D01*
X16911710Y59152500D01*
X16828200Y59152500D01*
X16747449Y59130863D01*
X16675050Y59089063D01*
X16615937Y59029950D01*
X16574137Y58957551D01*
X16552500Y58876800D01*
X16552500Y58793200D01*
X16574137Y58712449D01*
X16615937Y58640050D01*
X16675050Y58580937D01*
X16698624Y58567327D01*
X16573497Y58542436D01*
X16573490Y58542434D01*
X16552233Y58533629D01*
X16481643Y58526042D01*
X16418157Y58557823D01*
X16381931Y58618882D01*
X16384467Y58689833D01*
X16414923Y58739135D01*
X16510789Y58835001D01*
X16235000Y59110790D01*
X16234999Y59110790D01*
X15959210Y58835001D01*
X15959210Y58834999D01*
X16055075Y58739134D01*
X16089101Y58676822D01*
X16084036Y58606007D01*
X16041489Y58549171D01*
X15974969Y58524360D01*
X15917762Y58533630D01*
X15896505Y58542435D01*
X15896502Y58542436D01*
X15771375Y58567326D01*
X15794950Y58580937D01*
X15854063Y58640050D01*
X15895863Y58712449D01*
X15917500Y58793200D01*
X15917500Y58876800D01*
X15895863Y58957551D01*
X15854063Y59029950D01*
X15794950Y59089063D01*
X15722551Y59130863D01*
X15641800Y59152500D01*
X15558289Y59152500D01*
X16117163Y59711377D01*
X16081260Y59735366D01*
X15896361Y59811954D01*
X15896356Y59811956D01*
X15700069Y59851000D01*
X15499930Y59851000D01*
X15303643Y59811956D01*
X15303638Y59811954D01*
X15118743Y59735368D01*
X15118741Y59735367D01*
X15035449Y59679714D01*
X14967696Y59658500D01*
X14899230Y59677284D01*
X14895448Y59679714D01*
X14812156Y59735367D01*
X14811493Y59735810D01*
X14811491Y59735811D01*
X14626505Y59812435D01*
X14626502Y59812436D01*
X14430119Y59851500D01*
X14430116Y59851500D01*
X14229884Y59851500D01*
X14229880Y59851500D01*
X14033497Y59812436D01*
X14033494Y59812435D01*
X13848503Y59735809D01*
X13764549Y59679714D01*
X13696796Y59658500D01*
X13628329Y59677284D01*
X13624547Y59679715D01*
X13541256Y59735368D01*
X13356361Y59811954D01*
X13356356Y59811956D01*
X13160069Y59851000D01*
X12959930Y59851000D01*
X12763643Y59811956D01*
X12763638Y59811954D01*
X12578743Y59735368D01*
X12542834Y59711375D01*
X13101709Y59152500D01*
X13018200Y59152500D01*
X12937449Y59130863D01*
X12865050Y59089063D01*
X12805937Y59029950D01*
X12764137Y58957551D01*
X12742500Y58876800D01*
X12742500Y58793291D01*
X12183625Y59352166D01*
X12159632Y59316257D01*
X12083046Y59131362D01*
X12083044Y59131357D01*
X12044000Y58935070D01*
X12044000Y58734931D01*
X12083044Y58538644D01*
X12083046Y58538639D01*
X12159632Y58353744D01*
X12215285Y58270453D01*
X12236500Y58202700D01*
X12217717Y58134233D01*
X12215286Y58130451D01*
X12159191Y58046497D01*
X12082565Y57861506D01*
X12082564Y57861503D01*
X12043500Y57665120D01*
X6438500Y57665120D01*
X6438500Y59258633D01*
X6438499Y59258650D01*
X6431990Y59319197D01*
X6431988Y59319205D01*
X6394504Y59419700D01*
X6380889Y59456204D01*
X6380888Y59456206D01*
X6380887Y59456208D01*
X6293261Y59573262D01*
X6176207Y59660888D01*
X6176202Y59660890D01*
X6039204Y59711989D01*
X6039196Y59711991D01*
X5978649Y59718500D01*
X5978638Y59718500D01*
X4181362Y59718500D01*
X4181350Y59718500D01*
X4120803Y59711991D01*
X4120795Y59711989D01*
X3983797Y59660890D01*
X3983792Y59660888D01*
X3866738Y59573262D01*
X3779112Y59456208D01*
X3779110Y59456203D01*
X3728011Y59319205D01*
X3728009Y59319197D01*
X3721500Y59258650D01*
X75500Y59258650D01*
X75500Y63047428D01*
X36361300Y63047428D01*
X36361300Y62882213D01*
X36393531Y62720180D01*
X36456754Y62567547D01*
X36538878Y62444640D01*
X36548540Y62430179D01*
X36548545Y62430173D01*
X36665352Y62313366D01*
X36665358Y62313361D01*
X36665360Y62313359D01*
X36802727Y62221574D01*
X36955360Y62158351D01*
X37117395Y62126120D01*
X37159620Y62126120D01*
X37227741Y62106118D01*
X37248715Y62089215D01*
X37496944Y61840986D01*
X37605806Y61732124D01*
X37739134Y61655147D01*
X37887843Y61615300D01*
X38041797Y61615300D01*
X41246408Y61615300D01*
X41314529Y61595298D01*
X41335503Y61578395D01*
X41365352Y61548546D01*
X41365358Y61548541D01*
X41365360Y61548539D01*
X41502727Y61456754D01*
X41655360Y61393531D01*
X41817395Y61361300D01*
X41817396Y61361300D01*
X41982604Y61361300D01*
X41982605Y61361300D01*
X42144640Y61393531D01*
X42297273Y61456754D01*
X42434640Y61548539D01*
X42551461Y61665360D01*
X42643246Y61802727D01*
X42706469Y61955360D01*
X42738700Y62117395D01*
X42738700Y62282605D01*
X42706469Y62444640D01*
X42643246Y62597273D01*
X42551461Y62734640D01*
X42551459Y62734642D01*
X42551454Y62734648D01*
X42434647Y62851455D01*
X42434641Y62851460D01*
X42337893Y62916105D01*
X42297273Y62943246D01*
X42144641Y63006469D01*
X41982607Y63038700D01*
X41982605Y63038700D01*
X41817395Y63038700D01*
X41817392Y63038700D01*
X41655358Y63006469D01*
X41655357Y63006468D01*
X41652296Y63005200D01*
X41526300Y62953010D01*
X41502725Y62943245D01*
X41365358Y62851460D01*
X41365352Y62851455D01*
X41335503Y62821605D01*
X41273191Y62787579D01*
X41246408Y62784700D01*
X38259200Y62784700D01*
X38229284Y62793484D01*
X38198815Y62800112D01*
X38193719Y62803927D01*
X38191079Y62804702D01*
X38170105Y62821605D01*
X38075605Y62916105D01*
X38041579Y62978417D01*
X38038700Y63005200D01*
X38038700Y63047424D01*
X38038699Y63047428D01*
X38006469Y63209460D01*
X37943246Y63362093D01*
X37873206Y63466916D01*
X46776500Y63466916D01*
X46776500Y63253084D01*
X46809074Y63047424D01*
X46809952Y63041879D01*
X46871824Y62851455D01*
X46876028Y62838517D01*
X46973106Y62647991D01*
X47098794Y62474996D01*
X47098796Y62474994D01*
X47098798Y62474991D01*
X47249990Y62323799D01*
X47249993Y62323797D01*
X47249996Y62323794D01*
X47350298Y62250921D01*
X47403955Y62211936D01*
X47447309Y62155714D01*
X47453384Y62084977D01*
X47420252Y62022186D01*
X47403955Y62008064D01*
X47249993Y61896204D01*
X47249990Y61896202D01*
X47098798Y61745010D01*
X47098796Y61745007D01*
X46973108Y61572013D01*
X46876029Y61381485D01*
X46876026Y61381479D01*
X46809952Y61178122D01*
X46809951Y61178117D01*
X46809951Y61178116D01*
X46776500Y60966916D01*
X46776500Y60753084D01*
X46809951Y60541884D01*
X46809952Y60541879D01*
X46876026Y60338522D01*
X46876028Y60338517D01*
X46973106Y60147991D01*
X47098794Y59974996D01*
X47098796Y59974994D01*
X47098798Y59974991D01*
X47229104Y59844685D01*
X47263130Y59782373D01*
X47258065Y59711558D01*
X47215518Y59654722D01*
X47206156Y59648349D01*
X47061347Y59559030D01*
X47061341Y59559025D01*
X46935975Y59433659D01*
X46935970Y59433653D01*
X46842885Y59282738D01*
X46787113Y59114428D01*
X46787112Y59114421D01*
X46776500Y59010554D01*
X46776500Y57709456D01*
X46787112Y57605575D01*
X46842885Y57437262D01*
X46935970Y57286348D01*
X46935975Y57286342D01*
X47061341Y57160976D01*
X47061347Y57160971D01*
X47061348Y57160970D01*
X47212262Y57067885D01*
X47380574Y57012113D01*
X47484455Y57001500D01*
X49035544Y57001501D01*
X49139426Y57012113D01*
X49139429Y57012114D01*
X49139431Y57012114D01*
X49258973Y57051726D01*
X49329928Y57054167D01*
X49390938Y57017859D01*
X49422633Y56954330D01*
X49422185Y56907541D01*
X49409500Y56843773D01*
X49409500Y56843767D01*
X49409500Y56676233D01*
X49442184Y56511918D01*
X49506297Y56357137D01*
X49506298Y56357136D01*
X49599373Y56217839D01*
X49599378Y56217833D01*
X49717832Y56099379D01*
X49717838Y56099374D01*
X49857137Y56006297D01*
X50011918Y55942184D01*
X50176233Y55909500D01*
X50176234Y55909500D01*
X50343766Y55909500D01*
X50343767Y55909500D01*
X50508082Y55942184D01*
X50662863Y56006297D01*
X50802162Y56099374D01*
X50920626Y56217838D01*
X51013703Y56357137D01*
X51077816Y56511918D01*
X51110500Y56676233D01*
X51110500Y56843767D01*
X51077816Y57008082D01*
X51013703Y57162863D01*
X50920626Y57302162D01*
X50920621Y57302168D01*
X50802167Y57420622D01*
X50802161Y57420627D01*
X50662864Y57513702D01*
X50662865Y57513702D01*
X50662863Y57513703D01*
X50548983Y57560874D01*
X50508085Y57577815D01*
X50508083Y57577816D01*
X50508082Y57577816D01*
X50425368Y57594269D01*
X50343769Y57610500D01*
X50343767Y57610500D01*
X50176233Y57610500D01*
X50176230Y57610500D01*
X50011912Y57577815D01*
X49912615Y57536684D01*
X49842025Y57529095D01*
X49778538Y57560874D01*
X49742311Y57621933D01*
X49739050Y57665902D01*
X49743500Y57709455D01*
X49743499Y59010544D01*
X49732887Y59114426D01*
X49677115Y59282738D01*
X49584030Y59433652D01*
X49584029Y59433653D01*
X49584024Y59433659D01*
X49458658Y59559025D01*
X49458652Y59559030D01*
X49435578Y59573262D01*
X49313842Y59648350D01*
X49266365Y59701135D01*
X49254962Y59771210D01*
X49283255Y59836326D01*
X49290884Y59844675D01*
X49421206Y59974996D01*
X49546894Y60147991D01*
X49643972Y60338517D01*
X49710049Y60541884D01*
X49743500Y60753084D01*
X49743500Y60966916D01*
X49710049Y61178116D01*
X49643972Y61381483D01*
X49546894Y61572009D01*
X49421206Y61745004D01*
X49421203Y61745007D01*
X49421201Y61745010D01*
X49270009Y61896202D01*
X49270006Y61896204D01*
X49270004Y61896206D01*
X49116043Y62008065D01*
X49072690Y62064286D01*
X49066615Y62135022D01*
X49099746Y62197814D01*
X49116044Y62211936D01*
X49270004Y62323794D01*
X49421206Y62474996D01*
X49546894Y62647991D01*
X49643972Y62838517D01*
X49710049Y63041884D01*
X49743500Y63253084D01*
X49743500Y63466916D01*
X49710049Y63678116D01*
X49643972Y63881483D01*
X49546894Y64072009D01*
X49421206Y64245004D01*
X49421203Y64245007D01*
X49421201Y64245010D01*
X49270009Y64396202D01*
X49270006Y64396204D01*
X49270005Y64396205D01*
X49270004Y64396206D01*
X49115618Y64508374D01*
X49072264Y64564596D01*
X49066189Y64635333D01*
X49099320Y64698124D01*
X49115618Y64712246D01*
X49269679Y64824179D01*
X49269682Y64824181D01*
X49420822Y64975321D01*
X49546463Y65148250D01*
X49643506Y65338708D01*
X49643509Y65338714D01*
X49709559Y65541996D01*
X49719698Y65606000D01*
X48661836Y65606000D01*
X48702630Y65676657D01*
X48735000Y65797465D01*
X48735000Y65922535D01*
X48702630Y66043343D01*
X48661836Y66114000D01*
X49719697Y66114000D01*
X49709559Y66178005D01*
X49643509Y66381287D01*
X49643506Y66381293D01*
X49546463Y66571751D01*
X49420822Y66744680D01*
X49269679Y66895823D01*
X49096750Y67021464D01*
X48906292Y67118507D01*
X48906286Y67118510D01*
X48703004Y67184560D01*
X48514000Y67214497D01*
X48514000Y66261837D01*
X48443343Y66302630D01*
X48322535Y66335000D01*
X48197465Y66335000D01*
X48076657Y66302630D01*
X48006000Y66261837D01*
X48006000Y67214497D01*
X47816995Y67184560D01*
X47613713Y67118510D01*
X47613707Y67118507D01*
X47423249Y67021464D01*
X47250320Y66895823D01*
X47099177Y66744680D01*
X46973536Y66571751D01*
X46876493Y66381293D01*
X46876490Y66381287D01*
X46810440Y66178005D01*
X46800302Y66114000D01*
X47858164Y66114000D01*
X47817370Y66043343D01*
X47785000Y65922535D01*
X47785000Y65797465D01*
X47817370Y65676657D01*
X47858164Y65606000D01*
X46800302Y65606000D01*
X46810440Y65541996D01*
X46876490Y65338714D01*
X46876493Y65338708D01*
X46973536Y65148250D01*
X47099177Y64975321D01*
X47250317Y64824181D01*
X47250320Y64824179D01*
X47404381Y64712246D01*
X47447735Y64656024D01*
X47453810Y64585287D01*
X47420678Y64522496D01*
X47404381Y64508374D01*
X47249993Y64396205D01*
X47098798Y64245010D01*
X47098796Y64245007D01*
X46973108Y64072013D01*
X46876029Y63881485D01*
X46876026Y63881479D01*
X46809952Y63678122D01*
X46809951Y63678117D01*
X46809951Y63678116D01*
X46776500Y63466916D01*
X37873206Y63466916D01*
X37851461Y63499460D01*
X37851459Y63499462D01*
X37851454Y63499468D01*
X37734647Y63616275D01*
X37734641Y63616280D01*
X37642097Y63678116D01*
X37597273Y63708066D01*
X37444641Y63771289D01*
X37282607Y63803520D01*
X37282605Y63803520D01*
X37117395Y63803520D01*
X37117392Y63803520D01*
X36955358Y63771289D01*
X36955357Y63771288D01*
X36802725Y63708065D01*
X36665358Y63616280D01*
X36665352Y63616275D01*
X36548545Y63499468D01*
X36548540Y63499462D01*
X36456755Y63362095D01*
X36393532Y63209463D01*
X36393531Y63209462D01*
X36361300Y63047428D01*
X75500Y63047428D01*
X75500Y67648918D01*
X23024500Y67648918D01*
X23024500Y67501082D01*
X23053342Y67356087D01*
X23109916Y67219505D01*
X23192049Y67096584D01*
X23296584Y66992049D01*
X23419505Y66909916D01*
X23556087Y66853342D01*
X23701082Y66824500D01*
X23701087Y66824500D01*
X23848913Y66824500D01*
X23848918Y66824500D01*
X23993913Y66853342D01*
X24130495Y66909916D01*
X24253416Y66992049D01*
X24357951Y67096584D01*
X24440084Y67219505D01*
X24496658Y67356087D01*
X24525500Y67501082D01*
X24525500Y67648918D01*
X27424500Y67648918D01*
X27424500Y67501082D01*
X27453342Y67356087D01*
X27509916Y67219505D01*
X27592049Y67096584D01*
X27696584Y66992049D01*
X27819505Y66909916D01*
X27956087Y66853342D01*
X28101082Y66824500D01*
X28101087Y66824500D01*
X28248913Y66824500D01*
X28248918Y66824500D01*
X28393913Y66853342D01*
X28530495Y66909916D01*
X28653416Y66992049D01*
X28757951Y67096584D01*
X28840084Y67219505D01*
X28896658Y67356087D01*
X28925500Y67501082D01*
X28925500Y67648918D01*
X28896658Y67793913D01*
X28840084Y67930495D01*
X28757951Y68053416D01*
X28653416Y68157951D01*
X28530495Y68240084D01*
X28393916Y68296657D01*
X28393913Y68296658D01*
X28248918Y68325500D01*
X28101082Y68325500D01*
X28028584Y68311079D01*
X27956086Y68296658D01*
X27956083Y68296657D01*
X27819504Y68240084D01*
X27696588Y68157954D01*
X27696581Y68157949D01*
X27592051Y68053419D01*
X27592046Y68053412D01*
X27509916Y67930496D01*
X27453343Y67793917D01*
X27453342Y67793914D01*
X27453342Y67793913D01*
X27424500Y67648918D01*
X24525500Y67648918D01*
X24496658Y67793913D01*
X24440084Y67930495D01*
X24357951Y68053416D01*
X24253416Y68157951D01*
X24130495Y68240084D01*
X23993916Y68296657D01*
X23993913Y68296658D01*
X23848918Y68325500D01*
X23701082Y68325500D01*
X23628584Y68311079D01*
X23556086Y68296658D01*
X23556083Y68296657D01*
X23419504Y68240084D01*
X23296588Y68157954D01*
X23296581Y68157949D01*
X23192051Y68053419D01*
X23192046Y68053412D01*
X23109916Y67930496D01*
X23053343Y67793917D01*
X23053342Y67793914D01*
X23053342Y67793913D01*
X23024500Y67648918D01*
X75500Y67648918D01*
X75500Y71056195D01*
X75730Y71063802D01*
X76408Y71075018D01*
X93009Y71349469D01*
X94840Y71364546D01*
X145742Y71642310D01*
X149375Y71657050D01*
X233391Y71926667D01*
X238778Y71940868D01*
X354665Y72198360D01*
X361734Y72211828D01*
X507820Y72453486D01*
X516452Y72465991D01*
X690602Y72688277D01*
X700677Y72699649D01*
X900351Y72899323D01*
X911723Y72909398D01*
X1134009Y73083548D01*
X1146514Y73092180D01*
X1388175Y73238268D01*
X1401640Y73245335D01*
X1659132Y73361222D01*
X1673333Y73366609D01*
X1942950Y73450625D01*
X1957690Y73454258D01*
X2235454Y73505160D01*
X2250531Y73506991D01*
X2509703Y73522668D01*
X2536199Y73524270D01*
X2543806Y73524500D01*
X2564531Y73524500D01*
X50775469Y73524500D01*
X50796194Y73524500D01*
X50803801Y73524270D01*
G37*
%TD.AperFunction*%
%TD*%
M02*
