M48
; DRILL file KiCad 10.0.2 date 2026-05-23T18:30:53
; FORMAT={-:-/ absolute / inch / decimal}
; #@! TF.CreationDate,2026-05-23T18:30:53-04:00
; #@! TF.GenerationSoftware,Kicad,Pcbnew,10.0.2
; #@! TF.FileFunction,Plated,1,2,PTH
FMAT,2
INCH
; #@! TA.AperFunction,Plated,PTH,ViaDrill
T1C0.0120
; #@! TA.AperFunction,Plated,PTH,ComponentDrill
T2C0.0250
; #@! TA.AperFunction,Plated,PTH,ComponentDrill
T3C0.0374
; #@! TA.AperFunction,Plated,PTH,ComponentDrill
T4C0.0394
%
G90
G05
T1
X0.6811Y1.9961
X0.685Y1.9409
X0.7564Y1.8342
X0.7739Y2.7939
X0.7837Y2.5773
X0.7953Y0.9646
X0.8307Y1.0394
X0.8327Y1.2024
X0.8346Y2.0787
X0.874Y1.7677
X0.874Y1.7283
X0.878Y1.2126
X0.8819Y1.3189
X0.911Y1.28
X0.9111Y1.1484
X0.9124Y0.9183
X0.9134Y1.3701
X0.9252Y1.0315
X0.9528Y2.4882
X0.9882Y2.4921
X0.9921Y1.563
X1.0094Y1.52
X1.0136Y1.4413
X1.0276Y1.8543
X1.0551Y1.5669
X1.0789Y1.0099
X1.0827Y1.0886
X1.1073Y2.2116
X1.1614Y2.2362
X1.1732Y2.4606
X1.1969Y2.5039
X1.2205Y2.3307
X1.2244Y1.0236
X1.2455Y2.0731
X1.2677Y2.7795
X1.2717Y2.2795
X1.3025Y1.3381
X1.3025Y1.2156
X1.315Y0.9072
X1.3386Y1.4016
X1.3386Y1.2717
X1.3858Y1.1181
X1.437Y0.9331
X1.4489Y2.6144
X1.4646Y2.4789
X1.4803Y1.248
X1.4843Y1.1772
X1.5006Y2.5047
X1.5321Y2.4889
X1.6102Y2.3307
X1.6496Y2.4488
X1.7008Y2.6339
T2
X0.5142Y2.3163
X0.5142Y2.2663
X0.5642Y2.3163
X0.5642Y2.2663
X0.6142Y2.3163
X0.6142Y2.2663
X0.6642Y2.3163
X0.6642Y2.2663
X0.7142Y2.3163
X0.7142Y2.2663
T3
X1.9Y2.5929
X1.9Y2.4945
X1.9Y2.3961
X1.9Y2.2976
T4
X0.195Y1.7976
X0.195Y1.5976
X0.195Y1.3976
X0.195Y1.1976
X0.195Y0.9976
X0.195Y0.7976
X0.195Y0.5976
X0.195Y0.3976
X0.2Y2.2976
X0.2Y2.1976
X0.205Y1.8976
X0.205Y1.6976
X0.205Y1.4976
X0.205Y1.2976
X0.205Y1.0976
X0.205Y0.8976
X0.205Y0.6976
X0.205Y0.4976
X0.205Y0.2976
X1.895Y1.7976
X1.895Y1.5976
X1.895Y1.3976
X1.895Y1.1976
X1.895Y0.9976
X1.895Y0.7976
X1.895Y0.5976
X1.895Y0.3976
X1.905Y1.8976
X1.905Y1.6976
X1.905Y1.4976
X1.905Y1.2976
X1.905Y1.0976
X1.905Y0.8976
X1.905Y0.6976
X1.905Y0.4976
X1.905Y0.2976
M30
