%TF.GenerationSoftware,KiCad,Pcbnew,10.0.2*%
%TF.CreationDate,2026-05-23T18:30:53-04:00*%
%TF.ProjectId,tag-breakout-l432v2,7461672d-6272-4656-916b-6f75742d6c34,rev?*%
%TF.SameCoordinates,Original*%
%TF.FileFunction,Soldermask,Bot*%
%TF.FilePolarity,Negative*%
%FSLAX46Y46*%
G04 Gerber Fmt 4.6, Leading zero omitted, Abs format (unit mm)*
G04 Created by KiCad (PCBNEW 10.0.2) date 2026-05-23 18:30:53*
%MOMM*%
%LPD*%
G01*
G04 APERTURE LIST*
G04 Aperture macros list*
%AMRoundRect*
0 Rectangle with rounded corners*
0 $1 Rounding radius*
0 $2 $3 $4 $5 $6 $7 $8 $9 X,Y pos of 4 corners*
0 Add a 4 corners polygon primitive as box body*
4,1,4,$2,$3,$4,$5,$6,$7,$8,$9,$2,$3,0*
0 Add four circle primitives for the rounded corners*
1,1,$1+$1,$2,$3*
1,1,$1+$1,$4,$5*
1,1,$1+$1,$6,$7*
1,1,$1+$1,$8,$9*
0 Add four rect primitives between the rounded corners*
20,1,$1+$1,$2,$3,$4,$5,0*
20,1,$1+$1,$4,$5,$6,$7,0*
20,1,$1+$1,$6,$7,$8,$9,0*
20,1,$1+$1,$8,$9,$2,$3,0*%
G04 Aperture macros list end*
%ADD10C,1.016000*%
%ADD11R,1.700000X1.700000*%
%ADD12O,1.700000X1.700000*%
%ADD13C,1.200000*%
%ADD14RoundRect,0.250000X0.725000X-0.600000X0.725000X0.600000X-0.725000X0.600000X-0.725000X-0.600000X0*%
%ADD15O,1.950000X1.700000*%
%ADD16C,1.000000*%
%ADD17C,2.000000*%
G04 APERTURE END LIST*
D10*
%TO.C,J102*%
X18140000Y58835000D03*
X18140000Y57565000D03*
X16870000Y58835000D03*
X16870000Y57565000D03*
X15600000Y58835000D03*
X15600000Y57565000D03*
X14330000Y58835000D03*
X14330000Y57565000D03*
X13060000Y58835000D03*
X13060000Y57565000D03*
%TD*%
D11*
%TO.C,J2*%
X5080000Y58360000D03*
D12*
X5080000Y55820000D03*
%TD*%
D11*
%TO.C,J3*%
X5207000Y48200000D03*
D12*
X4953000Y45660000D03*
X5207000Y43120000D03*
X4953000Y40580000D03*
X5207000Y38040000D03*
X4953000Y35500000D03*
X5207000Y32960000D03*
X4953000Y30420000D03*
X5207000Y27880000D03*
X4953000Y25340000D03*
X5207000Y22800000D03*
X4953000Y20260000D03*
X5207000Y17720000D03*
X4953000Y15180000D03*
X5207000Y12640000D03*
X4953000Y10100000D03*
X5207000Y7560000D03*
%TD*%
D11*
%TO.C,J4*%
X48387000Y48200000D03*
D12*
X48133000Y45660000D03*
X48387000Y43120000D03*
X48133000Y40580000D03*
X48387000Y38040000D03*
X48133000Y35500000D03*
X48387000Y32960000D03*
X48133000Y30420000D03*
X48387000Y27880000D03*
X48133000Y25340000D03*
X48387000Y22800000D03*
X48133000Y20260000D03*
X48387000Y17720000D03*
X48133000Y15180000D03*
X48387000Y12640000D03*
X48133000Y10100000D03*
X48387000Y7560000D03*
%TD*%
D13*
%TO.C,J1*%
X50260000Y56760000D03*
D14*
X48260000Y58360000D03*
D15*
X48260000Y60860000D03*
X48260000Y63360000D03*
X48260000Y65860000D03*
%TD*%
D16*
%TO.C,J104*%
X28175000Y67575000D03*
X23775000Y67575000D03*
%TD*%
D17*
%TO.C,TP2*%
X30575000Y33025000D03*
%TD*%
%TO.C,TP1*%
X36325000Y35575000D03*
%TD*%
M02*
