%TF.GenerationSoftware,KiCad,Pcbnew,10.0.2*%
%TF.CreationDate,2026-05-23T18:30:53-04:00*%
%TF.ProjectId,tag-breakout-l432v2,7461672d-6272-4656-916b-6f75742d6c34,rev?*%
%TF.SameCoordinates,Original*%
%TF.FileFunction,Copper,L1,Top*%
%TF.FilePolarity,Positive*%
%FSLAX46Y46*%
G04 Gerber Fmt 4.6, Leading zero omitted, Abs format (unit mm)*
G04 Created by KiCad (PCBNEW 10.0.2) date 2026-05-23 18:30:53*
%MOMM*%
%LPD*%
G01*
G04 APERTURE LIST*
G04 Aperture macros list*
%AMRoundRect*
0 Rectangle with rounded corners*
0 $1 Rounding radius*
0 $2 $3 $4 $5 $6 $7 $8 $9 X,Y pos of 4 corners*
0 Add a 4 corners polygon primitive as box body*
4,1,4,$2,$3,$4,$5,$6,$7,$8,$9,$2,$3,0*
0 Add four circle primitives for the rounded corners*
1,1,$1+$1,$2,$3*
1,1,$1+$1,$4,$5*
1,1,$1+$1,$6,$7*
1,1,$1+$1,$8,$9*
0 Add four rect primitives between the rounded corners*
20,1,$1+$1,$2,$3,$4,$5,0*
20,1,$1+$1,$4,$5,$6,$7,0*
20,1,$1+$1,$6,$7,$8,$9,0*
20,1,$1+$1,$8,$9,$2,$3,0*%
G04 Aperture macros list end*
%TA.AperFunction,ComponentPad*%
%ADD10C,1.016000*%
%TD*%
%TA.AperFunction,SMDPad,CuDef*%
%ADD11R,1.000000X0.750000*%
%TD*%
%TA.AperFunction,SMDPad,CuDef*%
%ADD12RoundRect,0.150000X0.150000X-0.512500X0.150000X0.512500X-0.150000X0.512500X-0.150000X-0.512500X0*%
%TD*%
%TA.AperFunction,SMDPad,CuDef*%
%ADD13RoundRect,0.225000X-0.250000X0.225000X-0.250000X-0.225000X0.250000X-0.225000X0.250000X0.225000X0*%
%TD*%
%TA.AperFunction,SMDPad,CuDef*%
%ADD14RoundRect,0.225000X0.250000X-0.225000X0.250000X0.225000X-0.250000X0.225000X-0.250000X-0.225000X0*%
%TD*%
%TA.AperFunction,SMDPad,CuDef*%
%ADD15RoundRect,0.200000X0.275000X-0.200000X0.275000X0.200000X-0.275000X0.200000X-0.275000X-0.200000X0*%
%TD*%
%TA.AperFunction,SMDPad,CuDef*%
%ADD16RoundRect,0.200000X-0.275000X0.200000X-0.275000X-0.200000X0.275000X-0.200000X0.275000X0.200000X0*%
%TD*%
%TA.AperFunction,SMDPad,CuDef*%
%ADD17RoundRect,0.225000X-0.225000X-0.250000X0.225000X-0.250000X0.225000X0.250000X-0.225000X0.250000X0*%
%TD*%
%TA.AperFunction,SMDPad,CuDef*%
%ADD18RoundRect,0.225000X0.225000X0.250000X-0.225000X0.250000X-0.225000X-0.250000X0.225000X-0.250000X0*%
%TD*%
%TA.AperFunction,ComponentPad*%
%ADD19R,1.700000X1.700000*%
%TD*%
%TA.AperFunction,ComponentPad*%
%ADD20O,1.700000X1.700000*%
%TD*%
%TA.AperFunction,SMDPad,CuDef*%
%ADD21RoundRect,0.150000X-0.150000X0.587500X-0.150000X-0.587500X0.150000X-0.587500X0.150000X0.587500X0*%
%TD*%
%TA.AperFunction,SMDPad,CuDef*%
%ADD22R,0.800000X0.500000*%
%TD*%
%TA.AperFunction,SMDPad,CuDef*%
%ADD23RoundRect,0.218750X-0.218750X-0.256250X0.218750X-0.256250X0.218750X0.256250X-0.218750X0.256250X0*%
%TD*%
%TA.AperFunction,SMDPad,CuDef*%
%ADD24RoundRect,0.200000X-0.200000X-0.275000X0.200000X-0.275000X0.200000X0.275000X-0.200000X0.275000X0*%
%TD*%
%TA.AperFunction,ComponentPad*%
%ADD25RoundRect,0.250000X0.725000X-0.600000X0.725000X0.600000X-0.725000X0.600000X-0.725000X-0.600000X0*%
%TD*%
%TA.AperFunction,ComponentPad*%
%ADD26O,1.950000X1.700000*%
%TD*%
%TA.AperFunction,SMDPad,CuDef*%
%ADD27RoundRect,0.218750X0.256250X-0.218750X0.256250X0.218750X-0.256250X0.218750X-0.256250X-0.218750X0*%
%TD*%
%TA.AperFunction,SMDPad,CuDef*%
%ADD28RoundRect,0.125000X0.125000X-0.625000X0.125000X0.625000X-0.125000X0.625000X-0.125000X-0.625000X0*%
%TD*%
%TA.AperFunction,SMDPad,CuDef*%
%ADD29RoundRect,0.125000X0.625000X-0.125000X0.625000X0.125000X-0.625000X0.125000X-0.625000X-0.125000X0*%
%TD*%
%TA.AperFunction,SMDPad,CuDef*%
%ADD30RoundRect,0.225000X-0.225000X-0.375000X0.225000X-0.375000X0.225000X0.375000X-0.225000X0.375000X0*%
%TD*%
%TA.AperFunction,SMDPad,CuDef*%
%ADD31RoundRect,0.225000X0.225000X0.375000X-0.225000X0.375000X-0.225000X-0.375000X0.225000X-0.375000X0*%
%TD*%
%TA.AperFunction,SMDPad,CuDef*%
%ADD32R,0.760000X1.270000*%
%TD*%
%TA.AperFunction,SMDPad,CuDef*%
%ADD33R,0.500000X2.000000*%
%TD*%
%TA.AperFunction,SMDPad,CuDef*%
%ADD34R,2.000000X1.700000*%
%TD*%
%TA.AperFunction,SMDPad,CuDef*%
%ADD35RoundRect,0.062500X-0.375000X-0.062500X0.375000X-0.062500X0.375000X0.062500X-0.375000X0.062500X0*%
%TD*%
%TA.AperFunction,SMDPad,CuDef*%
%ADD36RoundRect,0.062500X-0.062500X-0.375000X0.062500X-0.375000X0.062500X0.375000X-0.062500X0.375000X0*%
%TD*%
%TA.AperFunction,HeatsinkPad*%
%ADD37R,3.500000X3.500000*%
%TD*%
%TA.AperFunction,ViaPad*%
%ADD38C,0.660400*%
%TD*%
%TA.AperFunction,Conductor*%
%ADD39C,0.152400*%
%TD*%
%TA.AperFunction,Conductor*%
%ADD40C,0.304800*%
%TD*%
G04 APERTURE END LIST*
D10*
%TO.P,J102,1,Pin_1_1*%
%TO.N,+3V3*%
X18140000Y58835000D03*
%TO.P,J102,2,Pin_2_2*%
%TO.N,/SWDIO*%
X18140000Y57565000D03*
%TO.P,J102,3,Pin_3_3*%
%TO.N,GND*%
X16870000Y58835000D03*
%TO.P,J102,4,Pin_4_4*%
%TO.N,/SCLK*%
X16870000Y57565000D03*
%TO.P,J102,5,Pin_5_5*%
%TO.N,GND*%
X15600000Y58835000D03*
%TO.P,J102,6,Pin_6_6*%
%TO.N,unconnected-(J102-Pin_6-Pad6)*%
X15600000Y57565000D03*
%TO.P,J102,7,Pin_7_7*%
%TO.N,unconnected-(J102-Pin_7-Pad7)*%
X14330000Y58835000D03*
%TO.P,J102,8,Pin_8_8*%
%TO.N,unconnected-(J102-Pin_8-Pad8)*%
X14330000Y57565000D03*
%TO.P,J102,9,Pin_9_9*%
%TO.N,GND*%
X13060000Y58835000D03*
%TO.P,J102,10,Pin_10_10*%
%TO.N,/NRST*%
X13060000Y57565000D03*
%TD*%
D11*
%TO.P,U105,1,A_1*%
%TO.N,/boot0*%
X11900000Y65375000D03*
X5900000Y65375000D03*
%TO.P,U105,2,B_2*%
%TO.N,+3V3*%
X11900000Y69125000D03*
X5900000Y69125000D03*
%TD*%
D12*
%TO.P,U1,1,GND_1*%
%TO.N,GND*%
X39865300Y63981660D03*
%TO.P,U1,2,VO_2*%
%TO.N,+3V3*%
X41765300Y63981660D03*
%TO.P,U1,3,VI_3*%
%TO.N,Net-(D2-K)*%
X40815300Y66256660D03*
%TD*%
D13*
%TO.P,C1,1*%
%TO.N,Net-(D2-K)*%
X38044940Y66320020D03*
%TO.P,C1,2*%
%TO.N,GND*%
X38044940Y64770020D03*
%TD*%
%TO.P,C101,1*%
%TO.N,/NRST*%
X25100000Y42375000D03*
%TO.P,C101,2*%
%TO.N,GND*%
X25100000Y40825000D03*
%TD*%
D14*
%TO.P,C104,1*%
%TO.N,+3V3*%
X43500000Y64325000D03*
%TO.P,C104,2*%
%TO.N,GND*%
X43500000Y65875000D03*
%TD*%
D13*
%TO.P,C107,1*%
%TO.N,+3V3*%
X26800000Y42375000D03*
%TO.P,C107,2*%
%TO.N,GND*%
X26800000Y40825000D03*
%TD*%
D15*
%TO.P,R4,1*%
%TO.N,EXT_PWR*%
X29800000Y59975000D03*
%TO.P,R4,2*%
%TO.N,GND*%
X29800000Y61625000D03*
%TD*%
%TO.P,R104,1*%
%TO.N,TAG_RESET*%
X28600000Y40775000D03*
%TO.P,R104,2*%
%TO.N,Net-(U101-PA0)*%
X28600000Y42425000D03*
%TD*%
%TO.P,R105,1*%
%TO.N,GND*%
X20600000Y44975000D03*
%TO.P,R105,2*%
%TO.N,/boot0*%
X20600000Y46625000D03*
%TD*%
D16*
%TO.P,R106,1*%
%TO.N,Net-(U101-PA7)*%
X33984400Y47493100D03*
%TO.P,R106,2*%
%TO.N,TAG_SWDIO*%
X33984400Y45843100D03*
%TD*%
D15*
%TO.P,R107,1*%
%TO.N,Net-(D105-K)*%
X35815300Y64794160D03*
%TO.P,R107,2*%
%TO.N,GND*%
X35815300Y66444160D03*
%TD*%
D12*
%TO.P,U4,1*%
%TO.N,PWR_IN*%
X32050000Y59162500D03*
%TO.P,U4,2,GND_2*%
%TO.N,GND*%
X33000000Y59162500D03*
%TO.P,U4,3*%
%TO.N,+3V3*%
X33950000Y59162500D03*
%TO.P,U4,4*%
%TO.N,Net-(R2-Pad2)*%
X33950000Y61437500D03*
%TO.P,U4,5,V+_5*%
%TO.N,+3V3*%
X33000000Y61437500D03*
%TO.P,U4,6*%
%TO.N,EXT_PWR*%
X32050000Y61437500D03*
%TD*%
D17*
%TO.P,C3,1*%
%TO.N,TAG_3V3*%
X27425000Y29900000D03*
%TO.P,C3,2*%
%TO.N,GND*%
X28975000Y29900000D03*
%TD*%
%TO.P,C4,1*%
%TO.N,TAG_3V3*%
X35125000Y29900000D03*
%TO.P,C4,2*%
%TO.N,GND*%
X36675000Y29900000D03*
%TD*%
D18*
%TO.P,C5,1*%
%TO.N,/stm32/NRST*%
X22875000Y24500000D03*
%TO.P,C5,2*%
%TO.N,GND*%
X21325000Y24500000D03*
%TD*%
D13*
%TO.P,C6,1*%
%TO.N,TAG_3V3*%
X35300000Y23475000D03*
%TO.P,C6,2*%
%TO.N,GND*%
X35300000Y21925000D03*
%TD*%
%TO.P,C7,1*%
%TO.N,TAG_3V3*%
X19400000Y27475000D03*
%TO.P,C7,2*%
%TO.N,GND*%
X19400000Y25925000D03*
%TD*%
%TO.P,C9,1*%
%TO.N,TAG_3V3*%
X24600000Y25075000D03*
%TO.P,C9,2*%
%TO.N,GND*%
X24600000Y23525000D03*
%TD*%
D19*
%TO.P,J2,1,Pin_1_1*%
%TO.N,/UART_TX*%
X5080000Y58360000D03*
D20*
%TO.P,J2,2,Pin_2_2*%
%TO.N,GND*%
X5080000Y55820000D03*
%TD*%
D19*
%TO.P,J3,1,Pin_1_1*%
%TO.N,/stm32/PB4*%
X5207000Y48200000D03*
D20*
%TO.P,J3,2,Pin_2_2*%
%TO.N,/stm32/PB5*%
X4953000Y45660000D03*
%TO.P,J3,3,Pin_3_3*%
%TO.N,/stm32/rtc_scl*%
X5207000Y43120000D03*
%TO.P,J3,4,Pin_4_4*%
%TO.N,/stm32/rtc_sda*%
X4953000Y40580000D03*
%TO.P,J3,5,Pin_5_5*%
%TO.N,/stm32/PB8*%
X5207000Y38040000D03*
%TO.P,J3,6,Pin_6_6*%
%TO.N,/stm32/PB9*%
X4953000Y35500000D03*
%TO.P,J3,7,Pin_7_7*%
%TO.N,TAG_3V3*%
X5207000Y32960000D03*
%TO.P,J3,8,Pin_8_8*%
%TO.N,/stm32/PA0*%
X4953000Y30420000D03*
%TO.P,J3,9,Pin_9_9*%
%TO.N,/stm32/PA1*%
X5207000Y27880000D03*
%TO.P,J3,10,Pin_10_10*%
%TO.N,/stm32/PA2*%
X4953000Y25340000D03*
%TO.P,J3,11,Pin_11_11*%
%TO.N,/stm32/PA3*%
X5207000Y22800000D03*
%TO.P,J3,12,Pin_12_12*%
%TO.N,/stm32/PA4*%
X4953000Y20260000D03*
%TO.P,J3,13,Pin_13_13*%
%TO.N,/stm32/PA5*%
X5207000Y17720000D03*
%TO.P,J3,14,Pin_14_14*%
%TO.N,/stm32/PA6*%
X4953000Y15180000D03*
%TO.P,J3,15,Pin_15_15*%
%TO.N,/stm32/PA7*%
X5207000Y12640000D03*
%TO.P,J3,16,Pin_16_16*%
%TO.N,/stm32/PB0*%
X4953000Y10100000D03*
%TO.P,J3,17,Pin_17_17*%
%TO.N,GND*%
X5207000Y7560000D03*
%TD*%
D21*
%TO.P,Q1,1,B_1*%
%TO.N,TAG_RESET*%
X28750300Y38545700D03*
%TO.P,Q1,2,E_2*%
%TO.N,GND*%
X26850300Y38545700D03*
%TO.P,Q1,3,C_3*%
%TO.N,/stm32/NRST*%
X27800300Y36670700D03*
%TD*%
D22*
%TO.P,U6,1,CLKOUT_1*%
%TO.N,/stm32/clkout*%
X22350000Y27000000D03*
%TO.P,U6,2,~{INT}_2*%
%TO.N,unconnected-(U6-~{INT}-Pad2)*%
X22350000Y27900000D03*
%TO.P,U6,3,SCL_3*%
%TO.N,/stm32/rtc_scl*%
X22350000Y28800000D03*
%TO.P,U6,4,SDA_4*%
%TO.N,/stm32/rtc_sda*%
X22350000Y29700000D03*
%TO.P,U6,5,GND_5*%
%TO.N,GND*%
X21150000Y29700000D03*
%TO.P,U6,6,VBACK_6*%
%TO.N,/stm32/VBACK*%
X21150000Y28800000D03*
%TO.P,U6,7,VDD_7*%
%TO.N,TAG_3V3*%
X21150000Y27900000D03*
%TO.P,U6,8,EVI_8*%
%TO.N,GND*%
X21150000Y27000000D03*
%TD*%
D19*
%TO.P,J4,1,Pin_1_1*%
%TO.N,TAG_3V3*%
X48387000Y48200000D03*
D20*
%TO.P,J4,2,Pin_2_2*%
%TO.N,/stm32/PB3*%
X48133000Y45660000D03*
%TO.P,J4,3,Pin_3_3*%
%TO.N,/stm32/PA15*%
X48387000Y43120000D03*
%TO.P,J4,4,Pin_4_4*%
%TO.N,/stm32/PA12*%
X48133000Y40580000D03*
%TO.P,J4,5,Pin_5_5*%
%TO.N,/stm32/PA11*%
X48387000Y38040000D03*
%TO.P,J4,6,Pin_6_6*%
%TO.N,/stm32/PA10*%
X48133000Y35500000D03*
%TO.P,J4,7,Pin_7_7*%
%TO.N,/stm32/PA9*%
X48387000Y32960000D03*
%TO.P,J4,8,Pin_8_8*%
%TO.N,/stm32/PA8*%
X48133000Y30420000D03*
%TO.P,J4,9,Pin_9_9*%
%TO.N,/stm32/PB15*%
X48387000Y27880000D03*
%TO.P,J4,10,Pin_10_10*%
%TO.N,/stm32/PB14*%
X48133000Y25340000D03*
%TO.P,J4,11,Pin_11_11*%
%TO.N,/stm32/PB13*%
X48387000Y22800000D03*
%TO.P,J4,12,Pin_12_12*%
%TO.N,/stm32/PB12*%
X48133000Y20260000D03*
%TO.P,J4,13,Pin_13_13*%
%TO.N,/stm32/PB11*%
X48387000Y17720000D03*
%TO.P,J4,14,Pin_14_14*%
%TO.N,/stm32/PB10*%
X48133000Y15180000D03*
%TO.P,J4,15,Pin_15_15*%
%TO.N,/stm32/PB2*%
X48387000Y12640000D03*
%TO.P,J4,16,Pin_16_16*%
%TO.N,/stm32/PB1*%
X48133000Y10100000D03*
%TO.P,J4,17,Pin_17_17*%
%TO.N,GND*%
X48387000Y7560000D03*
%TD*%
D23*
%TO.P,D1,1,K_1*%
%TO.N,Net-(D1-K)*%
X18612500Y51000000D03*
%TO.P,D1,2,A_2*%
%TO.N,/LED_GREEN*%
X20187500Y51000000D03*
%TD*%
D24*
%TO.P,R1,1*%
%TO.N,Net-(D1-K)*%
X18575000Y52800000D03*
%TO.P,R1,2*%
%TO.N,GND*%
X20225000Y52800000D03*
%TD*%
D17*
%TO.P,C10,1*%
%TO.N,TAG_3V3*%
X35125000Y31700000D03*
%TO.P,C10,2*%
%TO.N,GND*%
X36675000Y31700000D03*
%TD*%
D25*
%TO.P,J1,1,Pin_1_1*%
%TO.N,PWR_IN_MIRROR*%
X48260000Y58360000D03*
D26*
%TO.P,J1,2,Pin_2_2*%
%TO.N,PWR_IN*%
X48260000Y60860000D03*
%TO.P,J1,3,Pin_3_3*%
%TO.N,EXT_PWR*%
X48260000Y63360000D03*
%TO.P,J1,4,Pin_4_4*%
%TO.N,GND*%
X48260000Y65860000D03*
%TD*%
D27*
%TO.P,D105,1,K_1*%
%TO.N,Net-(D105-K)*%
X34115300Y64831660D03*
%TO.P,D105,2,A_2*%
%TO.N,VUSB*%
X34115300Y66406660D03*
%TD*%
D18*
%TO.P,C11,1*%
%TO.N,+3V3*%
X23375000Y42400000D03*
%TO.P,C11,2*%
%TO.N,GND*%
X21825000Y42400000D03*
%TD*%
D28*
%TO.P,U101,1,VDD_1*%
%TO.N,+3V3*%
X24100000Y44650000D03*
%TO.P,U101,2,PF0_2*%
%TO.N,unconnected-(U101-PF0-Pad2)*%
X24900000Y44650000D03*
%TO.P,U101,3,PF1_3*%
%TO.N,unconnected-(U101-PF1-Pad3)*%
X25700000Y44650000D03*
%TO.P,U101,4,NRST_4*%
%TO.N,/NRST*%
X26500000Y44650000D03*
%TO.P,U101,5,VDDA_5*%
%TO.N,+3V3*%
X27300000Y44650000D03*
%TO.P,U101,6,PA0_6*%
%TO.N,Net-(U101-PA0)*%
X28100000Y44650000D03*
%TO.P,U101,7,PA1_7*%
%TO.N,unconnected-(U101-PA1-Pad7)*%
X28900000Y44650000D03*
%TO.P,U101,8,PA2_8*%
%TO.N,unconnected-(U101-PA2-Pad8)*%
X29700000Y44650000D03*
D29*
%TO.P,U101,9,PA3_9*%
%TO.N,unconnected-(U101-PA3-Pad9)*%
X31075000Y46025000D03*
%TO.P,U101,10,PA4_10*%
%TO.N,unconnected-(U101-PA4-Pad10)*%
X31075000Y46825000D03*
%TO.P,U101,11,PA5_11*%
%TO.N,TAG_SCK*%
X31075000Y47625000D03*
%TO.P,U101,12,PA6_12*%
%TO.N,TAG_SWDIO*%
X31075000Y48425000D03*
%TO.P,U101,13,PA7_13*%
%TO.N,Net-(U101-PA7)*%
X31075000Y49225000D03*
%TO.P,U101,14,PB0_14*%
%TO.N,unconnected-(U101-PB0-Pad14)*%
X31075000Y50025000D03*
%TO.P,U101,15,PB1_15*%
%TO.N,PWR_IN_MIRROR*%
X31075000Y50825000D03*
%TO.P,U101,16,VSS_16*%
%TO.N,GND*%
X31075000Y51625000D03*
D28*
%TO.P,U101,17,VDDIO2_17*%
%TO.N,+3V3*%
X29700000Y53000000D03*
%TO.P,U101,18,PA8_18*%
%TO.N,unconnected-(U101-PA8-Pad18)*%
X28900000Y53000000D03*
%TO.P,U101,19,PA9_19*%
%TO.N,unconnected-(U101-PA9-Pad19)*%
X28100000Y53000000D03*
%TO.P,U101,20,PA10_20*%
%TO.N,unconnected-(U101-PA10-Pad20)*%
X27300000Y53000000D03*
%TO.P,U101,21,PA11_21*%
%TO.N,/USB_DM*%
X26500000Y53000000D03*
%TO.P,U101,22,PA12_22*%
%TO.N,/USB_DP*%
X25700000Y53000000D03*
%TO.P,U101,23,PA13_23*%
%TO.N,/SWDIO*%
X24900000Y53000000D03*
%TO.P,U101,24,PA14_24*%
%TO.N,/SCLK*%
X24100000Y53000000D03*
D29*
%TO.P,U101,25,PA15_25*%
%TO.N,unconnected-(U101-PA15-Pad25)*%
X22725000Y51625000D03*
%TO.P,U101,26,PB3_26*%
%TO.N,/LED_GREEN*%
X22725000Y50825000D03*
%TO.P,U101,27,PB4_27*%
%TO.N,unconnected-(U101-PB4-Pad27)*%
X22725000Y50025000D03*
%TO.P,U101,28,PB5_28*%
%TO.N,unconnected-(U101-PB5-Pad28)*%
X22725000Y49225000D03*
%TO.P,U101,29,PB6_29*%
%TO.N,/UART_TX*%
X22725000Y48425000D03*
%TO.P,U101,30,PB7_30*%
%TO.N,unconnected-(U101-PB7-Pad30)*%
X22725000Y47625000D03*
%TO.P,U101,31,PB8_31*%
%TO.N,/boot0*%
X22725000Y46825000D03*
%TO.P,U101,32,VSSA_32*%
%TO.N,GND*%
X22725000Y46025000D03*
%TD*%
D18*
%TO.P,C2,1*%
%TO.N,+3V3*%
X29675000Y55100000D03*
%TO.P,C2,2*%
%TO.N,GND*%
X28125000Y55100000D03*
%TD*%
D30*
%TO.P,D3,1,K_1*%
%TO.N,Net-(D2-K)*%
X37350000Y70900000D03*
%TO.P,D3,2,A_2*%
%TO.N,EXT_PWR*%
X40650000Y70900000D03*
%TD*%
D31*
%TO.P,D2,1,K_1*%
%TO.N,Net-(D2-K)*%
X40650000Y68400000D03*
%TO.P,D2,2,A_2*%
%TO.N,VUSB*%
X37350000Y68400000D03*
%TD*%
D15*
%TO.P,R2,1*%
%TO.N,Net-(R2-Pad1)*%
X39200000Y59975000D03*
%TO.P,R2,2*%
%TO.N,Net-(R2-Pad2)*%
X39200000Y61625000D03*
%TD*%
%TO.P,R5,1*%
%TO.N,Net-(R5-Pad1)*%
X37500000Y59975000D03*
%TO.P,R5,2*%
%TO.N,Net-(R2-Pad2)*%
X37500000Y61625000D03*
%TD*%
D32*
%TO.P,SW1,1*%
%TO.N,Net-(R2-Pad2)*%
X39405000Y57090000D03*
%TO.P,SW1,2*%
%TO.N,Net-(R2-Pad1)*%
X38135000Y57090000D03*
%TO.P,SW1,3*%
%TO.N,Net-(R5-Pad1)*%
X36865000Y57090000D03*
%TO.P,SW1,4*%
%TO.N,Net-(R6-Pad1)*%
X35595000Y57090000D03*
%TO.P,SW1,5*%
%TO.N,TAG_3V3*%
X35595000Y49470000D03*
%TO.P,SW1,6*%
X36865000Y49470000D03*
%TO.P,SW1,7*%
X38135000Y49470000D03*
%TO.P,SW1,8*%
X39405000Y49470000D03*
%TD*%
D15*
%TO.P,R6,1*%
%TO.N,Net-(R6-Pad1)*%
X35800000Y59975000D03*
%TO.P,R6,2*%
%TO.N,Net-(R2-Pad2)*%
X35800000Y61625000D03*
%TD*%
D16*
%TO.P,R3,1*%
%TO.N,GND*%
X19400000Y30625000D03*
%TO.P,R3,2*%
%TO.N,/stm32/VBACK*%
X19400000Y28975000D03*
%TD*%
D33*
%TO.P,J104,1,VBUS_1*%
%TO.N,VUSB*%
X27575000Y64875000D03*
%TO.P,J104,2,D-_2*%
%TO.N,/USB_DM*%
X26775000Y64875000D03*
%TO.P,J104,3,D+_3*%
%TO.N,/USB_DP*%
X25975000Y64875000D03*
%TO.P,J104,4,ID_4*%
%TO.N,GND*%
X25175000Y64875000D03*
%TO.P,J104,5,GND_5*%
X24375000Y64875000D03*
D34*
%TO.P,J104,6,Shield_6*%
X30425000Y64975000D03*
X30425000Y70425000D03*
X21525000Y64975000D03*
X21525000Y70425000D03*
%TD*%
D35*
%TO.P,U3,1,VDD_1*%
%TO.N,TAG_3V3*%
X28417500Y27495000D03*
%TO.P,U3,2,PC14_2*%
%TO.N,/stm32/clkout*%
X28417500Y26995000D03*
%TO.P,U3,3,PC15_3*%
%TO.N,unconnected-(U3-PC15-Pad3)*%
X28417500Y26495000D03*
%TO.P,U3,4,~{NRST}_4*%
%TO.N,/stm32/NRST*%
X28417500Y25995000D03*
%TO.P,U3,5,VDDA/VREF+_5*%
%TO.N,TAG_3V3*%
X28417500Y25495000D03*
%TO.P,U3,6,PA0_6*%
%TO.N,/stm32/PA0*%
X28417500Y24995000D03*
%TO.P,U3,7,PA1_7*%
%TO.N,/stm32/PA1*%
X28417500Y24495000D03*
%TO.P,U3,8,PA2_8*%
%TO.N,/stm32/PA2*%
X28417500Y23995000D03*
D36*
%TO.P,U3,9,PA3_9*%
%TO.N,/stm32/PA3*%
X29105000Y23307500D03*
%TO.P,U3,10,PA4_10*%
%TO.N,/stm32/PA4*%
X29605000Y23307500D03*
%TO.P,U3,11,PA5_11*%
%TO.N,/stm32/PA5*%
X30105000Y23307500D03*
%TO.P,U3,12,PA6_12*%
%TO.N,/stm32/PA6*%
X30605000Y23307500D03*
%TO.P,U3,13,PA7_13*%
%TO.N,/stm32/PA7*%
X31105000Y23307500D03*
%TO.P,U3,14,PB0_14*%
%TO.N,/stm32/PB0*%
X31605000Y23307500D03*
%TO.P,U3,15,PB1_15*%
%TO.N,/stm32/PB1*%
X32105000Y23307500D03*
%TO.P,U3,16,VSS_16*%
%TO.N,GND*%
X32605000Y23307500D03*
D35*
%TO.P,U3,17,VDD_17*%
%TO.N,TAG_3V3*%
X33292500Y23995000D03*
%TO.P,U3,18,PA8_18*%
%TO.N,/stm32/PA8*%
X33292500Y24495000D03*
%TO.P,U3,19,PA9_19*%
%TO.N,/stm32/PA9*%
X33292500Y24995000D03*
%TO.P,U3,20,PA10_20*%
%TO.N,/stm32/PA10*%
X33292500Y25495000D03*
%TO.P,U3,21,PA11_21*%
%TO.N,/stm32/PA11*%
X33292500Y25995000D03*
%TO.P,U3,22,PA12_22*%
%TO.N,/stm32/PA12*%
X33292500Y26495000D03*
%TO.P,U3,23,PA13_23*%
%TO.N,TAG_SWDIO*%
X33292500Y26995000D03*
%TO.P,U3,24,PA14_24*%
%TO.N,TAG_SCK*%
X33292500Y27495000D03*
D36*
%TO.P,U3,25,PA15_25*%
%TO.N,/stm32/PA15*%
X32605000Y28182500D03*
%TO.P,U3,26,PB3_26*%
%TO.N,/stm32/PB3*%
X32105000Y28182500D03*
%TO.P,U3,27,PB4_27*%
%TO.N,/stm32/PB4*%
X31605000Y28182500D03*
%TO.P,U3,28,PB5_28*%
%TO.N,/stm32/PB5*%
X31105000Y28182500D03*
%TO.P,U3,29,PB6_29*%
%TO.N,/stm32/rtc_sda*%
X30605000Y28182500D03*
%TO.P,U3,30,PB7_30*%
%TO.N,/stm32/rtc_scl*%
X30105000Y28182500D03*
%TO.P,U3,31,BOOT0_31*%
%TO.N,GND*%
X29605000Y28182500D03*
%TO.P,U3,32,VSS_32*%
X29105000Y28182500D03*
D37*
%TO.P,U3,33,GND_33*%
X30855000Y25745000D03*
%TD*%
D38*
%TO.N,+3V3*%
X29500000Y56800000D03*
%TO.N,GND*%
X20200000Y24500000D03*
X38115300Y63619160D03*
X21100000Y26400000D03*
X25200000Y39700000D03*
X32200000Y70600000D03*
X24200000Y63200000D03*
X37700000Y29900000D03*
X25100000Y63300000D03*
X21200000Y52800000D03*
X29800000Y62500000D03*
X21150000Y30541190D03*
X22200000Y43900000D03*
X19905960Y65464400D03*
X36802800Y66406660D03*
X28125000Y56175000D03*
X37600000Y31700000D03*
X32300000Y57900000D03*
X31100000Y26000000D03*
X33400000Y23043600D03*
X30400000Y63600000D03*
X22200000Y44900000D03*
X25638000Y38608200D03*
X19656140Y70964400D03*
X31635700Y52657700D03*
X23175000Y23325000D03*
X26800000Y39800000D03*
X43200000Y66900000D03*
X38915300Y63219160D03*
%TO.N,/NRST*%
X26100000Y47100000D03*
X17300000Y50700000D03*
%TO.N,/boot0*%
X17400000Y49300000D03*
X19212500Y46587500D03*
%TO.N,EXT_PWR*%
X41900000Y62200000D03*
X37200000Y62964820D03*
%TO.N,TAG_SWDIO*%
X34000000Y32300000D03*
X34000000Y35600000D03*
%TO.N,PWR_IN*%
X40900000Y59200000D03*
X31000000Y59200000D03*
%TO.N,TAG_3V3*%
X27405000Y25651400D03*
X36500000Y23700000D03*
X27500000Y27651400D03*
X35200000Y28400000D03*
%TO.N,/stm32/NRST*%
X25746200Y36608200D03*
X23500000Y26200000D03*
%TO.N,/stm32/rtc_scl*%
X23139400Y32512000D03*
X23200000Y34800000D03*
X23142709Y29169494D03*
%TO.N,/stm32/rtc_sda*%
X22400000Y33500000D03*
X22300000Y30800000D03*
%TO.N,TAG_SCK*%
X33083500Y30877200D03*
X33083500Y33988700D03*
%TD*%
%TO.N,+3V3*%
D39*
X29500000Y56800000D02*
X29900000Y56400000D01*
D40*
X33950000Y59200000D02*
X33950000Y58365200D01*
D39*
X24100000Y44650000D02*
X24100000Y43125000D01*
D40*
X42000000Y64312500D02*
X41512500Y64312500D01*
X29725000Y53025000D02*
X29700000Y53000000D01*
X30684800Y55100000D02*
X29675000Y55100000D01*
X33950000Y59615200D02*
X33950000Y59200000D01*
X42000000Y64312500D02*
X41671960Y64312500D01*
X33000000Y60565200D02*
X33950000Y59615200D01*
X29700000Y53000000D02*
X29700000Y52100000D01*
X27300000Y49700000D02*
X29700000Y52100000D01*
X43500000Y64312500D02*
X42000000Y64312500D01*
X24100000Y46500000D02*
X24100000Y44650000D01*
X33000000Y61400000D02*
X33000000Y60565200D01*
X39529800Y62329800D02*
X34367542Y62329800D01*
X27300000Y44650000D02*
X27300000Y49700000D01*
X29900000Y54600000D02*
X29700000Y54400000D01*
D39*
X24100000Y43125000D02*
X23375000Y42400000D01*
D40*
X34197342Y62500000D02*
X33400001Y62500000D01*
X33400001Y62500000D02*
X33000000Y62099999D01*
X29725000Y55100000D02*
X29725000Y53025000D01*
D39*
X18140000Y58835000D02*
X18140000Y62885000D01*
D40*
X29700000Y54400000D02*
X29700000Y53000000D01*
X33000000Y62099999D02*
X33000000Y61437500D01*
D39*
X5900000Y69125000D02*
X11900000Y69125000D01*
D40*
X41512500Y64312500D02*
X39529800Y62329800D01*
X29700000Y52100000D02*
X24100000Y46500000D01*
X33950000Y58365200D02*
X30684800Y55100000D01*
D39*
X27300000Y42887500D02*
X26800000Y42387500D01*
X18140000Y62885000D02*
X11900000Y69125000D01*
D40*
X34367542Y62329800D02*
X34197342Y62500000D01*
D39*
X27300000Y44650000D02*
X27300000Y42887500D01*
X29900000Y56400000D02*
X29900000Y55800000D01*
D40*
X29900000Y55800000D02*
X29900000Y54600000D01*
X41671960Y64312500D02*
X41665300Y64319160D01*
%TO.N,/SWDIO*%
D39*
X24900000Y53750000D02*
X24900000Y53000000D01*
X18140000Y57565000D02*
X21085000Y57565000D01*
X21085000Y57565000D02*
X24900000Y53750000D01*
%TO.N,GND*%
X19400000Y25925000D02*
X20625000Y25925000D01*
X21585000Y65464400D02*
X19905960Y65464400D01*
X35815300Y66406660D02*
X36802800Y66406660D01*
X33000000Y58300000D02*
X32600000Y57900000D01*
X21585000Y70964400D02*
X19656140Y70964400D01*
X32000000Y70600000D02*
X32200000Y70600000D01*
X21066190Y30625000D02*
X21150000Y30541190D01*
X21150000Y29700000D02*
X21150000Y30541190D01*
X29605000Y28182500D02*
X29605000Y26995000D01*
X23175000Y23325000D02*
X24400000Y23325000D01*
X30485000Y63685000D02*
X30400000Y63600000D01*
X26850300Y39749700D02*
X26800000Y39800000D01*
X32605000Y23307500D02*
X32605000Y23995000D01*
X25235000Y63435000D02*
X25100000Y63300000D01*
X31075000Y52097000D02*
X31635700Y52657700D01*
X20600000Y45012500D02*
X22087500Y45012500D01*
X21150000Y26450000D02*
X21100000Y26400000D01*
X29105000Y27495000D02*
X30855000Y25745000D01*
X25235000Y65364400D02*
X25235000Y63435000D01*
D40*
X43500000Y66600000D02*
X43200000Y66900000D01*
D39*
X29605000Y26995000D02*
X30855000Y25745000D01*
X32605000Y23307500D02*
X32868900Y23043600D01*
X33000000Y59200000D02*
X33000000Y58300000D01*
X24400000Y23325000D02*
X24600000Y23525000D01*
X25100000Y39700000D02*
X25200000Y39700000D01*
X32868900Y23043600D02*
X33400000Y23043600D01*
X26800000Y40812500D02*
X26800000Y39800000D01*
X32600000Y57900000D02*
X32300000Y57900000D01*
X26850300Y38608200D02*
X25638000Y38608200D01*
X32605000Y23995000D02*
X30855000Y25745000D01*
X21825000Y43525000D02*
X22200000Y43900000D01*
X19400000Y30625000D02*
X21066190Y30625000D01*
D40*
X43500000Y65887500D02*
X43500000Y66600000D01*
D39*
X22087500Y45012500D02*
X22200000Y44900000D01*
X21325000Y24500000D02*
X20200000Y24500000D01*
D40*
X39765300Y64069160D02*
X38915300Y63219160D01*
D39*
X21685000Y65364400D02*
X21585000Y65464400D01*
X29105000Y29770000D02*
X28975000Y29900000D01*
X28125000Y55100000D02*
X28125000Y56175000D01*
X29605000Y29270000D02*
X28975000Y29900000D01*
X29800000Y61587500D02*
X29800000Y62500000D01*
X31075000Y51625000D02*
X31075000Y52097000D01*
X20625000Y25925000D02*
X21100000Y26400000D01*
D40*
X36675000Y31700000D02*
X37600000Y31700000D01*
D39*
X38115300Y64731660D02*
X38115300Y63819160D01*
X26850300Y38608200D02*
X26850300Y39749700D01*
X29605000Y28182500D02*
X29605000Y29270000D01*
X22725000Y45425000D02*
X22200000Y44900000D01*
X29105000Y28182500D02*
X29105000Y27495000D01*
X30855000Y25755000D02*
X31100000Y26000000D01*
X29105000Y28182500D02*
X29105000Y29770000D01*
X30485000Y65464400D02*
X30485000Y63685000D01*
X24435000Y65364400D02*
X24435000Y63435000D01*
X24435000Y63435000D02*
X24200000Y63200000D01*
X25235000Y65364400D02*
X24435000Y65364400D01*
X38115300Y63819160D02*
X38115300Y63619160D01*
X30485000Y70964400D02*
X31635600Y70964400D01*
X33987500Y21925000D02*
X35300000Y21925000D01*
D40*
X39765300Y64319160D02*
X39765300Y64069160D01*
X36675000Y29900000D02*
X37700000Y29900000D01*
D39*
X30855000Y25745000D02*
X30855000Y25755000D01*
X21825000Y42400000D02*
X21825000Y43525000D01*
X21150000Y27000000D02*
X21150000Y26450000D01*
X31635600Y70964400D02*
X32000000Y70600000D01*
X25100000Y40812500D02*
X25100000Y39700000D01*
X22725000Y46025000D02*
X22725000Y45425000D01*
X20225000Y52800000D02*
X21200000Y52800000D01*
X32605000Y23307500D02*
X33987500Y21925000D01*
%TO.N,/SCLK*%
X16870000Y57565000D02*
X17606601Y56828399D01*
X17606601Y56828399D02*
X20271601Y56828399D01*
X20271601Y56828399D02*
X24100000Y53000000D01*
%TO.N,/NRST*%
X13060000Y54940000D02*
X17300000Y50700000D01*
X26500000Y44650000D02*
X26500000Y43900000D01*
X26500000Y43900000D02*
X25100000Y42500000D01*
X25100000Y42500000D02*
X25100000Y42387500D01*
X13060000Y57565000D02*
X13060000Y54940000D01*
X26500000Y44650000D02*
X26500000Y46700000D01*
X26500000Y46700000D02*
X26100000Y47100000D01*
%TO.N,/boot0*%
X22487500Y46587500D02*
X22725000Y46825000D01*
X20600000Y46587500D02*
X19212500Y46587500D01*
X11900000Y54800000D02*
X11900000Y65375000D01*
X20600000Y46587500D02*
X22487500Y46587500D01*
X11900000Y65375000D02*
X5900000Y65375000D01*
X17400000Y49300000D02*
X11900000Y54800000D01*
%TO.N,Net-(D2-K)*%
D40*
X40650000Y66384460D02*
X40715300Y66319160D01*
X37350000Y70900000D02*
X38150000Y70900000D01*
X40650000Y68400000D02*
X40650000Y66384460D01*
X38150000Y70900000D02*
X40650000Y68400000D01*
X40702800Y66306660D02*
X40715300Y66319160D01*
X38115300Y66306660D02*
X40702800Y66306660D01*
%TO.N,EXT_PWR*%
X31187500Y61400000D02*
X29800000Y60012500D01*
D39*
X32050000Y62082400D02*
X32867600Y62900000D01*
X32050000Y61400000D02*
X32050000Y62082400D01*
D40*
X32050000Y61400000D02*
X31187500Y61400000D01*
D39*
X41900000Y62200000D02*
X47100000Y62200000D01*
D40*
X40650000Y70900000D02*
X40720000Y70900000D01*
D39*
X47100000Y62200000D02*
X48260000Y63360000D01*
X37135180Y62900000D02*
X37200000Y62964820D01*
D40*
X40720000Y70900000D02*
X48260000Y63360000D01*
D39*
X32867600Y62900000D02*
X37135180Y62900000D01*
%TO.N,TAG_RESET*%
X28600000Y38758500D02*
X28750300Y38608200D01*
X28600000Y40812500D02*
X28600000Y38758500D01*
%TO.N,Net-(U101-PA0)*%
X28100000Y42887500D02*
X28600000Y42387500D01*
X28100000Y44650000D02*
X28100000Y42887500D01*
%TO.N,Net-(U101-PA7)*%
X31075000Y49225000D02*
X32252500Y49225000D01*
X32252500Y49225000D02*
X33984400Y47493100D01*
%TO.N,TAG_SWDIO*%
X33729999Y26995000D02*
X34000000Y27265001D01*
X33984400Y45843100D02*
X33984400Y35615600D01*
X33984400Y35615600D02*
X34000000Y35600000D01*
X34000000Y27265001D02*
X34000000Y32300000D01*
X31824999Y48425000D02*
X33984400Y46265599D01*
X31075000Y48425000D02*
X31824999Y48425000D01*
X33984400Y46265599D02*
X33984400Y45843100D01*
X33292500Y26995000D02*
X33729999Y26995000D01*
%TO.N,Net-(D105-K)*%
X34115300Y64831660D02*
X35815300Y64831660D01*
%TO.N,PWR_IN*%
D40*
X48260000Y60860000D02*
X42560000Y60860000D01*
X31000000Y59200000D02*
X32050000Y59200000D01*
X42560000Y60860000D02*
X40900000Y59200000D01*
%TO.N,Net-(R2-Pad2)*%
D39*
X40200000Y57885000D02*
X39405000Y57090000D01*
X39200000Y61625000D02*
X39475000Y61625000D01*
X33950000Y61400000D02*
X35575000Y61400000D01*
X35800000Y61625000D02*
X37500000Y61625000D01*
X39475000Y61625000D02*
X40200000Y60900000D01*
X40200000Y60900000D02*
X40200000Y57885000D01*
X37500000Y61625000D02*
X39200000Y61625000D01*
X35575000Y61400000D02*
X35800000Y61625000D01*
%TO.N,TAG_3V3*%
X21150000Y27900000D02*
X19825000Y27900000D01*
D40*
X49900000Y46560000D02*
X48260000Y48200000D01*
D39*
X27456250Y28456250D02*
X27456250Y27695150D01*
X36275000Y23475000D02*
X36500000Y23700000D01*
D40*
X14200000Y31600000D02*
X17200000Y31600000D01*
X23800000Y31600000D02*
X25500000Y29900000D01*
D39*
X27561400Y25495000D02*
X27405000Y25651400D01*
D40*
X41910000Y49470000D02*
X40640000Y49470000D01*
X35130894Y31700000D02*
X36215447Y32784553D01*
X25500000Y29900000D02*
X27425000Y29900000D01*
X35125000Y31700000D02*
X35130894Y31700000D01*
X45215447Y41784553D02*
X48684687Y41784553D01*
X49900000Y42999866D02*
X49900000Y46560000D01*
X17200000Y31600000D02*
X17200000Y29675000D01*
X38135000Y49470000D02*
X39405000Y49470000D01*
X35125000Y29900000D02*
X35125000Y31694106D01*
D39*
X25151400Y25651400D02*
X27405000Y25651400D01*
X28417500Y25495000D02*
X27561400Y25495000D01*
D40*
X39405000Y49470000D02*
X40640000Y49470000D01*
X35125000Y28475000D02*
X35200000Y28400000D01*
X41910000Y49470000D02*
X43180000Y48200000D01*
X36865000Y49470000D02*
X38135000Y49470000D01*
X5080000Y32960000D02*
X12840000Y32960000D01*
D39*
X19825000Y27900000D02*
X19400000Y27475000D01*
X27400000Y25500000D02*
X27400000Y25646400D01*
X27425000Y29900000D02*
X27425000Y28487500D01*
D40*
X17200000Y29675000D02*
X19400000Y27475000D01*
D39*
X35300000Y23475000D02*
X36275000Y23475000D01*
X27425000Y28487500D02*
X28417500Y27495000D01*
X25176400Y25651400D02*
X24600000Y25075000D01*
D40*
X43180000Y48200000D02*
X48387000Y48200000D01*
D39*
X27400000Y25646400D02*
X27405000Y25651400D01*
D40*
X12840000Y32960000D02*
X14200000Y31600000D01*
X35125000Y29900000D02*
X35000000Y29900000D01*
X35595000Y49470000D02*
X36865000Y49470000D01*
D39*
X33292500Y23995000D02*
X34780000Y23995000D01*
X27425000Y28487500D02*
X27456250Y28456250D01*
D40*
X35125000Y29900000D02*
X35125000Y28475000D01*
X17200000Y31600000D02*
X23800000Y31600000D01*
D39*
X27405000Y25651400D02*
X25176400Y25651400D01*
D40*
X36215447Y32784553D02*
X45215447Y41784553D01*
X35125000Y31694106D02*
X36215447Y32784553D01*
D39*
X27456250Y27695150D02*
X27500000Y27651400D01*
X34780000Y23995000D02*
X35300000Y23475000D01*
D40*
X48684687Y41784553D02*
X49900000Y42999866D01*
%TO.N,/stm32/NRST*%
D39*
X27800300Y36608200D02*
X25746200Y36608200D01*
X27667201Y26307800D02*
X24682800Y26307800D01*
X28417500Y25995000D02*
X27980001Y25995000D01*
X23500000Y25125000D02*
X22875000Y24500000D01*
X27980001Y25995000D02*
X27667201Y26307800D01*
X23500000Y26200000D02*
X23500000Y25125000D01*
X24682800Y26307800D02*
X23500000Y25125000D01*
%TO.N,/UART_TX*%
X22725000Y48425000D02*
X15015000Y48425000D01*
X15015000Y48425000D02*
X5080000Y58360000D01*
%TO.N,/stm32/PB4*%
X31605000Y32450334D02*
X31605000Y28182500D01*
X23735292Y35624050D02*
X28431284Y35624050D01*
X28431284Y35624050D02*
X31605000Y32450334D01*
X11159342Y48200000D02*
X23735292Y35624050D01*
X5080000Y48200000D02*
X11159342Y48200000D01*
%TO.N,/stm32/PB5*%
X31105000Y32519267D02*
X31105000Y28182500D01*
X5080000Y45660000D02*
X13268290Y45660000D01*
X28305026Y35319241D02*
X31105000Y32519267D01*
X23609049Y35319241D02*
X28305026Y35319241D01*
X13268290Y45660000D02*
X23609049Y35319241D01*
%TO.N,/stm32/rtc_scl*%
X23142709Y29169494D02*
X22719494Y29169494D01*
X5207000Y43120000D02*
X6671000Y41656000D01*
X23200000Y35014431D02*
X23200000Y34800000D01*
X30105000Y28182500D02*
X30105000Y30093000D01*
X16344000Y41656000D02*
X23200000Y34800000D01*
X30105000Y30093000D02*
X28549600Y31648400D01*
X24663400Y31648400D02*
X23799800Y32512000D01*
X28549600Y31648400D02*
X24663400Y31648400D01*
X23799800Y32512000D02*
X23139400Y32512000D01*
X22719494Y29169494D02*
X22350000Y28800000D01*
X6671000Y41656000D02*
X16344000Y41656000D01*
%TO.N,/stm32/rtc_sda*%
X22400000Y33500000D02*
X21033800Y33500000D01*
X29210000Y31953200D02*
X30607000Y30556200D01*
X22350000Y30750000D02*
X22300000Y30800000D01*
X21033800Y33500000D02*
X13953800Y40580000D01*
X24158000Y33500000D02*
X25704800Y31953200D01*
X13953800Y40580000D02*
X4953000Y40580000D01*
X22350000Y29700000D02*
X22350000Y30750000D01*
X25704800Y31953200D02*
X29210000Y31953200D01*
X22350000Y29700000D02*
X22553610Y29496390D01*
X30607000Y29419500D02*
X30600000Y29412500D01*
X30607000Y30556200D02*
X30607000Y29419500D01*
X30605000Y29407500D02*
X30605000Y28182500D01*
X30600000Y29412500D02*
X30605000Y29407500D01*
X22400000Y33500000D02*
X24158000Y33500000D01*
%TO.N,/stm32/PA0*%
X24596390Y22196390D02*
X12196390Y22196390D01*
X7500000Y26892780D02*
X7500000Y28000000D01*
X24800000Y22200000D02*
X24600000Y22200000D01*
X7500000Y28000000D02*
X5080000Y30420000D01*
X12196390Y22196390D02*
X7500000Y26892780D01*
X24600000Y22200000D02*
X24596390Y22196390D01*
X27595000Y24995000D02*
X24800000Y22200000D01*
X28417500Y24995000D02*
X27595000Y24995000D01*
%TO.N,/stm32/PA1*%
X24631052Y21600000D02*
X27526052Y24495000D01*
X5080000Y27880000D02*
X11360000Y21600000D01*
X27526052Y24495000D02*
X28417500Y24495000D01*
X11360000Y21600000D02*
X24631052Y21600000D01*
%TO.N,/stm32/PA2*%
X24982691Y21295191D02*
X9124809Y21295191D01*
X27682500Y23995000D02*
X24982691Y21295191D01*
X9124809Y21295191D02*
X5080000Y25340000D01*
X28417500Y23995000D02*
X27682500Y23995000D01*
%TO.N,/stm32/PA3*%
X29105000Y23307500D02*
X29105000Y22592500D01*
X29105000Y22592500D02*
X27450000Y20937500D01*
X27450000Y20937500D02*
X6942500Y20937500D01*
X6942500Y20937500D02*
X5080000Y22800000D01*
%TO.N,/stm32/PA4*%
X26279370Y18600000D02*
X8200000Y18600000D01*
X29605000Y23307500D02*
X29605000Y21925630D01*
X8200000Y18600000D02*
X6540000Y20260000D01*
X29605000Y21925630D02*
X26279370Y18600000D01*
X6540000Y20260000D02*
X5080000Y20260000D01*
%TO.N,/stm32/PA5*%
X25830422Y17720000D02*
X30105000Y21994578D01*
X30105000Y21994578D02*
X30105000Y23307500D01*
X5080000Y17720000D02*
X25830422Y17720000D01*
%TO.N,/stm32/PA6*%
X29100000Y20237867D02*
X27038816Y18176684D01*
X5080000Y15180000D02*
X24042132Y15180000D01*
X24042132Y15180000D02*
X27038816Y18176684D01*
X30600000Y21900000D02*
X29100000Y20400000D01*
X30605000Y22870001D02*
X30600000Y22865001D01*
X30605000Y23307500D02*
X30605000Y22870001D01*
X30600000Y22865001D02*
X30600000Y21900000D01*
X29100000Y20400000D02*
X29100000Y20237867D01*
%TO.N,/stm32/PA7*%
X31105000Y23307500D02*
X31105000Y21811800D01*
X21933200Y12640000D02*
X26046600Y16753400D01*
X31105000Y21811800D02*
X29546600Y20253400D01*
X26046600Y16753400D02*
X29546600Y20253400D01*
X5080000Y12640000D02*
X21933200Y12640000D01*
%TO.N,/stm32/PB0*%
X20500000Y10100000D02*
X5080000Y10100000D01*
X31605000Y23307500D02*
X31605000Y21205000D01*
X31605000Y21205000D02*
X20500000Y10100000D01*
%TO.N,/stm32/clkout*%
X28417500Y26995000D02*
X22355000Y26995000D01*
X22355000Y26995000D02*
X22350000Y27000000D01*
%TO.N,/stm32/VBACK*%
X21150000Y28800000D02*
X20975000Y28975000D01*
X20975000Y28975000D02*
X19400000Y28975000D01*
%TO.N,/stm32/PB3*%
X32100000Y29412500D02*
X32100000Y32100000D01*
X46300000Y43700000D02*
X48260000Y45660000D01*
X32100000Y29412500D02*
X32105000Y29407500D01*
X32100000Y32100000D02*
X43700000Y43700000D01*
X32105000Y29407500D02*
X32105000Y28182500D01*
X43700000Y43700000D02*
X46300000Y43700000D01*
%TO.N,/stm32/PA15*%
X45539660Y43120000D02*
X48260000Y43120000D01*
X32524699Y31679099D02*
X43965600Y43120000D01*
X32524699Y29500000D02*
X32605000Y29419699D01*
X44020000Y43120000D02*
X45539660Y43120000D01*
X32524699Y29487801D02*
X32524699Y29500000D01*
X32605000Y29419699D02*
X32605000Y28182500D01*
X32524699Y29500000D02*
X32524699Y31679099D01*
%TO.N,/stm32/PA12*%
X41996360Y32104858D02*
X36391502Y26500000D01*
X41996360Y36856360D02*
X41996360Y32104858D01*
X36391502Y26500000D02*
X34512500Y26500000D01*
X48260000Y40580000D02*
X45720000Y40580000D01*
X34507500Y26495000D02*
X34512500Y26500000D01*
X33292500Y26495000D02*
X34507500Y26495000D01*
X45720000Y40580000D02*
X41996360Y36856360D01*
%TO.N,/stm32/PA11*%
X33292500Y25995000D02*
X34507500Y25995000D01*
X42301171Y31893944D02*
X36407227Y26000000D01*
X34507500Y25995000D02*
X34512500Y26000000D01*
X36407227Y26000000D02*
X34512500Y26000000D01*
X42301171Y34621171D02*
X42301171Y31893944D01*
X48260000Y38040000D02*
X45720000Y38040000D01*
X45720000Y38040000D02*
X42301171Y34621171D01*
%TO.N,/stm32/PA10*%
X45720000Y35500000D02*
X48260000Y35500000D01*
X33417499Y25370001D02*
X37070001Y25370001D01*
X42605982Y32385983D02*
X45356780Y35136780D01*
X33292500Y25495000D02*
X33417499Y25370001D01*
X45356780Y35136780D02*
X45720000Y35500000D01*
X42605982Y30905982D02*
X42605982Y32385983D01*
X37070001Y25370001D02*
X42605982Y30905982D01*
%TO.N,/stm32/PA9*%
X34507500Y24995000D02*
X34512500Y25000000D01*
X37760000Y25000000D02*
X45720000Y32960000D01*
X45720000Y32960000D02*
X48260000Y32960000D01*
X33292500Y24995000D02*
X34507500Y24995000D01*
X34512500Y25000000D02*
X37760000Y25000000D01*
%TO.N,/stm32/PA8*%
X34507500Y24495000D02*
X34512500Y24500000D01*
X34512500Y24500000D02*
X39800000Y24500000D01*
X45720000Y30420000D02*
X48260000Y30420000D01*
X39800000Y24500000D02*
X45720000Y30420000D01*
X33292500Y24495000D02*
X34507500Y24495000D01*
%TO.N,/stm32/PB1*%
X48260000Y10100000D02*
X37600000Y10100000D01*
X32105000Y23307500D02*
X32105000Y15595000D01*
X37600000Y10100000D02*
X32900000Y14800000D01*
X32105000Y15595000D02*
X32900000Y14800000D01*
%TO.N,Net-(D1-K)*%
X18575000Y52800000D02*
X18575000Y51037500D01*
X18575000Y51037500D02*
X18612500Y51000000D01*
%TO.N,/LED_GREEN*%
X22550000Y51000000D02*
X22725000Y50825000D01*
X20187500Y51000000D02*
X22550000Y51000000D01*
%TO.N,PWR_IN_MIRROR*%
X34600000Y51700000D02*
X37400000Y51700000D01*
X37400000Y51700000D02*
X44060000Y58360000D01*
X31075000Y50825000D02*
X33725000Y50825000D01*
X33725000Y50825000D02*
X34600000Y51700000D01*
X44060000Y58360000D02*
X48260000Y58360000D01*
%TO.N,VUSB*%
D40*
X29900000Y66900000D02*
X29400000Y66900000D01*
D39*
X34115300Y66406660D02*
X34115300Y68815300D01*
D40*
X31900000Y68832520D02*
X31832520Y68832520D01*
X34132520Y68832520D02*
X36917480Y68832520D01*
X31832520Y68832520D02*
X29900000Y66900000D01*
X36917480Y68832520D02*
X37350000Y68400000D01*
X27575000Y65075000D02*
X27575000Y64875000D01*
X29400000Y66900000D02*
X27575000Y65075000D01*
X34132520Y68832520D02*
X31900000Y68832520D01*
D39*
X34115300Y68815300D02*
X34132520Y68832520D01*
%TO.N,TAG_SCK*%
X33083500Y30877200D02*
X33083500Y27704000D01*
X31075000Y47625000D02*
X31824999Y47625000D01*
X33000000Y34072200D02*
X33083500Y33988700D01*
X31824999Y47625000D02*
X33000000Y46449999D01*
X33000000Y46449999D02*
X33000000Y34072200D01*
X33083500Y27704000D02*
X33292500Y27495000D01*
%TO.N,/USB_DM*%
X26500000Y63727000D02*
X26500000Y53000000D01*
X26835000Y65364400D02*
X26835000Y64062000D01*
X26835000Y64062000D02*
X26500000Y63727000D01*
%TO.N,/USB_DP*%
X26035000Y65364400D02*
X26035000Y64062000D01*
X25700000Y63727000D02*
X25700000Y53000000D01*
X26035000Y64062000D02*
X25700000Y63727000D01*
%TO.N,Net-(R2-Pad1)*%
X39200000Y59975000D02*
X38135000Y58910000D01*
X38135000Y58910000D02*
X38135000Y57090000D01*
%TO.N,Net-(R5-Pad1)*%
X37500000Y59975000D02*
X37500000Y57725000D01*
X37500000Y57725000D02*
X36865000Y57090000D01*
%TO.N,Net-(R6-Pad1)*%
X35800000Y59975000D02*
X35800000Y57295000D01*
X35800000Y57295000D02*
X35595000Y57090000D01*
%TD*%
%TA.AperFunction,Conductor*%
%TO.N,GND*%
G36*
X46843862Y29830944D02*
G01*
X46859314Y29831606D01*
X46877236Y29821145D01*
X46897147Y29815298D01*
X46908220Y29803058D01*
X46920629Y29795815D01*
X46941292Y29766505D01*
X46970560Y29709062D01*
X46971108Y29707988D01*
X46973902Y29704142D01*
X47096794Y29534996D01*
X47096796Y29534994D01*
X47096798Y29534991D01*
X47247990Y29383799D01*
X47247993Y29383797D01*
X47247996Y29383794D01*
X47420991Y29258106D01*
X47562005Y29186256D01*
X47613620Y29137509D01*
X47630686Y29068594D01*
X47607786Y29001393D01*
X47578864Y28972054D01*
X47501989Y28916201D01*
X47350798Y28765010D01*
X47350796Y28765007D01*
X47225108Y28592013D01*
X47128029Y28401485D01*
X47128026Y28401479D01*
X47061952Y28198122D01*
X47061951Y28198117D01*
X47061951Y28198116D01*
X47028500Y27986916D01*
X47028500Y27773084D01*
X47056939Y27593531D01*
X47061952Y27561879D01*
X47128026Y27358522D01*
X47128028Y27358517D01*
X47225106Y27167991D01*
X47350794Y26994996D01*
X47350796Y26994994D01*
X47350798Y26994991D01*
X47501990Y26843799D01*
X47501993Y26843797D01*
X47501996Y26843794D01*
X47573338Y26791961D01*
X47578863Y26787947D01*
X47622217Y26731725D01*
X47628292Y26660989D01*
X47595161Y26598197D01*
X47562006Y26573746D01*
X47469801Y26526764D01*
X47420987Y26501892D01*
X47247993Y26376204D01*
X47247990Y26376202D01*
X47096798Y26225010D01*
X47096796Y26225007D01*
X46971108Y26052013D01*
X46874029Y25861485D01*
X46874026Y25861479D01*
X46807952Y25658122D01*
X46807951Y25658117D01*
X46807951Y25658116D01*
X46774500Y25446916D01*
X46774500Y25233084D01*
X46804021Y25046698D01*
X46807952Y25021879D01*
X46874026Y24818522D01*
X46874028Y24818517D01*
X46971106Y24627991D01*
X46971108Y24627988D01*
X47002182Y24585219D01*
X47096794Y24454996D01*
X47096796Y24454994D01*
X47096798Y24454991D01*
X47247990Y24303799D01*
X47247993Y24303797D01*
X47247996Y24303794D01*
X47420991Y24178106D01*
X47562005Y24106256D01*
X47613620Y24057509D01*
X47630686Y23988594D01*
X47607786Y23921393D01*
X47578864Y23892054D01*
X47501989Y23836201D01*
X47350798Y23685010D01*
X47350796Y23685007D01*
X47225108Y23512013D01*
X47128029Y23321485D01*
X47128026Y23321479D01*
X47061952Y23118122D01*
X47061951Y23118117D01*
X47061951Y23118116D01*
X47028500Y22906916D01*
X47028500Y22693084D01*
X47061951Y22481884D01*
X47061952Y22481879D01*
X47113389Y22323572D01*
X47128028Y22278517D01*
X47225106Y22087991D01*
X47350794Y21914996D01*
X47350796Y21914994D01*
X47350798Y21914991D01*
X47501990Y21763799D01*
X47501993Y21763797D01*
X47501996Y21763794D01*
X47538469Y21737295D01*
X47578863Y21707947D01*
X47622217Y21651725D01*
X47628292Y21580989D01*
X47595161Y21518197D01*
X47562006Y21493746D01*
X47435355Y21429214D01*
X47420987Y21421892D01*
X47247993Y21296204D01*
X47247990Y21296202D01*
X47096798Y21145010D01*
X47096796Y21145007D01*
X46971108Y20972013D01*
X46874029Y20781485D01*
X46874026Y20781479D01*
X46807952Y20578122D01*
X46807951Y20578117D01*
X46807951Y20578116D01*
X46774500Y20366916D01*
X46774500Y20153084D01*
X46788494Y20064730D01*
X46807952Y19941879D01*
X46874026Y19738522D01*
X46874028Y19738517D01*
X46971106Y19547991D01*
X47096794Y19374996D01*
X47096796Y19374994D01*
X47096798Y19374991D01*
X47247990Y19223799D01*
X47247993Y19223797D01*
X47247996Y19223794D01*
X47420991Y19098106D01*
X47562005Y19026256D01*
X47613620Y18977509D01*
X47630686Y18908594D01*
X47607786Y18841393D01*
X47578864Y18812054D01*
X47501989Y18756201D01*
X47350798Y18605010D01*
X47350796Y18605007D01*
X47225108Y18432013D01*
X47128029Y18241485D01*
X47128026Y18241479D01*
X47061952Y18038122D01*
X47061951Y18038117D01*
X47061951Y18038116D01*
X47028500Y17826916D01*
X47028500Y17613084D01*
X47061951Y17401884D01*
X47061952Y17401879D01*
X47128026Y17198522D01*
X47128028Y17198517D01*
X47225106Y17007991D01*
X47350794Y16834996D01*
X47350796Y16834994D01*
X47350798Y16834991D01*
X47501990Y16683799D01*
X47501993Y16683797D01*
X47501996Y16683794D01*
X47578863Y16627947D01*
X47622217Y16571725D01*
X47628292Y16500989D01*
X47595161Y16438197D01*
X47562006Y16413746D01*
X47435355Y16349214D01*
X47420987Y16341892D01*
X47247993Y16216204D01*
X47247990Y16216202D01*
X47096798Y16065010D01*
X47096796Y16065007D01*
X46971108Y15892013D01*
X46874029Y15701485D01*
X46874026Y15701479D01*
X46807952Y15498122D01*
X46807951Y15498117D01*
X46807951Y15498116D01*
X46774500Y15286916D01*
X46774500Y15073084D01*
X46807951Y14861884D01*
X46807952Y14861879D01*
X46874026Y14658522D01*
X46874028Y14658517D01*
X46971106Y14467991D01*
X46971108Y14467988D01*
X46990726Y14440986D01*
X47096794Y14294996D01*
X47096796Y14294994D01*
X47096798Y14294991D01*
X47247990Y14143799D01*
X47247993Y14143797D01*
X47247996Y14143794D01*
X47420991Y14018106D01*
X47562005Y13946256D01*
X47613620Y13897509D01*
X47630686Y13828594D01*
X47607786Y13761393D01*
X47578864Y13732054D01*
X47501989Y13676201D01*
X47350798Y13525010D01*
X47350796Y13525007D01*
X47225108Y13352013D01*
X47128029Y13161485D01*
X47128026Y13161479D01*
X47061952Y12958122D01*
X47061951Y12958117D01*
X47061951Y12958116D01*
X47028500Y12746916D01*
X47028500Y12533084D01*
X47061951Y12321884D01*
X47061952Y12321879D01*
X47128026Y12118522D01*
X47128028Y12118517D01*
X47225106Y11927991D01*
X47350794Y11754996D01*
X47350796Y11754994D01*
X47350798Y11754991D01*
X47501990Y11603799D01*
X47501993Y11603797D01*
X47501996Y11603794D01*
X47578863Y11547947D01*
X47622217Y11491725D01*
X47628292Y11420989D01*
X47595161Y11358197D01*
X47562006Y11333746D01*
X47435355Y11269214D01*
X47420987Y11261892D01*
X47247993Y11136204D01*
X47247990Y11136202D01*
X47096798Y10985010D01*
X47096796Y10985007D01*
X46971108Y10812013D01*
X46941293Y10753497D01*
X46892545Y10701882D01*
X46829026Y10684700D01*
X37894380Y10684700D01*
X37826259Y10704702D01*
X37805285Y10721605D01*
X32726605Y15800285D01*
X32692579Y15862597D01*
X32689700Y15889380D01*
X32689700Y21651148D01*
X34317000Y21651148D01*
X34327255Y21550771D01*
X34327257Y21550759D01*
X34381152Y21388116D01*
X34471109Y21242272D01*
X34471114Y21242266D01*
X34592265Y21121115D01*
X34592271Y21121110D01*
X34738115Y21031153D01*
X34900758Y20977258D01*
X34900770Y20977256D01*
X35001147Y20967001D01*
X35001147Y20967000D01*
X35046000Y20967000D01*
X35554000Y20967000D01*
X35598853Y20967000D01*
X35598852Y20967001D01*
X35699229Y20977256D01*
X35699241Y20977258D01*
X35861884Y21031153D01*
X36007728Y21121110D01*
X36007734Y21121115D01*
X36128885Y21242266D01*
X36128890Y21242272D01*
X36218847Y21388116D01*
X36272742Y21550759D01*
X36272744Y21550771D01*
X36282999Y21651148D01*
X36283000Y21651148D01*
X36283000Y21671000D01*
X35554000Y21671000D01*
X35554000Y20967000D01*
X35046000Y20967000D01*
X35046000Y21671000D01*
X34317000Y21671000D01*
X34317000Y21651148D01*
X32689700Y21651148D01*
X32689700Y22249501D01*
X32709702Y22317622D01*
X32763358Y22364115D01*
X32799255Y22374423D01*
X32816430Y22376684D01*
X32955208Y22434167D01*
X33074385Y22525615D01*
X33165833Y22644792D01*
X33223315Y22783570D01*
X33237999Y22895104D01*
X33238000Y22895113D01*
X33238000Y23235501D01*
X33258002Y23303622D01*
X33311658Y23350115D01*
X33363998Y23361501D01*
X33704924Y23361501D01*
X33816561Y23376197D01*
X33875738Y23400709D01*
X33923956Y23410300D01*
X34190500Y23410300D01*
X34258621Y23390298D01*
X34305114Y23336642D01*
X34316500Y23284300D01*
X34316500Y23201120D01*
X34316499Y23201120D01*
X34326763Y23100667D01*
X34326764Y23100664D01*
X34380698Y22937899D01*
X34470715Y22791960D01*
X34473928Y22788747D01*
X34507956Y22726439D01*
X34502895Y22655623D01*
X34473938Y22610558D01*
X34471112Y22607733D01*
X34471109Y22607729D01*
X34381152Y22461885D01*
X34327257Y22299242D01*
X34327255Y22299230D01*
X34317000Y22198853D01*
X34317000Y22179000D01*
X36283000Y22179000D01*
X36283000Y22198853D01*
X36272744Y22299230D01*
X36272742Y22299242D01*
X36218847Y22461885D01*
X36128890Y22607729D01*
X36128885Y22607735D01*
X36126067Y22610553D01*
X36124749Y22612966D01*
X36124338Y22613486D01*
X36124426Y22613557D01*
X36092041Y22672865D01*
X36097106Y22743680D01*
X36111835Y22771755D01*
X36118198Y22780874D01*
X36129285Y22791960D01*
X36154780Y22833295D01*
X36156820Y22836217D01*
X36181835Y22856278D01*
X36205691Y22877735D01*
X36209332Y22878328D01*
X36212207Y22880633D01*
X36244098Y22883985D01*
X36275766Y22889138D01*
X36282606Y22888033D01*
X36282814Y22888054D01*
X36282976Y22887973D01*
X36284730Y22887689D01*
X36417395Y22861300D01*
X36417396Y22861300D01*
X36582604Y22861300D01*
X36582605Y22861300D01*
X36744640Y22893531D01*
X36897273Y22956754D01*
X37034640Y23048539D01*
X37151461Y23165360D01*
X37243246Y23302727D01*
X37306469Y23455360D01*
X37338700Y23617395D01*
X37338700Y23782605D01*
X37338700Y23788795D01*
X37341515Y23788795D01*
X37352456Y23846646D01*
X37401270Y23898199D01*
X37464650Y23915300D01*
X39876975Y23915300D01*
X39876977Y23915300D01*
X40025686Y23955147D01*
X40159014Y24032124D01*
X40267876Y24140986D01*
X40327380Y24200490D01*
X40327393Y24200505D01*
X45925286Y29798395D01*
X45987598Y29832421D01*
X46014381Y29835300D01*
X46829026Y29835300D01*
X46843862Y29830944D01*
G37*
%TD.AperFunction*%
%TA.AperFunction,Conductor*%
G36*
X12582177Y32279098D02*
G01*
X12603151Y32262195D01*
X13682234Y31183113D01*
X13682244Y31183102D01*
X13686644Y31178702D01*
X13686645Y31178701D01*
X13778701Y31086645D01*
X13886946Y31014318D01*
X14006366Y30964853D01*
X14007223Y30964498D01*
X14134906Y30939100D01*
X14134907Y30939100D01*
X16413100Y30939100D01*
X16481221Y30919098D01*
X16527714Y30865442D01*
X16539100Y30813100D01*
X16539100Y29609905D01*
X16554001Y29534996D01*
X16564498Y29482223D01*
X16614318Y29361946D01*
X16686645Y29253701D01*
X16686647Y29253699D01*
X18379595Y27560751D01*
X18413621Y27498439D01*
X18416500Y27471656D01*
X18416500Y27201120D01*
X18416499Y27201120D01*
X18426763Y27100667D01*
X18426764Y27100664D01*
X18480698Y26937899D01*
X18570715Y26791960D01*
X18573928Y26788747D01*
X18607956Y26726439D01*
X18602895Y26655623D01*
X18573938Y26610558D01*
X18571112Y26607733D01*
X18571109Y26607729D01*
X18481152Y26461885D01*
X18427257Y26299242D01*
X18427255Y26299230D01*
X18417000Y26198853D01*
X18417000Y26179000D01*
X20383001Y26179000D01*
X20389556Y26185556D01*
X20403002Y26231346D01*
X20456658Y26277839D01*
X20526932Y26287943D01*
X20553033Y26281281D01*
X20640907Y26248506D01*
X20701402Y26242001D01*
X20701415Y26242000D01*
X20900000Y26242000D01*
X20900000Y26874000D01*
X20902591Y26882826D01*
X20901282Y26891932D01*
X20912437Y26916358D01*
X20920002Y26942121D01*
X20926955Y26948146D01*
X20930776Y26956512D01*
X20953361Y26971027D01*
X20973658Y26988614D01*
X20984344Y26990939D01*
X20990502Y26994896D01*
X21026000Y27000000D01*
X21274000Y27000000D01*
X21342121Y26979998D01*
X21388614Y26926342D01*
X21400000Y26874000D01*
X21400000Y26242000D01*
X21598585Y26242000D01*
X21598597Y26242001D01*
X21659093Y26248506D01*
X21659098Y26248507D01*
X21705250Y26265721D01*
X21776065Y26270787D01*
X21793313Y26265723D01*
X21815293Y26257525D01*
X21840798Y26248011D01*
X21840803Y26248010D01*
X21901350Y26241501D01*
X21901355Y26241501D01*
X21901362Y26241500D01*
X22535300Y26241500D01*
X22603421Y26221498D01*
X22649914Y26167842D01*
X22659572Y26123441D01*
X22660694Y26123551D01*
X22661300Y26117393D01*
X22674305Y26052013D01*
X22693531Y25955360D01*
X22756754Y25802727D01*
X22821008Y25706564D01*
X22839090Y25679502D01*
X22860305Y25611749D01*
X22841522Y25543282D01*
X22788704Y25495839D01*
X22734325Y25483500D01*
X22601120Y25483500D01*
X22500666Y25473237D01*
X22337899Y25419302D01*
X22191959Y25329285D01*
X22191953Y25329280D01*
X22188742Y25326068D01*
X22126430Y25292042D01*
X22055615Y25297107D01*
X22010552Y25326068D01*
X22007734Y25328886D01*
X22007728Y25328891D01*
X21861884Y25418848D01*
X21699241Y25472743D01*
X21699229Y25472745D01*
X21598852Y25483000D01*
X21579000Y25483000D01*
X21579000Y23517000D01*
X21598853Y23517000D01*
X21598852Y23517001D01*
X21699229Y23527256D01*
X21699241Y23527258D01*
X21861884Y23581153D01*
X22007727Y23671110D01*
X22010546Y23673928D01*
X22012960Y23675247D01*
X22013486Y23675662D01*
X22013556Y23675573D01*
X22072856Y23707957D01*
X22143672Y23702896D01*
X22188745Y23673930D01*
X22191960Y23670715D01*
X22337899Y23580698D01*
X22500664Y23526764D01*
X22520756Y23524712D01*
X22601120Y23516500D01*
X22601128Y23516500D01*
X23148880Y23516500D01*
X23221936Y23523965D01*
X23249336Y23526764D01*
X23412101Y23580698D01*
X23558040Y23670715D01*
X23629421Y23742097D01*
X23691731Y23776120D01*
X23718515Y23779000D01*
X24474000Y23779000D01*
X24542121Y23758998D01*
X24588614Y23705342D01*
X24600000Y23653000D01*
X24600000Y23397000D01*
X24579998Y23328879D01*
X24526342Y23282386D01*
X24474000Y23271000D01*
X23617000Y23271000D01*
X23617000Y23251148D01*
X23627255Y23150771D01*
X23627257Y23150759D01*
X23681153Y22988115D01*
X23681152Y22988115D01*
X23690329Y22973238D01*
X23709067Y22904759D01*
X23687809Y22837020D01*
X23633302Y22791528D01*
X23583089Y22781090D01*
X12490771Y22781090D01*
X12422650Y22801092D01*
X12401676Y22817995D01*
X11018523Y24201148D01*
X20367000Y24201148D01*
X20377255Y24100771D01*
X20377257Y24100759D01*
X20431152Y23938116D01*
X20521109Y23792272D01*
X20521114Y23792266D01*
X20642265Y23671115D01*
X20642271Y23671110D01*
X20788115Y23581153D01*
X20950758Y23527258D01*
X20950770Y23527256D01*
X21051147Y23517001D01*
X21051147Y23517000D01*
X21071000Y23517000D01*
X21071000Y24246000D01*
X20367000Y24246000D01*
X20367000Y24201148D01*
X11018523Y24201148D01*
X10420818Y24798853D01*
X20367000Y24798853D01*
X20367000Y24754000D01*
X21071000Y24754000D01*
X21071000Y25483000D01*
X21051147Y25483000D01*
X20950770Y25472745D01*
X20950758Y25472743D01*
X20788115Y25418848D01*
X20642271Y25328891D01*
X20642265Y25328886D01*
X20521114Y25207735D01*
X20521109Y25207729D01*
X20431152Y25061885D01*
X20377257Y24899242D01*
X20377255Y24899230D01*
X20367000Y24798853D01*
X10420818Y24798853D01*
X9568523Y25651148D01*
X18417000Y25651148D01*
X18427255Y25550771D01*
X18427257Y25550759D01*
X18481152Y25388116D01*
X18571109Y25242272D01*
X18571114Y25242266D01*
X18692265Y25121115D01*
X18692271Y25121110D01*
X18838115Y25031153D01*
X19000758Y24977258D01*
X19000770Y24977256D01*
X19101147Y24967001D01*
X19101147Y24967000D01*
X19146000Y24967000D01*
X19654000Y24967000D01*
X19698853Y24967000D01*
X19698852Y24967001D01*
X19799229Y24977256D01*
X19799241Y24977258D01*
X19961884Y25031153D01*
X20107728Y25121110D01*
X20107734Y25121115D01*
X20228885Y25242266D01*
X20228890Y25242272D01*
X20318847Y25388116D01*
X20372742Y25550759D01*
X20372744Y25550771D01*
X20382999Y25651148D01*
X20383000Y25651148D01*
X20383000Y25671000D01*
X19654000Y25671000D01*
X19654000Y24967000D01*
X19146000Y24967000D01*
X19146000Y25671000D01*
X18417000Y25671000D01*
X18417000Y25651148D01*
X9568523Y25651148D01*
X8121605Y27098066D01*
X8087579Y27160378D01*
X8084700Y27187161D01*
X8084700Y28076976D01*
X8070894Y28128500D01*
X8044853Y28225686D01*
X7967876Y28359014D01*
X7859014Y28467876D01*
X6316192Y30010698D01*
X6282166Y30073010D01*
X6280838Y30119495D01*
X6311500Y30313084D01*
X6311500Y30526916D01*
X6278049Y30738116D01*
X6211972Y30941483D01*
X6114894Y31132009D01*
X5989206Y31305004D01*
X5989203Y31305007D01*
X5989201Y31305010D01*
X5838006Y31456205D01*
X5761136Y31512054D01*
X5717782Y31568277D01*
X5711707Y31639013D01*
X5744839Y31701804D01*
X5777989Y31726253D01*
X5919009Y31798106D01*
X6092004Y31923794D01*
X6243206Y32074996D01*
X6368291Y32247161D01*
X6424513Y32290515D01*
X6470227Y32299100D01*
X12514056Y32299100D01*
X12582177Y32279098D01*
G37*
%TD.AperFunction*%
%TA.AperFunction,Conductor*%
G36*
X29886637Y27253020D02*
G01*
X29893435Y27251199D01*
X29893439Y27251197D01*
X30005075Y27236500D01*
X30204924Y27236501D01*
X30316561Y27251197D01*
X30316569Y27251201D01*
X30322386Y27252758D01*
X30387610Y27252759D01*
X30393437Y27251198D01*
X30393439Y27251197D01*
X30505075Y27236500D01*
X30704924Y27236501D01*
X30816561Y27251197D01*
X30816569Y27251201D01*
X30822386Y27252758D01*
X30887610Y27252759D01*
X30893437Y27251198D01*
X30893439Y27251197D01*
X31005075Y27236500D01*
X31204924Y27236501D01*
X31316561Y27251197D01*
X31316569Y27251201D01*
X31322386Y27252758D01*
X31387610Y27252759D01*
X31393437Y27251198D01*
X31393439Y27251197D01*
X31505075Y27236500D01*
X31704924Y27236501D01*
X31816561Y27251197D01*
X31816569Y27251201D01*
X31822386Y27252758D01*
X31887610Y27252759D01*
X31893437Y27251198D01*
X31893439Y27251197D01*
X32005075Y27236500D01*
X32204924Y27236501D01*
X32205134Y27236529D01*
X32205196Y27236519D01*
X32209047Y27236771D01*
X32209103Y27235911D01*
X32275284Y27225607D01*
X32328394Y27178492D01*
X32347600Y27110142D01*
X32346535Y27095195D01*
X32346501Y27094941D01*
X32346500Y27094918D01*
X32346500Y26895077D01*
X32346501Y26895068D01*
X32361196Y26783443D01*
X32362759Y26777612D01*
X32362759Y26712392D01*
X32361197Y26706564D01*
X32346500Y26594927D01*
X32346500Y26395077D01*
X32346501Y26395068D01*
X32361196Y26283443D01*
X32362759Y26277612D01*
X32362759Y26212392D01*
X32361197Y26206564D01*
X32346500Y26094927D01*
X32346500Y25895077D01*
X32346501Y25895068D01*
X32361196Y25783443D01*
X32362759Y25777612D01*
X32362759Y25712392D01*
X32361197Y25706564D01*
X32346500Y25594927D01*
X32346500Y25395077D01*
X32346501Y25395068D01*
X32361196Y25283443D01*
X32362759Y25277612D01*
X32362759Y25212392D01*
X32361197Y25206564D01*
X32346500Y25094927D01*
X32346500Y24895077D01*
X32346501Y24895068D01*
X32361196Y24783443D01*
X32362759Y24777612D01*
X32362759Y24712392D01*
X32361197Y24706564D01*
X32346500Y24594927D01*
X32346500Y24395077D01*
X32346501Y24395073D01*
X32346532Y24394839D01*
X32346521Y24394770D01*
X32346771Y24390953D01*
X32345917Y24390898D01*
X32335594Y24324691D01*
X32288466Y24271591D01*
X32220113Y24252400D01*
X32205190Y24253466D01*
X32204945Y24253499D01*
X32204927Y24253500D01*
X32204925Y24253500D01*
X32204917Y24253500D01*
X32005076Y24253500D01*
X32005067Y24253499D01*
X31893437Y24238803D01*
X31887609Y24237241D01*
X31822389Y24237241D01*
X31816558Y24238804D01*
X31756870Y24246662D01*
X31704925Y24253500D01*
X31704921Y24253500D01*
X31505076Y24253500D01*
X31505067Y24253499D01*
X31393437Y24238803D01*
X31387609Y24237241D01*
X31322389Y24237241D01*
X31316558Y24238804D01*
X31256870Y24246662D01*
X31204925Y24253500D01*
X31204921Y24253500D01*
X31005076Y24253500D01*
X31005067Y24253499D01*
X30893437Y24238803D01*
X30887609Y24237241D01*
X30822389Y24237241D01*
X30816558Y24238804D01*
X30756870Y24246662D01*
X30704925Y24253500D01*
X30704921Y24253500D01*
X30505076Y24253500D01*
X30505067Y24253499D01*
X30393437Y24238803D01*
X30387609Y24237241D01*
X30322389Y24237241D01*
X30316558Y24238804D01*
X30256870Y24246662D01*
X30204925Y24253500D01*
X30204921Y24253500D01*
X30005076Y24253500D01*
X30005067Y24253499D01*
X29893437Y24238803D01*
X29887609Y24237241D01*
X29822389Y24237241D01*
X29816558Y24238804D01*
X29756870Y24246662D01*
X29704925Y24253500D01*
X29704921Y24253500D01*
X29505076Y24253500D01*
X29505064Y24253499D01*
X29504835Y24253468D01*
X29504766Y24253479D01*
X29500953Y24253229D01*
X29500897Y24254083D01*
X29434686Y24264408D01*
X29381588Y24311537D01*
X29362399Y24379891D01*
X29363467Y24394825D01*
X29363500Y24395075D01*
X29363499Y24594924D01*
X29348803Y24706561D01*
X29348801Y24706565D01*
X29347241Y24712389D01*
X29347242Y24777613D01*
X29348800Y24783433D01*
X29348803Y24783439D01*
X29363500Y24895075D01*
X29363499Y25094924D01*
X29348803Y25206561D01*
X29348801Y25206565D01*
X29347241Y25212389D01*
X29347242Y25277613D01*
X29348800Y25283433D01*
X29348803Y25283439D01*
X29363500Y25395075D01*
X29363499Y25594924D01*
X29348803Y25706561D01*
X29348801Y25706565D01*
X29347241Y25712389D01*
X29347242Y25777613D01*
X29348800Y25783433D01*
X29348803Y25783439D01*
X29363500Y25895075D01*
X29363499Y26094924D01*
X29348803Y26206561D01*
X29348801Y26206565D01*
X29347241Y26212389D01*
X29347242Y26277613D01*
X29348800Y26283433D01*
X29348803Y26283439D01*
X29363500Y26395075D01*
X29363499Y26594924D01*
X29359960Y26621804D01*
X29356741Y26646257D01*
X29348803Y26706561D01*
X29348801Y26706565D01*
X29347241Y26712389D01*
X29347242Y26777613D01*
X29348800Y26783433D01*
X29348803Y26783439D01*
X29363500Y26895075D01*
X29363499Y27094924D01*
X29363401Y27095668D01*
X29363435Y27095890D01*
X29363229Y27099047D01*
X29363935Y27099094D01*
X29374335Y27165816D01*
X29421459Y27218919D01*
X29489811Y27238114D01*
X29504773Y27237044D01*
X29505101Y27237001D01*
X29505113Y27237000D01*
X29704887Y27237000D01*
X29704896Y27237001D01*
X29816433Y27251685D01*
X29821414Y27253019D01*
X29837707Y27253020D01*
X29851027Y27257277D01*
X29886637Y27253020D01*
G37*
%TD.AperFunction*%
%TA.AperFunction,Conductor*%
G36*
X41329693Y36859979D02*
G01*
X41386528Y36817432D01*
X41411339Y36750912D01*
X41411660Y36741923D01*
X41411660Y32399239D01*
X41391658Y32331118D01*
X41374755Y32310144D01*
X36186217Y27121605D01*
X36123905Y27087579D01*
X36097122Y27084700D01*
X34710700Y27084700D01*
X34642579Y27104702D01*
X34596086Y27158358D01*
X34584700Y27210700D01*
X34584700Y27566706D01*
X34604702Y27634827D01*
X34658358Y27681320D01*
X34728632Y27691424D01*
X34780698Y27671473D01*
X34802727Y27656754D01*
X34955360Y27593531D01*
X35117395Y27561300D01*
X35117396Y27561300D01*
X35282604Y27561300D01*
X35282605Y27561300D01*
X35444640Y27593531D01*
X35597273Y27656754D01*
X35734640Y27748539D01*
X35851461Y27865360D01*
X35943246Y28002727D01*
X36006469Y28155360D01*
X36038700Y28317395D01*
X36038700Y28482605D01*
X36006469Y28644640D01*
X35943246Y28797273D01*
X35918905Y28833702D01*
X35897691Y28901453D01*
X35916474Y28969920D01*
X35969291Y29017363D01*
X36039373Y29028720D01*
X36089818Y29010943D01*
X36138115Y28981153D01*
X36300758Y28927258D01*
X36300770Y28927256D01*
X36401147Y28917001D01*
X36401147Y28917000D01*
X36421000Y28917000D01*
X36929000Y28917000D01*
X36948853Y28917000D01*
X36948852Y28917001D01*
X37049229Y28927256D01*
X37049241Y28927258D01*
X37211884Y28981153D01*
X37357728Y29071110D01*
X37357734Y29071115D01*
X37478885Y29192266D01*
X37478890Y29192272D01*
X37568847Y29338116D01*
X37622742Y29500759D01*
X37622744Y29500771D01*
X37632999Y29601148D01*
X37633000Y29601148D01*
X37633000Y29646000D01*
X36929000Y29646000D01*
X36929000Y28917000D01*
X36421000Y28917000D01*
X36421000Y30154000D01*
X36929000Y30154000D01*
X37633000Y30154000D01*
X37633000Y30198853D01*
X37622744Y30299230D01*
X37622742Y30299242D01*
X37568847Y30461885D01*
X37478890Y30607729D01*
X37478885Y30607735D01*
X37375715Y30710905D01*
X37341689Y30773217D01*
X37346754Y30844032D01*
X37375715Y30889095D01*
X37478885Y30992266D01*
X37478890Y30992272D01*
X37568847Y31138116D01*
X37622742Y31300759D01*
X37622744Y31300771D01*
X37632999Y31401148D01*
X37633000Y31401148D01*
X37633000Y31446000D01*
X36929000Y31446000D01*
X36929000Y30154000D01*
X36421000Y30154000D01*
X36421000Y31574000D01*
X36441002Y31642121D01*
X36494658Y31688614D01*
X36547000Y31700000D01*
X36675000Y31700000D01*
X36675000Y31828000D01*
X36695002Y31896121D01*
X36748658Y31942614D01*
X36801000Y31954000D01*
X37633000Y31954000D01*
X37633000Y31998853D01*
X37622744Y32099230D01*
X37622742Y32099242D01*
X37568847Y32261885D01*
X37478890Y32407729D01*
X37478885Y32407735D01*
X37357734Y32528886D01*
X37357728Y32528891D01*
X37206809Y32621979D01*
X37159331Y32674765D01*
X37147928Y32744840D01*
X37176221Y32809956D01*
X37183840Y32818293D01*
X41196565Y36831019D01*
X41258877Y36865044D01*
X41329693Y36859979D01*
G37*
%TD.AperFunction*%
%TA.AperFunction,Conductor*%
G36*
X18372830Y30919098D02*
G01*
X18393804Y30902195D01*
X18416999Y30879000D01*
X20383000Y30879000D01*
X20406195Y30902195D01*
X20468507Y30936221D01*
X20495290Y30939100D01*
X21335300Y30939100D01*
X21337690Y30938399D01*
X21340104Y30939008D01*
X21371571Y30928450D01*
X21403421Y30919098D01*
X21405051Y30917217D01*
X21407413Y30916424D01*
X21428177Y30890527D01*
X21449914Y30865442D01*
X21450751Y30862374D01*
X21451826Y30861034D01*
X21453683Y30851636D01*
X21460611Y30826263D01*
X21461300Y30819704D01*
X21461300Y30717395D01*
X21484074Y30602904D01*
X21484677Y30597163D01*
X21479286Y30567696D01*
X21476617Y30537868D01*
X21472970Y30533175D01*
X21471901Y30527326D01*
X21451434Y30505451D01*
X21433063Y30481801D01*
X21427457Y30479824D01*
X21423396Y30475482D01*
X21415481Y30473483D01*
X21400000Y30458001D01*
X21400000Y29826000D01*
X21397408Y29817175D01*
X21398718Y29808068D01*
X21387562Y29783643D01*
X21379998Y29757879D01*
X21373044Y29751855D01*
X21369224Y29743488D01*
X21346638Y29728974D01*
X21326342Y29711386D01*
X21315655Y29709062D01*
X21309498Y29705104D01*
X21274000Y29700000D01*
X21026000Y29700000D01*
X20957879Y29720002D01*
X20911386Y29773658D01*
X20900000Y29826000D01*
X20900000Y30458000D01*
X20701402Y30458000D01*
X20640905Y30451495D01*
X20494032Y30396715D01*
X20474025Y30380591D01*
X20425807Y30371000D01*
X18417001Y30371000D01*
X18417001Y30367779D01*
X18423481Y30296447D01*
X18474633Y30132294D01*
X18563578Y29985160D01*
X18563586Y29985150D01*
X18659287Y29889449D01*
X18693313Y29827137D01*
X18688248Y29756322D01*
X18659287Y29711259D01*
X18563188Y29615161D01*
X18563184Y29615156D01*
X18507479Y29523008D01*
X18455120Y29475060D01*
X18385150Y29463030D01*
X18319784Y29490739D01*
X18310556Y29499098D01*
X17897805Y29911849D01*
X17863779Y29974161D01*
X17860900Y30000944D01*
X17860900Y30813100D01*
X17880902Y30881221D01*
X17934558Y30927714D01*
X17986900Y30939100D01*
X18304709Y30939100D01*
X18372830Y30919098D01*
G37*
%TD.AperFunction*%
%TA.AperFunction,Conductor*%
G36*
X46939894Y60179098D02*
G01*
X46973709Y60147161D01*
X47098794Y59974996D01*
X47098796Y59974994D01*
X47098798Y59974991D01*
X47229104Y59844685D01*
X47263130Y59782373D01*
X47258065Y59711558D01*
X47215518Y59654722D01*
X47206156Y59648349D01*
X47061347Y59559030D01*
X47061341Y59559025D01*
X46935975Y59433659D01*
X46935970Y59433653D01*
X46842885Y59282738D01*
X46787113Y59114428D01*
X46787112Y59114421D01*
X46781337Y59057893D01*
X46754515Y58992158D01*
X46696412Y58951360D01*
X46655990Y58944700D01*
X43983023Y58944700D01*
X43834314Y58904853D01*
X43788763Y58878554D01*
X43788762Y58878555D01*
X43700988Y58827879D01*
X43700978Y58827871D01*
X37194715Y52321605D01*
X37132403Y52287579D01*
X37105620Y52284700D01*
X34523023Y52284700D01*
X34460172Y52267859D01*
X34374315Y52244854D01*
X34374308Y52244851D01*
X34352202Y52232087D01*
X34240989Y52167879D01*
X34240983Y52167874D01*
X34057067Y51983957D01*
X33519713Y51446604D01*
X33457403Y51412580D01*
X33430620Y51409700D01*
X32188396Y51409700D01*
X32120275Y51429702D01*
X32099301Y51446605D01*
X32091368Y51454538D01*
X32091366Y51454539D01*
X32091363Y51454542D01*
X31998430Y51509502D01*
X31953594Y51536018D01*
X31817336Y51575605D01*
X31799889Y51580674D01*
X31799888Y51580675D01*
X31799887Y51580675D01*
X31767045Y51583259D01*
X31763979Y51583500D01*
X31763978Y51583500D01*
X31168691Y51583500D01*
X31145096Y51585729D01*
X30927405Y51627229D01*
X30905982Y51638219D01*
X30882879Y51645002D01*
X30874973Y51654126D01*
X30864235Y51659634D01*
X30852155Y51680460D01*
X30836386Y51698658D01*
X30833258Y51713038D01*
X30828612Y51721047D01*
X30829115Y51732082D01*
X30825000Y51751000D01*
X30825000Y51875000D01*
X31325000Y51875000D01*
X32322858Y51875000D01*
X32285555Y52003395D01*
X32204143Y52141054D01*
X32204140Y52141058D01*
X32091057Y52254141D01*
X32091053Y52254144D01*
X31953395Y52335555D01*
X31799808Y52380177D01*
X31763935Y52383000D01*
X31325000Y52383000D01*
X31325000Y51875000D01*
X30825000Y51875000D01*
X30825000Y52383000D01*
X30584499Y52383000D01*
X30516378Y52403002D01*
X30469885Y52456658D01*
X30458499Y52508997D01*
X30458499Y53688978D01*
X30455674Y53724889D01*
X30411018Y53878593D01*
X30403446Y53891397D01*
X30399025Y53907556D01*
X30391004Y53920037D01*
X30385900Y53955535D01*
X30385900Y54100164D01*
X30405902Y54168285D01*
X30411909Y54176538D01*
X30413352Y54178699D01*
X30413355Y54178701D01*
X30485682Y54286946D01*
X30516488Y54361319D01*
X30561037Y54416599D01*
X30628400Y54439020D01*
X30632897Y54439100D01*
X30749892Y54439100D01*
X30749893Y54439100D01*
X30877577Y54464498D01*
X30997854Y54514318D01*
X31106099Y54586645D01*
X34360923Y57841472D01*
X34360928Y57841475D01*
X34371297Y57851845D01*
X34371299Y57851845D01*
X34463355Y57943901D01*
X34535682Y58052146D01*
X34585502Y58172423D01*
X34585944Y58174650D01*
X34586498Y58175709D01*
X34587299Y58178347D01*
X34587799Y58178196D01*
X34618848Y58237560D01*
X34620386Y58239127D01*
X34624453Y58243193D01*
X34688767Y58351942D01*
X34709143Y58386395D01*
X34709143Y58386397D01*
X34709145Y58386399D01*
X34755562Y58546169D01*
X34758499Y58583489D01*
X34758500Y58583489D01*
X34758500Y59235338D01*
X34778502Y59303459D01*
X34832158Y59349952D01*
X34902432Y59360056D01*
X34967012Y59330562D01*
X34973595Y59324433D01*
X35084838Y59213190D01*
X35084842Y59213187D01*
X35084845Y59213184D01*
X35084848Y59213182D01*
X35084851Y59213180D01*
X35154483Y59171087D01*
X35202432Y59118729D01*
X35215300Y59063258D01*
X35215300Y58351942D01*
X35195298Y58283821D01*
X35141642Y58237328D01*
X35113297Y58229552D01*
X35113474Y58228803D01*
X35105795Y58226989D01*
X34968797Y58175890D01*
X34968792Y58175888D01*
X34851738Y58088262D01*
X34785813Y58000197D01*
X34785809Y58000190D01*
X34764111Y57971204D01*
X34741040Y57909350D01*
X34741035Y57909339D01*
X34713010Y57834200D01*
X34713009Y57834197D01*
X34706500Y57773650D01*
X34706500Y56406351D01*
X34713009Y56345804D01*
X34713011Y56345796D01*
X34764110Y56208798D01*
X34764112Y56208793D01*
X34851738Y56091739D01*
X34968792Y56004113D01*
X34968794Y56004112D01*
X34968796Y56004111D01*
X35013350Y55987493D01*
X35105795Y55953012D01*
X35105803Y55953010D01*
X35166350Y55946501D01*
X35166355Y55946501D01*
X35166362Y55946500D01*
X35166368Y55946500D01*
X36023632Y55946500D01*
X36023638Y55946500D01*
X36023645Y55946501D01*
X36023649Y55946501D01*
X36084196Y55953010D01*
X36084199Y55953011D01*
X36084201Y55953011D01*
X36185967Y55990968D01*
X36256782Y55996034D01*
X36274033Y55990968D01*
X36375795Y55953012D01*
X36375803Y55953010D01*
X36436350Y55946501D01*
X36436355Y55946501D01*
X36436362Y55946500D01*
X36436368Y55946500D01*
X37293632Y55946500D01*
X37293638Y55946500D01*
X37293645Y55946501D01*
X37293649Y55946501D01*
X37354196Y55953010D01*
X37354199Y55953011D01*
X37354201Y55953011D01*
X37455967Y55990968D01*
X37526782Y55996034D01*
X37544033Y55990968D01*
X37645795Y55953012D01*
X37645803Y55953010D01*
X37706350Y55946501D01*
X37706355Y55946501D01*
X37706362Y55946500D01*
X37706368Y55946500D01*
X38563632Y55946500D01*
X38563638Y55946500D01*
X38563645Y55946501D01*
X38563649Y55946501D01*
X38624196Y55953010D01*
X38624199Y55953011D01*
X38624201Y55953011D01*
X38725967Y55990968D01*
X38796782Y55996034D01*
X38814033Y55990968D01*
X38915795Y55953012D01*
X38915803Y55953010D01*
X38976350Y55946501D01*
X38976355Y55946501D01*
X38976362Y55946500D01*
X38976368Y55946500D01*
X39833632Y55946500D01*
X39833638Y55946500D01*
X39833645Y55946501D01*
X39833649Y55946501D01*
X39894196Y55953010D01*
X39894199Y55953011D01*
X39894201Y55953011D01*
X40031204Y56004111D01*
X40048640Y56017163D01*
X40148261Y56091739D01*
X40235887Y56208793D01*
X40235887Y56208794D01*
X40235889Y56208796D01*
X40286989Y56345799D01*
X40288573Y56360525D01*
X40293499Y56406351D01*
X40293500Y56406368D01*
X40293500Y57099420D01*
X40313502Y57167541D01*
X40330400Y57188511D01*
X40667876Y57525986D01*
X40744854Y57659315D01*
X40784700Y57808023D01*
X40784700Y57961977D01*
X40784700Y58235300D01*
X40804702Y58303421D01*
X40858358Y58349914D01*
X40910700Y58361300D01*
X40982604Y58361300D01*
X40982605Y58361300D01*
X41144640Y58393531D01*
X41297273Y58456754D01*
X41434640Y58548539D01*
X41551461Y58665360D01*
X41643246Y58802727D01*
X41706469Y58955360D01*
X41727929Y59063248D01*
X41760835Y59126156D01*
X41762297Y59127645D01*
X42796851Y60162198D01*
X42859161Y60196221D01*
X42885944Y60199100D01*
X46871773Y60199100D01*
X46939894Y60179098D01*
G37*
%TD.AperFunction*%
%TA.AperFunction,Conductor*%
G36*
X16301217Y56722419D02*
G01*
X16304970Y56720007D01*
X16388507Y56664190D01*
X16573498Y56587564D01*
X16769884Y56548500D01*
X16970112Y56548500D01*
X16970116Y56548500D01*
X16978705Y56550209D01*
X16986739Y56549491D01*
X16994300Y56552310D01*
X17021595Y56546373D01*
X17049416Y56543884D01*
X17057555Y56538550D01*
X17063674Y56537219D01*
X17092384Y56515726D01*
X17138725Y56469385D01*
X17247587Y56360523D01*
X17247588Y56360522D01*
X17247590Y56360521D01*
X17273095Y56345796D01*
X17380915Y56283546D01*
X17529624Y56243699D01*
X19977221Y56243699D01*
X20045342Y56223697D01*
X20066316Y56206794D01*
X23304595Y52968515D01*
X23338621Y52906203D01*
X23341500Y52879420D01*
X23341500Y52509500D01*
X23321498Y52441379D01*
X23267842Y52394886D01*
X23215500Y52383500D01*
X22036021Y52383500D01*
X22000112Y52380675D01*
X21846406Y52336018D01*
X21804139Y52311021D01*
X21708637Y52254542D01*
X21708635Y52254541D01*
X21708633Y52254539D01*
X21708631Y52254538D01*
X21595462Y52141369D01*
X21595461Y52141367D01*
X21595459Y52141365D01*
X21595458Y52141363D01*
X21567014Y52093268D01*
X21513982Y52003595D01*
X21469325Y51849887D01*
X21466500Y51813979D01*
X21466500Y51710700D01*
X21463908Y51701875D01*
X21465218Y51692768D01*
X21454062Y51668343D01*
X21446498Y51642579D01*
X21439544Y51636555D01*
X21435724Y51628188D01*
X21413138Y51613674D01*
X21392842Y51596086D01*
X21382155Y51593762D01*
X21375998Y51589804D01*
X21340500Y51584700D01*
X21128448Y51584700D01*
X21060327Y51604702D01*
X21021208Y51644553D01*
X20980603Y51710382D01*
X20980600Y51710387D01*
X20980597Y51710390D01*
X20980594Y51710394D01*
X20885221Y51805767D01*
X20851195Y51868079D01*
X20856260Y51938894D01*
X20885221Y51983957D01*
X20986413Y52085150D01*
X20986421Y52085160D01*
X21075366Y52232294D01*
X21126518Y52396447D01*
X21126518Y52396448D01*
X21133000Y52467778D01*
X21133000Y52546000D01*
X20351000Y52546000D01*
X20282879Y52566002D01*
X20236386Y52619658D01*
X20225000Y52672000D01*
X20225000Y52800000D01*
X20097000Y52800000D01*
X20028879Y52820002D01*
X19982386Y52873658D01*
X19971000Y52926000D01*
X19971000Y53054000D01*
X20479000Y53054000D01*
X21132999Y53054000D01*
X21132999Y53132222D01*
X21126518Y53203554D01*
X21075366Y53367707D01*
X20986421Y53514841D01*
X20986413Y53514851D01*
X20864850Y53636414D01*
X20864840Y53636422D01*
X20717706Y53725367D01*
X20553552Y53776519D01*
X20482223Y53783000D01*
X20479000Y53783000D01*
X20479000Y53054000D01*
X19971000Y53054000D01*
X19971000Y53783000D01*
X19967768Y53782999D01*
X19896446Y53776519D01*
X19732293Y53725367D01*
X19585159Y53636422D01*
X19585149Y53636414D01*
X19489449Y53540713D01*
X19427137Y53506687D01*
X19356322Y53511752D01*
X19311259Y53540713D01*
X19215160Y53636812D01*
X19215155Y53636816D01*
X19067913Y53725827D01*
X19067912Y53725828D01*
X19067911Y53725828D01*
X19067906Y53725830D01*
X18903646Y53777014D01*
X18851723Y53781732D01*
X18832265Y53783500D01*
X18832262Y53783500D01*
X18317738Y53783500D01*
X18246353Y53777014D01*
X18246352Y53777014D01*
X18082093Y53725830D01*
X18082088Y53725828D01*
X17934844Y53636816D01*
X17934839Y53636812D01*
X17813188Y53515161D01*
X17813184Y53515156D01*
X17724172Y53367912D01*
X17724170Y53367907D01*
X17672986Y53203647D01*
X17666500Y53132263D01*
X17666500Y52467739D01*
X17672986Y52396354D01*
X17672986Y52396353D01*
X17724170Y52232094D01*
X17724172Y52232089D01*
X17724173Y52232087D01*
X17812994Y52085160D01*
X17813184Y52084845D01*
X17813188Y52084840D01*
X17914425Y51983603D01*
X17948451Y51921291D01*
X17943386Y51850476D01*
X17914425Y51805413D01*
X17819405Y51710394D01*
X17819400Y51710388D01*
X17730149Y51565690D01*
X17727946Y51560964D01*
X17681024Y51507683D01*
X17612746Y51488227D01*
X17565540Y51497813D01*
X17544647Y51506467D01*
X17544640Y51506469D01*
X17382607Y51538700D01*
X17382605Y51538700D01*
X17340381Y51538700D01*
X17272260Y51558702D01*
X17251286Y51575605D01*
X13681605Y55145286D01*
X13647579Y55207598D01*
X13644700Y55234381D01*
X13644700Y56564641D01*
X13664702Y56632762D01*
X13718358Y56679255D01*
X13788632Y56689359D01*
X13840704Y56669404D01*
X13848507Y56664190D01*
X14033498Y56587564D01*
X14229884Y56548500D01*
X14430116Y56548500D01*
X14626502Y56587564D01*
X14811493Y56664190D01*
X14895000Y56719988D01*
X14962750Y56741202D01*
X15031217Y56722419D01*
X15034970Y56720007D01*
X15118507Y56664190D01*
X15303498Y56587564D01*
X15499884Y56548500D01*
X15700116Y56548500D01*
X15896502Y56587564D01*
X16081493Y56664190D01*
X16165000Y56719988D01*
X16232750Y56741202D01*
X16301217Y56722419D01*
G37*
%TD.AperFunction*%
%TA.AperFunction,Conductor*%
G36*
X33472721Y68151618D02*
G01*
X33519214Y68097962D01*
X33530600Y68045620D01*
X33530600Y67347608D01*
X33510598Y67279487D01*
X33470747Y67240368D01*
X33404918Y67199764D01*
X33404906Y67199755D01*
X33284705Y67079554D01*
X33284700Y67079548D01*
X33195451Y66934853D01*
X33141975Y66773470D01*
X33131800Y66673880D01*
X33131800Y66139450D01*
X33141975Y66039851D01*
X33141976Y66039846D01*
X33177163Y65933658D01*
X33195451Y65878468D01*
X33284700Y65733773D01*
X33284705Y65733767D01*
X33310217Y65708255D01*
X33344243Y65645943D01*
X33339178Y65575128D01*
X33310217Y65530065D01*
X33284705Y65504554D01*
X33284700Y65504548D01*
X33195451Y65359853D01*
X33141975Y65198470D01*
X33131800Y65098880D01*
X33131800Y64564450D01*
X33141908Y64465511D01*
X33141976Y64464846D01*
X33195451Y64303468D01*
X33284700Y64158773D01*
X33284705Y64158767D01*
X33404906Y64038566D01*
X33404912Y64038561D01*
X33404913Y64038560D01*
X33549608Y63949311D01*
X33710986Y63895836D01*
X33810589Y63885660D01*
X34420010Y63885661D01*
X34519614Y63895836D01*
X34680992Y63949311D01*
X34825687Y64038560D01*
X34846080Y64058953D01*
X34870713Y64083585D01*
X34933025Y64117611D01*
X35003840Y64112546D01*
X35048903Y64083585D01*
X35100139Y64032349D01*
X35100144Y64032345D01*
X35100145Y64032344D01*
X35247387Y63943333D01*
X35411651Y63892147D01*
X35483035Y63885660D01*
X36147564Y63885661D01*
X36218949Y63892147D01*
X36383213Y63943333D01*
X36530455Y64032344D01*
X36652116Y64154005D01*
X36741127Y64301247D01*
X36792313Y64465511D01*
X36798800Y64536895D01*
X36798799Y65051424D01*
X36792313Y65122809D01*
X36748334Y65263945D01*
X36741129Y65287067D01*
X36741127Y65287072D01*
X36741127Y65287073D01*
X36652116Y65434315D01*
X36652115Y65434316D01*
X36652111Y65434321D01*
X36556013Y65530419D01*
X36521987Y65592731D01*
X36527052Y65663546D01*
X36556013Y65708609D01*
X36651713Y65804310D01*
X36651721Y65804320D01*
X36740666Y65951454D01*
X36791818Y66115607D01*
X36791818Y66115608D01*
X36798300Y66186938D01*
X36798300Y66190160D01*
X35941300Y66190160D01*
X35873179Y66210162D01*
X35826686Y66263818D01*
X35815300Y66316160D01*
X35815300Y66444160D01*
X35687300Y66444160D01*
X35619179Y66464162D01*
X35572686Y66517818D01*
X35561300Y66570160D01*
X35561300Y66698160D01*
X36069300Y66698160D01*
X36798299Y66698160D01*
X36798299Y66701382D01*
X36791818Y66772714D01*
X36740666Y66936867D01*
X36651721Y67084001D01*
X36651713Y67084011D01*
X36530150Y67205574D01*
X36530140Y67205582D01*
X36383006Y67294527D01*
X36218852Y67345679D01*
X36147523Y67352160D01*
X36069300Y67352160D01*
X36069300Y66698160D01*
X35561300Y66698160D01*
X35561300Y67352161D01*
X35483078Y67352160D01*
X35411746Y67345679D01*
X35247593Y67294527D01*
X35100459Y67205582D01*
X35100449Y67205574D01*
X35049257Y67154381D01*
X35048255Y67153835D01*
X35047690Y67152840D01*
X35017160Y67136855D01*
X34986945Y67120355D01*
X34985805Y67120437D01*
X34984794Y67119907D01*
X34950498Y67122962D01*
X34916130Y67125420D01*
X34914842Y67126138D01*
X34914077Y67126206D01*
X34910407Y67128610D01*
X34882905Y67143940D01*
X34876659Y67148788D01*
X34825687Y67199760D01*
X34754090Y67243922D01*
X34748743Y67248072D01*
X34731764Y67271597D01*
X34712375Y67293154D01*
X34710614Y67300903D01*
X34707194Y67305641D01*
X34706463Y67319167D01*
X34700000Y67347608D01*
X34700000Y68045620D01*
X34720002Y68113741D01*
X34773658Y68160234D01*
X34826000Y68171620D01*
X36265500Y68171620D01*
X36333621Y68151618D01*
X36380114Y68097962D01*
X36391500Y68045620D01*
X36391500Y67976120D01*
X36391499Y67976120D01*
X36401763Y67875667D01*
X36401764Y67875664D01*
X36455698Y67712899D01*
X36540002Y67576222D01*
X36545715Y67566960D01*
X36545720Y67566954D01*
X36666953Y67445721D01*
X36666959Y67445716D01*
X36666960Y67445715D01*
X36812899Y67355698D01*
X36975664Y67301764D01*
X36995756Y67299712D01*
X37076120Y67291500D01*
X37199904Y67291500D01*
X37268025Y67271498D01*
X37314518Y67217842D01*
X37324622Y67147568D01*
X37295128Y67082988D01*
X37288999Y67076405D01*
X37215660Y67003067D01*
X37215655Y67003061D01*
X37125638Y66857121D01*
X37071703Y66694354D01*
X37061440Y66593901D01*
X37061440Y66046140D01*
X37061439Y66046140D01*
X37071703Y65945687D01*
X37071704Y65945684D01*
X37125638Y65782919D01*
X37215655Y65636980D01*
X37218868Y65633767D01*
X37252896Y65571459D01*
X37247835Y65500643D01*
X37218878Y65455578D01*
X37216052Y65452753D01*
X37216049Y65452749D01*
X37126092Y65306905D01*
X37072197Y65144262D01*
X37072195Y65144250D01*
X37061940Y65043873D01*
X37061940Y65024020D01*
X37918940Y65024020D01*
X37987061Y65004018D01*
X38033554Y64950362D01*
X38044940Y64898020D01*
X38044940Y64770020D01*
X38172940Y64770020D01*
X38241061Y64750018D01*
X38287554Y64696362D01*
X38298940Y64644020D01*
X38298940Y63812020D01*
X38343793Y63812020D01*
X38343792Y63812021D01*
X38444169Y63822276D01*
X38444181Y63822278D01*
X38606824Y63876173D01*
X38752668Y63966130D01*
X38752674Y63966135D01*
X38873825Y64087286D01*
X38873830Y64087292D01*
X38928427Y64175807D01*
X38981213Y64223285D01*
X39035668Y64235660D01*
X39611300Y64235660D01*
X39611300Y65149153D01*
X39451898Y65102842D01*
X39308798Y65018212D01*
X39308796Y65018211D01*
X39243035Y64952449D01*
X39180723Y64918423D01*
X39109908Y64923488D01*
X39053072Y64966035D01*
X39028261Y65032555D01*
X39027940Y65041544D01*
X39027940Y65043873D01*
X39017684Y65144250D01*
X39017682Y65144262D01*
X38963787Y65306905D01*
X38873297Y65453613D01*
X38854560Y65522093D01*
X38875819Y65589831D01*
X38930326Y65635323D01*
X38980538Y65645760D01*
X39913557Y65645760D01*
X39981678Y65625758D01*
X40028171Y65572102D01*
X40034552Y65554916D01*
X40050320Y65500643D01*
X40056156Y65480556D01*
X40140844Y65337357D01*
X40145705Y65331090D01*
X40143284Y65329213D01*
X40170451Y65279462D01*
X40165386Y65208647D01*
X40122983Y65151919D01*
X40119300Y65149154D01*
X40119300Y64107660D01*
X40099298Y64039539D01*
X40045642Y63993046D01*
X39993300Y63981660D01*
X39865300Y63981660D01*
X39865300Y63853660D01*
X39845298Y63785539D01*
X39791642Y63739046D01*
X39739300Y63727660D01*
X39057301Y63727660D01*
X39057301Y63402704D01*
X39060234Y63365410D01*
X39106618Y63205758D01*
X39121356Y63180838D01*
X39138815Y63112022D01*
X39116298Y63044691D01*
X39060953Y63000222D01*
X39012902Y62990700D01*
X38153389Y62990700D01*
X38085268Y63010702D01*
X38038775Y63064358D01*
X38029810Y63092118D01*
X38012162Y63180838D01*
X38006469Y63209460D01*
X37943246Y63362093D01*
X37851461Y63499460D01*
X37851459Y63499462D01*
X37851454Y63499468D01*
X37753997Y63596925D01*
X37719971Y63659237D01*
X37725036Y63730052D01*
X37756743Y63772408D01*
X37754036Y63775115D01*
X37790940Y63812019D01*
X37790940Y64516020D01*
X37061940Y64516020D01*
X37061940Y64496168D01*
X37072195Y64395791D01*
X37072197Y64395779D01*
X37126092Y64233136D01*
X37216049Y64087292D01*
X37216054Y64087286D01*
X37284725Y64018615D01*
X37318751Y63956303D01*
X37313686Y63885488D01*
X37271139Y63828652D01*
X37204619Y63803841D01*
X37195630Y63803520D01*
X37117392Y63803520D01*
X36955358Y63771289D01*
X36955357Y63771288D01*
X36802725Y63708065D01*
X36665358Y63616280D01*
X36665352Y63616275D01*
X36570683Y63521605D01*
X36508371Y63487579D01*
X36481588Y63484700D01*
X32790623Y63484700D01*
X32691483Y63458136D01*
X32641913Y63444853D01*
X32543838Y63388229D01*
X32517480Y63373011D01*
X32513033Y63370444D01*
X32508587Y63367877D01*
X32508583Y63367874D01*
X31748714Y62608006D01*
X31694774Y62576106D01*
X31636399Y62559146D01*
X31636395Y62559144D01*
X31493196Y62474456D01*
X31493189Y62474451D01*
X31375549Y62356811D01*
X31375544Y62356804D01*
X31290854Y62213602D01*
X31272885Y62151748D01*
X31234673Y62091912D01*
X31170177Y62062234D01*
X31151888Y62060900D01*
X31122402Y62060900D01*
X30994722Y62035502D01*
X30994719Y62035501D01*
X30906313Y61998882D01*
X30835723Y61991293D01*
X30772236Y62023073D01*
X30737800Y62077805D01*
X30725366Y62117707D01*
X30636421Y62264841D01*
X30636413Y62264851D01*
X30514850Y62386414D01*
X30514840Y62386422D01*
X30367706Y62475367D01*
X30203552Y62526519D01*
X30132223Y62533000D01*
X30054000Y62533000D01*
X30054000Y61751000D01*
X30033998Y61682879D01*
X29980342Y61636386D01*
X29928000Y61625000D01*
X29800000Y61625000D01*
X29800000Y61497000D01*
X29779998Y61428879D01*
X29726342Y61382386D01*
X29674000Y61371000D01*
X28817001Y61371000D01*
X28817001Y61367779D01*
X28823481Y61296447D01*
X28874633Y61132294D01*
X28963578Y60985160D01*
X28963586Y60985150D01*
X29059287Y60889449D01*
X29093313Y60827137D01*
X29088248Y60756322D01*
X29059287Y60711259D01*
X28963188Y60615161D01*
X28963184Y60615156D01*
X28874172Y60467912D01*
X28874170Y60467907D01*
X28822986Y60303647D01*
X28817933Y60248036D01*
X28816699Y60234449D01*
X28816500Y60232263D01*
X28816500Y59717739D01*
X28822986Y59646354D01*
X28822986Y59646353D01*
X28874170Y59482094D01*
X28874172Y59482089D01*
X28874173Y59482087D01*
X28963184Y59334845D01*
X28963188Y59334840D01*
X29084839Y59213189D01*
X29084844Y59213185D01*
X29084845Y59213184D01*
X29232087Y59124173D01*
X29232091Y59124172D01*
X29232093Y59124171D01*
X29260506Y59115318D01*
X29396351Y59072987D01*
X29467735Y59066500D01*
X30068018Y59066501D01*
X30136139Y59046499D01*
X30182632Y58992843D01*
X30191596Y58965085D01*
X30193529Y58955366D01*
X30193530Y58955362D01*
X30193531Y58955360D01*
X30256754Y58802727D01*
X30340881Y58676822D01*
X30348540Y58665359D01*
X30348545Y58665353D01*
X30465352Y58548546D01*
X30465358Y58548541D01*
X30465360Y58548539D01*
X30602727Y58456754D01*
X30755360Y58393531D01*
X30917395Y58361300D01*
X30917396Y58361300D01*
X31082604Y58361300D01*
X31082605Y58361300D01*
X31194637Y58383585D01*
X31265350Y58377257D01*
X31321417Y58333703D01*
X31327671Y58324146D01*
X31375546Y58243194D01*
X31375549Y58243190D01*
X31493189Y58125550D01*
X31493196Y58125545D01*
X31636394Y58040857D01*
X31636397Y58040857D01*
X31636399Y58040855D01*
X31796169Y57994438D01*
X31833488Y57991501D01*
X31833489Y57991500D01*
X31833498Y57991500D01*
X32266511Y57991500D01*
X32266511Y57991501D01*
X32303831Y57994438D01*
X32312866Y57997063D01*
X32383859Y57996864D01*
X32443477Y57958313D01*
X32472789Y57893650D01*
X32462489Y57823405D01*
X32437117Y57786973D01*
X30700305Y56050161D01*
X30671039Y56034181D01*
X30642344Y56017163D01*
X30640028Y56017247D01*
X30637993Y56016135D01*
X30604709Y56018516D01*
X30571393Y56019713D01*
X30569490Y56021035D01*
X30567178Y56021200D01*
X30540478Y56041188D01*
X30513084Y56060216D01*
X30511507Y56062875D01*
X30510342Y56063747D01*
X30494791Y56091063D01*
X30494281Y56092295D01*
X30484700Y56140488D01*
X30484700Y56476976D01*
X30465535Y56548500D01*
X30444853Y56625686D01*
X30391905Y56717395D01*
X30367876Y56759015D01*
X30364111Y56762780D01*
X30357198Y56774088D01*
X30349629Y56802184D01*
X30339136Y56829331D01*
X30338700Y56839810D01*
X30338700Y56882604D01*
X30338699Y56882608D01*
X30306469Y57044640D01*
X30243246Y57197273D01*
X30151461Y57334640D01*
X30151459Y57334642D01*
X30151454Y57334648D01*
X30034647Y57451455D01*
X30034641Y57451460D01*
X30019822Y57461362D01*
X29897273Y57543246D01*
X29744641Y57606469D01*
X29582607Y57638700D01*
X29582605Y57638700D01*
X29417395Y57638700D01*
X29417392Y57638700D01*
X29255358Y57606469D01*
X29255357Y57606468D01*
X29102725Y57543245D01*
X28965358Y57451460D01*
X28965352Y57451455D01*
X28848545Y57334648D01*
X28848540Y57334642D01*
X28756755Y57197275D01*
X28693532Y57044643D01*
X28693531Y57044642D01*
X28661300Y56882608D01*
X28661300Y56882605D01*
X28661300Y56717395D01*
X28693531Y56555360D01*
X28756754Y56402727D01*
X28794789Y56345804D01*
X28848540Y56265359D01*
X28848545Y56265353D01*
X28965352Y56148546D01*
X28965355Y56148544D01*
X28965360Y56148539D01*
X28986090Y56134688D01*
X29001927Y56115738D01*
X29020872Y56099896D01*
X29024285Y56088986D01*
X29031618Y56080211D01*
X29034695Y56055708D01*
X29042069Y56032137D01*
X29039040Y56021110D01*
X29040465Y56009767D01*
X29029807Y55987493D01*
X29023267Y55963676D01*
X29012780Y55951903D01*
X29009824Y55945724D01*
X29000261Y55936163D01*
X28994004Y55930546D01*
X28991960Y55929285D01*
X28986343Y55923669D01*
X28983820Y55921403D01*
X28954726Y55907494D01*
X28926430Y55892042D01*
X28922931Y55892293D01*
X28919768Y55890780D01*
X28887783Y55894807D01*
X28855615Y55897107D01*
X28852231Y55899282D01*
X28849327Y55899647D01*
X28841570Y55906134D01*
X28810552Y55926068D01*
X28807734Y55928886D01*
X28807728Y55928891D01*
X28661884Y56018848D01*
X28499241Y56072743D01*
X28499229Y56072745D01*
X28398852Y56083000D01*
X28379000Y56083000D01*
X28379000Y55226000D01*
X28358998Y55157879D01*
X28305342Y55111386D01*
X28253000Y55100000D01*
X27997000Y55100000D01*
X27928879Y55120002D01*
X27882386Y55173658D01*
X27871000Y55226000D01*
X27871000Y56083000D01*
X27851147Y56083000D01*
X27750770Y56072745D01*
X27750758Y56072743D01*
X27588115Y56018848D01*
X27442271Y55928891D01*
X27442265Y55928886D01*
X27321114Y55807735D01*
X27321107Y55807727D01*
X27317939Y55802589D01*
X27265151Y55755112D01*
X27195076Y55743711D01*
X27129961Y55772006D01*
X27090481Y55831013D01*
X27084700Y55868739D01*
X27084700Y61882223D01*
X28817000Y61882223D01*
X28817000Y61879000D01*
X29546000Y61879000D01*
X29546000Y62533001D01*
X29467778Y62533000D01*
X29396446Y62526519D01*
X29232293Y62475367D01*
X29085159Y62386422D01*
X29085149Y62386414D01*
X28963586Y62264851D01*
X28963578Y62264841D01*
X28874633Y62117707D01*
X28823481Y61953554D01*
X28823481Y61953553D01*
X28817000Y61882223D01*
X27084700Y61882223D01*
X27084700Y63246833D01*
X27104702Y63314954D01*
X27158358Y63361447D01*
X27224168Y63372111D01*
X27276350Y63366501D01*
X27276355Y63366501D01*
X27276362Y63366500D01*
X27276368Y63366500D01*
X27873632Y63366500D01*
X27873638Y63366500D01*
X27873645Y63366501D01*
X27873649Y63366501D01*
X27934196Y63373010D01*
X27934199Y63373011D01*
X27934201Y63373011D01*
X27936829Y63373991D01*
X27953052Y63380042D01*
X28071204Y63424111D01*
X28071799Y63424556D01*
X28188261Y63511739D01*
X28275887Y63628793D01*
X28275887Y63628794D01*
X28275889Y63628796D01*
X28326989Y63765799D01*
X28327580Y63771288D01*
X28333499Y63826351D01*
X28333500Y63826368D01*
X28333500Y64076403D01*
X28917000Y64076403D01*
X28923505Y64015907D01*
X28974555Y63879036D01*
X28974555Y63879035D01*
X29062095Y63762096D01*
X29179034Y63674556D01*
X29315906Y63623506D01*
X29376402Y63617001D01*
X29376415Y63617000D01*
X30171000Y63617000D01*
X30679000Y63617000D01*
X31473585Y63617000D01*
X31473597Y63617001D01*
X31534093Y63623506D01*
X31670964Y63674556D01*
X31670965Y63674556D01*
X31787904Y63762096D01*
X31875444Y63879035D01*
X31875444Y63879036D01*
X31926494Y64015907D01*
X31932999Y64076403D01*
X31933000Y64076420D01*
X31933000Y64721000D01*
X30679000Y64721000D01*
X30679000Y63617000D01*
X30171000Y63617000D01*
X30171000Y64721000D01*
X28917000Y64721000D01*
X28917000Y64076403D01*
X28333500Y64076403D01*
X28333500Y64846656D01*
X28353502Y64914777D01*
X28370405Y64935751D01*
X28701905Y65267251D01*
X28764217Y65301277D01*
X28835032Y65296212D01*
X28878135Y65263945D01*
X28880095Y65265904D01*
X28916999Y65229000D01*
X31933000Y65229000D01*
X31933000Y65873586D01*
X31932999Y65873598D01*
X31926494Y65934094D01*
X31875444Y66070965D01*
X31875444Y66070966D01*
X31787904Y66187905D01*
X31670965Y66275445D01*
X31534093Y66326495D01*
X31473597Y66333000D01*
X30571845Y66333000D01*
X30503724Y66353002D01*
X30457231Y66406658D01*
X30447127Y66476932D01*
X30476621Y66541512D01*
X30482750Y66548095D01*
X32069369Y68134715D01*
X32131681Y68168740D01*
X32158464Y68171620D01*
X33404600Y68171620D01*
X33472721Y68151618D01*
G37*
%TD.AperFunction*%
%TA.AperFunction,Conductor*%
G36*
X41817012Y68867881D02*
G01*
X41823581Y68861765D01*
X43717095Y66968251D01*
X43751121Y66905940D01*
X43754000Y66879157D01*
X43754000Y66129000D01*
X44504157Y66129000D01*
X44572278Y66108998D01*
X44593252Y66092095D01*
X46803732Y63881615D01*
X46837758Y63819303D01*
X46834471Y63753587D01*
X46809952Y63678121D01*
X46809951Y63678118D01*
X46809951Y63678116D01*
X46776500Y63466916D01*
X46776500Y63253084D01*
X46809951Y63041884D01*
X46809952Y63041879D01*
X46825289Y62994677D01*
X46838509Y62953989D01*
X46839924Y62949636D01*
X46841952Y62878669D01*
X46805289Y62817871D01*
X46741577Y62786545D01*
X46720091Y62784700D01*
X42553591Y62784700D01*
X42524999Y62793096D01*
X42495748Y62798762D01*
X42489065Y62803647D01*
X42485470Y62804702D01*
X42466554Y62819592D01*
X42465546Y62820555D01*
X42434640Y62851461D01*
X42429830Y62854675D01*
X42421906Y62862245D01*
X42409416Y62883926D01*
X42393384Y62903133D01*
X42392007Y62914147D01*
X42386467Y62923764D01*
X42387680Y62948753D01*
X42384577Y62973581D01*
X42389373Y62983591D01*
X42389912Y62994677D01*
X42404444Y63015045D01*
X42415256Y63037607D01*
X42419830Y63042431D01*
X42439753Y63062353D01*
X42524445Y63205559D01*
X42570862Y63365329D01*
X42573799Y63402649D01*
X42573800Y63402649D01*
X42573800Y63434684D01*
X42593802Y63502805D01*
X42647458Y63549298D01*
X42717732Y63559402D01*
X42782312Y63529908D01*
X42788895Y63523779D01*
X42791953Y63520721D01*
X42791959Y63520716D01*
X42791960Y63520715D01*
X42937899Y63430698D01*
X43100664Y63376764D01*
X43114808Y63375319D01*
X43201120Y63366500D01*
X43201128Y63366500D01*
X43798880Y63366500D01*
X43872194Y63373991D01*
X43899336Y63376764D01*
X44062101Y63430698D01*
X44208040Y63520715D01*
X44329285Y63641960D01*
X44419302Y63787899D01*
X44473236Y63950664D01*
X44479902Y64015907D01*
X44483500Y64051120D01*
X44483500Y64598881D01*
X44473236Y64699334D01*
X44473236Y64699336D01*
X44419302Y64862101D01*
X44329285Y65008040D01*
X44326070Y65011255D01*
X44292043Y65073562D01*
X44297104Y65144378D01*
X44326072Y65189454D01*
X44328890Y65192273D01*
X44418847Y65338116D01*
X44472742Y65500759D01*
X44472744Y65500771D01*
X44482999Y65601148D01*
X44483000Y65601148D01*
X44483000Y65621000D01*
X42517000Y65621000D01*
X42517000Y65601148D01*
X42527255Y65500771D01*
X42527257Y65500759D01*
X42581152Y65338116D01*
X42671109Y65192272D01*
X42671114Y65192266D01*
X42673932Y65189448D01*
X42675248Y65187037D01*
X42675662Y65186514D01*
X42675572Y65186444D01*
X42678340Y65181376D01*
X42685705Y65175862D01*
X42695088Y65150704D01*
X42707958Y65127136D01*
X42707301Y65117960D01*
X42710516Y65109342D01*
X42704808Y65083106D01*
X42702893Y65056321D01*
X42696981Y65047123D01*
X42695425Y65039968D01*
X42673932Y65011258D01*
X42672979Y65010305D01*
X42610667Y64976279D01*
X42583884Y64973400D01*
X42419511Y64973400D01*
X42351390Y64993402D01*
X42330416Y65010305D01*
X42322110Y65018611D01*
X42322103Y65018616D01*
X42178905Y65103304D01*
X42019129Y65149723D01*
X41981811Y65152660D01*
X41981802Y65152660D01*
X41601427Y65152660D01*
X41533306Y65172662D01*
X41486813Y65226318D01*
X41476709Y65296592D01*
X41492974Y65342800D01*
X41574445Y65480559D01*
X41620862Y65640329D01*
X41623799Y65677649D01*
X41623800Y65677649D01*
X41623800Y66148853D01*
X42517000Y66148853D01*
X42517000Y66129000D01*
X43246000Y66129000D01*
X43246000Y66833000D01*
X43201147Y66833000D01*
X43100770Y66822745D01*
X43100758Y66822743D01*
X42938115Y66768848D01*
X42792271Y66678891D01*
X42792265Y66678886D01*
X42671114Y66557735D01*
X42671109Y66557729D01*
X42581152Y66411885D01*
X42527257Y66249242D01*
X42527255Y66249230D01*
X42517000Y66148853D01*
X41623800Y66148853D01*
X41623800Y66835671D01*
X41623799Y66835672D01*
X41621029Y66870861D01*
X41620862Y66872991D01*
X41574445Y67032761D01*
X41574443Y67032763D01*
X41574443Y67032766D01*
X41489755Y67175964D01*
X41489750Y67175971D01*
X41366502Y67299219D01*
X41368756Y67301474D01*
X41335823Y67347040D01*
X41331947Y67417931D01*
X41365504Y67478180D01*
X41454285Y67566960D01*
X41544302Y67712899D01*
X41598236Y67875664D01*
X41603838Y67930496D01*
X41608500Y67976120D01*
X41608500Y68772657D01*
X41628502Y68840778D01*
X41682158Y68887271D01*
X41752432Y68897375D01*
X41817012Y68867881D01*
G37*
%TD.AperFunction*%
%TA.AperFunction,Conductor*%
G36*
X50803801Y73524270D02*
G01*
X50832245Y73522550D01*
X51089466Y73506991D01*
X51104547Y73505160D01*
X51382305Y73454259D01*
X51397052Y73450624D01*
X51666660Y73366611D01*
X51680872Y73361220D01*
X51699685Y73352753D01*
X51938355Y73245336D01*
X51951827Y73238266D01*
X52193476Y73092185D01*
X52205998Y73083541D01*
X52428267Y72909405D01*
X52439656Y72899315D01*
X52639314Y72699657D01*
X52649404Y72688268D01*
X52823540Y72465999D01*
X52832184Y72453477D01*
X52978265Y72211828D01*
X52985335Y72198356D01*
X53101217Y71940878D01*
X53106613Y71926652D01*
X53190619Y71657069D01*
X53194260Y71642295D01*
X53245157Y71364560D01*
X53246991Y71349456D01*
X53264270Y71063803D01*
X53264500Y71056195D01*
X53264500Y2483806D01*
X53264270Y2476198D01*
X53246991Y2190545D01*
X53245157Y2175441D01*
X53194260Y1897706D01*
X53190619Y1882932D01*
X53106613Y1613349D01*
X53101217Y1599123D01*
X52985335Y1341645D01*
X52978265Y1328173D01*
X52832184Y1086524D01*
X52823540Y1074002D01*
X52649404Y851733D01*
X52639314Y840344D01*
X52439656Y640686D01*
X52428267Y630596D01*
X52205998Y456460D01*
X52193476Y447816D01*
X51951827Y301735D01*
X51938355Y294665D01*
X51680877Y178783D01*
X51666651Y173387D01*
X51397068Y89381D01*
X51382294Y85740D01*
X51104559Y34843D01*
X51089455Y33009D01*
X50803802Y15730D01*
X50796194Y15500D01*
X2543806Y15500D01*
X2536198Y15730D01*
X2250544Y33009D01*
X2235440Y34843D01*
X1957705Y85740D01*
X1942935Y89380D01*
X1673348Y173387D01*
X1659122Y178783D01*
X1401644Y294665D01*
X1388172Y301735D01*
X1146523Y447816D01*
X1134001Y456460D01*
X911732Y630596D01*
X900343Y640686D01*
X700685Y840344D01*
X690595Y851733D01*
X516459Y1074002D01*
X507815Y1086524D01*
X361734Y1328173D01*
X354664Y1341645D01*
X238782Y1599123D01*
X233389Y1613340D01*
X149376Y1882948D01*
X145741Y1897695D01*
X94840Y2175453D01*
X93009Y2190534D01*
X75730Y2476199D01*
X75500Y2483806D01*
X75500Y45766916D01*
X3594500Y45766916D01*
X3594500Y45553084D01*
X3625161Y45359502D01*
X3627952Y45341879D01*
X3673094Y45202945D01*
X3694028Y45138517D01*
X3745043Y45038395D01*
X3791108Y44947988D01*
X3822182Y44905219D01*
X3916794Y44774996D01*
X3916796Y44774994D01*
X3916798Y44774991D01*
X4067990Y44623799D01*
X4067993Y44623797D01*
X4067996Y44623794D01*
X4240991Y44498106D01*
X4382005Y44426256D01*
X4433620Y44377509D01*
X4450686Y44308594D01*
X4427786Y44241393D01*
X4398864Y44212054D01*
X4321989Y44156201D01*
X4170798Y44005010D01*
X4170796Y44005007D01*
X4045108Y43832013D01*
X3948029Y43641485D01*
X3948026Y43641479D01*
X3881952Y43438122D01*
X3881951Y43438117D01*
X3881951Y43438116D01*
X3848500Y43226916D01*
X3848500Y43013084D01*
X3881951Y42801884D01*
X3881952Y42801879D01*
X3948026Y42598522D01*
X3948028Y42598517D01*
X4045106Y42407991D01*
X4170794Y42234996D01*
X4170796Y42234994D01*
X4170798Y42234991D01*
X4321990Y42083799D01*
X4321993Y42083797D01*
X4321996Y42083794D01*
X4398863Y42027947D01*
X4442217Y41971725D01*
X4448292Y41900989D01*
X4415161Y41838197D01*
X4382006Y41813746D01*
X4288449Y41766075D01*
X4240987Y41741892D01*
X4067993Y41616204D01*
X4067990Y41616202D01*
X3916798Y41465010D01*
X3916796Y41465007D01*
X3791108Y41292013D01*
X3694029Y41101485D01*
X3694026Y41101479D01*
X3627952Y40898122D01*
X3627951Y40898117D01*
X3627951Y40898116D01*
X3594500Y40686916D01*
X3594500Y40473084D01*
X3623796Y40288116D01*
X3627952Y40261879D01*
X3694026Y40058522D01*
X3694028Y40058517D01*
X3791106Y39867991D01*
X3791108Y39867988D01*
X3822182Y39825219D01*
X3916794Y39694996D01*
X3916796Y39694994D01*
X3916798Y39694991D01*
X4067990Y39543799D01*
X4067993Y39543797D01*
X4067996Y39543794D01*
X4240991Y39418106D01*
X4382005Y39346256D01*
X4433620Y39297509D01*
X4450686Y39228594D01*
X4427786Y39161393D01*
X4398864Y39132054D01*
X4321989Y39076201D01*
X4170798Y38925010D01*
X4170796Y38925007D01*
X4045108Y38752013D01*
X3948029Y38561485D01*
X3948028Y38561482D01*
X3881952Y38358122D01*
X3881951Y38358117D01*
X3881951Y38358116D01*
X3848500Y38146916D01*
X3848500Y37933084D01*
X3872326Y37782653D01*
X3881952Y37721879D01*
X3946961Y37521801D01*
X3948028Y37518517D01*
X4045106Y37327991D01*
X4045108Y37327988D01*
X4063526Y37302638D01*
X4170794Y37154996D01*
X4170796Y37154994D01*
X4170798Y37154991D01*
X4321990Y37003799D01*
X4321993Y37003797D01*
X4321996Y37003794D01*
X4398863Y36947947D01*
X4442217Y36891725D01*
X4448292Y36820989D01*
X4415161Y36758197D01*
X4382006Y36733746D01*
X4297738Y36690808D01*
X4240987Y36661892D01*
X4067993Y36536204D01*
X4067990Y36536202D01*
X3916798Y36385010D01*
X3916796Y36385007D01*
X3791108Y36212013D01*
X3694029Y36021485D01*
X3694026Y36021479D01*
X3627952Y35818122D01*
X3627951Y35818117D01*
X3627951Y35818116D01*
X3594500Y35606916D01*
X3594500Y35393084D01*
X3627951Y35181884D01*
X3627952Y35181879D01*
X3694026Y34978522D01*
X3694028Y34978517D01*
X3791106Y34787991D01*
X3791108Y34787988D01*
X3810498Y34761300D01*
X3916794Y34614996D01*
X3916796Y34614994D01*
X3916798Y34614991D01*
X4067990Y34463799D01*
X4067993Y34463797D01*
X4067996Y34463794D01*
X4240991Y34338106D01*
X4382005Y34266256D01*
X4433620Y34217509D01*
X4450686Y34148594D01*
X4427786Y34081393D01*
X4398864Y34052054D01*
X4321989Y33996201D01*
X4170798Y33845010D01*
X4170796Y33845007D01*
X4045108Y33672013D01*
X3948029Y33481485D01*
X3948026Y33481479D01*
X3881952Y33278122D01*
X3881951Y33278117D01*
X3881951Y33278116D01*
X3848500Y33066916D01*
X3848500Y32853084D01*
X3876743Y32674765D01*
X3881952Y32641879D01*
X3948026Y32438522D01*
X3948028Y32438517D01*
X4045106Y32247991D01*
X4170794Y32074996D01*
X4170796Y32074994D01*
X4170798Y32074991D01*
X4321990Y31923799D01*
X4321993Y31923797D01*
X4321996Y31923794D01*
X4360085Y31896121D01*
X4398863Y31867947D01*
X4442217Y31811725D01*
X4448292Y31740989D01*
X4415161Y31678197D01*
X4382006Y31653746D01*
X4255355Y31589214D01*
X4240987Y31581892D01*
X4067993Y31456204D01*
X4067990Y31456202D01*
X3916798Y31305010D01*
X3916796Y31305007D01*
X3791108Y31132013D01*
X3694029Y30941485D01*
X3694026Y30941479D01*
X3627952Y30738122D01*
X3627951Y30738117D01*
X3627951Y30738116D01*
X3594500Y30526916D01*
X3594500Y30313084D01*
X3625160Y30119505D01*
X3627952Y30101879D01*
X3689407Y29912739D01*
X3694028Y29898517D01*
X3791106Y29707991D01*
X3791108Y29707988D01*
X3793902Y29704142D01*
X3916794Y29534996D01*
X3916796Y29534994D01*
X3916798Y29534991D01*
X4067990Y29383799D01*
X4067993Y29383797D01*
X4067996Y29383794D01*
X4240991Y29258106D01*
X4382005Y29186256D01*
X4433620Y29137509D01*
X4450686Y29068594D01*
X4427786Y29001393D01*
X4398864Y28972054D01*
X4321989Y28916201D01*
X4170798Y28765010D01*
X4170796Y28765007D01*
X4045108Y28592013D01*
X3948029Y28401485D01*
X3948026Y28401479D01*
X3881952Y28198122D01*
X3881951Y28198117D01*
X3881951Y28198116D01*
X3848500Y27986916D01*
X3848500Y27773084D01*
X3876939Y27593531D01*
X3881952Y27561879D01*
X3948026Y27358522D01*
X3948028Y27358517D01*
X4045106Y27167991D01*
X4170794Y26994996D01*
X4170796Y26994994D01*
X4170798Y26994991D01*
X4321990Y26843799D01*
X4321993Y26843797D01*
X4321996Y26843794D01*
X4393338Y26791961D01*
X4398863Y26787947D01*
X4442217Y26731725D01*
X4448292Y26660989D01*
X4415161Y26598197D01*
X4382006Y26573746D01*
X4289801Y26526764D01*
X4240987Y26501892D01*
X4067993Y26376204D01*
X4067990Y26376202D01*
X3916798Y26225010D01*
X3916796Y26225007D01*
X3791108Y26052013D01*
X3694029Y25861485D01*
X3694026Y25861479D01*
X3627952Y25658122D01*
X3627951Y25658117D01*
X3627951Y25658116D01*
X3594500Y25446916D01*
X3594500Y25233084D01*
X3624021Y25046698D01*
X3627952Y25021879D01*
X3694026Y24818522D01*
X3694028Y24818517D01*
X3791106Y24627991D01*
X3791108Y24627988D01*
X3822182Y24585219D01*
X3916794Y24454996D01*
X3916796Y24454994D01*
X3916798Y24454991D01*
X4067990Y24303799D01*
X4067993Y24303797D01*
X4067996Y24303794D01*
X4240991Y24178106D01*
X4382005Y24106256D01*
X4433620Y24057509D01*
X4450686Y23988594D01*
X4427786Y23921393D01*
X4398864Y23892054D01*
X4321989Y23836201D01*
X4170798Y23685010D01*
X4170796Y23685007D01*
X4045108Y23512013D01*
X3948029Y23321485D01*
X3948026Y23321479D01*
X3881952Y23118122D01*
X3881951Y23118117D01*
X3881951Y23118116D01*
X3848500Y22906916D01*
X3848500Y22693084D01*
X3881951Y22481884D01*
X3881952Y22481879D01*
X3933389Y22323572D01*
X3948028Y22278517D01*
X4045106Y22087991D01*
X4170794Y21914996D01*
X4170796Y21914994D01*
X4170798Y21914991D01*
X4321990Y21763799D01*
X4321993Y21763797D01*
X4321996Y21763794D01*
X4358469Y21737295D01*
X4398863Y21707947D01*
X4442217Y21651725D01*
X4448292Y21580989D01*
X4415161Y21518197D01*
X4382006Y21493746D01*
X4255355Y21429214D01*
X4240987Y21421892D01*
X4067993Y21296204D01*
X4067990Y21296202D01*
X3916798Y21145010D01*
X3916796Y21145007D01*
X3791108Y20972013D01*
X3694029Y20781485D01*
X3694026Y20781479D01*
X3627952Y20578122D01*
X3627951Y20578117D01*
X3627951Y20578116D01*
X3594500Y20366916D01*
X3594500Y20153084D01*
X3608494Y20064730D01*
X3627952Y19941879D01*
X3694026Y19738522D01*
X3694028Y19738517D01*
X3791106Y19547991D01*
X3916794Y19374996D01*
X3916796Y19374994D01*
X3916798Y19374991D01*
X4067990Y19223799D01*
X4067993Y19223797D01*
X4067996Y19223794D01*
X4240991Y19098106D01*
X4382005Y19026256D01*
X4433620Y18977509D01*
X4450686Y18908594D01*
X4427786Y18841393D01*
X4398864Y18812054D01*
X4321989Y18756201D01*
X4170798Y18605010D01*
X4170796Y18605007D01*
X4045108Y18432013D01*
X3948029Y18241485D01*
X3948026Y18241479D01*
X3881952Y18038122D01*
X3881951Y18038117D01*
X3881951Y18038116D01*
X3848500Y17826916D01*
X3848500Y17613084D01*
X3881951Y17401884D01*
X3881952Y17401879D01*
X3948026Y17198522D01*
X3948028Y17198517D01*
X4045106Y17007991D01*
X4170794Y16834996D01*
X4170796Y16834994D01*
X4170798Y16834991D01*
X4321990Y16683799D01*
X4321993Y16683797D01*
X4321996Y16683794D01*
X4398863Y16627947D01*
X4442217Y16571725D01*
X4448292Y16500989D01*
X4415161Y16438197D01*
X4382006Y16413746D01*
X4255355Y16349214D01*
X4240987Y16341892D01*
X4067993Y16216204D01*
X4067990Y16216202D01*
X3916798Y16065010D01*
X3916796Y16065007D01*
X3791108Y15892013D01*
X3694029Y15701485D01*
X3694026Y15701479D01*
X3627952Y15498122D01*
X3627951Y15498117D01*
X3627951Y15498116D01*
X3594500Y15286916D01*
X3594500Y15073084D01*
X3627951Y14861884D01*
X3627952Y14861879D01*
X3694026Y14658522D01*
X3694028Y14658517D01*
X3791106Y14467991D01*
X3791108Y14467988D01*
X3810726Y14440986D01*
X3916794Y14294996D01*
X3916796Y14294994D01*
X3916798Y14294991D01*
X4067990Y14143799D01*
X4067993Y14143797D01*
X4067996Y14143794D01*
X4240991Y14018106D01*
X4382005Y13946256D01*
X4433620Y13897509D01*
X4450686Y13828594D01*
X4427786Y13761393D01*
X4398864Y13732054D01*
X4321989Y13676201D01*
X4170798Y13525010D01*
X4170796Y13525007D01*
X4045108Y13352013D01*
X3948029Y13161485D01*
X3948026Y13161479D01*
X3881952Y12958122D01*
X3881951Y12958117D01*
X3881951Y12958116D01*
X3848500Y12746916D01*
X3848500Y12533084D01*
X3881951Y12321884D01*
X3881952Y12321879D01*
X3948026Y12118522D01*
X3948028Y12118517D01*
X4045106Y11927991D01*
X4170794Y11754996D01*
X4170796Y11754994D01*
X4170798Y11754991D01*
X4321990Y11603799D01*
X4321993Y11603797D01*
X4321996Y11603794D01*
X4398863Y11547947D01*
X4442217Y11491725D01*
X4448292Y11420989D01*
X4415161Y11358197D01*
X4382006Y11333746D01*
X4255355Y11269214D01*
X4240987Y11261892D01*
X4067993Y11136204D01*
X4067990Y11136202D01*
X3916798Y10985010D01*
X3916796Y10985007D01*
X3791108Y10812013D01*
X3694029Y10621485D01*
X3694026Y10621479D01*
X3627952Y10418122D01*
X3627951Y10418117D01*
X3627951Y10418116D01*
X3594500Y10206916D01*
X3594500Y9993084D01*
X3625004Y9800490D01*
X3627952Y9781879D01*
X3694026Y9578522D01*
X3694028Y9578517D01*
X3791106Y9387991D01*
X3916794Y9214996D01*
X3916796Y9214994D01*
X3916798Y9214991D01*
X4067990Y9063799D01*
X4067993Y9063797D01*
X4067996Y9063794D01*
X4240991Y8938106D01*
X4382505Y8866001D01*
X4434120Y8817252D01*
X4451186Y8748337D01*
X4428285Y8681136D01*
X4399364Y8651799D01*
X4322323Y8595825D01*
X4322317Y8595820D01*
X4171177Y8444680D01*
X4045536Y8271751D01*
X3948493Y8081293D01*
X3948490Y8081287D01*
X3882440Y7878005D01*
X3872302Y7814000D01*
X4776297Y7814000D01*
X4741075Y7752993D01*
X4707000Y7625826D01*
X4707000Y7494174D01*
X4741075Y7367007D01*
X4776297Y7306000D01*
X3872302Y7306000D01*
X3882440Y7241996D01*
X3948490Y7038714D01*
X3948493Y7038708D01*
X4045536Y6848250D01*
X4171177Y6675321D01*
X4322320Y6524178D01*
X4495249Y6398537D01*
X4685707Y6301494D01*
X4685713Y6301491D01*
X4888998Y6235440D01*
X4953000Y6225304D01*
X4953000Y7129298D01*
X5014007Y7094075D01*
X5141174Y7060000D01*
X5272826Y7060000D01*
X5399993Y7094075D01*
X5461000Y7129298D01*
X5461000Y6225304D01*
X5525001Y6235440D01*
X5728286Y6301491D01*
X5728292Y6301494D01*
X5918750Y6398537D01*
X6091679Y6524178D01*
X6242822Y6675321D01*
X6368463Y6848250D01*
X6465506Y7038708D01*
X6465509Y7038714D01*
X6531559Y7241996D01*
X6541698Y7306000D01*
X5637703Y7306000D01*
X5672925Y7367007D01*
X5707000Y7494174D01*
X5707000Y7625826D01*
X5672925Y7752993D01*
X5637703Y7814000D01*
X6541697Y7814000D01*
X6531559Y7878005D01*
X6465509Y8081287D01*
X6465506Y8081293D01*
X6368463Y8271751D01*
X6242822Y8444680D01*
X6091679Y8595823D01*
X5918750Y8721464D01*
X5777540Y8793414D01*
X5725925Y8842162D01*
X5708859Y8911077D01*
X5731760Y8978279D01*
X5760679Y9007615D01*
X5838004Y9063794D01*
X5989206Y9214996D01*
X6114894Y9387991D01*
X6144707Y9446504D01*
X6193455Y9498118D01*
X6256974Y9515300D01*
X20576975Y9515300D01*
X20576977Y9515300D01*
X20725686Y9555147D01*
X20859014Y9632124D01*
X20967876Y9740986D01*
X21027380Y9800490D01*
X21027393Y9800505D01*
X31305207Y20078318D01*
X31367517Y20112342D01*
X31438332Y20107277D01*
X31495168Y20064730D01*
X31519979Y19998210D01*
X31520300Y19989221D01*
X31520300Y15518025D01*
X31520299Y15518025D01*
X31525633Y15498122D01*
X31560147Y15369314D01*
X31574268Y15344856D01*
X31574269Y15344853D01*
X31574270Y15344853D01*
X31637121Y15235990D01*
X31637123Y15235988D01*
X31637124Y15235986D01*
X32432124Y14440986D01*
X37240979Y9632130D01*
X37240984Y9632126D01*
X37240986Y9632124D01*
X37374315Y9555146D01*
X37523023Y9515300D01*
X37676977Y9515300D01*
X46829026Y9515300D01*
X46897147Y9495298D01*
X46941292Y9446504D01*
X46971106Y9387991D01*
X47096794Y9214996D01*
X47096796Y9214994D01*
X47096798Y9214991D01*
X47247990Y9063799D01*
X47247993Y9063797D01*
X47247996Y9063794D01*
X47420991Y8938106D01*
X47562505Y8866001D01*
X47614120Y8817252D01*
X47631186Y8748337D01*
X47608285Y8681136D01*
X47579364Y8651799D01*
X47502323Y8595825D01*
X47502317Y8595820D01*
X47351177Y8444680D01*
X47225536Y8271751D01*
X47128493Y8081293D01*
X47128490Y8081287D01*
X47062440Y7878005D01*
X47052302Y7814000D01*
X47956297Y7814000D01*
X47921075Y7752993D01*
X47887000Y7625826D01*
X47887000Y7494174D01*
X47921075Y7367007D01*
X47956297Y7306000D01*
X47052302Y7306000D01*
X47062440Y7241996D01*
X47128490Y7038714D01*
X47128493Y7038708D01*
X47225536Y6848250D01*
X47351177Y6675321D01*
X47502320Y6524178D01*
X47675249Y6398537D01*
X47865707Y6301494D01*
X47865713Y6301491D01*
X48068998Y6235440D01*
X48133000Y6225304D01*
X48133000Y7129298D01*
X48194007Y7094075D01*
X48321174Y7060000D01*
X48452826Y7060000D01*
X48579993Y7094075D01*
X48641000Y7129298D01*
X48641000Y6225304D01*
X48705001Y6235440D01*
X48908286Y6301491D01*
X48908292Y6301494D01*
X49098750Y6398537D01*
X49271679Y6524178D01*
X49422822Y6675321D01*
X49548463Y6848250D01*
X49645506Y7038708D01*
X49645509Y7038714D01*
X49711559Y7241996D01*
X49721698Y7306000D01*
X48817703Y7306000D01*
X48852925Y7367007D01*
X48887000Y7494174D01*
X48887000Y7625826D01*
X48852925Y7752993D01*
X48817703Y7814000D01*
X49721697Y7814000D01*
X49711559Y7878005D01*
X49645509Y8081287D01*
X49645506Y8081293D01*
X49548463Y8271751D01*
X49422822Y8444680D01*
X49271679Y8595823D01*
X49098750Y8721464D01*
X48957540Y8793414D01*
X48905925Y8842162D01*
X48888859Y8911077D01*
X48911760Y8978279D01*
X48940679Y9007615D01*
X49018004Y9063794D01*
X49169206Y9214996D01*
X49294894Y9387991D01*
X49391972Y9578517D01*
X49458049Y9781884D01*
X49491500Y9993084D01*
X49491500Y10206916D01*
X49458049Y10418116D01*
X49391972Y10621483D01*
X49294894Y10812009D01*
X49169206Y10985004D01*
X49169203Y10985007D01*
X49169201Y10985010D01*
X49018006Y11136205D01*
X48941136Y11192054D01*
X48897782Y11248277D01*
X48891707Y11319013D01*
X48924839Y11381804D01*
X48957989Y11406253D01*
X49099009Y11478106D01*
X49272004Y11603794D01*
X49423206Y11754996D01*
X49548894Y11927991D01*
X49645972Y12118517D01*
X49712049Y12321884D01*
X49745500Y12533084D01*
X49745500Y12746916D01*
X49712049Y12958116D01*
X49645972Y13161483D01*
X49548894Y13352009D01*
X49423206Y13525004D01*
X49423203Y13525007D01*
X49423201Y13525010D01*
X49272009Y13676202D01*
X49272006Y13676204D01*
X49272004Y13676206D01*
X49099009Y13801894D01*
X48957992Y13873746D01*
X48906379Y13922492D01*
X48889313Y13991407D01*
X48912214Y14058609D01*
X48941133Y14087945D01*
X49018004Y14143794D01*
X49169206Y14294996D01*
X49294894Y14467991D01*
X49391972Y14658517D01*
X49458049Y14861884D01*
X49491500Y15073084D01*
X49491500Y15286916D01*
X49458049Y15498116D01*
X49391972Y15701483D01*
X49294894Y15892009D01*
X49169206Y16065004D01*
X49169203Y16065007D01*
X49169201Y16065010D01*
X49018006Y16216205D01*
X48941136Y16272054D01*
X48897782Y16328277D01*
X48891707Y16399013D01*
X48924839Y16461804D01*
X48957989Y16486253D01*
X49099009Y16558106D01*
X49272004Y16683794D01*
X49423206Y16834996D01*
X49548894Y17007991D01*
X49645972Y17198517D01*
X49712049Y17401884D01*
X49745500Y17613084D01*
X49745500Y17826916D01*
X49712049Y18038116D01*
X49645972Y18241483D01*
X49548894Y18432009D01*
X49423206Y18605004D01*
X49423203Y18605007D01*
X49423201Y18605010D01*
X49272009Y18756202D01*
X49272006Y18756204D01*
X49272004Y18756206D01*
X49099009Y18881894D01*
X48957992Y18953746D01*
X48906379Y19002492D01*
X48889313Y19071407D01*
X48912214Y19138609D01*
X48941133Y19167945D01*
X49018004Y19223794D01*
X49169206Y19374996D01*
X49294894Y19547991D01*
X49391972Y19738517D01*
X49458049Y19941884D01*
X49491500Y20153084D01*
X49491500Y20366916D01*
X49458049Y20578116D01*
X49391972Y20781483D01*
X49294894Y20972009D01*
X49169206Y21145004D01*
X49169203Y21145007D01*
X49169201Y21145010D01*
X49018006Y21296205D01*
X48941136Y21352054D01*
X48897782Y21408277D01*
X48891707Y21479013D01*
X48924839Y21541804D01*
X48957989Y21566253D01*
X49099009Y21638106D01*
X49272004Y21763794D01*
X49423206Y21914996D01*
X49548894Y22087991D01*
X49645972Y22278517D01*
X49712049Y22481884D01*
X49745500Y22693084D01*
X49745500Y22906916D01*
X49712049Y23118116D01*
X49645972Y23321483D01*
X49548894Y23512009D01*
X49423206Y23685004D01*
X49423203Y23685007D01*
X49423201Y23685010D01*
X49272009Y23836202D01*
X49272006Y23836204D01*
X49272004Y23836206D01*
X49129269Y23939909D01*
X49099012Y23961892D01*
X49099011Y23961893D01*
X49099009Y23961894D01*
X48957992Y24033746D01*
X48906379Y24082492D01*
X48889313Y24151407D01*
X48912214Y24218609D01*
X48941133Y24247945D01*
X49018004Y24303794D01*
X49169206Y24454996D01*
X49294894Y24627991D01*
X49391972Y24818517D01*
X49458049Y25021884D01*
X49491500Y25233084D01*
X49491500Y25446916D01*
X49458049Y25658116D01*
X49391972Y25861483D01*
X49294894Y26052009D01*
X49169206Y26225004D01*
X49169203Y26225007D01*
X49169201Y26225010D01*
X49018006Y26376205D01*
X48941136Y26432054D01*
X48897782Y26488277D01*
X48891707Y26559013D01*
X48924839Y26621804D01*
X48957989Y26646253D01*
X49099009Y26718106D01*
X49272004Y26843794D01*
X49423206Y26994996D01*
X49548894Y27167991D01*
X49645972Y27358517D01*
X49712049Y27561884D01*
X49745500Y27773084D01*
X49745500Y27986916D01*
X49712049Y28198116D01*
X49645972Y28401483D01*
X49548894Y28592009D01*
X49423206Y28765004D01*
X49423203Y28765007D01*
X49423201Y28765010D01*
X49272009Y28916202D01*
X49272006Y28916204D01*
X49272004Y28916206D01*
X49132773Y29017363D01*
X49099012Y29041892D01*
X49099011Y29041893D01*
X49099009Y29041894D01*
X48957992Y29113746D01*
X48906379Y29162492D01*
X48889313Y29231407D01*
X48912214Y29298609D01*
X48941133Y29327945D01*
X49018004Y29383794D01*
X49169206Y29534996D01*
X49294894Y29707991D01*
X49391972Y29898517D01*
X49458049Y30101884D01*
X49491500Y30313084D01*
X49491500Y30526916D01*
X49458049Y30738116D01*
X49391972Y30941483D01*
X49294894Y31132009D01*
X49169206Y31305004D01*
X49169203Y31305007D01*
X49169201Y31305010D01*
X49018006Y31456205D01*
X48941136Y31512054D01*
X48897782Y31568277D01*
X48891707Y31639013D01*
X48924839Y31701804D01*
X48957989Y31726253D01*
X49099009Y31798106D01*
X49272004Y31923794D01*
X49423206Y32074996D01*
X49548894Y32247991D01*
X49645972Y32438517D01*
X49712049Y32641884D01*
X49745500Y32853084D01*
X49745500Y33066916D01*
X49712049Y33278116D01*
X49645972Y33481483D01*
X49548894Y33672009D01*
X49423206Y33845004D01*
X49423203Y33845007D01*
X49423201Y33845010D01*
X49272009Y33996202D01*
X49272006Y33996204D01*
X49272004Y33996206D01*
X49099009Y34121894D01*
X48957992Y34193746D01*
X48906379Y34242492D01*
X48889313Y34311407D01*
X48912214Y34378609D01*
X48941133Y34407945D01*
X49018004Y34463794D01*
X49169206Y34614996D01*
X49294894Y34787991D01*
X49391972Y34978517D01*
X49458049Y35181884D01*
X49491500Y35393084D01*
X49491500Y35606916D01*
X49458049Y35818116D01*
X49391972Y36021483D01*
X49294894Y36212009D01*
X49169206Y36385004D01*
X49169203Y36385007D01*
X49169201Y36385010D01*
X49018006Y36536205D01*
X48941136Y36592054D01*
X48897782Y36648277D01*
X48891707Y36719013D01*
X48924839Y36781804D01*
X48957989Y36806253D01*
X49099009Y36878106D01*
X49272004Y37003794D01*
X49423206Y37154996D01*
X49548894Y37327991D01*
X49645972Y37518517D01*
X49712049Y37721884D01*
X49745500Y37933084D01*
X49745500Y38146916D01*
X49712049Y38358116D01*
X49645972Y38561483D01*
X49548894Y38752009D01*
X49423206Y38925004D01*
X49423203Y38925007D01*
X49423201Y38925010D01*
X49272009Y39076202D01*
X49272006Y39076204D01*
X49272004Y39076206D01*
X49102014Y39199711D01*
X49099012Y39201892D01*
X49099011Y39201893D01*
X49099009Y39201894D01*
X48957992Y39273746D01*
X48906379Y39322492D01*
X48889313Y39391407D01*
X48912214Y39458609D01*
X48941133Y39487945D01*
X49018004Y39543794D01*
X49169206Y39694996D01*
X49294894Y39867991D01*
X49391972Y40058517D01*
X49458049Y40261884D01*
X49491500Y40473084D01*
X49491500Y40686916D01*
X49458049Y40898116D01*
X49391972Y41101483D01*
X49294894Y41292009D01*
X49287412Y41302307D01*
X49263552Y41369172D01*
X49279630Y41438324D01*
X49300248Y41465462D01*
X50310923Y42476138D01*
X50310928Y42476141D01*
X50321297Y42486511D01*
X50321299Y42486511D01*
X50413355Y42578567D01*
X50485682Y42686812D01*
X50535502Y42807089D01*
X50552852Y42894314D01*
X50560900Y42934772D01*
X50560900Y43064959D01*
X50560900Y46625093D01*
X50535502Y46752777D01*
X50485682Y46873054D01*
X50413355Y46981299D01*
X50321299Y47073355D01*
X50321298Y47073356D01*
X50316903Y47077751D01*
X50316892Y47077761D01*
X49782404Y47612250D01*
X49748379Y47674562D01*
X49745500Y47701345D01*
X49745500Y49098633D01*
X49745499Y49098650D01*
X49738990Y49159197D01*
X49738988Y49159205D01*
X49709924Y49237125D01*
X49687889Y49296204D01*
X49687888Y49296206D01*
X49687887Y49296208D01*
X49600261Y49413262D01*
X49483207Y49500888D01*
X49483202Y49500890D01*
X49346204Y49551989D01*
X49346196Y49551991D01*
X49285649Y49558500D01*
X49285638Y49558500D01*
X47488362Y49558500D01*
X47488350Y49558500D01*
X47427803Y49551991D01*
X47427795Y49551989D01*
X47290797Y49500890D01*
X47290792Y49500888D01*
X47173738Y49413262D01*
X47086112Y49296208D01*
X47086110Y49296203D01*
X47035011Y49159205D01*
X47035009Y49159197D01*
X47028500Y49098650D01*
X47028500Y48986900D01*
X47008498Y48918779D01*
X46954842Y48872286D01*
X46902500Y48860900D01*
X43505943Y48860900D01*
X43437822Y48880902D01*
X43416852Y48897801D01*
X42331299Y49983355D01*
X42223054Y50055682D01*
X42102777Y50105502D01*
X42058547Y50114300D01*
X41975095Y50130900D01*
X41975093Y50130900D01*
X40705093Y50130900D01*
X40405542Y50130900D01*
X40337421Y50150902D01*
X40290928Y50204558D01*
X40287487Y50212867D01*
X40235889Y50351204D01*
X40235887Y50351208D01*
X40148261Y50468262D01*
X40031207Y50555888D01*
X40031202Y50555890D01*
X39894204Y50606989D01*
X39894196Y50606991D01*
X39833649Y50613500D01*
X39833638Y50613500D01*
X38976362Y50613500D01*
X38976350Y50613500D01*
X38915803Y50606991D01*
X38915799Y50606990D01*
X38814032Y50569032D01*
X38743217Y50563968D01*
X38725968Y50569032D01*
X38624200Y50606990D01*
X38624196Y50606991D01*
X38563649Y50613500D01*
X38563638Y50613500D01*
X37706362Y50613500D01*
X37706350Y50613500D01*
X37645803Y50606991D01*
X37645799Y50606990D01*
X37544032Y50569032D01*
X37473217Y50563968D01*
X37455968Y50569032D01*
X37354200Y50606990D01*
X37354196Y50606991D01*
X37293649Y50613500D01*
X37293638Y50613500D01*
X36436362Y50613500D01*
X36436350Y50613500D01*
X36375803Y50606991D01*
X36375799Y50606990D01*
X36274032Y50569032D01*
X36203217Y50563968D01*
X36185968Y50569032D01*
X36084200Y50606990D01*
X36084196Y50606991D01*
X36023649Y50613500D01*
X36023638Y50613500D01*
X35166362Y50613500D01*
X35166350Y50613500D01*
X35105803Y50606991D01*
X35105795Y50606989D01*
X34968797Y50555890D01*
X34968792Y50555888D01*
X34851738Y50468262D01*
X34764112Y50351208D01*
X34764110Y50351203D01*
X34713011Y50214205D01*
X34713009Y50214197D01*
X34706500Y50153650D01*
X34706500Y48786351D01*
X34713009Y48725804D01*
X34713011Y48725796D01*
X34764110Y48588798D01*
X34764112Y48588793D01*
X34851738Y48471739D01*
X34968792Y48384113D01*
X34968794Y48384112D01*
X34968796Y48384111D01*
X35027875Y48362076D01*
X35105795Y48333012D01*
X35105803Y48333010D01*
X35166350Y48326501D01*
X35166355Y48326501D01*
X35166362Y48326500D01*
X35166368Y48326500D01*
X36023632Y48326500D01*
X36023638Y48326500D01*
X36023645Y48326501D01*
X36023649Y48326501D01*
X36084196Y48333010D01*
X36084199Y48333011D01*
X36084201Y48333011D01*
X36113468Y48343927D01*
X36185967Y48370968D01*
X36256782Y48376034D01*
X36274033Y48370968D01*
X36375795Y48333012D01*
X36375803Y48333010D01*
X36436350Y48326501D01*
X36436355Y48326501D01*
X36436362Y48326500D01*
X36436368Y48326500D01*
X37293632Y48326500D01*
X37293638Y48326500D01*
X37293645Y48326501D01*
X37293649Y48326501D01*
X37354196Y48333010D01*
X37354199Y48333011D01*
X37354201Y48333011D01*
X37383468Y48343927D01*
X37455967Y48370968D01*
X37526782Y48376034D01*
X37544033Y48370968D01*
X37645795Y48333012D01*
X37645803Y48333010D01*
X37706350Y48326501D01*
X37706355Y48326501D01*
X37706362Y48326500D01*
X37706368Y48326500D01*
X38563632Y48326500D01*
X38563638Y48326500D01*
X38563645Y48326501D01*
X38563649Y48326501D01*
X38624196Y48333010D01*
X38624199Y48333011D01*
X38624201Y48333011D01*
X38653468Y48343927D01*
X38725967Y48370968D01*
X38796782Y48376034D01*
X38814033Y48370968D01*
X38915795Y48333012D01*
X38915803Y48333010D01*
X38976350Y48326501D01*
X38976355Y48326501D01*
X38976362Y48326500D01*
X38976368Y48326500D01*
X39833632Y48326500D01*
X39833638Y48326500D01*
X39833645Y48326501D01*
X39833649Y48326501D01*
X39894196Y48333010D01*
X39894199Y48333011D01*
X39894201Y48333011D01*
X40031204Y48384111D01*
X40045903Y48395114D01*
X40148261Y48471739D01*
X40235887Y48588793D01*
X40235889Y48588797D01*
X40235890Y48588798D01*
X40286989Y48725799D01*
X40287487Y48727133D01*
X40330034Y48783969D01*
X40396554Y48808779D01*
X40405542Y48809100D01*
X40574907Y48809100D01*
X41584056Y48809100D01*
X41652177Y48789098D01*
X41673151Y48772195D01*
X42662234Y47783113D01*
X42662244Y47783102D01*
X42666644Y47778702D01*
X42666645Y47778701D01*
X42758701Y47686645D01*
X42836532Y47634640D01*
X42866946Y47614318D01*
X42987223Y47564498D01*
X43114906Y47539100D01*
X43114907Y47539100D01*
X46902500Y47539100D01*
X46970621Y47519098D01*
X47017114Y47465442D01*
X47028500Y47413100D01*
X47028500Y47301351D01*
X47035009Y47240804D01*
X47035011Y47240796D01*
X47086110Y47103798D01*
X47086112Y47103793D01*
X47173738Y46986739D01*
X47270497Y46914306D01*
X47313044Y46857470D01*
X47318108Y46786654D01*
X47284083Y46724342D01*
X47269054Y46711507D01*
X47255484Y46701646D01*
X47247989Y46696201D01*
X47096798Y46545010D01*
X47096796Y46545007D01*
X46971108Y46372013D01*
X46874029Y46181485D01*
X46874026Y46181479D01*
X46807952Y45978122D01*
X46807951Y45978117D01*
X46807951Y45978116D01*
X46774500Y45766916D01*
X46774500Y45553084D01*
X46805161Y45359502D01*
X46807952Y45341879D01*
X46859388Y45183574D01*
X46861415Y45112606D01*
X46828651Y45055543D01*
X46094715Y44321605D01*
X46032402Y44287580D01*
X46005619Y44284700D01*
X43623023Y44284700D01*
X43474314Y44244853D01*
X43474312Y44244853D01*
X43474308Y44244851D01*
X43407650Y44206365D01*
X43340988Y44167879D01*
X43340978Y44167871D01*
X35001692Y35828584D01*
X34939380Y35794558D01*
X34868565Y35799623D01*
X34811729Y35842170D01*
X34796188Y35869460D01*
X34765707Y35943047D01*
X34743246Y35997273D01*
X34651461Y36134640D01*
X34651459Y36134642D01*
X34651454Y36134648D01*
X34606005Y36180097D01*
X34571979Y36242409D01*
X34569100Y36269192D01*
X34569100Y44931358D01*
X34589102Y44999479D01*
X34629917Y45039187D01*
X34656568Y45055298D01*
X34699555Y45081284D01*
X34821216Y45202945D01*
X34910227Y45350187D01*
X34961413Y45514451D01*
X34967900Y45585835D01*
X34967899Y46100364D01*
X34961413Y46171749D01*
X34910227Y46336013D01*
X34821216Y46483255D01*
X34821215Y46483256D01*
X34821211Y46483261D01*
X34725467Y46579005D01*
X34691441Y46641317D01*
X34696506Y46712132D01*
X34725467Y46757195D01*
X34821211Y46852940D01*
X34821216Y46852945D01*
X34910227Y47000187D01*
X34961413Y47164451D01*
X34967900Y47235835D01*
X34967899Y47750364D01*
X34961413Y47821749D01*
X34910227Y47986013D01*
X34821216Y48133255D01*
X34821215Y48133256D01*
X34821211Y48133261D01*
X34699560Y48254912D01*
X34699555Y48254916D01*
X34552313Y48343927D01*
X34552312Y48343928D01*
X34552311Y48343928D01*
X34552306Y48343930D01*
X34388046Y48395114D01*
X34336123Y48399832D01*
X34316665Y48401600D01*
X34316662Y48401600D01*
X33954981Y48401600D01*
X33886860Y48421602D01*
X33865886Y48438505D01*
X32611520Y49692871D01*
X32611510Y49692879D01*
X32567707Y49718168D01*
X32562284Y49721299D01*
X32478186Y49769853D01*
X32416983Y49786253D01*
X32407629Y49790478D01*
X32388169Y49807200D01*
X32366264Y49820552D01*
X32361702Y49829944D01*
X32353782Y49836749D01*
X32346452Y49861337D01*
X32335243Y49884413D01*
X32333558Y49904590D01*
X32333500Y49904787D01*
X32333532Y49904901D01*
X32333499Y49905296D01*
X32333499Y50114301D01*
X32353501Y50182421D01*
X32407157Y50228914D01*
X32459499Y50240300D01*
X33801975Y50240300D01*
X33801977Y50240300D01*
X33950686Y50280147D01*
X34084014Y50357124D01*
X34192876Y50465986D01*
X34805285Y51078395D01*
X34867597Y51112421D01*
X34894380Y51115300D01*
X37476975Y51115300D01*
X37476977Y51115300D01*
X37625686Y51155147D01*
X37759014Y51232124D01*
X37867876Y51340986D01*
X37927380Y51400490D01*
X37927393Y51400505D01*
X44265286Y57738395D01*
X44327598Y57772421D01*
X44354381Y57775300D01*
X46655990Y57775300D01*
X46724111Y57755298D01*
X46770604Y57701642D01*
X46781338Y57662105D01*
X46787112Y57605575D01*
X46842885Y57437262D01*
X46935970Y57286348D01*
X46935975Y57286342D01*
X47061341Y57160976D01*
X47061347Y57160971D01*
X47061348Y57160970D01*
X47212262Y57067885D01*
X47380574Y57012113D01*
X47484455Y57001500D01*
X49035544Y57001501D01*
X49139426Y57012113D01*
X49139429Y57012114D01*
X49139431Y57012114D01*
X49258973Y57051726D01*
X49329928Y57054167D01*
X49390938Y57017859D01*
X49422633Y56954330D01*
X49422185Y56907541D01*
X49409500Y56843773D01*
X49409500Y56676231D01*
X49411895Y56664191D01*
X49442184Y56511918D01*
X49506297Y56357137D01*
X49513873Y56345799D01*
X49599373Y56217839D01*
X49599378Y56217833D01*
X49717832Y56099379D01*
X49717838Y56099374D01*
X49857137Y56006297D01*
X50011918Y55942184D01*
X50176233Y55909500D01*
X50176234Y55909500D01*
X50343766Y55909500D01*
X50343767Y55909500D01*
X50508082Y55942184D01*
X50662863Y56006297D01*
X50802162Y56099374D01*
X50920626Y56217838D01*
X51013703Y56357137D01*
X51077816Y56511918D01*
X51110500Y56676233D01*
X51110500Y56843767D01*
X51077816Y57008082D01*
X51013703Y57162863D01*
X50920626Y57302162D01*
X50920621Y57302168D01*
X50802167Y57420622D01*
X50802161Y57420627D01*
X50662864Y57513702D01*
X50662865Y57513702D01*
X50662863Y57513703D01*
X50548983Y57560874D01*
X50508085Y57577815D01*
X50508083Y57577816D01*
X50508082Y57577816D01*
X50425368Y57594269D01*
X50343769Y57610500D01*
X50343767Y57610500D01*
X50176233Y57610500D01*
X50176230Y57610500D01*
X50011912Y57577815D01*
X49912615Y57536684D01*
X49842025Y57529095D01*
X49778538Y57560874D01*
X49742311Y57621933D01*
X49739050Y57665902D01*
X49743500Y57709455D01*
X49743499Y59010544D01*
X49732887Y59114426D01*
X49677115Y59282738D01*
X49584030Y59433652D01*
X49584029Y59433653D01*
X49584024Y59433659D01*
X49458658Y59559025D01*
X49458652Y59559030D01*
X49352400Y59624567D01*
X49313842Y59648350D01*
X49266365Y59701135D01*
X49254962Y59771210D01*
X49283255Y59836326D01*
X49290884Y59844675D01*
X49421206Y59974996D01*
X49546894Y60147991D01*
X49643972Y60338517D01*
X49710049Y60541884D01*
X49743500Y60753084D01*
X49743500Y60966916D01*
X49710049Y61178116D01*
X49643972Y61381483D01*
X49546894Y61572009D01*
X49421206Y61745004D01*
X49421203Y61745007D01*
X49421201Y61745010D01*
X49270009Y61896202D01*
X49270006Y61896204D01*
X49270004Y61896206D01*
X49116043Y62008065D01*
X49072690Y62064286D01*
X49066615Y62135022D01*
X49099746Y62197814D01*
X49116044Y62211936D01*
X49118337Y62213602D01*
X49270004Y62323794D01*
X49421206Y62474996D01*
X49546894Y62647991D01*
X49643972Y62838517D01*
X49710049Y63041884D01*
X49743500Y63253084D01*
X49743500Y63466916D01*
X49710049Y63678116D01*
X49643972Y63881483D01*
X49546894Y64072009D01*
X49421206Y64245004D01*
X49421203Y64245007D01*
X49421201Y64245010D01*
X49270009Y64396202D01*
X49270006Y64396204D01*
X49270004Y64396206D01*
X49138843Y64491500D01*
X49115618Y64508374D01*
X49072264Y64564596D01*
X49066189Y64635333D01*
X49099320Y64698124D01*
X49115618Y64712246D01*
X49269679Y64824179D01*
X49269682Y64824181D01*
X49420822Y64975321D01*
X49546463Y65148250D01*
X49643506Y65338708D01*
X49643509Y65338714D01*
X49709559Y65541996D01*
X49719698Y65606000D01*
X48661836Y65606000D01*
X48702630Y65676657D01*
X48735000Y65797465D01*
X48735000Y65922535D01*
X48702630Y66043343D01*
X48661836Y66114000D01*
X49719697Y66114000D01*
X49709559Y66178005D01*
X49643509Y66381287D01*
X49643506Y66381293D01*
X49546463Y66571751D01*
X49420822Y66744680D01*
X49269679Y66895823D01*
X49096750Y67021464D01*
X48906292Y67118507D01*
X48906286Y67118510D01*
X48703004Y67184560D01*
X48514000Y67214497D01*
X48514000Y66261837D01*
X48443343Y66302630D01*
X48322535Y66335000D01*
X48197465Y66335000D01*
X48076657Y66302630D01*
X48006000Y66261837D01*
X48006000Y67214497D01*
X47816995Y67184560D01*
X47613713Y67118510D01*
X47613707Y67118507D01*
X47423249Y67021464D01*
X47250320Y66895823D01*
X47099177Y66744680D01*
X46973536Y66571751D01*
X46876493Y66381293D01*
X46876490Y66381287D01*
X46810440Y66178005D01*
X46789812Y66047769D01*
X46759399Y65983616D01*
X46699130Y65946090D01*
X46628141Y65947104D01*
X46576268Y65978386D01*
X41645405Y70909249D01*
X41611379Y70971561D01*
X41608500Y70998344D01*
X41608500Y71323881D01*
X41599358Y71413355D01*
X41598236Y71424336D01*
X41544302Y71587101D01*
X41454285Y71733040D01*
X41454284Y71733041D01*
X41454279Y71733047D01*
X41333046Y71854280D01*
X41333040Y71854285D01*
X41187101Y71944302D01*
X41024336Y71998236D01*
X41024333Y71998237D01*
X40923880Y72008500D01*
X40923872Y72008500D01*
X40376128Y72008500D01*
X40376120Y72008500D01*
X40275666Y71998237D01*
X40112899Y71944302D01*
X39966959Y71854285D01*
X39966953Y71854280D01*
X39845720Y71733047D01*
X39845715Y71733041D01*
X39755698Y71587101D01*
X39701763Y71424334D01*
X39691500Y71323881D01*
X39691500Y70597344D01*
X39671498Y70529223D01*
X39617842Y70482730D01*
X39547568Y70472626D01*
X39482988Y70502120D01*
X39476405Y70508249D01*
X38571301Y71413353D01*
X38571299Y71413355D01*
X38463054Y71485682D01*
X38377873Y71520965D01*
X38342780Y71535501D01*
X38342779Y71535502D01*
X38330534Y71537938D01*
X38320645Y71539905D01*
X38257737Y71572813D01*
X38237991Y71597332D01*
X38154285Y71733040D01*
X38154284Y71733041D01*
X38154279Y71733047D01*
X38033046Y71854280D01*
X38033040Y71854285D01*
X37887101Y71944302D01*
X37724336Y71998236D01*
X37724333Y71998237D01*
X37623880Y72008500D01*
X37623872Y72008500D01*
X37076128Y72008500D01*
X37076120Y72008500D01*
X36975666Y71998237D01*
X36812899Y71944302D01*
X36666959Y71854285D01*
X36666953Y71854280D01*
X36545720Y71733047D01*
X36545715Y71733041D01*
X36455698Y71587101D01*
X36401763Y71424334D01*
X36391500Y71323881D01*
X36391500Y70476120D01*
X36391499Y70476120D01*
X36401763Y70375667D01*
X36401764Y70375664D01*
X36455698Y70212899D01*
X36481542Y70171000D01*
X36545715Y70066960D01*
X36545720Y70066954D01*
X36666953Y69945721D01*
X36666959Y69945716D01*
X36666960Y69945715D01*
X36812899Y69855698D01*
X36975664Y69801764D01*
X36995756Y69799712D01*
X37076120Y69791500D01*
X37076128Y69791500D01*
X37623880Y69791500D01*
X37696936Y69798965D01*
X37724336Y69801764D01*
X37887101Y69855698D01*
X38032727Y69945523D01*
X38101206Y69964260D01*
X38168945Y69943001D01*
X38187969Y69927377D01*
X39654595Y68460751D01*
X39688621Y68398439D01*
X39691500Y68371656D01*
X39691500Y67976120D01*
X39691499Y67976120D01*
X39701763Y67875667D01*
X39701764Y67875664D01*
X39755698Y67712899D01*
X39840002Y67576222D01*
X39845715Y67566960D01*
X39845720Y67566954D01*
X39952195Y67460479D01*
X39986221Y67398167D01*
X39989100Y67371384D01*
X39989100Y67093560D01*
X39969098Y67025439D01*
X39915442Y66978946D01*
X39863100Y66967560D01*
X38961916Y66967560D01*
X38893795Y66987562D01*
X38872821Y67004465D01*
X38752986Y67124300D01*
X38752980Y67124305D01*
X38705105Y67153835D01*
X38607041Y67214322D01*
X38444276Y67268256D01*
X38444273Y67268257D01*
X38343820Y67278520D01*
X38343812Y67278520D01*
X38170036Y67278520D01*
X38101915Y67298522D01*
X38055422Y67352178D01*
X38045318Y67422452D01*
X38074812Y67487032D01*
X38080941Y67493615D01*
X38154279Y67566954D01*
X38154285Y67566960D01*
X38244302Y67712899D01*
X38298236Y67875664D01*
X38303838Y67930496D01*
X38308500Y67976120D01*
X38308500Y68823881D01*
X38300060Y68906487D01*
X38298236Y68924336D01*
X38244302Y69087101D01*
X38154285Y69233040D01*
X38154284Y69233041D01*
X38154279Y69233047D01*
X38033046Y69354280D01*
X38033040Y69354285D01*
X37929415Y69418202D01*
X37887101Y69444302D01*
X37724336Y69498236D01*
X37724333Y69498237D01*
X37623880Y69508500D01*
X37623872Y69508500D01*
X37076128Y69508500D01*
X37076120Y69508500D01*
X36975664Y69498237D01*
X36968937Y69496796D01*
X36968696Y69497921D01*
X36940798Y69493420D01*
X32059000Y69493420D01*
X31990879Y69513422D01*
X31944386Y69567078D01*
X31933000Y69619420D01*
X31933000Y70171000D01*
X30679000Y70171000D01*
X30679000Y69067000D01*
X30828156Y69067000D01*
X30896277Y69046998D01*
X30942770Y68993342D01*
X30952874Y68923068D01*
X30923380Y68858488D01*
X30917251Y68851905D01*
X29663151Y67597805D01*
X29600839Y67563779D01*
X29574056Y67560900D01*
X29334904Y67560900D01*
X29207222Y67535502D01*
X29207213Y67535499D01*
X29099717Y67490973D01*
X29029127Y67483384D01*
X28965641Y67515164D01*
X28929414Y67576222D01*
X28925500Y67607382D01*
X28925500Y67648914D01*
X28925500Y67648918D01*
X28896658Y67793913D01*
X28840084Y67930495D01*
X28757951Y68053416D01*
X28653416Y68157951D01*
X28530495Y68240084D01*
X28511360Y68248010D01*
X28393916Y68296657D01*
X28393913Y68296658D01*
X28381571Y68299113D01*
X28248918Y68325500D01*
X28101082Y68325500D01*
X28028584Y68311079D01*
X27956086Y68296658D01*
X27956083Y68296657D01*
X27819504Y68240084D01*
X27696588Y68157954D01*
X27696581Y68157949D01*
X27592051Y68053419D01*
X27592046Y68053412D01*
X27509916Y67930496D01*
X27453343Y67793917D01*
X27453342Y67793914D01*
X27453342Y67793913D01*
X27424500Y67648918D01*
X27424500Y67501082D01*
X27444972Y67398167D01*
X27453342Y67356087D01*
X27453343Y67356084D01*
X27479410Y67293154D01*
X27509916Y67219505D01*
X27592049Y67096584D01*
X27696584Y66992049D01*
X27819505Y66909916D01*
X27956087Y66853342D01*
X28101082Y66824500D01*
X28101085Y66824500D01*
X28107153Y66823293D01*
X28106797Y66821505D01*
X28164658Y66798145D01*
X28205672Y66740194D01*
X28208845Y66669268D01*
X28175578Y66610234D01*
X27984171Y66418827D01*
X27921859Y66384801D01*
X27881613Y66382643D01*
X27873643Y66383500D01*
X27873638Y66383500D01*
X27276362Y66383500D01*
X27276350Y66383500D01*
X27215804Y66376991D01*
X27208133Y66375177D01*
X27207613Y66377376D01*
X27148201Y66373134D01*
X27138672Y66375932D01*
X27134195Y66376991D01*
X27073649Y66383500D01*
X27073638Y66383500D01*
X26476362Y66383500D01*
X26476350Y66383500D01*
X26415804Y66376991D01*
X26408133Y66375177D01*
X26407613Y66377376D01*
X26348201Y66373134D01*
X26338672Y66375932D01*
X26334195Y66376991D01*
X26273649Y66383500D01*
X26273638Y66383500D01*
X25676362Y66383500D01*
X25676350Y66383500D01*
X25615804Y66376991D01*
X25608133Y66375177D01*
X25607663Y66377164D01*
X25547486Y66372867D01*
X25539398Y66375242D01*
X25534096Y66376495D01*
X25473597Y66383000D01*
X25425000Y66383000D01*
X25425000Y66348689D01*
X25404998Y66280568D01*
X25374513Y66247824D01*
X25361740Y66238262D01*
X25361736Y66238258D01*
X25274112Y66121208D01*
X25274110Y66121203D01*
X25223011Y65984205D01*
X25223009Y65984197D01*
X25216500Y65923650D01*
X25216500Y65001000D01*
X25213908Y64992175D01*
X25215218Y64983068D01*
X25204062Y64958643D01*
X25196498Y64932879D01*
X25189544Y64926855D01*
X25185724Y64918488D01*
X25163138Y64903974D01*
X25142842Y64886386D01*
X25132155Y64884062D01*
X25125998Y64880104D01*
X25090500Y64875000D01*
X25051000Y64875000D01*
X24982879Y64895002D01*
X24936386Y64948658D01*
X24925000Y65001000D01*
X24925000Y66383000D01*
X24876402Y66383000D01*
X24815903Y66376495D01*
X24808234Y66374682D01*
X24807721Y66376851D01*
X24748203Y66372599D01*
X24738409Y66375476D01*
X24734096Y66376495D01*
X24673597Y66383000D01*
X24625000Y66383000D01*
X24625000Y63367000D01*
X24673585Y63367000D01*
X24673597Y63367001D01*
X24734094Y63373506D01*
X24741770Y63375319D01*
X24742083Y63373991D01*
X24782795Y63380042D01*
X24997095Y63366759D01*
X25026956Y63355944D01*
X25057421Y63346998D01*
X25060059Y63343954D01*
X25063848Y63342581D01*
X25083119Y63317340D01*
X25103914Y63293342D01*
X25104898Y63288816D01*
X25106932Y63286152D01*
X25107795Y63275498D01*
X25115300Y63241000D01*
X25115300Y54665781D01*
X25095298Y54597660D01*
X25041642Y54551167D01*
X24971368Y54541063D01*
X24906788Y54570557D01*
X24900205Y54576686D01*
X21444020Y58032871D01*
X21444016Y58032874D01*
X21444014Y58032876D01*
X21430194Y58040855D01*
X21310686Y58109853D01*
X21161977Y58149700D01*
X21161975Y58149700D01*
X19140360Y58149700D01*
X19072239Y58169702D01*
X19025746Y58223358D01*
X19015642Y58293632D01*
X19035594Y58345700D01*
X19039764Y58351942D01*
X19040810Y58353507D01*
X19117436Y58538498D01*
X19156500Y58734884D01*
X19156500Y58935116D01*
X19117436Y59131502D01*
X19040810Y59316493D01*
X18929567Y59482981D01*
X18787981Y59624567D01*
X18787977Y59624570D01*
X18787975Y59624572D01*
X18780695Y59629436D01*
X18735169Y59683914D01*
X18724700Y59734199D01*
X18724700Y62961975D01*
X18724699Y62961982D01*
X18717005Y62990699D01*
X18684853Y63110687D01*
X18607879Y63244011D01*
X18607871Y63244021D01*
X17775489Y64076403D01*
X20017000Y64076403D01*
X20023505Y64015907D01*
X20074555Y63879036D01*
X20074555Y63879035D01*
X20162095Y63762096D01*
X20279034Y63674556D01*
X20415906Y63623506D01*
X20476402Y63617001D01*
X20476415Y63617000D01*
X21271000Y63617000D01*
X21779000Y63617000D01*
X22573585Y63617000D01*
X22573597Y63617001D01*
X22634093Y63623506D01*
X22770964Y63674556D01*
X22770965Y63674556D01*
X22887904Y63762096D01*
X22936044Y63826403D01*
X23617000Y63826403D01*
X23623505Y63765907D01*
X23674555Y63629036D01*
X23674555Y63629035D01*
X23762095Y63512096D01*
X23879034Y63424556D01*
X24015906Y63373506D01*
X24076402Y63367001D01*
X24076415Y63367000D01*
X24125000Y63367000D01*
X24125000Y64625000D01*
X23617000Y64625000D01*
X23617000Y63826403D01*
X22936044Y63826403D01*
X22975444Y63879035D01*
X22975444Y63879036D01*
X23026494Y64015907D01*
X23032999Y64076403D01*
X23033000Y64076420D01*
X23033000Y64721000D01*
X21779000Y64721000D01*
X21779000Y63617000D01*
X21271000Y63617000D01*
X21271000Y64721000D01*
X20017000Y64721000D01*
X20017000Y64076403D01*
X17775489Y64076403D01*
X15978294Y65873598D01*
X20017000Y65873598D01*
X20017000Y65229000D01*
X21271000Y65229000D01*
X21779000Y65229000D01*
X23033000Y65229000D01*
X23033000Y65873586D01*
X23032999Y65873594D01*
X23028709Y65913493D01*
X23028709Y65913497D01*
X23027623Y65923598D01*
X23617000Y65923598D01*
X23617000Y65125000D01*
X24125000Y65125000D01*
X24125000Y66383000D01*
X24076402Y66383000D01*
X24015906Y66376495D01*
X23879035Y66325445D01*
X23879034Y66325445D01*
X23762095Y66237905D01*
X23674555Y66120966D01*
X23674555Y66120965D01*
X23623505Y65984094D01*
X23617000Y65923598D01*
X23027623Y65923598D01*
X23026494Y65934094D01*
X22975444Y66070965D01*
X22975444Y66070966D01*
X22887904Y66187905D01*
X22770965Y66275445D01*
X22634093Y66326495D01*
X22573597Y66333000D01*
X21779000Y66333000D01*
X21779000Y65229000D01*
X21271000Y65229000D01*
X21271000Y66333000D01*
X20476402Y66333000D01*
X20415906Y66326495D01*
X20279035Y66275445D01*
X20279034Y66275445D01*
X20162095Y66187905D01*
X20074555Y66070966D01*
X20074555Y66070965D01*
X20023505Y65934094D01*
X20017000Y65873598D01*
X15978294Y65873598D01*
X14202974Y67648918D01*
X23024500Y67648918D01*
X23024500Y67501082D01*
X23044972Y67398167D01*
X23053342Y67356087D01*
X23053343Y67356084D01*
X23079410Y67293154D01*
X23109916Y67219505D01*
X23192049Y67096584D01*
X23296584Y66992049D01*
X23419505Y66909916D01*
X23556087Y66853342D01*
X23701082Y66824500D01*
X23701087Y66824500D01*
X23848913Y66824500D01*
X23848918Y66824500D01*
X23993913Y66853342D01*
X24130495Y66909916D01*
X24253416Y66992049D01*
X24357951Y67096584D01*
X24440084Y67219505D01*
X24496658Y67356087D01*
X24525500Y67501082D01*
X24525500Y67648918D01*
X24496658Y67793913D01*
X24440084Y67930495D01*
X24357951Y68053416D01*
X24253416Y68157951D01*
X24130495Y68240084D01*
X24111360Y68248010D01*
X23993916Y68296657D01*
X23993913Y68296658D01*
X23981571Y68299113D01*
X23848918Y68325500D01*
X23701082Y68325500D01*
X23628584Y68311079D01*
X23556086Y68296658D01*
X23556083Y68296657D01*
X23419504Y68240084D01*
X23296588Y68157954D01*
X23296581Y68157949D01*
X23192051Y68053419D01*
X23192046Y68053412D01*
X23109916Y67930496D01*
X23053343Y67793917D01*
X23053342Y67793914D01*
X23053342Y67793913D01*
X23024500Y67648918D01*
X14202974Y67648918D01*
X12945405Y68906487D01*
X12911379Y68968799D01*
X12908500Y68995582D01*
X12908500Y69526403D01*
X20017000Y69526403D01*
X20023505Y69465907D01*
X20074555Y69329036D01*
X20074555Y69329035D01*
X20162095Y69212096D01*
X20279034Y69124556D01*
X20415906Y69073506D01*
X20476402Y69067001D01*
X20476415Y69067000D01*
X21271000Y69067000D01*
X21779000Y69067000D01*
X22573585Y69067000D01*
X22573597Y69067001D01*
X22634093Y69073506D01*
X22770964Y69124556D01*
X22770965Y69124556D01*
X22887904Y69212096D01*
X22975444Y69329035D01*
X22975444Y69329036D01*
X23026494Y69465907D01*
X23032999Y69526403D01*
X28917000Y69526403D01*
X28923505Y69465907D01*
X28974555Y69329036D01*
X28974555Y69329035D01*
X29062095Y69212096D01*
X29179034Y69124556D01*
X29315906Y69073506D01*
X29376402Y69067001D01*
X29376415Y69067000D01*
X30171000Y69067000D01*
X30171000Y70171000D01*
X28917000Y70171000D01*
X28917000Y69526403D01*
X23032999Y69526403D01*
X23033000Y69526415D01*
X23033000Y70171000D01*
X21779000Y70171000D01*
X21779000Y69067000D01*
X21271000Y69067000D01*
X21271000Y70171000D01*
X20017000Y70171000D01*
X20017000Y69526403D01*
X12908500Y69526403D01*
X12908500Y69548633D01*
X12908499Y69548650D01*
X12901990Y69609197D01*
X12901988Y69609205D01*
X12850889Y69746203D01*
X12850887Y69746208D01*
X12763261Y69863262D01*
X12646207Y69950888D01*
X12646202Y69950890D01*
X12509204Y70001989D01*
X12509196Y70001991D01*
X12448649Y70008500D01*
X12448638Y70008500D01*
X11351362Y70008500D01*
X11351350Y70008500D01*
X11290803Y70001991D01*
X11290795Y70001989D01*
X11153797Y69950890D01*
X11153792Y69950888D01*
X11036738Y69863262D01*
X10959581Y69760191D01*
X10902745Y69717644D01*
X10858713Y69709700D01*
X6941287Y69709700D01*
X6873166Y69729702D01*
X6840419Y69760191D01*
X6763261Y69863262D01*
X6646207Y69950888D01*
X6646202Y69950890D01*
X6509204Y70001989D01*
X6509196Y70001991D01*
X6448649Y70008500D01*
X6448638Y70008500D01*
X5351362Y70008500D01*
X5351350Y70008500D01*
X5290803Y70001991D01*
X5290795Y70001989D01*
X5153797Y69950890D01*
X5153792Y69950888D01*
X5036738Y69863262D01*
X4949112Y69746208D01*
X4949110Y69746203D01*
X4898011Y69609205D01*
X4898009Y69609197D01*
X4891500Y69548650D01*
X4891500Y68701351D01*
X4898009Y68640804D01*
X4898011Y68640796D01*
X4949110Y68503798D01*
X4949112Y68503793D01*
X5036738Y68386739D01*
X5153792Y68299113D01*
X5153794Y68299112D01*
X5153796Y68299111D01*
X5212875Y68277076D01*
X5290795Y68248012D01*
X5290803Y68248010D01*
X5351350Y68241501D01*
X5351355Y68241501D01*
X5351362Y68241500D01*
X5351368Y68241500D01*
X6448632Y68241500D01*
X6448638Y68241500D01*
X6448645Y68241501D01*
X6448649Y68241501D01*
X6509196Y68248010D01*
X6509199Y68248011D01*
X6509201Y68248011D01*
X6646204Y68299111D01*
X6681456Y68325500D01*
X6763261Y68386739D01*
X6840419Y68489809D01*
X6897255Y68532356D01*
X6941287Y68540300D01*
X10858713Y68540300D01*
X10926834Y68520298D01*
X10959581Y68489809D01*
X11036738Y68386739D01*
X11153792Y68299113D01*
X11153794Y68299112D01*
X11153796Y68299111D01*
X11212875Y68277076D01*
X11290795Y68248012D01*
X11290803Y68248010D01*
X11351350Y68241501D01*
X11351355Y68241501D01*
X11351362Y68241500D01*
X11904420Y68241500D01*
X11972541Y68221498D01*
X11993515Y68204595D01*
X17518395Y62679715D01*
X17552421Y62617403D01*
X17555300Y62590620D01*
X17555300Y59834760D01*
X17535298Y59766639D01*
X17481642Y59720146D01*
X17411368Y59710042D01*
X17359301Y59729993D01*
X17351256Y59735368D01*
X17166361Y59811954D01*
X17166356Y59811956D01*
X16970069Y59851000D01*
X16769930Y59851000D01*
X16573643Y59811956D01*
X16573638Y59811954D01*
X16388742Y59735367D01*
X16352834Y59711377D01*
X16911710Y59152500D01*
X16828200Y59152500D01*
X16747449Y59130863D01*
X16675050Y59089063D01*
X16615937Y59029950D01*
X16574137Y58957551D01*
X16552500Y58876800D01*
X16552500Y58793200D01*
X16574137Y58712449D01*
X16615937Y58640050D01*
X16675050Y58580937D01*
X16698624Y58567327D01*
X16573497Y58542436D01*
X16573490Y58542434D01*
X16552233Y58533629D01*
X16481643Y58526042D01*
X16418157Y58557823D01*
X16381931Y58618882D01*
X16384467Y58689833D01*
X16414923Y58739135D01*
X16510789Y58835001D01*
X16235000Y59110790D01*
X16234999Y59110790D01*
X15959210Y58835001D01*
X15959210Y58834999D01*
X16055075Y58739134D01*
X16089101Y58676822D01*
X16084036Y58606007D01*
X16041489Y58549171D01*
X15974969Y58524360D01*
X15917762Y58533630D01*
X15896505Y58542435D01*
X15896502Y58542436D01*
X15771375Y58567326D01*
X15794950Y58580937D01*
X15854063Y58640050D01*
X15895863Y58712449D01*
X15917500Y58793200D01*
X15917500Y58876800D01*
X15895863Y58957551D01*
X15854063Y59029950D01*
X15794950Y59089063D01*
X15722551Y59130863D01*
X15641800Y59152500D01*
X15558289Y59152500D01*
X16117163Y59711377D01*
X16081260Y59735366D01*
X15896361Y59811954D01*
X15896356Y59811956D01*
X15700069Y59851000D01*
X15499930Y59851000D01*
X15303643Y59811956D01*
X15303638Y59811954D01*
X15118743Y59735368D01*
X15118741Y59735367D01*
X15035449Y59679714D01*
X14967696Y59658500D01*
X14899230Y59677284D01*
X14895448Y59679714D01*
X14834936Y59720146D01*
X14811493Y59735810D01*
X14811491Y59735811D01*
X14626505Y59812435D01*
X14626502Y59812436D01*
X14430119Y59851500D01*
X14430116Y59851500D01*
X14229884Y59851500D01*
X14229880Y59851500D01*
X14033497Y59812436D01*
X14033494Y59812435D01*
X13848503Y59735809D01*
X13764549Y59679714D01*
X13696796Y59658500D01*
X13628329Y59677284D01*
X13624547Y59679715D01*
X13541256Y59735368D01*
X13356361Y59811954D01*
X13356356Y59811956D01*
X13160069Y59851000D01*
X12959930Y59851000D01*
X12763643Y59811956D01*
X12763634Y59811953D01*
X12658917Y59768578D01*
X12588328Y59760989D01*
X12524841Y59792769D01*
X12488614Y59853827D01*
X12484700Y59884987D01*
X12484700Y64401390D01*
X12504702Y64469511D01*
X12558358Y64516004D01*
X12566641Y64519436D01*
X12646204Y64549111D01*
X12763261Y64636739D01*
X12810121Y64699336D01*
X12850887Y64753793D01*
X12850887Y64753794D01*
X12850889Y64753796D01*
X12901989Y64890799D01*
X12902766Y64898020D01*
X12908499Y64951351D01*
X12908500Y64951368D01*
X12908500Y65798633D01*
X12908499Y65798650D01*
X12901990Y65859197D01*
X12901988Y65859205D01*
X12869581Y65946090D01*
X12850889Y65996204D01*
X12850888Y65996206D01*
X12850887Y65996208D01*
X12763261Y66113262D01*
X12646207Y66200888D01*
X12646202Y66200890D01*
X12509204Y66251989D01*
X12509196Y66251991D01*
X12448649Y66258500D01*
X12448638Y66258500D01*
X11351362Y66258500D01*
X11351350Y66258500D01*
X11290803Y66251991D01*
X11290795Y66251989D01*
X11153797Y66200890D01*
X11153792Y66200888D01*
X11036738Y66113262D01*
X10959581Y66010191D01*
X10902745Y65967644D01*
X10858713Y65959700D01*
X6941287Y65959700D01*
X6873166Y65979702D01*
X6840419Y66010191D01*
X6763261Y66113262D01*
X6646207Y66200888D01*
X6646202Y66200890D01*
X6509204Y66251989D01*
X6509196Y66251991D01*
X6448649Y66258500D01*
X6448638Y66258500D01*
X5351362Y66258500D01*
X5351350Y66258500D01*
X5290803Y66251991D01*
X5290795Y66251989D01*
X5153797Y66200890D01*
X5153792Y66200888D01*
X5036738Y66113262D01*
X4949112Y65996208D01*
X4949110Y65996203D01*
X4898011Y65859205D01*
X4898009Y65859197D01*
X4891500Y65798650D01*
X4891500Y64951351D01*
X4898009Y64890804D01*
X4898011Y64890796D01*
X4949110Y64753798D01*
X4949112Y64753793D01*
X5036738Y64636739D01*
X5153792Y64549113D01*
X5153794Y64549112D01*
X5153796Y64549111D01*
X5186540Y64536898D01*
X5290795Y64498012D01*
X5290803Y64498010D01*
X5351350Y64491501D01*
X5351355Y64491501D01*
X5351362Y64491500D01*
X5351368Y64491500D01*
X6448632Y64491500D01*
X6448638Y64491500D01*
X6448645Y64491501D01*
X6448649Y64491501D01*
X6509196Y64498010D01*
X6509199Y64498011D01*
X6509201Y64498011D01*
X6646204Y64549111D01*
X6666695Y64564450D01*
X6763261Y64636739D01*
X6840419Y64739809D01*
X6897255Y64782356D01*
X6941287Y64790300D01*
X10858713Y64790300D01*
X10926834Y64770298D01*
X10959581Y64739809D01*
X11036738Y64636739D01*
X11153791Y64549114D01*
X11153792Y64549114D01*
X11153796Y64549111D01*
X11233335Y64519444D01*
X11290168Y64476899D01*
X11314979Y64410379D01*
X11315300Y64401390D01*
X11315300Y54723025D01*
X11315299Y54723025D01*
X11355147Y54574314D01*
X11418205Y54465095D01*
X11418205Y54465094D01*
X11432121Y54440990D01*
X11432129Y54440980D01*
X16524395Y49348715D01*
X16536116Y49327250D01*
X16551531Y49308264D01*
X16554467Y49293644D01*
X16558421Y49286403D01*
X16560528Y49273547D01*
X16561300Y49266606D01*
X16561300Y49217395D01*
X16573713Y49154987D01*
X16574310Y49149627D01*
X16569035Y49119767D01*
X16566333Y49089569D01*
X16562926Y49085184D01*
X16561960Y49079713D01*
X16541379Y49057446D01*
X16522780Y49033501D01*
X16517542Y49031654D01*
X16513772Y49027574D01*
X16484418Y49019968D01*
X16455827Y49009881D01*
X16449082Y49009700D01*
X15309380Y49009700D01*
X15241259Y49029702D01*
X15220285Y49046605D01*
X6475405Y57791485D01*
X6441379Y57853797D01*
X6438500Y57880580D01*
X6438500Y59258633D01*
X6438499Y59258650D01*
X6431990Y59319197D01*
X6431988Y59319205D01*
X6402924Y59397125D01*
X6380889Y59456204D01*
X6380888Y59456206D01*
X6380887Y59456208D01*
X6293261Y59573262D01*
X6176207Y59660888D01*
X6176202Y59660890D01*
X6039204Y59711989D01*
X6039196Y59711991D01*
X5978649Y59718500D01*
X5978638Y59718500D01*
X4181362Y59718500D01*
X4181350Y59718500D01*
X4120803Y59711991D01*
X4120795Y59711989D01*
X3983797Y59660890D01*
X3983792Y59660888D01*
X3866738Y59573262D01*
X3779112Y59456208D01*
X3779110Y59456203D01*
X3728011Y59319205D01*
X3728009Y59319197D01*
X3721500Y59258650D01*
X3721500Y57461351D01*
X3728009Y57400804D01*
X3728011Y57400796D01*
X3779110Y57263798D01*
X3779112Y57263793D01*
X3866738Y57146739D01*
X3983792Y57059113D01*
X3983796Y57059111D01*
X4102224Y57014939D01*
X4159059Y56972393D01*
X4183870Y56905872D01*
X4168778Y56836498D01*
X4147287Y56807789D01*
X4044176Y56704678D01*
X3918536Y56531751D01*
X3821493Y56341293D01*
X3821490Y56341287D01*
X3755440Y56138005D01*
X3745302Y56074000D01*
X4649297Y56074000D01*
X4614075Y56012993D01*
X4580000Y55885826D01*
X4580000Y55754174D01*
X4614075Y55627007D01*
X4649297Y55566000D01*
X3745302Y55566000D01*
X3755440Y55501996D01*
X3821490Y55298714D01*
X3821493Y55298708D01*
X3918536Y55108250D01*
X4044177Y54935321D01*
X4195320Y54784178D01*
X4368249Y54658537D01*
X4558707Y54561494D01*
X4558713Y54561491D01*
X4761998Y54495440D01*
X4826000Y54485304D01*
X4826000Y55389298D01*
X4887007Y55354075D01*
X5014174Y55320000D01*
X5145826Y55320000D01*
X5272993Y55354075D01*
X5334000Y55389298D01*
X5334000Y54485304D01*
X5398001Y54495440D01*
X5601286Y54561491D01*
X5601292Y54561494D01*
X5791750Y54658537D01*
X5964679Y54784178D01*
X6115822Y54935321D01*
X6241463Y55108250D01*
X6338506Y55298708D01*
X6338509Y55298714D01*
X6404559Y55501996D01*
X6414698Y55566000D01*
X5510703Y55566000D01*
X5545925Y55627007D01*
X5580000Y55754174D01*
X5580000Y55885826D01*
X5545925Y56012993D01*
X5510703Y56074000D01*
X6439466Y56074000D01*
X6442931Y56076262D01*
X6513926Y56076772D01*
X6568391Y56044719D01*
X14655979Y47957130D01*
X14655984Y47957126D01*
X14655986Y47957124D01*
X14789315Y47880146D01*
X14938023Y47840300D01*
X15091977Y47840300D01*
X21340500Y47840300D01*
X21408621Y47820298D01*
X21455114Y47766642D01*
X21466500Y47714300D01*
X21466500Y47518728D01*
X21446498Y47450607D01*
X21392842Y47404114D01*
X21322568Y47394010D01*
X21275315Y47410900D01*
X21233758Y47436022D01*
X21167913Y47475827D01*
X21167912Y47475828D01*
X21167911Y47475828D01*
X21167906Y47475830D01*
X21003646Y47527014D01*
X20951723Y47531732D01*
X20932265Y47533500D01*
X20932262Y47533500D01*
X20267738Y47533500D01*
X20196353Y47527014D01*
X20196352Y47527014D01*
X20032093Y47475830D01*
X20032088Y47475828D01*
X19884844Y47386816D01*
X19814173Y47316145D01*
X19751860Y47282120D01*
X19681045Y47287186D01*
X19655077Y47300475D01*
X19609773Y47330746D01*
X19457141Y47393969D01*
X19295107Y47426200D01*
X19295105Y47426200D01*
X19129895Y47426200D01*
X19129892Y47426200D01*
X18967858Y47393969D01*
X18967857Y47393968D01*
X18815225Y47330745D01*
X18677858Y47238960D01*
X18677852Y47238955D01*
X18561045Y47122148D01*
X18561040Y47122142D01*
X18470568Y46986739D01*
X18469254Y46984773D01*
X18443068Y46921555D01*
X18406032Y46832143D01*
X18406031Y46832142D01*
X18373800Y46670108D01*
X18373800Y46504893D01*
X18396684Y46389849D01*
X18406031Y46342860D01*
X18469254Y46190227D01*
X18551925Y46066501D01*
X18561040Y46052859D01*
X18561045Y46052853D01*
X18677852Y45936046D01*
X18677858Y45936041D01*
X18677860Y45936039D01*
X18815227Y45844254D01*
X18967860Y45781031D01*
X19129895Y45748800D01*
X19129896Y45748800D01*
X19295104Y45748800D01*
X19295105Y45748800D01*
X19457140Y45781031D01*
X19609773Y45844254D01*
X19700038Y45904568D01*
X19730642Y45914150D01*
X19760642Y45925450D01*
X19764257Y45924676D01*
X19767787Y45925781D01*
X19798711Y45917298D01*
X19830064Y45910583D01*
X19834085Y45907593D01*
X19836254Y45906998D01*
X19858844Y45889184D01*
X19858999Y45889030D01*
X19893225Y45826829D01*
X19888390Y45755997D01*
X19859288Y45710552D01*
X19763583Y45614847D01*
X19763578Y45614841D01*
X19674633Y45467707D01*
X19623481Y45303554D01*
X19623481Y45303553D01*
X19617000Y45232223D01*
X19617000Y45229000D01*
X21582999Y45229000D01*
X21582999Y45232222D01*
X21582411Y45238694D01*
X21596167Y45308345D01*
X21645396Y45359502D01*
X21714468Y45375922D01*
X21772034Y45358547D01*
X21846604Y45314446D01*
X22000191Y45269824D01*
X22036064Y45267001D01*
X22475000Y45267001D01*
X22475000Y45882142D01*
X22482972Y45909294D01*
X22487665Y45937198D01*
X22492836Y45942887D01*
X22495002Y45950263D01*
X22516387Y45968794D01*
X22535422Y45989732D01*
X22545563Y45994075D01*
X22548658Y45996756D01*
X22568384Y46003848D01*
X22608286Y46014539D01*
X22631307Y46020707D01*
X22663917Y46025000D01*
X22849000Y46025000D01*
X22917121Y46004998D01*
X22963614Y45951342D01*
X22975000Y45899000D01*
X22975000Y45267001D01*
X23215500Y45267001D01*
X23283621Y45246999D01*
X23330114Y45193343D01*
X23341500Y45141001D01*
X23341500Y43961022D01*
X23344325Y43925113D01*
X23344326Y43925111D01*
X23388982Y43771407D01*
X23470458Y43633637D01*
X23478393Y43625702D01*
X23493341Y43598329D01*
X23510196Y43572103D01*
X23511101Y43565809D01*
X23512420Y43563393D01*
X23515300Y43536605D01*
X23515300Y43509500D01*
X23495298Y43441379D01*
X23441642Y43394886D01*
X23389300Y43383500D01*
X23101120Y43383500D01*
X23000666Y43373237D01*
X22837899Y43319302D01*
X22691959Y43229285D01*
X22691953Y43229280D01*
X22688742Y43226068D01*
X22626430Y43192042D01*
X22555615Y43197107D01*
X22510552Y43226068D01*
X22507734Y43228886D01*
X22507728Y43228891D01*
X22361884Y43318848D01*
X22199241Y43372743D01*
X22199229Y43372745D01*
X22098852Y43383000D01*
X22079000Y43383000D01*
X22079000Y41417000D01*
X22098853Y41417000D01*
X22098852Y41417001D01*
X22199229Y41427256D01*
X22199241Y41427258D01*
X22361884Y41481153D01*
X22507727Y41571110D01*
X22510546Y41573928D01*
X22512960Y41575247D01*
X22513486Y41575662D01*
X22513556Y41575573D01*
X22572856Y41607957D01*
X22643672Y41602896D01*
X22688745Y41573930D01*
X22691960Y41570715D01*
X22837899Y41480698D01*
X23000664Y41426764D01*
X23020756Y41424712D01*
X23101120Y41416500D01*
X23101128Y41416500D01*
X23648880Y41416500D01*
X23721936Y41423965D01*
X23749336Y41426764D01*
X23912101Y41480698D01*
X24012177Y41542426D01*
X24080656Y41561164D01*
X24148395Y41539905D01*
X24193887Y41485398D01*
X24202688Y41414949D01*
X24185566Y41369041D01*
X24181153Y41361887D01*
X24181153Y41361886D01*
X24127257Y41199242D01*
X24127255Y41199230D01*
X24117000Y41098853D01*
X24117000Y41079000D01*
X26674000Y41079000D01*
X26742121Y41058998D01*
X26788614Y41005342D01*
X26800000Y40953000D01*
X26800000Y40825000D01*
X26928000Y40825000D01*
X26996121Y40804998D01*
X27042614Y40751342D01*
X27054000Y40699000D01*
X27054000Y39923199D01*
X27067395Y39909804D01*
X27101421Y39847492D01*
X27104300Y39820709D01*
X27104300Y38799700D01*
X27658299Y38799700D01*
X27658299Y39199657D01*
X27655365Y39236951D01*
X27608981Y39396601D01*
X27524351Y39539702D01*
X27524350Y39539704D01*
X27406803Y39657251D01*
X27406796Y39657257D01*
X27332192Y39701377D01*
X27283739Y39753269D01*
X27271034Y39823120D01*
X27298109Y39888751D01*
X27356370Y39929325D01*
X27356699Y39929435D01*
X27361887Y39931155D01*
X27507728Y40021110D01*
X27507734Y40021115D01*
X27603229Y40116609D01*
X27665541Y40150635D01*
X27736356Y40145570D01*
X27781419Y40116609D01*
X27884838Y40013190D01*
X27884842Y40013187D01*
X27884845Y40013184D01*
X27884848Y40013182D01*
X27884851Y40013180D01*
X27954483Y39971087D01*
X28002432Y39918729D01*
X28015300Y39863258D01*
X28015300Y39472099D01*
X27997755Y39407962D01*
X27991156Y39396804D01*
X27944737Y39237030D01*
X27944737Y39237029D01*
X27941800Y39199712D01*
X27941800Y38042700D01*
X27939208Y38033875D01*
X27940518Y38024768D01*
X27929362Y38000343D01*
X27921798Y37974579D01*
X27914844Y37968555D01*
X27911024Y37960188D01*
X27888438Y37945674D01*
X27868142Y37928086D01*
X27857455Y37925762D01*
X27851298Y37921804D01*
X27815800Y37916700D01*
X27784300Y37916700D01*
X27716179Y37936702D01*
X27669686Y37990358D01*
X27658300Y38042700D01*
X27658300Y38291700D01*
X26042301Y38291700D01*
X26042301Y37891744D01*
X26045234Y37854450D01*
X26091618Y37694800D01*
X26151483Y37593573D01*
X26168942Y37524756D01*
X26146425Y37457425D01*
X26091080Y37412956D01*
X26020480Y37405468D01*
X25994814Y37413024D01*
X25990850Y37414666D01*
X25990841Y37414669D01*
X25828807Y37446900D01*
X25828805Y37446900D01*
X25663595Y37446900D01*
X25663592Y37446900D01*
X25501558Y37414669D01*
X25501557Y37414668D01*
X25412145Y37377632D01*
X25374482Y37362031D01*
X25348925Y37351445D01*
X25211558Y37259660D01*
X25211552Y37259655D01*
X25094745Y37142848D01*
X25094740Y37142842D01*
X25002955Y37005475D01*
X24939732Y36852843D01*
X24939731Y36852842D01*
X24907500Y36690808D01*
X24907500Y36525593D01*
X24940572Y36359332D01*
X24934244Y36288618D01*
X24890690Y36232550D01*
X24823737Y36208931D01*
X24816993Y36208750D01*
X24029672Y36208750D01*
X23961551Y36228752D01*
X23940577Y36245655D01*
X19652137Y40534096D01*
X19635085Y40551148D01*
X24117000Y40551148D01*
X24127255Y40450771D01*
X24127257Y40450759D01*
X24181152Y40288116D01*
X24271109Y40142272D01*
X24271114Y40142266D01*
X24392265Y40021115D01*
X24392271Y40021110D01*
X24538115Y39931153D01*
X24700758Y39877258D01*
X24700770Y39877256D01*
X24801147Y39867001D01*
X24801147Y39867000D01*
X24846000Y39867000D01*
X25354000Y39867000D01*
X25398853Y39867000D01*
X25398852Y39867001D01*
X25499229Y39877256D01*
X25499241Y39877258D01*
X25661884Y39931153D01*
X25807728Y40021110D01*
X25807734Y40021115D01*
X25860905Y40074285D01*
X25923217Y40108311D01*
X25994032Y40103246D01*
X26039095Y40074285D01*
X26092265Y40021115D01*
X26092271Y40021110D01*
X26238112Y39931155D01*
X26307775Y39908071D01*
X26366147Y39867657D01*
X26393403Y39802101D01*
X26380890Y39732216D01*
X26332581Y39680190D01*
X26332284Y39680013D01*
X26293797Y39657252D01*
X26176249Y39539704D01*
X26176248Y39539702D01*
X26091618Y39396602D01*
X26045234Y39236950D01*
X26042300Y39199657D01*
X26042300Y38799700D01*
X26596300Y38799700D01*
X26596300Y39735001D01*
X26582905Y39748396D01*
X26548879Y39810708D01*
X26546000Y39837491D01*
X26546000Y40571000D01*
X25354000Y40571000D01*
X25354000Y39867000D01*
X24846000Y39867000D01*
X24846000Y40571000D01*
X24117000Y40571000D01*
X24117000Y40551148D01*
X19635085Y40551148D01*
X18085085Y42101148D01*
X20867000Y42101148D01*
X20877255Y42000771D01*
X20877257Y42000759D01*
X20931152Y41838116D01*
X21021109Y41692272D01*
X21021114Y41692266D01*
X21142265Y41571115D01*
X21142271Y41571110D01*
X21288115Y41481153D01*
X21450758Y41427258D01*
X21450770Y41427256D01*
X21551147Y41417001D01*
X21551147Y41417000D01*
X21571000Y41417000D01*
X21571000Y42146000D01*
X20867000Y42146000D01*
X20867000Y42101148D01*
X18085085Y42101148D01*
X17487380Y42698853D01*
X20867000Y42698853D01*
X20867000Y42654000D01*
X21571000Y42654000D01*
X21571000Y43383000D01*
X21551147Y43383000D01*
X21450770Y43372745D01*
X21450758Y43372743D01*
X21288115Y43318848D01*
X21142271Y43228891D01*
X21142265Y43228886D01*
X21021114Y43107735D01*
X21021109Y43107729D01*
X20931152Y42961885D01*
X20877257Y42799242D01*
X20877255Y42799230D01*
X20867000Y42698853D01*
X17487380Y42698853D01*
X15468454Y44717779D01*
X19617001Y44717779D01*
X19623481Y44646447D01*
X19674633Y44482294D01*
X19763578Y44335160D01*
X19763586Y44335150D01*
X19885149Y44213587D01*
X19885159Y44213579D01*
X20032293Y44124634D01*
X20196447Y44073482D01*
X20267777Y44067001D01*
X20854000Y44067001D01*
X20932222Y44067001D01*
X21003553Y44073482D01*
X21167706Y44124634D01*
X21314840Y44213579D01*
X21314850Y44213587D01*
X21436413Y44335150D01*
X21436421Y44335160D01*
X21525366Y44482294D01*
X21576518Y44646447D01*
X21576518Y44646448D01*
X21583000Y44717778D01*
X21583000Y44721000D01*
X20854000Y44721000D01*
X20854000Y44067001D01*
X20267777Y44067001D01*
X20345999Y44067002D01*
X20346000Y44067002D01*
X20346000Y44721000D01*
X19617001Y44721000D01*
X19617001Y44717779D01*
X15468454Y44717779D01*
X11518362Y48667871D01*
X11518358Y48667874D01*
X11518356Y48667876D01*
X11497102Y48680147D01*
X11385028Y48744853D01*
X11236319Y48784700D01*
X11236317Y48784700D01*
X6691500Y48784700D01*
X6623379Y48804702D01*
X6576886Y48858358D01*
X6565500Y48910700D01*
X6565500Y49098633D01*
X6565499Y49098650D01*
X6558990Y49159197D01*
X6558988Y49159205D01*
X6529924Y49237125D01*
X6507889Y49296204D01*
X6507888Y49296206D01*
X6507887Y49296208D01*
X6420261Y49413262D01*
X6303207Y49500888D01*
X6303202Y49500890D01*
X6166204Y49551989D01*
X6166196Y49551991D01*
X6105649Y49558500D01*
X6105638Y49558500D01*
X4308362Y49558500D01*
X4308350Y49558500D01*
X4247803Y49551991D01*
X4247795Y49551989D01*
X4110797Y49500890D01*
X4110792Y49500888D01*
X3993738Y49413262D01*
X3906112Y49296208D01*
X3906110Y49296203D01*
X3855011Y49159205D01*
X3855009Y49159197D01*
X3848500Y49098650D01*
X3848500Y47301351D01*
X3855009Y47240804D01*
X3855011Y47240796D01*
X3906110Y47103798D01*
X3906112Y47103793D01*
X3993738Y46986739D01*
X4090497Y46914306D01*
X4133044Y46857470D01*
X4138108Y46786654D01*
X4104083Y46724342D01*
X4089054Y46711507D01*
X4075484Y46701646D01*
X4067989Y46696201D01*
X3916798Y46545010D01*
X3916796Y46545007D01*
X3791108Y46372013D01*
X3694029Y46181485D01*
X3694026Y46181479D01*
X3627952Y45978122D01*
X3627951Y45978117D01*
X3627951Y45978116D01*
X3594500Y45766916D01*
X75500Y45766916D01*
X75500Y71056195D01*
X75730Y71063802D01*
X84385Y71206883D01*
X91444Y71323598D01*
X20017000Y71323598D01*
X20017000Y70679000D01*
X21271000Y70679000D01*
X21779000Y70679000D01*
X23033000Y70679000D01*
X23033000Y71323586D01*
X23032999Y71323598D01*
X28917000Y71323598D01*
X28917000Y70679000D01*
X30171000Y70679000D01*
X30679000Y70679000D01*
X31933000Y70679000D01*
X31933000Y71323586D01*
X31932999Y71323598D01*
X31926494Y71384094D01*
X31875444Y71520965D01*
X31875444Y71520966D01*
X31787904Y71637905D01*
X31670965Y71725445D01*
X31534093Y71776495D01*
X31473597Y71783000D01*
X30679000Y71783000D01*
X30679000Y70679000D01*
X30171000Y70679000D01*
X30171000Y71783000D01*
X29376402Y71783000D01*
X29315906Y71776495D01*
X29179035Y71725445D01*
X29179034Y71725445D01*
X29062095Y71637905D01*
X28974555Y71520966D01*
X28974555Y71520965D01*
X28923505Y71384094D01*
X28917000Y71323598D01*
X23032999Y71323598D01*
X23026494Y71384094D01*
X22975444Y71520965D01*
X22975444Y71520966D01*
X22887904Y71637905D01*
X22770965Y71725445D01*
X22634093Y71776495D01*
X22573597Y71783000D01*
X21779000Y71783000D01*
X21779000Y70679000D01*
X21271000Y70679000D01*
X21271000Y71783000D01*
X20476402Y71783000D01*
X20415906Y71776495D01*
X20279035Y71725445D01*
X20279034Y71725445D01*
X20162095Y71637905D01*
X20074555Y71520966D01*
X20074555Y71520965D01*
X20023505Y71384094D01*
X20017000Y71323598D01*
X91444Y71323598D01*
X93009Y71349467D01*
X94840Y71364546D01*
X145742Y71642310D01*
X149375Y71657050D01*
X233391Y71926667D01*
X238778Y71940868D01*
X354665Y72198360D01*
X361734Y72211828D01*
X507820Y72453486D01*
X516452Y72465991D01*
X690602Y72688277D01*
X700677Y72699649D01*
X900351Y72899323D01*
X911723Y72909398D01*
X1134009Y73083548D01*
X1146514Y73092180D01*
X1388175Y73238268D01*
X1401640Y73245335D01*
X1659132Y73361222D01*
X1673333Y73366609D01*
X1942950Y73450625D01*
X1957690Y73454258D01*
X2235454Y73505160D01*
X2250531Y73506991D01*
X2509703Y73522668D01*
X2536199Y73524270D01*
X2543806Y73524500D01*
X2564531Y73524500D01*
X50775469Y73524500D01*
X50796194Y73524500D01*
X50803801Y73524270D01*
G37*
%TD.AperFunction*%
%TD*%
M02*
