%TF.GenerationSoftware,KiCad,Pcbnew,10.0.2*%
%TF.CreationDate,2026-06-12T14:11:48-04:00*%
%TF.ProjectId,IMUBreakout-v2,494d5542-7265-4616-9b6f-75742d76322e,rev?*%
%TF.SameCoordinates,Original*%
%TF.FileFunction,Copper,L1,Top*%
%TF.FilePolarity,Positive*%
%FSLAX46Y46*%
G04 Gerber Fmt 4.6, Leading zero omitted, Abs format (unit mm)*
G04 Created by KiCad (PCBNEW 10.0.2) date 2026-06-12 14:11:48*
%MOMM*%
%LPD*%
G01*
G04 APERTURE LIST*
G04 Aperture macros list*
%AMRoundRect*
0 Rectangle with rounded corners*
0 $1 Rounding radius*
0 $2 $3 $4 $5 $6 $7 $8 $9 X,Y pos of 4 corners*
0 Add a 4 corners polygon primitive as box body*
4,1,4,$2,$3,$4,$5,$6,$7,$8,$9,$2,$3,0*
0 Add four circle primitives for the rounded corners*
1,1,$1+$1,$2,$3*
1,1,$1+$1,$4,$5*
1,1,$1+$1,$6,$7*
1,1,$1+$1,$8,$9*
0 Add four rect primitives between the rounded corners*
20,1,$1+$1,$2,$3,$4,$5,0*
20,1,$1+$1,$4,$5,$6,$7,0*
20,1,$1+$1,$6,$7,$8,$9,0*
20,1,$1+$1,$8,$9,$2,$3,0*%
G04 Aperture macros list end*
%TA.AperFunction,SMDPad,CuDef*%
%ADD10RoundRect,0.225000X0.225000X0.250000X-0.225000X0.250000X-0.225000X-0.250000X0.225000X-0.250000X0*%
%TD*%
%TA.AperFunction,SMDPad,CuDef*%
%ADD11C,0.228600*%
%TD*%
%TA.AperFunction,SMDPad,CuDef*%
%ADD12RoundRect,0.225000X-0.250000X0.225000X-0.250000X-0.225000X0.250000X-0.225000X0.250000X0.225000X0*%
%TD*%
%TA.AperFunction,SMDPad,CuDef*%
%ADD13RoundRect,0.225000X0.250000X-0.225000X0.250000X0.225000X-0.250000X0.225000X-0.250000X-0.225000X0*%
%TD*%
%TA.AperFunction,SMDPad,CuDef*%
%ADD14RoundRect,0.087500X0.087500X-0.125000X0.087500X0.125000X-0.087500X0.125000X-0.087500X-0.125000X0*%
%TD*%
%TA.AperFunction,SMDPad,CuDef*%
%ADD15RoundRect,0.087500X0.125000X-0.087500X0.125000X0.087500X-0.125000X0.087500X-0.125000X-0.087500X0*%
%TD*%
%TA.AperFunction,SMDPad,CuDef*%
%ADD16RoundRect,0.225000X-0.225000X-0.250000X0.225000X-0.250000X0.225000X0.250000X-0.225000X0.250000X0*%
%TD*%
%TA.AperFunction,SMDPad,CuDef*%
%ADD17RoundRect,0.087500X-0.225000X-0.087500X0.225000X-0.087500X0.225000X0.087500X-0.225000X0.087500X0*%
%TD*%
%TA.AperFunction,SMDPad,CuDef*%
%ADD18RoundRect,0.087500X-0.087500X-0.225000X0.087500X-0.225000X0.087500X0.225000X-0.087500X0.225000X0*%
%TD*%
%TA.AperFunction,SMDPad,CuDef*%
%ADD19C,0.350000*%
%TD*%
%TA.AperFunction,ComponentPad*%
%ADD20R,1.700000X1.700000*%
%TD*%
%TA.AperFunction,ComponentPad*%
%ADD21O,1.700000X1.700000*%
%TD*%
%TA.AperFunction,ViaPad*%
%ADD22C,0.609600*%
%TD*%
%TA.AperFunction,Conductor*%
%ADD23C,0.152400*%
%TD*%
G04 APERTURE END LIST*
D10*
%TO.P,C10,1*%
%TO.N,+1V8*%
X129840000Y-76077000D03*
%TO.P,C10,2*%
%TO.N,GND*%
X128290000Y-76077000D03*
%TD*%
D11*
%TO.P,U3,A1,DRDY/TRG_A1*%
%TO.N,/AK_TRG*%
X129479600Y-96993000D03*
%TO.P,U3,A2,CSB_A2*%
%TO.N,/AK_CS*%
X129079600Y-96993000D03*
%TO.P,U3,A3,SCL/SK_A3*%
%TO.N,/LSM_CK*%
X128679600Y-96993000D03*
%TO.P,U3,A4,SDA/SI_A4*%
%TO.N,/LSM_MOSI*%
X128279600Y-96993000D03*
%TO.P,U3,B1,VDD_B1*%
%TO.N,+1V8*%
X129479600Y-96593000D03*
%TO.P,U3,B4,SO_B4*%
%TO.N,/LPS_MISO*%
X128279600Y-96593000D03*
%TO.P,U3,C1,VSS_C1*%
%TO.N,GND*%
X129479600Y-96193000D03*
%TO.P,U3,C4,VOD_C4*%
%TO.N,+1V8*%
X128279600Y-96193000D03*
%TO.P,U3,D1,CAD0_D1*%
%TO.N,GND*%
X129479600Y-95793000D03*
%TO.P,U3,D2,CAD1_D2*%
X129079600Y-95793000D03*
%TO.P,U3,D4,RSTN_D4*%
%TO.N,+1V8*%
X128279600Y-95793000D03*
%TD*%
D12*
%TO.P,C9,1*%
%TO.N,+1V8*%
X128219200Y-102767800D03*
%TO.P,C9,2*%
%TO.N,GND*%
X128219200Y-104317800D03*
%TD*%
D13*
%TO.P,C2,1*%
%TO.N,+1V8*%
X124917200Y-88811400D03*
%TO.P,C2,2*%
%TO.N,GND*%
X124917200Y-87261400D03*
%TD*%
D14*
%TO.P,U5,1,Vdd_IO_1*%
%TO.N,+1V8*%
X128629600Y-88849700D03*
%TO.P,U5,2,SCL_2*%
%TO.N,/LSM_CK*%
X129129600Y-88849700D03*
D15*
%TO.P,U5,3,GND_3*%
%TO.N,GND*%
X129642100Y-88587200D03*
%TO.P,U5,4,SDA_4*%
%TO.N,/LPS_MOSI*%
X129642100Y-88087200D03*
%TO.P,U5,5,SA0_5*%
%TO.N,/LPS_MISO*%
X129642100Y-87587200D03*
D14*
%TO.P,U5,6,~{CS}_6*%
%TO.N,/LPS_CS*%
X129129600Y-87324700D03*
%TO.P,U5,7,INT_DRDY_7*%
%TO.N,/LPS_DRDY*%
X128629600Y-87324700D03*
D15*
%TO.P,U5,8,GND_IO_8*%
%TO.N,GND*%
X128117100Y-87587200D03*
%TO.P,U5,9,GND_9*%
X128117100Y-88087200D03*
%TO.P,U5,10,VDD_10*%
%TO.N,+1V8*%
X128117100Y-88587200D03*
%TD*%
D13*
%TO.P,C8,1*%
%TO.N,+1V8*%
X131013200Y-97066400D03*
%TO.P,C8,2*%
%TO.N,GND*%
X131013200Y-95516400D03*
%TD*%
D16*
%TO.P,C3,1*%
%TO.N,+1V8*%
X131890000Y-76077000D03*
%TO.P,C3,2*%
%TO.N,GND*%
X133440000Y-76077000D03*
%TD*%
D10*
%TO.P,C6,1*%
%TO.N,+1V8*%
X126784400Y-95986600D03*
%TO.P,C6,2*%
%TO.N,GND*%
X125234400Y-95986600D03*
%TD*%
D17*
%TO.P,U4,1,SDO/SA0_1*%
%TO.N,/LSM_MISO*%
X127717100Y-99453000D03*
%TO.P,U4,2,SDX_2*%
%TO.N,GND*%
X127717100Y-99953000D03*
%TO.P,U4,3,SCX_3*%
X127717100Y-100453000D03*
%TO.P,U4,4,INT1_4*%
%TO.N,/WKUP1*%
X127717100Y-100953000D03*
D18*
%TO.P,U4,5,VDD_IO_5*%
%TO.N,+1V8*%
X128379600Y-101115500D03*
%TO.P,U4,6,GND_6*%
%TO.N,GND*%
X128879600Y-101115500D03*
%TO.P,U4,7,GND_7*%
X129379600Y-101115500D03*
D17*
%TO.P,U4,8,VDD_8*%
%TO.N,+1V8*%
X130042100Y-100953000D03*
%TO.P,U4,9,INT2_9*%
%TO.N,/LSM_TRG*%
X130042100Y-100453000D03*
%TO.P,U4,10,OCS_AUX_10*%
%TO.N,unconnected-(U4-OCS_AUX-Pad10)*%
X130042100Y-99953000D03*
%TO.P,U4,11,SDO_AUX_11*%
%TO.N,unconnected-(U4-SDO_AUX-Pad11)*%
X130042100Y-99453000D03*
D18*
%TO.P,U4,12,CS_12*%
%TO.N,/LSM_CS*%
X129379600Y-99290500D03*
%TO.P,U4,13,SCL_13*%
%TO.N,/LSM_CK*%
X128879600Y-99290500D03*
%TO.P,U4,14,SDA_14*%
%TO.N,/LSM_MOSI*%
X128379600Y-99290500D03*
%TD*%
D19*
%TO.P,U2,A1*%
%TO.N,unconnected-(U2-PadA1)*%
X129940000Y-77977000D03*
%TO.P,U2,A2,VCC_A2*%
%TO.N,+1V8*%
X129940000Y-78777000D03*
%TO.P,U2,A3,~{CS}_A3*%
%TO.N,/MX_nCS*%
X129940000Y-79277000D03*
%TO.P,U2,A4*%
%TO.N,unconnected-(U2-PadA4)*%
X129940000Y-80077000D03*
%TO.P,U2,B1*%
%TO.N,unconnected-(U2-PadB1)*%
X129440000Y-77977000D03*
%TO.P,U2,B2,~{RESET}_B2*%
%TO.N,+1V8*%
X129440000Y-78777000D03*
%TO.P,U2,B3,SO_B3*%
%TO.N,/MX_MISO*%
X129440000Y-79277000D03*
%TO.P,U2,B4*%
%TO.N,unconnected-(U2-PadB4)*%
X129440000Y-80077000D03*
%TO.P,U2,C1*%
%TO.N,unconnected-(U2-PadC1)*%
X128940000Y-77977000D03*
%TO.P,U2,C2,SCLK_C2*%
%TO.N,/MX_SCK*%
X128940000Y-78777000D03*
%TO.P,U2,C3,~{WP}_C3*%
%TO.N,+1V8*%
X128940000Y-79277000D03*
%TO.P,U2,C4*%
%TO.N,unconnected-(U2-PadC4)*%
X128940000Y-80077000D03*
%TO.P,U2,D1*%
%TO.N,unconnected-(U2-PadD1)*%
X128440000Y-77977000D03*
%TO.P,U2,D2,SI_D2*%
%TO.N,/MX_MOSI*%
X128440000Y-78777000D03*
%TO.P,U2,D3,GND_D3*%
%TO.N,GND*%
X128440000Y-79277000D03*
%TO.P,U2,D4*%
%TO.N,unconnected-(U2-PadD4)*%
X128440000Y-80077000D03*
%TD*%
D12*
%TO.P,C1,1*%
%TO.N,+1V8*%
X130022600Y-102743000D03*
%TO.P,C1,2*%
%TO.N,GND*%
X130022600Y-104293000D03*
%TD*%
%TO.P,C4,1*%
%TO.N,+1V8*%
X126140000Y-102727000D03*
%TO.P,C4,2*%
%TO.N,GND*%
X126140000Y-104277000D03*
%TD*%
D13*
%TO.P,C7,1*%
%TO.N,+1V8*%
X126568200Y-88811400D03*
%TO.P,C7,2*%
%TO.N,GND*%
X126568200Y-87261400D03*
%TD*%
D20*
%TO.P,J3,1,Pin_1_1*%
%TO.N,/MX_MISO*%
X106553000Y-76200000D03*
D21*
%TO.P,J3,2,Pin_2_2*%
%TO.N,/MX_MOSI*%
X106807000Y-78740000D03*
%TO.P,J3,3,Pin_3_3*%
%TO.N,unconnected-(J3-Pin_3-Pad3)*%
X106553000Y-81280000D03*
%TO.P,J3,4,Pin_4_4*%
%TO.N,unconnected-(J3-Pin_4-Pad4)*%
X106807000Y-83820000D03*
%TO.P,J3,5,Pin_5_5*%
%TO.N,GND*%
X106553000Y-86360000D03*
%TO.P,J3,6,Pin_6_6*%
X106807000Y-88900000D03*
%TO.P,J3,7,Pin_7_7*%
%TO.N,+1V8*%
X106553000Y-91440000D03*
%TO.P,J3,8,Pin_8_8*%
%TO.N,/WKUP1*%
X106807000Y-93980000D03*
%TO.P,J3,9,Pin_9_9*%
%TO.N,unconnected-(J3-Pin_9-Pad9)*%
X106553000Y-96520000D03*
%TO.P,J3,10,Pin_10_10*%
%TO.N,/AK_TRG*%
X106807000Y-99060000D03*
%TO.P,J3,11,Pin_11_11*%
%TO.N,/AK_CS*%
X106553000Y-101600000D03*
%TO.P,J3,12,Pin_12_12*%
%TO.N,unconnected-(J3-Pin_12-Pad12)*%
X106807000Y-104140000D03*
%TO.P,J3,13,Pin_13_13*%
%TO.N,/LSM_CK*%
X106553000Y-106680000D03*
%TO.P,J3,14,Pin_14_14*%
%TO.N,/LSM_MISO*%
X106807000Y-109220000D03*
%TO.P,J3,15,Pin_15_15*%
%TO.N,/LSM_MOSI*%
X106553000Y-111760000D03*
%TO.P,J3,16,Pin_16_16*%
%TO.N,/LSM_CS*%
X106807000Y-114300000D03*
%TO.P,J3,17,Pin_17_17*%
%TO.N,GND*%
X106553000Y-116840000D03*
%TD*%
D20*
%TO.P,J4,1,Pin_1_1*%
%TO.N,+1V8*%
X149733000Y-76200000D03*
D21*
%TO.P,J4,2,Pin_2_2*%
%TO.N,/MX_SCK*%
X149987000Y-78740000D03*
%TO.P,J4,3,Pin_3_3*%
%TO.N,/MX_nCS*%
X149733000Y-81280000D03*
%TO.P,J4,4,Pin_4_4*%
%TO.N,/LPS_MOSI*%
X149987000Y-83820000D03*
%TO.P,J4,5,Pin_5_5*%
%TO.N,/LPS_MISO*%
X149733000Y-86360000D03*
%TO.P,J4,6,Pin_6_6*%
%TO.N,/LPS_CS*%
X149987000Y-88900000D03*
%TO.P,J4,7,Pin_7_7*%
%TO.N,/LPS_DRDY*%
X149733000Y-91440000D03*
%TO.P,J4,8,Pin_8_8*%
%TO.N,/LSM_TRG*%
X149987000Y-93980000D03*
%TO.P,J4,9,Pin_9_9*%
%TO.N,GND*%
X149733000Y-96520000D03*
%TO.P,J4,10,Pin_10_10*%
X149987000Y-99060000D03*
%TO.P,J4,11,Pin_11_11*%
X149733000Y-101600000D03*
%TO.P,J4,12,Pin_12_12*%
X149987000Y-104140000D03*
%TO.P,J4,13,Pin_13_13*%
X149733000Y-106680000D03*
%TO.P,J4,14,Pin_14_14*%
X149987000Y-109220000D03*
%TO.P,J4,15,Pin_15_15*%
X149733000Y-111760000D03*
%TO.P,J4,16,Pin_16_16*%
%TO.N,unconnected-(J4-Pin_16-Pad16)*%
X149987000Y-114300000D03*
%TO.P,J4,17,Pin_17_17*%
%TO.N,GND*%
X149733000Y-116840000D03*
%TD*%
D22*
%TO.N,+1V8*%
X124840000Y-89677000D03*
X127340000Y-102777000D03*
X130640000Y-76077000D03*
X126568200Y-89748800D03*
X130640000Y-78877000D03*
X126840000Y-95077000D03*
X131840000Y-97277000D03*
X131006000Y-102743000D03*
%TO.N,GND*%
X126540000Y-86277000D03*
X146540000Y-84977000D03*
X128854200Y-88087200D03*
X112440000Y-100377000D03*
X131013200Y-94603800D03*
X143740000Y-78677000D03*
X138140000Y-84977000D03*
X134440000Y-75977000D03*
X129184400Y-105333800D03*
X126040000Y-105177000D03*
X127840000Y-79046000D03*
X124206000Y-96012000D03*
X135040000Y-78777000D03*
X128905000Y-100203000D03*
X133540000Y-85277000D03*
X124942600Y-86055200D03*
X113040000Y-104077000D03*
X127440000Y-76077000D03*
X134940000Y-83977000D03*
%TO.N,/AK_TRG*%
X127127000Y-97336800D03*
X129794000Y-97663000D03*
%TO.N,/AK_CS*%
X126746000Y-98598800D03*
X129159000Y-98294000D03*
%TO.N,/LSM_CK*%
X128295400Y-97967800D03*
X115633500Y-98869500D03*
X118048185Y-96454815D03*
%TO.N,/LSM_MOSI*%
X124587000Y-100076000D03*
X124714000Y-98933000D03*
%TO.N,/LPS_MOSI*%
X130352800Y-88087200D03*
X132588000Y-87503000D03*
%TO.N,/LPS_DRDY*%
X128397000Y-86360000D03*
X134493000Y-88646000D03*
%TO.N,/WKUP1*%
X117983000Y-97282000D03*
X118999000Y-100711000D03*
%TO.N,/LSM_CS*%
X131572000Y-98679000D03*
X132207000Y-103251000D03*
%TD*%
%TO.N,+1V8*%
D23*
X130022600Y-102743000D02*
X131006000Y-102743000D01*
X126784400Y-95986600D02*
X127044600Y-95986600D01*
X128117100Y-88587200D02*
X128367100Y-88587200D01*
X126784400Y-95132600D02*
X126840000Y-95077000D01*
X129440000Y-78777000D02*
X129940000Y-78777000D01*
X131013200Y-97066400D02*
X131629400Y-97066400D01*
X126784400Y-95986600D02*
X128073200Y-95986600D01*
X124917200Y-88811400D02*
X124917200Y-89599800D01*
X130060700Y-101777800D02*
X130060700Y-101854000D01*
X131629400Y-97066400D02*
X131840000Y-97277000D01*
X129440000Y-78777000D02*
X128940000Y-79277000D01*
X129479600Y-96593000D02*
X130539800Y-96593000D01*
X130539800Y-96593000D02*
X131013200Y-97066400D01*
X128379601Y-102607399D02*
X128219200Y-102767800D01*
X129940000Y-78777000D02*
X130540000Y-78777000D01*
X131006000Y-102743000D02*
X131040000Y-102777000D01*
X130060700Y-100953001D02*
X130060700Y-101777800D01*
X126568200Y-88811400D02*
X127892900Y-88811400D01*
X127349200Y-102767800D02*
X127340000Y-102777000D01*
X128279600Y-95793000D02*
X128279600Y-96193000D01*
X130022600Y-101815900D02*
X130022600Y-102743000D01*
X124917200Y-89599800D02*
X124840000Y-89677000D01*
X128219200Y-102767800D02*
X129997800Y-102767800D01*
X127290000Y-102727000D02*
X127340000Y-102777000D01*
X128219200Y-102767800D02*
X127349200Y-102767800D01*
X126568200Y-89748800D02*
X126540000Y-89777000D01*
X128367100Y-88587200D02*
X128629600Y-88849700D01*
X128379601Y-101130100D02*
X128379601Y-102607399D01*
X130060700Y-101777800D02*
X130022600Y-101815900D01*
X128073200Y-95986600D02*
X128279600Y-96193000D01*
X127892900Y-88811400D02*
X128117100Y-88587200D01*
X126784400Y-95986600D02*
X126784400Y-95132600D01*
X126568200Y-88811400D02*
X126568200Y-89748800D01*
X130540000Y-78777000D02*
X130640000Y-78877000D01*
X130640000Y-76077000D02*
X131890000Y-76077000D01*
X129840000Y-76077000D02*
X130640000Y-76077000D01*
X129997800Y-102767800D02*
X130022600Y-102743000D01*
X126140000Y-102727000D02*
X127290000Y-102727000D01*
X124917200Y-88811400D02*
X126568200Y-88811400D01*
%TO.N,GND*%
X126568200Y-86305200D02*
X126540000Y-86277000D01*
X129997800Y-104317800D02*
X130022600Y-104293000D01*
X129184400Y-104317800D02*
X129997800Y-104317800D01*
X125234400Y-95986600D02*
X124231400Y-95986600D01*
X128117100Y-88087200D02*
X128854200Y-88087200D01*
X128854200Y-88087200D02*
X129208000Y-88441000D01*
X128117100Y-87587200D02*
X126894000Y-87587200D01*
X126568200Y-87261400D02*
X126568200Y-86305200D01*
X124917200Y-86080600D02*
X124942600Y-86055200D01*
X129208000Y-88441000D02*
X129495900Y-88441000D01*
X128879600Y-100228400D02*
X128905000Y-100203000D01*
X134340000Y-76077000D02*
X134440000Y-75977000D01*
X126140000Y-104277000D02*
X126140000Y-105077000D01*
X128879600Y-101130100D02*
X128879600Y-100228400D01*
X128096300Y-88108000D02*
X128117100Y-88087200D01*
X127698500Y-100453000D02*
X127698500Y-99953000D01*
X128071000Y-79277000D02*
X127840000Y-79046000D01*
X128440000Y-79277000D02*
X128071000Y-79277000D01*
X129079600Y-95793000D02*
X129479600Y-95793000D01*
X131013200Y-95516400D02*
X131013200Y-95580200D01*
X129479600Y-96193000D02*
X129479600Y-95793000D01*
X126894000Y-87587200D02*
X126568200Y-87261400D01*
X133440000Y-76077000D02*
X134340000Y-76077000D01*
X131013200Y-94603800D02*
X131040000Y-94577000D01*
X126140000Y-105077000D02*
X126040000Y-105177000D01*
X124231400Y-95986600D02*
X124206000Y-96012000D01*
X129495900Y-88441000D02*
X129642100Y-88587200D01*
X128219200Y-104317800D02*
X129184400Y-104317800D01*
X128290000Y-76077000D02*
X127440000Y-76077000D01*
X124917200Y-87261400D02*
X126568200Y-87261400D01*
X128117100Y-87587200D02*
X128117100Y-88087200D01*
X128655000Y-100453000D02*
X128905000Y-100203000D01*
X129184400Y-104317800D02*
X129184400Y-105333800D01*
X129479600Y-95793000D02*
X129756200Y-95516400D01*
X127698500Y-100453000D02*
X128655000Y-100453000D01*
X128879600Y-101130100D02*
X129379599Y-101130100D01*
X124917200Y-87261400D02*
X124917200Y-86080600D01*
X129756200Y-95516400D02*
X131013200Y-95516400D01*
X131013200Y-95516400D02*
X131013200Y-94603800D01*
%TO.N,/AK_TRG*%
X129794000Y-97307400D02*
X129794000Y-97663000D01*
X126800800Y-97663000D02*
X127127000Y-97336800D01*
X129479600Y-96993000D02*
X129794000Y-97307400D01*
X106807000Y-99060000D02*
X107950000Y-97917000D01*
X118240369Y-97917000D02*
X118494369Y-97663000D01*
X107950000Y-97917000D02*
X118240369Y-97917000D01*
X118494369Y-97663000D02*
X126800800Y-97663000D01*
%TO.N,/AK_CS*%
X126441200Y-98294000D02*
X126746000Y-98598800D01*
X129079600Y-98214600D02*
X129159000Y-98294000D01*
X109859000Y-98294000D02*
X126441200Y-98294000D01*
X106553000Y-101600000D02*
X109859000Y-98294000D01*
X129079600Y-96993000D02*
X129079600Y-98214600D01*
%TO.N,/LSM_CK*%
X128528000Y-97306244D02*
X128528000Y-97917000D01*
X129129600Y-90326400D02*
X127254000Y-92202000D01*
X108585000Y-104648000D02*
X106553000Y-106680000D01*
X121158000Y-93345000D02*
X118048185Y-96454815D01*
X109855000Y-104648000D02*
X108585000Y-104648000D01*
X128679600Y-97154644D02*
X128528000Y-97306244D01*
X123444000Y-93345000D02*
X121158000Y-93345000D01*
X115316000Y-99187000D02*
X109855000Y-104648000D01*
X128879600Y-98856800D02*
X128879600Y-99275900D01*
X128528000Y-97917000D02*
X128346200Y-97917000D01*
X115633500Y-98869500D02*
X115316000Y-99187000D01*
X129129600Y-88849700D02*
X129129600Y-90326400D01*
X128528000Y-98505200D02*
X128879600Y-98856800D01*
X124587000Y-92202000D02*
X123444000Y-93345000D01*
X128346200Y-97917000D02*
X128295400Y-97967800D01*
X127254000Y-92202000D02*
X124587000Y-92202000D01*
X128528000Y-97917000D02*
X128528000Y-98505200D01*
X128679600Y-96993000D02*
X128679600Y-97154644D01*
%TO.N,/LSM_MOSI*%
X127304169Y-98933000D02*
X127007369Y-99229800D01*
X106553000Y-111760000D02*
X118237000Y-100076000D01*
X127304169Y-98552000D02*
X127304169Y-98933000D01*
X126187831Y-98933000D02*
X124714000Y-98933000D01*
X128279600Y-96993000D02*
X127304169Y-97968431D01*
X127304169Y-97968431D02*
X127304169Y-98552000D01*
X126484631Y-99229800D02*
X126187831Y-98933000D01*
X127007369Y-99229800D02*
X126484631Y-99229800D01*
X128379600Y-99290500D02*
X127641100Y-98552000D01*
X118237000Y-100076000D02*
X124587000Y-100076000D01*
X127641100Y-98552000D02*
X127304169Y-98552000D01*
%TO.N,/LPS_MISO*%
X131402200Y-87587200D02*
X129642100Y-87587200D01*
X148209000Y-87884000D02*
X135001000Y-87884000D01*
X128786500Y-91177500D02*
X131445000Y-88519000D01*
X131445000Y-88519000D02*
X131445000Y-88138000D01*
X128279600Y-96593000D02*
X128441244Y-96593000D01*
X131445000Y-87630000D02*
X131402200Y-87587200D01*
X131445000Y-88138000D02*
X131445000Y-87630000D01*
X134747000Y-88138000D02*
X131445000Y-88138000D01*
X135001000Y-87884000D02*
X134747000Y-88138000D01*
X128441244Y-96593000D02*
X128786500Y-96247744D01*
X128786500Y-96247744D02*
X128786500Y-91177500D01*
X149733000Y-86360000D02*
X148209000Y-87884000D01*
%TO.N,/LPS_MOSI*%
X133731000Y-87503000D02*
X137414000Y-83820000D01*
X132588000Y-87503000D02*
X133731000Y-87503000D01*
X130429000Y-88011000D02*
X130352800Y-88087200D01*
X129642100Y-88087200D02*
X130352800Y-88087200D01*
X137414000Y-83820000D02*
X149987000Y-83820000D01*
%TO.N,/LPS_CS*%
X150761800Y-84500143D02*
X151015800Y-84246143D01*
X133663100Y-82791200D02*
X129129600Y-87324700D01*
X151015800Y-83393857D02*
X150413143Y-82791200D01*
X149987000Y-88900000D02*
X150761800Y-88125200D01*
X151015800Y-84246143D02*
X151015800Y-83393857D01*
X150761800Y-88125200D02*
X150761800Y-84500143D01*
X150413143Y-82791200D02*
X133663100Y-82791200D01*
%TO.N,/LPS_DRDY*%
X149733000Y-91440000D02*
X146939000Y-88646000D01*
X128397000Y-87092100D02*
X128629600Y-87324700D01*
X146939000Y-88646000D02*
X134493000Y-88646000D01*
X128397000Y-86360000D02*
X128397000Y-87092100D01*
%TO.N,/LSM_MISO*%
X127698500Y-99452999D02*
X127667699Y-99483800D01*
X116543200Y-99483800D02*
X106807000Y-109220000D01*
X127667699Y-99483800D02*
X116543200Y-99483800D01*
%TO.N,/WKUP1*%
X119241001Y-100953001D02*
X118999000Y-100711000D01*
X127698500Y-100953001D02*
X119241001Y-100953001D01*
X106807000Y-93980000D02*
X110109000Y-97282000D01*
X110109000Y-97282000D02*
X117983000Y-97282000D01*
%TO.N,/LSM_TRG*%
X132842631Y-100453000D02*
X130060700Y-100453000D01*
X144022000Y-99945000D02*
X133350631Y-99945000D01*
X149987000Y-93980000D02*
X144022000Y-99945000D01*
X133350631Y-99945000D02*
X132842631Y-100453000D01*
%TO.N,/LSM_CS*%
X106807000Y-114300000D02*
X121158000Y-114300000D01*
X132207000Y-106019600D02*
X131203700Y-107022900D01*
X121158000Y-114300000D02*
X128435100Y-107022900D01*
X129379599Y-99275900D02*
X129976499Y-98679000D01*
X129976499Y-98679000D02*
X131572000Y-98679000D01*
X132207000Y-106019600D02*
X132207000Y-103251000D01*
X128435100Y-107022900D02*
X131203700Y-107022900D01*
%TO.N,/MX_nCS*%
X147961000Y-79508000D02*
X149733000Y-81280000D01*
X129940000Y-79277000D02*
X130187487Y-79277000D01*
X130418487Y-79508000D02*
X147961000Y-79508000D01*
X130187487Y-79277000D02*
X130418487Y-79508000D01*
%TO.N,/MX_MISO*%
X105440000Y-79977000D02*
X104740000Y-79277000D01*
X104740000Y-76377000D02*
X104917000Y-76200000D01*
X129440000Y-79277000D02*
X129040000Y-79677000D01*
X104917000Y-76200000D02*
X106553000Y-76200000D01*
X121540000Y-79677000D02*
X121240000Y-79977000D01*
X121240000Y-79977000D02*
X105440000Y-79977000D01*
X129040000Y-79677000D02*
X121540000Y-79677000D01*
X104740000Y-79277000D02*
X104740000Y-76377000D01*
%TO.N,/MX_SCK*%
X129292800Y-78424200D02*
X130200431Y-78424200D01*
X130200431Y-78424200D02*
X130734631Y-77890000D01*
X128940000Y-78777000D02*
X129292800Y-78424200D01*
X130734631Y-77890000D02*
X149137000Y-77890000D01*
X149137000Y-77890000D02*
X149987000Y-78740000D01*
%TO.N,/MX_MOSI*%
X113750000Y-78850000D02*
X115425000Y-77175000D01*
X106917000Y-78850000D02*
X113750000Y-78850000D01*
X115425000Y-77175000D02*
X125050000Y-77175000D01*
X126838000Y-77175000D02*
X125050000Y-77175000D01*
X106807000Y-78740000D02*
X106917000Y-78850000D01*
X128440000Y-78777000D02*
X126838000Y-77175000D01*
%TD*%
%TA.AperFunction,Conductor*%
%TO.N,GND*%
G36*
X151134930Y-72465888D02*
G01*
X151306975Y-72479428D01*
X151326503Y-72482521D01*
X151407991Y-72502084D01*
X151489480Y-72521648D01*
X151508283Y-72527758D01*
X151663128Y-72591896D01*
X151680744Y-72600871D01*
X151823661Y-72688451D01*
X151839651Y-72700070D01*
X151967098Y-72808922D01*
X151981077Y-72822901D01*
X152089929Y-72950348D01*
X152101552Y-72966344D01*
X152189127Y-73109254D01*
X152198103Y-73126871D01*
X152262241Y-73281716D01*
X152268351Y-73300520D01*
X152307478Y-73463496D01*
X152310571Y-73483024D01*
X152324112Y-73655069D01*
X152324500Y-73664955D01*
X152324500Y-119375044D01*
X152324112Y-119384930D01*
X152310571Y-119556975D01*
X152307478Y-119576503D01*
X152268351Y-119739479D01*
X152262241Y-119758283D01*
X152198103Y-119913128D01*
X152189127Y-119930745D01*
X152101552Y-120073655D01*
X152089929Y-120089651D01*
X151981077Y-120217098D01*
X151967098Y-120231077D01*
X151839651Y-120339929D01*
X151823655Y-120351552D01*
X151680745Y-120439127D01*
X151663128Y-120448103D01*
X151508283Y-120512241D01*
X151489479Y-120518351D01*
X151326503Y-120557478D01*
X151306975Y-120560571D01*
X151134930Y-120574112D01*
X151125044Y-120574500D01*
X105414956Y-120574500D01*
X105405070Y-120574112D01*
X105233024Y-120560571D01*
X105213496Y-120557478D01*
X105050520Y-120518351D01*
X105031716Y-120512241D01*
X104876871Y-120448103D01*
X104859254Y-120439127D01*
X104787799Y-120395339D01*
X104716340Y-120351549D01*
X104700348Y-120339929D01*
X104572901Y-120231077D01*
X104558922Y-120217098D01*
X104450070Y-120089651D01*
X104438451Y-120073661D01*
X104350871Y-119930744D01*
X104341896Y-119913128D01*
X104277758Y-119758283D01*
X104271648Y-119739479D01*
X104232521Y-119576503D01*
X104229428Y-119556975D01*
X104215888Y-119384930D01*
X104215500Y-119375044D01*
X104215500Y-79883581D01*
X104235502Y-79815460D01*
X104289158Y-79768967D01*
X104359432Y-79758863D01*
X104424012Y-79788357D01*
X104430593Y-79794483D01*
X105080985Y-80444876D01*
X105147650Y-80483364D01*
X105214314Y-80521853D01*
X105251181Y-80531731D01*
X105261409Y-80536557D01*
X105279833Y-80552927D01*
X105300880Y-80565756D01*
X105305897Y-80576085D01*
X105314482Y-80583713D01*
X105321131Y-80607445D01*
X105331901Y-80629616D01*
X105330537Y-80641018D01*
X105333636Y-80652077D01*
X105326398Y-80675636D01*
X105323473Y-80700111D01*
X105319914Y-80707712D01*
X105294029Y-80758514D01*
X105294026Y-80758521D01*
X105227952Y-80961878D01*
X105227952Y-80961881D01*
X105227951Y-80961884D01*
X105194500Y-81173084D01*
X105194500Y-81386916D01*
X105227951Y-81598116D01*
X105227952Y-81598121D01*
X105294026Y-81801478D01*
X105294028Y-81801483D01*
X105391106Y-81992009D01*
X105516794Y-82165004D01*
X105516796Y-82165006D01*
X105516798Y-82165009D01*
X105667990Y-82316201D01*
X105667993Y-82316203D01*
X105667996Y-82316206D01*
X105840991Y-82441894D01*
X105982005Y-82513744D01*
X106033620Y-82562491D01*
X106050686Y-82631406D01*
X106027786Y-82698607D01*
X105998864Y-82727946D01*
X105921989Y-82783799D01*
X105770798Y-82934990D01*
X105770796Y-82934993D01*
X105645108Y-83107987D01*
X105548029Y-83298515D01*
X105548026Y-83298521D01*
X105481952Y-83501878D01*
X105481951Y-83501883D01*
X105481951Y-83501884D01*
X105448500Y-83713084D01*
X105448500Y-83926916D01*
X105481951Y-84138116D01*
X105481952Y-84138121D01*
X105548026Y-84341478D01*
X105548028Y-84341483D01*
X105645106Y-84532009D01*
X105770794Y-84705004D01*
X105770796Y-84705006D01*
X105770798Y-84705009D01*
X105921990Y-84856201D01*
X105921993Y-84856203D01*
X105921996Y-84856206D01*
X105990499Y-84905976D01*
X105999317Y-84912383D01*
X106042671Y-84968605D01*
X106048746Y-85039342D01*
X106015614Y-85102133D01*
X105982459Y-85126586D01*
X105841250Y-85198535D01*
X105668320Y-85324177D01*
X105517177Y-85475320D01*
X105391536Y-85648249D01*
X105294493Y-85838707D01*
X105294490Y-85838713D01*
X105228440Y-86041995D01*
X105218302Y-86106000D01*
X106122297Y-86106000D01*
X106087075Y-86167007D01*
X106053000Y-86294174D01*
X106053000Y-86425826D01*
X106087075Y-86552993D01*
X106122297Y-86614000D01*
X105218302Y-86614000D01*
X105228440Y-86678004D01*
X105294490Y-86881286D01*
X105294493Y-86881292D01*
X105391536Y-87071750D01*
X105517177Y-87244679D01*
X105668320Y-87395822D01*
X105841252Y-87521465D01*
X105982959Y-87593668D01*
X106034575Y-87642416D01*
X106051641Y-87711331D01*
X106028741Y-87778532D01*
X105999819Y-87807870D01*
X105922323Y-87864175D01*
X105922317Y-87864180D01*
X105771177Y-88015320D01*
X105645536Y-88188249D01*
X105548493Y-88378707D01*
X105548490Y-88378713D01*
X105482440Y-88581995D01*
X105472302Y-88646000D01*
X106376297Y-88646000D01*
X106341075Y-88707007D01*
X106307000Y-88834174D01*
X106307000Y-88965826D01*
X106341075Y-89092993D01*
X106376297Y-89154000D01*
X105472302Y-89154000D01*
X105482440Y-89218004D01*
X105548490Y-89421286D01*
X105548493Y-89421292D01*
X105645536Y-89611750D01*
X105771177Y-89784679D01*
X105922320Y-89935822D01*
X105999363Y-89991797D01*
X106042717Y-90048020D01*
X106048792Y-90118756D01*
X106015660Y-90181547D01*
X105982506Y-90205999D01*
X105840990Y-90278106D01*
X105667993Y-90403796D01*
X105667990Y-90403798D01*
X105516798Y-90554990D01*
X105516796Y-90554993D01*
X105391108Y-90727987D01*
X105294029Y-90918515D01*
X105294026Y-90918521D01*
X105227952Y-91121878D01*
X105227952Y-91121881D01*
X105227951Y-91121884D01*
X105194500Y-91333084D01*
X105194500Y-91546916D01*
X105199803Y-91580395D01*
X105227952Y-91758121D01*
X105294026Y-91961478D01*
X105294028Y-91961483D01*
X105391106Y-92152009D01*
X105516794Y-92325004D01*
X105516796Y-92325006D01*
X105516798Y-92325009D01*
X105667990Y-92476201D01*
X105667993Y-92476203D01*
X105667996Y-92476206D01*
X105840991Y-92601894D01*
X105982005Y-92673744D01*
X106033620Y-92722491D01*
X106050686Y-92791406D01*
X106027786Y-92858607D01*
X105998864Y-92887946D01*
X105921989Y-92943799D01*
X105770798Y-93094990D01*
X105770796Y-93094993D01*
X105645108Y-93267987D01*
X105548029Y-93458515D01*
X105548026Y-93458521D01*
X105481952Y-93661878D01*
X105481951Y-93661883D01*
X105481951Y-93661884D01*
X105448500Y-93873084D01*
X105448500Y-94086916D01*
X105481451Y-94294956D01*
X105481952Y-94298121D01*
X105543843Y-94488603D01*
X105548028Y-94501483D01*
X105645106Y-94692009D01*
X105770794Y-94865004D01*
X105770796Y-94865006D01*
X105770798Y-94865009D01*
X105921990Y-95016201D01*
X105921993Y-95016203D01*
X105921996Y-95016206D01*
X105992946Y-95067754D01*
X105998863Y-95072053D01*
X106042217Y-95128275D01*
X106048292Y-95199011D01*
X106015161Y-95261803D01*
X105982006Y-95286254D01*
X105855355Y-95350786D01*
X105840987Y-95358108D01*
X105667993Y-95483796D01*
X105667990Y-95483798D01*
X105516798Y-95634990D01*
X105516796Y-95634993D01*
X105391108Y-95807987D01*
X105294029Y-95998515D01*
X105294026Y-95998521D01*
X105227952Y-96201878D01*
X105227951Y-96201883D01*
X105227951Y-96201884D01*
X105194500Y-96413084D01*
X105194500Y-96626916D01*
X105227933Y-96838003D01*
X105227952Y-96838121D01*
X105293471Y-97039769D01*
X105294028Y-97041483D01*
X105391106Y-97232009D01*
X105516794Y-97405004D01*
X105516796Y-97405006D01*
X105516798Y-97405009D01*
X105667990Y-97556201D01*
X105667993Y-97556203D01*
X105667996Y-97556206D01*
X105840991Y-97681894D01*
X105982005Y-97753744D01*
X106033620Y-97802491D01*
X106050686Y-97871406D01*
X106027786Y-97938607D01*
X105998864Y-97967946D01*
X105921989Y-98023799D01*
X105770798Y-98174990D01*
X105770796Y-98174993D01*
X105645108Y-98347987D01*
X105548029Y-98538515D01*
X105548026Y-98538521D01*
X105481952Y-98741878D01*
X105481951Y-98741883D01*
X105481951Y-98741884D01*
X105448500Y-98953084D01*
X105448500Y-99166916D01*
X105481933Y-99378004D01*
X105481952Y-99378121D01*
X105547964Y-99581286D01*
X105548028Y-99581483D01*
X105645106Y-99772009D01*
X105770794Y-99945004D01*
X105770796Y-99945006D01*
X105770798Y-99945009D01*
X105921990Y-100096201D01*
X105921993Y-100096203D01*
X105921996Y-100096206D01*
X105977456Y-100136500D01*
X105998863Y-100152053D01*
X106042217Y-100208275D01*
X106048292Y-100279011D01*
X106015161Y-100341803D01*
X105982006Y-100366254D01*
X105890512Y-100412874D01*
X105840987Y-100438108D01*
X105667993Y-100563796D01*
X105667990Y-100563798D01*
X105516798Y-100714990D01*
X105516796Y-100714993D01*
X105391108Y-100887987D01*
X105294029Y-101078515D01*
X105294026Y-101078521D01*
X105227952Y-101281878D01*
X105227952Y-101281880D01*
X105227951Y-101281884D01*
X105194500Y-101493084D01*
X105194500Y-101706916D01*
X105227933Y-101918004D01*
X105227952Y-101918121D01*
X105293964Y-102121286D01*
X105294028Y-102121483D01*
X105391106Y-102312009D01*
X105516794Y-102485004D01*
X105516796Y-102485006D01*
X105516798Y-102485009D01*
X105667990Y-102636201D01*
X105667993Y-102636203D01*
X105667996Y-102636206D01*
X105840991Y-102761894D01*
X105982005Y-102833744D01*
X106033620Y-102882491D01*
X106050686Y-102951406D01*
X106027786Y-103018607D01*
X105998864Y-103047946D01*
X105921989Y-103103799D01*
X105770798Y-103254990D01*
X105770796Y-103254993D01*
X105645108Y-103427987D01*
X105548029Y-103618515D01*
X105548026Y-103618521D01*
X105481952Y-103821878D01*
X105481951Y-103821883D01*
X105481951Y-103821884D01*
X105448500Y-104033084D01*
X105448500Y-104246916D01*
X105481933Y-104458004D01*
X105481952Y-104458121D01*
X105544696Y-104651229D01*
X105548028Y-104661483D01*
X105645106Y-104852009D01*
X105770794Y-105025004D01*
X105770796Y-105025006D01*
X105770798Y-105025009D01*
X105921990Y-105176201D01*
X105921993Y-105176203D01*
X105921996Y-105176206D01*
X105981902Y-105219730D01*
X105998863Y-105232053D01*
X106042217Y-105288275D01*
X106048292Y-105359011D01*
X106015161Y-105421803D01*
X105982006Y-105446254D01*
X105855355Y-105510786D01*
X105840987Y-105518108D01*
X105667993Y-105643796D01*
X105667990Y-105643798D01*
X105516798Y-105794990D01*
X105516796Y-105794993D01*
X105391108Y-105967987D01*
X105294029Y-106158515D01*
X105294026Y-106158521D01*
X105227952Y-106361878D01*
X105227952Y-106361880D01*
X105227951Y-106361884D01*
X105194500Y-106573084D01*
X105194500Y-106786916D01*
X105227933Y-106998004D01*
X105227952Y-106998121D01*
X105293964Y-107201286D01*
X105294028Y-107201483D01*
X105391106Y-107392009D01*
X105516794Y-107565004D01*
X105516796Y-107565006D01*
X105516798Y-107565009D01*
X105667990Y-107716201D01*
X105667993Y-107716203D01*
X105667996Y-107716206D01*
X105840991Y-107841894D01*
X105982005Y-107913744D01*
X106033620Y-107962491D01*
X106050686Y-108031406D01*
X106027786Y-108098607D01*
X105998864Y-108127946D01*
X105921989Y-108183799D01*
X105770798Y-108334990D01*
X105770796Y-108334993D01*
X105645108Y-108507987D01*
X105548029Y-108698515D01*
X105548026Y-108698521D01*
X105481952Y-108901878D01*
X105481951Y-108901883D01*
X105481951Y-108901884D01*
X105448500Y-109113084D01*
X105448500Y-109326916D01*
X105481933Y-109538004D01*
X105481952Y-109538121D01*
X105547964Y-109741286D01*
X105548028Y-109741483D01*
X105645106Y-109932009D01*
X105770794Y-110105004D01*
X105770796Y-110105006D01*
X105770798Y-110105009D01*
X105921990Y-110256201D01*
X105921993Y-110256203D01*
X105921996Y-110256206D01*
X105998863Y-110312053D01*
X106042217Y-110368275D01*
X106048292Y-110439011D01*
X106015161Y-110501803D01*
X105982006Y-110526254D01*
X105855355Y-110590786D01*
X105840987Y-110598108D01*
X105667993Y-110723796D01*
X105667990Y-110723798D01*
X105516798Y-110874990D01*
X105516796Y-110874993D01*
X105391108Y-111047987D01*
X105294029Y-111238515D01*
X105294026Y-111238521D01*
X105227952Y-111441878D01*
X105227952Y-111441880D01*
X105227951Y-111441884D01*
X105194500Y-111653084D01*
X105194500Y-111866916D01*
X105227933Y-112078004D01*
X105227952Y-112078121D01*
X105293964Y-112281286D01*
X105294028Y-112281483D01*
X105391106Y-112472009D01*
X105516794Y-112645004D01*
X105516796Y-112645006D01*
X105516798Y-112645009D01*
X105667990Y-112796201D01*
X105667993Y-112796203D01*
X105667996Y-112796206D01*
X105840991Y-112921894D01*
X105982005Y-112993744D01*
X106033620Y-113042491D01*
X106050686Y-113111406D01*
X106027786Y-113178607D01*
X105998864Y-113207946D01*
X105921989Y-113263799D01*
X105770798Y-113414990D01*
X105770796Y-113414993D01*
X105645108Y-113587987D01*
X105548029Y-113778515D01*
X105548026Y-113778521D01*
X105481952Y-113981878D01*
X105481951Y-113981883D01*
X105481951Y-113981884D01*
X105448500Y-114193084D01*
X105448500Y-114406916D01*
X105479004Y-114599510D01*
X105481952Y-114618121D01*
X105548026Y-114821478D01*
X105548028Y-114821483D01*
X105645106Y-115012009D01*
X105770794Y-115185004D01*
X105770796Y-115185006D01*
X105770798Y-115185009D01*
X105921990Y-115336201D01*
X105921993Y-115336203D01*
X105921996Y-115336206D01*
X105990499Y-115385976D01*
X105999317Y-115392383D01*
X106042671Y-115448605D01*
X106048746Y-115519342D01*
X106015614Y-115582133D01*
X105982459Y-115606586D01*
X105841250Y-115678535D01*
X105668320Y-115804177D01*
X105517177Y-115955320D01*
X105391536Y-116128249D01*
X105294493Y-116318707D01*
X105294490Y-116318713D01*
X105228440Y-116521995D01*
X105218302Y-116586000D01*
X106122297Y-116586000D01*
X106087075Y-116647007D01*
X106053000Y-116774174D01*
X106053000Y-116905826D01*
X106087075Y-117032993D01*
X106122297Y-117094000D01*
X105218302Y-117094000D01*
X105228440Y-117158004D01*
X105294490Y-117361286D01*
X105294493Y-117361292D01*
X105391536Y-117551750D01*
X105517177Y-117724679D01*
X105668320Y-117875822D01*
X105841249Y-118001463D01*
X106031707Y-118098506D01*
X106031713Y-118098509D01*
X106234998Y-118164560D01*
X106299000Y-118174696D01*
X106299000Y-117270702D01*
X106360007Y-117305925D01*
X106487174Y-117340000D01*
X106618826Y-117340000D01*
X106745993Y-117305925D01*
X106807000Y-117270702D01*
X106807000Y-118174696D01*
X106871001Y-118164560D01*
X107074286Y-118098509D01*
X107074292Y-118098506D01*
X107264750Y-118001463D01*
X107437679Y-117875822D01*
X107588822Y-117724679D01*
X107714463Y-117551750D01*
X107811506Y-117361292D01*
X107811509Y-117361286D01*
X107877559Y-117158004D01*
X107887698Y-117094000D01*
X106983703Y-117094000D01*
X107018925Y-117032993D01*
X107053000Y-116905826D01*
X107053000Y-116774174D01*
X107018925Y-116647007D01*
X106983703Y-116586000D01*
X107887697Y-116586000D01*
X107877559Y-116521995D01*
X107811509Y-116318713D01*
X107811506Y-116318707D01*
X107714463Y-116128249D01*
X107588822Y-115955320D01*
X107437679Y-115804177D01*
X107360636Y-115748202D01*
X107317282Y-115691979D01*
X107311207Y-115621243D01*
X107344339Y-115558451D01*
X107377491Y-115534000D01*
X107519009Y-115461894D01*
X107692004Y-115336206D01*
X107843206Y-115185004D01*
X107968894Y-115012009D01*
X107998707Y-114953496D01*
X108047455Y-114901882D01*
X108110974Y-114884700D01*
X121234975Y-114884700D01*
X121234977Y-114884700D01*
X121383686Y-114844853D01*
X121517014Y-114767876D01*
X121625876Y-114659014D01*
X121685380Y-114599510D01*
X121685393Y-114599495D01*
X128640386Y-107644505D01*
X128702698Y-107610479D01*
X128729481Y-107607600D01*
X131280675Y-107607600D01*
X131280677Y-107607600D01*
X131429386Y-107567753D01*
X131562714Y-107490776D01*
X131671576Y-107381914D01*
X131731101Y-107322389D01*
X131731103Y-107322385D01*
X132674876Y-106378615D01*
X132713364Y-106311950D01*
X132751853Y-106245286D01*
X132791700Y-106096577D01*
X132791700Y-103868669D01*
X132811702Y-103800548D01*
X132828603Y-103779575D01*
X132838731Y-103769448D01*
X132927737Y-103636242D01*
X132989045Y-103488231D01*
X133020300Y-103331103D01*
X133020300Y-103170897D01*
X132989045Y-103013769D01*
X132927737Y-102865758D01*
X132838731Y-102732552D01*
X132838726Y-102732546D01*
X132725453Y-102619273D01*
X132725447Y-102619268D01*
X132681247Y-102589734D01*
X132592242Y-102530263D01*
X132482192Y-102484679D01*
X132444234Y-102468956D01*
X132444231Y-102468955D01*
X132287106Y-102437700D01*
X132287103Y-102437700D01*
X132126897Y-102437700D01*
X132126893Y-102437700D01*
X131969768Y-102468955D01*
X131969765Y-102468956D01*
X131918051Y-102490377D01*
X131847461Y-102497966D01*
X131783974Y-102466186D01*
X131753424Y-102422186D01*
X131750568Y-102415292D01*
X131726737Y-102357758D01*
X131637731Y-102224552D01*
X131637726Y-102224546D01*
X131524453Y-102111273D01*
X131524447Y-102111268D01*
X131447659Y-102059960D01*
X131391242Y-102022263D01*
X131259486Y-101967688D01*
X131243234Y-101960956D01*
X131243231Y-101960955D01*
X131137478Y-101939919D01*
X131086106Y-101929700D01*
X131086103Y-101929700D01*
X130925897Y-101929700D01*
X130925893Y-101929700D01*
X130815777Y-101951604D01*
X130786910Y-101949020D01*
X130757935Y-101949556D01*
X130748869Y-101945616D01*
X130745063Y-101945276D01*
X130725046Y-101935264D01*
X130716025Y-101929700D01*
X130705248Y-101923052D01*
X130657772Y-101870264D01*
X130645400Y-101815814D01*
X130645400Y-101563597D01*
X130665402Y-101495476D01*
X130686962Y-101472043D01*
X130686332Y-101471413D01*
X130692171Y-101465573D01*
X130692172Y-101465572D01*
X130787705Y-101341072D01*
X130847760Y-101196087D01*
X130854189Y-101147254D01*
X130882911Y-101082326D01*
X130942177Y-101043235D01*
X130979111Y-101037700D01*
X132919606Y-101037700D01*
X132919608Y-101037700D01*
X133068317Y-100997853D01*
X133201645Y-100920876D01*
X133310507Y-100812014D01*
X133370032Y-100752489D01*
X133370033Y-100752486D01*
X133555918Y-100566604D01*
X133618231Y-100532579D01*
X133645013Y-100529700D01*
X144098975Y-100529700D01*
X144098977Y-100529700D01*
X144247686Y-100489853D01*
X144381014Y-100412876D01*
X144489876Y-100304014D01*
X148171703Y-96622185D01*
X148234015Y-96588160D01*
X148304830Y-96593225D01*
X148361666Y-96635772D01*
X148385247Y-96691570D01*
X148408440Y-96838003D01*
X148474490Y-97041286D01*
X148474493Y-97041292D01*
X148571536Y-97231750D01*
X148697177Y-97404679D01*
X148848320Y-97555822D01*
X149021252Y-97681465D01*
X149162959Y-97753668D01*
X149214575Y-97802416D01*
X149231641Y-97871331D01*
X149208741Y-97938532D01*
X149179819Y-97967870D01*
X149102323Y-98024175D01*
X149102317Y-98024180D01*
X148951177Y-98175320D01*
X148825536Y-98348249D01*
X148728493Y-98538707D01*
X148728490Y-98538713D01*
X148662440Y-98741995D01*
X148652302Y-98806000D01*
X149556297Y-98806000D01*
X149521075Y-98867007D01*
X149487000Y-98994174D01*
X149487000Y-99125826D01*
X149521075Y-99252993D01*
X149556297Y-99314000D01*
X148652302Y-99314000D01*
X148662440Y-99378004D01*
X148728490Y-99581286D01*
X148728493Y-99581292D01*
X148825536Y-99771750D01*
X148951177Y-99944679D01*
X149102316Y-100095818D01*
X149179819Y-100152128D01*
X149223172Y-100208351D01*
X149229247Y-100279087D01*
X149196115Y-100341879D01*
X149162960Y-100366331D01*
X149021250Y-100438535D01*
X148848320Y-100564177D01*
X148697177Y-100715320D01*
X148571536Y-100888249D01*
X148474493Y-101078707D01*
X148474490Y-101078713D01*
X148408440Y-101281995D01*
X148398302Y-101346000D01*
X149302297Y-101346000D01*
X149267075Y-101407007D01*
X149233000Y-101534174D01*
X149233000Y-101665826D01*
X149267075Y-101792993D01*
X149302297Y-101854000D01*
X148398302Y-101854000D01*
X148408440Y-101918004D01*
X148474490Y-102121286D01*
X148474493Y-102121292D01*
X148571536Y-102311750D01*
X148697177Y-102484679D01*
X148848320Y-102635822D01*
X149021252Y-102761465D01*
X149162959Y-102833668D01*
X149214575Y-102882416D01*
X149231641Y-102951331D01*
X149208741Y-103018532D01*
X149179819Y-103047870D01*
X149102323Y-103104175D01*
X149102317Y-103104180D01*
X148951177Y-103255320D01*
X148825536Y-103428249D01*
X148728493Y-103618707D01*
X148728490Y-103618713D01*
X148662440Y-103821995D01*
X148652302Y-103886000D01*
X149556297Y-103886000D01*
X149521075Y-103947007D01*
X149487000Y-104074174D01*
X149487000Y-104205826D01*
X149521075Y-104332993D01*
X149556297Y-104394000D01*
X148652302Y-104394000D01*
X148662440Y-104458004D01*
X148728490Y-104661286D01*
X148728493Y-104661292D01*
X148825536Y-104851750D01*
X148951177Y-105024679D01*
X149102316Y-105175818D01*
X149179819Y-105232128D01*
X149223172Y-105288351D01*
X149229247Y-105359087D01*
X149196115Y-105421879D01*
X149162960Y-105446331D01*
X149021250Y-105518535D01*
X148848320Y-105644177D01*
X148697177Y-105795320D01*
X148571536Y-105968249D01*
X148474493Y-106158707D01*
X148474490Y-106158713D01*
X148408440Y-106361995D01*
X148398302Y-106426000D01*
X149302297Y-106426000D01*
X149267075Y-106487007D01*
X149233000Y-106614174D01*
X149233000Y-106745826D01*
X149267075Y-106872993D01*
X149302297Y-106934000D01*
X148398302Y-106934000D01*
X148408440Y-106998004D01*
X148474490Y-107201286D01*
X148474493Y-107201292D01*
X148571536Y-107391750D01*
X148697177Y-107564679D01*
X148848320Y-107715822D01*
X149021252Y-107841465D01*
X149162959Y-107913668D01*
X149214575Y-107962416D01*
X149231641Y-108031331D01*
X149208741Y-108098532D01*
X149179819Y-108127870D01*
X149102323Y-108184175D01*
X149102317Y-108184180D01*
X148951177Y-108335320D01*
X148825536Y-108508249D01*
X148728493Y-108698707D01*
X148728490Y-108698713D01*
X148662440Y-108901995D01*
X148652302Y-108966000D01*
X149556297Y-108966000D01*
X149521075Y-109027007D01*
X149487000Y-109154174D01*
X149487000Y-109285826D01*
X149521075Y-109412993D01*
X149556297Y-109474000D01*
X148652302Y-109474000D01*
X148662440Y-109538004D01*
X148728490Y-109741286D01*
X148728493Y-109741292D01*
X148825536Y-109931750D01*
X148951177Y-110104679D01*
X149102316Y-110255818D01*
X149179819Y-110312128D01*
X149223172Y-110368351D01*
X149229247Y-110439087D01*
X149196115Y-110501879D01*
X149162960Y-110526331D01*
X149021250Y-110598535D01*
X148848320Y-110724177D01*
X148697177Y-110875320D01*
X148571536Y-111048249D01*
X148474493Y-111238707D01*
X148474490Y-111238713D01*
X148408440Y-111441995D01*
X148398302Y-111506000D01*
X149302297Y-111506000D01*
X149267075Y-111567007D01*
X149233000Y-111694174D01*
X149233000Y-111825826D01*
X149267075Y-111952993D01*
X149302297Y-112014000D01*
X148398302Y-112014000D01*
X148408440Y-112078004D01*
X148474490Y-112281286D01*
X148474493Y-112281292D01*
X148571536Y-112471750D01*
X148697177Y-112644679D01*
X148848320Y-112795822D01*
X149021252Y-112921465D01*
X149162458Y-112993413D01*
X149214074Y-113042161D01*
X149231140Y-113111076D01*
X149208240Y-113178277D01*
X149179318Y-113207615D01*
X149101996Y-113263793D01*
X149101990Y-113263798D01*
X148950798Y-113414990D01*
X148950796Y-113414993D01*
X148825108Y-113587987D01*
X148728029Y-113778515D01*
X148728026Y-113778521D01*
X148661952Y-113981878D01*
X148661951Y-113981883D01*
X148661951Y-113981884D01*
X148628500Y-114193084D01*
X148628500Y-114406916D01*
X148659004Y-114599510D01*
X148661952Y-114618121D01*
X148728026Y-114821478D01*
X148728028Y-114821483D01*
X148825106Y-115012009D01*
X148950794Y-115185004D01*
X148950796Y-115185006D01*
X148950798Y-115185009D01*
X149101990Y-115336201D01*
X149101993Y-115336203D01*
X149101996Y-115336206D01*
X149170499Y-115385976D01*
X149179317Y-115392383D01*
X149222671Y-115448605D01*
X149228746Y-115519342D01*
X149195614Y-115582133D01*
X149162459Y-115606586D01*
X149021250Y-115678535D01*
X148848320Y-115804177D01*
X148697177Y-115955320D01*
X148571536Y-116128249D01*
X148474493Y-116318707D01*
X148474490Y-116318713D01*
X148408440Y-116521995D01*
X148398302Y-116586000D01*
X149302297Y-116586000D01*
X149267075Y-116647007D01*
X149233000Y-116774174D01*
X149233000Y-116905826D01*
X149267075Y-117032993D01*
X149302297Y-117094000D01*
X148398302Y-117094000D01*
X148408440Y-117158004D01*
X148474490Y-117361286D01*
X148474493Y-117361292D01*
X148571536Y-117551750D01*
X148697177Y-117724679D01*
X148848320Y-117875822D01*
X149021249Y-118001463D01*
X149211707Y-118098506D01*
X149211713Y-118098509D01*
X149414998Y-118164560D01*
X149479000Y-118174696D01*
X149479000Y-117270702D01*
X149540007Y-117305925D01*
X149667174Y-117340000D01*
X149798826Y-117340000D01*
X149925993Y-117305925D01*
X149987000Y-117270702D01*
X149987000Y-118174696D01*
X150051001Y-118164560D01*
X150254286Y-118098509D01*
X150254292Y-118098506D01*
X150444750Y-118001463D01*
X150617679Y-117875822D01*
X150768822Y-117724679D01*
X150894463Y-117551750D01*
X150991506Y-117361292D01*
X150991509Y-117361286D01*
X151057559Y-117158004D01*
X151067698Y-117094000D01*
X150163703Y-117094000D01*
X150198925Y-117032993D01*
X150233000Y-116905826D01*
X150233000Y-116774174D01*
X150198925Y-116647007D01*
X150163703Y-116586000D01*
X151067697Y-116586000D01*
X151057559Y-116521995D01*
X150991509Y-116318713D01*
X150991506Y-116318707D01*
X150894463Y-116128249D01*
X150768822Y-115955320D01*
X150617679Y-115804177D01*
X150540636Y-115748202D01*
X150497282Y-115691979D01*
X150491207Y-115621243D01*
X150524339Y-115558451D01*
X150557491Y-115534000D01*
X150699009Y-115461894D01*
X150872004Y-115336206D01*
X151023206Y-115185004D01*
X151148894Y-115012009D01*
X151245972Y-114821483D01*
X151312049Y-114618116D01*
X151345500Y-114406916D01*
X151345500Y-114193084D01*
X151312049Y-113981884D01*
X151245972Y-113778517D01*
X151148894Y-113587991D01*
X151023206Y-113414996D01*
X151023203Y-113414993D01*
X151023201Y-113414990D01*
X150872009Y-113263798D01*
X150872006Y-113263796D01*
X150872004Y-113263794D01*
X150699012Y-113138108D01*
X150699011Y-113138107D01*
X150557494Y-113066000D01*
X150505879Y-113017251D01*
X150488813Y-112948336D01*
X150511714Y-112881135D01*
X150540636Y-112851797D01*
X150617679Y-112795821D01*
X150617682Y-112795819D01*
X150768822Y-112644679D01*
X150894463Y-112471750D01*
X150991506Y-112281292D01*
X150991509Y-112281286D01*
X151057559Y-112078004D01*
X151067698Y-112014000D01*
X150163703Y-112014000D01*
X150198925Y-111952993D01*
X150233000Y-111825826D01*
X150233000Y-111694174D01*
X150198925Y-111567007D01*
X150163703Y-111506000D01*
X151067697Y-111506000D01*
X151057559Y-111441995D01*
X150991509Y-111238713D01*
X150991506Y-111238707D01*
X150894463Y-111048249D01*
X150768822Y-110875320D01*
X150617683Y-110724181D01*
X150540180Y-110667871D01*
X150496827Y-110611648D01*
X150490752Y-110540912D01*
X150523884Y-110478120D01*
X150557040Y-110453668D01*
X150698747Y-110381465D01*
X150871679Y-110255822D01*
X151022822Y-110104679D01*
X151148463Y-109931750D01*
X151245506Y-109741292D01*
X151245509Y-109741286D01*
X151311559Y-109538004D01*
X151321698Y-109474000D01*
X150417703Y-109474000D01*
X150452925Y-109412993D01*
X150487000Y-109285826D01*
X150487000Y-109154174D01*
X150452925Y-109027007D01*
X150417703Y-108966000D01*
X151321697Y-108966000D01*
X151311559Y-108901995D01*
X151245509Y-108698713D01*
X151245506Y-108698707D01*
X151148463Y-108508249D01*
X151022822Y-108335320D01*
X150871679Y-108184177D01*
X150698750Y-108058536D01*
X150557039Y-107986331D01*
X150505424Y-107937583D01*
X150488358Y-107868668D01*
X150511259Y-107801466D01*
X150540181Y-107772128D01*
X150617679Y-107715821D01*
X150617682Y-107715819D01*
X150768822Y-107564679D01*
X150894463Y-107391750D01*
X150991506Y-107201292D01*
X150991509Y-107201286D01*
X151057559Y-106998004D01*
X151067698Y-106934000D01*
X150163703Y-106934000D01*
X150198925Y-106872993D01*
X150233000Y-106745826D01*
X150233000Y-106614174D01*
X150198925Y-106487007D01*
X150163703Y-106426000D01*
X151067697Y-106426000D01*
X151057559Y-106361995D01*
X150991509Y-106158713D01*
X150991506Y-106158707D01*
X150894463Y-105968249D01*
X150768822Y-105795320D01*
X150617683Y-105644181D01*
X150540180Y-105587871D01*
X150496827Y-105531648D01*
X150490752Y-105460912D01*
X150523884Y-105398120D01*
X150557040Y-105373668D01*
X150698747Y-105301465D01*
X150871679Y-105175822D01*
X151022822Y-105024679D01*
X151148463Y-104851750D01*
X151245506Y-104661292D01*
X151245509Y-104661286D01*
X151311559Y-104458004D01*
X151321698Y-104394000D01*
X150417703Y-104394000D01*
X150452925Y-104332993D01*
X150487000Y-104205826D01*
X150487000Y-104074174D01*
X150452925Y-103947007D01*
X150417703Y-103886000D01*
X151321697Y-103886000D01*
X151311559Y-103821995D01*
X151245509Y-103618713D01*
X151245506Y-103618707D01*
X151148463Y-103428249D01*
X151022822Y-103255320D01*
X150871679Y-103104177D01*
X150698750Y-102978536D01*
X150557039Y-102906331D01*
X150505424Y-102857583D01*
X150488358Y-102788668D01*
X150511259Y-102721466D01*
X150540181Y-102692128D01*
X150617679Y-102635821D01*
X150617682Y-102635819D01*
X150768822Y-102484679D01*
X150894463Y-102311750D01*
X150991506Y-102121292D01*
X150991509Y-102121286D01*
X151057559Y-101918004D01*
X151067698Y-101854000D01*
X150163703Y-101854000D01*
X150198925Y-101792993D01*
X150233000Y-101665826D01*
X150233000Y-101534174D01*
X150198925Y-101407007D01*
X150163703Y-101346000D01*
X151067697Y-101346000D01*
X151057559Y-101281995D01*
X150991509Y-101078713D01*
X150991506Y-101078707D01*
X150894463Y-100888249D01*
X150768822Y-100715320D01*
X150617683Y-100564181D01*
X150540180Y-100507871D01*
X150496827Y-100451648D01*
X150490752Y-100380912D01*
X150523884Y-100318120D01*
X150557040Y-100293668D01*
X150698747Y-100221465D01*
X150871679Y-100095822D01*
X151022822Y-99944679D01*
X151148463Y-99771750D01*
X151245506Y-99581292D01*
X151245509Y-99581286D01*
X151311559Y-99378004D01*
X151321698Y-99314000D01*
X150417703Y-99314000D01*
X150452925Y-99252993D01*
X150487000Y-99125826D01*
X150487000Y-98994174D01*
X150452925Y-98867007D01*
X150417703Y-98806000D01*
X151321697Y-98806000D01*
X151311559Y-98741995D01*
X151245509Y-98538713D01*
X151245506Y-98538707D01*
X151148463Y-98348249D01*
X151022822Y-98175320D01*
X150871679Y-98024177D01*
X150698750Y-97898536D01*
X150557039Y-97826331D01*
X150505424Y-97777583D01*
X150488358Y-97708668D01*
X150511259Y-97641466D01*
X150540181Y-97612128D01*
X150617679Y-97555821D01*
X150617682Y-97555819D01*
X150768822Y-97404679D01*
X150894463Y-97231750D01*
X150991506Y-97041292D01*
X150991509Y-97041286D01*
X151057559Y-96838004D01*
X151067698Y-96774000D01*
X150163703Y-96774000D01*
X150198925Y-96712993D01*
X150233000Y-96585826D01*
X150233000Y-96454174D01*
X150198925Y-96327007D01*
X150163703Y-96266000D01*
X151067697Y-96266000D01*
X151057559Y-96201995D01*
X150991509Y-95998713D01*
X150991506Y-95998707D01*
X150894463Y-95808249D01*
X150768822Y-95635320D01*
X150617679Y-95484177D01*
X150540636Y-95428202D01*
X150497282Y-95371979D01*
X150491207Y-95301243D01*
X150524339Y-95238451D01*
X150557491Y-95214000D01*
X150699009Y-95141894D01*
X150872004Y-95016206D01*
X151023206Y-94865004D01*
X151148894Y-94692009D01*
X151245972Y-94501483D01*
X151312049Y-94298116D01*
X151345500Y-94086916D01*
X151345500Y-93873084D01*
X151312049Y-93661884D01*
X151245972Y-93458517D01*
X151148894Y-93267991D01*
X151023206Y-93094996D01*
X151023203Y-93094993D01*
X151023201Y-93094990D01*
X150872009Y-92943798D01*
X150872006Y-92943796D01*
X150872004Y-92943794D01*
X150699009Y-92818106D01*
X150557992Y-92746254D01*
X150506379Y-92697508D01*
X150489313Y-92628593D01*
X150512214Y-92561391D01*
X150541133Y-92532055D01*
X150618004Y-92476206D01*
X150769206Y-92325004D01*
X150894894Y-92152009D01*
X150991972Y-91961483D01*
X151058049Y-91758116D01*
X151091500Y-91546916D01*
X151091500Y-91333084D01*
X151058049Y-91121884D01*
X150991972Y-90918517D01*
X150894894Y-90727991D01*
X150769206Y-90554996D01*
X150769203Y-90554993D01*
X150769201Y-90554990D01*
X150618006Y-90403795D01*
X150541136Y-90347946D01*
X150497782Y-90291723D01*
X150491707Y-90220987D01*
X150524839Y-90158196D01*
X150557989Y-90133747D01*
X150699009Y-90061894D01*
X150872004Y-89936206D01*
X151023206Y-89785004D01*
X151148894Y-89612009D01*
X151245972Y-89421483D01*
X151312049Y-89218116D01*
X151345500Y-89006916D01*
X151345500Y-88793084D01*
X151312049Y-88581884D01*
X151279414Y-88481443D01*
X151277386Y-88410476D01*
X151290126Y-88379512D01*
X151306654Y-88350885D01*
X151346500Y-88202177D01*
X151346500Y-88048223D01*
X151346500Y-84794524D01*
X151366502Y-84726403D01*
X151383405Y-84705428D01*
X151383829Y-84705004D01*
X151483676Y-84605158D01*
X151525908Y-84532009D01*
X151560653Y-84471829D01*
X151600500Y-84323120D01*
X151600500Y-83316880D01*
X151589317Y-83275146D01*
X151560654Y-83168172D01*
X151560652Y-83168169D01*
X151560652Y-83168167D01*
X151483679Y-83034846D01*
X151483674Y-83034840D01*
X150779920Y-82331087D01*
X150745895Y-82268774D01*
X150750959Y-82197959D01*
X150767079Y-82167930D01*
X150769201Y-82165008D01*
X150769206Y-82165004D01*
X150894894Y-81992009D01*
X150991972Y-81801483D01*
X151058049Y-81598116D01*
X151091500Y-81386916D01*
X151091500Y-81173084D01*
X151058049Y-80961884D01*
X150991972Y-80758517D01*
X150894894Y-80567991D01*
X150769206Y-80394996D01*
X150769203Y-80394993D01*
X150769201Y-80394990D01*
X150618006Y-80243795D01*
X150541136Y-80187946D01*
X150497782Y-80131723D01*
X150491707Y-80060987D01*
X150524839Y-79998196D01*
X150557989Y-79973747D01*
X150699009Y-79901894D01*
X150872004Y-79776206D01*
X151023206Y-79625004D01*
X151148894Y-79452009D01*
X151245972Y-79261483D01*
X151312049Y-79058116D01*
X151345500Y-78846916D01*
X151345500Y-78633084D01*
X151312049Y-78421884D01*
X151245972Y-78218517D01*
X151148894Y-78027991D01*
X151023206Y-77854996D01*
X151023203Y-77854993D01*
X151023201Y-77854990D01*
X150872009Y-77703798D01*
X150872005Y-77703795D01*
X150872004Y-77703794D01*
X150850949Y-77688497D01*
X150807597Y-77632277D01*
X150801520Y-77561541D01*
X150834651Y-77498749D01*
X150849502Y-77485694D01*
X150915278Y-77436455D01*
X150946261Y-77413261D01*
X151015501Y-77320768D01*
X151033887Y-77296207D01*
X151033887Y-77296206D01*
X151033889Y-77296204D01*
X151084989Y-77159201D01*
X151091499Y-77098652D01*
X151091499Y-77098649D01*
X151091500Y-77098632D01*
X151091500Y-75301367D01*
X151091499Y-75301350D01*
X151084990Y-75240803D01*
X151084988Y-75240795D01*
X151033889Y-75103797D01*
X151033887Y-75103792D01*
X150946261Y-74986738D01*
X150829207Y-74899112D01*
X150829202Y-74899110D01*
X150692204Y-74848011D01*
X150692196Y-74848009D01*
X150631649Y-74841500D01*
X150631638Y-74841500D01*
X148834362Y-74841500D01*
X148834350Y-74841500D01*
X148773803Y-74848009D01*
X148773795Y-74848011D01*
X148636797Y-74899110D01*
X148636792Y-74899112D01*
X148519738Y-74986738D01*
X148432112Y-75103792D01*
X148432110Y-75103797D01*
X148381011Y-75240795D01*
X148381009Y-75240803D01*
X148374500Y-75301350D01*
X148374500Y-77098632D01*
X148374501Y-77098652D01*
X148381723Y-77165833D01*
X148369117Y-77235701D01*
X148320738Y-77287663D01*
X148256445Y-77305300D01*
X133785846Y-77305300D01*
X133717725Y-77285298D01*
X133671232Y-77231642D01*
X133661128Y-77161368D01*
X133690622Y-77096788D01*
X133750348Y-77058404D01*
X133773039Y-77053953D01*
X133814229Y-77049744D01*
X133814241Y-77049742D01*
X133976884Y-76995847D01*
X134122728Y-76905890D01*
X134122734Y-76905885D01*
X134243885Y-76784734D01*
X134243890Y-76784728D01*
X134333847Y-76638884D01*
X134387742Y-76476241D01*
X134387744Y-76476229D01*
X134397999Y-76375852D01*
X134398000Y-76375852D01*
X134398000Y-76331000D01*
X133566000Y-76331000D01*
X133497879Y-76310998D01*
X133451386Y-76257342D01*
X133440000Y-76205000D01*
X133440000Y-76077000D01*
X133312000Y-76077000D01*
X133243879Y-76056998D01*
X133197386Y-76003342D01*
X133186000Y-75951000D01*
X133186000Y-75823000D01*
X133694000Y-75823000D01*
X134398000Y-75823000D01*
X134398000Y-75778147D01*
X134387744Y-75677770D01*
X134387742Y-75677758D01*
X134333847Y-75515115D01*
X134243890Y-75369271D01*
X134243885Y-75369265D01*
X134122734Y-75248114D01*
X134122728Y-75248109D01*
X133976884Y-75158152D01*
X133814241Y-75104257D01*
X133814229Y-75104255D01*
X133713852Y-75094000D01*
X133694000Y-75094000D01*
X133694000Y-75823000D01*
X133186000Y-75823000D01*
X133186000Y-75094000D01*
X133166147Y-75094000D01*
X133065770Y-75104255D01*
X133065758Y-75104257D01*
X132903115Y-75158152D01*
X132757271Y-75248109D01*
X132757267Y-75248112D01*
X132754442Y-75250938D01*
X132752026Y-75252256D01*
X132751514Y-75252662D01*
X132751444Y-75252574D01*
X132692128Y-75284959D01*
X132621312Y-75279890D01*
X132576253Y-75250928D01*
X132573040Y-75247715D01*
X132427101Y-75157698D01*
X132264433Y-75103796D01*
X132264333Y-75103763D01*
X132163880Y-75093500D01*
X132163872Y-75093500D01*
X131616128Y-75093500D01*
X131616120Y-75093500D01*
X131515666Y-75103763D01*
X131352899Y-75157698D01*
X131206959Y-75247715D01*
X131136512Y-75318162D01*
X131074199Y-75352187D01*
X131003384Y-75347121D01*
X130999199Y-75345475D01*
X130877234Y-75294956D01*
X130877231Y-75294955D01*
X130720106Y-75263700D01*
X130720103Y-75263700D01*
X130584689Y-75263700D01*
X130518543Y-75244941D01*
X130377101Y-75157698D01*
X130214433Y-75103796D01*
X130214333Y-75103763D01*
X130113880Y-75093500D01*
X130113872Y-75093500D01*
X129566128Y-75093500D01*
X129566120Y-75093500D01*
X129465666Y-75103763D01*
X129302899Y-75157698D01*
X129156959Y-75247715D01*
X129156953Y-75247720D01*
X129153742Y-75250932D01*
X129091430Y-75284958D01*
X129020615Y-75279893D01*
X128975552Y-75250932D01*
X128972734Y-75248114D01*
X128972728Y-75248109D01*
X128826884Y-75158152D01*
X128664241Y-75104257D01*
X128664229Y-75104255D01*
X128563852Y-75094000D01*
X128544000Y-75094000D01*
X128544000Y-77049358D01*
X128599752Y-77056330D01*
X128664238Y-77049742D01*
X128664241Y-77049742D01*
X128826884Y-76995847D01*
X128972727Y-76905890D01*
X128975546Y-76903072D01*
X128977960Y-76901753D01*
X128978486Y-76901338D01*
X128978556Y-76901427D01*
X129037856Y-76869043D01*
X129108672Y-76874104D01*
X129153745Y-76903070D01*
X129156960Y-76906285D01*
X129302899Y-76996302D01*
X129458602Y-77047896D01*
X129516973Y-77088309D01*
X129544229Y-77153865D01*
X129531716Y-77223750D01*
X129483407Y-77275776D01*
X129438993Y-77291899D01*
X129429047Y-77293500D01*
X129372681Y-77293500D01*
X129240630Y-77319767D01*
X129224587Y-77326411D01*
X129210024Y-77328756D01*
X129188845Y-77326073D01*
X129167623Y-77328354D01*
X129141787Y-77320768D01*
X129139375Y-77319769D01*
X129139374Y-77319768D01*
X129139370Y-77319767D01*
X129020903Y-77296202D01*
X129007320Y-77293500D01*
X129007319Y-77293500D01*
X128872681Y-77293500D01*
X128872679Y-77293500D01*
X128824027Y-77303178D01*
X128740630Y-77319767D01*
X128740628Y-77319768D01*
X128740624Y-77319769D01*
X128738213Y-77320768D01*
X128736848Y-77320914D01*
X128734704Y-77321565D01*
X128734580Y-77321158D01*
X128667623Y-77328354D01*
X128641787Y-77320768D01*
X128639375Y-77319769D01*
X128639371Y-77319767D01*
X128578180Y-77307595D01*
X128578175Y-77307594D01*
X128507319Y-77293500D01*
X128372681Y-77293500D01*
X128372677Y-77293500D01*
X128240629Y-77319767D01*
X128240626Y-77319768D01*
X128116242Y-77371289D01*
X128049320Y-77416005D01*
X128018530Y-77425645D01*
X127988308Y-77436918D01*
X127984897Y-77436176D01*
X127981567Y-77437219D01*
X127950454Y-77428683D01*
X127918934Y-77421827D01*
X127915158Y-77419000D01*
X127913100Y-77418436D01*
X127890224Y-77400334D01*
X127729152Y-77239262D01*
X127695126Y-77176950D01*
X127700191Y-77106135D01*
X127742738Y-77049299D01*
X127809258Y-77024488D01*
X127857880Y-77030563D01*
X127915758Y-77049742D01*
X127915770Y-77049744D01*
X128016147Y-77059999D01*
X128016147Y-77060000D01*
X128036000Y-77060000D01*
X128036000Y-76331000D01*
X127332000Y-76331000D01*
X127332000Y-76375852D01*
X127342255Y-76476229D01*
X127342256Y-76476232D01*
X127367074Y-76551129D01*
X127367969Y-76577162D01*
X127372899Y-76602739D01*
X127369169Y-76612055D01*
X127369514Y-76622084D01*
X127356193Y-76644467D01*
X127346512Y-76668650D01*
X127338337Y-76674470D01*
X127333206Y-76683094D01*
X127309899Y-76694721D01*
X127288680Y-76709832D01*
X127278655Y-76710309D01*
X127269677Y-76714789D01*
X127243782Y-76711970D01*
X127217764Y-76713210D01*
X127203796Y-76707618D01*
X127199097Y-76707107D01*
X127184469Y-76699881D01*
X127146057Y-76677704D01*
X127063686Y-76630147D01*
X127063679Y-76630145D01*
X126914977Y-76590300D01*
X125126977Y-76590300D01*
X115501977Y-76590300D01*
X115348023Y-76590300D01*
X115268333Y-76611652D01*
X115199317Y-76630145D01*
X115199310Y-76630148D01*
X115065989Y-76707121D01*
X115065979Y-76707129D01*
X113544715Y-78228395D01*
X113482403Y-78262420D01*
X113455620Y-78265300D01*
X108167022Y-78265300D01*
X108098901Y-78245298D01*
X108054755Y-78196503D01*
X108046031Y-78179381D01*
X107968894Y-78027991D01*
X107843206Y-77854996D01*
X107843203Y-77854993D01*
X107843201Y-77854990D01*
X107692009Y-77703798D01*
X107692005Y-77703795D01*
X107692004Y-77703794D01*
X107670949Y-77688497D01*
X107627597Y-77632277D01*
X107621520Y-77561541D01*
X107654651Y-77498749D01*
X107669502Y-77485694D01*
X107735278Y-77436455D01*
X107766261Y-77413261D01*
X107835501Y-77320768D01*
X107853887Y-77296207D01*
X107853887Y-77296206D01*
X107853889Y-77296204D01*
X107904989Y-77159201D01*
X107911499Y-77098652D01*
X107911499Y-77098649D01*
X107911500Y-77098632D01*
X107911500Y-75778147D01*
X127332000Y-75778147D01*
X127332000Y-75823000D01*
X128036000Y-75823000D01*
X128036000Y-75094000D01*
X128016147Y-75094000D01*
X127915770Y-75104255D01*
X127915758Y-75104257D01*
X127753115Y-75158152D01*
X127607271Y-75248109D01*
X127607265Y-75248114D01*
X127486114Y-75369265D01*
X127486109Y-75369271D01*
X127396152Y-75515115D01*
X127342257Y-75677758D01*
X127342255Y-75677770D01*
X127332000Y-75778147D01*
X107911500Y-75778147D01*
X107911500Y-75301367D01*
X107911499Y-75301350D01*
X107904990Y-75240803D01*
X107904988Y-75240795D01*
X107853889Y-75103797D01*
X107853887Y-75103792D01*
X107766261Y-74986738D01*
X107649207Y-74899112D01*
X107649202Y-74899110D01*
X107512204Y-74848011D01*
X107512196Y-74848009D01*
X107451649Y-74841500D01*
X107451638Y-74841500D01*
X105654362Y-74841500D01*
X105654350Y-74841500D01*
X105593803Y-74848009D01*
X105593795Y-74848011D01*
X105456797Y-74899110D01*
X105456792Y-74899112D01*
X105339738Y-74986738D01*
X105252112Y-75103792D01*
X105252110Y-75103797D01*
X105201011Y-75240795D01*
X105201009Y-75240803D01*
X105194500Y-75301350D01*
X105194500Y-75489300D01*
X105174498Y-75557421D01*
X105120842Y-75603914D01*
X105068500Y-75615300D01*
X104840023Y-75615300D01*
X104740883Y-75641864D01*
X104691313Y-75655147D01*
X104627902Y-75691758D01*
X104557989Y-75732121D01*
X104557979Y-75732129D01*
X104430595Y-75859514D01*
X104368283Y-75893540D01*
X104297468Y-75888475D01*
X104240632Y-75845928D01*
X104215821Y-75779408D01*
X104215500Y-75770419D01*
X104215500Y-73664955D01*
X104215888Y-73655069D01*
X104229428Y-73483024D01*
X104232521Y-73463496D01*
X104271648Y-73300520D01*
X104277758Y-73281716D01*
X104341899Y-73126864D01*
X104350868Y-73109260D01*
X104438455Y-72966332D01*
X104450067Y-72950352D01*
X104492486Y-72900685D01*
X104558922Y-72822901D01*
X104572901Y-72808922D01*
X104650685Y-72742486D01*
X104700352Y-72700067D01*
X104716332Y-72688455D01*
X104859260Y-72600868D01*
X104876864Y-72591899D01*
X105031720Y-72527756D01*
X105050515Y-72521649D01*
X105213497Y-72482520D01*
X105233023Y-72479428D01*
X105405070Y-72465888D01*
X105414956Y-72465500D01*
X105434531Y-72465500D01*
X151105469Y-72465500D01*
X151125044Y-72465500D01*
X151134930Y-72465888D01*
G37*
%TD.AperFunction*%
%TA.AperFunction,Conductor*%
G36*
X118209536Y-101034519D02*
G01*
X118266372Y-101077066D01*
X118276627Y-101093180D01*
X118278265Y-101096245D01*
X118367268Y-101229447D01*
X118367273Y-101229453D01*
X118480546Y-101342726D01*
X118480552Y-101342731D01*
X118613758Y-101431737D01*
X118761769Y-101493045D01*
X118918897Y-101524300D01*
X119079097Y-101524300D01*
X119079103Y-101524300D01*
X119079108Y-101524298D01*
X119081806Y-101524033D01*
X119085063Y-101524300D01*
X119085294Y-101524300D01*
X119085294Y-101524318D01*
X119126776Y-101527720D01*
X119164024Y-101537701D01*
X125687326Y-101537701D01*
X125755447Y-101557703D01*
X125801940Y-101611359D01*
X125812044Y-101681633D01*
X125782550Y-101746213D01*
X125726959Y-101783305D01*
X125592575Y-101827835D01*
X125577899Y-101832698D01*
X125431959Y-101922715D01*
X125431953Y-101922720D01*
X125310720Y-102043953D01*
X125310715Y-102043959D01*
X125220698Y-102189899D01*
X125166763Y-102352666D01*
X125156500Y-102453119D01*
X125156500Y-103000880D01*
X125156499Y-103000880D01*
X125166763Y-103101333D01*
X125166764Y-103101336D01*
X125220698Y-103264101D01*
X125310715Y-103410040D01*
X125313928Y-103413253D01*
X125347956Y-103475561D01*
X125342895Y-103546377D01*
X125313938Y-103591442D01*
X125311112Y-103594267D01*
X125311109Y-103594271D01*
X125221152Y-103740115D01*
X125167257Y-103902758D01*
X125167255Y-103902770D01*
X125157000Y-104003147D01*
X125157000Y-104023000D01*
X127162009Y-104023000D01*
X127230130Y-104043002D01*
X127251104Y-104059905D01*
X127254999Y-104063800D01*
X128917664Y-104063800D01*
X128957808Y-104041879D01*
X128984591Y-104039000D01*
X131005600Y-104039000D01*
X131005600Y-104019147D01*
X130995344Y-103918770D01*
X130995342Y-103918758D01*
X130941446Y-103756114D01*
X130941446Y-103756113D01*
X130936717Y-103748445D01*
X130917981Y-103679965D01*
X130939242Y-103612227D01*
X130993750Y-103566736D01*
X131043959Y-103556300D01*
X131086103Y-103556300D01*
X131243231Y-103525045D01*
X131294948Y-103503622D01*
X131365537Y-103496033D01*
X131429025Y-103527811D01*
X131459575Y-103571811D01*
X131486263Y-103636242D01*
X131575269Y-103769448D01*
X131585393Y-103779572D01*
X131619420Y-103841882D01*
X131622300Y-103868669D01*
X131622300Y-105725218D01*
X131602298Y-105793339D01*
X131585396Y-105814313D01*
X130998415Y-106401295D01*
X130936102Y-106435320D01*
X130909319Y-106438200D01*
X128512077Y-106438200D01*
X128358123Y-106438200D01*
X128267110Y-106462586D01*
X128209410Y-106478047D01*
X128076089Y-106555020D01*
X128076079Y-106555028D01*
X120952715Y-113678395D01*
X120890403Y-113712421D01*
X120863620Y-113715300D01*
X108110974Y-113715300D01*
X108042853Y-113695298D01*
X107998707Y-113646503D01*
X107968894Y-113587991D01*
X107843206Y-113414996D01*
X107843203Y-113414993D01*
X107843201Y-113414990D01*
X107692009Y-113263798D01*
X107692006Y-113263796D01*
X107692004Y-113263794D01*
X107519009Y-113138106D01*
X107377992Y-113066254D01*
X107326379Y-113017508D01*
X107309313Y-112948593D01*
X107332214Y-112881391D01*
X107361133Y-112852055D01*
X107438004Y-112796206D01*
X107589206Y-112645004D01*
X107714894Y-112472009D01*
X107811972Y-112281483D01*
X107878049Y-112078116D01*
X107911500Y-111866916D01*
X107911500Y-111653084D01*
X107878049Y-111441884D01*
X107857754Y-111379424D01*
X107855727Y-111308459D01*
X107888491Y-111251397D01*
X114589037Y-104550852D01*
X125157000Y-104550852D01*
X125167255Y-104651229D01*
X125167257Y-104651241D01*
X125221152Y-104813884D01*
X125311109Y-104959728D01*
X125311114Y-104959734D01*
X125432265Y-105080885D01*
X125432271Y-105080890D01*
X125578115Y-105170847D01*
X125740758Y-105224742D01*
X125740770Y-105224744D01*
X125841147Y-105234999D01*
X125841147Y-105235000D01*
X125886000Y-105235000D01*
X126394000Y-105235000D01*
X126438853Y-105235000D01*
X126438852Y-105234999D01*
X126539229Y-105224744D01*
X126539241Y-105224742D01*
X126701884Y-105170847D01*
X126847728Y-105080890D01*
X126847734Y-105080885D01*
X126968885Y-104959734D01*
X126968890Y-104959728D01*
X127062698Y-104807642D01*
X127064204Y-104808571D01*
X127104991Y-104762238D01*
X127173266Y-104742769D01*
X127241228Y-104763303D01*
X127287300Y-104817320D01*
X127291885Y-104829131D01*
X127300353Y-104854685D01*
X127390309Y-105000528D01*
X127390314Y-105000534D01*
X127511465Y-105121685D01*
X127511471Y-105121690D01*
X127657315Y-105211647D01*
X127819958Y-105265542D01*
X127819970Y-105265544D01*
X127920347Y-105275799D01*
X127920347Y-105275800D01*
X127965200Y-105275800D01*
X127965200Y-104571800D01*
X128473200Y-104571800D01*
X128473200Y-105275800D01*
X128518053Y-105275800D01*
X128518052Y-105275799D01*
X128618429Y-105265544D01*
X128618441Y-105265542D01*
X128781084Y-105211647D01*
X128926928Y-105121690D01*
X128926934Y-105121685D01*
X129044205Y-105004415D01*
X129106517Y-104970389D01*
X129177332Y-104975454D01*
X129222395Y-105004415D01*
X129314865Y-105096885D01*
X129314871Y-105096890D01*
X129460715Y-105186847D01*
X129623358Y-105240742D01*
X129623370Y-105240744D01*
X129723747Y-105250999D01*
X129723747Y-105251000D01*
X129768600Y-105251000D01*
X130276600Y-105251000D01*
X130321453Y-105251000D01*
X130321452Y-105250999D01*
X130421829Y-105240744D01*
X130421841Y-105240742D01*
X130584484Y-105186847D01*
X130730328Y-105096890D01*
X130730334Y-105096885D01*
X130851485Y-104975734D01*
X130851490Y-104975728D01*
X130941447Y-104829884D01*
X130995342Y-104667241D01*
X130995344Y-104667229D01*
X131005599Y-104566852D01*
X131005600Y-104566852D01*
X131005600Y-104547000D01*
X130276600Y-104547000D01*
X130276600Y-105251000D01*
X129768600Y-105251000D01*
X129768600Y-104547000D01*
X129324136Y-104547000D01*
X129283992Y-104568921D01*
X129257209Y-104571800D01*
X128473200Y-104571800D01*
X127965200Y-104571800D01*
X127197191Y-104571800D01*
X127129070Y-104551798D01*
X127108096Y-104534895D01*
X127104201Y-104531000D01*
X126394000Y-104531000D01*
X126394000Y-105235000D01*
X125886000Y-105235000D01*
X125886000Y-104531000D01*
X125157000Y-104531000D01*
X125157000Y-104550852D01*
X114589037Y-104550852D01*
X118076411Y-101063478D01*
X118138721Y-101029454D01*
X118209536Y-101034519D01*
G37*
%TD.AperFunction*%
%TA.AperFunction,Conductor*%
G36*
X117181540Y-100088502D02*
G01*
X117228033Y-100142158D01*
X117238137Y-100212432D01*
X117208643Y-100277012D01*
X117202514Y-100283595D01*
X108368733Y-109117375D01*
X108360309Y-109121974D01*
X108354509Y-109129622D01*
X108329653Y-109138714D01*
X108306421Y-109151401D01*
X108296846Y-109150716D01*
X108287834Y-109154013D01*
X108262010Y-109148224D01*
X108235606Y-109146336D01*
X108227921Y-109140583D01*
X108218556Y-109138484D01*
X108199958Y-109119650D01*
X108178770Y-109103789D01*
X108174088Y-109093452D01*
X108168672Y-109087967D01*
X108160117Y-109062602D01*
X108156351Y-109054286D01*
X108155693Y-109051170D01*
X108132049Y-108901884D01*
X108109682Y-108833047D01*
X108108301Y-108826496D01*
X108110557Y-108797516D01*
X108109727Y-108768459D01*
X108113304Y-108762227D01*
X108113812Y-108755714D01*
X108127118Y-108738170D01*
X108142491Y-108711397D01*
X116748485Y-100105405D01*
X116810797Y-100071379D01*
X116837580Y-100068500D01*
X117113419Y-100068500D01*
X117181540Y-100088502D01*
G37*
%TD.AperFunction*%
%TA.AperFunction,Conductor*%
G36*
X114561340Y-98898702D02*
G01*
X114607833Y-98952358D01*
X114617937Y-99022632D01*
X114588443Y-99087212D01*
X114582314Y-99093795D01*
X109649715Y-104026395D01*
X109587403Y-104060421D01*
X109560620Y-104063300D01*
X108508023Y-104063300D01*
X108408883Y-104089864D01*
X108359313Y-104103147D01*
X108350671Y-104108137D01*
X108281676Y-104124873D01*
X108214584Y-104101651D01*
X108170698Y-104045843D01*
X108163227Y-104018736D01*
X108132049Y-103821884D01*
X108065972Y-103618517D01*
X107968894Y-103427991D01*
X107843206Y-103254996D01*
X107843203Y-103254993D01*
X107843201Y-103254990D01*
X107692009Y-103103798D01*
X107692006Y-103103796D01*
X107692004Y-103103794D01*
X107519009Y-102978106D01*
X107377992Y-102906254D01*
X107326379Y-102857508D01*
X107309313Y-102788593D01*
X107332214Y-102721391D01*
X107361133Y-102692055D01*
X107438004Y-102636206D01*
X107589206Y-102485004D01*
X107714894Y-102312009D01*
X107811972Y-102121483D01*
X107878049Y-101918116D01*
X107911500Y-101706916D01*
X107911500Y-101493084D01*
X107878049Y-101281884D01*
X107857754Y-101219424D01*
X107855727Y-101148459D01*
X107888491Y-101091397D01*
X110064285Y-98915605D01*
X110126597Y-98881579D01*
X110153380Y-98878700D01*
X114493219Y-98878700D01*
X114561340Y-98898702D01*
G37*
%TD.AperFunction*%
%TA.AperFunction,Conductor*%
G36*
X133643739Y-88742702D02*
G01*
X133690232Y-88796358D01*
X133699195Y-88824114D01*
X133710955Y-88883231D01*
X133772263Y-89031242D01*
X133813524Y-89092993D01*
X133861268Y-89164447D01*
X133861273Y-89164453D01*
X133974546Y-89277726D01*
X133974552Y-89277731D01*
X134107758Y-89366737D01*
X134255769Y-89428045D01*
X134412897Y-89459300D01*
X134573103Y-89459300D01*
X134730231Y-89428045D01*
X134878242Y-89366737D01*
X135011448Y-89277731D01*
X135013907Y-89275272D01*
X135021575Y-89267605D01*
X135083887Y-89233579D01*
X135110670Y-89230700D01*
X146644620Y-89230700D01*
X146712741Y-89250702D01*
X146733715Y-89267605D01*
X148397505Y-90931396D01*
X148431531Y-90993708D01*
X148428244Y-91059425D01*
X148407951Y-91121881D01*
X148407951Y-91121884D01*
X148374500Y-91333084D01*
X148374500Y-91546916D01*
X148379803Y-91580395D01*
X148407952Y-91758121D01*
X148474026Y-91961478D01*
X148474028Y-91961483D01*
X148571106Y-92152009D01*
X148696794Y-92325004D01*
X148696796Y-92325006D01*
X148696798Y-92325009D01*
X148847990Y-92476201D01*
X148847993Y-92476203D01*
X148847996Y-92476206D01*
X149020991Y-92601894D01*
X149162005Y-92673744D01*
X149213620Y-92722491D01*
X149230686Y-92791406D01*
X149207786Y-92858607D01*
X149178864Y-92887946D01*
X149101989Y-92943799D01*
X148950798Y-93094990D01*
X148950796Y-93094993D01*
X148825108Y-93267987D01*
X148728029Y-93458515D01*
X148728026Y-93458521D01*
X148661952Y-93661878D01*
X148661951Y-93661883D01*
X148661951Y-93661884D01*
X148628500Y-93873084D01*
X148628500Y-94086916D01*
X148650800Y-94227716D01*
X148661951Y-94298118D01*
X148682244Y-94360574D01*
X148684270Y-94431542D01*
X148651505Y-94488603D01*
X143816715Y-99323395D01*
X143754403Y-99357420D01*
X143727620Y-99360300D01*
X133273654Y-99360300D01*
X133124945Y-99400147D01*
X133124943Y-99400147D01*
X133124939Y-99400149D01*
X133058281Y-99438635D01*
X132991619Y-99477121D01*
X132991613Y-99477126D01*
X132637346Y-99831395D01*
X132575033Y-99865420D01*
X132548250Y-99868300D01*
X130979111Y-99868300D01*
X130978362Y-99868080D01*
X130977612Y-99868291D01*
X130944369Y-99858099D01*
X130910990Y-99848298D01*
X130910479Y-99847708D01*
X130909734Y-99847480D01*
X130887286Y-99820942D01*
X130864497Y-99794642D01*
X130864218Y-99793671D01*
X130863883Y-99793275D01*
X130854189Y-99758746D01*
X130849015Y-99719446D01*
X130849015Y-99686554D01*
X130862847Y-99581484D01*
X130863100Y-99579566D01*
X130863100Y-99419204D01*
X130883102Y-99351083D01*
X130936758Y-99304590D01*
X131007032Y-99294486D01*
X131059100Y-99314438D01*
X131186758Y-99399737D01*
X131334769Y-99461045D01*
X131491897Y-99492300D01*
X131652103Y-99492300D01*
X131809231Y-99461045D01*
X131957242Y-99399737D01*
X132090448Y-99310731D01*
X132203731Y-99197448D01*
X132292737Y-99064242D01*
X132354045Y-98916231D01*
X132385300Y-98759103D01*
X132385300Y-98598897D01*
X132354045Y-98441769D01*
X132292737Y-98293758D01*
X132205160Y-98162691D01*
X132183946Y-98094941D01*
X132202729Y-98026474D01*
X132239922Y-97987928D01*
X132358448Y-97908731D01*
X132471731Y-97795448D01*
X132560737Y-97662242D01*
X132622045Y-97514231D01*
X132653300Y-97357103D01*
X132653300Y-97196897D01*
X132622045Y-97039769D01*
X132560737Y-96891758D01*
X132471731Y-96758552D01*
X132471726Y-96758546D01*
X132358453Y-96645273D01*
X132358447Y-96645268D01*
X132280559Y-96593225D01*
X132225242Y-96556263D01*
X132131907Y-96517602D01*
X132077234Y-96494956D01*
X132077231Y-96494955D01*
X131941954Y-96468046D01*
X131916010Y-96454475D01*
X131888812Y-96443639D01*
X131883119Y-96437269D01*
X131879044Y-96435138D01*
X131864021Y-96417724D01*
X131861538Y-96414249D01*
X131842485Y-96383360D01*
X131831901Y-96372776D01*
X131825847Y-96364304D01*
X131817467Y-96340221D01*
X131805243Y-96317838D01*
X131805998Y-96307262D01*
X131802515Y-96297251D01*
X131808486Y-96272456D01*
X131810304Y-96247022D01*
X131817193Y-96236301D01*
X131819138Y-96228228D01*
X131827559Y-96220171D01*
X131839272Y-96201946D01*
X131842090Y-96199127D01*
X131932047Y-96053284D01*
X131985942Y-95890641D01*
X131985944Y-95890629D01*
X131996199Y-95790252D01*
X131996200Y-95790252D01*
X131996200Y-95770400D01*
X131139200Y-95770400D01*
X131071079Y-95750398D01*
X131024586Y-95696742D01*
X131013200Y-95644400D01*
X131013200Y-95516400D01*
X130885200Y-95516400D01*
X130817079Y-95496398D01*
X130770586Y-95442742D01*
X130759200Y-95390400D01*
X130759200Y-95262400D01*
X131267200Y-95262400D01*
X131996200Y-95262400D01*
X131996200Y-95242547D01*
X131985944Y-95142170D01*
X131985942Y-95142158D01*
X131932047Y-94979515D01*
X131842090Y-94833671D01*
X131842085Y-94833665D01*
X131720934Y-94712514D01*
X131720928Y-94712509D01*
X131575084Y-94622552D01*
X131412441Y-94568657D01*
X131412429Y-94568655D01*
X131312052Y-94558400D01*
X131267200Y-94558400D01*
X131267200Y-95262400D01*
X130759200Y-95262400D01*
X130759200Y-94558400D01*
X130714347Y-94558400D01*
X130613970Y-94568655D01*
X130613958Y-94568657D01*
X130451315Y-94622552D01*
X130305471Y-94712509D01*
X130305465Y-94712514D01*
X130184314Y-94833665D01*
X130184309Y-94833671D01*
X130094352Y-94979515D01*
X130040457Y-95142158D01*
X130040455Y-95142170D01*
X130035227Y-95193339D01*
X130008404Y-95259074D01*
X129950301Y-95299872D01*
X129879364Y-95302780D01*
X129839878Y-95285296D01*
X129774370Y-95241525D01*
X129661121Y-95194616D01*
X129661118Y-95194615D01*
X129540894Y-95170700D01*
X129497200Y-95170700D01*
X129429079Y-95150698D01*
X129382586Y-95097042D01*
X129371200Y-95044700D01*
X129371200Y-91471880D01*
X129391202Y-91403759D01*
X129408105Y-91382785D01*
X131912870Y-88878020D01*
X131912876Y-88878014D01*
X131953335Y-88807937D01*
X131966174Y-88785700D01*
X132017557Y-88736707D01*
X132075293Y-88722700D01*
X133575618Y-88722700D01*
X133643739Y-88742702D01*
G37*
%TD.AperFunction*%
%TA.AperFunction,Conductor*%
G36*
X128119832Y-92267224D02*
G01*
X128176668Y-92309771D01*
X128201479Y-92376291D01*
X128201800Y-92385280D01*
X128201800Y-95070068D01*
X128181798Y-95138189D01*
X128128142Y-95184682D01*
X128100393Y-95193645D01*
X128097938Y-95194133D01*
X128097932Y-95194135D01*
X127984594Y-95241082D01*
X127882591Y-95309237D01*
X127852298Y-95339530D01*
X127789985Y-95373554D01*
X127719170Y-95368488D01*
X127662335Y-95325941D01*
X127637525Y-95259420D01*
X127639625Y-95225851D01*
X127640878Y-95219552D01*
X127653300Y-95157103D01*
X127653300Y-94996897D01*
X127622045Y-94839769D01*
X127560737Y-94691758D01*
X127471731Y-94558552D01*
X127471726Y-94558546D01*
X127358453Y-94445273D01*
X127358447Y-94445268D01*
X127314247Y-94415734D01*
X127225242Y-94356263D01*
X127131907Y-94317602D01*
X127077234Y-94294956D01*
X127077231Y-94294955D01*
X126920106Y-94263700D01*
X126920103Y-94263700D01*
X126759897Y-94263700D01*
X126759893Y-94263700D01*
X126602768Y-94294955D01*
X126602765Y-94294956D01*
X126454758Y-94356263D01*
X126321552Y-94445268D01*
X126321546Y-94445273D01*
X126208273Y-94558546D01*
X126208268Y-94558552D01*
X126119263Y-94691758D01*
X126057956Y-94839765D01*
X126057955Y-94839768D01*
X126026700Y-94996893D01*
X126026700Y-94999535D01*
X126026309Y-95000865D01*
X126026094Y-95003052D01*
X126025679Y-95003011D01*
X126006698Y-95067656D01*
X125953042Y-95114149D01*
X125882768Y-95124253D01*
X125834554Y-95106776D01*
X125771288Y-95067754D01*
X125771285Y-95067753D01*
X125608641Y-95013857D01*
X125608629Y-95013855D01*
X125508252Y-95003600D01*
X125488400Y-95003600D01*
X125488400Y-95860600D01*
X125468398Y-95928721D01*
X125414742Y-95975214D01*
X125362400Y-95986600D01*
X125234400Y-95986600D01*
X125234400Y-96114600D01*
X125214398Y-96182721D01*
X125160742Y-96229214D01*
X125108400Y-96240600D01*
X124276400Y-96240600D01*
X124276400Y-96285452D01*
X124286655Y-96385829D01*
X124286657Y-96385841D01*
X124340552Y-96548484D01*
X124430509Y-96694328D01*
X124430514Y-96694334D01*
X124551665Y-96815485D01*
X124551671Y-96815490D01*
X124599610Y-96845059D01*
X124647088Y-96897845D01*
X124658491Y-96967920D01*
X124630199Y-97033035D01*
X124571193Y-97072518D01*
X124533463Y-97078300D01*
X118863124Y-97078300D01*
X118843633Y-97072577D01*
X118823332Y-97071852D01*
X118810265Y-97062779D01*
X118795003Y-97058298D01*
X118781699Y-97042944D01*
X118765015Y-97031360D01*
X118750579Y-97007030D01*
X118748510Y-97004642D01*
X118746715Y-97000517D01*
X118739956Y-96984199D01*
X118732367Y-96913609D01*
X118751602Y-96865977D01*
X118765580Y-96845059D01*
X118768922Y-96840057D01*
X118830230Y-96692046D01*
X118861485Y-96534918D01*
X118861485Y-96520595D01*
X118881487Y-96452474D01*
X118898390Y-96431500D01*
X119642143Y-95687747D01*
X124276400Y-95687747D01*
X124276400Y-95732600D01*
X124980400Y-95732600D01*
X124980400Y-95003600D01*
X124960547Y-95003600D01*
X124860170Y-95013855D01*
X124860158Y-95013857D01*
X124697515Y-95067752D01*
X124551671Y-95157709D01*
X124551665Y-95157714D01*
X124430514Y-95278865D01*
X124430509Y-95278871D01*
X124340552Y-95424715D01*
X124286657Y-95587358D01*
X124286655Y-95587370D01*
X124276400Y-95687747D01*
X119642143Y-95687747D01*
X119734437Y-95595453D01*
X120130880Y-95199011D01*
X121363286Y-93966605D01*
X121425598Y-93932579D01*
X121452381Y-93929700D01*
X123520975Y-93929700D01*
X123520977Y-93929700D01*
X123669686Y-93889853D01*
X123803014Y-93812876D01*
X123911876Y-93704014D01*
X124792285Y-92823605D01*
X124854597Y-92789579D01*
X124881380Y-92786700D01*
X127330975Y-92786700D01*
X127330977Y-92786700D01*
X127479686Y-92746853D01*
X127613014Y-92669876D01*
X127721876Y-92561014D01*
X127986705Y-92296185D01*
X128049017Y-92262159D01*
X128119832Y-92267224D01*
G37*
%TD.AperFunction*%
%TA.AperFunction,Conductor*%
G36*
X147734740Y-80112702D02*
G01*
X147755715Y-80129605D01*
X148397506Y-80771397D01*
X148431531Y-80833709D01*
X148428244Y-80899426D01*
X148407951Y-80961881D01*
X148407951Y-80961884D01*
X148374500Y-81173084D01*
X148374500Y-81386916D01*
X148407951Y-81598116D01*
X148407952Y-81598121D01*
X148474026Y-81801478D01*
X148474028Y-81801483D01*
X148571106Y-81992009D01*
X148581590Y-82006439D01*
X148605448Y-82073306D01*
X148589368Y-82142458D01*
X148538455Y-82191938D01*
X148479654Y-82206500D01*
X133586123Y-82206500D01*
X133437414Y-82246347D01*
X133437412Y-82246347D01*
X133437408Y-82246349D01*
X133370750Y-82284835D01*
X133304088Y-82323321D01*
X133304078Y-82323329D01*
X129399750Y-86227658D01*
X129337438Y-86261684D01*
X129266623Y-86256619D01*
X129209787Y-86214072D01*
X129187076Y-86163145D01*
X129179045Y-86122769D01*
X129117737Y-85974758D01*
X129028731Y-85841552D01*
X129028726Y-85841546D01*
X128915453Y-85728273D01*
X128915447Y-85728268D01*
X128795690Y-85648249D01*
X128782242Y-85639263D01*
X128688907Y-85600602D01*
X128634234Y-85577956D01*
X128634231Y-85577955D01*
X128477106Y-85546700D01*
X128477103Y-85546700D01*
X128316897Y-85546700D01*
X128316893Y-85546700D01*
X128159768Y-85577955D01*
X128159765Y-85577956D01*
X128011758Y-85639263D01*
X127878552Y-85728268D01*
X127878546Y-85728273D01*
X127765273Y-85841546D01*
X127765268Y-85841552D01*
X127676263Y-85974758D01*
X127614956Y-86122765D01*
X127614955Y-86122768D01*
X127583700Y-86279893D01*
X127583700Y-86440103D01*
X127584307Y-86446269D01*
X127582710Y-86446426D01*
X127577080Y-86509351D01*
X127533526Y-86565419D01*
X127466573Y-86589038D01*
X127397480Y-86572711D01*
X127370734Y-86552314D01*
X127275934Y-86457514D01*
X127275928Y-86457509D01*
X127130084Y-86367552D01*
X126967441Y-86313657D01*
X126967429Y-86313655D01*
X126867052Y-86303400D01*
X126822200Y-86303400D01*
X126822200Y-87135400D01*
X126802198Y-87203521D01*
X126748542Y-87250014D01*
X126696200Y-87261400D01*
X126568200Y-87261400D01*
X126568200Y-87389400D01*
X126548198Y-87457521D01*
X126494542Y-87504014D01*
X126442200Y-87515400D01*
X123934200Y-87515400D01*
X123934200Y-87535252D01*
X123944455Y-87635629D01*
X123944457Y-87635641D01*
X123998352Y-87798284D01*
X124088309Y-87944128D01*
X124088314Y-87944134D01*
X124091132Y-87946952D01*
X124092448Y-87949363D01*
X124092862Y-87949886D01*
X124092772Y-87949956D01*
X124125158Y-88009264D01*
X124120093Y-88080079D01*
X124091132Y-88125142D01*
X124087920Y-88128353D01*
X124087915Y-88128359D01*
X123997898Y-88274299D01*
X123943963Y-88437066D01*
X123933700Y-88537519D01*
X123933700Y-89085280D01*
X123933699Y-89085280D01*
X123943963Y-89185733D01*
X123997898Y-89348502D01*
X124031036Y-89402227D01*
X124049773Y-89470706D01*
X124047374Y-89492953D01*
X124026700Y-89596889D01*
X124026700Y-89757106D01*
X124057955Y-89914231D01*
X124119263Y-90062242D01*
X124157025Y-90118756D01*
X124208268Y-90195447D01*
X124208273Y-90195453D01*
X124321546Y-90308726D01*
X124321552Y-90308731D01*
X124454758Y-90397737D01*
X124602769Y-90459045D01*
X124759897Y-90490300D01*
X124920103Y-90490300D01*
X125077231Y-90459045D01*
X125225242Y-90397737D01*
X125358448Y-90308731D01*
X125471731Y-90195448D01*
X125560737Y-90062242D01*
X125572821Y-90033068D01*
X125617366Y-89977789D01*
X125684729Y-89955367D01*
X125753521Y-89972924D01*
X125801900Y-90024885D01*
X125805638Y-90033068D01*
X125817723Y-90062243D01*
X125847463Y-90134042D01*
X125878858Y-90181028D01*
X125936468Y-90267247D01*
X125936473Y-90267253D01*
X126049746Y-90380526D01*
X126049752Y-90380531D01*
X126182958Y-90469537D01*
X126330969Y-90530845D01*
X126488097Y-90562100D01*
X126648303Y-90562100D01*
X126805431Y-90530845D01*
X126953442Y-90469537D01*
X127086648Y-90380531D01*
X127199931Y-90267248D01*
X127288937Y-90134042D01*
X127350245Y-89986031D01*
X127381500Y-89828903D01*
X127381500Y-89668697D01*
X127368371Y-89602696D01*
X127371088Y-89572332D01*
X127371286Y-89541836D01*
X127374341Y-89535974D01*
X127374699Y-89531985D01*
X127386396Y-89509311D01*
X127393477Y-89498447D01*
X127397485Y-89494440D01*
X127422040Y-89454628D01*
X127422911Y-89453294D01*
X127448742Y-89431202D01*
X127474011Y-89408475D01*
X127475789Y-89408070D01*
X127476866Y-89407150D01*
X127484372Y-89406120D01*
X127528465Y-89396100D01*
X127969876Y-89396100D01*
X127969877Y-89396100D01*
X128015376Y-89383908D01*
X128086349Y-89385596D01*
X128124688Y-89405650D01*
X128241528Y-89495305D01*
X128386513Y-89555360D01*
X128435345Y-89561788D01*
X128500272Y-89590509D01*
X128539365Y-89649774D01*
X128544900Y-89686710D01*
X128544900Y-90032020D01*
X128524898Y-90100141D01*
X128507995Y-90121115D01*
X127048715Y-91580395D01*
X126986403Y-91614421D01*
X126959620Y-91617300D01*
X124510023Y-91617300D01*
X124410883Y-91643864D01*
X124361313Y-91657147D01*
X124248374Y-91722353D01*
X124238180Y-91728238D01*
X124227987Y-91734123D01*
X124227979Y-91734129D01*
X123238715Y-92723395D01*
X123176403Y-92757420D01*
X123149620Y-92760300D01*
X121234977Y-92760300D01*
X121081023Y-92760300D01*
X120990010Y-92784686D01*
X120932310Y-92800147D01*
X120798989Y-92877120D01*
X120798979Y-92877128D01*
X118071500Y-95604610D01*
X118009188Y-95638635D01*
X117982405Y-95641515D01*
X117968078Y-95641515D01*
X117810953Y-95672770D01*
X117810950Y-95672771D01*
X117662943Y-95734078D01*
X117529737Y-95823083D01*
X117529731Y-95823088D01*
X117416458Y-95936361D01*
X117416453Y-95936367D01*
X117327448Y-96069573D01*
X117266141Y-96217580D01*
X117266140Y-96217583D01*
X117234885Y-96374708D01*
X117234885Y-96534918D01*
X117237232Y-96546717D01*
X117230905Y-96617431D01*
X117187351Y-96673499D01*
X117120399Y-96697119D01*
X117113653Y-96697300D01*
X110403381Y-96697300D01*
X110335260Y-96677298D01*
X110314286Y-96660395D01*
X108142493Y-94488603D01*
X108108468Y-94426291D01*
X108111755Y-94360574D01*
X108132049Y-94298116D01*
X108165500Y-94086916D01*
X108165500Y-93873084D01*
X108132049Y-93661884D01*
X108065972Y-93458517D01*
X107968894Y-93267991D01*
X107843206Y-93094996D01*
X107843203Y-93094993D01*
X107843201Y-93094990D01*
X107692009Y-92943798D01*
X107692006Y-92943796D01*
X107692004Y-92943794D01*
X107519009Y-92818106D01*
X107377992Y-92746254D01*
X107326379Y-92697508D01*
X107309313Y-92628593D01*
X107332214Y-92561391D01*
X107361133Y-92532055D01*
X107438004Y-92476206D01*
X107589206Y-92325004D01*
X107714894Y-92152009D01*
X107811972Y-91961483D01*
X107878049Y-91758116D01*
X107911500Y-91546916D01*
X107911500Y-91333084D01*
X107878049Y-91121884D01*
X107811972Y-90918517D01*
X107714894Y-90727991D01*
X107589206Y-90554996D01*
X107589203Y-90554993D01*
X107589201Y-90554990D01*
X107438006Y-90403795D01*
X107360682Y-90347616D01*
X107317328Y-90291393D01*
X107311253Y-90220657D01*
X107344385Y-90157866D01*
X107377541Y-90133413D01*
X107518747Y-90061465D01*
X107691679Y-89935822D01*
X107842822Y-89784679D01*
X107968463Y-89611750D01*
X108065506Y-89421292D01*
X108065509Y-89421286D01*
X108131559Y-89218004D01*
X108141698Y-89154000D01*
X107237703Y-89154000D01*
X107272925Y-89092993D01*
X107307000Y-88965826D01*
X107307000Y-88834174D01*
X107272925Y-88707007D01*
X107237703Y-88646000D01*
X108141697Y-88646000D01*
X108131559Y-88581995D01*
X108065509Y-88378713D01*
X108065506Y-88378707D01*
X107968463Y-88188249D01*
X107842822Y-88015320D01*
X107691679Y-87864177D01*
X107518750Y-87738536D01*
X107377039Y-87666331D01*
X107325424Y-87617583D01*
X107308358Y-87548668D01*
X107331259Y-87481466D01*
X107360181Y-87452128D01*
X107437679Y-87395821D01*
X107437682Y-87395819D01*
X107588822Y-87244679D01*
X107714464Y-87071749D01*
X107757367Y-86987547D01*
X123934200Y-86987547D01*
X123934200Y-87007400D01*
X124663200Y-87007400D01*
X125171200Y-87007400D01*
X126314200Y-87007400D01*
X126314200Y-86303400D01*
X126269347Y-86303400D01*
X126168970Y-86313655D01*
X126168958Y-86313657D01*
X126006315Y-86367552D01*
X125860471Y-86457509D01*
X125860465Y-86457514D01*
X125831795Y-86486185D01*
X125769483Y-86520211D01*
X125698668Y-86515146D01*
X125653605Y-86486185D01*
X125624934Y-86457514D01*
X125624928Y-86457509D01*
X125479084Y-86367552D01*
X125316441Y-86313657D01*
X125316429Y-86313655D01*
X125216052Y-86303400D01*
X125171200Y-86303400D01*
X125171200Y-87007400D01*
X124663200Y-87007400D01*
X124663200Y-86303400D01*
X124618347Y-86303400D01*
X124517970Y-86313655D01*
X124517958Y-86313657D01*
X124355315Y-86367552D01*
X124209471Y-86457509D01*
X124209465Y-86457514D01*
X124088314Y-86578665D01*
X124088309Y-86578671D01*
X123998352Y-86724515D01*
X123944457Y-86887158D01*
X123944455Y-86887170D01*
X123934200Y-86987547D01*
X107757367Y-86987547D01*
X107788144Y-86927145D01*
X107788145Y-86927143D01*
X107811504Y-86881298D01*
X107811509Y-86881286D01*
X107877559Y-86678004D01*
X107887698Y-86614000D01*
X106983703Y-86614000D01*
X107018925Y-86552993D01*
X107053000Y-86425826D01*
X107053000Y-86294174D01*
X107018925Y-86167007D01*
X106983703Y-86106000D01*
X107887697Y-86106000D01*
X107877559Y-86041995D01*
X107811509Y-85838713D01*
X107811506Y-85838707D01*
X107714463Y-85648249D01*
X107588822Y-85475320D01*
X107437679Y-85324177D01*
X107360636Y-85268202D01*
X107317282Y-85211979D01*
X107311207Y-85141243D01*
X107344339Y-85078451D01*
X107377491Y-85054000D01*
X107519009Y-84981894D01*
X107692004Y-84856206D01*
X107843206Y-84705004D01*
X107968894Y-84532009D01*
X108065972Y-84341483D01*
X108132049Y-84138116D01*
X108165500Y-83926916D01*
X108165500Y-83713084D01*
X108132049Y-83501884D01*
X108065972Y-83298517D01*
X107968894Y-83107991D01*
X107843206Y-82934996D01*
X107843203Y-82934993D01*
X107843201Y-82934990D01*
X107692009Y-82783798D01*
X107692006Y-82783796D01*
X107692004Y-82783794D01*
X107519009Y-82658106D01*
X107377992Y-82586254D01*
X107326379Y-82537508D01*
X107309313Y-82468593D01*
X107332214Y-82401391D01*
X107361133Y-82372055D01*
X107438004Y-82316206D01*
X107589206Y-82165004D01*
X107714894Y-81992009D01*
X107811972Y-81801483D01*
X107878049Y-81598116D01*
X107911500Y-81386916D01*
X107911500Y-81173084D01*
X107878049Y-80961884D01*
X107811972Y-80758517D01*
X107805035Y-80744902D01*
X107791931Y-80675125D01*
X107818632Y-80609341D01*
X107876660Y-80568435D01*
X107917302Y-80561700D01*
X121316975Y-80561700D01*
X121316977Y-80561700D01*
X121465686Y-80521853D01*
X121599014Y-80444876D01*
X121707876Y-80336014D01*
X121745285Y-80298605D01*
X121807597Y-80264579D01*
X121834380Y-80261700D01*
X127692500Y-80261700D01*
X127760621Y-80281702D01*
X127807114Y-80335358D01*
X127808909Y-80339483D01*
X127834288Y-80400756D01*
X127834289Y-80400758D01*
X127909090Y-80512705D01*
X127909095Y-80512711D01*
X128004288Y-80607904D01*
X128004294Y-80607909D01*
X128116241Y-80682710D01*
X128240630Y-80734233D01*
X128372681Y-80760500D01*
X128507319Y-80760500D01*
X128639370Y-80734233D01*
X128641780Y-80733234D01*
X128643142Y-80733088D01*
X128645292Y-80732436D01*
X128645415Y-80732843D01*
X128712366Y-80725643D01*
X128738212Y-80733231D01*
X128740630Y-80734233D01*
X128872681Y-80760500D01*
X129007319Y-80760500D01*
X129139370Y-80734233D01*
X129141780Y-80733234D01*
X129143142Y-80733088D01*
X129145292Y-80732436D01*
X129145415Y-80732843D01*
X129212366Y-80725643D01*
X129238212Y-80733231D01*
X129240630Y-80734233D01*
X129372681Y-80760500D01*
X129507319Y-80760500D01*
X129639370Y-80734233D01*
X129641780Y-80733234D01*
X129643142Y-80733088D01*
X129645292Y-80732436D01*
X129645415Y-80732843D01*
X129712366Y-80725643D01*
X129738212Y-80733231D01*
X129740630Y-80734233D01*
X129872681Y-80760500D01*
X130007319Y-80760500D01*
X130139370Y-80734233D01*
X130263759Y-80682710D01*
X130375706Y-80607909D01*
X130470909Y-80512706D01*
X130545710Y-80400759D01*
X130597233Y-80276370D01*
X130613594Y-80194117D01*
X130646502Y-80131209D01*
X130708197Y-80096077D01*
X130737173Y-80092700D01*
X147666619Y-80092700D01*
X147734740Y-80112702D01*
G37*
%TD.AperFunction*%
%TA.AperFunction,Conductor*%
G36*
X148697862Y-84409056D02*
G01*
X148713314Y-84408394D01*
X148731236Y-84418855D01*
X148751147Y-84424702D01*
X148762220Y-84436942D01*
X148774629Y-84444185D01*
X148795292Y-84473495D01*
X148825106Y-84532009D01*
X148950794Y-84705004D01*
X148950796Y-84705006D01*
X148950798Y-84705009D01*
X149101990Y-84856201D01*
X149101993Y-84856203D01*
X149101996Y-84856206D01*
X149178863Y-84912053D01*
X149222217Y-84968275D01*
X149228292Y-85039011D01*
X149195161Y-85101803D01*
X149162006Y-85126254D01*
X149059470Y-85178500D01*
X149020987Y-85198108D01*
X148847993Y-85323796D01*
X148847990Y-85323798D01*
X148696798Y-85474990D01*
X148696796Y-85474993D01*
X148571108Y-85647987D01*
X148474029Y-85838515D01*
X148474026Y-85838521D01*
X148407952Y-86041878D01*
X148407951Y-86041883D01*
X148407951Y-86041884D01*
X148374500Y-86253084D01*
X148374500Y-86466916D01*
X148407933Y-86678004D01*
X148407952Y-86678121D01*
X148428243Y-86740571D01*
X148430270Y-86811538D01*
X148397506Y-86868601D01*
X148003715Y-87262395D01*
X147941403Y-87296420D01*
X147914619Y-87299300D01*
X135065780Y-87299300D01*
X134997659Y-87279298D01*
X134951166Y-87225642D01*
X134941062Y-87155368D01*
X134970556Y-87090788D01*
X134976685Y-87084205D01*
X136166816Y-85894075D01*
X137619286Y-84441605D01*
X137681598Y-84407579D01*
X137708381Y-84404700D01*
X148683026Y-84404700D01*
X148697862Y-84409056D01*
G37*
%TD.AperFunction*%
%TA.AperFunction,Conductor*%
G36*
X136795140Y-83395902D02*
G01*
X136841633Y-83449558D01*
X136851737Y-83519832D01*
X136822243Y-83584412D01*
X136816114Y-83590995D01*
X133525715Y-86881395D01*
X133463403Y-86915421D01*
X133436620Y-86918300D01*
X133205670Y-86918300D01*
X133137549Y-86898298D01*
X133116575Y-86881395D01*
X133106453Y-86871273D01*
X133106447Y-86871268D01*
X133038586Y-86825925D01*
X132973242Y-86782263D01*
X132833826Y-86724515D01*
X132825234Y-86720956D01*
X132825231Y-86720955D01*
X132668106Y-86689700D01*
X132668103Y-86689700D01*
X132507897Y-86689700D01*
X132507893Y-86689700D01*
X132350768Y-86720955D01*
X132350765Y-86720956D01*
X132202758Y-86782263D01*
X132069552Y-86871268D01*
X132069546Y-86871273D01*
X131956273Y-86984546D01*
X131956266Y-86984555D01*
X131902548Y-87064948D01*
X131898696Y-87068167D01*
X131896830Y-87072829D01*
X131871720Y-87090711D01*
X131848071Y-87110475D01*
X131843089Y-87111100D01*
X131839000Y-87114013D01*
X131808206Y-87115481D01*
X131777627Y-87119322D01*
X131771727Y-87117221D01*
X131768084Y-87117395D01*
X131734789Y-87104067D01*
X131726043Y-87099018D01*
X131726038Y-87099015D01*
X131627886Y-87042347D01*
X131479177Y-87002500D01*
X131479175Y-87002500D01*
X130582880Y-87002500D01*
X130514759Y-86982498D01*
X130468266Y-86928842D01*
X130458162Y-86858568D01*
X130487656Y-86793988D01*
X130493785Y-86787405D01*
X132102691Y-85178500D01*
X133868386Y-83412805D01*
X133930698Y-83378779D01*
X133957481Y-83375900D01*
X136727019Y-83375900D01*
X136795140Y-83395902D01*
G37*
%TD.AperFunction*%
%TA.AperFunction,Conductor*%
G36*
X126611741Y-77779702D02*
G01*
X126632715Y-77796605D01*
X127713315Y-78877205D01*
X127747341Y-78939517D01*
X127742276Y-79010332D01*
X127699729Y-79067168D01*
X127633209Y-79091979D01*
X127624220Y-79092300D01*
X121463023Y-79092300D01*
X121363883Y-79118864D01*
X121314313Y-79132147D01*
X121183149Y-79207874D01*
X121183146Y-79207877D01*
X121182638Y-79208169D01*
X121180986Y-79209123D01*
X121180983Y-79209126D01*
X121141742Y-79248368D01*
X121034713Y-79355396D01*
X120972404Y-79389420D01*
X120945620Y-79392300D01*
X114338780Y-79392300D01*
X114270659Y-79372298D01*
X114224166Y-79318642D01*
X114214062Y-79248368D01*
X114243556Y-79183788D01*
X114249685Y-79177205D01*
X115630285Y-77796605D01*
X115692597Y-77762579D01*
X115719380Y-77759700D01*
X124973023Y-77759700D01*
X126543620Y-77759700D01*
X126611741Y-77779702D01*
G37*
%TD.AperFunction*%
%TA.AperFunction,Conductor*%
G36*
X148524287Y-78480052D02*
G01*
X148543282Y-78480324D01*
X148557643Y-78489846D01*
X148574180Y-78494702D01*
X148586620Y-78509059D01*
X148602453Y-78519557D01*
X148609386Y-78535333D01*
X148620673Y-78548358D01*
X148623376Y-78567163D01*
X148631020Y-78584553D01*
X148630554Y-78617085D01*
X148630777Y-78618632D01*
X148630508Y-78620401D01*
X148628500Y-78633084D01*
X148628500Y-78846916D01*
X148649004Y-78976370D01*
X148662251Y-79060010D01*
X148653151Y-79130421D01*
X148607429Y-79184735D01*
X148539601Y-79205708D01*
X148471202Y-79186681D01*
X148448707Y-79168816D01*
X148320020Y-79040129D01*
X148320016Y-79040126D01*
X148320014Y-79040124D01*
X148265932Y-79008900D01*
X148186686Y-78963147D01*
X148037977Y-78923300D01*
X148037975Y-78923300D01*
X131579300Y-78923300D01*
X131511179Y-78903298D01*
X131464686Y-78849642D01*
X131454537Y-78802989D01*
X131453906Y-78803052D01*
X131453372Y-78797633D01*
X131453300Y-78797300D01*
X131453300Y-78796896D01*
X131453299Y-78796893D01*
X131422045Y-78639769D01*
X131422043Y-78639763D01*
X131421289Y-78637276D01*
X131421276Y-78635908D01*
X131420837Y-78633698D01*
X131421256Y-78633614D01*
X131420655Y-78566283D01*
X131458504Y-78506216D01*
X131522818Y-78476148D01*
X131541863Y-78474700D01*
X148506059Y-78474700D01*
X148524287Y-78480052D01*
G37*
%TD.AperFunction*%
%TD*%
M02*
