%TF.GenerationSoftware,KiCad,Pcbnew,10.0.2*%
%TF.CreationDate,2026-06-15T11:04:02-04:00*%
%TF.ProjectId,IMUBreakout-v2,494d5542-7265-4616-9b6f-75742d76322e,rev?*%
%TF.SameCoordinates,Original*%
%TF.FileFunction,Legend,Top*%
%TF.FilePolarity,Positive*%
%FSLAX46Y46*%
G04 Gerber Fmt 4.6, Leading zero omitted, Abs format (unit mm)*
G04 Created by KiCad (PCBNEW 10.0.2) date 2026-06-15 11:04:02*
%MOMM*%
%LPD*%
G01*
G04 APERTURE LIST*
G04 Aperture macros list*
%AMRoundRect*
0 Rectangle with rounded corners*
0 $1 Rounding radius*
0 $2 $3 $4 $5 $6 $7 $8 $9 X,Y pos of 4 corners*
0 Add a 4 corners polygon primitive as box body*
4,1,4,$2,$3,$4,$5,$6,$7,$8,$9,$2,$3,0*
0 Add four circle primitives for the rounded corners*
1,1,$1+$1,$2,$3*
1,1,$1+$1,$4,$5*
1,1,$1+$1,$6,$7*
1,1,$1+$1,$8,$9*
0 Add four rect primitives between the rounded corners*
20,1,$1+$1,$2,$3,$4,$5,0*
20,1,$1+$1,$4,$5,$6,$7,0*
20,1,$1+$1,$6,$7,$8,$9,0*
20,1,$1+$1,$8,$9,$2,$3,0*%
G04 Aperture macros list end*
%ADD10C,0.150000*%
%ADD11C,0.300000*%
%ADD12C,0.120000*%
%ADD13C,0.127000*%
%ADD14C,0.200000*%
%ADD15C,0.225000*%
%ADD16RoundRect,0.225000X0.225000X0.250000X-0.225000X0.250000X-0.225000X-0.250000X0.225000X-0.250000X0*%
%ADD17C,0.228600*%
%ADD18RoundRect,0.225000X-0.250000X0.225000X-0.250000X-0.225000X0.250000X-0.225000X0.250000X0.225000X0*%
%ADD19RoundRect,0.225000X0.250000X-0.225000X0.250000X0.225000X-0.250000X0.225000X-0.250000X-0.225000X0*%
%ADD20RoundRect,0.087500X0.087500X-0.125000X0.087500X0.125000X-0.087500X0.125000X-0.087500X-0.125000X0*%
%ADD21RoundRect,0.087500X0.125000X-0.087500X0.125000X0.087500X-0.125000X0.087500X-0.125000X-0.087500X0*%
%ADD22RoundRect,0.225000X-0.225000X-0.250000X0.225000X-0.250000X0.225000X0.250000X-0.225000X0.250000X0*%
%ADD23RoundRect,0.087500X-0.225000X-0.087500X0.225000X-0.087500X0.225000X0.087500X-0.225000X0.087500X0*%
%ADD24RoundRect,0.087500X-0.087500X-0.225000X0.087500X-0.225000X0.087500X0.225000X-0.087500X0.225000X0*%
%ADD25R,1.700000X1.700000*%
%ADD26O,1.700000X1.700000*%
G04 APERTURE END LIST*
D10*
X131064000Y-115925600D02*
X131064000Y-115163600D01*
X131064000Y-115925600D02*
X131826000Y-115925600D01*
X132334000Y-109829600D02*
X132842000Y-108813600D01*
X132842000Y-108813600D02*
X132334000Y-109829600D01*
X132842000Y-108813600D02*
X133350000Y-109829600D01*
X132842000Y-114401600D02*
X131064000Y-115925600D01*
X132842000Y-114401600D02*
X132842000Y-108813600D01*
X132842000Y-114401600D02*
X137922000Y-114401600D01*
X137922000Y-114401600D02*
X136906000Y-113893600D01*
X137922000Y-114401600D02*
X136906000Y-114909600D01*
X109356779Y-81734819D02*
X109356779Y-81068152D01*
X109356779Y-81258628D02*
X109404398Y-81163390D01*
X109404398Y-81163390D02*
X109452017Y-81115771D01*
X109452017Y-81115771D02*
X109547255Y-81068152D01*
X109547255Y-81068152D02*
X109642493Y-81068152D01*
X109832970Y-81068152D02*
X110213922Y-81068152D01*
X109975827Y-80734819D02*
X109975827Y-81591961D01*
X109975827Y-81591961D02*
X110023446Y-81687200D01*
X110023446Y-81687200D02*
X110118684Y-81734819D01*
X110118684Y-81734819D02*
X110213922Y-81734819D01*
X110975827Y-81687200D02*
X110880589Y-81734819D01*
X110880589Y-81734819D02*
X110690113Y-81734819D01*
X110690113Y-81734819D02*
X110594875Y-81687200D01*
X110594875Y-81687200D02*
X110547256Y-81639580D01*
X110547256Y-81639580D02*
X110499637Y-81544342D01*
X110499637Y-81544342D02*
X110499637Y-81258628D01*
X110499637Y-81258628D02*
X110547256Y-81163390D01*
X110547256Y-81163390D02*
X110594875Y-81115771D01*
X110594875Y-81115771D02*
X110690113Y-81068152D01*
X110690113Y-81068152D02*
X110880589Y-81068152D01*
X110880589Y-81068152D02*
X110975827Y-81115771D01*
X111166304Y-81830057D02*
X111928208Y-81830057D01*
X112118685Y-81687200D02*
X112213923Y-81734819D01*
X112213923Y-81734819D02*
X112404399Y-81734819D01*
X112404399Y-81734819D02*
X112499637Y-81687200D01*
X112499637Y-81687200D02*
X112547256Y-81591961D01*
X112547256Y-81591961D02*
X112547256Y-81544342D01*
X112547256Y-81544342D02*
X112499637Y-81449104D01*
X112499637Y-81449104D02*
X112404399Y-81401485D01*
X112404399Y-81401485D02*
X112261542Y-81401485D01*
X112261542Y-81401485D02*
X112166304Y-81353866D01*
X112166304Y-81353866D02*
X112118685Y-81258628D01*
X112118685Y-81258628D02*
X112118685Y-81211009D01*
X112118685Y-81211009D02*
X112166304Y-81115771D01*
X112166304Y-81115771D02*
X112261542Y-81068152D01*
X112261542Y-81068152D02*
X112404399Y-81068152D01*
X112404399Y-81068152D02*
X112499637Y-81115771D01*
X113404399Y-81687200D02*
X113309161Y-81734819D01*
X113309161Y-81734819D02*
X113118685Y-81734819D01*
X113118685Y-81734819D02*
X113023447Y-81687200D01*
X113023447Y-81687200D02*
X112975828Y-81639580D01*
X112975828Y-81639580D02*
X112928209Y-81544342D01*
X112928209Y-81544342D02*
X112928209Y-81258628D01*
X112928209Y-81258628D02*
X112975828Y-81163390D01*
X112975828Y-81163390D02*
X113023447Y-81115771D01*
X113023447Y-81115771D02*
X113118685Y-81068152D01*
X113118685Y-81068152D02*
X113309161Y-81068152D01*
X113309161Y-81068152D02*
X113404399Y-81115771D01*
X113975828Y-81734819D02*
X113880590Y-81687200D01*
X113880590Y-81687200D02*
X113832971Y-81591961D01*
X113832971Y-81591961D02*
X113832971Y-80734819D01*
X109456779Y-84274819D02*
X109456779Y-83608152D01*
X109456779Y-83798628D02*
X109504398Y-83703390D01*
X109504398Y-83703390D02*
X109552017Y-83655771D01*
X109552017Y-83655771D02*
X109647255Y-83608152D01*
X109647255Y-83608152D02*
X109742493Y-83608152D01*
X109932970Y-83608152D02*
X110313922Y-83608152D01*
X110075827Y-83274819D02*
X110075827Y-84131961D01*
X110075827Y-84131961D02*
X110123446Y-84227200D01*
X110123446Y-84227200D02*
X110218684Y-84274819D01*
X110218684Y-84274819D02*
X110313922Y-84274819D01*
X111075827Y-84227200D02*
X110980589Y-84274819D01*
X110980589Y-84274819D02*
X110790113Y-84274819D01*
X110790113Y-84274819D02*
X110694875Y-84227200D01*
X110694875Y-84227200D02*
X110647256Y-84179580D01*
X110647256Y-84179580D02*
X110599637Y-84084342D01*
X110599637Y-84084342D02*
X110599637Y-83798628D01*
X110599637Y-83798628D02*
X110647256Y-83703390D01*
X110647256Y-83703390D02*
X110694875Y-83655771D01*
X110694875Y-83655771D02*
X110790113Y-83608152D01*
X110790113Y-83608152D02*
X110980589Y-83608152D01*
X110980589Y-83608152D02*
X111075827Y-83655771D01*
X111266304Y-84370057D02*
X112028208Y-84370057D01*
X112218685Y-84227200D02*
X112313923Y-84274819D01*
X112313923Y-84274819D02*
X112504399Y-84274819D01*
X112504399Y-84274819D02*
X112599637Y-84227200D01*
X112599637Y-84227200D02*
X112647256Y-84131961D01*
X112647256Y-84131961D02*
X112647256Y-84084342D01*
X112647256Y-84084342D02*
X112599637Y-83989104D01*
X112599637Y-83989104D02*
X112504399Y-83941485D01*
X112504399Y-83941485D02*
X112361542Y-83941485D01*
X112361542Y-83941485D02*
X112266304Y-83893866D01*
X112266304Y-83893866D02*
X112218685Y-83798628D01*
X112218685Y-83798628D02*
X112218685Y-83751009D01*
X112218685Y-83751009D02*
X112266304Y-83655771D01*
X112266304Y-83655771D02*
X112361542Y-83608152D01*
X112361542Y-83608152D02*
X112504399Y-83608152D01*
X112504399Y-83608152D02*
X112599637Y-83655771D01*
X113504399Y-84274819D02*
X113504399Y-83274819D01*
X113504399Y-84227200D02*
X113409161Y-84274819D01*
X113409161Y-84274819D02*
X113218685Y-84274819D01*
X113218685Y-84274819D02*
X113123447Y-84227200D01*
X113123447Y-84227200D02*
X113075828Y-84179580D01*
X113075828Y-84179580D02*
X113028209Y-84084342D01*
X113028209Y-84084342D02*
X113028209Y-83798628D01*
X113028209Y-83798628D02*
X113075828Y-83703390D01*
X113075828Y-83703390D02*
X113123447Y-83655771D01*
X113123447Y-83655771D02*
X113218685Y-83608152D01*
X113218685Y-83608152D02*
X113409161Y-83608152D01*
X113409161Y-83608152D02*
X113504399Y-83655771D01*
X114409161Y-84274819D02*
X114409161Y-83751009D01*
X114409161Y-83751009D02*
X114361542Y-83655771D01*
X114361542Y-83655771D02*
X114266304Y-83608152D01*
X114266304Y-83608152D02*
X114075828Y-83608152D01*
X114075828Y-83608152D02*
X113980590Y-83655771D01*
X114409161Y-84227200D02*
X114313923Y-84274819D01*
X114313923Y-84274819D02*
X114075828Y-84274819D01*
X114075828Y-84274819D02*
X113980590Y-84227200D01*
X113980590Y-84227200D02*
X113932971Y-84131961D01*
X113932971Y-84131961D02*
X113932971Y-84036723D01*
X113932971Y-84036723D02*
X113980590Y-83941485D01*
X113980590Y-83941485D02*
X114075828Y-83893866D01*
X114075828Y-83893866D02*
X114313923Y-83893866D01*
X114313923Y-83893866D02*
X114409161Y-83846247D01*
X109556779Y-76654819D02*
X109556779Y-75654819D01*
X109556779Y-75654819D02*
X109937731Y-75654819D01*
X109937731Y-75654819D02*
X110032969Y-75702438D01*
X110032969Y-75702438D02*
X110080588Y-75750057D01*
X110080588Y-75750057D02*
X110128207Y-75845295D01*
X110128207Y-75845295D02*
X110128207Y-75988152D01*
X110128207Y-75988152D02*
X110080588Y-76083390D01*
X110080588Y-76083390D02*
X110032969Y-76131009D01*
X110032969Y-76131009D02*
X109937731Y-76178628D01*
X109937731Y-76178628D02*
X109556779Y-76178628D01*
X110890112Y-76131009D02*
X111032969Y-76178628D01*
X111032969Y-76178628D02*
X111080588Y-76226247D01*
X111080588Y-76226247D02*
X111128207Y-76321485D01*
X111128207Y-76321485D02*
X111128207Y-76464342D01*
X111128207Y-76464342D02*
X111080588Y-76559580D01*
X111080588Y-76559580D02*
X111032969Y-76607200D01*
X111032969Y-76607200D02*
X110937731Y-76654819D01*
X110937731Y-76654819D02*
X110556779Y-76654819D01*
X110556779Y-76654819D02*
X110556779Y-75654819D01*
X110556779Y-75654819D02*
X110890112Y-75654819D01*
X110890112Y-75654819D02*
X110985350Y-75702438D01*
X110985350Y-75702438D02*
X111032969Y-75750057D01*
X111032969Y-75750057D02*
X111080588Y-75845295D01*
X111080588Y-75845295D02*
X111080588Y-75940533D01*
X111080588Y-75940533D02*
X111032969Y-76035771D01*
X111032969Y-76035771D02*
X110985350Y-76083390D01*
X110985350Y-76083390D02*
X110890112Y-76131009D01*
X110890112Y-76131009D02*
X110556779Y-76131009D01*
X111985350Y-75988152D02*
X111985350Y-76654819D01*
X111747255Y-75607200D02*
X111509160Y-76321485D01*
X111509160Y-76321485D02*
X112128207Y-76321485D01*
X113271065Y-76654819D02*
X113271065Y-75654819D01*
X113271065Y-75654819D02*
X113604398Y-76369104D01*
X113604398Y-76369104D02*
X113937731Y-75654819D01*
X113937731Y-75654819D02*
X113937731Y-76654819D01*
X114318684Y-75654819D02*
X114985350Y-76654819D01*
X114985350Y-75654819D02*
X114318684Y-76654819D01*
X115128208Y-76750057D02*
X115890112Y-76750057D01*
X116128208Y-76654819D02*
X116128208Y-75654819D01*
X116128208Y-75654819D02*
X116461541Y-76369104D01*
X116461541Y-76369104D02*
X116794874Y-75654819D01*
X116794874Y-75654819D02*
X116794874Y-76654819D01*
X117271065Y-76654819D02*
X117271065Y-75654819D01*
X117699636Y-76607200D02*
X117842493Y-76654819D01*
X117842493Y-76654819D02*
X118080588Y-76654819D01*
X118080588Y-76654819D02*
X118175826Y-76607200D01*
X118175826Y-76607200D02*
X118223445Y-76559580D01*
X118223445Y-76559580D02*
X118271064Y-76464342D01*
X118271064Y-76464342D02*
X118271064Y-76369104D01*
X118271064Y-76369104D02*
X118223445Y-76273866D01*
X118223445Y-76273866D02*
X118175826Y-76226247D01*
X118175826Y-76226247D02*
X118080588Y-76178628D01*
X118080588Y-76178628D02*
X117890112Y-76131009D01*
X117890112Y-76131009D02*
X117794874Y-76083390D01*
X117794874Y-76083390D02*
X117747255Y-76035771D01*
X117747255Y-76035771D02*
X117699636Y-75940533D01*
X117699636Y-75940533D02*
X117699636Y-75845295D01*
X117699636Y-75845295D02*
X117747255Y-75750057D01*
X117747255Y-75750057D02*
X117794874Y-75702438D01*
X117794874Y-75702438D02*
X117890112Y-75654819D01*
X117890112Y-75654819D02*
X118128207Y-75654819D01*
X118128207Y-75654819D02*
X118271064Y-75702438D01*
X118890112Y-75654819D02*
X119080588Y-75654819D01*
X119080588Y-75654819D02*
X119175826Y-75702438D01*
X119175826Y-75702438D02*
X119271064Y-75797676D01*
X119271064Y-75797676D02*
X119318683Y-75988152D01*
X119318683Y-75988152D02*
X119318683Y-76321485D01*
X119318683Y-76321485D02*
X119271064Y-76511961D01*
X119271064Y-76511961D02*
X119175826Y-76607200D01*
X119175826Y-76607200D02*
X119080588Y-76654819D01*
X119080588Y-76654819D02*
X118890112Y-76654819D01*
X118890112Y-76654819D02*
X118794874Y-76607200D01*
X118794874Y-76607200D02*
X118699636Y-76511961D01*
X118699636Y-76511961D02*
X118652017Y-76321485D01*
X118652017Y-76321485D02*
X118652017Y-75988152D01*
X118652017Y-75988152D02*
X118699636Y-75797676D01*
X118699636Y-75797676D02*
X118794874Y-75702438D01*
X118794874Y-75702438D02*
X118890112Y-75654819D01*
X109556779Y-79194819D02*
X109556779Y-78194819D01*
X109556779Y-78194819D02*
X109937731Y-78194819D01*
X109937731Y-78194819D02*
X110032969Y-78242438D01*
X110032969Y-78242438D02*
X110080588Y-78290057D01*
X110080588Y-78290057D02*
X110128207Y-78385295D01*
X110128207Y-78385295D02*
X110128207Y-78528152D01*
X110128207Y-78528152D02*
X110080588Y-78623390D01*
X110080588Y-78623390D02*
X110032969Y-78671009D01*
X110032969Y-78671009D02*
X109937731Y-78718628D01*
X109937731Y-78718628D02*
X109556779Y-78718628D01*
X110890112Y-78671009D02*
X111032969Y-78718628D01*
X111032969Y-78718628D02*
X111080588Y-78766247D01*
X111080588Y-78766247D02*
X111128207Y-78861485D01*
X111128207Y-78861485D02*
X111128207Y-79004342D01*
X111128207Y-79004342D02*
X111080588Y-79099580D01*
X111080588Y-79099580D02*
X111032969Y-79147200D01*
X111032969Y-79147200D02*
X110937731Y-79194819D01*
X110937731Y-79194819D02*
X110556779Y-79194819D01*
X110556779Y-79194819D02*
X110556779Y-78194819D01*
X110556779Y-78194819D02*
X110890112Y-78194819D01*
X110890112Y-78194819D02*
X110985350Y-78242438D01*
X110985350Y-78242438D02*
X111032969Y-78290057D01*
X111032969Y-78290057D02*
X111080588Y-78385295D01*
X111080588Y-78385295D02*
X111080588Y-78480533D01*
X111080588Y-78480533D02*
X111032969Y-78575771D01*
X111032969Y-78575771D02*
X110985350Y-78623390D01*
X110985350Y-78623390D02*
X110890112Y-78671009D01*
X110890112Y-78671009D02*
X110556779Y-78671009D01*
X112032969Y-78194819D02*
X111556779Y-78194819D01*
X111556779Y-78194819D02*
X111509160Y-78671009D01*
X111509160Y-78671009D02*
X111556779Y-78623390D01*
X111556779Y-78623390D02*
X111652017Y-78575771D01*
X111652017Y-78575771D02*
X111890112Y-78575771D01*
X111890112Y-78575771D02*
X111985350Y-78623390D01*
X111985350Y-78623390D02*
X112032969Y-78671009D01*
X112032969Y-78671009D02*
X112080588Y-78766247D01*
X112080588Y-78766247D02*
X112080588Y-79004342D01*
X112080588Y-79004342D02*
X112032969Y-79099580D01*
X112032969Y-79099580D02*
X111985350Y-79147200D01*
X111985350Y-79147200D02*
X111890112Y-79194819D01*
X111890112Y-79194819D02*
X111652017Y-79194819D01*
X111652017Y-79194819D02*
X111556779Y-79147200D01*
X111556779Y-79147200D02*
X111509160Y-79099580D01*
X113271065Y-79194819D02*
X113271065Y-78194819D01*
X113271065Y-78194819D02*
X113604398Y-78909104D01*
X113604398Y-78909104D02*
X113937731Y-78194819D01*
X113937731Y-78194819D02*
X113937731Y-79194819D01*
X114318684Y-78194819D02*
X114985350Y-79194819D01*
X114985350Y-78194819D02*
X114318684Y-79194819D01*
X115128208Y-79290057D02*
X115890112Y-79290057D01*
X116128208Y-79194819D02*
X116128208Y-78194819D01*
X116128208Y-78194819D02*
X116461541Y-78909104D01*
X116461541Y-78909104D02*
X116794874Y-78194819D01*
X116794874Y-78194819D02*
X116794874Y-79194819D01*
X117461541Y-78194819D02*
X117652017Y-78194819D01*
X117652017Y-78194819D02*
X117747255Y-78242438D01*
X117747255Y-78242438D02*
X117842493Y-78337676D01*
X117842493Y-78337676D02*
X117890112Y-78528152D01*
X117890112Y-78528152D02*
X117890112Y-78861485D01*
X117890112Y-78861485D02*
X117842493Y-79051961D01*
X117842493Y-79051961D02*
X117747255Y-79147200D01*
X117747255Y-79147200D02*
X117652017Y-79194819D01*
X117652017Y-79194819D02*
X117461541Y-79194819D01*
X117461541Y-79194819D02*
X117366303Y-79147200D01*
X117366303Y-79147200D02*
X117271065Y-79051961D01*
X117271065Y-79051961D02*
X117223446Y-78861485D01*
X117223446Y-78861485D02*
X117223446Y-78528152D01*
X117223446Y-78528152D02*
X117271065Y-78337676D01*
X117271065Y-78337676D02*
X117366303Y-78242438D01*
X117366303Y-78242438D02*
X117461541Y-78194819D01*
X118271065Y-79147200D02*
X118413922Y-79194819D01*
X118413922Y-79194819D02*
X118652017Y-79194819D01*
X118652017Y-79194819D02*
X118747255Y-79147200D01*
X118747255Y-79147200D02*
X118794874Y-79099580D01*
X118794874Y-79099580D02*
X118842493Y-79004342D01*
X118842493Y-79004342D02*
X118842493Y-78909104D01*
X118842493Y-78909104D02*
X118794874Y-78813866D01*
X118794874Y-78813866D02*
X118747255Y-78766247D01*
X118747255Y-78766247D02*
X118652017Y-78718628D01*
X118652017Y-78718628D02*
X118461541Y-78671009D01*
X118461541Y-78671009D02*
X118366303Y-78623390D01*
X118366303Y-78623390D02*
X118318684Y-78575771D01*
X118318684Y-78575771D02*
X118271065Y-78480533D01*
X118271065Y-78480533D02*
X118271065Y-78385295D01*
X118271065Y-78385295D02*
X118318684Y-78290057D01*
X118318684Y-78290057D02*
X118366303Y-78242438D01*
X118366303Y-78242438D02*
X118461541Y-78194819D01*
X118461541Y-78194819D02*
X118699636Y-78194819D01*
X118699636Y-78194819D02*
X118842493Y-78242438D01*
X119271065Y-79194819D02*
X119271065Y-78194819D01*
X110080588Y-85902438D02*
X109985350Y-85854819D01*
X109985350Y-85854819D02*
X109842493Y-85854819D01*
X109842493Y-85854819D02*
X109699636Y-85902438D01*
X109699636Y-85902438D02*
X109604398Y-85997676D01*
X109604398Y-85997676D02*
X109556779Y-86092914D01*
X109556779Y-86092914D02*
X109509160Y-86283390D01*
X109509160Y-86283390D02*
X109509160Y-86426247D01*
X109509160Y-86426247D02*
X109556779Y-86616723D01*
X109556779Y-86616723D02*
X109604398Y-86711961D01*
X109604398Y-86711961D02*
X109699636Y-86807200D01*
X109699636Y-86807200D02*
X109842493Y-86854819D01*
X109842493Y-86854819D02*
X109937731Y-86854819D01*
X109937731Y-86854819D02*
X110080588Y-86807200D01*
X110080588Y-86807200D02*
X110128207Y-86759580D01*
X110128207Y-86759580D02*
X110128207Y-86426247D01*
X110128207Y-86426247D02*
X109937731Y-86426247D01*
X110556779Y-86854819D02*
X110556779Y-85854819D01*
X110556779Y-85854819D02*
X111128207Y-86854819D01*
X111128207Y-86854819D02*
X111128207Y-85854819D01*
X111604398Y-86854819D02*
X111604398Y-85854819D01*
X111604398Y-85854819D02*
X111842493Y-85854819D01*
X111842493Y-85854819D02*
X111985350Y-85902438D01*
X111985350Y-85902438D02*
X112080588Y-85997676D01*
X112080588Y-85997676D02*
X112128207Y-86092914D01*
X112128207Y-86092914D02*
X112175826Y-86283390D01*
X112175826Y-86283390D02*
X112175826Y-86426247D01*
X112175826Y-86426247D02*
X112128207Y-86616723D01*
X112128207Y-86616723D02*
X112080588Y-86711961D01*
X112080588Y-86711961D02*
X111985350Y-86807200D01*
X111985350Y-86807200D02*
X111842493Y-86854819D01*
X111842493Y-86854819D02*
X111604398Y-86854819D01*
X110080588Y-88402438D02*
X109985350Y-88354819D01*
X109985350Y-88354819D02*
X109842493Y-88354819D01*
X109842493Y-88354819D02*
X109699636Y-88402438D01*
X109699636Y-88402438D02*
X109604398Y-88497676D01*
X109604398Y-88497676D02*
X109556779Y-88592914D01*
X109556779Y-88592914D02*
X109509160Y-88783390D01*
X109509160Y-88783390D02*
X109509160Y-88926247D01*
X109509160Y-88926247D02*
X109556779Y-89116723D01*
X109556779Y-89116723D02*
X109604398Y-89211961D01*
X109604398Y-89211961D02*
X109699636Y-89307200D01*
X109699636Y-89307200D02*
X109842493Y-89354819D01*
X109842493Y-89354819D02*
X109937731Y-89354819D01*
X109937731Y-89354819D02*
X110080588Y-89307200D01*
X110080588Y-89307200D02*
X110128207Y-89259580D01*
X110128207Y-89259580D02*
X110128207Y-88926247D01*
X110128207Y-88926247D02*
X109937731Y-88926247D01*
X110556779Y-89354819D02*
X110556779Y-88354819D01*
X110556779Y-88354819D02*
X111128207Y-89354819D01*
X111128207Y-89354819D02*
X111128207Y-88354819D01*
X111604398Y-89354819D02*
X111604398Y-88354819D01*
X111604398Y-88354819D02*
X111842493Y-88354819D01*
X111842493Y-88354819D02*
X111985350Y-88402438D01*
X111985350Y-88402438D02*
X112080588Y-88497676D01*
X112080588Y-88497676D02*
X112128207Y-88592914D01*
X112128207Y-88592914D02*
X112175826Y-88783390D01*
X112175826Y-88783390D02*
X112175826Y-88926247D01*
X112175826Y-88926247D02*
X112128207Y-89116723D01*
X112128207Y-89116723D02*
X112080588Y-89211961D01*
X112080588Y-89211961D02*
X111985350Y-89307200D01*
X111985350Y-89307200D02*
X111842493Y-89354819D01*
X111842493Y-89354819D02*
X111604398Y-89354819D01*
X109556779Y-94434819D02*
X109556779Y-93434819D01*
X109556779Y-93434819D02*
X109937731Y-93434819D01*
X109937731Y-93434819D02*
X110032969Y-93482438D01*
X110032969Y-93482438D02*
X110080588Y-93530057D01*
X110080588Y-93530057D02*
X110128207Y-93625295D01*
X110128207Y-93625295D02*
X110128207Y-93768152D01*
X110128207Y-93768152D02*
X110080588Y-93863390D01*
X110080588Y-93863390D02*
X110032969Y-93911009D01*
X110032969Y-93911009D02*
X109937731Y-93958628D01*
X109937731Y-93958628D02*
X109556779Y-93958628D01*
X110509160Y-94149104D02*
X110985350Y-94149104D01*
X110413922Y-94434819D02*
X110747255Y-93434819D01*
X110747255Y-93434819D02*
X111080588Y-94434819D01*
X111604398Y-93434819D02*
X111699636Y-93434819D01*
X111699636Y-93434819D02*
X111794874Y-93482438D01*
X111794874Y-93482438D02*
X111842493Y-93530057D01*
X111842493Y-93530057D02*
X111890112Y-93625295D01*
X111890112Y-93625295D02*
X111937731Y-93815771D01*
X111937731Y-93815771D02*
X111937731Y-94053866D01*
X111937731Y-94053866D02*
X111890112Y-94244342D01*
X111890112Y-94244342D02*
X111842493Y-94339580D01*
X111842493Y-94339580D02*
X111794874Y-94387200D01*
X111794874Y-94387200D02*
X111699636Y-94434819D01*
X111699636Y-94434819D02*
X111604398Y-94434819D01*
X111604398Y-94434819D02*
X111509160Y-94387200D01*
X111509160Y-94387200D02*
X111461541Y-94339580D01*
X111461541Y-94339580D02*
X111413922Y-94244342D01*
X111413922Y-94244342D02*
X111366303Y-94053866D01*
X111366303Y-94053866D02*
X111366303Y-93815771D01*
X111366303Y-93815771D02*
X111413922Y-93625295D01*
X111413922Y-93625295D02*
X111461541Y-93530057D01*
X111461541Y-93530057D02*
X111509160Y-93482438D01*
X111509160Y-93482438D02*
X111604398Y-93434819D01*
X113032970Y-93434819D02*
X113271065Y-94434819D01*
X113271065Y-94434819D02*
X113461541Y-93720533D01*
X113461541Y-93720533D02*
X113652017Y-94434819D01*
X113652017Y-94434819D02*
X113890113Y-93434819D01*
X114271065Y-94434819D02*
X114271065Y-93434819D01*
X114842493Y-94434819D02*
X114413922Y-93863390D01*
X114842493Y-93434819D02*
X114271065Y-94006247D01*
X115271065Y-93434819D02*
X115271065Y-94244342D01*
X115271065Y-94244342D02*
X115318684Y-94339580D01*
X115318684Y-94339580D02*
X115366303Y-94387200D01*
X115366303Y-94387200D02*
X115461541Y-94434819D01*
X115461541Y-94434819D02*
X115652017Y-94434819D01*
X115652017Y-94434819D02*
X115747255Y-94387200D01*
X115747255Y-94387200D02*
X115794874Y-94339580D01*
X115794874Y-94339580D02*
X115842493Y-94244342D01*
X115842493Y-94244342D02*
X115842493Y-93434819D01*
X116318684Y-94434819D02*
X116318684Y-93434819D01*
X116318684Y-93434819D02*
X116699636Y-93434819D01*
X116699636Y-93434819D02*
X116794874Y-93482438D01*
X116794874Y-93482438D02*
X116842493Y-93530057D01*
X116842493Y-93530057D02*
X116890112Y-93625295D01*
X116890112Y-93625295D02*
X116890112Y-93768152D01*
X116890112Y-93768152D02*
X116842493Y-93863390D01*
X116842493Y-93863390D02*
X116794874Y-93911009D01*
X116794874Y-93911009D02*
X116699636Y-93958628D01*
X116699636Y-93958628D02*
X116318684Y-93958628D01*
X117842493Y-94434819D02*
X117271065Y-94434819D01*
X117556779Y-94434819D02*
X117556779Y-93434819D01*
X117556779Y-93434819D02*
X117461541Y-93577676D01*
X117461541Y-93577676D02*
X117366303Y-93672914D01*
X117366303Y-93672914D02*
X117271065Y-93720533D01*
X109556779Y-96974819D02*
X109556779Y-95974819D01*
X109556779Y-95974819D02*
X109937731Y-95974819D01*
X109937731Y-95974819D02*
X110032969Y-96022438D01*
X110032969Y-96022438D02*
X110080588Y-96070057D01*
X110080588Y-96070057D02*
X110128207Y-96165295D01*
X110128207Y-96165295D02*
X110128207Y-96308152D01*
X110128207Y-96308152D02*
X110080588Y-96403390D01*
X110080588Y-96403390D02*
X110032969Y-96451009D01*
X110032969Y-96451009D02*
X109937731Y-96498628D01*
X109937731Y-96498628D02*
X109556779Y-96498628D01*
X110509160Y-96689104D02*
X110985350Y-96689104D01*
X110413922Y-96974819D02*
X110747255Y-95974819D01*
X110747255Y-95974819D02*
X111080588Y-96974819D01*
X111937731Y-96974819D02*
X111366303Y-96974819D01*
X111652017Y-96974819D02*
X111652017Y-95974819D01*
X111652017Y-95974819D02*
X111556779Y-96117676D01*
X111556779Y-96117676D02*
X111461541Y-96212914D01*
X111461541Y-96212914D02*
X111366303Y-96260533D01*
X113604398Y-96974819D02*
X113128208Y-96974819D01*
X113128208Y-96974819D02*
X113128208Y-95974819D01*
X113937732Y-96451009D02*
X114271065Y-96451009D01*
X114413922Y-96974819D02*
X113937732Y-96974819D01*
X113937732Y-96974819D02*
X113937732Y-95974819D01*
X113937732Y-95974819D02*
X114413922Y-95974819D01*
X114842494Y-96974819D02*
X114842494Y-95974819D01*
X114842494Y-95974819D02*
X115080589Y-95974819D01*
X115080589Y-95974819D02*
X115223446Y-96022438D01*
X115223446Y-96022438D02*
X115318684Y-96117676D01*
X115318684Y-96117676D02*
X115366303Y-96212914D01*
X115366303Y-96212914D02*
X115413922Y-96403390D01*
X115413922Y-96403390D02*
X115413922Y-96546247D01*
X115413922Y-96546247D02*
X115366303Y-96736723D01*
X115366303Y-96736723D02*
X115318684Y-96831961D01*
X115318684Y-96831961D02*
X115223446Y-96927200D01*
X115223446Y-96927200D02*
X115080589Y-96974819D01*
X115080589Y-96974819D02*
X114842494Y-96974819D01*
X116366303Y-96974819D02*
X115794875Y-96974819D01*
X116080589Y-96974819D02*
X116080589Y-95974819D01*
X116080589Y-95974819D02*
X115985351Y-96117676D01*
X115985351Y-96117676D02*
X115890113Y-96212914D01*
X115890113Y-96212914D02*
X115794875Y-96260533D01*
X109556779Y-99514819D02*
X109556779Y-98514819D01*
X109556779Y-98514819D02*
X109937731Y-98514819D01*
X109937731Y-98514819D02*
X110032969Y-98562438D01*
X110032969Y-98562438D02*
X110080588Y-98610057D01*
X110080588Y-98610057D02*
X110128207Y-98705295D01*
X110128207Y-98705295D02*
X110128207Y-98848152D01*
X110128207Y-98848152D02*
X110080588Y-98943390D01*
X110080588Y-98943390D02*
X110032969Y-98991009D01*
X110032969Y-98991009D02*
X109937731Y-99038628D01*
X109937731Y-99038628D02*
X109556779Y-99038628D01*
X110509160Y-99229104D02*
X110985350Y-99229104D01*
X110413922Y-99514819D02*
X110747255Y-98514819D01*
X110747255Y-98514819D02*
X111080588Y-99514819D01*
X111366303Y-98610057D02*
X111413922Y-98562438D01*
X111413922Y-98562438D02*
X111509160Y-98514819D01*
X111509160Y-98514819D02*
X111747255Y-98514819D01*
X111747255Y-98514819D02*
X111842493Y-98562438D01*
X111842493Y-98562438D02*
X111890112Y-98610057D01*
X111890112Y-98610057D02*
X111937731Y-98705295D01*
X111937731Y-98705295D02*
X111937731Y-98800533D01*
X111937731Y-98800533D02*
X111890112Y-98943390D01*
X111890112Y-98943390D02*
X111318684Y-99514819D01*
X111318684Y-99514819D02*
X111937731Y-99514819D01*
X113080589Y-99229104D02*
X113556779Y-99229104D01*
X112985351Y-99514819D02*
X113318684Y-98514819D01*
X113318684Y-98514819D02*
X113652017Y-99514819D01*
X113985351Y-99514819D02*
X113985351Y-98514819D01*
X114556779Y-99514819D02*
X114128208Y-98943390D01*
X114556779Y-98514819D02*
X113985351Y-99086247D01*
X114747256Y-99610057D02*
X115509160Y-99610057D01*
X115604399Y-98514819D02*
X116175827Y-98514819D01*
X115890113Y-99514819D02*
X115890113Y-98514819D01*
X117080589Y-99514819D02*
X116747256Y-99038628D01*
X116509161Y-99514819D02*
X116509161Y-98514819D01*
X116509161Y-98514819D02*
X116890113Y-98514819D01*
X116890113Y-98514819D02*
X116985351Y-98562438D01*
X116985351Y-98562438D02*
X117032970Y-98610057D01*
X117032970Y-98610057D02*
X117080589Y-98705295D01*
X117080589Y-98705295D02*
X117080589Y-98848152D01*
X117080589Y-98848152D02*
X117032970Y-98943390D01*
X117032970Y-98943390D02*
X116985351Y-98991009D01*
X116985351Y-98991009D02*
X116890113Y-99038628D01*
X116890113Y-99038628D02*
X116509161Y-99038628D01*
X118032970Y-98562438D02*
X117937732Y-98514819D01*
X117937732Y-98514819D02*
X117794875Y-98514819D01*
X117794875Y-98514819D02*
X117652018Y-98562438D01*
X117652018Y-98562438D02*
X117556780Y-98657676D01*
X117556780Y-98657676D02*
X117509161Y-98752914D01*
X117509161Y-98752914D02*
X117461542Y-98943390D01*
X117461542Y-98943390D02*
X117461542Y-99086247D01*
X117461542Y-99086247D02*
X117509161Y-99276723D01*
X117509161Y-99276723D02*
X117556780Y-99371961D01*
X117556780Y-99371961D02*
X117652018Y-99467200D01*
X117652018Y-99467200D02*
X117794875Y-99514819D01*
X117794875Y-99514819D02*
X117890113Y-99514819D01*
X117890113Y-99514819D02*
X118032970Y-99467200D01*
X118032970Y-99467200D02*
X118080589Y-99419580D01*
X118080589Y-99419580D02*
X118080589Y-99086247D01*
X118080589Y-99086247D02*
X117890113Y-99086247D01*
X109556779Y-102054819D02*
X109556779Y-101054819D01*
X109556779Y-101054819D02*
X109937731Y-101054819D01*
X109937731Y-101054819D02*
X110032969Y-101102438D01*
X110032969Y-101102438D02*
X110080588Y-101150057D01*
X110080588Y-101150057D02*
X110128207Y-101245295D01*
X110128207Y-101245295D02*
X110128207Y-101388152D01*
X110128207Y-101388152D02*
X110080588Y-101483390D01*
X110080588Y-101483390D02*
X110032969Y-101531009D01*
X110032969Y-101531009D02*
X109937731Y-101578628D01*
X109937731Y-101578628D02*
X109556779Y-101578628D01*
X110509160Y-101769104D02*
X110985350Y-101769104D01*
X110413922Y-102054819D02*
X110747255Y-101054819D01*
X110747255Y-101054819D02*
X111080588Y-102054819D01*
X111318684Y-101054819D02*
X111937731Y-101054819D01*
X111937731Y-101054819D02*
X111604398Y-101435771D01*
X111604398Y-101435771D02*
X111747255Y-101435771D01*
X111747255Y-101435771D02*
X111842493Y-101483390D01*
X111842493Y-101483390D02*
X111890112Y-101531009D01*
X111890112Y-101531009D02*
X111937731Y-101626247D01*
X111937731Y-101626247D02*
X111937731Y-101864342D01*
X111937731Y-101864342D02*
X111890112Y-101959580D01*
X111890112Y-101959580D02*
X111842493Y-102007200D01*
X111842493Y-102007200D02*
X111747255Y-102054819D01*
X111747255Y-102054819D02*
X111461541Y-102054819D01*
X111461541Y-102054819D02*
X111366303Y-102007200D01*
X111366303Y-102007200D02*
X111318684Y-101959580D01*
X113080589Y-101769104D02*
X113556779Y-101769104D01*
X112985351Y-102054819D02*
X113318684Y-101054819D01*
X113318684Y-101054819D02*
X113652017Y-102054819D01*
X113985351Y-102054819D02*
X113985351Y-101054819D01*
X114556779Y-102054819D02*
X114128208Y-101483390D01*
X114556779Y-101054819D02*
X113985351Y-101626247D01*
X114747256Y-102150057D02*
X115509160Y-102150057D01*
X116318684Y-101959580D02*
X116271065Y-102007200D01*
X116271065Y-102007200D02*
X116128208Y-102054819D01*
X116128208Y-102054819D02*
X116032970Y-102054819D01*
X116032970Y-102054819D02*
X115890113Y-102007200D01*
X115890113Y-102007200D02*
X115794875Y-101911961D01*
X115794875Y-101911961D02*
X115747256Y-101816723D01*
X115747256Y-101816723D02*
X115699637Y-101626247D01*
X115699637Y-101626247D02*
X115699637Y-101483390D01*
X115699637Y-101483390D02*
X115747256Y-101292914D01*
X115747256Y-101292914D02*
X115794875Y-101197676D01*
X115794875Y-101197676D02*
X115890113Y-101102438D01*
X115890113Y-101102438D02*
X116032970Y-101054819D01*
X116032970Y-101054819D02*
X116128208Y-101054819D01*
X116128208Y-101054819D02*
X116271065Y-101102438D01*
X116271065Y-101102438D02*
X116318684Y-101150057D01*
X116699637Y-102007200D02*
X116842494Y-102054819D01*
X116842494Y-102054819D02*
X117080589Y-102054819D01*
X117080589Y-102054819D02*
X117175827Y-102007200D01*
X117175827Y-102007200D02*
X117223446Y-101959580D01*
X117223446Y-101959580D02*
X117271065Y-101864342D01*
X117271065Y-101864342D02*
X117271065Y-101769104D01*
X117271065Y-101769104D02*
X117223446Y-101673866D01*
X117223446Y-101673866D02*
X117175827Y-101626247D01*
X117175827Y-101626247D02*
X117080589Y-101578628D01*
X117080589Y-101578628D02*
X116890113Y-101531009D01*
X116890113Y-101531009D02*
X116794875Y-101483390D01*
X116794875Y-101483390D02*
X116747256Y-101435771D01*
X116747256Y-101435771D02*
X116699637Y-101340533D01*
X116699637Y-101340533D02*
X116699637Y-101245295D01*
X116699637Y-101245295D02*
X116747256Y-101150057D01*
X116747256Y-101150057D02*
X116794875Y-101102438D01*
X116794875Y-101102438D02*
X116890113Y-101054819D01*
X116890113Y-101054819D02*
X117128208Y-101054819D01*
X117128208Y-101054819D02*
X117271065Y-101102438D01*
X109556779Y-104594819D02*
X109556779Y-103594819D01*
X109556779Y-103594819D02*
X109937731Y-103594819D01*
X109937731Y-103594819D02*
X110032969Y-103642438D01*
X110032969Y-103642438D02*
X110080588Y-103690057D01*
X110080588Y-103690057D02*
X110128207Y-103785295D01*
X110128207Y-103785295D02*
X110128207Y-103928152D01*
X110128207Y-103928152D02*
X110080588Y-104023390D01*
X110080588Y-104023390D02*
X110032969Y-104071009D01*
X110032969Y-104071009D02*
X109937731Y-104118628D01*
X109937731Y-104118628D02*
X109556779Y-104118628D01*
X110509160Y-104309104D02*
X110985350Y-104309104D01*
X110413922Y-104594819D02*
X110747255Y-103594819D01*
X110747255Y-103594819D02*
X111080588Y-104594819D01*
X111842493Y-103928152D02*
X111842493Y-104594819D01*
X111604398Y-103547200D02*
X111366303Y-104261485D01*
X111366303Y-104261485D02*
X111985350Y-104261485D01*
X109556779Y-107134819D02*
X109556779Y-106134819D01*
X109556779Y-106134819D02*
X109937731Y-106134819D01*
X109937731Y-106134819D02*
X110032969Y-106182438D01*
X110032969Y-106182438D02*
X110080588Y-106230057D01*
X110080588Y-106230057D02*
X110128207Y-106325295D01*
X110128207Y-106325295D02*
X110128207Y-106468152D01*
X110128207Y-106468152D02*
X110080588Y-106563390D01*
X110080588Y-106563390D02*
X110032969Y-106611009D01*
X110032969Y-106611009D02*
X109937731Y-106658628D01*
X109937731Y-106658628D02*
X109556779Y-106658628D01*
X110509160Y-106849104D02*
X110985350Y-106849104D01*
X110413922Y-107134819D02*
X110747255Y-106134819D01*
X110747255Y-106134819D02*
X111080588Y-107134819D01*
X111890112Y-106134819D02*
X111413922Y-106134819D01*
X111413922Y-106134819D02*
X111366303Y-106611009D01*
X111366303Y-106611009D02*
X111413922Y-106563390D01*
X111413922Y-106563390D02*
X111509160Y-106515771D01*
X111509160Y-106515771D02*
X111747255Y-106515771D01*
X111747255Y-106515771D02*
X111842493Y-106563390D01*
X111842493Y-106563390D02*
X111890112Y-106611009D01*
X111890112Y-106611009D02*
X111937731Y-106706247D01*
X111937731Y-106706247D02*
X111937731Y-106944342D01*
X111937731Y-106944342D02*
X111890112Y-107039580D01*
X111890112Y-107039580D02*
X111842493Y-107087200D01*
X111842493Y-107087200D02*
X111747255Y-107134819D01*
X111747255Y-107134819D02*
X111509160Y-107134819D01*
X111509160Y-107134819D02*
X111413922Y-107087200D01*
X111413922Y-107087200D02*
X111366303Y-107039580D01*
X113604398Y-107134819D02*
X113128208Y-107134819D01*
X113128208Y-107134819D02*
X113128208Y-106134819D01*
X113937732Y-107134819D02*
X113937732Y-106134819D01*
X113937732Y-106134819D02*
X114271065Y-106849104D01*
X114271065Y-106849104D02*
X114604398Y-106134819D01*
X114604398Y-106134819D02*
X114604398Y-107134819D01*
X115032970Y-107087200D02*
X115175827Y-107134819D01*
X115175827Y-107134819D02*
X115413922Y-107134819D01*
X115413922Y-107134819D02*
X115509160Y-107087200D01*
X115509160Y-107087200D02*
X115556779Y-107039580D01*
X115556779Y-107039580D02*
X115604398Y-106944342D01*
X115604398Y-106944342D02*
X115604398Y-106849104D01*
X115604398Y-106849104D02*
X115556779Y-106753866D01*
X115556779Y-106753866D02*
X115509160Y-106706247D01*
X115509160Y-106706247D02*
X115413922Y-106658628D01*
X115413922Y-106658628D02*
X115223446Y-106611009D01*
X115223446Y-106611009D02*
X115128208Y-106563390D01*
X115128208Y-106563390D02*
X115080589Y-106515771D01*
X115080589Y-106515771D02*
X115032970Y-106420533D01*
X115032970Y-106420533D02*
X115032970Y-106325295D01*
X115032970Y-106325295D02*
X115080589Y-106230057D01*
X115080589Y-106230057D02*
X115128208Y-106182438D01*
X115128208Y-106182438D02*
X115223446Y-106134819D01*
X115223446Y-106134819D02*
X115461541Y-106134819D01*
X115461541Y-106134819D02*
X115604398Y-106182438D01*
X115794875Y-107230057D02*
X116556779Y-107230057D01*
X117366303Y-107039580D02*
X117318684Y-107087200D01*
X117318684Y-107087200D02*
X117175827Y-107134819D01*
X117175827Y-107134819D02*
X117080589Y-107134819D01*
X117080589Y-107134819D02*
X116937732Y-107087200D01*
X116937732Y-107087200D02*
X116842494Y-106991961D01*
X116842494Y-106991961D02*
X116794875Y-106896723D01*
X116794875Y-106896723D02*
X116747256Y-106706247D01*
X116747256Y-106706247D02*
X116747256Y-106563390D01*
X116747256Y-106563390D02*
X116794875Y-106372914D01*
X116794875Y-106372914D02*
X116842494Y-106277676D01*
X116842494Y-106277676D02*
X116937732Y-106182438D01*
X116937732Y-106182438D02*
X117080589Y-106134819D01*
X117080589Y-106134819D02*
X117175827Y-106134819D01*
X117175827Y-106134819D02*
X117318684Y-106182438D01*
X117318684Y-106182438D02*
X117366303Y-106230057D01*
X117794875Y-107134819D02*
X117794875Y-106134819D01*
X118366303Y-107134819D02*
X117937732Y-106563390D01*
X118366303Y-106134819D02*
X117794875Y-106706247D01*
X109556779Y-109674819D02*
X109556779Y-108674819D01*
X109556779Y-108674819D02*
X109937731Y-108674819D01*
X109937731Y-108674819D02*
X110032969Y-108722438D01*
X110032969Y-108722438D02*
X110080588Y-108770057D01*
X110080588Y-108770057D02*
X110128207Y-108865295D01*
X110128207Y-108865295D02*
X110128207Y-109008152D01*
X110128207Y-109008152D02*
X110080588Y-109103390D01*
X110080588Y-109103390D02*
X110032969Y-109151009D01*
X110032969Y-109151009D02*
X109937731Y-109198628D01*
X109937731Y-109198628D02*
X109556779Y-109198628D01*
X110509160Y-109389104D02*
X110985350Y-109389104D01*
X110413922Y-109674819D02*
X110747255Y-108674819D01*
X110747255Y-108674819D02*
X111080588Y-109674819D01*
X111842493Y-108674819D02*
X111652017Y-108674819D01*
X111652017Y-108674819D02*
X111556779Y-108722438D01*
X111556779Y-108722438D02*
X111509160Y-108770057D01*
X111509160Y-108770057D02*
X111413922Y-108912914D01*
X111413922Y-108912914D02*
X111366303Y-109103390D01*
X111366303Y-109103390D02*
X111366303Y-109484342D01*
X111366303Y-109484342D02*
X111413922Y-109579580D01*
X111413922Y-109579580D02*
X111461541Y-109627200D01*
X111461541Y-109627200D02*
X111556779Y-109674819D01*
X111556779Y-109674819D02*
X111747255Y-109674819D01*
X111747255Y-109674819D02*
X111842493Y-109627200D01*
X111842493Y-109627200D02*
X111890112Y-109579580D01*
X111890112Y-109579580D02*
X111937731Y-109484342D01*
X111937731Y-109484342D02*
X111937731Y-109246247D01*
X111937731Y-109246247D02*
X111890112Y-109151009D01*
X111890112Y-109151009D02*
X111842493Y-109103390D01*
X111842493Y-109103390D02*
X111747255Y-109055771D01*
X111747255Y-109055771D02*
X111556779Y-109055771D01*
X111556779Y-109055771D02*
X111461541Y-109103390D01*
X111461541Y-109103390D02*
X111413922Y-109151009D01*
X111413922Y-109151009D02*
X111366303Y-109246247D01*
X113604398Y-109674819D02*
X113128208Y-109674819D01*
X113128208Y-109674819D02*
X113128208Y-108674819D01*
X113890113Y-109627200D02*
X114032970Y-109674819D01*
X114032970Y-109674819D02*
X114271065Y-109674819D01*
X114271065Y-109674819D02*
X114366303Y-109627200D01*
X114366303Y-109627200D02*
X114413922Y-109579580D01*
X114413922Y-109579580D02*
X114461541Y-109484342D01*
X114461541Y-109484342D02*
X114461541Y-109389104D01*
X114461541Y-109389104D02*
X114413922Y-109293866D01*
X114413922Y-109293866D02*
X114366303Y-109246247D01*
X114366303Y-109246247D02*
X114271065Y-109198628D01*
X114271065Y-109198628D02*
X114080589Y-109151009D01*
X114080589Y-109151009D02*
X113985351Y-109103390D01*
X113985351Y-109103390D02*
X113937732Y-109055771D01*
X113937732Y-109055771D02*
X113890113Y-108960533D01*
X113890113Y-108960533D02*
X113890113Y-108865295D01*
X113890113Y-108865295D02*
X113937732Y-108770057D01*
X113937732Y-108770057D02*
X113985351Y-108722438D01*
X113985351Y-108722438D02*
X114080589Y-108674819D01*
X114080589Y-108674819D02*
X114318684Y-108674819D01*
X114318684Y-108674819D02*
X114461541Y-108722438D01*
X114890113Y-109674819D02*
X114890113Y-108674819D01*
X114890113Y-108674819D02*
X115223446Y-109389104D01*
X115223446Y-109389104D02*
X115556779Y-108674819D01*
X115556779Y-108674819D02*
X115556779Y-109674819D01*
X115794875Y-109770057D02*
X116556779Y-109770057D01*
X116794875Y-109674819D02*
X116794875Y-108674819D01*
X116794875Y-108674819D02*
X117128208Y-109389104D01*
X117128208Y-109389104D02*
X117461541Y-108674819D01*
X117461541Y-108674819D02*
X117461541Y-109674819D01*
X117937732Y-109674819D02*
X117937732Y-108674819D01*
X118366303Y-109627200D02*
X118509160Y-109674819D01*
X118509160Y-109674819D02*
X118747255Y-109674819D01*
X118747255Y-109674819D02*
X118842493Y-109627200D01*
X118842493Y-109627200D02*
X118890112Y-109579580D01*
X118890112Y-109579580D02*
X118937731Y-109484342D01*
X118937731Y-109484342D02*
X118937731Y-109389104D01*
X118937731Y-109389104D02*
X118890112Y-109293866D01*
X118890112Y-109293866D02*
X118842493Y-109246247D01*
X118842493Y-109246247D02*
X118747255Y-109198628D01*
X118747255Y-109198628D02*
X118556779Y-109151009D01*
X118556779Y-109151009D02*
X118461541Y-109103390D01*
X118461541Y-109103390D02*
X118413922Y-109055771D01*
X118413922Y-109055771D02*
X118366303Y-108960533D01*
X118366303Y-108960533D02*
X118366303Y-108865295D01*
X118366303Y-108865295D02*
X118413922Y-108770057D01*
X118413922Y-108770057D02*
X118461541Y-108722438D01*
X118461541Y-108722438D02*
X118556779Y-108674819D01*
X118556779Y-108674819D02*
X118794874Y-108674819D01*
X118794874Y-108674819D02*
X118937731Y-108722438D01*
X119556779Y-108674819D02*
X119747255Y-108674819D01*
X119747255Y-108674819D02*
X119842493Y-108722438D01*
X119842493Y-108722438D02*
X119937731Y-108817676D01*
X119937731Y-108817676D02*
X119985350Y-109008152D01*
X119985350Y-109008152D02*
X119985350Y-109341485D01*
X119985350Y-109341485D02*
X119937731Y-109531961D01*
X119937731Y-109531961D02*
X119842493Y-109627200D01*
X119842493Y-109627200D02*
X119747255Y-109674819D01*
X119747255Y-109674819D02*
X119556779Y-109674819D01*
X119556779Y-109674819D02*
X119461541Y-109627200D01*
X119461541Y-109627200D02*
X119366303Y-109531961D01*
X119366303Y-109531961D02*
X119318684Y-109341485D01*
X119318684Y-109341485D02*
X119318684Y-109008152D01*
X119318684Y-109008152D02*
X119366303Y-108817676D01*
X119366303Y-108817676D02*
X119461541Y-108722438D01*
X119461541Y-108722438D02*
X119556779Y-108674819D01*
X109556779Y-112214819D02*
X109556779Y-111214819D01*
X109556779Y-111214819D02*
X109937731Y-111214819D01*
X109937731Y-111214819D02*
X110032969Y-111262438D01*
X110032969Y-111262438D02*
X110080588Y-111310057D01*
X110080588Y-111310057D02*
X110128207Y-111405295D01*
X110128207Y-111405295D02*
X110128207Y-111548152D01*
X110128207Y-111548152D02*
X110080588Y-111643390D01*
X110080588Y-111643390D02*
X110032969Y-111691009D01*
X110032969Y-111691009D02*
X109937731Y-111738628D01*
X109937731Y-111738628D02*
X109556779Y-111738628D01*
X110509160Y-111929104D02*
X110985350Y-111929104D01*
X110413922Y-112214819D02*
X110747255Y-111214819D01*
X110747255Y-111214819D02*
X111080588Y-112214819D01*
X111318684Y-111214819D02*
X111985350Y-111214819D01*
X111985350Y-111214819D02*
X111556779Y-112214819D01*
X113604398Y-112214819D02*
X113128208Y-112214819D01*
X113128208Y-112214819D02*
X113128208Y-111214819D01*
X113890113Y-112167200D02*
X114032970Y-112214819D01*
X114032970Y-112214819D02*
X114271065Y-112214819D01*
X114271065Y-112214819D02*
X114366303Y-112167200D01*
X114366303Y-112167200D02*
X114413922Y-112119580D01*
X114413922Y-112119580D02*
X114461541Y-112024342D01*
X114461541Y-112024342D02*
X114461541Y-111929104D01*
X114461541Y-111929104D02*
X114413922Y-111833866D01*
X114413922Y-111833866D02*
X114366303Y-111786247D01*
X114366303Y-111786247D02*
X114271065Y-111738628D01*
X114271065Y-111738628D02*
X114080589Y-111691009D01*
X114080589Y-111691009D02*
X113985351Y-111643390D01*
X113985351Y-111643390D02*
X113937732Y-111595771D01*
X113937732Y-111595771D02*
X113890113Y-111500533D01*
X113890113Y-111500533D02*
X113890113Y-111405295D01*
X113890113Y-111405295D02*
X113937732Y-111310057D01*
X113937732Y-111310057D02*
X113985351Y-111262438D01*
X113985351Y-111262438D02*
X114080589Y-111214819D01*
X114080589Y-111214819D02*
X114318684Y-111214819D01*
X114318684Y-111214819D02*
X114461541Y-111262438D01*
X114890113Y-112214819D02*
X114890113Y-111214819D01*
X114890113Y-111214819D02*
X115223446Y-111929104D01*
X115223446Y-111929104D02*
X115556779Y-111214819D01*
X115556779Y-111214819D02*
X115556779Y-112214819D01*
X115794875Y-112310057D02*
X116556779Y-112310057D01*
X116794875Y-112214819D02*
X116794875Y-111214819D01*
X116794875Y-111214819D02*
X117128208Y-111929104D01*
X117128208Y-111929104D02*
X117461541Y-111214819D01*
X117461541Y-111214819D02*
X117461541Y-112214819D01*
X118128208Y-111214819D02*
X118318684Y-111214819D01*
X118318684Y-111214819D02*
X118413922Y-111262438D01*
X118413922Y-111262438D02*
X118509160Y-111357676D01*
X118509160Y-111357676D02*
X118556779Y-111548152D01*
X118556779Y-111548152D02*
X118556779Y-111881485D01*
X118556779Y-111881485D02*
X118509160Y-112071961D01*
X118509160Y-112071961D02*
X118413922Y-112167200D01*
X118413922Y-112167200D02*
X118318684Y-112214819D01*
X118318684Y-112214819D02*
X118128208Y-112214819D01*
X118128208Y-112214819D02*
X118032970Y-112167200D01*
X118032970Y-112167200D02*
X117937732Y-112071961D01*
X117937732Y-112071961D02*
X117890113Y-111881485D01*
X117890113Y-111881485D02*
X117890113Y-111548152D01*
X117890113Y-111548152D02*
X117937732Y-111357676D01*
X117937732Y-111357676D02*
X118032970Y-111262438D01*
X118032970Y-111262438D02*
X118128208Y-111214819D01*
X118937732Y-112167200D02*
X119080589Y-112214819D01*
X119080589Y-112214819D02*
X119318684Y-112214819D01*
X119318684Y-112214819D02*
X119413922Y-112167200D01*
X119413922Y-112167200D02*
X119461541Y-112119580D01*
X119461541Y-112119580D02*
X119509160Y-112024342D01*
X119509160Y-112024342D02*
X119509160Y-111929104D01*
X119509160Y-111929104D02*
X119461541Y-111833866D01*
X119461541Y-111833866D02*
X119413922Y-111786247D01*
X119413922Y-111786247D02*
X119318684Y-111738628D01*
X119318684Y-111738628D02*
X119128208Y-111691009D01*
X119128208Y-111691009D02*
X119032970Y-111643390D01*
X119032970Y-111643390D02*
X118985351Y-111595771D01*
X118985351Y-111595771D02*
X118937732Y-111500533D01*
X118937732Y-111500533D02*
X118937732Y-111405295D01*
X118937732Y-111405295D02*
X118985351Y-111310057D01*
X118985351Y-111310057D02*
X119032970Y-111262438D01*
X119032970Y-111262438D02*
X119128208Y-111214819D01*
X119128208Y-111214819D02*
X119366303Y-111214819D01*
X119366303Y-111214819D02*
X119509160Y-111262438D01*
X119937732Y-112214819D02*
X119937732Y-111214819D01*
X109556779Y-114754819D02*
X109556779Y-113754819D01*
X109556779Y-113754819D02*
X109937731Y-113754819D01*
X109937731Y-113754819D02*
X110032969Y-113802438D01*
X110032969Y-113802438D02*
X110080588Y-113850057D01*
X110080588Y-113850057D02*
X110128207Y-113945295D01*
X110128207Y-113945295D02*
X110128207Y-114088152D01*
X110128207Y-114088152D02*
X110080588Y-114183390D01*
X110080588Y-114183390D02*
X110032969Y-114231009D01*
X110032969Y-114231009D02*
X109937731Y-114278628D01*
X109937731Y-114278628D02*
X109556779Y-114278628D01*
X110890112Y-114231009D02*
X111032969Y-114278628D01*
X111032969Y-114278628D02*
X111080588Y-114326247D01*
X111080588Y-114326247D02*
X111128207Y-114421485D01*
X111128207Y-114421485D02*
X111128207Y-114564342D01*
X111128207Y-114564342D02*
X111080588Y-114659580D01*
X111080588Y-114659580D02*
X111032969Y-114707200D01*
X111032969Y-114707200D02*
X110937731Y-114754819D01*
X110937731Y-114754819D02*
X110556779Y-114754819D01*
X110556779Y-114754819D02*
X110556779Y-113754819D01*
X110556779Y-113754819D02*
X110890112Y-113754819D01*
X110890112Y-113754819D02*
X110985350Y-113802438D01*
X110985350Y-113802438D02*
X111032969Y-113850057D01*
X111032969Y-113850057D02*
X111080588Y-113945295D01*
X111080588Y-113945295D02*
X111080588Y-114040533D01*
X111080588Y-114040533D02*
X111032969Y-114135771D01*
X111032969Y-114135771D02*
X110985350Y-114183390D01*
X110985350Y-114183390D02*
X110890112Y-114231009D01*
X110890112Y-114231009D02*
X110556779Y-114231009D01*
X111747255Y-113754819D02*
X111842493Y-113754819D01*
X111842493Y-113754819D02*
X111937731Y-113802438D01*
X111937731Y-113802438D02*
X111985350Y-113850057D01*
X111985350Y-113850057D02*
X112032969Y-113945295D01*
X112032969Y-113945295D02*
X112080588Y-114135771D01*
X112080588Y-114135771D02*
X112080588Y-114373866D01*
X112080588Y-114373866D02*
X112032969Y-114564342D01*
X112032969Y-114564342D02*
X111985350Y-114659580D01*
X111985350Y-114659580D02*
X111937731Y-114707200D01*
X111937731Y-114707200D02*
X111842493Y-114754819D01*
X111842493Y-114754819D02*
X111747255Y-114754819D01*
X111747255Y-114754819D02*
X111652017Y-114707200D01*
X111652017Y-114707200D02*
X111604398Y-114659580D01*
X111604398Y-114659580D02*
X111556779Y-114564342D01*
X111556779Y-114564342D02*
X111509160Y-114373866D01*
X111509160Y-114373866D02*
X111509160Y-114135771D01*
X111509160Y-114135771D02*
X111556779Y-113945295D01*
X111556779Y-113945295D02*
X111604398Y-113850057D01*
X111604398Y-113850057D02*
X111652017Y-113802438D01*
X111652017Y-113802438D02*
X111747255Y-113754819D01*
X113747255Y-114754819D02*
X113271065Y-114754819D01*
X113271065Y-114754819D02*
X113271065Y-113754819D01*
X114032970Y-114707200D02*
X114175827Y-114754819D01*
X114175827Y-114754819D02*
X114413922Y-114754819D01*
X114413922Y-114754819D02*
X114509160Y-114707200D01*
X114509160Y-114707200D02*
X114556779Y-114659580D01*
X114556779Y-114659580D02*
X114604398Y-114564342D01*
X114604398Y-114564342D02*
X114604398Y-114469104D01*
X114604398Y-114469104D02*
X114556779Y-114373866D01*
X114556779Y-114373866D02*
X114509160Y-114326247D01*
X114509160Y-114326247D02*
X114413922Y-114278628D01*
X114413922Y-114278628D02*
X114223446Y-114231009D01*
X114223446Y-114231009D02*
X114128208Y-114183390D01*
X114128208Y-114183390D02*
X114080589Y-114135771D01*
X114080589Y-114135771D02*
X114032970Y-114040533D01*
X114032970Y-114040533D02*
X114032970Y-113945295D01*
X114032970Y-113945295D02*
X114080589Y-113850057D01*
X114080589Y-113850057D02*
X114128208Y-113802438D01*
X114128208Y-113802438D02*
X114223446Y-113754819D01*
X114223446Y-113754819D02*
X114461541Y-113754819D01*
X114461541Y-113754819D02*
X114604398Y-113802438D01*
X115032970Y-114754819D02*
X115032970Y-113754819D01*
X115032970Y-113754819D02*
X115366303Y-114469104D01*
X115366303Y-114469104D02*
X115699636Y-113754819D01*
X115699636Y-113754819D02*
X115699636Y-114754819D01*
X115937732Y-114850057D02*
X116699636Y-114850057D01*
X117509160Y-114659580D02*
X117461541Y-114707200D01*
X117461541Y-114707200D02*
X117318684Y-114754819D01*
X117318684Y-114754819D02*
X117223446Y-114754819D01*
X117223446Y-114754819D02*
X117080589Y-114707200D01*
X117080589Y-114707200D02*
X116985351Y-114611961D01*
X116985351Y-114611961D02*
X116937732Y-114516723D01*
X116937732Y-114516723D02*
X116890113Y-114326247D01*
X116890113Y-114326247D02*
X116890113Y-114183390D01*
X116890113Y-114183390D02*
X116937732Y-113992914D01*
X116937732Y-113992914D02*
X116985351Y-113897676D01*
X116985351Y-113897676D02*
X117080589Y-113802438D01*
X117080589Y-113802438D02*
X117223446Y-113754819D01*
X117223446Y-113754819D02*
X117318684Y-113754819D01*
X117318684Y-113754819D02*
X117461541Y-113802438D01*
X117461541Y-113802438D02*
X117509160Y-113850057D01*
X117890113Y-114707200D02*
X118032970Y-114754819D01*
X118032970Y-114754819D02*
X118271065Y-114754819D01*
X118271065Y-114754819D02*
X118366303Y-114707200D01*
X118366303Y-114707200D02*
X118413922Y-114659580D01*
X118413922Y-114659580D02*
X118461541Y-114564342D01*
X118461541Y-114564342D02*
X118461541Y-114469104D01*
X118461541Y-114469104D02*
X118413922Y-114373866D01*
X118413922Y-114373866D02*
X118366303Y-114326247D01*
X118366303Y-114326247D02*
X118271065Y-114278628D01*
X118271065Y-114278628D02*
X118080589Y-114231009D01*
X118080589Y-114231009D02*
X117985351Y-114183390D01*
X117985351Y-114183390D02*
X117937732Y-114135771D01*
X117937732Y-114135771D02*
X117890113Y-114040533D01*
X117890113Y-114040533D02*
X117890113Y-113945295D01*
X117890113Y-113945295D02*
X117937732Y-113850057D01*
X117937732Y-113850057D02*
X117985351Y-113802438D01*
X117985351Y-113802438D02*
X118080589Y-113754819D01*
X118080589Y-113754819D02*
X118318684Y-113754819D01*
X118318684Y-113754819D02*
X118461541Y-113802438D01*
X110080588Y-116342438D02*
X109985350Y-116294819D01*
X109985350Y-116294819D02*
X109842493Y-116294819D01*
X109842493Y-116294819D02*
X109699636Y-116342438D01*
X109699636Y-116342438D02*
X109604398Y-116437676D01*
X109604398Y-116437676D02*
X109556779Y-116532914D01*
X109556779Y-116532914D02*
X109509160Y-116723390D01*
X109509160Y-116723390D02*
X109509160Y-116866247D01*
X109509160Y-116866247D02*
X109556779Y-117056723D01*
X109556779Y-117056723D02*
X109604398Y-117151961D01*
X109604398Y-117151961D02*
X109699636Y-117247200D01*
X109699636Y-117247200D02*
X109842493Y-117294819D01*
X109842493Y-117294819D02*
X109937731Y-117294819D01*
X109937731Y-117294819D02*
X110080588Y-117247200D01*
X110080588Y-117247200D02*
X110128207Y-117199580D01*
X110128207Y-117199580D02*
X110128207Y-116866247D01*
X110128207Y-116866247D02*
X109937731Y-116866247D01*
X110556779Y-117294819D02*
X110556779Y-116294819D01*
X110556779Y-116294819D02*
X111128207Y-117294819D01*
X111128207Y-117294819D02*
X111128207Y-116294819D01*
X111604398Y-117294819D02*
X111604398Y-116294819D01*
X111604398Y-116294819D02*
X111842493Y-116294819D01*
X111842493Y-116294819D02*
X111985350Y-116342438D01*
X111985350Y-116342438D02*
X112080588Y-116437676D01*
X112080588Y-116437676D02*
X112128207Y-116532914D01*
X112128207Y-116532914D02*
X112175826Y-116723390D01*
X112175826Y-116723390D02*
X112175826Y-116866247D01*
X112175826Y-116866247D02*
X112128207Y-117056723D01*
X112128207Y-117056723D02*
X112080588Y-117151961D01*
X112080588Y-117151961D02*
X111985350Y-117247200D01*
X111985350Y-117247200D02*
X111842493Y-117294819D01*
X111842493Y-117294819D02*
X111604398Y-117294819D01*
X130172036Y-96812219D02*
X130172036Y-97050314D01*
X129933941Y-96955076D02*
X130172036Y-97050314D01*
X130172036Y-97050314D02*
X130410131Y-96955076D01*
X130029179Y-97240790D02*
X130172036Y-97050314D01*
X130172036Y-97050314D02*
X130314893Y-97240790D01*
X130035541Y-116065419D02*
X130702207Y-116065419D01*
X130702207Y-116065419D02*
X130035541Y-117065419D01*
X130035541Y-117065419D02*
X130702207Y-117065419D01*
X132861255Y-107699228D02*
X132861255Y-108175419D01*
X132527922Y-107175419D02*
X132861255Y-107699228D01*
X132861255Y-107699228D02*
X133194588Y-107175419D01*
X138671541Y-113779419D02*
X139338207Y-114779419D01*
X139338207Y-113779419D02*
X138671541Y-114779419D01*
X109423696Y-90894819D02*
X109995124Y-90894819D01*
X109709410Y-91894819D02*
X109709410Y-90894819D01*
X110280839Y-91609104D02*
X110757029Y-91609104D01*
X110185601Y-91894819D02*
X110518934Y-90894819D01*
X110518934Y-90894819D02*
X110852267Y-91894819D01*
X111709410Y-90942438D02*
X111614172Y-90894819D01*
X111614172Y-90894819D02*
X111471315Y-90894819D01*
X111471315Y-90894819D02*
X111328458Y-90942438D01*
X111328458Y-90942438D02*
X111233220Y-91037676D01*
X111233220Y-91037676D02*
X111185601Y-91132914D01*
X111185601Y-91132914D02*
X111137982Y-91323390D01*
X111137982Y-91323390D02*
X111137982Y-91466247D01*
X111137982Y-91466247D02*
X111185601Y-91656723D01*
X111185601Y-91656723D02*
X111233220Y-91751961D01*
X111233220Y-91751961D02*
X111328458Y-91847200D01*
X111328458Y-91847200D02*
X111471315Y-91894819D01*
X111471315Y-91894819D02*
X111566553Y-91894819D01*
X111566553Y-91894819D02*
X111709410Y-91847200D01*
X111709410Y-91847200D02*
X111757029Y-91799580D01*
X111757029Y-91799580D02*
X111757029Y-91466247D01*
X111757029Y-91466247D02*
X111566553Y-91466247D01*
X111947506Y-91990057D02*
X112709410Y-91990057D01*
X113471315Y-91894819D02*
X112899887Y-91894819D01*
X113185601Y-91894819D02*
X113185601Y-90894819D01*
X113185601Y-90894819D02*
X113090363Y-91037676D01*
X113090363Y-91037676D02*
X112995125Y-91132914D01*
X112995125Y-91132914D02*
X112899887Y-91180533D01*
X113757030Y-90894819D02*
X114090363Y-91894819D01*
X114090363Y-91894819D02*
X114423696Y-90894819D01*
X114899887Y-91323390D02*
X114804649Y-91275771D01*
X114804649Y-91275771D02*
X114757030Y-91228152D01*
X114757030Y-91228152D02*
X114709411Y-91132914D01*
X114709411Y-91132914D02*
X114709411Y-91085295D01*
X114709411Y-91085295D02*
X114757030Y-90990057D01*
X114757030Y-90990057D02*
X114804649Y-90942438D01*
X114804649Y-90942438D02*
X114899887Y-90894819D01*
X114899887Y-90894819D02*
X115090363Y-90894819D01*
X115090363Y-90894819D02*
X115185601Y-90942438D01*
X115185601Y-90942438D02*
X115233220Y-90990057D01*
X115233220Y-90990057D02*
X115280839Y-91085295D01*
X115280839Y-91085295D02*
X115280839Y-91132914D01*
X115280839Y-91132914D02*
X115233220Y-91228152D01*
X115233220Y-91228152D02*
X115185601Y-91275771D01*
X115185601Y-91275771D02*
X115090363Y-91323390D01*
X115090363Y-91323390D02*
X114899887Y-91323390D01*
X114899887Y-91323390D02*
X114804649Y-91371009D01*
X114804649Y-91371009D02*
X114757030Y-91418628D01*
X114757030Y-91418628D02*
X114709411Y-91513866D01*
X114709411Y-91513866D02*
X114709411Y-91704342D01*
X114709411Y-91704342D02*
X114757030Y-91799580D01*
X114757030Y-91799580D02*
X114804649Y-91847200D01*
X114804649Y-91847200D02*
X114899887Y-91894819D01*
X114899887Y-91894819D02*
X115090363Y-91894819D01*
X115090363Y-91894819D02*
X115185601Y-91847200D01*
X115185601Y-91847200D02*
X115233220Y-91799580D01*
X115233220Y-91799580D02*
X115280839Y-91704342D01*
X115280839Y-91704342D02*
X115280839Y-91513866D01*
X115280839Y-91513866D02*
X115233220Y-91418628D01*
X115233220Y-91418628D02*
X115185601Y-91371009D01*
X115185601Y-91371009D02*
X115090363Y-91323390D01*
X141173696Y-75654819D02*
X141745124Y-75654819D01*
X141459410Y-76654819D02*
X141459410Y-75654819D01*
X142030839Y-76369104D02*
X142507029Y-76369104D01*
X141935601Y-76654819D02*
X142268934Y-75654819D01*
X142268934Y-75654819D02*
X142602267Y-76654819D01*
X143459410Y-75702438D02*
X143364172Y-75654819D01*
X143364172Y-75654819D02*
X143221315Y-75654819D01*
X143221315Y-75654819D02*
X143078458Y-75702438D01*
X143078458Y-75702438D02*
X142983220Y-75797676D01*
X142983220Y-75797676D02*
X142935601Y-75892914D01*
X142935601Y-75892914D02*
X142887982Y-76083390D01*
X142887982Y-76083390D02*
X142887982Y-76226247D01*
X142887982Y-76226247D02*
X142935601Y-76416723D01*
X142935601Y-76416723D02*
X142983220Y-76511961D01*
X142983220Y-76511961D02*
X143078458Y-76607200D01*
X143078458Y-76607200D02*
X143221315Y-76654819D01*
X143221315Y-76654819D02*
X143316553Y-76654819D01*
X143316553Y-76654819D02*
X143459410Y-76607200D01*
X143459410Y-76607200D02*
X143507029Y-76559580D01*
X143507029Y-76559580D02*
X143507029Y-76226247D01*
X143507029Y-76226247D02*
X143316553Y-76226247D01*
X143697506Y-76750057D02*
X144459410Y-76750057D01*
X145221315Y-76654819D02*
X144649887Y-76654819D01*
X144935601Y-76654819D02*
X144935601Y-75654819D01*
X144935601Y-75654819D02*
X144840363Y-75797676D01*
X144840363Y-75797676D02*
X144745125Y-75892914D01*
X144745125Y-75892914D02*
X144649887Y-75940533D01*
X145507030Y-75654819D02*
X145840363Y-76654819D01*
X145840363Y-76654819D02*
X146173696Y-75654819D01*
X146649887Y-76083390D02*
X146554649Y-76035771D01*
X146554649Y-76035771D02*
X146507030Y-75988152D01*
X146507030Y-75988152D02*
X146459411Y-75892914D01*
X146459411Y-75892914D02*
X146459411Y-75845295D01*
X146459411Y-75845295D02*
X146507030Y-75750057D01*
X146507030Y-75750057D02*
X146554649Y-75702438D01*
X146554649Y-75702438D02*
X146649887Y-75654819D01*
X146649887Y-75654819D02*
X146840363Y-75654819D01*
X146840363Y-75654819D02*
X146935601Y-75702438D01*
X146935601Y-75702438D02*
X146983220Y-75750057D01*
X146983220Y-75750057D02*
X147030839Y-75845295D01*
X147030839Y-75845295D02*
X147030839Y-75892914D01*
X147030839Y-75892914D02*
X146983220Y-75988152D01*
X146983220Y-75988152D02*
X146935601Y-76035771D01*
X146935601Y-76035771D02*
X146840363Y-76083390D01*
X146840363Y-76083390D02*
X146649887Y-76083390D01*
X146649887Y-76083390D02*
X146554649Y-76131009D01*
X146554649Y-76131009D02*
X146507030Y-76178628D01*
X146507030Y-76178628D02*
X146459411Y-76273866D01*
X146459411Y-76273866D02*
X146459411Y-76464342D01*
X146459411Y-76464342D02*
X146507030Y-76559580D01*
X146507030Y-76559580D02*
X146554649Y-76607200D01*
X146554649Y-76607200D02*
X146649887Y-76654819D01*
X146649887Y-76654819D02*
X146840363Y-76654819D01*
X146840363Y-76654819D02*
X146935601Y-76607200D01*
X146935601Y-76607200D02*
X146983220Y-76559580D01*
X146983220Y-76559580D02*
X147030839Y-76464342D01*
X147030839Y-76464342D02*
X147030839Y-76273866D01*
X147030839Y-76273866D02*
X146983220Y-76178628D01*
X146983220Y-76178628D02*
X146935601Y-76131009D01*
X146935601Y-76131009D02*
X146840363Y-76083390D01*
X137935601Y-79194819D02*
X137935601Y-78194819D01*
X137935601Y-78194819D02*
X138268934Y-78909104D01*
X138268934Y-78909104D02*
X138602267Y-78194819D01*
X138602267Y-78194819D02*
X138602267Y-79194819D01*
X138983220Y-78194819D02*
X139649886Y-79194819D01*
X139649886Y-78194819D02*
X138983220Y-79194819D01*
X139792744Y-79290057D02*
X140554648Y-79290057D01*
X140745125Y-79147200D02*
X140887982Y-79194819D01*
X140887982Y-79194819D02*
X141126077Y-79194819D01*
X141126077Y-79194819D02*
X141221315Y-79147200D01*
X141221315Y-79147200D02*
X141268934Y-79099580D01*
X141268934Y-79099580D02*
X141316553Y-79004342D01*
X141316553Y-79004342D02*
X141316553Y-78909104D01*
X141316553Y-78909104D02*
X141268934Y-78813866D01*
X141268934Y-78813866D02*
X141221315Y-78766247D01*
X141221315Y-78766247D02*
X141126077Y-78718628D01*
X141126077Y-78718628D02*
X140935601Y-78671009D01*
X140935601Y-78671009D02*
X140840363Y-78623390D01*
X140840363Y-78623390D02*
X140792744Y-78575771D01*
X140792744Y-78575771D02*
X140745125Y-78480533D01*
X140745125Y-78480533D02*
X140745125Y-78385295D01*
X140745125Y-78385295D02*
X140792744Y-78290057D01*
X140792744Y-78290057D02*
X140840363Y-78242438D01*
X140840363Y-78242438D02*
X140935601Y-78194819D01*
X140935601Y-78194819D02*
X141173696Y-78194819D01*
X141173696Y-78194819D02*
X141316553Y-78242438D01*
X142316553Y-79099580D02*
X142268934Y-79147200D01*
X142268934Y-79147200D02*
X142126077Y-79194819D01*
X142126077Y-79194819D02*
X142030839Y-79194819D01*
X142030839Y-79194819D02*
X141887982Y-79147200D01*
X141887982Y-79147200D02*
X141792744Y-79051961D01*
X141792744Y-79051961D02*
X141745125Y-78956723D01*
X141745125Y-78956723D02*
X141697506Y-78766247D01*
X141697506Y-78766247D02*
X141697506Y-78623390D01*
X141697506Y-78623390D02*
X141745125Y-78432914D01*
X141745125Y-78432914D02*
X141792744Y-78337676D01*
X141792744Y-78337676D02*
X141887982Y-78242438D01*
X141887982Y-78242438D02*
X142030839Y-78194819D01*
X142030839Y-78194819D02*
X142126077Y-78194819D01*
X142126077Y-78194819D02*
X142268934Y-78242438D01*
X142268934Y-78242438D02*
X142316553Y-78290057D01*
X142745125Y-79194819D02*
X142745125Y-78194819D01*
X143316553Y-79194819D02*
X142887982Y-78623390D01*
X143316553Y-78194819D02*
X142745125Y-78766247D01*
X144507030Y-79194819D02*
X144507030Y-78194819D01*
X144507030Y-78194819D02*
X144887982Y-78194819D01*
X144887982Y-78194819D02*
X144983220Y-78242438D01*
X144983220Y-78242438D02*
X145030839Y-78290057D01*
X145030839Y-78290057D02*
X145078458Y-78385295D01*
X145078458Y-78385295D02*
X145078458Y-78528152D01*
X145078458Y-78528152D02*
X145030839Y-78623390D01*
X145030839Y-78623390D02*
X144983220Y-78671009D01*
X144983220Y-78671009D02*
X144887982Y-78718628D01*
X144887982Y-78718628D02*
X144507030Y-78718628D01*
X145840363Y-78671009D02*
X145983220Y-78718628D01*
X145983220Y-78718628D02*
X146030839Y-78766247D01*
X146030839Y-78766247D02*
X146078458Y-78861485D01*
X146078458Y-78861485D02*
X146078458Y-79004342D01*
X146078458Y-79004342D02*
X146030839Y-79099580D01*
X146030839Y-79099580D02*
X145983220Y-79147200D01*
X145983220Y-79147200D02*
X145887982Y-79194819D01*
X145887982Y-79194819D02*
X145507030Y-79194819D01*
X145507030Y-79194819D02*
X145507030Y-78194819D01*
X145507030Y-78194819D02*
X145840363Y-78194819D01*
X145840363Y-78194819D02*
X145935601Y-78242438D01*
X145935601Y-78242438D02*
X145983220Y-78290057D01*
X145983220Y-78290057D02*
X146030839Y-78385295D01*
X146030839Y-78385295D02*
X146030839Y-78480533D01*
X146030839Y-78480533D02*
X145983220Y-78575771D01*
X145983220Y-78575771D02*
X145935601Y-78623390D01*
X145935601Y-78623390D02*
X145840363Y-78671009D01*
X145840363Y-78671009D02*
X145507030Y-78671009D01*
X146411792Y-78194819D02*
X147030839Y-78194819D01*
X147030839Y-78194819D02*
X146697506Y-78575771D01*
X146697506Y-78575771D02*
X146840363Y-78575771D01*
X146840363Y-78575771D02*
X146935601Y-78623390D01*
X146935601Y-78623390D02*
X146983220Y-78671009D01*
X146983220Y-78671009D02*
X147030839Y-78766247D01*
X147030839Y-78766247D02*
X147030839Y-79004342D01*
X147030839Y-79004342D02*
X146983220Y-79099580D01*
X146983220Y-79099580D02*
X146935601Y-79147200D01*
X146935601Y-79147200D02*
X146840363Y-79194819D01*
X146840363Y-79194819D02*
X146554649Y-79194819D01*
X146554649Y-79194819D02*
X146459411Y-79147200D01*
X146459411Y-79147200D02*
X146411792Y-79099580D01*
X137221315Y-81734819D02*
X137221315Y-80734819D01*
X137221315Y-80734819D02*
X137554648Y-81449104D01*
X137554648Y-81449104D02*
X137887981Y-80734819D01*
X137887981Y-80734819D02*
X137887981Y-81734819D01*
X138268934Y-80734819D02*
X138935600Y-81734819D01*
X138935600Y-80734819D02*
X138268934Y-81734819D01*
X139078458Y-81830057D02*
X139840362Y-81830057D01*
X140078458Y-81068152D02*
X140078458Y-81734819D01*
X140078458Y-81163390D02*
X140126077Y-81115771D01*
X140126077Y-81115771D02*
X140221315Y-81068152D01*
X140221315Y-81068152D02*
X140364172Y-81068152D01*
X140364172Y-81068152D02*
X140459410Y-81115771D01*
X140459410Y-81115771D02*
X140507029Y-81211009D01*
X140507029Y-81211009D02*
X140507029Y-81734819D01*
X141554648Y-81639580D02*
X141507029Y-81687200D01*
X141507029Y-81687200D02*
X141364172Y-81734819D01*
X141364172Y-81734819D02*
X141268934Y-81734819D01*
X141268934Y-81734819D02*
X141126077Y-81687200D01*
X141126077Y-81687200D02*
X141030839Y-81591961D01*
X141030839Y-81591961D02*
X140983220Y-81496723D01*
X140983220Y-81496723D02*
X140935601Y-81306247D01*
X140935601Y-81306247D02*
X140935601Y-81163390D01*
X140935601Y-81163390D02*
X140983220Y-80972914D01*
X140983220Y-80972914D02*
X141030839Y-80877676D01*
X141030839Y-80877676D02*
X141126077Y-80782438D01*
X141126077Y-80782438D02*
X141268934Y-80734819D01*
X141268934Y-80734819D02*
X141364172Y-80734819D01*
X141364172Y-80734819D02*
X141507029Y-80782438D01*
X141507029Y-80782438D02*
X141554648Y-80830057D01*
X141935601Y-81687200D02*
X142078458Y-81734819D01*
X142078458Y-81734819D02*
X142316553Y-81734819D01*
X142316553Y-81734819D02*
X142411791Y-81687200D01*
X142411791Y-81687200D02*
X142459410Y-81639580D01*
X142459410Y-81639580D02*
X142507029Y-81544342D01*
X142507029Y-81544342D02*
X142507029Y-81449104D01*
X142507029Y-81449104D02*
X142459410Y-81353866D01*
X142459410Y-81353866D02*
X142411791Y-81306247D01*
X142411791Y-81306247D02*
X142316553Y-81258628D01*
X142316553Y-81258628D02*
X142126077Y-81211009D01*
X142126077Y-81211009D02*
X142030839Y-81163390D01*
X142030839Y-81163390D02*
X141983220Y-81115771D01*
X141983220Y-81115771D02*
X141935601Y-81020533D01*
X141935601Y-81020533D02*
X141935601Y-80925295D01*
X141935601Y-80925295D02*
X141983220Y-80830057D01*
X141983220Y-80830057D02*
X142030839Y-80782438D01*
X142030839Y-80782438D02*
X142126077Y-80734819D01*
X142126077Y-80734819D02*
X142364172Y-80734819D01*
X142364172Y-80734819D02*
X142507029Y-80782438D01*
X143697506Y-81734819D02*
X143697506Y-80734819D01*
X143697506Y-80734819D02*
X144078458Y-80734819D01*
X144078458Y-80734819D02*
X144173696Y-80782438D01*
X144173696Y-80782438D02*
X144221315Y-80830057D01*
X144221315Y-80830057D02*
X144268934Y-80925295D01*
X144268934Y-80925295D02*
X144268934Y-81068152D01*
X144268934Y-81068152D02*
X144221315Y-81163390D01*
X144221315Y-81163390D02*
X144173696Y-81211009D01*
X144173696Y-81211009D02*
X144078458Y-81258628D01*
X144078458Y-81258628D02*
X143697506Y-81258628D01*
X144649887Y-81449104D02*
X145126077Y-81449104D01*
X144554649Y-81734819D02*
X144887982Y-80734819D01*
X144887982Y-80734819D02*
X145221315Y-81734819D01*
X146078458Y-81734819D02*
X145507030Y-81734819D01*
X145792744Y-81734819D02*
X145792744Y-80734819D01*
X145792744Y-80734819D02*
X145697506Y-80877676D01*
X145697506Y-80877676D02*
X145602268Y-80972914D01*
X145602268Y-80972914D02*
X145507030Y-81020533D01*
X146983220Y-80734819D02*
X146507030Y-80734819D01*
X146507030Y-80734819D02*
X146459411Y-81211009D01*
X146459411Y-81211009D02*
X146507030Y-81163390D01*
X146507030Y-81163390D02*
X146602268Y-81115771D01*
X146602268Y-81115771D02*
X146840363Y-81115771D01*
X146840363Y-81115771D02*
X146935601Y-81163390D01*
X146935601Y-81163390D02*
X146983220Y-81211009D01*
X146983220Y-81211009D02*
X147030839Y-81306247D01*
X147030839Y-81306247D02*
X147030839Y-81544342D01*
X147030839Y-81544342D02*
X146983220Y-81639580D01*
X146983220Y-81639580D02*
X146935601Y-81687200D01*
X146935601Y-81687200D02*
X146840363Y-81734819D01*
X146840363Y-81734819D02*
X146602268Y-81734819D01*
X146602268Y-81734819D02*
X146507030Y-81687200D01*
X146507030Y-81687200D02*
X146459411Y-81639580D01*
X136268934Y-84274819D02*
X135792744Y-84274819D01*
X135792744Y-84274819D02*
X135792744Y-83274819D01*
X136602268Y-84274819D02*
X136602268Y-83274819D01*
X136602268Y-83274819D02*
X136983220Y-83274819D01*
X136983220Y-83274819D02*
X137078458Y-83322438D01*
X137078458Y-83322438D02*
X137126077Y-83370057D01*
X137126077Y-83370057D02*
X137173696Y-83465295D01*
X137173696Y-83465295D02*
X137173696Y-83608152D01*
X137173696Y-83608152D02*
X137126077Y-83703390D01*
X137126077Y-83703390D02*
X137078458Y-83751009D01*
X137078458Y-83751009D02*
X136983220Y-83798628D01*
X136983220Y-83798628D02*
X136602268Y-83798628D01*
X137554649Y-84227200D02*
X137697506Y-84274819D01*
X137697506Y-84274819D02*
X137935601Y-84274819D01*
X137935601Y-84274819D02*
X138030839Y-84227200D01*
X138030839Y-84227200D02*
X138078458Y-84179580D01*
X138078458Y-84179580D02*
X138126077Y-84084342D01*
X138126077Y-84084342D02*
X138126077Y-83989104D01*
X138126077Y-83989104D02*
X138078458Y-83893866D01*
X138078458Y-83893866D02*
X138030839Y-83846247D01*
X138030839Y-83846247D02*
X137935601Y-83798628D01*
X137935601Y-83798628D02*
X137745125Y-83751009D01*
X137745125Y-83751009D02*
X137649887Y-83703390D01*
X137649887Y-83703390D02*
X137602268Y-83655771D01*
X137602268Y-83655771D02*
X137554649Y-83560533D01*
X137554649Y-83560533D02*
X137554649Y-83465295D01*
X137554649Y-83465295D02*
X137602268Y-83370057D01*
X137602268Y-83370057D02*
X137649887Y-83322438D01*
X137649887Y-83322438D02*
X137745125Y-83274819D01*
X137745125Y-83274819D02*
X137983220Y-83274819D01*
X137983220Y-83274819D02*
X138126077Y-83322438D01*
X138316554Y-84370057D02*
X139078458Y-84370057D01*
X139316554Y-84274819D02*
X139316554Y-83274819D01*
X139316554Y-83274819D02*
X139649887Y-83989104D01*
X139649887Y-83989104D02*
X139983220Y-83274819D01*
X139983220Y-83274819D02*
X139983220Y-84274819D01*
X140649887Y-83274819D02*
X140840363Y-83274819D01*
X140840363Y-83274819D02*
X140935601Y-83322438D01*
X140935601Y-83322438D02*
X141030839Y-83417676D01*
X141030839Y-83417676D02*
X141078458Y-83608152D01*
X141078458Y-83608152D02*
X141078458Y-83941485D01*
X141078458Y-83941485D02*
X141030839Y-84131961D01*
X141030839Y-84131961D02*
X140935601Y-84227200D01*
X140935601Y-84227200D02*
X140840363Y-84274819D01*
X140840363Y-84274819D02*
X140649887Y-84274819D01*
X140649887Y-84274819D02*
X140554649Y-84227200D01*
X140554649Y-84227200D02*
X140459411Y-84131961D01*
X140459411Y-84131961D02*
X140411792Y-83941485D01*
X140411792Y-83941485D02*
X140411792Y-83608152D01*
X140411792Y-83608152D02*
X140459411Y-83417676D01*
X140459411Y-83417676D02*
X140554649Y-83322438D01*
X140554649Y-83322438D02*
X140649887Y-83274819D01*
X141459411Y-84227200D02*
X141602268Y-84274819D01*
X141602268Y-84274819D02*
X141840363Y-84274819D01*
X141840363Y-84274819D02*
X141935601Y-84227200D01*
X141935601Y-84227200D02*
X141983220Y-84179580D01*
X141983220Y-84179580D02*
X142030839Y-84084342D01*
X142030839Y-84084342D02*
X142030839Y-83989104D01*
X142030839Y-83989104D02*
X141983220Y-83893866D01*
X141983220Y-83893866D02*
X141935601Y-83846247D01*
X141935601Y-83846247D02*
X141840363Y-83798628D01*
X141840363Y-83798628D02*
X141649887Y-83751009D01*
X141649887Y-83751009D02*
X141554649Y-83703390D01*
X141554649Y-83703390D02*
X141507030Y-83655771D01*
X141507030Y-83655771D02*
X141459411Y-83560533D01*
X141459411Y-83560533D02*
X141459411Y-83465295D01*
X141459411Y-83465295D02*
X141507030Y-83370057D01*
X141507030Y-83370057D02*
X141554649Y-83322438D01*
X141554649Y-83322438D02*
X141649887Y-83274819D01*
X141649887Y-83274819D02*
X141887982Y-83274819D01*
X141887982Y-83274819D02*
X142030839Y-83322438D01*
X142459411Y-84274819D02*
X142459411Y-83274819D01*
X143697506Y-84274819D02*
X143697506Y-83274819D01*
X143697506Y-83274819D02*
X144078458Y-83274819D01*
X144078458Y-83274819D02*
X144173696Y-83322438D01*
X144173696Y-83322438D02*
X144221315Y-83370057D01*
X144221315Y-83370057D02*
X144268934Y-83465295D01*
X144268934Y-83465295D02*
X144268934Y-83608152D01*
X144268934Y-83608152D02*
X144221315Y-83703390D01*
X144221315Y-83703390D02*
X144173696Y-83751009D01*
X144173696Y-83751009D02*
X144078458Y-83798628D01*
X144078458Y-83798628D02*
X143697506Y-83798628D01*
X144649887Y-83989104D02*
X145126077Y-83989104D01*
X144554649Y-84274819D02*
X144887982Y-83274819D01*
X144887982Y-83274819D02*
X145221315Y-84274819D01*
X146078458Y-84274819D02*
X145507030Y-84274819D01*
X145792744Y-84274819D02*
X145792744Y-83274819D01*
X145792744Y-83274819D02*
X145697506Y-83417676D01*
X145697506Y-83417676D02*
X145602268Y-83512914D01*
X145602268Y-83512914D02*
X145507030Y-83560533D01*
X146459411Y-83370057D02*
X146507030Y-83322438D01*
X146507030Y-83322438D02*
X146602268Y-83274819D01*
X146602268Y-83274819D02*
X146840363Y-83274819D01*
X146840363Y-83274819D02*
X146935601Y-83322438D01*
X146935601Y-83322438D02*
X146983220Y-83370057D01*
X146983220Y-83370057D02*
X147030839Y-83465295D01*
X147030839Y-83465295D02*
X147030839Y-83560533D01*
X147030839Y-83560533D02*
X146983220Y-83703390D01*
X146983220Y-83703390D02*
X146411792Y-84274819D01*
X146411792Y-84274819D02*
X147030839Y-84274819D01*
X136268934Y-86814819D02*
X135792744Y-86814819D01*
X135792744Y-86814819D02*
X135792744Y-85814819D01*
X136602268Y-86814819D02*
X136602268Y-85814819D01*
X136602268Y-85814819D02*
X136983220Y-85814819D01*
X136983220Y-85814819D02*
X137078458Y-85862438D01*
X137078458Y-85862438D02*
X137126077Y-85910057D01*
X137126077Y-85910057D02*
X137173696Y-86005295D01*
X137173696Y-86005295D02*
X137173696Y-86148152D01*
X137173696Y-86148152D02*
X137126077Y-86243390D01*
X137126077Y-86243390D02*
X137078458Y-86291009D01*
X137078458Y-86291009D02*
X136983220Y-86338628D01*
X136983220Y-86338628D02*
X136602268Y-86338628D01*
X137554649Y-86767200D02*
X137697506Y-86814819D01*
X137697506Y-86814819D02*
X137935601Y-86814819D01*
X137935601Y-86814819D02*
X138030839Y-86767200D01*
X138030839Y-86767200D02*
X138078458Y-86719580D01*
X138078458Y-86719580D02*
X138126077Y-86624342D01*
X138126077Y-86624342D02*
X138126077Y-86529104D01*
X138126077Y-86529104D02*
X138078458Y-86433866D01*
X138078458Y-86433866D02*
X138030839Y-86386247D01*
X138030839Y-86386247D02*
X137935601Y-86338628D01*
X137935601Y-86338628D02*
X137745125Y-86291009D01*
X137745125Y-86291009D02*
X137649887Y-86243390D01*
X137649887Y-86243390D02*
X137602268Y-86195771D01*
X137602268Y-86195771D02*
X137554649Y-86100533D01*
X137554649Y-86100533D02*
X137554649Y-86005295D01*
X137554649Y-86005295D02*
X137602268Y-85910057D01*
X137602268Y-85910057D02*
X137649887Y-85862438D01*
X137649887Y-85862438D02*
X137745125Y-85814819D01*
X137745125Y-85814819D02*
X137983220Y-85814819D01*
X137983220Y-85814819D02*
X138126077Y-85862438D01*
X138316554Y-86910057D02*
X139078458Y-86910057D01*
X139316554Y-86814819D02*
X139316554Y-85814819D01*
X139316554Y-85814819D02*
X139649887Y-86529104D01*
X139649887Y-86529104D02*
X139983220Y-85814819D01*
X139983220Y-85814819D02*
X139983220Y-86814819D01*
X140459411Y-86814819D02*
X140459411Y-85814819D01*
X140887982Y-86767200D02*
X141030839Y-86814819D01*
X141030839Y-86814819D02*
X141268934Y-86814819D01*
X141268934Y-86814819D02*
X141364172Y-86767200D01*
X141364172Y-86767200D02*
X141411791Y-86719580D01*
X141411791Y-86719580D02*
X141459410Y-86624342D01*
X141459410Y-86624342D02*
X141459410Y-86529104D01*
X141459410Y-86529104D02*
X141411791Y-86433866D01*
X141411791Y-86433866D02*
X141364172Y-86386247D01*
X141364172Y-86386247D02*
X141268934Y-86338628D01*
X141268934Y-86338628D02*
X141078458Y-86291009D01*
X141078458Y-86291009D02*
X140983220Y-86243390D01*
X140983220Y-86243390D02*
X140935601Y-86195771D01*
X140935601Y-86195771D02*
X140887982Y-86100533D01*
X140887982Y-86100533D02*
X140887982Y-86005295D01*
X140887982Y-86005295D02*
X140935601Y-85910057D01*
X140935601Y-85910057D02*
X140983220Y-85862438D01*
X140983220Y-85862438D02*
X141078458Y-85814819D01*
X141078458Y-85814819D02*
X141316553Y-85814819D01*
X141316553Y-85814819D02*
X141459410Y-85862438D01*
X142078458Y-85814819D02*
X142268934Y-85814819D01*
X142268934Y-85814819D02*
X142364172Y-85862438D01*
X142364172Y-85862438D02*
X142459410Y-85957676D01*
X142459410Y-85957676D02*
X142507029Y-86148152D01*
X142507029Y-86148152D02*
X142507029Y-86481485D01*
X142507029Y-86481485D02*
X142459410Y-86671961D01*
X142459410Y-86671961D02*
X142364172Y-86767200D01*
X142364172Y-86767200D02*
X142268934Y-86814819D01*
X142268934Y-86814819D02*
X142078458Y-86814819D01*
X142078458Y-86814819D02*
X141983220Y-86767200D01*
X141983220Y-86767200D02*
X141887982Y-86671961D01*
X141887982Y-86671961D02*
X141840363Y-86481485D01*
X141840363Y-86481485D02*
X141840363Y-86148152D01*
X141840363Y-86148152D02*
X141887982Y-85957676D01*
X141887982Y-85957676D02*
X141983220Y-85862438D01*
X141983220Y-85862438D02*
X142078458Y-85814819D01*
X143697506Y-86814819D02*
X143697506Y-85814819D01*
X143697506Y-85814819D02*
X144078458Y-85814819D01*
X144078458Y-85814819D02*
X144173696Y-85862438D01*
X144173696Y-85862438D02*
X144221315Y-85910057D01*
X144221315Y-85910057D02*
X144268934Y-86005295D01*
X144268934Y-86005295D02*
X144268934Y-86148152D01*
X144268934Y-86148152D02*
X144221315Y-86243390D01*
X144221315Y-86243390D02*
X144173696Y-86291009D01*
X144173696Y-86291009D02*
X144078458Y-86338628D01*
X144078458Y-86338628D02*
X143697506Y-86338628D01*
X144649887Y-86529104D02*
X145126077Y-86529104D01*
X144554649Y-86814819D02*
X144887982Y-85814819D01*
X144887982Y-85814819D02*
X145221315Y-86814819D01*
X146078458Y-86814819D02*
X145507030Y-86814819D01*
X145792744Y-86814819D02*
X145792744Y-85814819D01*
X145792744Y-85814819D02*
X145697506Y-85957676D01*
X145697506Y-85957676D02*
X145602268Y-86052914D01*
X145602268Y-86052914D02*
X145507030Y-86100533D01*
X147030839Y-86814819D02*
X146459411Y-86814819D01*
X146745125Y-86814819D02*
X146745125Y-85814819D01*
X146745125Y-85814819D02*
X146649887Y-85957676D01*
X146649887Y-85957676D02*
X146554649Y-86052914D01*
X146554649Y-86052914D02*
X146459411Y-86100533D01*
X137935600Y-89354819D02*
X137459410Y-89354819D01*
X137459410Y-89354819D02*
X137459410Y-88354819D01*
X138268934Y-89354819D02*
X138268934Y-88354819D01*
X138268934Y-88354819D02*
X138649886Y-88354819D01*
X138649886Y-88354819D02*
X138745124Y-88402438D01*
X138745124Y-88402438D02*
X138792743Y-88450057D01*
X138792743Y-88450057D02*
X138840362Y-88545295D01*
X138840362Y-88545295D02*
X138840362Y-88688152D01*
X138840362Y-88688152D02*
X138792743Y-88783390D01*
X138792743Y-88783390D02*
X138745124Y-88831009D01*
X138745124Y-88831009D02*
X138649886Y-88878628D01*
X138649886Y-88878628D02*
X138268934Y-88878628D01*
X139221315Y-89307200D02*
X139364172Y-89354819D01*
X139364172Y-89354819D02*
X139602267Y-89354819D01*
X139602267Y-89354819D02*
X139697505Y-89307200D01*
X139697505Y-89307200D02*
X139745124Y-89259580D01*
X139745124Y-89259580D02*
X139792743Y-89164342D01*
X139792743Y-89164342D02*
X139792743Y-89069104D01*
X139792743Y-89069104D02*
X139745124Y-88973866D01*
X139745124Y-88973866D02*
X139697505Y-88926247D01*
X139697505Y-88926247D02*
X139602267Y-88878628D01*
X139602267Y-88878628D02*
X139411791Y-88831009D01*
X139411791Y-88831009D02*
X139316553Y-88783390D01*
X139316553Y-88783390D02*
X139268934Y-88735771D01*
X139268934Y-88735771D02*
X139221315Y-88640533D01*
X139221315Y-88640533D02*
X139221315Y-88545295D01*
X139221315Y-88545295D02*
X139268934Y-88450057D01*
X139268934Y-88450057D02*
X139316553Y-88402438D01*
X139316553Y-88402438D02*
X139411791Y-88354819D01*
X139411791Y-88354819D02*
X139649886Y-88354819D01*
X139649886Y-88354819D02*
X139792743Y-88402438D01*
X139983220Y-89450057D02*
X140745124Y-89450057D01*
X141554648Y-89259580D02*
X141507029Y-89307200D01*
X141507029Y-89307200D02*
X141364172Y-89354819D01*
X141364172Y-89354819D02*
X141268934Y-89354819D01*
X141268934Y-89354819D02*
X141126077Y-89307200D01*
X141126077Y-89307200D02*
X141030839Y-89211961D01*
X141030839Y-89211961D02*
X140983220Y-89116723D01*
X140983220Y-89116723D02*
X140935601Y-88926247D01*
X140935601Y-88926247D02*
X140935601Y-88783390D01*
X140935601Y-88783390D02*
X140983220Y-88592914D01*
X140983220Y-88592914D02*
X141030839Y-88497676D01*
X141030839Y-88497676D02*
X141126077Y-88402438D01*
X141126077Y-88402438D02*
X141268934Y-88354819D01*
X141268934Y-88354819D02*
X141364172Y-88354819D01*
X141364172Y-88354819D02*
X141507029Y-88402438D01*
X141507029Y-88402438D02*
X141554648Y-88450057D01*
X141935601Y-89307200D02*
X142078458Y-89354819D01*
X142078458Y-89354819D02*
X142316553Y-89354819D01*
X142316553Y-89354819D02*
X142411791Y-89307200D01*
X142411791Y-89307200D02*
X142459410Y-89259580D01*
X142459410Y-89259580D02*
X142507029Y-89164342D01*
X142507029Y-89164342D02*
X142507029Y-89069104D01*
X142507029Y-89069104D02*
X142459410Y-88973866D01*
X142459410Y-88973866D02*
X142411791Y-88926247D01*
X142411791Y-88926247D02*
X142316553Y-88878628D01*
X142316553Y-88878628D02*
X142126077Y-88831009D01*
X142126077Y-88831009D02*
X142030839Y-88783390D01*
X142030839Y-88783390D02*
X141983220Y-88735771D01*
X141983220Y-88735771D02*
X141935601Y-88640533D01*
X141935601Y-88640533D02*
X141935601Y-88545295D01*
X141935601Y-88545295D02*
X141983220Y-88450057D01*
X141983220Y-88450057D02*
X142030839Y-88402438D01*
X142030839Y-88402438D02*
X142126077Y-88354819D01*
X142126077Y-88354819D02*
X142364172Y-88354819D01*
X142364172Y-88354819D02*
X142507029Y-88402438D01*
X143697506Y-89354819D02*
X143697506Y-88354819D01*
X143697506Y-88354819D02*
X144078458Y-88354819D01*
X144078458Y-88354819D02*
X144173696Y-88402438D01*
X144173696Y-88402438D02*
X144221315Y-88450057D01*
X144221315Y-88450057D02*
X144268934Y-88545295D01*
X144268934Y-88545295D02*
X144268934Y-88688152D01*
X144268934Y-88688152D02*
X144221315Y-88783390D01*
X144221315Y-88783390D02*
X144173696Y-88831009D01*
X144173696Y-88831009D02*
X144078458Y-88878628D01*
X144078458Y-88878628D02*
X143697506Y-88878628D01*
X144649887Y-89069104D02*
X145126077Y-89069104D01*
X144554649Y-89354819D02*
X144887982Y-88354819D01*
X144887982Y-88354819D02*
X145221315Y-89354819D01*
X146078458Y-89354819D02*
X145507030Y-89354819D01*
X145792744Y-89354819D02*
X145792744Y-88354819D01*
X145792744Y-88354819D02*
X145697506Y-88497676D01*
X145697506Y-88497676D02*
X145602268Y-88592914D01*
X145602268Y-88592914D02*
X145507030Y-88640533D01*
X146697506Y-88354819D02*
X146792744Y-88354819D01*
X146792744Y-88354819D02*
X146887982Y-88402438D01*
X146887982Y-88402438D02*
X146935601Y-88450057D01*
X146935601Y-88450057D02*
X146983220Y-88545295D01*
X146983220Y-88545295D02*
X147030839Y-88735771D01*
X147030839Y-88735771D02*
X147030839Y-88973866D01*
X147030839Y-88973866D02*
X146983220Y-89164342D01*
X146983220Y-89164342D02*
X146935601Y-89259580D01*
X146935601Y-89259580D02*
X146887982Y-89307200D01*
X146887982Y-89307200D02*
X146792744Y-89354819D01*
X146792744Y-89354819D02*
X146697506Y-89354819D01*
X146697506Y-89354819D02*
X146602268Y-89307200D01*
X146602268Y-89307200D02*
X146554649Y-89259580D01*
X146554649Y-89259580D02*
X146507030Y-89164342D01*
X146507030Y-89164342D02*
X146459411Y-88973866D01*
X146459411Y-88973866D02*
X146459411Y-88735771D01*
X146459411Y-88735771D02*
X146507030Y-88545295D01*
X146507030Y-88545295D02*
X146554649Y-88450057D01*
X146554649Y-88450057D02*
X146602268Y-88402438D01*
X146602268Y-88402438D02*
X146697506Y-88354819D01*
X137983219Y-91894819D02*
X137507029Y-91894819D01*
X137507029Y-91894819D02*
X137507029Y-90894819D01*
X138316553Y-91894819D02*
X138316553Y-90894819D01*
X138316553Y-90894819D02*
X138697505Y-90894819D01*
X138697505Y-90894819D02*
X138792743Y-90942438D01*
X138792743Y-90942438D02*
X138840362Y-90990057D01*
X138840362Y-90990057D02*
X138887981Y-91085295D01*
X138887981Y-91085295D02*
X138887981Y-91228152D01*
X138887981Y-91228152D02*
X138840362Y-91323390D01*
X138840362Y-91323390D02*
X138792743Y-91371009D01*
X138792743Y-91371009D02*
X138697505Y-91418628D01*
X138697505Y-91418628D02*
X138316553Y-91418628D01*
X139268934Y-91847200D02*
X139411791Y-91894819D01*
X139411791Y-91894819D02*
X139649886Y-91894819D01*
X139649886Y-91894819D02*
X139745124Y-91847200D01*
X139745124Y-91847200D02*
X139792743Y-91799580D01*
X139792743Y-91799580D02*
X139840362Y-91704342D01*
X139840362Y-91704342D02*
X139840362Y-91609104D01*
X139840362Y-91609104D02*
X139792743Y-91513866D01*
X139792743Y-91513866D02*
X139745124Y-91466247D01*
X139745124Y-91466247D02*
X139649886Y-91418628D01*
X139649886Y-91418628D02*
X139459410Y-91371009D01*
X139459410Y-91371009D02*
X139364172Y-91323390D01*
X139364172Y-91323390D02*
X139316553Y-91275771D01*
X139316553Y-91275771D02*
X139268934Y-91180533D01*
X139268934Y-91180533D02*
X139268934Y-91085295D01*
X139268934Y-91085295D02*
X139316553Y-90990057D01*
X139316553Y-90990057D02*
X139364172Y-90942438D01*
X139364172Y-90942438D02*
X139459410Y-90894819D01*
X139459410Y-90894819D02*
X139697505Y-90894819D01*
X139697505Y-90894819D02*
X139840362Y-90942438D01*
X140030839Y-91990057D02*
X140792743Y-91990057D01*
X141602267Y-91894819D02*
X141268934Y-91418628D01*
X141030839Y-91894819D02*
X141030839Y-90894819D01*
X141030839Y-90894819D02*
X141411791Y-90894819D01*
X141411791Y-90894819D02*
X141507029Y-90942438D01*
X141507029Y-90942438D02*
X141554648Y-90990057D01*
X141554648Y-90990057D02*
X141602267Y-91085295D01*
X141602267Y-91085295D02*
X141602267Y-91228152D01*
X141602267Y-91228152D02*
X141554648Y-91323390D01*
X141554648Y-91323390D02*
X141507029Y-91371009D01*
X141507029Y-91371009D02*
X141411791Y-91418628D01*
X141411791Y-91418628D02*
X141030839Y-91418628D01*
X142030839Y-91894819D02*
X142030839Y-90894819D01*
X142030839Y-90894819D02*
X142268934Y-90894819D01*
X142268934Y-90894819D02*
X142411791Y-90942438D01*
X142411791Y-90942438D02*
X142507029Y-91037676D01*
X142507029Y-91037676D02*
X142554648Y-91132914D01*
X142554648Y-91132914D02*
X142602267Y-91323390D01*
X142602267Y-91323390D02*
X142602267Y-91466247D01*
X142602267Y-91466247D02*
X142554648Y-91656723D01*
X142554648Y-91656723D02*
X142507029Y-91751961D01*
X142507029Y-91751961D02*
X142411791Y-91847200D01*
X142411791Y-91847200D02*
X142268934Y-91894819D01*
X142268934Y-91894819D02*
X142030839Y-91894819D01*
X143221315Y-91418628D02*
X143221315Y-91894819D01*
X142887982Y-90894819D02*
X143221315Y-91418628D01*
X143221315Y-91418628D02*
X143554648Y-90894819D01*
X144649887Y-91894819D02*
X144649887Y-90894819D01*
X144649887Y-90894819D02*
X145030839Y-90894819D01*
X145030839Y-90894819D02*
X145126077Y-90942438D01*
X145126077Y-90942438D02*
X145173696Y-90990057D01*
X145173696Y-90990057D02*
X145221315Y-91085295D01*
X145221315Y-91085295D02*
X145221315Y-91228152D01*
X145221315Y-91228152D02*
X145173696Y-91323390D01*
X145173696Y-91323390D02*
X145126077Y-91371009D01*
X145126077Y-91371009D02*
X145030839Y-91418628D01*
X145030839Y-91418628D02*
X144649887Y-91418628D01*
X145602268Y-91609104D02*
X146078458Y-91609104D01*
X145507030Y-91894819D02*
X145840363Y-90894819D01*
X145840363Y-90894819D02*
X146173696Y-91894819D01*
X146554649Y-91894819D02*
X146745125Y-91894819D01*
X146745125Y-91894819D02*
X146840363Y-91847200D01*
X146840363Y-91847200D02*
X146887982Y-91799580D01*
X146887982Y-91799580D02*
X146983220Y-91656723D01*
X146983220Y-91656723D02*
X147030839Y-91466247D01*
X147030839Y-91466247D02*
X147030839Y-91085295D01*
X147030839Y-91085295D02*
X146983220Y-90990057D01*
X146983220Y-90990057D02*
X146935601Y-90942438D01*
X146935601Y-90942438D02*
X146840363Y-90894819D01*
X146840363Y-90894819D02*
X146649887Y-90894819D01*
X146649887Y-90894819D02*
X146554649Y-90942438D01*
X146554649Y-90942438D02*
X146507030Y-90990057D01*
X146507030Y-90990057D02*
X146459411Y-91085295D01*
X146459411Y-91085295D02*
X146459411Y-91323390D01*
X146459411Y-91323390D02*
X146507030Y-91418628D01*
X146507030Y-91418628D02*
X146554649Y-91466247D01*
X146554649Y-91466247D02*
X146649887Y-91513866D01*
X146649887Y-91513866D02*
X146840363Y-91513866D01*
X146840363Y-91513866D02*
X146935601Y-91466247D01*
X146935601Y-91466247D02*
X146983220Y-91418628D01*
X146983220Y-91418628D02*
X147030839Y-91323390D01*
X137935600Y-94434819D02*
X137459410Y-94434819D01*
X137459410Y-94434819D02*
X137459410Y-93434819D01*
X138221315Y-94387200D02*
X138364172Y-94434819D01*
X138364172Y-94434819D02*
X138602267Y-94434819D01*
X138602267Y-94434819D02*
X138697505Y-94387200D01*
X138697505Y-94387200D02*
X138745124Y-94339580D01*
X138745124Y-94339580D02*
X138792743Y-94244342D01*
X138792743Y-94244342D02*
X138792743Y-94149104D01*
X138792743Y-94149104D02*
X138745124Y-94053866D01*
X138745124Y-94053866D02*
X138697505Y-94006247D01*
X138697505Y-94006247D02*
X138602267Y-93958628D01*
X138602267Y-93958628D02*
X138411791Y-93911009D01*
X138411791Y-93911009D02*
X138316553Y-93863390D01*
X138316553Y-93863390D02*
X138268934Y-93815771D01*
X138268934Y-93815771D02*
X138221315Y-93720533D01*
X138221315Y-93720533D02*
X138221315Y-93625295D01*
X138221315Y-93625295D02*
X138268934Y-93530057D01*
X138268934Y-93530057D02*
X138316553Y-93482438D01*
X138316553Y-93482438D02*
X138411791Y-93434819D01*
X138411791Y-93434819D02*
X138649886Y-93434819D01*
X138649886Y-93434819D02*
X138792743Y-93482438D01*
X139221315Y-94434819D02*
X139221315Y-93434819D01*
X139221315Y-93434819D02*
X139554648Y-94149104D01*
X139554648Y-94149104D02*
X139887981Y-93434819D01*
X139887981Y-93434819D02*
X139887981Y-94434819D01*
X140126077Y-94530057D02*
X140887981Y-94530057D01*
X140983220Y-93434819D02*
X141554648Y-93434819D01*
X141268934Y-94434819D02*
X141268934Y-93434819D01*
X142459410Y-94434819D02*
X142126077Y-93958628D01*
X141887982Y-94434819D02*
X141887982Y-93434819D01*
X141887982Y-93434819D02*
X142268934Y-93434819D01*
X142268934Y-93434819D02*
X142364172Y-93482438D01*
X142364172Y-93482438D02*
X142411791Y-93530057D01*
X142411791Y-93530057D02*
X142459410Y-93625295D01*
X142459410Y-93625295D02*
X142459410Y-93768152D01*
X142459410Y-93768152D02*
X142411791Y-93863390D01*
X142411791Y-93863390D02*
X142364172Y-93911009D01*
X142364172Y-93911009D02*
X142268934Y-93958628D01*
X142268934Y-93958628D02*
X141887982Y-93958628D01*
X143411791Y-93482438D02*
X143316553Y-93434819D01*
X143316553Y-93434819D02*
X143173696Y-93434819D01*
X143173696Y-93434819D02*
X143030839Y-93482438D01*
X143030839Y-93482438D02*
X142935601Y-93577676D01*
X142935601Y-93577676D02*
X142887982Y-93672914D01*
X142887982Y-93672914D02*
X142840363Y-93863390D01*
X142840363Y-93863390D02*
X142840363Y-94006247D01*
X142840363Y-94006247D02*
X142887982Y-94196723D01*
X142887982Y-94196723D02*
X142935601Y-94291961D01*
X142935601Y-94291961D02*
X143030839Y-94387200D01*
X143030839Y-94387200D02*
X143173696Y-94434819D01*
X143173696Y-94434819D02*
X143268934Y-94434819D01*
X143268934Y-94434819D02*
X143411791Y-94387200D01*
X143411791Y-94387200D02*
X143459410Y-94339580D01*
X143459410Y-94339580D02*
X143459410Y-94006247D01*
X143459410Y-94006247D02*
X143268934Y-94006247D01*
X144649887Y-94434819D02*
X144649887Y-93434819D01*
X144649887Y-93434819D02*
X145030839Y-93434819D01*
X145030839Y-93434819D02*
X145126077Y-93482438D01*
X145126077Y-93482438D02*
X145173696Y-93530057D01*
X145173696Y-93530057D02*
X145221315Y-93625295D01*
X145221315Y-93625295D02*
X145221315Y-93768152D01*
X145221315Y-93768152D02*
X145173696Y-93863390D01*
X145173696Y-93863390D02*
X145126077Y-93911009D01*
X145126077Y-93911009D02*
X145030839Y-93958628D01*
X145030839Y-93958628D02*
X144649887Y-93958628D01*
X145602268Y-94149104D02*
X146078458Y-94149104D01*
X145507030Y-94434819D02*
X145840363Y-93434819D01*
X145840363Y-93434819D02*
X146173696Y-94434819D01*
X146649887Y-93863390D02*
X146554649Y-93815771D01*
X146554649Y-93815771D02*
X146507030Y-93768152D01*
X146507030Y-93768152D02*
X146459411Y-93672914D01*
X146459411Y-93672914D02*
X146459411Y-93625295D01*
X146459411Y-93625295D02*
X146507030Y-93530057D01*
X146507030Y-93530057D02*
X146554649Y-93482438D01*
X146554649Y-93482438D02*
X146649887Y-93434819D01*
X146649887Y-93434819D02*
X146840363Y-93434819D01*
X146840363Y-93434819D02*
X146935601Y-93482438D01*
X146935601Y-93482438D02*
X146983220Y-93530057D01*
X146983220Y-93530057D02*
X147030839Y-93625295D01*
X147030839Y-93625295D02*
X147030839Y-93672914D01*
X147030839Y-93672914D02*
X146983220Y-93768152D01*
X146983220Y-93768152D02*
X146935601Y-93815771D01*
X146935601Y-93815771D02*
X146840363Y-93863390D01*
X146840363Y-93863390D02*
X146649887Y-93863390D01*
X146649887Y-93863390D02*
X146554649Y-93911009D01*
X146554649Y-93911009D02*
X146507030Y-93958628D01*
X146507030Y-93958628D02*
X146459411Y-94053866D01*
X146459411Y-94053866D02*
X146459411Y-94244342D01*
X146459411Y-94244342D02*
X146507030Y-94339580D01*
X146507030Y-94339580D02*
X146554649Y-94387200D01*
X146554649Y-94387200D02*
X146649887Y-94434819D01*
X146649887Y-94434819D02*
X146840363Y-94434819D01*
X146840363Y-94434819D02*
X146935601Y-94387200D01*
X146935601Y-94387200D02*
X146983220Y-94339580D01*
X146983220Y-94339580D02*
X147030839Y-94244342D01*
X147030839Y-94244342D02*
X147030839Y-94053866D01*
X147030839Y-94053866D02*
X146983220Y-93958628D01*
X146983220Y-93958628D02*
X146935601Y-93911009D01*
X146935601Y-93911009D02*
X146840363Y-93863390D01*
X144935601Y-96022438D02*
X144840363Y-95974819D01*
X144840363Y-95974819D02*
X144697506Y-95974819D01*
X144697506Y-95974819D02*
X144554649Y-96022438D01*
X144554649Y-96022438D02*
X144459411Y-96117676D01*
X144459411Y-96117676D02*
X144411792Y-96212914D01*
X144411792Y-96212914D02*
X144364173Y-96403390D01*
X144364173Y-96403390D02*
X144364173Y-96546247D01*
X144364173Y-96546247D02*
X144411792Y-96736723D01*
X144411792Y-96736723D02*
X144459411Y-96831961D01*
X144459411Y-96831961D02*
X144554649Y-96927200D01*
X144554649Y-96927200D02*
X144697506Y-96974819D01*
X144697506Y-96974819D02*
X144792744Y-96974819D01*
X144792744Y-96974819D02*
X144935601Y-96927200D01*
X144935601Y-96927200D02*
X144983220Y-96879580D01*
X144983220Y-96879580D02*
X144983220Y-96546247D01*
X144983220Y-96546247D02*
X144792744Y-96546247D01*
X145411792Y-96974819D02*
X145411792Y-95974819D01*
X145411792Y-95974819D02*
X145983220Y-96974819D01*
X145983220Y-96974819D02*
X145983220Y-95974819D01*
X146459411Y-96974819D02*
X146459411Y-95974819D01*
X146459411Y-95974819D02*
X146697506Y-95974819D01*
X146697506Y-95974819D02*
X146840363Y-96022438D01*
X146840363Y-96022438D02*
X146935601Y-96117676D01*
X146935601Y-96117676D02*
X146983220Y-96212914D01*
X146983220Y-96212914D02*
X147030839Y-96403390D01*
X147030839Y-96403390D02*
X147030839Y-96546247D01*
X147030839Y-96546247D02*
X146983220Y-96736723D01*
X146983220Y-96736723D02*
X146935601Y-96831961D01*
X146935601Y-96831961D02*
X146840363Y-96927200D01*
X146840363Y-96927200D02*
X146697506Y-96974819D01*
X146697506Y-96974819D02*
X146459411Y-96974819D01*
X144935601Y-98562438D02*
X144840363Y-98514819D01*
X144840363Y-98514819D02*
X144697506Y-98514819D01*
X144697506Y-98514819D02*
X144554649Y-98562438D01*
X144554649Y-98562438D02*
X144459411Y-98657676D01*
X144459411Y-98657676D02*
X144411792Y-98752914D01*
X144411792Y-98752914D02*
X144364173Y-98943390D01*
X144364173Y-98943390D02*
X144364173Y-99086247D01*
X144364173Y-99086247D02*
X144411792Y-99276723D01*
X144411792Y-99276723D02*
X144459411Y-99371961D01*
X144459411Y-99371961D02*
X144554649Y-99467200D01*
X144554649Y-99467200D02*
X144697506Y-99514819D01*
X144697506Y-99514819D02*
X144792744Y-99514819D01*
X144792744Y-99514819D02*
X144935601Y-99467200D01*
X144935601Y-99467200D02*
X144983220Y-99419580D01*
X144983220Y-99419580D02*
X144983220Y-99086247D01*
X144983220Y-99086247D02*
X144792744Y-99086247D01*
X145411792Y-99514819D02*
X145411792Y-98514819D01*
X145411792Y-98514819D02*
X145983220Y-99514819D01*
X145983220Y-99514819D02*
X145983220Y-98514819D01*
X146459411Y-99514819D02*
X146459411Y-98514819D01*
X146459411Y-98514819D02*
X146697506Y-98514819D01*
X146697506Y-98514819D02*
X146840363Y-98562438D01*
X146840363Y-98562438D02*
X146935601Y-98657676D01*
X146935601Y-98657676D02*
X146983220Y-98752914D01*
X146983220Y-98752914D02*
X147030839Y-98943390D01*
X147030839Y-98943390D02*
X147030839Y-99086247D01*
X147030839Y-99086247D02*
X146983220Y-99276723D01*
X146983220Y-99276723D02*
X146935601Y-99371961D01*
X146935601Y-99371961D02*
X146840363Y-99467200D01*
X146840363Y-99467200D02*
X146697506Y-99514819D01*
X146697506Y-99514819D02*
X146459411Y-99514819D01*
X144935601Y-101102438D02*
X144840363Y-101054819D01*
X144840363Y-101054819D02*
X144697506Y-101054819D01*
X144697506Y-101054819D02*
X144554649Y-101102438D01*
X144554649Y-101102438D02*
X144459411Y-101197676D01*
X144459411Y-101197676D02*
X144411792Y-101292914D01*
X144411792Y-101292914D02*
X144364173Y-101483390D01*
X144364173Y-101483390D02*
X144364173Y-101626247D01*
X144364173Y-101626247D02*
X144411792Y-101816723D01*
X144411792Y-101816723D02*
X144459411Y-101911961D01*
X144459411Y-101911961D02*
X144554649Y-102007200D01*
X144554649Y-102007200D02*
X144697506Y-102054819D01*
X144697506Y-102054819D02*
X144792744Y-102054819D01*
X144792744Y-102054819D02*
X144935601Y-102007200D01*
X144935601Y-102007200D02*
X144983220Y-101959580D01*
X144983220Y-101959580D02*
X144983220Y-101626247D01*
X144983220Y-101626247D02*
X144792744Y-101626247D01*
X145411792Y-102054819D02*
X145411792Y-101054819D01*
X145411792Y-101054819D02*
X145983220Y-102054819D01*
X145983220Y-102054819D02*
X145983220Y-101054819D01*
X146459411Y-102054819D02*
X146459411Y-101054819D01*
X146459411Y-101054819D02*
X146697506Y-101054819D01*
X146697506Y-101054819D02*
X146840363Y-101102438D01*
X146840363Y-101102438D02*
X146935601Y-101197676D01*
X146935601Y-101197676D02*
X146983220Y-101292914D01*
X146983220Y-101292914D02*
X147030839Y-101483390D01*
X147030839Y-101483390D02*
X147030839Y-101626247D01*
X147030839Y-101626247D02*
X146983220Y-101816723D01*
X146983220Y-101816723D02*
X146935601Y-101911961D01*
X146935601Y-101911961D02*
X146840363Y-102007200D01*
X146840363Y-102007200D02*
X146697506Y-102054819D01*
X146697506Y-102054819D02*
X146459411Y-102054819D01*
X144935601Y-103642438D02*
X144840363Y-103594819D01*
X144840363Y-103594819D02*
X144697506Y-103594819D01*
X144697506Y-103594819D02*
X144554649Y-103642438D01*
X144554649Y-103642438D02*
X144459411Y-103737676D01*
X144459411Y-103737676D02*
X144411792Y-103832914D01*
X144411792Y-103832914D02*
X144364173Y-104023390D01*
X144364173Y-104023390D02*
X144364173Y-104166247D01*
X144364173Y-104166247D02*
X144411792Y-104356723D01*
X144411792Y-104356723D02*
X144459411Y-104451961D01*
X144459411Y-104451961D02*
X144554649Y-104547200D01*
X144554649Y-104547200D02*
X144697506Y-104594819D01*
X144697506Y-104594819D02*
X144792744Y-104594819D01*
X144792744Y-104594819D02*
X144935601Y-104547200D01*
X144935601Y-104547200D02*
X144983220Y-104499580D01*
X144983220Y-104499580D02*
X144983220Y-104166247D01*
X144983220Y-104166247D02*
X144792744Y-104166247D01*
X145411792Y-104594819D02*
X145411792Y-103594819D01*
X145411792Y-103594819D02*
X145983220Y-104594819D01*
X145983220Y-104594819D02*
X145983220Y-103594819D01*
X146459411Y-104594819D02*
X146459411Y-103594819D01*
X146459411Y-103594819D02*
X146697506Y-103594819D01*
X146697506Y-103594819D02*
X146840363Y-103642438D01*
X146840363Y-103642438D02*
X146935601Y-103737676D01*
X146935601Y-103737676D02*
X146983220Y-103832914D01*
X146983220Y-103832914D02*
X147030839Y-104023390D01*
X147030839Y-104023390D02*
X147030839Y-104166247D01*
X147030839Y-104166247D02*
X146983220Y-104356723D01*
X146983220Y-104356723D02*
X146935601Y-104451961D01*
X146935601Y-104451961D02*
X146840363Y-104547200D01*
X146840363Y-104547200D02*
X146697506Y-104594819D01*
X146697506Y-104594819D02*
X146459411Y-104594819D01*
X144935601Y-106182438D02*
X144840363Y-106134819D01*
X144840363Y-106134819D02*
X144697506Y-106134819D01*
X144697506Y-106134819D02*
X144554649Y-106182438D01*
X144554649Y-106182438D02*
X144459411Y-106277676D01*
X144459411Y-106277676D02*
X144411792Y-106372914D01*
X144411792Y-106372914D02*
X144364173Y-106563390D01*
X144364173Y-106563390D02*
X144364173Y-106706247D01*
X144364173Y-106706247D02*
X144411792Y-106896723D01*
X144411792Y-106896723D02*
X144459411Y-106991961D01*
X144459411Y-106991961D02*
X144554649Y-107087200D01*
X144554649Y-107087200D02*
X144697506Y-107134819D01*
X144697506Y-107134819D02*
X144792744Y-107134819D01*
X144792744Y-107134819D02*
X144935601Y-107087200D01*
X144935601Y-107087200D02*
X144983220Y-107039580D01*
X144983220Y-107039580D02*
X144983220Y-106706247D01*
X144983220Y-106706247D02*
X144792744Y-106706247D01*
X145411792Y-107134819D02*
X145411792Y-106134819D01*
X145411792Y-106134819D02*
X145983220Y-107134819D01*
X145983220Y-107134819D02*
X145983220Y-106134819D01*
X146459411Y-107134819D02*
X146459411Y-106134819D01*
X146459411Y-106134819D02*
X146697506Y-106134819D01*
X146697506Y-106134819D02*
X146840363Y-106182438D01*
X146840363Y-106182438D02*
X146935601Y-106277676D01*
X146935601Y-106277676D02*
X146983220Y-106372914D01*
X146983220Y-106372914D02*
X147030839Y-106563390D01*
X147030839Y-106563390D02*
X147030839Y-106706247D01*
X147030839Y-106706247D02*
X146983220Y-106896723D01*
X146983220Y-106896723D02*
X146935601Y-106991961D01*
X146935601Y-106991961D02*
X146840363Y-107087200D01*
X146840363Y-107087200D02*
X146697506Y-107134819D01*
X146697506Y-107134819D02*
X146459411Y-107134819D01*
X144935601Y-108722438D02*
X144840363Y-108674819D01*
X144840363Y-108674819D02*
X144697506Y-108674819D01*
X144697506Y-108674819D02*
X144554649Y-108722438D01*
X144554649Y-108722438D02*
X144459411Y-108817676D01*
X144459411Y-108817676D02*
X144411792Y-108912914D01*
X144411792Y-108912914D02*
X144364173Y-109103390D01*
X144364173Y-109103390D02*
X144364173Y-109246247D01*
X144364173Y-109246247D02*
X144411792Y-109436723D01*
X144411792Y-109436723D02*
X144459411Y-109531961D01*
X144459411Y-109531961D02*
X144554649Y-109627200D01*
X144554649Y-109627200D02*
X144697506Y-109674819D01*
X144697506Y-109674819D02*
X144792744Y-109674819D01*
X144792744Y-109674819D02*
X144935601Y-109627200D01*
X144935601Y-109627200D02*
X144983220Y-109579580D01*
X144983220Y-109579580D02*
X144983220Y-109246247D01*
X144983220Y-109246247D02*
X144792744Y-109246247D01*
X145411792Y-109674819D02*
X145411792Y-108674819D01*
X145411792Y-108674819D02*
X145983220Y-109674819D01*
X145983220Y-109674819D02*
X145983220Y-108674819D01*
X146459411Y-109674819D02*
X146459411Y-108674819D01*
X146459411Y-108674819D02*
X146697506Y-108674819D01*
X146697506Y-108674819D02*
X146840363Y-108722438D01*
X146840363Y-108722438D02*
X146935601Y-108817676D01*
X146935601Y-108817676D02*
X146983220Y-108912914D01*
X146983220Y-108912914D02*
X147030839Y-109103390D01*
X147030839Y-109103390D02*
X147030839Y-109246247D01*
X147030839Y-109246247D02*
X146983220Y-109436723D01*
X146983220Y-109436723D02*
X146935601Y-109531961D01*
X146935601Y-109531961D02*
X146840363Y-109627200D01*
X146840363Y-109627200D02*
X146697506Y-109674819D01*
X146697506Y-109674819D02*
X146459411Y-109674819D01*
X144935601Y-111262438D02*
X144840363Y-111214819D01*
X144840363Y-111214819D02*
X144697506Y-111214819D01*
X144697506Y-111214819D02*
X144554649Y-111262438D01*
X144554649Y-111262438D02*
X144459411Y-111357676D01*
X144459411Y-111357676D02*
X144411792Y-111452914D01*
X144411792Y-111452914D02*
X144364173Y-111643390D01*
X144364173Y-111643390D02*
X144364173Y-111786247D01*
X144364173Y-111786247D02*
X144411792Y-111976723D01*
X144411792Y-111976723D02*
X144459411Y-112071961D01*
X144459411Y-112071961D02*
X144554649Y-112167200D01*
X144554649Y-112167200D02*
X144697506Y-112214819D01*
X144697506Y-112214819D02*
X144792744Y-112214819D01*
X144792744Y-112214819D02*
X144935601Y-112167200D01*
X144935601Y-112167200D02*
X144983220Y-112119580D01*
X144983220Y-112119580D02*
X144983220Y-111786247D01*
X144983220Y-111786247D02*
X144792744Y-111786247D01*
X145411792Y-112214819D02*
X145411792Y-111214819D01*
X145411792Y-111214819D02*
X145983220Y-112214819D01*
X145983220Y-112214819D02*
X145983220Y-111214819D01*
X146459411Y-112214819D02*
X146459411Y-111214819D01*
X146459411Y-111214819D02*
X146697506Y-111214819D01*
X146697506Y-111214819D02*
X146840363Y-111262438D01*
X146840363Y-111262438D02*
X146935601Y-111357676D01*
X146935601Y-111357676D02*
X146983220Y-111452914D01*
X146983220Y-111452914D02*
X147030839Y-111643390D01*
X147030839Y-111643390D02*
X147030839Y-111786247D01*
X147030839Y-111786247D02*
X146983220Y-111976723D01*
X146983220Y-111976723D02*
X146935601Y-112071961D01*
X146935601Y-112071961D02*
X146840363Y-112167200D01*
X146840363Y-112167200D02*
X146697506Y-112214819D01*
X146697506Y-112214819D02*
X146459411Y-112214819D01*
X145255601Y-116079438D02*
X145160363Y-116031819D01*
X145160363Y-116031819D02*
X145017506Y-116031819D01*
X145017506Y-116031819D02*
X144874649Y-116079438D01*
X144874649Y-116079438D02*
X144779411Y-116174676D01*
X144779411Y-116174676D02*
X144731792Y-116269914D01*
X144731792Y-116269914D02*
X144684173Y-116460390D01*
X144684173Y-116460390D02*
X144684173Y-116603247D01*
X144684173Y-116603247D02*
X144731792Y-116793723D01*
X144731792Y-116793723D02*
X144779411Y-116888961D01*
X144779411Y-116888961D02*
X144874649Y-116984200D01*
X144874649Y-116984200D02*
X145017506Y-117031819D01*
X145017506Y-117031819D02*
X145112744Y-117031819D01*
X145112744Y-117031819D02*
X145255601Y-116984200D01*
X145255601Y-116984200D02*
X145303220Y-116936580D01*
X145303220Y-116936580D02*
X145303220Y-116603247D01*
X145303220Y-116603247D02*
X145112744Y-116603247D01*
X145731792Y-117031819D02*
X145731792Y-116031819D01*
X145731792Y-116031819D02*
X146303220Y-117031819D01*
X146303220Y-117031819D02*
X146303220Y-116031819D01*
X146779411Y-117031819D02*
X146779411Y-116031819D01*
X146779411Y-116031819D02*
X147017506Y-116031819D01*
X147017506Y-116031819D02*
X147160363Y-116079438D01*
X147160363Y-116079438D02*
X147255601Y-116174676D01*
X147255601Y-116174676D02*
X147303220Y-116269914D01*
X147303220Y-116269914D02*
X147350839Y-116460390D01*
X147350839Y-116460390D02*
X147350839Y-116603247D01*
X147350839Y-116603247D02*
X147303220Y-116793723D01*
X147303220Y-116793723D02*
X147255601Y-116888961D01*
X147255601Y-116888961D02*
X147160363Y-116984200D01*
X147160363Y-116984200D02*
X147017506Y-117031819D01*
X147017506Y-117031819D02*
X146779411Y-117031819D01*
X140891258Y-114831019D02*
X140891258Y-113831019D01*
X140891258Y-113831019D02*
X141272210Y-113831019D01*
X141272210Y-113831019D02*
X141367448Y-113878638D01*
X141367448Y-113878638D02*
X141415067Y-113926257D01*
X141415067Y-113926257D02*
X141462686Y-114021495D01*
X141462686Y-114021495D02*
X141462686Y-114164352D01*
X141462686Y-114164352D02*
X141415067Y-114259590D01*
X141415067Y-114259590D02*
X141367448Y-114307209D01*
X141367448Y-114307209D02*
X141272210Y-114354828D01*
X141272210Y-114354828D02*
X140891258Y-114354828D01*
X142224591Y-114307209D02*
X142367448Y-114354828D01*
X142367448Y-114354828D02*
X142415067Y-114402447D01*
X142415067Y-114402447D02*
X142462686Y-114497685D01*
X142462686Y-114497685D02*
X142462686Y-114640542D01*
X142462686Y-114640542D02*
X142415067Y-114735780D01*
X142415067Y-114735780D02*
X142367448Y-114783400D01*
X142367448Y-114783400D02*
X142272210Y-114831019D01*
X142272210Y-114831019D02*
X141891258Y-114831019D01*
X141891258Y-114831019D02*
X141891258Y-113831019D01*
X141891258Y-113831019D02*
X142224591Y-113831019D01*
X142224591Y-113831019D02*
X142319829Y-113878638D01*
X142319829Y-113878638D02*
X142367448Y-113926257D01*
X142367448Y-113926257D02*
X142415067Y-114021495D01*
X142415067Y-114021495D02*
X142415067Y-114116733D01*
X142415067Y-114116733D02*
X142367448Y-114211971D01*
X142367448Y-114211971D02*
X142319829Y-114259590D01*
X142319829Y-114259590D02*
X142224591Y-114307209D01*
X142224591Y-114307209D02*
X141891258Y-114307209D01*
X143415067Y-114831019D02*
X142843639Y-114831019D01*
X143129353Y-114831019D02*
X143129353Y-113831019D01*
X143129353Y-113831019D02*
X143034115Y-113973876D01*
X143034115Y-113973876D02*
X142938877Y-114069114D01*
X142938877Y-114069114D02*
X142843639Y-114116733D01*
X145081734Y-114831019D02*
X144605544Y-114831019D01*
X144605544Y-114831019D02*
X144605544Y-113831019D01*
X145415068Y-114307209D02*
X145748401Y-114307209D01*
X145891258Y-114831019D02*
X145415068Y-114831019D01*
X145415068Y-114831019D02*
X145415068Y-113831019D01*
X145415068Y-113831019D02*
X145891258Y-113831019D01*
X146319830Y-114831019D02*
X146319830Y-113831019D01*
X146319830Y-113831019D02*
X146557925Y-113831019D01*
X146557925Y-113831019D02*
X146700782Y-113878638D01*
X146700782Y-113878638D02*
X146796020Y-113973876D01*
X146796020Y-113973876D02*
X146843639Y-114069114D01*
X146843639Y-114069114D02*
X146891258Y-114259590D01*
X146891258Y-114259590D02*
X146891258Y-114402447D01*
X146891258Y-114402447D02*
X146843639Y-114592923D01*
X146843639Y-114592923D02*
X146796020Y-114688161D01*
X146796020Y-114688161D02*
X146700782Y-114783400D01*
X146700782Y-114783400D02*
X146557925Y-114831019D01*
X146557925Y-114831019D02*
X146319830Y-114831019D01*
X147272211Y-113926257D02*
X147319830Y-113878638D01*
X147319830Y-113878638D02*
X147415068Y-113831019D01*
X147415068Y-113831019D02*
X147653163Y-113831019D01*
X147653163Y-113831019D02*
X147748401Y-113878638D01*
X147748401Y-113878638D02*
X147796020Y-113926257D01*
X147796020Y-113926257D02*
X147843639Y-114021495D01*
X147843639Y-114021495D02*
X147843639Y-114116733D01*
X147843639Y-114116733D02*
X147796020Y-114259590D01*
X147796020Y-114259590D02*
X147224592Y-114831019D01*
X147224592Y-114831019D02*
X147843639Y-114831019D01*
D11*
X115091429Y-119088328D02*
X115091429Y-117588328D01*
X115805715Y-119088328D02*
X115805715Y-118088328D01*
X115805715Y-118231185D02*
X115877144Y-118159757D01*
X115877144Y-118159757D02*
X116020001Y-118088328D01*
X116020001Y-118088328D02*
X116234287Y-118088328D01*
X116234287Y-118088328D02*
X116377144Y-118159757D01*
X116377144Y-118159757D02*
X116448573Y-118302614D01*
X116448573Y-118302614D02*
X116448573Y-119088328D01*
X116448573Y-118302614D02*
X116520001Y-118159757D01*
X116520001Y-118159757D02*
X116662858Y-118088328D01*
X116662858Y-118088328D02*
X116877144Y-118088328D01*
X116877144Y-118088328D02*
X117020001Y-118159757D01*
X117020001Y-118159757D02*
X117091430Y-118302614D01*
X117091430Y-118302614D02*
X117091430Y-119088328D01*
X118448573Y-118088328D02*
X118448573Y-119088328D01*
X117805715Y-118088328D02*
X117805715Y-118874042D01*
X117805715Y-118874042D02*
X117877144Y-119016900D01*
X117877144Y-119016900D02*
X118020001Y-119088328D01*
X118020001Y-119088328D02*
X118234287Y-119088328D01*
X118234287Y-119088328D02*
X118377144Y-119016900D01*
X118377144Y-119016900D02*
X118448573Y-118945471D01*
X118948573Y-117588328D02*
X119805716Y-117588328D01*
X119377144Y-119088328D02*
X119377144Y-117588328D01*
X120948573Y-119088328D02*
X120948573Y-118302614D01*
X120948573Y-118302614D02*
X120877144Y-118159757D01*
X120877144Y-118159757D02*
X120734287Y-118088328D01*
X120734287Y-118088328D02*
X120448573Y-118088328D01*
X120448573Y-118088328D02*
X120305715Y-118159757D01*
X120948573Y-119016900D02*
X120805715Y-119088328D01*
X120805715Y-119088328D02*
X120448573Y-119088328D01*
X120448573Y-119088328D02*
X120305715Y-119016900D01*
X120305715Y-119016900D02*
X120234287Y-118874042D01*
X120234287Y-118874042D02*
X120234287Y-118731185D01*
X120234287Y-118731185D02*
X120305715Y-118588328D01*
X120305715Y-118588328D02*
X120448573Y-118516900D01*
X120448573Y-118516900D02*
X120805715Y-118516900D01*
X120805715Y-118516900D02*
X120948573Y-118445471D01*
X122305716Y-118088328D02*
X122305716Y-119302614D01*
X122305716Y-119302614D02*
X122234287Y-119445471D01*
X122234287Y-119445471D02*
X122162858Y-119516900D01*
X122162858Y-119516900D02*
X122020001Y-119588328D01*
X122020001Y-119588328D02*
X121805716Y-119588328D01*
X121805716Y-119588328D02*
X121662858Y-119516900D01*
X122305716Y-119016900D02*
X122162858Y-119088328D01*
X122162858Y-119088328D02*
X121877144Y-119088328D01*
X121877144Y-119088328D02*
X121734287Y-119016900D01*
X121734287Y-119016900D02*
X121662858Y-118945471D01*
X121662858Y-118945471D02*
X121591430Y-118802614D01*
X121591430Y-118802614D02*
X121591430Y-118374042D01*
X121591430Y-118374042D02*
X121662858Y-118231185D01*
X121662858Y-118231185D02*
X121734287Y-118159757D01*
X121734287Y-118159757D02*
X121877144Y-118088328D01*
X121877144Y-118088328D02*
X122162858Y-118088328D01*
X122162858Y-118088328D02*
X122305716Y-118159757D01*
X124662858Y-118302614D02*
X124877144Y-118374042D01*
X124877144Y-118374042D02*
X124948573Y-118445471D01*
X124948573Y-118445471D02*
X125020001Y-118588328D01*
X125020001Y-118588328D02*
X125020001Y-118802614D01*
X125020001Y-118802614D02*
X124948573Y-118945471D01*
X124948573Y-118945471D02*
X124877144Y-119016900D01*
X124877144Y-119016900D02*
X124734287Y-119088328D01*
X124734287Y-119088328D02*
X124162858Y-119088328D01*
X124162858Y-119088328D02*
X124162858Y-117588328D01*
X124162858Y-117588328D02*
X124662858Y-117588328D01*
X124662858Y-117588328D02*
X124805716Y-117659757D01*
X124805716Y-117659757D02*
X124877144Y-117731185D01*
X124877144Y-117731185D02*
X124948573Y-117874042D01*
X124948573Y-117874042D02*
X124948573Y-118016900D01*
X124948573Y-118016900D02*
X124877144Y-118159757D01*
X124877144Y-118159757D02*
X124805716Y-118231185D01*
X124805716Y-118231185D02*
X124662858Y-118302614D01*
X124662858Y-118302614D02*
X124162858Y-118302614D01*
X125662858Y-119088328D02*
X125662858Y-118088328D01*
X125662858Y-118374042D02*
X125734287Y-118231185D01*
X125734287Y-118231185D02*
X125805716Y-118159757D01*
X125805716Y-118159757D02*
X125948573Y-118088328D01*
X125948573Y-118088328D02*
X126091430Y-118088328D01*
X127162858Y-119016900D02*
X127020001Y-119088328D01*
X127020001Y-119088328D02*
X126734287Y-119088328D01*
X126734287Y-119088328D02*
X126591429Y-119016900D01*
X126591429Y-119016900D02*
X126520001Y-118874042D01*
X126520001Y-118874042D02*
X126520001Y-118302614D01*
X126520001Y-118302614D02*
X126591429Y-118159757D01*
X126591429Y-118159757D02*
X126734287Y-118088328D01*
X126734287Y-118088328D02*
X127020001Y-118088328D01*
X127020001Y-118088328D02*
X127162858Y-118159757D01*
X127162858Y-118159757D02*
X127234287Y-118302614D01*
X127234287Y-118302614D02*
X127234287Y-118445471D01*
X127234287Y-118445471D02*
X126520001Y-118588328D01*
X128520001Y-119088328D02*
X128520001Y-118302614D01*
X128520001Y-118302614D02*
X128448572Y-118159757D01*
X128448572Y-118159757D02*
X128305715Y-118088328D01*
X128305715Y-118088328D02*
X128020001Y-118088328D01*
X128020001Y-118088328D02*
X127877143Y-118159757D01*
X128520001Y-119016900D02*
X128377143Y-119088328D01*
X128377143Y-119088328D02*
X128020001Y-119088328D01*
X128020001Y-119088328D02*
X127877143Y-119016900D01*
X127877143Y-119016900D02*
X127805715Y-118874042D01*
X127805715Y-118874042D02*
X127805715Y-118731185D01*
X127805715Y-118731185D02*
X127877143Y-118588328D01*
X127877143Y-118588328D02*
X128020001Y-118516900D01*
X128020001Y-118516900D02*
X128377143Y-118516900D01*
X128377143Y-118516900D02*
X128520001Y-118445471D01*
X129234286Y-119088328D02*
X129234286Y-117588328D01*
X129377144Y-118516900D02*
X129805715Y-119088328D01*
X129805715Y-118088328D02*
X129234286Y-118659757D01*
X130662858Y-119088328D02*
X130520001Y-119016900D01*
X130520001Y-119016900D02*
X130448572Y-118945471D01*
X130448572Y-118945471D02*
X130377144Y-118802614D01*
X130377144Y-118802614D02*
X130377144Y-118374042D01*
X130377144Y-118374042D02*
X130448572Y-118231185D01*
X130448572Y-118231185D02*
X130520001Y-118159757D01*
X130520001Y-118159757D02*
X130662858Y-118088328D01*
X130662858Y-118088328D02*
X130877144Y-118088328D01*
X130877144Y-118088328D02*
X131020001Y-118159757D01*
X131020001Y-118159757D02*
X131091430Y-118231185D01*
X131091430Y-118231185D02*
X131162858Y-118374042D01*
X131162858Y-118374042D02*
X131162858Y-118802614D01*
X131162858Y-118802614D02*
X131091430Y-118945471D01*
X131091430Y-118945471D02*
X131020001Y-119016900D01*
X131020001Y-119016900D02*
X130877144Y-119088328D01*
X130877144Y-119088328D02*
X130662858Y-119088328D01*
X132448573Y-118088328D02*
X132448573Y-119088328D01*
X131805715Y-118088328D02*
X131805715Y-118874042D01*
X131805715Y-118874042D02*
X131877144Y-119016900D01*
X131877144Y-119016900D02*
X132020001Y-119088328D01*
X132020001Y-119088328D02*
X132234287Y-119088328D01*
X132234287Y-119088328D02*
X132377144Y-119016900D01*
X132377144Y-119016900D02*
X132448573Y-118945471D01*
X132948573Y-118088328D02*
X133520001Y-118088328D01*
X133162858Y-117588328D02*
X133162858Y-118874042D01*
X133162858Y-118874042D02*
X133234287Y-119016900D01*
X133234287Y-119016900D02*
X133377144Y-119088328D01*
X133377144Y-119088328D02*
X133520001Y-119088328D01*
X134948573Y-117588328D02*
X135448573Y-119088328D01*
X135448573Y-119088328D02*
X135948573Y-117588328D01*
X136305715Y-117588328D02*
X137234287Y-117588328D01*
X137234287Y-117588328D02*
X136734287Y-118159757D01*
X136734287Y-118159757D02*
X136948572Y-118159757D01*
X136948572Y-118159757D02*
X137091430Y-118231185D01*
X137091430Y-118231185D02*
X137162858Y-118302614D01*
X137162858Y-118302614D02*
X137234287Y-118445471D01*
X137234287Y-118445471D02*
X137234287Y-118802614D01*
X137234287Y-118802614D02*
X137162858Y-118945471D01*
X137162858Y-118945471D02*
X137091430Y-119016900D01*
X137091430Y-119016900D02*
X136948572Y-119088328D01*
X136948572Y-119088328D02*
X136520001Y-119088328D01*
X136520001Y-119088328D02*
X136377144Y-119016900D01*
X136377144Y-119016900D02*
X136305715Y-118945471D01*
X139805715Y-119088328D02*
X138948572Y-119088328D01*
X139377143Y-119088328D02*
X139377143Y-117588328D01*
X139377143Y-117588328D02*
X139234286Y-117802614D01*
X139234286Y-117802614D02*
X139091429Y-117945471D01*
X139091429Y-117945471D02*
X138948572Y-118016900D01*
X140234286Y-117588328D02*
X140734286Y-119088328D01*
X140734286Y-119088328D02*
X141234286Y-117588328D01*
X141948571Y-118231185D02*
X141805714Y-118159757D01*
X141805714Y-118159757D02*
X141734285Y-118088328D01*
X141734285Y-118088328D02*
X141662857Y-117945471D01*
X141662857Y-117945471D02*
X141662857Y-117874042D01*
X141662857Y-117874042D02*
X141734285Y-117731185D01*
X141734285Y-117731185D02*
X141805714Y-117659757D01*
X141805714Y-117659757D02*
X141948571Y-117588328D01*
X141948571Y-117588328D02*
X142234285Y-117588328D01*
X142234285Y-117588328D02*
X142377143Y-117659757D01*
X142377143Y-117659757D02*
X142448571Y-117731185D01*
X142448571Y-117731185D02*
X142520000Y-117874042D01*
X142520000Y-117874042D02*
X142520000Y-117945471D01*
X142520000Y-117945471D02*
X142448571Y-118088328D01*
X142448571Y-118088328D02*
X142377143Y-118159757D01*
X142377143Y-118159757D02*
X142234285Y-118231185D01*
X142234285Y-118231185D02*
X141948571Y-118231185D01*
X141948571Y-118231185D02*
X141805714Y-118302614D01*
X141805714Y-118302614D02*
X141734285Y-118374042D01*
X141734285Y-118374042D02*
X141662857Y-118516900D01*
X141662857Y-118516900D02*
X141662857Y-118802614D01*
X141662857Y-118802614D02*
X141734285Y-118945471D01*
X141734285Y-118945471D02*
X141805714Y-119016900D01*
X141805714Y-119016900D02*
X141948571Y-119088328D01*
X141948571Y-119088328D02*
X142234285Y-119088328D01*
X142234285Y-119088328D02*
X142377143Y-119016900D01*
X142377143Y-119016900D02*
X142448571Y-118945471D01*
X142448571Y-118945471D02*
X142520000Y-118802614D01*
X142520000Y-118802614D02*
X142520000Y-118516900D01*
X142520000Y-118516900D02*
X142448571Y-118374042D01*
X142448571Y-118374042D02*
X142377143Y-118302614D01*
X142377143Y-118302614D02*
X142234285Y-118231185D01*
%TO.C,C10*%
D12*
X129205580Y-75567000D02*
X128924420Y-75567000D01*
X129205580Y-76587000D02*
X128924420Y-76587000D01*
%TO.C,C9*%
X127709200Y-103402220D02*
X127709200Y-103683380D01*
X128729200Y-103402220D02*
X128729200Y-103683380D01*
%TO.C,C2*%
X124407200Y-88176980D02*
X124407200Y-87895820D01*
X125427200Y-88176980D02*
X125427200Y-87895820D01*
%TO.C,U5*%
X127769600Y-86977200D02*
X128194600Y-86977200D01*
X127769600Y-87152200D02*
X127769600Y-86977200D01*
X127769600Y-89179461D02*
X127769600Y-89022200D01*
X129564600Y-86977200D02*
X129989600Y-86977200D01*
X129989600Y-86977200D02*
X129989600Y-87152200D01*
X129989600Y-89022200D02*
X129989600Y-89197200D01*
X129989600Y-89197200D02*
X129564600Y-89197200D01*
X128289600Y-89227200D02*
X128289600Y-89507200D01*
X128009600Y-89227200D01*
X128289600Y-89227200D01*
G36*
X128289600Y-89507200D02*
G01*
X128009600Y-89227200D01*
X128289600Y-89227200D01*
X128289600Y-89507200D01*
G37*
%TO.C,C8*%
X130503200Y-96431980D02*
X130503200Y-96150820D01*
X131523200Y-96431980D02*
X131523200Y-96150820D01*
%TO.C,C3*%
X132524420Y-75567000D02*
X132805580Y-75567000D01*
X132524420Y-76587000D02*
X132805580Y-76587000D01*
%TO.C,C6*%
X126149980Y-95476600D02*
X125868820Y-95476600D01*
X126149980Y-96496600D02*
X125868820Y-96496600D01*
%TO.C,U4*%
X127269600Y-98843000D02*
X127944600Y-98843000D01*
X127269600Y-99018000D02*
X127269600Y-98843000D01*
X127269600Y-101563000D02*
X127269600Y-101388000D01*
X127944600Y-101563000D02*
X127269600Y-101563000D01*
X129814600Y-98843000D02*
X130489600Y-98843000D01*
X130489600Y-98843000D02*
X130489600Y-99018000D01*
X130489600Y-101388000D02*
X130489600Y-101563000D01*
X130489600Y-101563000D02*
X129814600Y-101563000D01*
X127139600Y-99453000D02*
X126809600Y-99693000D01*
X126809600Y-99213000D01*
X127139600Y-99453000D01*
G36*
X127139600Y-99453000D02*
G01*
X126809600Y-99693000D01*
X126809600Y-99213000D01*
X127139600Y-99453000D01*
G37*
%TO.C,U2*%
D13*
X127635000Y-77592000D02*
X127940000Y-77592000D01*
X127635000Y-80462000D02*
X127635000Y-77592000D01*
X127940000Y-80462000D02*
X127635000Y-80462000D01*
X130440000Y-77592000D02*
X130745000Y-77592000D01*
X130745000Y-77592000D02*
X130745000Y-80462000D01*
X130745000Y-80462000D02*
X130440000Y-80462000D01*
D14*
X130040000Y-77027000D02*
G75*
G02*
X129840000Y-77027000I-100000J0D01*
G01*
X129840000Y-77027000D02*
G75*
G02*
X130040000Y-77027000I100000J0D01*
G01*
%TO.C,C1*%
D12*
X129512600Y-103377420D02*
X129512600Y-103658580D01*
X130532600Y-103377420D02*
X130532600Y-103658580D01*
%TO.C,C4*%
X125630000Y-103361420D02*
X125630000Y-103642580D01*
X126650000Y-103361420D02*
X126650000Y-103642580D01*
%TO.C,C7*%
X126058200Y-88176980D02*
X126058200Y-87895820D01*
X127078200Y-88176980D02*
X127078200Y-87895820D01*
%TD*%
%LPC*%
%TO.C,U2*%
D15*
X128552500Y-77977000D02*
G75*
G02*
X128327500Y-77977000I-112500J0D01*
G01*
X128327500Y-77977000D02*
G75*
G02*
X128552500Y-77977000I112500J0D01*
G01*
X128552500Y-78777000D02*
G75*
G02*
X128327500Y-78777000I-112500J0D01*
G01*
X128327500Y-78777000D02*
G75*
G02*
X128552500Y-78777000I112500J0D01*
G01*
X128552500Y-79277000D02*
G75*
G02*
X128327500Y-79277000I-112500J0D01*
G01*
X128327500Y-79277000D02*
G75*
G02*
X128552500Y-79277000I112500J0D01*
G01*
X128552500Y-80077000D02*
G75*
G02*
X128327500Y-80077000I-112500J0D01*
G01*
X128327500Y-80077000D02*
G75*
G02*
X128552500Y-80077000I112500J0D01*
G01*
X129052500Y-77977000D02*
G75*
G02*
X128827500Y-77977000I-112500J0D01*
G01*
X128827500Y-77977000D02*
G75*
G02*
X129052500Y-77977000I112500J0D01*
G01*
X129052500Y-78777000D02*
G75*
G02*
X128827500Y-78777000I-112500J0D01*
G01*
X128827500Y-78777000D02*
G75*
G02*
X129052500Y-78777000I112500J0D01*
G01*
X129052500Y-79277000D02*
G75*
G02*
X128827500Y-79277000I-112500J0D01*
G01*
X128827500Y-79277000D02*
G75*
G02*
X129052500Y-79277000I112500J0D01*
G01*
X129052500Y-80077000D02*
G75*
G02*
X128827500Y-80077000I-112500J0D01*
G01*
X128827500Y-80077000D02*
G75*
G02*
X129052500Y-80077000I112500J0D01*
G01*
X129552500Y-77977000D02*
G75*
G02*
X129327500Y-77977000I-112500J0D01*
G01*
X129327500Y-77977000D02*
G75*
G02*
X129552500Y-77977000I112500J0D01*
G01*
X129552500Y-78777000D02*
G75*
G02*
X129327500Y-78777000I-112500J0D01*
G01*
X129327500Y-78777000D02*
G75*
G02*
X129552500Y-78777000I112500J0D01*
G01*
X129552500Y-79277000D02*
G75*
G02*
X129327500Y-79277000I-112500J0D01*
G01*
X129327500Y-79277000D02*
G75*
G02*
X129552500Y-79277000I112500J0D01*
G01*
X129552500Y-80077000D02*
G75*
G02*
X129327500Y-80077000I-112500J0D01*
G01*
X129327500Y-80077000D02*
G75*
G02*
X129552500Y-80077000I112500J0D01*
G01*
X130052500Y-77977000D02*
G75*
G02*
X129827500Y-77977000I-112500J0D01*
G01*
X129827500Y-77977000D02*
G75*
G02*
X130052500Y-77977000I112500J0D01*
G01*
X130052500Y-78777000D02*
G75*
G02*
X129827500Y-78777000I-112500J0D01*
G01*
X129827500Y-78777000D02*
G75*
G02*
X130052500Y-78777000I112500J0D01*
G01*
X130052500Y-79277000D02*
G75*
G02*
X129827500Y-79277000I-112500J0D01*
G01*
X129827500Y-79277000D02*
G75*
G02*
X130052500Y-79277000I112500J0D01*
G01*
X130052500Y-80077000D02*
G75*
G02*
X129827500Y-80077000I-112500J0D01*
G01*
X129827500Y-80077000D02*
G75*
G02*
X130052500Y-80077000I112500J0D01*
G01*
%TD*%
D16*
%TO.C,C10*%
X129840000Y-76077000D03*
X128290000Y-76077000D03*
%TD*%
D17*
%TO.C,U3*%
X129479600Y-96993000D03*
X129079600Y-96993000D03*
X128679600Y-96993000D03*
X128279600Y-96993000D03*
X129479600Y-96593000D03*
X128279600Y-96593000D03*
X129479600Y-96193000D03*
X128279600Y-96193000D03*
X129479600Y-95793000D03*
X129079600Y-95793000D03*
X128279600Y-95793000D03*
%TD*%
D18*
%TO.C,C9*%
X128219200Y-102767800D03*
X128219200Y-104317800D03*
%TD*%
D19*
%TO.C,C2*%
X124917200Y-88811400D03*
X124917200Y-87261400D03*
%TD*%
D20*
%TO.C,U5*%
X128629600Y-88849700D03*
X129129600Y-88849700D03*
D21*
X129642100Y-88587200D03*
X129642100Y-88087200D03*
X129642100Y-87587200D03*
D20*
X129129600Y-87324700D03*
X128629600Y-87324700D03*
D21*
X128117100Y-87587200D03*
X128117100Y-88087200D03*
X128117100Y-88587200D03*
%TD*%
D19*
%TO.C,C8*%
X131013200Y-97066400D03*
X131013200Y-95516400D03*
%TD*%
D22*
%TO.C,C3*%
X131890000Y-76077000D03*
X133440000Y-76077000D03*
%TD*%
D16*
%TO.C,C6*%
X126784400Y-95986600D03*
X125234400Y-95986600D03*
%TD*%
D23*
%TO.C,U4*%
X127717100Y-99453000D03*
X127717100Y-99953000D03*
X127717100Y-100453000D03*
X127717100Y-100953000D03*
D24*
X128379600Y-101115500D03*
X128879600Y-101115500D03*
X129379600Y-101115500D03*
D23*
X130042100Y-100953000D03*
X130042100Y-100453000D03*
X130042100Y-99953000D03*
X130042100Y-99453000D03*
D24*
X129379600Y-99290500D03*
X128879600Y-99290500D03*
X128379600Y-99290500D03*
%TD*%
D18*
%TO.C,C1*%
X130022600Y-102743000D03*
X130022600Y-104293000D03*
%TD*%
%TO.C,C4*%
X126140000Y-102727000D03*
X126140000Y-104277000D03*
%TD*%
D19*
%TO.C,C7*%
X126568200Y-88811400D03*
X126568200Y-87261400D03*
%TD*%
D25*
%TO.C,J3*%
X106553000Y-76200000D03*
D26*
X106807000Y-78740000D03*
X106553000Y-81280000D03*
X106807000Y-83820000D03*
X106553000Y-86360000D03*
X106807000Y-88900000D03*
X106553000Y-91440000D03*
X106807000Y-93980000D03*
X106553000Y-96520000D03*
X106807000Y-99060000D03*
X106553000Y-101600000D03*
X106807000Y-104140000D03*
X106553000Y-106680000D03*
X106807000Y-109220000D03*
X106553000Y-111760000D03*
X106807000Y-114300000D03*
X106553000Y-116840000D03*
%TD*%
D25*
%TO.C,J4*%
X149733000Y-76200000D03*
D26*
X149987000Y-78740000D03*
X149733000Y-81280000D03*
X149987000Y-83820000D03*
X149733000Y-86360000D03*
X149987000Y-88900000D03*
X149733000Y-91440000D03*
X149987000Y-93980000D03*
X149733000Y-96520000D03*
X149987000Y-99060000D03*
X149733000Y-101600000D03*
X149987000Y-104140000D03*
X149733000Y-106680000D03*
X149987000Y-109220000D03*
X149733000Y-111760000D03*
X149987000Y-114300000D03*
X149733000Y-116840000D03*
%TD*%
%LPD*%
M02*
