%TF.GenerationSoftware,KiCad,Pcbnew,10.0.2*%
%TF.CreationDate,2026-06-15T11:04:02-04:00*%
%TF.ProjectId,IMUBreakout-v2,494d5542-7265-4616-9b6f-75742d76322e,rev?*%
%TF.SameCoordinates,Original*%
%TF.FileFunction,Copper,L2,Inr*%
%TF.FilePolarity,Positive*%
%FSLAX46Y46*%
G04 Gerber Fmt 4.6, Leading zero omitted, Abs format (unit mm)*
G04 Created by KiCad (PCBNEW 10.0.2) date 2026-06-15 11:04:02*
%MOMM*%
%LPD*%
G01*
G04 APERTURE LIST*
%TA.AperFunction,ComponentPad*%
%ADD10R,1.700000X1.700000*%
%TD*%
%TA.AperFunction,ComponentPad*%
%ADD11O,1.700000X1.700000*%
%TD*%
%TA.AperFunction,ViaPad*%
%ADD12C,0.609600*%
%TD*%
G04 APERTURE END LIST*
D10*
%TO.N,/MX_MISO*%
%TO.C,J3*%
X106553000Y-76200000D03*
D11*
%TO.N,/MX_MOSI*%
X106807000Y-78740000D03*
%TO.N,unconnected-(J3-Pin_3-Pad3)*%
X106553000Y-81280000D03*
%TO.N,unconnected-(J3-Pin_4-Pad4)*%
X106807000Y-83820000D03*
%TO.N,GND*%
X106553000Y-86360000D03*
X106807000Y-88900000D03*
%TO.N,+1V8*%
X106553000Y-91440000D03*
%TO.N,/WKUP1*%
X106807000Y-93980000D03*
%TO.N,unconnected-(J3-Pin_9-Pad9)*%
X106553000Y-96520000D03*
%TO.N,/AK_TRG*%
X106807000Y-99060000D03*
%TO.N,/AK_CS*%
X106553000Y-101600000D03*
%TO.N,unconnected-(J3-Pin_12-Pad12)*%
X106807000Y-104140000D03*
%TO.N,/LSM_CK*%
X106553000Y-106680000D03*
%TO.N,/LSM_MISO*%
X106807000Y-109220000D03*
%TO.N,/LSM_MOSI*%
X106553000Y-111760000D03*
%TO.N,/LSM_CS*%
X106807000Y-114300000D03*
%TO.N,GND*%
X106553000Y-116840000D03*
%TD*%
D10*
%TO.N,+1V8*%
%TO.C,J4*%
X149733000Y-76200000D03*
D11*
%TO.N,/MX_SCK*%
X149987000Y-78740000D03*
%TO.N,/MX_nCS*%
X149733000Y-81280000D03*
%TO.N,/LPS_MOSI*%
X149987000Y-83820000D03*
%TO.N,/LPS_MISO*%
X149733000Y-86360000D03*
%TO.N,/LPS_CS*%
X149987000Y-88900000D03*
%TO.N,/LPS_DRDY*%
X149733000Y-91440000D03*
%TO.N,/LSM_TRG*%
X149987000Y-93980000D03*
%TO.N,GND*%
X149733000Y-96520000D03*
X149987000Y-99060000D03*
X149733000Y-101600000D03*
X149987000Y-104140000D03*
X149733000Y-106680000D03*
X149987000Y-109220000D03*
X149733000Y-111760000D03*
%TO.N,unconnected-(J4-Pin_16-Pad16)*%
X149987000Y-114300000D03*
%TO.N,GND*%
X149733000Y-116840000D03*
%TD*%
D12*
%TO.N,+1V8*%
X124840000Y-89677000D03*
X127340000Y-102777000D03*
X130640000Y-76077000D03*
X126568200Y-89748800D03*
X130640000Y-78877000D03*
X126840000Y-95077000D03*
X131840000Y-97277000D03*
X131006000Y-102743000D03*
%TO.N,GND*%
X126540000Y-86277000D03*
X146540000Y-84977000D03*
X128854200Y-88087200D03*
X112440000Y-100377000D03*
X131013200Y-94603800D03*
X145940000Y-90577000D03*
X124840000Y-77377000D03*
X143740000Y-78677000D03*
X138540000Y-87177000D03*
X138140000Y-84977000D03*
X134440000Y-75977000D03*
X131940000Y-86877000D03*
X129040000Y-85577000D03*
X126040000Y-105177000D03*
X127840000Y-79046000D03*
X124206000Y-96012000D03*
X135040000Y-78777000D03*
X141440000Y-90777000D03*
X121040000Y-77277000D03*
X146040000Y-87477000D03*
X128905000Y-100203000D03*
X133140000Y-103177000D03*
X124040000Y-79777000D03*
X134140000Y-89477000D03*
X130040000Y-105277000D03*
X133540000Y-84446000D03*
X132040000Y-84546000D03*
X124942600Y-86055200D03*
X119540000Y-101677000D03*
X132540000Y-98577000D03*
X113040000Y-104077000D03*
X128240000Y-105277000D03*
X136840000Y-88477000D03*
X127440000Y-76077000D03*
X134940000Y-83977000D03*
X119040000Y-96377000D03*
%TO.N,/AK_TRG*%
X127127000Y-97336800D03*
X129794000Y-97663000D03*
%TO.N,/AK_CS*%
X126746000Y-98598800D03*
X129159000Y-98294000D03*
%TO.N,/LSM_CK*%
X128295400Y-97967800D03*
X115633500Y-98869500D03*
X118048185Y-96454815D03*
%TO.N,/LSM_MOSI*%
X124587000Y-100076000D03*
X124714000Y-98933000D03*
%TO.N,/LPS_MOSI*%
X130352800Y-88087200D03*
X132588000Y-87503000D03*
%TO.N,/LPS_CS*%
X138040000Y-88777000D03*
X130540000Y-85077000D03*
%TO.N,/LPS_DRDY*%
X128397000Y-86360000D03*
X134493000Y-88646000D03*
%TO.N,/WKUP1*%
X117983000Y-97282000D03*
X118999000Y-100711000D03*
%TO.N,/LSM_CS*%
X131572000Y-98679000D03*
X132207000Y-103251000D03*
%TO.N,/MX_MISO*%
X124040000Y-77477000D03*
X124940000Y-79677000D03*
%TD*%
%TA.AperFunction,Conductor*%
%TO.N,+1V8*%
G36*
X151134853Y-72465882D02*
G01*
X151164568Y-72468220D01*
X151307136Y-72479440D01*
X151326346Y-72482483D01*
X151489638Y-72521686D01*
X151508135Y-72527696D01*
X151663280Y-72591959D01*
X151680606Y-72600787D01*
X151734330Y-72633709D01*
X151823787Y-72688529D01*
X151839529Y-72699966D01*
X151967218Y-72809023D01*
X151980976Y-72822781D01*
X152090033Y-72950470D01*
X152101470Y-72966212D01*
X152189209Y-73109387D01*
X152198043Y-73126725D01*
X152262301Y-73281860D01*
X152268314Y-73300365D01*
X152307515Y-73463648D01*
X152310559Y-73482866D01*
X152324118Y-73655146D01*
X152324500Y-73664875D01*
X152324500Y-119375124D01*
X152324118Y-119384852D01*
X152324118Y-119384853D01*
X152310559Y-119557133D01*
X152307515Y-119576351D01*
X152268314Y-119739634D01*
X152262301Y-119758139D01*
X152198043Y-119913274D01*
X152189209Y-119930612D01*
X152101470Y-120073787D01*
X152090033Y-120089529D01*
X151980976Y-120217218D01*
X151967218Y-120230976D01*
X151839529Y-120340033D01*
X151823787Y-120351470D01*
X151680612Y-120439209D01*
X151663274Y-120448043D01*
X151508139Y-120512301D01*
X151489634Y-120518314D01*
X151326351Y-120557515D01*
X151307133Y-120560559D01*
X151134854Y-120574118D01*
X151125125Y-120574500D01*
X105414875Y-120574500D01*
X105405146Y-120574118D01*
X105232866Y-120560559D01*
X105213648Y-120557515D01*
X105050365Y-120518314D01*
X105031860Y-120512301D01*
X104876725Y-120448043D01*
X104859387Y-120439209D01*
X104716212Y-120351470D01*
X104700470Y-120340033D01*
X104572781Y-120230976D01*
X104559023Y-120217218D01*
X104449966Y-120089529D01*
X104438529Y-120073787D01*
X104402664Y-120015262D01*
X104350787Y-119930606D01*
X104341959Y-119913280D01*
X104277696Y-119758135D01*
X104271685Y-119739634D01*
X104232484Y-119576351D01*
X104229440Y-119557132D01*
X104215882Y-119384852D01*
X104215500Y-119375124D01*
X104215500Y-75301345D01*
X105194500Y-75301345D01*
X105194500Y-77098654D01*
X105201011Y-77159202D01*
X105201011Y-77159204D01*
X105231063Y-77239774D01*
X105252111Y-77296204D01*
X105339739Y-77413261D01*
X105456796Y-77500889D01*
X105571297Y-77543596D01*
X105588463Y-77549999D01*
X105593799Y-77551989D01*
X105621050Y-77554918D01*
X105654345Y-77558499D01*
X105654362Y-77558500D01*
X105767928Y-77558500D01*
X105834967Y-77578185D01*
X105880722Y-77630989D01*
X105890666Y-77700147D01*
X105861641Y-77763703D01*
X105855609Y-77770181D01*
X105770796Y-77854993D01*
X105645106Y-78027990D01*
X105548027Y-78218516D01*
X105548026Y-78218519D01*
X105481951Y-78421882D01*
X105454232Y-78596894D01*
X105448500Y-78633084D01*
X105448500Y-78846916D01*
X105450114Y-78857105D01*
X105481951Y-79058117D01*
X105548026Y-79261480D01*
X105548027Y-79261483D01*
X105634522Y-79431237D01*
X105645106Y-79452009D01*
X105770794Y-79625004D01*
X105921996Y-79776206D01*
X105993348Y-79828046D01*
X106001503Y-79833971D01*
X106044168Y-79889301D01*
X106050147Y-79958915D01*
X106017541Y-80020710D01*
X105984912Y-80044774D01*
X105840990Y-80118106D01*
X105667993Y-80243796D01*
X105516796Y-80394993D01*
X105391106Y-80567990D01*
X105294027Y-80758516D01*
X105294026Y-80758519D01*
X105227951Y-80961882D01*
X105194500Y-81173084D01*
X105194500Y-81386915D01*
X105227951Y-81598117D01*
X105294026Y-81801480D01*
X105294027Y-81801483D01*
X105391106Y-81992009D01*
X105516794Y-82165004D01*
X105667996Y-82316206D01*
X105840991Y-82441894D01*
X105984913Y-82515226D01*
X106035708Y-82563199D01*
X106052503Y-82631020D01*
X106029966Y-82697155D01*
X106001504Y-82726027D01*
X105921996Y-82783793D01*
X105770796Y-82934993D01*
X105645106Y-83107990D01*
X105548027Y-83298516D01*
X105548026Y-83298519D01*
X105481951Y-83501882D01*
X105448500Y-83713084D01*
X105448500Y-83926915D01*
X105481951Y-84138117D01*
X105548026Y-84341480D01*
X105548027Y-84341483D01*
X105611420Y-84465897D01*
X105645106Y-84532009D01*
X105770794Y-84705004D01*
X105921996Y-84856206D01*
X106001503Y-84913971D01*
X106044168Y-84969301D01*
X106050147Y-85038915D01*
X106017541Y-85100710D01*
X105984912Y-85124774D01*
X105840990Y-85198106D01*
X105667993Y-85323796D01*
X105516796Y-85474993D01*
X105391106Y-85647990D01*
X105294027Y-85838516D01*
X105294026Y-85838519D01*
X105227951Y-86041882D01*
X105194500Y-86253084D01*
X105194500Y-86466915D01*
X105227951Y-86678117D01*
X105294026Y-86881480D01*
X105294027Y-86881483D01*
X105384501Y-87059046D01*
X105391106Y-87072009D01*
X105516794Y-87245004D01*
X105667996Y-87396206D01*
X105840991Y-87521894D01*
X105984913Y-87595226D01*
X106035708Y-87643199D01*
X106052503Y-87711020D01*
X106029966Y-87777155D01*
X106001504Y-87806027D01*
X105921996Y-87863793D01*
X105770796Y-88014993D01*
X105645106Y-88187990D01*
X105548027Y-88378516D01*
X105548026Y-88378519D01*
X105481951Y-88581882D01*
X105460245Y-88718928D01*
X105448500Y-88793084D01*
X105448500Y-89006916D01*
X105452353Y-89031242D01*
X105481951Y-89218117D01*
X105548026Y-89421480D01*
X105548027Y-89421483D01*
X105586882Y-89497739D01*
X105645106Y-89612009D01*
X105770794Y-89785004D01*
X105921996Y-89936206D01*
X106009221Y-89999579D01*
X106051887Y-90054907D01*
X106057866Y-90124521D01*
X106025261Y-90186316D01*
X105992632Y-90210380D01*
X105845444Y-90285377D01*
X105673540Y-90410272D01*
X105673535Y-90410276D01*
X105523276Y-90560535D01*
X105523272Y-90560540D01*
X105398379Y-90732442D01*
X105301904Y-90921782D01*
X105236242Y-91123870D01*
X105236242Y-91123873D01*
X105225769Y-91190000D01*
X106119988Y-91190000D01*
X106087075Y-91247007D01*
X106053000Y-91374174D01*
X106053000Y-91505826D01*
X106087075Y-91632993D01*
X106119988Y-91690000D01*
X105225769Y-91690000D01*
X105236242Y-91756126D01*
X105236242Y-91756129D01*
X105301904Y-91958217D01*
X105398379Y-92147557D01*
X105523272Y-92319459D01*
X105523276Y-92319464D01*
X105673535Y-92469723D01*
X105673540Y-92469727D01*
X105845442Y-92594620D01*
X105992631Y-92669618D01*
X106043427Y-92717593D01*
X106060222Y-92785414D01*
X106037684Y-92851549D01*
X106009222Y-92880421D01*
X105921993Y-92943796D01*
X105770796Y-93094993D01*
X105645106Y-93267990D01*
X105548027Y-93458516D01*
X105548026Y-93458519D01*
X105481951Y-93661882D01*
X105448500Y-93873084D01*
X105448500Y-94086915D01*
X105481951Y-94298117D01*
X105548026Y-94501480D01*
X105548027Y-94501483D01*
X105640976Y-94683903D01*
X105645106Y-94692009D01*
X105770794Y-94865004D01*
X105921996Y-95016206D01*
X106001503Y-95073971D01*
X106044168Y-95129301D01*
X106050147Y-95198915D01*
X106017541Y-95260710D01*
X105984912Y-95284774D01*
X105840990Y-95358106D01*
X105667993Y-95483796D01*
X105516796Y-95634993D01*
X105391106Y-95807990D01*
X105294027Y-95998516D01*
X105294026Y-95998519D01*
X105227951Y-96201882D01*
X105194500Y-96413084D01*
X105194500Y-96626915D01*
X105227951Y-96838117D01*
X105294026Y-97041480D01*
X105294027Y-97041483D01*
X105375763Y-97201897D01*
X105391106Y-97232009D01*
X105516794Y-97405004D01*
X105667996Y-97556206D01*
X105840991Y-97681894D01*
X105984913Y-97755226D01*
X106035708Y-97803199D01*
X106052503Y-97871020D01*
X106029966Y-97937155D01*
X106001504Y-97966027D01*
X105921996Y-98023793D01*
X105770796Y-98174993D01*
X105645106Y-98347990D01*
X105548027Y-98538516D01*
X105548026Y-98538519D01*
X105481951Y-98741882D01*
X105464368Y-98852897D01*
X105448500Y-98953084D01*
X105448500Y-99166916D01*
X105455123Y-99208731D01*
X105481951Y-99378117D01*
X105548026Y-99581480D01*
X105548027Y-99581483D01*
X105631481Y-99745268D01*
X105645106Y-99772009D01*
X105770794Y-99945004D01*
X105921996Y-100096206D01*
X106001503Y-100153971D01*
X106044168Y-100209301D01*
X106050147Y-100278915D01*
X106017541Y-100340710D01*
X105984912Y-100364774D01*
X105840990Y-100438106D01*
X105667993Y-100563796D01*
X105516796Y-100714993D01*
X105391106Y-100887990D01*
X105294027Y-101078516D01*
X105294026Y-101078519D01*
X105227951Y-101281882D01*
X105194500Y-101493084D01*
X105194500Y-101706915D01*
X105227951Y-101918117D01*
X105294026Y-102121480D01*
X105294027Y-102121483D01*
X105389434Y-102308728D01*
X105391106Y-102312009D01*
X105516794Y-102485004D01*
X105667996Y-102636206D01*
X105840991Y-102761894D01*
X105984913Y-102835226D01*
X106035708Y-102883199D01*
X106052503Y-102951020D01*
X106029966Y-103017155D01*
X106001504Y-103046027D01*
X105921996Y-103103793D01*
X105770796Y-103254993D01*
X105645106Y-103427990D01*
X105548027Y-103618516D01*
X105548026Y-103618519D01*
X105481951Y-103821882D01*
X105448500Y-104033084D01*
X105448500Y-104246915D01*
X105481951Y-104458117D01*
X105548026Y-104661480D01*
X105548027Y-104661483D01*
X105617454Y-104797739D01*
X105645106Y-104852009D01*
X105770794Y-105025004D01*
X105921996Y-105176206D01*
X106001503Y-105233971D01*
X106044168Y-105289301D01*
X106050147Y-105358915D01*
X106017541Y-105420710D01*
X105984912Y-105444774D01*
X105840990Y-105518106D01*
X105667993Y-105643796D01*
X105516796Y-105794993D01*
X105391106Y-105967990D01*
X105294027Y-106158516D01*
X105294026Y-106158519D01*
X105227951Y-106361882D01*
X105194500Y-106573084D01*
X105194500Y-106786915D01*
X105227951Y-106998117D01*
X105294026Y-107201480D01*
X105294027Y-107201483D01*
X105391106Y-107392009D01*
X105516794Y-107565004D01*
X105667996Y-107716206D01*
X105840991Y-107841894D01*
X105984913Y-107915226D01*
X106035708Y-107963199D01*
X106052503Y-108031020D01*
X106029966Y-108097155D01*
X106001504Y-108126027D01*
X105921996Y-108183793D01*
X105770796Y-108334993D01*
X105645106Y-108507990D01*
X105548027Y-108698516D01*
X105548026Y-108698519D01*
X105481951Y-108901882D01*
X105448500Y-109113084D01*
X105448500Y-109326915D01*
X105481951Y-109538117D01*
X105548026Y-109741480D01*
X105548027Y-109741483D01*
X105645106Y-109932009D01*
X105770794Y-110105004D01*
X105921996Y-110256206D01*
X106001503Y-110313971D01*
X106044168Y-110369301D01*
X106050147Y-110438915D01*
X106017541Y-110500710D01*
X105984912Y-110524774D01*
X105840990Y-110598106D01*
X105667993Y-110723796D01*
X105516796Y-110874993D01*
X105391106Y-111047990D01*
X105294027Y-111238516D01*
X105294026Y-111238519D01*
X105227951Y-111441882D01*
X105194500Y-111653084D01*
X105194500Y-111866915D01*
X105227951Y-112078117D01*
X105294026Y-112281480D01*
X105294027Y-112281483D01*
X105391106Y-112472009D01*
X105516794Y-112645004D01*
X105667996Y-112796206D01*
X105840991Y-112921894D01*
X105984913Y-112995226D01*
X106035708Y-113043199D01*
X106052503Y-113111020D01*
X106029966Y-113177155D01*
X106001504Y-113206027D01*
X105921996Y-113263793D01*
X105770796Y-113414993D01*
X105645106Y-113587990D01*
X105548027Y-113778516D01*
X105548026Y-113778519D01*
X105481951Y-113981882D01*
X105448500Y-114193084D01*
X105448500Y-114406915D01*
X105481951Y-114618117D01*
X105548026Y-114821480D01*
X105548027Y-114821483D01*
X105645106Y-115012009D01*
X105770794Y-115185004D01*
X105921996Y-115336206D01*
X106001503Y-115393971D01*
X106044168Y-115449301D01*
X106050147Y-115518915D01*
X106017541Y-115580710D01*
X105984912Y-115604774D01*
X105840990Y-115678106D01*
X105667993Y-115803796D01*
X105516796Y-115954993D01*
X105391106Y-116127990D01*
X105294027Y-116318516D01*
X105294026Y-116318519D01*
X105227951Y-116521882D01*
X105194500Y-116733084D01*
X105194500Y-116946915D01*
X105227951Y-117158117D01*
X105294026Y-117361480D01*
X105294027Y-117361483D01*
X105391106Y-117552009D01*
X105516794Y-117725004D01*
X105667996Y-117876206D01*
X105840991Y-118001894D01*
X105934438Y-118049507D01*
X106031516Y-118098972D01*
X106031519Y-118098973D01*
X106133200Y-118132010D01*
X106234884Y-118165049D01*
X106446084Y-118198500D01*
X106446085Y-118198500D01*
X106659915Y-118198500D01*
X106659916Y-118198500D01*
X106871116Y-118165049D01*
X107074483Y-118098972D01*
X107265009Y-118001894D01*
X107438004Y-117876206D01*
X107589206Y-117725004D01*
X107714894Y-117552009D01*
X107811972Y-117361483D01*
X107878049Y-117158116D01*
X107911500Y-116946916D01*
X107911500Y-116733084D01*
X107878049Y-116521884D01*
X107811972Y-116318517D01*
X107811972Y-116318516D01*
X107714893Y-116127990D01*
X107589206Y-115954996D01*
X107438004Y-115803794D01*
X107358496Y-115746028D01*
X107315831Y-115690697D01*
X107309852Y-115621084D01*
X107342458Y-115559289D01*
X107375085Y-115535226D01*
X107519009Y-115461894D01*
X107692004Y-115336206D01*
X107843206Y-115185004D01*
X107968894Y-115012009D01*
X108065972Y-114821483D01*
X108132049Y-114618116D01*
X108165500Y-114406916D01*
X108165500Y-114193084D01*
X108132049Y-113981884D01*
X108065972Y-113778517D01*
X108065972Y-113778516D01*
X107968893Y-113587990D01*
X107843206Y-113414996D01*
X107692004Y-113263794D01*
X107519009Y-113138106D01*
X107375086Y-113064773D01*
X107324291Y-113016799D01*
X107307496Y-112948978D01*
X107330033Y-112882843D01*
X107358497Y-112853971D01*
X107438004Y-112796206D01*
X107589206Y-112645004D01*
X107714894Y-112472009D01*
X107811972Y-112281483D01*
X107878049Y-112078116D01*
X107911500Y-111866916D01*
X107911500Y-111653084D01*
X107878049Y-111441884D01*
X107811972Y-111238517D01*
X107811972Y-111238516D01*
X107714893Y-111047990D01*
X107589206Y-110874996D01*
X107438004Y-110723794D01*
X107358496Y-110666028D01*
X107315831Y-110610697D01*
X107309852Y-110541084D01*
X107342458Y-110479289D01*
X107375085Y-110455226D01*
X107519009Y-110381894D01*
X107692004Y-110256206D01*
X107843206Y-110105004D01*
X107968894Y-109932009D01*
X108065972Y-109741483D01*
X108132049Y-109538116D01*
X108165500Y-109326916D01*
X108165500Y-109113084D01*
X108132049Y-108901884D01*
X108065972Y-108698517D01*
X108065972Y-108698516D01*
X107968893Y-108507990D01*
X107843206Y-108334996D01*
X107692004Y-108183794D01*
X107519009Y-108058106D01*
X107375086Y-107984773D01*
X107324291Y-107936799D01*
X107307496Y-107868978D01*
X107330033Y-107802843D01*
X107358497Y-107773971D01*
X107438004Y-107716206D01*
X107589206Y-107565004D01*
X107714894Y-107392009D01*
X107811972Y-107201483D01*
X107878049Y-106998116D01*
X107911500Y-106786916D01*
X107911500Y-106573084D01*
X107878049Y-106361884D01*
X107811972Y-106158517D01*
X107811972Y-106158516D01*
X107714893Y-105967990D01*
X107663852Y-105897738D01*
X107589206Y-105794996D01*
X107438004Y-105643794D01*
X107358496Y-105586028D01*
X107315831Y-105530697D01*
X107309852Y-105461084D01*
X107342458Y-105399289D01*
X107375085Y-105375226D01*
X107519009Y-105301894D01*
X107580656Y-105257105D01*
X125226699Y-105257105D01*
X125257953Y-105414225D01*
X125257956Y-105414235D01*
X125319260Y-105562237D01*
X125319261Y-105562239D01*
X125408268Y-105695447D01*
X125408271Y-105695451D01*
X125521548Y-105808728D01*
X125521552Y-105808731D01*
X125654758Y-105897737D01*
X125654759Y-105897737D01*
X125654760Y-105897738D01*
X125654762Y-105897739D01*
X125802764Y-105959043D01*
X125802769Y-105959045D01*
X125802773Y-105959045D01*
X125802774Y-105959046D01*
X125959894Y-105990300D01*
X125959897Y-105990300D01*
X126120105Y-105990300D01*
X126232262Y-105967990D01*
X126277231Y-105959045D01*
X126425242Y-105897737D01*
X126558448Y-105808731D01*
X126671731Y-105695448D01*
X126760737Y-105562242D01*
X126822045Y-105414231D01*
X126833408Y-105357105D01*
X127426699Y-105357105D01*
X127457953Y-105514225D01*
X127457956Y-105514235D01*
X127519260Y-105662237D01*
X127519261Y-105662239D01*
X127608268Y-105795447D01*
X127608271Y-105795451D01*
X127721548Y-105908728D01*
X127721552Y-105908731D01*
X127854758Y-105997737D01*
X127854759Y-105997737D01*
X127854760Y-105997738D01*
X127854762Y-105997739D01*
X128002764Y-106059043D01*
X128002769Y-106059045D01*
X128002773Y-106059045D01*
X128002774Y-106059046D01*
X128159894Y-106090300D01*
X128159897Y-106090300D01*
X128320105Y-106090300D01*
X128425813Y-106069272D01*
X128477231Y-106059045D01*
X128625242Y-105997737D01*
X128758448Y-105908731D01*
X128871731Y-105795448D01*
X128960737Y-105662242D01*
X129002158Y-105562242D01*
X129024376Y-105508604D01*
X129026086Y-105509312D01*
X129059639Y-105458117D01*
X129123451Y-105429661D01*
X129192518Y-105440223D01*
X129244911Y-105486448D01*
X129255123Y-105508811D01*
X129255624Y-105508604D01*
X129319260Y-105662237D01*
X129319261Y-105662239D01*
X129408268Y-105795447D01*
X129408271Y-105795451D01*
X129521548Y-105908728D01*
X129521552Y-105908731D01*
X129654758Y-105997737D01*
X129654759Y-105997737D01*
X129654760Y-105997738D01*
X129654762Y-105997739D01*
X129802764Y-106059043D01*
X129802769Y-106059045D01*
X129802773Y-106059045D01*
X129802774Y-106059046D01*
X129959894Y-106090300D01*
X129959897Y-106090300D01*
X130120105Y-106090300D01*
X130225813Y-106069272D01*
X130277231Y-106059045D01*
X130425242Y-105997737D01*
X130558448Y-105908731D01*
X130671731Y-105795448D01*
X130760737Y-105662242D01*
X130822045Y-105514231D01*
X130833207Y-105458117D01*
X130853300Y-105357105D01*
X130853300Y-105196894D01*
X130822046Y-105039774D01*
X130822045Y-105039773D01*
X130822045Y-105039769D01*
X130815926Y-105024997D01*
X130760739Y-104891762D01*
X130760738Y-104891760D01*
X130759762Y-104890300D01*
X130671731Y-104758552D01*
X130671728Y-104758548D01*
X130558451Y-104645271D01*
X130558447Y-104645268D01*
X130425239Y-104556261D01*
X130425237Y-104556260D01*
X130277235Y-104494956D01*
X130277225Y-104494953D01*
X130120105Y-104463700D01*
X130120103Y-104463700D01*
X129959897Y-104463700D01*
X129959895Y-104463700D01*
X129802774Y-104494953D01*
X129802764Y-104494956D01*
X129654762Y-104556260D01*
X129654760Y-104556261D01*
X129521552Y-104645268D01*
X129521548Y-104645271D01*
X129408271Y-104758548D01*
X129408268Y-104758552D01*
X129319261Y-104891760D01*
X129319260Y-104891762D01*
X129255624Y-105045396D01*
X129253915Y-105044688D01*
X129220354Y-105095889D01*
X129156539Y-105124339D01*
X129087473Y-105113772D01*
X129035084Y-105067542D01*
X129024875Y-105045189D01*
X129024376Y-105045396D01*
X128960739Y-104891762D01*
X128960738Y-104891760D01*
X128959762Y-104890300D01*
X128871731Y-104758552D01*
X128871728Y-104758548D01*
X128758451Y-104645271D01*
X128758447Y-104645268D01*
X128625239Y-104556261D01*
X128625237Y-104556260D01*
X128477235Y-104494956D01*
X128477225Y-104494953D01*
X128320105Y-104463700D01*
X128320103Y-104463700D01*
X128159897Y-104463700D01*
X128159895Y-104463700D01*
X128002774Y-104494953D01*
X128002764Y-104494956D01*
X127854762Y-104556260D01*
X127854760Y-104556261D01*
X127721552Y-104645268D01*
X127721548Y-104645271D01*
X127608271Y-104758548D01*
X127608268Y-104758552D01*
X127519261Y-104891760D01*
X127519260Y-104891762D01*
X127457956Y-105039764D01*
X127457953Y-105039774D01*
X127426700Y-105196894D01*
X127426700Y-105196897D01*
X127426700Y-105357103D01*
X127426700Y-105357105D01*
X127426699Y-105357105D01*
X126833408Y-105357105D01*
X126844390Y-105301895D01*
X126853300Y-105257105D01*
X126853300Y-105096894D01*
X126822046Y-104939774D01*
X126822045Y-104939773D01*
X126822045Y-104939769D01*
X126788608Y-104859045D01*
X126760739Y-104791762D01*
X126760738Y-104791760D01*
X126738546Y-104758548D01*
X126671731Y-104658552D01*
X126671728Y-104658548D01*
X126558451Y-104545271D01*
X126558447Y-104545268D01*
X126425239Y-104456261D01*
X126425237Y-104456260D01*
X126277235Y-104394956D01*
X126277225Y-104394953D01*
X126120105Y-104363700D01*
X126120103Y-104363700D01*
X125959897Y-104363700D01*
X125959895Y-104363700D01*
X125802774Y-104394953D01*
X125802764Y-104394956D01*
X125654762Y-104456260D01*
X125654760Y-104456261D01*
X125521552Y-104545268D01*
X125521548Y-104545271D01*
X125408271Y-104658548D01*
X125408268Y-104658552D01*
X125319261Y-104791760D01*
X125319260Y-104791762D01*
X125257956Y-104939764D01*
X125257953Y-104939774D01*
X125226700Y-105096894D01*
X125226700Y-105096897D01*
X125226700Y-105257103D01*
X125226700Y-105257105D01*
X125226699Y-105257105D01*
X107580656Y-105257105D01*
X107692004Y-105176206D01*
X107843206Y-105025004D01*
X107968894Y-104852009D01*
X108065972Y-104661483D01*
X108132049Y-104458116D01*
X108165500Y-104246916D01*
X108165500Y-104157105D01*
X112226699Y-104157105D01*
X112257953Y-104314225D01*
X112257956Y-104314235D01*
X112319260Y-104462237D01*
X112319261Y-104462239D01*
X112408268Y-104595447D01*
X112408271Y-104595451D01*
X112521548Y-104708728D01*
X112521552Y-104708731D01*
X112654758Y-104797737D01*
X112654759Y-104797737D01*
X112654760Y-104797738D01*
X112654762Y-104797739D01*
X112785790Y-104852012D01*
X112802769Y-104859045D01*
X112802773Y-104859045D01*
X112802774Y-104859046D01*
X112959894Y-104890300D01*
X112959897Y-104890300D01*
X113120105Y-104890300D01*
X113225813Y-104869272D01*
X113277231Y-104859045D01*
X113425242Y-104797737D01*
X113558448Y-104708731D01*
X113671731Y-104595448D01*
X113760737Y-104462242D01*
X113822045Y-104314231D01*
X113853300Y-104157103D01*
X113853300Y-103996897D01*
X113853300Y-103996894D01*
X113822046Y-103839774D01*
X113822045Y-103839773D01*
X113822045Y-103839769D01*
X113809189Y-103808731D01*
X113760739Y-103691762D01*
X113760738Y-103691760D01*
X113711798Y-103618517D01*
X113671731Y-103558552D01*
X113671728Y-103558548D01*
X113558451Y-103445271D01*
X113558447Y-103445268D01*
X113425239Y-103356261D01*
X113425237Y-103356260D01*
X113364507Y-103331105D01*
X131393699Y-103331105D01*
X131424953Y-103488225D01*
X131424956Y-103488235D01*
X131486260Y-103636237D01*
X131486261Y-103636239D01*
X131575268Y-103769447D01*
X131575271Y-103769451D01*
X131688548Y-103882728D01*
X131688552Y-103882731D01*
X131821758Y-103971737D01*
X131821759Y-103971737D01*
X131821760Y-103971738D01*
X131821762Y-103971739D01*
X131914621Y-104010202D01*
X131969769Y-104033045D01*
X131969773Y-104033045D01*
X131969774Y-104033046D01*
X132126894Y-104064300D01*
X132126897Y-104064300D01*
X132287105Y-104064300D01*
X132392813Y-104043272D01*
X132444231Y-104033045D01*
X132592242Y-103971737D01*
X132667691Y-103921322D01*
X132734368Y-103900445D01*
X132784034Y-103909864D01*
X132902764Y-103959043D01*
X132902769Y-103959045D01*
X132902773Y-103959045D01*
X132902774Y-103959046D01*
X133059894Y-103990300D01*
X133059897Y-103990300D01*
X133220105Y-103990300D01*
X133325813Y-103969272D01*
X133377231Y-103959045D01*
X133525242Y-103897737D01*
X133658448Y-103808731D01*
X133771731Y-103695448D01*
X133860737Y-103562242D01*
X133922045Y-103414231D01*
X133938580Y-103331103D01*
X133953300Y-103257105D01*
X133953300Y-103096894D01*
X133922046Y-102939774D01*
X133922045Y-102939773D01*
X133922045Y-102939769D01*
X133897714Y-102881028D01*
X133860739Y-102791762D01*
X133860738Y-102791760D01*
X133840781Y-102761893D01*
X133771731Y-102658552D01*
X133771728Y-102658548D01*
X133658451Y-102545271D01*
X133658447Y-102545268D01*
X133525239Y-102456261D01*
X133525237Y-102456260D01*
X133377235Y-102394956D01*
X133377225Y-102394953D01*
X133220105Y-102363700D01*
X133220103Y-102363700D01*
X133059897Y-102363700D01*
X133059895Y-102363700D01*
X132902774Y-102394953D01*
X132902764Y-102394956D01*
X132754762Y-102456260D01*
X132754757Y-102456263D01*
X132679306Y-102506677D01*
X132612629Y-102527554D01*
X132562965Y-102518135D01*
X132444235Y-102468956D01*
X132444225Y-102468953D01*
X132287105Y-102437700D01*
X132287103Y-102437700D01*
X132126897Y-102437700D01*
X132126895Y-102437700D01*
X131969774Y-102468953D01*
X131969764Y-102468956D01*
X131821762Y-102530260D01*
X131821760Y-102530261D01*
X131688552Y-102619268D01*
X131688548Y-102619271D01*
X131575271Y-102732548D01*
X131575268Y-102732552D01*
X131486261Y-102865760D01*
X131486260Y-102865762D01*
X131424956Y-103013764D01*
X131424953Y-103013774D01*
X131393700Y-103170894D01*
X131393700Y-103170897D01*
X131393700Y-103331103D01*
X131393700Y-103331105D01*
X131393699Y-103331105D01*
X113364507Y-103331105D01*
X113277235Y-103294956D01*
X113277225Y-103294953D01*
X113234335Y-103286422D01*
X113120105Y-103263700D01*
X113120103Y-103263700D01*
X112959897Y-103263700D01*
X112959895Y-103263700D01*
X112802774Y-103294953D01*
X112802764Y-103294956D01*
X112654762Y-103356260D01*
X112654760Y-103356261D01*
X112521552Y-103445268D01*
X112521548Y-103445271D01*
X112408271Y-103558548D01*
X112408268Y-103558552D01*
X112319261Y-103691760D01*
X112319260Y-103691762D01*
X112257956Y-103839764D01*
X112257953Y-103839774D01*
X112226700Y-103996894D01*
X112226700Y-103996897D01*
X112226700Y-104157103D01*
X112226700Y-104157105D01*
X112226699Y-104157105D01*
X108165500Y-104157105D01*
X108165500Y-104033084D01*
X108132049Y-103821884D01*
X108090968Y-103695447D01*
X108065973Y-103618519D01*
X108065972Y-103618516D01*
X107999585Y-103488225D01*
X107968894Y-103427991D01*
X107843206Y-103254996D01*
X107692004Y-103103794D01*
X107519009Y-102978106D01*
X107375086Y-102904773D01*
X107324291Y-102856799D01*
X107307496Y-102788978D01*
X107330033Y-102722843D01*
X107358497Y-102693971D01*
X107438004Y-102636206D01*
X107589206Y-102485004D01*
X107714894Y-102312009D01*
X107811972Y-102121483D01*
X107878049Y-101918116D01*
X107911500Y-101706916D01*
X107911500Y-101493084D01*
X107878049Y-101281884D01*
X107817730Y-101096239D01*
X107811973Y-101078519D01*
X107811972Y-101078516D01*
X107741094Y-100939411D01*
X107714894Y-100887991D01*
X107589206Y-100714996D01*
X107438004Y-100563794D01*
X107358496Y-100506028D01*
X107358473Y-100505999D01*
X107358440Y-100505987D01*
X107337006Y-100478158D01*
X107320772Y-100457105D01*
X111626699Y-100457105D01*
X111657953Y-100614225D01*
X111657956Y-100614235D01*
X111719260Y-100762237D01*
X111719261Y-100762239D01*
X111808268Y-100895447D01*
X111808271Y-100895451D01*
X111921548Y-101008728D01*
X111921552Y-101008731D01*
X112054758Y-101097737D01*
X112054759Y-101097737D01*
X112054760Y-101097738D01*
X112054762Y-101097739D01*
X112201569Y-101158548D01*
X112202769Y-101159045D01*
X112202773Y-101159045D01*
X112202774Y-101159046D01*
X112359894Y-101190300D01*
X112359897Y-101190300D01*
X112520105Y-101190300D01*
X112625813Y-101169272D01*
X112677231Y-101159045D01*
X112825242Y-101097737D01*
X112958448Y-101008731D01*
X113071731Y-100895448D01*
X113141451Y-100791105D01*
X118185699Y-100791105D01*
X118216953Y-100948225D01*
X118216956Y-100948235D01*
X118278260Y-101096237D01*
X118278261Y-101096239D01*
X118367268Y-101229447D01*
X118367271Y-101229451D01*
X118480548Y-101342728D01*
X118480552Y-101342731D01*
X118613758Y-101431737D01*
X118654437Y-101448587D01*
X118708838Y-101492426D01*
X118730904Y-101558720D01*
X118728602Y-101587331D01*
X118726700Y-101596895D01*
X118726700Y-101596897D01*
X118726700Y-101757103D01*
X118726700Y-101757105D01*
X118726699Y-101757105D01*
X118757953Y-101914225D01*
X118757956Y-101914235D01*
X118819260Y-102062237D01*
X118819261Y-102062239D01*
X118908268Y-102195447D01*
X118908271Y-102195451D01*
X119021548Y-102308728D01*
X119021552Y-102308731D01*
X119154758Y-102397737D01*
X119154759Y-102397737D01*
X119154760Y-102397738D01*
X119154762Y-102397739D01*
X119302764Y-102459043D01*
X119302769Y-102459045D01*
X119302773Y-102459045D01*
X119302774Y-102459046D01*
X119459894Y-102490300D01*
X119459897Y-102490300D01*
X119620105Y-102490300D01*
X119725813Y-102469272D01*
X119777231Y-102459045D01*
X119925242Y-102397737D01*
X120058448Y-102308731D01*
X120171731Y-102195448D01*
X120260737Y-102062242D01*
X120322045Y-101914231D01*
X120353300Y-101757103D01*
X120353300Y-101596897D01*
X120353300Y-101596895D01*
X120353300Y-101596894D01*
X120322046Y-101439774D01*
X120322045Y-101439773D01*
X120322045Y-101439769D01*
X120281851Y-101342731D01*
X120260739Y-101291762D01*
X120260738Y-101291760D01*
X120219104Y-101229451D01*
X120171731Y-101158552D01*
X120171728Y-101158548D01*
X120058451Y-101045271D01*
X120058447Y-101045268D01*
X120003761Y-101008728D01*
X119925242Y-100956263D01*
X119925239Y-100956261D01*
X119925238Y-100956261D01*
X119884561Y-100939411D01*
X119830159Y-100895569D01*
X119808095Y-100829275D01*
X119810400Y-100800655D01*
X119812300Y-100791105D01*
X119812300Y-100630894D01*
X119781046Y-100473774D01*
X119781045Y-100473773D01*
X119781045Y-100473769D01*
X119726062Y-100341028D01*
X119719739Y-100325762D01*
X119719738Y-100325760D01*
X119715414Y-100319289D01*
X119630731Y-100192552D01*
X119630728Y-100192548D01*
X119594285Y-100156105D01*
X123773699Y-100156105D01*
X123804953Y-100313225D01*
X123804956Y-100313235D01*
X123866260Y-100461237D01*
X123866261Y-100461239D01*
X123955268Y-100594447D01*
X123955271Y-100594451D01*
X124068548Y-100707728D01*
X124068552Y-100707731D01*
X124201758Y-100796737D01*
X124201759Y-100796737D01*
X124201760Y-100796738D01*
X124201762Y-100796739D01*
X124349764Y-100858043D01*
X124349769Y-100858045D01*
X124349773Y-100858045D01*
X124349774Y-100858046D01*
X124506894Y-100889300D01*
X124506897Y-100889300D01*
X124667105Y-100889300D01*
X124772813Y-100868272D01*
X124824231Y-100858045D01*
X124972242Y-100796737D01*
X125105448Y-100707731D01*
X125218731Y-100594448D01*
X125307737Y-100461242D01*
X125369045Y-100313231D01*
X125375037Y-100283105D01*
X128091699Y-100283105D01*
X128122953Y-100440225D01*
X128122956Y-100440235D01*
X128184260Y-100588237D01*
X128184261Y-100588239D01*
X128273268Y-100721447D01*
X128273271Y-100721451D01*
X128386548Y-100834728D01*
X128386552Y-100834731D01*
X128519758Y-100923737D01*
X128519759Y-100923737D01*
X128519760Y-100923738D01*
X128519762Y-100923739D01*
X128667764Y-100985043D01*
X128667769Y-100985045D01*
X128667773Y-100985045D01*
X128667774Y-100985046D01*
X128824894Y-101016300D01*
X128824897Y-101016300D01*
X128985105Y-101016300D01*
X129090813Y-100995272D01*
X129142231Y-100985045D01*
X129290242Y-100923737D01*
X129423448Y-100834731D01*
X129536731Y-100721448D01*
X129625737Y-100588242D01*
X129687045Y-100440231D01*
X129699433Y-100377953D01*
X129718300Y-100283105D01*
X129718300Y-100122894D01*
X129687046Y-99965774D01*
X129687045Y-99965773D01*
X129687045Y-99965769D01*
X129658850Y-99897700D01*
X129625739Y-99817762D01*
X129625738Y-99817760D01*
X129536731Y-99684552D01*
X129536728Y-99684548D01*
X129423451Y-99571271D01*
X129423447Y-99571268D01*
X129290239Y-99482261D01*
X129290237Y-99482260D01*
X129142235Y-99420956D01*
X129142225Y-99420953D01*
X128985105Y-99389700D01*
X128985103Y-99389700D01*
X128824897Y-99389700D01*
X128824895Y-99389700D01*
X128667774Y-99420953D01*
X128667764Y-99420956D01*
X128519762Y-99482260D01*
X128519760Y-99482261D01*
X128386552Y-99571268D01*
X128386548Y-99571271D01*
X128273271Y-99684548D01*
X128273268Y-99684552D01*
X128184261Y-99817760D01*
X128184260Y-99817762D01*
X128122956Y-99965764D01*
X128122953Y-99965774D01*
X128091700Y-100122894D01*
X128091700Y-100122897D01*
X128091700Y-100283103D01*
X128091700Y-100283105D01*
X128091699Y-100283105D01*
X125375037Y-100283105D01*
X125400300Y-100156103D01*
X125400300Y-99995897D01*
X125400300Y-99995894D01*
X125369046Y-99838774D01*
X125369045Y-99838773D01*
X125369045Y-99838769D01*
X125330316Y-99745268D01*
X125307740Y-99690764D01*
X125307736Y-99690757D01*
X125303590Y-99684552D01*
X125283637Y-99654690D01*
X125262760Y-99588014D01*
X125281244Y-99520634D01*
X125299052Y-99498126D01*
X125345731Y-99451448D01*
X125434737Y-99318242D01*
X125496045Y-99170231D01*
X125517128Y-99064242D01*
X125527300Y-99013105D01*
X125527300Y-98852894D01*
X125496046Y-98695774D01*
X125496045Y-98695773D01*
X125496045Y-98695769D01*
X125493050Y-98688538D01*
X125489060Y-98678905D01*
X125932699Y-98678905D01*
X125963953Y-98836025D01*
X125963956Y-98836035D01*
X126025260Y-98984037D01*
X126025261Y-98984039D01*
X126114268Y-99117247D01*
X126114271Y-99117251D01*
X126227548Y-99230528D01*
X126227552Y-99230531D01*
X126360758Y-99319537D01*
X126360759Y-99319537D01*
X126360760Y-99319538D01*
X126360762Y-99319539D01*
X126502183Y-99378117D01*
X126508769Y-99380845D01*
X126508773Y-99380845D01*
X126508774Y-99380846D01*
X126665894Y-99412100D01*
X126665897Y-99412100D01*
X126826105Y-99412100D01*
X126947527Y-99387947D01*
X126983231Y-99380845D01*
X127131242Y-99319537D01*
X127264448Y-99230531D01*
X127377731Y-99117248D01*
X127466737Y-98984042D01*
X127528045Y-98836031D01*
X127543541Y-98758130D01*
X127559300Y-98678905D01*
X127559897Y-98672843D01*
X127561713Y-98673021D01*
X127578985Y-98614203D01*
X127631789Y-98568448D01*
X127700947Y-98558504D01*
X127764503Y-98587529D01*
X127770981Y-98593561D01*
X127776948Y-98599528D01*
X127776952Y-98599531D01*
X127910158Y-98688537D01*
X127910159Y-98688537D01*
X127910160Y-98688538D01*
X127910162Y-98688539D01*
X128038949Y-98741884D01*
X128058169Y-98749845D01*
X128058173Y-98749845D01*
X128058174Y-98749846D01*
X128215294Y-98781100D01*
X128215297Y-98781100D01*
X128375503Y-98781100D01*
X128410958Y-98774047D01*
X128480548Y-98780273D01*
X128521244Y-98809857D01*
X128522961Y-98808141D01*
X128640548Y-98925728D01*
X128640552Y-98925731D01*
X128773758Y-99014737D01*
X128773759Y-99014737D01*
X128773760Y-99014738D01*
X128773762Y-99014739D01*
X128893274Y-99064242D01*
X128921769Y-99076045D01*
X128921773Y-99076045D01*
X128921774Y-99076046D01*
X129078894Y-99107300D01*
X129078897Y-99107300D01*
X129239105Y-99107300D01*
X129344813Y-99086272D01*
X129396231Y-99076045D01*
X129544242Y-99014737D01*
X129677448Y-98925731D01*
X129790731Y-98812448D01*
X129826374Y-98759105D01*
X130758699Y-98759105D01*
X130789953Y-98916225D01*
X130789956Y-98916235D01*
X130851260Y-99064237D01*
X130851261Y-99064239D01*
X130940268Y-99197447D01*
X130940271Y-99197451D01*
X131053548Y-99310728D01*
X131053552Y-99310731D01*
X131186758Y-99399737D01*
X131186759Y-99399737D01*
X131186760Y-99399738D01*
X131186762Y-99399739D01*
X131334764Y-99461043D01*
X131334769Y-99461045D01*
X131334773Y-99461045D01*
X131334774Y-99461046D01*
X131491894Y-99492300D01*
X131491897Y-99492300D01*
X131652105Y-99492300D01*
X131757813Y-99471272D01*
X131809231Y-99461045D01*
X131957242Y-99399737D01*
X132071955Y-99323087D01*
X132138630Y-99302210D01*
X132188295Y-99311628D01*
X132302769Y-99359045D01*
X132302773Y-99359045D01*
X132302774Y-99359046D01*
X132459894Y-99390300D01*
X132459897Y-99390300D01*
X132620105Y-99390300D01*
X132725813Y-99369272D01*
X132777231Y-99359045D01*
X132925242Y-99297737D01*
X133058448Y-99208731D01*
X133171731Y-99095448D01*
X133260737Y-98962242D01*
X133322045Y-98814231D01*
X133347047Y-98688538D01*
X133353300Y-98657105D01*
X133353300Y-98496894D01*
X133322046Y-98339774D01*
X133322045Y-98339773D01*
X133322045Y-98339769D01*
X133306098Y-98301269D01*
X133260739Y-98191762D01*
X133260738Y-98191760D01*
X133239885Y-98160552D01*
X133171731Y-98058552D01*
X133171728Y-98058548D01*
X133058451Y-97945271D01*
X133058447Y-97945268D01*
X132925239Y-97856261D01*
X132925237Y-97856260D01*
X132777235Y-97794956D01*
X132777225Y-97794953D01*
X132620105Y-97763700D01*
X132620103Y-97763700D01*
X132459897Y-97763700D01*
X132459895Y-97763700D01*
X132302774Y-97794953D01*
X132302764Y-97794956D01*
X132154762Y-97856260D01*
X132154755Y-97856264D01*
X132040045Y-97932911D01*
X131973368Y-97953789D01*
X131923703Y-97944370D01*
X131809235Y-97896956D01*
X131809225Y-97896953D01*
X131652105Y-97865700D01*
X131652103Y-97865700D01*
X131491897Y-97865700D01*
X131491895Y-97865700D01*
X131334774Y-97896953D01*
X131334764Y-97896956D01*
X131186762Y-97958260D01*
X131186760Y-97958261D01*
X131053552Y-98047268D01*
X131053548Y-98047271D01*
X130940271Y-98160548D01*
X130940268Y-98160552D01*
X130851261Y-98293760D01*
X130851260Y-98293762D01*
X130789956Y-98441764D01*
X130789953Y-98441774D01*
X130758700Y-98598894D01*
X130758700Y-98598897D01*
X130758700Y-98759103D01*
X130758700Y-98759105D01*
X130758699Y-98759105D01*
X129826374Y-98759105D01*
X129879737Y-98679242D01*
X129941045Y-98531231D01*
X129941549Y-98528694D01*
X129944410Y-98521249D01*
X129963009Y-98496904D01*
X129979795Y-98471289D01*
X129984212Y-98469151D01*
X129986828Y-98465729D01*
X130004532Y-98459322D01*
X130026036Y-98448919D01*
X130025398Y-98446814D01*
X130031220Y-98445047D01*
X130031231Y-98445045D01*
X130179242Y-98383737D01*
X130312448Y-98294731D01*
X130425731Y-98181448D01*
X130514737Y-98048242D01*
X130576045Y-97900231D01*
X130590119Y-97829478D01*
X130607300Y-97743105D01*
X130607300Y-97582894D01*
X130576046Y-97425774D01*
X130576045Y-97425773D01*
X130576045Y-97425769D01*
X130576043Y-97425764D01*
X130514739Y-97277762D01*
X130514738Y-97277760D01*
X130454026Y-97186899D01*
X130425731Y-97144552D01*
X130425728Y-97144548D01*
X130312451Y-97031271D01*
X130312447Y-97031268D01*
X130179239Y-96942261D01*
X130179237Y-96942260D01*
X130031235Y-96880956D01*
X130031225Y-96880953D01*
X129874105Y-96849700D01*
X129874103Y-96849700D01*
X129713897Y-96849700D01*
X129713895Y-96849700D01*
X129556774Y-96880953D01*
X129556764Y-96880956D01*
X129408762Y-96942260D01*
X129408760Y-96942261D01*
X129275552Y-97031268D01*
X129275548Y-97031271D01*
X129162271Y-97144548D01*
X129162268Y-97144552D01*
X129073261Y-97277760D01*
X129051221Y-97330971D01*
X129007380Y-97385374D01*
X128941085Y-97407439D01*
X128873386Y-97390160D01*
X128848979Y-97371199D01*
X128813851Y-97336071D01*
X128813847Y-97336068D01*
X128680639Y-97247061D01*
X128680637Y-97247060D01*
X128532635Y-97185756D01*
X128532625Y-97185753D01*
X128375505Y-97154500D01*
X128375503Y-97154500D01*
X128215297Y-97154500D01*
X128215294Y-97154500D01*
X128052414Y-97186899D01*
X127982823Y-97180672D01*
X127927645Y-97137809D01*
X127911482Y-97105151D01*
X127911376Y-97105196D01*
X127910718Y-97103609D01*
X127909560Y-97101268D01*
X127909043Y-97099564D01*
X127847739Y-96951562D01*
X127847738Y-96951560D01*
X127811120Y-96896758D01*
X127758731Y-96818352D01*
X127758728Y-96818348D01*
X127645451Y-96705071D01*
X127645447Y-96705068D01*
X127512239Y-96616061D01*
X127512237Y-96616060D01*
X127364235Y-96554756D01*
X127364225Y-96554753D01*
X127207105Y-96523500D01*
X127207103Y-96523500D01*
X127046897Y-96523500D01*
X127046895Y-96523500D01*
X126889774Y-96554753D01*
X126889764Y-96554756D01*
X126741762Y-96616060D01*
X126741760Y-96616061D01*
X126608552Y-96705068D01*
X126608548Y-96705071D01*
X126495271Y-96818348D01*
X126495268Y-96818352D01*
X126406261Y-96951560D01*
X126406260Y-96951562D01*
X126344956Y-97099564D01*
X126344953Y-97099574D01*
X126313700Y-97256694D01*
X126313700Y-97256697D01*
X126313700Y-97416903D01*
X126313700Y-97416905D01*
X126313699Y-97416905D01*
X126344953Y-97574025D01*
X126344955Y-97574031D01*
X126408072Y-97726409D01*
X126415541Y-97795879D01*
X126384266Y-97858358D01*
X126362402Y-97876964D01*
X126227552Y-97967068D01*
X126227548Y-97967071D01*
X126114271Y-98080348D01*
X126114268Y-98080352D01*
X126025261Y-98213560D01*
X126025260Y-98213562D01*
X125963956Y-98361564D01*
X125963953Y-98361574D01*
X125932700Y-98518694D01*
X125932700Y-98518697D01*
X125932700Y-98678903D01*
X125932700Y-98678905D01*
X125932699Y-98678905D01*
X125489060Y-98678905D01*
X125439832Y-98560057D01*
X125434738Y-98547760D01*
X125434139Y-98546864D01*
X125345731Y-98414552D01*
X125345728Y-98414548D01*
X125232451Y-98301271D01*
X125232447Y-98301268D01*
X125099239Y-98212261D01*
X125099237Y-98212260D01*
X124951235Y-98150956D01*
X124951225Y-98150953D01*
X124794105Y-98119700D01*
X124794103Y-98119700D01*
X124633897Y-98119700D01*
X124633895Y-98119700D01*
X124476774Y-98150953D01*
X124476764Y-98150956D01*
X124328762Y-98212260D01*
X124328760Y-98212261D01*
X124195552Y-98301268D01*
X124195548Y-98301271D01*
X124082271Y-98414548D01*
X124082268Y-98414552D01*
X123993261Y-98547760D01*
X123993260Y-98547762D01*
X123931956Y-98695764D01*
X123931953Y-98695774D01*
X123900700Y-98852894D01*
X123900700Y-98852897D01*
X123900700Y-99013103D01*
X123900700Y-99013105D01*
X123900699Y-99013105D01*
X123931953Y-99170225D01*
X123931956Y-99170235D01*
X123993259Y-99318235D01*
X123993266Y-99318248D01*
X124017361Y-99354308D01*
X124038239Y-99420985D01*
X124019755Y-99488366D01*
X124001940Y-99510880D01*
X123955271Y-99557548D01*
X123955268Y-99557552D01*
X123866261Y-99690760D01*
X123866260Y-99690762D01*
X123804956Y-99838764D01*
X123804953Y-99838774D01*
X123773700Y-99995894D01*
X123773700Y-99995897D01*
X123773700Y-100156103D01*
X123773700Y-100156105D01*
X123773699Y-100156105D01*
X119594285Y-100156105D01*
X119517451Y-100079271D01*
X119517447Y-100079268D01*
X119384239Y-99990261D01*
X119384237Y-99990260D01*
X119236235Y-99928956D01*
X119236225Y-99928953D01*
X119079105Y-99897700D01*
X119079103Y-99897700D01*
X118918897Y-99897700D01*
X118918895Y-99897700D01*
X118761774Y-99928953D01*
X118761764Y-99928956D01*
X118613762Y-99990260D01*
X118613760Y-99990261D01*
X118480552Y-100079268D01*
X118480548Y-100079271D01*
X118367271Y-100192548D01*
X118367268Y-100192552D01*
X118278261Y-100325760D01*
X118278260Y-100325762D01*
X118216956Y-100473764D01*
X118216953Y-100473774D01*
X118185700Y-100630894D01*
X118185700Y-100630897D01*
X118185700Y-100791103D01*
X118185700Y-100791105D01*
X118185699Y-100791105D01*
X113141451Y-100791105D01*
X113160737Y-100762242D01*
X113222045Y-100614231D01*
X113225980Y-100594448D01*
X113253300Y-100457105D01*
X113253300Y-100296894D01*
X113222046Y-100139774D01*
X113222045Y-100139773D01*
X113222045Y-100139769D01*
X113222043Y-100139764D01*
X113160739Y-99991762D01*
X113160738Y-99991760D01*
X113159736Y-99990261D01*
X113071731Y-99858552D01*
X113071728Y-99858548D01*
X112958451Y-99745271D01*
X112958447Y-99745268D01*
X112825239Y-99656261D01*
X112825237Y-99656260D01*
X112677235Y-99594956D01*
X112677225Y-99594953D01*
X112520105Y-99563700D01*
X112520103Y-99563700D01*
X112359897Y-99563700D01*
X112359895Y-99563700D01*
X112202774Y-99594953D01*
X112202764Y-99594956D01*
X112054762Y-99656260D01*
X112054760Y-99656261D01*
X111921552Y-99745268D01*
X111921548Y-99745271D01*
X111808271Y-99858548D01*
X111808268Y-99858552D01*
X111719261Y-99991760D01*
X111719260Y-99991762D01*
X111657956Y-100139764D01*
X111657953Y-100139774D01*
X111626700Y-100296894D01*
X111626700Y-100296897D01*
X111626700Y-100457103D01*
X111626700Y-100457105D01*
X111626699Y-100457105D01*
X107320772Y-100457105D01*
X107315831Y-100450697D01*
X107315827Y-100450661D01*
X107315805Y-100450632D01*
X107312792Y-100415325D01*
X107309852Y-100381084D01*
X107309869Y-100381051D01*
X107309866Y-100381016D01*
X107325915Y-100350639D01*
X107342458Y-100319289D01*
X107342496Y-100319259D01*
X107342507Y-100319239D01*
X107342871Y-100318970D01*
X107370469Y-100297703D01*
X107372745Y-100296419D01*
X107519009Y-100221894D01*
X107692004Y-100096206D01*
X107843206Y-99945004D01*
X107968894Y-99772009D01*
X108065972Y-99581483D01*
X108132049Y-99378116D01*
X108165500Y-99166916D01*
X108165500Y-98953084D01*
X108164949Y-98949605D01*
X114820199Y-98949605D01*
X114851453Y-99106725D01*
X114851456Y-99106735D01*
X114912760Y-99254737D01*
X114912761Y-99254739D01*
X115001768Y-99387947D01*
X115001771Y-99387951D01*
X115115048Y-99501228D01*
X115115052Y-99501231D01*
X115248258Y-99590237D01*
X115248259Y-99590237D01*
X115248260Y-99590238D01*
X115248262Y-99590239D01*
X115396264Y-99651543D01*
X115396269Y-99651545D01*
X115396273Y-99651545D01*
X115396274Y-99651546D01*
X115553394Y-99682800D01*
X115553397Y-99682800D01*
X115713605Y-99682800D01*
X115847027Y-99656260D01*
X115870731Y-99651545D01*
X116018742Y-99590237D01*
X116151948Y-99501231D01*
X116265231Y-99387948D01*
X116354237Y-99254742D01*
X116415545Y-99106731D01*
X116446800Y-98949603D01*
X116446800Y-98789397D01*
X116446800Y-98789394D01*
X116415546Y-98632274D01*
X116415545Y-98632273D01*
X116415545Y-98632269D01*
X116380541Y-98547762D01*
X116354239Y-98484262D01*
X116354238Y-98484260D01*
X116344142Y-98469151D01*
X116265231Y-98351052D01*
X116265228Y-98351048D01*
X116151951Y-98237771D01*
X116151947Y-98237768D01*
X116018739Y-98148761D01*
X116018737Y-98148760D01*
X115870735Y-98087456D01*
X115870725Y-98087453D01*
X115713605Y-98056200D01*
X115713603Y-98056200D01*
X115553397Y-98056200D01*
X115553395Y-98056200D01*
X115396274Y-98087453D01*
X115396264Y-98087456D01*
X115248262Y-98148760D01*
X115248260Y-98148761D01*
X115115052Y-98237768D01*
X115115048Y-98237771D01*
X115001771Y-98351048D01*
X115001768Y-98351052D01*
X114912761Y-98484260D01*
X114912760Y-98484262D01*
X114851456Y-98632264D01*
X114851453Y-98632274D01*
X114820200Y-98789394D01*
X114820200Y-98789397D01*
X114820200Y-98949603D01*
X114820200Y-98949605D01*
X114820199Y-98949605D01*
X108164949Y-98949605D01*
X108132049Y-98741884D01*
X108090564Y-98614203D01*
X108065973Y-98538519D01*
X108065972Y-98538516D01*
X108016507Y-98441438D01*
X107968894Y-98347991D01*
X107843206Y-98174996D01*
X107692004Y-98023794D01*
X107519009Y-97898106D01*
X107375086Y-97824773D01*
X107324291Y-97776799D01*
X107307496Y-97708978D01*
X107330033Y-97642843D01*
X107358497Y-97613971D01*
X107438004Y-97556206D01*
X107589206Y-97405004D01*
X107620374Y-97362105D01*
X117169699Y-97362105D01*
X117200953Y-97519225D01*
X117200956Y-97519235D01*
X117262260Y-97667237D01*
X117262261Y-97667239D01*
X117351268Y-97800447D01*
X117351271Y-97800451D01*
X117464548Y-97913728D01*
X117464552Y-97913731D01*
X117597758Y-98002737D01*
X117597759Y-98002737D01*
X117597760Y-98002738D01*
X117597762Y-98002739D01*
X117745764Y-98064043D01*
X117745769Y-98064045D01*
X117745773Y-98064045D01*
X117745774Y-98064046D01*
X117902894Y-98095300D01*
X117902897Y-98095300D01*
X118063105Y-98095300D01*
X118168813Y-98074272D01*
X118220231Y-98064045D01*
X118368242Y-98002737D01*
X118501448Y-97913731D01*
X118614731Y-97800448D01*
X118703737Y-97667242D01*
X118765045Y-97519231D01*
X118785399Y-97416905D01*
X118796300Y-97362105D01*
X118796300Y-97308853D01*
X118815985Y-97241814D01*
X118868789Y-97196059D01*
X118937947Y-97186115D01*
X118944493Y-97187236D01*
X118959896Y-97190300D01*
X118959897Y-97190300D01*
X119120105Y-97190300D01*
X119225813Y-97169272D01*
X119277231Y-97159045D01*
X119425242Y-97097737D01*
X119558448Y-97008731D01*
X119671731Y-96895448D01*
X119760737Y-96762242D01*
X119822045Y-96614231D01*
X119837821Y-96534920D01*
X119853300Y-96457105D01*
X119853300Y-96296894D01*
X119822046Y-96139774D01*
X119822045Y-96139773D01*
X119822045Y-96139769D01*
X119802302Y-96092105D01*
X123392699Y-96092105D01*
X123423953Y-96249225D01*
X123423956Y-96249235D01*
X123485260Y-96397237D01*
X123485261Y-96397239D01*
X123574268Y-96530447D01*
X123574271Y-96530451D01*
X123687548Y-96643728D01*
X123687552Y-96643731D01*
X123820758Y-96732737D01*
X123820759Y-96732737D01*
X123820760Y-96732738D01*
X123820762Y-96732739D01*
X123968764Y-96794043D01*
X123968769Y-96794045D01*
X123968773Y-96794045D01*
X123968774Y-96794046D01*
X124125894Y-96825300D01*
X124125897Y-96825300D01*
X124286105Y-96825300D01*
X124391813Y-96804272D01*
X124443231Y-96794045D01*
X124591242Y-96732737D01*
X124724448Y-96643731D01*
X124837731Y-96530448D01*
X124926737Y-96397242D01*
X124988045Y-96249231D01*
X125019300Y-96092103D01*
X125019300Y-95931897D01*
X125019300Y-95931894D01*
X124988046Y-95774774D01*
X124988045Y-95774773D01*
X124988045Y-95774769D01*
X124971190Y-95734078D01*
X124926739Y-95626762D01*
X124926738Y-95626760D01*
X124837731Y-95493552D01*
X124837728Y-95493548D01*
X124724451Y-95380271D01*
X124724447Y-95380268D01*
X124591239Y-95291261D01*
X124591237Y-95291260D01*
X124443235Y-95229956D01*
X124443225Y-95229953D01*
X124286105Y-95198700D01*
X124286103Y-95198700D01*
X124125897Y-95198700D01*
X124125895Y-95198700D01*
X123968774Y-95229953D01*
X123968764Y-95229956D01*
X123820762Y-95291260D01*
X123820760Y-95291261D01*
X123687552Y-95380268D01*
X123687548Y-95380271D01*
X123574271Y-95493548D01*
X123574268Y-95493552D01*
X123485261Y-95626760D01*
X123485260Y-95626762D01*
X123423956Y-95774764D01*
X123423953Y-95774774D01*
X123392700Y-95931894D01*
X123392700Y-95931897D01*
X123392700Y-96092103D01*
X123392700Y-96092105D01*
X123392699Y-96092105D01*
X119802302Y-96092105D01*
X119792969Y-96069573D01*
X119760739Y-95991762D01*
X119760737Y-95991759D01*
X119760737Y-95991758D01*
X119671731Y-95858552D01*
X119671728Y-95858548D01*
X119558451Y-95745271D01*
X119558447Y-95745268D01*
X119425239Y-95656261D01*
X119425237Y-95656260D01*
X119277235Y-95594956D01*
X119277225Y-95594953D01*
X119120105Y-95563700D01*
X119120103Y-95563700D01*
X118959897Y-95563700D01*
X118959895Y-95563700D01*
X118802774Y-95594953D01*
X118802764Y-95594956D01*
X118654762Y-95656260D01*
X118553275Y-95724071D01*
X118486597Y-95744948D01*
X118436933Y-95735529D01*
X118285420Y-95672771D01*
X118285410Y-95672768D01*
X118128290Y-95641515D01*
X118128288Y-95641515D01*
X117968082Y-95641515D01*
X117968080Y-95641515D01*
X117810959Y-95672768D01*
X117810949Y-95672771D01*
X117662947Y-95734075D01*
X117662945Y-95734076D01*
X117529737Y-95823083D01*
X117529733Y-95823086D01*
X117416456Y-95936363D01*
X117416453Y-95936367D01*
X117327446Y-96069575D01*
X117327445Y-96069577D01*
X117266141Y-96217579D01*
X117266138Y-96217589D01*
X117234885Y-96374709D01*
X117234885Y-96374712D01*
X117234885Y-96534918D01*
X117234885Y-96534920D01*
X117234884Y-96534920D01*
X117266138Y-96692040D01*
X117266140Y-96692046D01*
X117282995Y-96732739D01*
X117291637Y-96753601D01*
X117299106Y-96823071D01*
X117280180Y-96869943D01*
X117262260Y-96896762D01*
X117200956Y-97044764D01*
X117200953Y-97044774D01*
X117169700Y-97201894D01*
X117169700Y-97201897D01*
X117169700Y-97362103D01*
X117169700Y-97362105D01*
X117169699Y-97362105D01*
X107620374Y-97362105D01*
X107714894Y-97232009D01*
X107762892Y-97137809D01*
X107774433Y-97115155D01*
X107811972Y-97041483D01*
X107878049Y-96838116D01*
X107911500Y-96626916D01*
X107911500Y-96413084D01*
X107878049Y-96201884D01*
X107842380Y-96092103D01*
X107811973Y-95998519D01*
X107811972Y-95998516D01*
X107722584Y-95823084D01*
X107714894Y-95807991D01*
X107589206Y-95634996D01*
X107438004Y-95483794D01*
X107358496Y-95426028D01*
X107315831Y-95370697D01*
X107309852Y-95301084D01*
X107342458Y-95239289D01*
X107375085Y-95215226D01*
X107519009Y-95141894D01*
X107692004Y-95016206D01*
X107843206Y-94865004D01*
X107968894Y-94692009D01*
X107973023Y-94683905D01*
X130199899Y-94683905D01*
X130231153Y-94841025D01*
X130231156Y-94841035D01*
X130292460Y-94989037D01*
X130292461Y-94989039D01*
X130381468Y-95122247D01*
X130381471Y-95122251D01*
X130494748Y-95235528D01*
X130494752Y-95235531D01*
X130627958Y-95324537D01*
X130627959Y-95324537D01*
X130627960Y-95324538D01*
X130627962Y-95324539D01*
X130739398Y-95370697D01*
X130775969Y-95385845D01*
X130775973Y-95385845D01*
X130775974Y-95385846D01*
X130933094Y-95417100D01*
X130933097Y-95417100D01*
X131093305Y-95417100D01*
X131199013Y-95396072D01*
X131250431Y-95385845D01*
X131398442Y-95324537D01*
X131531648Y-95235531D01*
X131644931Y-95122248D01*
X131733937Y-94989042D01*
X131795245Y-94841031D01*
X131826500Y-94683903D01*
X131826500Y-94523697D01*
X131826500Y-94523694D01*
X131795246Y-94366574D01*
X131795245Y-94366573D01*
X131795245Y-94366569D01*
X131795243Y-94366564D01*
X131733939Y-94218562D01*
X131733938Y-94218560D01*
X131644931Y-94085352D01*
X131644928Y-94085348D01*
X131531651Y-93972071D01*
X131531647Y-93972068D01*
X131398439Y-93883061D01*
X131398437Y-93883060D01*
X131250435Y-93821756D01*
X131250425Y-93821753D01*
X131093305Y-93790500D01*
X131093303Y-93790500D01*
X130933097Y-93790500D01*
X130933095Y-93790500D01*
X130775974Y-93821753D01*
X130775964Y-93821756D01*
X130627962Y-93883060D01*
X130627960Y-93883061D01*
X130494752Y-93972068D01*
X130494748Y-93972071D01*
X130381471Y-94085348D01*
X130381468Y-94085352D01*
X130292461Y-94218560D01*
X130292460Y-94218562D01*
X130231156Y-94366564D01*
X130231153Y-94366574D01*
X130199900Y-94523694D01*
X130199900Y-94523697D01*
X130199900Y-94683903D01*
X130199900Y-94683905D01*
X130199899Y-94683905D01*
X107973023Y-94683905D01*
X108065972Y-94501483D01*
X108065974Y-94501477D01*
X108073184Y-94479288D01*
X108073184Y-94479287D01*
X108109806Y-94366574D01*
X108132049Y-94298116D01*
X108165500Y-94086916D01*
X108165500Y-93873084D01*
X108132049Y-93661884D01*
X108065972Y-93458517D01*
X108065972Y-93458516D01*
X107968893Y-93267990D01*
X107843206Y-93094996D01*
X107692004Y-92943794D01*
X107604778Y-92880421D01*
X107519007Y-92818104D01*
X107366586Y-92740441D01*
X107315791Y-92692467D01*
X107298996Y-92624646D01*
X107321534Y-92558511D01*
X107349998Y-92529638D01*
X107432462Y-92469725D01*
X107582723Y-92319464D01*
X107582727Y-92319459D01*
X107707620Y-92147557D01*
X107804095Y-91958217D01*
X107869757Y-91756129D01*
X107869757Y-91756126D01*
X107880231Y-91690000D01*
X106986012Y-91690000D01*
X107018925Y-91632993D01*
X107053000Y-91505826D01*
X107053000Y-91374174D01*
X107018925Y-91247007D01*
X106986012Y-91190000D01*
X107880231Y-91190000D01*
X107869757Y-91123873D01*
X107869757Y-91123870D01*
X107804095Y-90921782D01*
X107771140Y-90857105D01*
X140626699Y-90857105D01*
X140657953Y-91014225D01*
X140657956Y-91014235D01*
X140719260Y-91162237D01*
X140719261Y-91162239D01*
X140808268Y-91295447D01*
X140808271Y-91295451D01*
X140921548Y-91408728D01*
X140921552Y-91408731D01*
X141054758Y-91497737D01*
X141054759Y-91497737D01*
X141054760Y-91497738D01*
X141054762Y-91497739D01*
X141173487Y-91546916D01*
X141202769Y-91559045D01*
X141202773Y-91559045D01*
X141202774Y-91559046D01*
X141359894Y-91590300D01*
X141359897Y-91590300D01*
X141520105Y-91590300D01*
X141625813Y-91569272D01*
X141677231Y-91559045D01*
X141825242Y-91497737D01*
X141958448Y-91408731D01*
X142071731Y-91295448D01*
X142160737Y-91162242D01*
X142222045Y-91014231D01*
X142236811Y-90940000D01*
X142253300Y-90857105D01*
X142253300Y-90696894D01*
X142245385Y-90657105D01*
X145126699Y-90657105D01*
X145157953Y-90814225D01*
X145157956Y-90814235D01*
X145219260Y-90962237D01*
X145219261Y-90962239D01*
X145308268Y-91095447D01*
X145308271Y-91095451D01*
X145421548Y-91208728D01*
X145421552Y-91208731D01*
X145554758Y-91297737D01*
X145554759Y-91297737D01*
X145554760Y-91297738D01*
X145554762Y-91297739D01*
X145640093Y-91333084D01*
X145702769Y-91359045D01*
X145702773Y-91359045D01*
X145702774Y-91359046D01*
X145859894Y-91390300D01*
X145859897Y-91390300D01*
X146020105Y-91390300D01*
X146125813Y-91369272D01*
X146177231Y-91359045D01*
X146325242Y-91297737D01*
X146458448Y-91208731D01*
X146571731Y-91095448D01*
X146660737Y-90962242D01*
X146722045Y-90814231D01*
X146739200Y-90727990D01*
X146753300Y-90657105D01*
X146753300Y-90496894D01*
X146722046Y-90339774D01*
X146722045Y-90339773D01*
X146722045Y-90339769D01*
X146699515Y-90285377D01*
X146660739Y-90191762D01*
X146660738Y-90191760D01*
X146657100Y-90186316D01*
X146571731Y-90058552D01*
X146571728Y-90058548D01*
X146458451Y-89945271D01*
X146458447Y-89945268D01*
X146325239Y-89856261D01*
X146325237Y-89856260D01*
X146177235Y-89794956D01*
X146177225Y-89794953D01*
X146020105Y-89763700D01*
X146020103Y-89763700D01*
X145859897Y-89763700D01*
X145859895Y-89763700D01*
X145702774Y-89794953D01*
X145702764Y-89794956D01*
X145554762Y-89856260D01*
X145554760Y-89856261D01*
X145421552Y-89945268D01*
X145421548Y-89945271D01*
X145308271Y-90058548D01*
X145308268Y-90058552D01*
X145219261Y-90191760D01*
X145219260Y-90191762D01*
X145157956Y-90339764D01*
X145157953Y-90339774D01*
X145126700Y-90496894D01*
X145126700Y-90496897D01*
X145126700Y-90657103D01*
X145126700Y-90657105D01*
X145126699Y-90657105D01*
X142245385Y-90657105D01*
X142222046Y-90539774D01*
X142222045Y-90539773D01*
X142222045Y-90539769D01*
X142204286Y-90496894D01*
X142160739Y-90391762D01*
X142160738Y-90391760D01*
X142133075Y-90350360D01*
X142071731Y-90258552D01*
X142071728Y-90258548D01*
X141958451Y-90145271D01*
X141958447Y-90145268D01*
X141825239Y-90056261D01*
X141825237Y-90056260D01*
X141677235Y-89994956D01*
X141677225Y-89994953D01*
X141520105Y-89963700D01*
X141520103Y-89963700D01*
X141359897Y-89963700D01*
X141359895Y-89963700D01*
X141202774Y-89994953D01*
X141202764Y-89994956D01*
X141054762Y-90056260D01*
X141054760Y-90056261D01*
X140921552Y-90145268D01*
X140921548Y-90145271D01*
X140808271Y-90258548D01*
X140808268Y-90258552D01*
X140719261Y-90391760D01*
X140719260Y-90391762D01*
X140657956Y-90539764D01*
X140657953Y-90539774D01*
X140626700Y-90696894D01*
X140626700Y-90696897D01*
X140626700Y-90857103D01*
X140626700Y-90857105D01*
X140626699Y-90857105D01*
X107771140Y-90857105D01*
X107715090Y-90747100D01*
X107715089Y-90747096D01*
X107707625Y-90732448D01*
X107707623Y-90732446D01*
X107582727Y-90560540D01*
X107582723Y-90560535D01*
X107432464Y-90410276D01*
X107432459Y-90410272D01*
X107349997Y-90350360D01*
X107307331Y-90295030D01*
X107301352Y-90225417D01*
X107333957Y-90163622D01*
X107366587Y-90139557D01*
X107375089Y-90135225D01*
X107519009Y-90061894D01*
X107692004Y-89936206D01*
X107843206Y-89785004D01*
X107968894Y-89612009D01*
X107996869Y-89557105D01*
X133326699Y-89557105D01*
X133357953Y-89714225D01*
X133357956Y-89714235D01*
X133419260Y-89862237D01*
X133419261Y-89862239D01*
X133508268Y-89995447D01*
X133508271Y-89995451D01*
X133621548Y-90108728D01*
X133621552Y-90108731D01*
X133754758Y-90197737D01*
X133754759Y-90197737D01*
X133754760Y-90197738D01*
X133754762Y-90197739D01*
X133901453Y-90258500D01*
X133902769Y-90259045D01*
X133902773Y-90259045D01*
X133902774Y-90259046D01*
X134059894Y-90290300D01*
X134059897Y-90290300D01*
X134220105Y-90290300D01*
X134325813Y-90269272D01*
X134377231Y-90259045D01*
X134525242Y-90197737D01*
X134658448Y-90108731D01*
X134771731Y-89995448D01*
X134860737Y-89862242D01*
X134922045Y-89714231D01*
X134932272Y-89662813D01*
X134953300Y-89557105D01*
X134953300Y-89396898D01*
X134953163Y-89395508D01*
X134953300Y-89394785D01*
X134953300Y-89390805D01*
X134954055Y-89390805D01*
X134966182Y-89326862D01*
X135007678Y-89280249D01*
X135011448Y-89277731D01*
X135124731Y-89164448D01*
X135213737Y-89031242D01*
X135275045Y-88883231D01*
X135292199Y-88796993D01*
X135306300Y-88726105D01*
X135306300Y-88565894D01*
X135304552Y-88557105D01*
X136026699Y-88557105D01*
X136057953Y-88714225D01*
X136057956Y-88714235D01*
X136119260Y-88862237D01*
X136119261Y-88862239D01*
X136208268Y-88995447D01*
X136208271Y-88995451D01*
X136321548Y-89108728D01*
X136321552Y-89108731D01*
X136454758Y-89197737D01*
X136454759Y-89197737D01*
X136454760Y-89197738D01*
X136454762Y-89197739D01*
X136566816Y-89244153D01*
X136602769Y-89259045D01*
X136602773Y-89259045D01*
X136602774Y-89259046D01*
X136759894Y-89290300D01*
X136759897Y-89290300D01*
X136920105Y-89290300D01*
X137025813Y-89269272D01*
X137077231Y-89259045D01*
X137223441Y-89198482D01*
X137292908Y-89191014D01*
X137355388Y-89222289D01*
X137373994Y-89244153D01*
X137408268Y-89295447D01*
X137408271Y-89295451D01*
X137521548Y-89408728D01*
X137521552Y-89408731D01*
X137654758Y-89497737D01*
X137654759Y-89497737D01*
X137654760Y-89497738D01*
X137654762Y-89497739D01*
X137798085Y-89557105D01*
X137802769Y-89559045D01*
X137802773Y-89559045D01*
X137802774Y-89559046D01*
X137959894Y-89590300D01*
X137959897Y-89590300D01*
X138120105Y-89590300D01*
X138225813Y-89569272D01*
X138277231Y-89559045D01*
X138425242Y-89497737D01*
X138558448Y-89408731D01*
X138671731Y-89295448D01*
X138760737Y-89162242D01*
X138822045Y-89014231D01*
X138850885Y-88869245D01*
X138853300Y-88857105D01*
X138853300Y-88696894D01*
X138822046Y-88539774D01*
X138822045Y-88539773D01*
X138822045Y-88539769D01*
X138821806Y-88539192D01*
X138760739Y-88391762D01*
X138760738Y-88391760D01*
X138751889Y-88378517D01*
X138671731Y-88258552D01*
X138671728Y-88258548D01*
X138603460Y-88190280D01*
X138569975Y-88128957D01*
X138574959Y-88059265D01*
X138616831Y-88003332D01*
X138666950Y-87980982D01*
X138719400Y-87970548D01*
X138777231Y-87959045D01*
X138925242Y-87897737D01*
X139058448Y-87808731D01*
X139171731Y-87695448D01*
X139260737Y-87562242D01*
X139262865Y-87557105D01*
X145226699Y-87557105D01*
X145257953Y-87714225D01*
X145257956Y-87714235D01*
X145319260Y-87862237D01*
X145319261Y-87862239D01*
X145408268Y-87995447D01*
X145408271Y-87995451D01*
X145521548Y-88108728D01*
X145521552Y-88108731D01*
X145654758Y-88197737D01*
X145654759Y-88197737D01*
X145654760Y-88197738D01*
X145654762Y-88197739D01*
X145801569Y-88258548D01*
X145802769Y-88259045D01*
X145802773Y-88259045D01*
X145802774Y-88259046D01*
X145959894Y-88290300D01*
X145959897Y-88290300D01*
X146120105Y-88290300D01*
X146225813Y-88269272D01*
X146277231Y-88259045D01*
X146425242Y-88197737D01*
X146558448Y-88108731D01*
X146671731Y-87995448D01*
X146760737Y-87862242D01*
X146822045Y-87714231D01*
X146837764Y-87635208D01*
X146853300Y-87557105D01*
X146853300Y-87396894D01*
X146822046Y-87239774D01*
X146822045Y-87239773D01*
X146822045Y-87239769D01*
X146806157Y-87201411D01*
X146760739Y-87091762D01*
X146760738Y-87091760D01*
X146759762Y-87090300D01*
X146671731Y-86958552D01*
X146671728Y-86958548D01*
X146558451Y-86845271D01*
X146558447Y-86845268D01*
X146425239Y-86756261D01*
X146425237Y-86756260D01*
X146277235Y-86694956D01*
X146277225Y-86694953D01*
X146120105Y-86663700D01*
X146120103Y-86663700D01*
X145959897Y-86663700D01*
X145959895Y-86663700D01*
X145802774Y-86694953D01*
X145802764Y-86694956D01*
X145654762Y-86756260D01*
X145654760Y-86756261D01*
X145521552Y-86845268D01*
X145521548Y-86845271D01*
X145408271Y-86958548D01*
X145408268Y-86958552D01*
X145319261Y-87091760D01*
X145319260Y-87091762D01*
X145257956Y-87239764D01*
X145257953Y-87239774D01*
X145226700Y-87396894D01*
X145226700Y-87396897D01*
X145226700Y-87557103D01*
X145226700Y-87557105D01*
X145226699Y-87557105D01*
X139262865Y-87557105D01*
X139322045Y-87414231D01*
X139349959Y-87273900D01*
X139353300Y-87257105D01*
X139353300Y-87096894D01*
X139322046Y-86939774D01*
X139322045Y-86939773D01*
X139322045Y-86939769D01*
X139309189Y-86908731D01*
X139260739Y-86791762D01*
X139260738Y-86791760D01*
X139254392Y-86782263D01*
X139171731Y-86658552D01*
X139171728Y-86658548D01*
X139058451Y-86545271D01*
X139058447Y-86545268D01*
X138925239Y-86456261D01*
X138925237Y-86456260D01*
X138777235Y-86394956D01*
X138777225Y-86394953D01*
X138620105Y-86363700D01*
X138620103Y-86363700D01*
X138459897Y-86363700D01*
X138459895Y-86363700D01*
X138302774Y-86394953D01*
X138302764Y-86394956D01*
X138154762Y-86456260D01*
X138154760Y-86456261D01*
X138021552Y-86545268D01*
X138021548Y-86545271D01*
X137908271Y-86658548D01*
X137908268Y-86658552D01*
X137819261Y-86791760D01*
X137819260Y-86791762D01*
X137757956Y-86939764D01*
X137757953Y-86939774D01*
X137726700Y-87096894D01*
X137726700Y-87096897D01*
X137726700Y-87257103D01*
X137726700Y-87257105D01*
X137726699Y-87257105D01*
X137757953Y-87414225D01*
X137757956Y-87414235D01*
X137819260Y-87562237D01*
X137819261Y-87562239D01*
X137908268Y-87695447D01*
X137908271Y-87695451D01*
X137976539Y-87763719D01*
X138010024Y-87825042D01*
X138005040Y-87894734D01*
X137963168Y-87950667D01*
X137913051Y-87973017D01*
X137802773Y-87994953D01*
X137802764Y-87994956D01*
X137656559Y-88055516D01*
X137587090Y-88062985D01*
X137524611Y-88031709D01*
X137506005Y-88009846D01*
X137471731Y-87958552D01*
X137471728Y-87958548D01*
X137358451Y-87845271D01*
X137358447Y-87845268D01*
X137225239Y-87756261D01*
X137225237Y-87756260D01*
X137077235Y-87694956D01*
X137077225Y-87694953D01*
X136920105Y-87663700D01*
X136920103Y-87663700D01*
X136759897Y-87663700D01*
X136759895Y-87663700D01*
X136602774Y-87694953D01*
X136602764Y-87694956D01*
X136454762Y-87756260D01*
X136454760Y-87756261D01*
X136321552Y-87845268D01*
X136321548Y-87845271D01*
X136208271Y-87958548D01*
X136208268Y-87958552D01*
X136119261Y-88091760D01*
X136119260Y-88091762D01*
X136057956Y-88239764D01*
X136057953Y-88239774D01*
X136026700Y-88396894D01*
X136026700Y-88396897D01*
X136026700Y-88557103D01*
X136026700Y-88557105D01*
X136026699Y-88557105D01*
X135304552Y-88557105D01*
X135276284Y-88414997D01*
X135276283Y-88414995D01*
X135275045Y-88408769D01*
X135272856Y-88403484D01*
X135213739Y-88260762D01*
X135213738Y-88260760D01*
X135199712Y-88239769D01*
X135124731Y-88127552D01*
X135124728Y-88127548D01*
X135011451Y-88014271D01*
X135011447Y-88014268D01*
X134878239Y-87925261D01*
X134878237Y-87925260D01*
X134730235Y-87863956D01*
X134730225Y-87863953D01*
X134573105Y-87832700D01*
X134573103Y-87832700D01*
X134412897Y-87832700D01*
X134412895Y-87832700D01*
X134255774Y-87863953D01*
X134255764Y-87863956D01*
X134107762Y-87925260D01*
X134107760Y-87925261D01*
X133974552Y-88014268D01*
X133974548Y-88014271D01*
X133861271Y-88127548D01*
X133861268Y-88127552D01*
X133772261Y-88260760D01*
X133772260Y-88260762D01*
X133710956Y-88408764D01*
X133710953Y-88408774D01*
X133679700Y-88565894D01*
X133679700Y-88726113D01*
X133679837Y-88727506D01*
X133679700Y-88728227D01*
X133679700Y-88732195D01*
X133678947Y-88732195D01*
X133666811Y-88796151D01*
X133625334Y-88842741D01*
X133621556Y-88845265D01*
X133621545Y-88845275D01*
X133508271Y-88958548D01*
X133508268Y-88958552D01*
X133419261Y-89091760D01*
X133419260Y-89091762D01*
X133357956Y-89239764D01*
X133357953Y-89239774D01*
X133326700Y-89396894D01*
X133326700Y-89396897D01*
X133326700Y-89557103D01*
X133326700Y-89557105D01*
X133326699Y-89557105D01*
X107996869Y-89557105D01*
X108065972Y-89421483D01*
X108073960Y-89396898D01*
X108088390Y-89352488D01*
X108088390Y-89352487D01*
X108106922Y-89295451D01*
X108132049Y-89218116D01*
X108165500Y-89006916D01*
X108165500Y-88793084D01*
X108132049Y-88581884D01*
X108075803Y-88408774D01*
X108065973Y-88378519D01*
X108065972Y-88378516D01*
X107995276Y-88239769D01*
X107968894Y-88187991D01*
X107843206Y-88014996D01*
X107692004Y-87863794D01*
X107519009Y-87738106D01*
X107375086Y-87664773D01*
X107324291Y-87616799D01*
X107307496Y-87548978D01*
X107330033Y-87482843D01*
X107358497Y-87453971D01*
X107438004Y-87396206D01*
X107589206Y-87245004D01*
X107714894Y-87072009D01*
X107811972Y-86881483D01*
X107878049Y-86678116D01*
X107911500Y-86466916D01*
X107911500Y-86253084D01*
X107892846Y-86135305D01*
X124129299Y-86135305D01*
X124160553Y-86292425D01*
X124160556Y-86292435D01*
X124221860Y-86440437D01*
X124221861Y-86440439D01*
X124310868Y-86573647D01*
X124310871Y-86573651D01*
X124424148Y-86686928D01*
X124424152Y-86686931D01*
X124557358Y-86775937D01*
X124557359Y-86775937D01*
X124557360Y-86775938D01*
X124557362Y-86775939D01*
X124705364Y-86837243D01*
X124705369Y-86837245D01*
X124705373Y-86837245D01*
X124705374Y-86837246D01*
X124862494Y-86868500D01*
X124862497Y-86868500D01*
X125022705Y-86868500D01*
X125139497Y-86845268D01*
X125179831Y-86837245D01*
X125327842Y-86775937D01*
X125461048Y-86686931D01*
X125574331Y-86573648D01*
X125574333Y-86573644D01*
X125578195Y-86568940D01*
X125579226Y-86569786D01*
X125627583Y-86529358D01*
X125696906Y-86520638D01*
X125759939Y-86550781D01*
X125791655Y-86595592D01*
X125819261Y-86662239D01*
X125908268Y-86795447D01*
X125908271Y-86795451D01*
X126021548Y-86908728D01*
X126021552Y-86908731D01*
X126154758Y-86997737D01*
X126154759Y-86997737D01*
X126154760Y-86997738D01*
X126154762Y-86997739D01*
X126273202Y-87046798D01*
X126302769Y-87059045D01*
X126302773Y-87059045D01*
X126302774Y-87059046D01*
X126459894Y-87090300D01*
X126459897Y-87090300D01*
X126620105Y-87090300D01*
X126728708Y-87068697D01*
X126777231Y-87059045D01*
X126925242Y-86997737D01*
X127058448Y-86908731D01*
X127171731Y-86795448D01*
X127260737Y-86662242D01*
X127322045Y-86514231D01*
X127336790Y-86440103D01*
X127338847Y-86429764D01*
X127371232Y-86367853D01*
X127431947Y-86333279D01*
X127501717Y-86337018D01*
X127558389Y-86377885D01*
X127580934Y-86434441D01*
X127582511Y-86434128D01*
X127614953Y-86597225D01*
X127614956Y-86597235D01*
X127676260Y-86745237D01*
X127676261Y-86745239D01*
X127765268Y-86878447D01*
X127765271Y-86878451D01*
X127878548Y-86991728D01*
X127878552Y-86991731D01*
X128011758Y-87080737D01*
X128011759Y-87080737D01*
X128011760Y-87080738D01*
X128011762Y-87080739D01*
X128101144Y-87117762D01*
X128159769Y-87142045D01*
X128159773Y-87142045D01*
X128159774Y-87142046D01*
X128316894Y-87173300D01*
X128349274Y-87173300D01*
X128416313Y-87192985D01*
X128462068Y-87245789D01*
X128472012Y-87314947D01*
X128442987Y-87378503D01*
X128418165Y-87400402D01*
X128335752Y-87455468D01*
X128335748Y-87455471D01*
X128222471Y-87568748D01*
X128222468Y-87568752D01*
X128133461Y-87701960D01*
X128133460Y-87701962D01*
X128072156Y-87849964D01*
X128072153Y-87849974D01*
X128040900Y-88007094D01*
X128040900Y-88007097D01*
X128040900Y-88167303D01*
X128040900Y-88167305D01*
X128040899Y-88167305D01*
X128072153Y-88324425D01*
X128072156Y-88324435D01*
X128133460Y-88472437D01*
X128133461Y-88472439D01*
X128222468Y-88605647D01*
X128222471Y-88605651D01*
X128335748Y-88718928D01*
X128335752Y-88718931D01*
X128468958Y-88807937D01*
X128468959Y-88807937D01*
X128468960Y-88807938D01*
X128468962Y-88807939D01*
X128587660Y-88857105D01*
X128616969Y-88869245D01*
X128616973Y-88869245D01*
X128616974Y-88869246D01*
X128774094Y-88900500D01*
X128774097Y-88900500D01*
X128934305Y-88900500D01*
X129040013Y-88879472D01*
X129091431Y-88869245D01*
X129239442Y-88807937D01*
X129372648Y-88718931D01*
X129485931Y-88605648D01*
X129500398Y-88583997D01*
X129554010Y-88539192D01*
X129623335Y-88530485D01*
X129686362Y-88560639D01*
X129706602Y-88583997D01*
X129721068Y-88605648D01*
X129834348Y-88718928D01*
X129834352Y-88718931D01*
X129967558Y-88807937D01*
X129967559Y-88807937D01*
X129967560Y-88807938D01*
X129967562Y-88807939D01*
X130086260Y-88857105D01*
X130115569Y-88869245D01*
X130115573Y-88869245D01*
X130115574Y-88869246D01*
X130272694Y-88900500D01*
X130272697Y-88900500D01*
X130432905Y-88900500D01*
X130538613Y-88879472D01*
X130590031Y-88869245D01*
X130738042Y-88807937D01*
X130871248Y-88718931D01*
X130984531Y-88605648D01*
X131073537Y-88472442D01*
X131134845Y-88324431D01*
X131147510Y-88260760D01*
X131166100Y-88167305D01*
X131166100Y-88007094D01*
X131134846Y-87849974D01*
X131134845Y-87849973D01*
X131134845Y-87849969D01*
X131117764Y-87808731D01*
X131073539Y-87701962D01*
X131073538Y-87701960D01*
X131068857Y-87694955D01*
X130984531Y-87568752D01*
X130984528Y-87568748D01*
X130871251Y-87455471D01*
X130871247Y-87455468D01*
X130738039Y-87366461D01*
X130738037Y-87366460D01*
X130590035Y-87305156D01*
X130590025Y-87305153D01*
X130432905Y-87273900D01*
X130432903Y-87273900D01*
X130272697Y-87273900D01*
X130272695Y-87273900D01*
X130115574Y-87305153D01*
X130115564Y-87305156D01*
X129967562Y-87366460D01*
X129967560Y-87366461D01*
X129834352Y-87455468D01*
X129834348Y-87455471D01*
X129721071Y-87568748D01*
X129721066Y-87568754D01*
X129706601Y-87590403D01*
X129652988Y-87635208D01*
X129583663Y-87643914D01*
X129520636Y-87613758D01*
X129500399Y-87590403D01*
X129485933Y-87568754D01*
X129485928Y-87568748D01*
X129372651Y-87455471D01*
X129372647Y-87455468D01*
X129239439Y-87366461D01*
X129239437Y-87366460D01*
X129091435Y-87305156D01*
X129091425Y-87305153D01*
X128934305Y-87273900D01*
X128934303Y-87273900D01*
X128901926Y-87273900D01*
X128834887Y-87254215D01*
X128789132Y-87201411D01*
X128779188Y-87132253D01*
X128808213Y-87068697D01*
X128833035Y-87046798D01*
X128906456Y-86997739D01*
X128915448Y-86991731D01*
X128950074Y-86957105D01*
X131126699Y-86957105D01*
X131157953Y-87114225D01*
X131157956Y-87114235D01*
X131219260Y-87262237D01*
X131219261Y-87262239D01*
X131308268Y-87395447D01*
X131308271Y-87395451D01*
X131421548Y-87508728D01*
X131421552Y-87508731D01*
X131554758Y-87597737D01*
X131554759Y-87597737D01*
X131554760Y-87597738D01*
X131554762Y-87597739D01*
X131645221Y-87635208D01*
X131702769Y-87659045D01*
X131713566Y-87661192D01*
X131775476Y-87693577D01*
X131803936Y-87735357D01*
X131867261Y-87888239D01*
X131956268Y-88021447D01*
X131956271Y-88021451D01*
X132069548Y-88134728D01*
X132069552Y-88134731D01*
X132202758Y-88223737D01*
X132202759Y-88223737D01*
X132202760Y-88223738D01*
X132202762Y-88223739D01*
X132292144Y-88260762D01*
X132350769Y-88285045D01*
X132350773Y-88285045D01*
X132350774Y-88285046D01*
X132507894Y-88316300D01*
X132507897Y-88316300D01*
X132668105Y-88316300D01*
X132773813Y-88295272D01*
X132825231Y-88285045D01*
X132973242Y-88223737D01*
X133106448Y-88134731D01*
X133219731Y-88021448D01*
X133308737Y-87888242D01*
X133370045Y-87740231D01*
X133382608Y-87677071D01*
X133401300Y-87583105D01*
X133401300Y-87422894D01*
X133370046Y-87265774D01*
X133370045Y-87265773D01*
X133370045Y-87265769D01*
X133366456Y-87257105D01*
X133308739Y-87117762D01*
X133308738Y-87117760D01*
X133291365Y-87091760D01*
X133219731Y-86984552D01*
X133219728Y-86984548D01*
X133106451Y-86871271D01*
X133106447Y-86871268D01*
X132973239Y-86782261D01*
X132973237Y-86782260D01*
X132825233Y-86720955D01*
X132825228Y-86720954D01*
X132814430Y-86718806D01*
X132752519Y-86686419D01*
X132724063Y-86644641D01*
X132660739Y-86491762D01*
X132660738Y-86491760D01*
X132637018Y-86456261D01*
X132571731Y-86358552D01*
X132571728Y-86358548D01*
X132458451Y-86245271D01*
X132458447Y-86245268D01*
X132325239Y-86156261D01*
X132325237Y-86156260D01*
X132177235Y-86094956D01*
X132177225Y-86094953D01*
X132020105Y-86063700D01*
X132020103Y-86063700D01*
X131859897Y-86063700D01*
X131859895Y-86063700D01*
X131702774Y-86094953D01*
X131702764Y-86094956D01*
X131554762Y-86156260D01*
X131554760Y-86156261D01*
X131421552Y-86245268D01*
X131421548Y-86245271D01*
X131308271Y-86358548D01*
X131308268Y-86358552D01*
X131219261Y-86491760D01*
X131219260Y-86491762D01*
X131157956Y-86639764D01*
X131157953Y-86639774D01*
X131126700Y-86796894D01*
X131126700Y-86796897D01*
X131126700Y-86957103D01*
X131126700Y-86957105D01*
X131126699Y-86957105D01*
X128950074Y-86957105D01*
X129028731Y-86878448D01*
X129117737Y-86745242D01*
X129117827Y-86745022D01*
X129118520Y-86743353D01*
X129179043Y-86597235D01*
X129179045Y-86597231D01*
X129208931Y-86446984D01*
X129241316Y-86385074D01*
X129283093Y-86356616D01*
X129425242Y-86297737D01*
X129558448Y-86208731D01*
X129671731Y-86095448D01*
X129760737Y-85962242D01*
X129822045Y-85814231D01*
X129827769Y-85785453D01*
X129860152Y-85723544D01*
X129920867Y-85688969D01*
X129990637Y-85692708D01*
X130018277Y-85706543D01*
X130021552Y-85708731D01*
X130154758Y-85797737D01*
X130154759Y-85797737D01*
X130154760Y-85797738D01*
X130154762Y-85797739D01*
X130260527Y-85841548D01*
X130302769Y-85859045D01*
X130302773Y-85859045D01*
X130302774Y-85859046D01*
X130459894Y-85890300D01*
X130459897Y-85890300D01*
X130620105Y-85890300D01*
X130725813Y-85869272D01*
X130777231Y-85859045D01*
X130925242Y-85797737D01*
X131058448Y-85708731D01*
X131171731Y-85595448D01*
X131260737Y-85462242D01*
X131322045Y-85314231D01*
X131333212Y-85258089D01*
X131365596Y-85196180D01*
X131426312Y-85161606D01*
X131496081Y-85165345D01*
X131523720Y-85179180D01*
X131552045Y-85198106D01*
X131654758Y-85266737D01*
X131654759Y-85266737D01*
X131654760Y-85266738D01*
X131654762Y-85266739D01*
X131792511Y-85323796D01*
X131802769Y-85328045D01*
X131802773Y-85328045D01*
X131802774Y-85328046D01*
X131959894Y-85359300D01*
X131959897Y-85359300D01*
X132120105Y-85359300D01*
X132225813Y-85338272D01*
X132277231Y-85328045D01*
X132425242Y-85266737D01*
X132558448Y-85177731D01*
X132671731Y-85064448D01*
X132708686Y-85009140D01*
X132722586Y-84988339D01*
X132776198Y-84943534D01*
X132845523Y-84934827D01*
X132908551Y-84964982D01*
X132913369Y-84969549D01*
X133021548Y-85077728D01*
X133021552Y-85077731D01*
X133154758Y-85166737D01*
X133154759Y-85166737D01*
X133154760Y-85166738D01*
X133154762Y-85166739D01*
X133302764Y-85228043D01*
X133302769Y-85228045D01*
X133302773Y-85228045D01*
X133302774Y-85228046D01*
X133459894Y-85259300D01*
X133459897Y-85259300D01*
X133620105Y-85259300D01*
X133725813Y-85238272D01*
X133777231Y-85228045D01*
X133925242Y-85166737D01*
X134058448Y-85077731D01*
X134079074Y-85057105D01*
X137326699Y-85057105D01*
X137357953Y-85214225D01*
X137357956Y-85214235D01*
X137419260Y-85362237D01*
X137419261Y-85362239D01*
X137508268Y-85495447D01*
X137508271Y-85495451D01*
X137621548Y-85608728D01*
X137621552Y-85608731D01*
X137754758Y-85697737D01*
X137754759Y-85697737D01*
X137754760Y-85697738D01*
X137754762Y-85697739D01*
X137901569Y-85758548D01*
X137902769Y-85759045D01*
X137902773Y-85759045D01*
X137902774Y-85759046D01*
X138059894Y-85790300D01*
X138059897Y-85790300D01*
X138220105Y-85790300D01*
X138325813Y-85769272D01*
X138377231Y-85759045D01*
X138525242Y-85697737D01*
X138658448Y-85608731D01*
X138771731Y-85495448D01*
X138860737Y-85362242D01*
X138922045Y-85214231D01*
X138949197Y-85077731D01*
X138953300Y-85057105D01*
X145726699Y-85057105D01*
X145757953Y-85214225D01*
X145757956Y-85214235D01*
X145819260Y-85362237D01*
X145819261Y-85362239D01*
X145908268Y-85495447D01*
X145908271Y-85495451D01*
X146021548Y-85608728D01*
X146021552Y-85608731D01*
X146154758Y-85697737D01*
X146154759Y-85697737D01*
X146154760Y-85697738D01*
X146154762Y-85697739D01*
X146301569Y-85758548D01*
X146302769Y-85759045D01*
X146302773Y-85759045D01*
X146302774Y-85759046D01*
X146459894Y-85790300D01*
X146459897Y-85790300D01*
X146620105Y-85790300D01*
X146725813Y-85769272D01*
X146777231Y-85759045D01*
X146925242Y-85697737D01*
X147058448Y-85608731D01*
X147171731Y-85495448D01*
X147260737Y-85362242D01*
X147322045Y-85214231D01*
X147349197Y-85077731D01*
X147353300Y-85057105D01*
X147353300Y-84896894D01*
X147322046Y-84739774D01*
X147322045Y-84739773D01*
X147322045Y-84739769D01*
X147287657Y-84656748D01*
X147260739Y-84591762D01*
X147260738Y-84591760D01*
X147238546Y-84558548D01*
X147171731Y-84458552D01*
X147171728Y-84458548D01*
X147058451Y-84345271D01*
X147058447Y-84345268D01*
X146925239Y-84256261D01*
X146925237Y-84256260D01*
X146777235Y-84194956D01*
X146777225Y-84194953D01*
X146620105Y-84163700D01*
X146620103Y-84163700D01*
X146459897Y-84163700D01*
X146459895Y-84163700D01*
X146302774Y-84194953D01*
X146302764Y-84194956D01*
X146154762Y-84256260D01*
X146154760Y-84256261D01*
X146021552Y-84345268D01*
X146021548Y-84345271D01*
X145908271Y-84458548D01*
X145908268Y-84458552D01*
X145819261Y-84591760D01*
X145819260Y-84591762D01*
X145757956Y-84739764D01*
X145757953Y-84739774D01*
X145726700Y-84896894D01*
X145726700Y-84896897D01*
X145726700Y-85057103D01*
X145726700Y-85057105D01*
X145726699Y-85057105D01*
X138953300Y-85057105D01*
X138953300Y-84896894D01*
X138922046Y-84739774D01*
X138922045Y-84739773D01*
X138922045Y-84739769D01*
X138887657Y-84656748D01*
X138860739Y-84591762D01*
X138860738Y-84591760D01*
X138838546Y-84558548D01*
X138771731Y-84458552D01*
X138771728Y-84458548D01*
X138658451Y-84345271D01*
X138658447Y-84345268D01*
X138525239Y-84256261D01*
X138525237Y-84256260D01*
X138377235Y-84194956D01*
X138377225Y-84194953D01*
X138220105Y-84163700D01*
X138220103Y-84163700D01*
X138059897Y-84163700D01*
X138059895Y-84163700D01*
X137902774Y-84194953D01*
X137902764Y-84194956D01*
X137754762Y-84256260D01*
X137754760Y-84256261D01*
X137621552Y-84345268D01*
X137621548Y-84345271D01*
X137508271Y-84458548D01*
X137508268Y-84458552D01*
X137419261Y-84591760D01*
X137419260Y-84591762D01*
X137357956Y-84739764D01*
X137357953Y-84739774D01*
X137326700Y-84896894D01*
X137326700Y-84896897D01*
X137326700Y-85057103D01*
X137326700Y-85057105D01*
X137326699Y-85057105D01*
X134079074Y-85057105D01*
X134171731Y-84964448D01*
X134260737Y-84831242D01*
X134309965Y-84712393D01*
X134353803Y-84657995D01*
X134420097Y-84635929D01*
X134487796Y-84653208D01*
X134493398Y-84656737D01*
X134554758Y-84697737D01*
X134554761Y-84697738D01*
X134554762Y-84697739D01*
X134702764Y-84759043D01*
X134702769Y-84759045D01*
X134702773Y-84759045D01*
X134702774Y-84759046D01*
X134859894Y-84790300D01*
X134859897Y-84790300D01*
X135020105Y-84790300D01*
X135126241Y-84769188D01*
X135159461Y-84762579D01*
X135177231Y-84759045D01*
X135325242Y-84697737D01*
X135458448Y-84608731D01*
X135571731Y-84495448D01*
X135660737Y-84362242D01*
X135722045Y-84214231D01*
X135753300Y-84057103D01*
X135753300Y-83896897D01*
X135753300Y-83896894D01*
X135722046Y-83739774D01*
X135722045Y-83739773D01*
X135722045Y-83739769D01*
X135719117Y-83732700D01*
X135660739Y-83591762D01*
X135660738Y-83591760D01*
X135571731Y-83458552D01*
X135571728Y-83458548D01*
X135458451Y-83345271D01*
X135458447Y-83345268D01*
X135325239Y-83256261D01*
X135325237Y-83256260D01*
X135177235Y-83194956D01*
X135177225Y-83194953D01*
X135020105Y-83163700D01*
X135020103Y-83163700D01*
X134859897Y-83163700D01*
X134859895Y-83163700D01*
X134702774Y-83194953D01*
X134702764Y-83194956D01*
X134554762Y-83256260D01*
X134554760Y-83256261D01*
X134421552Y-83345268D01*
X134421548Y-83345271D01*
X134308271Y-83458548D01*
X134308268Y-83458552D01*
X134219261Y-83591760D01*
X134170036Y-83710602D01*
X134126195Y-83765005D01*
X134059901Y-83787070D01*
X133992202Y-83769791D01*
X133986584Y-83766251D01*
X133925242Y-83725263D01*
X133925239Y-83725261D01*
X133925238Y-83725261D01*
X133925237Y-83725260D01*
X133777235Y-83663956D01*
X133777225Y-83663953D01*
X133620105Y-83632700D01*
X133620103Y-83632700D01*
X133459897Y-83632700D01*
X133459895Y-83632700D01*
X133302774Y-83663953D01*
X133302764Y-83663956D01*
X133154762Y-83725260D01*
X133154760Y-83725261D01*
X133021552Y-83814268D01*
X133021548Y-83814271D01*
X132908271Y-83927548D01*
X132908268Y-83927552D01*
X132857414Y-84003661D01*
X132803802Y-84048466D01*
X132734477Y-84057173D01*
X132671449Y-84027018D01*
X132666631Y-84022451D01*
X132558451Y-83914271D01*
X132558447Y-83914268D01*
X132425239Y-83825261D01*
X132425237Y-83825260D01*
X132277235Y-83763956D01*
X132277225Y-83763953D01*
X132120105Y-83732700D01*
X132120103Y-83732700D01*
X131959897Y-83732700D01*
X131959895Y-83732700D01*
X131802774Y-83763953D01*
X131802764Y-83763956D01*
X131654762Y-83825260D01*
X131654760Y-83825261D01*
X131521552Y-83914268D01*
X131521548Y-83914271D01*
X131408271Y-84027548D01*
X131408268Y-84027552D01*
X131319261Y-84160760D01*
X131319260Y-84160762D01*
X131257956Y-84308764D01*
X131257953Y-84308773D01*
X131246787Y-84364910D01*
X131214401Y-84426820D01*
X131153685Y-84461394D01*
X131083916Y-84457653D01*
X131056280Y-84443819D01*
X130925244Y-84356264D01*
X130925237Y-84356260D01*
X130777235Y-84294956D01*
X130777225Y-84294953D01*
X130620105Y-84263700D01*
X130620103Y-84263700D01*
X130459897Y-84263700D01*
X130459895Y-84263700D01*
X130302774Y-84294953D01*
X130302764Y-84294956D01*
X130154762Y-84356260D01*
X130154760Y-84356261D01*
X130021552Y-84445268D01*
X130021548Y-84445271D01*
X129908271Y-84558548D01*
X129908268Y-84558552D01*
X129819261Y-84691760D01*
X129819260Y-84691762D01*
X129757956Y-84839764D01*
X129757953Y-84839773D01*
X129752230Y-84868547D01*
X129719844Y-84930458D01*
X129659128Y-84965031D01*
X129589358Y-84961290D01*
X129561722Y-84947456D01*
X129425239Y-84856261D01*
X129425237Y-84856260D01*
X129277235Y-84794956D01*
X129277225Y-84794953D01*
X129120105Y-84763700D01*
X129120103Y-84763700D01*
X128959897Y-84763700D01*
X128959895Y-84763700D01*
X128802774Y-84794953D01*
X128802764Y-84794956D01*
X128654762Y-84856260D01*
X128654760Y-84856261D01*
X128521552Y-84945268D01*
X128521548Y-84945271D01*
X128408271Y-85058548D01*
X128408268Y-85058552D01*
X128319261Y-85191760D01*
X128319260Y-85191762D01*
X128257956Y-85339764D01*
X128257953Y-85339774D01*
X128228068Y-85490015D01*
X128195683Y-85551926D01*
X128153904Y-85580384D01*
X128011760Y-85639261D01*
X127878552Y-85728268D01*
X127878548Y-85728271D01*
X127765271Y-85841548D01*
X127765268Y-85841552D01*
X127676261Y-85974760D01*
X127676260Y-85974762D01*
X127614956Y-86122764D01*
X127614953Y-86122773D01*
X127598152Y-86207237D01*
X127565766Y-86269147D01*
X127505050Y-86303721D01*
X127435281Y-86299980D01*
X127378609Y-86259113D01*
X127356071Y-86202557D01*
X127354489Y-86202872D01*
X127322046Y-86039774D01*
X127322045Y-86039773D01*
X127322045Y-86039769D01*
X127295118Y-85974762D01*
X127260739Y-85891762D01*
X127260738Y-85891760D01*
X127259762Y-85890300D01*
X127171731Y-85758552D01*
X127171728Y-85758548D01*
X127058451Y-85645271D01*
X127058447Y-85645268D01*
X126925239Y-85556261D01*
X126925237Y-85556260D01*
X126777235Y-85494956D01*
X126777225Y-85494953D01*
X126620105Y-85463700D01*
X126620103Y-85463700D01*
X126459897Y-85463700D01*
X126459895Y-85463700D01*
X126302774Y-85494953D01*
X126302764Y-85494956D01*
X126154762Y-85556260D01*
X126154760Y-85556261D01*
X126021552Y-85645268D01*
X126021548Y-85645271D01*
X125908271Y-85758548D01*
X125904405Y-85763260D01*
X125903378Y-85762417D01*
X125854987Y-85802853D01*
X125785662Y-85811556D01*
X125722636Y-85781397D01*
X125690944Y-85736607D01*
X125663338Y-85669960D01*
X125654747Y-85657103D01*
X125574331Y-85536752D01*
X125574328Y-85536748D01*
X125461051Y-85423471D01*
X125461047Y-85423468D01*
X125327839Y-85334461D01*
X125327837Y-85334460D01*
X125179835Y-85273156D01*
X125179825Y-85273153D01*
X125022705Y-85241900D01*
X125022703Y-85241900D01*
X124862497Y-85241900D01*
X124862495Y-85241900D01*
X124705374Y-85273153D01*
X124705364Y-85273156D01*
X124557362Y-85334460D01*
X124557360Y-85334461D01*
X124424152Y-85423468D01*
X124424148Y-85423471D01*
X124310871Y-85536748D01*
X124310868Y-85536752D01*
X124221861Y-85669960D01*
X124221860Y-85669962D01*
X124160556Y-85817964D01*
X124160553Y-85817974D01*
X124129300Y-85975094D01*
X124129300Y-85975097D01*
X124129300Y-86135303D01*
X124129300Y-86135305D01*
X124129299Y-86135305D01*
X107892846Y-86135305D01*
X107878049Y-86041884D01*
X107878048Y-86041880D01*
X107866820Y-86007322D01*
X107811973Y-85838519D01*
X107811972Y-85838516D01*
X107753390Y-85723544D01*
X107714894Y-85647991D01*
X107589206Y-85474996D01*
X107438004Y-85323794D01*
X107368303Y-85273153D01*
X107358496Y-85266028D01*
X107315831Y-85210697D01*
X107309852Y-85141084D01*
X107342458Y-85079289D01*
X107375085Y-85055226D01*
X107519009Y-84981894D01*
X107692004Y-84856206D01*
X107843206Y-84705004D01*
X107968894Y-84532009D01*
X108065972Y-84341483D01*
X108132049Y-84138116D01*
X108165500Y-83926916D01*
X108165500Y-83713084D01*
X108132049Y-83501884D01*
X108081163Y-83345271D01*
X108065973Y-83298519D01*
X108065972Y-83298516D01*
X107968893Y-83107990D01*
X107843206Y-82934996D01*
X107692004Y-82783794D01*
X107519009Y-82658106D01*
X107375086Y-82584773D01*
X107324291Y-82536799D01*
X107307496Y-82468978D01*
X107330033Y-82402843D01*
X107358497Y-82373971D01*
X107438004Y-82316206D01*
X107589206Y-82165004D01*
X107714894Y-81992009D01*
X107811972Y-81801483D01*
X107878049Y-81598116D01*
X107911500Y-81386916D01*
X107911500Y-81173084D01*
X148374500Y-81173084D01*
X148374500Y-81386915D01*
X148407951Y-81598117D01*
X148474026Y-81801480D01*
X148474027Y-81801483D01*
X148571106Y-81992009D01*
X148696794Y-82165004D01*
X148847996Y-82316206D01*
X149020991Y-82441894D01*
X149164913Y-82515226D01*
X149215708Y-82563199D01*
X149232503Y-82631020D01*
X149209966Y-82697155D01*
X149181504Y-82726027D01*
X149101996Y-82783793D01*
X148950796Y-82934993D01*
X148825106Y-83107990D01*
X148728027Y-83298516D01*
X148728026Y-83298519D01*
X148661951Y-83501882D01*
X148628500Y-83713084D01*
X148628500Y-83926915D01*
X148661951Y-84138117D01*
X148728026Y-84341480D01*
X148728027Y-84341483D01*
X148791420Y-84465897D01*
X148825106Y-84532009D01*
X148950794Y-84705004D01*
X149101996Y-84856206D01*
X149181503Y-84913971D01*
X149224168Y-84969301D01*
X149230147Y-85038915D01*
X149197541Y-85100710D01*
X149164912Y-85124774D01*
X149020990Y-85198106D01*
X148847993Y-85323796D01*
X148696796Y-85474993D01*
X148571106Y-85647990D01*
X148474027Y-85838516D01*
X148474026Y-85838519D01*
X148407951Y-86041882D01*
X148374500Y-86253084D01*
X148374500Y-86466915D01*
X148407951Y-86678117D01*
X148474026Y-86881480D01*
X148474027Y-86881483D01*
X148564501Y-87059046D01*
X148571106Y-87072009D01*
X148696794Y-87245004D01*
X148847996Y-87396206D01*
X149020991Y-87521894D01*
X149164913Y-87595226D01*
X149215708Y-87643199D01*
X149232503Y-87711020D01*
X149209966Y-87777155D01*
X149181504Y-87806027D01*
X149101996Y-87863793D01*
X148950796Y-88014993D01*
X148825106Y-88187990D01*
X148728027Y-88378516D01*
X148728026Y-88378519D01*
X148661951Y-88581882D01*
X148640245Y-88718928D01*
X148628500Y-88793084D01*
X148628500Y-89006916D01*
X148632353Y-89031242D01*
X148661951Y-89218117D01*
X148728026Y-89421480D01*
X148728027Y-89421483D01*
X148766882Y-89497739D01*
X148825106Y-89612009D01*
X148950794Y-89785004D01*
X149101996Y-89936206D01*
X149181503Y-89993971D01*
X149224168Y-90049301D01*
X149230147Y-90118915D01*
X149197541Y-90180710D01*
X149164912Y-90204774D01*
X149020990Y-90278106D01*
X148847993Y-90403796D01*
X148696796Y-90554993D01*
X148571106Y-90727990D01*
X148474027Y-90918516D01*
X148474026Y-90918519D01*
X148407951Y-91121882D01*
X148374500Y-91333084D01*
X148374500Y-91546915D01*
X148407951Y-91758117D01*
X148474026Y-91961480D01*
X148474027Y-91961483D01*
X148568838Y-92147557D01*
X148571106Y-92152009D01*
X148696794Y-92325004D01*
X148847996Y-92476206D01*
X149020991Y-92601894D01*
X149164913Y-92675226D01*
X149215708Y-92723199D01*
X149232503Y-92791020D01*
X149209966Y-92857155D01*
X149181504Y-92886027D01*
X149101996Y-92943793D01*
X148950796Y-93094993D01*
X148825106Y-93267990D01*
X148728027Y-93458516D01*
X148728026Y-93458519D01*
X148661951Y-93661882D01*
X148628500Y-93873084D01*
X148628500Y-94086915D01*
X148661951Y-94298117D01*
X148728026Y-94501480D01*
X148728027Y-94501483D01*
X148820976Y-94683903D01*
X148825106Y-94692009D01*
X148950794Y-94865004D01*
X149101996Y-95016206D01*
X149181503Y-95073971D01*
X149224168Y-95129301D01*
X149230147Y-95198915D01*
X149197541Y-95260710D01*
X149164912Y-95284774D01*
X149020990Y-95358106D01*
X148847993Y-95483796D01*
X148696796Y-95634993D01*
X148571106Y-95807990D01*
X148474027Y-95998516D01*
X148474026Y-95998519D01*
X148407951Y-96201882D01*
X148374500Y-96413084D01*
X148374500Y-96626915D01*
X148407951Y-96838117D01*
X148474026Y-97041480D01*
X148474027Y-97041483D01*
X148555763Y-97201897D01*
X148571106Y-97232009D01*
X148696794Y-97405004D01*
X148847996Y-97556206D01*
X149020991Y-97681894D01*
X149164913Y-97755226D01*
X149215708Y-97803199D01*
X149232503Y-97871020D01*
X149209966Y-97937155D01*
X149181504Y-97966027D01*
X149101996Y-98023793D01*
X148950796Y-98174993D01*
X148825106Y-98347990D01*
X148728027Y-98538516D01*
X148728026Y-98538519D01*
X148661951Y-98741882D01*
X148644368Y-98852897D01*
X148628500Y-98953084D01*
X148628500Y-99166916D01*
X148635123Y-99208731D01*
X148661951Y-99378117D01*
X148728026Y-99581480D01*
X148728027Y-99581483D01*
X148811481Y-99745268D01*
X148825106Y-99772009D01*
X148950794Y-99945004D01*
X149101996Y-100096206D01*
X149181503Y-100153971D01*
X149224168Y-100209301D01*
X149230147Y-100278915D01*
X149197541Y-100340710D01*
X149164912Y-100364774D01*
X149020990Y-100438106D01*
X148847993Y-100563796D01*
X148696796Y-100714993D01*
X148571106Y-100887990D01*
X148474027Y-101078516D01*
X148474026Y-101078519D01*
X148407951Y-101281882D01*
X148374500Y-101493084D01*
X148374500Y-101706915D01*
X148407951Y-101918117D01*
X148474026Y-102121480D01*
X148474027Y-102121483D01*
X148569434Y-102308728D01*
X148571106Y-102312009D01*
X148696794Y-102485004D01*
X148847996Y-102636206D01*
X149020991Y-102761894D01*
X149164913Y-102835226D01*
X149215708Y-102883199D01*
X149232503Y-102951020D01*
X149209966Y-103017155D01*
X149181504Y-103046027D01*
X149101996Y-103103793D01*
X148950796Y-103254993D01*
X148825106Y-103427990D01*
X148728027Y-103618516D01*
X148728026Y-103618519D01*
X148661951Y-103821882D01*
X148628500Y-104033084D01*
X148628500Y-104246915D01*
X148661951Y-104458117D01*
X148728026Y-104661480D01*
X148728027Y-104661483D01*
X148797454Y-104797739D01*
X148825106Y-104852009D01*
X148950794Y-105025004D01*
X149101996Y-105176206D01*
X149181503Y-105233971D01*
X149224168Y-105289301D01*
X149230147Y-105358915D01*
X149197541Y-105420710D01*
X149164912Y-105444774D01*
X149020990Y-105518106D01*
X148847993Y-105643796D01*
X148696796Y-105794993D01*
X148571106Y-105967990D01*
X148474027Y-106158516D01*
X148474026Y-106158519D01*
X148407951Y-106361882D01*
X148374500Y-106573084D01*
X148374500Y-106786915D01*
X148407951Y-106998117D01*
X148474026Y-107201480D01*
X148474027Y-107201483D01*
X148571106Y-107392009D01*
X148696794Y-107565004D01*
X148847996Y-107716206D01*
X149020991Y-107841894D01*
X149164913Y-107915226D01*
X149215708Y-107963199D01*
X149232503Y-108031020D01*
X149209966Y-108097155D01*
X149181504Y-108126027D01*
X149101996Y-108183793D01*
X148950796Y-108334993D01*
X148825106Y-108507990D01*
X148728027Y-108698516D01*
X148728026Y-108698519D01*
X148661951Y-108901882D01*
X148628500Y-109113084D01*
X148628500Y-109326915D01*
X148661951Y-109538117D01*
X148728026Y-109741480D01*
X148728027Y-109741483D01*
X148825106Y-109932009D01*
X148950794Y-110105004D01*
X149101996Y-110256206D01*
X149181503Y-110313971D01*
X149224168Y-110369301D01*
X149230147Y-110438915D01*
X149197541Y-110500710D01*
X149164912Y-110524774D01*
X149020990Y-110598106D01*
X148847993Y-110723796D01*
X148696796Y-110874993D01*
X148571106Y-111047990D01*
X148474027Y-111238516D01*
X148474026Y-111238519D01*
X148407951Y-111441882D01*
X148374500Y-111653084D01*
X148374500Y-111866915D01*
X148407951Y-112078117D01*
X148474026Y-112281480D01*
X148474027Y-112281483D01*
X148571106Y-112472009D01*
X148696794Y-112645004D01*
X148847996Y-112796206D01*
X149020991Y-112921894D01*
X149164913Y-112995226D01*
X149215708Y-113043199D01*
X149232503Y-113111020D01*
X149209966Y-113177155D01*
X149181504Y-113206027D01*
X149101996Y-113263793D01*
X148950796Y-113414993D01*
X148825106Y-113587990D01*
X148728027Y-113778516D01*
X148728026Y-113778519D01*
X148661951Y-113981882D01*
X148628500Y-114193084D01*
X148628500Y-114406915D01*
X148661951Y-114618117D01*
X148728026Y-114821480D01*
X148728027Y-114821483D01*
X148825106Y-115012009D01*
X148950794Y-115185004D01*
X149101996Y-115336206D01*
X149181503Y-115393971D01*
X149224168Y-115449301D01*
X149230147Y-115518915D01*
X149197541Y-115580710D01*
X149164912Y-115604774D01*
X149020990Y-115678106D01*
X148847993Y-115803796D01*
X148696796Y-115954993D01*
X148571106Y-116127990D01*
X148474027Y-116318516D01*
X148474026Y-116318519D01*
X148407951Y-116521882D01*
X148374500Y-116733084D01*
X148374500Y-116946915D01*
X148407951Y-117158117D01*
X148474026Y-117361480D01*
X148474027Y-117361483D01*
X148571106Y-117552009D01*
X148696794Y-117725004D01*
X148847996Y-117876206D01*
X149020991Y-118001894D01*
X149114438Y-118049507D01*
X149211516Y-118098972D01*
X149211519Y-118098973D01*
X149313200Y-118132010D01*
X149414884Y-118165049D01*
X149626084Y-118198500D01*
X149626085Y-118198500D01*
X149839915Y-118198500D01*
X149839916Y-118198500D01*
X150051116Y-118165049D01*
X150254483Y-118098972D01*
X150445009Y-118001894D01*
X150618004Y-117876206D01*
X150769206Y-117725004D01*
X150894894Y-117552009D01*
X150991972Y-117361483D01*
X151058049Y-117158116D01*
X151091500Y-116946916D01*
X151091500Y-116733084D01*
X151058049Y-116521884D01*
X150991972Y-116318517D01*
X150991972Y-116318516D01*
X150894893Y-116127990D01*
X150769206Y-115954996D01*
X150618004Y-115803794D01*
X150538496Y-115746028D01*
X150495831Y-115690697D01*
X150489852Y-115621084D01*
X150522458Y-115559289D01*
X150555085Y-115535226D01*
X150699009Y-115461894D01*
X150872004Y-115336206D01*
X151023206Y-115185004D01*
X151148894Y-115012009D01*
X151245972Y-114821483D01*
X151312049Y-114618116D01*
X151345500Y-114406916D01*
X151345500Y-114193084D01*
X151312049Y-113981884D01*
X151245972Y-113778517D01*
X151245972Y-113778516D01*
X151148893Y-113587990D01*
X151023206Y-113414996D01*
X150872004Y-113263794D01*
X150699009Y-113138106D01*
X150555086Y-113064773D01*
X150504291Y-113016799D01*
X150487496Y-112948978D01*
X150510033Y-112882843D01*
X150538497Y-112853971D01*
X150618004Y-112796206D01*
X150769206Y-112645004D01*
X150894894Y-112472009D01*
X150991972Y-112281483D01*
X151058049Y-112078116D01*
X151091500Y-111866916D01*
X151091500Y-111653084D01*
X151058049Y-111441884D01*
X150991972Y-111238517D01*
X150991972Y-111238516D01*
X150894893Y-111047990D01*
X150769206Y-110874996D01*
X150618004Y-110723794D01*
X150538496Y-110666028D01*
X150495831Y-110610697D01*
X150489852Y-110541084D01*
X150522458Y-110479289D01*
X150555085Y-110455226D01*
X150699009Y-110381894D01*
X150872004Y-110256206D01*
X151023206Y-110105004D01*
X151148894Y-109932009D01*
X151245972Y-109741483D01*
X151312049Y-109538116D01*
X151345500Y-109326916D01*
X151345500Y-109113084D01*
X151312049Y-108901884D01*
X151245972Y-108698517D01*
X151245972Y-108698516D01*
X151148893Y-108507990D01*
X151023206Y-108334996D01*
X150872004Y-108183794D01*
X150699009Y-108058106D01*
X150555086Y-107984773D01*
X150504291Y-107936799D01*
X150487496Y-107868978D01*
X150510033Y-107802843D01*
X150538497Y-107773971D01*
X150618004Y-107716206D01*
X150769206Y-107565004D01*
X150894894Y-107392009D01*
X150991972Y-107201483D01*
X151058049Y-106998116D01*
X151091500Y-106786916D01*
X151091500Y-106573084D01*
X151058049Y-106361884D01*
X150991972Y-106158517D01*
X150991972Y-106158516D01*
X150894893Y-105967990D01*
X150843852Y-105897738D01*
X150769206Y-105794996D01*
X150618004Y-105643794D01*
X150538496Y-105586028D01*
X150495831Y-105530697D01*
X150489852Y-105461084D01*
X150522458Y-105399289D01*
X150555085Y-105375226D01*
X150699009Y-105301894D01*
X150872004Y-105176206D01*
X151023206Y-105025004D01*
X151148894Y-104852009D01*
X151245972Y-104661483D01*
X151312049Y-104458116D01*
X151345500Y-104246916D01*
X151345500Y-104033084D01*
X151312049Y-103821884D01*
X151270968Y-103695447D01*
X151245973Y-103618519D01*
X151245972Y-103618516D01*
X151179585Y-103488225D01*
X151148894Y-103427991D01*
X151023206Y-103254996D01*
X150872004Y-103103794D01*
X150699009Y-102978106D01*
X150555086Y-102904773D01*
X150504291Y-102856799D01*
X150487496Y-102788978D01*
X150510033Y-102722843D01*
X150538497Y-102693971D01*
X150618004Y-102636206D01*
X150769206Y-102485004D01*
X150894894Y-102312009D01*
X150991972Y-102121483D01*
X151058049Y-101918116D01*
X151091500Y-101706916D01*
X151091500Y-101493084D01*
X151058049Y-101281884D01*
X150997730Y-101096239D01*
X150991973Y-101078519D01*
X150991972Y-101078516D01*
X150921094Y-100939411D01*
X150894894Y-100887991D01*
X150769206Y-100714996D01*
X150618004Y-100563794D01*
X150538496Y-100506028D01*
X150495831Y-100450697D01*
X150489852Y-100381084D01*
X150522458Y-100319289D01*
X150555085Y-100295226D01*
X150699009Y-100221894D01*
X150872004Y-100096206D01*
X151023206Y-99945004D01*
X151148894Y-99772009D01*
X151245972Y-99581483D01*
X151312049Y-99378116D01*
X151345500Y-99166916D01*
X151345500Y-98953084D01*
X151312049Y-98741884D01*
X151270564Y-98614203D01*
X151245973Y-98538519D01*
X151245972Y-98538516D01*
X151196507Y-98441438D01*
X151148894Y-98347991D01*
X151023206Y-98174996D01*
X150872004Y-98023794D01*
X150699009Y-97898106D01*
X150555086Y-97824773D01*
X150504291Y-97776799D01*
X150487496Y-97708978D01*
X150510033Y-97642843D01*
X150538497Y-97613971D01*
X150618004Y-97556206D01*
X150769206Y-97405004D01*
X150894894Y-97232009D01*
X150991972Y-97041483D01*
X151058049Y-96838116D01*
X151091500Y-96626916D01*
X151091500Y-96413084D01*
X151058049Y-96201884D01*
X151022380Y-96092103D01*
X150991973Y-95998519D01*
X150991972Y-95998516D01*
X150902584Y-95823084D01*
X150894894Y-95807991D01*
X150769206Y-95634996D01*
X150618004Y-95483794D01*
X150538496Y-95426028D01*
X150495831Y-95370697D01*
X150489852Y-95301084D01*
X150522458Y-95239289D01*
X150555085Y-95215226D01*
X150699009Y-95141894D01*
X150872004Y-95016206D01*
X151023206Y-94865004D01*
X151148894Y-94692009D01*
X151245972Y-94501483D01*
X151312049Y-94298116D01*
X151345500Y-94086916D01*
X151345500Y-93873084D01*
X151312049Y-93661884D01*
X151245972Y-93458517D01*
X151245972Y-93458516D01*
X151148893Y-93267990D01*
X151023206Y-93094996D01*
X150872004Y-92943794D01*
X150699009Y-92818106D01*
X150555086Y-92744773D01*
X150504291Y-92696799D01*
X150487496Y-92628978D01*
X150510033Y-92562843D01*
X150538497Y-92533971D01*
X150544461Y-92529638D01*
X150618004Y-92476206D01*
X150769206Y-92325004D01*
X150894894Y-92152009D01*
X150991972Y-91961483D01*
X151058049Y-91758116D01*
X151091500Y-91546916D01*
X151091500Y-91333084D01*
X151058049Y-91121884D01*
X150991972Y-90918517D01*
X150991972Y-90918516D01*
X150938832Y-90814225D01*
X150894894Y-90727991D01*
X150769206Y-90554996D01*
X150618004Y-90403794D01*
X150538496Y-90346028D01*
X150495831Y-90290697D01*
X150489852Y-90221084D01*
X150522458Y-90159289D01*
X150555085Y-90135226D01*
X150699009Y-90061894D01*
X150872004Y-89936206D01*
X151023206Y-89785004D01*
X151148894Y-89612009D01*
X151245972Y-89421483D01*
X151312049Y-89218116D01*
X151345500Y-89006916D01*
X151345500Y-88793084D01*
X151312049Y-88581884D01*
X151255803Y-88408774D01*
X151245973Y-88378519D01*
X151245972Y-88378516D01*
X151175276Y-88239769D01*
X151148894Y-88187991D01*
X151023206Y-88014996D01*
X150872004Y-87863794D01*
X150699009Y-87738106D01*
X150555086Y-87664773D01*
X150504291Y-87616799D01*
X150487496Y-87548978D01*
X150510033Y-87482843D01*
X150538497Y-87453971D01*
X150618004Y-87396206D01*
X150769206Y-87245004D01*
X150894894Y-87072009D01*
X150991972Y-86881483D01*
X151058049Y-86678116D01*
X151091500Y-86466916D01*
X151091500Y-86253084D01*
X151058049Y-86041884D01*
X151009272Y-85891762D01*
X150991973Y-85838519D01*
X150991972Y-85838516D01*
X150933390Y-85723544D01*
X150894894Y-85647991D01*
X150769206Y-85474996D01*
X150618004Y-85323794D01*
X150548303Y-85273153D01*
X150538496Y-85266028D01*
X150495831Y-85210697D01*
X150489852Y-85141084D01*
X150522458Y-85079289D01*
X150555085Y-85055226D01*
X150699009Y-84981894D01*
X150872004Y-84856206D01*
X151023206Y-84705004D01*
X151148894Y-84532009D01*
X151245972Y-84341483D01*
X151312049Y-84138116D01*
X151345500Y-83926916D01*
X151345500Y-83713084D01*
X151312049Y-83501884D01*
X151261163Y-83345271D01*
X151245973Y-83298519D01*
X151245972Y-83298516D01*
X151148893Y-83107990D01*
X151023206Y-82934996D01*
X150872004Y-82783794D01*
X150699009Y-82658106D01*
X150555086Y-82584773D01*
X150504291Y-82536799D01*
X150487496Y-82468978D01*
X150510033Y-82402843D01*
X150538497Y-82373971D01*
X150618004Y-82316206D01*
X150769206Y-82165004D01*
X150894894Y-81992009D01*
X150991972Y-81801483D01*
X151058049Y-81598116D01*
X151091500Y-81386916D01*
X151091500Y-81173084D01*
X151058049Y-80961884D01*
X150991972Y-80758517D01*
X150991972Y-80758516D01*
X150894893Y-80567990D01*
X150888393Y-80559043D01*
X150769206Y-80394996D01*
X150618004Y-80243794D01*
X150567835Y-80207344D01*
X150538496Y-80186028D01*
X150495831Y-80130697D01*
X150489852Y-80061084D01*
X150522458Y-79999289D01*
X150555085Y-79975226D01*
X150699009Y-79901894D01*
X150872004Y-79776206D01*
X151023206Y-79625004D01*
X151148894Y-79452009D01*
X151245972Y-79261483D01*
X151312049Y-79058116D01*
X151345500Y-78846916D01*
X151345500Y-78633084D01*
X151312049Y-78421884D01*
X151279010Y-78320200D01*
X151245973Y-78218519D01*
X151245972Y-78218516D01*
X151164717Y-78059045D01*
X151148894Y-78027991D01*
X151023206Y-77854996D01*
X150872004Y-77703794D01*
X150841558Y-77681673D01*
X150798894Y-77626345D01*
X150792915Y-77556732D01*
X150825521Y-77494937D01*
X150840134Y-77482091D01*
X150940187Y-77407190D01*
X150940190Y-77407187D01*
X151026350Y-77292093D01*
X151026354Y-77292086D01*
X151076596Y-77157379D01*
X151076598Y-77157372D01*
X151082999Y-77097844D01*
X151083000Y-77097827D01*
X151083000Y-76450000D01*
X150166012Y-76450000D01*
X150198925Y-76392993D01*
X150233000Y-76265826D01*
X150233000Y-76134174D01*
X150198925Y-76007007D01*
X150166012Y-75950000D01*
X151083000Y-75950000D01*
X151083000Y-75302172D01*
X151082999Y-75302155D01*
X151076598Y-75242627D01*
X151076596Y-75242620D01*
X151026354Y-75107913D01*
X151026350Y-75107906D01*
X150940190Y-74992812D01*
X150940187Y-74992809D01*
X150825093Y-74906649D01*
X150825086Y-74906645D01*
X150690379Y-74856403D01*
X150690372Y-74856401D01*
X150630844Y-74850000D01*
X149983000Y-74850000D01*
X149983000Y-75766988D01*
X149925993Y-75734075D01*
X149798826Y-75700000D01*
X149667174Y-75700000D01*
X149540007Y-75734075D01*
X149483000Y-75766988D01*
X149483000Y-74850000D01*
X148835155Y-74850000D01*
X148775627Y-74856401D01*
X148775620Y-74856403D01*
X148640913Y-74906645D01*
X148640906Y-74906649D01*
X148525812Y-74992809D01*
X148525809Y-74992812D01*
X148439649Y-75107906D01*
X148439645Y-75107913D01*
X148389403Y-75242620D01*
X148389401Y-75242627D01*
X148383000Y-75302155D01*
X148383000Y-75950000D01*
X149299988Y-75950000D01*
X149267075Y-76007007D01*
X149233000Y-76134174D01*
X149233000Y-76265826D01*
X149267075Y-76392993D01*
X149299988Y-76450000D01*
X148383000Y-76450000D01*
X148383000Y-77097844D01*
X148389401Y-77157372D01*
X148389403Y-77157379D01*
X148439645Y-77292086D01*
X148439649Y-77292093D01*
X148525809Y-77407187D01*
X148525812Y-77407190D01*
X148640906Y-77493350D01*
X148640913Y-77493354D01*
X148775620Y-77543596D01*
X148775627Y-77543598D01*
X148835155Y-77549999D01*
X148835172Y-77550000D01*
X148956428Y-77550000D01*
X149023467Y-77569685D01*
X149069222Y-77622489D01*
X149079166Y-77691647D01*
X149050141Y-77755203D01*
X149044109Y-77761681D01*
X148950796Y-77854993D01*
X148825106Y-78027990D01*
X148728027Y-78218516D01*
X148728026Y-78218519D01*
X148661951Y-78421882D01*
X148634232Y-78596894D01*
X148628500Y-78633084D01*
X148628500Y-78846916D01*
X148630114Y-78857105D01*
X148661951Y-79058117D01*
X148728026Y-79261480D01*
X148728027Y-79261483D01*
X148814522Y-79431237D01*
X148825106Y-79452009D01*
X148950794Y-79625004D01*
X149101996Y-79776206D01*
X149173348Y-79828046D01*
X149181503Y-79833971D01*
X149224168Y-79889301D01*
X149230147Y-79958915D01*
X149197541Y-80020710D01*
X149164912Y-80044774D01*
X149020990Y-80118106D01*
X148847993Y-80243796D01*
X148696796Y-80394993D01*
X148571106Y-80567990D01*
X148474027Y-80758516D01*
X148474026Y-80758519D01*
X148407951Y-80961882D01*
X148374500Y-81173084D01*
X107911500Y-81173084D01*
X107878049Y-80961884D01*
X107811972Y-80758517D01*
X107811972Y-80758516D01*
X107714893Y-80567990D01*
X107708393Y-80559043D01*
X107589206Y-80394996D01*
X107438004Y-80243794D01*
X107387835Y-80207344D01*
X107358496Y-80186028D01*
X107315831Y-80130697D01*
X107309852Y-80061084D01*
X107342458Y-79999289D01*
X107375085Y-79975226D01*
X107519009Y-79901894D01*
X107580656Y-79857105D01*
X123226699Y-79857105D01*
X123257953Y-80014225D01*
X123257956Y-80014235D01*
X123319260Y-80162237D01*
X123319261Y-80162239D01*
X123408268Y-80295447D01*
X123408271Y-80295451D01*
X123521548Y-80408728D01*
X123521552Y-80408731D01*
X123654758Y-80497737D01*
X123654759Y-80497737D01*
X123654760Y-80497738D01*
X123654762Y-80497739D01*
X123802764Y-80559043D01*
X123802769Y-80559045D01*
X123802773Y-80559045D01*
X123802774Y-80559046D01*
X123959894Y-80590300D01*
X123959897Y-80590300D01*
X124120105Y-80590300D01*
X124232262Y-80567990D01*
X124277231Y-80559045D01*
X124425242Y-80497737D01*
X124512087Y-80439708D01*
X124578759Y-80418832D01*
X124628426Y-80428250D01*
X124702769Y-80459045D01*
X124702773Y-80459045D01*
X124702774Y-80459046D01*
X124859894Y-80490300D01*
X124859897Y-80490300D01*
X125020105Y-80490300D01*
X125125813Y-80469272D01*
X125177231Y-80459045D01*
X125325242Y-80397737D01*
X125458448Y-80308731D01*
X125571731Y-80195448D01*
X125660737Y-80062242D01*
X125722045Y-79914231D01*
X125738010Y-79833971D01*
X125753300Y-79757105D01*
X125753300Y-79596894D01*
X125722046Y-79439774D01*
X125722045Y-79439773D01*
X125722045Y-79439769D01*
X125709189Y-79408731D01*
X125660739Y-79291762D01*
X125660738Y-79291760D01*
X125640507Y-79261483D01*
X125571731Y-79158552D01*
X125571728Y-79158548D01*
X125539285Y-79126105D01*
X127026699Y-79126105D01*
X127057953Y-79283225D01*
X127057956Y-79283235D01*
X127119260Y-79431237D01*
X127119261Y-79431239D01*
X127208268Y-79564447D01*
X127208271Y-79564451D01*
X127321548Y-79677728D01*
X127321552Y-79677731D01*
X127454758Y-79766737D01*
X127454759Y-79766737D01*
X127454760Y-79766738D01*
X127454762Y-79766739D01*
X127477618Y-79776206D01*
X127602769Y-79828045D01*
X127602773Y-79828045D01*
X127602774Y-79828046D01*
X127759894Y-79859300D01*
X127759897Y-79859300D01*
X127920105Y-79859300D01*
X128047439Y-79833971D01*
X128077231Y-79828045D01*
X128225242Y-79766737D01*
X128358448Y-79677731D01*
X128471731Y-79564448D01*
X128560737Y-79431242D01*
X128622045Y-79283231D01*
X128639506Y-79195448D01*
X128653300Y-79126105D01*
X128653300Y-78965894D01*
X128631660Y-78857105D01*
X134226699Y-78857105D01*
X134257953Y-79014225D01*
X134257956Y-79014235D01*
X134319260Y-79162237D01*
X134319261Y-79162239D01*
X134408268Y-79295447D01*
X134408271Y-79295451D01*
X134521548Y-79408728D01*
X134521552Y-79408731D01*
X134654758Y-79497737D01*
X134654759Y-79497737D01*
X134654760Y-79497738D01*
X134654762Y-79497739D01*
X134802764Y-79559043D01*
X134802769Y-79559045D01*
X134802773Y-79559045D01*
X134802774Y-79559046D01*
X134959894Y-79590300D01*
X134959897Y-79590300D01*
X135120105Y-79590300D01*
X135250053Y-79564451D01*
X135277231Y-79559045D01*
X135425242Y-79497737D01*
X135558448Y-79408731D01*
X135671731Y-79295448D01*
X135760737Y-79162242D01*
X135822045Y-79014231D01*
X135841936Y-78914235D01*
X135853300Y-78857105D01*
X135853300Y-78757105D01*
X142926699Y-78757105D01*
X142957953Y-78914225D01*
X142957956Y-78914235D01*
X143019260Y-79062237D01*
X143019261Y-79062239D01*
X143108268Y-79195447D01*
X143108271Y-79195451D01*
X143221548Y-79308728D01*
X143221552Y-79308731D01*
X143354758Y-79397737D01*
X143354759Y-79397737D01*
X143354760Y-79397738D01*
X143354762Y-79397739D01*
X143485790Y-79452012D01*
X143502769Y-79459045D01*
X143502773Y-79459045D01*
X143502774Y-79459046D01*
X143659894Y-79490300D01*
X143659897Y-79490300D01*
X143820105Y-79490300D01*
X143925813Y-79469272D01*
X143977231Y-79459045D01*
X144125242Y-79397737D01*
X144258448Y-79308731D01*
X144371731Y-79195448D01*
X144460737Y-79062242D01*
X144522045Y-78914231D01*
X144553300Y-78757103D01*
X144553300Y-78596897D01*
X144553300Y-78596894D01*
X144522046Y-78439774D01*
X144522045Y-78439773D01*
X144522045Y-78439769D01*
X144514636Y-78421882D01*
X144460739Y-78291762D01*
X144460738Y-78291760D01*
X144459762Y-78290300D01*
X144371731Y-78158552D01*
X144371728Y-78158548D01*
X144258451Y-78045271D01*
X144258447Y-78045268D01*
X144125239Y-77956261D01*
X144125237Y-77956260D01*
X143977235Y-77894956D01*
X143977225Y-77894953D01*
X143820105Y-77863700D01*
X143820103Y-77863700D01*
X143659897Y-77863700D01*
X143659895Y-77863700D01*
X143502774Y-77894953D01*
X143502764Y-77894956D01*
X143354762Y-77956260D01*
X143354760Y-77956261D01*
X143221552Y-78045268D01*
X143221548Y-78045271D01*
X143108271Y-78158548D01*
X143108268Y-78158552D01*
X143019261Y-78291760D01*
X143019260Y-78291762D01*
X142957956Y-78439764D01*
X142957953Y-78439774D01*
X142926700Y-78596894D01*
X142926700Y-78596897D01*
X142926700Y-78757103D01*
X142926700Y-78757105D01*
X142926699Y-78757105D01*
X135853300Y-78757105D01*
X135853300Y-78696894D01*
X135837009Y-78614997D01*
X135837009Y-78614996D01*
X135822046Y-78539776D01*
X135822046Y-78539774D01*
X135822045Y-78539769D01*
X135770062Y-78414271D01*
X135760739Y-78391762D01*
X135760738Y-78391760D01*
X135671731Y-78258552D01*
X135671728Y-78258548D01*
X135558451Y-78145271D01*
X135558447Y-78145268D01*
X135425239Y-78056261D01*
X135425237Y-78056260D01*
X135277235Y-77994956D01*
X135277225Y-77994953D01*
X135120105Y-77963700D01*
X135120103Y-77963700D01*
X134959897Y-77963700D01*
X134959895Y-77963700D01*
X134802774Y-77994953D01*
X134802764Y-77994956D01*
X134654762Y-78056260D01*
X134654760Y-78056261D01*
X134521552Y-78145268D01*
X134521548Y-78145271D01*
X134408271Y-78258548D01*
X134408268Y-78258552D01*
X134319261Y-78391760D01*
X134319260Y-78391762D01*
X134257956Y-78539764D01*
X134257953Y-78539774D01*
X134226700Y-78696894D01*
X134226700Y-78696897D01*
X134226700Y-78857103D01*
X134226700Y-78857105D01*
X134226699Y-78857105D01*
X128631660Y-78857105D01*
X128622046Y-78808774D01*
X128622045Y-78808773D01*
X128622045Y-78808769D01*
X128560737Y-78660758D01*
X128471731Y-78527552D01*
X128471728Y-78527548D01*
X128358451Y-78414271D01*
X128358447Y-78414268D01*
X128225239Y-78325261D01*
X128225237Y-78325260D01*
X128077235Y-78263956D01*
X128077225Y-78263953D01*
X127920105Y-78232700D01*
X127920103Y-78232700D01*
X127759897Y-78232700D01*
X127759895Y-78232700D01*
X127602774Y-78263953D01*
X127602764Y-78263956D01*
X127454762Y-78325260D01*
X127454760Y-78325261D01*
X127321552Y-78414268D01*
X127321548Y-78414271D01*
X127208271Y-78527548D01*
X127208268Y-78527552D01*
X127119261Y-78660760D01*
X127119260Y-78660762D01*
X127057956Y-78808764D01*
X127057953Y-78808774D01*
X127026700Y-78965894D01*
X127026700Y-78965897D01*
X127026700Y-79126103D01*
X127026700Y-79126105D01*
X127026699Y-79126105D01*
X125539285Y-79126105D01*
X125458451Y-79045271D01*
X125458447Y-79045268D01*
X125325239Y-78956261D01*
X125325237Y-78956260D01*
X125177235Y-78894956D01*
X125177225Y-78894953D01*
X125020105Y-78863700D01*
X125020103Y-78863700D01*
X124859897Y-78863700D01*
X124859895Y-78863700D01*
X124702774Y-78894953D01*
X124702764Y-78894956D01*
X124554762Y-78956260D01*
X124554755Y-78956264D01*
X124467915Y-79014289D01*
X124401238Y-79035167D01*
X124351573Y-79025748D01*
X124277235Y-78994956D01*
X124277225Y-78994953D01*
X124120105Y-78963700D01*
X124120103Y-78963700D01*
X123959897Y-78963700D01*
X123959895Y-78963700D01*
X123802774Y-78994953D01*
X123802764Y-78994956D01*
X123654762Y-79056260D01*
X123654760Y-79056261D01*
X123521552Y-79145268D01*
X123521548Y-79145271D01*
X123408271Y-79258548D01*
X123408268Y-79258552D01*
X123319261Y-79391760D01*
X123319260Y-79391762D01*
X123257956Y-79539764D01*
X123257953Y-79539774D01*
X123226700Y-79696894D01*
X123226700Y-79696897D01*
X123226700Y-79857103D01*
X123226700Y-79857105D01*
X123226699Y-79857105D01*
X107580656Y-79857105D01*
X107692004Y-79776206D01*
X107843206Y-79625004D01*
X107968894Y-79452009D01*
X108065972Y-79261483D01*
X108132049Y-79058116D01*
X108165500Y-78846916D01*
X108165500Y-78633084D01*
X108132049Y-78421884D01*
X108099010Y-78320200D01*
X108065973Y-78218519D01*
X108065972Y-78218516D01*
X107984717Y-78059045D01*
X107968894Y-78027991D01*
X107843206Y-77854996D01*
X107692004Y-77703794D01*
X107668757Y-77686904D01*
X107626091Y-77631574D01*
X107620112Y-77561961D01*
X107652718Y-77500166D01*
X107667331Y-77487319D01*
X107675735Y-77481028D01*
X107766261Y-77413261D01*
X107808299Y-77357105D01*
X120226699Y-77357105D01*
X120257953Y-77514225D01*
X120257956Y-77514235D01*
X120319260Y-77662237D01*
X120319261Y-77662239D01*
X120408268Y-77795447D01*
X120408271Y-77795451D01*
X120521548Y-77908728D01*
X120521552Y-77908731D01*
X120654758Y-77997737D01*
X120654759Y-77997737D01*
X120654760Y-77997738D01*
X120654762Y-77997739D01*
X120802764Y-78059043D01*
X120802769Y-78059045D01*
X120802773Y-78059045D01*
X120802774Y-78059046D01*
X120959894Y-78090300D01*
X120959897Y-78090300D01*
X121120105Y-78090300D01*
X121225813Y-78069272D01*
X121277231Y-78059045D01*
X121425242Y-77997737D01*
X121558448Y-77908731D01*
X121671731Y-77795448D01*
X121760737Y-77662242D01*
X121804286Y-77557105D01*
X123226699Y-77557105D01*
X123257953Y-77714225D01*
X123257956Y-77714235D01*
X123319260Y-77862237D01*
X123319261Y-77862239D01*
X123408268Y-77995447D01*
X123408271Y-77995451D01*
X123521548Y-78108728D01*
X123521552Y-78108731D01*
X123654758Y-78197737D01*
X123654759Y-78197737D01*
X123654760Y-78197738D01*
X123654762Y-78197739D01*
X123704925Y-78218517D01*
X123802769Y-78259045D01*
X123802773Y-78259045D01*
X123802774Y-78259046D01*
X123959894Y-78290300D01*
X123959897Y-78290300D01*
X124120105Y-78290300D01*
X124225813Y-78269272D01*
X124277231Y-78259045D01*
X124425242Y-78197737D01*
X124473815Y-78165280D01*
X124540490Y-78144402D01*
X124590157Y-78153821D01*
X124602769Y-78159045D01*
X124602773Y-78159045D01*
X124602774Y-78159046D01*
X124759894Y-78190300D01*
X124759897Y-78190300D01*
X124920105Y-78190300D01*
X125025813Y-78169272D01*
X125077231Y-78159045D01*
X125225242Y-78097737D01*
X125358448Y-78008731D01*
X125471731Y-77895448D01*
X125560737Y-77762242D01*
X125622045Y-77614231D01*
X125634426Y-77551988D01*
X125653300Y-77457105D01*
X125653300Y-77296894D01*
X125622046Y-77139774D01*
X125622045Y-77139773D01*
X125622045Y-77139769D01*
X125560737Y-76991758D01*
X125471731Y-76858552D01*
X125471728Y-76858548D01*
X125358451Y-76745271D01*
X125358447Y-76745268D01*
X125225239Y-76656261D01*
X125225237Y-76656260D01*
X125077235Y-76594956D01*
X125077225Y-76594953D01*
X124920105Y-76563700D01*
X124920103Y-76563700D01*
X124759897Y-76563700D01*
X124759895Y-76563700D01*
X124602774Y-76594953D01*
X124602764Y-76594956D01*
X124454764Y-76656259D01*
X124454748Y-76656268D01*
X124406181Y-76688719D01*
X124339504Y-76709596D01*
X124289842Y-76700178D01*
X124277235Y-76694956D01*
X124277225Y-76694953D01*
X124120105Y-76663700D01*
X124120103Y-76663700D01*
X123959897Y-76663700D01*
X123959895Y-76663700D01*
X123802774Y-76694953D01*
X123802764Y-76694956D01*
X123654762Y-76756260D01*
X123654760Y-76756261D01*
X123521552Y-76845268D01*
X123521548Y-76845271D01*
X123408271Y-76958548D01*
X123408268Y-76958552D01*
X123319261Y-77091760D01*
X123319260Y-77091762D01*
X123257956Y-77239764D01*
X123257953Y-77239774D01*
X123226700Y-77396894D01*
X123226700Y-77396897D01*
X123226700Y-77557103D01*
X123226700Y-77557105D01*
X123226699Y-77557105D01*
X121804286Y-77557105D01*
X121822045Y-77514231D01*
X121843338Y-77407187D01*
X121851404Y-77366636D01*
X121851408Y-77366615D01*
X121851913Y-77364075D01*
X121853300Y-77357103D01*
X121853300Y-77196897D01*
X121853300Y-77196894D01*
X121822046Y-77039774D01*
X121822045Y-77039773D01*
X121822045Y-77039769D01*
X121760737Y-76891758D01*
X121671731Y-76758552D01*
X121671728Y-76758548D01*
X121558451Y-76645271D01*
X121558447Y-76645268D01*
X121425239Y-76556261D01*
X121425237Y-76556260D01*
X121277235Y-76494956D01*
X121277225Y-76494953D01*
X121120105Y-76463700D01*
X121120103Y-76463700D01*
X120959897Y-76463700D01*
X120959895Y-76463700D01*
X120802774Y-76494953D01*
X120802764Y-76494956D01*
X120654762Y-76556260D01*
X120654760Y-76556261D01*
X120521552Y-76645268D01*
X120521548Y-76645271D01*
X120408271Y-76758548D01*
X120408268Y-76758552D01*
X120319261Y-76891760D01*
X120319260Y-76891762D01*
X120257956Y-77039764D01*
X120257953Y-77039774D01*
X120226700Y-77196894D01*
X120226700Y-77196897D01*
X120226700Y-77357103D01*
X120226700Y-77357105D01*
X120226699Y-77357105D01*
X107808299Y-77357105D01*
X107853889Y-77296204D01*
X107904989Y-77159201D01*
X107907079Y-77139764D01*
X107911499Y-77098654D01*
X107911500Y-77098637D01*
X107911500Y-76157105D01*
X126626699Y-76157105D01*
X126657953Y-76314225D01*
X126657956Y-76314235D01*
X126719260Y-76462237D01*
X126719261Y-76462239D01*
X126808268Y-76595447D01*
X126808271Y-76595451D01*
X126921548Y-76708728D01*
X126921552Y-76708731D01*
X127054758Y-76797737D01*
X127054759Y-76797737D01*
X127054760Y-76797738D01*
X127054762Y-76797739D01*
X127201569Y-76858548D01*
X127202769Y-76859045D01*
X127202773Y-76859045D01*
X127202774Y-76859046D01*
X127359894Y-76890300D01*
X127359897Y-76890300D01*
X127520105Y-76890300D01*
X127625813Y-76869272D01*
X127677231Y-76859045D01*
X127825242Y-76797737D01*
X127958448Y-76708731D01*
X128071731Y-76595448D01*
X128160737Y-76462242D01*
X128222045Y-76314231D01*
X128241936Y-76214235D01*
X128253300Y-76157105D01*
X128253300Y-76057105D01*
X133626699Y-76057105D01*
X133657953Y-76214225D01*
X133657956Y-76214235D01*
X133719260Y-76362237D01*
X133719261Y-76362239D01*
X133808268Y-76495447D01*
X133808271Y-76495451D01*
X133921548Y-76608728D01*
X133921552Y-76608731D01*
X134054758Y-76697737D01*
X134054759Y-76697737D01*
X134054760Y-76697738D01*
X134054762Y-76697739D01*
X134201569Y-76758548D01*
X134202769Y-76759045D01*
X134202773Y-76759045D01*
X134202774Y-76759046D01*
X134359894Y-76790300D01*
X134359897Y-76790300D01*
X134520105Y-76790300D01*
X134625813Y-76769272D01*
X134677231Y-76759045D01*
X134825242Y-76697737D01*
X134958448Y-76608731D01*
X135071731Y-76495448D01*
X135160737Y-76362242D01*
X135222045Y-76214231D01*
X135233409Y-76157103D01*
X135253300Y-76057105D01*
X135253300Y-75896894D01*
X135222046Y-75739774D01*
X135222045Y-75739773D01*
X135222045Y-75739769D01*
X135222043Y-75739764D01*
X135160739Y-75591762D01*
X135160738Y-75591760D01*
X135138546Y-75558548D01*
X135071731Y-75458552D01*
X135071728Y-75458548D01*
X134958451Y-75345271D01*
X134958447Y-75345268D01*
X134825239Y-75256261D01*
X134825237Y-75256260D01*
X134677235Y-75194956D01*
X134677225Y-75194953D01*
X134520105Y-75163700D01*
X134520103Y-75163700D01*
X134359897Y-75163700D01*
X134359895Y-75163700D01*
X134202774Y-75194953D01*
X134202764Y-75194956D01*
X134054762Y-75256260D01*
X134054760Y-75256261D01*
X133921552Y-75345268D01*
X133921548Y-75345271D01*
X133808271Y-75458548D01*
X133808268Y-75458552D01*
X133719261Y-75591760D01*
X133719260Y-75591762D01*
X133657956Y-75739764D01*
X133657953Y-75739774D01*
X133626700Y-75896894D01*
X133626700Y-75896897D01*
X133626700Y-76057103D01*
X133626700Y-76057105D01*
X133626699Y-76057105D01*
X128253300Y-76057105D01*
X128253300Y-75996894D01*
X128237009Y-75914997D01*
X128237009Y-75914996D01*
X128222046Y-75839776D01*
X128222046Y-75839774D01*
X128222045Y-75839769D01*
X128160737Y-75691758D01*
X128071731Y-75558552D01*
X128071728Y-75558548D01*
X127958451Y-75445271D01*
X127958447Y-75445268D01*
X127825239Y-75356261D01*
X127825237Y-75356260D01*
X127677235Y-75294956D01*
X127677225Y-75294953D01*
X127520105Y-75263700D01*
X127520103Y-75263700D01*
X127359897Y-75263700D01*
X127359895Y-75263700D01*
X127202774Y-75294953D01*
X127202764Y-75294956D01*
X127054762Y-75356260D01*
X127054760Y-75356261D01*
X126921552Y-75445268D01*
X126921548Y-75445271D01*
X126808271Y-75558548D01*
X126808268Y-75558552D01*
X126719261Y-75691760D01*
X126719260Y-75691762D01*
X126657956Y-75839764D01*
X126657953Y-75839774D01*
X126626700Y-75996894D01*
X126626700Y-75996897D01*
X126626700Y-76157103D01*
X126626700Y-76157105D01*
X126626699Y-76157105D01*
X107911500Y-76157105D01*
X107911500Y-75301362D01*
X107911499Y-75301345D01*
X107907451Y-75263700D01*
X107904989Y-75240799D01*
X107853889Y-75103796D01*
X107766261Y-74986739D01*
X107649204Y-74899111D01*
X107512203Y-74848011D01*
X107451654Y-74841500D01*
X107451638Y-74841500D01*
X105654362Y-74841500D01*
X105654345Y-74841500D01*
X105593797Y-74848011D01*
X105593795Y-74848011D01*
X105456795Y-74899111D01*
X105339739Y-74986739D01*
X105252111Y-75103795D01*
X105201011Y-75240795D01*
X105201011Y-75240797D01*
X105194500Y-75301345D01*
X104215500Y-75301345D01*
X104215500Y-73664875D01*
X104215882Y-73655147D01*
X104229440Y-73482867D01*
X104229440Y-73482866D01*
X104232482Y-73463655D01*
X104271687Y-73300357D01*
X104277695Y-73281868D01*
X104341961Y-73126713D01*
X104350784Y-73109398D01*
X104438530Y-72966209D01*
X104449966Y-72950470D01*
X104559027Y-72822776D01*
X104572776Y-72809027D01*
X104700472Y-72699964D01*
X104716212Y-72688529D01*
X104859398Y-72600784D01*
X104876713Y-72591961D01*
X105031868Y-72527695D01*
X105050357Y-72521687D01*
X105213655Y-72482482D01*
X105232861Y-72479440D01*
X105380383Y-72467830D01*
X105405147Y-72465882D01*
X105414875Y-72465500D01*
X105434531Y-72465500D01*
X151105469Y-72465500D01*
X151125125Y-72465500D01*
X151134853Y-72465882D01*
G37*
%TD.AperFunction*%
%TD*%
M02*
