%TF.GenerationSoftware,KiCad,Pcbnew,10.0.2*%
%TF.CreationDate,2026-06-15T11:04:02-04:00*%
%TF.ProjectId,IMUBreakout-v2,494d5542-7265-4616-9b6f-75742d76322e,rev?*%
%TF.SameCoordinates,Original*%
%TF.FileFunction,Copper,L3,Inr*%
%TF.FilePolarity,Positive*%
%FSLAX46Y46*%
G04 Gerber Fmt 4.6, Leading zero omitted, Abs format (unit mm)*
G04 Created by KiCad (PCBNEW 10.0.2) date 2026-06-15 11:04:02*
%MOMM*%
%LPD*%
G01*
G04 APERTURE LIST*
%TA.AperFunction,ComponentPad*%
%ADD10R,1.700000X1.700000*%
%TD*%
%TA.AperFunction,ComponentPad*%
%ADD11O,1.700000X1.700000*%
%TD*%
%TA.AperFunction,ViaPad*%
%ADD12C,0.609600*%
%TD*%
G04 APERTURE END LIST*
D10*
%TO.N,/MX_MISO*%
%TO.C,J3*%
X106553000Y-76200000D03*
D11*
%TO.N,/MX_MOSI*%
X106807000Y-78740000D03*
%TO.N,unconnected-(J3-Pin_3-Pad3)*%
X106553000Y-81280000D03*
%TO.N,unconnected-(J3-Pin_4-Pad4)*%
X106807000Y-83820000D03*
%TO.N,GND*%
X106553000Y-86360000D03*
X106807000Y-88900000D03*
%TO.N,+1V8*%
X106553000Y-91440000D03*
%TO.N,/WKUP1*%
X106807000Y-93980000D03*
%TO.N,unconnected-(J3-Pin_9-Pad9)*%
X106553000Y-96520000D03*
%TO.N,/AK_TRG*%
X106807000Y-99060000D03*
%TO.N,/AK_CS*%
X106553000Y-101600000D03*
%TO.N,unconnected-(J3-Pin_12-Pad12)*%
X106807000Y-104140000D03*
%TO.N,/LSM_CK*%
X106553000Y-106680000D03*
%TO.N,/LSM_MISO*%
X106807000Y-109220000D03*
%TO.N,/LSM_MOSI*%
X106553000Y-111760000D03*
%TO.N,/LSM_CS*%
X106807000Y-114300000D03*
%TO.N,GND*%
X106553000Y-116840000D03*
%TD*%
D10*
%TO.N,+1V8*%
%TO.C,J4*%
X149733000Y-76200000D03*
D11*
%TO.N,/MX_SCK*%
X149987000Y-78740000D03*
%TO.N,/MX_nCS*%
X149733000Y-81280000D03*
%TO.N,/LPS_MOSI*%
X149987000Y-83820000D03*
%TO.N,/LPS_MISO*%
X149733000Y-86360000D03*
%TO.N,/LPS_CS*%
X149987000Y-88900000D03*
%TO.N,/LPS_DRDY*%
X149733000Y-91440000D03*
%TO.N,/LSM_TRG*%
X149987000Y-93980000D03*
%TO.N,GND*%
X149733000Y-96520000D03*
X149987000Y-99060000D03*
X149733000Y-101600000D03*
X149987000Y-104140000D03*
X149733000Y-106680000D03*
X149987000Y-109220000D03*
X149733000Y-111760000D03*
%TO.N,unconnected-(J4-Pin_16-Pad16)*%
X149987000Y-114300000D03*
%TO.N,GND*%
X149733000Y-116840000D03*
%TD*%
D12*
%TO.N,+1V8*%
X124840000Y-89677000D03*
X127340000Y-102777000D03*
X130640000Y-76077000D03*
X126568200Y-89748800D03*
X130640000Y-78877000D03*
X126840000Y-95077000D03*
X131840000Y-97277000D03*
X131006000Y-102743000D03*
%TO.N,GND*%
X126540000Y-86277000D03*
X146540000Y-84977000D03*
X128854200Y-88087200D03*
X112440000Y-100377000D03*
X131013200Y-94603800D03*
X145940000Y-90577000D03*
X124840000Y-77377000D03*
X143740000Y-78677000D03*
X138540000Y-87177000D03*
X138140000Y-84977000D03*
X134440000Y-75977000D03*
X131940000Y-86877000D03*
X129040000Y-85577000D03*
X126040000Y-105177000D03*
X127840000Y-79046000D03*
X124206000Y-96012000D03*
X135040000Y-78777000D03*
X141440000Y-90777000D03*
X121040000Y-77277000D03*
X146040000Y-87477000D03*
X128905000Y-100203000D03*
X133140000Y-103177000D03*
X124040000Y-79777000D03*
X134140000Y-89477000D03*
X130040000Y-105277000D03*
X133540000Y-84446000D03*
X132040000Y-84546000D03*
X124942600Y-86055200D03*
X119540000Y-101677000D03*
X132540000Y-98577000D03*
X113040000Y-104077000D03*
X128240000Y-105277000D03*
X136840000Y-88477000D03*
X127440000Y-76077000D03*
X134940000Y-83977000D03*
X119040000Y-96377000D03*
%TO.N,/AK_TRG*%
X127127000Y-97336800D03*
X129794000Y-97663000D03*
%TO.N,/AK_CS*%
X126746000Y-98598800D03*
X129159000Y-98294000D03*
%TO.N,/LSM_CK*%
X128295400Y-97967800D03*
X115633500Y-98869500D03*
X118048185Y-96454815D03*
%TO.N,/LSM_MOSI*%
X124587000Y-100076000D03*
X124714000Y-98933000D03*
%TO.N,/LPS_MOSI*%
X130352800Y-88087200D03*
X132588000Y-87503000D03*
%TO.N,/LPS_CS*%
X138040000Y-88777000D03*
X130540000Y-85077000D03*
%TO.N,/LPS_DRDY*%
X128397000Y-86360000D03*
X134493000Y-88646000D03*
%TO.N,/WKUP1*%
X117983000Y-97282000D03*
X118999000Y-100711000D03*
%TO.N,/LSM_CS*%
X131572000Y-98679000D03*
X132207000Y-103251000D03*
%TO.N,/MX_MISO*%
X124040000Y-77477000D03*
X124940000Y-79677000D03*
%TD*%
%TA.AperFunction,Conductor*%
%TO.N,GND*%
G36*
X151134853Y-72465882D02*
G01*
X151164568Y-72468220D01*
X151307136Y-72479440D01*
X151326346Y-72482483D01*
X151489638Y-72521686D01*
X151508135Y-72527696D01*
X151663280Y-72591959D01*
X151680606Y-72600787D01*
X151734330Y-72633709D01*
X151823787Y-72688529D01*
X151839529Y-72699966D01*
X151967218Y-72809023D01*
X151980976Y-72822781D01*
X152090033Y-72950470D01*
X152101470Y-72966212D01*
X152189209Y-73109387D01*
X152198043Y-73126725D01*
X152262301Y-73281860D01*
X152268314Y-73300365D01*
X152307515Y-73463648D01*
X152310559Y-73482866D01*
X152324118Y-73655146D01*
X152324500Y-73664875D01*
X152324500Y-119375124D01*
X152324118Y-119384852D01*
X152324118Y-119384853D01*
X152310559Y-119557133D01*
X152307515Y-119576351D01*
X152268314Y-119739634D01*
X152262301Y-119758139D01*
X152198043Y-119913274D01*
X152189209Y-119930612D01*
X152101470Y-120073787D01*
X152090033Y-120089529D01*
X151980976Y-120217218D01*
X151967218Y-120230976D01*
X151839529Y-120340033D01*
X151823787Y-120351470D01*
X151680612Y-120439209D01*
X151663274Y-120448043D01*
X151508139Y-120512301D01*
X151489634Y-120518314D01*
X151326351Y-120557515D01*
X151307133Y-120560559D01*
X151134854Y-120574118D01*
X151125125Y-120574500D01*
X105414875Y-120574500D01*
X105405146Y-120574118D01*
X105232866Y-120560559D01*
X105213648Y-120557515D01*
X105050365Y-120518314D01*
X105031860Y-120512301D01*
X104876725Y-120448043D01*
X104859387Y-120439209D01*
X104716212Y-120351470D01*
X104700470Y-120340033D01*
X104572781Y-120230976D01*
X104559023Y-120217218D01*
X104449966Y-120089529D01*
X104438529Y-120073787D01*
X104402664Y-120015262D01*
X104350787Y-119930606D01*
X104341959Y-119913280D01*
X104277696Y-119758135D01*
X104271685Y-119739634D01*
X104232484Y-119576351D01*
X104229440Y-119557132D01*
X104215882Y-119384852D01*
X104215500Y-119375124D01*
X104215500Y-75301345D01*
X105194500Y-75301345D01*
X105194500Y-77098654D01*
X105201011Y-77159202D01*
X105201011Y-77159204D01*
X105231063Y-77239774D01*
X105252111Y-77296204D01*
X105339739Y-77413261D01*
X105456796Y-77500889D01*
X105593799Y-77551989D01*
X105621050Y-77554918D01*
X105654345Y-77558499D01*
X105654362Y-77558500D01*
X105767928Y-77558500D01*
X105834967Y-77578185D01*
X105880722Y-77630989D01*
X105890666Y-77700147D01*
X105861641Y-77763703D01*
X105855609Y-77770181D01*
X105770796Y-77854993D01*
X105645106Y-78027990D01*
X105548027Y-78218516D01*
X105548026Y-78218519D01*
X105481951Y-78421882D01*
X105448500Y-78633084D01*
X105448500Y-78846915D01*
X105481951Y-79058117D01*
X105548026Y-79261480D01*
X105548027Y-79261483D01*
X105616288Y-79395451D01*
X105645106Y-79452009D01*
X105770794Y-79625004D01*
X105921996Y-79776206D01*
X106001503Y-79833971D01*
X106044168Y-79889301D01*
X106050147Y-79958915D01*
X106017541Y-80020710D01*
X105984912Y-80044774D01*
X105840990Y-80118106D01*
X105667993Y-80243796D01*
X105516796Y-80394993D01*
X105391106Y-80567990D01*
X105294027Y-80758516D01*
X105294026Y-80758519D01*
X105227951Y-80961882D01*
X105194500Y-81173084D01*
X105194500Y-81386915D01*
X105227951Y-81598117D01*
X105294026Y-81801480D01*
X105294027Y-81801483D01*
X105391106Y-81992009D01*
X105516794Y-82165004D01*
X105667996Y-82316206D01*
X105840991Y-82441894D01*
X105984913Y-82515226D01*
X106035708Y-82563199D01*
X106052503Y-82631020D01*
X106029966Y-82697155D01*
X106001504Y-82726027D01*
X105921996Y-82783793D01*
X105770796Y-82934993D01*
X105645106Y-83107990D01*
X105548027Y-83298516D01*
X105548026Y-83298519D01*
X105481951Y-83501882D01*
X105448500Y-83713084D01*
X105448500Y-83926915D01*
X105481951Y-84138117D01*
X105548026Y-84341480D01*
X105548027Y-84341483D01*
X105645106Y-84532009D01*
X105770794Y-84705004D01*
X105921996Y-84856206D01*
X106009221Y-84919579D01*
X106051887Y-84974907D01*
X106057866Y-85044521D01*
X106025261Y-85106316D01*
X105992632Y-85130380D01*
X105845444Y-85205377D01*
X105673540Y-85330272D01*
X105673535Y-85330276D01*
X105523276Y-85480535D01*
X105523272Y-85480540D01*
X105398379Y-85652442D01*
X105301904Y-85841782D01*
X105236242Y-86043870D01*
X105236242Y-86043873D01*
X105225769Y-86110000D01*
X106119988Y-86110000D01*
X106087075Y-86167007D01*
X106053000Y-86294174D01*
X106053000Y-86425826D01*
X106087075Y-86552993D01*
X106119988Y-86610000D01*
X105225769Y-86610000D01*
X105236242Y-86676126D01*
X105236242Y-86676129D01*
X105301904Y-86878217D01*
X105398379Y-87067557D01*
X105523272Y-87239459D01*
X105523276Y-87239464D01*
X105673535Y-87389723D01*
X105673540Y-87389727D01*
X105845442Y-87514620D01*
X106001131Y-87593949D01*
X106051927Y-87641924D01*
X106068722Y-87709745D01*
X106046184Y-87775880D01*
X106017722Y-87804752D01*
X105927535Y-87870276D01*
X105777276Y-88020535D01*
X105777272Y-88020540D01*
X105652379Y-88192442D01*
X105555904Y-88381782D01*
X105490242Y-88583870D01*
X105490242Y-88583873D01*
X105479769Y-88650000D01*
X106373988Y-88650000D01*
X106341075Y-88707007D01*
X106307000Y-88834174D01*
X106307000Y-88965826D01*
X106341075Y-89092993D01*
X106373988Y-89150000D01*
X105479769Y-89150000D01*
X105490242Y-89216126D01*
X105490242Y-89216129D01*
X105555904Y-89418217D01*
X105652379Y-89607557D01*
X105777272Y-89779459D01*
X105777276Y-89779464D01*
X105927535Y-89929723D01*
X105927540Y-89929727D01*
X106010002Y-89989639D01*
X106052668Y-90044968D01*
X106058647Y-90114582D01*
X106026042Y-90176377D01*
X105993413Y-90200441D01*
X105840992Y-90278104D01*
X105667993Y-90403796D01*
X105516796Y-90554993D01*
X105391106Y-90727990D01*
X105294027Y-90918516D01*
X105294026Y-90918519D01*
X105227951Y-91121882D01*
X105194500Y-91333084D01*
X105194500Y-91546915D01*
X105227951Y-91758117D01*
X105294026Y-91961480D01*
X105294027Y-91961483D01*
X105391106Y-92152009D01*
X105516794Y-92325004D01*
X105667996Y-92476206D01*
X105840991Y-92601894D01*
X105984913Y-92675226D01*
X106035708Y-92723199D01*
X106052503Y-92791020D01*
X106029966Y-92857155D01*
X106001504Y-92886027D01*
X105921996Y-92943793D01*
X105770796Y-93094993D01*
X105645106Y-93267990D01*
X105548027Y-93458516D01*
X105548026Y-93458519D01*
X105481951Y-93661882D01*
X105448500Y-93873084D01*
X105448500Y-94086915D01*
X105481951Y-94298117D01*
X105548026Y-94501480D01*
X105548027Y-94501483D01*
X105644978Y-94691758D01*
X105645106Y-94692009D01*
X105770794Y-94865004D01*
X105921996Y-95016206D01*
X106001503Y-95073971D01*
X106044168Y-95129301D01*
X106050147Y-95198915D01*
X106017541Y-95260710D01*
X105984912Y-95284774D01*
X105840990Y-95358106D01*
X105667993Y-95483796D01*
X105516796Y-95634993D01*
X105391106Y-95807990D01*
X105294027Y-95998516D01*
X105294026Y-95998519D01*
X105227951Y-96201882D01*
X105194500Y-96413084D01*
X105194500Y-96626915D01*
X105227951Y-96838117D01*
X105294026Y-97041480D01*
X105294027Y-97041483D01*
X105375763Y-97201897D01*
X105391106Y-97232009D01*
X105516794Y-97405004D01*
X105667996Y-97556206D01*
X105840991Y-97681894D01*
X105984913Y-97755226D01*
X106035708Y-97803199D01*
X106052503Y-97871020D01*
X106029966Y-97937155D01*
X106001504Y-97966027D01*
X105921996Y-98023793D01*
X105770796Y-98174993D01*
X105645106Y-98347990D01*
X105548027Y-98538516D01*
X105548026Y-98538519D01*
X105481951Y-98741882D01*
X105448500Y-98953084D01*
X105448500Y-99166915D01*
X105481951Y-99378117D01*
X105548026Y-99581480D01*
X105548027Y-99581483D01*
X105642838Y-99767557D01*
X105645106Y-99772009D01*
X105770794Y-99945004D01*
X105921996Y-100096206D01*
X106001503Y-100153971D01*
X106044168Y-100209301D01*
X106050147Y-100278915D01*
X106017541Y-100340710D01*
X105984912Y-100364774D01*
X105840990Y-100438106D01*
X105667993Y-100563796D01*
X105516796Y-100714993D01*
X105391106Y-100887990D01*
X105294027Y-101078516D01*
X105294026Y-101078519D01*
X105227951Y-101281882D01*
X105194500Y-101493084D01*
X105194500Y-101706915D01*
X105227951Y-101918117D01*
X105294026Y-102121480D01*
X105294027Y-102121483D01*
X105346542Y-102224548D01*
X105391106Y-102312009D01*
X105516794Y-102485004D01*
X105667996Y-102636206D01*
X105840991Y-102761894D01*
X105984913Y-102835226D01*
X106035708Y-102883199D01*
X106052503Y-102951020D01*
X106029966Y-103017155D01*
X106001504Y-103046027D01*
X105921996Y-103103793D01*
X105770796Y-103254993D01*
X105645106Y-103427990D01*
X105548027Y-103618516D01*
X105548026Y-103618519D01*
X105481951Y-103821882D01*
X105448500Y-104033084D01*
X105448500Y-104246915D01*
X105481951Y-104458117D01*
X105548026Y-104661480D01*
X105548027Y-104661483D01*
X105642838Y-104847557D01*
X105645106Y-104852009D01*
X105770794Y-105025004D01*
X105921996Y-105176206D01*
X106001503Y-105233971D01*
X106044168Y-105289301D01*
X106050147Y-105358915D01*
X106017541Y-105420710D01*
X105984912Y-105444774D01*
X105840990Y-105518106D01*
X105667993Y-105643796D01*
X105516796Y-105794993D01*
X105391106Y-105967990D01*
X105294027Y-106158516D01*
X105294026Y-106158519D01*
X105227951Y-106361882D01*
X105194500Y-106573084D01*
X105194500Y-106786915D01*
X105227951Y-106998117D01*
X105294026Y-107201480D01*
X105294027Y-107201483D01*
X105388838Y-107387557D01*
X105391106Y-107392009D01*
X105516794Y-107565004D01*
X105667996Y-107716206D01*
X105840991Y-107841894D01*
X105984913Y-107915226D01*
X106035708Y-107963199D01*
X106052503Y-108031020D01*
X106029966Y-108097155D01*
X106001504Y-108126027D01*
X105921996Y-108183793D01*
X105770796Y-108334993D01*
X105645106Y-108507990D01*
X105548027Y-108698516D01*
X105548026Y-108698519D01*
X105481951Y-108901882D01*
X105448500Y-109113084D01*
X105448500Y-109326915D01*
X105481951Y-109538117D01*
X105548026Y-109741480D01*
X105548027Y-109741483D01*
X105642838Y-109927557D01*
X105645106Y-109932009D01*
X105770794Y-110105004D01*
X105921996Y-110256206D01*
X106001503Y-110313971D01*
X106044168Y-110369301D01*
X106050147Y-110438915D01*
X106017541Y-110500710D01*
X105984912Y-110524774D01*
X105840990Y-110598106D01*
X105667993Y-110723796D01*
X105516796Y-110874993D01*
X105391106Y-111047990D01*
X105294027Y-111238516D01*
X105294026Y-111238519D01*
X105227951Y-111441882D01*
X105194500Y-111653084D01*
X105194500Y-111866915D01*
X105227951Y-112078117D01*
X105294026Y-112281480D01*
X105294027Y-112281483D01*
X105388838Y-112467557D01*
X105391106Y-112472009D01*
X105516794Y-112645004D01*
X105667996Y-112796206D01*
X105840991Y-112921894D01*
X105984913Y-112995226D01*
X106035708Y-113043199D01*
X106052503Y-113111020D01*
X106029966Y-113177155D01*
X106001504Y-113206027D01*
X105921996Y-113263793D01*
X105770796Y-113414993D01*
X105645106Y-113587990D01*
X105548027Y-113778516D01*
X105548026Y-113778519D01*
X105481951Y-113981882D01*
X105448500Y-114193084D01*
X105448500Y-114406915D01*
X105481951Y-114618117D01*
X105548026Y-114821480D01*
X105548027Y-114821483D01*
X105645106Y-115012009D01*
X105770794Y-115185004D01*
X105921996Y-115336206D01*
X106009221Y-115399579D01*
X106051887Y-115454907D01*
X106057866Y-115524521D01*
X106025261Y-115586316D01*
X105992632Y-115610380D01*
X105845444Y-115685377D01*
X105673540Y-115810272D01*
X105673535Y-115810276D01*
X105523276Y-115960535D01*
X105523272Y-115960540D01*
X105398379Y-116132442D01*
X105301904Y-116321782D01*
X105236242Y-116523870D01*
X105236242Y-116523873D01*
X105225769Y-116590000D01*
X106119988Y-116590000D01*
X106087075Y-116647007D01*
X106053000Y-116774174D01*
X106053000Y-116905826D01*
X106087075Y-117032993D01*
X106119988Y-117090000D01*
X105225769Y-117090000D01*
X105236242Y-117156126D01*
X105236242Y-117156129D01*
X105301904Y-117358217D01*
X105398379Y-117547557D01*
X105523272Y-117719459D01*
X105523276Y-117719464D01*
X105673535Y-117869723D01*
X105673540Y-117869727D01*
X105845442Y-117994620D01*
X106034782Y-118091095D01*
X106236871Y-118156757D01*
X106303000Y-118167231D01*
X106303000Y-117273012D01*
X106360007Y-117305925D01*
X106487174Y-117340000D01*
X106618826Y-117340000D01*
X106745993Y-117305925D01*
X106803000Y-117273012D01*
X106803000Y-118167230D01*
X106869126Y-118156757D01*
X106869129Y-118156757D01*
X107071217Y-118091095D01*
X107260557Y-117994620D01*
X107432459Y-117869727D01*
X107432464Y-117869723D01*
X107582723Y-117719464D01*
X107582727Y-117719459D01*
X107707620Y-117547557D01*
X107804095Y-117358217D01*
X107869757Y-117156129D01*
X107869757Y-117156126D01*
X107880231Y-117090000D01*
X106986012Y-117090000D01*
X107018925Y-117032993D01*
X107053000Y-116905826D01*
X107053000Y-116774174D01*
X107018925Y-116647007D01*
X106986012Y-116590000D01*
X107880231Y-116590000D01*
X107869757Y-116523873D01*
X107869757Y-116523870D01*
X107804095Y-116321782D01*
X107707620Y-116132442D01*
X107582727Y-115960540D01*
X107582723Y-115960535D01*
X107432464Y-115810276D01*
X107432459Y-115810272D01*
X107349997Y-115750360D01*
X107307331Y-115695030D01*
X107301352Y-115625417D01*
X107333957Y-115563622D01*
X107366587Y-115539557D01*
X107519009Y-115461894D01*
X107692004Y-115336206D01*
X107843206Y-115185004D01*
X107968894Y-115012009D01*
X108065972Y-114821483D01*
X108132049Y-114618116D01*
X108165500Y-114406916D01*
X108165500Y-114193084D01*
X108132049Y-113981884D01*
X108065972Y-113778517D01*
X108065972Y-113778516D01*
X107968893Y-113587990D01*
X107843206Y-113414996D01*
X107692004Y-113263794D01*
X107519009Y-113138106D01*
X107375086Y-113064773D01*
X107324291Y-113016799D01*
X107307496Y-112948978D01*
X107330033Y-112882843D01*
X107358497Y-112853971D01*
X107364461Y-112849638D01*
X107438004Y-112796206D01*
X107589206Y-112645004D01*
X107714894Y-112472009D01*
X107811972Y-112281483D01*
X107878049Y-112078116D01*
X107911500Y-111866916D01*
X107911500Y-111653084D01*
X107878049Y-111441884D01*
X107811972Y-111238517D01*
X107811972Y-111238516D01*
X107762507Y-111141438D01*
X107714894Y-111047991D01*
X107589206Y-110874996D01*
X107438004Y-110723794D01*
X107358496Y-110666028D01*
X107315831Y-110610697D01*
X107309852Y-110541084D01*
X107342458Y-110479289D01*
X107375085Y-110455226D01*
X107519009Y-110381894D01*
X107692004Y-110256206D01*
X107843206Y-110105004D01*
X107968894Y-109932009D01*
X108065972Y-109741483D01*
X108132049Y-109538116D01*
X108165500Y-109326916D01*
X108165500Y-109113084D01*
X108132049Y-108901884D01*
X108065972Y-108698517D01*
X108065972Y-108698516D01*
X108016507Y-108601438D01*
X107968894Y-108507991D01*
X107843206Y-108334996D01*
X107692004Y-108183794D01*
X107519009Y-108058106D01*
X107375086Y-107984773D01*
X107324291Y-107936799D01*
X107307496Y-107868978D01*
X107330033Y-107802843D01*
X107358497Y-107773971D01*
X107438004Y-107716206D01*
X107589206Y-107565004D01*
X107714894Y-107392009D01*
X107811972Y-107201483D01*
X107878049Y-106998116D01*
X107911500Y-106786916D01*
X107911500Y-106573084D01*
X107878049Y-106361884D01*
X107811972Y-106158517D01*
X107811972Y-106158516D01*
X107762507Y-106061438D01*
X107714894Y-105967991D01*
X107589206Y-105794996D01*
X107438004Y-105643794D01*
X107358496Y-105586028D01*
X107315831Y-105530697D01*
X107309852Y-105461084D01*
X107342458Y-105399289D01*
X107375085Y-105375226D01*
X107519009Y-105301894D01*
X107692004Y-105176206D01*
X107843206Y-105025004D01*
X107968894Y-104852009D01*
X108065972Y-104661483D01*
X108132049Y-104458116D01*
X108165500Y-104246916D01*
X108165500Y-104033084D01*
X108132049Y-103821884D01*
X108071730Y-103636239D01*
X108065973Y-103618519D01*
X108065972Y-103618516D01*
X108004431Y-103497737D01*
X107968894Y-103427991D01*
X107843206Y-103254996D01*
X107692004Y-103103794D01*
X107519009Y-102978106D01*
X107375086Y-102904773D01*
X107350171Y-102881241D01*
X107324990Y-102857982D01*
X107324810Y-102857289D01*
X107324615Y-102857105D01*
X126526699Y-102857105D01*
X126557953Y-103014225D01*
X126557956Y-103014235D01*
X126619260Y-103162237D01*
X126619261Y-103162239D01*
X126708268Y-103295447D01*
X126708271Y-103295451D01*
X126821548Y-103408728D01*
X126821552Y-103408731D01*
X126954758Y-103497737D01*
X126954759Y-103497737D01*
X126954760Y-103497738D01*
X126954762Y-103497739D01*
X127096142Y-103556300D01*
X127102769Y-103559045D01*
X127102773Y-103559045D01*
X127102774Y-103559046D01*
X127259894Y-103590300D01*
X127259897Y-103590300D01*
X127420105Y-103590300D01*
X127525813Y-103569272D01*
X127577231Y-103559045D01*
X127725242Y-103497737D01*
X127858448Y-103408731D01*
X127971731Y-103295448D01*
X128060737Y-103162242D01*
X128122045Y-103014231D01*
X128151578Y-102865760D01*
X128153300Y-102857105D01*
X128153300Y-102823105D01*
X130192699Y-102823105D01*
X130223953Y-102980225D01*
X130223956Y-102980235D01*
X130285260Y-103128237D01*
X130285261Y-103128239D01*
X130374268Y-103261447D01*
X130374271Y-103261451D01*
X130487548Y-103374728D01*
X130487552Y-103374731D01*
X130620758Y-103463737D01*
X130620759Y-103463737D01*
X130620760Y-103463738D01*
X130620762Y-103463739D01*
X130702846Y-103497739D01*
X130768769Y-103525045D01*
X130768773Y-103525045D01*
X130768774Y-103525046D01*
X130925894Y-103556300D01*
X130925897Y-103556300D01*
X131086105Y-103556300D01*
X131191813Y-103535272D01*
X131243231Y-103525045D01*
X131296798Y-103502856D01*
X131366265Y-103495388D01*
X131428744Y-103526663D01*
X131458810Y-103569965D01*
X131486261Y-103636239D01*
X131575268Y-103769447D01*
X131575271Y-103769451D01*
X131688548Y-103882728D01*
X131688552Y-103882731D01*
X131821758Y-103971737D01*
X131821759Y-103971737D01*
X131821760Y-103971738D01*
X131821762Y-103971739D01*
X131969764Y-104033043D01*
X131969769Y-104033045D01*
X131969773Y-104033045D01*
X131969774Y-104033046D01*
X132126894Y-104064300D01*
X132126897Y-104064300D01*
X132287105Y-104064300D01*
X132392813Y-104043272D01*
X132444231Y-104033045D01*
X132592242Y-103971737D01*
X132725448Y-103882731D01*
X132838731Y-103769448D01*
X132927737Y-103636242D01*
X132989045Y-103488231D01*
X133011622Y-103374731D01*
X133020300Y-103331105D01*
X133020300Y-103170894D01*
X132989046Y-103013774D01*
X132989045Y-103013773D01*
X132989045Y-103013769D01*
X132963054Y-102951020D01*
X132927739Y-102865762D01*
X132927738Y-102865760D01*
X132923202Y-102858972D01*
X132838731Y-102732552D01*
X132838728Y-102732548D01*
X132725451Y-102619271D01*
X132725447Y-102619268D01*
X132592239Y-102530261D01*
X132592237Y-102530260D01*
X132444235Y-102468956D01*
X132444225Y-102468953D01*
X132287105Y-102437700D01*
X132287103Y-102437700D01*
X132126897Y-102437700D01*
X132126895Y-102437700D01*
X131969774Y-102468953D01*
X131969769Y-102468955D01*
X131916201Y-102491143D01*
X131846732Y-102498610D01*
X131784253Y-102467335D01*
X131754189Y-102424033D01*
X131726739Y-102357762D01*
X131726738Y-102357760D01*
X131693193Y-102307557D01*
X131637731Y-102224552D01*
X131637728Y-102224548D01*
X131524451Y-102111271D01*
X131524447Y-102111268D01*
X131391239Y-102022261D01*
X131391237Y-102022260D01*
X131243235Y-101960956D01*
X131243225Y-101960953D01*
X131110503Y-101934553D01*
X131110502Y-101934552D01*
X131086106Y-101929700D01*
X131086103Y-101929700D01*
X130925897Y-101929700D01*
X130925895Y-101929700D01*
X130768774Y-101960953D01*
X130768764Y-101960956D01*
X130620762Y-102022260D01*
X130620760Y-102022261D01*
X130487552Y-102111268D01*
X130487548Y-102111271D01*
X130374271Y-102224548D01*
X130374268Y-102224552D01*
X130285261Y-102357760D01*
X130285260Y-102357762D01*
X130223956Y-102505764D01*
X130223953Y-102505774D01*
X130192700Y-102662894D01*
X130192700Y-102662897D01*
X130192700Y-102823103D01*
X130192700Y-102823105D01*
X130192699Y-102823105D01*
X128153300Y-102823105D01*
X128153300Y-102696897D01*
X128150137Y-102680995D01*
X128150137Y-102680992D01*
X128122046Y-102539774D01*
X128122045Y-102539773D01*
X128122045Y-102539769D01*
X128122043Y-102539764D01*
X128060739Y-102391762D01*
X128060738Y-102391760D01*
X127971731Y-102258552D01*
X127971728Y-102258548D01*
X127858451Y-102145271D01*
X127858447Y-102145268D01*
X127725239Y-102056261D01*
X127725237Y-102056260D01*
X127577235Y-101994956D01*
X127577225Y-101994953D01*
X127420105Y-101963700D01*
X127420103Y-101963700D01*
X127259897Y-101963700D01*
X127259895Y-101963700D01*
X127102774Y-101994953D01*
X127102764Y-101994956D01*
X126954762Y-102056260D01*
X126954760Y-102056261D01*
X126821552Y-102145268D01*
X126821548Y-102145271D01*
X126708271Y-102258548D01*
X126708268Y-102258552D01*
X126619261Y-102391760D01*
X126619260Y-102391762D01*
X126557956Y-102539764D01*
X126557953Y-102539774D01*
X126526700Y-102696894D01*
X126526700Y-102696897D01*
X126526700Y-102857103D01*
X126526700Y-102857105D01*
X126526699Y-102857105D01*
X107324615Y-102857105D01*
X107324291Y-102856799D01*
X107316054Y-102823539D01*
X107307445Y-102790352D01*
X107307668Y-102789672D01*
X107307496Y-102788978D01*
X107318567Y-102756487D01*
X107329248Y-102723971D01*
X107329863Y-102723339D01*
X107330033Y-102722843D01*
X107353196Y-102698045D01*
X107355787Y-102695939D01*
X107438004Y-102636206D01*
X107589206Y-102485004D01*
X107714894Y-102312009D01*
X107811972Y-102121483D01*
X107878049Y-101918116D01*
X107911500Y-101706916D01*
X107911500Y-101493084D01*
X107878049Y-101281884D01*
X107817730Y-101096239D01*
X107811973Y-101078519D01*
X107811972Y-101078516D01*
X107745585Y-100948225D01*
X107714894Y-100887991D01*
X107644502Y-100791105D01*
X118185699Y-100791105D01*
X118216953Y-100948225D01*
X118216956Y-100948235D01*
X118278260Y-101096237D01*
X118278261Y-101096239D01*
X118367268Y-101229447D01*
X118367271Y-101229451D01*
X118480548Y-101342728D01*
X118480552Y-101342731D01*
X118613758Y-101431737D01*
X118613759Y-101431737D01*
X118613760Y-101431738D01*
X118613762Y-101431739D01*
X118761764Y-101493043D01*
X118761769Y-101493045D01*
X118761773Y-101493045D01*
X118761774Y-101493046D01*
X118918894Y-101524300D01*
X118918897Y-101524300D01*
X119079105Y-101524300D01*
X119184813Y-101503272D01*
X119236231Y-101493045D01*
X119384242Y-101431737D01*
X119517448Y-101342731D01*
X119517451Y-101342728D01*
X119560797Y-101299383D01*
X119630728Y-101229451D01*
X119630731Y-101229448D01*
X119719737Y-101096242D01*
X119781045Y-100948231D01*
X119811179Y-100796738D01*
X119812300Y-100791105D01*
X119812300Y-100630894D01*
X119781046Y-100473774D01*
X119781045Y-100473773D01*
X119781045Y-100473769D01*
X119735898Y-100364774D01*
X119719739Y-100325762D01*
X119719738Y-100325760D01*
X119715414Y-100319289D01*
X119630731Y-100192552D01*
X119630728Y-100192548D01*
X119594285Y-100156105D01*
X123773699Y-100156105D01*
X123804953Y-100313225D01*
X123804956Y-100313235D01*
X123866260Y-100461237D01*
X123866261Y-100461239D01*
X123955268Y-100594447D01*
X123955271Y-100594451D01*
X124068548Y-100707728D01*
X124068552Y-100707731D01*
X124201758Y-100796737D01*
X124201759Y-100796737D01*
X124201760Y-100796738D01*
X124201762Y-100796739D01*
X124349764Y-100858043D01*
X124349769Y-100858045D01*
X124349773Y-100858045D01*
X124349774Y-100858046D01*
X124506894Y-100889300D01*
X124506897Y-100889300D01*
X124667105Y-100889300D01*
X124772813Y-100868272D01*
X124824231Y-100858045D01*
X124972242Y-100796737D01*
X125105448Y-100707731D01*
X125218731Y-100594448D01*
X125307737Y-100461242D01*
X125369045Y-100313231D01*
X125400300Y-100156103D01*
X125400300Y-99995897D01*
X125400300Y-99995894D01*
X125369046Y-99838774D01*
X125369045Y-99838773D01*
X125369045Y-99838769D01*
X125339548Y-99767557D01*
X125307740Y-99690764D01*
X125307736Y-99690757D01*
X125283637Y-99654690D01*
X125262760Y-99588014D01*
X125281244Y-99520634D01*
X125299052Y-99498126D01*
X125345731Y-99451448D01*
X125434737Y-99318242D01*
X125496045Y-99170231D01*
X125517128Y-99064242D01*
X125527300Y-99013105D01*
X125527300Y-98852894D01*
X125496046Y-98695774D01*
X125496045Y-98695773D01*
X125496045Y-98695769D01*
X125493050Y-98688538D01*
X125489060Y-98678905D01*
X125932699Y-98678905D01*
X125963953Y-98836025D01*
X125963956Y-98836035D01*
X126025260Y-98984037D01*
X126025261Y-98984039D01*
X126114268Y-99117247D01*
X126114271Y-99117251D01*
X126227548Y-99230528D01*
X126227552Y-99230531D01*
X126360758Y-99319537D01*
X126360759Y-99319537D01*
X126360760Y-99319538D01*
X126360762Y-99319539D01*
X126502183Y-99378117D01*
X126508769Y-99380845D01*
X126508773Y-99380845D01*
X126508774Y-99380846D01*
X126665894Y-99412100D01*
X126665897Y-99412100D01*
X126826105Y-99412100D01*
X126947527Y-99387947D01*
X126983231Y-99380845D01*
X127131242Y-99319537D01*
X127264448Y-99230531D01*
X127377731Y-99117248D01*
X127466737Y-98984042D01*
X127528045Y-98836031D01*
X127543541Y-98758130D01*
X127559300Y-98678905D01*
X127559897Y-98672843D01*
X127561713Y-98673021D01*
X127578985Y-98614203D01*
X127631789Y-98568448D01*
X127700947Y-98558504D01*
X127764503Y-98587529D01*
X127770981Y-98593561D01*
X127776948Y-98599528D01*
X127776952Y-98599531D01*
X127910158Y-98688537D01*
X127910159Y-98688537D01*
X127910160Y-98688538D01*
X127910162Y-98688539D01*
X128038949Y-98741884D01*
X128058169Y-98749845D01*
X128058173Y-98749845D01*
X128058174Y-98749846D01*
X128215294Y-98781100D01*
X128215297Y-98781100D01*
X128375503Y-98781100D01*
X128410958Y-98774047D01*
X128480548Y-98780273D01*
X128521244Y-98809857D01*
X128522961Y-98808141D01*
X128640548Y-98925728D01*
X128640552Y-98925731D01*
X128773758Y-99014737D01*
X128773759Y-99014737D01*
X128773760Y-99014738D01*
X128773762Y-99014739D01*
X128893274Y-99064242D01*
X128921769Y-99076045D01*
X128921773Y-99076045D01*
X128921774Y-99076046D01*
X129078894Y-99107300D01*
X129078897Y-99107300D01*
X129239105Y-99107300D01*
X129344813Y-99086272D01*
X129396231Y-99076045D01*
X129544242Y-99014737D01*
X129677448Y-98925731D01*
X129790731Y-98812448D01*
X129826374Y-98759105D01*
X130758699Y-98759105D01*
X130789953Y-98916225D01*
X130789956Y-98916235D01*
X130851260Y-99064237D01*
X130851261Y-99064239D01*
X130940268Y-99197447D01*
X130940271Y-99197451D01*
X131053548Y-99310728D01*
X131053552Y-99310731D01*
X131186758Y-99399737D01*
X131186759Y-99399737D01*
X131186760Y-99399738D01*
X131186762Y-99399739D01*
X131332485Y-99460099D01*
X131334769Y-99461045D01*
X131334773Y-99461045D01*
X131334774Y-99461046D01*
X131491894Y-99492300D01*
X131491897Y-99492300D01*
X131652105Y-99492300D01*
X131757813Y-99471272D01*
X131809231Y-99461045D01*
X131957242Y-99399737D01*
X132090448Y-99310731D01*
X132203731Y-99197448D01*
X132292737Y-99064242D01*
X132354045Y-98916231D01*
X132369999Y-98836025D01*
X132385300Y-98759105D01*
X132385300Y-98598894D01*
X132354046Y-98441774D01*
X132354045Y-98441773D01*
X132354045Y-98441769D01*
X132354043Y-98441764D01*
X132292739Y-98293762D01*
X132292738Y-98293760D01*
X132204051Y-98161030D01*
X132183173Y-98094352D01*
X132201658Y-98026972D01*
X132238262Y-97989037D01*
X132358448Y-97908731D01*
X132471731Y-97795448D01*
X132560737Y-97662242D01*
X132622045Y-97514231D01*
X132641405Y-97416903D01*
X132653300Y-97357105D01*
X132653300Y-97196894D01*
X132622046Y-97039774D01*
X132622045Y-97039773D01*
X132622045Y-97039769D01*
X132618524Y-97031268D01*
X132560739Y-96891762D01*
X132560735Y-96891755D01*
X132500648Y-96801828D01*
X132500647Y-96801827D01*
X132471731Y-96758552D01*
X132471728Y-96758548D01*
X132358451Y-96645271D01*
X132358447Y-96645268D01*
X132225239Y-96556261D01*
X132225237Y-96556260D01*
X132077235Y-96494956D01*
X132077225Y-96494953D01*
X131920105Y-96463700D01*
X131920103Y-96463700D01*
X131759897Y-96463700D01*
X131759895Y-96463700D01*
X131602774Y-96494953D01*
X131602764Y-96494956D01*
X131454762Y-96556260D01*
X131454760Y-96556261D01*
X131321552Y-96645268D01*
X131321548Y-96645271D01*
X131208271Y-96758548D01*
X131208268Y-96758552D01*
X131119261Y-96891760D01*
X131119260Y-96891762D01*
X131057956Y-97039764D01*
X131057953Y-97039774D01*
X131026700Y-97196894D01*
X131026700Y-97196897D01*
X131026700Y-97357103D01*
X131026700Y-97357105D01*
X131026699Y-97357105D01*
X131057953Y-97514225D01*
X131057956Y-97514235D01*
X131119260Y-97662237D01*
X131119261Y-97662239D01*
X131207949Y-97794969D01*
X131228827Y-97861647D01*
X131210343Y-97929027D01*
X131173738Y-97966962D01*
X131053552Y-98047268D01*
X131053548Y-98047271D01*
X130940271Y-98160548D01*
X130940268Y-98160552D01*
X130851261Y-98293760D01*
X130851260Y-98293762D01*
X130789956Y-98441764D01*
X130789953Y-98441774D01*
X130758700Y-98598894D01*
X130758700Y-98598897D01*
X130758700Y-98759103D01*
X130758700Y-98759105D01*
X130758699Y-98759105D01*
X129826374Y-98759105D01*
X129879737Y-98679242D01*
X129941045Y-98531231D01*
X129941549Y-98528694D01*
X129944410Y-98521249D01*
X129963009Y-98496904D01*
X129979795Y-98471289D01*
X129984212Y-98469151D01*
X129986828Y-98465729D01*
X130004532Y-98459322D01*
X130026036Y-98448919D01*
X130025398Y-98446814D01*
X130031220Y-98445047D01*
X130031231Y-98445045D01*
X130179242Y-98383737D01*
X130312448Y-98294731D01*
X130425731Y-98181448D01*
X130514737Y-98048242D01*
X130576045Y-97900231D01*
X130590801Y-97826049D01*
X130607300Y-97743105D01*
X130607300Y-97582894D01*
X130576046Y-97425774D01*
X130576045Y-97425773D01*
X130576045Y-97425769D01*
X130576043Y-97425764D01*
X130514739Y-97277762D01*
X130514738Y-97277760D01*
X130481193Y-97227557D01*
X130425731Y-97144552D01*
X130425728Y-97144548D01*
X130312451Y-97031271D01*
X130312447Y-97031268D01*
X130179239Y-96942261D01*
X130179237Y-96942260D01*
X130031235Y-96880956D01*
X130031225Y-96880953D01*
X129874105Y-96849700D01*
X129874103Y-96849700D01*
X129713897Y-96849700D01*
X129713895Y-96849700D01*
X129556774Y-96880953D01*
X129556764Y-96880956D01*
X129408762Y-96942260D01*
X129408760Y-96942261D01*
X129275552Y-97031268D01*
X129275548Y-97031271D01*
X129162271Y-97144548D01*
X129162268Y-97144552D01*
X129073261Y-97277760D01*
X129051221Y-97330971D01*
X129007380Y-97385374D01*
X128941085Y-97407439D01*
X128873386Y-97390160D01*
X128848979Y-97371199D01*
X128813851Y-97336071D01*
X128813847Y-97336068D01*
X128680639Y-97247061D01*
X128680637Y-97247060D01*
X128532635Y-97185756D01*
X128532625Y-97185753D01*
X128375505Y-97154500D01*
X128375503Y-97154500D01*
X128215297Y-97154500D01*
X128215294Y-97154500D01*
X128052414Y-97186899D01*
X127982823Y-97180672D01*
X127927645Y-97137809D01*
X127911482Y-97105151D01*
X127911376Y-97105196D01*
X127910718Y-97103609D01*
X127909560Y-97101268D01*
X127909043Y-97099564D01*
X127847739Y-96951562D01*
X127847738Y-96951560D01*
X127826716Y-96920099D01*
X127758731Y-96818352D01*
X127758728Y-96818348D01*
X127645451Y-96705071D01*
X127645447Y-96705068D01*
X127512239Y-96616061D01*
X127512237Y-96616060D01*
X127364235Y-96554756D01*
X127364225Y-96554753D01*
X127207105Y-96523500D01*
X127207103Y-96523500D01*
X127046897Y-96523500D01*
X127046895Y-96523500D01*
X126889774Y-96554753D01*
X126889764Y-96554756D01*
X126741762Y-96616060D01*
X126741760Y-96616061D01*
X126608552Y-96705068D01*
X126608548Y-96705071D01*
X126495271Y-96818348D01*
X126495268Y-96818352D01*
X126406261Y-96951560D01*
X126406260Y-96951562D01*
X126344956Y-97099564D01*
X126344953Y-97099574D01*
X126313700Y-97256694D01*
X126313700Y-97256697D01*
X126313700Y-97416903D01*
X126313700Y-97416905D01*
X126313699Y-97416905D01*
X126344953Y-97574025D01*
X126344955Y-97574031D01*
X126408072Y-97726409D01*
X126415541Y-97795879D01*
X126384266Y-97858358D01*
X126362402Y-97876964D01*
X126227552Y-97967068D01*
X126227548Y-97967071D01*
X126114271Y-98080348D01*
X126114268Y-98080352D01*
X126025261Y-98213560D01*
X126025260Y-98213562D01*
X125963956Y-98361564D01*
X125963953Y-98361574D01*
X125932700Y-98518694D01*
X125932700Y-98518697D01*
X125932700Y-98678903D01*
X125932700Y-98678905D01*
X125932699Y-98678905D01*
X125489060Y-98678905D01*
X125439832Y-98560057D01*
X125434738Y-98547760D01*
X125434139Y-98546864D01*
X125345731Y-98414552D01*
X125345728Y-98414548D01*
X125232451Y-98301271D01*
X125232447Y-98301268D01*
X125099239Y-98212261D01*
X125099237Y-98212260D01*
X124951235Y-98150956D01*
X124951225Y-98150953D01*
X124794105Y-98119700D01*
X124794103Y-98119700D01*
X124633897Y-98119700D01*
X124633895Y-98119700D01*
X124476774Y-98150953D01*
X124476764Y-98150956D01*
X124328762Y-98212260D01*
X124328760Y-98212261D01*
X124195552Y-98301268D01*
X124195548Y-98301271D01*
X124082271Y-98414548D01*
X124082268Y-98414552D01*
X123993261Y-98547760D01*
X123993260Y-98547762D01*
X123931956Y-98695764D01*
X123931953Y-98695774D01*
X123900700Y-98852894D01*
X123900700Y-98852897D01*
X123900700Y-99013103D01*
X123900700Y-99013105D01*
X123900699Y-99013105D01*
X123931953Y-99170225D01*
X123931956Y-99170235D01*
X123993259Y-99318235D01*
X123993266Y-99318248D01*
X124017361Y-99354308D01*
X124038239Y-99420985D01*
X124019755Y-99488366D01*
X124001940Y-99510880D01*
X123955271Y-99557548D01*
X123955268Y-99557552D01*
X123866261Y-99690760D01*
X123866260Y-99690762D01*
X123804956Y-99838764D01*
X123804953Y-99838774D01*
X123773700Y-99995894D01*
X123773700Y-99995897D01*
X123773700Y-100156103D01*
X123773700Y-100156105D01*
X123773699Y-100156105D01*
X119594285Y-100156105D01*
X119517451Y-100079271D01*
X119517447Y-100079268D01*
X119384239Y-99990261D01*
X119384237Y-99990260D01*
X119236235Y-99928956D01*
X119236225Y-99928953D01*
X119079105Y-99897700D01*
X119079103Y-99897700D01*
X118918897Y-99897700D01*
X118918895Y-99897700D01*
X118761774Y-99928953D01*
X118761764Y-99928956D01*
X118613762Y-99990260D01*
X118613760Y-99990261D01*
X118480552Y-100079268D01*
X118480548Y-100079271D01*
X118367271Y-100192548D01*
X118367268Y-100192552D01*
X118278261Y-100325760D01*
X118278260Y-100325762D01*
X118216956Y-100473764D01*
X118216953Y-100473774D01*
X118185700Y-100630894D01*
X118185700Y-100630897D01*
X118185700Y-100791103D01*
X118185700Y-100791105D01*
X118185699Y-100791105D01*
X107644502Y-100791105D01*
X107589206Y-100714996D01*
X107438004Y-100563794D01*
X107358496Y-100506028D01*
X107315831Y-100450697D01*
X107309852Y-100381084D01*
X107342458Y-100319289D01*
X107375085Y-100295226D01*
X107519009Y-100221894D01*
X107692004Y-100096206D01*
X107843206Y-99945004D01*
X107968894Y-99772009D01*
X108065972Y-99581483D01*
X108132049Y-99378116D01*
X108165500Y-99166916D01*
X108165500Y-98953084D01*
X108164949Y-98949605D01*
X114820199Y-98949605D01*
X114851453Y-99106725D01*
X114851456Y-99106735D01*
X114912760Y-99254737D01*
X114912761Y-99254739D01*
X115001768Y-99387947D01*
X115001771Y-99387951D01*
X115115048Y-99501228D01*
X115115052Y-99501231D01*
X115248258Y-99590237D01*
X115248259Y-99590237D01*
X115248260Y-99590238D01*
X115248262Y-99590239D01*
X115396264Y-99651543D01*
X115396269Y-99651545D01*
X115396273Y-99651545D01*
X115396274Y-99651546D01*
X115553394Y-99682800D01*
X115553397Y-99682800D01*
X115713605Y-99682800D01*
X115819313Y-99661772D01*
X115870731Y-99651545D01*
X116018742Y-99590237D01*
X116151948Y-99501231D01*
X116265231Y-99387948D01*
X116354237Y-99254742D01*
X116415545Y-99106731D01*
X116446800Y-98949603D01*
X116446800Y-98789397D01*
X116446800Y-98789394D01*
X116415546Y-98632274D01*
X116415545Y-98632273D01*
X116415545Y-98632269D01*
X116380541Y-98547762D01*
X116354239Y-98484262D01*
X116354238Y-98484260D01*
X116344142Y-98469151D01*
X116265231Y-98351052D01*
X116265228Y-98351048D01*
X116151951Y-98237771D01*
X116151947Y-98237768D01*
X116018739Y-98148761D01*
X116018737Y-98148760D01*
X115870735Y-98087456D01*
X115870725Y-98087453D01*
X115713605Y-98056200D01*
X115713603Y-98056200D01*
X115553397Y-98056200D01*
X115553395Y-98056200D01*
X115396274Y-98087453D01*
X115396264Y-98087456D01*
X115248262Y-98148760D01*
X115248260Y-98148761D01*
X115115052Y-98237768D01*
X115115048Y-98237771D01*
X115001771Y-98351048D01*
X115001768Y-98351052D01*
X114912761Y-98484260D01*
X114912760Y-98484262D01*
X114851456Y-98632264D01*
X114851453Y-98632274D01*
X114820200Y-98789394D01*
X114820200Y-98789397D01*
X114820200Y-98949603D01*
X114820200Y-98949605D01*
X114820199Y-98949605D01*
X108164949Y-98949605D01*
X108132049Y-98741884D01*
X108090564Y-98614203D01*
X108065973Y-98538519D01*
X108065972Y-98538516D01*
X108016507Y-98441438D01*
X107968894Y-98347991D01*
X107843206Y-98174996D01*
X107692004Y-98023794D01*
X107519009Y-97898106D01*
X107375086Y-97824773D01*
X107324291Y-97776799D01*
X107307496Y-97708978D01*
X107330033Y-97642843D01*
X107358497Y-97613971D01*
X107438004Y-97556206D01*
X107589206Y-97405004D01*
X107620374Y-97362105D01*
X117169699Y-97362105D01*
X117200953Y-97519225D01*
X117200956Y-97519235D01*
X117262260Y-97667237D01*
X117262261Y-97667239D01*
X117351268Y-97800447D01*
X117351271Y-97800451D01*
X117464548Y-97913728D01*
X117464552Y-97913731D01*
X117597758Y-98002737D01*
X117597759Y-98002737D01*
X117597760Y-98002738D01*
X117597762Y-98002739D01*
X117707617Y-98048242D01*
X117745769Y-98064045D01*
X117745773Y-98064045D01*
X117745774Y-98064046D01*
X117902894Y-98095300D01*
X117902897Y-98095300D01*
X118063105Y-98095300D01*
X118168813Y-98074272D01*
X118220231Y-98064045D01*
X118368242Y-98002737D01*
X118501448Y-97913731D01*
X118614731Y-97800448D01*
X118703737Y-97667242D01*
X118765045Y-97519231D01*
X118785399Y-97416905D01*
X118796300Y-97362105D01*
X118796300Y-97201894D01*
X118765046Y-97044774D01*
X118765045Y-97044773D01*
X118765045Y-97044769D01*
X118739546Y-96983211D01*
X118732078Y-96913742D01*
X118751004Y-96866871D01*
X118768922Y-96840057D01*
X118830230Y-96692046D01*
X118843185Y-96626916D01*
X118861485Y-96534920D01*
X118861485Y-96374709D01*
X118830231Y-96217589D01*
X118830230Y-96217588D01*
X118830230Y-96217584D01*
X118824551Y-96203873D01*
X118768924Y-96069577D01*
X118768923Y-96069575D01*
X118721443Y-95998517D01*
X118679916Y-95936367D01*
X118679913Y-95936363D01*
X118566636Y-95823086D01*
X118566632Y-95823083D01*
X118433424Y-95734076D01*
X118433422Y-95734075D01*
X118285420Y-95672771D01*
X118285410Y-95672768D01*
X118128290Y-95641515D01*
X118128288Y-95641515D01*
X117968082Y-95641515D01*
X117968080Y-95641515D01*
X117810959Y-95672768D01*
X117810949Y-95672771D01*
X117662947Y-95734075D01*
X117662945Y-95734076D01*
X117529737Y-95823083D01*
X117529733Y-95823086D01*
X117416456Y-95936363D01*
X117416453Y-95936367D01*
X117327446Y-96069575D01*
X117327445Y-96069577D01*
X117266141Y-96217579D01*
X117266138Y-96217589D01*
X117234885Y-96374709D01*
X117234885Y-96374712D01*
X117234885Y-96534918D01*
X117234885Y-96534920D01*
X117234884Y-96534920D01*
X117266138Y-96692040D01*
X117266140Y-96692046D01*
X117274816Y-96712993D01*
X117291637Y-96753601D01*
X117299106Y-96823071D01*
X117280180Y-96869943D01*
X117262260Y-96896762D01*
X117200956Y-97044764D01*
X117200953Y-97044774D01*
X117169700Y-97201894D01*
X117169700Y-97201897D01*
X117169700Y-97362103D01*
X117169700Y-97362105D01*
X117169699Y-97362105D01*
X107620374Y-97362105D01*
X107714894Y-97232009D01*
X107762892Y-97137809D01*
X107774433Y-97115155D01*
X107811972Y-97041483D01*
X107878049Y-96838116D01*
X107911500Y-96626916D01*
X107911500Y-96413084D01*
X107878049Y-96201884D01*
X107845010Y-96100200D01*
X107811973Y-95998519D01*
X107811972Y-95998516D01*
X107722584Y-95823084D01*
X107714894Y-95807991D01*
X107589206Y-95634996D01*
X107438004Y-95483794D01*
X107358496Y-95426028D01*
X107315831Y-95370697D01*
X107309852Y-95301084D01*
X107342458Y-95239289D01*
X107375085Y-95215226D01*
X107489155Y-95157105D01*
X126026699Y-95157105D01*
X126057953Y-95314225D01*
X126057956Y-95314235D01*
X126119260Y-95462237D01*
X126119261Y-95462239D01*
X126208268Y-95595447D01*
X126208271Y-95595451D01*
X126321548Y-95708728D01*
X126321552Y-95708731D01*
X126454758Y-95797737D01*
X126454759Y-95797737D01*
X126454760Y-95797738D01*
X126454762Y-95797739D01*
X126515951Y-95823084D01*
X126602769Y-95859045D01*
X126602773Y-95859045D01*
X126602774Y-95859046D01*
X126759894Y-95890300D01*
X126759897Y-95890300D01*
X126920105Y-95890300D01*
X127025813Y-95869272D01*
X127077231Y-95859045D01*
X127225242Y-95797737D01*
X127358448Y-95708731D01*
X127471731Y-95595448D01*
X127560737Y-95462242D01*
X127622045Y-95314231D01*
X127653300Y-95157103D01*
X127653300Y-94996897D01*
X127653300Y-94996894D01*
X127622046Y-94839774D01*
X127622045Y-94839773D01*
X127622045Y-94839769D01*
X127560737Y-94691758D01*
X127471731Y-94558552D01*
X127471728Y-94558548D01*
X127358451Y-94445271D01*
X127358447Y-94445268D01*
X127225239Y-94356261D01*
X127225237Y-94356260D01*
X127077235Y-94294956D01*
X127077225Y-94294953D01*
X126920105Y-94263700D01*
X126920103Y-94263700D01*
X126759897Y-94263700D01*
X126759895Y-94263700D01*
X126602774Y-94294953D01*
X126602764Y-94294956D01*
X126454762Y-94356260D01*
X126454760Y-94356261D01*
X126321552Y-94445268D01*
X126321548Y-94445271D01*
X126208271Y-94558548D01*
X126208268Y-94558552D01*
X126119261Y-94691760D01*
X126119260Y-94691762D01*
X126057956Y-94839764D01*
X126057953Y-94839774D01*
X126026700Y-94996894D01*
X126026700Y-94996897D01*
X126026700Y-95157103D01*
X126026700Y-95157105D01*
X126026699Y-95157105D01*
X107489155Y-95157105D01*
X107519009Y-95141894D01*
X107692004Y-95016206D01*
X107843206Y-94865004D01*
X107968894Y-94692009D01*
X108065972Y-94501483D01*
X108132049Y-94298116D01*
X108165500Y-94086916D01*
X108165500Y-93873084D01*
X108132049Y-93661884D01*
X108065972Y-93458517D01*
X108065972Y-93458516D01*
X107968893Y-93267990D01*
X107843206Y-93094996D01*
X107692004Y-92943794D01*
X107519009Y-92818106D01*
X107375086Y-92744773D01*
X107324291Y-92696799D01*
X107307496Y-92628978D01*
X107330033Y-92562843D01*
X107358497Y-92533971D01*
X107438004Y-92476206D01*
X107589206Y-92325004D01*
X107714894Y-92152009D01*
X107811972Y-91961483D01*
X107878049Y-91758116D01*
X107911500Y-91546916D01*
X107911500Y-91333084D01*
X107878049Y-91121884D01*
X107811972Y-90918517D01*
X107811972Y-90918516D01*
X107714893Y-90727990D01*
X107594367Y-90562100D01*
X107589206Y-90554996D01*
X107438004Y-90403794D01*
X107350777Y-90340420D01*
X107308112Y-90285092D01*
X107302133Y-90215478D01*
X107334738Y-90153683D01*
X107367368Y-90129618D01*
X107514557Y-90054620D01*
X107686459Y-89929727D01*
X107686464Y-89929723D01*
X107836723Y-89779464D01*
X107836727Y-89779459D01*
X107852968Y-89757105D01*
X124026699Y-89757105D01*
X124057953Y-89914225D01*
X124057956Y-89914235D01*
X124119260Y-90062237D01*
X124119261Y-90062239D01*
X124208268Y-90195447D01*
X124208271Y-90195451D01*
X124321548Y-90308728D01*
X124321552Y-90308731D01*
X124454758Y-90397737D01*
X124454759Y-90397737D01*
X124454760Y-90397738D01*
X124454762Y-90397739D01*
X124602764Y-90459043D01*
X124602769Y-90459045D01*
X124602773Y-90459045D01*
X124602774Y-90459046D01*
X124759894Y-90490300D01*
X124759897Y-90490300D01*
X124920105Y-90490300D01*
X125025813Y-90469272D01*
X125077231Y-90459045D01*
X125225242Y-90397737D01*
X125358448Y-90308731D01*
X125471731Y-90195448D01*
X125560737Y-90062242D01*
X125574668Y-90028607D01*
X125618506Y-89974206D01*
X125684800Y-89952139D01*
X125752500Y-89969416D01*
X125800111Y-90020552D01*
X125803790Y-90028607D01*
X125847461Y-90134039D01*
X125936468Y-90267247D01*
X125936471Y-90267251D01*
X126049748Y-90380528D01*
X126049752Y-90380531D01*
X126182958Y-90469537D01*
X126182959Y-90469537D01*
X126182960Y-90469538D01*
X126182962Y-90469539D01*
X126233084Y-90490300D01*
X126330969Y-90530845D01*
X126330973Y-90530845D01*
X126330974Y-90530846D01*
X126488094Y-90562100D01*
X126488097Y-90562100D01*
X126648305Y-90562100D01*
X126754013Y-90541072D01*
X126805431Y-90530845D01*
X126953442Y-90469537D01*
X127086648Y-90380531D01*
X127199931Y-90267248D01*
X127288937Y-90134042D01*
X127350245Y-89986031D01*
X127381500Y-89828903D01*
X127381500Y-89668697D01*
X127381500Y-89668694D01*
X127350246Y-89511574D01*
X127350245Y-89511573D01*
X127350245Y-89511569D01*
X127350243Y-89511564D01*
X127288939Y-89363562D01*
X127288938Y-89363560D01*
X127199931Y-89230352D01*
X127199928Y-89230348D01*
X127086651Y-89117071D01*
X127086647Y-89117068D01*
X126953439Y-89028061D01*
X126953437Y-89028060D01*
X126805435Y-88966756D01*
X126805425Y-88966753D01*
X126648305Y-88935500D01*
X126648303Y-88935500D01*
X126488097Y-88935500D01*
X126488095Y-88935500D01*
X126330974Y-88966753D01*
X126330964Y-88966756D01*
X126182962Y-89028060D01*
X126182960Y-89028061D01*
X126049752Y-89117068D01*
X126049748Y-89117071D01*
X125936471Y-89230348D01*
X125936468Y-89230352D01*
X125847461Y-89363560D01*
X125833531Y-89397192D01*
X125789690Y-89451595D01*
X125723395Y-89473660D01*
X125655696Y-89456381D01*
X125608086Y-89405243D01*
X125604409Y-89397191D01*
X125560739Y-89291762D01*
X125560738Y-89291760D01*
X125519706Y-89230352D01*
X125471731Y-89158552D01*
X125471728Y-89158548D01*
X125358451Y-89045271D01*
X125358447Y-89045268D01*
X125225239Y-88956261D01*
X125225237Y-88956260D01*
X125077235Y-88894956D01*
X125077225Y-88894953D01*
X124920105Y-88863700D01*
X124920103Y-88863700D01*
X124759897Y-88863700D01*
X124759895Y-88863700D01*
X124602774Y-88894953D01*
X124602764Y-88894956D01*
X124454762Y-88956260D01*
X124454760Y-88956261D01*
X124321552Y-89045268D01*
X124321548Y-89045271D01*
X124208271Y-89158548D01*
X124208268Y-89158552D01*
X124119261Y-89291760D01*
X124119260Y-89291762D01*
X124057956Y-89439764D01*
X124057953Y-89439774D01*
X124026700Y-89596894D01*
X124026700Y-89596897D01*
X124026700Y-89757103D01*
X124026700Y-89757105D01*
X124026699Y-89757105D01*
X107852968Y-89757105D01*
X107961620Y-89607557D01*
X107998841Y-89534510D01*
X108058095Y-89418217D01*
X108123757Y-89216129D01*
X108123757Y-89216126D01*
X108134231Y-89150000D01*
X107240012Y-89150000D01*
X107272925Y-89092993D01*
X107307000Y-88965826D01*
X107307000Y-88834174D01*
X107272925Y-88707007D01*
X107240012Y-88650000D01*
X108134231Y-88650000D01*
X108123757Y-88583873D01*
X108123757Y-88583870D01*
X108058095Y-88381782D01*
X107961620Y-88192442D01*
X107943357Y-88167305D01*
X129539499Y-88167305D01*
X129570753Y-88324425D01*
X129570756Y-88324435D01*
X129632060Y-88472437D01*
X129632061Y-88472439D01*
X129721068Y-88605647D01*
X129721071Y-88605651D01*
X129834348Y-88718928D01*
X129834352Y-88718931D01*
X129967558Y-88807937D01*
X129967559Y-88807937D01*
X129967560Y-88807938D01*
X129967562Y-88807939D01*
X130086260Y-88857105D01*
X130115569Y-88869245D01*
X130115573Y-88869245D01*
X130115574Y-88869246D01*
X130272694Y-88900500D01*
X130272697Y-88900500D01*
X130432905Y-88900500D01*
X130538613Y-88879472D01*
X130590031Y-88869245D01*
X130738042Y-88807937D01*
X130860511Y-88726105D01*
X133679699Y-88726105D01*
X133710953Y-88883225D01*
X133710956Y-88883235D01*
X133772260Y-89031237D01*
X133772261Y-89031239D01*
X133861268Y-89164447D01*
X133861271Y-89164451D01*
X133974548Y-89277728D01*
X133974552Y-89277731D01*
X134107758Y-89366737D01*
X134107759Y-89366737D01*
X134107760Y-89366738D01*
X134107762Y-89366739D01*
X134239927Y-89421483D01*
X134255769Y-89428045D01*
X134255773Y-89428045D01*
X134255774Y-89428046D01*
X134412894Y-89459300D01*
X134412897Y-89459300D01*
X134573105Y-89459300D01*
X134678813Y-89438272D01*
X134730231Y-89428045D01*
X134878242Y-89366737D01*
X135011448Y-89277731D01*
X135124731Y-89164448D01*
X135213737Y-89031242D01*
X135275045Y-88883231D01*
X135280242Y-88857105D01*
X137226699Y-88857105D01*
X137257953Y-89014225D01*
X137257956Y-89014235D01*
X137319260Y-89162237D01*
X137319261Y-89162239D01*
X137408268Y-89295447D01*
X137408271Y-89295451D01*
X137521548Y-89408728D01*
X137521552Y-89408731D01*
X137654758Y-89497737D01*
X137654759Y-89497737D01*
X137654760Y-89497738D01*
X137654762Y-89497739D01*
X137743536Y-89534510D01*
X137802769Y-89559045D01*
X137802773Y-89559045D01*
X137802774Y-89559046D01*
X137959894Y-89590300D01*
X137959897Y-89590300D01*
X138120105Y-89590300D01*
X138225813Y-89569272D01*
X138277231Y-89559045D01*
X138425242Y-89497737D01*
X138558448Y-89408731D01*
X138671731Y-89295448D01*
X138760737Y-89162242D01*
X138822045Y-89014231D01*
X138844668Y-88900500D01*
X138853300Y-88857105D01*
X138853300Y-88696894D01*
X138822046Y-88539774D01*
X138822045Y-88539773D01*
X138822045Y-88539769D01*
X138801809Y-88490914D01*
X138760739Y-88391762D01*
X138760738Y-88391760D01*
X138751889Y-88378517D01*
X138671731Y-88258552D01*
X138671728Y-88258548D01*
X138558451Y-88145271D01*
X138558447Y-88145268D01*
X138425239Y-88056261D01*
X138425237Y-88056260D01*
X138277235Y-87994956D01*
X138277225Y-87994953D01*
X138120105Y-87963700D01*
X138120103Y-87963700D01*
X137959897Y-87963700D01*
X137959895Y-87963700D01*
X137802774Y-87994953D01*
X137802764Y-87994956D01*
X137654762Y-88056260D01*
X137654760Y-88056261D01*
X137521552Y-88145268D01*
X137521548Y-88145271D01*
X137408271Y-88258548D01*
X137408268Y-88258552D01*
X137319261Y-88391760D01*
X137319260Y-88391762D01*
X137257956Y-88539764D01*
X137257953Y-88539774D01*
X137226700Y-88696894D01*
X137226700Y-88696897D01*
X137226700Y-88857103D01*
X137226700Y-88857105D01*
X137226699Y-88857105D01*
X135280242Y-88857105D01*
X135306300Y-88726103D01*
X135306300Y-88565897D01*
X135306300Y-88565894D01*
X135275046Y-88408774D01*
X135275045Y-88408773D01*
X135275045Y-88408769D01*
X135271413Y-88400000D01*
X135213739Y-88260762D01*
X135213738Y-88260760D01*
X135189001Y-88223739D01*
X135124731Y-88127552D01*
X135124728Y-88127548D01*
X135011451Y-88014271D01*
X135011447Y-88014268D01*
X134878239Y-87925261D01*
X134878237Y-87925260D01*
X134730235Y-87863956D01*
X134730225Y-87863953D01*
X134573105Y-87832700D01*
X134573103Y-87832700D01*
X134412897Y-87832700D01*
X134412895Y-87832700D01*
X134255774Y-87863953D01*
X134255764Y-87863956D01*
X134107762Y-87925260D01*
X134107760Y-87925261D01*
X133974552Y-88014268D01*
X133974548Y-88014271D01*
X133861271Y-88127548D01*
X133861268Y-88127552D01*
X133772261Y-88260760D01*
X133772260Y-88260762D01*
X133710956Y-88408764D01*
X133710953Y-88408774D01*
X133679700Y-88565894D01*
X133679700Y-88565897D01*
X133679700Y-88726103D01*
X133679700Y-88726105D01*
X133679699Y-88726105D01*
X130860511Y-88726105D01*
X130871248Y-88718931D01*
X130984531Y-88605648D01*
X131073537Y-88472442D01*
X131134845Y-88324431D01*
X131147510Y-88260760D01*
X131166100Y-88167305D01*
X131166100Y-88007094D01*
X131134846Y-87849974D01*
X131134845Y-87849973D01*
X131134845Y-87849969D01*
X131104685Y-87777155D01*
X131073539Y-87701962D01*
X131073538Y-87701960D01*
X131032824Y-87641028D01*
X130994121Y-87583105D01*
X131774699Y-87583105D01*
X131805953Y-87740225D01*
X131805956Y-87740235D01*
X131867260Y-87888237D01*
X131867261Y-87888239D01*
X131956268Y-88021447D01*
X131956271Y-88021451D01*
X132069548Y-88134728D01*
X132069552Y-88134731D01*
X132202758Y-88223737D01*
X132202759Y-88223737D01*
X132202760Y-88223738D01*
X132202762Y-88223739D01*
X132292144Y-88260762D01*
X132350769Y-88285045D01*
X132350773Y-88285045D01*
X132350774Y-88285046D01*
X132507894Y-88316300D01*
X132507897Y-88316300D01*
X132668105Y-88316300D01*
X132773813Y-88295272D01*
X132825231Y-88285045D01*
X132973242Y-88223737D01*
X133106448Y-88134731D01*
X133219731Y-88021448D01*
X133308737Y-87888242D01*
X133370045Y-87740231D01*
X133384801Y-87666049D01*
X133401300Y-87583105D01*
X133401300Y-87422894D01*
X133370046Y-87265774D01*
X133370045Y-87265773D01*
X133370045Y-87265769D01*
X133331743Y-87173300D01*
X133308739Y-87117762D01*
X133308738Y-87117760D01*
X133284001Y-87080739D01*
X133219731Y-86984552D01*
X133219728Y-86984548D01*
X133106451Y-86871271D01*
X133106447Y-86871268D01*
X132973239Y-86782261D01*
X132973237Y-86782260D01*
X132825235Y-86720956D01*
X132825225Y-86720953D01*
X132668105Y-86689700D01*
X132668103Y-86689700D01*
X132507897Y-86689700D01*
X132507895Y-86689700D01*
X132350774Y-86720953D01*
X132350764Y-86720956D01*
X132202762Y-86782260D01*
X132202760Y-86782261D01*
X132069552Y-86871268D01*
X132069548Y-86871271D01*
X131956271Y-86984548D01*
X131956268Y-86984552D01*
X131867261Y-87117760D01*
X131867260Y-87117762D01*
X131805956Y-87265764D01*
X131805953Y-87265774D01*
X131774700Y-87422894D01*
X131774700Y-87422897D01*
X131774700Y-87583103D01*
X131774700Y-87583105D01*
X131774699Y-87583105D01*
X130994121Y-87583105D01*
X130984531Y-87568752D01*
X130984528Y-87568748D01*
X130871251Y-87455471D01*
X130871247Y-87455468D01*
X130738039Y-87366461D01*
X130738037Y-87366460D01*
X130590035Y-87305156D01*
X130590025Y-87305153D01*
X130432905Y-87273900D01*
X130432903Y-87273900D01*
X130272697Y-87273900D01*
X130272695Y-87273900D01*
X130115574Y-87305153D01*
X130115564Y-87305156D01*
X129967562Y-87366460D01*
X129967560Y-87366461D01*
X129834352Y-87455468D01*
X129834348Y-87455471D01*
X129721071Y-87568748D01*
X129721068Y-87568752D01*
X129632061Y-87701960D01*
X129632060Y-87701962D01*
X129570756Y-87849964D01*
X129570753Y-87849974D01*
X129539500Y-88007094D01*
X129539500Y-88007097D01*
X129539500Y-88167303D01*
X129539500Y-88167305D01*
X129539499Y-88167305D01*
X107943357Y-88167305D01*
X107875488Y-88073890D01*
X107836727Y-88020539D01*
X107686464Y-87870276D01*
X107686459Y-87870272D01*
X107514553Y-87745376D01*
X107514552Y-87745375D01*
X107358868Y-87666049D01*
X107308072Y-87618075D01*
X107291277Y-87550254D01*
X107313815Y-87484119D01*
X107342279Y-87455246D01*
X107432462Y-87389725D01*
X107582723Y-87239464D01*
X107582727Y-87239459D01*
X107707620Y-87067557D01*
X107804095Y-86878217D01*
X107869757Y-86676129D01*
X107869757Y-86676126D01*
X107880231Y-86610000D01*
X106986012Y-86610000D01*
X107018925Y-86552993D01*
X107049174Y-86440105D01*
X127583699Y-86440105D01*
X127614953Y-86597225D01*
X127614956Y-86597235D01*
X127676260Y-86745237D01*
X127676261Y-86745239D01*
X127765268Y-86878447D01*
X127765271Y-86878451D01*
X127878548Y-86991728D01*
X127878552Y-86991731D01*
X128011758Y-87080737D01*
X128011759Y-87080737D01*
X128011760Y-87080738D01*
X128011762Y-87080739D01*
X128101144Y-87117762D01*
X128159769Y-87142045D01*
X128159773Y-87142045D01*
X128159774Y-87142046D01*
X128316894Y-87173300D01*
X128316897Y-87173300D01*
X128477105Y-87173300D01*
X128582813Y-87152272D01*
X128634231Y-87142045D01*
X128782242Y-87080737D01*
X128915448Y-86991731D01*
X129028731Y-86878448D01*
X129117737Y-86745242D01*
X129179045Y-86597231D01*
X129210300Y-86440103D01*
X129210300Y-86279897D01*
X129210300Y-86279894D01*
X129179046Y-86122774D01*
X129179045Y-86122773D01*
X129179045Y-86122769D01*
X129150143Y-86052993D01*
X129117739Y-85974762D01*
X129117738Y-85974760D01*
X129061303Y-85890300D01*
X129028731Y-85841552D01*
X129028728Y-85841548D01*
X128915451Y-85728271D01*
X128915447Y-85728268D01*
X128782239Y-85639261D01*
X128782237Y-85639260D01*
X128634235Y-85577956D01*
X128634225Y-85577953D01*
X128477105Y-85546700D01*
X128477103Y-85546700D01*
X128316897Y-85546700D01*
X128316895Y-85546700D01*
X128159774Y-85577953D01*
X128159764Y-85577956D01*
X128011762Y-85639260D01*
X128011760Y-85639261D01*
X127878552Y-85728268D01*
X127878548Y-85728271D01*
X127765271Y-85841548D01*
X127765268Y-85841552D01*
X127676261Y-85974760D01*
X127676260Y-85974762D01*
X127614956Y-86122764D01*
X127614953Y-86122774D01*
X127583700Y-86279894D01*
X127583700Y-86279897D01*
X127583700Y-86440103D01*
X127583700Y-86440105D01*
X127583699Y-86440105D01*
X107049174Y-86440105D01*
X107053000Y-86425826D01*
X107053000Y-86294174D01*
X107018925Y-86167007D01*
X106986012Y-86110000D01*
X107880231Y-86110000D01*
X107869757Y-86043873D01*
X107869757Y-86043870D01*
X107804095Y-85841782D01*
X107707620Y-85652442D01*
X107582727Y-85480540D01*
X107582723Y-85480535D01*
X107432464Y-85330276D01*
X107432459Y-85330272D01*
X107349997Y-85270360D01*
X107307331Y-85215030D01*
X107302356Y-85157105D01*
X129726699Y-85157105D01*
X129757953Y-85314225D01*
X129757956Y-85314235D01*
X129819260Y-85462237D01*
X129819261Y-85462239D01*
X129908268Y-85595447D01*
X129908271Y-85595451D01*
X130021548Y-85708728D01*
X130021552Y-85708731D01*
X130154758Y-85797737D01*
X130154759Y-85797737D01*
X130154760Y-85797738D01*
X130154762Y-85797739D01*
X130260527Y-85841548D01*
X130302769Y-85859045D01*
X130302773Y-85859045D01*
X130302774Y-85859046D01*
X130459894Y-85890300D01*
X130459897Y-85890300D01*
X130620105Y-85890300D01*
X130725813Y-85869272D01*
X130777231Y-85859045D01*
X130925242Y-85797737D01*
X131058448Y-85708731D01*
X131171731Y-85595448D01*
X131260737Y-85462242D01*
X131322045Y-85314231D01*
X131332272Y-85262813D01*
X131353300Y-85157105D01*
X131353300Y-84996894D01*
X131322046Y-84839774D01*
X131322045Y-84839773D01*
X131322045Y-84839769D01*
X131322043Y-84839764D01*
X131260739Y-84691762D01*
X131260738Y-84691760D01*
X131171731Y-84558552D01*
X131171728Y-84558548D01*
X131058451Y-84445271D01*
X131058447Y-84445268D01*
X130925239Y-84356261D01*
X130925237Y-84356260D01*
X130777235Y-84294956D01*
X130777225Y-84294953D01*
X130620105Y-84263700D01*
X130620103Y-84263700D01*
X130459897Y-84263700D01*
X130459895Y-84263700D01*
X130302774Y-84294953D01*
X130302764Y-84294956D01*
X130154762Y-84356260D01*
X130154760Y-84356261D01*
X130021552Y-84445268D01*
X130021548Y-84445271D01*
X129908271Y-84558548D01*
X129908268Y-84558552D01*
X129819261Y-84691760D01*
X129819260Y-84691762D01*
X129757956Y-84839764D01*
X129757953Y-84839774D01*
X129726700Y-84996894D01*
X129726700Y-84996897D01*
X129726700Y-85157103D01*
X129726700Y-85157105D01*
X129726699Y-85157105D01*
X107302356Y-85157105D01*
X107301352Y-85145417D01*
X107333957Y-85083622D01*
X107366587Y-85059557D01*
X107375089Y-85055225D01*
X107519009Y-84981894D01*
X107692004Y-84856206D01*
X107843206Y-84705004D01*
X107968894Y-84532009D01*
X108065972Y-84341483D01*
X108132049Y-84138116D01*
X108165500Y-83926916D01*
X108165500Y-83713084D01*
X108132049Y-83501884D01*
X108065972Y-83298517D01*
X108065972Y-83298516D01*
X107968893Y-83107990D01*
X107843206Y-82934996D01*
X107692004Y-82783794D01*
X107519009Y-82658106D01*
X107375086Y-82584773D01*
X107324291Y-82536799D01*
X107307496Y-82468978D01*
X107330033Y-82402843D01*
X107358497Y-82373971D01*
X107438004Y-82316206D01*
X107589206Y-82165004D01*
X107714894Y-81992009D01*
X107811972Y-81801483D01*
X107878049Y-81598116D01*
X107911500Y-81386916D01*
X107911500Y-81173084D01*
X107878049Y-80961884D01*
X107811972Y-80758517D01*
X107811972Y-80758516D01*
X107714893Y-80567990D01*
X107658448Y-80490300D01*
X107589206Y-80394996D01*
X107438004Y-80243794D01*
X107387835Y-80207344D01*
X107358496Y-80186028D01*
X107315831Y-80130697D01*
X107309852Y-80061084D01*
X107342458Y-79999289D01*
X107375085Y-79975226D01*
X107519009Y-79901894D01*
X107692004Y-79776206D01*
X107711105Y-79757105D01*
X124126699Y-79757105D01*
X124157953Y-79914225D01*
X124157956Y-79914235D01*
X124219260Y-80062237D01*
X124219261Y-80062239D01*
X124308268Y-80195447D01*
X124308271Y-80195451D01*
X124421548Y-80308728D01*
X124421552Y-80308731D01*
X124554758Y-80397737D01*
X124554759Y-80397737D01*
X124554760Y-80397738D01*
X124554762Y-80397739D01*
X124702764Y-80459043D01*
X124702769Y-80459045D01*
X124702773Y-80459045D01*
X124702774Y-80459046D01*
X124859894Y-80490300D01*
X124859897Y-80490300D01*
X125020105Y-80490300D01*
X125125813Y-80469272D01*
X125177231Y-80459045D01*
X125325242Y-80397737D01*
X125458448Y-80308731D01*
X125571731Y-80195448D01*
X125660737Y-80062242D01*
X125722045Y-79914231D01*
X125753300Y-79757103D01*
X125753300Y-79596897D01*
X125753300Y-79596894D01*
X125722046Y-79439774D01*
X125722045Y-79439773D01*
X125722045Y-79439769D01*
X125660737Y-79291758D01*
X125571731Y-79158552D01*
X125571728Y-79158548D01*
X125458451Y-79045271D01*
X125458447Y-79045268D01*
X125326502Y-78957105D01*
X129826699Y-78957105D01*
X129857953Y-79114225D01*
X129857956Y-79114235D01*
X129919260Y-79262237D01*
X129919261Y-79262239D01*
X130008268Y-79395447D01*
X130008271Y-79395451D01*
X130121548Y-79508728D01*
X130121552Y-79508731D01*
X130254758Y-79597737D01*
X130254759Y-79597737D01*
X130254760Y-79597738D01*
X130254762Y-79597739D01*
X130320591Y-79625006D01*
X130402769Y-79659045D01*
X130402773Y-79659045D01*
X130402774Y-79659046D01*
X130559894Y-79690300D01*
X130559897Y-79690300D01*
X130720105Y-79690300D01*
X130825813Y-79669272D01*
X130877231Y-79659045D01*
X131025242Y-79597737D01*
X131158448Y-79508731D01*
X131271731Y-79395448D01*
X131360737Y-79262242D01*
X131422045Y-79114231D01*
X131453300Y-78957103D01*
X131453300Y-78796897D01*
X131453300Y-78796894D01*
X131422046Y-78639774D01*
X131422045Y-78639773D01*
X131422045Y-78639769D01*
X131360737Y-78491758D01*
X131271731Y-78358552D01*
X131271728Y-78358548D01*
X131158451Y-78245271D01*
X131158447Y-78245268D01*
X131025239Y-78156261D01*
X131025237Y-78156260D01*
X130877235Y-78094956D01*
X130877225Y-78094953D01*
X130720105Y-78063700D01*
X130720103Y-78063700D01*
X130559897Y-78063700D01*
X130559895Y-78063700D01*
X130402774Y-78094953D01*
X130402764Y-78094956D01*
X130254762Y-78156260D01*
X130254760Y-78156261D01*
X130121552Y-78245268D01*
X130121548Y-78245271D01*
X130008271Y-78358548D01*
X130008268Y-78358552D01*
X129919261Y-78491760D01*
X129919260Y-78491762D01*
X129857956Y-78639764D01*
X129857953Y-78639774D01*
X129826700Y-78796894D01*
X129826700Y-78796897D01*
X129826700Y-78957103D01*
X129826700Y-78957105D01*
X129826699Y-78957105D01*
X125326502Y-78957105D01*
X125325239Y-78956261D01*
X125325237Y-78956260D01*
X125202366Y-78905366D01*
X125202365Y-78905366D01*
X125177231Y-78894955D01*
X125177225Y-78894953D01*
X125020105Y-78863700D01*
X125020103Y-78863700D01*
X124859897Y-78863700D01*
X124859895Y-78863700D01*
X124702774Y-78894953D01*
X124702764Y-78894956D01*
X124554762Y-78956260D01*
X124554760Y-78956261D01*
X124421552Y-79045268D01*
X124421548Y-79045271D01*
X124308271Y-79158548D01*
X124308268Y-79158552D01*
X124219261Y-79291760D01*
X124219260Y-79291762D01*
X124157956Y-79439764D01*
X124157953Y-79439774D01*
X124126700Y-79596894D01*
X124126700Y-79596897D01*
X124126700Y-79757103D01*
X124126700Y-79757105D01*
X124126699Y-79757105D01*
X107711105Y-79757105D01*
X107843206Y-79625004D01*
X107968894Y-79452009D01*
X108065972Y-79261483D01*
X108132049Y-79058116D01*
X108165500Y-78846916D01*
X108165500Y-78633084D01*
X108132049Y-78421884D01*
X108089295Y-78290300D01*
X108065973Y-78218519D01*
X108065972Y-78218516D01*
X108003013Y-78094953D01*
X107968894Y-78027991D01*
X107843206Y-77854996D01*
X107692004Y-77703794D01*
X107668757Y-77686904D01*
X107626091Y-77631574D01*
X107620112Y-77561961D01*
X107622674Y-77557105D01*
X123226699Y-77557105D01*
X123257953Y-77714225D01*
X123257956Y-77714235D01*
X123319260Y-77862237D01*
X123319261Y-77862239D01*
X123408268Y-77995447D01*
X123408271Y-77995451D01*
X123521548Y-78108728D01*
X123521552Y-78108731D01*
X123654758Y-78197737D01*
X123654759Y-78197737D01*
X123654760Y-78197738D01*
X123654762Y-78197739D01*
X123802764Y-78259043D01*
X123802769Y-78259045D01*
X123802773Y-78259045D01*
X123802774Y-78259046D01*
X123959894Y-78290300D01*
X123959897Y-78290300D01*
X124120105Y-78290300D01*
X124225813Y-78269272D01*
X124277231Y-78259045D01*
X124425242Y-78197737D01*
X124558448Y-78108731D01*
X124671731Y-77995448D01*
X124760737Y-77862242D01*
X124822045Y-77714231D01*
X124838603Y-77630989D01*
X124853300Y-77557105D01*
X124853300Y-77396894D01*
X124822046Y-77239774D01*
X124822045Y-77239773D01*
X124822045Y-77239769D01*
X124788673Y-77159201D01*
X124760739Y-77091762D01*
X124760738Y-77091760D01*
X124671731Y-76958552D01*
X124671728Y-76958548D01*
X124558451Y-76845271D01*
X124558447Y-76845268D01*
X124425239Y-76756261D01*
X124425237Y-76756260D01*
X124277235Y-76694956D01*
X124277225Y-76694953D01*
X124120105Y-76663700D01*
X124120103Y-76663700D01*
X123959897Y-76663700D01*
X123959895Y-76663700D01*
X123802774Y-76694953D01*
X123802764Y-76694956D01*
X123654762Y-76756260D01*
X123654760Y-76756261D01*
X123521552Y-76845268D01*
X123521548Y-76845271D01*
X123408271Y-76958548D01*
X123408268Y-76958552D01*
X123319261Y-77091760D01*
X123319260Y-77091762D01*
X123257956Y-77239764D01*
X123257953Y-77239774D01*
X123226700Y-77396894D01*
X123226700Y-77396897D01*
X123226700Y-77557103D01*
X123226700Y-77557105D01*
X123226699Y-77557105D01*
X107622674Y-77557105D01*
X107652718Y-77500166D01*
X107667331Y-77487319D01*
X107766261Y-77413261D01*
X107853889Y-77296204D01*
X107904989Y-77159201D01*
X107908591Y-77125692D01*
X107911499Y-77098654D01*
X107911500Y-77098637D01*
X107911500Y-76157105D01*
X129826699Y-76157105D01*
X129857953Y-76314225D01*
X129857956Y-76314235D01*
X129919260Y-76462237D01*
X129919261Y-76462239D01*
X130008268Y-76595447D01*
X130008271Y-76595451D01*
X130121548Y-76708728D01*
X130121552Y-76708731D01*
X130254758Y-76797737D01*
X130254759Y-76797737D01*
X130254760Y-76797738D01*
X130254762Y-76797739D01*
X130402764Y-76859043D01*
X130402769Y-76859045D01*
X130402773Y-76859045D01*
X130402774Y-76859046D01*
X130559894Y-76890300D01*
X130559897Y-76890300D01*
X130720105Y-76890300D01*
X130825813Y-76869272D01*
X130877231Y-76859045D01*
X131025242Y-76797737D01*
X131158448Y-76708731D01*
X131271731Y-76595448D01*
X131360737Y-76462242D01*
X131422045Y-76314231D01*
X131453300Y-76157103D01*
X131453300Y-75996897D01*
X131453300Y-75996894D01*
X131422046Y-75839774D01*
X131422045Y-75839773D01*
X131422045Y-75839769D01*
X131360737Y-75691758D01*
X131271731Y-75558552D01*
X131271728Y-75558548D01*
X131158448Y-75445268D01*
X131092409Y-75401143D01*
X131025239Y-75356261D01*
X131025237Y-75356260D01*
X130892660Y-75301345D01*
X148374500Y-75301345D01*
X148374500Y-77098654D01*
X148381011Y-77159202D01*
X148381011Y-77159204D01*
X148411063Y-77239774D01*
X148432111Y-77296204D01*
X148519739Y-77413261D01*
X148636796Y-77500889D01*
X148773799Y-77551989D01*
X148801050Y-77554918D01*
X148834345Y-77558499D01*
X148834362Y-77558500D01*
X148947928Y-77558500D01*
X149014967Y-77578185D01*
X149060722Y-77630989D01*
X149070666Y-77700147D01*
X149041641Y-77763703D01*
X149035609Y-77770181D01*
X148950796Y-77854993D01*
X148825106Y-78027990D01*
X148728027Y-78218516D01*
X148728026Y-78218519D01*
X148661951Y-78421882D01*
X148628500Y-78633084D01*
X148628500Y-78846915D01*
X148661951Y-79058117D01*
X148728026Y-79261480D01*
X148728027Y-79261483D01*
X148796288Y-79395451D01*
X148825106Y-79452009D01*
X148950794Y-79625004D01*
X149101996Y-79776206D01*
X149181503Y-79833971D01*
X149224168Y-79889301D01*
X149230147Y-79958915D01*
X149197541Y-80020710D01*
X149164912Y-80044774D01*
X149020990Y-80118106D01*
X148847993Y-80243796D01*
X148696796Y-80394993D01*
X148571106Y-80567990D01*
X148474027Y-80758516D01*
X148474026Y-80758519D01*
X148407951Y-80961882D01*
X148374500Y-81173084D01*
X148374500Y-81386915D01*
X148407951Y-81598117D01*
X148474026Y-81801480D01*
X148474027Y-81801483D01*
X148571106Y-81992009D01*
X148696794Y-82165004D01*
X148847996Y-82316206D01*
X149020991Y-82441894D01*
X149164913Y-82515226D01*
X149215708Y-82563199D01*
X149232503Y-82631020D01*
X149209966Y-82697155D01*
X149181504Y-82726027D01*
X149101996Y-82783793D01*
X148950796Y-82934993D01*
X148825106Y-83107990D01*
X148728027Y-83298516D01*
X148728026Y-83298519D01*
X148661951Y-83501882D01*
X148628500Y-83713084D01*
X148628500Y-83926915D01*
X148661951Y-84138117D01*
X148728026Y-84341480D01*
X148728027Y-84341483D01*
X148825106Y-84532009D01*
X148950794Y-84705004D01*
X149101996Y-84856206D01*
X149149180Y-84890487D01*
X149181503Y-84913971D01*
X149224168Y-84969301D01*
X149230147Y-85038915D01*
X149197541Y-85100710D01*
X149164912Y-85124774D01*
X149020990Y-85198106D01*
X148847993Y-85323796D01*
X148696796Y-85474993D01*
X148571106Y-85647990D01*
X148474027Y-85838516D01*
X148474026Y-85838519D01*
X148407951Y-86041882D01*
X148374500Y-86253084D01*
X148374500Y-86466915D01*
X148407951Y-86678117D01*
X148474026Y-86881480D01*
X148474027Y-86881483D01*
X148530202Y-86991731D01*
X148571106Y-87072009D01*
X148696794Y-87245004D01*
X148847996Y-87396206D01*
X149020991Y-87521894D01*
X149164913Y-87595226D01*
X149215708Y-87643199D01*
X149232503Y-87711020D01*
X149209966Y-87777155D01*
X149181504Y-87806027D01*
X149101996Y-87863793D01*
X148950796Y-88014993D01*
X148825106Y-88187990D01*
X148728027Y-88378516D01*
X148728026Y-88378519D01*
X148661951Y-88581882D01*
X148642133Y-88707007D01*
X148628500Y-88793084D01*
X148628500Y-89006916D01*
X148632353Y-89031242D01*
X148661951Y-89218117D01*
X148728026Y-89421480D01*
X148728027Y-89421483D01*
X148817406Y-89596897D01*
X148825106Y-89612009D01*
X148950794Y-89785004D01*
X149101996Y-89936206D01*
X149181503Y-89993971D01*
X149224168Y-90049301D01*
X149230147Y-90118915D01*
X149197541Y-90180710D01*
X149164912Y-90204774D01*
X149020990Y-90278106D01*
X148847993Y-90403796D01*
X148696796Y-90554993D01*
X148571106Y-90727990D01*
X148474027Y-90918516D01*
X148474026Y-90918519D01*
X148407951Y-91121882D01*
X148374500Y-91333084D01*
X148374500Y-91546915D01*
X148407951Y-91758117D01*
X148474026Y-91961480D01*
X148474027Y-91961483D01*
X148571106Y-92152009D01*
X148696794Y-92325004D01*
X148847996Y-92476206D01*
X149020991Y-92601894D01*
X149164913Y-92675226D01*
X149215708Y-92723199D01*
X149232503Y-92791020D01*
X149209966Y-92857155D01*
X149181504Y-92886027D01*
X149101996Y-92943793D01*
X148950796Y-93094993D01*
X148825106Y-93267990D01*
X148728027Y-93458516D01*
X148728026Y-93458519D01*
X148661951Y-93661882D01*
X148628500Y-93873084D01*
X148628500Y-94086915D01*
X148661951Y-94298117D01*
X148728026Y-94501480D01*
X148728027Y-94501483D01*
X148824978Y-94691758D01*
X148825106Y-94692009D01*
X148950794Y-94865004D01*
X149101996Y-95016206D01*
X149189221Y-95079579D01*
X149231887Y-95134907D01*
X149237866Y-95204521D01*
X149205261Y-95266316D01*
X149172632Y-95290380D01*
X149025444Y-95365377D01*
X148853540Y-95490272D01*
X148853535Y-95490276D01*
X148703276Y-95640535D01*
X148703272Y-95640540D01*
X148578379Y-95812442D01*
X148481904Y-96001782D01*
X148416242Y-96203870D01*
X148416242Y-96203873D01*
X148405769Y-96270000D01*
X149299988Y-96270000D01*
X149267075Y-96327007D01*
X149233000Y-96454174D01*
X149233000Y-96585826D01*
X149267075Y-96712993D01*
X149299988Y-96770000D01*
X148405769Y-96770000D01*
X148416242Y-96836126D01*
X148416242Y-96836129D01*
X148481904Y-97038217D01*
X148578379Y-97227557D01*
X148703272Y-97399459D01*
X148703276Y-97399464D01*
X148853535Y-97549723D01*
X148853540Y-97549727D01*
X149025442Y-97674620D01*
X149181131Y-97753949D01*
X149231927Y-97801924D01*
X149248722Y-97869745D01*
X149226184Y-97935880D01*
X149197722Y-97964752D01*
X149107535Y-98030276D01*
X148957276Y-98180535D01*
X148957272Y-98180540D01*
X148832379Y-98352442D01*
X148735904Y-98541782D01*
X148670242Y-98743870D01*
X148670242Y-98743873D01*
X148659769Y-98810000D01*
X149553988Y-98810000D01*
X149521075Y-98867007D01*
X149487000Y-98994174D01*
X149487000Y-99125826D01*
X149521075Y-99252993D01*
X149553988Y-99310000D01*
X148659769Y-99310000D01*
X148670242Y-99376126D01*
X148670242Y-99376129D01*
X148735904Y-99578217D01*
X148832379Y-99767557D01*
X148957272Y-99939459D01*
X148957276Y-99939464D01*
X149107539Y-100089727D01*
X149197721Y-100155247D01*
X149240387Y-100210576D01*
X149246366Y-100280190D01*
X149213761Y-100341985D01*
X149181132Y-100366049D01*
X149025444Y-100445377D01*
X148853540Y-100570272D01*
X148853535Y-100570276D01*
X148703276Y-100720535D01*
X148703272Y-100720540D01*
X148578379Y-100892442D01*
X148481904Y-101081782D01*
X148416242Y-101283870D01*
X148416242Y-101283873D01*
X148405769Y-101350000D01*
X149299988Y-101350000D01*
X149267075Y-101407007D01*
X149233000Y-101534174D01*
X149233000Y-101665826D01*
X149267075Y-101792993D01*
X149299988Y-101850000D01*
X148405769Y-101850000D01*
X148416242Y-101916126D01*
X148416242Y-101916129D01*
X148481904Y-102118217D01*
X148578379Y-102307557D01*
X148703272Y-102479459D01*
X148703276Y-102479464D01*
X148853535Y-102629723D01*
X148853540Y-102629727D01*
X149025442Y-102754620D01*
X149181131Y-102833949D01*
X149231927Y-102881924D01*
X149248722Y-102949745D01*
X149226184Y-103015880D01*
X149197722Y-103044752D01*
X149107535Y-103110276D01*
X148957276Y-103260535D01*
X148957272Y-103260540D01*
X148832379Y-103432442D01*
X148735904Y-103621782D01*
X148670242Y-103823870D01*
X148670242Y-103823873D01*
X148659769Y-103890000D01*
X149553988Y-103890000D01*
X149521075Y-103947007D01*
X149487000Y-104074174D01*
X149487000Y-104205826D01*
X149521075Y-104332993D01*
X149553988Y-104390000D01*
X148659769Y-104390000D01*
X148670242Y-104456126D01*
X148670242Y-104456129D01*
X148735904Y-104658217D01*
X148832379Y-104847557D01*
X148957272Y-105019459D01*
X148957276Y-105019464D01*
X149107539Y-105169727D01*
X149197721Y-105235247D01*
X149240387Y-105290576D01*
X149246366Y-105360190D01*
X149213761Y-105421985D01*
X149181132Y-105446049D01*
X149025444Y-105525377D01*
X148853540Y-105650272D01*
X148853535Y-105650276D01*
X148703276Y-105800535D01*
X148703272Y-105800540D01*
X148578379Y-105972442D01*
X148481904Y-106161782D01*
X148416242Y-106363870D01*
X148416242Y-106363873D01*
X148405769Y-106430000D01*
X149299988Y-106430000D01*
X149267075Y-106487007D01*
X149233000Y-106614174D01*
X149233000Y-106745826D01*
X149267075Y-106872993D01*
X149299988Y-106930000D01*
X148405769Y-106930000D01*
X148416242Y-106996126D01*
X148416242Y-106996129D01*
X148481904Y-107198217D01*
X148578379Y-107387557D01*
X148703272Y-107559459D01*
X148703276Y-107559464D01*
X148853535Y-107709723D01*
X148853540Y-107709727D01*
X149025442Y-107834620D01*
X149181131Y-107913949D01*
X149231927Y-107961924D01*
X149248722Y-108029745D01*
X149226184Y-108095880D01*
X149197722Y-108124752D01*
X149107535Y-108190276D01*
X148957276Y-108340535D01*
X148957272Y-108340540D01*
X148832379Y-108512442D01*
X148735904Y-108701782D01*
X148670242Y-108903870D01*
X148670242Y-108903873D01*
X148659769Y-108970000D01*
X149553988Y-108970000D01*
X149521075Y-109027007D01*
X149487000Y-109154174D01*
X149487000Y-109285826D01*
X149521075Y-109412993D01*
X149553988Y-109470000D01*
X148659769Y-109470000D01*
X148670242Y-109536126D01*
X148670242Y-109536129D01*
X148735904Y-109738217D01*
X148832379Y-109927557D01*
X148957272Y-110099459D01*
X148957276Y-110099464D01*
X149107539Y-110249727D01*
X149197721Y-110315247D01*
X149240387Y-110370576D01*
X149246366Y-110440190D01*
X149213761Y-110501985D01*
X149181132Y-110526049D01*
X149025444Y-110605377D01*
X148853540Y-110730272D01*
X148853535Y-110730276D01*
X148703276Y-110880535D01*
X148703272Y-110880540D01*
X148578379Y-111052442D01*
X148481904Y-111241782D01*
X148416242Y-111443870D01*
X148416242Y-111443873D01*
X148405769Y-111510000D01*
X149299988Y-111510000D01*
X149267075Y-111567007D01*
X149233000Y-111694174D01*
X149233000Y-111825826D01*
X149267075Y-111952993D01*
X149299988Y-112010000D01*
X148405769Y-112010000D01*
X148416242Y-112076126D01*
X148416242Y-112076129D01*
X148481904Y-112278217D01*
X148578379Y-112467557D01*
X148703272Y-112639459D01*
X148703276Y-112639464D01*
X148853535Y-112789723D01*
X148853540Y-112789727D01*
X149025442Y-112914620D01*
X149172631Y-112989618D01*
X149223427Y-113037593D01*
X149240222Y-113105414D01*
X149217684Y-113171549D01*
X149189222Y-113200421D01*
X149101993Y-113263796D01*
X148950796Y-113414993D01*
X148825106Y-113587990D01*
X148728027Y-113778516D01*
X148728026Y-113778519D01*
X148661951Y-113981882D01*
X148628500Y-114193084D01*
X148628500Y-114406915D01*
X148661951Y-114618117D01*
X148728026Y-114821480D01*
X148728027Y-114821483D01*
X148825106Y-115012009D01*
X148950794Y-115185004D01*
X149101996Y-115336206D01*
X149189221Y-115399579D01*
X149231887Y-115454907D01*
X149237866Y-115524521D01*
X149205261Y-115586316D01*
X149172632Y-115610380D01*
X149025444Y-115685377D01*
X148853540Y-115810272D01*
X148853535Y-115810276D01*
X148703276Y-115960535D01*
X148703272Y-115960540D01*
X148578379Y-116132442D01*
X148481904Y-116321782D01*
X148416242Y-116523870D01*
X148416242Y-116523873D01*
X148405769Y-116590000D01*
X149299988Y-116590000D01*
X149267075Y-116647007D01*
X149233000Y-116774174D01*
X149233000Y-116905826D01*
X149267075Y-117032993D01*
X149299988Y-117090000D01*
X148405769Y-117090000D01*
X148416242Y-117156126D01*
X148416242Y-117156129D01*
X148481904Y-117358217D01*
X148578379Y-117547557D01*
X148703272Y-117719459D01*
X148703276Y-117719464D01*
X148853535Y-117869723D01*
X148853540Y-117869727D01*
X149025442Y-117994620D01*
X149214782Y-118091095D01*
X149416871Y-118156757D01*
X149483000Y-118167231D01*
X149483000Y-117273012D01*
X149540007Y-117305925D01*
X149667174Y-117340000D01*
X149798826Y-117340000D01*
X149925993Y-117305925D01*
X149983000Y-117273012D01*
X149983000Y-118167230D01*
X150049126Y-118156757D01*
X150049129Y-118156757D01*
X150251217Y-118091095D01*
X150440557Y-117994620D01*
X150612459Y-117869727D01*
X150612464Y-117869723D01*
X150762723Y-117719464D01*
X150762727Y-117719459D01*
X150887620Y-117547557D01*
X150984095Y-117358217D01*
X151049757Y-117156129D01*
X151049757Y-117156126D01*
X151060231Y-117090000D01*
X150166012Y-117090000D01*
X150198925Y-117032993D01*
X150233000Y-116905826D01*
X150233000Y-116774174D01*
X150198925Y-116647007D01*
X150166012Y-116590000D01*
X151060231Y-116590000D01*
X151049757Y-116523873D01*
X151049757Y-116523870D01*
X150984095Y-116321782D01*
X150887620Y-116132442D01*
X150762727Y-115960540D01*
X150762723Y-115960535D01*
X150612464Y-115810276D01*
X150612459Y-115810272D01*
X150529997Y-115750360D01*
X150487331Y-115695030D01*
X150481352Y-115625417D01*
X150513957Y-115563622D01*
X150546587Y-115539557D01*
X150699009Y-115461894D01*
X150872004Y-115336206D01*
X151023206Y-115185004D01*
X151148894Y-115012009D01*
X151245972Y-114821483D01*
X151312049Y-114618116D01*
X151345500Y-114406916D01*
X151345500Y-114193084D01*
X151312049Y-113981884D01*
X151245972Y-113778517D01*
X151245972Y-113778516D01*
X151148893Y-113587990D01*
X151023206Y-113414996D01*
X150872004Y-113263794D01*
X150784778Y-113200421D01*
X150699007Y-113138104D01*
X150546586Y-113060441D01*
X150495791Y-113012467D01*
X150478996Y-112944646D01*
X150501534Y-112878511D01*
X150529998Y-112849638D01*
X150612462Y-112789725D01*
X150762723Y-112639464D01*
X150762727Y-112639459D01*
X150887620Y-112467557D01*
X150984095Y-112278217D01*
X151049757Y-112076129D01*
X151049757Y-112076126D01*
X151060231Y-112010000D01*
X150166012Y-112010000D01*
X150198925Y-111952993D01*
X150233000Y-111825826D01*
X150233000Y-111694174D01*
X150198925Y-111567007D01*
X150166012Y-111510000D01*
X151060231Y-111510000D01*
X151049757Y-111443873D01*
X151049757Y-111443870D01*
X150984095Y-111241782D01*
X150887620Y-111052442D01*
X150762727Y-110880540D01*
X150762723Y-110880535D01*
X150612464Y-110730276D01*
X150612459Y-110730272D01*
X150522278Y-110664752D01*
X150479612Y-110609423D01*
X150473633Y-110539809D01*
X150506238Y-110478014D01*
X150538868Y-110453949D01*
X150694557Y-110374620D01*
X150866459Y-110249727D01*
X150866464Y-110249723D01*
X151016723Y-110099464D01*
X151016727Y-110099459D01*
X151141620Y-109927557D01*
X151238095Y-109738217D01*
X151303757Y-109536129D01*
X151303757Y-109536126D01*
X151314231Y-109470000D01*
X150420012Y-109470000D01*
X150452925Y-109412993D01*
X150487000Y-109285826D01*
X150487000Y-109154174D01*
X150452925Y-109027007D01*
X150420012Y-108970000D01*
X151314231Y-108970000D01*
X151303757Y-108903873D01*
X151303757Y-108903870D01*
X151238095Y-108701782D01*
X151141620Y-108512442D01*
X151016727Y-108340540D01*
X151016723Y-108340535D01*
X150866464Y-108190276D01*
X150866459Y-108190272D01*
X150694553Y-108065376D01*
X150694552Y-108065375D01*
X150538868Y-107986049D01*
X150488072Y-107938075D01*
X150471277Y-107870254D01*
X150493815Y-107804119D01*
X150522279Y-107775246D01*
X150612462Y-107709725D01*
X150762723Y-107559464D01*
X150762727Y-107559459D01*
X150887620Y-107387557D01*
X150984095Y-107198217D01*
X151049757Y-106996129D01*
X151049757Y-106996126D01*
X151060231Y-106930000D01*
X150166012Y-106930000D01*
X150198925Y-106872993D01*
X150233000Y-106745826D01*
X150233000Y-106614174D01*
X150198925Y-106487007D01*
X150166012Y-106430000D01*
X151060231Y-106430000D01*
X151049757Y-106363873D01*
X151049757Y-106363870D01*
X150984095Y-106161782D01*
X150887620Y-105972442D01*
X150762727Y-105800540D01*
X150762723Y-105800535D01*
X150612464Y-105650276D01*
X150612459Y-105650272D01*
X150522278Y-105584752D01*
X150479612Y-105529423D01*
X150473633Y-105459809D01*
X150506238Y-105398014D01*
X150538868Y-105373949D01*
X150694557Y-105294620D01*
X150866459Y-105169727D01*
X150866464Y-105169723D01*
X151016723Y-105019464D01*
X151016727Y-105019459D01*
X151141620Y-104847557D01*
X151238095Y-104658217D01*
X151303757Y-104456129D01*
X151303757Y-104456126D01*
X151314231Y-104390000D01*
X150420012Y-104390000D01*
X150452925Y-104332993D01*
X150487000Y-104205826D01*
X150487000Y-104074174D01*
X150452925Y-103947007D01*
X150420012Y-103890000D01*
X151314231Y-103890000D01*
X151303757Y-103823873D01*
X151303757Y-103823870D01*
X151238095Y-103621782D01*
X151141620Y-103432442D01*
X151016727Y-103260540D01*
X151016723Y-103260535D01*
X150866464Y-103110276D01*
X150866459Y-103110272D01*
X150694553Y-102985376D01*
X150694552Y-102985375D01*
X150538868Y-102906049D01*
X150488072Y-102858075D01*
X150471277Y-102790254D01*
X150493815Y-102724119D01*
X150522279Y-102695246D01*
X150612462Y-102629725D01*
X150762723Y-102479464D01*
X150762727Y-102479459D01*
X150887620Y-102307557D01*
X150984095Y-102118217D01*
X151049757Y-101916129D01*
X151049757Y-101916126D01*
X151060231Y-101850000D01*
X150166012Y-101850000D01*
X150198925Y-101792993D01*
X150233000Y-101665826D01*
X150233000Y-101534174D01*
X150198925Y-101407007D01*
X150166012Y-101350000D01*
X151060231Y-101350000D01*
X151049757Y-101283873D01*
X151049757Y-101283870D01*
X150984095Y-101081782D01*
X150887620Y-100892442D01*
X150762727Y-100720540D01*
X150762723Y-100720535D01*
X150612464Y-100570276D01*
X150612459Y-100570272D01*
X150522278Y-100504752D01*
X150479612Y-100449423D01*
X150473633Y-100379809D01*
X150506238Y-100318014D01*
X150538868Y-100293949D01*
X150694557Y-100214620D01*
X150866459Y-100089727D01*
X150866464Y-100089723D01*
X151016723Y-99939464D01*
X151016727Y-99939459D01*
X151141620Y-99767557D01*
X151238095Y-99578217D01*
X151303757Y-99376129D01*
X151303757Y-99376126D01*
X151314231Y-99310000D01*
X150420012Y-99310000D01*
X150452925Y-99252993D01*
X150487000Y-99125826D01*
X150487000Y-98994174D01*
X150452925Y-98867007D01*
X150420012Y-98810000D01*
X151314231Y-98810000D01*
X151303757Y-98743873D01*
X151303757Y-98743870D01*
X151238095Y-98541782D01*
X151141620Y-98352442D01*
X151016727Y-98180540D01*
X151016723Y-98180535D01*
X150866464Y-98030276D01*
X150866459Y-98030272D01*
X150694553Y-97905376D01*
X150694552Y-97905375D01*
X150538868Y-97826049D01*
X150488072Y-97778075D01*
X150471277Y-97710254D01*
X150493815Y-97644119D01*
X150522279Y-97615246D01*
X150612462Y-97549725D01*
X150762723Y-97399464D01*
X150762727Y-97399459D01*
X150887620Y-97227557D01*
X150984095Y-97038217D01*
X151049757Y-96836129D01*
X151049757Y-96836126D01*
X151060231Y-96770000D01*
X150166012Y-96770000D01*
X150198925Y-96712993D01*
X150233000Y-96585826D01*
X150233000Y-96454174D01*
X150198925Y-96327007D01*
X150166012Y-96270000D01*
X151060231Y-96270000D01*
X151049757Y-96203873D01*
X151049757Y-96203870D01*
X150984095Y-96001782D01*
X150887620Y-95812442D01*
X150762727Y-95640540D01*
X150762723Y-95640535D01*
X150612464Y-95490276D01*
X150612459Y-95490272D01*
X150529997Y-95430360D01*
X150487331Y-95375030D01*
X150481352Y-95305417D01*
X150513957Y-95243622D01*
X150546587Y-95219557D01*
X150555089Y-95215225D01*
X150699009Y-95141894D01*
X150872004Y-95016206D01*
X151023206Y-94865004D01*
X151148894Y-94692009D01*
X151245972Y-94501483D01*
X151312049Y-94298116D01*
X151345500Y-94086916D01*
X151345500Y-93873084D01*
X151312049Y-93661884D01*
X151245972Y-93458517D01*
X151245972Y-93458516D01*
X151148893Y-93267990D01*
X151023206Y-93094996D01*
X150872004Y-92943794D01*
X150699009Y-92818106D01*
X150555086Y-92744773D01*
X150504291Y-92696799D01*
X150487496Y-92628978D01*
X150510033Y-92562843D01*
X150538497Y-92533971D01*
X150618004Y-92476206D01*
X150769206Y-92325004D01*
X150894894Y-92152009D01*
X150991972Y-91961483D01*
X151058049Y-91758116D01*
X151091500Y-91546916D01*
X151091500Y-91333084D01*
X151058049Y-91121884D01*
X150991972Y-90918517D01*
X150991972Y-90918516D01*
X150894893Y-90727990D01*
X150774367Y-90562100D01*
X150769206Y-90554996D01*
X150618004Y-90403794D01*
X150538496Y-90346028D01*
X150495831Y-90290697D01*
X150489852Y-90221084D01*
X150522458Y-90159289D01*
X150555085Y-90135226D01*
X150699009Y-90061894D01*
X150872004Y-89936206D01*
X151023206Y-89785004D01*
X151148894Y-89612009D01*
X151245972Y-89421483D01*
X151312049Y-89218116D01*
X151345500Y-89006916D01*
X151345500Y-88793084D01*
X151312049Y-88581884D01*
X151255803Y-88408774D01*
X151245973Y-88378519D01*
X151245972Y-88378516D01*
X151184845Y-88258548D01*
X151148894Y-88187991D01*
X151023206Y-88014996D01*
X150872004Y-87863794D01*
X150699009Y-87738106D01*
X150555086Y-87664773D01*
X150504291Y-87616799D01*
X150487496Y-87548978D01*
X150510033Y-87482843D01*
X150538497Y-87453971D01*
X150618004Y-87396206D01*
X150769206Y-87245004D01*
X150894894Y-87072009D01*
X150991972Y-86881483D01*
X151058049Y-86678116D01*
X151091500Y-86466916D01*
X151091500Y-86253084D01*
X151058049Y-86041884D01*
X150991972Y-85838517D01*
X150991972Y-85838516D01*
X150935797Y-85728268D01*
X150894894Y-85647991D01*
X150769206Y-85474996D01*
X150618004Y-85323794D01*
X150538496Y-85266028D01*
X150495831Y-85210697D01*
X150489852Y-85141084D01*
X150522458Y-85079289D01*
X150555085Y-85055226D01*
X150699009Y-84981894D01*
X150872004Y-84856206D01*
X151023206Y-84705004D01*
X151148894Y-84532009D01*
X151245972Y-84341483D01*
X151312049Y-84138116D01*
X151345500Y-83926916D01*
X151345500Y-83713084D01*
X151312049Y-83501884D01*
X151245972Y-83298517D01*
X151245972Y-83298516D01*
X151148893Y-83107990D01*
X151023206Y-82934996D01*
X150872004Y-82783794D01*
X150699009Y-82658106D01*
X150555086Y-82584773D01*
X150504291Y-82536799D01*
X150487496Y-82468978D01*
X150510033Y-82402843D01*
X150538497Y-82373971D01*
X150618004Y-82316206D01*
X150769206Y-82165004D01*
X150894894Y-81992009D01*
X150991972Y-81801483D01*
X151058049Y-81598116D01*
X151091500Y-81386916D01*
X151091500Y-81173084D01*
X151058049Y-80961884D01*
X150991972Y-80758517D01*
X150991972Y-80758516D01*
X150894893Y-80567990D01*
X150838448Y-80490300D01*
X150769206Y-80394996D01*
X150618004Y-80243794D01*
X150567835Y-80207344D01*
X150538496Y-80186028D01*
X150495831Y-80130697D01*
X150489852Y-80061084D01*
X150522458Y-79999289D01*
X150555085Y-79975226D01*
X150699009Y-79901894D01*
X150872004Y-79776206D01*
X151023206Y-79625004D01*
X151148894Y-79452009D01*
X151245972Y-79261483D01*
X151312049Y-79058116D01*
X151345500Y-78846916D01*
X151345500Y-78633084D01*
X151312049Y-78421884D01*
X151269295Y-78290300D01*
X151245973Y-78218519D01*
X151245972Y-78218516D01*
X151183013Y-78094953D01*
X151148894Y-78027991D01*
X151023206Y-77854996D01*
X150872004Y-77703794D01*
X150848757Y-77686904D01*
X150806091Y-77631574D01*
X150800112Y-77561961D01*
X150832718Y-77500166D01*
X150847331Y-77487319D01*
X150946261Y-77413261D01*
X151033889Y-77296204D01*
X151084989Y-77159201D01*
X151088591Y-77125692D01*
X151091499Y-77098654D01*
X151091500Y-77098637D01*
X151091500Y-75301362D01*
X151091499Y-75301345D01*
X151087451Y-75263700D01*
X151084989Y-75240799D01*
X151033889Y-75103796D01*
X150946261Y-74986739D01*
X150829204Y-74899111D01*
X150692203Y-74848011D01*
X150631654Y-74841500D01*
X150631638Y-74841500D01*
X148834362Y-74841500D01*
X148834345Y-74841500D01*
X148773797Y-74848011D01*
X148773795Y-74848011D01*
X148636795Y-74899111D01*
X148519739Y-74986739D01*
X148432111Y-75103795D01*
X148381011Y-75240795D01*
X148381011Y-75240797D01*
X148374500Y-75301345D01*
X130892660Y-75301345D01*
X130877235Y-75294956D01*
X130877225Y-75294953D01*
X130720105Y-75263700D01*
X130720103Y-75263700D01*
X130559897Y-75263700D01*
X130559895Y-75263700D01*
X130402774Y-75294953D01*
X130402764Y-75294956D01*
X130254762Y-75356260D01*
X130254760Y-75356261D01*
X130121552Y-75445268D01*
X130121548Y-75445271D01*
X130008271Y-75558548D01*
X130008268Y-75558552D01*
X129919261Y-75691760D01*
X129919260Y-75691762D01*
X129857956Y-75839764D01*
X129857953Y-75839774D01*
X129826700Y-75996894D01*
X129826700Y-75996897D01*
X129826700Y-76157103D01*
X129826700Y-76157105D01*
X129826699Y-76157105D01*
X107911500Y-76157105D01*
X107911500Y-75301362D01*
X107911499Y-75301345D01*
X107907451Y-75263700D01*
X107904989Y-75240799D01*
X107853889Y-75103796D01*
X107766261Y-74986739D01*
X107649204Y-74899111D01*
X107512203Y-74848011D01*
X107451654Y-74841500D01*
X107451638Y-74841500D01*
X105654362Y-74841500D01*
X105654345Y-74841500D01*
X105593797Y-74848011D01*
X105593795Y-74848011D01*
X105456795Y-74899111D01*
X105339739Y-74986739D01*
X105252111Y-75103795D01*
X105201011Y-75240795D01*
X105201011Y-75240797D01*
X105194500Y-75301345D01*
X104215500Y-75301345D01*
X104215500Y-73664875D01*
X104215882Y-73655147D01*
X104229440Y-73482867D01*
X104229440Y-73482866D01*
X104232482Y-73463655D01*
X104271687Y-73300357D01*
X104277695Y-73281868D01*
X104341961Y-73126713D01*
X104350784Y-73109398D01*
X104438530Y-72966209D01*
X104449966Y-72950470D01*
X104559027Y-72822776D01*
X104572776Y-72809027D01*
X104700472Y-72699964D01*
X104716212Y-72688529D01*
X104859398Y-72600784D01*
X104876713Y-72591961D01*
X105031868Y-72527695D01*
X105050357Y-72521687D01*
X105213655Y-72482482D01*
X105232861Y-72479440D01*
X105380383Y-72467830D01*
X105405147Y-72465882D01*
X105414875Y-72465500D01*
X105434531Y-72465500D01*
X151105469Y-72465500D01*
X151125125Y-72465500D01*
X151134853Y-72465882D01*
G37*
%TD.AperFunction*%
%TD*%
M02*
