%TF.GenerationSoftware,KiCad,Pcbnew,10.0.2*%
%TF.CreationDate,2026-07-15T09:00:36-04:00*%
%TF.ProjectId,js320-faceplate,6a733332-302d-4666-9163-65706c617465,rev?*%
%TF.SameCoordinates,Original*%
%TF.FileFunction,Legend,Bot*%
%TF.FilePolarity,Positive*%
%FSLAX46Y46*%
G04 Gerber Fmt 4.6, Leading zero omitted, Abs format (unit mm)*
G04 Created by KiCad (PCBNEW 10.0.2) date 2026-07-15 09:00:36*
%MOMM*%
%LPD*%
G01*
G04 APERTURE LIST*
G04 Aperture macros list*
%AMRoundRect*
0 Rectangle with rounded corners*
0 $1 Rounding radius*
0 $2 $3 $4 $5 $6 $7 $8 $9 X,Y pos of 4 corners*
0 Add a 4 corners polygon primitive as box body*
4,1,4,$2,$3,$4,$5,$6,$7,$8,$9,$2,$3,0*
0 Add four circle primitives for the rounded corners*
1,1,$1+$1,$2,$3*
1,1,$1+$1,$4,$5*
1,1,$1+$1,$6,$7*
1,1,$1+$1,$8,$9*
0 Add four rect primitives between the rounded corners*
20,1,$1+$1,$2,$3,$4,$5,0*
20,1,$1+$1,$4,$5,$6,$7,0*
20,1,$1+$1,$6,$7,$8,$9,0*
20,1,$1+$1,$8,$9,$2,$3,0*%
%AMFreePoly0*
4,1,223,35.841068,0.568110,36.529962,0.510003,37.214514,0.413360,37.892571,0.278487,38.561998,0.105806,39.220689,-0.104138,39.866573,-0.350685,40.497617,-0.633059,41.111835,-0.950371,41.707295,-1.301624,42.282124,-1.685712,42.834512,-2.101427,43.362722,-2.547460,43.865091,-3.022409,44.340040,-3.524778,44.786073,-4.052988,45.201788,-4.605376,45.585876,-5.180205,45.937129,-5.775665,46.254441,-6.389883,
46.536815,-7.020927,46.783362,-7.666811,46.993306,-8.325502,47.165987,-8.994929,47.300860,-9.672986,47.397503,-10.357538,47.455610,-11.046432,47.475000,-11.737500,47.455610,-12.428568,47.397503,-13.117462,47.300860,-13.802014,47.165987,-14.480071,46.993306,-15.149498,46.783362,-15.808189,46.536815,-16.454073,46.254441,-17.085117,45.937129,-17.699335,45.585876,-18.294795,45.201788,-18.869624,44.786073,-19.422012,
44.340040,-19.950222,43.865091,-20.452591,43.362722,-20.927540,42.834512,-21.373573,42.282124,-21.789288,41.707295,-22.173376,41.111835,-22.524629,40.497617,-22.841941,39.866573,-23.124315,39.220689,-23.370862,38.561998,-23.580806,37.892571,-23.753487,37.214514,-23.888360,36.529962,-23.985003,35.841068,-24.043110,35.150000,-24.062500,-35.150000,-24.062500,-35.841068,-24.043110,-36.529962,-23.985003,-37.214514,-23.888360,
-37.892571,-23.753487,-38.561998,-23.580806,-39.220689,-23.370862,-39.866573,-23.124315,-40.497617,-22.841941,-41.111835,-22.524629,-41.707295,-22.173376,-42.282124,-21.789288,-42.834512,-21.373573,-43.362722,-20.927540,-43.865091,-20.452591,-44.340040,-19.950222,-44.786073,-19.422012,-45.201788,-18.869624,-45.585876,-18.294795,-45.937129,-17.699335,-46.254441,-17.085117,-46.536815,-16.454073,-46.783362,-15.808189,-46.993306,-15.149498,
-47.165987,-14.480071,-47.300860,-13.802014,-47.397503,-13.117462,-47.455610,-12.428568,-47.475000,-11.737500,-46.279888,-11.737500,-46.260341,-12.396842,-46.201768,-13.053867,-46.104376,-13.706269,-45.968506,-14.351755,-45.794636,-14.988059,-45.583376,-15.612945,-45.335468,-16.224219,-45.051784,-16.819732,-44.733319,-17.397394,-44.381192,-17.955176,-43.996641,-18.491118,-43.581015,-19.003337,-43.135775,-19.490035,-42.662485,-19.949502,
-42.162807,-20.380124,-41.638496,-20.780388,-41.091394,-21.148889,-40.523423,-21.484332,-39.936578,-21.785539,-39.332919,-22.051452,-38.714568,-22.281136,-38.083696,-22.473786,-37.442519,-22.628724,-36.793290,-22.745407,-36.138288,-22.823423,-35.479816,-22.862500,35.479816,-22.862500,36.138288,-22.823423,36.793290,-22.745407,37.442519,-22.628724,38.083696,-22.473786,38.714568,-22.281136,39.332919,-22.051452,39.936578,-21.785539,
40.523423,-21.484332,41.091394,-21.148889,41.638496,-20.780388,42.162807,-20.380124,42.662485,-19.949502,43.135775,-19.490035,43.581015,-19.003337,43.996641,-18.491118,44.381192,-17.955176,44.733319,-17.397394,45.051784,-16.819732,45.335468,-16.224219,45.583376,-15.612945,45.794636,-14.988059,45.968506,-14.351755,46.104376,-13.706269,46.201768,-13.053867,46.260341,-12.396842,46.279888,-11.737500,46.260341,-11.078158,
46.201768,-10.421133,46.104376,-9.768731,45.968506,-9.123245,45.794636,-8.486941,45.583376,-7.862055,45.335468,-7.250781,45.051784,-6.655268,44.733319,-6.077606,44.381192,-5.519824,43.996641,-4.983882,43.581015,-4.471663,43.135775,-3.984965,42.662485,-3.525498,42.162807,-3.094876,41.638496,-2.694612,41.091394,-2.326111,40.523423,-1.990668,39.936578,-1.689461,39.332919,-1.423548,38.714568,-1.193864,
38.083696,-1.001214,37.442519,-0.846276,36.793290,-0.729593,36.138288,-0.651577,35.479816,-0.612500,-35.479816,-0.612500,-36.138288,-0.651577,-36.793290,-0.729593,-37.442519,-0.846276,-38.083696,-1.001214,-38.714568,-1.193864,-39.332919,-1.423548,-39.936578,-1.689461,-40.523423,-1.990668,-41.091394,-2.326111,-41.638496,-2.694612,-42.162807,-3.094876,-42.662485,-3.525498,-43.135775,-3.984965,-43.581015,-4.471663,
-43.996641,-4.983882,-44.381192,-5.519824,-44.733319,-6.077606,-45.051784,-6.655268,-45.335468,-7.250781,-45.583376,-7.862055,-45.794636,-8.486941,-45.968506,-9.123245,-46.104376,-9.768731,-46.201768,-10.421133,-46.260341,-11.078158,-46.279888,-11.737500,-47.475000,-11.737500,-47.455610,-11.046432,-47.397503,-10.357538,-47.300860,-9.672986,-47.165987,-8.994929,-46.993306,-8.325502,-46.783362,-7.666811,-46.536815,-7.020927,
-46.254441,-6.389883,-45.937129,-5.775665,-45.585876,-5.180205,-45.201788,-4.605376,-44.786073,-4.052988,-44.340040,-3.524778,-43.865091,-3.022409,-43.362722,-2.547460,-42.834512,-2.101427,-42.282124,-1.685712,-41.707295,-1.301624,-41.111835,-0.950371,-40.497617,-0.633059,-39.866573,-0.350685,-39.220689,-0.104138,-38.561998,0.105806,-37.892571,0.278487,-37.214514,0.413360,-36.529962,0.510003,-35.841068,0.568110,
-35.150000,0.587500,35.150000,0.587500,35.841068,0.568110,35.841068,0.568110,$1*%
G04 Aperture macros list end*
%ADD10C,0.150000*%
%ADD11C,0.200000*%
%ADD12C,0.120000*%
%ADD13C,0.152400*%
%ADD14C,1.250000*%
%ADD15C,0.010000*%
%ADD16C,0.000000*%
%ADD17C,1.200000*%
%ADD18RoundRect,0.250000X0.600000X0.725000X-0.600000X0.725000X-0.600000X-0.725000X0.600000X-0.725000X0*%
%ADD19O,1.700000X1.950000*%
%ADD20C,3.500000*%
%ADD21C,3.300000*%
%ADD22C,1.730000*%
%ADD23C,0.800000*%
%ADD24FreePoly0,0.000000*%
%ADD25C,1.320800*%
%ADD26R,1.320800X1.320800*%
%ADD27RoundRect,0.102000X-0.750000X-1.900000X0.750000X-1.900000X0.750000X1.900000X-0.750000X1.900000X0*%
%ADD28RoundRect,0.102000X-1.500000X-0.650000X1.500000X-0.650000X1.500000X0.650000X-1.500000X0.650000X0*%
%ADD29RoundRect,0.140000X0.170000X-0.140000X0.170000X0.140000X-0.170000X0.140000X-0.170000X-0.140000X0*%
%ADD30RoundRect,0.250000X0.450000X-0.262500X0.450000X0.262500X-0.450000X0.262500X-0.450000X-0.262500X0*%
%ADD31RoundRect,0.250000X-0.250000X-0.475000X0.250000X-0.475000X0.250000X0.475000X-0.250000X0.475000X0*%
%ADD32RoundRect,0.250000X0.475000X-0.250000X0.475000X0.250000X-0.475000X0.250000X-0.475000X-0.250000X0*%
%ADD33RoundRect,0.250000X-0.475000X0.250000X-0.475000X-0.250000X0.475000X-0.250000X0.475000X0.250000X0*%
%ADD34RoundRect,0.250000X0.250000X0.475000X-0.250000X0.475000X-0.250000X-0.475000X0.250000X-0.475000X0*%
%ADD35RoundRect,0.150000X-0.150000X0.512500X-0.150000X-0.512500X0.150000X-0.512500X0.150000X0.512500X0*%
%ADD36RoundRect,0.250000X-0.262500X-0.450000X0.262500X-0.450000X0.262500X0.450000X-0.262500X0.450000X0*%
%ADD37RoundRect,0.140000X-0.170000X0.140000X-0.170000X-0.140000X0.170000X-0.140000X0.170000X0.140000X0*%
%ADD38R,0.609600X0.304800*%
%ADD39R,0.127000X0.127000*%
%ADD40RoundRect,0.062500X0.362500X0.062500X-0.362500X0.062500X-0.362500X-0.062500X0.362500X-0.062500X0*%
%ADD41R,1.650000X2.380000*%
G04 APERTURE END LIST*
D10*
X110966792Y-80949580D02*
X111014411Y-80997200D01*
X111014411Y-80997200D02*
X111157268Y-81044819D01*
X111157268Y-81044819D02*
X111252506Y-81044819D01*
X111252506Y-81044819D02*
X111395363Y-80997200D01*
X111395363Y-80997200D02*
X111490601Y-80901961D01*
X111490601Y-80901961D02*
X111538220Y-80806723D01*
X111538220Y-80806723D02*
X111585839Y-80616247D01*
X111585839Y-80616247D02*
X111585839Y-80473390D01*
X111585839Y-80473390D02*
X111538220Y-80282914D01*
X111538220Y-80282914D02*
X111490601Y-80187676D01*
X111490601Y-80187676D02*
X111395363Y-80092438D01*
X111395363Y-80092438D02*
X111252506Y-80044819D01*
X111252506Y-80044819D02*
X111157268Y-80044819D01*
X111157268Y-80044819D02*
X111014411Y-80092438D01*
X111014411Y-80092438D02*
X110966792Y-80140057D01*
X143228572Y-87307494D02*
X143323810Y-87259875D01*
X143323810Y-87259875D02*
X143466667Y-87259875D01*
X143466667Y-87259875D02*
X143609524Y-87307494D01*
X143609524Y-87307494D02*
X143704762Y-87402732D01*
X143704762Y-87402732D02*
X143752381Y-87497970D01*
X143752381Y-87497970D02*
X143800000Y-87688446D01*
X143800000Y-87688446D02*
X143800000Y-87831303D01*
X143800000Y-87831303D02*
X143752381Y-88021779D01*
X143752381Y-88021779D02*
X143704762Y-88117017D01*
X143704762Y-88117017D02*
X143609524Y-88212256D01*
X143609524Y-88212256D02*
X143466667Y-88259875D01*
X143466667Y-88259875D02*
X143371429Y-88259875D01*
X143371429Y-88259875D02*
X143228572Y-88212256D01*
X143228572Y-88212256D02*
X143180953Y-88164636D01*
X143180953Y-88164636D02*
X143180953Y-87831303D01*
X143180953Y-87831303D02*
X143371429Y-87831303D01*
X142371429Y-88212256D02*
X142466667Y-88259875D01*
X142466667Y-88259875D02*
X142657143Y-88259875D01*
X142657143Y-88259875D02*
X142752381Y-88212256D01*
X142752381Y-88212256D02*
X142800000Y-88117017D01*
X142800000Y-88117017D02*
X142800000Y-87736065D01*
X142800000Y-87736065D02*
X142752381Y-87640827D01*
X142752381Y-87640827D02*
X142657143Y-87593208D01*
X142657143Y-87593208D02*
X142466667Y-87593208D01*
X142466667Y-87593208D02*
X142371429Y-87640827D01*
X142371429Y-87640827D02*
X142323810Y-87736065D01*
X142323810Y-87736065D02*
X142323810Y-87831303D01*
X142323810Y-87831303D02*
X142800000Y-87926541D01*
X141752381Y-88259875D02*
X141847619Y-88212256D01*
X141847619Y-88212256D02*
X141895238Y-88164636D01*
X141895238Y-88164636D02*
X141942857Y-88069398D01*
X141942857Y-88069398D02*
X141942857Y-87783684D01*
X141942857Y-87783684D02*
X141895238Y-87688446D01*
X141895238Y-87688446D02*
X141847619Y-87640827D01*
X141847619Y-87640827D02*
X141752381Y-87593208D01*
X141752381Y-87593208D02*
X141609524Y-87593208D01*
X141609524Y-87593208D02*
X141514286Y-87640827D01*
X141514286Y-87640827D02*
X141466667Y-87688446D01*
X141466667Y-87688446D02*
X141419048Y-87783684D01*
X141419048Y-87783684D02*
X141419048Y-88069398D01*
X141419048Y-88069398D02*
X141466667Y-88164636D01*
X141466667Y-88164636D02*
X141514286Y-88212256D01*
X141514286Y-88212256D02*
X141609524Y-88259875D01*
X141609524Y-88259875D02*
X141752381Y-88259875D01*
X141133333Y-87593208D02*
X140752381Y-87593208D01*
X140990476Y-88259875D02*
X140990476Y-87402732D01*
X140990476Y-87402732D02*
X140942857Y-87307494D01*
X140942857Y-87307494D02*
X140847619Y-87259875D01*
X140847619Y-87259875D02*
X140752381Y-87259875D01*
X140561904Y-87593208D02*
X140180952Y-87593208D01*
X140419047Y-88259875D02*
X140419047Y-87402732D01*
X140419047Y-87402732D02*
X140371428Y-87307494D01*
X140371428Y-87307494D02*
X140276190Y-87259875D01*
X140276190Y-87259875D02*
X140180952Y-87259875D01*
X139847618Y-88259875D02*
X139847618Y-87593208D01*
X139847618Y-87783684D02*
X139799999Y-87688446D01*
X139799999Y-87688446D02*
X139752380Y-87640827D01*
X139752380Y-87640827D02*
X139657142Y-87593208D01*
X139657142Y-87593208D02*
X139561904Y-87593208D01*
X138847618Y-88212256D02*
X138942856Y-88259875D01*
X138942856Y-88259875D02*
X139133332Y-88259875D01*
X139133332Y-88259875D02*
X139228570Y-88212256D01*
X139228570Y-88212256D02*
X139276189Y-88117017D01*
X139276189Y-88117017D02*
X139276189Y-87736065D01*
X139276189Y-87736065D02*
X139228570Y-87640827D01*
X139228570Y-87640827D02*
X139133332Y-87593208D01*
X139133332Y-87593208D02*
X138942856Y-87593208D01*
X138942856Y-87593208D02*
X138847618Y-87640827D01*
X138847618Y-87640827D02*
X138799999Y-87736065D01*
X138799999Y-87736065D02*
X138799999Y-87831303D01*
X138799999Y-87831303D02*
X139276189Y-87926541D01*
X138466665Y-87593208D02*
X138228570Y-88259875D01*
X137990475Y-87593208D02*
X138228570Y-88259875D01*
X138228570Y-88259875D02*
X138323808Y-88497970D01*
X138323808Y-88497970D02*
X138371427Y-88545589D01*
X138371427Y-88545589D02*
X138466665Y-88593208D01*
X136514284Y-87736065D02*
X136371427Y-87783684D01*
X136371427Y-87783684D02*
X136323808Y-87831303D01*
X136323808Y-87831303D02*
X136276189Y-87926541D01*
X136276189Y-87926541D02*
X136276189Y-88069398D01*
X136276189Y-88069398D02*
X136323808Y-88164636D01*
X136323808Y-88164636D02*
X136371427Y-88212256D01*
X136371427Y-88212256D02*
X136466665Y-88259875D01*
X136466665Y-88259875D02*
X136847617Y-88259875D01*
X136847617Y-88259875D02*
X136847617Y-87259875D01*
X136847617Y-87259875D02*
X136514284Y-87259875D01*
X136514284Y-87259875D02*
X136419046Y-87307494D01*
X136419046Y-87307494D02*
X136371427Y-87355113D01*
X136371427Y-87355113D02*
X136323808Y-87450351D01*
X136323808Y-87450351D02*
X136323808Y-87545589D01*
X136323808Y-87545589D02*
X136371427Y-87640827D01*
X136371427Y-87640827D02*
X136419046Y-87688446D01*
X136419046Y-87688446D02*
X136514284Y-87736065D01*
X136514284Y-87736065D02*
X136847617Y-87736065D01*
X135847617Y-88259875D02*
X135847617Y-87593208D01*
X135847617Y-87783684D02*
X135799998Y-87688446D01*
X135799998Y-87688446D02*
X135752379Y-87640827D01*
X135752379Y-87640827D02*
X135657141Y-87593208D01*
X135657141Y-87593208D02*
X135561903Y-87593208D01*
X135085712Y-88259875D02*
X135180950Y-88212256D01*
X135180950Y-88212256D02*
X135228569Y-88164636D01*
X135228569Y-88164636D02*
X135276188Y-88069398D01*
X135276188Y-88069398D02*
X135276188Y-87783684D01*
X135276188Y-87783684D02*
X135228569Y-87688446D01*
X135228569Y-87688446D02*
X135180950Y-87640827D01*
X135180950Y-87640827D02*
X135085712Y-87593208D01*
X135085712Y-87593208D02*
X134942855Y-87593208D01*
X134942855Y-87593208D02*
X134847617Y-87640827D01*
X134847617Y-87640827D02*
X134799998Y-87688446D01*
X134799998Y-87688446D02*
X134752379Y-87783684D01*
X134752379Y-87783684D02*
X134752379Y-88069398D01*
X134752379Y-88069398D02*
X134799998Y-88164636D01*
X134799998Y-88164636D02*
X134847617Y-88212256D01*
X134847617Y-88212256D02*
X134942855Y-88259875D01*
X134942855Y-88259875D02*
X135085712Y-88259875D01*
X134419045Y-87593208D02*
X134228569Y-88259875D01*
X134228569Y-88259875D02*
X134038093Y-87783684D01*
X134038093Y-87783684D02*
X133847617Y-88259875D01*
X133847617Y-88259875D02*
X133657141Y-87593208D01*
X133276188Y-87593208D02*
X133276188Y-88259875D01*
X133276188Y-87688446D02*
X133228569Y-87640827D01*
X133228569Y-87640827D02*
X133133331Y-87593208D01*
X133133331Y-87593208D02*
X132990474Y-87593208D01*
X132990474Y-87593208D02*
X132895236Y-87640827D01*
X132895236Y-87640827D02*
X132847617Y-87736065D01*
X132847617Y-87736065D02*
X132847617Y-88259875D01*
X141061904Y-88869819D02*
X141252380Y-88869819D01*
X141252380Y-88869819D02*
X141347618Y-88917438D01*
X141347618Y-88917438D02*
X141395237Y-88965057D01*
X141395237Y-88965057D02*
X141490475Y-89107914D01*
X141490475Y-89107914D02*
X141538094Y-89298390D01*
X141538094Y-89298390D02*
X141538094Y-89679342D01*
X141538094Y-89679342D02*
X141490475Y-89774580D01*
X141490475Y-89774580D02*
X141442856Y-89822200D01*
X141442856Y-89822200D02*
X141347618Y-89869819D01*
X141347618Y-89869819D02*
X141157142Y-89869819D01*
X141157142Y-89869819D02*
X141061904Y-89822200D01*
X141061904Y-89822200D02*
X141014285Y-89774580D01*
X141014285Y-89774580D02*
X140966666Y-89679342D01*
X140966666Y-89679342D02*
X140966666Y-89441247D01*
X140966666Y-89441247D02*
X141014285Y-89346009D01*
X141014285Y-89346009D02*
X141061904Y-89298390D01*
X141061904Y-89298390D02*
X141157142Y-89250771D01*
X141157142Y-89250771D02*
X141347618Y-89250771D01*
X141347618Y-89250771D02*
X141442856Y-89298390D01*
X141442856Y-89298390D02*
X141490475Y-89346009D01*
X141490475Y-89346009D02*
X141538094Y-89441247D01*
X139823809Y-88822200D02*
X140680951Y-90107914D01*
X139538094Y-88965057D02*
X139490475Y-88917438D01*
X139490475Y-88917438D02*
X139395237Y-88869819D01*
X139395237Y-88869819D02*
X139157142Y-88869819D01*
X139157142Y-88869819D02*
X139061904Y-88917438D01*
X139061904Y-88917438D02*
X139014285Y-88965057D01*
X139014285Y-88965057D02*
X138966666Y-89060295D01*
X138966666Y-89060295D02*
X138966666Y-89155533D01*
X138966666Y-89155533D02*
X139014285Y-89298390D01*
X139014285Y-89298390D02*
X139585713Y-89869819D01*
X139585713Y-89869819D02*
X138966666Y-89869819D01*
X138347618Y-88869819D02*
X138252380Y-88869819D01*
X138252380Y-88869819D02*
X138157142Y-88917438D01*
X138157142Y-88917438D02*
X138109523Y-88965057D01*
X138109523Y-88965057D02*
X138061904Y-89060295D01*
X138061904Y-89060295D02*
X138014285Y-89250771D01*
X138014285Y-89250771D02*
X138014285Y-89488866D01*
X138014285Y-89488866D02*
X138061904Y-89679342D01*
X138061904Y-89679342D02*
X138109523Y-89774580D01*
X138109523Y-89774580D02*
X138157142Y-89822200D01*
X138157142Y-89822200D02*
X138252380Y-89869819D01*
X138252380Y-89869819D02*
X138347618Y-89869819D01*
X138347618Y-89869819D02*
X138442856Y-89822200D01*
X138442856Y-89822200D02*
X138490475Y-89774580D01*
X138490475Y-89774580D02*
X138538094Y-89679342D01*
X138538094Y-89679342D02*
X138585713Y-89488866D01*
X138585713Y-89488866D02*
X138585713Y-89250771D01*
X138585713Y-89250771D02*
X138538094Y-89060295D01*
X138538094Y-89060295D02*
X138490475Y-88965057D01*
X138490475Y-88965057D02*
X138442856Y-88917438D01*
X138442856Y-88917438D02*
X138347618Y-88869819D01*
X136871428Y-88822200D02*
X137728570Y-90107914D01*
X136585713Y-88965057D02*
X136538094Y-88917438D01*
X136538094Y-88917438D02*
X136442856Y-88869819D01*
X136442856Y-88869819D02*
X136204761Y-88869819D01*
X136204761Y-88869819D02*
X136109523Y-88917438D01*
X136109523Y-88917438D02*
X136061904Y-88965057D01*
X136061904Y-88965057D02*
X136014285Y-89060295D01*
X136014285Y-89060295D02*
X136014285Y-89155533D01*
X136014285Y-89155533D02*
X136061904Y-89298390D01*
X136061904Y-89298390D02*
X136633332Y-89869819D01*
X136633332Y-89869819D02*
X136014285Y-89869819D01*
X135157142Y-88869819D02*
X135347618Y-88869819D01*
X135347618Y-88869819D02*
X135442856Y-88917438D01*
X135442856Y-88917438D02*
X135490475Y-88965057D01*
X135490475Y-88965057D02*
X135585713Y-89107914D01*
X135585713Y-89107914D02*
X135633332Y-89298390D01*
X135633332Y-89298390D02*
X135633332Y-89679342D01*
X135633332Y-89679342D02*
X135585713Y-89774580D01*
X135585713Y-89774580D02*
X135538094Y-89822200D01*
X135538094Y-89822200D02*
X135442856Y-89869819D01*
X135442856Y-89869819D02*
X135252380Y-89869819D01*
X135252380Y-89869819D02*
X135157142Y-89822200D01*
X135157142Y-89822200D02*
X135109523Y-89774580D01*
X135109523Y-89774580D02*
X135061904Y-89679342D01*
X135061904Y-89679342D02*
X135061904Y-89441247D01*
X135061904Y-89441247D02*
X135109523Y-89346009D01*
X135109523Y-89346009D02*
X135157142Y-89298390D01*
X135157142Y-89298390D02*
X135252380Y-89250771D01*
X135252380Y-89250771D02*
X135442856Y-89250771D01*
X135442856Y-89250771D02*
X135538094Y-89298390D01*
X135538094Y-89298390D02*
X135585713Y-89346009D01*
X135585713Y-89346009D02*
X135633332Y-89441247D01*
X133983333Y-80454819D02*
X133983333Y-81169104D01*
X133983333Y-81169104D02*
X134030952Y-81311961D01*
X134030952Y-81311961D02*
X134126190Y-81407200D01*
X134126190Y-81407200D02*
X134269047Y-81454819D01*
X134269047Y-81454819D02*
X134364285Y-81454819D01*
X132983333Y-81454819D02*
X133554761Y-81454819D01*
X133269047Y-81454819D02*
X133269047Y-80454819D01*
X133269047Y-80454819D02*
X133364285Y-80597676D01*
X133364285Y-80597676D02*
X133459523Y-80692914D01*
X133459523Y-80692914D02*
X133554761Y-80740533D01*
X110953332Y-72477200D02*
X110810475Y-72524819D01*
X110810475Y-72524819D02*
X110572380Y-72524819D01*
X110572380Y-72524819D02*
X110477142Y-72477200D01*
X110477142Y-72477200D02*
X110429523Y-72429580D01*
X110429523Y-72429580D02*
X110381904Y-72334342D01*
X110381904Y-72334342D02*
X110381904Y-72239104D01*
X110381904Y-72239104D02*
X110429523Y-72143866D01*
X110429523Y-72143866D02*
X110477142Y-72096247D01*
X110477142Y-72096247D02*
X110572380Y-72048628D01*
X110572380Y-72048628D02*
X110762856Y-72001009D01*
X110762856Y-72001009D02*
X110858094Y-71953390D01*
X110858094Y-71953390D02*
X110905713Y-71905771D01*
X110905713Y-71905771D02*
X110953332Y-71810533D01*
X110953332Y-71810533D02*
X110953332Y-71715295D01*
X110953332Y-71715295D02*
X110905713Y-71620057D01*
X110905713Y-71620057D02*
X110858094Y-71572438D01*
X110858094Y-71572438D02*
X110762856Y-71524819D01*
X110762856Y-71524819D02*
X110524761Y-71524819D01*
X110524761Y-71524819D02*
X110381904Y-71572438D01*
X110048570Y-71524819D02*
X109810475Y-72524819D01*
X109810475Y-72524819D02*
X109619999Y-71810533D01*
X109619999Y-71810533D02*
X109429523Y-72524819D01*
X109429523Y-72524819D02*
X109191428Y-71524819D01*
X108286666Y-72524819D02*
X108858094Y-72524819D01*
X108572380Y-72524819D02*
X108572380Y-71524819D01*
X108572380Y-71524819D02*
X108667618Y-71667676D01*
X108667618Y-71667676D02*
X108762856Y-71762914D01*
X108762856Y-71762914D02*
X108858094Y-71810533D01*
X156542857Y-83909580D02*
X156590476Y-83957200D01*
X156590476Y-83957200D02*
X156733333Y-84004819D01*
X156733333Y-84004819D02*
X156828571Y-84004819D01*
X156828571Y-84004819D02*
X156971428Y-83957200D01*
X156971428Y-83957200D02*
X157066666Y-83861961D01*
X157066666Y-83861961D02*
X157114285Y-83766723D01*
X157114285Y-83766723D02*
X157161904Y-83576247D01*
X157161904Y-83576247D02*
X157161904Y-83433390D01*
X157161904Y-83433390D02*
X157114285Y-83242914D01*
X157114285Y-83242914D02*
X157066666Y-83147676D01*
X157066666Y-83147676D02*
X156971428Y-83052438D01*
X156971428Y-83052438D02*
X156828571Y-83004819D01*
X156828571Y-83004819D02*
X156733333Y-83004819D01*
X156733333Y-83004819D02*
X156590476Y-83052438D01*
X156590476Y-83052438D02*
X156542857Y-83100057D01*
X155590476Y-84004819D02*
X156161904Y-84004819D01*
X155876190Y-84004819D02*
X155876190Y-83004819D01*
X155876190Y-83004819D02*
X155971428Y-83147676D01*
X155971428Y-83147676D02*
X156066666Y-83242914D01*
X156066666Y-83242914D02*
X156161904Y-83290533D01*
X154971428Y-83004819D02*
X154876190Y-83004819D01*
X154876190Y-83004819D02*
X154780952Y-83052438D01*
X154780952Y-83052438D02*
X154733333Y-83100057D01*
X154733333Y-83100057D02*
X154685714Y-83195295D01*
X154685714Y-83195295D02*
X154638095Y-83385771D01*
X154638095Y-83385771D02*
X154638095Y-83623866D01*
X154638095Y-83623866D02*
X154685714Y-83814342D01*
X154685714Y-83814342D02*
X154733333Y-83909580D01*
X154733333Y-83909580D02*
X154780952Y-83957200D01*
X154780952Y-83957200D02*
X154876190Y-84004819D01*
X154876190Y-84004819D02*
X154971428Y-84004819D01*
X154971428Y-84004819D02*
X155066666Y-83957200D01*
X155066666Y-83957200D02*
X155114285Y-83909580D01*
X155114285Y-83909580D02*
X155161904Y-83814342D01*
X155161904Y-83814342D02*
X155209523Y-83623866D01*
X155209523Y-83623866D02*
X155209523Y-83385771D01*
X155209523Y-83385771D02*
X155161904Y-83195295D01*
X155161904Y-83195295D02*
X155114285Y-83100057D01*
X155114285Y-83100057D02*
X155066666Y-83052438D01*
X155066666Y-83052438D02*
X154971428Y-83004819D01*
X106336666Y-76274819D02*
X106669999Y-75798628D01*
X106908094Y-76274819D02*
X106908094Y-75274819D01*
X106908094Y-75274819D02*
X106527142Y-75274819D01*
X106527142Y-75274819D02*
X106431904Y-75322438D01*
X106431904Y-75322438D02*
X106384285Y-75370057D01*
X106384285Y-75370057D02*
X106336666Y-75465295D01*
X106336666Y-75465295D02*
X106336666Y-75608152D01*
X106336666Y-75608152D02*
X106384285Y-75703390D01*
X106384285Y-75703390D02*
X106431904Y-75751009D01*
X106431904Y-75751009D02*
X106527142Y-75798628D01*
X106527142Y-75798628D02*
X106908094Y-75798628D01*
X106003332Y-75274819D02*
X105384285Y-75274819D01*
X105384285Y-75274819D02*
X105717618Y-75655771D01*
X105717618Y-75655771D02*
X105574761Y-75655771D01*
X105574761Y-75655771D02*
X105479523Y-75703390D01*
X105479523Y-75703390D02*
X105431904Y-75751009D01*
X105431904Y-75751009D02*
X105384285Y-75846247D01*
X105384285Y-75846247D02*
X105384285Y-76084342D01*
X105384285Y-76084342D02*
X105431904Y-76179580D01*
X105431904Y-76179580D02*
X105479523Y-76227200D01*
X105479523Y-76227200D02*
X105574761Y-76274819D01*
X105574761Y-76274819D02*
X105860475Y-76274819D01*
X105860475Y-76274819D02*
X105955713Y-76227200D01*
X105955713Y-76227200D02*
X106003332Y-76179580D01*
X129591666Y-78484580D02*
X129639285Y-78532200D01*
X129639285Y-78532200D02*
X129782142Y-78579819D01*
X129782142Y-78579819D02*
X129877380Y-78579819D01*
X129877380Y-78579819D02*
X130020237Y-78532200D01*
X130020237Y-78532200D02*
X130115475Y-78436961D01*
X130115475Y-78436961D02*
X130163094Y-78341723D01*
X130163094Y-78341723D02*
X130210713Y-78151247D01*
X130210713Y-78151247D02*
X130210713Y-78008390D01*
X130210713Y-78008390D02*
X130163094Y-77817914D01*
X130163094Y-77817914D02*
X130115475Y-77722676D01*
X130115475Y-77722676D02*
X130020237Y-77627438D01*
X130020237Y-77627438D02*
X129877380Y-77579819D01*
X129877380Y-77579819D02*
X129782142Y-77579819D01*
X129782142Y-77579819D02*
X129639285Y-77627438D01*
X129639285Y-77627438D02*
X129591666Y-77675057D01*
X129258332Y-77579819D02*
X128639285Y-77579819D01*
X128639285Y-77579819D02*
X128972618Y-77960771D01*
X128972618Y-77960771D02*
X128829761Y-77960771D01*
X128829761Y-77960771D02*
X128734523Y-78008390D01*
X128734523Y-78008390D02*
X128686904Y-78056009D01*
X128686904Y-78056009D02*
X128639285Y-78151247D01*
X128639285Y-78151247D02*
X128639285Y-78389342D01*
X128639285Y-78389342D02*
X128686904Y-78484580D01*
X128686904Y-78484580D02*
X128734523Y-78532200D01*
X128734523Y-78532200D02*
X128829761Y-78579819D01*
X128829761Y-78579819D02*
X129115475Y-78579819D01*
X129115475Y-78579819D02*
X129210713Y-78532200D01*
X129210713Y-78532200D02*
X129258332Y-78484580D01*
X124416666Y-85009580D02*
X124464285Y-85057200D01*
X124464285Y-85057200D02*
X124607142Y-85104819D01*
X124607142Y-85104819D02*
X124702380Y-85104819D01*
X124702380Y-85104819D02*
X124845237Y-85057200D01*
X124845237Y-85057200D02*
X124940475Y-84961961D01*
X124940475Y-84961961D02*
X124988094Y-84866723D01*
X124988094Y-84866723D02*
X125035713Y-84676247D01*
X125035713Y-84676247D02*
X125035713Y-84533390D01*
X125035713Y-84533390D02*
X124988094Y-84342914D01*
X124988094Y-84342914D02*
X124940475Y-84247676D01*
X124940475Y-84247676D02*
X124845237Y-84152438D01*
X124845237Y-84152438D02*
X124702380Y-84104819D01*
X124702380Y-84104819D02*
X124607142Y-84104819D01*
X124607142Y-84104819D02*
X124464285Y-84152438D01*
X124464285Y-84152438D02*
X124416666Y-84200057D01*
X124035713Y-84200057D02*
X123988094Y-84152438D01*
X123988094Y-84152438D02*
X123892856Y-84104819D01*
X123892856Y-84104819D02*
X123654761Y-84104819D01*
X123654761Y-84104819D02*
X123559523Y-84152438D01*
X123559523Y-84152438D02*
X123511904Y-84200057D01*
X123511904Y-84200057D02*
X123464285Y-84295295D01*
X123464285Y-84295295D02*
X123464285Y-84390533D01*
X123464285Y-84390533D02*
X123511904Y-84533390D01*
X123511904Y-84533390D02*
X124083332Y-85104819D01*
X124083332Y-85104819D02*
X123464285Y-85104819D01*
X165616666Y-78259580D02*
X165664285Y-78307200D01*
X165664285Y-78307200D02*
X165807142Y-78354819D01*
X165807142Y-78354819D02*
X165902380Y-78354819D01*
X165902380Y-78354819D02*
X166045237Y-78307200D01*
X166045237Y-78307200D02*
X166140475Y-78211961D01*
X166140475Y-78211961D02*
X166188094Y-78116723D01*
X166188094Y-78116723D02*
X166235713Y-77926247D01*
X166235713Y-77926247D02*
X166235713Y-77783390D01*
X166235713Y-77783390D02*
X166188094Y-77592914D01*
X166188094Y-77592914D02*
X166140475Y-77497676D01*
X166140475Y-77497676D02*
X166045237Y-77402438D01*
X166045237Y-77402438D02*
X165902380Y-77354819D01*
X165902380Y-77354819D02*
X165807142Y-77354819D01*
X165807142Y-77354819D02*
X165664285Y-77402438D01*
X165664285Y-77402438D02*
X165616666Y-77450057D01*
X165140475Y-78354819D02*
X164949999Y-78354819D01*
X164949999Y-78354819D02*
X164854761Y-78307200D01*
X164854761Y-78307200D02*
X164807142Y-78259580D01*
X164807142Y-78259580D02*
X164711904Y-78116723D01*
X164711904Y-78116723D02*
X164664285Y-77926247D01*
X164664285Y-77926247D02*
X164664285Y-77545295D01*
X164664285Y-77545295D02*
X164711904Y-77450057D01*
X164711904Y-77450057D02*
X164759523Y-77402438D01*
X164759523Y-77402438D02*
X164854761Y-77354819D01*
X164854761Y-77354819D02*
X165045237Y-77354819D01*
X165045237Y-77354819D02*
X165140475Y-77402438D01*
X165140475Y-77402438D02*
X165188094Y-77450057D01*
X165188094Y-77450057D02*
X165235713Y-77545295D01*
X165235713Y-77545295D02*
X165235713Y-77783390D01*
X165235713Y-77783390D02*
X165188094Y-77878628D01*
X165188094Y-77878628D02*
X165140475Y-77926247D01*
X165140475Y-77926247D02*
X165045237Y-77973866D01*
X165045237Y-77973866D02*
X164854761Y-77973866D01*
X164854761Y-77973866D02*
X164759523Y-77926247D01*
X164759523Y-77926247D02*
X164711904Y-77878628D01*
X164711904Y-77878628D02*
X164664285Y-77783390D01*
X149416666Y-70709580D02*
X149464285Y-70757200D01*
X149464285Y-70757200D02*
X149607142Y-70804819D01*
X149607142Y-70804819D02*
X149702380Y-70804819D01*
X149702380Y-70804819D02*
X149845237Y-70757200D01*
X149845237Y-70757200D02*
X149940475Y-70661961D01*
X149940475Y-70661961D02*
X149988094Y-70566723D01*
X149988094Y-70566723D02*
X150035713Y-70376247D01*
X150035713Y-70376247D02*
X150035713Y-70233390D01*
X150035713Y-70233390D02*
X149988094Y-70042914D01*
X149988094Y-70042914D02*
X149940475Y-69947676D01*
X149940475Y-69947676D02*
X149845237Y-69852438D01*
X149845237Y-69852438D02*
X149702380Y-69804819D01*
X149702380Y-69804819D02*
X149607142Y-69804819D01*
X149607142Y-69804819D02*
X149464285Y-69852438D01*
X149464285Y-69852438D02*
X149416666Y-69900057D01*
X148511904Y-69804819D02*
X148988094Y-69804819D01*
X148988094Y-69804819D02*
X149035713Y-70281009D01*
X149035713Y-70281009D02*
X148988094Y-70233390D01*
X148988094Y-70233390D02*
X148892856Y-70185771D01*
X148892856Y-70185771D02*
X148654761Y-70185771D01*
X148654761Y-70185771D02*
X148559523Y-70233390D01*
X148559523Y-70233390D02*
X148511904Y-70281009D01*
X148511904Y-70281009D02*
X148464285Y-70376247D01*
X148464285Y-70376247D02*
X148464285Y-70614342D01*
X148464285Y-70614342D02*
X148511904Y-70709580D01*
X148511904Y-70709580D02*
X148559523Y-70757200D01*
X148559523Y-70757200D02*
X148654761Y-70804819D01*
X148654761Y-70804819D02*
X148892856Y-70804819D01*
X148892856Y-70804819D02*
X148988094Y-70757200D01*
X148988094Y-70757200D02*
X149035713Y-70709580D01*
X145961904Y-75954819D02*
X145961904Y-76764342D01*
X145961904Y-76764342D02*
X145914285Y-76859580D01*
X145914285Y-76859580D02*
X145866666Y-76907200D01*
X145866666Y-76907200D02*
X145771428Y-76954819D01*
X145771428Y-76954819D02*
X145580952Y-76954819D01*
X145580952Y-76954819D02*
X145485714Y-76907200D01*
X145485714Y-76907200D02*
X145438095Y-76859580D01*
X145438095Y-76859580D02*
X145390476Y-76764342D01*
X145390476Y-76764342D02*
X145390476Y-75954819D01*
X144961904Y-76050057D02*
X144914285Y-76002438D01*
X144914285Y-76002438D02*
X144819047Y-75954819D01*
X144819047Y-75954819D02*
X144580952Y-75954819D01*
X144580952Y-75954819D02*
X144485714Y-76002438D01*
X144485714Y-76002438D02*
X144438095Y-76050057D01*
X144438095Y-76050057D02*
X144390476Y-76145295D01*
X144390476Y-76145295D02*
X144390476Y-76240533D01*
X144390476Y-76240533D02*
X144438095Y-76383390D01*
X144438095Y-76383390D02*
X145009523Y-76954819D01*
X145009523Y-76954819D02*
X144390476Y-76954819D01*
X128666666Y-87604819D02*
X128999999Y-87128628D01*
X129238094Y-87604819D02*
X129238094Y-86604819D01*
X129238094Y-86604819D02*
X128857142Y-86604819D01*
X128857142Y-86604819D02*
X128761904Y-86652438D01*
X128761904Y-86652438D02*
X128714285Y-86700057D01*
X128714285Y-86700057D02*
X128666666Y-86795295D01*
X128666666Y-86795295D02*
X128666666Y-86938152D01*
X128666666Y-86938152D02*
X128714285Y-87033390D01*
X128714285Y-87033390D02*
X128761904Y-87081009D01*
X128761904Y-87081009D02*
X128857142Y-87128628D01*
X128857142Y-87128628D02*
X129238094Y-87128628D01*
X127809523Y-86938152D02*
X127809523Y-87604819D01*
X128047618Y-86557200D02*
X128285713Y-87271485D01*
X128285713Y-87271485D02*
X127666666Y-87271485D01*
X113736666Y-76274819D02*
X114069999Y-75798628D01*
X114308094Y-76274819D02*
X114308094Y-75274819D01*
X114308094Y-75274819D02*
X113927142Y-75274819D01*
X113927142Y-75274819D02*
X113831904Y-75322438D01*
X113831904Y-75322438D02*
X113784285Y-75370057D01*
X113784285Y-75370057D02*
X113736666Y-75465295D01*
X113736666Y-75465295D02*
X113736666Y-75608152D01*
X113736666Y-75608152D02*
X113784285Y-75703390D01*
X113784285Y-75703390D02*
X113831904Y-75751009D01*
X113831904Y-75751009D02*
X113927142Y-75798628D01*
X113927142Y-75798628D02*
X114308094Y-75798628D01*
X112784285Y-76274819D02*
X113355713Y-76274819D01*
X113069999Y-76274819D02*
X113069999Y-75274819D01*
X113069999Y-75274819D02*
X113165237Y-75417676D01*
X113165237Y-75417676D02*
X113260475Y-75512914D01*
X113260475Y-75512914D02*
X113355713Y-75560533D01*
X108736666Y-76324819D02*
X109069999Y-75848628D01*
X109308094Y-76324819D02*
X109308094Y-75324819D01*
X109308094Y-75324819D02*
X108927142Y-75324819D01*
X108927142Y-75324819D02*
X108831904Y-75372438D01*
X108831904Y-75372438D02*
X108784285Y-75420057D01*
X108784285Y-75420057D02*
X108736666Y-75515295D01*
X108736666Y-75515295D02*
X108736666Y-75658152D01*
X108736666Y-75658152D02*
X108784285Y-75753390D01*
X108784285Y-75753390D02*
X108831904Y-75801009D01*
X108831904Y-75801009D02*
X108927142Y-75848628D01*
X108927142Y-75848628D02*
X109308094Y-75848628D01*
X108355713Y-75420057D02*
X108308094Y-75372438D01*
X108308094Y-75372438D02*
X108212856Y-75324819D01*
X108212856Y-75324819D02*
X107974761Y-75324819D01*
X107974761Y-75324819D02*
X107879523Y-75372438D01*
X107879523Y-75372438D02*
X107831904Y-75420057D01*
X107831904Y-75420057D02*
X107784285Y-75515295D01*
X107784285Y-75515295D02*
X107784285Y-75610533D01*
X107784285Y-75610533D02*
X107831904Y-75753390D01*
X107831904Y-75753390D02*
X108403332Y-76324819D01*
X108403332Y-76324819D02*
X107784285Y-76324819D01*
X163616666Y-77709580D02*
X163664285Y-77757200D01*
X163664285Y-77757200D02*
X163807142Y-77804819D01*
X163807142Y-77804819D02*
X163902380Y-77804819D01*
X163902380Y-77804819D02*
X164045237Y-77757200D01*
X164045237Y-77757200D02*
X164140475Y-77661961D01*
X164140475Y-77661961D02*
X164188094Y-77566723D01*
X164188094Y-77566723D02*
X164235713Y-77376247D01*
X164235713Y-77376247D02*
X164235713Y-77233390D01*
X164235713Y-77233390D02*
X164188094Y-77042914D01*
X164188094Y-77042914D02*
X164140475Y-76947676D01*
X164140475Y-76947676D02*
X164045237Y-76852438D01*
X164045237Y-76852438D02*
X163902380Y-76804819D01*
X163902380Y-76804819D02*
X163807142Y-76804819D01*
X163807142Y-76804819D02*
X163664285Y-76852438D01*
X163664285Y-76852438D02*
X163616666Y-76900057D01*
X163283332Y-76804819D02*
X162616666Y-76804819D01*
X162616666Y-76804819D02*
X163045237Y-77804819D01*
X131791666Y-83184580D02*
X131839285Y-83232200D01*
X131839285Y-83232200D02*
X131982142Y-83279819D01*
X131982142Y-83279819D02*
X132077380Y-83279819D01*
X132077380Y-83279819D02*
X132220237Y-83232200D01*
X132220237Y-83232200D02*
X132315475Y-83136961D01*
X132315475Y-83136961D02*
X132363094Y-83041723D01*
X132363094Y-83041723D02*
X132410713Y-82851247D01*
X132410713Y-82851247D02*
X132410713Y-82708390D01*
X132410713Y-82708390D02*
X132363094Y-82517914D01*
X132363094Y-82517914D02*
X132315475Y-82422676D01*
X132315475Y-82422676D02*
X132220237Y-82327438D01*
X132220237Y-82327438D02*
X132077380Y-82279819D01*
X132077380Y-82279819D02*
X131982142Y-82279819D01*
X131982142Y-82279819D02*
X131839285Y-82327438D01*
X131839285Y-82327438D02*
X131791666Y-82375057D01*
X130839285Y-83279819D02*
X131410713Y-83279819D01*
X131124999Y-83279819D02*
X131124999Y-82279819D01*
X131124999Y-82279819D02*
X131220237Y-82422676D01*
X131220237Y-82422676D02*
X131315475Y-82517914D01*
X131315475Y-82517914D02*
X131410713Y-82565533D01*
X150266666Y-82009580D02*
X150314285Y-82057200D01*
X150314285Y-82057200D02*
X150457142Y-82104819D01*
X150457142Y-82104819D02*
X150552380Y-82104819D01*
X150552380Y-82104819D02*
X150695237Y-82057200D01*
X150695237Y-82057200D02*
X150790475Y-81961961D01*
X150790475Y-81961961D02*
X150838094Y-81866723D01*
X150838094Y-81866723D02*
X150885713Y-81676247D01*
X150885713Y-81676247D02*
X150885713Y-81533390D01*
X150885713Y-81533390D02*
X150838094Y-81342914D01*
X150838094Y-81342914D02*
X150790475Y-81247676D01*
X150790475Y-81247676D02*
X150695237Y-81152438D01*
X150695237Y-81152438D02*
X150552380Y-81104819D01*
X150552380Y-81104819D02*
X150457142Y-81104819D01*
X150457142Y-81104819D02*
X150314285Y-81152438D01*
X150314285Y-81152438D02*
X150266666Y-81200057D01*
X149409523Y-81438152D02*
X149409523Y-82104819D01*
X149647618Y-81057200D02*
X149885713Y-81771485D01*
X149885713Y-81771485D02*
X149266666Y-81771485D01*
X161211904Y-83154819D02*
X161211904Y-83964342D01*
X161211904Y-83964342D02*
X161164285Y-84059580D01*
X161164285Y-84059580D02*
X161116666Y-84107200D01*
X161116666Y-84107200D02*
X161021428Y-84154819D01*
X161021428Y-84154819D02*
X160830952Y-84154819D01*
X160830952Y-84154819D02*
X160735714Y-84107200D01*
X160735714Y-84107200D02*
X160688095Y-84059580D01*
X160688095Y-84059580D02*
X160640476Y-83964342D01*
X160640476Y-83964342D02*
X160640476Y-83154819D01*
X159735714Y-83488152D02*
X159735714Y-84154819D01*
X159973809Y-83107200D02*
X160211904Y-83821485D01*
X160211904Y-83821485D02*
X159592857Y-83821485D01*
X126161904Y-78729819D02*
X126161904Y-79539342D01*
X126161904Y-79539342D02*
X126114285Y-79634580D01*
X126114285Y-79634580D02*
X126066666Y-79682200D01*
X126066666Y-79682200D02*
X125971428Y-79729819D01*
X125971428Y-79729819D02*
X125780952Y-79729819D01*
X125780952Y-79729819D02*
X125685714Y-79682200D01*
X125685714Y-79682200D02*
X125638095Y-79634580D01*
X125638095Y-79634580D02*
X125590476Y-79539342D01*
X125590476Y-79539342D02*
X125590476Y-78729819D01*
X124590476Y-79729819D02*
X125161904Y-79729819D01*
X124876190Y-79729819D02*
X124876190Y-78729819D01*
X124876190Y-78729819D02*
X124971428Y-78872676D01*
X124971428Y-78872676D02*
X125066666Y-78967914D01*
X125066666Y-78967914D02*
X125161904Y-79015533D01*
X154766666Y-78659580D02*
X154814285Y-78707200D01*
X154814285Y-78707200D02*
X154957142Y-78754819D01*
X154957142Y-78754819D02*
X155052380Y-78754819D01*
X155052380Y-78754819D02*
X155195237Y-78707200D01*
X155195237Y-78707200D02*
X155290475Y-78611961D01*
X155290475Y-78611961D02*
X155338094Y-78516723D01*
X155338094Y-78516723D02*
X155385713Y-78326247D01*
X155385713Y-78326247D02*
X155385713Y-78183390D01*
X155385713Y-78183390D02*
X155338094Y-77992914D01*
X155338094Y-77992914D02*
X155290475Y-77897676D01*
X155290475Y-77897676D02*
X155195237Y-77802438D01*
X155195237Y-77802438D02*
X155052380Y-77754819D01*
X155052380Y-77754819D02*
X154957142Y-77754819D01*
X154957142Y-77754819D02*
X154814285Y-77802438D01*
X154814285Y-77802438D02*
X154766666Y-77850057D01*
X154195237Y-78183390D02*
X154290475Y-78135771D01*
X154290475Y-78135771D02*
X154338094Y-78088152D01*
X154338094Y-78088152D02*
X154385713Y-77992914D01*
X154385713Y-77992914D02*
X154385713Y-77945295D01*
X154385713Y-77945295D02*
X154338094Y-77850057D01*
X154338094Y-77850057D02*
X154290475Y-77802438D01*
X154290475Y-77802438D02*
X154195237Y-77754819D01*
X154195237Y-77754819D02*
X154004761Y-77754819D01*
X154004761Y-77754819D02*
X153909523Y-77802438D01*
X153909523Y-77802438D02*
X153861904Y-77850057D01*
X153861904Y-77850057D02*
X153814285Y-77945295D01*
X153814285Y-77945295D02*
X153814285Y-77992914D01*
X153814285Y-77992914D02*
X153861904Y-78088152D01*
X153861904Y-78088152D02*
X153909523Y-78135771D01*
X153909523Y-78135771D02*
X154004761Y-78183390D01*
X154004761Y-78183390D02*
X154195237Y-78183390D01*
X154195237Y-78183390D02*
X154290475Y-78231009D01*
X154290475Y-78231009D02*
X154338094Y-78278628D01*
X154338094Y-78278628D02*
X154385713Y-78373866D01*
X154385713Y-78373866D02*
X154385713Y-78564342D01*
X154385713Y-78564342D02*
X154338094Y-78659580D01*
X154338094Y-78659580D02*
X154290475Y-78707200D01*
X154290475Y-78707200D02*
X154195237Y-78754819D01*
X154195237Y-78754819D02*
X154004761Y-78754819D01*
X154004761Y-78754819D02*
X153909523Y-78707200D01*
X153909523Y-78707200D02*
X153861904Y-78659580D01*
X153861904Y-78659580D02*
X153814285Y-78564342D01*
X153814285Y-78564342D02*
X153814285Y-78373866D01*
X153814285Y-78373866D02*
X153861904Y-78278628D01*
X153861904Y-78278628D02*
X153909523Y-78231009D01*
X153909523Y-78231009D02*
X154004761Y-78183390D01*
%TO.C,J1*%
D11*
X134690000Y-78650000D02*
X134690000Y-83730000D01*
X142310000Y-83730000D02*
X142310000Y-78650000D01*
X141140000Y-86090000D02*
G75*
G02*
X140940000Y-86090000I-100000J0D01*
G01*
X140940000Y-86090000D02*
G75*
G02*
X141140000Y-86090000I100000J0D01*
G01*
%TO.C,C10*%
D12*
X156090000Y-81587836D02*
X156090000Y-81372164D01*
X156810000Y-81587836D02*
X156810000Y-81372164D01*
%TO.C,R3*%
X105485000Y-78559564D02*
X105485000Y-78105436D01*
X106955000Y-78559564D02*
X106955000Y-78105436D01*
%TO.C,C3*%
X128813748Y-78915000D02*
X129336252Y-78915000D01*
X128813748Y-80385000D02*
X129336252Y-80385000D01*
%TO.C,C2*%
X123465000Y-82411252D02*
X123465000Y-81888748D01*
X124935000Y-82411252D02*
X124935000Y-81888748D01*
%TO.C,C9*%
X164715000Y-80288748D02*
X164715000Y-80811252D01*
X166185000Y-80288748D02*
X166185000Y-80811252D01*
%TO.C,C5*%
X148361252Y-71315000D02*
X147838748Y-71315000D01*
X148361252Y-72785000D02*
X147838748Y-72785000D01*
%TO.C,U2*%
X146590000Y-75627500D02*
X146590000Y-77447500D01*
X146590000Y-77447500D02*
X147590000Y-77447500D01*
X146640000Y-75627500D02*
X146590000Y-75627500D01*
X148540000Y-75627500D02*
X147760000Y-75627500D01*
X148710000Y-77447500D02*
X149710000Y-77447500D01*
X149710000Y-75627500D02*
X149660000Y-75627500D01*
X149710000Y-77447500D02*
X149710000Y-75627500D01*
X147770000Y-75087500D02*
X148100000Y-75327500D01*
X148100000Y-74847500D01*
X147770000Y-75087500D01*
G36*
X148100000Y-75327500D02*
G01*
X147770000Y-75087500D01*
X148100000Y-74847500D01*
X148100000Y-75327500D01*
G37*
%TO.C,R4*%
X128035436Y-84615000D02*
X128489564Y-84615000D01*
X128035436Y-86085000D02*
X128489564Y-86085000D01*
%TO.C,R1*%
X112885000Y-78634564D02*
X112885000Y-78180436D01*
X114355000Y-78634564D02*
X114355000Y-78180436D01*
%TO.C,R2*%
X107885000Y-78597064D02*
X107885000Y-78142936D01*
X109355000Y-78597064D02*
X109355000Y-78142936D01*
%TO.C,C7*%
X163440000Y-80012164D02*
X163440000Y-80227836D01*
X164160000Y-80012164D02*
X164160000Y-80227836D01*
%TO.C,C1*%
X131165000Y-80661252D02*
X131165000Y-80138748D01*
X132635000Y-80661252D02*
X132635000Y-80138748D01*
%TO.C,C4*%
X148938748Y-79065000D02*
X149461252Y-79065000D01*
X148938748Y-80535000D02*
X149461252Y-80535000D01*
%TO.C,U4*%
D13*
X157470300Y-82596699D02*
X162829700Y-82596699D01*
X162829700Y-78253299D02*
X157470300Y-78253299D01*
X163713200Y-78799998D02*
G75*
G02*
X163459200Y-78799998I-127000J0D01*
G01*
X163459200Y-78799998D02*
G75*
G02*
X163713200Y-78799998I127000J0D01*
G01*
%TO.C,U1*%
D12*
X126645000Y-80840000D02*
X126645000Y-81065000D01*
X126645000Y-83835000D02*
X126645000Y-84060000D01*
X126645000Y-84060000D02*
X129865000Y-84060000D01*
X129865000Y-80840000D02*
X126645000Y-80840000D01*
X129865000Y-81065000D02*
X129865000Y-80840000D01*
X129865000Y-84060000D02*
X129865000Y-83835000D01*
X130395000Y-81450000D02*
X130725000Y-81690000D01*
X130725000Y-81210000D01*
X130395000Y-81450000D01*
G36*
X130725000Y-81690000D02*
G01*
X130395000Y-81450000D01*
X130725000Y-81210000D01*
X130725000Y-81690000D01*
G37*
%TO.C,C8*%
X153865000Y-81011252D02*
X153865000Y-80488748D01*
X155335000Y-81011252D02*
X155335000Y-80488748D01*
%TD*%
%LPC*%
%TO.C,J1*%
D14*
X103350000Y-68175000D02*
X173650000Y-68150000D01*
X173650000Y-91650000D02*
X103350000Y-91625000D01*
X103350000Y-91625000D02*
G75*
G02*
X103350000Y-68175000I0J11725000D01*
G01*
X173650000Y-68150000D02*
G75*
G02*
X173650000Y-91650000I0J-11750000D01*
G01*
D15*
X135225000Y-80655000D02*
X135225000Y-76775000D01*
X136695000Y-76775000D01*
X136695000Y-80195000D01*
X136235000Y-80655000D01*
X135225000Y-80655000D01*
G36*
X136695000Y-80195000D02*
G01*
X136235000Y-80655000D01*
X135225000Y-80655000D01*
X135225000Y-76775000D01*
X136695000Y-76775000D01*
X136695000Y-80195000D01*
G37*
X135225000Y-81725000D02*
X135225000Y-85605000D01*
X136695000Y-85605000D01*
X136695000Y-82185000D01*
X136235000Y-81725000D01*
X135225000Y-81725000D01*
G36*
X136695000Y-82185000D02*
G01*
X136695000Y-85605000D01*
X135225000Y-85605000D01*
X135225000Y-81725000D01*
X136235000Y-81725000D01*
X136695000Y-82185000D01*
G37*
X141775000Y-80655000D02*
X141775000Y-76775000D01*
X140305000Y-76775000D01*
X140305000Y-80195000D01*
X140765000Y-80655000D01*
X141775000Y-80655000D01*
G36*
X141775000Y-80655000D02*
G01*
X140765000Y-80655000D01*
X140305000Y-80195000D01*
X140305000Y-76775000D01*
X141775000Y-76775000D01*
X141775000Y-80655000D01*
G37*
X141775000Y-81725000D02*
X141775000Y-85605000D01*
X140305000Y-85605000D01*
X140305000Y-82185000D01*
X140765000Y-81725000D01*
X141775000Y-81725000D01*
G36*
X141775000Y-85605000D02*
G01*
X140305000Y-85605000D01*
X140305000Y-82185000D01*
X140765000Y-81725000D01*
X141775000Y-81725000D01*
X141775000Y-85605000D01*
G37*
X138225000Y-81660000D02*
X138775000Y-81660000D01*
X139235000Y-82120000D01*
X139235000Y-85540000D01*
X137765000Y-85540000D01*
X137765000Y-82120000D01*
X138225000Y-81660000D01*
G36*
X139235000Y-82120000D02*
G01*
X139235000Y-85540000D01*
X137765000Y-85540000D01*
X137765000Y-82120000D01*
X138225000Y-81660000D01*
X138775000Y-81660000D01*
X139235000Y-82120000D01*
G37*
X138775000Y-80720000D02*
X138225000Y-80720000D01*
X137765000Y-80260000D01*
X137765000Y-76840000D01*
X139235000Y-76840000D01*
X139235000Y-80260000D01*
X138775000Y-80720000D01*
G36*
X139235000Y-80260000D02*
G01*
X138775000Y-80720000D01*
X138225000Y-80720000D01*
X137765000Y-80260000D01*
X137765000Y-76840000D01*
X139235000Y-76840000D01*
X139235000Y-80260000D01*
G37*
D16*
%TO.C,U4*%
G36*
X158054800Y-80902400D02*
G01*
X157445200Y-80902400D01*
X157445200Y-80597600D01*
X157750010Y-80597597D01*
X157750000Y-80252401D01*
X157445200Y-80252401D01*
X157445200Y-79947601D01*
X157750000Y-79947601D01*
X157750010Y-79602400D01*
X157445200Y-79602400D01*
X157445200Y-79297600D01*
X158054800Y-79297600D01*
X158054800Y-80902400D01*
G37*
G36*
X162854800Y-80252398D02*
G01*
X162550000Y-80252386D01*
X162550000Y-80597597D01*
X162854800Y-80597597D01*
X162854800Y-80902397D01*
X162550000Y-80902397D01*
X162550000Y-81247583D01*
X162854800Y-81247598D01*
X162854800Y-81552398D01*
X162245200Y-81552398D01*
X162245200Y-79947598D01*
X162854800Y-79947598D01*
X162854800Y-80252398D01*
G37*
%TD*%
D17*
%TO.C,J3*%
X143400000Y-71200000D03*
D18*
X141800000Y-73200000D03*
D19*
X139300000Y-73200000D03*
X136800000Y-73200000D03*
X134300000Y-73200000D03*
%TD*%
D20*
%TO.C,J1*%
X94790000Y-79900000D03*
D21*
X119450000Y-79750000D03*
D22*
X137230000Y-81190000D03*
X139770000Y-81190000D03*
D20*
X182210000Y-79900000D03*
D23*
X92000000Y-77400000D03*
X92000000Y-82400000D03*
X94000000Y-72900000D03*
X94000000Y-86900000D03*
X98000000Y-69400000D03*
X98000000Y-90400000D03*
X103350000Y-68175000D03*
X103350000Y-91625000D03*
X108350000Y-68175000D03*
X108350000Y-91625000D03*
X113350000Y-68175000D03*
X113350000Y-91625000D03*
X118350000Y-68175000D03*
X118350000Y-91625000D03*
X123350000Y-68175000D03*
X123350000Y-91625000D03*
X128350000Y-68175000D03*
X128350000Y-91625000D03*
X133350000Y-68175000D03*
X133350000Y-91625000D03*
X138500000Y-68150000D03*
D24*
X138500000Y-68162500D03*
D23*
X138500000Y-91650000D03*
X143500000Y-68150000D03*
X143500000Y-91650000D03*
X148500000Y-68150000D03*
X148500000Y-91650000D03*
X153500000Y-68150000D03*
X153500000Y-91650000D03*
X158500000Y-68150000D03*
X158500000Y-91650000D03*
X163500000Y-68150000D03*
X163500000Y-91650000D03*
X168500000Y-68150000D03*
X168500000Y-91650000D03*
X173500000Y-68150000D03*
X173500000Y-91650000D03*
X179000000Y-69400000D03*
X179000000Y-90400000D03*
X183000000Y-72900000D03*
X183000000Y-86900000D03*
X185000000Y-77400000D03*
X185000000Y-82400000D03*
%TD*%
D25*
%TO.C,SW1*%
X106180000Y-74450000D03*
X113800000Y-82070000D03*
X111260000Y-74450000D03*
X108720000Y-82070000D03*
D26*
X113800000Y-74450000D03*
D25*
X106180000Y-82070000D03*
X108720000Y-74450000D03*
X111260000Y-82070000D03*
%TD*%
D27*
%TO.C,J4*%
X168850000Y-76350000D03*
D28*
X171100000Y-81650000D03*
X173600000Y-79150000D03*
%TD*%
D29*
%TO.C,C10*%
X156450000Y-81960000D03*
X156450000Y-81000000D03*
%TD*%
D30*
%TO.C,R3*%
X106220000Y-79245000D03*
X106220000Y-77420000D03*
%TD*%
D31*
%TO.C,C3*%
X128125000Y-79650000D03*
X130025000Y-79650000D03*
%TD*%
D32*
%TO.C,C2*%
X124200000Y-83100000D03*
X124200000Y-81200000D03*
%TD*%
D33*
%TO.C,C9*%
X165450000Y-79600000D03*
X165450000Y-81500000D03*
%TD*%
D34*
%TO.C,C5*%
X149050000Y-72050000D03*
X147150000Y-72050000D03*
%TD*%
D35*
%TO.C,U2*%
X147200000Y-75400000D03*
X149100000Y-75400000D03*
X148150000Y-77675000D03*
%TD*%
D36*
%TO.C,R4*%
X127350000Y-85350000D03*
X129175000Y-85350000D03*
%TD*%
D30*
%TO.C,R1*%
X113620000Y-79320000D03*
X113620000Y-77495000D03*
%TD*%
%TO.C,R2*%
X108620000Y-79282500D03*
X108620000Y-77457500D03*
%TD*%
D37*
%TO.C,C7*%
X163800000Y-79640000D03*
X163800000Y-80600000D03*
%TD*%
D32*
%TO.C,C1*%
X131900000Y-81350000D03*
X131900000Y-79450000D03*
%TD*%
D31*
%TO.C,C4*%
X148250000Y-79800000D03*
X150150000Y-79800000D03*
%TD*%
D38*
%TO.C,U4*%
X162550000Y-78799998D03*
X162550000Y-79450000D03*
D39*
X162550000Y-80099998D03*
X162550000Y-80749997D03*
X162550000Y-81399998D03*
D38*
X162550000Y-82049997D03*
X157750000Y-82050000D03*
X157750000Y-81399998D03*
D39*
X157750000Y-80750000D03*
X157750000Y-80100001D03*
X157750000Y-79450000D03*
D38*
X157750000Y-78800001D03*
%TD*%
D40*
%TO.C,U1*%
X129705000Y-81450000D03*
X129705000Y-81950000D03*
X129705000Y-82450000D03*
X129705000Y-82950000D03*
X129705000Y-83450000D03*
X126805000Y-83450000D03*
X126805000Y-82950000D03*
X126805000Y-82450000D03*
X126805000Y-81950000D03*
X126805000Y-81450000D03*
D41*
X128255000Y-82450000D03*
%TD*%
D32*
%TO.C,C8*%
X154600000Y-81700000D03*
X154600000Y-79800000D03*
%TD*%
%LPD*%
M02*
