M48
; DRILL file KiCad 10.0.2 date 2026-07-15T09:00:36
; FORMAT={-:-/ absolute / inch / decimal}
; #@! TF.CreationDate,2026-07-15T09:00:36-04:00
; #@! TF.GenerationSoftware,Kicad,Pcbnew,10.0.2
; #@! TF.FileFunction,Plated,1,2,PTH
FMAT,2
INCH
; #@! TA.AperFunction,Plated,PTH,ViaDrill
T1C0.0120
; #@! TA.AperFunction,Plated,PTH,ComponentDrill
T2C0.0157
; #@! TA.AperFunction,Plated,PTH,ComponentDrill
T3C0.0315
; #@! TA.AperFunction,Plated,PTH,ComponentDrill
T4C0.0320
; #@! TA.AperFunction,Plated,PTH,ComponentDrill
T5C0.0374
; #@! TA.AperFunction,Plated,PTH,ComponentDrill
T6C0.0394
%
G90
G05
T1
X4.1169Y-3.0461
X4.3335Y-3.048
X4.4122Y-3.05
X4.8898Y-3.1575
X4.9547Y-3.2461
X4.9705Y-3.3602
X5.0494Y-3.2461
X5.1161Y-3.0787
X5.1634Y-3.0955
X5.19Y-3.0758
X5.2293Y-3.0778
X5.3504Y-3.3957
X5.75Y-2.8346
X5.7953Y-2.9055
X5.9528Y-3.1417
X6.0157Y-3.1191
X6.0207Y-3.1565
X6.0325Y-3.0837
X6.0768Y-3.0827
X6.1368Y-3.0856
X6.1378Y-3.1398
X6.1772Y-3.1024
X6.4331Y-3.2303
X6.4508Y-3.2047
X6.4626Y-3.253
X6.5177Y-3.25
X6.5728Y-3.2559
X6.5778Y-3.1811
X6.5807Y-3.2244
X6.6309Y-3.252
X6.6358Y-3.1801
X6.6358Y-3.2264
X6.7382Y-3.1732
T2
X3.622Y-3.0472
X3.622Y-3.2441
X3.7008Y-2.8701
X3.7008Y-3.4213
X3.8583Y-2.7323
X3.8583Y-3.5591
X4.0689Y-2.6841
X4.0689Y-3.6073
X4.2657Y-2.6841
X4.2657Y-3.6073
X4.4626Y-2.6841
X4.4626Y-3.6073
X4.6594Y-2.6841
X4.6594Y-3.6073
X4.8563Y-2.6841
X4.8563Y-3.6073
X5.0531Y-2.6841
X5.0531Y-3.6073
X5.25Y-2.6841
X5.25Y-3.6073
X5.4528Y-2.6831
X5.4528Y-3.6083
X5.6496Y-2.6831
X5.6496Y-3.6083
X5.8465Y-2.6831
X5.8465Y-3.6083
X6.0433Y-2.6831
X6.0433Y-3.6083
X6.2402Y-2.6831
X6.2402Y-3.6083
X6.437Y-2.6831
X6.437Y-3.6083
X6.6339Y-2.6831
X6.6339Y-3.6083
X6.8307Y-2.6831
X6.8307Y-3.6083
X7.0472Y-2.7323
X7.0472Y-3.5591
X7.2047Y-2.8701
X7.2047Y-3.4213
X7.2835Y-3.0472
X7.2835Y-3.2441
T4
X4.1803Y-2.9311
X4.1803Y-3.2311
X4.2803Y-2.9311
X4.2803Y-3.2311
X4.3803Y-2.9311
X4.3803Y-3.2311
X4.4803Y-2.9311
X4.4803Y-3.2311
T5
X5.2874Y-2.8819
X5.3858Y-2.8819
X5.4843Y-2.8819
X5.5827Y-2.8819
T3
G00X6.7028Y-3.2146
M15
G01X6.7697Y-3.2146
M16
G05
G00X6.8012Y-3.1161
M15
G01X6.8681Y-3.1161
M16
G05
T6
G00X6.6476Y-2.9606
M15
G01X6.6476Y-3.0512
M16
G05
M30
