%TF.GenerationSoftware,KiCad,Pcbnew,10.0.2*%
%TF.CreationDate,2026-09-07T16:51:00-04:00*%
%TF.ProjectId,tagbase-lipo-v1,74616762-6173-4652-9d6c-69706f2d7631,rev?*%
%TF.SameCoordinates,Original*%
%TF.FileFunction,Copper,L1,Top*%
%TF.FilePolarity,Positive*%
%FSLAX46Y46*%
G04 Gerber Fmt 4.6, Leading zero omitted, Abs format (unit mm)*
G04 Created by KiCad (PCBNEW 10.0.2) date 2026-09-07 16:51:00*
%MOMM*%
%LPD*%
G01*
G04 APERTURE LIST*
G04 Aperture macros list*
%AMRoundRect*
0 Rectangle with rounded corners*
0 $1 Rounding radius*
0 $2 $3 $4 $5 $6 $7 $8 $9 X,Y pos of 4 corners*
0 Add a 4 corners polygon primitive as box body*
4,1,4,$2,$3,$4,$5,$6,$7,$8,$9,$2,$3,0*
0 Add four circle primitives for the rounded corners*
1,1,$1+$1,$2,$3*
1,1,$1+$1,$4,$5*
1,1,$1+$1,$6,$7*
1,1,$1+$1,$8,$9*
0 Add four rect primitives between the rounded corners*
20,1,$1+$1,$2,$3,$4,$5,0*
20,1,$1+$1,$4,$5,$6,$7,0*
20,1,$1+$1,$6,$7,$8,$9,0*
20,1,$1+$1,$8,$9,$2,$3,0*%
%AMFreePoly0*
4,1,13,0.450000,0.700000,0.500000,0.700000,0.500000,-0.700000,0.450000,-0.700000,0.450000,-0.900000,-0.450000,-0.900000,-0.450000,-0.700000,-0.500000,-0.700000,-0.500000,0.700000,-0.450000,0.700000,-0.450000,0.900000,0.450000,0.900000,0.450000,0.700000,0.450000,0.700000,$1*%
G04 Aperture macros list end*
%TA.AperFunction,SMDPad,CuDef*%
%ADD10RoundRect,0.243750X-0.456250X0.243750X-0.456250X-0.243750X0.456250X-0.243750X0.456250X0.243750X0*%
%TD*%
%TA.AperFunction,ComponentPad*%
%ADD11C,1.016000*%
%TD*%
%TA.AperFunction,ComponentPad*%
%ADD12C,0.939800*%
%TD*%
%TA.AperFunction,SMDPad,CuDef*%
%ADD13R,1.000000X0.750000*%
%TD*%
%TA.AperFunction,SMDPad,CuDef*%
%ADD14RoundRect,0.150000X0.150000X-0.512500X0.150000X0.512500X-0.150000X0.512500X-0.150000X-0.512500X0*%
%TD*%
%TA.AperFunction,SMDPad,CuDef*%
%ADD15R,0.500000X2.300000*%
%TD*%
%TA.AperFunction,SMDPad,CuDef*%
%ADD16R,2.000000X2.500000*%
%TD*%
%TA.AperFunction,SMDPad,CuDef*%
%ADD17RoundRect,0.140000X-0.140000X-0.170000X0.140000X-0.170000X0.140000X0.170000X-0.140000X0.170000X0*%
%TD*%
%TA.AperFunction,SMDPad,CuDef*%
%ADD18RoundRect,0.140000X0.140000X0.170000X-0.140000X0.170000X-0.140000X-0.170000X0.140000X-0.170000X0*%
%TD*%
%TA.AperFunction,SMDPad,CuDef*%
%ADD19RoundRect,0.200000X-0.275000X0.200000X-0.275000X-0.200000X0.275000X-0.200000X0.275000X0.200000X0*%
%TD*%
%TA.AperFunction,SMDPad,CuDef*%
%ADD20RoundRect,0.135000X-0.185000X0.135000X-0.185000X-0.135000X0.185000X-0.135000X0.185000X0.135000X0*%
%TD*%
%TA.AperFunction,ComponentPad*%
%ADD21RoundRect,0.250000X0.725000X-0.600000X0.725000X0.600000X-0.725000X0.600000X-0.725000X-0.600000X0*%
%TD*%
%TA.AperFunction,ComponentPad*%
%ADD22O,1.950000X1.700000*%
%TD*%
%TA.AperFunction,SMDPad,CuDef*%
%ADD23R,0.762000X1.117600*%
%TD*%
%TA.AperFunction,ComponentPad*%
%ADD24R,1.700000X1.700000*%
%TD*%
%TA.AperFunction,ComponentPad*%
%ADD25C,1.700000*%
%TD*%
%TA.AperFunction,SMDPad,CuDef*%
%ADD26R,0.457200X0.355600*%
%TD*%
%TA.AperFunction,SMDPad,CuDef*%
%ADD27R,0.450000X0.250000*%
%TD*%
%TA.AperFunction,SMDPad,CuDef*%
%ADD28FreePoly0,0.000000*%
%TD*%
%TA.AperFunction,SMDPad,CuDef*%
%ADD29RoundRect,0.087500X-0.087500X0.425000X-0.087500X-0.425000X0.087500X-0.425000X0.087500X0.425000X0*%
%TD*%
%TA.AperFunction,SMDPad,CuDef*%
%ADD30RoundRect,0.135000X0.135000X0.185000X-0.135000X0.185000X-0.135000X-0.185000X0.135000X-0.185000X0*%
%TD*%
%TA.AperFunction,SMDPad,CuDef*%
%ADD31RoundRect,0.140000X-0.170000X0.140000X-0.170000X-0.140000X0.170000X-0.140000X0.170000X0.140000X0*%
%TD*%
%TA.AperFunction,SMDPad,CuDef*%
%ADD32RoundRect,0.087500X0.087500X-0.425000X0.087500X0.425000X-0.087500X0.425000X-0.087500X-0.425000X0*%
%TD*%
%TA.AperFunction,SMDPad,CuDef*%
%ADD33RoundRect,0.135000X-0.135000X-0.185000X0.135000X-0.185000X0.135000X0.185000X-0.135000X0.185000X0*%
%TD*%
%TA.AperFunction,SMDPad,CuDef*%
%ADD34RoundRect,0.062500X0.375000X0.062500X-0.375000X0.062500X-0.375000X-0.062500X0.375000X-0.062500X0*%
%TD*%
%TA.AperFunction,SMDPad,CuDef*%
%ADD35RoundRect,0.062500X0.062500X0.375000X-0.062500X0.375000X-0.062500X-0.375000X0.062500X-0.375000X0*%
%TD*%
%TA.AperFunction,HeatsinkPad*%
%ADD36R,3.500000X3.500000*%
%TD*%
%TA.AperFunction,SMDPad,CuDef*%
%ADD37RoundRect,0.140000X0.170000X-0.140000X0.170000X0.140000X-0.170000X0.140000X-0.170000X-0.140000X0*%
%TD*%
%TA.AperFunction,SMDPad,CuDef*%
%ADD38RoundRect,0.093750X-0.156250X-0.093750X0.156250X-0.093750X0.156250X0.093750X-0.156250X0.093750X0*%
%TD*%
%TA.AperFunction,SMDPad,CuDef*%
%ADD39RoundRect,0.075000X-0.250000X-0.075000X0.250000X-0.075000X0.250000X0.075000X-0.250000X0.075000X0*%
%TD*%
%TA.AperFunction,ViaPad*%
%ADD40C,0.504800*%
%TD*%
%TA.AperFunction,Conductor*%
%ADD41C,0.152400*%
%TD*%
%TA.AperFunction,Conductor*%
%ADD42C,0.101600*%
%TD*%
%TA.AperFunction,Conductor*%
%ADD43C,0.304800*%
%TD*%
%TA.AperFunction,Conductor*%
%ADD44C,0.254000*%
%TD*%
G04 APERTURE END LIST*
D10*
%TO.P,D101,1,K_1*%
%TO.N,Net-(D101-K)*%
X13335000Y-1221500D03*
%TO.P,D101,2,A_2*%
%TO.N,+3V3*%
X13335000Y-3096500D03*
%TD*%
%TO.P,D102,1,K_1*%
%TO.N,Net-(D102-K)*%
X38354000Y-1221500D03*
%TO.P,D102,2,A_2*%
%TO.N,+3V3*%
X38354000Y-3096500D03*
%TD*%
D11*
%TO.P,J102,1,Pin_1_1*%
%TO.N,+3V3*%
X13265000Y-7360000D03*
%TO.P,J102,2,Pin_2_2*%
%TO.N,/SWDIO*%
X14535000Y-7360000D03*
%TO.P,J102,3,Pin_3_3*%
%TO.N,GND*%
X13265000Y-8630000D03*
%TO.P,J102,4,Pin_4_4*%
%TO.N,/SCLK*%
X14535000Y-8630000D03*
%TO.P,J102,5,Pin_5_5*%
%TO.N,GND*%
X13265000Y-9900000D03*
%TO.P,J102,6,Pin_6_6*%
%TO.N,unconnected-(J102-Pin_6-Pad6)*%
X14535000Y-9900000D03*
%TO.P,J102,7,Pin_7_7*%
%TO.N,unconnected-(J102-Pin_7-Pad7)*%
X13265000Y-11170000D03*
%TO.P,J102,8,Pin_8_8*%
%TO.N,unconnected-(J102-Pin_8-Pad8)*%
X14535000Y-11170000D03*
%TO.P,J102,9,Pin_9_9*%
%TO.N,GND*%
X13265000Y-12440000D03*
%TO.P,J102,10,Pin_10_10*%
%TO.N,NRST*%
X14535000Y-12440000D03*
%TD*%
D12*
%TO.P,J101,1,Pin_1_1*%
%TO.N,TAG_RESET*%
X24130000Y-43815000D03*
%TO.P,J101,2,Pin_2_2*%
%TO.N,GND*%
X24130000Y-42545000D03*
%TO.P,J101,3,Pin_3_3*%
%TO.N,TAG_SWDIO*%
X25400000Y-43815000D03*
%TO.P,J101,4,Pin_4_4*%
%TO.N,TAG_SCK*%
X25400000Y-42545000D03*
%TO.P,J101,5,Pin_5_5*%
%TO.N,TAG_3V3*%
X26670000Y-43815000D03*
%TO.P,J101,6,Pin_6_6*%
X26670000Y-42545000D03*
%TD*%
D13*
%TO.P,U105,1,A_1*%
%TO.N,/boot0*%
X18150000Y-20720000D03*
X12150000Y-20720000D03*
%TO.P,U105,2,B_2*%
%TO.N,+3V3*%
X18150000Y-16970000D03*
X12150000Y-16970000D03*
%TD*%
D14*
%TO.P,U1,1,GND_1*%
%TO.N,GND*%
X6590000Y-9402500D03*
%TO.P,U1,2,VO_2*%
%TO.N,+3V3*%
X8490000Y-9402500D03*
%TO.P,U1,3,VI_3*%
%TO.N,VUSB*%
X7540000Y-7127500D03*
%TD*%
D15*
%TO.P,J104,1,VBUS_1*%
%TO.N,VUSB*%
X27635000Y-8235600D03*
%TO.P,J104,2,D-_2*%
%TO.N,/USB_DM*%
X26835000Y-8235600D03*
%TO.P,J104,3,D+_3*%
%TO.N,/USB_DP*%
X26035000Y-8235600D03*
%TO.P,J104,4,ID_4*%
%TO.N,GND*%
X25235000Y-8235600D03*
%TO.P,J104,5,GND_5*%
X24435000Y-8235600D03*
D16*
%TO.P,J104,6,Shield_6*%
X30485000Y-2635600D03*
X21585000Y-2635600D03*
X30485000Y-8135600D03*
X21585000Y-8135600D03*
%TD*%
D17*
%TO.P,C1,1*%
%TO.N,VUSB*%
X7480000Y-5650000D03*
%TO.P,C1,2*%
%TO.N,GND*%
X8440000Y-5650000D03*
%TD*%
D18*
%TO.P,C104,1*%
%TO.N,+3V3*%
X7860000Y-11010000D03*
%TO.P,C104,2*%
%TO.N,GND*%
X6900000Y-11010000D03*
%TD*%
D19*
%TO.P,R101,1*%
%TO.N,Net-(D101-K)*%
X15240000Y-1335000D03*
%TO.P,R101,2*%
%TO.N,/LED_RED*%
X15240000Y-2985000D03*
%TD*%
%TO.P,R102,1*%
%TO.N,Net-(D102-K)*%
X36600000Y-1335000D03*
%TO.P,R102,2*%
%TO.N,/LED_GREEN*%
X36600000Y-2985000D03*
%TD*%
D20*
%TO.P,R104,1*%
%TO.N,Net-(U5-PA10)*%
X20690000Y-26550000D03*
%TO.P,R104,2*%
%TO.N,TAG_RESET*%
X20690000Y-27570000D03*
%TD*%
D14*
%TO.P,U3,1,VIN_1*%
%TO.N,+3V3*%
X24072500Y-30197500D03*
%TO.P,U3,2,GND_2*%
%TO.N,GND*%
X25022500Y-30197500D03*
%TO.P,U3,3,EN_3*%
%TO.N,/en1.8v*%
X25972500Y-30197500D03*
%TO.P,U3,4,NC_4*%
%TO.N,unconnected-(U3-NC-Pad4)*%
X25972500Y-27922500D03*
%TO.P,U3,5,VOUT_5*%
%TO.N,+1V8*%
X24072500Y-27922500D03*
%TD*%
D21*
%TO.P,J1,1,Pin_1_1*%
%TO.N,unconnected-(J1-Pin_1-Pad1)*%
X45940000Y-15410000D03*
D22*
%TO.P,J1,2,Pin_2_2*%
%TO.N,TAG_3V3_IN*%
X45940000Y-12910000D03*
%TO.P,J1,3,Pin_3_3*%
%TO.N,unconnected-(J1-Pin_3-Pad3)*%
X45940000Y-10410000D03*
%TO.P,J1,4,Pin_4_4*%
%TO.N,GND*%
X45940000Y-7910000D03*
%TD*%
D23*
%TO.P,SW1,1,A_1*%
%TO.N,TAG_3V3_IN*%
X43580000Y-19660000D03*
%TO.P,SW1,2,B_2*%
%TO.N,Net-(SW1-B)*%
X41829998Y-23444600D03*
%TO.P,SW1,3,C_3*%
%TO.N,+3V3*%
X40079996Y-19660000D03*
%TD*%
D24*
%TO.P,J5,1,Pin_1_1*%
%TO.N,GND*%
X5660000Y-17620000D03*
D25*
%TO.P,J5,2,Pin_2_2*%
%TO.N,/UART_TX*%
X8200000Y-17620000D03*
%TD*%
D17*
%TO.P,C2,1*%
%TO.N,+3V3*%
X30290000Y-17960000D03*
%TO.P,C2,2*%
%TO.N,GND*%
X31250000Y-17960000D03*
%TD*%
%TO.P,C109,1*%
%TO.N,+1V8*%
X29510000Y-25120000D03*
%TO.P,C109,2*%
%TO.N,GND*%
X30470000Y-25120000D03*
%TD*%
D20*
%TO.P,R5,1*%
%TO.N,Net-(U6-+)*%
X34000000Y-25190000D03*
%TO.P,R5,2*%
%TO.N,TAG_3V3*%
X34000000Y-26210000D03*
%TD*%
D26*
%TO.P,U2,1,BAT_1*%
%TO.N,/BAT*%
X35252602Y-14760537D03*
D27*
%TO.P,U2,2,VSS_2*%
%TO.N,GND*%
X35252602Y-15313800D03*
%TO.P,U2,3,CSO_3*%
%TO.N,/CSO*%
X35252602Y-15813799D03*
%TO.P,U2,4,ISET_4*%
%TO.N,Net-(U2-ISET)*%
X37202600Y-15813799D03*
%TO.P,U2,5,THIN/NF_5*%
%TO.N,Net-(U2-THIN{slash}NF)*%
X37202600Y-15313800D03*
%TO.P,U2,6,VIN_6*%
%TO.N,VUSB*%
X37202600Y-14813801D03*
D28*
%TO.P,U2,7,EPAD_7*%
%TO.N,GND*%
X36227601Y-15313800D03*
%TD*%
D18*
%TO.P,C10,1*%
%TO.N,VUSB*%
X36010000Y-13025000D03*
%TO.P,C10,2*%
%TO.N,GND*%
X35050000Y-13025000D03*
%TD*%
D20*
%TO.P,R107,1*%
%TO.N,/TAG_3V3_Valid*%
X32680000Y-16970000D03*
%TO.P,R107,2*%
%TO.N,Net-(U6--)*%
X32680000Y-17990000D03*
%TD*%
D17*
%TO.P,C110,1*%
%TO.N,+3V3*%
X29510000Y-23210000D03*
%TO.P,C110,2*%
%TO.N,GND*%
X30470000Y-23210000D03*
%TD*%
%TO.P,C7,1*%
%TO.N,NRST*%
X30290000Y-16930000D03*
%TO.P,C7,2*%
%TO.N,GND*%
X31250000Y-16930000D03*
%TD*%
%TO.P,C111,1*%
%TO.N,+3V3*%
X24530000Y-23150000D03*
%TO.P,C111,2*%
%TO.N,GND*%
X25490000Y-23150000D03*
%TD*%
D29*
%TO.P,U8,1,VCCA_1*%
%TO.N,+3V3*%
X23300000Y-23250000D03*
%TO.P,U8,2,GND_2*%
%TO.N,GND*%
X22650000Y-23250000D03*
%TO.P,U8,3,A_3*%
%TO.N,Net-(U5-PB4)*%
X22000000Y-23250000D03*
%TO.P,U8,4,B_4*%
%TO.N,Net-(U8-B)*%
X22000000Y-24925000D03*
%TO.P,U8,5,DIR_5*%
%TO.N,Net-(U5-PA15)*%
X22650000Y-24925000D03*
%TO.P,U8,6,VCCB_6*%
%TO.N,+1V8*%
X23300000Y-24925000D03*
%TD*%
D30*
%TO.P,R3,1*%
%TO.N,+3V3*%
X36260000Y-17280000D03*
%TO.P,R3,2*%
%TO.N,/CSO*%
X35240000Y-17280000D03*
%TD*%
D31*
%TO.P,C6,1*%
%TO.N,+3V3*%
X32900000Y-21900000D03*
%TO.P,C6,2*%
%TO.N,GND*%
X32900000Y-22860000D03*
%TD*%
D17*
%TO.P,C103,1*%
%TO.N,+1V8*%
X24460000Y-25090000D03*
%TO.P,C103,2*%
%TO.N,GND*%
X25420000Y-25090000D03*
%TD*%
D32*
%TO.P,U6,1,+_1*%
%TO.N,Net-(U6-+)*%
X33987500Y-23687500D03*
%TO.P,U6,2,V-_2*%
%TO.N,GND*%
X34637500Y-23687500D03*
%TO.P,U6,3,-_3*%
%TO.N,Net-(U6--)*%
X35287500Y-23687500D03*
%TO.P,U6,4*%
X35287500Y-22012500D03*
%TO.P,U6,5,V+_5*%
%TO.N,+3V3*%
X33987500Y-22012500D03*
%TD*%
D29*
%TO.P,U7,1,VCCA_1*%
%TO.N,+3V3*%
X28310000Y-23295000D03*
%TO.P,U7,2,GND_2*%
%TO.N,GND*%
X27660000Y-23295000D03*
%TO.P,U7,3,A_3*%
%TO.N,Net-(U5-PB3)*%
X27010000Y-23295000D03*
%TO.P,U7,4,B_4*%
%TO.N,TAG_SCK*%
X27010000Y-24970000D03*
%TO.P,U7,5,DIR_5*%
%TO.N,+3V3*%
X27660000Y-24970000D03*
%TO.P,U7,6,VCCB_6*%
%TO.N,+1V8*%
X28310000Y-24970000D03*
%TD*%
D17*
%TO.P,C8,1*%
%TO.N,+3V3*%
X30280000Y-15890000D03*
%TO.P,C8,2*%
%TO.N,GND*%
X31240000Y-15890000D03*
%TD*%
D33*
%TO.P,R2,1*%
%TO.N,Net-(U2-THIN{slash}NF)*%
X38420000Y-14960000D03*
%TO.P,R2,2*%
%TO.N,GND*%
X39440000Y-14960000D03*
%TD*%
D17*
%TO.P,C5,1*%
%TO.N,+1V8*%
X24487500Y-26372500D03*
%TO.P,C5,2*%
%TO.N,GND*%
X25447500Y-26372500D03*
%TD*%
D18*
%TO.P,C3,1*%
%TO.N,+3V3*%
X22325000Y-14335000D03*
%TO.P,C3,2*%
%TO.N,GND*%
X21365000Y-14335000D03*
%TD*%
D34*
%TO.P,U5,1,VDD_1*%
%TO.N,+3V3*%
X28557500Y-17932500D03*
%TO.P,U5,2,PC14_2*%
%TO.N,unconnected-(U5-PC14-Pad2)*%
X28557500Y-17432500D03*
%TO.P,U5,3,PC15_3*%
%TO.N,unconnected-(U5-PC15-Pad3)*%
X28557500Y-16932500D03*
%TO.P,U5,4,~{NRST}_4*%
%TO.N,NRST*%
X28557500Y-16432500D03*
%TO.P,U5,5,VDDA/VREF+_5*%
%TO.N,+3V3*%
X28557500Y-15932500D03*
%TO.P,U5,6,PA0_6*%
%TO.N,/TAG_3V3_Valid*%
X28557500Y-15432500D03*
%TO.P,U5,7,PA1_7*%
%TO.N,/CSO*%
X28557500Y-14932500D03*
%TO.P,U5,8,PA2_8*%
%TO.N,/LED_GREEN*%
X28557500Y-14432500D03*
D35*
%TO.P,U5,9,PA3_9*%
%TO.N,/LED_RED*%
X27870000Y-13745000D03*
%TO.P,U5,10,PA4_10*%
%TO.N,unconnected-(U5-PA4-Pad10)*%
X27370000Y-13745000D03*
%TO.P,U5,11,PA5_11*%
%TO.N,unconnected-(U5-PA5-Pad11)*%
X26870000Y-13745000D03*
%TO.P,U5,12,PA6_12*%
%TO.N,unconnected-(U5-PA6-Pad12)*%
X26370000Y-13745000D03*
%TO.P,U5,13,PA7_13*%
%TO.N,unconnected-(U5-PA7-Pad13)*%
X25870000Y-13745000D03*
%TO.P,U5,14,PB0_14*%
%TO.N,unconnected-(U5-PB0-Pad14)*%
X25370000Y-13745000D03*
%TO.P,U5,15,PB1_15*%
%TO.N,unconnected-(U5-PB1-Pad15)*%
X24870000Y-13745000D03*
%TO.P,U5,16,VSS_16*%
%TO.N,GND*%
X24370000Y-13745000D03*
D34*
%TO.P,U5,17,VDD_17*%
%TO.N,+3V3*%
X23682500Y-14432500D03*
%TO.P,U5,18,PA8_18*%
%TO.N,unconnected-(U5-PA8-Pad18)*%
X23682500Y-14932500D03*
%TO.P,U5,19,USART1_TX_19*%
%TO.N,/UART_TX*%
X23682500Y-15432500D03*
%TO.P,U5,20,PA10_20*%
%TO.N,Net-(U5-PA10)*%
X23682500Y-15932500D03*
%TO.P,U5,21,USB_DM_21*%
%TO.N,/DM*%
X23682500Y-16432500D03*
%TO.P,U5,22,USB_DP_22*%
%TO.N,/DP*%
X23682500Y-16932500D03*
%TO.P,U5,23,PA13_23*%
%TO.N,/SWDIO*%
X23682500Y-17432500D03*
%TO.P,U5,24,PA14_24*%
%TO.N,/SCLK*%
X23682500Y-17932500D03*
D35*
%TO.P,U5,25,PA15_25*%
%TO.N,Net-(U5-PA15)*%
X24370000Y-18620000D03*
%TO.P,U5,26,SPI1_SCK_26*%
%TO.N,Net-(U5-PB3)*%
X24870000Y-18620000D03*
%TO.P,U5,27,SPI1_MISO_27*%
%TO.N,Net-(U5-PB4)*%
X25370000Y-18620000D03*
%TO.P,U5,28,SPI1_MOSI_28*%
%TO.N,Net-(U5-PB5)*%
X25870000Y-18620000D03*
%TO.P,U5,29,PB6_29*%
%TO.N,/en1.8v*%
X26370000Y-18620000D03*
%TO.P,U5,30,PB7_30*%
%TO.N,unconnected-(U5-PB7-Pad30)*%
X26870000Y-18620000D03*
%TO.P,U5,31,BOOT0_31*%
%TO.N,/boot0*%
X27370000Y-18620000D03*
%TO.P,U5,32,VSS_32*%
%TO.N,GND*%
X27870000Y-18620000D03*
D36*
%TO.P,U5,33,GND_33*%
X26120000Y-16182500D03*
%TD*%
D37*
%TO.P,C9,1*%
%TO.N,/BAT*%
X33900000Y-13980000D03*
%TO.P,C9,2*%
%TO.N,GND*%
X33900000Y-13020000D03*
%TD*%
D23*
%TO.P,SW2,1,A_1*%
%TO.N,Net-(SW1-B)*%
X41800000Y-26000000D03*
%TO.P,SW2,2,B_2*%
%TO.N,TAG_3V3*%
X40049998Y-29784600D03*
%TO.P,SW2,3,C_3*%
%TO.N,/BAT*%
X38299996Y-26000000D03*
%TD*%
D38*
%TO.P,U4,1,I/O1_1*%
%TO.N,/DP*%
X21465000Y-11282500D03*
D39*
%TO.P,U4,2,GND_2*%
%TO.N,GND*%
X21390000Y-11820000D03*
D38*
%TO.P,U4,3,I/O2_3*%
%TO.N,/DM*%
X21465000Y-12357500D03*
%TO.P,U4,4,I/O2_4*%
%TO.N,/USB_DM*%
X23165000Y-12357500D03*
D39*
%TO.P,U4,5,VBUS_5*%
%TO.N,VUSB*%
X23240000Y-11820000D03*
D38*
%TO.P,U4,6,I/O1_6*%
%TO.N,/USB_DP*%
X23165000Y-11282500D03*
%TD*%
D31*
%TO.P,C102,1*%
%TO.N,VUSB*%
X24830000Y-11480000D03*
%TO.P,C102,2*%
%TO.N,GND*%
X24830000Y-12440000D03*
%TD*%
D30*
%TO.P,R4,1*%
%TO.N,Net-(U5-PB5)*%
X26140000Y-20450000D03*
%TO.P,R4,2*%
%TO.N,Net-(U5-PB4)*%
X25120000Y-20450000D03*
%TD*%
D20*
%TO.P,R106,1*%
%TO.N,Net-(U8-B)*%
X19400000Y-26540000D03*
%TO.P,R106,2*%
%TO.N,TAG_SWDIO*%
X19400000Y-27560000D03*
%TD*%
D30*
%TO.P,R105,1*%
%TO.N,GND*%
X28420000Y-20480000D03*
%TO.P,R105,2*%
%TO.N,/boot0*%
X27400000Y-20480000D03*
%TD*%
D17*
%TO.P,C4,1*%
%TO.N,+3V3*%
X24150000Y-31850000D03*
%TO.P,C4,2*%
%TO.N,GND*%
X25110000Y-31850000D03*
%TD*%
D33*
%TO.P,R1,1*%
%TO.N,Net-(U2-ISET)*%
X38416000Y-16026800D03*
%TO.P,R1,2*%
%TO.N,GND*%
X39436000Y-16026800D03*
%TD*%
D40*
%TO.N,+3V3*%
X7870000Y-11730000D03*
X30290000Y-18540000D03*
X17200000Y-17010000D03*
X36990000Y-17320000D03*
X27680000Y-25810000D03*
X32900000Y-21300000D03*
X23600000Y-31850000D03*
X29540000Y-15680000D03*
X28280000Y-22450000D03*
X24440000Y-22460000D03*
X12160000Y-3090000D03*
X40130000Y-18460000D03*
X22340000Y-13670000D03*
X39580000Y-3120000D03*
X13080000Y-16950000D03*
%TO.N,GND*%
X26100000Y-26350000D03*
X26120000Y-16182500D03*
X19850000Y-8150000D03*
X29080000Y-20480000D03*
X25750000Y-31850000D03*
X6880000Y-11670000D03*
X25470000Y-22490000D03*
X22700000Y-22490000D03*
X31090000Y-23230000D03*
X33175000Y-13000000D03*
X21060000Y-13700000D03*
X28380000Y-18620000D03*
X40100400Y-14934600D03*
X34950000Y-12275000D03*
X5990000Y-8943000D03*
X32164400Y-2635600D03*
X20720000Y-11820000D03*
X34700000Y-24400000D03*
X27580000Y-22490000D03*
X23950000Y-13660000D03*
X40049600Y-16001400D03*
X26140000Y-25150000D03*
X32200000Y-8100000D03*
X24330581Y-10146900D03*
X32900000Y-23400000D03*
X36227601Y-13907601D03*
X19900000Y-2700000D03*
X25510000Y-12440000D03*
X31080000Y-25110000D03*
%TO.N,NRST*%
X29390000Y-16410000D03*
%TO.N,TAG_RESET*%
X21530000Y-37170000D03*
%TO.N,TAG_SWDIO*%
X19350000Y-37000000D03*
%TO.N,TAG_SCK*%
X25340000Y-35510000D03*
%TO.N,TAG_3V3*%
X38620000Y-35320000D03*
%TO.N,/boot0*%
X19990000Y-20780000D03*
X27350000Y-19570000D03*
%TO.N,/LED_RED*%
X27780000Y-12580000D03*
X15160000Y-3720000D03*
%TO.N,/LED_GREEN*%
X31370000Y-10590000D03*
X30800000Y-11860000D03*
%TO.N,Net-(U5-PA10)*%
X22534137Y-15957280D03*
X21600000Y-19140000D03*
%TO.N,/en1.8v*%
X26050000Y-31150000D03*
X26350000Y-19600000D03*
%TO.N,/UART_TX*%
X22730000Y-15380000D03*
%TO.N,/BAT*%
X34020000Y-16220000D03*
X34180000Y-15120000D03*
%TO.N,Net-(U5-PB3)*%
X24980000Y-19450000D03*
X25690000Y-21260000D03*
%TD*%
%TO.N,Net-(D101-K)*%
D41*
X13336000Y-1372500D02*
X13335000Y-1371500D01*
X15240000Y-1372500D02*
X13336000Y-1372500D01*
%TO.N,+3V3*%
D42*
X28557500Y-15932500D02*
X30237500Y-15932500D01*
X28310000Y-23295000D02*
X29425000Y-23295000D01*
X18150000Y-16970000D02*
X17240000Y-16970000D01*
X27660000Y-24970000D02*
X27660000Y-25790000D01*
X27660000Y-25790000D02*
X27680000Y-25810000D01*
X24530000Y-23150000D02*
X24530000Y-22550000D01*
X28310000Y-23295000D02*
X28310000Y-22480000D01*
X24150000Y-31850000D02*
X23600000Y-31850000D01*
X28557500Y-17932500D02*
X30262500Y-17932500D01*
D43*
X8490000Y-9402500D02*
X8349500Y-9402500D01*
D42*
X13060000Y-16970000D02*
X13080000Y-16950000D01*
X28310000Y-22480000D02*
X28280000Y-22450000D01*
D43*
X8490000Y-9402500D02*
X8490000Y-10380000D01*
D42*
X32900000Y-21900000D02*
X33875000Y-21900000D01*
D41*
X22325000Y-14335000D02*
X23585000Y-14335000D01*
X13335000Y-3096500D02*
X12166500Y-3096500D01*
D42*
X23300000Y-23250000D02*
X24430000Y-23250000D01*
X30237500Y-15932500D02*
X30280000Y-15890000D01*
X36260000Y-17280000D02*
X36950000Y-17280000D01*
D41*
X22325000Y-13685000D02*
X22340000Y-13670000D01*
D42*
X29425000Y-23295000D02*
X29510000Y-23210000D01*
D41*
X13265000Y-3166500D02*
X13335000Y-3096500D01*
D42*
X24430000Y-23250000D02*
X24530000Y-23150000D01*
X30290000Y-17960000D02*
X30290000Y-18540000D01*
D43*
X8490000Y-10380000D02*
X7860000Y-11010000D01*
X7860000Y-11720000D02*
X7870000Y-11730000D01*
D42*
X39383500Y-3096500D02*
X39556500Y-3096500D01*
X29750000Y-15890000D02*
X29540000Y-15680000D01*
D43*
X7860000Y-11010000D02*
X7860000Y-11720000D01*
D42*
X13020000Y-16970000D02*
X13030000Y-16960000D01*
X12150000Y-16970000D02*
X13020000Y-16970000D01*
X32900000Y-21900000D02*
X32900000Y-21300000D01*
X13020000Y-16970000D02*
X13060000Y-16970000D01*
X24530000Y-22550000D02*
X24440000Y-22460000D01*
X24072500Y-30197500D02*
X24072500Y-31772500D01*
X38354000Y-3096500D02*
X39383500Y-3096500D01*
D41*
X12166500Y-3096500D02*
X12160000Y-3090000D01*
D42*
X36950000Y-17280000D02*
X36990000Y-17320000D01*
X40079996Y-19660000D02*
X40079996Y-18510004D01*
X30290000Y-18540000D02*
X30300000Y-18550000D01*
D41*
X22325000Y-14335000D02*
X22325000Y-13685000D01*
D42*
X39556500Y-3096500D02*
X39580000Y-3120000D01*
X24072500Y-31772500D02*
X24150000Y-31850000D01*
X30262500Y-17932500D02*
X30290000Y-17960000D01*
X33875000Y-21900000D02*
X33987500Y-22012500D01*
X17240000Y-16970000D02*
X17200000Y-17010000D01*
D41*
X23585000Y-14335000D02*
X23682500Y-14432500D01*
D42*
X30280000Y-15890000D02*
X29750000Y-15890000D01*
X40079996Y-18510004D02*
X40130000Y-18460000D01*
%TO.N,Net-(D102-K)*%
D41*
X36600000Y-1372500D02*
X38353000Y-1372500D01*
X38353000Y-1372500D02*
X38354000Y-1371500D01*
%TO.N,/SWDIO*%
D42*
X14535000Y-7360000D02*
X17150000Y-9975000D01*
X22230000Y-17470000D02*
X22267500Y-17432500D01*
X17150000Y-9975000D02*
X17150000Y-12390000D01*
X22267500Y-17432500D02*
X23682500Y-17432500D01*
X17150000Y-12390000D02*
X22230000Y-17470000D01*
%TO.N,GND*%
X22650000Y-22540000D02*
X22700000Y-22490000D01*
D41*
X25447500Y-26372500D02*
X26077500Y-26372500D01*
X36227601Y-15313800D02*
X36227601Y-13907601D01*
X13265000Y-12440000D02*
X13265000Y-12770000D01*
X6449500Y-9402500D02*
X5990000Y-8943000D01*
D42*
X25490000Y-22510000D02*
X25470000Y-22490000D01*
X32900000Y-22860000D02*
X32900000Y-23400000D01*
D41*
X21685000Y-8235600D02*
X21585000Y-8135600D01*
X19964400Y-2635600D02*
X19900000Y-2700000D01*
D42*
X25490000Y-23150000D02*
X25490000Y-22510000D01*
D41*
X25032000Y-30188000D02*
X25022500Y-30197500D01*
X35252602Y-15313800D02*
X36227601Y-15313800D01*
X21585000Y-8135600D02*
X19864400Y-8135600D01*
D42*
X33195000Y-13020000D02*
X33175000Y-13000000D01*
D41*
X36227601Y-13907601D02*
X36220000Y-13900000D01*
D42*
X26080000Y-25090000D02*
X26140000Y-25150000D01*
D41*
X24435000Y-8235600D02*
X24435000Y-10042481D01*
D42*
X40075000Y-14960000D02*
X40100400Y-14934600D01*
X21390000Y-11820000D02*
X20720000Y-11820000D01*
D41*
X25022500Y-30197500D02*
X25022500Y-31762500D01*
D42*
X31070000Y-25120000D02*
X31080000Y-25110000D01*
X34637500Y-23687500D02*
X34637500Y-24337500D01*
D41*
X25235000Y-8235600D02*
X24435000Y-8235600D01*
D42*
X34637500Y-24337500D02*
X34700000Y-24400000D01*
X31070000Y-23210000D02*
X31090000Y-23230000D01*
D41*
X26077500Y-26372500D02*
X26100000Y-26350000D01*
D44*
X6900000Y-9712500D02*
X6590000Y-9402500D01*
D42*
X27660000Y-22570000D02*
X27580000Y-22490000D01*
X21365000Y-14005000D02*
X21060000Y-13700000D01*
D41*
X21585000Y-2635600D02*
X19964400Y-2635600D01*
X32164400Y-8135600D02*
X32200000Y-8100000D01*
D42*
X27660000Y-23295000D02*
X27660000Y-22570000D01*
D41*
X36227601Y-15313800D02*
X36227601Y-15687200D01*
D42*
X24035000Y-13745000D02*
X23950000Y-13660000D01*
D44*
X6900000Y-11010000D02*
X6900000Y-9712500D01*
D41*
X25022500Y-31762500D02*
X25110000Y-31850000D01*
X30485000Y-2635600D02*
X32164400Y-2635600D01*
D42*
X39440000Y-14960000D02*
X40075000Y-14960000D01*
D44*
X6900000Y-11010000D02*
X6900000Y-11650000D01*
D42*
X35050000Y-13025000D02*
X35050000Y-12375000D01*
X24830000Y-12440000D02*
X25510000Y-12440000D01*
D41*
X24435000Y-8235600D02*
X21685000Y-8235600D01*
D44*
X6900000Y-11650000D02*
X6880000Y-11670000D01*
D42*
X22650000Y-23250000D02*
X22650000Y-22540000D01*
X25420000Y-25090000D02*
X26080000Y-25090000D01*
X33900000Y-13020000D02*
X33195000Y-13020000D01*
X25110000Y-31850000D02*
X25750000Y-31850000D01*
X30470000Y-23210000D02*
X31070000Y-23210000D01*
D41*
X24435000Y-10042481D02*
X24330581Y-10146900D01*
X30485000Y-8135600D02*
X32164400Y-8135600D01*
X19864400Y-8135600D02*
X19850000Y-8150000D01*
D42*
X21365000Y-14335000D02*
X21365000Y-14005000D01*
D41*
X6590000Y-9402500D02*
X6449500Y-9402500D01*
D42*
X39436000Y-16026800D02*
X40024200Y-16026800D01*
X28420000Y-20480000D02*
X29080000Y-20480000D01*
X40024200Y-16026800D02*
X40049600Y-16001400D01*
X27870000Y-18620000D02*
X28380000Y-18620000D01*
D41*
X25087500Y-30262500D02*
X25022500Y-30197500D01*
D42*
X28380000Y-18620000D02*
X28400000Y-18600000D01*
X24370000Y-13745000D02*
X24035000Y-13745000D01*
X35050000Y-12375000D02*
X34950000Y-12275000D01*
X29080000Y-20480000D02*
X29100000Y-20500000D01*
X30470000Y-25120000D02*
X31070000Y-25120000D01*
%TO.N,/SCLK*%
X22002500Y-17932500D02*
X23682500Y-17932500D01*
X14535000Y-8630000D02*
X16110000Y-10205000D01*
X16110000Y-10205000D02*
X16110000Y-12040000D01*
X16110000Y-12040000D02*
X22002500Y-17932500D01*
%TO.N,NRST*%
X29390000Y-16410000D02*
X29910000Y-16930000D01*
X29367500Y-16432500D02*
X29390000Y-16410000D01*
X29910000Y-16930000D02*
X30290000Y-16930000D01*
X28557500Y-16432500D02*
X29367500Y-16432500D01*
%TO.N,TAG_RESET*%
X20690000Y-27570000D02*
X20690000Y-36330000D01*
X20690000Y-36330000D02*
X21530000Y-37170000D01*
%TO.N,TAG_SWDIO*%
X19400000Y-27560000D02*
X19400000Y-36950000D01*
X19400000Y-36950000D02*
X19350000Y-37000000D01*
%TO.N,TAG_SCK*%
X27010000Y-24970000D02*
X27010000Y-33840000D01*
X27010000Y-33840000D02*
X25340000Y-35510000D01*
%TO.N,TAG_3V3*%
X36475398Y-26210000D02*
X40049998Y-29784600D01*
X34000000Y-26210000D02*
X36475398Y-26210000D01*
X40049998Y-33890002D02*
X38620000Y-35320000D01*
X40049998Y-29784600D02*
X40049998Y-33890002D01*
%TO.N,/boot0*%
X19930000Y-20720000D02*
X19990000Y-20780000D01*
X18150000Y-20720000D02*
X19930000Y-20720000D01*
X27350000Y-20430000D02*
X27400000Y-20480000D01*
X27370000Y-18620000D02*
X27370000Y-19550000D01*
X27370000Y-19550000D02*
X27350000Y-19570000D01*
X27350000Y-19570000D02*
X27350000Y-20430000D01*
X12150000Y-20720000D02*
X18150000Y-20720000D01*
%TO.N,VUSB*%
X24563432Y-11709200D02*
X24600800Y-11709200D01*
D43*
X27635000Y-8235600D02*
X30639400Y-11240000D01*
D42*
X19440000Y-10100000D02*
X17650000Y-8310000D01*
X37200200Y-13025000D02*
X37202600Y-13022600D01*
D44*
X7530000Y-5590000D02*
X7530000Y-7117500D01*
X7530000Y-7117500D02*
X7540000Y-7127500D01*
D42*
X24452632Y-11820000D02*
X24563432Y-11709200D01*
X23240000Y-11820000D02*
X22915001Y-11820000D01*
D41*
X7440000Y-7027500D02*
X7540000Y-7127500D01*
D43*
X7480000Y-5030000D02*
X8030000Y-4480000D01*
X24987400Y-4480000D02*
X27635000Y-7127600D01*
X35420000Y-11240000D02*
X37202600Y-13022600D01*
D42*
X36010000Y-13025000D02*
X37200200Y-13025000D01*
D43*
X37202600Y-13022600D02*
X37202600Y-14813801D01*
D42*
X17650000Y-8310000D02*
X17650000Y-4480000D01*
D43*
X17650000Y-4480000D02*
X24987400Y-4480000D01*
D41*
X7440000Y-5643000D02*
X7440000Y-7027500D01*
D43*
X7480000Y-5650000D02*
X7480000Y-5030000D01*
X27635000Y-7127600D02*
X27635000Y-8235600D01*
D42*
X23240000Y-11820000D02*
X24452632Y-11820000D01*
D43*
X30639400Y-11240000D02*
X35420000Y-11240000D01*
D42*
X22915001Y-11820000D02*
X21195001Y-10100000D01*
X21195001Y-10100000D02*
X19440000Y-10100000D01*
D43*
X8030000Y-4480000D02*
X17650000Y-4480000D01*
D42*
X24600800Y-11709200D02*
X24830000Y-11480000D01*
%TO.N,/USB_DM*%
X23165000Y-12357500D02*
X24185104Y-12357500D01*
X24647600Y-11912400D02*
X25124996Y-11912400D01*
X24536800Y-12023200D02*
X24647600Y-11912400D01*
X25124996Y-11912400D02*
X26835000Y-10202396D01*
X24519404Y-12023200D02*
X24536800Y-12023200D01*
X24185104Y-12357500D02*
X24519404Y-12023200D01*
X26835000Y-10202396D02*
X26835000Y-8235600D01*
%TO.N,/USB_DP*%
X26035000Y-9485000D02*
X26035000Y-8235600D01*
X24237500Y-11282500D02*
X26035000Y-9485000D01*
X23165000Y-11282500D02*
X24237500Y-11282500D01*
%TO.N,/LED_RED*%
X15240000Y-2985000D02*
X15240000Y-3640000D01*
X27870000Y-13745000D02*
X27870000Y-12670000D01*
X15240000Y-3640000D02*
X15160000Y-3720000D01*
X27870000Y-12670000D02*
X27780000Y-12580000D01*
%TO.N,/LED_GREEN*%
X30800000Y-12190000D02*
X30800000Y-11860000D01*
X28557500Y-14432500D02*
X30800000Y-12190000D01*
X36600000Y-2985000D02*
X36600000Y-5360000D01*
X36600000Y-5360000D02*
X31370000Y-10590000D01*
%TO.N,Net-(U5-PA10)*%
X21600000Y-19140000D02*
X20690000Y-20050000D01*
X20690000Y-20050000D02*
X20690000Y-26550000D01*
X22558917Y-15932500D02*
X22534137Y-15957280D01*
X23682500Y-15932500D02*
X22558917Y-15932500D01*
%TO.N,/en1.8v*%
X26370000Y-19580000D02*
X26350000Y-19600000D01*
X26370000Y-18620000D02*
X26370000Y-19580000D01*
X25972500Y-30197500D02*
X25972500Y-31072500D01*
X25972500Y-31072500D02*
X26050000Y-31150000D01*
%TO.N,+1V8*%
X24460000Y-24770000D02*
X24460000Y-25090000D01*
X24711700Y-26148300D02*
X24487500Y-26372500D01*
X28112499Y-24260000D02*
X24970000Y-24260000D01*
D41*
X24072500Y-27922500D02*
X24072500Y-26787500D01*
D42*
X28460000Y-25120000D02*
X29510000Y-25120000D01*
X23300000Y-24925000D02*
X24295000Y-24925000D01*
X28310000Y-24970000D02*
X28460000Y-25120000D01*
D41*
X24072500Y-26787500D02*
X24487500Y-26372500D01*
D42*
X28310000Y-24970000D02*
X28310000Y-24457501D01*
X24970000Y-24260000D02*
X24460000Y-24770000D01*
X28310000Y-24457501D02*
X28112499Y-24260000D01*
X24487500Y-25117500D02*
X24460000Y-25090000D01*
X24487500Y-26372500D02*
X24487500Y-25117500D01*
X24295000Y-24925000D02*
X24460000Y-25090000D01*
%TO.N,TAG_3V3_IN*%
D41*
X43580000Y-19660000D02*
X43580000Y-15270000D01*
X43580000Y-19660000D02*
X43549196Y-19660000D01*
X43580000Y-15270000D02*
X45940000Y-12910000D01*
%TO.N,Net-(SW1-B)*%
X41780000Y-23494598D02*
X41829998Y-23444600D01*
X41829998Y-23444600D02*
X41829998Y-25970002D01*
X41829998Y-25970002D02*
X41800000Y-26000000D01*
%TO.N,/UART_TX*%
D42*
X22782500Y-15432500D02*
X22730000Y-15380000D01*
X23682500Y-15432500D02*
X22782500Y-15432500D01*
%TO.N,Net-(U6-+)*%
X33987500Y-25177500D02*
X34000000Y-25190000D01*
X33987500Y-23687500D02*
X33987500Y-25177500D01*
%TO.N,/BAT*%
X33900000Y-13980000D02*
X34472065Y-13980000D01*
X35252602Y-14760537D02*
X34539463Y-14760537D01*
X34020000Y-18820000D02*
X38299996Y-23099996D01*
X38299996Y-23099996D02*
X38299996Y-26000000D01*
X34472065Y-13980000D02*
X35252602Y-14760537D01*
X34020000Y-16220000D02*
X34020000Y-18820000D01*
X34539463Y-14760537D02*
X34180000Y-15120000D01*
%TO.N,/CSO*%
X35252602Y-15813799D02*
X34263799Y-15813799D01*
X33382500Y-14932500D02*
X33760000Y-15310000D01*
X35192404Y-15753601D02*
X35252602Y-15813799D01*
X28557500Y-14932500D02*
X33382500Y-14932500D01*
X35240000Y-15826401D02*
X35252602Y-15813799D01*
X35240000Y-17280000D02*
X35240000Y-15826401D01*
X34263799Y-15813799D02*
X33760000Y-15310000D01*
%TO.N,Net-(U2-ISET)*%
X38202999Y-15813799D02*
X38416000Y-16026800D01*
X37202600Y-15813799D02*
X38202999Y-15813799D01*
%TO.N,Net-(U2-THIN{slash}NF)*%
X38066200Y-15313800D02*
X38420000Y-14960000D01*
X37202600Y-15313800D02*
X38066200Y-15313800D01*
%TO.N,/TAG_3V3_Valid*%
X32680000Y-16053200D02*
X32680000Y-16970000D01*
X28557500Y-15432500D02*
X28741800Y-15248200D01*
X31875000Y-15248200D02*
X32680000Y-16053200D01*
X28741800Y-15248200D02*
X31875000Y-15248200D01*
%TO.N,Net-(U6--)*%
X32680000Y-17990000D02*
X32680000Y-18380000D01*
X35287500Y-22012500D02*
X35287500Y-23687500D01*
X35287500Y-20987500D02*
X35287500Y-22012500D01*
X32680000Y-18380000D02*
X35287500Y-20987500D01*
%TO.N,Net-(U5-PB4)*%
X25495000Y-18745000D02*
X25495000Y-20075000D01*
X25370000Y-18620000D02*
X25495000Y-18745000D01*
X23985658Y-20450000D02*
X25120000Y-20450000D01*
X25495000Y-20075000D02*
X25120000Y-20450000D01*
X22000000Y-22435658D02*
X23985658Y-20450000D01*
X22000000Y-23250000D02*
X22000000Y-22435658D01*
%TO.N,Net-(U8-B)*%
X19400000Y-26540000D02*
X19832400Y-26972400D01*
X20997786Y-26972400D02*
X22000000Y-25970186D01*
X22000000Y-25970186D02*
X22000000Y-24925000D01*
X19832400Y-26972400D02*
X20997786Y-26972400D01*
%TO.N,Net-(U5-PA15)*%
X21672600Y-22357400D02*
X21672600Y-23776794D01*
X24370000Y-19660000D02*
X21672600Y-22357400D01*
X22497599Y-24260100D02*
X22650000Y-24412501D01*
X22155906Y-24260100D02*
X22497599Y-24260100D01*
X22650000Y-24412501D02*
X22650000Y-24925000D01*
X21672600Y-23776794D02*
X22155906Y-24260100D01*
X24370000Y-18620000D02*
X24370000Y-19660000D01*
%TO.N,Net-(U5-PB3)*%
X27010000Y-22580000D02*
X27010000Y-23295000D01*
X25690000Y-21260000D02*
X27010000Y-22580000D01*
X24870000Y-18620000D02*
X24870000Y-19340000D01*
X24870000Y-19340000D02*
X24980000Y-19450000D01*
%TO.N,/DM*%
X21797400Y-14984899D02*
X21797400Y-12689900D01*
X21986600Y-15174099D02*
X21797400Y-14984899D01*
X21986600Y-16180942D02*
X21986600Y-15174099D01*
X23682500Y-16432500D02*
X22238158Y-16432500D01*
X21797400Y-12689900D02*
X21465000Y-12357500D01*
X22238158Y-16432500D02*
X21986600Y-16180942D01*
%TO.N,/DP*%
X23682500Y-16932500D02*
X22450790Y-16932500D01*
X21783400Y-15838137D02*
X20288200Y-14342937D01*
X21783400Y-16265110D02*
X21783400Y-15838137D01*
X20288200Y-14342937D02*
X20288200Y-11641142D01*
X20288200Y-11641142D02*
X20646842Y-11282500D01*
X22450790Y-16932500D02*
X21783400Y-16265110D01*
X20646842Y-11282500D02*
X21465000Y-11282500D01*
%TO.N,Net-(U5-PB5)*%
X25870000Y-18620000D02*
X25870000Y-20180000D01*
X25870000Y-20180000D02*
X26140000Y-20450000D01*
%TD*%
%TA.AperFunction,Conductor*%
%TO.N,GND*%
G36*
X12256591Y-320502D02*
G01*
X12303084Y-374158D01*
X12313188Y-444432D01*
X12287309Y-504647D01*
X12284656Y-508001D01*
X12192339Y-657670D01*
X12137025Y-824600D01*
X12126500Y-927616D01*
X12126500Y-1515374D01*
X12137025Y-1618399D01*
X12137026Y-1618404D01*
X12192339Y-1785329D01*
X12284656Y-1934998D01*
X12284661Y-1935004D01*
X12409001Y-2059344D01*
X12410043Y-2060168D01*
X12410571Y-2060914D01*
X12414191Y-2064534D01*
X12413572Y-2065152D01*
X12420061Y-2074317D01*
X12433794Y-2084898D01*
X12440150Y-2102690D01*
X12451069Y-2118111D01*
X12451847Y-2135429D01*
X12457680Y-2151756D01*
X12453407Y-2170160D01*
X12454256Y-2189036D01*
X12445460Y-2204397D01*
X12441627Y-2220914D01*
X12424628Y-2240783D01*
X12419739Y-2249323D01*
X12412121Y-2256731D01*
X12409002Y-2258656D01*
X12368421Y-2299236D01*
X12367744Y-2299895D01*
X12337076Y-2316092D01*
X12306674Y-2332693D01*
X12305628Y-2332702D01*
X12304966Y-2333052D01*
X12301324Y-2332740D01*
X12255313Y-2333151D01*
X12234950Y-2329100D01*
X12234942Y-2329100D01*
X12085058Y-2329100D01*
X12085055Y-2329100D01*
X11938053Y-2358341D01*
X11938048Y-2358343D01*
X11799578Y-2415699D01*
X11674952Y-2498971D01*
X11674946Y-2498976D01*
X11568976Y-2604946D01*
X11568971Y-2604952D01*
X11485699Y-2729578D01*
X11428343Y-2868048D01*
X11428341Y-2868053D01*
X11399100Y-3015055D01*
X11399100Y-3164944D01*
X11428341Y-3311946D01*
X11428343Y-3311951D01*
X11485699Y-3450421D01*
X11568971Y-3575047D01*
X11568976Y-3575053D01*
X11597928Y-3604005D01*
X11631954Y-3666317D01*
X11626889Y-3737132D01*
X11584342Y-3793968D01*
X11517822Y-3818779D01*
X11508833Y-3819100D01*
X7964902Y-3819100D01*
X7880815Y-3835826D01*
X7880815Y-3835827D01*
X7837223Y-3844498D01*
X7837221Y-3844499D01*
X7837217Y-3844500D01*
X7716945Y-3894318D01*
X7608705Y-3966642D01*
X7608698Y-3966647D01*
X7516645Y-4058701D01*
X7516642Y-4058702D01*
X7516643Y-4058703D01*
X7040981Y-4534363D01*
X7040977Y-4534369D01*
X6966643Y-4608703D01*
X6966642Y-4608705D01*
X6894318Y-4716945D01*
X6844500Y-4837217D01*
X6844498Y-4837222D01*
X6819100Y-4964904D01*
X6819100Y-5052360D01*
X6801554Y-5116499D01*
X6740106Y-5220401D01*
X6694393Y-5377747D01*
X6694393Y-5377748D01*
X6691500Y-5414506D01*
X6691500Y-5885493D01*
X6694393Y-5922251D01*
X6694393Y-5922252D01*
X6740107Y-6079601D01*
X6802919Y-6185809D01*
X6820379Y-6254625D01*
X6802921Y-6314085D01*
X6780856Y-6351396D01*
X6734437Y-6511170D01*
X6734437Y-6511171D01*
X6731500Y-6548488D01*
X6731500Y-7706511D01*
X6734437Y-7743828D01*
X6734437Y-7743829D01*
X6780856Y-7903605D01*
X6865544Y-8046803D01*
X6870405Y-8053070D01*
X6867984Y-8054947D01*
X6895151Y-8104698D01*
X6890086Y-8175513D01*
X6847683Y-8232241D01*
X6844000Y-8235006D01*
X6844000Y-9148500D01*
X7397999Y-9148500D01*
X7397999Y-8823543D01*
X7395065Y-8786249D01*
X7348681Y-8626599D01*
X7267092Y-8488639D01*
X7249633Y-8419823D01*
X7272150Y-8352492D01*
X7327494Y-8308022D01*
X7375546Y-8298500D01*
X7703873Y-8298500D01*
X7771994Y-8318502D01*
X7818487Y-8372158D01*
X7828591Y-8442432D01*
X7812326Y-8488638D01*
X7790302Y-8525880D01*
X7730856Y-8626396D01*
X7684437Y-8786170D01*
X7684437Y-8786171D01*
X7681500Y-8823488D01*
X7681500Y-9981511D01*
X7684437Y-10018828D01*
X7684438Y-10018832D01*
X7691130Y-10041868D01*
X7691103Y-10051066D01*
X7694900Y-10059443D01*
X7691002Y-10086010D01*
X7690925Y-10112864D01*
X7685930Y-10120587D01*
X7684595Y-10129688D01*
X7666949Y-10149934D01*
X7652369Y-10172479D01*
X7642759Y-10177690D01*
X7637949Y-10183210D01*
X7605284Y-10198014D01*
X7538895Y-10217301D01*
X7467898Y-10217098D01*
X7408282Y-10178543D01*
X7378975Y-10113878D01*
X7382747Y-10061149D01*
X7395064Y-10018754D01*
X7395065Y-10018750D01*
X7398000Y-9981456D01*
X7398000Y-9656500D01*
X5782001Y-9656500D01*
X5782001Y-9981456D01*
X5784934Y-10018750D01*
X5831318Y-10178400D01*
X5915948Y-10321501D01*
X5915949Y-10321503D01*
X6033497Y-10439051D01*
X6092906Y-10474185D01*
X6141358Y-10526078D01*
X6154064Y-10595928D01*
X6149764Y-10617792D01*
X6114890Y-10737826D01*
X6113460Y-10755999D01*
X6113461Y-10756000D01*
X6774000Y-10756000D01*
X6842121Y-10776002D01*
X6888614Y-10829658D01*
X6900000Y-10882000D01*
X6900000Y-11010000D01*
X6945500Y-11010000D01*
X7013621Y-11030002D01*
X7060114Y-11083658D01*
X7071500Y-11136000D01*
X7071500Y-11245493D01*
X7074393Y-11282251D01*
X7074394Y-11282255D01*
X7120104Y-11439594D01*
X7123252Y-11446867D01*
X7121725Y-11447527D01*
X7136875Y-11507255D01*
X7134541Y-11527149D01*
X7109100Y-11655050D01*
X7109100Y-11804944D01*
X7122796Y-11873796D01*
X7138341Y-11951946D01*
X7195699Y-12090421D01*
X7267574Y-12197991D01*
X7278971Y-12215047D01*
X7278976Y-12215053D01*
X7384946Y-12321023D01*
X7384952Y-12321028D01*
X7384954Y-12321030D01*
X7509579Y-12404301D01*
X7648054Y-12461659D01*
X7795058Y-12490900D01*
X7795059Y-12490900D01*
X7944941Y-12490900D01*
X7944942Y-12490900D01*
X8091946Y-12461659D01*
X8230421Y-12404301D01*
X8355046Y-12321030D01*
X8461030Y-12215046D01*
X8544301Y-12090421D01*
X8601659Y-11951946D01*
X8630900Y-11804942D01*
X8630900Y-11655058D01*
X8601659Y-11508054D01*
X8601656Y-11508046D01*
X8601456Y-11507384D01*
X8601452Y-11507020D01*
X8600451Y-11501984D01*
X8601406Y-11501793D01*
X8600827Y-11436390D01*
X8600967Y-11435903D01*
X8645606Y-11282254D01*
X8648499Y-11245493D01*
X8648500Y-11245493D01*
X8648500Y-11208344D01*
X8668502Y-11140223D01*
X8685405Y-11119249D01*
X8794654Y-11010000D01*
X9003355Y-10801299D01*
X9075682Y-10693054D01*
X9125503Y-10572777D01*
X9150901Y-10445093D01*
X9150901Y-10379192D01*
X9168448Y-10315053D01*
X9249143Y-10178605D01*
X9249143Y-10178603D01*
X9249145Y-10178601D01*
X9295562Y-10018831D01*
X9298499Y-9981511D01*
X9298500Y-9981511D01*
X9298500Y-8823489D01*
X9298499Y-8823488D01*
X9295562Y-8786171D01*
X9295562Y-8786170D01*
X9279277Y-8730116D01*
X9249145Y-8626399D01*
X9249143Y-8626397D01*
X9249143Y-8626394D01*
X9164455Y-8483196D01*
X9164450Y-8483189D01*
X9046810Y-8365549D01*
X9046803Y-8365544D01*
X8903605Y-8280856D01*
X8743829Y-8234437D01*
X8706511Y-8231500D01*
X8706502Y-8231500D01*
X8326127Y-8231500D01*
X8258006Y-8211498D01*
X8211513Y-8157842D01*
X8201409Y-8087568D01*
X8217674Y-8041360D01*
X8226675Y-8026140D01*
X8299145Y-7903601D01*
X8345562Y-7743831D01*
X8348499Y-7706511D01*
X8348500Y-7706511D01*
X8348500Y-6548489D01*
X8348499Y-6548488D01*
X8347720Y-6538594D01*
X8345562Y-6511169D01*
X8331182Y-6461672D01*
X8694000Y-6461672D01*
X8839401Y-6419429D01*
X8980318Y-6336091D01*
X8980325Y-6336085D01*
X9096085Y-6220325D01*
X9096091Y-6220318D01*
X9179429Y-6079400D01*
X9225109Y-5922173D01*
X9226539Y-5904000D01*
X8694000Y-5904000D01*
X8694000Y-6461672D01*
X8331182Y-6461672D01*
X8299145Y-6351399D01*
X8299143Y-6351397D01*
X8299143Y-6351394D01*
X8217080Y-6212634D01*
X8199620Y-6143818D01*
X8217082Y-6084352D01*
X8218337Y-6082228D01*
X8219894Y-6079597D01*
X8265606Y-5922254D01*
X8268499Y-5885493D01*
X8268500Y-5885493D01*
X8268500Y-5776000D01*
X8288502Y-5707879D01*
X8342158Y-5661386D01*
X8394500Y-5650000D01*
X8440000Y-5650000D01*
X8440000Y-5522000D01*
X8460002Y-5453879D01*
X8513658Y-5407386D01*
X8566000Y-5396000D01*
X9226539Y-5396000D01*
X9226539Y-5395999D01*
X9225109Y-5377826D01*
X9203095Y-5302053D01*
X9203298Y-5231056D01*
X9241852Y-5171440D01*
X9306517Y-5142132D01*
X9324092Y-5140900D01*
X16964700Y-5140900D01*
X17032821Y-5160902D01*
X17079314Y-5214558D01*
X17090700Y-5266900D01*
X17090700Y-8383631D01*
X17090699Y-8383631D01*
X17128815Y-8525880D01*
X17128818Y-8525887D01*
X17146415Y-8556363D01*
X17146416Y-8556367D01*
X17146417Y-8556367D01*
X17202446Y-8653414D01*
X17202454Y-8653424D01*
X19096573Y-10547544D01*
X19096578Y-10547548D01*
X19096581Y-10547551D01*
X19096583Y-10547552D01*
X19141523Y-10573498D01*
X19141524Y-10573498D01*
X19141527Y-10573500D01*
X19224118Y-10621184D01*
X19366367Y-10659300D01*
X20174881Y-10659300D01*
X20243002Y-10679302D01*
X20289495Y-10732958D01*
X20299599Y-10803232D01*
X20270105Y-10867812D01*
X20263977Y-10874395D01*
X19944782Y-11193591D01*
X19944781Y-11193591D01*
X19840654Y-11297717D01*
X19840646Y-11297727D01*
X19767016Y-11425259D01*
X19728900Y-11567510D01*
X19728900Y-13873741D01*
X19708898Y-13941862D01*
X19655242Y-13988355D01*
X19584968Y-13998459D01*
X19520388Y-13968965D01*
X19513805Y-13962836D01*
X17746205Y-12195236D01*
X17712179Y-12132924D01*
X17709300Y-12106141D01*
X17709300Y-9901368D01*
X17709300Y-9901367D01*
X17671184Y-9759118D01*
X17626205Y-9681212D01*
X17597551Y-9631581D01*
X17597546Y-9631576D01*
X17597544Y-9631573D01*
X15578314Y-7612344D01*
X15544289Y-7550032D01*
X15543831Y-7498669D01*
X15551500Y-7460116D01*
X15551500Y-7259884D01*
X15512436Y-7063498D01*
X15435810Y-6878507D01*
X15324567Y-6712019D01*
X15324565Y-6712017D01*
X15324560Y-6712011D01*
X15182988Y-6570439D01*
X15182982Y-6570434D01*
X15169999Y-6561759D01*
X15016493Y-6459190D01*
X14886795Y-6405467D01*
X14831505Y-6382565D01*
X14831502Y-6382564D01*
X14635119Y-6343500D01*
X14635116Y-6343500D01*
X14434884Y-6343500D01*
X14434880Y-6343500D01*
X14238497Y-6382564D01*
X14238494Y-6382565D01*
X14053508Y-6459189D01*
X13970001Y-6514986D01*
X13902248Y-6536200D01*
X13833781Y-6517416D01*
X13829999Y-6514986D01*
X13772073Y-6476282D01*
X13746493Y-6459190D01*
X13688468Y-6435155D01*
X13561505Y-6382565D01*
X13561502Y-6382564D01*
X13365119Y-6343500D01*
X13365116Y-6343500D01*
X13164884Y-6343500D01*
X13164880Y-6343500D01*
X12968497Y-6382564D01*
X12968494Y-6382565D01*
X12783507Y-6459190D01*
X12617017Y-6570434D01*
X12617011Y-6570439D01*
X12475439Y-6712011D01*
X12475434Y-6712017D01*
X12364190Y-6878507D01*
X12287565Y-7063494D01*
X12287564Y-7063497D01*
X12248500Y-7259880D01*
X12248500Y-7460119D01*
X12277233Y-7604565D01*
X12287564Y-7656502D01*
X12364190Y-7841493D01*
X12384962Y-7872581D01*
X12420286Y-7925448D01*
X12441500Y-7993201D01*
X12422716Y-8061668D01*
X12420286Y-8065449D01*
X12364633Y-8148741D01*
X12364632Y-8148743D01*
X12288046Y-8333638D01*
X12288044Y-8333643D01*
X12249000Y-8529930D01*
X12249000Y-8730069D01*
X12288044Y-8926356D01*
X12288046Y-8926361D01*
X12364634Y-9111260D01*
X12388623Y-9147163D01*
X12947500Y-8588288D01*
X12947500Y-8671800D01*
X12969137Y-8752551D01*
X13010937Y-8824950D01*
X13070050Y-8884063D01*
X13142449Y-8925863D01*
X13223200Y-8947500D01*
X13306800Y-8947500D01*
X13387551Y-8925863D01*
X13459950Y-8884063D01*
X13519063Y-8824950D01*
X13532674Y-8801375D01*
X13557564Y-8926502D01*
X13557565Y-8926505D01*
X13566370Y-8947762D01*
X13573959Y-9018352D01*
X13542180Y-9081839D01*
X13481121Y-9118066D01*
X13410170Y-9115532D01*
X13360866Y-9085075D01*
X13265001Y-8989210D01*
X13264999Y-8989210D01*
X12989210Y-9264999D01*
X13264999Y-9540788D01*
X13360865Y-9444923D01*
X13423177Y-9410898D01*
X13493993Y-9415962D01*
X13550829Y-9458509D01*
X13575640Y-9525029D01*
X13566371Y-9582233D01*
X13557566Y-9603490D01*
X13557564Y-9603497D01*
X13532673Y-9728624D01*
X13519063Y-9705050D01*
X13459950Y-9645937D01*
X13387551Y-9604137D01*
X13306800Y-9582500D01*
X13223200Y-9582500D01*
X13142449Y-9604137D01*
X13070050Y-9645937D01*
X13010937Y-9705050D01*
X12969137Y-9777449D01*
X12947500Y-9858200D01*
X12947500Y-9941710D01*
X12388623Y-9382834D01*
X12364633Y-9418742D01*
X12288046Y-9603638D01*
X12288044Y-9603643D01*
X12249000Y-9799930D01*
X12249000Y-10000069D01*
X12288044Y-10196356D01*
X12288046Y-10196361D01*
X12364632Y-10381256D01*
X12420285Y-10464547D01*
X12441500Y-10532300D01*
X12422717Y-10600767D01*
X12420286Y-10604549D01*
X12364191Y-10688503D01*
X12287565Y-10873494D01*
X12287564Y-10873497D01*
X12248500Y-11069880D01*
X12248500Y-11270119D01*
X12287564Y-11466502D01*
X12287565Y-11466505D01*
X12364189Y-11651491D01*
X12420286Y-11735448D01*
X12441500Y-11803201D01*
X12422716Y-11871668D01*
X12420286Y-11875449D01*
X12364633Y-11958741D01*
X12364632Y-11958743D01*
X12288046Y-12143638D01*
X12288044Y-12143643D01*
X12249000Y-12339930D01*
X12249000Y-12540069D01*
X12288044Y-12736356D01*
X12288046Y-12736361D01*
X12364632Y-12921256D01*
X12388624Y-12957163D01*
X12947500Y-12398288D01*
X12947500Y-12481800D01*
X12969137Y-12562551D01*
X13010937Y-12634950D01*
X13070050Y-12694063D01*
X13142449Y-12735863D01*
X13223200Y-12757500D01*
X13306708Y-12757500D01*
X12747834Y-13316373D01*
X12747835Y-13316374D01*
X12783740Y-13340366D01*
X12968638Y-13416953D01*
X12968643Y-13416955D01*
X13164930Y-13455999D01*
X13164934Y-13456000D01*
X13365066Y-13456000D01*
X13365069Y-13455999D01*
X13561356Y-13416955D01*
X13561361Y-13416953D01*
X13746253Y-13340369D01*
X13829547Y-13284713D01*
X13897300Y-13263498D01*
X13965767Y-13282281D01*
X13969535Y-13284702D01*
X14053507Y-13340810D01*
X14238498Y-13417436D01*
X14434884Y-13456500D01*
X14635116Y-13456500D01*
X14831502Y-13417436D01*
X15016493Y-13340810D01*
X15182981Y-13229567D01*
X15324567Y-13087981D01*
X15435810Y-12921493D01*
X15512436Y-12736502D01*
X15549917Y-12548073D01*
X15582825Y-12485165D01*
X15644520Y-12450033D01*
X15715415Y-12453833D01*
X15762591Y-12483561D01*
X21469366Y-18190336D01*
X21503392Y-18252648D01*
X21498327Y-18323463D01*
X21455780Y-18380299D01*
X21404856Y-18403009D01*
X21378058Y-18408340D01*
X21378055Y-18408340D01*
X21378054Y-18408341D01*
X21378052Y-18408341D01*
X21378048Y-18408343D01*
X21239578Y-18465699D01*
X21114952Y-18548971D01*
X21114946Y-18548976D01*
X21008976Y-18654946D01*
X21008971Y-18654952D01*
X20925699Y-18779578D01*
X20868343Y-18918048D01*
X20868341Y-18918053D01*
X20839098Y-19065063D01*
X20838616Y-19069965D01*
X20812034Y-19135797D01*
X20802319Y-19146710D01*
X20346582Y-19602449D01*
X20346581Y-19602449D01*
X20242454Y-19706575D01*
X20242446Y-19706585D01*
X20168816Y-19834117D01*
X20166433Y-19843011D01*
X20144272Y-19925712D01*
X20107322Y-19986334D01*
X20043462Y-20017355D01*
X20022567Y-20019100D01*
X19915055Y-20019100D01*
X19768053Y-20048341D01*
X19768048Y-20048343D01*
X19629582Y-20105697D01*
X19629577Y-20105700D01*
X19579042Y-20139466D01*
X19511289Y-20160680D01*
X19509042Y-20160700D01*
X19209451Y-20160700D01*
X19141330Y-20140698D01*
X19107906Y-20104799D01*
X19106290Y-20106010D01*
X19013261Y-19981738D01*
X18896207Y-19894112D01*
X18896202Y-19894110D01*
X18759204Y-19843011D01*
X18759196Y-19843009D01*
X18698649Y-19836500D01*
X18698638Y-19836500D01*
X17601362Y-19836500D01*
X17601350Y-19836500D01*
X17540803Y-19843009D01*
X17540795Y-19843011D01*
X17403797Y-19894110D01*
X17403792Y-19894112D01*
X17286738Y-19981738D01*
X17193710Y-20106010D01*
X17191710Y-20104513D01*
X17150931Y-20145289D01*
X17090549Y-20160700D01*
X13209451Y-20160700D01*
X13141330Y-20140698D01*
X13107906Y-20104799D01*
X13106290Y-20106010D01*
X13013261Y-19981738D01*
X12896207Y-19894112D01*
X12896202Y-19894110D01*
X12759204Y-19843011D01*
X12759196Y-19843009D01*
X12698649Y-19836500D01*
X12698638Y-19836500D01*
X11601362Y-19836500D01*
X11601350Y-19836500D01*
X11540803Y-19843009D01*
X11540795Y-19843011D01*
X11403797Y-19894110D01*
X11403792Y-19894112D01*
X11286738Y-19981738D01*
X11199112Y-20098792D01*
X11199110Y-20098797D01*
X11148011Y-20235795D01*
X11148009Y-20235803D01*
X11141500Y-20296350D01*
X11141500Y-21143649D01*
X11148009Y-21204196D01*
X11148011Y-21204204D01*
X11199110Y-21341202D01*
X11199112Y-21341207D01*
X11286738Y-21458261D01*
X11403792Y-21545887D01*
X11403794Y-21545888D01*
X11403796Y-21545889D01*
X11444047Y-21560902D01*
X11540795Y-21596988D01*
X11540803Y-21596990D01*
X11601350Y-21603499D01*
X11601355Y-21603499D01*
X11601362Y-21603500D01*
X11601368Y-21603500D01*
X12698632Y-21603500D01*
X12698638Y-21603500D01*
X12698645Y-21603499D01*
X12698649Y-21603499D01*
X12759196Y-21596990D01*
X12759199Y-21596989D01*
X12759201Y-21596989D01*
X12896204Y-21545889D01*
X12956972Y-21500399D01*
X13013261Y-21458261D01*
X13106290Y-21333990D01*
X13108289Y-21335486D01*
X13149069Y-21294711D01*
X13209451Y-21279300D01*
X17090549Y-21279300D01*
X17158670Y-21299302D01*
X17192093Y-21335200D01*
X17193710Y-21333990D01*
X17286738Y-21458261D01*
X17403792Y-21545887D01*
X17403794Y-21545888D01*
X17403796Y-21545889D01*
X17444047Y-21560902D01*
X17540795Y-21596988D01*
X17540803Y-21596990D01*
X17601350Y-21603499D01*
X17601355Y-21603499D01*
X17601362Y-21603500D01*
X17601368Y-21603500D01*
X18698632Y-21603500D01*
X18698638Y-21603500D01*
X18698645Y-21603499D01*
X18698649Y-21603499D01*
X18759196Y-21596990D01*
X18759199Y-21596989D01*
X18759201Y-21596989D01*
X18896204Y-21545889D01*
X18956972Y-21500399D01*
X19013261Y-21458261D01*
X19106290Y-21333990D01*
X19108289Y-21335486D01*
X19108542Y-21335233D01*
X19114227Y-21322788D01*
X19133155Y-21310623D01*
X19149069Y-21294711D01*
X19163742Y-21290965D01*
X19173953Y-21284404D01*
X19209451Y-21279300D01*
X19361034Y-21279300D01*
X19429155Y-21299302D01*
X19450124Y-21316200D01*
X19504954Y-21371030D01*
X19629579Y-21454301D01*
X19768054Y-21511659D01*
X19915058Y-21540900D01*
X19915059Y-21540900D01*
X20004700Y-21540900D01*
X20072821Y-21560902D01*
X20119314Y-21614558D01*
X20130700Y-21666900D01*
X20130700Y-25759213D01*
X20110698Y-25827334D01*
X20057042Y-25873827D01*
X19986768Y-25883931D01*
X19940561Y-25867667D01*
X19842597Y-25809731D01*
X19686464Y-25764370D01*
X19649998Y-25761500D01*
X19150012Y-25761500D01*
X19113535Y-25764370D01*
X18957399Y-25809732D01*
X18817460Y-25892492D01*
X18817453Y-25892498D01*
X18702498Y-26007453D01*
X18702492Y-26007460D01*
X18619732Y-26147399D01*
X18574370Y-26303534D01*
X18574370Y-26303535D01*
X18571500Y-26340001D01*
X18571500Y-26739987D01*
X18574370Y-26776464D01*
X18619732Y-26932599D01*
X18651231Y-26985862D01*
X18668690Y-27054679D01*
X18651231Y-27114138D01*
X18619732Y-27167400D01*
X18574370Y-27323534D01*
X18574370Y-27323535D01*
X18571500Y-27360001D01*
X18571500Y-27759987D01*
X18574370Y-27796464D01*
X18619732Y-27952600D01*
X18702492Y-28092539D01*
X18702498Y-28092546D01*
X18803795Y-28193843D01*
X18837821Y-28256155D01*
X18840700Y-28282938D01*
X18840700Y-36381033D01*
X18820698Y-36449154D01*
X18803795Y-36470128D01*
X18758976Y-36514946D01*
X18758971Y-36514952D01*
X18675699Y-36639578D01*
X18618343Y-36778048D01*
X18618341Y-36778053D01*
X18589100Y-36925055D01*
X18589100Y-37074944D01*
X18606673Y-37163286D01*
X18618341Y-37221946D01*
X18675699Y-37360421D01*
X18696766Y-37391951D01*
X18758971Y-37485047D01*
X18758976Y-37485053D01*
X18864946Y-37591023D01*
X18864952Y-37591028D01*
X18864954Y-37591030D01*
X18989579Y-37674301D01*
X19128054Y-37731659D01*
X19275058Y-37760900D01*
X19275059Y-37760900D01*
X19424941Y-37760900D01*
X19424942Y-37760900D01*
X19571946Y-37731659D01*
X19710421Y-37674301D01*
X19835046Y-37591030D01*
X19941030Y-37485046D01*
X20024301Y-37360421D01*
X20081659Y-37221946D01*
X20110900Y-37074942D01*
X20110900Y-36925058D01*
X20096786Y-36854104D01*
X20103113Y-36783394D01*
X20146667Y-36727326D01*
X20213619Y-36703706D01*
X20282713Y-36720032D01*
X20309460Y-36740429D01*
X20732319Y-37163288D01*
X20766343Y-37225599D01*
X20768617Y-37240035D01*
X20769100Y-37244945D01*
X20798341Y-37391946D01*
X20798343Y-37391951D01*
X20855699Y-37530421D01*
X20938971Y-37655047D01*
X20938976Y-37655053D01*
X21044946Y-37761023D01*
X21044952Y-37761028D01*
X21044954Y-37761030D01*
X21169579Y-37844301D01*
X21308054Y-37901659D01*
X21455058Y-37930900D01*
X21455059Y-37930900D01*
X21604941Y-37930900D01*
X21604942Y-37930900D01*
X21751946Y-37901659D01*
X21890421Y-37844301D01*
X22015046Y-37761030D01*
X22121030Y-37655046D01*
X22204301Y-37530421D01*
X22261659Y-37391946D01*
X22290900Y-37244942D01*
X22290900Y-37095058D01*
X22261659Y-36948054D01*
X22204301Y-36809579D01*
X22121030Y-36684954D01*
X22121028Y-36684952D01*
X22121023Y-36684946D01*
X22015053Y-36578976D01*
X22015047Y-36578971D01*
X21890421Y-36495699D01*
X21751951Y-36438343D01*
X21751946Y-36438341D01*
X21604935Y-36409098D01*
X21600035Y-36408616D01*
X21534202Y-36382035D01*
X21523288Y-36372318D01*
X21286205Y-36135235D01*
X21252179Y-36072923D01*
X21249300Y-36046140D01*
X21249300Y-28292938D01*
X21269302Y-28224817D01*
X21286205Y-28203843D01*
X21387501Y-28102546D01*
X21387506Y-28102541D01*
X21470269Y-27962596D01*
X21515629Y-27806466D01*
X21518500Y-27769989D01*
X21518499Y-27370012D01*
X21515629Y-27333534D01*
X21515626Y-27333526D01*
X21514473Y-27327205D01*
X21516635Y-27326810D01*
X21516806Y-27265904D01*
X21548505Y-27212648D01*
X22447551Y-26313604D01*
X22521185Y-26186067D01*
X22559300Y-26043819D01*
X22559300Y-26043818D01*
X22560487Y-26039389D01*
X22597439Y-25978766D01*
X22661300Y-25947745D01*
X22682194Y-25946000D01*
X22776559Y-25946000D01*
X22776566Y-25946000D01*
X22893087Y-25930660D01*
X22926782Y-25916703D01*
X22997372Y-25909114D01*
X23023219Y-25916703D01*
X23056913Y-25930660D01*
X23173434Y-25946000D01*
X23173441Y-25946000D01*
X23426559Y-25946000D01*
X23426566Y-25946000D01*
X23543087Y-25930660D01*
X23543090Y-25930658D01*
X23551063Y-25928523D01*
X23551867Y-25931525D01*
X23607755Y-25925497D01*
X23671253Y-25957254D01*
X23707501Y-26018300D01*
X23711246Y-26056230D01*
X23710471Y-26070723D01*
X23701894Y-26100246D01*
X23699000Y-26137016D01*
X23699000Y-26285279D01*
X23698820Y-26288646D01*
X23688089Y-26319075D01*
X23678998Y-26350040D01*
X23675750Y-26354069D01*
X23675210Y-26355602D01*
X23673352Y-26357045D01*
X23662095Y-26371014D01*
X23604629Y-26428479D01*
X23604621Y-26428489D01*
X23527647Y-26561813D01*
X23515422Y-26607438D01*
X23491451Y-26696900D01*
X23487800Y-26710524D01*
X23487800Y-26861249D01*
X23467798Y-26929370D01*
X23450895Y-26950344D01*
X23398049Y-27003189D01*
X23398044Y-27003196D01*
X23313356Y-27146394D01*
X23266937Y-27306170D01*
X23266937Y-27306171D01*
X23264000Y-27343488D01*
X23264000Y-28501511D01*
X23266937Y-28538828D01*
X23266937Y-28538829D01*
X23313356Y-28698605D01*
X23398044Y-28841803D01*
X23398049Y-28841810D01*
X23515693Y-28959454D01*
X23516969Y-28960444D01*
X23517712Y-28961473D01*
X23521298Y-28965059D01*
X23520719Y-28965637D01*
X23558534Y-29018002D01*
X23562381Y-29088894D01*
X23527291Y-29150613D01*
X23516969Y-29159556D01*
X23515693Y-29160545D01*
X23398049Y-29278189D01*
X23398044Y-29278196D01*
X23313356Y-29421394D01*
X23266937Y-29581170D01*
X23266937Y-29581171D01*
X23264000Y-29618488D01*
X23264000Y-30776511D01*
X23266937Y-30813828D01*
X23266937Y-30813829D01*
X23313355Y-30973602D01*
X23313356Y-30973603D01*
X23320926Y-30986403D01*
X23338387Y-31055218D01*
X23315872Y-31122550D01*
X23260695Y-31166952D01*
X23239578Y-31175699D01*
X23114952Y-31258971D01*
X23114946Y-31258976D01*
X23008976Y-31364946D01*
X23008971Y-31364952D01*
X22925699Y-31489578D01*
X22868343Y-31628048D01*
X22868341Y-31628053D01*
X22839100Y-31775055D01*
X22839100Y-31924944D01*
X22853272Y-31996189D01*
X22868341Y-32071946D01*
X22925699Y-32210421D01*
X22990389Y-32307238D01*
X23008971Y-32335047D01*
X23008976Y-32335053D01*
X23114946Y-32441023D01*
X23114952Y-32441028D01*
X23114954Y-32441030D01*
X23239579Y-32524301D01*
X23378054Y-32581659D01*
X23525058Y-32610900D01*
X23525059Y-32610900D01*
X23674939Y-32610900D01*
X23674942Y-32610900D01*
X23674944Y-32610899D01*
X23681100Y-32610293D01*
X23681246Y-32611782D01*
X23744546Y-32617437D01*
X23748475Y-32619059D01*
X23750396Y-32619890D01*
X23750403Y-32619894D01*
X23907746Y-32665606D01*
X23944506Y-32668499D01*
X23944507Y-32668500D01*
X23944516Y-32668500D01*
X24355493Y-32668500D01*
X24355493Y-32668499D01*
X24392254Y-32665606D01*
X24549597Y-32619894D01*
X24566349Y-32609986D01*
X24635164Y-32592525D01*
X24694632Y-32609986D01*
X24710599Y-32619429D01*
X24856000Y-32661672D01*
X24856000Y-32371378D01*
X24873547Y-32307238D01*
X24889894Y-32279597D01*
X24935606Y-32122254D01*
X24938499Y-32085493D01*
X24938500Y-32085493D01*
X24938500Y-31614507D01*
X24938499Y-31614506D01*
X24935606Y-31577748D01*
X24935606Y-31577747D01*
X24909991Y-31489579D01*
X24889894Y-31420403D01*
X24806488Y-31279371D01*
X24806486Y-31279369D01*
X24806483Y-31279365D01*
X24805405Y-31278287D01*
X24804829Y-31277232D01*
X24801627Y-31273104D01*
X24802292Y-31272587D01*
X24790460Y-31250918D01*
X24773604Y-31224690D01*
X24772698Y-31218391D01*
X24771379Y-31215975D01*
X24768500Y-31189192D01*
X24768500Y-31114842D01*
X24786047Y-31050702D01*
X24824074Y-30986402D01*
X24831645Y-30973601D01*
X24878062Y-30813831D01*
X24880999Y-30776511D01*
X24881000Y-30776511D01*
X24881000Y-29618489D01*
X24880999Y-29618488D01*
X24878062Y-29581171D01*
X24878062Y-29581170D01*
X24878062Y-29581169D01*
X24831645Y-29421399D01*
X24831642Y-29421394D01*
X24786046Y-29344293D01*
X24768500Y-29280155D01*
X24768500Y-29030007D01*
X24764817Y-29027242D01*
X24722351Y-28970346D01*
X24717387Y-28899523D01*
X24744515Y-28849947D01*
X24742095Y-28848070D01*
X24746950Y-28841810D01*
X24746953Y-28841807D01*
X24816737Y-28723809D01*
X24831643Y-28698605D01*
X24831643Y-28698603D01*
X24831645Y-28698601D01*
X24878062Y-28538831D01*
X24880999Y-28501511D01*
X24881000Y-28501511D01*
X24881000Y-27343489D01*
X24880999Y-27343488D01*
X24879717Y-27327205D01*
X24878062Y-27306169D01*
X24873736Y-27291278D01*
X24873766Y-27280726D01*
X24869617Y-27271024D01*
X24873865Y-27245832D01*
X24873939Y-27220284D01*
X24879669Y-27211422D01*
X24881425Y-27201016D01*
X24898619Y-27182119D01*
X24912493Y-27160667D01*
X24922104Y-27156310D01*
X24929207Y-27148505D01*
X24953889Y-27141904D01*
X24977157Y-27131359D01*
X24989419Y-27132403D01*
X24997794Y-27130164D01*
X25019730Y-27134985D01*
X25033158Y-27136129D01*
X25083965Y-27152398D01*
X25111986Y-27171383D01*
X25140529Y-27189612D01*
X25141271Y-27191225D01*
X25142741Y-27192221D01*
X25156051Y-27223347D01*
X25170206Y-27254109D01*
X25170067Y-27256123D01*
X25170656Y-27257499D01*
X25169505Y-27264321D01*
X25167081Y-27299648D01*
X25168095Y-27299834D01*
X25166937Y-27306171D01*
X25164000Y-27343488D01*
X25164000Y-28501511D01*
X25166937Y-28538828D01*
X25166937Y-28538829D01*
X25213356Y-28698605D01*
X25298044Y-28841803D01*
X25302905Y-28848070D01*
X25300484Y-28849947D01*
X25327651Y-28899698D01*
X25322586Y-28970513D01*
X25280183Y-29027241D01*
X25276500Y-29030006D01*
X25276500Y-29280155D01*
X25258954Y-29344293D01*
X25213356Y-29421395D01*
X25166937Y-29581170D01*
X25166937Y-29581171D01*
X25164000Y-29618488D01*
X25164000Y-30776511D01*
X25166937Y-30813828D01*
X25166937Y-30813829D01*
X25213356Y-30973603D01*
X25229165Y-31000334D01*
X25261623Y-31055218D01*
X25271553Y-31072007D01*
X25289100Y-31136147D01*
X25289100Y-31224944D01*
X25318341Y-31371946D01*
X25318343Y-31371951D01*
X25354409Y-31459022D01*
X25364000Y-31507240D01*
X25364000Y-32661672D01*
X25509401Y-32619429D01*
X25650318Y-32536091D01*
X25650325Y-32536085D01*
X25766085Y-32420325D01*
X25766091Y-32420318D01*
X25849429Y-32279401D01*
X25895107Y-32122177D01*
X25895109Y-32122168D01*
X25897999Y-32085449D01*
X25898000Y-32085447D01*
X25898000Y-32036900D01*
X25918002Y-31968779D01*
X25971658Y-31922286D01*
X26024000Y-31910900D01*
X26124941Y-31910900D01*
X26124942Y-31910900D01*
X26271946Y-31881659D01*
X26276480Y-31879781D01*
X26347069Y-31872191D01*
X26410557Y-31903969D01*
X26446785Y-31965026D01*
X26450700Y-31996189D01*
X26450700Y-33556141D01*
X26430698Y-33624262D01*
X26413795Y-33645236D01*
X25346712Y-34712318D01*
X25284400Y-34746344D01*
X25269965Y-34748616D01*
X25265064Y-34749098D01*
X25118053Y-34778341D01*
X25118048Y-34778343D01*
X24979578Y-34835699D01*
X24854952Y-34918971D01*
X24854946Y-34918976D01*
X24748976Y-35024946D01*
X24748971Y-35024952D01*
X24665699Y-35149578D01*
X24608343Y-35288048D01*
X24608341Y-35288053D01*
X24579100Y-35435055D01*
X24579100Y-35584944D01*
X24598092Y-35680421D01*
X24608341Y-35731946D01*
X24665699Y-35870421D01*
X24748472Y-35994301D01*
X24748971Y-35995047D01*
X24748976Y-35995053D01*
X24854946Y-36101023D01*
X24854952Y-36101028D01*
X24854954Y-36101030D01*
X24979579Y-36184301D01*
X25118054Y-36241659D01*
X25265058Y-36270900D01*
X25265059Y-36270900D01*
X25414941Y-36270900D01*
X25414942Y-36270900D01*
X25561946Y-36241659D01*
X25700421Y-36184301D01*
X25825046Y-36101030D01*
X25931030Y-35995046D01*
X26014301Y-35870421D01*
X26071659Y-35731946D01*
X26100900Y-35584942D01*
X26100900Y-35584929D01*
X26101381Y-35580046D01*
X26127956Y-35514211D01*
X26137664Y-35503304D01*
X27457551Y-34183418D01*
X27531185Y-34055881D01*
X27569300Y-33913633D01*
X27569300Y-33766367D01*
X27569300Y-26696900D01*
X27589302Y-26628779D01*
X27642958Y-26582286D01*
X27695300Y-26570900D01*
X27754941Y-26570900D01*
X27754942Y-26570900D01*
X27901946Y-26541659D01*
X28040421Y-26484301D01*
X28165046Y-26401030D01*
X28271030Y-26295046D01*
X28354301Y-26170421D01*
X28400322Y-26059313D01*
X28444870Y-26004034D01*
X28500284Y-25982611D01*
X28553087Y-25975660D01*
X28698072Y-25915605D01*
X28822572Y-25820072D01*
X28822574Y-25820069D01*
X28828912Y-25815206D01*
X28895132Y-25789605D01*
X28964681Y-25803869D01*
X28969715Y-25806691D01*
X29110403Y-25889894D01*
X29267746Y-25935606D01*
X29304506Y-25938499D01*
X29304507Y-25938500D01*
X29304516Y-25938500D01*
X29715493Y-25938500D01*
X29715493Y-25938499D01*
X29752254Y-25935606D01*
X29909597Y-25889894D01*
X29926349Y-25879986D01*
X29995164Y-25862525D01*
X30054632Y-25879986D01*
X30070599Y-25889429D01*
X30216000Y-25931672D01*
X30724000Y-25931672D01*
X30869401Y-25889429D01*
X31010318Y-25806091D01*
X31010325Y-25806085D01*
X31126085Y-25690325D01*
X31126091Y-25690318D01*
X31209429Y-25549400D01*
X31255109Y-25392173D01*
X31256539Y-25374000D01*
X30724000Y-25374000D01*
X30724000Y-25931672D01*
X30216000Y-25931672D01*
X30216000Y-25641378D01*
X30233547Y-25577238D01*
X30239068Y-25567902D01*
X30249894Y-25549597D01*
X30295606Y-25392254D01*
X30298499Y-25355493D01*
X30298500Y-25355493D01*
X30298500Y-24884507D01*
X30298499Y-24884506D01*
X30297042Y-24866000D01*
X30724000Y-24866000D01*
X31256539Y-24866000D01*
X31256539Y-24865999D01*
X31255109Y-24847826D01*
X31209429Y-24690599D01*
X31126091Y-24549681D01*
X31126085Y-24549674D01*
X31010325Y-24433914D01*
X31010318Y-24433908D01*
X30869400Y-24350570D01*
X30869402Y-24350570D01*
X30724000Y-24308326D01*
X30724000Y-24866000D01*
X30297042Y-24866000D01*
X30297042Y-24865999D01*
X30295606Y-24847746D01*
X30249894Y-24690403D01*
X30249892Y-24690399D01*
X30233546Y-24662758D01*
X30216000Y-24598620D01*
X30216000Y-24308326D01*
X30070601Y-24350569D01*
X30054626Y-24360017D01*
X30047999Y-24361697D01*
X30042833Y-24366175D01*
X30014019Y-24370317D01*
X29985809Y-24377474D01*
X29979326Y-24375305D01*
X29972559Y-24376279D01*
X29926354Y-24360016D01*
X29909597Y-24350106D01*
X29752252Y-24304393D01*
X29715493Y-24301500D01*
X29715484Y-24301500D01*
X29304516Y-24301500D01*
X29304507Y-24301500D01*
X29267748Y-24304393D01*
X29267747Y-24304393D01*
X29110396Y-24350108D01*
X29103122Y-24353256D01*
X29102651Y-24352169D01*
X29098630Y-24355324D01*
X29072564Y-24357780D01*
X29047188Y-24364202D01*
X29037803Y-24361056D01*
X29027946Y-24361986D01*
X29004688Y-24349959D01*
X28979871Y-24341643D01*
X28971995Y-24333054D01*
X28964882Y-24329376D01*
X28953860Y-24313276D01*
X28942748Y-24301158D01*
X28938667Y-24294070D01*
X28918105Y-24244428D01*
X28886000Y-24202589D01*
X28881842Y-24195366D01*
X28875391Y-24168633D01*
X28865475Y-24142985D01*
X28867187Y-24134635D01*
X28865188Y-24126350D01*
X28874214Y-24100373D01*
X28879739Y-24073436D01*
X28888089Y-24060443D01*
X28888491Y-24059287D01*
X28889179Y-24058746D01*
X28891078Y-24055793D01*
X28893960Y-24052038D01*
X28912022Y-24028500D01*
X28918104Y-24020574D01*
X28920893Y-24015743D01*
X28972274Y-23966747D01*
X29041987Y-23953308D01*
X29094155Y-23970285D01*
X29110403Y-23979894D01*
X29267746Y-24025606D01*
X29304506Y-24028499D01*
X29304507Y-24028500D01*
X29304516Y-24028500D01*
X29715493Y-24028500D01*
X29715493Y-24028499D01*
X29752254Y-24025606D01*
X29909597Y-23979894D01*
X29926349Y-23969986D01*
X29932978Y-23968304D01*
X29938149Y-23963824D01*
X29966961Y-23959681D01*
X29995164Y-23952525D01*
X30002254Y-23954606D01*
X30008423Y-23953720D01*
X30024967Y-23961275D01*
X30054632Y-23969986D01*
X30070599Y-23979429D01*
X30216000Y-24021672D01*
X30724000Y-24021672D01*
X30869401Y-23979429D01*
X31010318Y-23896091D01*
X31010325Y-23896085D01*
X31126085Y-23780325D01*
X31126091Y-23780318D01*
X31209429Y-23639400D01*
X31255109Y-23482173D01*
X31256539Y-23464000D01*
X30724000Y-23464000D01*
X30724000Y-24021672D01*
X30216000Y-24021672D01*
X30216000Y-23731378D01*
X30233547Y-23667238D01*
X30237813Y-23660025D01*
X30249894Y-23639597D01*
X30295606Y-23482254D01*
X30298499Y-23445493D01*
X30298500Y-23445493D01*
X30298500Y-23114000D01*
X32088327Y-23114000D01*
X32130570Y-23259401D01*
X32213908Y-23400318D01*
X32213914Y-23400325D01*
X32329674Y-23516085D01*
X32329681Y-23516091D01*
X32470599Y-23599429D01*
X32627829Y-23645109D01*
X32627824Y-23645109D01*
X32645999Y-23646539D01*
X32646000Y-23646539D01*
X32646000Y-23114000D01*
X32088327Y-23114000D01*
X30298500Y-23114000D01*
X30298500Y-22974507D01*
X30298499Y-22974506D01*
X30297042Y-22956000D01*
X30724000Y-22956000D01*
X31256539Y-22956000D01*
X31256539Y-22955999D01*
X31255109Y-22937826D01*
X31209429Y-22780599D01*
X31126091Y-22639681D01*
X31126085Y-22639674D01*
X31010325Y-22523914D01*
X31010318Y-22523908D01*
X30869400Y-22440570D01*
X30869402Y-22440570D01*
X30724000Y-22398326D01*
X30724000Y-22956000D01*
X30297042Y-22956000D01*
X30297042Y-22955999D01*
X30295606Y-22937746D01*
X30249894Y-22780403D01*
X30247647Y-22776603D01*
X30233546Y-22752758D01*
X30216000Y-22688620D01*
X30216000Y-22398326D01*
X30070601Y-22440569D01*
X30054626Y-22450017D01*
X29985809Y-22467474D01*
X29926354Y-22450016D01*
X29909597Y-22440106D01*
X29752252Y-22394393D01*
X29715493Y-22391500D01*
X29715484Y-22391500D01*
X29304516Y-22391500D01*
X29304507Y-22391500D01*
X29267749Y-22394393D01*
X29188856Y-22417313D01*
X29117860Y-22417109D01*
X29058244Y-22378554D01*
X29030126Y-22320896D01*
X29029223Y-22316354D01*
X29011659Y-22228054D01*
X28954301Y-22089579D01*
X28871030Y-21964954D01*
X28871028Y-21964952D01*
X28871023Y-21964946D01*
X28765053Y-21858976D01*
X28765047Y-21858971D01*
X28753162Y-21851030D01*
X28640421Y-21775699D01*
X28501946Y-21718341D01*
X28354944Y-21689100D01*
X28354942Y-21689100D01*
X28205058Y-21689100D01*
X28205055Y-21689100D01*
X28058053Y-21718341D01*
X28058048Y-21718343D01*
X27919578Y-21775699D01*
X27794952Y-21858971D01*
X27794946Y-21858976D01*
X27688976Y-21964946D01*
X27688971Y-21964952D01*
X27605698Y-22089579D01*
X27605697Y-22089581D01*
X27591413Y-22124066D01*
X27546864Y-22179346D01*
X27479500Y-22201766D01*
X27410709Y-22184206D01*
X27385910Y-22164941D01*
X26596333Y-21375364D01*
X26585109Y-21354810D01*
X26570038Y-21336878D01*
X26568414Y-21324237D01*
X26562307Y-21313052D01*
X26563978Y-21289688D01*
X26560995Y-21266459D01*
X26566462Y-21254948D01*
X26567372Y-21242237D01*
X26581408Y-21223486D01*
X26591458Y-21202331D01*
X26606498Y-21189970D01*
X26609919Y-21185401D01*
X26618913Y-21179256D01*
X26620059Y-21178543D01*
X26672541Y-21147506D01*
X26676724Y-21143322D01*
X26688354Y-21136094D01*
X26716521Y-21128282D01*
X26743724Y-21117601D01*
X26750302Y-21118914D01*
X26756768Y-21117121D01*
X26784685Y-21125777D01*
X26813347Y-21131499D01*
X26820792Y-21136973D01*
X26824580Y-21138148D01*
X26828123Y-21142364D01*
X26843964Y-21154012D01*
X26867453Y-21177501D01*
X26867460Y-21177507D01*
X27007399Y-21260267D01*
X27007402Y-21260267D01*
X27007404Y-21260269D01*
X27163534Y-21305629D01*
X27200011Y-21308500D01*
X27599988Y-21308499D01*
X27636466Y-21305629D01*
X27792596Y-21260269D01*
X27792600Y-21260267D01*
X27812354Y-21248584D01*
X27846350Y-21228478D01*
X27915165Y-21211018D01*
X27974630Y-21228478D01*
X28027605Y-21259808D01*
X28165999Y-21300014D01*
X28166000Y-21300014D01*
X28674000Y-21300014D01*
X28812396Y-21259807D01*
X28952228Y-21177110D01*
X28952235Y-21177105D01*
X29067105Y-21062235D01*
X29067110Y-21062228D01*
X29149805Y-20922399D01*
X29195130Y-20766392D01*
X29195130Y-20766389D01*
X29197680Y-20734000D01*
X28674000Y-20734000D01*
X28674000Y-21300014D01*
X28166000Y-21300014D01*
X28166000Y-20817541D01*
X28166531Y-20805986D01*
X28167637Y-20793974D01*
X28175629Y-20766466D01*
X28178500Y-20729989D01*
X28178499Y-20230012D01*
X28178183Y-20226000D01*
X28674000Y-20226000D01*
X29197680Y-20226000D01*
X29195130Y-20193610D01*
X29195130Y-20193607D01*
X29149805Y-20037600D01*
X29067110Y-19897771D01*
X29067105Y-19897764D01*
X28952235Y-19782894D01*
X28952228Y-19782889D01*
X28812399Y-19700194D01*
X28674000Y-19659985D01*
X28674000Y-20226000D01*
X28178183Y-20226000D01*
X28175629Y-20193534D01*
X28171001Y-20177605D01*
X28166000Y-20142459D01*
X28166000Y-19597065D01*
X28167121Y-19593244D01*
X28166236Y-19589365D01*
X28168077Y-19584269D01*
X28167333Y-19579094D01*
X28178377Y-19554911D01*
X28186002Y-19528944D01*
X28189401Y-19525254D01*
X28190363Y-19522594D01*
X28195559Y-19517290D01*
X28196827Y-19514514D01*
X28215348Y-19497063D01*
X28339384Y-19401887D01*
X28430833Y-19282708D01*
X28488315Y-19143930D01*
X28502999Y-19032396D01*
X28503000Y-19032387D01*
X28503000Y-18691999D01*
X28523002Y-18623878D01*
X28576658Y-18577385D01*
X28628998Y-18565999D01*
X28969924Y-18565999D01*
X29081561Y-18551303D01*
X29202059Y-18501390D01*
X29210367Y-18499738D01*
X29214777Y-18496904D01*
X29250275Y-18491800D01*
X29403100Y-18491800D01*
X29471221Y-18511802D01*
X29517714Y-18565458D01*
X29527167Y-18608916D01*
X29528494Y-18608786D01*
X29529100Y-18614944D01*
X29553471Y-18737461D01*
X29558341Y-18761946D01*
X29615699Y-18900421D01*
X29667534Y-18977999D01*
X29698971Y-19025047D01*
X29698976Y-19025053D01*
X29804946Y-19131023D01*
X29804952Y-19131028D01*
X29804954Y-19131030D01*
X29929579Y-19214301D01*
X30068054Y-19271659D01*
X30215058Y-19300900D01*
X30215059Y-19300900D01*
X30364941Y-19300900D01*
X30364942Y-19300900D01*
X30511946Y-19271659D01*
X30650421Y-19214301D01*
X30775046Y-19131030D01*
X30881030Y-19025046D01*
X30964301Y-18900421D01*
X31021659Y-18761946D01*
X31050900Y-18614942D01*
X31050900Y-18465058D01*
X31039456Y-18407525D01*
X31042037Y-18347796D01*
X31075606Y-18232254D01*
X31078499Y-18195493D01*
X31078500Y-18195493D01*
X31078500Y-17724507D01*
X31078499Y-17724506D01*
X31077453Y-17711221D01*
X31075606Y-17687746D01*
X31029894Y-17530403D01*
X31017318Y-17509139D01*
X30999858Y-17440325D01*
X31017318Y-17380861D01*
X31029894Y-17359597D01*
X31075606Y-17202254D01*
X31078499Y-17165493D01*
X31078500Y-17165493D01*
X31078500Y-16694507D01*
X31078499Y-16694506D01*
X31076851Y-16673573D01*
X31075606Y-16657746D01*
X31029894Y-16500403D01*
X31024461Y-16491216D01*
X31009361Y-16465682D01*
X30991902Y-16396866D01*
X31009362Y-16337405D01*
X31019894Y-16319597D01*
X31065606Y-16162254D01*
X31068499Y-16125493D01*
X31068500Y-16125493D01*
X31068500Y-16016000D01*
X31071091Y-16007174D01*
X31069782Y-15998068D01*
X31080937Y-15973642D01*
X31088502Y-15947879D01*
X31095455Y-15941854D01*
X31099276Y-15933488D01*
X31121861Y-15918973D01*
X31142158Y-15901386D01*
X31152844Y-15899061D01*
X31159002Y-15895104D01*
X31194500Y-15890000D01*
X31368000Y-15890000D01*
X31436121Y-15910002D01*
X31482614Y-15963658D01*
X31489070Y-15993340D01*
X31501121Y-16015408D01*
X31504000Y-16042191D01*
X31504000Y-18771672D01*
X31649401Y-18729429D01*
X31790318Y-18646091D01*
X31859085Y-18577324D01*
X31921397Y-18543299D01*
X31992213Y-18548363D01*
X32023378Y-18565318D01*
X32030766Y-18570813D01*
X32097459Y-18637506D01*
X32209591Y-18703820D01*
X32214926Y-18707788D01*
X32217146Y-18710735D01*
X32228824Y-18719794D01*
X34296657Y-20787626D01*
X34330682Y-20849938D01*
X34325618Y-20920753D01*
X34283071Y-20977589D01*
X34216551Y-21002400D01*
X34191117Y-21001643D01*
X34114070Y-20991500D01*
X34114066Y-20991500D01*
X33860934Y-20991500D01*
X33860931Y-20991500D01*
X33744410Y-21006840D01*
X33739394Y-21008918D01*
X33668803Y-21016502D01*
X33605319Y-20984718D01*
X33577622Y-20944824D01*
X33577220Y-20945040D01*
X33575373Y-20941585D01*
X33574774Y-20940722D01*
X33574300Y-20939577D01*
X33514405Y-20849938D01*
X33491030Y-20814954D01*
X33491028Y-20814952D01*
X33491023Y-20814946D01*
X33385053Y-20708976D01*
X33385047Y-20708971D01*
X33260421Y-20625699D01*
X33121951Y-20568343D01*
X33121946Y-20568341D01*
X32974944Y-20539100D01*
X32974942Y-20539100D01*
X32825058Y-20539100D01*
X32825055Y-20539100D01*
X32678053Y-20568341D01*
X32678048Y-20568343D01*
X32539578Y-20625699D01*
X32414952Y-20708971D01*
X32414946Y-20708976D01*
X32308976Y-20814946D01*
X32308971Y-20814952D01*
X32225699Y-20939578D01*
X32168343Y-21078048D01*
X32168341Y-21078053D01*
X32139100Y-21225055D01*
X32139100Y-21374940D01*
X32139101Y-21374951D01*
X32146111Y-21410196D01*
X32139782Y-21480909D01*
X32130993Y-21498902D01*
X32130107Y-21500399D01*
X32130107Y-21500400D01*
X32084393Y-21657747D01*
X32084393Y-21657748D01*
X32081500Y-21694506D01*
X32081500Y-22105493D01*
X32084393Y-22142251D01*
X32084393Y-22142252D01*
X32130106Y-22299597D01*
X32140016Y-22316354D01*
X32157474Y-22385170D01*
X32140017Y-22444626D01*
X32130569Y-22460601D01*
X32088327Y-22606000D01*
X32378621Y-22606000D01*
X32442760Y-22623546D01*
X32469900Y-22639597D01*
X32470403Y-22639894D01*
X32627746Y-22685606D01*
X32664506Y-22688499D01*
X32664507Y-22688500D01*
X32774000Y-22688500D01*
X32842121Y-22708502D01*
X32888614Y-22762158D01*
X32900000Y-22814500D01*
X32900000Y-22860000D01*
X33028000Y-22860000D01*
X33096121Y-22880002D01*
X33142614Y-22933658D01*
X33154000Y-22986000D01*
X33154000Y-23646538D01*
X33168116Y-23645428D01*
X33237596Y-23660025D01*
X33288155Y-23709868D01*
X33304000Y-23771040D01*
X33304000Y-24151568D01*
X33319339Y-24268085D01*
X33379396Y-24413074D01*
X33384845Y-24420175D01*
X33410445Y-24486396D01*
X33396180Y-24555945D01*
X33373978Y-24585974D01*
X33302492Y-24657460D01*
X33219732Y-24797399D01*
X33174370Y-24953534D01*
X33174370Y-24953535D01*
X33171500Y-24990001D01*
X33171500Y-25389987D01*
X33174370Y-25426464D01*
X33174371Y-25426466D01*
X33218117Y-25577042D01*
X33219732Y-25582599D01*
X33251231Y-25635862D01*
X33268690Y-25704679D01*
X33251231Y-25764138D01*
X33219732Y-25817400D01*
X33174370Y-25973534D01*
X33174370Y-25973535D01*
X33171500Y-26010001D01*
X33171500Y-26409987D01*
X33174370Y-26446464D01*
X33219732Y-26602600D01*
X33302492Y-26742539D01*
X33302498Y-26742546D01*
X33417453Y-26857501D01*
X33417460Y-26857507D01*
X33557399Y-26940267D01*
X33557402Y-26940267D01*
X33557404Y-26940269D01*
X33713534Y-26985629D01*
X33750011Y-26988500D01*
X34249988Y-26988499D01*
X34286466Y-26985629D01*
X34442596Y-26940269D01*
X34442598Y-26940267D01*
X34442600Y-26940267D01*
X34582539Y-26857507D01*
X34582538Y-26857507D01*
X34582541Y-26857506D01*
X34633843Y-26806203D01*
X34696153Y-26772180D01*
X34722937Y-26769300D01*
X36191539Y-26769300D01*
X36259660Y-26789302D01*
X36280634Y-26806205D01*
X39123593Y-29649164D01*
X39157619Y-29711476D01*
X39160498Y-29738259D01*
X39160498Y-30392049D01*
X39167007Y-30452596D01*
X39167009Y-30452604D01*
X39218108Y-30589602D01*
X39218110Y-30589607D01*
X39305736Y-30706661D01*
X39422792Y-30794288D01*
X39425074Y-30795534D01*
X39426914Y-30797374D01*
X39430008Y-30799690D01*
X39429675Y-30800134D01*
X39475281Y-30845732D01*
X39490698Y-30906126D01*
X39490698Y-33606141D01*
X39470696Y-33674262D01*
X39453793Y-33695236D01*
X38626711Y-34522318D01*
X38564399Y-34556344D01*
X38549965Y-34558616D01*
X38545063Y-34559098D01*
X38398053Y-34588341D01*
X38398048Y-34588343D01*
X38259578Y-34645699D01*
X38134952Y-34728971D01*
X38134946Y-34728976D01*
X38028976Y-34834946D01*
X38028971Y-34834952D01*
X37945699Y-34959578D01*
X37888343Y-35098048D01*
X37888341Y-35098053D01*
X37859100Y-35245055D01*
X37859100Y-35394944D01*
X37888341Y-35541946D01*
X37888343Y-35541951D01*
X37945699Y-35680421D01*
X38028971Y-35805047D01*
X38028976Y-35805053D01*
X38134946Y-35911023D01*
X38134952Y-35911028D01*
X38134954Y-35911030D01*
X38259579Y-35994301D01*
X38398054Y-36051659D01*
X38545058Y-36080900D01*
X38545059Y-36080900D01*
X38694941Y-36080900D01*
X38694942Y-36080900D01*
X38841946Y-36051659D01*
X38980421Y-35994301D01*
X39105046Y-35911030D01*
X39211030Y-35805046D01*
X39294301Y-35680421D01*
X39351659Y-35541946D01*
X39380900Y-35394942D01*
X39380900Y-35394929D01*
X39381381Y-35390046D01*
X39407956Y-35324211D01*
X39417664Y-35313304D01*
X40497550Y-34233420D01*
X40571183Y-34105883D01*
X40609298Y-33963635D01*
X40609298Y-33816369D01*
X40609298Y-30906126D01*
X40629300Y-30838005D01*
X40670180Y-30799947D01*
X40669988Y-30799690D01*
X40672385Y-30797894D01*
X40674922Y-30795534D01*
X40677199Y-30794289D01*
X40677202Y-30794289D01*
X40794259Y-30706661D01*
X40881887Y-30589604D01*
X40932987Y-30452601D01*
X40939498Y-30392038D01*
X40939498Y-29177162D01*
X40937712Y-29160545D01*
X40932988Y-29116603D01*
X40932986Y-29116595D01*
X40903922Y-29038675D01*
X40881887Y-28979596D01*
X40881886Y-28979594D01*
X40881885Y-28979592D01*
X40794259Y-28862538D01*
X40677205Y-28774912D01*
X40677200Y-28774910D01*
X40540202Y-28723811D01*
X40540194Y-28723809D01*
X40479647Y-28717300D01*
X40479636Y-28717300D01*
X39825857Y-28717300D01*
X39757736Y-28697298D01*
X39736762Y-28680395D01*
X38338762Y-27282395D01*
X38304736Y-27220083D01*
X38309801Y-27149268D01*
X38352348Y-27092432D01*
X38418868Y-27067621D01*
X38427857Y-27067300D01*
X38729628Y-27067300D01*
X38729634Y-27067300D01*
X38729641Y-27067299D01*
X38729645Y-27067299D01*
X38790192Y-27060790D01*
X38790195Y-27060789D01*
X38790197Y-27060789D01*
X38927200Y-27009689D01*
X38955507Y-26988499D01*
X39044257Y-26922061D01*
X39131883Y-26805007D01*
X39131883Y-26805006D01*
X39131885Y-26805004D01*
X39182985Y-26668001D01*
X39185485Y-26644754D01*
X39189495Y-26607449D01*
X39189496Y-26607432D01*
X39189496Y-25392567D01*
X39189495Y-25392550D01*
X40910500Y-25392550D01*
X40910500Y-26607449D01*
X40917009Y-26667996D01*
X40917011Y-26668004D01*
X40968110Y-26805002D01*
X40968112Y-26805007D01*
X41055738Y-26922061D01*
X41172792Y-27009687D01*
X41172794Y-27009688D01*
X41172796Y-27009689D01*
X41231875Y-27031724D01*
X41309795Y-27060788D01*
X41309803Y-27060790D01*
X41370350Y-27067299D01*
X41370355Y-27067299D01*
X41370362Y-27067300D01*
X41370368Y-27067300D01*
X42229632Y-27067300D01*
X42229638Y-27067300D01*
X42229645Y-27067299D01*
X42229649Y-27067299D01*
X42290196Y-27060790D01*
X42290199Y-27060789D01*
X42290201Y-27060789D01*
X42427204Y-27009689D01*
X42455511Y-26988499D01*
X42544261Y-26922061D01*
X42631887Y-26805007D01*
X42631887Y-26805006D01*
X42631889Y-26805004D01*
X42682989Y-26668001D01*
X42685489Y-26644754D01*
X42689499Y-26607449D01*
X42689500Y-26607432D01*
X42689500Y-25392567D01*
X42689499Y-25392550D01*
X42682990Y-25332003D01*
X42682988Y-25331995D01*
X42636431Y-25207174D01*
X42631889Y-25194996D01*
X42631888Y-25194994D01*
X42631887Y-25194992D01*
X42544262Y-25077940D01*
X42544259Y-25077938D01*
X42519143Y-25059136D01*
X42465188Y-25018745D01*
X42422642Y-24961909D01*
X42414698Y-24917877D01*
X42414698Y-24549178D01*
X42434700Y-24481057D01*
X42465189Y-24448310D01*
X42574259Y-24366661D01*
X42661885Y-24249607D01*
X42661885Y-24249606D01*
X42661887Y-24249604D01*
X42712987Y-24112601D01*
X42718595Y-24060443D01*
X42719497Y-24052049D01*
X42719498Y-24052032D01*
X42719498Y-22837167D01*
X42719497Y-22837150D01*
X42712988Y-22776603D01*
X42712986Y-22776595D01*
X42661998Y-22639894D01*
X42661887Y-22639596D01*
X42661886Y-22639594D01*
X42661885Y-22639592D01*
X42574259Y-22522538D01*
X42457205Y-22434912D01*
X42457200Y-22434910D01*
X42320202Y-22383811D01*
X42320194Y-22383809D01*
X42259647Y-22377300D01*
X42259636Y-22377300D01*
X41400360Y-22377300D01*
X41400348Y-22377300D01*
X41339801Y-22383809D01*
X41339793Y-22383811D01*
X41202795Y-22434910D01*
X41202790Y-22434912D01*
X41085736Y-22522538D01*
X40998110Y-22639592D01*
X40998108Y-22639597D01*
X40947009Y-22776595D01*
X40947007Y-22776603D01*
X40940498Y-22837150D01*
X40940498Y-24052049D01*
X40947007Y-24112596D01*
X40947009Y-24112604D01*
X40998108Y-24249602D01*
X40998110Y-24249607D01*
X41085736Y-24366661D01*
X41194807Y-24448310D01*
X41237354Y-24505145D01*
X41245298Y-24549178D01*
X41245298Y-24875962D01*
X41225296Y-24944083D01*
X41179690Y-24986546D01*
X41172797Y-24990310D01*
X41055738Y-25077938D01*
X40968112Y-25194992D01*
X40968110Y-25194997D01*
X40917011Y-25331995D01*
X40917009Y-25332003D01*
X40910500Y-25392550D01*
X39189495Y-25392550D01*
X39182986Y-25332003D01*
X39182984Y-25331995D01*
X39136427Y-25207174D01*
X39131885Y-25194996D01*
X39131884Y-25194994D01*
X39131883Y-25194992D01*
X39044257Y-25077938D01*
X38965183Y-25018745D01*
X38927200Y-24990311D01*
X38927198Y-24990310D01*
X38927195Y-24990308D01*
X38924903Y-24989056D01*
X38923057Y-24987210D01*
X38919986Y-24984911D01*
X38920316Y-24984469D01*
X38874704Y-24938851D01*
X38859296Y-24878473D01*
X38859296Y-23026364D01*
X38858663Y-23024000D01*
X38821180Y-22884114D01*
X38764496Y-22785934D01*
X38747547Y-22756577D01*
X38747544Y-22756574D01*
X38747541Y-22756570D01*
X35043521Y-19052550D01*
X39190496Y-19052550D01*
X39190496Y-20267449D01*
X39197005Y-20327996D01*
X39197007Y-20328004D01*
X39248106Y-20465002D01*
X39248108Y-20465007D01*
X39335734Y-20582061D01*
X39452788Y-20669687D01*
X39452790Y-20669688D01*
X39452792Y-20669689D01*
X39511871Y-20691724D01*
X39589791Y-20720788D01*
X39589799Y-20720790D01*
X39650346Y-20727299D01*
X39650351Y-20727299D01*
X39650358Y-20727300D01*
X39650364Y-20727300D01*
X40509628Y-20727300D01*
X40509634Y-20727300D01*
X40509641Y-20727299D01*
X40509645Y-20727299D01*
X40570192Y-20720790D01*
X40570195Y-20720789D01*
X40570197Y-20720789D01*
X40707200Y-20669689D01*
X40824257Y-20582061D01*
X40911885Y-20465004D01*
X40962985Y-20328001D01*
X40966387Y-20296362D01*
X40969495Y-20267449D01*
X40969496Y-20267432D01*
X40969496Y-19052567D01*
X40969495Y-19052550D01*
X42690500Y-19052550D01*
X42690500Y-20267449D01*
X42697009Y-20327996D01*
X42697011Y-20328004D01*
X42748110Y-20465002D01*
X42748112Y-20465007D01*
X42835738Y-20582061D01*
X42952792Y-20669687D01*
X42952794Y-20669688D01*
X42952796Y-20669689D01*
X43011875Y-20691724D01*
X43089795Y-20720788D01*
X43089803Y-20720790D01*
X43150350Y-20727299D01*
X43150355Y-20727299D01*
X43150362Y-20727300D01*
X43150368Y-20727300D01*
X44009632Y-20727300D01*
X44009638Y-20727300D01*
X44009645Y-20727299D01*
X44009649Y-20727299D01*
X44070196Y-20720790D01*
X44070199Y-20720789D01*
X44070201Y-20720789D01*
X44207204Y-20669689D01*
X44324261Y-20582061D01*
X44411889Y-20465004D01*
X44462989Y-20328001D01*
X44466391Y-20296362D01*
X44469499Y-20267449D01*
X44469500Y-20267432D01*
X44469500Y-19052567D01*
X44469499Y-19052550D01*
X44462990Y-18992003D01*
X44462988Y-18991995D01*
X44420832Y-18878973D01*
X44411889Y-18854996D01*
X44411888Y-18854994D01*
X44411887Y-18854992D01*
X44324261Y-18737938D01*
X44215191Y-18656290D01*
X44172644Y-18599455D01*
X44164700Y-18555422D01*
X44164700Y-15564380D01*
X44173483Y-15534464D01*
X44180112Y-15503995D01*
X44183926Y-15498899D01*
X44184702Y-15496259D01*
X44201605Y-15475285D01*
X44241405Y-15435485D01*
X44303717Y-15401459D01*
X44374532Y-15406524D01*
X44431368Y-15449071D01*
X44456179Y-15515591D01*
X44456500Y-15524580D01*
X44456500Y-16060544D01*
X44467112Y-16164425D01*
X44522885Y-16332738D01*
X44615970Y-16483652D01*
X44615975Y-16483658D01*
X44741341Y-16609024D01*
X44741346Y-16609028D01*
X44741348Y-16609030D01*
X44892262Y-16702115D01*
X45060574Y-16757887D01*
X45164455Y-16768500D01*
X46715544Y-16768499D01*
X46819426Y-16757887D01*
X46934608Y-16719719D01*
X47005561Y-16717279D01*
X47066571Y-16753587D01*
X47098267Y-16817115D01*
X47097819Y-16863905D01*
X47085500Y-16925833D01*
X47085500Y-17094163D01*
X47118338Y-17259249D01*
X47118340Y-17259254D01*
X47148707Y-17332567D01*
X47182752Y-17414758D01*
X47276266Y-17554712D01*
X47395288Y-17673734D01*
X47535242Y-17767248D01*
X47690751Y-17831662D01*
X47855839Y-17864500D01*
X47855840Y-17864500D01*
X48024160Y-17864500D01*
X48024161Y-17864500D01*
X48189249Y-17831662D01*
X48344758Y-17767248D01*
X48484712Y-17673734D01*
X48603734Y-17554712D01*
X48697248Y-17414758D01*
X48761662Y-17259249D01*
X48794500Y-17094161D01*
X48794500Y-16925839D01*
X48761662Y-16760751D01*
X48697248Y-16605242D01*
X48603734Y-16465288D01*
X48484712Y-16346266D01*
X48344758Y-16252752D01*
X48267955Y-16220939D01*
X48189254Y-16188340D01*
X48189249Y-16188338D01*
X48024163Y-16155500D01*
X48024161Y-16155500D01*
X47855839Y-16155500D01*
X47855836Y-16155500D01*
X47690750Y-16188338D01*
X47690741Y-16188341D01*
X47593076Y-16228795D01*
X47522486Y-16236384D01*
X47459000Y-16204604D01*
X47422773Y-16143546D01*
X47419512Y-16099577D01*
X47423499Y-16060551D01*
X47423500Y-16060545D01*
X47423499Y-14759456D01*
X47412887Y-14655574D01*
X47357115Y-14487262D01*
X47264030Y-14336348D01*
X47264029Y-14336347D01*
X47264024Y-14336341D01*
X47138658Y-14210975D01*
X47138652Y-14210970D01*
X47088006Y-14179731D01*
X46993842Y-14121650D01*
X46946365Y-14068865D01*
X46934962Y-13998790D01*
X46963255Y-13933674D01*
X46970884Y-13925325D01*
X47101206Y-13795004D01*
X47226894Y-13622009D01*
X47323972Y-13431483D01*
X47390049Y-13228116D01*
X47423500Y-13016916D01*
X47423500Y-12803084D01*
X47390049Y-12591884D01*
X47323972Y-12388517D01*
X47226894Y-12197991D01*
X47101206Y-12024996D01*
X47101203Y-12024993D01*
X47101201Y-12024990D01*
X46950009Y-11873798D01*
X46950006Y-11873796D01*
X46950004Y-11873794D01*
X46796043Y-11761935D01*
X46752690Y-11705714D01*
X46746615Y-11634978D01*
X46779746Y-11572186D01*
X46796044Y-11558064D01*
X46950004Y-11446206D01*
X47101206Y-11295004D01*
X47226894Y-11122009D01*
X47323972Y-10931483D01*
X47390049Y-10728116D01*
X47423500Y-10516916D01*
X47423500Y-10303084D01*
X47390049Y-10091884D01*
X47323972Y-9888517D01*
X47226894Y-9697991D01*
X47101206Y-9524996D01*
X47101203Y-9524993D01*
X47101201Y-9524990D01*
X46950009Y-9373798D01*
X46950006Y-9373796D01*
X46950005Y-9373795D01*
X46950004Y-9373794D01*
X46800262Y-9265000D01*
X46795618Y-9261626D01*
X46752264Y-9205404D01*
X46746189Y-9134667D01*
X46779320Y-9071876D01*
X46795618Y-9057754D01*
X46949679Y-8945821D01*
X46949682Y-8945819D01*
X47100822Y-8794679D01*
X47226463Y-8621750D01*
X47323506Y-8431292D01*
X47323509Y-8431286D01*
X47389559Y-8228004D01*
X47399698Y-8164000D01*
X46341836Y-8164000D01*
X46382630Y-8093343D01*
X46415000Y-7972535D01*
X46415000Y-7847465D01*
X46382630Y-7726657D01*
X46341836Y-7656000D01*
X47399697Y-7656000D01*
X47389559Y-7591995D01*
X47323509Y-7388713D01*
X47323506Y-7388707D01*
X47226463Y-7198249D01*
X47100822Y-7025320D01*
X46949679Y-6874177D01*
X46776750Y-6748536D01*
X46586292Y-6651493D01*
X46586286Y-6651490D01*
X46383004Y-6585440D01*
X46194000Y-6555503D01*
X46194000Y-7508163D01*
X46123343Y-7467370D01*
X46002535Y-7435000D01*
X45877465Y-7435000D01*
X45756657Y-7467370D01*
X45686000Y-7508163D01*
X45686000Y-6555503D01*
X45496995Y-6585440D01*
X45293713Y-6651490D01*
X45293707Y-6651493D01*
X45103249Y-6748536D01*
X44930320Y-6874177D01*
X44779177Y-7025320D01*
X44653536Y-7198249D01*
X44556493Y-7388707D01*
X44556490Y-7388713D01*
X44490440Y-7591995D01*
X44480302Y-7656000D01*
X45538164Y-7656000D01*
X45497370Y-7726657D01*
X45465000Y-7847465D01*
X45465000Y-7972535D01*
X45497370Y-8093343D01*
X45538164Y-8164000D01*
X44480302Y-8164000D01*
X44490440Y-8228004D01*
X44556490Y-8431286D01*
X44556493Y-8431292D01*
X44653536Y-8621750D01*
X44779177Y-8794679D01*
X44930317Y-8945819D01*
X44930320Y-8945821D01*
X45084381Y-9057754D01*
X45127735Y-9113976D01*
X45133810Y-9184713D01*
X45100678Y-9247504D01*
X45084381Y-9261626D01*
X44929993Y-9373795D01*
X44778798Y-9524990D01*
X44778796Y-9524993D01*
X44653108Y-9697987D01*
X44556029Y-9888515D01*
X44556026Y-9888521D01*
X44489952Y-10091878D01*
X44489951Y-10091883D01*
X44489951Y-10091884D01*
X44456500Y-10303084D01*
X44456500Y-10516916D01*
X44489951Y-10728116D01*
X44489952Y-10728121D01*
X44537479Y-10874395D01*
X44556028Y-10931483D01*
X44653106Y-11122009D01*
X44778794Y-11295004D01*
X44778796Y-11295006D01*
X44778798Y-11295009D01*
X44929990Y-11446201D01*
X44929993Y-11446203D01*
X44929996Y-11446206D01*
X45015112Y-11508046D01*
X45083955Y-11558064D01*
X45127309Y-11614286D01*
X45133384Y-11685023D01*
X45100252Y-11747814D01*
X45083955Y-11761936D01*
X44929993Y-11873796D01*
X44929990Y-11873798D01*
X44778798Y-12024990D01*
X44778796Y-12024993D01*
X44653108Y-12197987D01*
X44556029Y-12388515D01*
X44556026Y-12388521D01*
X44489952Y-12591878D01*
X44489951Y-12591883D01*
X44489951Y-12591884D01*
X44456500Y-12803084D01*
X44456500Y-13016916D01*
X44488835Y-13221069D01*
X44489952Y-13228121D01*
X44540898Y-13384917D01*
X44542925Y-13455885D01*
X44510160Y-13512948D01*
X43220986Y-14802124D01*
X43190816Y-14832294D01*
X43112125Y-14910984D01*
X43112121Y-14910989D01*
X43035147Y-15044313D01*
X43025692Y-15079599D01*
X43005523Y-15154873D01*
X42995300Y-15193024D01*
X42995300Y-18555422D01*
X42975298Y-18623543D01*
X42944809Y-18656290D01*
X42835738Y-18737938D01*
X42748112Y-18854992D01*
X42748110Y-18854997D01*
X42697011Y-18991995D01*
X42697009Y-18992003D01*
X42690500Y-19052550D01*
X40969495Y-19052550D01*
X40962986Y-18992003D01*
X40962984Y-18991995D01*
X40920828Y-18878973D01*
X40911885Y-18854996D01*
X40876401Y-18807595D01*
X40851591Y-18741076D01*
X40860199Y-18687970D01*
X40859862Y-18687868D01*
X40860623Y-18685357D01*
X40860866Y-18683859D01*
X40861659Y-18681946D01*
X40890900Y-18534942D01*
X40890900Y-18385058D01*
X40861659Y-18238054D01*
X40804301Y-18099579D01*
X40721030Y-17974954D01*
X40721028Y-17974952D01*
X40721023Y-17974946D01*
X40615053Y-17868976D01*
X40615047Y-17868971D01*
X40608354Y-17864499D01*
X40490421Y-17785699D01*
X40384096Y-17741658D01*
X40351951Y-17728343D01*
X40351946Y-17728341D01*
X40204944Y-17699100D01*
X40204942Y-17699100D01*
X40055058Y-17699100D01*
X40055055Y-17699100D01*
X39908053Y-17728341D01*
X39908048Y-17728343D01*
X39769578Y-17785699D01*
X39644952Y-17868971D01*
X39644946Y-17868976D01*
X39538976Y-17974946D01*
X39538971Y-17974952D01*
X39455699Y-18099578D01*
X39398343Y-18238048D01*
X39398341Y-18238053D01*
X39369100Y-18385055D01*
X39369100Y-18534947D01*
X39384431Y-18612020D01*
X39378103Y-18682734D01*
X39341402Y-18730863D01*
X39342106Y-18731567D01*
X39336885Y-18736787D01*
X39336372Y-18737461D01*
X39335735Y-18737937D01*
X39248108Y-18854992D01*
X39248106Y-18854997D01*
X39197007Y-18991995D01*
X39197005Y-18992003D01*
X39190496Y-19052550D01*
X35043521Y-19052550D01*
X34616205Y-18625234D01*
X34582179Y-18562922D01*
X34579300Y-18536139D01*
X34579300Y-18122614D01*
X34599302Y-18054493D01*
X34652958Y-18008000D01*
X34723232Y-17997896D01*
X34769438Y-18014160D01*
X34847404Y-18060269D01*
X35003534Y-18105629D01*
X35040011Y-18108500D01*
X35439988Y-18108499D01*
X35476466Y-18105629D01*
X35632596Y-18060269D01*
X35685862Y-18028767D01*
X35754675Y-18011308D01*
X35814137Y-18028766D01*
X35867404Y-18060269D01*
X36023534Y-18105629D01*
X36060011Y-18108500D01*
X36459988Y-18108499D01*
X36496466Y-18105629D01*
X36652596Y-18060269D01*
X36654518Y-18059131D01*
X36656225Y-18058698D01*
X36659874Y-18057120D01*
X36660128Y-18057708D01*
X36723333Y-18041669D01*
X36762045Y-18050118D01*
X36762124Y-18049860D01*
X36765368Y-18050843D01*
X36766885Y-18051175D01*
X36768046Y-18051656D01*
X36768048Y-18051656D01*
X36768054Y-18051659D01*
X36915058Y-18080900D01*
X36915059Y-18080900D01*
X37064941Y-18080900D01*
X37064942Y-18080900D01*
X37211946Y-18051659D01*
X37350421Y-17994301D01*
X37475046Y-17911030D01*
X37581030Y-17805046D01*
X37664301Y-17680421D01*
X37721659Y-17541946D01*
X37750900Y-17394942D01*
X37750900Y-17245058D01*
X37721659Y-17098054D01*
X37664301Y-16959579D01*
X37581030Y-16834954D01*
X37581028Y-16834952D01*
X37581023Y-16834946D01*
X37475053Y-16728976D01*
X37475047Y-16728971D01*
X37473673Y-16728053D01*
X37398858Y-16678063D01*
X37353331Y-16623587D01*
X37344483Y-16553144D01*
X37375125Y-16489100D01*
X37435526Y-16451789D01*
X37450427Y-16448655D01*
X37459596Y-16447299D01*
X37476238Y-16447299D01*
X37536801Y-16440788D01*
X37558603Y-16432656D01*
X37571748Y-16430712D01*
X37594271Y-16433857D01*
X37616959Y-16432234D01*
X37628753Y-16438673D01*
X37642062Y-16440532D01*
X37659311Y-16455357D01*
X37679273Y-16466256D01*
X37693838Y-16485032D01*
X37695904Y-16486808D01*
X37696333Y-16488249D01*
X37698635Y-16491216D01*
X37768309Y-16609029D01*
X37768495Y-16609342D01*
X37768498Y-16609346D01*
X37883453Y-16724301D01*
X37883460Y-16724307D01*
X38023399Y-16807067D01*
X38023402Y-16807067D01*
X38023404Y-16807069D01*
X38179534Y-16852429D01*
X38216011Y-16855300D01*
X38615988Y-16855299D01*
X38652466Y-16852429D01*
X38808596Y-16807069D01*
X38808600Y-16807067D01*
X38820291Y-16800152D01*
X38862350Y-16775278D01*
X38931165Y-16757818D01*
X38990630Y-16775278D01*
X39043605Y-16806608D01*
X39181999Y-16846814D01*
X39182000Y-16846814D01*
X39690000Y-16846814D01*
X39828396Y-16806607D01*
X39968228Y-16723910D01*
X39968235Y-16723905D01*
X40083105Y-16609035D01*
X40083110Y-16609028D01*
X40165805Y-16469199D01*
X40211130Y-16313192D01*
X40211130Y-16313189D01*
X40213680Y-16280800D01*
X39690000Y-16280800D01*
X39690000Y-16846814D01*
X39182000Y-16846814D01*
X39182000Y-16364341D01*
X39182531Y-16352786D01*
X39183637Y-16340774D01*
X39191629Y-16313266D01*
X39194500Y-16276789D01*
X39194499Y-15776812D01*
X39194183Y-15772800D01*
X39694000Y-15772800D01*
X40213680Y-15772800D01*
X40211130Y-15740410D01*
X40211130Y-15740407D01*
X40165806Y-15584403D01*
X40151919Y-15560922D01*
X40134459Y-15492105D01*
X40151920Y-15432640D01*
X40169806Y-15402397D01*
X40215130Y-15246392D01*
X40215130Y-15246389D01*
X40217680Y-15214000D01*
X39694000Y-15214000D01*
X39694000Y-15772800D01*
X39194183Y-15772800D01*
X39191629Y-15740334D01*
X39187001Y-15724405D01*
X39182000Y-15689259D01*
X39182000Y-15311309D01*
X39182760Y-15297487D01*
X39183956Y-15286641D01*
X39195629Y-15246466D01*
X39198500Y-15209989D01*
X39198499Y-14710012D01*
X39198183Y-14706000D01*
X39694000Y-14706000D01*
X40217680Y-14706000D01*
X40215130Y-14673610D01*
X40215130Y-14673607D01*
X40169805Y-14517600D01*
X40087110Y-14377771D01*
X40087105Y-14377764D01*
X39972235Y-14262894D01*
X39972228Y-14262889D01*
X39832399Y-14180194D01*
X39694000Y-14139985D01*
X39694000Y-14706000D01*
X39198183Y-14706000D01*
X39195629Y-14673534D01*
X39191001Y-14657605D01*
X39186000Y-14622459D01*
X39186000Y-14139985D01*
X39047601Y-14180194D01*
X38994626Y-14211522D01*
X38925810Y-14228980D01*
X38866352Y-14211521D01*
X38812599Y-14179732D01*
X38656464Y-14134370D01*
X38619998Y-14131500D01*
X38220012Y-14131500D01*
X38183535Y-14134370D01*
X38024653Y-14180530D01*
X37953656Y-14180327D01*
X37894040Y-14141773D01*
X37864732Y-14077108D01*
X37863500Y-14059533D01*
X37863500Y-12957508D01*
X37863499Y-12957504D01*
X37838102Y-12829823D01*
X37788282Y-12709546D01*
X37715955Y-12601301D01*
X37623899Y-12509245D01*
X35841299Y-10726645D01*
X35733054Y-10654318D01*
X35653061Y-10621184D01*
X35612782Y-10604500D01*
X35612777Y-10604498D01*
X35485095Y-10579100D01*
X35485093Y-10579100D01*
X32476059Y-10579100D01*
X32407938Y-10559098D01*
X32361445Y-10505442D01*
X32351341Y-10435168D01*
X32380835Y-10370588D01*
X32386964Y-10364005D01*
X35146405Y-7604565D01*
X37047545Y-5703424D01*
X37047551Y-5703418D01*
X37098205Y-5615682D01*
X37121184Y-5575882D01*
X37159300Y-5433633D01*
X37159300Y-3969833D01*
X37179302Y-3901712D01*
X37232958Y-3855219D01*
X37303232Y-3845115D01*
X37367812Y-3874609D01*
X37374395Y-3880738D01*
X37427995Y-3934338D01*
X37428001Y-3934343D01*
X37428002Y-3934344D01*
X37577671Y-4026661D01*
X37744596Y-4081974D01*
X37847625Y-4092500D01*
X38860374Y-4092499D01*
X38963404Y-4081974D01*
X39130329Y-4026661D01*
X39279998Y-3934344D01*
X39314291Y-3900050D01*
X39376602Y-3866025D01*
X39427968Y-3865566D01*
X39505058Y-3880900D01*
X39505059Y-3880900D01*
X39654941Y-3880900D01*
X39654942Y-3880900D01*
X39801946Y-3851659D01*
X39940421Y-3794301D01*
X40065046Y-3711030D01*
X40171030Y-3605046D01*
X40254301Y-3480421D01*
X40311659Y-3341946D01*
X40340900Y-3194942D01*
X40340900Y-3045058D01*
X40311659Y-2898054D01*
X40254301Y-2759579D01*
X40171030Y-2634954D01*
X40171028Y-2634952D01*
X40171023Y-2634946D01*
X40065053Y-2528976D01*
X40065047Y-2528971D01*
X40009847Y-2492088D01*
X39940421Y-2445699D01*
X39801946Y-2388341D01*
X39768057Y-2381600D01*
X39654944Y-2359100D01*
X39654942Y-2359100D01*
X39505058Y-2359100D01*
X39505052Y-2359100D01*
X39467170Y-2366636D01*
X39459666Y-2365964D01*
X39452631Y-2368656D01*
X39424788Y-2362843D01*
X39396456Y-2360308D01*
X39388785Y-2355327D01*
X39383133Y-2354147D01*
X39356265Y-2334209D01*
X39354243Y-2332896D01*
X39353942Y-2332600D01*
X39279998Y-2258656D01*
X39276644Y-2256587D01*
X39268765Y-2248839D01*
X39254671Y-2223535D01*
X39237933Y-2199898D01*
X39237618Y-2192918D01*
X39234219Y-2186814D01*
X39236043Y-2157905D01*
X39234741Y-2128973D01*
X39238249Y-2122932D01*
X39238690Y-2115959D01*
X39255854Y-2092624D01*
X39270401Y-2067582D01*
X39278963Y-2060162D01*
X39279990Y-2059348D01*
X39279998Y-2059344D01*
X39404344Y-1934998D01*
X39496661Y-1785329D01*
X39551974Y-1618404D01*
X39562500Y-1515375D01*
X39562499Y-927626D01*
X39551974Y-824596D01*
X39496661Y-657671D01*
X39404344Y-508002D01*
X39404343Y-508001D01*
X39401691Y-504647D01*
X39400588Y-501914D01*
X39400491Y-501756D01*
X39400518Y-501739D01*
X39375132Y-438805D01*
X39388386Y-369056D01*
X39437245Y-317546D01*
X39500530Y-300500D01*
X48212405Y-300500D01*
X48256194Y-300500D01*
X48263802Y-300730D01*
X48522346Y-316369D01*
X48537426Y-318200D01*
X48788460Y-364203D01*
X48803210Y-367839D01*
X49046867Y-443765D01*
X49061085Y-449158D01*
X49293795Y-553892D01*
X49307266Y-560962D01*
X49525667Y-692990D01*
X49538169Y-701619D01*
X49739073Y-859017D01*
X49750453Y-869100D01*
X49930899Y-1049546D01*
X49940983Y-1060927D01*
X50098377Y-1261827D01*
X50107012Y-1274336D01*
X50144099Y-1335686D01*
X50239036Y-1492731D01*
X50246107Y-1506204D01*
X50350839Y-1738909D01*
X50356235Y-1753136D01*
X50432157Y-1996778D01*
X50435798Y-2011551D01*
X50481797Y-2262561D01*
X50483631Y-2277665D01*
X50499270Y-2536197D01*
X50499500Y-2543805D01*
X50499500Y-67306194D01*
X50499270Y-67313802D01*
X50483631Y-67572334D01*
X50481797Y-67587438D01*
X50435798Y-67838448D01*
X50432157Y-67853221D01*
X50356235Y-68096863D01*
X50350839Y-68111090D01*
X50246107Y-68343795D01*
X50239036Y-68357268D01*
X50107013Y-68575661D01*
X50098370Y-68588183D01*
X49940989Y-68789065D01*
X49930899Y-68800453D01*
X49750453Y-68980899D01*
X49739065Y-68990989D01*
X49538183Y-69148370D01*
X49525661Y-69157013D01*
X49307268Y-69289036D01*
X49293795Y-69296107D01*
X49061090Y-69400839D01*
X49046863Y-69406235D01*
X48803221Y-69482157D01*
X48788448Y-69485798D01*
X48537438Y-69531797D01*
X48522334Y-69533631D01*
X48263802Y-69549270D01*
X48256194Y-69549500D01*
X2543806Y-69549500D01*
X2536198Y-69549270D01*
X2277665Y-69533631D01*
X2262561Y-69531797D01*
X2011551Y-69485798D01*
X1996778Y-69482157D01*
X1753136Y-69406235D01*
X1738909Y-69400839D01*
X1506204Y-69296107D01*
X1492731Y-69289036D01*
X1274338Y-69157013D01*
X1261827Y-69148377D01*
X1060927Y-68990983D01*
X1049546Y-68980899D01*
X869100Y-68800453D01*
X859017Y-68789073D01*
X701619Y-68588169D01*
X692990Y-68575667D01*
X560962Y-68357266D01*
X553892Y-68343795D01*
X449160Y-68111090D01*
X443764Y-68096863D01*
X367839Y-67853210D01*
X364203Y-67838460D01*
X318200Y-67587426D01*
X316369Y-67572346D01*
X300730Y-67313802D01*
X300500Y-67306194D01*
X300500Y-51576752D01*
X14351750Y-51576752D01*
X14351750Y-51783247D01*
X14392034Y-51985763D01*
X14392035Y-51985766D01*
X14471053Y-52176533D01*
X14585770Y-52348219D01*
X14585775Y-52348225D01*
X14731774Y-52494224D01*
X14731780Y-52494229D01*
X14903467Y-52608947D01*
X15094237Y-52687966D01*
X15296756Y-52728250D01*
X15503244Y-52728250D01*
X15705763Y-52687966D01*
X15896533Y-52608947D01*
X16068220Y-52494229D01*
X16214229Y-52348220D01*
X16328947Y-52176533D01*
X16407966Y-51985763D01*
X16448250Y-51783244D01*
X16448250Y-51576756D01*
X16448249Y-51576752D01*
X34351750Y-51576752D01*
X34351750Y-51783247D01*
X34392034Y-51985763D01*
X34392035Y-51985766D01*
X34471053Y-52176533D01*
X34585770Y-52348219D01*
X34585775Y-52348225D01*
X34731774Y-52494224D01*
X34731780Y-52494229D01*
X34903467Y-52608947D01*
X35094237Y-52687966D01*
X35296756Y-52728250D01*
X35503244Y-52728250D01*
X35705763Y-52687966D01*
X35896533Y-52608947D01*
X36068220Y-52494229D01*
X36214229Y-52348220D01*
X36328947Y-52176533D01*
X36407966Y-51985763D01*
X36448250Y-51783244D01*
X36448250Y-51576756D01*
X36407966Y-51374237D01*
X36328947Y-51183467D01*
X36214229Y-51011780D01*
X36214224Y-51011774D01*
X36068225Y-50865775D01*
X36068219Y-50865770D01*
X35896533Y-50751053D01*
X35705766Y-50672035D01*
X35705763Y-50672034D01*
X35503247Y-50631750D01*
X35503244Y-50631750D01*
X35296756Y-50631750D01*
X35296752Y-50631750D01*
X35094236Y-50672034D01*
X35094233Y-50672035D01*
X34903466Y-50751053D01*
X34731780Y-50865770D01*
X34731774Y-50865775D01*
X34585775Y-51011774D01*
X34585770Y-51011780D01*
X34471053Y-51183466D01*
X34392035Y-51374233D01*
X34392034Y-51374236D01*
X34351750Y-51576752D01*
X16448249Y-51576752D01*
X16407966Y-51374237D01*
X16328947Y-51183467D01*
X16214229Y-51011780D01*
X16214224Y-51011774D01*
X16068225Y-50865775D01*
X16068219Y-50865770D01*
X15896533Y-50751053D01*
X15705766Y-50672035D01*
X15705763Y-50672034D01*
X15503247Y-50631750D01*
X15503244Y-50631750D01*
X15296756Y-50631750D01*
X15296752Y-50631750D01*
X15094236Y-50672034D01*
X15094233Y-50672035D01*
X14903466Y-50751053D01*
X14731780Y-50865770D01*
X14731774Y-50865775D01*
X14585775Y-51011774D01*
X14585770Y-51011780D01*
X14471053Y-51183466D01*
X14392035Y-51374233D01*
X14392034Y-51374236D01*
X14351750Y-51576752D01*
X300500Y-51576752D01*
X300500Y-48074975D01*
X14065500Y-48074975D01*
X14065500Y-48285024D01*
X14098359Y-48492498D01*
X14163269Y-48692268D01*
X14163270Y-48692270D01*
X14258633Y-48879431D01*
X14382100Y-49049369D01*
X14382102Y-49049371D01*
X14382104Y-49049374D01*
X14530625Y-49197895D01*
X14530628Y-49197897D01*
X14530631Y-49197900D01*
X14700569Y-49321367D01*
X14887730Y-49416730D01*
X15087504Y-49481641D01*
X15294973Y-49514500D01*
X15294975Y-49514500D01*
X15505025Y-49514500D01*
X15505027Y-49514500D01*
X15712496Y-49481641D01*
X15912270Y-49416730D01*
X16099431Y-49321367D01*
X16269369Y-49197900D01*
X16417900Y-49049369D01*
X16541367Y-48879431D01*
X16636730Y-48692270D01*
X16701641Y-48492496D01*
X16734500Y-48285027D01*
X16734500Y-48076752D01*
X17851750Y-48076752D01*
X17851750Y-48283247D01*
X17892034Y-48485763D01*
X17892035Y-48485766D01*
X17971053Y-48676533D01*
X18085770Y-48848219D01*
X18085775Y-48848225D01*
X18231774Y-48994224D01*
X18231780Y-48994229D01*
X18403467Y-49108947D01*
X18594237Y-49187966D01*
X18796756Y-49228250D01*
X19003244Y-49228250D01*
X19205763Y-49187966D01*
X19396533Y-49108947D01*
X19568220Y-48994229D01*
X19714229Y-48848220D01*
X19828947Y-48676533D01*
X19907966Y-48485763D01*
X19948250Y-48283244D01*
X19948250Y-48076756D01*
X19948249Y-48076752D01*
X30851750Y-48076752D01*
X30851750Y-48283247D01*
X30892034Y-48485763D01*
X30892035Y-48485766D01*
X30971053Y-48676533D01*
X31085770Y-48848219D01*
X31085775Y-48848225D01*
X31231774Y-48994224D01*
X31231780Y-48994229D01*
X31403467Y-49108947D01*
X31594237Y-49187966D01*
X31796756Y-49228250D01*
X32003244Y-49228250D01*
X32205763Y-49187966D01*
X32396533Y-49108947D01*
X32568220Y-48994229D01*
X32714229Y-48848220D01*
X32828947Y-48676533D01*
X32907966Y-48485763D01*
X32948250Y-48283244D01*
X32948250Y-48076756D01*
X32948249Y-48076752D01*
X32947896Y-48074975D01*
X34065500Y-48074975D01*
X34065500Y-48285024D01*
X34098359Y-48492498D01*
X34163269Y-48692268D01*
X34163270Y-48692270D01*
X34258633Y-48879431D01*
X34382100Y-49049369D01*
X34382102Y-49049371D01*
X34382104Y-49049374D01*
X34530625Y-49197895D01*
X34530628Y-49197897D01*
X34530631Y-49197900D01*
X34700569Y-49321367D01*
X34887730Y-49416730D01*
X35087504Y-49481641D01*
X35294973Y-49514500D01*
X35294975Y-49514500D01*
X35505025Y-49514500D01*
X35505027Y-49514500D01*
X35712496Y-49481641D01*
X35912270Y-49416730D01*
X36099431Y-49321367D01*
X36269369Y-49197900D01*
X36417900Y-49049369D01*
X36541367Y-48879431D01*
X36636730Y-48692270D01*
X36701641Y-48492496D01*
X36734500Y-48285027D01*
X36734500Y-48074973D01*
X36701641Y-47867504D01*
X36636730Y-47667730D01*
X36541367Y-47480569D01*
X36417900Y-47310631D01*
X36417897Y-47310628D01*
X36417895Y-47310625D01*
X36269374Y-47162104D01*
X36269371Y-47162102D01*
X36269369Y-47162100D01*
X36099431Y-47038633D01*
X35912270Y-46943270D01*
X35912269Y-46943269D01*
X35912268Y-46943269D01*
X35712498Y-46878359D01*
X35608761Y-46861929D01*
X35505027Y-46845500D01*
X35294973Y-46845500D01*
X35211985Y-46858643D01*
X35087501Y-46878359D01*
X34887731Y-46943269D01*
X34700565Y-47038635D01*
X34530628Y-47162102D01*
X34530625Y-47162104D01*
X34382104Y-47310625D01*
X34382102Y-47310628D01*
X34258635Y-47480565D01*
X34163269Y-47667731D01*
X34098359Y-47867501D01*
X34065500Y-48074975D01*
X32947896Y-48074975D01*
X32934882Y-48009553D01*
X32907966Y-47874237D01*
X32828947Y-47683467D01*
X32714229Y-47511780D01*
X32714224Y-47511774D01*
X32568225Y-47365775D01*
X32568219Y-47365770D01*
X32396533Y-47251053D01*
X32205766Y-47172035D01*
X32205763Y-47172034D01*
X32003247Y-47131750D01*
X32003244Y-47131750D01*
X31796756Y-47131750D01*
X31796752Y-47131750D01*
X31594236Y-47172034D01*
X31594233Y-47172035D01*
X31403466Y-47251053D01*
X31231780Y-47365770D01*
X31231774Y-47365775D01*
X31085775Y-47511774D01*
X31085770Y-47511780D01*
X30971053Y-47683466D01*
X30892035Y-47874233D01*
X30892034Y-47874236D01*
X30851750Y-48076752D01*
X19948249Y-48076752D01*
X19907966Y-47874237D01*
X19828947Y-47683467D01*
X19714229Y-47511780D01*
X19714224Y-47511774D01*
X19568225Y-47365775D01*
X19568219Y-47365770D01*
X19396533Y-47251053D01*
X19205766Y-47172035D01*
X19205763Y-47172034D01*
X19003247Y-47131750D01*
X19003244Y-47131750D01*
X18796756Y-47131750D01*
X18796752Y-47131750D01*
X18594236Y-47172034D01*
X18594233Y-47172035D01*
X18403466Y-47251053D01*
X18231780Y-47365770D01*
X18231774Y-47365775D01*
X18085775Y-47511774D01*
X18085770Y-47511780D01*
X17971053Y-47683466D01*
X17892035Y-47874233D01*
X17892034Y-47874236D01*
X17851750Y-48076752D01*
X16734500Y-48076752D01*
X16734500Y-48074973D01*
X16701641Y-47867504D01*
X16636730Y-47667730D01*
X16541367Y-47480569D01*
X16417900Y-47310631D01*
X16417897Y-47310628D01*
X16417895Y-47310625D01*
X16269374Y-47162104D01*
X16269371Y-47162102D01*
X16269369Y-47162100D01*
X16099431Y-47038633D01*
X15912270Y-46943270D01*
X15912269Y-46943269D01*
X15912268Y-46943269D01*
X15712498Y-46878359D01*
X15608761Y-46861929D01*
X15505027Y-46845500D01*
X15294973Y-46845500D01*
X15211985Y-46858643D01*
X15087501Y-46878359D01*
X14887731Y-46943269D01*
X14700565Y-47038635D01*
X14530628Y-47162102D01*
X14530625Y-47162104D01*
X14382104Y-47310625D01*
X14382102Y-47310628D01*
X14258635Y-47480565D01*
X14163269Y-47667731D01*
X14098359Y-47867501D01*
X14065500Y-48074975D01*
X300500Y-48074975D01*
X300500Y-42467395D01*
X22072100Y-42467395D01*
X22072100Y-42622604D01*
X22093891Y-42732152D01*
X22102379Y-42774822D01*
X22161772Y-42918210D01*
X22247998Y-43047257D01*
X22248002Y-43047261D01*
X22291646Y-43090905D01*
X22325672Y-43153217D01*
X22320607Y-43224032D01*
X22291646Y-43269095D01*
X22248002Y-43312738D01*
X22247997Y-43312744D01*
X22161772Y-43441790D01*
X22102380Y-43585174D01*
X22102379Y-43585177D01*
X22072100Y-43737395D01*
X22072100Y-43892604D01*
X22102379Y-44044822D01*
X22161772Y-44188210D01*
X22247998Y-44317257D01*
X22357743Y-44427002D01*
X22486790Y-44513228D01*
X22630178Y-44572621D01*
X22782399Y-44602900D01*
X22937601Y-44602900D01*
X23089822Y-44572621D01*
X23233210Y-44513228D01*
X23273928Y-44486020D01*
X23341677Y-44464806D01*
X23410144Y-44483588D01*
X23433023Y-44501690D01*
X23506306Y-44574973D01*
X23666554Y-44682047D01*
X23844611Y-44755801D01*
X24033636Y-44793400D01*
X24033637Y-44793400D01*
X24226363Y-44793400D01*
X24226364Y-44793400D01*
X24415389Y-44755801D01*
X24593446Y-44682047D01*
X24694998Y-44614191D01*
X24762751Y-44592977D01*
X24831218Y-44611760D01*
X24834989Y-44614184D01*
X24936554Y-44682047D01*
X25114611Y-44755801D01*
X25303636Y-44793400D01*
X25303637Y-44793400D01*
X25496363Y-44793400D01*
X25496364Y-44793400D01*
X25685389Y-44755801D01*
X25863446Y-44682047D01*
X25964998Y-44614191D01*
X26032751Y-44592977D01*
X26101218Y-44611760D01*
X26104989Y-44614184D01*
X26206554Y-44682047D01*
X26384611Y-44755801D01*
X26573636Y-44793400D01*
X26573637Y-44793400D01*
X26766363Y-44793400D01*
X26766364Y-44793400D01*
X26955389Y-44755801D01*
X27133446Y-44682047D01*
X27293694Y-44574973D01*
X27366978Y-44501688D01*
X27429286Y-44467666D01*
X27500102Y-44472730D01*
X27526071Y-44486020D01*
X27566790Y-44513228D01*
X27710178Y-44572621D01*
X27862399Y-44602900D01*
X28017601Y-44602900D01*
X28169822Y-44572621D01*
X28313210Y-44513228D01*
X28442257Y-44427002D01*
X28552002Y-44317257D01*
X28638228Y-44188210D01*
X28697621Y-44044822D01*
X28727900Y-43892601D01*
X28727900Y-43737399D01*
X28697621Y-43585178D01*
X28638228Y-43441790D01*
X28552002Y-43312743D01*
X28508354Y-43269095D01*
X28474328Y-43206783D01*
X28479393Y-43135968D01*
X28508354Y-43090905D01*
X28552002Y-43047257D01*
X28638228Y-42918210D01*
X28697621Y-42774822D01*
X28727900Y-42622601D01*
X28727900Y-42467399D01*
X28697621Y-42315178D01*
X28638228Y-42171790D01*
X28552002Y-42042743D01*
X28442257Y-41932998D01*
X28313210Y-41846772D01*
X28191439Y-41796333D01*
X28169825Y-41787380D01*
X28169822Y-41787379D01*
X28017604Y-41757100D01*
X28017601Y-41757100D01*
X27862399Y-41757100D01*
X27862395Y-41757100D01*
X27710177Y-41787379D01*
X27710174Y-41787380D01*
X27566789Y-41846772D01*
X27566786Y-41846773D01*
X27526070Y-41873979D01*
X27458317Y-41895193D01*
X27389850Y-41876409D01*
X27366975Y-41858308D01*
X27293696Y-41785029D01*
X27293694Y-41785027D01*
X27133446Y-41677953D01*
X26955389Y-41604199D01*
X26766366Y-41566600D01*
X26766364Y-41566600D01*
X26573636Y-41566600D01*
X26573633Y-41566600D01*
X26384610Y-41604199D01*
X26384605Y-41604201D01*
X26206555Y-41677952D01*
X26105001Y-41745808D01*
X26037248Y-41767022D01*
X25968781Y-41748239D01*
X25964999Y-41745808D01*
X25912412Y-41710671D01*
X25863446Y-41677953D01*
X25685389Y-41604199D01*
X25496366Y-41566600D01*
X25496364Y-41566600D01*
X25303636Y-41566600D01*
X25303633Y-41566600D01*
X25114610Y-41604199D01*
X25114605Y-41604201D01*
X24936553Y-41677953D01*
X24936549Y-41677955D01*
X24834551Y-41746108D01*
X24766798Y-41767323D01*
X24698332Y-41748540D01*
X24694548Y-41746108D01*
X24593210Y-41678396D01*
X24415248Y-41604682D01*
X24415243Y-41604680D01*
X24226317Y-41567100D01*
X24033682Y-41567100D01*
X23844756Y-41604680D01*
X23844751Y-41604682D01*
X23666788Y-41678396D01*
X23640303Y-41696093D01*
X23640302Y-41696093D01*
X24189636Y-42245427D01*
X24170128Y-42240200D01*
X24089872Y-42240200D01*
X24012352Y-42260972D01*
X23942848Y-42301099D01*
X23886099Y-42357848D01*
X23845972Y-42427352D01*
X23825200Y-42504872D01*
X23825200Y-42585128D01*
X23830427Y-42604637D01*
X23663681Y-42437891D01*
X23629655Y-42375579D01*
X23629211Y-42373447D01*
X23617621Y-42315178D01*
X23558228Y-42171790D01*
X23472002Y-42042743D01*
X23362257Y-41932998D01*
X23233210Y-41846772D01*
X23111439Y-41796333D01*
X23089825Y-41787380D01*
X23089822Y-41787379D01*
X22937604Y-41757100D01*
X22937601Y-41757100D01*
X22782399Y-41757100D01*
X22782395Y-41757100D01*
X22630177Y-41787379D01*
X22630174Y-41787380D01*
X22486790Y-41846772D01*
X22357744Y-41932997D01*
X22357738Y-41933002D01*
X22248002Y-42042738D01*
X22247997Y-42042744D01*
X22161772Y-42171790D01*
X22102380Y-42315174D01*
X22102379Y-42315177D01*
X22072100Y-42467395D01*
X300500Y-42467395D01*
X300500Y-16721402D01*
X4302000Y-16721402D01*
X4302000Y-17366000D01*
X5229297Y-17366000D01*
X5194075Y-17427007D01*
X5160000Y-17554174D01*
X5160000Y-17685826D01*
X5194075Y-17812993D01*
X5229297Y-17874000D01*
X4302000Y-17874000D01*
X4302000Y-18518597D01*
X4308505Y-18579093D01*
X4359555Y-18715964D01*
X4359555Y-18715965D01*
X4447095Y-18832904D01*
X4564034Y-18920444D01*
X4700906Y-18971494D01*
X4761402Y-18977999D01*
X4761415Y-18978000D01*
X5406000Y-18978000D01*
X5406000Y-18050702D01*
X5467007Y-18085925D01*
X5594174Y-18120000D01*
X5725826Y-18120000D01*
X5852993Y-18085925D01*
X5914000Y-18050702D01*
X5914000Y-18978000D01*
X6558585Y-18978000D01*
X6558597Y-18977999D01*
X6619093Y-18971494D01*
X6755964Y-18920444D01*
X6755965Y-18920444D01*
X6872904Y-18832904D01*
X6960444Y-18715965D01*
X7004478Y-18597903D01*
X7047024Y-18541067D01*
X7113544Y-18516256D01*
X7182918Y-18531347D01*
X7211629Y-18552840D01*
X7314990Y-18656201D01*
X7314993Y-18656203D01*
X7314996Y-18656206D01*
X7487991Y-18781894D01*
X7678517Y-18878972D01*
X7881878Y-18945047D01*
X7881879Y-18945047D01*
X7881884Y-18945049D01*
X8093084Y-18978500D01*
X8093087Y-18978500D01*
X8306913Y-18978500D01*
X8306916Y-18978500D01*
X8518116Y-18945049D01*
X8721483Y-18878972D01*
X8912009Y-18781894D01*
X9085004Y-18656206D01*
X9236206Y-18505004D01*
X9361894Y-18332009D01*
X9458972Y-18141483D01*
X9525049Y-17938116D01*
X9558500Y-17726916D01*
X9558500Y-17513084D01*
X9525049Y-17301884D01*
X9458972Y-17098517D01*
X9361894Y-16907991D01*
X9236206Y-16734996D01*
X9236203Y-16734993D01*
X9236201Y-16734990D01*
X9085009Y-16583798D01*
X9085006Y-16583796D01*
X9085004Y-16583794D01*
X9033467Y-16546350D01*
X11141500Y-16546350D01*
X11141500Y-17393649D01*
X11148009Y-17454196D01*
X11148011Y-17454204D01*
X11199110Y-17591202D01*
X11199112Y-17591207D01*
X11286738Y-17708261D01*
X11403792Y-17795887D01*
X11403794Y-17795888D01*
X11403796Y-17795889D01*
X11449653Y-17812993D01*
X11540795Y-17846988D01*
X11540803Y-17846990D01*
X11601350Y-17853499D01*
X11601355Y-17853499D01*
X11601362Y-17853500D01*
X11601368Y-17853500D01*
X12698632Y-17853500D01*
X12698638Y-17853500D01*
X12698645Y-17853499D01*
X12698649Y-17853499D01*
X12759196Y-17846990D01*
X12759199Y-17846989D01*
X12759201Y-17846989D01*
X12896204Y-17795889D01*
X12904056Y-17790011D01*
X12976164Y-17736032D01*
X13042684Y-17711221D01*
X13051673Y-17710900D01*
X13154941Y-17710900D01*
X13154942Y-17710900D01*
X13301946Y-17681659D01*
X13440421Y-17624301D01*
X13565046Y-17541030D01*
X13671030Y-17435046D01*
X13754301Y-17310421D01*
X13811659Y-17171946D01*
X13840900Y-17024942D01*
X13840900Y-16935055D01*
X16439100Y-16935055D01*
X16439100Y-17084944D01*
X16468341Y-17231946D01*
X16468343Y-17231951D01*
X16479650Y-17259249D01*
X16525699Y-17370421D01*
X16581680Y-17454204D01*
X16608971Y-17495047D01*
X16608976Y-17495053D01*
X16714946Y-17601023D01*
X16714952Y-17601028D01*
X16714954Y-17601030D01*
X16839579Y-17684301D01*
X16978054Y-17741659D01*
X17125058Y-17770900D01*
X17125059Y-17770900D01*
X17274942Y-17770900D01*
X17274950Y-17770899D01*
X17295260Y-17766859D01*
X17365974Y-17773185D01*
X17395349Y-17789566D01*
X17403796Y-17795889D01*
X17449653Y-17812993D01*
X17540795Y-17846988D01*
X17540803Y-17846990D01*
X17601350Y-17853499D01*
X17601355Y-17853499D01*
X17601362Y-17853500D01*
X17601368Y-17853500D01*
X18698632Y-17853500D01*
X18698638Y-17853500D01*
X18698645Y-17853499D01*
X18698649Y-17853499D01*
X18759196Y-17846990D01*
X18759199Y-17846989D01*
X18759201Y-17846989D01*
X18896204Y-17795889D01*
X18909817Y-17785699D01*
X19013261Y-17708261D01*
X19100887Y-17591207D01*
X19100887Y-17591206D01*
X19100889Y-17591204D01*
X19151989Y-17454201D01*
X19152979Y-17445000D01*
X19158499Y-17393649D01*
X19158500Y-17393632D01*
X19158500Y-16546367D01*
X19158499Y-16546350D01*
X19151990Y-16485803D01*
X19151988Y-16485795D01*
X19106687Y-16364341D01*
X19100889Y-16348796D01*
X19100888Y-16348794D01*
X19100887Y-16348792D01*
X19013261Y-16231738D01*
X18896207Y-16144112D01*
X18896202Y-16144110D01*
X18759204Y-16093011D01*
X18759196Y-16093009D01*
X18698649Y-16086500D01*
X18698638Y-16086500D01*
X17601362Y-16086500D01*
X17601350Y-16086500D01*
X17540803Y-16093009D01*
X17540795Y-16093011D01*
X17403797Y-16144110D01*
X17403796Y-16144110D01*
X17352514Y-16182500D01*
X17297118Y-16223968D01*
X17230600Y-16248779D01*
X17221611Y-16249100D01*
X17125055Y-16249100D01*
X16978053Y-16278341D01*
X16978048Y-16278343D01*
X16839578Y-16335699D01*
X16714952Y-16418971D01*
X16714946Y-16418976D01*
X16608976Y-16524946D01*
X16608971Y-16524952D01*
X16525699Y-16649578D01*
X16468343Y-16788048D01*
X16468341Y-16788053D01*
X16439100Y-16935055D01*
X13840900Y-16935055D01*
X13840900Y-16875058D01*
X13811659Y-16728054D01*
X13754301Y-16589579D01*
X13671030Y-16464954D01*
X13671028Y-16464952D01*
X13671023Y-16464946D01*
X13565053Y-16358976D01*
X13565047Y-16358971D01*
X13555790Y-16352786D01*
X13440421Y-16275699D01*
X13301946Y-16218341D01*
X13285693Y-16215108D01*
X13154944Y-16189100D01*
X13154942Y-16189100D01*
X13005058Y-16189100D01*
X12998868Y-16189100D01*
X12998868Y-16186347D01*
X12940736Y-16175231D01*
X12922803Y-16164023D01*
X12920436Y-16162251D01*
X12896204Y-16144111D01*
X12896202Y-16144110D01*
X12896201Y-16144109D01*
X12759204Y-16093011D01*
X12759196Y-16093009D01*
X12698649Y-16086500D01*
X12698638Y-16086500D01*
X11601362Y-16086500D01*
X11601350Y-16086500D01*
X11540803Y-16093009D01*
X11540795Y-16093011D01*
X11403797Y-16144110D01*
X11403792Y-16144112D01*
X11286738Y-16231738D01*
X11199112Y-16348792D01*
X11199110Y-16348797D01*
X11148011Y-16485795D01*
X11148009Y-16485803D01*
X11141500Y-16546350D01*
X9033467Y-16546350D01*
X8946248Y-16482982D01*
X8912012Y-16458108D01*
X8912011Y-16458107D01*
X8912009Y-16458106D01*
X8721483Y-16361028D01*
X8721480Y-16361027D01*
X8721478Y-16361026D01*
X8518120Y-16294952D01*
X8518123Y-16294952D01*
X8454461Y-16284869D01*
X8306916Y-16261500D01*
X8093084Y-16261500D01*
X7881941Y-16294942D01*
X7881878Y-16294952D01*
X7678521Y-16361026D01*
X7678515Y-16361029D01*
X7487987Y-16458108D01*
X7314995Y-16583794D01*
X7211629Y-16687160D01*
X7149317Y-16721185D01*
X7078501Y-16716119D01*
X7021665Y-16673573D01*
X7004478Y-16642096D01*
X6960444Y-16524034D01*
X6872904Y-16407095D01*
X6755965Y-16319555D01*
X6619093Y-16268505D01*
X6558597Y-16262000D01*
X5914000Y-16262000D01*
X5914000Y-17189297D01*
X5852993Y-17154075D01*
X5725826Y-17120000D01*
X5594174Y-17120000D01*
X5467007Y-17154075D01*
X5406000Y-17189297D01*
X5406000Y-16262000D01*
X4761402Y-16262000D01*
X4700906Y-16268505D01*
X4564035Y-16319555D01*
X4564034Y-16319555D01*
X4447095Y-16407095D01*
X4359555Y-16524034D01*
X4359555Y-16524035D01*
X4308505Y-16660906D01*
X4302000Y-16721402D01*
X300500Y-16721402D01*
X300500Y-11264000D01*
X6113461Y-11264000D01*
X6114890Y-11282173D01*
X6160570Y-11439400D01*
X6243908Y-11580318D01*
X6243914Y-11580325D01*
X6359674Y-11696085D01*
X6359681Y-11696091D01*
X6500598Y-11779429D01*
X6646000Y-11821672D01*
X6646000Y-11264000D01*
X6113461Y-11264000D01*
X300500Y-11264000D01*
X300500Y-8823543D01*
X5782000Y-8823543D01*
X5782000Y-9148500D01*
X6336000Y-9148500D01*
X6336000Y-8235007D01*
X6176598Y-8281318D01*
X6033498Y-8365948D01*
X6033496Y-8365949D01*
X5915949Y-8483496D01*
X5915948Y-8483498D01*
X5831318Y-8626598D01*
X5784934Y-8786250D01*
X5782000Y-8823543D01*
X300500Y-8823543D01*
X300500Y-2543805D01*
X300730Y-2536197D01*
X302893Y-2500438D01*
X316369Y-2277651D01*
X318200Y-2262575D01*
X364204Y-2011536D01*
X367838Y-1996792D01*
X443767Y-1753126D01*
X449156Y-1738919D01*
X553896Y-1506195D01*
X560958Y-1492739D01*
X692995Y-1274324D01*
X701613Y-1261837D01*
X859024Y-1060917D01*
X869092Y-1049554D01*
X1049554Y-869092D01*
X1060917Y-859024D01*
X1261837Y-701613D01*
X1274324Y-692995D01*
X1492739Y-560958D01*
X1506195Y-553896D01*
X1738919Y-449156D01*
X1753126Y-443767D01*
X1996792Y-367838D01*
X2011536Y-364204D01*
X2262575Y-318200D01*
X2277651Y-316369D01*
X2536198Y-300730D01*
X2543806Y-300500D01*
X2587595Y-300500D01*
X12188470Y-300500D01*
X12256591Y-320502D01*
G37*
%TD.AperFunction*%
%TA.AperFunction,Conductor*%
G36*
X25616121Y-25110002D02*
G01*
X25662614Y-25163658D01*
X25674000Y-25216000D01*
X25674000Y-25430319D01*
X25698621Y-25475408D01*
X25701500Y-25502191D01*
X25701500Y-26246500D01*
X25698908Y-26255325D01*
X25700218Y-26264432D01*
X25689062Y-26288857D01*
X25681498Y-26314621D01*
X25674544Y-26320645D01*
X25670724Y-26329012D01*
X25648138Y-26343526D01*
X25627842Y-26361114D01*
X25617155Y-26363438D01*
X25610998Y-26367396D01*
X25575500Y-26372500D01*
X25402000Y-26372500D01*
X25333879Y-26352498D01*
X25287386Y-26298842D01*
X25276000Y-26246500D01*
X25276000Y-26137007D01*
X25275999Y-26137006D01*
X25273106Y-26100247D01*
X25273050Y-26099940D01*
X25271000Y-26077305D01*
X25271000Y-26074668D01*
X25261547Y-26039389D01*
X25232885Y-25932419D01*
X25232883Y-25932416D01*
X25232883Y-25932414D01*
X25182881Y-25845808D01*
X25178663Y-25830068D01*
X25171104Y-25818306D01*
X25166000Y-25782808D01*
X25166000Y-25611378D01*
X25183547Y-25547238D01*
X25191483Y-25533819D01*
X25199894Y-25519597D01*
X25245606Y-25362254D01*
X25248499Y-25325493D01*
X25248500Y-25325493D01*
X25248500Y-25216000D01*
X25251091Y-25207174D01*
X25249782Y-25198068D01*
X25260937Y-25173642D01*
X25268502Y-25147879D01*
X25275455Y-25141854D01*
X25279276Y-25133488D01*
X25301861Y-25118973D01*
X25322158Y-25101386D01*
X25332844Y-25099061D01*
X25339002Y-25095104D01*
X25374500Y-25090000D01*
X25548000Y-25090000D01*
X25616121Y-25110002D01*
G37*
%TD.AperFunction*%
%TA.AperFunction,Conductor*%
G36*
X25225821Y-21877378D02*
G01*
X25235385Y-21877540D01*
X25246972Y-21885267D01*
X25267845Y-21893052D01*
X25329579Y-21934301D01*
X25468054Y-21991659D01*
X25615058Y-22020900D01*
X25615069Y-22020900D01*
X25619954Y-22021381D01*
X25643350Y-22030825D01*
X25668002Y-22036188D01*
X25681304Y-22046146D01*
X25685789Y-22047957D01*
X25696712Y-22057681D01*
X25774611Y-22135580D01*
X25808637Y-22197892D01*
X25803572Y-22268707D01*
X25761169Y-22325436D01*
X25744000Y-22338326D01*
X25744000Y-23024000D01*
X25723998Y-23092121D01*
X25670342Y-23138614D01*
X25618000Y-23150000D01*
X25444500Y-23150000D01*
X25376379Y-23129998D01*
X25329886Y-23076342D01*
X25318500Y-23024000D01*
X25318500Y-22914507D01*
X25318499Y-22914506D01*
X25317225Y-22898324D01*
X25315606Y-22877746D01*
X25269894Y-22720403D01*
X25261499Y-22706207D01*
X25253546Y-22692758D01*
X25236000Y-22628620D01*
X25236000Y-22338325D01*
X25222337Y-22328067D01*
X25182507Y-22277702D01*
X25177064Y-22265230D01*
X25171659Y-22238054D01*
X25114301Y-22099579D01*
X25086847Y-22058491D01*
X25082362Y-22048213D01*
X25079256Y-22023673D01*
X25071865Y-22000067D01*
X25074879Y-21989079D01*
X25073449Y-21977778D01*
X25084103Y-21955456D01*
X25090648Y-21931600D01*
X25099124Y-21923986D01*
X25104031Y-21913706D01*
X25125062Y-21900687D01*
X25143465Y-21884157D01*
X25154710Y-21882334D01*
X25164398Y-21876338D01*
X25189130Y-21876756D01*
X25213547Y-21872800D01*
X25225821Y-21877378D01*
G37*
%TD.AperFunction*%
%TA.AperFunction,Conductor*%
G36*
X27158437Y-14676302D02*
G01*
X27158439Y-14676303D01*
X27270075Y-14691000D01*
X27469924Y-14690999D01*
X27470134Y-14690971D01*
X27470196Y-14690981D01*
X27474047Y-14690729D01*
X27474103Y-14691589D01*
X27540284Y-14701893D01*
X27593394Y-14749008D01*
X27612600Y-14817358D01*
X27611535Y-14832305D01*
X27611501Y-14832559D01*
X27611500Y-14832582D01*
X27611500Y-15032423D01*
X27611501Y-15032432D01*
X27626196Y-15144057D01*
X27627759Y-15149888D01*
X27627759Y-15215108D01*
X27626197Y-15220936D01*
X27611500Y-15332573D01*
X27611500Y-15532423D01*
X27611501Y-15532432D01*
X27626196Y-15644057D01*
X27627759Y-15649888D01*
X27627759Y-15715108D01*
X27626197Y-15720936D01*
X27611500Y-15832573D01*
X27611500Y-16032423D01*
X27611501Y-16032432D01*
X27626196Y-16144057D01*
X27627759Y-16149888D01*
X27627759Y-16215108D01*
X27626197Y-16220936D01*
X27611500Y-16332573D01*
X27611500Y-16532423D01*
X27611501Y-16532432D01*
X27626196Y-16644057D01*
X27627759Y-16649888D01*
X27627759Y-16715108D01*
X27626197Y-16720936D01*
X27611500Y-16832573D01*
X27611500Y-17032423D01*
X27611501Y-17032432D01*
X27626196Y-17144057D01*
X27627759Y-17149888D01*
X27627759Y-17215108D01*
X27626197Y-17220936D01*
X27611500Y-17332573D01*
X27611500Y-17532423D01*
X27611501Y-17532427D01*
X27611532Y-17532661D01*
X27611521Y-17532730D01*
X27611771Y-17536547D01*
X27610917Y-17536602D01*
X27600594Y-17602809D01*
X27553466Y-17655909D01*
X27485113Y-17675100D01*
X27470190Y-17674034D01*
X27469945Y-17674001D01*
X27469927Y-17674000D01*
X27469925Y-17674000D01*
X27469917Y-17674000D01*
X27270076Y-17674000D01*
X27270067Y-17674001D01*
X27158437Y-17688697D01*
X27152609Y-17690259D01*
X27087389Y-17690259D01*
X27081558Y-17688696D01*
X27018698Y-17680421D01*
X26969925Y-17674000D01*
X26969921Y-17674000D01*
X26770076Y-17674000D01*
X26770067Y-17674001D01*
X26658437Y-17688697D01*
X26652609Y-17690259D01*
X26587389Y-17690259D01*
X26581558Y-17688696D01*
X26518698Y-17680421D01*
X26469925Y-17674000D01*
X26469921Y-17674000D01*
X26270076Y-17674000D01*
X26270067Y-17674001D01*
X26158437Y-17688697D01*
X26152609Y-17690259D01*
X26087389Y-17690259D01*
X26081558Y-17688696D01*
X26018698Y-17680421D01*
X25969925Y-17674000D01*
X25969921Y-17674000D01*
X25770076Y-17674000D01*
X25770067Y-17674001D01*
X25658437Y-17688697D01*
X25652609Y-17690259D01*
X25587389Y-17690259D01*
X25581558Y-17688696D01*
X25518698Y-17680421D01*
X25469925Y-17674000D01*
X25469921Y-17674000D01*
X25270076Y-17674000D01*
X25270067Y-17674001D01*
X25158437Y-17688697D01*
X25152609Y-17690259D01*
X25087389Y-17690259D01*
X25081558Y-17688696D01*
X25018698Y-17680421D01*
X24969925Y-17674000D01*
X24969921Y-17674000D01*
X24770076Y-17674000D01*
X24770064Y-17674001D01*
X24769835Y-17674032D01*
X24769766Y-17674021D01*
X24765953Y-17674271D01*
X24765897Y-17673417D01*
X24699686Y-17663092D01*
X24646588Y-17615963D01*
X24627399Y-17547609D01*
X24628467Y-17532675D01*
X24628500Y-17532425D01*
X24628499Y-17332576D01*
X24625582Y-17310421D01*
X24616978Y-17245058D01*
X24613803Y-17220939D01*
X24613801Y-17220935D01*
X24612241Y-17215111D01*
X24612242Y-17149887D01*
X24613800Y-17144067D01*
X24613803Y-17144061D01*
X24628500Y-17032425D01*
X24628499Y-16832576D01*
X24613803Y-16720939D01*
X24613801Y-16720935D01*
X24612241Y-16715111D01*
X24612242Y-16649887D01*
X24613800Y-16644067D01*
X24613803Y-16644061D01*
X24628500Y-16532425D01*
X24628499Y-16332576D01*
X24626790Y-16319597D01*
X24615225Y-16231739D01*
X24613803Y-16220939D01*
X24613801Y-16220935D01*
X24612241Y-16215111D01*
X24612242Y-16149887D01*
X24613800Y-16144067D01*
X24613803Y-16144061D01*
X24628500Y-16032425D01*
X24628499Y-15832576D01*
X24613803Y-15720939D01*
X24613801Y-15720935D01*
X24612241Y-15715111D01*
X24612242Y-15649887D01*
X24613800Y-15644067D01*
X24613803Y-15644061D01*
X24628500Y-15532425D01*
X24628499Y-15332576D01*
X24613803Y-15220939D01*
X24613801Y-15220935D01*
X24612241Y-15215111D01*
X24612242Y-15149887D01*
X24613800Y-15144067D01*
X24613803Y-15144061D01*
X24628500Y-15032425D01*
X24628499Y-14832576D01*
X24628470Y-14832359D01*
X24628480Y-14832294D01*
X24628229Y-14828453D01*
X24629087Y-14828396D01*
X24639395Y-14762212D01*
X24686512Y-14709103D01*
X24754861Y-14689899D01*
X24769829Y-14690967D01*
X24770075Y-14691000D01*
X24969924Y-14690999D01*
X24970160Y-14690968D01*
X24978280Y-14689899D01*
X25081561Y-14676303D01*
X25081569Y-14676299D01*
X25087386Y-14674742D01*
X25152610Y-14674741D01*
X25158437Y-14676302D01*
X25158439Y-14676303D01*
X25270075Y-14691000D01*
X25469924Y-14690999D01*
X25470160Y-14690968D01*
X25478280Y-14689899D01*
X25581561Y-14676303D01*
X25581569Y-14676299D01*
X25587386Y-14674742D01*
X25652610Y-14674741D01*
X25658437Y-14676302D01*
X25658439Y-14676303D01*
X25770075Y-14691000D01*
X25969924Y-14690999D01*
X25970160Y-14690968D01*
X25978280Y-14689899D01*
X26081561Y-14676303D01*
X26081569Y-14676299D01*
X26087386Y-14674742D01*
X26152610Y-14674741D01*
X26158437Y-14676302D01*
X26158439Y-14676303D01*
X26270075Y-14691000D01*
X26469924Y-14690999D01*
X26470160Y-14690968D01*
X26478280Y-14689899D01*
X26581561Y-14676303D01*
X26581569Y-14676299D01*
X26587386Y-14674742D01*
X26652610Y-14674741D01*
X26658437Y-14676302D01*
X26658439Y-14676303D01*
X26770075Y-14691000D01*
X26969924Y-14690999D01*
X26970160Y-14690968D01*
X26978280Y-14689899D01*
X27081561Y-14676303D01*
X27081569Y-14676299D01*
X27087386Y-14674742D01*
X27152610Y-14674741D01*
X27158437Y-14676302D01*
G37*
%TD.AperFunction*%
%TA.AperFunction,Conductor*%
G36*
X35162177Y-11920902D02*
G01*
X35183151Y-11937805D01*
X35289669Y-12044323D01*
X35323695Y-12106635D01*
X35318630Y-12177450D01*
X35304000Y-12197022D01*
X35304000Y-12503620D01*
X35286454Y-12567758D01*
X35270107Y-12595399D01*
X35224393Y-12752747D01*
X35224393Y-12752748D01*
X35221500Y-12789506D01*
X35221500Y-12899000D01*
X35201498Y-12967121D01*
X35147842Y-13013614D01*
X35095500Y-13025000D01*
X35050000Y-13025000D01*
X35050000Y-13153000D01*
X35029998Y-13221121D01*
X34976342Y-13267614D01*
X34924000Y-13279000D01*
X34429832Y-13279000D01*
X34365694Y-13261453D01*
X34329597Y-13240106D01*
X34172252Y-13194393D01*
X34135493Y-13191500D01*
X34135484Y-13191500D01*
X33664516Y-13191500D01*
X33664507Y-13191500D01*
X33627748Y-13194393D01*
X33627747Y-13194393D01*
X33470401Y-13240106D01*
X33442760Y-13256454D01*
X33378621Y-13274000D01*
X33088327Y-13274000D01*
X33130570Y-13419401D01*
X33140014Y-13435369D01*
X33157474Y-13504185D01*
X33140017Y-13563643D01*
X33130104Y-13580405D01*
X33084394Y-13737744D01*
X33084393Y-13737748D01*
X33081500Y-13774506D01*
X33081500Y-14185493D01*
X33084393Y-14222246D01*
X33084817Y-14224567D01*
X33084679Y-14225875D01*
X33084899Y-14228670D01*
X33084380Y-14228710D01*
X33077376Y-14295173D01*
X33032945Y-14350547D01*
X32965629Y-14373110D01*
X32960866Y-14373200D01*
X29711958Y-14373200D01*
X29643837Y-14353198D01*
X29597344Y-14299542D01*
X29587240Y-14229268D01*
X29616734Y-14164688D01*
X29622848Y-14158119D01*
X31014969Y-12766000D01*
X33088327Y-12766000D01*
X33646000Y-12766000D01*
X33646000Y-12233459D01*
X34154000Y-12233459D01*
X34154000Y-12766000D01*
X34796000Y-12766000D01*
X34796000Y-12213326D01*
X34650599Y-12255570D01*
X34533001Y-12325117D01*
X34464185Y-12342576D01*
X34404724Y-12325117D01*
X34329398Y-12280569D01*
X34172173Y-12234890D01*
X34154000Y-12233459D01*
X33646000Y-12233459D01*
X33627828Y-12234890D01*
X33627825Y-12234890D01*
X33470598Y-12280570D01*
X33329681Y-12363908D01*
X33329674Y-12363914D01*
X33213914Y-12479674D01*
X33213908Y-12479681D01*
X33130570Y-12620598D01*
X33088327Y-12766000D01*
X31014969Y-12766000D01*
X31247551Y-12533418D01*
X31281845Y-12474019D01*
X31300585Y-12441558D01*
X31320603Y-12415471D01*
X31391030Y-12345046D01*
X31474301Y-12220421D01*
X31531659Y-12081946D01*
X31547498Y-12002317D01*
X31580406Y-11939408D01*
X31642101Y-11904277D01*
X31671077Y-11900900D01*
X35094056Y-11900900D01*
X35162177Y-11920902D01*
G37*
%TD.AperFunction*%
%TA.AperFunction,Conductor*%
G36*
X23752844Y-13004074D02*
G01*
X23789072Y-13065132D01*
X23786538Y-13136083D01*
X23783395Y-13144510D01*
X23751684Y-13221069D01*
X23737000Y-13332603D01*
X23737000Y-13624300D01*
X23716998Y-13692421D01*
X23663342Y-13738914D01*
X23611000Y-13750300D01*
X23226900Y-13750300D01*
X23158779Y-13730298D01*
X23112286Y-13676642D01*
X23100900Y-13624300D01*
X23100900Y-13595059D01*
X23100899Y-13595055D01*
X23097985Y-13580405D01*
X23071659Y-13448054D01*
X23014301Y-13309579D01*
X22974158Y-13249501D01*
X22952944Y-13181749D01*
X22971727Y-13113282D01*
X23024545Y-13065839D01*
X23078924Y-13053500D01*
X23360719Y-13053500D01*
X23360726Y-13053500D01*
X23478469Y-13037999D01*
X23618773Y-12979883D01*
X23689357Y-12972295D01*
X23752844Y-13004074D01*
G37*
%TD.AperFunction*%
%TA.AperFunction,Conductor*%
G36*
X20989940Y-12976133D02*
G01*
X20991432Y-12975919D01*
X21020766Y-12983966D01*
X21021591Y-12984176D01*
X21151531Y-13037999D01*
X21152096Y-13038073D01*
X21160197Y-13041419D01*
X21181730Y-13058735D01*
X21205333Y-13073121D01*
X21208995Y-13080659D01*
X21215524Y-13085910D01*
X21224278Y-13112121D01*
X21236355Y-13136982D01*
X21235360Y-13145301D01*
X21238015Y-13153250D01*
X21238100Y-13157878D01*
X21238100Y-13394345D01*
X21218098Y-13462466D01*
X21164442Y-13508959D01*
X21129043Y-13518131D01*
X21129154Y-13518736D01*
X21122819Y-13519892D01*
X21008653Y-13553061D01*
X20937657Y-13552858D01*
X20878040Y-13514304D01*
X20848732Y-13449639D01*
X20847500Y-13432064D01*
X20847500Y-13100637D01*
X20856874Y-13068711D01*
X20865071Y-13036456D01*
X20866825Y-13034818D01*
X20867502Y-13032516D01*
X20892650Y-13010724D01*
X20916983Y-12988023D01*
X20919344Y-12987594D01*
X20921158Y-12986023D01*
X20954100Y-12981286D01*
X20986838Y-12975345D01*
X20989940Y-12976133D01*
G37*
%TD.AperFunction*%
%TA.AperFunction,Conductor*%
G36*
X28276929Y-9819403D02*
G01*
X28305644Y-9840898D01*
X30026435Y-11561688D01*
X30060460Y-11624000D01*
X30060919Y-11675364D01*
X30039100Y-11785052D01*
X30039100Y-11934944D01*
X30063289Y-12056547D01*
X30056961Y-12127261D01*
X30028805Y-12170224D01*
X28718594Y-13480436D01*
X28656282Y-13514461D01*
X28585467Y-13509397D01*
X28528631Y-13466850D01*
X28503820Y-13400330D01*
X28503499Y-13391341D01*
X28503499Y-13332575D01*
X28503498Y-13332567D01*
X28500472Y-13309579D01*
X28488803Y-13220939D01*
X28438891Y-13100441D01*
X28437238Y-13092130D01*
X28434404Y-13087721D01*
X28429300Y-13052223D01*
X28429300Y-13016059D01*
X28449302Y-12947938D01*
X28450538Y-12946052D01*
X28454301Y-12940421D01*
X28511659Y-12801946D01*
X28540900Y-12654942D01*
X28540900Y-12505058D01*
X28511659Y-12358054D01*
X28454301Y-12219579D01*
X28371030Y-12094954D01*
X28371028Y-12094952D01*
X28371023Y-12094946D01*
X28265053Y-11988976D01*
X28265047Y-11988971D01*
X28219807Y-11958743D01*
X28140421Y-11905699D01*
X28001946Y-11848341D01*
X27854944Y-11819100D01*
X27854942Y-11819100D01*
X27705058Y-11819100D01*
X27705055Y-11819100D01*
X27558053Y-11848341D01*
X27558048Y-11848343D01*
X27419578Y-11905699D01*
X27294952Y-11988971D01*
X27294946Y-11988976D01*
X27188976Y-12094946D01*
X27188971Y-12094952D01*
X27105699Y-12219578D01*
X27048343Y-12358048D01*
X27048341Y-12358053D01*
X27019100Y-12505055D01*
X27019100Y-12654948D01*
X27019662Y-12660659D01*
X27006428Y-12730411D01*
X26957584Y-12781936D01*
X26894269Y-12799000D01*
X26770076Y-12799000D01*
X26770067Y-12799001D01*
X26658437Y-12813697D01*
X26652609Y-12815259D01*
X26587389Y-12815259D01*
X26581558Y-12813696D01*
X26515887Y-12805051D01*
X26469925Y-12799000D01*
X26469921Y-12799000D01*
X26270076Y-12799000D01*
X26270067Y-12799001D01*
X26158437Y-12813697D01*
X26152609Y-12815259D01*
X26087389Y-12815259D01*
X26081558Y-12813696D01*
X25969926Y-12799000D01*
X25778983Y-12799000D01*
X25710862Y-12778998D01*
X25680300Y-12743727D01*
X25679475Y-12744347D01*
X25670636Y-12732574D01*
X25664369Y-12725342D01*
X25664170Y-12723963D01*
X25641673Y-12694000D01*
X25326058Y-12694000D01*
X25257937Y-12673998D01*
X25211444Y-12620342D01*
X25201340Y-12550068D01*
X25230834Y-12485488D01*
X25290560Y-12447104D01*
X25293405Y-12446304D01*
X25340878Y-12433584D01*
X25468414Y-12359951D01*
X25572547Y-12255818D01*
X27282551Y-10545814D01*
X27303292Y-10509889D01*
X27356184Y-10418278D01*
X27394300Y-10276029D01*
X27394300Y-10020100D01*
X27414302Y-9951979D01*
X27467958Y-9905486D01*
X27520300Y-9894100D01*
X27933632Y-9894100D01*
X27933638Y-9894100D01*
X27933645Y-9894099D01*
X27933649Y-9894099D01*
X27994196Y-9887590D01*
X27994197Y-9887589D01*
X27994201Y-9887589D01*
X28131204Y-9836489D01*
X28141038Y-9829126D01*
X28207554Y-9804314D01*
X28276929Y-9819403D01*
G37*
%TD.AperFunction*%
%TA.AperFunction,Conductor*%
G36*
X23156914Y-5160902D02*
G01*
X23203407Y-5214558D01*
X23213511Y-5284832D01*
X23205202Y-5315118D01*
X23157575Y-5430099D01*
X23157573Y-5430104D01*
X23130500Y-5566210D01*
X23130500Y-5566213D01*
X23130500Y-5704987D01*
X23157573Y-5841095D01*
X23210680Y-5969306D01*
X23287779Y-6084693D01*
X23385907Y-6182821D01*
X23501294Y-6259920D01*
X23629505Y-6313027D01*
X23765613Y-6340100D01*
X23765614Y-6340100D01*
X23904386Y-6340100D01*
X23904387Y-6340100D01*
X24040495Y-6313027D01*
X24168706Y-6259920D01*
X24284093Y-6182821D01*
X24382221Y-6084693D01*
X24459320Y-5969306D01*
X24512427Y-5841095D01*
X24539500Y-5704987D01*
X24539500Y-5566213D01*
X24512427Y-5430105D01*
X24464798Y-5315118D01*
X24461235Y-5281978D01*
X24456489Y-5248968D01*
X24457458Y-5246845D01*
X24457209Y-5244528D01*
X24472136Y-5214707D01*
X24485983Y-5184388D01*
X24487943Y-5183128D01*
X24488988Y-5181041D01*
X24517678Y-5164018D01*
X24545709Y-5146004D01*
X24548786Y-5145561D01*
X24550046Y-5144814D01*
X24581207Y-5140900D01*
X24661456Y-5140900D01*
X24729577Y-5160902D01*
X24750551Y-5177805D01*
X25934751Y-6362005D01*
X25968777Y-6424317D01*
X25963712Y-6495132D01*
X25921165Y-6551968D01*
X25854645Y-6576779D01*
X25845656Y-6577100D01*
X25736350Y-6577100D01*
X25675804Y-6583609D01*
X25668133Y-6585423D01*
X25667663Y-6583436D01*
X25607486Y-6587733D01*
X25599398Y-6585358D01*
X25594096Y-6584105D01*
X25533597Y-6577600D01*
X25485000Y-6577600D01*
X25485000Y-6611911D01*
X25464998Y-6680032D01*
X25434513Y-6712776D01*
X25421740Y-6722338D01*
X25421736Y-6722342D01*
X25334112Y-6839392D01*
X25334110Y-6839397D01*
X25283011Y-6976395D01*
X25283009Y-6976403D01*
X25276500Y-7036950D01*
X25276500Y-8109600D01*
X25273908Y-8118425D01*
X25275218Y-8127532D01*
X25264062Y-8151957D01*
X25256498Y-8177721D01*
X25249544Y-8183745D01*
X25245724Y-8192112D01*
X25223138Y-8206626D01*
X25202842Y-8224214D01*
X25192155Y-8226538D01*
X25185998Y-8230496D01*
X25150500Y-8235600D01*
X25111000Y-8235600D01*
X25042879Y-8215598D01*
X24996386Y-8161942D01*
X24985000Y-8109600D01*
X24985000Y-6577600D01*
X24936402Y-6577600D01*
X24875903Y-6584105D01*
X24868234Y-6585918D01*
X24867721Y-6583749D01*
X24808203Y-6588001D01*
X24798409Y-6585124D01*
X24794096Y-6584105D01*
X24733597Y-6577600D01*
X24685000Y-6577600D01*
X24685000Y-9905140D01*
X24705145Y-9942032D01*
X24700080Y-10012847D01*
X24671120Y-10057910D01*
X24042736Y-10686295D01*
X24015367Y-10701239D01*
X23989138Y-10718096D01*
X23982836Y-10719002D01*
X23980423Y-10720320D01*
X23953640Y-10723200D01*
X23746609Y-10723200D01*
X23678488Y-10703198D01*
X23669914Y-10697169D01*
X23624974Y-10662685D01*
X23604775Y-10654318D01*
X23478467Y-10602000D01*
X23360728Y-10586500D01*
X23360726Y-10586500D01*
X22969274Y-10586500D01*
X22969271Y-10586500D01*
X22851530Y-10602001D01*
X22705026Y-10662684D01*
X22705022Y-10662686D01*
X22704203Y-10663315D01*
X22703387Y-10663630D01*
X22697877Y-10666812D01*
X22697380Y-10665952D01*
X22637981Y-10688911D01*
X22568433Y-10674641D01*
X22538412Y-10652442D01*
X21994665Y-10108695D01*
X21960639Y-10046383D01*
X21965704Y-9975568D01*
X22008251Y-9918732D01*
X22074771Y-9893921D01*
X22083760Y-9893600D01*
X22633585Y-9893600D01*
X22633597Y-9893599D01*
X22694093Y-9887094D01*
X22830964Y-9836044D01*
X22830965Y-9836044D01*
X22947904Y-9748504D01*
X23035444Y-9631565D01*
X23035444Y-9631564D01*
X23086494Y-9494693D01*
X23092999Y-9434197D01*
X23677000Y-9434197D01*
X23683505Y-9494693D01*
X23734555Y-9631564D01*
X23734555Y-9631565D01*
X23822095Y-9748504D01*
X23939034Y-9836044D01*
X24075906Y-9887094D01*
X24136402Y-9893599D01*
X24136415Y-9893600D01*
X24185000Y-9893600D01*
X24185000Y-8485600D01*
X23677000Y-8485600D01*
X23677000Y-9434197D01*
X23092999Y-9434197D01*
X23093000Y-9434185D01*
X23093000Y-8389600D01*
X20077000Y-8389600D01*
X20077000Y-9414700D01*
X20074408Y-9423525D01*
X20075718Y-9432632D01*
X20064562Y-9457057D01*
X20056998Y-9482821D01*
X20050044Y-9488845D01*
X20046224Y-9497212D01*
X20023638Y-9511726D01*
X20003342Y-9529314D01*
X19992655Y-9531638D01*
X19986498Y-9535596D01*
X19951000Y-9540700D01*
X19723860Y-9540700D01*
X19655739Y-9520698D01*
X19634765Y-9503795D01*
X18246205Y-8115235D01*
X18212179Y-8052923D01*
X18209300Y-8026140D01*
X18209300Y-6837002D01*
X20077000Y-6837002D01*
X20077000Y-7881600D01*
X21331000Y-7881600D01*
X21839000Y-7881600D01*
X23093000Y-7881600D01*
X23093000Y-7037002D01*
X23677000Y-7037002D01*
X23677000Y-7985600D01*
X24185000Y-7985600D01*
X24185000Y-6577600D01*
X24136402Y-6577600D01*
X24075906Y-6584105D01*
X23939035Y-6635155D01*
X23939034Y-6635155D01*
X23822095Y-6722695D01*
X23734555Y-6839634D01*
X23734555Y-6839635D01*
X23683505Y-6976506D01*
X23677000Y-7037002D01*
X23093000Y-7037002D01*
X23093000Y-6837014D01*
X23092999Y-6837002D01*
X23086494Y-6776506D01*
X23035444Y-6639635D01*
X23035444Y-6639634D01*
X22947904Y-6522695D01*
X22830965Y-6435155D01*
X22694093Y-6384105D01*
X22633597Y-6377600D01*
X21839000Y-6377600D01*
X21839000Y-7881600D01*
X21331000Y-7881600D01*
X21331000Y-6377600D01*
X20536402Y-6377600D01*
X20475906Y-6384105D01*
X20339035Y-6435155D01*
X20339034Y-6435155D01*
X20222095Y-6522695D01*
X20134555Y-6639634D01*
X20134555Y-6639635D01*
X20083505Y-6776506D01*
X20077000Y-6837002D01*
X18209300Y-6837002D01*
X18209300Y-5266900D01*
X18229302Y-5198779D01*
X18282958Y-5152286D01*
X18335300Y-5140900D01*
X23088793Y-5140900D01*
X23156914Y-5160902D01*
G37*
%TD.AperFunction*%
%TA.AperFunction,Conductor*%
G36*
X35885660Y-301006D02*
G01*
X35887396Y-300548D01*
X35919584Y-310967D01*
X35952057Y-320502D01*
X35953232Y-321859D01*
X35954941Y-322412D01*
X35976392Y-348586D01*
X35998550Y-374158D01*
X35998805Y-375934D01*
X35999944Y-377324D01*
X36003837Y-410930D01*
X36008654Y-444432D01*
X36007907Y-446066D01*
X36008114Y-447849D01*
X35993218Y-478229D01*
X35979160Y-509012D01*
X35977397Y-510497D01*
X35976859Y-511596D01*
X35949121Y-534328D01*
X35884844Y-573184D01*
X35884839Y-573188D01*
X35763188Y-694839D01*
X35763184Y-694844D01*
X35674172Y-842088D01*
X35674170Y-842093D01*
X35622986Y-1006353D01*
X35616500Y-1077737D01*
X35616500Y-1592261D01*
X35622986Y-1663646D01*
X35622986Y-1663647D01*
X35674170Y-1827906D01*
X35674172Y-1827911D01*
X35763184Y-1975155D01*
X35763188Y-1975160D01*
X35858933Y-2070905D01*
X35892959Y-2133217D01*
X35887894Y-2204032D01*
X35858933Y-2249095D01*
X35763188Y-2344839D01*
X35763184Y-2344844D01*
X35674172Y-2492088D01*
X35674170Y-2492093D01*
X35622986Y-2656353D01*
X35616500Y-2727737D01*
X35616500Y-3242261D01*
X35622986Y-3313646D01*
X35622986Y-3313647D01*
X35674170Y-3477906D01*
X35674172Y-3477911D01*
X35763184Y-3625155D01*
X35763188Y-3625160D01*
X35884839Y-3746811D01*
X35884842Y-3746813D01*
X35884845Y-3746816D01*
X35979886Y-3804270D01*
X36027833Y-3856627D01*
X36040700Y-3912097D01*
X36040700Y-5076141D01*
X36020698Y-5144262D01*
X36003795Y-5165236D01*
X32208095Y-8960936D01*
X32145783Y-8994962D01*
X32074968Y-8989897D01*
X32018132Y-8947350D01*
X31993321Y-8880830D01*
X31993000Y-8871841D01*
X31993000Y-8389600D01*
X30739000Y-8389600D01*
X30739000Y-9893601D01*
X30775566Y-9930167D01*
X30809592Y-9992479D01*
X30804527Y-10063294D01*
X30790296Y-10090651D01*
X30783743Y-10100180D01*
X30778970Y-10104954D01*
X30727638Y-10181777D01*
X30727157Y-10182478D01*
X30700236Y-10204374D01*
X30673620Y-10226619D01*
X30672755Y-10226727D01*
X30672080Y-10227277D01*
X30637578Y-10231145D01*
X30603177Y-10235466D01*
X30602392Y-10235090D01*
X30601525Y-10235188D01*
X30570373Y-10219771D01*
X30539133Y-10204825D01*
X30537998Y-10203749D01*
X30537894Y-10203698D01*
X30537828Y-10203588D01*
X30534237Y-10200184D01*
X30267905Y-9933852D01*
X30233879Y-9871540D01*
X30231000Y-9844757D01*
X30231000Y-8389600D01*
X28976999Y-8389600D01*
X28940095Y-8426504D01*
X28937426Y-8423835D01*
X28903342Y-8453370D01*
X28833068Y-8463474D01*
X28768488Y-8433980D01*
X28761905Y-8427851D01*
X28430405Y-8096351D01*
X28396379Y-8034039D01*
X28393500Y-8007256D01*
X28393500Y-7036967D01*
X28393499Y-7036950D01*
X28386990Y-6976403D01*
X28386988Y-6976395D01*
X28350164Y-6877668D01*
X28335889Y-6839396D01*
X28335887Y-6839392D01*
X28334098Y-6837002D01*
X28977000Y-6837002D01*
X28977000Y-7881600D01*
X30231000Y-7881600D01*
X30739000Y-7881600D01*
X31993000Y-7881600D01*
X31993000Y-6837014D01*
X31992999Y-6837002D01*
X31986494Y-6776506D01*
X31935444Y-6639635D01*
X31935444Y-6639634D01*
X31847904Y-6522695D01*
X31730965Y-6435155D01*
X31594093Y-6384105D01*
X31533597Y-6377600D01*
X30739000Y-6377600D01*
X30739000Y-7881600D01*
X30231000Y-7881600D01*
X30231000Y-6377600D01*
X29436402Y-6377600D01*
X29375906Y-6384105D01*
X29239035Y-6435155D01*
X29239034Y-6435155D01*
X29122095Y-6522695D01*
X29034555Y-6639634D01*
X29034555Y-6639635D01*
X28983505Y-6776506D01*
X28977000Y-6837002D01*
X28334098Y-6837002D01*
X28248261Y-6722338D01*
X28131204Y-6634710D01*
X28070061Y-6611905D01*
X28060864Y-6605994D01*
X28053709Y-6604438D01*
X28024999Y-6582945D01*
X27980648Y-6538594D01*
X27946622Y-6476282D01*
X27951687Y-6405467D01*
X27994234Y-6348631D01*
X28060754Y-6323820D01*
X28094323Y-6325919D01*
X28165613Y-6340100D01*
X28165614Y-6340100D01*
X28304386Y-6340100D01*
X28304387Y-6340100D01*
X28440495Y-6313027D01*
X28568706Y-6259920D01*
X28684093Y-6182821D01*
X28782221Y-6084693D01*
X28859320Y-5969306D01*
X28912427Y-5841095D01*
X28939500Y-5704987D01*
X28939500Y-5566213D01*
X28912427Y-5430105D01*
X28859320Y-5301894D01*
X28782221Y-5186507D01*
X28684093Y-5088379D01*
X28568706Y-5011280D01*
X28440495Y-4958173D01*
X28304389Y-4931100D01*
X28304387Y-4931100D01*
X28165613Y-4931100D01*
X28165610Y-4931100D01*
X28029504Y-4958173D01*
X28029499Y-4958175D01*
X27901294Y-5011280D01*
X27785911Y-5088376D01*
X27785904Y-5088381D01*
X27687781Y-5186504D01*
X27687776Y-5186511D01*
X27610680Y-5301894D01*
X27557575Y-5430099D01*
X27557573Y-5430104D01*
X27530500Y-5566210D01*
X27530500Y-5704994D01*
X27544679Y-5776276D01*
X27538351Y-5846990D01*
X27494796Y-5903056D01*
X27427843Y-5926675D01*
X27358749Y-5910348D01*
X27332005Y-5889951D01*
X25408701Y-3966647D01*
X25408699Y-3966645D01*
X25360137Y-3934197D01*
X28977000Y-3934197D01*
X28983505Y-3994693D01*
X29034555Y-4131564D01*
X29034555Y-4131565D01*
X29122095Y-4248504D01*
X29239034Y-4336044D01*
X29375906Y-4387094D01*
X29436402Y-4393599D01*
X29436415Y-4393600D01*
X30231000Y-4393600D01*
X30739000Y-4393600D01*
X31533585Y-4393600D01*
X31533597Y-4393599D01*
X31594093Y-4387094D01*
X31730964Y-4336044D01*
X31730965Y-4336044D01*
X31847904Y-4248504D01*
X31935444Y-4131565D01*
X31935444Y-4131564D01*
X31986494Y-3994693D01*
X31992999Y-3934197D01*
X31993000Y-3934185D01*
X31993000Y-2889600D01*
X30739000Y-2889600D01*
X30739000Y-4393600D01*
X30231000Y-4393600D01*
X30231000Y-2889600D01*
X28977000Y-2889600D01*
X28977000Y-3934197D01*
X25360137Y-3934197D01*
X25300454Y-3894318D01*
X25206060Y-3855219D01*
X25180182Y-3844500D01*
X25180177Y-3844498D01*
X25052495Y-3819100D01*
X25052493Y-3819100D01*
X23219000Y-3819100D01*
X23150879Y-3799098D01*
X23104386Y-3745442D01*
X23093000Y-3693100D01*
X23093000Y-2889600D01*
X20077000Y-2889600D01*
X20077000Y-3693100D01*
X20056998Y-3761221D01*
X20003342Y-3807714D01*
X19951000Y-3819100D01*
X16182975Y-3819100D01*
X16114854Y-3799098D01*
X16068361Y-3745442D01*
X16058257Y-3675168D01*
X16075147Y-3627915D01*
X16076814Y-3625156D01*
X16076816Y-3625155D01*
X16165827Y-3477913D01*
X16217013Y-3313649D01*
X16223500Y-3242265D01*
X16223499Y-2727736D01*
X16217013Y-2656351D01*
X16165827Y-2492087D01*
X16076816Y-2344845D01*
X16076815Y-2344844D01*
X16076811Y-2344839D01*
X15981067Y-2249095D01*
X15947041Y-2186783D01*
X15952106Y-2115968D01*
X15981067Y-2070905D01*
X16076811Y-1975160D01*
X16076816Y-1975155D01*
X16165827Y-1827913D01*
X16217013Y-1663649D01*
X16223500Y-1592265D01*
X16223500Y-1337002D01*
X20077000Y-1337002D01*
X20077000Y-2381600D01*
X21331000Y-2381600D01*
X21839000Y-2381600D01*
X23093000Y-2381600D01*
X23093000Y-1337014D01*
X23092999Y-1337002D01*
X28977000Y-1337002D01*
X28977000Y-2381600D01*
X30231000Y-2381600D01*
X30739000Y-2381600D01*
X31993000Y-2381600D01*
X31993000Y-1337014D01*
X31992999Y-1337002D01*
X31986494Y-1276506D01*
X31935444Y-1139635D01*
X31935444Y-1139634D01*
X31847904Y-1022695D01*
X31730965Y-935155D01*
X31594093Y-884105D01*
X31533597Y-877600D01*
X30739000Y-877600D01*
X30739000Y-2381600D01*
X30231000Y-2381600D01*
X30231000Y-877600D01*
X29436402Y-877600D01*
X29375906Y-884105D01*
X29239035Y-935155D01*
X29239034Y-935155D01*
X29122095Y-1022695D01*
X29034555Y-1139634D01*
X29034555Y-1139635D01*
X28983505Y-1276506D01*
X28977000Y-1337002D01*
X23092999Y-1337002D01*
X23086494Y-1276506D01*
X23035444Y-1139635D01*
X23035444Y-1139634D01*
X22947904Y-1022695D01*
X22830965Y-935155D01*
X22694093Y-884105D01*
X22633597Y-877600D01*
X21839000Y-877600D01*
X21839000Y-2381600D01*
X21331000Y-2381600D01*
X21331000Y-877600D01*
X20536402Y-877600D01*
X20475906Y-884105D01*
X20339035Y-935155D01*
X20339034Y-935155D01*
X20222095Y-1022695D01*
X20134555Y-1139634D01*
X20134555Y-1139635D01*
X20083505Y-1276506D01*
X20077000Y-1337002D01*
X16223500Y-1337002D01*
X16223499Y-1077736D01*
X16217013Y-1006351D01*
X16176893Y-877600D01*
X16165829Y-842093D01*
X16165827Y-842088D01*
X16165827Y-842087D01*
X16076816Y-694845D01*
X16076815Y-694844D01*
X16076811Y-694839D01*
X15955160Y-573188D01*
X15955155Y-573184D01*
X15890879Y-534328D01*
X15842931Y-481969D01*
X15830901Y-411999D01*
X15858610Y-346633D01*
X15917260Y-306624D01*
X15956064Y-300500D01*
X35883936Y-300500D01*
X35885660Y-301006D01*
G37*
%TD.AperFunction*%
%TD*%
M02*
