%TF.GenerationSoftware,KiCad,Pcbnew,10.0.2*%
%TF.CreationDate,2026-09-07T16:51:00-04:00*%
%TF.ProjectId,tagbase-lipo-v1,74616762-6173-4652-9d6c-69706f2d7631,rev?*%
%TF.SameCoordinates,Original*%
%TF.FileFunction,Copper,L3,Inr*%
%TF.FilePolarity,Positive*%
%FSLAX46Y46*%
G04 Gerber Fmt 4.6, Leading zero omitted, Abs format (unit mm)*
G04 Created by KiCad (PCBNEW 10.0.2) date 2026-09-07 16:51:00*
%MOMM*%
%LPD*%
G01*
G04 APERTURE LIST*
G04 Aperture macros list*
%AMRoundRect*
0 Rectangle with rounded corners*
0 $1 Rounding radius*
0 $2 $3 $4 $5 $6 $7 $8 $9 X,Y pos of 4 corners*
0 Add a 4 corners polygon primitive as box body*
4,1,4,$2,$3,$4,$5,$6,$7,$8,$9,$2,$3,0*
0 Add four circle primitives for the rounded corners*
1,1,$1+$1,$2,$3*
1,1,$1+$1,$4,$5*
1,1,$1+$1,$6,$7*
1,1,$1+$1,$8,$9*
0 Add four rect primitives between the rounded corners*
20,1,$1+$1,$2,$3,$4,$5,0*
20,1,$1+$1,$4,$5,$6,$7,0*
20,1,$1+$1,$6,$7,$8,$9,0*
20,1,$1+$1,$8,$9,$2,$3,0*%
G04 Aperture macros list end*
%TA.AperFunction,ComponentPad*%
%ADD10C,1.016000*%
%TD*%
%TA.AperFunction,ComponentPad*%
%ADD11C,0.939800*%
%TD*%
%TA.AperFunction,ComponentPad*%
%ADD12RoundRect,0.250000X0.725000X-0.600000X0.725000X0.600000X-0.725000X0.600000X-0.725000X-0.600000X0*%
%TD*%
%TA.AperFunction,ComponentPad*%
%ADD13O,1.950000X1.700000*%
%TD*%
%TA.AperFunction,ComponentPad*%
%ADD14R,1.700000X1.700000*%
%TD*%
%TA.AperFunction,ComponentPad*%
%ADD15C,1.700000*%
%TD*%
%TA.AperFunction,ViaPad*%
%ADD16C,0.504800*%
%TD*%
G04 APERTURE END LIST*
D10*
%TO.N,+3V3*%
%TO.C,J102*%
X13265000Y-7360000D03*
%TO.N,/SWDIO*%
X14535000Y-7360000D03*
%TO.N,GND*%
X13265000Y-8630000D03*
%TO.N,/SCLK*%
X14535000Y-8630000D03*
%TO.N,GND*%
X13265000Y-9900000D03*
%TO.N,unconnected-(J102-Pin_6-Pad6)*%
X14535000Y-9900000D03*
%TO.N,unconnected-(J102-Pin_7-Pad7)*%
X13265000Y-11170000D03*
%TO.N,unconnected-(J102-Pin_8-Pad8)*%
X14535000Y-11170000D03*
%TO.N,GND*%
X13265000Y-12440000D03*
%TO.N,NRST*%
X14535000Y-12440000D03*
%TD*%
D11*
%TO.N,TAG_RESET*%
%TO.C,J101*%
X24130000Y-43815000D03*
%TO.N,GND*%
X24130000Y-42545000D03*
%TO.N,TAG_SWDIO*%
X25400000Y-43815000D03*
%TO.N,TAG_SCK*%
X25400000Y-42545000D03*
%TO.N,TAG_3V3*%
X26670000Y-43815000D03*
X26670000Y-42545000D03*
%TD*%
D12*
%TO.N,unconnected-(J1-Pin_1-Pad1)*%
%TO.C,J1*%
X45940000Y-15410000D03*
D13*
%TO.N,TAG_3V3_IN*%
X45940000Y-12910000D03*
%TO.N,unconnected-(J1-Pin_3-Pad3)*%
X45940000Y-10410000D03*
%TO.N,GND*%
X45940000Y-7910000D03*
%TD*%
D14*
%TO.N,GND*%
%TO.C,J5*%
X5660000Y-17620000D03*
D15*
%TO.N,/UART_TX*%
X8200000Y-17620000D03*
%TD*%
D16*
%TO.N,+3V3*%
X7870000Y-11730000D03*
X30290000Y-18540000D03*
X17200000Y-17010000D03*
X36990000Y-17320000D03*
X27680000Y-25810000D03*
X32900000Y-21300000D03*
X23600000Y-31850000D03*
X29540000Y-15680000D03*
X28280000Y-22450000D03*
X24440000Y-22460000D03*
X12160000Y-3090000D03*
X40130000Y-18460000D03*
X22340000Y-13670000D03*
X39580000Y-3120000D03*
X13080000Y-16950000D03*
%TO.N,GND*%
X26100000Y-26350000D03*
X26120000Y-16182500D03*
X19850000Y-8150000D03*
X29080000Y-20480000D03*
X25750000Y-31850000D03*
X6880000Y-11670000D03*
X25470000Y-22490000D03*
X22700000Y-22490000D03*
X31090000Y-23230000D03*
X33175000Y-13000000D03*
X21060000Y-13700000D03*
X28380000Y-18620000D03*
X40100400Y-14934600D03*
X34950000Y-12275000D03*
X5990000Y-8943000D03*
X32164400Y-2635600D03*
X20720000Y-11820000D03*
X34700000Y-24400000D03*
X27580000Y-22490000D03*
X23950000Y-13660000D03*
X40049600Y-16001400D03*
X26140000Y-25150000D03*
X32200000Y-8100000D03*
X24330581Y-10146900D03*
X32900000Y-23400000D03*
X36227601Y-13907601D03*
X19900000Y-2700000D03*
X25510000Y-12440000D03*
X31080000Y-25110000D03*
%TO.N,NRST*%
X29390000Y-16410000D03*
%TO.N,TAG_RESET*%
X21530000Y-37170000D03*
%TO.N,TAG_SWDIO*%
X19350000Y-37000000D03*
%TO.N,TAG_SCK*%
X25340000Y-35510000D03*
%TO.N,TAG_3V3*%
X38620000Y-35320000D03*
%TO.N,/boot0*%
X19990000Y-20780000D03*
X27350000Y-19570000D03*
%TO.N,/LED_RED*%
X27780000Y-12580000D03*
X15160000Y-3720000D03*
%TO.N,/LED_GREEN*%
X31370000Y-10590000D03*
X30800000Y-11860000D03*
%TO.N,Net-(U5-PA10)*%
X22534137Y-15957280D03*
X21600000Y-19140000D03*
%TO.N,/en1.8v*%
X26050000Y-31150000D03*
X26350000Y-19600000D03*
%TO.N,/UART_TX*%
X22730000Y-15380000D03*
%TO.N,/BAT*%
X34020000Y-16220000D03*
X34180000Y-15120000D03*
%TO.N,Net-(U5-PB3)*%
X24980000Y-19450000D03*
X25690000Y-21260000D03*
%TD*%
%TA.AperFunction,Conductor*%
%TO.N,GND*%
G36*
X48263736Y-300726D02*
G01*
X48522456Y-316376D01*
X48537320Y-318181D01*
X48788575Y-364225D01*
X48803112Y-367808D01*
X49046974Y-443799D01*
X49060966Y-449104D01*
X49293914Y-553946D01*
X49307160Y-560898D01*
X49525768Y-693051D01*
X49538079Y-701549D01*
X49739161Y-859086D01*
X49750369Y-869016D01*
X49930983Y-1049630D01*
X49940913Y-1060838D01*
X50098446Y-1261914D01*
X50106952Y-1274237D01*
X50239098Y-1492833D01*
X50246057Y-1506092D01*
X50350893Y-1739029D01*
X50356202Y-1753030D01*
X50432190Y-1996886D01*
X50435774Y-2011424D01*
X50481818Y-2262679D01*
X50483623Y-2277543D01*
X50499274Y-2536262D01*
X50499500Y-2543750D01*
X50499500Y-67306249D01*
X50499274Y-67313737D01*
X50483623Y-67572456D01*
X50481818Y-67587320D01*
X50435774Y-67838575D01*
X50432190Y-67853113D01*
X50356202Y-68096969D01*
X50350893Y-68110970D01*
X50246057Y-68343907D01*
X50239098Y-68357166D01*
X50106952Y-68575762D01*
X50098446Y-68588085D01*
X49940913Y-68789161D01*
X49930983Y-68800369D01*
X49750369Y-68980983D01*
X49739161Y-68990913D01*
X49538085Y-69148446D01*
X49525762Y-69156952D01*
X49307166Y-69289098D01*
X49293907Y-69296057D01*
X49060970Y-69400893D01*
X49046969Y-69406202D01*
X48803113Y-69482190D01*
X48788575Y-69485774D01*
X48537320Y-69531818D01*
X48522456Y-69533623D01*
X48279475Y-69548321D01*
X48263735Y-69549274D01*
X48256249Y-69549500D01*
X2543751Y-69549500D01*
X2536264Y-69549274D01*
X2519373Y-69548252D01*
X2277543Y-69533623D01*
X2262679Y-69531818D01*
X2011424Y-69485774D01*
X1996886Y-69482190D01*
X1753030Y-69406202D01*
X1739029Y-69400893D01*
X1506092Y-69296057D01*
X1492833Y-69289098D01*
X1274237Y-69156952D01*
X1261914Y-69148446D01*
X1060838Y-68990913D01*
X1049630Y-68980983D01*
X869016Y-68800369D01*
X859086Y-68789161D01*
X701553Y-68588085D01*
X693051Y-68575768D01*
X560898Y-68357160D01*
X553946Y-68343914D01*
X449104Y-68110966D01*
X443797Y-68096969D01*
X367809Y-67853113D01*
X364225Y-67838575D01*
X318181Y-67587320D01*
X316376Y-67572455D01*
X300726Y-67313736D01*
X300500Y-67306249D01*
X300500Y-51783246D01*
X14351749Y-51783246D01*
X14392032Y-51985757D01*
X14392035Y-51985767D01*
X14471049Y-52176526D01*
X14471056Y-52176539D01*
X14585770Y-52348219D01*
X14585773Y-52348223D01*
X14731776Y-52494226D01*
X14731780Y-52494229D01*
X14903460Y-52608943D01*
X14903473Y-52608950D01*
X15094232Y-52687964D01*
X15094237Y-52687966D01*
X15094241Y-52687966D01*
X15094242Y-52687967D01*
X15296753Y-52728250D01*
X15296756Y-52728250D01*
X15503246Y-52728250D01*
X15639492Y-52701148D01*
X15705763Y-52687966D01*
X15896533Y-52608947D01*
X16068220Y-52494229D01*
X16214229Y-52348220D01*
X16328947Y-52176533D01*
X16407966Y-51985763D01*
X16448250Y-51783246D01*
X34351749Y-51783246D01*
X34392032Y-51985757D01*
X34392035Y-51985767D01*
X34471049Y-52176526D01*
X34471056Y-52176539D01*
X34585770Y-52348219D01*
X34585773Y-52348223D01*
X34731776Y-52494226D01*
X34731780Y-52494229D01*
X34903460Y-52608943D01*
X34903473Y-52608950D01*
X35094232Y-52687964D01*
X35094237Y-52687966D01*
X35094241Y-52687966D01*
X35094242Y-52687967D01*
X35296753Y-52728250D01*
X35296756Y-52728250D01*
X35503246Y-52728250D01*
X35639492Y-52701148D01*
X35705763Y-52687966D01*
X35896533Y-52608947D01*
X36068220Y-52494229D01*
X36214229Y-52348220D01*
X36328947Y-52176533D01*
X36407966Y-51985763D01*
X36448250Y-51783244D01*
X36448250Y-51576756D01*
X36448250Y-51576753D01*
X36407967Y-51374242D01*
X36407966Y-51374241D01*
X36407966Y-51374237D01*
X36407964Y-51374232D01*
X36328950Y-51183473D01*
X36328943Y-51183460D01*
X36214229Y-51011780D01*
X36214226Y-51011776D01*
X36068223Y-50865773D01*
X36068219Y-50865770D01*
X35896539Y-50751056D01*
X35896526Y-50751049D01*
X35705767Y-50672035D01*
X35705757Y-50672032D01*
X35503246Y-50631750D01*
X35503244Y-50631750D01*
X35296756Y-50631750D01*
X35296754Y-50631750D01*
X35094242Y-50672032D01*
X35094232Y-50672035D01*
X34903473Y-50751049D01*
X34903460Y-50751056D01*
X34731780Y-50865770D01*
X34731776Y-50865773D01*
X34585773Y-51011776D01*
X34585770Y-51011780D01*
X34471056Y-51183460D01*
X34471049Y-51183473D01*
X34392035Y-51374232D01*
X34392032Y-51374242D01*
X34351750Y-51576753D01*
X34351750Y-51576756D01*
X34351750Y-51783244D01*
X34351750Y-51783246D01*
X34351749Y-51783246D01*
X16448250Y-51783246D01*
X16448250Y-51783244D01*
X16448250Y-51576756D01*
X16448250Y-51576753D01*
X16407967Y-51374242D01*
X16407966Y-51374241D01*
X16407966Y-51374237D01*
X16407964Y-51374232D01*
X16328950Y-51183473D01*
X16328943Y-51183460D01*
X16214229Y-51011780D01*
X16214226Y-51011776D01*
X16068223Y-50865773D01*
X16068219Y-50865770D01*
X15896539Y-50751056D01*
X15896526Y-50751049D01*
X15705767Y-50672035D01*
X15705757Y-50672032D01*
X15503246Y-50631750D01*
X15503244Y-50631750D01*
X15296756Y-50631750D01*
X15296754Y-50631750D01*
X15094242Y-50672032D01*
X15094232Y-50672035D01*
X14903473Y-50751049D01*
X14903460Y-50751056D01*
X14731780Y-50865770D01*
X14731776Y-50865773D01*
X14585773Y-51011776D01*
X14585770Y-51011780D01*
X14471056Y-51183460D01*
X14471049Y-51183473D01*
X14392035Y-51374232D01*
X14392032Y-51374242D01*
X14351750Y-51576753D01*
X14351750Y-51576756D01*
X14351750Y-51783244D01*
X14351750Y-51783246D01*
X14351749Y-51783246D01*
X300500Y-51783246D01*
X300500Y-48074967D01*
X14065500Y-48074967D01*
X14065500Y-48285032D01*
X14098358Y-48492496D01*
X14163271Y-48692274D01*
X14242730Y-48848219D01*
X14258633Y-48879431D01*
X14382100Y-49049369D01*
X14530631Y-49197900D01*
X14700569Y-49321367D01*
X14788995Y-49366422D01*
X14887725Y-49416728D01*
X14887727Y-49416728D01*
X14887730Y-49416730D01*
X14994812Y-49451523D01*
X15087503Y-49481641D01*
X15294968Y-49514500D01*
X15294973Y-49514500D01*
X15505032Y-49514500D01*
X15712496Y-49481641D01*
X15912270Y-49416730D01*
X16099431Y-49321367D01*
X16269369Y-49197900D01*
X16417900Y-49049369D01*
X16541367Y-48879431D01*
X16636730Y-48692270D01*
X16701641Y-48492496D01*
X16702708Y-48485757D01*
X16734500Y-48285032D01*
X16734500Y-48283246D01*
X17851749Y-48283246D01*
X17892032Y-48485757D01*
X17892035Y-48485767D01*
X17971049Y-48676526D01*
X17971056Y-48676539D01*
X18085770Y-48848219D01*
X18085773Y-48848223D01*
X18231776Y-48994226D01*
X18231780Y-48994229D01*
X18403460Y-49108943D01*
X18403473Y-49108950D01*
X18594232Y-49187964D01*
X18594237Y-49187966D01*
X18594241Y-49187966D01*
X18594242Y-49187967D01*
X18796753Y-49228250D01*
X18796756Y-49228250D01*
X19003246Y-49228250D01*
X19155837Y-49197897D01*
X19205763Y-49187966D01*
X19396533Y-49108947D01*
X19568220Y-48994229D01*
X19714229Y-48848220D01*
X19828947Y-48676533D01*
X19907966Y-48485763D01*
X19921148Y-48419492D01*
X19948250Y-48283246D01*
X30851749Y-48283246D01*
X30892032Y-48485757D01*
X30892035Y-48485767D01*
X30971049Y-48676526D01*
X30971056Y-48676539D01*
X31085770Y-48848219D01*
X31085773Y-48848223D01*
X31231776Y-48994226D01*
X31231780Y-48994229D01*
X31403460Y-49108943D01*
X31403473Y-49108950D01*
X31594232Y-49187964D01*
X31594237Y-49187966D01*
X31594241Y-49187966D01*
X31594242Y-49187967D01*
X31796753Y-49228250D01*
X31796756Y-49228250D01*
X32003246Y-49228250D01*
X32155837Y-49197897D01*
X32205763Y-49187966D01*
X32396533Y-49108947D01*
X32568220Y-48994229D01*
X32714229Y-48848220D01*
X32828947Y-48676533D01*
X32907966Y-48485763D01*
X32921148Y-48419492D01*
X32948250Y-48283246D01*
X32948250Y-48076756D01*
X32948249Y-48076751D01*
X32947894Y-48074967D01*
X34065500Y-48074967D01*
X34065500Y-48285032D01*
X34098358Y-48492496D01*
X34163271Y-48692274D01*
X34242730Y-48848219D01*
X34258633Y-48879431D01*
X34382100Y-49049369D01*
X34530631Y-49197900D01*
X34700569Y-49321367D01*
X34788995Y-49366422D01*
X34887725Y-49416728D01*
X34887727Y-49416728D01*
X34887730Y-49416730D01*
X34994812Y-49451523D01*
X35087503Y-49481641D01*
X35294968Y-49514500D01*
X35294973Y-49514500D01*
X35505032Y-49514500D01*
X35712496Y-49481641D01*
X35912270Y-49416730D01*
X36099431Y-49321367D01*
X36269369Y-49197900D01*
X36417900Y-49049369D01*
X36541367Y-48879431D01*
X36636730Y-48692270D01*
X36701641Y-48492496D01*
X36702708Y-48485757D01*
X36734500Y-48285032D01*
X36734500Y-48074967D01*
X36701641Y-47867503D01*
X36636728Y-47667725D01*
X36586422Y-47568995D01*
X36541367Y-47480569D01*
X36417900Y-47310631D01*
X36269369Y-47162100D01*
X36099431Y-47038633D01*
X35912274Y-46943271D01*
X35712496Y-46878358D01*
X35505032Y-46845500D01*
X35505027Y-46845500D01*
X35294973Y-46845500D01*
X35294968Y-46845500D01*
X35087503Y-46878358D01*
X34887725Y-46943271D01*
X34700568Y-47038633D01*
X34530628Y-47162102D01*
X34382102Y-47310628D01*
X34258633Y-47480568D01*
X34163271Y-47667725D01*
X34098358Y-47867503D01*
X34065500Y-48074967D01*
X32947894Y-48074967D01*
X32907967Y-47874242D01*
X32907966Y-47874241D01*
X32907966Y-47874237D01*
X32905177Y-47867503D01*
X32828950Y-47683473D01*
X32828943Y-47683460D01*
X32714229Y-47511780D01*
X32714226Y-47511776D01*
X32568223Y-47365773D01*
X32568219Y-47365770D01*
X32396539Y-47251056D01*
X32396526Y-47251049D01*
X32205767Y-47172035D01*
X32205757Y-47172032D01*
X32003246Y-47131750D01*
X32003244Y-47131750D01*
X31796756Y-47131750D01*
X31796754Y-47131750D01*
X31594242Y-47172032D01*
X31594232Y-47172035D01*
X31403473Y-47251049D01*
X31403460Y-47251056D01*
X31231780Y-47365770D01*
X31231776Y-47365773D01*
X31085773Y-47511776D01*
X31085770Y-47511780D01*
X30971056Y-47683460D01*
X30971049Y-47683473D01*
X30892035Y-47874232D01*
X30892032Y-47874242D01*
X30851750Y-48076753D01*
X30851750Y-48076756D01*
X30851750Y-48283244D01*
X30851750Y-48283246D01*
X30851749Y-48283246D01*
X19948250Y-48283246D01*
X19948250Y-48076753D01*
X19907967Y-47874242D01*
X19907966Y-47874241D01*
X19907966Y-47874237D01*
X19905177Y-47867503D01*
X19828950Y-47683473D01*
X19828943Y-47683460D01*
X19714229Y-47511780D01*
X19714226Y-47511776D01*
X19568223Y-47365773D01*
X19568219Y-47365770D01*
X19396539Y-47251056D01*
X19396526Y-47251049D01*
X19205767Y-47172035D01*
X19205757Y-47172032D01*
X19003246Y-47131750D01*
X19003244Y-47131750D01*
X18796756Y-47131750D01*
X18796754Y-47131750D01*
X18594242Y-47172032D01*
X18594232Y-47172035D01*
X18403473Y-47251049D01*
X18403460Y-47251056D01*
X18231780Y-47365770D01*
X18231776Y-47365773D01*
X18085773Y-47511776D01*
X18085770Y-47511780D01*
X17971056Y-47683460D01*
X17971049Y-47683473D01*
X17892035Y-47874232D01*
X17892032Y-47874242D01*
X17851750Y-48076753D01*
X17851750Y-48076756D01*
X17851750Y-48283244D01*
X17851750Y-48283246D01*
X17851749Y-48283246D01*
X16734500Y-48283246D01*
X16734500Y-48074967D01*
X16701641Y-47867503D01*
X16636728Y-47667725D01*
X16586422Y-47568995D01*
X16541367Y-47480569D01*
X16417900Y-47310631D01*
X16269369Y-47162100D01*
X16099431Y-47038633D01*
X15912274Y-46943271D01*
X15712496Y-46878358D01*
X15505032Y-46845500D01*
X15505027Y-46845500D01*
X15294973Y-46845500D01*
X15294968Y-46845500D01*
X15087503Y-46878358D01*
X14887725Y-46943271D01*
X14700568Y-47038633D01*
X14530628Y-47162102D01*
X14382102Y-47310628D01*
X14258633Y-47480568D01*
X14163271Y-47667725D01*
X14098358Y-47867503D01*
X14065500Y-48074967D01*
X300500Y-48074967D01*
X300500Y-42622603D01*
X22072099Y-42622603D01*
X22102377Y-42774816D01*
X22102380Y-42774826D01*
X22161770Y-42918208D01*
X22161772Y-42918212D01*
X22247994Y-43047252D01*
X22248000Y-43047260D01*
X22293059Y-43092319D01*
X22326544Y-43153642D01*
X22321560Y-43223334D01*
X22293059Y-43267681D01*
X22248000Y-43312739D01*
X22247994Y-43312747D01*
X22161772Y-43441787D01*
X22161770Y-43441791D01*
X22102380Y-43585173D01*
X22102377Y-43585183D01*
X22072100Y-43737396D01*
X22072100Y-43737399D01*
X22072100Y-43892601D01*
X22072100Y-43892603D01*
X22072099Y-43892603D01*
X22102377Y-44044816D01*
X22102380Y-44044826D01*
X22161770Y-44188208D01*
X22161772Y-44188212D01*
X22247994Y-44317252D01*
X22248000Y-44317260D01*
X22357739Y-44426999D01*
X22357747Y-44427005D01*
X22486787Y-44513227D01*
X22486791Y-44513229D01*
X22608561Y-44563667D01*
X22630178Y-44572621D01*
X22630182Y-44572621D01*
X22630183Y-44572622D01*
X22782396Y-44602900D01*
X22782399Y-44602900D01*
X22937603Y-44602900D01*
X23040009Y-44582529D01*
X23089822Y-44572621D01*
X23233210Y-44513228D01*
X23275292Y-44485109D01*
X23341967Y-44464231D01*
X23409347Y-44482715D01*
X23431859Y-44500526D01*
X23495000Y-44563667D01*
X23506307Y-44574974D01*
X23666547Y-44682043D01*
X23666553Y-44682046D01*
X23666554Y-44682047D01*
X23844611Y-44755801D01*
X24033631Y-44793399D01*
X24033635Y-44793400D01*
X24033636Y-44793400D01*
X24226365Y-44793400D01*
X24226366Y-44793399D01*
X24415389Y-44755801D01*
X24593446Y-44682047D01*
X24696109Y-44613450D01*
X24762786Y-44592572D01*
X24830167Y-44611056D01*
X24833891Y-44613450D01*
X24936547Y-44682043D01*
X24936553Y-44682046D01*
X24936554Y-44682047D01*
X25114611Y-44755801D01*
X25303631Y-44793399D01*
X25303635Y-44793400D01*
X25303636Y-44793400D01*
X25496365Y-44793400D01*
X25496366Y-44793399D01*
X25685389Y-44755801D01*
X25863446Y-44682047D01*
X25966109Y-44613450D01*
X26032786Y-44592572D01*
X26100167Y-44611056D01*
X26103891Y-44613450D01*
X26206547Y-44682043D01*
X26206553Y-44682046D01*
X26206554Y-44682047D01*
X26384611Y-44755801D01*
X26573631Y-44793399D01*
X26573635Y-44793400D01*
X26573636Y-44793400D01*
X26766365Y-44793400D01*
X26766366Y-44793399D01*
X26955389Y-44755801D01*
X27133446Y-44682047D01*
X27293694Y-44574973D01*
X27368137Y-44500529D01*
X27429458Y-44467046D01*
X27499150Y-44472030D01*
X27524708Y-44485110D01*
X27566784Y-44513224D01*
X27566790Y-44513228D01*
X27566792Y-44513229D01*
X27566796Y-44513231D01*
X27688561Y-44563667D01*
X27710178Y-44572621D01*
X27710182Y-44572621D01*
X27710183Y-44572622D01*
X27862396Y-44602900D01*
X27862399Y-44602900D01*
X28017603Y-44602900D01*
X28120009Y-44582529D01*
X28169822Y-44572621D01*
X28313203Y-44513231D01*
X28313208Y-44513229D01*
X28313212Y-44513227D01*
X28386540Y-44464231D01*
X28442257Y-44427002D01*
X28552002Y-44317257D01*
X28638228Y-44188210D01*
X28697621Y-44044822D01*
X28727900Y-43892601D01*
X28727900Y-43737399D01*
X28727900Y-43737396D01*
X28697622Y-43585183D01*
X28697621Y-43585182D01*
X28697621Y-43585178D01*
X28697619Y-43585173D01*
X28638229Y-43441791D01*
X28638227Y-43441787D01*
X28552005Y-43312747D01*
X28551999Y-43312739D01*
X28506941Y-43267682D01*
X28473455Y-43206359D01*
X28478439Y-43136668D01*
X28506941Y-43092318D01*
X28551999Y-43047260D01*
X28552002Y-43047257D01*
X28595404Y-42982300D01*
X28638227Y-42918212D01*
X28638229Y-42918208D01*
X28697619Y-42774826D01*
X28697621Y-42774822D01*
X28724168Y-42641364D01*
X28727900Y-42622603D01*
X28727900Y-42467396D01*
X28697622Y-42315183D01*
X28697621Y-42315182D01*
X28697621Y-42315178D01*
X28691789Y-42301099D01*
X28638229Y-42171791D01*
X28638227Y-42171787D01*
X28552005Y-42042747D01*
X28551999Y-42042739D01*
X28442260Y-41933000D01*
X28442252Y-41932994D01*
X28313212Y-41846772D01*
X28313208Y-41846770D01*
X28169826Y-41787380D01*
X28169816Y-41787377D01*
X28017603Y-41757100D01*
X28017601Y-41757100D01*
X27862399Y-41757100D01*
X27862397Y-41757100D01*
X27710183Y-41787377D01*
X27710177Y-41787379D01*
X27566793Y-41846770D01*
X27566788Y-41846773D01*
X27524706Y-41874891D01*
X27458028Y-41895767D01*
X27390648Y-41877281D01*
X27368136Y-41859468D01*
X27293697Y-41785029D01*
X27293693Y-41785026D01*
X27133452Y-41677956D01*
X27133443Y-41677951D01*
X26955389Y-41604199D01*
X26955381Y-41604197D01*
X26766368Y-41566600D01*
X26766364Y-41566600D01*
X26573636Y-41566600D01*
X26573631Y-41566600D01*
X26384618Y-41604197D01*
X26384610Y-41604199D01*
X26206556Y-41677951D01*
X26206542Y-41677959D01*
X26103890Y-41746549D01*
X26037213Y-41767427D01*
X25969833Y-41748942D01*
X25966110Y-41746549D01*
X25863457Y-41677959D01*
X25863443Y-41677951D01*
X25685389Y-41604199D01*
X25685381Y-41604197D01*
X25496368Y-41566600D01*
X25496364Y-41566600D01*
X25303636Y-41566600D01*
X25303631Y-41566600D01*
X25114618Y-41604197D01*
X25114610Y-41604199D01*
X24936556Y-41677951D01*
X24936547Y-41677956D01*
X24826241Y-41751661D01*
X24759563Y-41772539D01*
X24692183Y-41754054D01*
X24688460Y-41751662D01*
X24589416Y-41685483D01*
X24412913Y-41612374D01*
X24412903Y-41612371D01*
X24225529Y-41575100D01*
X24034471Y-41575100D01*
X23847096Y-41612371D01*
X23847090Y-41612373D01*
X23670579Y-41685486D01*
X23642680Y-41704126D01*
X23642680Y-41704127D01*
X24181910Y-42243357D01*
X24170128Y-42240200D01*
X24089872Y-42240200D01*
X24012352Y-42260972D01*
X23942848Y-42301099D01*
X23886099Y-42357848D01*
X23845972Y-42427352D01*
X23825200Y-42504872D01*
X23825200Y-42585128D01*
X23828357Y-42596911D01*
X23661847Y-42430401D01*
X23628362Y-42369078D01*
X23627937Y-42367041D01*
X23617621Y-42315178D01*
X23595168Y-42260972D01*
X23558229Y-42171791D01*
X23558227Y-42171787D01*
X23472005Y-42042747D01*
X23471999Y-42042739D01*
X23362260Y-41933000D01*
X23362252Y-41932994D01*
X23233212Y-41846772D01*
X23233208Y-41846770D01*
X23089826Y-41787380D01*
X23089816Y-41787377D01*
X22937603Y-41757100D01*
X22937601Y-41757100D01*
X22782399Y-41757100D01*
X22782397Y-41757100D01*
X22630183Y-41787377D01*
X22630173Y-41787380D01*
X22486791Y-41846770D01*
X22486787Y-41846772D01*
X22357747Y-41932994D01*
X22357739Y-41933000D01*
X22248000Y-42042739D01*
X22247994Y-42042747D01*
X22161772Y-42171787D01*
X22161770Y-42171791D01*
X22102380Y-42315173D01*
X22102377Y-42315183D01*
X22072100Y-42467396D01*
X22072100Y-42467399D01*
X22072100Y-42622601D01*
X22072100Y-42622603D01*
X22072099Y-42622603D01*
X300500Y-42622603D01*
X300500Y-36925053D01*
X18589100Y-36925053D01*
X18589100Y-37074946D01*
X18618339Y-37221938D01*
X18618342Y-37221950D01*
X18675697Y-37360419D01*
X18675699Y-37360422D01*
X18758968Y-37485044D01*
X18758974Y-37485051D01*
X18864948Y-37591025D01*
X18864955Y-37591031D01*
X18989577Y-37674300D01*
X18989580Y-37674302D01*
X19128049Y-37731657D01*
X19128054Y-37731659D01*
X19275053Y-37760899D01*
X19275056Y-37760900D01*
X19275058Y-37760900D01*
X19424944Y-37760900D01*
X19424945Y-37760899D01*
X19571946Y-37731659D01*
X19710421Y-37674301D01*
X19835046Y-37591030D01*
X19941030Y-37485046D01*
X20024301Y-37360421D01*
X20081659Y-37221946D01*
X20106899Y-37095058D01*
X20106900Y-37095053D01*
X20769100Y-37095053D01*
X20769100Y-37244946D01*
X20798339Y-37391938D01*
X20798342Y-37391950D01*
X20855697Y-37530419D01*
X20855699Y-37530422D01*
X20938968Y-37655044D01*
X20938974Y-37655051D01*
X21044948Y-37761025D01*
X21044955Y-37761031D01*
X21169577Y-37844300D01*
X21169580Y-37844302D01*
X21308049Y-37901657D01*
X21308054Y-37901659D01*
X21455053Y-37930899D01*
X21455056Y-37930900D01*
X21455058Y-37930900D01*
X21604944Y-37930900D01*
X21604945Y-37930899D01*
X21751946Y-37901659D01*
X21890421Y-37844301D01*
X22015046Y-37761030D01*
X22121030Y-37655046D01*
X22204301Y-37530421D01*
X22261659Y-37391946D01*
X22290900Y-37244942D01*
X22290900Y-37095058D01*
X22290900Y-37095055D01*
X22290899Y-37095053D01*
X22261660Y-36948061D01*
X22261659Y-36948054D01*
X22252132Y-36925053D01*
X22204302Y-36809580D01*
X22204300Y-36809577D01*
X22121031Y-36684955D01*
X22121025Y-36684948D01*
X22015051Y-36578974D01*
X22015044Y-36578968D01*
X21890422Y-36495699D01*
X21890419Y-36495697D01*
X21751950Y-36438342D01*
X21751938Y-36438339D01*
X21604945Y-36409100D01*
X21604942Y-36409100D01*
X21455058Y-36409100D01*
X21455055Y-36409100D01*
X21308061Y-36438339D01*
X21308049Y-36438342D01*
X21169580Y-36495697D01*
X21169577Y-36495699D01*
X21044955Y-36578968D01*
X21044948Y-36578974D01*
X20938974Y-36684948D01*
X20938968Y-36684955D01*
X20855699Y-36809577D01*
X20855697Y-36809580D01*
X20798342Y-36948049D01*
X20798339Y-36948061D01*
X20769100Y-37095053D01*
X20106900Y-37095053D01*
X20110900Y-37074945D01*
X20110900Y-36925055D01*
X20110899Y-36925053D01*
X20087930Y-36809580D01*
X20081659Y-36778054D01*
X20081657Y-36778049D01*
X20024302Y-36639580D01*
X20024300Y-36639577D01*
X19941031Y-36514955D01*
X19941025Y-36514948D01*
X19835051Y-36408974D01*
X19835044Y-36408968D01*
X19710422Y-36325699D01*
X19710419Y-36325697D01*
X19571950Y-36268342D01*
X19571938Y-36268339D01*
X19424945Y-36239100D01*
X19424942Y-36239100D01*
X19275058Y-36239100D01*
X19275055Y-36239100D01*
X19128061Y-36268339D01*
X19128049Y-36268342D01*
X18989580Y-36325697D01*
X18989577Y-36325699D01*
X18864955Y-36408968D01*
X18864948Y-36408974D01*
X18758974Y-36514948D01*
X18758968Y-36514955D01*
X18675699Y-36639577D01*
X18675697Y-36639580D01*
X18618342Y-36778049D01*
X18618339Y-36778061D01*
X18589100Y-36925053D01*
X300500Y-36925053D01*
X300500Y-35435053D01*
X24579100Y-35435053D01*
X24579100Y-35584946D01*
X24608339Y-35731938D01*
X24608342Y-35731950D01*
X24665697Y-35870419D01*
X24665699Y-35870422D01*
X24748968Y-35995044D01*
X24748974Y-35995051D01*
X24854948Y-36101025D01*
X24854955Y-36101031D01*
X24979577Y-36184300D01*
X24979580Y-36184302D01*
X25111876Y-36239100D01*
X25118054Y-36241659D01*
X25252183Y-36268339D01*
X25265053Y-36270899D01*
X25265056Y-36270900D01*
X25265058Y-36270900D01*
X25414944Y-36270900D01*
X25414945Y-36270899D01*
X25561946Y-36241659D01*
X25700421Y-36184301D01*
X25825046Y-36101030D01*
X25931030Y-35995046D01*
X26014301Y-35870421D01*
X26071659Y-35731946D01*
X26100900Y-35584942D01*
X26100900Y-35435058D01*
X26100900Y-35435055D01*
X26100899Y-35435053D01*
X26071660Y-35288061D01*
X26071659Y-35288054D01*
X26071656Y-35288046D01*
X26070980Y-35286413D01*
X26053848Y-35245053D01*
X37859100Y-35245053D01*
X37859100Y-35394946D01*
X37888339Y-35541938D01*
X37888342Y-35541950D01*
X37945697Y-35680419D01*
X37945699Y-35680422D01*
X38028968Y-35805044D01*
X38028974Y-35805051D01*
X38134948Y-35911025D01*
X38134955Y-35911031D01*
X38259577Y-35994300D01*
X38259580Y-35994302D01*
X38398049Y-36051657D01*
X38398054Y-36051659D01*
X38545053Y-36080899D01*
X38545056Y-36080900D01*
X38545058Y-36080900D01*
X38694944Y-36080900D01*
X38694945Y-36080899D01*
X38841946Y-36051659D01*
X38934262Y-36013420D01*
X38980419Y-35994302D01*
X38980422Y-35994300D01*
X39105046Y-35911030D01*
X39211030Y-35805046D01*
X39294301Y-35680421D01*
X39351659Y-35541946D01*
X39380900Y-35394942D01*
X39380900Y-35245058D01*
X39380900Y-35245055D01*
X39380899Y-35245053D01*
X39361908Y-35149579D01*
X39351659Y-35098054D01*
X39321378Y-35024948D01*
X39294302Y-34959580D01*
X39294300Y-34959577D01*
X39211031Y-34834955D01*
X39211025Y-34834948D01*
X39105051Y-34728974D01*
X39105044Y-34728968D01*
X38980422Y-34645699D01*
X38980419Y-34645697D01*
X38841950Y-34588342D01*
X38841938Y-34588339D01*
X38694945Y-34559100D01*
X38694942Y-34559100D01*
X38545058Y-34559100D01*
X38545055Y-34559100D01*
X38398061Y-34588339D01*
X38398049Y-34588342D01*
X38259580Y-34645697D01*
X38259577Y-34645699D01*
X38134955Y-34728968D01*
X38134948Y-34728974D01*
X38028974Y-34834948D01*
X38028968Y-34834955D01*
X37945699Y-34959577D01*
X37945697Y-34959580D01*
X37888342Y-35098049D01*
X37888339Y-35098061D01*
X37859100Y-35245053D01*
X26053848Y-35245053D01*
X26014300Y-35149577D01*
X25931031Y-35024955D01*
X25931025Y-35024948D01*
X25825051Y-34918974D01*
X25825044Y-34918968D01*
X25700422Y-34835699D01*
X25700419Y-34835697D01*
X25561950Y-34778342D01*
X25561938Y-34778339D01*
X25414945Y-34749100D01*
X25414942Y-34749100D01*
X25265058Y-34749100D01*
X25265055Y-34749100D01*
X25118061Y-34778339D01*
X25118049Y-34778342D01*
X24979580Y-34835697D01*
X24979577Y-34835699D01*
X24854955Y-34918968D01*
X24854948Y-34918974D01*
X24748974Y-35024948D01*
X24748968Y-35024955D01*
X24665699Y-35149577D01*
X24665697Y-35149580D01*
X24608342Y-35288049D01*
X24608339Y-35288061D01*
X24579100Y-35435053D01*
X300500Y-35435053D01*
X300500Y-31775053D01*
X22839100Y-31775053D01*
X22839100Y-31924946D01*
X22868339Y-32071938D01*
X22868342Y-32071950D01*
X22925697Y-32210419D01*
X22925699Y-32210422D01*
X23008968Y-32335044D01*
X23008974Y-32335051D01*
X23114948Y-32441025D01*
X23114955Y-32441031D01*
X23239577Y-32524300D01*
X23239580Y-32524302D01*
X23378049Y-32581657D01*
X23378054Y-32581659D01*
X23525053Y-32610899D01*
X23525056Y-32610900D01*
X23525058Y-32610900D01*
X23674944Y-32610900D01*
X23674945Y-32610899D01*
X23821946Y-32581659D01*
X23960421Y-32524301D01*
X24085046Y-32441030D01*
X24191030Y-32335046D01*
X24274301Y-32210421D01*
X24331659Y-32071946D01*
X24360900Y-31924942D01*
X24360900Y-31775058D01*
X24360900Y-31775055D01*
X24360899Y-31775053D01*
X24331659Y-31628054D01*
X24331657Y-31628049D01*
X24274302Y-31489580D01*
X24274300Y-31489577D01*
X24191031Y-31364955D01*
X24191025Y-31364948D01*
X24085051Y-31258974D01*
X24085044Y-31258968D01*
X23960425Y-31175701D01*
X23960416Y-31175696D01*
X23821950Y-31118342D01*
X23821938Y-31118339D01*
X23674945Y-31089100D01*
X23674942Y-31089100D01*
X23525058Y-31089100D01*
X23525055Y-31089100D01*
X23378061Y-31118339D01*
X23378049Y-31118342D01*
X23239580Y-31175697D01*
X23239577Y-31175699D01*
X23114955Y-31258968D01*
X23114948Y-31258974D01*
X23008974Y-31364948D01*
X23008968Y-31364955D01*
X22925699Y-31489577D01*
X22925697Y-31489580D01*
X22868342Y-31628049D01*
X22868339Y-31628061D01*
X22839100Y-31775053D01*
X300500Y-31775053D01*
X300500Y-31075053D01*
X25289100Y-31075053D01*
X25289100Y-31224946D01*
X25318339Y-31371938D01*
X25318342Y-31371950D01*
X25375697Y-31510419D01*
X25375699Y-31510422D01*
X25458968Y-31635044D01*
X25458974Y-31635051D01*
X25564948Y-31741025D01*
X25564955Y-31741031D01*
X25689577Y-31824300D01*
X25689580Y-31824302D01*
X25828049Y-31881657D01*
X25828054Y-31881659D01*
X25975053Y-31910899D01*
X25975056Y-31910900D01*
X25975058Y-31910900D01*
X26124944Y-31910900D01*
X26124945Y-31910899D01*
X26271946Y-31881659D01*
X26410421Y-31824301D01*
X26535046Y-31741030D01*
X26641030Y-31635046D01*
X26724301Y-31510421D01*
X26781659Y-31371946D01*
X26810900Y-31224942D01*
X26810900Y-31075058D01*
X26810900Y-31075055D01*
X26810899Y-31075053D01*
X26781660Y-30928061D01*
X26781659Y-30928054D01*
X26781657Y-30928049D01*
X26724302Y-30789580D01*
X26724300Y-30789577D01*
X26641031Y-30664955D01*
X26641025Y-30664948D01*
X26535051Y-30558974D01*
X26535044Y-30558968D01*
X26410422Y-30475699D01*
X26410419Y-30475697D01*
X26271950Y-30418342D01*
X26271938Y-30418339D01*
X26124945Y-30389100D01*
X26124942Y-30389100D01*
X25975058Y-30389100D01*
X25975055Y-30389100D01*
X25828061Y-30418339D01*
X25828049Y-30418342D01*
X25689580Y-30475697D01*
X25689577Y-30475699D01*
X25564955Y-30558968D01*
X25564948Y-30558974D01*
X25458974Y-30664948D01*
X25458968Y-30664955D01*
X25375699Y-30789577D01*
X25375697Y-30789580D01*
X25318342Y-30928049D01*
X25318339Y-30928061D01*
X25289100Y-31075053D01*
X300500Y-31075053D01*
X300500Y-25735053D01*
X26919100Y-25735053D01*
X26919100Y-25884946D01*
X26948339Y-26031938D01*
X26948342Y-26031950D01*
X27005697Y-26170419D01*
X27005699Y-26170422D01*
X27088968Y-26295044D01*
X27088974Y-26295051D01*
X27194948Y-26401025D01*
X27194955Y-26401031D01*
X27319577Y-26484300D01*
X27319580Y-26484302D01*
X27458049Y-26541657D01*
X27458054Y-26541659D01*
X27605053Y-26570899D01*
X27605056Y-26570900D01*
X27605058Y-26570900D01*
X27754944Y-26570900D01*
X27754945Y-26570899D01*
X27901946Y-26541659D01*
X28040421Y-26484301D01*
X28165046Y-26401030D01*
X28271030Y-26295046D01*
X28354301Y-26170421D01*
X28411659Y-26031946D01*
X28440900Y-25884942D01*
X28440900Y-25735058D01*
X28440900Y-25735055D01*
X28440899Y-25735053D01*
X28411660Y-25588061D01*
X28411659Y-25588054D01*
X28411657Y-25588049D01*
X28354302Y-25449580D01*
X28354300Y-25449577D01*
X28271031Y-25324955D01*
X28271025Y-25324948D01*
X28165051Y-25218974D01*
X28165044Y-25218968D01*
X28040422Y-25135699D01*
X28040419Y-25135697D01*
X27901950Y-25078342D01*
X27901938Y-25078339D01*
X27754945Y-25049100D01*
X27754942Y-25049100D01*
X27605058Y-25049100D01*
X27605055Y-25049100D01*
X27458061Y-25078339D01*
X27458049Y-25078342D01*
X27319580Y-25135697D01*
X27319577Y-25135699D01*
X27194955Y-25218968D01*
X27194948Y-25218974D01*
X27088974Y-25324948D01*
X27088968Y-25324955D01*
X27005699Y-25449577D01*
X27005697Y-25449580D01*
X26948342Y-25588049D01*
X26948339Y-25588061D01*
X26919100Y-25735053D01*
X300500Y-25735053D01*
X300500Y-22385053D01*
X23679100Y-22385053D01*
X23679100Y-22534946D01*
X23708339Y-22681938D01*
X23708342Y-22681950D01*
X23765697Y-22820419D01*
X23765699Y-22820422D01*
X23848968Y-22945044D01*
X23848974Y-22945051D01*
X23954948Y-23051025D01*
X23954955Y-23051031D01*
X24079577Y-23134300D01*
X24079580Y-23134302D01*
X24193914Y-23181660D01*
X24218054Y-23191659D01*
X24314780Y-23210899D01*
X24365053Y-23220899D01*
X24365056Y-23220900D01*
X24365058Y-23220900D01*
X24514944Y-23220900D01*
X24514945Y-23220899D01*
X24661946Y-23191659D01*
X24800421Y-23134301D01*
X24925046Y-23051030D01*
X25031030Y-22945046D01*
X25114301Y-22820421D01*
X25171659Y-22681946D01*
X25200900Y-22534942D01*
X25200900Y-22385058D01*
X25198910Y-22375053D01*
X27519100Y-22375053D01*
X27519100Y-22524946D01*
X27548339Y-22671938D01*
X27548342Y-22671950D01*
X27605697Y-22810419D01*
X27605699Y-22810422D01*
X27688968Y-22935044D01*
X27688974Y-22935051D01*
X27794948Y-23041025D01*
X27794955Y-23041031D01*
X27919577Y-23124300D01*
X27919580Y-23124302D01*
X28058049Y-23181657D01*
X28058054Y-23181659D01*
X28205053Y-23210899D01*
X28205056Y-23210900D01*
X28205058Y-23210900D01*
X28354944Y-23210900D01*
X28354945Y-23210899D01*
X28501946Y-23181659D01*
X28594262Y-23143420D01*
X28640419Y-23124302D01*
X28640422Y-23124300D01*
X28750078Y-23051031D01*
X28765046Y-23041030D01*
X28871030Y-22935046D01*
X28954301Y-22810421D01*
X29011659Y-22671946D01*
X29040900Y-22524942D01*
X29040900Y-22375058D01*
X29040900Y-22375055D01*
X29040899Y-22375053D01*
X29011659Y-22228054D01*
X28958444Y-22099580D01*
X28954302Y-22089580D01*
X28954300Y-22089577D01*
X28871031Y-21964955D01*
X28871025Y-21964948D01*
X28765051Y-21858974D01*
X28765044Y-21858968D01*
X28640422Y-21775699D01*
X28640419Y-21775697D01*
X28501950Y-21718342D01*
X28501938Y-21718339D01*
X28354945Y-21689100D01*
X28354942Y-21689100D01*
X28205058Y-21689100D01*
X28205055Y-21689100D01*
X28058061Y-21718339D01*
X28058049Y-21718342D01*
X27919580Y-21775697D01*
X27919577Y-21775699D01*
X27794955Y-21858968D01*
X27794948Y-21858974D01*
X27688974Y-21964948D01*
X27688968Y-21964955D01*
X27605699Y-22089577D01*
X27605697Y-22089580D01*
X27548342Y-22228049D01*
X27548339Y-22228061D01*
X27519100Y-22375053D01*
X25198910Y-22375053D01*
X25171659Y-22238054D01*
X25114301Y-22099579D01*
X25087494Y-22059460D01*
X25066617Y-21992783D01*
X25085102Y-21925403D01*
X25137080Y-21878713D01*
X25206050Y-21867537D01*
X25259487Y-21887468D01*
X25329577Y-21934300D01*
X25329580Y-21934302D01*
X25468049Y-21991657D01*
X25468054Y-21991659D01*
X25615053Y-22020899D01*
X25615056Y-22020900D01*
X25615058Y-22020900D01*
X25764944Y-22020900D01*
X25764945Y-22020899D01*
X25911946Y-21991659D01*
X26050421Y-21934301D01*
X26175046Y-21851030D01*
X26281030Y-21745046D01*
X26364301Y-21620421D01*
X26421659Y-21481946D01*
X26450900Y-21334942D01*
X26450900Y-21225053D01*
X32139100Y-21225053D01*
X32139100Y-21374946D01*
X32168339Y-21521938D01*
X32168342Y-21521950D01*
X32225697Y-21660419D01*
X32225699Y-21660422D01*
X32308968Y-21785044D01*
X32308974Y-21785051D01*
X32414948Y-21891025D01*
X32414955Y-21891031D01*
X32539577Y-21974300D01*
X32539580Y-21974302D01*
X32652077Y-22020899D01*
X32678054Y-22031659D01*
X32817824Y-22059461D01*
X32825053Y-22060899D01*
X32825056Y-22060900D01*
X32825058Y-22060900D01*
X32974944Y-22060900D01*
X32974945Y-22060899D01*
X33121946Y-22031659D01*
X33260421Y-21974301D01*
X33385046Y-21891030D01*
X33491030Y-21785046D01*
X33574301Y-21660421D01*
X33590870Y-21620421D01*
X33631657Y-21521950D01*
X33631659Y-21521946D01*
X33660900Y-21374942D01*
X33660900Y-21225058D01*
X33660900Y-21225055D01*
X33660899Y-21225053D01*
X33644065Y-21140422D01*
X33631659Y-21078054D01*
X33631657Y-21078049D01*
X33574302Y-20939580D01*
X33574300Y-20939577D01*
X33491031Y-20814955D01*
X33491025Y-20814948D01*
X33385051Y-20708974D01*
X33385044Y-20708968D01*
X33260422Y-20625699D01*
X33260419Y-20625697D01*
X33121950Y-20568342D01*
X33121938Y-20568339D01*
X32974945Y-20539100D01*
X32974942Y-20539100D01*
X32825058Y-20539100D01*
X32825055Y-20539100D01*
X32678061Y-20568339D01*
X32678049Y-20568342D01*
X32539580Y-20625697D01*
X32539577Y-20625699D01*
X32414955Y-20708968D01*
X32414948Y-20708974D01*
X32308974Y-20814948D01*
X32308968Y-20814955D01*
X32225699Y-20939577D01*
X32225697Y-20939580D01*
X32168342Y-21078049D01*
X32168339Y-21078061D01*
X32139100Y-21225053D01*
X26450900Y-21225053D01*
X26450900Y-21185058D01*
X26450900Y-21185055D01*
X26450899Y-21185053D01*
X26429617Y-21078061D01*
X26421659Y-21038054D01*
X26406703Y-21001946D01*
X26364302Y-20899580D01*
X26364300Y-20899577D01*
X26281031Y-20774955D01*
X26281025Y-20774948D01*
X26175051Y-20668974D01*
X26175044Y-20668968D01*
X26050422Y-20585699D01*
X26050419Y-20585697D01*
X25911950Y-20528342D01*
X25911938Y-20528339D01*
X25764945Y-20499100D01*
X25764942Y-20499100D01*
X25615058Y-20499100D01*
X25615055Y-20499100D01*
X25468061Y-20528339D01*
X25468049Y-20528342D01*
X25329580Y-20585697D01*
X25329577Y-20585699D01*
X25204955Y-20668968D01*
X25204948Y-20668974D01*
X25098974Y-20774948D01*
X25098968Y-20774955D01*
X25015699Y-20899577D01*
X25015697Y-20899580D01*
X24958342Y-21038049D01*
X24958339Y-21038061D01*
X24929100Y-21185053D01*
X24929100Y-21334946D01*
X24958339Y-21481938D01*
X24958342Y-21481950D01*
X25015696Y-21620417D01*
X25042505Y-21660539D01*
X25063382Y-21727216D01*
X25044897Y-21794596D01*
X24992918Y-21841286D01*
X24923948Y-21852462D01*
X24870512Y-21832532D01*
X24813736Y-21794596D01*
X24800421Y-21785699D01*
X24800418Y-21785697D01*
X24800417Y-21785697D01*
X24661950Y-21728342D01*
X24661938Y-21728339D01*
X24514945Y-21699100D01*
X24514942Y-21699100D01*
X24365058Y-21699100D01*
X24365055Y-21699100D01*
X24218061Y-21728339D01*
X24218049Y-21728342D01*
X24079580Y-21785697D01*
X24079577Y-21785699D01*
X23954955Y-21868968D01*
X23954948Y-21868974D01*
X23848974Y-21974948D01*
X23848968Y-21974955D01*
X23765699Y-22099577D01*
X23765697Y-22099580D01*
X23708342Y-22238049D01*
X23708339Y-22238061D01*
X23679100Y-22385053D01*
X300500Y-22385053D01*
X300500Y-20705053D01*
X19229100Y-20705053D01*
X19229100Y-20854946D01*
X19258339Y-21001938D01*
X19258342Y-21001950D01*
X19315697Y-21140419D01*
X19315699Y-21140422D01*
X19398968Y-21265044D01*
X19398974Y-21265051D01*
X19504948Y-21371025D01*
X19504955Y-21371031D01*
X19629577Y-21454300D01*
X19629580Y-21454302D01*
X19768049Y-21511657D01*
X19768054Y-21511659D01*
X19915053Y-21540899D01*
X19915056Y-21540900D01*
X19915058Y-21540900D01*
X20064944Y-21540900D01*
X20064945Y-21540899D01*
X20211946Y-21511659D01*
X20350421Y-21454301D01*
X20475046Y-21371030D01*
X20581030Y-21265046D01*
X20664301Y-21140421D01*
X20721659Y-21001946D01*
X20750900Y-20854942D01*
X20750900Y-20705058D01*
X20750900Y-20705055D01*
X20750899Y-20705053D01*
X20727158Y-20585699D01*
X20721659Y-20558054D01*
X20697240Y-20499100D01*
X20664302Y-20419580D01*
X20664300Y-20419577D01*
X20581031Y-20294955D01*
X20581025Y-20294948D01*
X20475051Y-20188974D01*
X20475044Y-20188968D01*
X20350422Y-20105699D01*
X20350419Y-20105697D01*
X20211950Y-20048342D01*
X20211938Y-20048339D01*
X20064945Y-20019100D01*
X20064942Y-20019100D01*
X19915058Y-20019100D01*
X19915055Y-20019100D01*
X19768061Y-20048339D01*
X19768049Y-20048342D01*
X19629580Y-20105697D01*
X19629577Y-20105699D01*
X19504955Y-20188968D01*
X19504948Y-20188974D01*
X19398974Y-20294948D01*
X19398968Y-20294955D01*
X19315699Y-20419577D01*
X19315697Y-20419580D01*
X19258342Y-20558049D01*
X19258339Y-20558061D01*
X19229100Y-20705053D01*
X300500Y-20705053D01*
X300500Y-19065053D01*
X20839100Y-19065053D01*
X20839100Y-19214946D01*
X20868339Y-19361938D01*
X20868342Y-19361950D01*
X20925697Y-19500419D01*
X20925699Y-19500422D01*
X21008968Y-19625044D01*
X21008974Y-19625051D01*
X21114948Y-19731025D01*
X21114955Y-19731031D01*
X21239577Y-19814300D01*
X21239580Y-19814302D01*
X21321066Y-19848054D01*
X21378054Y-19871659D01*
X21525053Y-19900899D01*
X21525056Y-19900900D01*
X21525058Y-19900900D01*
X21674944Y-19900900D01*
X21674945Y-19900899D01*
X21821946Y-19871659D01*
X21960421Y-19814301D01*
X22085046Y-19731030D01*
X22191030Y-19625046D01*
X22274301Y-19500421D01*
X22276523Y-19495058D01*
X22326230Y-19375053D01*
X24219100Y-19375053D01*
X24219100Y-19524946D01*
X24248339Y-19671938D01*
X24248342Y-19671950D01*
X24305697Y-19810419D01*
X24305699Y-19810422D01*
X24388968Y-19935044D01*
X24388974Y-19935051D01*
X24494948Y-20041025D01*
X24494955Y-20041031D01*
X24619577Y-20124300D01*
X24619580Y-20124302D01*
X24758049Y-20181657D01*
X24758054Y-20181659D01*
X24898905Y-20209676D01*
X24905053Y-20210899D01*
X24905056Y-20210900D01*
X24905058Y-20210900D01*
X25054944Y-20210900D01*
X25054945Y-20210899D01*
X25201946Y-20181659D01*
X25340421Y-20124301D01*
X25465046Y-20041030D01*
X25516770Y-19989306D01*
X25578093Y-19955820D01*
X25647785Y-19960804D01*
X25703718Y-20002675D01*
X25707539Y-20008073D01*
X25758970Y-20085046D01*
X25758973Y-20085050D01*
X25864948Y-20191025D01*
X25864955Y-20191031D01*
X25989577Y-20274300D01*
X25989580Y-20274302D01*
X26128049Y-20331657D01*
X26128054Y-20331659D01*
X26275053Y-20360899D01*
X26275056Y-20360900D01*
X26275058Y-20360900D01*
X26424944Y-20360900D01*
X26424945Y-20360899D01*
X26571946Y-20331659D01*
X26710421Y-20274301D01*
X26803559Y-20212068D01*
X26870236Y-20191191D01*
X26937616Y-20209676D01*
X26941340Y-20212069D01*
X26989579Y-20244301D01*
X26989581Y-20244302D01*
X26989585Y-20244304D01*
X27111869Y-20294955D01*
X27128054Y-20301659D01*
X27275053Y-20330899D01*
X27275056Y-20330900D01*
X27275058Y-20330900D01*
X27424944Y-20330900D01*
X27424945Y-20330899D01*
X27571946Y-20301659D01*
X27710421Y-20244301D01*
X27835046Y-20161030D01*
X27941030Y-20055046D01*
X28024301Y-19930421D01*
X28081659Y-19791946D01*
X28110900Y-19644942D01*
X28110900Y-19495058D01*
X28110900Y-19495055D01*
X28110899Y-19495053D01*
X28084422Y-19361946D01*
X28081659Y-19348054D01*
X28050016Y-19271660D01*
X28024302Y-19209580D01*
X28024300Y-19209577D01*
X27941031Y-19084955D01*
X27941025Y-19084948D01*
X27835051Y-18978974D01*
X27835044Y-18978968D01*
X27710422Y-18895699D01*
X27710419Y-18895697D01*
X27571950Y-18838342D01*
X27571938Y-18838339D01*
X27424945Y-18809100D01*
X27424942Y-18809100D01*
X27275058Y-18809100D01*
X27275055Y-18809100D01*
X27128061Y-18838339D01*
X27128049Y-18838342D01*
X26989580Y-18895697D01*
X26989578Y-18895698D01*
X26896439Y-18957931D01*
X26829762Y-18978808D01*
X26762382Y-18960323D01*
X26758660Y-18957931D01*
X26733373Y-18941035D01*
X26710421Y-18925699D01*
X26710418Y-18925697D01*
X26710417Y-18925697D01*
X26571950Y-18868342D01*
X26571938Y-18868339D01*
X26424945Y-18839100D01*
X26424942Y-18839100D01*
X26275058Y-18839100D01*
X26275055Y-18839100D01*
X26128061Y-18868339D01*
X26128049Y-18868342D01*
X25989580Y-18925697D01*
X25989577Y-18925699D01*
X25864955Y-19008968D01*
X25864948Y-19008974D01*
X25813227Y-19060695D01*
X25751904Y-19094179D01*
X25682212Y-19089194D01*
X25626279Y-19047323D01*
X25622465Y-19041933D01*
X25571030Y-18964954D01*
X25571025Y-18964949D01*
X25571025Y-18964948D01*
X25465051Y-18858974D01*
X25465044Y-18858968D01*
X25340422Y-18775699D01*
X25340419Y-18775697D01*
X25201950Y-18718342D01*
X25201938Y-18718339D01*
X25054945Y-18689100D01*
X25054942Y-18689100D01*
X24905058Y-18689100D01*
X24905055Y-18689100D01*
X24758061Y-18718339D01*
X24758049Y-18718342D01*
X24619580Y-18775697D01*
X24619577Y-18775699D01*
X24494955Y-18858968D01*
X24494948Y-18858974D01*
X24388974Y-18964948D01*
X24388968Y-18964955D01*
X24305699Y-19089577D01*
X24305697Y-19089580D01*
X24248342Y-19228049D01*
X24248339Y-19228061D01*
X24219100Y-19375053D01*
X22326230Y-19375053D01*
X22331657Y-19361950D01*
X22331659Y-19361946D01*
X22334421Y-19348061D01*
X22335075Y-19344775D01*
X22360899Y-19214946D01*
X22360900Y-19214944D01*
X22360900Y-19065055D01*
X22360899Y-19065053D01*
X22343776Y-18978970D01*
X22331659Y-18918054D01*
X22324355Y-18900421D01*
X22274302Y-18779580D01*
X22274300Y-18779577D01*
X22191031Y-18654955D01*
X22191025Y-18654948D01*
X22085051Y-18548974D01*
X22085044Y-18548968D01*
X21960422Y-18465699D01*
X21960419Y-18465697D01*
X21958864Y-18465053D01*
X29529100Y-18465053D01*
X29529100Y-18614946D01*
X29558339Y-18761938D01*
X29558342Y-18761950D01*
X29615697Y-18900419D01*
X29615699Y-18900422D01*
X29698968Y-19025044D01*
X29698974Y-19025051D01*
X29804948Y-19131025D01*
X29804955Y-19131031D01*
X29929577Y-19214300D01*
X29929580Y-19214302D01*
X30068049Y-19271657D01*
X30068054Y-19271659D01*
X30215053Y-19300899D01*
X30215056Y-19300900D01*
X30215058Y-19300900D01*
X30364944Y-19300900D01*
X30364945Y-19300899D01*
X30511946Y-19271659D01*
X30648869Y-19214944D01*
X30650419Y-19214302D01*
X30650422Y-19214300D01*
X30775046Y-19131030D01*
X30881030Y-19025046D01*
X30964301Y-18900421D01*
X30973186Y-18878972D01*
X30994635Y-18827187D01*
X31021659Y-18761946D01*
X31050900Y-18614942D01*
X31050900Y-18465058D01*
X31050900Y-18465055D01*
X31050899Y-18465053D01*
X31038588Y-18403157D01*
X31034987Y-18385053D01*
X39369100Y-18385053D01*
X39369100Y-18534946D01*
X39398339Y-18681938D01*
X39398342Y-18681950D01*
X39455697Y-18820419D01*
X39455699Y-18820422D01*
X39538968Y-18945044D01*
X39538974Y-18945051D01*
X39644948Y-19051025D01*
X39644955Y-19051031D01*
X39769577Y-19134300D01*
X39769580Y-19134302D01*
X39908049Y-19191657D01*
X39908054Y-19191659D01*
X40055053Y-19220899D01*
X40055056Y-19220900D01*
X40055058Y-19220900D01*
X40204944Y-19220900D01*
X40204945Y-19220899D01*
X40351946Y-19191659D01*
X40490421Y-19134301D01*
X40615046Y-19051030D01*
X40721030Y-18945046D01*
X40804301Y-18820421D01*
X40861659Y-18681946D01*
X40890900Y-18534942D01*
X40890900Y-18385058D01*
X40890900Y-18385055D01*
X40890899Y-18385053D01*
X40861660Y-18238061D01*
X40861659Y-18238054D01*
X40861657Y-18238049D01*
X40804302Y-18099580D01*
X40804300Y-18099577D01*
X40721031Y-17974955D01*
X40721025Y-17974948D01*
X40615051Y-17868974D01*
X40615044Y-17868968D01*
X40490422Y-17785699D01*
X40490419Y-17785697D01*
X40351950Y-17728342D01*
X40351938Y-17728339D01*
X40204945Y-17699100D01*
X40204942Y-17699100D01*
X40055058Y-17699100D01*
X40055055Y-17699100D01*
X39908061Y-17728339D01*
X39908049Y-17728342D01*
X39769580Y-17785697D01*
X39769577Y-17785699D01*
X39644955Y-17868968D01*
X39644948Y-17868974D01*
X39538974Y-17974948D01*
X39538968Y-17974955D01*
X39455699Y-18099577D01*
X39455697Y-18099580D01*
X39398342Y-18238049D01*
X39398339Y-18238061D01*
X39369100Y-18385053D01*
X31034987Y-18385053D01*
X31021660Y-18318059D01*
X31021659Y-18318058D01*
X31021659Y-18318054D01*
X30988520Y-18238049D01*
X30964302Y-18179580D01*
X30964300Y-18179577D01*
X30881031Y-18054955D01*
X30881025Y-18054948D01*
X30775051Y-17948974D01*
X30775044Y-17948968D01*
X30650422Y-17865699D01*
X30650419Y-17865697D01*
X30511950Y-17808342D01*
X30511938Y-17808339D01*
X30364945Y-17779100D01*
X30364942Y-17779100D01*
X30215058Y-17779100D01*
X30215055Y-17779100D01*
X30068061Y-17808339D01*
X30068049Y-17808342D01*
X29929580Y-17865697D01*
X29929577Y-17865699D01*
X29804955Y-17948968D01*
X29804948Y-17948974D01*
X29698974Y-18054948D01*
X29698968Y-18054955D01*
X29615699Y-18179577D01*
X29615697Y-18179580D01*
X29558342Y-18318049D01*
X29558339Y-18318061D01*
X29529100Y-18465053D01*
X21958864Y-18465053D01*
X21821950Y-18408342D01*
X21821938Y-18408339D01*
X21674945Y-18379100D01*
X21674942Y-18379100D01*
X21525058Y-18379100D01*
X21525055Y-18379100D01*
X21378061Y-18408339D01*
X21378049Y-18408342D01*
X21239580Y-18465697D01*
X21239577Y-18465699D01*
X21114955Y-18548968D01*
X21114948Y-18548974D01*
X21008974Y-18654948D01*
X21008968Y-18654955D01*
X20925699Y-18779577D01*
X20925697Y-18779580D01*
X20868342Y-18918049D01*
X20868339Y-18918061D01*
X20839100Y-19065053D01*
X300500Y-19065053D01*
X300500Y-16722155D01*
X4310000Y-16722155D01*
X4310000Y-17370000D01*
X5226988Y-17370000D01*
X5194075Y-17427007D01*
X5160000Y-17554174D01*
X5160000Y-17685826D01*
X5194075Y-17812993D01*
X5226988Y-17870000D01*
X4310000Y-17870000D01*
X4310000Y-18517844D01*
X4316401Y-18577372D01*
X4316403Y-18577379D01*
X4366645Y-18712086D01*
X4366649Y-18712093D01*
X4452809Y-18827187D01*
X4452812Y-18827190D01*
X4567906Y-18913350D01*
X4567913Y-18913354D01*
X4702620Y-18963596D01*
X4702627Y-18963598D01*
X4762155Y-18969999D01*
X4762172Y-18970000D01*
X5410000Y-18970000D01*
X5410000Y-18053012D01*
X5467007Y-18085925D01*
X5594174Y-18120000D01*
X5725826Y-18120000D01*
X5852993Y-18085925D01*
X5910000Y-18053012D01*
X5910000Y-18970000D01*
X6557828Y-18970000D01*
X6557844Y-18969999D01*
X6617372Y-18963598D01*
X6617379Y-18963596D01*
X6752086Y-18913354D01*
X6752093Y-18913350D01*
X6867187Y-18827190D01*
X6867190Y-18827187D01*
X6953350Y-18712093D01*
X6953355Y-18712084D01*
X6999348Y-18588770D01*
X7041219Y-18532836D01*
X7106683Y-18508418D01*
X7174956Y-18523269D01*
X7203211Y-18544421D01*
X7314996Y-18656206D01*
X7487991Y-18781894D01*
X7576883Y-18827187D01*
X7678516Y-18878972D01*
X7678519Y-18878973D01*
X7729995Y-18895698D01*
X7881884Y-18945049D01*
X8093084Y-18978500D01*
X8093085Y-18978500D01*
X8306915Y-18978500D01*
X8306916Y-18978500D01*
X8518116Y-18945049D01*
X8526452Y-18942340D01*
X8530471Y-18941035D01*
X8721480Y-18878973D01*
X8721483Y-18878972D01*
X8912009Y-18781894D01*
X9085004Y-18656206D01*
X9236206Y-18505004D01*
X9361894Y-18332009D01*
X9458972Y-18141483D01*
X9525049Y-17938116D01*
X9558500Y-17726916D01*
X9558500Y-17513084D01*
X9525049Y-17301884D01*
X9492010Y-17200200D01*
X9458973Y-17098519D01*
X9458972Y-17098516D01*
X9399043Y-16980900D01*
X9361894Y-16907991D01*
X9337963Y-16875053D01*
X12319100Y-16875053D01*
X12319100Y-17024946D01*
X12348339Y-17171938D01*
X12348342Y-17171950D01*
X12405697Y-17310419D01*
X12405699Y-17310422D01*
X12488968Y-17435044D01*
X12488974Y-17435051D01*
X12594948Y-17541025D01*
X12594955Y-17541031D01*
X12719577Y-17624300D01*
X12719580Y-17624302D01*
X12858049Y-17681657D01*
X12858054Y-17681659D01*
X12945736Y-17699100D01*
X13005053Y-17710899D01*
X13005056Y-17710900D01*
X13005058Y-17710900D01*
X13154944Y-17710900D01*
X13154945Y-17710899D01*
X13301946Y-17681659D01*
X13440421Y-17624301D01*
X13565046Y-17541030D01*
X13671030Y-17435046D01*
X13754301Y-17310421D01*
X13811659Y-17171946D01*
X13840900Y-17024942D01*
X13840900Y-16935053D01*
X16439100Y-16935053D01*
X16439100Y-17084946D01*
X16468339Y-17231938D01*
X16468342Y-17231950D01*
X16525697Y-17370419D01*
X16525699Y-17370422D01*
X16608968Y-17495044D01*
X16608974Y-17495051D01*
X16714948Y-17601025D01*
X16714955Y-17601031D01*
X16839577Y-17684300D01*
X16839580Y-17684302D01*
X16978049Y-17741657D01*
X16978054Y-17741659D01*
X17125053Y-17770899D01*
X17125056Y-17770900D01*
X17125058Y-17770900D01*
X17274944Y-17770900D01*
X17274945Y-17770899D01*
X17421946Y-17741659D01*
X17524693Y-17699100D01*
X17560419Y-17684302D01*
X17560422Y-17684300D01*
X17685046Y-17601030D01*
X17791030Y-17495046D01*
X17874301Y-17370421D01*
X17874476Y-17370000D01*
X17899154Y-17310421D01*
X17926230Y-17245053D01*
X36229100Y-17245053D01*
X36229100Y-17394946D01*
X36258339Y-17541938D01*
X36258342Y-17541950D01*
X36315697Y-17680419D01*
X36315699Y-17680422D01*
X36398968Y-17805044D01*
X36398974Y-17805051D01*
X36504948Y-17911025D01*
X36504955Y-17911031D01*
X36629577Y-17994300D01*
X36629580Y-17994302D01*
X36768049Y-18051657D01*
X36768054Y-18051659D01*
X36915053Y-18080899D01*
X36915056Y-18080900D01*
X36915058Y-18080900D01*
X37064944Y-18080900D01*
X37064945Y-18080899D01*
X37211946Y-18051659D01*
X37350421Y-17994301D01*
X37475046Y-17911030D01*
X37581030Y-17805046D01*
X37664301Y-17680421D01*
X37721659Y-17541946D01*
X37750900Y-17394942D01*
X37750900Y-17245058D01*
X37750900Y-17245055D01*
X37750899Y-17245053D01*
X37730333Y-17141660D01*
X37721659Y-17098054D01*
X37720047Y-17094162D01*
X37664302Y-16959580D01*
X37664300Y-16959577D01*
X37581031Y-16834955D01*
X37581025Y-16834948D01*
X37475051Y-16728974D01*
X37475044Y-16728968D01*
X37350422Y-16645699D01*
X37350419Y-16645697D01*
X37211950Y-16588342D01*
X37211938Y-16588339D01*
X37064945Y-16559100D01*
X37064942Y-16559100D01*
X36915058Y-16559100D01*
X36915055Y-16559100D01*
X36768061Y-16588339D01*
X36768049Y-16588342D01*
X36629580Y-16645697D01*
X36629577Y-16645699D01*
X36504955Y-16728968D01*
X36504948Y-16728974D01*
X36398974Y-16834948D01*
X36398968Y-16834955D01*
X36315699Y-16959577D01*
X36315697Y-16959580D01*
X36258342Y-17098049D01*
X36258339Y-17098061D01*
X36229100Y-17245053D01*
X17926230Y-17245053D01*
X17931659Y-17231946D01*
X17960900Y-17084942D01*
X17960900Y-16935058D01*
X17960900Y-16935055D01*
X17960899Y-16935053D01*
X17948965Y-16875058D01*
X17931659Y-16788054D01*
X17924355Y-16770421D01*
X17874302Y-16649580D01*
X17874300Y-16649577D01*
X17791031Y-16524955D01*
X17791025Y-16524948D01*
X17685051Y-16418974D01*
X17685044Y-16418968D01*
X17560422Y-16335699D01*
X17560419Y-16335697D01*
X17421950Y-16278342D01*
X17421938Y-16278339D01*
X17274945Y-16249100D01*
X17274942Y-16249100D01*
X17125058Y-16249100D01*
X17125055Y-16249100D01*
X16978061Y-16278339D01*
X16978049Y-16278342D01*
X16839580Y-16335697D01*
X16839577Y-16335699D01*
X16714955Y-16418968D01*
X16714948Y-16418974D01*
X16608974Y-16524948D01*
X16608968Y-16524955D01*
X16525699Y-16649577D01*
X16525697Y-16649580D01*
X16468342Y-16788049D01*
X16468339Y-16788061D01*
X16439100Y-16935053D01*
X13840900Y-16935053D01*
X13840900Y-16875058D01*
X13840900Y-16875055D01*
X13840899Y-16875053D01*
X13832923Y-16834954D01*
X13811659Y-16728054D01*
X13800914Y-16702113D01*
X13754302Y-16589580D01*
X13754300Y-16589577D01*
X13671031Y-16464955D01*
X13671025Y-16464948D01*
X13565051Y-16358974D01*
X13565044Y-16358968D01*
X13440422Y-16275699D01*
X13440419Y-16275697D01*
X13301950Y-16218342D01*
X13301938Y-16218339D01*
X13154945Y-16189100D01*
X13154942Y-16189100D01*
X13005058Y-16189100D01*
X13005055Y-16189100D01*
X12858061Y-16218339D01*
X12858049Y-16218342D01*
X12719580Y-16275697D01*
X12719577Y-16275699D01*
X12594955Y-16358968D01*
X12594948Y-16358974D01*
X12488974Y-16464948D01*
X12488968Y-16464955D01*
X12405699Y-16589577D01*
X12405697Y-16589580D01*
X12348342Y-16728049D01*
X12348339Y-16728061D01*
X12319100Y-16875053D01*
X9337963Y-16875053D01*
X9236206Y-16734996D01*
X9085004Y-16583794D01*
X8912009Y-16458106D01*
X8880301Y-16441950D01*
X8721483Y-16361027D01*
X8721480Y-16361026D01*
X8518117Y-16294951D01*
X8396552Y-16275697D01*
X8306916Y-16261500D01*
X8093084Y-16261500D01*
X8022684Y-16272650D01*
X7881882Y-16294951D01*
X7678519Y-16361026D01*
X7678516Y-16361027D01*
X7487990Y-16458106D01*
X7314997Y-16583793D01*
X7203211Y-16695579D01*
X7141888Y-16729063D01*
X7072196Y-16724079D01*
X7016263Y-16682207D01*
X6999348Y-16651230D01*
X6953354Y-16527913D01*
X6953350Y-16527906D01*
X6867190Y-16412812D01*
X6867187Y-16412809D01*
X6752093Y-16326649D01*
X6752086Y-16326645D01*
X6617379Y-16276403D01*
X6617372Y-16276401D01*
X6557844Y-16270000D01*
X5910000Y-16270000D01*
X5910000Y-17186988D01*
X5852993Y-17154075D01*
X5725826Y-17120000D01*
X5594174Y-17120000D01*
X5467007Y-17154075D01*
X5410000Y-17186988D01*
X5410000Y-16270000D01*
X4762155Y-16270000D01*
X4702627Y-16276401D01*
X4702620Y-16276403D01*
X4567913Y-16326645D01*
X4567906Y-16326649D01*
X4452812Y-16412809D01*
X4452809Y-16412812D01*
X4366649Y-16527906D01*
X4366645Y-16527913D01*
X4316403Y-16662620D01*
X4316401Y-16662627D01*
X4310000Y-16722155D01*
X300500Y-16722155D01*
X300500Y-13595053D01*
X21579100Y-13595053D01*
X21579100Y-13744946D01*
X21608339Y-13891938D01*
X21608342Y-13891950D01*
X21665697Y-14030419D01*
X21665699Y-14030422D01*
X21748968Y-14155044D01*
X21748974Y-14155051D01*
X21854948Y-14261025D01*
X21854955Y-14261031D01*
X21979577Y-14344300D01*
X21979580Y-14344302D01*
X22118049Y-14401657D01*
X22118054Y-14401659D01*
X22265053Y-14430899D01*
X22265056Y-14430900D01*
X22409613Y-14430900D01*
X22476652Y-14450585D01*
X22522407Y-14503389D01*
X22532351Y-14572547D01*
X22503326Y-14636103D01*
X22457065Y-14669461D01*
X22369580Y-14705697D01*
X22369577Y-14705699D01*
X22244955Y-14788968D01*
X22244948Y-14788974D01*
X22138974Y-14894948D01*
X22138968Y-14894955D01*
X22055699Y-15019577D01*
X22055697Y-15019580D01*
X21998342Y-15158049D01*
X21998339Y-15158061D01*
X21969100Y-15305053D01*
X21969100Y-15396193D01*
X21949415Y-15463232D01*
X21945826Y-15468163D01*
X21859836Y-15596857D01*
X21859834Y-15596860D01*
X21802479Y-15735329D01*
X21802476Y-15735341D01*
X21773237Y-15882333D01*
X21773237Y-16032226D01*
X21802476Y-16179218D01*
X21802479Y-16179230D01*
X21859834Y-16317699D01*
X21859836Y-16317702D01*
X21943105Y-16442324D01*
X21943111Y-16442331D01*
X22049085Y-16548305D01*
X22049092Y-16548311D01*
X22173714Y-16631580D01*
X22173717Y-16631582D01*
X22295938Y-16682207D01*
X22312191Y-16688939D01*
X22449427Y-16716237D01*
X22459190Y-16718179D01*
X22459193Y-16718180D01*
X22459195Y-16718180D01*
X22609081Y-16718180D01*
X22609082Y-16718179D01*
X22756083Y-16688939D01*
X22860479Y-16645697D01*
X22894556Y-16631582D01*
X22894559Y-16631580D01*
X22933977Y-16605242D01*
X23019183Y-16548310D01*
X23125167Y-16442326D01*
X23196844Y-16335053D01*
X28629100Y-16335053D01*
X28629100Y-16484946D01*
X28658339Y-16631938D01*
X28658342Y-16631950D01*
X28715697Y-16770419D01*
X28715699Y-16770422D01*
X28798968Y-16895044D01*
X28798974Y-16895051D01*
X28904948Y-17001025D01*
X28904955Y-17001031D01*
X29029577Y-17084300D01*
X29029580Y-17084302D01*
X29168049Y-17141657D01*
X29168054Y-17141659D01*
X29315053Y-17170899D01*
X29315056Y-17170900D01*
X29315058Y-17170900D01*
X29464944Y-17170900D01*
X29464945Y-17170899D01*
X29611946Y-17141659D01*
X29630850Y-17133828D01*
X29653602Y-17124405D01*
X29750419Y-17084302D01*
X29750422Y-17084300D01*
X29875046Y-17001030D01*
X29981030Y-16895046D01*
X30064301Y-16770421D01*
X30068307Y-16760751D01*
X30100840Y-16682207D01*
X30121659Y-16631946D01*
X30150900Y-16484942D01*
X30150900Y-16335058D01*
X30150900Y-16335055D01*
X30133802Y-16249100D01*
X30130302Y-16231505D01*
X30133036Y-16200948D01*
X30133584Y-16170261D01*
X30136287Y-16164609D01*
X30136529Y-16161914D01*
X30145348Y-16145053D01*
X33259100Y-16145053D01*
X33259100Y-16294946D01*
X33288339Y-16441938D01*
X33288342Y-16441950D01*
X33345697Y-16580419D01*
X33345699Y-16580422D01*
X33428968Y-16705044D01*
X33428974Y-16705051D01*
X33534948Y-16811025D01*
X33534955Y-16811031D01*
X33659577Y-16894300D01*
X33659580Y-16894302D01*
X33757963Y-16935053D01*
X33798054Y-16951659D01*
X33945053Y-16980899D01*
X33945056Y-16980900D01*
X33945058Y-16980900D01*
X34094944Y-16980900D01*
X34094945Y-16980899D01*
X34241946Y-16951659D01*
X34347373Y-16907990D01*
X34380419Y-16894302D01*
X34380422Y-16894300D01*
X34409220Y-16875058D01*
X34505046Y-16811030D01*
X34611030Y-16705046D01*
X34694301Y-16580421D01*
X34703133Y-16559100D01*
X34733849Y-16484944D01*
X34751659Y-16441946D01*
X34780900Y-16294942D01*
X34780900Y-16145058D01*
X34780900Y-16145055D01*
X34780899Y-16145053D01*
X34779580Y-16138423D01*
X34751659Y-15998054D01*
X34751657Y-15998049D01*
X34694304Y-15859585D01*
X34694298Y-15859574D01*
X34679619Y-15837605D01*
X34658742Y-15770928D01*
X34677227Y-15703548D01*
X34695038Y-15681037D01*
X34771030Y-15605046D01*
X34854301Y-15480421D01*
X34859379Y-15468163D01*
X34911657Y-15341950D01*
X34911659Y-15341946D01*
X34940900Y-15194942D01*
X34940900Y-15045058D01*
X34940900Y-15045055D01*
X34940899Y-15045053D01*
X34933071Y-15005699D01*
X34911659Y-14898054D01*
X34910375Y-14894954D01*
X34854302Y-14759580D01*
X34854300Y-14759577D01*
X34771031Y-14634955D01*
X34771025Y-14634948D01*
X34665051Y-14528974D01*
X34665044Y-14528968D01*
X34540422Y-14445699D01*
X34540419Y-14445697D01*
X34401950Y-14388342D01*
X34401938Y-14388339D01*
X34254945Y-14359100D01*
X34254942Y-14359100D01*
X34105058Y-14359100D01*
X34105055Y-14359100D01*
X33958061Y-14388339D01*
X33958049Y-14388342D01*
X33819580Y-14445697D01*
X33819577Y-14445699D01*
X33694955Y-14528968D01*
X33694948Y-14528974D01*
X33588974Y-14634948D01*
X33588968Y-14634955D01*
X33505699Y-14759577D01*
X33505697Y-14759580D01*
X33448342Y-14898049D01*
X33448339Y-14898061D01*
X33419100Y-15045053D01*
X33419100Y-15194946D01*
X33448339Y-15341938D01*
X33448342Y-15341950D01*
X33505697Y-15480419D01*
X33505698Y-15480421D01*
X33520380Y-15502394D01*
X33541257Y-15569071D01*
X33522771Y-15636451D01*
X33504959Y-15658964D01*
X33428968Y-15734955D01*
X33345699Y-15859577D01*
X33345697Y-15859580D01*
X33288342Y-15998049D01*
X33288339Y-15998061D01*
X33259100Y-16145053D01*
X30145348Y-16145053D01*
X30148810Y-16138435D01*
X30214301Y-16040421D01*
X30217696Y-16032226D01*
X30271657Y-15901950D01*
X30271659Y-15901946D01*
X30300900Y-15754942D01*
X30300900Y-15605058D01*
X30300900Y-15605055D01*
X30300899Y-15605053D01*
X30276108Y-15480421D01*
X30271659Y-15458054D01*
X30266766Y-15446241D01*
X30214302Y-15319580D01*
X30214300Y-15319577D01*
X30131031Y-15194955D01*
X30131025Y-15194948D01*
X30025051Y-15088974D01*
X30025044Y-15088968D01*
X29900422Y-15005699D01*
X29900419Y-15005697D01*
X29761950Y-14948342D01*
X29761938Y-14948339D01*
X29614945Y-14919100D01*
X29614942Y-14919100D01*
X29465058Y-14919100D01*
X29465055Y-14919100D01*
X29318061Y-14948339D01*
X29318049Y-14948342D01*
X29179580Y-15005697D01*
X29179577Y-15005699D01*
X29054955Y-15088968D01*
X29054948Y-15088974D01*
X28948974Y-15194948D01*
X28948968Y-15194955D01*
X28865699Y-15319577D01*
X28865697Y-15319580D01*
X28808342Y-15458049D01*
X28808339Y-15458061D01*
X28779100Y-15605053D01*
X28779100Y-15754946D01*
X28799697Y-15858493D01*
X28793470Y-15928084D01*
X28781183Y-15951574D01*
X28715697Y-16049582D01*
X28658342Y-16188049D01*
X28658339Y-16188061D01*
X28629100Y-16335053D01*
X23196844Y-16335053D01*
X23208438Y-16317701D01*
X23265796Y-16179226D01*
X23295037Y-16032222D01*
X23295037Y-15941086D01*
X23314722Y-15874047D01*
X23318312Y-15869113D01*
X23321028Y-15865047D01*
X23321030Y-15865046D01*
X23404301Y-15740421D01*
X23406566Y-15734954D01*
X23438041Y-15658964D01*
X23461659Y-15601946D01*
X23490900Y-15454942D01*
X23490900Y-15305058D01*
X23490900Y-15305055D01*
X23490899Y-15305053D01*
X23468999Y-15194954D01*
X23461659Y-15158054D01*
X23461657Y-15158049D01*
X23404302Y-15019580D01*
X23404300Y-15019577D01*
X23321031Y-14894955D01*
X23321025Y-14894948D01*
X23215051Y-14788974D01*
X23215044Y-14788968D01*
X23090422Y-14705699D01*
X23090419Y-14705697D01*
X22951950Y-14648342D01*
X22951938Y-14648339D01*
X22804945Y-14619100D01*
X22804942Y-14619100D01*
X22660387Y-14619100D01*
X22593348Y-14599415D01*
X22547593Y-14546611D01*
X22537649Y-14477453D01*
X22566674Y-14413897D01*
X22612935Y-14380539D01*
X22700419Y-14344302D01*
X22700422Y-14344300D01*
X22825046Y-14261030D01*
X22931030Y-14155046D01*
X23014301Y-14030421D01*
X23071659Y-13891946D01*
X23100900Y-13744942D01*
X23100900Y-13595058D01*
X23100900Y-13595055D01*
X23100899Y-13595053D01*
X23071660Y-13448061D01*
X23071659Y-13448054D01*
X23027275Y-13340900D01*
X23014302Y-13309580D01*
X23014300Y-13309577D01*
X22931031Y-13184955D01*
X22931025Y-13184948D01*
X22825051Y-13078974D01*
X22825044Y-13078968D01*
X22700422Y-12995699D01*
X22700419Y-12995697D01*
X22561950Y-12938342D01*
X22561938Y-12938339D01*
X22414945Y-12909100D01*
X22414942Y-12909100D01*
X22265058Y-12909100D01*
X22265055Y-12909100D01*
X22118061Y-12938339D01*
X22118049Y-12938342D01*
X21979580Y-12995697D01*
X21979577Y-12995699D01*
X21854955Y-13078968D01*
X21854948Y-13078974D01*
X21748974Y-13184948D01*
X21748968Y-13184955D01*
X21665699Y-13309577D01*
X21665697Y-13309580D01*
X21608342Y-13448049D01*
X21608339Y-13448061D01*
X21579100Y-13595053D01*
X300500Y-13595053D01*
X300500Y-11655053D01*
X7109100Y-11655053D01*
X7109100Y-11804946D01*
X7138339Y-11951938D01*
X7138342Y-11951950D01*
X7195697Y-12090419D01*
X7195699Y-12090422D01*
X7278968Y-12215044D01*
X7278974Y-12215051D01*
X7384948Y-12321025D01*
X7384955Y-12321031D01*
X7509577Y-12404300D01*
X7509580Y-12404302D01*
X7648049Y-12461657D01*
X7648054Y-12461659D01*
X7795053Y-12490899D01*
X7795056Y-12490900D01*
X7795058Y-12490900D01*
X7944944Y-12490900D01*
X7944945Y-12490899D01*
X8091946Y-12461659D01*
X8230421Y-12404301D01*
X8355046Y-12321030D01*
X8461030Y-12215046D01*
X8544301Y-12090421D01*
X8547812Y-12081946D01*
X8571402Y-12024993D01*
X8601659Y-11951946D01*
X8630900Y-11804942D01*
X8630900Y-11655058D01*
X8630900Y-11655055D01*
X8630899Y-11655053D01*
X8614693Y-11573580D01*
X8601659Y-11508054D01*
X8546528Y-11374955D01*
X8544302Y-11369580D01*
X8544300Y-11369577D01*
X8461031Y-11244955D01*
X8461025Y-11244948D01*
X8355051Y-11138974D01*
X8355044Y-11138968D01*
X8230422Y-11055699D01*
X8230419Y-11055697D01*
X8091950Y-10998342D01*
X8091938Y-10998339D01*
X7944945Y-10969100D01*
X7944942Y-10969100D01*
X7795058Y-10969100D01*
X7795055Y-10969100D01*
X7648061Y-10998339D01*
X7648049Y-10998342D01*
X7509580Y-11055697D01*
X7509577Y-11055699D01*
X7384955Y-11138968D01*
X7384948Y-11138974D01*
X7278974Y-11244948D01*
X7278968Y-11244955D01*
X7195699Y-11369577D01*
X7195697Y-11369580D01*
X7138342Y-11508049D01*
X7138339Y-11508061D01*
X7109100Y-11655053D01*
X300500Y-11655053D01*
X300500Y-7460118D01*
X12248499Y-7460118D01*
X12287562Y-7656496D01*
X12287563Y-7656499D01*
X12287564Y-7656502D01*
X12364190Y-7841493D01*
X12382959Y-7869583D01*
X12425839Y-7933759D01*
X12446716Y-8000437D01*
X12428231Y-8067817D01*
X12425839Y-8071538D01*
X12371722Y-8152531D01*
X12295737Y-8335976D01*
X12295735Y-8335984D01*
X12257000Y-8530716D01*
X12257000Y-8729283D01*
X12295735Y-8924015D01*
X12295737Y-8924023D01*
X12371721Y-9107465D01*
X12396658Y-9144786D01*
X12947500Y-8593945D01*
X12947500Y-8671800D01*
X12969137Y-8752551D01*
X13010937Y-8824950D01*
X13070050Y-8884063D01*
X13142449Y-8925863D01*
X13223200Y-8947500D01*
X13306800Y-8947500D01*
X13387551Y-8925863D01*
X13459950Y-8884063D01*
X13519063Y-8824950D01*
X13532673Y-8801376D01*
X13557562Y-8926496D01*
X13557564Y-8926501D01*
X13566219Y-8947397D01*
X13573687Y-9016866D01*
X13542411Y-9079345D01*
X13482322Y-9114997D01*
X13412496Y-9112502D01*
X13363975Y-9082529D01*
X13265000Y-8983553D01*
X12983553Y-9265000D01*
X13264999Y-9546445D01*
X13363975Y-9447470D01*
X13425298Y-9413985D01*
X13494990Y-9418969D01*
X13550924Y-9460840D01*
X13575341Y-9526304D01*
X13566219Y-9582601D01*
X13557565Y-9603493D01*
X13557562Y-9603503D01*
X13532673Y-9728624D01*
X13519063Y-9705050D01*
X13459950Y-9645937D01*
X13387551Y-9604137D01*
X13306800Y-9582500D01*
X13223200Y-9582500D01*
X13142449Y-9604137D01*
X13070050Y-9645937D01*
X13010937Y-9705050D01*
X12969137Y-9777449D01*
X12947500Y-9858200D01*
X12947500Y-9936053D01*
X12396658Y-9385211D01*
X12371726Y-9422524D01*
X12371721Y-9422533D01*
X12295737Y-9605976D01*
X12295735Y-9605984D01*
X12257000Y-9800716D01*
X12257000Y-9999283D01*
X12295735Y-10194015D01*
X12295737Y-10194023D01*
X12371721Y-10377466D01*
X12425839Y-10458458D01*
X12446717Y-10525135D01*
X12428233Y-10592515D01*
X12425840Y-10596238D01*
X12364190Y-10688506D01*
X12287564Y-10873497D01*
X12287562Y-10873503D01*
X12248500Y-11069881D01*
X12248500Y-11069884D01*
X12248500Y-11270116D01*
X12248500Y-11270118D01*
X12248499Y-11270118D01*
X12287562Y-11466496D01*
X12287564Y-11466502D01*
X12364189Y-11651491D01*
X12425839Y-11743759D01*
X12446716Y-11810437D01*
X12428231Y-11877817D01*
X12425839Y-11881538D01*
X12371722Y-11962531D01*
X12295737Y-12145976D01*
X12295735Y-12145984D01*
X12257000Y-12340716D01*
X12257000Y-12539283D01*
X12295735Y-12734015D01*
X12295737Y-12734023D01*
X12371719Y-12917462D01*
X12396659Y-12954786D01*
X12947500Y-12403945D01*
X12947500Y-12481800D01*
X12969137Y-12562551D01*
X13010937Y-12634950D01*
X13070050Y-12694063D01*
X13142449Y-12735863D01*
X13223200Y-12757500D01*
X13301052Y-12757500D01*
X12750211Y-13308339D01*
X12750212Y-13308340D01*
X12787528Y-13333275D01*
X12787534Y-13333278D01*
X12970976Y-13409262D01*
X12970984Y-13409264D01*
X13165716Y-13447999D01*
X13165719Y-13448000D01*
X13364281Y-13448000D01*
X13364283Y-13447999D01*
X13559015Y-13409264D01*
X13559023Y-13409262D01*
X13742464Y-13333279D01*
X13742475Y-13333273D01*
X13823458Y-13279161D01*
X13890135Y-13258282D01*
X13957516Y-13276766D01*
X13961231Y-13279154D01*
X14053507Y-13340810D01*
X14238498Y-13417436D01*
X14238502Y-13417436D01*
X14238503Y-13417437D01*
X14434881Y-13456500D01*
X14434884Y-13456500D01*
X14635118Y-13456500D01*
X14767238Y-13430218D01*
X14831502Y-13417436D01*
X15016493Y-13340810D01*
X15182981Y-13229567D01*
X15324567Y-13087981D01*
X15435810Y-12921493D01*
X15512436Y-12736502D01*
X15525218Y-12672238D01*
X15551500Y-12540118D01*
X15551500Y-12505053D01*
X27019100Y-12505053D01*
X27019100Y-12654946D01*
X27048339Y-12801938D01*
X27048342Y-12801950D01*
X27105697Y-12940419D01*
X27105699Y-12940422D01*
X27188968Y-13065044D01*
X27188974Y-13065051D01*
X27294948Y-13171025D01*
X27294955Y-13171031D01*
X27419577Y-13254300D01*
X27419580Y-13254302D01*
X27553032Y-13309579D01*
X27558054Y-13311659D01*
X27666715Y-13333273D01*
X27705053Y-13340899D01*
X27705056Y-13340900D01*
X27705058Y-13340900D01*
X27854944Y-13340900D01*
X27854945Y-13340899D01*
X28001946Y-13311659D01*
X28140421Y-13254301D01*
X28265046Y-13171030D01*
X28371030Y-13065046D01*
X28454301Y-12940421D01*
X28455164Y-12938339D01*
X28473420Y-12894262D01*
X28511659Y-12801946D01*
X28540900Y-12654942D01*
X28540900Y-12505058D01*
X28540900Y-12505055D01*
X28540899Y-12505053D01*
X28536274Y-12481800D01*
X28511659Y-12358054D01*
X28506270Y-12345044D01*
X28454302Y-12219580D01*
X28454300Y-12219577D01*
X28371031Y-12094955D01*
X28371025Y-12094948D01*
X28265051Y-11988974D01*
X28265044Y-11988968D01*
X28140422Y-11905699D01*
X28140419Y-11905697D01*
X28111036Y-11893527D01*
X28001950Y-11848342D01*
X28001938Y-11848339D01*
X27854945Y-11819100D01*
X27854942Y-11819100D01*
X27705058Y-11819100D01*
X27705055Y-11819100D01*
X27558061Y-11848339D01*
X27558049Y-11848342D01*
X27419580Y-11905697D01*
X27419577Y-11905699D01*
X27294955Y-11988968D01*
X27294948Y-11988974D01*
X27188974Y-12094948D01*
X27188968Y-12094955D01*
X27105699Y-12219577D01*
X27105697Y-12219580D01*
X27048342Y-12358049D01*
X27048339Y-12358061D01*
X27019100Y-12505053D01*
X15551500Y-12505053D01*
X15551500Y-12339881D01*
X15512437Y-12143502D01*
X15512436Y-12143500D01*
X15512436Y-12143498D01*
X15435810Y-11958507D01*
X15379270Y-11873888D01*
X15358393Y-11807214D01*
X15364472Y-11785053D01*
X30039100Y-11785053D01*
X30039100Y-11934946D01*
X30068339Y-12081938D01*
X30068342Y-12081950D01*
X30125697Y-12220419D01*
X30125699Y-12220422D01*
X30208968Y-12345044D01*
X30208974Y-12345051D01*
X30314948Y-12451025D01*
X30314955Y-12451031D01*
X30439577Y-12534300D01*
X30439580Y-12534302D01*
X30575058Y-12590418D01*
X30578054Y-12591659D01*
X30725053Y-12620899D01*
X30725056Y-12620900D01*
X30725058Y-12620900D01*
X30874944Y-12620900D01*
X30874945Y-12620899D01*
X31021946Y-12591659D01*
X31114262Y-12553420D01*
X31160419Y-12534302D01*
X31160422Y-12534300D01*
X31168212Y-12529095D01*
X31285046Y-12451030D01*
X31391030Y-12345046D01*
X31474301Y-12220421D01*
X31474650Y-12219580D01*
X31493420Y-12174262D01*
X31531659Y-12081946D01*
X31560900Y-11934942D01*
X31560900Y-11785058D01*
X31560900Y-11785055D01*
X31560899Y-11785053D01*
X31553550Y-11748106D01*
X31531659Y-11638054D01*
X31474301Y-11499579D01*
X31474299Y-11499577D01*
X31472990Y-11496415D01*
X31465521Y-11426945D01*
X31496796Y-11364466D01*
X31556885Y-11328814D01*
X31563336Y-11327349D01*
X31591946Y-11321659D01*
X31684262Y-11283420D01*
X31730419Y-11264302D01*
X31730422Y-11264300D01*
X31855046Y-11181030D01*
X31961030Y-11075046D01*
X32044301Y-10950421D01*
X32101659Y-10811946D01*
X32130900Y-10664942D01*
X32130900Y-10515058D01*
X32130900Y-10515055D01*
X32130899Y-10515053D01*
X32121163Y-10466108D01*
X32101659Y-10368054D01*
X32074747Y-10303084D01*
X44456500Y-10303084D01*
X44456500Y-10516915D01*
X44489951Y-10728117D01*
X44556026Y-10931480D01*
X44556027Y-10931483D01*
X44641433Y-11099100D01*
X44653106Y-11122009D01*
X44778794Y-11295004D01*
X44929996Y-11446206D01*
X44999103Y-11496415D01*
X45086182Y-11559682D01*
X45128847Y-11615012D01*
X45134826Y-11684626D01*
X45102220Y-11746421D01*
X45086182Y-11760318D01*
X45052135Y-11785055D01*
X44929996Y-11873794D01*
X44929994Y-11873796D01*
X44929993Y-11873796D01*
X44778796Y-12024993D01*
X44653106Y-12197990D01*
X44556027Y-12388516D01*
X44556026Y-12388519D01*
X44489951Y-12591882D01*
X44467046Y-12736502D01*
X44456500Y-12803084D01*
X44456500Y-13016916D01*
X44466329Y-13078974D01*
X44489951Y-13228117D01*
X44556026Y-13431480D01*
X44556027Y-13431483D01*
X44639371Y-13595053D01*
X44653106Y-13622009D01*
X44778794Y-13795004D01*
X44778796Y-13795006D01*
X44910893Y-13927103D01*
X44944378Y-13988426D01*
X44939394Y-14058118D01*
X44897522Y-14114051D01*
X44888309Y-14120322D01*
X44741351Y-14210967D01*
X44741347Y-14210970D01*
X44615971Y-14336346D01*
X44522886Y-14487259D01*
X44522884Y-14487264D01*
X44467113Y-14655572D01*
X44456500Y-14759447D01*
X44456500Y-16060537D01*
X44456501Y-16060553D01*
X44467113Y-16164427D01*
X44522884Y-16332735D01*
X44522886Y-16332740D01*
X44558142Y-16389898D01*
X44615970Y-16483652D01*
X44741348Y-16609030D01*
X44892262Y-16702115D01*
X45060574Y-16757887D01*
X45164455Y-16768500D01*
X46715544Y-16768499D01*
X46819426Y-16757887D01*
X46937871Y-16718638D01*
X47007695Y-16716237D01*
X47067737Y-16751968D01*
X47098930Y-16814489D01*
X47098489Y-16860534D01*
X47085500Y-16925839D01*
X47085500Y-17094165D01*
X47118336Y-17259241D01*
X47118338Y-17259249D01*
X47182750Y-17414755D01*
X47182755Y-17414764D01*
X47276265Y-17554711D01*
X47276268Y-17554715D01*
X47395284Y-17673731D01*
X47395288Y-17673734D01*
X47535235Y-17767244D01*
X47535244Y-17767249D01*
X47563855Y-17779100D01*
X47690751Y-17831662D01*
X47855834Y-17864499D01*
X47855838Y-17864500D01*
X47855839Y-17864500D01*
X48024162Y-17864500D01*
X48024163Y-17864499D01*
X48189249Y-17831662D01*
X48344758Y-17767248D01*
X48484712Y-17673734D01*
X48603734Y-17554712D01*
X48697248Y-17414758D01*
X48761662Y-17259249D01*
X48794500Y-17094161D01*
X48794500Y-16925839D01*
X48761662Y-16760751D01*
X48697248Y-16605242D01*
X48697247Y-16605241D01*
X48697244Y-16605235D01*
X48603734Y-16465288D01*
X48603731Y-16465284D01*
X48484715Y-16346268D01*
X48484711Y-16346265D01*
X48344764Y-16252755D01*
X48344755Y-16252750D01*
X48189249Y-16188338D01*
X48189241Y-16188336D01*
X48024165Y-16155500D01*
X48024161Y-16155500D01*
X47855839Y-16155500D01*
X47855834Y-16155500D01*
X47690758Y-16188336D01*
X47690746Y-16188339D01*
X47589981Y-16230077D01*
X47520511Y-16237546D01*
X47458032Y-16206270D01*
X47422381Y-16146181D01*
X47419171Y-16102915D01*
X47423500Y-16060545D01*
X47423499Y-14759456D01*
X47412887Y-14655574D01*
X47357115Y-14487262D01*
X47264030Y-14336348D01*
X47138652Y-14210970D01*
X47138648Y-14210967D01*
X46991690Y-14120322D01*
X46944965Y-14068374D01*
X46933744Y-13999412D01*
X46961587Y-13935330D01*
X46969084Y-13927125D01*
X47101206Y-13795004D01*
X47226894Y-13622009D01*
X47323972Y-13431483D01*
X47390049Y-13228116D01*
X47423500Y-13016916D01*
X47423500Y-12803084D01*
X47390049Y-12591884D01*
X47344284Y-12451031D01*
X47323973Y-12388519D01*
X47323972Y-12388516D01*
X47238323Y-12220422D01*
X47226894Y-12197991D01*
X47101206Y-12024996D01*
X46950004Y-11873794D01*
X46873184Y-11817981D01*
X46793818Y-11760318D01*
X46751152Y-11704988D01*
X46745173Y-11635375D01*
X46777779Y-11573580D01*
X46793818Y-11559682D01*
X46864884Y-11508049D01*
X46950004Y-11446206D01*
X47101206Y-11295004D01*
X47226894Y-11122009D01*
X47323972Y-10931483D01*
X47390049Y-10728116D01*
X47423500Y-10516916D01*
X47423500Y-10303084D01*
X47390049Y-10091884D01*
X47341291Y-9941819D01*
X47323973Y-9888519D01*
X47323972Y-9888516D01*
X47267380Y-9777449D01*
X47226894Y-9697991D01*
X47101206Y-9524996D01*
X46950004Y-9373794D01*
X46786586Y-9255064D01*
X46743921Y-9199734D01*
X46737942Y-9130121D01*
X46770548Y-9068326D01*
X46786587Y-9054428D01*
X46944459Y-8939727D01*
X46944464Y-8939723D01*
X47094723Y-8789464D01*
X47094727Y-8789459D01*
X47219620Y-8617557D01*
X47316095Y-8428217D01*
X47381757Y-8226129D01*
X47381757Y-8226126D01*
X47392231Y-8160000D01*
X46344146Y-8160000D01*
X46382630Y-8093343D01*
X46415000Y-7972535D01*
X46415000Y-7847465D01*
X46382630Y-7726657D01*
X46344146Y-7660000D01*
X47392231Y-7660000D01*
X47381757Y-7593873D01*
X47381757Y-7593870D01*
X47316095Y-7391782D01*
X47219620Y-7202442D01*
X47094727Y-7030540D01*
X47094723Y-7030535D01*
X46944464Y-6880276D01*
X46944459Y-6880272D01*
X46772557Y-6755379D01*
X46583217Y-6658904D01*
X46381128Y-6593242D01*
X46190000Y-6562969D01*
X46190000Y-7505854D01*
X46123343Y-7467370D01*
X46002535Y-7435000D01*
X45877465Y-7435000D01*
X45756657Y-7467370D01*
X45690000Y-7505854D01*
X45690000Y-6562969D01*
X45498872Y-6593242D01*
X45498869Y-6593242D01*
X45296782Y-6658904D01*
X45107442Y-6755379D01*
X44935540Y-6880272D01*
X44935535Y-6880276D01*
X44785276Y-7030535D01*
X44785272Y-7030540D01*
X44660379Y-7202442D01*
X44563904Y-7391782D01*
X44498242Y-7593870D01*
X44498242Y-7593873D01*
X44487769Y-7660000D01*
X45535854Y-7660000D01*
X45497370Y-7726657D01*
X45465000Y-7847465D01*
X45465000Y-7972535D01*
X45497370Y-8093343D01*
X45535854Y-8160000D01*
X44487769Y-8160000D01*
X44498242Y-8226126D01*
X44498242Y-8226129D01*
X44563904Y-8428217D01*
X44660379Y-8617557D01*
X44785272Y-8789459D01*
X44785276Y-8789464D01*
X44935535Y-8939723D01*
X44935540Y-8939727D01*
X45093412Y-9054428D01*
X45136078Y-9109758D01*
X45142057Y-9179371D01*
X45109451Y-9241166D01*
X45093413Y-9255064D01*
X44995769Y-9326006D01*
X44929996Y-9373794D01*
X44929994Y-9373796D01*
X44929993Y-9373796D01*
X44778796Y-9524993D01*
X44653106Y-9697990D01*
X44556027Y-9888516D01*
X44556026Y-9888519D01*
X44489951Y-10091882D01*
X44456500Y-10303084D01*
X32074747Y-10303084D01*
X32073459Y-10299974D01*
X32044302Y-10229580D01*
X32044300Y-10229577D01*
X31961031Y-10104955D01*
X31961025Y-10104948D01*
X31855051Y-9998974D01*
X31855044Y-9998968D01*
X31730422Y-9915699D01*
X31730419Y-9915697D01*
X31591950Y-9858342D01*
X31591938Y-9858339D01*
X31444945Y-9829100D01*
X31444942Y-9829100D01*
X31295058Y-9829100D01*
X31295055Y-9829100D01*
X31148061Y-9858339D01*
X31148049Y-9858342D01*
X31009580Y-9915697D01*
X31009577Y-9915699D01*
X30884955Y-9998968D01*
X30884948Y-9998974D01*
X30778974Y-10104948D01*
X30778968Y-10104955D01*
X30695699Y-10229577D01*
X30695697Y-10229580D01*
X30638342Y-10368049D01*
X30638339Y-10368061D01*
X30609100Y-10515053D01*
X30609100Y-10664946D01*
X30638339Y-10811938D01*
X30638342Y-10811950D01*
X30697009Y-10953585D01*
X30704478Y-11023054D01*
X30673203Y-11085533D01*
X30613114Y-11121185D01*
X30606641Y-11122654D01*
X30578058Y-11128339D01*
X30578049Y-11128342D01*
X30439580Y-11185697D01*
X30439577Y-11185699D01*
X30314955Y-11268968D01*
X30314948Y-11268974D01*
X30208974Y-11374948D01*
X30208968Y-11374955D01*
X30125699Y-11499577D01*
X30125697Y-11499580D01*
X30068342Y-11638049D01*
X30068339Y-11638061D01*
X30039100Y-11785053D01*
X15364472Y-11785053D01*
X15376877Y-11739834D01*
X15379242Y-11736151D01*
X15435810Y-11651493D01*
X15512436Y-11466502D01*
X15531716Y-11369577D01*
X15551500Y-11270118D01*
X15551500Y-11069881D01*
X15512437Y-10873503D01*
X15512436Y-10873502D01*
X15512436Y-10873498D01*
X15435810Y-10688507D01*
X15379270Y-10603888D01*
X15358393Y-10537214D01*
X15376877Y-10469834D01*
X15379242Y-10466151D01*
X15435810Y-10381493D01*
X15512436Y-10196502D01*
X15533246Y-10091884D01*
X15551500Y-10000118D01*
X15551500Y-9799881D01*
X15512437Y-9603503D01*
X15512436Y-9603502D01*
X15512436Y-9603498D01*
X15437474Y-9422524D01*
X15435811Y-9418509D01*
X15435809Y-9418506D01*
X15413562Y-9385211D01*
X15379270Y-9333888D01*
X15358393Y-9267214D01*
X15376877Y-9199834D01*
X15379242Y-9196151D01*
X15435810Y-9111493D01*
X15512436Y-8926502D01*
X15539696Y-8789459D01*
X15551500Y-8730118D01*
X15551500Y-8529881D01*
X15512437Y-8333503D01*
X15512436Y-8333502D01*
X15512436Y-8333498D01*
X15435810Y-8148507D01*
X15379270Y-8063888D01*
X15358393Y-7997214D01*
X15376877Y-7929834D01*
X15379242Y-7926151D01*
X15435810Y-7841493D01*
X15512436Y-7656502D01*
X15551500Y-7460116D01*
X15551500Y-7259884D01*
X15551500Y-7259881D01*
X15512437Y-7063503D01*
X15512436Y-7063502D01*
X15512436Y-7063498D01*
X15435810Y-6878507D01*
X15324567Y-6712019D01*
X15324565Y-6712016D01*
X15182983Y-6570434D01*
X15099737Y-6514811D01*
X15016493Y-6459190D01*
X14831502Y-6382564D01*
X14831496Y-6382562D01*
X14635118Y-6343500D01*
X14635116Y-6343500D01*
X14434884Y-6343500D01*
X14434882Y-6343500D01*
X14238503Y-6382562D01*
X14238497Y-6382564D01*
X14053506Y-6459190D01*
X13968889Y-6515728D01*
X13902212Y-6536605D01*
X13834832Y-6518120D01*
X13831111Y-6515728D01*
X13746493Y-6459190D01*
X13561502Y-6382564D01*
X13561496Y-6382562D01*
X13365118Y-6343500D01*
X13365116Y-6343500D01*
X13164884Y-6343500D01*
X13164882Y-6343500D01*
X12968503Y-6382562D01*
X12968497Y-6382564D01*
X12783508Y-6459189D01*
X12617016Y-6570434D01*
X12475434Y-6712016D01*
X12364189Y-6878508D01*
X12287564Y-7063497D01*
X12287562Y-7063503D01*
X12248500Y-7259881D01*
X12248500Y-7259884D01*
X12248500Y-7460116D01*
X12248500Y-7460118D01*
X12248499Y-7460118D01*
X300500Y-7460118D01*
X300500Y-5566208D01*
X23130500Y-5566208D01*
X23130500Y-5704991D01*
X23157571Y-5841087D01*
X23157573Y-5841095D01*
X23210678Y-5969303D01*
X23210683Y-5969312D01*
X23287778Y-6084692D01*
X23287781Y-6084696D01*
X23385903Y-6182818D01*
X23385907Y-6182821D01*
X23501287Y-6259916D01*
X23501293Y-6259919D01*
X23501294Y-6259920D01*
X23629505Y-6313027D01*
X23765608Y-6340099D01*
X23765612Y-6340100D01*
X23765613Y-6340100D01*
X23904388Y-6340100D01*
X23904389Y-6340099D01*
X24040495Y-6313027D01*
X24168706Y-6259920D01*
X24284093Y-6182821D01*
X24382221Y-6084693D01*
X24459320Y-5969306D01*
X24512427Y-5841095D01*
X24539500Y-5704987D01*
X24539500Y-5566213D01*
X24539499Y-5566208D01*
X27530500Y-5566208D01*
X27530500Y-5704991D01*
X27557571Y-5841087D01*
X27557573Y-5841095D01*
X27610678Y-5969303D01*
X27610683Y-5969312D01*
X27687778Y-6084692D01*
X27687781Y-6084696D01*
X27785903Y-6182818D01*
X27785907Y-6182821D01*
X27901287Y-6259916D01*
X27901293Y-6259919D01*
X27901294Y-6259920D01*
X28029505Y-6313027D01*
X28165608Y-6340099D01*
X28165612Y-6340100D01*
X28165613Y-6340100D01*
X28304388Y-6340100D01*
X28304389Y-6340099D01*
X28440495Y-6313027D01*
X28568706Y-6259920D01*
X28684093Y-6182821D01*
X28782221Y-6084693D01*
X28859320Y-5969306D01*
X28912427Y-5841095D01*
X28939500Y-5704987D01*
X28939500Y-5566213D01*
X28912427Y-5430105D01*
X28859320Y-5301894D01*
X28859319Y-5301893D01*
X28859316Y-5301887D01*
X28782221Y-5186507D01*
X28782218Y-5186503D01*
X28684096Y-5088381D01*
X28684092Y-5088378D01*
X28568712Y-5011283D01*
X28568703Y-5011278D01*
X28440495Y-4958173D01*
X28440487Y-4958171D01*
X28304391Y-4931100D01*
X28304387Y-4931100D01*
X28165613Y-4931100D01*
X28165608Y-4931100D01*
X28029512Y-4958171D01*
X28029504Y-4958173D01*
X27901296Y-5011278D01*
X27901287Y-5011283D01*
X27785907Y-5088378D01*
X27785903Y-5088381D01*
X27687781Y-5186503D01*
X27687778Y-5186507D01*
X27610683Y-5301887D01*
X27610678Y-5301896D01*
X27557573Y-5430104D01*
X27557571Y-5430112D01*
X27530500Y-5566208D01*
X24539499Y-5566208D01*
X24512427Y-5430105D01*
X24459320Y-5301894D01*
X24459319Y-5301893D01*
X24459316Y-5301887D01*
X24382221Y-5186507D01*
X24382218Y-5186503D01*
X24284096Y-5088381D01*
X24284092Y-5088378D01*
X24168712Y-5011283D01*
X24168703Y-5011278D01*
X24040495Y-4958173D01*
X24040487Y-4958171D01*
X23904391Y-4931100D01*
X23904387Y-4931100D01*
X23765613Y-4931100D01*
X23765608Y-4931100D01*
X23629512Y-4958171D01*
X23629504Y-4958173D01*
X23501296Y-5011278D01*
X23501287Y-5011283D01*
X23385907Y-5088378D01*
X23385903Y-5088381D01*
X23287781Y-5186503D01*
X23287778Y-5186507D01*
X23210683Y-5301887D01*
X23210678Y-5301896D01*
X23157573Y-5430104D01*
X23157571Y-5430112D01*
X23130500Y-5566208D01*
X300500Y-5566208D01*
X300500Y-3015053D01*
X11399100Y-3015053D01*
X11399100Y-3164946D01*
X11428339Y-3311938D01*
X11428342Y-3311950D01*
X11485697Y-3450419D01*
X11485699Y-3450422D01*
X11568968Y-3575044D01*
X11568974Y-3575051D01*
X11674948Y-3681025D01*
X11674955Y-3681031D01*
X11799577Y-3764300D01*
X11799580Y-3764302D01*
X11938049Y-3821657D01*
X11938054Y-3821659D01*
X12085053Y-3850899D01*
X12085056Y-3850900D01*
X12085058Y-3850900D01*
X12234944Y-3850900D01*
X12234945Y-3850899D01*
X12381946Y-3821659D01*
X12520421Y-3764301D01*
X12645046Y-3681030D01*
X12681023Y-3645053D01*
X14399100Y-3645053D01*
X14399100Y-3794946D01*
X14428339Y-3941938D01*
X14428342Y-3941950D01*
X14485697Y-4080419D01*
X14485699Y-4080422D01*
X14568968Y-4205044D01*
X14568974Y-4205051D01*
X14674948Y-4311025D01*
X14674955Y-4311031D01*
X14799577Y-4394300D01*
X14799580Y-4394302D01*
X14938049Y-4451657D01*
X14938054Y-4451659D01*
X15085053Y-4480899D01*
X15085056Y-4480900D01*
X15085058Y-4480900D01*
X15234944Y-4480900D01*
X15234945Y-4480899D01*
X15381946Y-4451659D01*
X15520421Y-4394301D01*
X15645046Y-4311030D01*
X15751030Y-4205046D01*
X15834301Y-4080421D01*
X15891659Y-3941946D01*
X15920900Y-3794942D01*
X15920900Y-3645058D01*
X15920900Y-3645055D01*
X15920899Y-3645053D01*
X15891660Y-3498061D01*
X15891659Y-3498054D01*
X15884355Y-3480421D01*
X15834302Y-3359580D01*
X15834300Y-3359577D01*
X15751031Y-3234955D01*
X15751025Y-3234948D01*
X15645051Y-3128974D01*
X15645044Y-3128968D01*
X15520422Y-3045699D01*
X15520419Y-3045697D01*
X15518864Y-3045053D01*
X38819100Y-3045053D01*
X38819100Y-3194946D01*
X38848339Y-3341938D01*
X38848342Y-3341950D01*
X38905697Y-3480419D01*
X38905699Y-3480422D01*
X38988968Y-3605044D01*
X38988974Y-3605051D01*
X39094948Y-3711025D01*
X39094955Y-3711031D01*
X39219577Y-3794300D01*
X39219580Y-3794302D01*
X39358049Y-3851657D01*
X39358054Y-3851659D01*
X39505053Y-3880899D01*
X39505056Y-3880900D01*
X39505058Y-3880900D01*
X39654944Y-3880900D01*
X39654945Y-3880899D01*
X39801946Y-3851659D01*
X39938869Y-3794944D01*
X39940419Y-3794302D01*
X39940422Y-3794300D01*
X39985318Y-3764302D01*
X40065046Y-3711030D01*
X40171030Y-3605046D01*
X40254301Y-3480421D01*
X40311659Y-3341946D01*
X40340900Y-3194942D01*
X40340900Y-3045058D01*
X40340900Y-3045055D01*
X40340899Y-3045053D01*
X40311660Y-2898061D01*
X40311659Y-2898054D01*
X40299231Y-2868049D01*
X40254302Y-2759580D01*
X40254300Y-2759577D01*
X40171031Y-2634955D01*
X40171025Y-2634948D01*
X40065051Y-2528974D01*
X40065044Y-2528968D01*
X39940422Y-2445699D01*
X39940419Y-2445697D01*
X39801950Y-2388342D01*
X39801938Y-2388339D01*
X39654945Y-2359100D01*
X39654942Y-2359100D01*
X39505058Y-2359100D01*
X39505055Y-2359100D01*
X39358061Y-2388339D01*
X39358049Y-2388342D01*
X39219580Y-2445697D01*
X39219577Y-2445699D01*
X39094955Y-2528968D01*
X39094948Y-2528974D01*
X38988974Y-2634948D01*
X38988968Y-2634955D01*
X38905699Y-2759577D01*
X38905697Y-2759580D01*
X38848342Y-2898049D01*
X38848339Y-2898061D01*
X38819100Y-3045053D01*
X15518864Y-3045053D01*
X15381950Y-2988342D01*
X15381938Y-2988339D01*
X15234945Y-2959100D01*
X15234942Y-2959100D01*
X15085058Y-2959100D01*
X15085055Y-2959100D01*
X14938061Y-2988339D01*
X14938049Y-2988342D01*
X14799580Y-3045697D01*
X14799577Y-3045699D01*
X14674955Y-3128968D01*
X14674948Y-3128974D01*
X14568974Y-3234948D01*
X14568968Y-3234955D01*
X14485699Y-3359577D01*
X14485697Y-3359580D01*
X14428342Y-3498049D01*
X14428339Y-3498061D01*
X14399100Y-3645053D01*
X12681023Y-3645053D01*
X12751030Y-3575046D01*
X12834301Y-3450421D01*
X12891659Y-3311946D01*
X12920900Y-3164942D01*
X12920900Y-3015058D01*
X12920900Y-3015055D01*
X12920899Y-3015053D01*
X12909769Y-2959100D01*
X12891659Y-2868054D01*
X12846728Y-2759580D01*
X12834302Y-2729580D01*
X12834300Y-2729577D01*
X12751031Y-2604955D01*
X12751025Y-2604948D01*
X12645051Y-2498974D01*
X12645044Y-2498968D01*
X12520422Y-2415699D01*
X12520419Y-2415697D01*
X12381950Y-2358342D01*
X12381938Y-2358339D01*
X12234945Y-2329100D01*
X12234942Y-2329100D01*
X12085058Y-2329100D01*
X12085055Y-2329100D01*
X11938061Y-2358339D01*
X11938049Y-2358342D01*
X11799580Y-2415697D01*
X11799577Y-2415699D01*
X11674955Y-2498968D01*
X11674948Y-2498974D01*
X11568974Y-2604948D01*
X11568968Y-2604955D01*
X11485699Y-2729577D01*
X11485697Y-2729580D01*
X11428342Y-2868049D01*
X11428339Y-2868061D01*
X11399100Y-3015053D01*
X300500Y-3015053D01*
X300500Y-2543750D01*
X300726Y-2536263D01*
X311489Y-2358339D01*
X316376Y-2277541D01*
X318181Y-2262679D01*
X364225Y-2011424D01*
X367809Y-1996886D01*
X443800Y-1753019D01*
X449102Y-1739039D01*
X553949Y-1506078D01*
X560894Y-1492845D01*
X693056Y-1274223D01*
X701543Y-1261927D01*
X859093Y-1060829D01*
X869008Y-1049638D01*
X1049638Y-869008D01*
X1060829Y-859093D01*
X1261927Y-701543D01*
X1274223Y-693056D01*
X1492845Y-560894D01*
X1506078Y-553949D01*
X1739039Y-449102D01*
X1753019Y-443800D01*
X1996890Y-367807D01*
X2011420Y-364225D01*
X2262682Y-318180D01*
X2277541Y-316376D01*
X2536264Y-300726D01*
X2543751Y-300500D01*
X2587595Y-300500D01*
X48212405Y-300500D01*
X48256249Y-300500D01*
X48263736Y-300726D01*
G37*
%TD.AperFunction*%
%TD*%
M02*
