%TF.GenerationSoftware,KiCad,Pcbnew,10.0.2*%
%TF.CreationDate,2026-09-05T11:05:33-04:00*%
%TF.ProjectId,UIUCBreakout,55495543-4272-4656-916b-6f75742e6b69,rev?*%
%TF.SameCoordinates,Original*%
%TF.FileFunction,Legend,Bot*%
%TF.FilePolarity,Positive*%
%FSLAX46Y46*%
G04 Gerber Fmt 4.6, Leading zero omitted, Abs format (unit mm)*
G04 Created by KiCad (PCBNEW 10.0.2) date 2026-09-05 11:05:33*
%MOMM*%
%LPD*%
G01*
G04 APERTURE LIST*
%ADD10C,0.300000*%
%ADD11C,0.150000*%
%ADD12C,0.120000*%
%ADD13R,1.700000X1.700000*%
%ADD14O,1.700000X1.700000*%
G04 APERTURE END LIST*
D10*
X143996426Y-117994757D02*
X144139284Y-117923328D01*
X144139284Y-117923328D02*
X144353569Y-117923328D01*
X144353569Y-117923328D02*
X144567855Y-117994757D01*
X144567855Y-117994757D02*
X144710712Y-118137614D01*
X144710712Y-118137614D02*
X144782141Y-118280471D01*
X144782141Y-118280471D02*
X144853569Y-118566185D01*
X144853569Y-118566185D02*
X144853569Y-118780471D01*
X144853569Y-118780471D02*
X144782141Y-119066185D01*
X144782141Y-119066185D02*
X144710712Y-119209042D01*
X144710712Y-119209042D02*
X144567855Y-119351900D01*
X144567855Y-119351900D02*
X144353569Y-119423328D01*
X144353569Y-119423328D02*
X144210712Y-119423328D01*
X144210712Y-119423328D02*
X143996426Y-119351900D01*
X143996426Y-119351900D02*
X143924998Y-119280471D01*
X143924998Y-119280471D02*
X143924998Y-118780471D01*
X143924998Y-118780471D02*
X144210712Y-118780471D01*
X142710712Y-119351900D02*
X142853569Y-119423328D01*
X142853569Y-119423328D02*
X143139284Y-119423328D01*
X143139284Y-119423328D02*
X143282141Y-119351900D01*
X143282141Y-119351900D02*
X143353569Y-119209042D01*
X143353569Y-119209042D02*
X143353569Y-118637614D01*
X143353569Y-118637614D02*
X143282141Y-118494757D01*
X143282141Y-118494757D02*
X143139284Y-118423328D01*
X143139284Y-118423328D02*
X142853569Y-118423328D01*
X142853569Y-118423328D02*
X142710712Y-118494757D01*
X142710712Y-118494757D02*
X142639284Y-118637614D01*
X142639284Y-118637614D02*
X142639284Y-118780471D01*
X142639284Y-118780471D02*
X143353569Y-118923328D01*
X141782141Y-119423328D02*
X141924998Y-119351900D01*
X141924998Y-119351900D02*
X141996427Y-119280471D01*
X141996427Y-119280471D02*
X142067855Y-119137614D01*
X142067855Y-119137614D02*
X142067855Y-118709042D01*
X142067855Y-118709042D02*
X141996427Y-118566185D01*
X141996427Y-118566185D02*
X141924998Y-118494757D01*
X141924998Y-118494757D02*
X141782141Y-118423328D01*
X141782141Y-118423328D02*
X141567855Y-118423328D01*
X141567855Y-118423328D02*
X141424998Y-118494757D01*
X141424998Y-118494757D02*
X141353570Y-118566185D01*
X141353570Y-118566185D02*
X141282141Y-118709042D01*
X141282141Y-118709042D02*
X141282141Y-119137614D01*
X141282141Y-119137614D02*
X141353570Y-119280471D01*
X141353570Y-119280471D02*
X141424998Y-119351900D01*
X141424998Y-119351900D02*
X141567855Y-119423328D01*
X141567855Y-119423328D02*
X141782141Y-119423328D01*
X140853569Y-118423328D02*
X140282141Y-118423328D01*
X140639284Y-119423328D02*
X140639284Y-118137614D01*
X140639284Y-118137614D02*
X140567855Y-117994757D01*
X140567855Y-117994757D02*
X140424998Y-117923328D01*
X140424998Y-117923328D02*
X140282141Y-117923328D01*
X139996426Y-118423328D02*
X139424998Y-118423328D01*
X139782141Y-119423328D02*
X139782141Y-118137614D01*
X139782141Y-118137614D02*
X139710712Y-117994757D01*
X139710712Y-117994757D02*
X139567855Y-117923328D01*
X139567855Y-117923328D02*
X139424998Y-117923328D01*
X138924998Y-119423328D02*
X138924998Y-118423328D01*
X138924998Y-118709042D02*
X138853569Y-118566185D01*
X138853569Y-118566185D02*
X138782141Y-118494757D01*
X138782141Y-118494757D02*
X138639283Y-118423328D01*
X138639283Y-118423328D02*
X138496426Y-118423328D01*
X137424998Y-119351900D02*
X137567855Y-119423328D01*
X137567855Y-119423328D02*
X137853570Y-119423328D01*
X137853570Y-119423328D02*
X137996427Y-119351900D01*
X137996427Y-119351900D02*
X138067855Y-119209042D01*
X138067855Y-119209042D02*
X138067855Y-118637614D01*
X138067855Y-118637614D02*
X137996427Y-118494757D01*
X137996427Y-118494757D02*
X137853570Y-118423328D01*
X137853570Y-118423328D02*
X137567855Y-118423328D01*
X137567855Y-118423328D02*
X137424998Y-118494757D01*
X137424998Y-118494757D02*
X137353570Y-118637614D01*
X137353570Y-118637614D02*
X137353570Y-118780471D01*
X137353570Y-118780471D02*
X138067855Y-118923328D01*
X136853570Y-118423328D02*
X136496427Y-119423328D01*
X136139284Y-118423328D02*
X136496427Y-119423328D01*
X136496427Y-119423328D02*
X136639284Y-119780471D01*
X136639284Y-119780471D02*
X136710713Y-119851900D01*
X136710713Y-119851900D02*
X136853570Y-119923328D01*
X133924999Y-118637614D02*
X133710713Y-118709042D01*
X133710713Y-118709042D02*
X133639284Y-118780471D01*
X133639284Y-118780471D02*
X133567856Y-118923328D01*
X133567856Y-118923328D02*
X133567856Y-119137614D01*
X133567856Y-119137614D02*
X133639284Y-119280471D01*
X133639284Y-119280471D02*
X133710713Y-119351900D01*
X133710713Y-119351900D02*
X133853570Y-119423328D01*
X133853570Y-119423328D02*
X134424999Y-119423328D01*
X134424999Y-119423328D02*
X134424999Y-117923328D01*
X134424999Y-117923328D02*
X133924999Y-117923328D01*
X133924999Y-117923328D02*
X133782142Y-117994757D01*
X133782142Y-117994757D02*
X133710713Y-118066185D01*
X133710713Y-118066185D02*
X133639284Y-118209042D01*
X133639284Y-118209042D02*
X133639284Y-118351900D01*
X133639284Y-118351900D02*
X133710713Y-118494757D01*
X133710713Y-118494757D02*
X133782142Y-118566185D01*
X133782142Y-118566185D02*
X133924999Y-118637614D01*
X133924999Y-118637614D02*
X134424999Y-118637614D01*
X132924999Y-119423328D02*
X132924999Y-118423328D01*
X132924999Y-118709042D02*
X132853570Y-118566185D01*
X132853570Y-118566185D02*
X132782142Y-118494757D01*
X132782142Y-118494757D02*
X132639284Y-118423328D01*
X132639284Y-118423328D02*
X132496427Y-118423328D01*
X131782142Y-119423328D02*
X131924999Y-119351900D01*
X131924999Y-119351900D02*
X131996428Y-119280471D01*
X131996428Y-119280471D02*
X132067856Y-119137614D01*
X132067856Y-119137614D02*
X132067856Y-118709042D01*
X132067856Y-118709042D02*
X131996428Y-118566185D01*
X131996428Y-118566185D02*
X131924999Y-118494757D01*
X131924999Y-118494757D02*
X131782142Y-118423328D01*
X131782142Y-118423328D02*
X131567856Y-118423328D01*
X131567856Y-118423328D02*
X131424999Y-118494757D01*
X131424999Y-118494757D02*
X131353571Y-118566185D01*
X131353571Y-118566185D02*
X131282142Y-118709042D01*
X131282142Y-118709042D02*
X131282142Y-119137614D01*
X131282142Y-119137614D02*
X131353571Y-119280471D01*
X131353571Y-119280471D02*
X131424999Y-119351900D01*
X131424999Y-119351900D02*
X131567856Y-119423328D01*
X131567856Y-119423328D02*
X131782142Y-119423328D01*
X130782142Y-118423328D02*
X130496428Y-119423328D01*
X130496428Y-119423328D02*
X130210713Y-118709042D01*
X130210713Y-118709042D02*
X129924999Y-119423328D01*
X129924999Y-119423328D02*
X129639285Y-118423328D01*
X129067856Y-118423328D02*
X129067856Y-119423328D01*
X129067856Y-118566185D02*
X128996427Y-118494757D01*
X128996427Y-118494757D02*
X128853570Y-118423328D01*
X128853570Y-118423328D02*
X128639284Y-118423328D01*
X128639284Y-118423328D02*
X128496427Y-118494757D01*
X128496427Y-118494757D02*
X128424999Y-118637614D01*
X128424999Y-118637614D02*
X128424999Y-119423328D01*
X126496427Y-119423328D02*
X126210713Y-119423328D01*
X126210713Y-119423328D02*
X126067856Y-119351900D01*
X126067856Y-119351900D02*
X125996427Y-119280471D01*
X125996427Y-119280471D02*
X125853570Y-119066185D01*
X125853570Y-119066185D02*
X125782141Y-118780471D01*
X125782141Y-118780471D02*
X125782141Y-118209042D01*
X125782141Y-118209042D02*
X125853570Y-118066185D01*
X125853570Y-118066185D02*
X125924999Y-117994757D01*
X125924999Y-117994757D02*
X126067856Y-117923328D01*
X126067856Y-117923328D02*
X126353570Y-117923328D01*
X126353570Y-117923328D02*
X126496427Y-117994757D01*
X126496427Y-117994757D02*
X126567856Y-118066185D01*
X126567856Y-118066185D02*
X126639284Y-118209042D01*
X126639284Y-118209042D02*
X126639284Y-118566185D01*
X126639284Y-118566185D02*
X126567856Y-118709042D01*
X126567856Y-118709042D02*
X126496427Y-118780471D01*
X126496427Y-118780471D02*
X126353570Y-118851900D01*
X126353570Y-118851900D02*
X126067856Y-118851900D01*
X126067856Y-118851900D02*
X125924999Y-118780471D01*
X125924999Y-118780471D02*
X125853570Y-118709042D01*
X125853570Y-118709042D02*
X125782141Y-118566185D01*
X124067856Y-117851900D02*
X125353570Y-119780471D01*
X122853570Y-117923328D02*
X123567856Y-117923328D01*
X123567856Y-117923328D02*
X123639284Y-118637614D01*
X123639284Y-118637614D02*
X123567856Y-118566185D01*
X123567856Y-118566185D02*
X123424999Y-118494757D01*
X123424999Y-118494757D02*
X123067856Y-118494757D01*
X123067856Y-118494757D02*
X122924999Y-118566185D01*
X122924999Y-118566185D02*
X122853570Y-118637614D01*
X122853570Y-118637614D02*
X122782141Y-118780471D01*
X122782141Y-118780471D02*
X122782141Y-119137614D01*
X122782141Y-119137614D02*
X122853570Y-119280471D01*
X122853570Y-119280471D02*
X122924999Y-119351900D01*
X122924999Y-119351900D02*
X123067856Y-119423328D01*
X123067856Y-119423328D02*
X123424999Y-119423328D01*
X123424999Y-119423328D02*
X123567856Y-119351900D01*
X123567856Y-119351900D02*
X123639284Y-119280471D01*
X121067856Y-117851900D02*
X122353570Y-119780471D01*
X120639284Y-118066185D02*
X120567856Y-117994757D01*
X120567856Y-117994757D02*
X120424999Y-117923328D01*
X120424999Y-117923328D02*
X120067856Y-117923328D01*
X120067856Y-117923328D02*
X119924999Y-117994757D01*
X119924999Y-117994757D02*
X119853570Y-118066185D01*
X119853570Y-118066185D02*
X119782141Y-118209042D01*
X119782141Y-118209042D02*
X119782141Y-118351900D01*
X119782141Y-118351900D02*
X119853570Y-118566185D01*
X119853570Y-118566185D02*
X120710713Y-119423328D01*
X120710713Y-119423328D02*
X119782141Y-119423328D01*
X118853570Y-117923328D02*
X118710713Y-117923328D01*
X118710713Y-117923328D02*
X118567856Y-117994757D01*
X118567856Y-117994757D02*
X118496428Y-118066185D01*
X118496428Y-118066185D02*
X118424999Y-118209042D01*
X118424999Y-118209042D02*
X118353570Y-118494757D01*
X118353570Y-118494757D02*
X118353570Y-118851900D01*
X118353570Y-118851900D02*
X118424999Y-119137614D01*
X118424999Y-119137614D02*
X118496428Y-119280471D01*
X118496428Y-119280471D02*
X118567856Y-119351900D01*
X118567856Y-119351900D02*
X118710713Y-119423328D01*
X118710713Y-119423328D02*
X118853570Y-119423328D01*
X118853570Y-119423328D02*
X118996428Y-119351900D01*
X118996428Y-119351900D02*
X119067856Y-119280471D01*
X119067856Y-119280471D02*
X119139285Y-119137614D01*
X119139285Y-119137614D02*
X119210713Y-118851900D01*
X119210713Y-118851900D02*
X119210713Y-118494757D01*
X119210713Y-118494757D02*
X119139285Y-118209042D01*
X119139285Y-118209042D02*
X119067856Y-118066185D01*
X119067856Y-118066185D02*
X118996428Y-117994757D01*
X118996428Y-117994757D02*
X118853570Y-117923328D01*
X117782142Y-118066185D02*
X117710714Y-117994757D01*
X117710714Y-117994757D02*
X117567857Y-117923328D01*
X117567857Y-117923328D02*
X117210714Y-117923328D01*
X117210714Y-117923328D02*
X117067857Y-117994757D01*
X117067857Y-117994757D02*
X116996428Y-118066185D01*
X116996428Y-118066185D02*
X116924999Y-118209042D01*
X116924999Y-118209042D02*
X116924999Y-118351900D01*
X116924999Y-118351900D02*
X116996428Y-118566185D01*
X116996428Y-118566185D02*
X117853571Y-119423328D01*
X117853571Y-119423328D02*
X116924999Y-119423328D01*
X115639286Y-117923328D02*
X115925000Y-117923328D01*
X115925000Y-117923328D02*
X116067857Y-117994757D01*
X116067857Y-117994757D02*
X116139286Y-118066185D01*
X116139286Y-118066185D02*
X116282143Y-118280471D01*
X116282143Y-118280471D02*
X116353571Y-118566185D01*
X116353571Y-118566185D02*
X116353571Y-119137614D01*
X116353571Y-119137614D02*
X116282143Y-119280471D01*
X116282143Y-119280471D02*
X116210714Y-119351900D01*
X116210714Y-119351900D02*
X116067857Y-119423328D01*
X116067857Y-119423328D02*
X115782143Y-119423328D01*
X115782143Y-119423328D02*
X115639286Y-119351900D01*
X115639286Y-119351900D02*
X115567857Y-119280471D01*
X115567857Y-119280471D02*
X115496428Y-119137614D01*
X115496428Y-119137614D02*
X115496428Y-118780471D01*
X115496428Y-118780471D02*
X115567857Y-118637614D01*
X115567857Y-118637614D02*
X115639286Y-118566185D01*
X115639286Y-118566185D02*
X115782143Y-118494757D01*
X115782143Y-118494757D02*
X116067857Y-118494757D01*
X116067857Y-118494757D02*
X116210714Y-118566185D01*
X116210714Y-118566185D02*
X116282143Y-118637614D01*
X116282143Y-118637614D02*
X116353571Y-118780471D01*
D11*
X107013333Y-73324819D02*
X107013333Y-74039104D01*
X107013333Y-74039104D02*
X107060952Y-74181961D01*
X107060952Y-74181961D02*
X107156190Y-74277200D01*
X107156190Y-74277200D02*
X107299047Y-74324819D01*
X107299047Y-74324819D02*
X107394285Y-74324819D01*
X106632380Y-73324819D02*
X106013333Y-73324819D01*
X106013333Y-73324819D02*
X106346666Y-73705771D01*
X106346666Y-73705771D02*
X106203809Y-73705771D01*
X106203809Y-73705771D02*
X106108571Y-73753390D01*
X106108571Y-73753390D02*
X106060952Y-73801009D01*
X106060952Y-73801009D02*
X106013333Y-73896247D01*
X106013333Y-73896247D02*
X106013333Y-74134342D01*
X106013333Y-74134342D02*
X106060952Y-74229580D01*
X106060952Y-74229580D02*
X106108571Y-74277200D01*
X106108571Y-74277200D02*
X106203809Y-74324819D01*
X106203809Y-74324819D02*
X106489523Y-74324819D01*
X106489523Y-74324819D02*
X106584761Y-74277200D01*
X106584761Y-74277200D02*
X106632380Y-74229580D01*
X150193333Y-73324819D02*
X150193333Y-74039104D01*
X150193333Y-74039104D02*
X150240952Y-74181961D01*
X150240952Y-74181961D02*
X150336190Y-74277200D01*
X150336190Y-74277200D02*
X150479047Y-74324819D01*
X150479047Y-74324819D02*
X150574285Y-74324819D01*
X149288571Y-73658152D02*
X149288571Y-74324819D01*
X149526666Y-73277200D02*
X149764761Y-73991485D01*
X149764761Y-73991485D02*
X149145714Y-73991485D01*
%TO.C,J3*%
D12*
X105350000Y-77470000D02*
X105350000Y-118170000D01*
X108010000Y-74870000D02*
X106680000Y-74870000D01*
X108010000Y-76200000D02*
X108010000Y-74870000D01*
X108010000Y-77470000D02*
X105350000Y-77470000D01*
X108010000Y-77470000D02*
X108010000Y-118170000D01*
X108010000Y-118170000D02*
X105350000Y-118170000D01*
%TO.C,J4*%
X148530000Y-77470000D02*
X148530000Y-118170000D01*
X151190000Y-74870000D02*
X149860000Y-74870000D01*
X151190000Y-76200000D02*
X151190000Y-74870000D01*
X151190000Y-77470000D02*
X148530000Y-77470000D01*
X151190000Y-77470000D02*
X151190000Y-118170000D01*
X151190000Y-118170000D02*
X148530000Y-118170000D01*
%TD*%
%LPC*%
D13*
%TO.C,J3*%
X106553000Y-76200000D03*
D14*
X106807000Y-78740000D03*
X106553000Y-81280000D03*
X106807000Y-83820000D03*
X106553000Y-86360000D03*
X106807000Y-88900000D03*
X106553000Y-91440000D03*
X106807000Y-93980000D03*
X106553000Y-96520000D03*
X106807000Y-99060000D03*
X106553000Y-101600000D03*
X106807000Y-104140000D03*
X106553000Y-106680000D03*
X106807000Y-109220000D03*
X106553000Y-111760000D03*
X106807000Y-114300000D03*
X106553000Y-116840000D03*
%TD*%
D13*
%TO.C,J4*%
X149733000Y-76200000D03*
D14*
X149987000Y-78740000D03*
X149733000Y-81280000D03*
X149987000Y-83820000D03*
X149733000Y-86360000D03*
X149987000Y-88900000D03*
X149733000Y-91440000D03*
X149987000Y-93980000D03*
X149733000Y-96520000D03*
X149987000Y-99060000D03*
X149733000Y-101600000D03*
X149987000Y-104140000D03*
X149733000Y-106680000D03*
X149987000Y-109220000D03*
X149733000Y-111760000D03*
X149987000Y-114300000D03*
X149733000Y-116840000D03*
%TD*%
%LPD*%
M02*
