%TF.GenerationSoftware,KiCad,Pcbnew,10.0.2*%
%TF.CreationDate,2026-08-20T14:10:34-04:00*%
%TF.ProjectId,tag-breakout-u375-smps-v1,7461672d-6272-4656-916b-6f75742d7533,rev?*%
%TF.SameCoordinates,Original*%
%TF.FileFunction,Soldermask,Top*%
%TF.FilePolarity,Negative*%
%FSLAX46Y46*%
G04 Gerber Fmt 4.6, Leading zero omitted, Abs format (unit mm)*
G04 Created by KiCad (PCBNEW 10.0.2) date 2026-08-20 14:10:34*
%MOMM*%
%LPD*%
G01*
G04 APERTURE LIST*
G04 Aperture macros list*
%AMRoundRect*
0 Rectangle with rounded corners*
0 $1 Rounding radius*
0 $2 $3 $4 $5 $6 $7 $8 $9 X,Y pos of 4 corners*
0 Add a 4 corners polygon primitive as box body*
4,1,4,$2,$3,$4,$5,$6,$7,$8,$9,$2,$3,0*
0 Add four circle primitives for the rounded corners*
1,1,$1+$1,$2,$3*
1,1,$1+$1,$4,$5*
1,1,$1+$1,$6,$7*
1,1,$1+$1,$8,$9*
0 Add four rect primitives between the rounded corners*
20,1,$1+$1,$2,$3,$4,$5,0*
20,1,$1+$1,$4,$5,$6,$7,0*
20,1,$1+$1,$6,$7,$8,$9,0*
20,1,$1+$1,$8,$9,$2,$3,0*%
G04 Aperture macros list end*
%ADD10C,1.016000*%
%ADD11R,1.000000X0.750000*%
%ADD12RoundRect,0.150000X0.150000X-0.512500X0.150000X0.512500X-0.150000X0.512500X-0.150000X-0.512500X0*%
%ADD13RoundRect,0.140000X-0.140000X-0.170000X0.140000X-0.170000X0.140000X0.170000X-0.140000X0.170000X0*%
%ADD14RoundRect,0.140000X0.140000X0.170000X-0.140000X0.170000X-0.140000X-0.170000X0.140000X-0.170000X0*%
%ADD15RoundRect,0.135000X-0.135000X-0.185000X0.135000X-0.185000X0.135000X0.185000X-0.135000X0.185000X0*%
%ADD16RoundRect,0.135000X0.185000X-0.135000X0.185000X0.135000X-0.185000X0.135000X-0.185000X-0.135000X0*%
%ADD17RoundRect,0.140000X0.170000X-0.140000X0.170000X0.140000X-0.170000X0.140000X-0.170000X-0.140000X0*%
%ADD18RoundRect,0.140000X-0.170000X0.140000X-0.170000X-0.140000X0.170000X-0.140000X0.170000X0.140000X0*%
%ADD19R,1.700000X1.700000*%
%ADD20C,1.700000*%
%ADD21O,1.700000X1.700000*%
%ADD22RoundRect,0.150000X-0.150000X0.587500X-0.150000X-0.587500X0.150000X-0.587500X0.150000X0.587500X0*%
%ADD23R,0.800000X0.500000*%
%ADD24RoundRect,0.243750X-0.456250X0.243750X-0.456250X-0.243750X0.456250X-0.243750X0.456250X0.243750X0*%
%ADD25RoundRect,0.250000X0.725000X-0.600000X0.725000X0.600000X-0.725000X0.600000X-0.725000X-0.600000X0*%
%ADD26O,1.950000X1.700000*%
%ADD27RoundRect,0.218750X-0.256250X0.218750X-0.256250X-0.218750X0.256250X-0.218750X0.256250X0.218750X0*%
%ADD28RoundRect,0.135000X-0.185000X0.135000X-0.185000X-0.135000X0.185000X-0.135000X0.185000X0.135000X0*%
%ADD29RoundRect,0.125000X0.125000X0.875000X-0.125000X0.875000X-0.125000X-0.875000X0.125000X-0.875000X0*%
%ADD30RoundRect,0.250000X0.750000X0.600000X-0.750000X0.600000X-0.750000X-0.600000X0.750000X-0.600000X0*%
%ADD31RoundRect,0.137500X0.137500X0.662500X-0.137500X0.662500X-0.137500X-0.662500X0.137500X-0.662500X0*%
%ADD32RoundRect,0.087500X-0.087500X0.425000X-0.087500X-0.425000X0.087500X-0.425000X0.087500X0.425000X0*%
%ADD33RoundRect,0.062500X0.375000X0.062500X-0.375000X0.062500X-0.375000X-0.062500X0.375000X-0.062500X0*%
%ADD34RoundRect,0.062500X0.062500X0.375000X-0.062500X0.375000X-0.062500X-0.375000X0.062500X-0.375000X0*%
%ADD35R,3.500000X3.500000*%
%ADD36RoundRect,0.062500X-0.375000X-0.062500X0.375000X-0.062500X0.375000X0.062500X-0.375000X0.062500X0*%
%ADD37RoundRect,0.062500X-0.062500X-0.375000X0.062500X-0.375000X0.062500X0.375000X-0.062500X0.375000X0*%
%ADD38R,0.762000X1.117600*%
%ADD39RoundRect,0.150000X-0.150000X0.512500X-0.150000X-0.512500X0.150000X-0.512500X0.150000X0.512500X0*%
%ADD40C,0.203200*%
%ADD41RoundRect,0.093750X0.093750X-0.156250X0.093750X0.156250X-0.093750X0.156250X-0.093750X-0.156250X0*%
%ADD42RoundRect,0.075000X0.075000X-0.250000X0.075000X0.250000X-0.075000X0.250000X-0.075000X-0.250000X0*%
G04 APERTURE END LIST*
D10*
%TO.C,J102*%
X15671800Y59664600D03*
X16941800Y59664600D03*
X15671800Y58394600D03*
X16941800Y58394600D03*
X15671800Y57124600D03*
X16941800Y57124600D03*
X15671800Y55854600D03*
X16941800Y55854600D03*
X15671800Y54584600D03*
X16941800Y54584600D03*
%TD*%
D11*
%TO.C,U105*%
X11525000Y65625000D03*
X5525000Y65625000D03*
X11525000Y69375000D03*
X5525000Y69375000D03*
%TD*%
D12*
%TO.C,U1*%
X36413500Y67791660D03*
X38313500Y67791660D03*
X37363500Y70066660D03*
%TD*%
D13*
%TO.C,C1*%
X36962200Y71983600D03*
X37922200Y71983600D03*
%TD*%
%TO.C,C101*%
X33731200Y56692800D03*
X34691200Y56692800D03*
%TD*%
D14*
%TO.C,C104*%
X37922200Y65887600D03*
X36962200Y65887600D03*
%TD*%
D13*
%TO.C,C107*%
X26827600Y61163200D03*
X27787600Y61163200D03*
%TD*%
D15*
%TO.C,R104*%
X21789200Y53670200D03*
X22809200Y53670200D03*
%TD*%
D16*
%TO.C,R105*%
X13500000Y64590000D03*
X13500000Y65610000D03*
%TD*%
D17*
%TO.C,C3*%
X27025600Y28600400D03*
X27025600Y29560400D03*
%TD*%
D14*
%TO.C,C5*%
X25501600Y26670000D03*
X24541600Y26670000D03*
%TD*%
D18*
%TO.C,C6*%
X34721800Y23825200D03*
X34721800Y22865200D03*
%TD*%
%TO.C,C7*%
X21774600Y28693400D03*
X21774600Y27733400D03*
%TD*%
D14*
%TO.C,C9*%
X26489600Y25603200D03*
X25529600Y25603200D03*
%TD*%
D19*
%TO.C,J2*%
X8610600Y58425000D03*
D20*
X8610600Y55885000D03*
%TD*%
D19*
%TO.C,J3*%
X5207000Y48200000D03*
D21*
X4953000Y45660000D03*
X5207000Y43120000D03*
X4953000Y40580000D03*
X5207000Y38040000D03*
X4953000Y35500000D03*
X5207000Y32960000D03*
X4953000Y30420000D03*
X5207000Y27880000D03*
X4953000Y25340000D03*
X5207000Y22800000D03*
X4953000Y20260000D03*
X5207000Y17720000D03*
X4953000Y15180000D03*
X5207000Y12640000D03*
X4953000Y10100000D03*
X5207000Y7560000D03*
%TD*%
D22*
%TO.C,Q1*%
X23135400Y51917600D03*
X21235400Y51917600D03*
X22185400Y50042600D03*
%TD*%
D23*
%TO.C,U6*%
X24136800Y27945800D03*
X24136800Y28845800D03*
X24136800Y29745800D03*
X24136800Y30645800D03*
X22936800Y30645800D03*
X22936800Y29745800D03*
X22936800Y28845800D03*
X22936800Y27945800D03*
%TD*%
D19*
%TO.C,J4*%
X48387000Y48200000D03*
D21*
X48133000Y45660000D03*
X48387000Y43120000D03*
X48133000Y40580000D03*
X48387000Y38040000D03*
X48133000Y35500000D03*
X48387000Y32960000D03*
X48133000Y30420000D03*
X48387000Y27880000D03*
X48133000Y25340000D03*
X48387000Y22800000D03*
X48133000Y20260000D03*
X48387000Y17720000D03*
X48133000Y15180000D03*
X48387000Y12640000D03*
X48133000Y10100000D03*
X48387000Y7560000D03*
%TD*%
D24*
%TO.C,D1*%
X34039400Y69314200D03*
X34039400Y67439200D03*
%TD*%
D16*
%TO.C,R1*%
X34061400Y70635400D03*
X34061400Y71655400D03*
%TD*%
D25*
%TO.C,J1*%
X48260000Y58360000D03*
D26*
X48260000Y60860000D03*
X48260000Y63360000D03*
X48260000Y65860000D03*
%TD*%
D27*
%TO.C,D105*%
X17221200Y69164200D03*
X17221200Y67589200D03*
%TD*%
D13*
%TO.C,C11*%
X33756600Y57937400D03*
X34716600Y57937400D03*
%TD*%
%TO.C,C2*%
X33754000Y55651400D03*
X34714000Y55651400D03*
%TD*%
D28*
%TO.C,R3*%
X21800000Y30700000D03*
X21800000Y29680000D03*
%TD*%
D29*
%TO.C,J104*%
X27575000Y64875000D03*
X26775000Y64875000D03*
X25975000Y64875000D03*
X25175000Y64875000D03*
X24375000Y64875000D03*
D30*
X30425000Y64975000D03*
X30425000Y70425000D03*
X21525000Y64975000D03*
X21525000Y70425000D03*
%TD*%
D18*
%TO.C,C103*%
X27305000Y45209400D03*
X27305000Y44249400D03*
%TD*%
D17*
%TO.C,C4*%
X38100000Y42220000D03*
X38100000Y43180000D03*
%TD*%
D31*
%TO.C,L1*%
X37600000Y40300000D03*
X36150000Y40300000D03*
%TD*%
D28*
%TO.C,R2*%
X29200000Y53700000D03*
X29200000Y52680000D03*
%TD*%
D32*
%TO.C,U8*%
X31445200Y48004600D03*
X30795200Y48004600D03*
X30145200Y48004600D03*
X30145200Y46329600D03*
X30795200Y46329600D03*
X31445200Y46329600D03*
%TD*%
D18*
%TO.C,C109*%
X31470600Y45130600D03*
X31470600Y44170600D03*
%TD*%
D33*
%TO.C,U5*%
X31798200Y55707400D03*
X31798200Y56207400D03*
X31798200Y56707400D03*
X31798200Y57207400D03*
X31798200Y57707400D03*
X31798200Y58207400D03*
X31798200Y58707400D03*
X31798200Y59207400D03*
D34*
X31110700Y59894900D03*
X30610700Y59894900D03*
X30110700Y59894900D03*
X29610700Y59894900D03*
X29110700Y59894900D03*
X28610700Y59894900D03*
X28110700Y59894900D03*
X27610700Y59894900D03*
D33*
X26923200Y59207400D03*
X26923200Y58707400D03*
X26923200Y58207400D03*
X26923200Y57707400D03*
X26923200Y57207400D03*
X26923200Y56707400D03*
X26923200Y56207400D03*
X26923200Y55707400D03*
D34*
X27610700Y55019900D03*
X28110700Y55019900D03*
X28610700Y55019900D03*
X29110700Y55019900D03*
X29610700Y55019900D03*
X30110700Y55019900D03*
X30610700Y55019900D03*
X31110700Y55019900D03*
D35*
X29360700Y57457400D03*
%TD*%
D14*
%TO.C,C105*%
X39723000Y55930800D03*
X38763000Y55930800D03*
%TD*%
D36*
%TO.C,U3*%
X28417500Y27495000D03*
X28417500Y26995000D03*
X28417500Y26495000D03*
X28417500Y25995000D03*
X28417500Y25495000D03*
X28417500Y24995000D03*
X28417500Y24495000D03*
X28417500Y23995000D03*
D37*
X29105000Y23307500D03*
X29605000Y23307500D03*
X30105000Y23307500D03*
X30605000Y23307500D03*
X31105000Y23307500D03*
X31605000Y23307500D03*
X32105000Y23307500D03*
X32605000Y23307500D03*
D36*
X33292500Y23995000D03*
X33292500Y24495000D03*
X33292500Y24995000D03*
X33292500Y25495000D03*
X33292500Y25995000D03*
X33292500Y26495000D03*
X33292500Y26995000D03*
X33292500Y27495000D03*
D37*
X32605000Y28182500D03*
X32105000Y28182500D03*
X31605000Y28182500D03*
X31105000Y28182500D03*
X30605000Y28182500D03*
X30105000Y28182500D03*
X29605000Y28182500D03*
X29105000Y28182500D03*
D35*
X30855000Y25745000D03*
%TD*%
D28*
%TO.C,R107*%
X15500000Y68900000D03*
X15500000Y67880000D03*
%TD*%
D38*
%TO.C,SW2*%
X41150002Y53784600D03*
X39400000Y50000000D03*
X37649998Y53784600D03*
%TD*%
D28*
%TO.C,R106*%
X30200000Y45160000D03*
X30200000Y44140000D03*
%TD*%
D39*
%TO.C,U10*%
X39563000Y59692300D03*
X38613000Y59692300D03*
X37663000Y59692300D03*
X37663000Y57417300D03*
X39563000Y57417300D03*
%TD*%
D18*
%TO.C,C110*%
X28400000Y47660000D03*
X28400000Y46700000D03*
%TD*%
D40*
%TO.C,U2*%
X36440000Y42900000D03*
X36440000Y42500000D03*
X36040000Y42900000D03*
X36040000Y42500000D03*
X35640000Y42900000D03*
X35640000Y42500000D03*
%TD*%
D18*
%TO.C,C102*%
X22656800Y61031000D03*
X22656800Y60071000D03*
%TD*%
D32*
%TO.C,U7*%
X27233400Y48042293D03*
X26583400Y48042293D03*
X25933400Y48042293D03*
X25933400Y46367293D03*
X26583400Y46367293D03*
X27233400Y46367293D03*
%TD*%
D14*
%TO.C,C8*%
X29083000Y29514800D03*
X28123000Y29514800D03*
%TD*%
D13*
%TO.C,C10*%
X36040000Y44400000D03*
X37000000Y44400000D03*
%TD*%
D41*
%TO.C,U4*%
X23977600Y59768000D03*
D42*
X24515100Y59693000D03*
D41*
X25052600Y59768000D03*
X25052600Y61468000D03*
D42*
X24515100Y61543000D03*
D41*
X23977600Y61468000D03*
%TD*%
D14*
%TO.C,C12*%
X39497000Y61341000D03*
X38537000Y61341000D03*
%TD*%
D18*
%TO.C,C111*%
X32600000Y48100000D03*
X32600000Y47140000D03*
%TD*%
M02*
