M48
; DRILL file KiCad 10.0.2 date 2026-08-11T14:35:06
; FORMAT={-:-/ absolute / inch / decimal}
; #@! TF.CreationDate,2026-08-11T14:35:06-04:00
; #@! TF.GenerationSoftware,Kicad,Pcbnew,10.0.2
; #@! TF.FileFunction,Plated,1,4,PTH
FMAT,2
INCH
; #@! TA.AperFunction,Plated,PTH,ViaDrill
T1C0.0118
; #@! TA.AperFunction,Plated,PTH,ComponentDrill
T2C0.0394
%
G90
G05
T1
X4.3579Y-4.2009
X4.5665Y-3.3534
X4.5675Y-3.4253
X4.6669Y-3.8475
X4.7329Y-3.8007
X4.7657Y-3.9054
X4.787Y-3.8676
X4.7969Y-3.6743
X4.8037Y-3.4125
X4.8047Y-3.5641
X4.8047Y-3.6241
X4.8126Y-3.2225
X4.8126Y-3.8046
X4.8195Y-3.5099
X4.9976Y-3.1457
X5.0931Y-3.4883
X5.0933Y-3.7196
X5.0943Y-3.5857
X5.0948Y-3.3425
X5.118Y-4.1912
X5.1583Y-4.2837
X5.1588Y-3.3477
X5.1591Y-3.4873
X5.1826Y-4.0909
X5.2106Y-3.2686
X5.2154Y-3.6772
X5.2272Y-4.2828
X5.2488Y-3.4225
X5.2614Y-3.4902
X5.2626Y-3.6034
X5.2626Y-3.7333
X5.2627Y-4.1912
X5.2746Y-3.2696
X5.2794Y-4.1007
X5.35Y-3.2345
X5.3776Y-3.2538
X5.3785Y-3.4223
X5.4219Y-3.317
X5.4346Y-3.2664
X5.435Y-3.1294
X5.5024Y-3.1302
X5.5039Y-3.2656
X5.5441Y-3.4337
X5.6394Y-3.3997
T2
X4.195Y-3.0
X4.195Y-3.2
X4.195Y-3.4
X4.195Y-3.6
X4.195Y-3.8
X4.195Y-4.0
X4.195Y-4.2
X4.195Y-4.4
X4.195Y-4.6
X4.205Y-3.1
X4.205Y-3.3
X4.205Y-3.5
X4.205Y-3.7
X4.205Y-3.9
X4.205Y-4.1
X4.205Y-4.3
X4.205Y-4.5
X5.895Y-3.0
X5.895Y-3.2
X5.895Y-3.4
X5.895Y-3.6
X5.895Y-3.8
X5.895Y-4.0
X5.895Y-4.2
X5.895Y-4.4
X5.895Y-4.6
X5.905Y-3.1
X5.905Y-3.3
X5.905Y-3.5
X5.905Y-3.7
X5.905Y-3.9
X5.905Y-4.1
X5.905Y-4.3
X5.905Y-4.5
M30
