%TF.GenerationSoftware,KiCad,Pcbnew,10.0.2*%
%TF.CreationDate,2026-09-05T08:04:12-04:00*%
%TF.ProjectId,UIUCBreakout,55495543-4272-4656-916b-6f75742e6b69,rev?*%
%TF.SameCoordinates,Original*%
%TF.FileFunction,Paste,Top*%
%TF.FilePolarity,Positive*%
%FSLAX46Y46*%
G04 Gerber Fmt 4.6, Leading zero omitted, Abs format (unit mm)*
G04 Created by KiCad (PCBNEW 10.0.2) date 2026-09-05 08:04:12*
%MOMM*%
%LPD*%
G01*
G04 APERTURE LIST*
G04 Aperture macros list*
%AMRoundRect*
0 Rectangle with rounded corners*
0 $1 Rounding radius*
0 $2 $3 $4 $5 $6 $7 $8 $9 X,Y pos of 4 corners*
0 Add a 4 corners polygon primitive as box body*
4,1,4,$2,$3,$4,$5,$6,$7,$8,$9,$2,$3,0*
0 Add four circle primitives for the rounded corners*
1,1,$1+$1,$2,$3*
1,1,$1+$1,$4,$5*
1,1,$1+$1,$6,$7*
1,1,$1+$1,$8,$9*
0 Add four rect primitives between the rounded corners*
20,1,$1+$1,$2,$3,$4,$5,0*
20,1,$1+$1,$4,$5,$6,$7,0*
20,1,$1+$1,$6,$7,$8,$9,0*
20,1,$1+$1,$8,$9,$2,$3,0*%
G04 Aperture macros list end*
%ADD10RoundRect,0.225000X-0.225000X-0.250000X0.225000X-0.250000X0.225000X0.250000X-0.225000X0.250000X0*%
%ADD11R,0.381000X0.330200*%
%ADD12R,0.330200X0.381000*%
%ADD13R,0.609600X0.838200*%
%ADD14R,0.838200X0.609600*%
%ADD15R,1.066800X1.066800*%
%ADD16RoundRect,0.150000X-0.800000X-0.150000X0.800000X-0.150000X0.800000X0.150000X-0.800000X0.150000X0*%
%ADD17RoundRect,0.225000X0.250000X-0.225000X0.250000X0.225000X-0.250000X0.225000X-0.250000X-0.225000X0*%
%ADD18RoundRect,0.218750X-0.218750X-0.256250X0.218750X-0.256250X0.218750X0.256250X-0.218750X0.256250X0*%
G04 APERTURE END LIST*
D10*
%TO.C,C1*%
X127665000Y-87977000D03*
X129215000Y-87977000D03*
%TD*%
D11*
%TO.C,U2*%
X127626400Y-89941399D03*
X127626400Y-90441400D03*
X127626400Y-90941400D03*
X127626400Y-91441401D03*
D12*
X128240000Y-91605800D03*
X128740000Y-91605800D03*
D11*
X129353600Y-91441401D03*
X129353600Y-90941400D03*
X129353600Y-90441400D03*
X129353600Y-89941399D03*
D12*
X128740000Y-89777000D03*
X128240000Y-89777000D03*
%TD*%
D13*
%TO.C,U3*%
X129240000Y-106677000D03*
X129240000Y-105577000D03*
X129240000Y-104477000D03*
D14*
X128020800Y-104357800D03*
D13*
X126801600Y-104477000D03*
X126801600Y-105577000D03*
X126801600Y-106677000D03*
D14*
X128020800Y-106796200D03*
D15*
X128020800Y-105577000D03*
%TD*%
D10*
%TO.C,C7*%
X130965000Y-89977000D03*
X132515000Y-89977000D03*
%TD*%
D16*
%TO.C,U1*%
X124640000Y-79267000D03*
X124640000Y-80537000D03*
X124640000Y-81807000D03*
X124640000Y-83077000D03*
X131640000Y-83077000D03*
X131640000Y-81807000D03*
X131640000Y-80537000D03*
X131640000Y-79267000D03*
%TD*%
D10*
%TO.C,C5*%
X127990000Y-108577000D03*
X129540000Y-108577000D03*
%TD*%
%TO.C,C4*%
X130965000Y-91577000D03*
X132515000Y-91577000D03*
%TD*%
D17*
%TO.C,C2*%
X134040000Y-78952000D03*
X134040000Y-77402000D03*
%TD*%
D18*
%TO.C,R1*%
X134290000Y-108502000D03*
X135865000Y-108502000D03*
%TD*%
D17*
%TO.C,C3*%
X127940000Y-102652000D03*
X127940000Y-101102000D03*
%TD*%
M02*
