M48
; DRILL file KiCad 10.0.2 date 2026-09-05T08:04:12
; FORMAT={-:-/ absolute / inch / decimal}
; #@! TF.CreationDate,2026-09-05T08:04:12-04:00
; #@! TF.GenerationSoftware,Kicad,Pcbnew,10.0.2
; #@! TF.FileFunction,Plated,1,4,PTH
FMAT,2
INCH
; #@! TA.AperFunction,Plated,PTH,ViaDrill
T1C0.0079
; #@! TA.AperFunction,Plated,PTH,ViaDrill
T2C0.0118
; #@! TA.AperFunction,Plated,PTH,ComponentDrill
T3C0.0394
%
G90
G05
T1
X5.1551Y-3.505
X5.2457Y-4.2707
X5.2506Y-3.6034
T2
X4.4602Y-3.9046
X4.6748Y-3.6152
X4.7949Y-3.5837
X4.8374Y-3.2207
X4.9327Y-4.1113
X4.9425Y-4.2117
X4.9465Y-3.5798
X4.9543Y-4.1605
X4.9622Y-3.1408
X4.9819Y-3.5995
X4.9858Y-3.4656
X4.9898Y-4.0424
X4.9937Y-4.2826
X5.037Y-3.94
X5.0449Y-3.6408
X5.1118Y-3.6093
X5.1177Y-3.4617
X5.1394Y-4.2511
X5.1433Y-4.1093
X5.2555Y-3.5404
X5.2772Y-3.003
X5.2772Y-3.1487
T3
X4.195Y-3.0
X4.195Y-3.2
X4.195Y-3.4
X4.195Y-3.6
X4.195Y-3.8
X4.195Y-4.0
X4.195Y-4.2
X4.195Y-4.4
X4.195Y-4.6
X4.205Y-3.1
X4.205Y-3.3
X4.205Y-3.5
X4.205Y-3.7
X4.205Y-3.9
X4.205Y-4.1
X4.205Y-4.3
X4.205Y-4.5
X5.895Y-3.0
X5.895Y-3.2
X5.895Y-3.4
X5.895Y-3.6
X5.895Y-3.8
X5.895Y-4.0
X5.895Y-4.2
X5.895Y-4.4
X5.895Y-4.6
X5.905Y-3.1
X5.905Y-3.3
X5.905Y-3.5
X5.905Y-3.7
X5.905Y-3.9
X5.905Y-4.1
X5.905Y-4.3
X5.905Y-4.5
M30
