%TF.GenerationSoftware,KiCad,Pcbnew,10.0.2*%
%TF.CreationDate,2026-09-05T08:04:12-04:00*%
%TF.ProjectId,UIUCBreakout,55495543-4272-4656-916b-6f75742e6b69,rev?*%
%TF.SameCoordinates,Original*%
%TF.FileFunction,Copper,L1,Top*%
%TF.FilePolarity,Positive*%
%FSLAX46Y46*%
G04 Gerber Fmt 4.6, Leading zero omitted, Abs format (unit mm)*
G04 Created by KiCad (PCBNEW 10.0.2) date 2026-09-05 08:04:12*
%MOMM*%
%LPD*%
G01*
G04 APERTURE LIST*
G04 Aperture macros list*
%AMRoundRect*
0 Rectangle with rounded corners*
0 $1 Rounding radius*
0 $2 $3 $4 $5 $6 $7 $8 $9 X,Y pos of 4 corners*
0 Add a 4 corners polygon primitive as box body*
4,1,4,$2,$3,$4,$5,$6,$7,$8,$9,$2,$3,0*
0 Add four circle primitives for the rounded corners*
1,1,$1+$1,$2,$3*
1,1,$1+$1,$4,$5*
1,1,$1+$1,$6,$7*
1,1,$1+$1,$8,$9*
0 Add four rect primitives between the rounded corners*
20,1,$1+$1,$2,$3,$4,$5,0*
20,1,$1+$1,$4,$5,$6,$7,0*
20,1,$1+$1,$6,$7,$8,$9,0*
20,1,$1+$1,$8,$9,$2,$3,0*%
G04 Aperture macros list end*
%TA.AperFunction,SMDPad,CuDef*%
%ADD10RoundRect,0.225000X-0.225000X-0.250000X0.225000X-0.250000X0.225000X0.250000X-0.225000X0.250000X0*%
%TD*%
%TA.AperFunction,SMDPad,CuDef*%
%ADD11R,0.381000X0.330200*%
%TD*%
%TA.AperFunction,SMDPad,CuDef*%
%ADD12R,0.330200X0.381000*%
%TD*%
%TA.AperFunction,SMDPad,CuDef*%
%ADD13R,0.609600X0.838200*%
%TD*%
%TA.AperFunction,SMDPad,CuDef*%
%ADD14R,0.838200X0.609600*%
%TD*%
%TA.AperFunction,SMDPad,CuDef*%
%ADD15R,1.066800X1.066800*%
%TD*%
%TA.AperFunction,SMDPad,CuDef*%
%ADD16RoundRect,0.150000X-0.800000X-0.150000X0.800000X-0.150000X0.800000X0.150000X-0.800000X0.150000X0*%
%TD*%
%TA.AperFunction,SMDPad,CuDef*%
%ADD17RoundRect,0.225000X0.250000X-0.225000X0.250000X0.225000X-0.250000X0.225000X-0.250000X-0.225000X0*%
%TD*%
%TA.AperFunction,SMDPad,CuDef*%
%ADD18RoundRect,0.218750X-0.218750X-0.256250X0.218750X-0.256250X0.218750X0.256250X-0.218750X0.256250X0*%
%TD*%
%TA.AperFunction,ComponentPad*%
%ADD19R,1.700000X1.700000*%
%TD*%
%TA.AperFunction,ComponentPad*%
%ADD20O,1.700000X1.700000*%
%TD*%
%TA.AperFunction,ViaPad*%
%ADD21C,0.609600*%
%TD*%
%TA.AperFunction,ViaPad*%
%ADD22C,0.504800*%
%TD*%
%TA.AperFunction,Conductor*%
%ADD23C,0.152400*%
%TD*%
%TA.AperFunction,Conductor*%
%ADD24C,0.101600*%
%TD*%
G04 APERTURE END LIST*
D10*
%TO.P,C1,1*%
%TO.N,+3.3V*%
X127665000Y-87977000D03*
%TO.P,C1,2*%
%TO.N,GND*%
X129215000Y-87977000D03*
%TD*%
D11*
%TO.P,U2,1,SCLK_1*%
%TO.N,/ACCEL_SCK*%
X127626400Y-89941399D03*
%TO.P,U2,2,MOSI/SDA_2*%
%TO.N,/ACCEL_MOSI*%
X127626400Y-90441400D03*
%TO.P,U2,3,MISO/ASEL_3*%
%TO.N,/ACCEL_MISO*%
X127626400Y-90941400D03*
%TO.P,U2,4,\u002ACS/SCL_4*%
%TO.N,/ACCEL_nCS*%
X127626400Y-91441401D03*
D12*
%TO.P,U2,5,INT1_5*%
%TO.N,/WKUP1*%
X128240000Y-91605800D03*
%TO.P,U2,6,INT2_6*%
%TO.N,unconnected-(U2-INT2-Pad6)*%
X128740000Y-91605800D03*
D11*
%TO.P,U2,7,GND_7*%
%TO.N,GND*%
X129353600Y-91441401D03*
%TO.P,U2,8,ADC_IN_8*%
%TO.N,unconnected-(U2-ADC_IN-Pad8)*%
X129353600Y-90941400D03*
%TO.P,U2,9,VREG_OUT_9*%
%TO.N,Net-(U2-VREG_OUT)*%
X129353600Y-90441400D03*
%TO.P,U2,10,VS_10*%
%TO.N,+3.3V*%
X129353600Y-89941399D03*
D12*
%TO.P,U2,11,GND_11*%
%TO.N,GND*%
X128740000Y-89777000D03*
%TO.P,U2,12,VDDIO_12*%
%TO.N,+3.3V*%
X128240000Y-89777000D03*
%TD*%
D13*
%TO.P,U3,1,SCX_1*%
%TO.N,/LPS_SCK*%
X129240000Y-106677000D03*
%TO.P,U3,2,SDX_2*%
%TO.N,/LPS_MOSI*%
X129240000Y-105577000D03*
%TO.P,U3,3,SDO_3*%
%TO.N,/LPS_MISO*%
X129240000Y-104477000D03*
D14*
%TO.P,U3,4,VDDIO_4*%
%TO.N,/LPS_PWR*%
X128020800Y-104357800D03*
D13*
%TO.P,U3,5,INT_5*%
%TO.N,/LPS_RDY*%
X126801600Y-104477000D03*
%TO.P,U3,6,VSSIO/VSS_6*%
%TO.N,GND*%
X126801600Y-105577000D03*
%TO.P,U3,7,CSB_7*%
%TO.N,/LPS_CS*%
X126801600Y-106677000D03*
D14*
%TO.P,U3,8,VDD_8*%
%TO.N,/LPS_PWR*%
X128020800Y-106796200D03*
D15*
%TO.P,U3,9,L/M_9*%
%TO.N,unconnected-(U3-L{slash}M-Pad9)*%
X128020800Y-105577000D03*
%TD*%
D10*
%TO.P,C7,1*%
%TO.N,+3.3V*%
X130965000Y-89977000D03*
%TO.P,C7,2*%
%TO.N,GND*%
X132515000Y-89977000D03*
%TD*%
D16*
%TO.P,U1,1,nCS_1*%
%TO.N,/AT25_nCS*%
X124640000Y-79267000D03*
%TO.P,U1,2,SIO1_2*%
%TO.N,/AT25_MISO*%
X124640000Y-80537000D03*
%TO.P,U1,3,SIO2_3*%
%TO.N,+3.3V*%
X124640000Y-81807000D03*
%TO.P,U1,4,GND_4*%
%TO.N,GND*%
X124640000Y-83077000D03*
%TO.P,U1,5,SIO0_5*%
%TO.N,/AT25_MOSI*%
X131640000Y-83077000D03*
%TO.P,U1,6,SCLK_6*%
%TO.N,/AT25_SCK*%
X131640000Y-81807000D03*
%TO.P,U1,7,SIO3_7*%
%TO.N,+3.3V*%
X131640000Y-80537000D03*
%TO.P,U1,8,VCC_8*%
X131640000Y-79267000D03*
%TD*%
D10*
%TO.P,C5,1*%
%TO.N,/LPS_PWR*%
X127990000Y-108577000D03*
%TO.P,C5,2*%
%TO.N,GND*%
X129540000Y-108577000D03*
%TD*%
%TO.P,C4,1*%
%TO.N,Net-(U2-VREG_OUT)*%
X130965000Y-91577000D03*
%TO.P,C4,2*%
%TO.N,GND*%
X132515000Y-91577000D03*
%TD*%
D17*
%TO.P,C2,1*%
%TO.N,+3.3V*%
X134040000Y-78952000D03*
%TO.P,C2,2*%
%TO.N,GND*%
X134040000Y-77402000D03*
%TD*%
D18*
%TO.P,R1,1*%
%TO.N,/LPS_PWR*%
X134290000Y-108502000D03*
%TO.P,R1,2*%
%TO.N,/LPS_PWR_IN*%
X135865000Y-108502000D03*
%TD*%
D17*
%TO.P,C3,1*%
%TO.N,/LPS_PWR*%
X127940000Y-102652000D03*
%TO.P,C3,2*%
%TO.N,GND*%
X127940000Y-101102000D03*
%TD*%
D19*
%TO.P,J3,1,Pin_1_1*%
%TO.N,/AT25_MISO*%
X106553000Y-76200000D03*
D20*
%TO.P,J3,2,Pin_2_2*%
%TO.N,/AT25_MOSI*%
X106807000Y-78740000D03*
%TO.P,J3,3,Pin_3_3*%
%TO.N,unconnected-(J3-Pin_3-Pad3)*%
X106553000Y-81280000D03*
%TO.P,J3,4,Pin_4_4*%
%TO.N,unconnected-(J3-Pin_4-Pad4)*%
X106807000Y-83820000D03*
%TO.P,J3,5,Pin_5_5*%
%TO.N,unconnected-(J3-Pin_5-Pad5)*%
X106553000Y-86360000D03*
%TO.P,J3,6,Pin_6_6*%
%TO.N,unconnected-(J3-Pin_6-Pad6)*%
X106807000Y-88900000D03*
%TO.P,J3,7,Pin_7_7*%
%TO.N,+3.3V*%
X106553000Y-91440000D03*
%TO.P,J3,8,Pin_8_8*%
%TO.N,/WKUP1*%
X106807000Y-93980000D03*
%TO.P,J3,9,Pin_9_9*%
%TO.N,/ACCEL_nCS*%
X106553000Y-96520000D03*
%TO.P,J3,10,Pin_10_10*%
%TO.N,/ACCEL_MOSI*%
X106807000Y-99060000D03*
%TO.P,J3,11,Pin_11_11*%
%TO.N,/ACCEL_MISO*%
X106553000Y-101600000D03*
%TO.P,J3,12,Pin_12_12*%
%TO.N,/ACCEL_SCK*%
X106807000Y-104140000D03*
%TO.P,J3,13,Pin_13_13*%
%TO.N,/LPS_SCK*%
X106553000Y-106680000D03*
%TO.P,J3,14,Pin_14_14*%
%TO.N,/LPS_RDY*%
X106807000Y-109220000D03*
%TO.P,J3,15,Pin_15_15*%
%TO.N,unconnected-(J3-Pin_15-Pad15)*%
X106553000Y-111760000D03*
%TO.P,J3,16,Pin_16_16*%
%TO.N,/LPS_CS*%
X106807000Y-114300000D03*
%TO.P,J3,17,Pin_17_17*%
%TO.N,GND*%
X106553000Y-116840000D03*
%TD*%
D19*
%TO.P,J4,1,Pin_1_1*%
%TO.N,+3.3V*%
X149733000Y-76200000D03*
D20*
%TO.P,J4,2,Pin_2_2*%
%TO.N,/AT25_SCK*%
X149987000Y-78740000D03*
%TO.P,J4,3,Pin_3_3*%
%TO.N,/AT25_nCS*%
X149733000Y-81280000D03*
%TO.P,J4,4,Pin_4_4*%
%TO.N,/LPS_MOSI*%
X149987000Y-83820000D03*
%TO.P,J4,5,Pin_5_5*%
%TO.N,/LPS_MISO*%
X149733000Y-86360000D03*
%TO.P,J4,6,Pin_6_6*%
%TO.N,unconnected-(J4-Pin_6-Pad6)*%
X149987000Y-88900000D03*
%TO.P,J4,7,Pin_7_7*%
%TO.N,unconnected-(J4-Pin_7-Pad7)*%
X149733000Y-91440000D03*
%TO.P,J4,8,Pin_8_8*%
%TO.N,unconnected-(J4-Pin_8-Pad8)*%
X149987000Y-93980000D03*
%TO.P,J4,9,Pin_9_9*%
%TO.N,unconnected-(J4-Pin_9-Pad9)*%
X149733000Y-96520000D03*
%TO.P,J4,10,Pin_10_10*%
%TO.N,unconnected-(J4-Pin_10-Pad10)*%
X149987000Y-99060000D03*
%TO.P,J4,11,Pin_11_11*%
%TO.N,unconnected-(J4-Pin_11-Pad11)*%
X149733000Y-101600000D03*
%TO.P,J4,12,Pin_12_12*%
%TO.N,unconnected-(J4-Pin_12-Pad12)*%
X149987000Y-104140000D03*
%TO.P,J4,13,Pin_13_13*%
%TO.N,unconnected-(J4-Pin_13-Pad13)*%
X149733000Y-106680000D03*
%TO.P,J4,14,Pin_14_14*%
%TO.N,unconnected-(J4-Pin_14-Pad14)*%
X149987000Y-109220000D03*
%TO.P,J4,15,Pin_15_15*%
%TO.N,unconnected-(J4-Pin_15-Pad15)*%
X149733000Y-111760000D03*
%TO.P,J4,16,Pin_16_16*%
%TO.N,/LPS_PWR_IN*%
X149987000Y-114300000D03*
%TO.P,J4,17,Pin_17_17*%
%TO.N,GND*%
X149733000Y-116840000D03*
%TD*%
D21*
%TO.N,+3.3V*%
X134040000Y-79977000D03*
D22*
X130940000Y-89027000D03*
D21*
X122870000Y-81807000D03*
X126640000Y-88027000D03*
%TO.N,GND*%
X125840000Y-105677000D03*
X129840000Y-91677000D03*
X127940000Y-100077000D03*
X129990000Y-87927000D03*
X130540000Y-107977000D03*
D22*
X133365000Y-91527000D03*
D21*
X133490000Y-89927000D03*
X134040000Y-76277000D03*
%TO.N,/ACCEL_MOSI*%
X113290000Y-99177000D03*
%TO.N,/ACCEL_MISO*%
X125640000Y-90927000D03*
X121790000Y-91027000D03*
%TO.N,/ACCEL_nCS*%
X126540000Y-91427000D03*
X118740000Y-91827000D03*
%TO.N,/WKUP1*%
X128140000Y-92477000D03*
%TO.N,/LPS_MISO*%
X130640000Y-104377000D03*
D22*
%TO.N,/LPS_PWR*%
X133240000Y-108477000D03*
D21*
X126840000Y-108777000D03*
X126740000Y-102677000D03*
%TO.N,/LPS_RDY*%
X125290000Y-104427000D03*
%TO.N,/LPS_CS*%
X125540000Y-106977000D03*
%TO.N,/AT25_nCS*%
X126040000Y-79777000D03*
%TD*%
%TO.N,+3.3V*%
D23*
X131640000Y-80537000D02*
X131640000Y-79267000D01*
X134040000Y-78952000D02*
X134040000Y-79977000D01*
X126690000Y-87977000D02*
X126640000Y-88027000D01*
X127665000Y-87977000D02*
X127665000Y-89202000D01*
X127665000Y-89202000D02*
X128240000Y-89777000D01*
X129353600Y-89941399D02*
X130929399Y-89941399D01*
X130965000Y-89052000D02*
X130940000Y-89027000D01*
X122870000Y-81807000D02*
X122840000Y-81777000D01*
X124640000Y-81807000D02*
X122870000Y-81807000D01*
X131640000Y-79267000D02*
X133725000Y-79267000D01*
X130929399Y-89941399D02*
X130965000Y-89977000D01*
X127665000Y-87977000D02*
X126690000Y-87977000D01*
X130965000Y-89977000D02*
X130965000Y-89052000D01*
X133725000Y-79267000D02*
X134040000Y-78952000D01*
%TO.N,GND*%
X129540000Y-108577000D02*
X129940000Y-108577000D01*
X129604401Y-91441401D02*
X129840000Y-91677000D01*
X129940000Y-108577000D02*
X130540000Y-107977000D01*
X128740000Y-88452000D02*
X129215000Y-87977000D01*
X126801600Y-105577000D02*
X125940000Y-105577000D01*
X125940000Y-105577000D02*
X125840000Y-105677000D01*
X132515000Y-89977000D02*
X133440000Y-89977000D01*
X129940000Y-87977000D02*
X129990000Y-87927000D01*
X129215000Y-87977000D02*
X129940000Y-87977000D01*
X134040000Y-77402000D02*
X134040000Y-76277000D01*
X129353600Y-91441401D02*
X129604401Y-91441401D01*
X133440000Y-89977000D02*
X133490000Y-89927000D01*
D24*
X133315000Y-91577000D02*
X133365000Y-91527000D01*
D23*
X127940000Y-101102000D02*
X127940000Y-100077000D01*
D24*
X132515000Y-91577000D02*
X133315000Y-91577000D01*
D23*
X128740000Y-89777000D02*
X128740000Y-88452000D01*
%TO.N,/ACCEL_SCK*%
X115520000Y-95427000D02*
X119440000Y-95427000D01*
X124925601Y-89941399D02*
X127626400Y-89941399D01*
X119440000Y-95427000D02*
X124925601Y-89941399D01*
X106807000Y-104140000D02*
X115520000Y-95427000D01*
%TO.N,/ACCEL_MOSI*%
X125018815Y-90698185D02*
X116540000Y-99177000D01*
X127626400Y-90441400D02*
X125233231Y-90441400D01*
X125233231Y-90441400D02*
X125018815Y-90655816D01*
X125018815Y-90655816D02*
X125018815Y-90698185D01*
X116540000Y-99177000D02*
X113290000Y-99177000D01*
%TO.N,/ACCEL_MISO*%
X127612000Y-90927000D02*
X125640000Y-90927000D01*
X118590000Y-94227000D02*
X121790000Y-91027000D01*
X127626400Y-90941400D02*
X127612000Y-90927000D01*
X106553000Y-101600000D02*
X113926000Y-94227000D01*
X113926000Y-94227000D02*
X118590000Y-94227000D01*
%TO.N,/ACCEL_nCS*%
X106553000Y-96520000D02*
X111246000Y-91827000D01*
X127626400Y-91441401D02*
X126554401Y-91441401D01*
X126554401Y-91441401D02*
X126540000Y-91427000D01*
X111246000Y-91827000D02*
X118740000Y-91827000D01*
%TO.N,/WKUP1*%
X128240000Y-92377000D02*
X128140000Y-92477000D01*
X128240000Y-91605800D02*
X128240000Y-92377000D01*
%TO.N,Net-(U2-VREG_OUT)*%
D24*
X129353600Y-90441400D02*
X129829400Y-90441400D01*
X129829400Y-90441400D02*
X130965000Y-91577000D01*
%TO.N,/LPS_SCK*%
D23*
X128640000Y-107277000D02*
X129240000Y-106677000D01*
X106553000Y-106680000D02*
X110150000Y-110277000D01*
X128340000Y-110277000D02*
X128640000Y-109977000D01*
X110150000Y-110277000D02*
X128340000Y-110277000D01*
X128640000Y-109977000D02*
X128640000Y-107277000D01*
%TO.N,/LPS_MOSI*%
X149987000Y-83820000D02*
X133840000Y-99967000D01*
X131740000Y-105177000D02*
X131340000Y-105577000D01*
X131340000Y-105577000D02*
X129240000Y-105577000D01*
X133840000Y-101077000D02*
X131740000Y-103177000D01*
X133840000Y-99967000D02*
X133840000Y-101077000D01*
X131740000Y-103177000D02*
X131740000Y-105177000D01*
%TO.N,/LPS_MISO*%
X130540000Y-104477000D02*
X130640000Y-104377000D01*
X129240000Y-104477000D02*
X130540000Y-104477000D01*
%TO.N,/LPS_PWR*%
X128020800Y-108457800D02*
X128040000Y-108477000D01*
X127940000Y-104277000D02*
X128020800Y-104357800D01*
X126765000Y-102652000D02*
X126740000Y-102677000D01*
X127040000Y-108577000D02*
X126840000Y-108777000D01*
D24*
X134290000Y-108502000D02*
X133265000Y-108502000D01*
D23*
X127990000Y-108577000D02*
X127040000Y-108577000D01*
X128020800Y-106796200D02*
X128020800Y-108457800D01*
X127940000Y-102652000D02*
X127940000Y-104277000D01*
X127940000Y-102652000D02*
X126765000Y-102652000D01*
D24*
X133265000Y-108502000D02*
X133240000Y-108477000D01*
%TO.N,/LPS_RDY*%
D23*
X126801600Y-104477000D02*
X125340000Y-104477000D01*
X125340000Y-104477000D02*
X125290000Y-104427000D01*
%TO.N,/LPS_CS*%
X126801600Y-106677000D02*
X125840000Y-106677000D01*
X125840000Y-106677000D02*
X125540000Y-106977000D01*
%TO.N,/AT25_nCS*%
X124640000Y-79267000D02*
X125150000Y-79777000D01*
X125150000Y-79777000D02*
X126040000Y-79777000D01*
%TO.N,/AT25_MISO*%
X124640000Y-80537000D02*
X110890000Y-80537000D01*
X110890000Y-80537000D02*
X106553000Y-76200000D01*
%TO.N,/AT25_MOSI*%
X106807000Y-78740000D02*
X110505000Y-82438000D01*
X131001000Y-82438000D02*
X131640000Y-83077000D01*
X110505000Y-82438000D02*
X131001000Y-82438000D01*
%TO.N,/AT25_SCK*%
X149987000Y-78740000D02*
X146920000Y-81807000D01*
X149405000Y-78158000D02*
X149987000Y-78740000D01*
X146920000Y-81807000D02*
X131640000Y-81807000D01*
%TO.N,/LPS_PWR_IN*%
D24*
X149987000Y-114300000D02*
X144189000Y-108502000D01*
X144189000Y-108502000D02*
X135865000Y-108502000D01*
%TD*%
%TA.AperFunction,Conductor*%
%TO.N,GND*%
G36*
X108068797Y-80833317D02*
G01*
X108091292Y-80851182D01*
X110145979Y-82905870D01*
X110145984Y-82905874D01*
X110145986Y-82905876D01*
X110145987Y-82905877D01*
X110145989Y-82905878D01*
X110196418Y-82934993D01*
X110279315Y-82982854D01*
X110428023Y-83022700D01*
X130055500Y-83022700D01*
X130123621Y-83042702D01*
X130170114Y-83096358D01*
X130181500Y-83148700D01*
X130181500Y-83293511D01*
X130184437Y-83330828D01*
X130184437Y-83330829D01*
X130230856Y-83490605D01*
X130315544Y-83633803D01*
X130315549Y-83633810D01*
X130433189Y-83751450D01*
X130433196Y-83751455D01*
X130576394Y-83836143D01*
X130576397Y-83836143D01*
X130576399Y-83836145D01*
X130736169Y-83882562D01*
X130773488Y-83885499D01*
X130773489Y-83885500D01*
X130773498Y-83885500D01*
X132506511Y-83885500D01*
X132506511Y-83885499D01*
X132543831Y-83882562D01*
X132703601Y-83836145D01*
X132703603Y-83836143D01*
X132703605Y-83836143D01*
X132775204Y-83793799D01*
X132846807Y-83751453D01*
X132964453Y-83633807D01*
X133006799Y-83562204D01*
X133049143Y-83490605D01*
X133049143Y-83490603D01*
X133049145Y-83490601D01*
X133095562Y-83330831D01*
X133098499Y-83293511D01*
X133098500Y-83293511D01*
X133098500Y-82860489D01*
X133098499Y-82860488D01*
X133095562Y-82823171D01*
X133095562Y-82823170D01*
X133084124Y-82783799D01*
X133049145Y-82663399D01*
X133000910Y-82581839D01*
X132983451Y-82513023D01*
X133005967Y-82445692D01*
X133061312Y-82401223D01*
X133109364Y-82391700D01*
X146996975Y-82391700D01*
X146996977Y-82391700D01*
X147145686Y-82351853D01*
X147279014Y-82274876D01*
X147387876Y-82166014D01*
X148171269Y-81382620D01*
X148233578Y-81348598D01*
X148304393Y-81353662D01*
X148361229Y-81396209D01*
X148384809Y-81452004D01*
X148407951Y-81598116D01*
X148407952Y-81598121D01*
X148472058Y-81795421D01*
X148474028Y-81801483D01*
X148571106Y-81992009D01*
X148696794Y-82165004D01*
X148696796Y-82165006D01*
X148696798Y-82165009D01*
X148847990Y-82316201D01*
X148847993Y-82316203D01*
X148847996Y-82316206D01*
X149020991Y-82441894D01*
X149162005Y-82513744D01*
X149213620Y-82562491D01*
X149230686Y-82631406D01*
X149207786Y-82698607D01*
X149178864Y-82727946D01*
X149101989Y-82783799D01*
X148950798Y-82934990D01*
X148950796Y-82934993D01*
X148825108Y-83107987D01*
X148728029Y-83298515D01*
X148728026Y-83298521D01*
X148661952Y-83501878D01*
X148661951Y-83501883D01*
X148661951Y-83501884D01*
X148628500Y-83713084D01*
X148628500Y-83926916D01*
X148661951Y-84138115D01*
X148682244Y-84200572D01*
X148684270Y-84271540D01*
X148651505Y-84328602D01*
X135938632Y-97041478D01*
X133480986Y-99499124D01*
X133444096Y-99536014D01*
X133372125Y-99607984D01*
X133372121Y-99607989D01*
X133295147Y-99741313D01*
X133255300Y-99890024D01*
X133255300Y-100782619D01*
X133235298Y-100850740D01*
X133218395Y-100871714D01*
X132259314Y-101830796D01*
X131380986Y-102709124D01*
X131333007Y-102757103D01*
X131272125Y-102817984D01*
X131272121Y-102817989D01*
X131195147Y-102951313D01*
X131155300Y-103100024D01*
X131155300Y-103521562D01*
X131135298Y-103589683D01*
X131081642Y-103636176D01*
X131011368Y-103646280D01*
X130981082Y-103637971D01*
X130877234Y-103594956D01*
X130877231Y-103594955D01*
X130720106Y-103563700D01*
X130720103Y-103563700D01*
X130559897Y-103563700D01*
X130559893Y-103563700D01*
X130402768Y-103594955D01*
X130402765Y-103594956D01*
X130254758Y-103656263D01*
X130121553Y-103745267D01*
X130116767Y-103749196D01*
X130115407Y-103747539D01*
X130061612Y-103776896D01*
X129990798Y-103771814D01*
X129933992Y-103729278D01*
X129908061Y-103694638D01*
X129791007Y-103607012D01*
X129791002Y-103607010D01*
X129654004Y-103555911D01*
X129653996Y-103555909D01*
X129593449Y-103549400D01*
X129593438Y-103549400D01*
X128886562Y-103549400D01*
X128886557Y-103549400D01*
X128886545Y-103549401D01*
X128870089Y-103551170D01*
X128800220Y-103538563D01*
X128748260Y-103490183D01*
X128730703Y-103421392D01*
X128753126Y-103354029D01*
X128767528Y-103336796D01*
X128769285Y-103335040D01*
X128859302Y-103189101D01*
X128913236Y-103026336D01*
X128918163Y-102978108D01*
X128923500Y-102925880D01*
X128923500Y-102378119D01*
X128913236Y-102277666D01*
X128913236Y-102277664D01*
X128859302Y-102114899D01*
X128769285Y-101968960D01*
X128766070Y-101965745D01*
X128732043Y-101903438D01*
X128737104Y-101832622D01*
X128766072Y-101787546D01*
X128768890Y-101784727D01*
X128858847Y-101638884D01*
X128912742Y-101476241D01*
X128912744Y-101476229D01*
X128922999Y-101375852D01*
X128923000Y-101375852D01*
X128923000Y-101356000D01*
X126957000Y-101356000D01*
X126957000Y-101375852D01*
X126967255Y-101476229D01*
X126967257Y-101476241D01*
X127021152Y-101638883D01*
X127055504Y-101694578D01*
X127074240Y-101763058D01*
X127052980Y-101830796D01*
X126998472Y-101876287D01*
X126928023Y-101885088D01*
X126923680Y-101884303D01*
X126820106Y-101863700D01*
X126820103Y-101863700D01*
X126659897Y-101863700D01*
X126659893Y-101863700D01*
X126502768Y-101894955D01*
X126502765Y-101894956D01*
X126354758Y-101956263D01*
X126221552Y-102045268D01*
X126221546Y-102045273D01*
X126108273Y-102158546D01*
X126108268Y-102158552D01*
X126019263Y-102291758D01*
X125957956Y-102439765D01*
X125957955Y-102439768D01*
X125926700Y-102596893D01*
X125926700Y-102757106D01*
X125957955Y-102914231D01*
X125957956Y-102914234D01*
X125962777Y-102925872D01*
X126019263Y-103062242D01*
X126047029Y-103103796D01*
X126108268Y-103195447D01*
X126108273Y-103195453D01*
X126221546Y-103308726D01*
X126221552Y-103308731D01*
X126260924Y-103335039D01*
X126313735Y-103370326D01*
X126359263Y-103424803D01*
X126368111Y-103495246D01*
X126337469Y-103559290D01*
X126287768Y-103593146D01*
X126250593Y-103607012D01*
X126250592Y-103607012D01*
X126133538Y-103694638D01*
X126040510Y-103818910D01*
X126038239Y-103817209D01*
X125998295Y-103857146D01*
X125928919Y-103872230D01*
X125862402Y-103847412D01*
X125848825Y-103835646D01*
X125808453Y-103795273D01*
X125808447Y-103795268D01*
X125709686Y-103729278D01*
X125675242Y-103706263D01*
X125530430Y-103646280D01*
X125527234Y-103644956D01*
X125527231Y-103644955D01*
X125370106Y-103613700D01*
X125370103Y-103613700D01*
X125209897Y-103613700D01*
X125209893Y-103613700D01*
X125052768Y-103644955D01*
X125052765Y-103644956D01*
X124904758Y-103706263D01*
X124771552Y-103795268D01*
X124771546Y-103795273D01*
X124658273Y-103908546D01*
X124658268Y-103908552D01*
X124569263Y-104041758D01*
X124507956Y-104189765D01*
X124507955Y-104189768D01*
X124476700Y-104346893D01*
X124476700Y-104507106D01*
X124507407Y-104661478D01*
X124507955Y-104664231D01*
X124569263Y-104812242D01*
X124595835Y-104852009D01*
X124658268Y-104945447D01*
X124658273Y-104945453D01*
X124771546Y-105058726D01*
X124771552Y-105058731D01*
X124904758Y-105147737D01*
X125052769Y-105209045D01*
X125209897Y-105240300D01*
X125370103Y-105240300D01*
X125527231Y-105209045D01*
X125675242Y-105147737D01*
X125772225Y-105082935D01*
X125790564Y-105077192D01*
X125806729Y-105066804D01*
X125838186Y-105062280D01*
X125839978Y-105061720D01*
X125842227Y-105061700D01*
X125862800Y-105061700D01*
X125930921Y-105081702D01*
X125977414Y-105135358D01*
X125988800Y-105187700D01*
X125988800Y-105323000D01*
X126176613Y-105323000D01*
X126244734Y-105343002D01*
X126250035Y-105346683D01*
X126250591Y-105346986D01*
X126250592Y-105346986D01*
X126250596Y-105346989D01*
X126387599Y-105398089D01*
X126387600Y-105398089D01*
X126387603Y-105398090D01*
X126448150Y-105404599D01*
X126448155Y-105404599D01*
X126448162Y-105404600D01*
X126675600Y-105404600D01*
X126684425Y-105407191D01*
X126693532Y-105405882D01*
X126717957Y-105417037D01*
X126743721Y-105424602D01*
X126749745Y-105431555D01*
X126758112Y-105435376D01*
X126772626Y-105457961D01*
X126790214Y-105478258D01*
X126792538Y-105488944D01*
X126796496Y-105495102D01*
X126801600Y-105530600D01*
X126801600Y-105623400D01*
X126781598Y-105691521D01*
X126727942Y-105738014D01*
X126675600Y-105749400D01*
X126448150Y-105749400D01*
X126387603Y-105755909D01*
X126250591Y-105807013D01*
X126242686Y-105811330D01*
X126241805Y-105809716D01*
X126185598Y-105830679D01*
X126176613Y-105831000D01*
X125988800Y-105831000D01*
X125988800Y-105966300D01*
X125968798Y-106034421D01*
X125915142Y-106080914D01*
X125862800Y-106092300D01*
X125763023Y-106092300D01*
X125663883Y-106118864D01*
X125614313Y-106132147D01*
X125588902Y-106146819D01*
X125525902Y-106163700D01*
X125459893Y-106163700D01*
X125302768Y-106194955D01*
X125302765Y-106194956D01*
X125154758Y-106256263D01*
X125021552Y-106345268D01*
X125021546Y-106345273D01*
X124908273Y-106458546D01*
X124908268Y-106458552D01*
X124819263Y-106591758D01*
X124757956Y-106739765D01*
X124757955Y-106739768D01*
X124726700Y-106896893D01*
X124726700Y-107057106D01*
X124744132Y-107144738D01*
X124757955Y-107214231D01*
X124819263Y-107362242D01*
X124839153Y-107392009D01*
X124908268Y-107495447D01*
X124908273Y-107495453D01*
X125021546Y-107608726D01*
X125021552Y-107608731D01*
X125154758Y-107697737D01*
X125302769Y-107759045D01*
X125459897Y-107790300D01*
X125620103Y-107790300D01*
X125777231Y-107759045D01*
X125925242Y-107697737D01*
X126058448Y-107608731D01*
X126099551Y-107567628D01*
X126161862Y-107533602D01*
X126232678Y-107538666D01*
X126249040Y-107546139D01*
X126250591Y-107546985D01*
X126250596Y-107546989D01*
X126387599Y-107598089D01*
X126387600Y-107598089D01*
X126387603Y-107598090D01*
X126448150Y-107604599D01*
X126448155Y-107604599D01*
X126448162Y-107604600D01*
X126448168Y-107604600D01*
X127145884Y-107604600D01*
X127160712Y-107608954D01*
X127176153Y-107608290D01*
X127194083Y-107618752D01*
X127214005Y-107624602D01*
X127224126Y-107636282D01*
X127237474Y-107644071D01*
X127246901Y-107662566D01*
X127260498Y-107678258D01*
X127262697Y-107693556D01*
X127269715Y-107707324D01*
X127267646Y-107727979D01*
X127270602Y-107748532D01*
X127264072Y-107763683D01*
X127262642Y-107777967D01*
X127249137Y-107798337D01*
X127244567Y-107808943D01*
X127240079Y-107814595D01*
X127185715Y-107868960D01*
X127146681Y-107932241D01*
X127142039Y-107938090D01*
X127118880Y-107954420D01*
X127097810Y-107973373D01*
X127090265Y-107974600D01*
X127084018Y-107979006D01*
X127055705Y-107980223D01*
X127027734Y-107984775D01*
X127018775Y-107983326D01*
X126920108Y-107963700D01*
X126920103Y-107963700D01*
X126759897Y-107963700D01*
X126759893Y-107963700D01*
X126602768Y-107994955D01*
X126602765Y-107994956D01*
X126454758Y-108056263D01*
X126321552Y-108145268D01*
X126321546Y-108145273D01*
X126208273Y-108258546D01*
X126208268Y-108258552D01*
X126119263Y-108391758D01*
X126057956Y-108539765D01*
X126057955Y-108539768D01*
X126026700Y-108696893D01*
X126026700Y-108857106D01*
X126047575Y-108962047D01*
X126057955Y-109014231D01*
X126119263Y-109162242D01*
X126156511Y-109217987D01*
X126208268Y-109295447D01*
X126208273Y-109295453D01*
X126321546Y-109408726D01*
X126321552Y-109408731D01*
X126400578Y-109461535D01*
X126446106Y-109516012D01*
X126454954Y-109586455D01*
X126424312Y-109650499D01*
X126363910Y-109687811D01*
X126330576Y-109692300D01*
X110444381Y-109692300D01*
X110376260Y-109672298D01*
X110355286Y-109655395D01*
X107888493Y-107188603D01*
X107854468Y-107126291D01*
X107857754Y-107060575D01*
X107878049Y-106998116D01*
X107911500Y-106786916D01*
X107911500Y-106573084D01*
X107878049Y-106361884D01*
X107811972Y-106158517D01*
X107714894Y-105967991D01*
X107589206Y-105794996D01*
X107589203Y-105794993D01*
X107589201Y-105794990D01*
X107438006Y-105643795D01*
X107361136Y-105587946D01*
X107317782Y-105531723D01*
X107311707Y-105460987D01*
X107344839Y-105398196D01*
X107377989Y-105373747D01*
X107519009Y-105301894D01*
X107692004Y-105176206D01*
X107843206Y-105025004D01*
X107968894Y-104852009D01*
X108065972Y-104661483D01*
X108132049Y-104458116D01*
X108165500Y-104246916D01*
X108165500Y-104033084D01*
X108132049Y-103821884D01*
X108111754Y-103759424D01*
X108109727Y-103688459D01*
X108142491Y-103631397D01*
X110945741Y-100828147D01*
X126957000Y-100828147D01*
X126957000Y-100848000D01*
X127686000Y-100848000D01*
X128194000Y-100848000D01*
X128923000Y-100848000D01*
X128923000Y-100828147D01*
X128912744Y-100727770D01*
X128912742Y-100727758D01*
X128858847Y-100565115D01*
X128768890Y-100419271D01*
X128768885Y-100419265D01*
X128647734Y-100298114D01*
X128647728Y-100298109D01*
X128501884Y-100208152D01*
X128339241Y-100154257D01*
X128339229Y-100154255D01*
X128238852Y-100144000D01*
X128194000Y-100144000D01*
X128194000Y-100848000D01*
X127686000Y-100848000D01*
X127686000Y-100144000D01*
X127641147Y-100144000D01*
X127540770Y-100154255D01*
X127540758Y-100154257D01*
X127378115Y-100208152D01*
X127232271Y-100298109D01*
X127232265Y-100298114D01*
X127111114Y-100419265D01*
X127111109Y-100419271D01*
X127021152Y-100565115D01*
X126967257Y-100727758D01*
X126967255Y-100727770D01*
X126957000Y-100828147D01*
X110945741Y-100828147D01*
X112331181Y-99442707D01*
X112393491Y-99408683D01*
X112464306Y-99413748D01*
X112521142Y-99456295D01*
X112536683Y-99483586D01*
X112569263Y-99562242D01*
X112658268Y-99695447D01*
X112658273Y-99695453D01*
X112771546Y-99808726D01*
X112771552Y-99808731D01*
X112904758Y-99897737D01*
X113052769Y-99959045D01*
X113209897Y-99990300D01*
X113370103Y-99990300D01*
X113527231Y-99959045D01*
X113675242Y-99897737D01*
X113808448Y-99808731D01*
X113808453Y-99808726D01*
X113818575Y-99798605D01*
X113880887Y-99764579D01*
X113907670Y-99761700D01*
X116616975Y-99761700D01*
X116616977Y-99761700D01*
X116765686Y-99721853D01*
X116899014Y-99644876D01*
X117007876Y-99536014D01*
X124966672Y-91577216D01*
X125028982Y-91543192D01*
X125099797Y-91548257D01*
X125125767Y-91561548D01*
X125205764Y-91615000D01*
X125254758Y-91647737D01*
X125402769Y-91709045D01*
X125559897Y-91740300D01*
X125705287Y-91740300D01*
X125773408Y-91760302D01*
X125816405Y-91806897D01*
X125819259Y-91812236D01*
X125908268Y-91945447D01*
X125908273Y-91945453D01*
X126021546Y-92058726D01*
X126021552Y-92058731D01*
X126154758Y-92147737D01*
X126302769Y-92209045D01*
X126459897Y-92240300D01*
X126620103Y-92240300D01*
X126777231Y-92209045D01*
X126925242Y-92147737D01*
X127055145Y-92060937D01*
X127061674Y-92058893D01*
X127066593Y-92054134D01*
X127095128Y-92048417D01*
X127122896Y-92039723D01*
X127131138Y-92041204D01*
X127136207Y-92040189D01*
X127151880Y-92044932D01*
X127171120Y-92048390D01*
X127184873Y-92053779D01*
X127189696Y-92057390D01*
X127280670Y-92091321D01*
X127281594Y-92091684D01*
X127308870Y-92112814D01*
X127336488Y-92133488D01*
X127336865Y-92134500D01*
X127337720Y-92135162D01*
X127349240Y-92167677D01*
X127361299Y-92200008D01*
X127361155Y-92201307D01*
X127361430Y-92202083D01*
X127360749Y-92204978D01*
X127357611Y-92233390D01*
X127359163Y-92233699D01*
X127357956Y-92239766D01*
X127357955Y-92239769D01*
X127349012Y-92284728D01*
X127326700Y-92396893D01*
X127326700Y-92557106D01*
X127357955Y-92714231D01*
X127357956Y-92714234D01*
X127361376Y-92722491D01*
X127419263Y-92862242D01*
X127436438Y-92887946D01*
X127508268Y-92995447D01*
X127508273Y-92995453D01*
X127621546Y-93108726D01*
X127621552Y-93108731D01*
X127754758Y-93197737D01*
X127902769Y-93259045D01*
X128059897Y-93290300D01*
X128220103Y-93290300D01*
X128377231Y-93259045D01*
X128525242Y-93197737D01*
X128658448Y-93108731D01*
X128771731Y-92995448D01*
X128860737Y-92862242D01*
X128922045Y-92714231D01*
X128953300Y-92557103D01*
X128953300Y-92408524D01*
X128973302Y-92340403D01*
X129026958Y-92293910D01*
X129035242Y-92290478D01*
X129151304Y-92247189D01*
X129268361Y-92159561D01*
X129307684Y-92107031D01*
X129364516Y-92064487D01*
X129435332Y-92059421D01*
X129497644Y-92093445D01*
X129497645Y-92093447D01*
X129518699Y-92114501D01*
X129592685Y-92114501D01*
X129592697Y-92114500D01*
X129653193Y-92107995D01*
X129790063Y-92056945D01*
X129853030Y-92009808D01*
X129919550Y-91984996D01*
X129988924Y-92000086D01*
X130039127Y-92050288D01*
X130048145Y-92071042D01*
X130070696Y-92139097D01*
X130070697Y-92139099D01*
X130070698Y-92139101D01*
X130124051Y-92225599D01*
X130160715Y-92285040D01*
X130160720Y-92285046D01*
X130281953Y-92406279D01*
X130281959Y-92406284D01*
X130281960Y-92406285D01*
X130427899Y-92496302D01*
X130590664Y-92550236D01*
X130610756Y-92552288D01*
X130691120Y-92560500D01*
X130691128Y-92560500D01*
X131238880Y-92560500D01*
X131311936Y-92553035D01*
X131339336Y-92550236D01*
X131502101Y-92496302D01*
X131648040Y-92406285D01*
X131651250Y-92403074D01*
X131713554Y-92369045D01*
X131784370Y-92374101D01*
X131829447Y-92403067D01*
X131832265Y-92405885D01*
X131832271Y-92405890D01*
X131978115Y-92495847D01*
X132140758Y-92549742D01*
X132140770Y-92549744D01*
X132241147Y-92559999D01*
X132241147Y-92560000D01*
X132261000Y-92560000D01*
X132769000Y-92560000D01*
X132788853Y-92560000D01*
X132788852Y-92559999D01*
X132889229Y-92549744D01*
X132889241Y-92549742D01*
X133051884Y-92495847D01*
X133197728Y-92405890D01*
X133197734Y-92405885D01*
X133318885Y-92284734D01*
X133318890Y-92284728D01*
X133408847Y-92138884D01*
X133462742Y-91976241D01*
X133462744Y-91976229D01*
X133472999Y-91875852D01*
X133473000Y-91875852D01*
X133473000Y-91831000D01*
X132769000Y-91831000D01*
X132769000Y-92560000D01*
X132261000Y-92560000D01*
X132261000Y-91323000D01*
X132769000Y-91323000D01*
X133473000Y-91323000D01*
X133473000Y-91278147D01*
X133462744Y-91177770D01*
X133462742Y-91177758D01*
X133408847Y-91015115D01*
X133318890Y-90869272D01*
X133315719Y-90866101D01*
X133281690Y-90803791D01*
X133286751Y-90732975D01*
X133315719Y-90687899D01*
X133318890Y-90684727D01*
X133408847Y-90538884D01*
X133462742Y-90376241D01*
X133462744Y-90376229D01*
X133472999Y-90275852D01*
X133473000Y-90275852D01*
X133473000Y-90231000D01*
X132769000Y-90231000D01*
X132769000Y-91323000D01*
X132261000Y-91323000D01*
X132261000Y-89723000D01*
X132769000Y-89723000D01*
X133473000Y-89723000D01*
X133473000Y-89678147D01*
X133462744Y-89577770D01*
X133462742Y-89577758D01*
X133408847Y-89415115D01*
X133318890Y-89269271D01*
X133318885Y-89269265D01*
X133197734Y-89148114D01*
X133197728Y-89148109D01*
X133051884Y-89058152D01*
X132889241Y-89004257D01*
X132889229Y-89004255D01*
X132788852Y-88994000D01*
X132769000Y-88994000D01*
X132769000Y-89723000D01*
X132261000Y-89723000D01*
X132261000Y-88994000D01*
X132241147Y-88994000D01*
X132140770Y-89004255D01*
X132140758Y-89004257D01*
X131978115Y-89058152D01*
X131893047Y-89110623D01*
X131824567Y-89129360D01*
X131756829Y-89108101D01*
X131711337Y-89053593D01*
X131700900Y-89003382D01*
X131700900Y-88952059D01*
X131700899Y-88952055D01*
X131671659Y-88805054D01*
X131614301Y-88666579D01*
X131531030Y-88541954D01*
X131531028Y-88541952D01*
X131531023Y-88541946D01*
X131425053Y-88435976D01*
X131425047Y-88435971D01*
X131389532Y-88412241D01*
X131300421Y-88352699D01*
X131161946Y-88295341D01*
X131014944Y-88266100D01*
X131014942Y-88266100D01*
X130865058Y-88266100D01*
X130865055Y-88266100D01*
X130718053Y-88295341D01*
X130718048Y-88295343D01*
X130579578Y-88352699D01*
X130454952Y-88435971D01*
X130364248Y-88526675D01*
X130301936Y-88560700D01*
X130231120Y-88555634D01*
X130174284Y-88513087D01*
X130149474Y-88446567D01*
X130155550Y-88397943D01*
X130162742Y-88376239D01*
X130162744Y-88376229D01*
X130172999Y-88275852D01*
X130173000Y-88275852D01*
X130173000Y-88231000D01*
X129469000Y-88231000D01*
X129469000Y-88960000D01*
X129488853Y-88960000D01*
X129488852Y-88959999D01*
X129589229Y-88949744D01*
X129589241Y-88949742D01*
X129751884Y-88895847D01*
X129897728Y-88805890D01*
X129991550Y-88712068D01*
X130053862Y-88678043D01*
X130124678Y-88683107D01*
X130181514Y-88725654D01*
X130206325Y-88792174D01*
X130204225Y-88825744D01*
X130179100Y-88952052D01*
X130179100Y-89101947D01*
X130190620Y-89159861D01*
X130184292Y-89230575D01*
X130171954Y-89254223D01*
X130165006Y-89264668D01*
X130160715Y-89268960D01*
X130142369Y-89298702D01*
X130141187Y-89300480D01*
X130115579Y-89321972D01*
X130090729Y-89344324D01*
X130088287Y-89344878D01*
X130086806Y-89346122D01*
X130077695Y-89347285D01*
X130036274Y-89356699D01*
X129874038Y-89356699D01*
X129805917Y-89336697D01*
X129798527Y-89331566D01*
X129790303Y-89325409D01*
X129653304Y-89274310D01*
X129653296Y-89274308D01*
X129592749Y-89267799D01*
X129592738Y-89267799D01*
X129364165Y-89267799D01*
X129296044Y-89247797D01*
X129275592Y-89228752D01*
X129274377Y-89229968D01*
X129268006Y-89223597D01*
X129151065Y-89136055D01*
X129151061Y-89136053D01*
X129042967Y-89095736D01*
X128986131Y-89053190D01*
X128961321Y-88986669D01*
X128961000Y-88977681D01*
X128961000Y-87723000D01*
X129469000Y-87723000D01*
X130173000Y-87723000D01*
X130173000Y-87678147D01*
X130162744Y-87577770D01*
X130162742Y-87577758D01*
X130108847Y-87415115D01*
X130018890Y-87269271D01*
X130018885Y-87269265D01*
X129897734Y-87148114D01*
X129897728Y-87148109D01*
X129751884Y-87058152D01*
X129589241Y-87004257D01*
X129589229Y-87004255D01*
X129488852Y-86994000D01*
X129469000Y-86994000D01*
X129469000Y-87723000D01*
X128961000Y-87723000D01*
X128961000Y-86994000D01*
X128941147Y-86994000D01*
X128840770Y-87004255D01*
X128840758Y-87004257D01*
X128678115Y-87058152D01*
X128532271Y-87148109D01*
X128532267Y-87148112D01*
X128529442Y-87150938D01*
X128527026Y-87152256D01*
X128526514Y-87152662D01*
X128526444Y-87152574D01*
X128467128Y-87184959D01*
X128396312Y-87179890D01*
X128351253Y-87150928D01*
X128348040Y-87147715D01*
X128202101Y-87057698D01*
X128039336Y-87003764D01*
X128039333Y-87003763D01*
X127938880Y-86993500D01*
X127938872Y-86993500D01*
X127391128Y-86993500D01*
X127391120Y-86993500D01*
X127290666Y-87003763D01*
X127127899Y-87057698D01*
X126981959Y-87147715D01*
X126981957Y-87147717D01*
X126931098Y-87198575D01*
X126868785Y-87232599D01*
X126817423Y-87233057D01*
X126720108Y-87213700D01*
X126720103Y-87213700D01*
X126559897Y-87213700D01*
X126559893Y-87213700D01*
X126402768Y-87244955D01*
X126402765Y-87244956D01*
X126254758Y-87306263D01*
X126121552Y-87395268D01*
X126121546Y-87395273D01*
X126008273Y-87508546D01*
X126008268Y-87508552D01*
X125919263Y-87641758D01*
X125857956Y-87789765D01*
X125857955Y-87789768D01*
X125826700Y-87946893D01*
X125826700Y-88107106D01*
X125857955Y-88264231D01*
X125857956Y-88264234D01*
X125862777Y-88275872D01*
X125919263Y-88412242D01*
X125978734Y-88501247D01*
X126008268Y-88545447D01*
X126008273Y-88545453D01*
X126121546Y-88658726D01*
X126121552Y-88658731D01*
X126254758Y-88747737D01*
X126402769Y-88809045D01*
X126559897Y-88840300D01*
X126720103Y-88840300D01*
X126877231Y-88809045D01*
X126883027Y-88806643D01*
X126888744Y-88806028D01*
X126893524Y-88802831D01*
X126923648Y-88802273D01*
X126953616Y-88799049D01*
X126960268Y-88801595D01*
X126964508Y-88801517D01*
X126997394Y-88815805D01*
X127020449Y-88830025D01*
X127067925Y-88882809D01*
X127080300Y-88937264D01*
X127080300Y-89230699D01*
X127060298Y-89298820D01*
X127006642Y-89345313D01*
X126954300Y-89356699D01*
X124848624Y-89356699D01*
X124699915Y-89396546D01*
X124668127Y-89414899D01*
X124668126Y-89414898D01*
X124566589Y-89473520D01*
X124566579Y-89473528D01*
X122815141Y-91224967D01*
X122752829Y-91258993D01*
X122682014Y-91253928D01*
X122625178Y-91211381D01*
X122600367Y-91144861D01*
X122602468Y-91111284D01*
X122603300Y-91107102D01*
X122603300Y-90946896D01*
X122603299Y-90946893D01*
X122572045Y-90789769D01*
X122510737Y-90641758D01*
X122421731Y-90508552D01*
X122421726Y-90508546D01*
X122308453Y-90395273D01*
X122308447Y-90395268D01*
X122264247Y-90365734D01*
X122175242Y-90306263D01*
X122081907Y-90267602D01*
X122027234Y-90244956D01*
X122027231Y-90244955D01*
X121870106Y-90213700D01*
X121870103Y-90213700D01*
X121709897Y-90213700D01*
X121709893Y-90213700D01*
X121552768Y-90244955D01*
X121552765Y-90244956D01*
X121404758Y-90306263D01*
X121271552Y-90395268D01*
X121271546Y-90395273D01*
X121158273Y-90508546D01*
X121158268Y-90508552D01*
X121069263Y-90641758D01*
X121007956Y-90789765D01*
X121007955Y-90789768D01*
X120976700Y-90946893D01*
X120976700Y-90961219D01*
X120956698Y-91029340D01*
X120939795Y-91050314D01*
X119684403Y-92305705D01*
X119622091Y-92339731D01*
X119551275Y-92334666D01*
X119494440Y-92292119D01*
X119469629Y-92225599D01*
X119478899Y-92168393D01*
X119522045Y-92064231D01*
X119553300Y-91907103D01*
X119553300Y-91746897D01*
X119522045Y-91589769D01*
X119460737Y-91441758D01*
X119371731Y-91308552D01*
X119371726Y-91308546D01*
X119258453Y-91195273D01*
X119258447Y-91195268D01*
X119214247Y-91165734D01*
X119125242Y-91106263D01*
X118990169Y-91050314D01*
X118977234Y-91044956D01*
X118977231Y-91044955D01*
X118820106Y-91013700D01*
X118820103Y-91013700D01*
X118659897Y-91013700D01*
X118659893Y-91013700D01*
X118502768Y-91044955D01*
X118502765Y-91044956D01*
X118354758Y-91106263D01*
X118221552Y-91195268D01*
X118221546Y-91195273D01*
X118211425Y-91205395D01*
X118149113Y-91239421D01*
X118122330Y-91242300D01*
X111169023Y-91242300D01*
X111087177Y-91264231D01*
X111020314Y-91282147D01*
X110968188Y-91312242D01*
X110968187Y-91312241D01*
X110886988Y-91359121D01*
X110886978Y-91359129D01*
X108368733Y-93877375D01*
X108306421Y-93911401D01*
X108235606Y-93906336D01*
X108178770Y-93863789D01*
X108155190Y-93807994D01*
X108132049Y-93661884D01*
X108065972Y-93458517D01*
X107968894Y-93267991D01*
X107843206Y-93094996D01*
X107843203Y-93094993D01*
X107843201Y-93094990D01*
X107692009Y-92943798D01*
X107692006Y-92943796D01*
X107692004Y-92943794D01*
X107519009Y-92818106D01*
X107377992Y-92746254D01*
X107326379Y-92697508D01*
X107309313Y-92628593D01*
X107332214Y-92561391D01*
X107361133Y-92532055D01*
X107438004Y-92476206D01*
X107589206Y-92325004D01*
X107714894Y-92152009D01*
X107811972Y-91961483D01*
X107878049Y-91758116D01*
X107911500Y-91546916D01*
X107911500Y-91333084D01*
X107878049Y-91121884D01*
X107811972Y-90918517D01*
X107714894Y-90727991D01*
X107589206Y-90554996D01*
X107589203Y-90554993D01*
X107589201Y-90554990D01*
X107438006Y-90403795D01*
X107361136Y-90347946D01*
X107317782Y-90291723D01*
X107311707Y-90220987D01*
X107344839Y-90158196D01*
X107377989Y-90133747D01*
X107519009Y-90061894D01*
X107692004Y-89936206D01*
X107843206Y-89785004D01*
X107968894Y-89612009D01*
X108065972Y-89421483D01*
X108132049Y-89218116D01*
X108165500Y-89006916D01*
X108165500Y-88793084D01*
X108132049Y-88581884D01*
X108065972Y-88378517D01*
X107968894Y-88187991D01*
X107843206Y-88014996D01*
X107843203Y-88014993D01*
X107843201Y-88014990D01*
X107692009Y-87863798D01*
X107692006Y-87863796D01*
X107692004Y-87863794D01*
X107519009Y-87738106D01*
X107377992Y-87666254D01*
X107326379Y-87617508D01*
X107309313Y-87548593D01*
X107332214Y-87481391D01*
X107361133Y-87452055D01*
X107438004Y-87396206D01*
X107589206Y-87245004D01*
X107714894Y-87072009D01*
X107811972Y-86881483D01*
X107878049Y-86678116D01*
X107911500Y-86466916D01*
X107911500Y-86253084D01*
X107878049Y-86041884D01*
X107811972Y-85838517D01*
X107714894Y-85647991D01*
X107589206Y-85474996D01*
X107589203Y-85474993D01*
X107589201Y-85474990D01*
X107438006Y-85323795D01*
X107361136Y-85267946D01*
X107317782Y-85211723D01*
X107311707Y-85140987D01*
X107344839Y-85078196D01*
X107377989Y-85053747D01*
X107519009Y-84981894D01*
X107692004Y-84856206D01*
X107843206Y-84705004D01*
X107968894Y-84532009D01*
X108065972Y-84341483D01*
X108132049Y-84138116D01*
X108165500Y-83926916D01*
X108165500Y-83713084D01*
X108132049Y-83501884D01*
X108076526Y-83331000D01*
X123185007Y-83331000D01*
X123231318Y-83490401D01*
X123315948Y-83633501D01*
X123315949Y-83633503D01*
X123433496Y-83751050D01*
X123433498Y-83751051D01*
X123576598Y-83835681D01*
X123736251Y-83882065D01*
X123736249Y-83882065D01*
X123773543Y-83884999D01*
X124386000Y-83884999D01*
X124894000Y-83884999D01*
X125506456Y-83884999D01*
X125543750Y-83882065D01*
X125703400Y-83835681D01*
X125846501Y-83751051D01*
X125846503Y-83751050D01*
X125964050Y-83633503D01*
X125964051Y-83633501D01*
X126048681Y-83490401D01*
X126094993Y-83331000D01*
X124894000Y-83331000D01*
X124894000Y-83884999D01*
X124386000Y-83884999D01*
X124386000Y-83331000D01*
X123185007Y-83331000D01*
X108076526Y-83331000D01*
X108065972Y-83298517D01*
X107968894Y-83107991D01*
X107843206Y-82934996D01*
X107843203Y-82934993D01*
X107843201Y-82934990D01*
X107692009Y-82783798D01*
X107692006Y-82783796D01*
X107692004Y-82783794D01*
X107519009Y-82658106D01*
X107377992Y-82586254D01*
X107326379Y-82537508D01*
X107309313Y-82468593D01*
X107332214Y-82401391D01*
X107361133Y-82372055D01*
X107438004Y-82316206D01*
X107589206Y-82165004D01*
X107714894Y-81992009D01*
X107811972Y-81801483D01*
X107878049Y-81598116D01*
X107911500Y-81386916D01*
X107911500Y-81173084D01*
X107878049Y-80961884D01*
X107878047Y-80961878D01*
X107877748Y-80959988D01*
X107886848Y-80889577D01*
X107932569Y-80835263D01*
X108000398Y-80814290D01*
X108068797Y-80833317D01*
G37*
%TD.AperFunction*%
%TA.AperFunction,Conductor*%
G36*
X151135474Y-72690979D02*
G01*
X151181452Y-72695001D01*
X151287372Y-72704268D01*
X151308999Y-72708082D01*
X151337903Y-72715826D01*
X151450946Y-72746116D01*
X151471571Y-72753622D01*
X151604765Y-72815732D01*
X151623776Y-72826708D01*
X151736184Y-72905417D01*
X151744156Y-72910999D01*
X151760980Y-72925117D01*
X151864882Y-73029019D01*
X151879000Y-73045843D01*
X151963288Y-73166218D01*
X151974270Y-73185239D01*
X152036373Y-73318419D01*
X152043885Y-73339059D01*
X152081917Y-73481000D01*
X152085730Y-73502628D01*
X152099020Y-73654525D01*
X152099500Y-73665507D01*
X152099500Y-119374492D01*
X152099020Y-119385473D01*
X152099020Y-119385474D01*
X152085730Y-119537371D01*
X152081917Y-119558999D01*
X152043885Y-119700940D01*
X152036373Y-119721580D01*
X151974270Y-119854760D01*
X151963288Y-119873781D01*
X151879000Y-119994156D01*
X151864882Y-120010980D01*
X151760980Y-120114882D01*
X151744156Y-120129000D01*
X151623781Y-120213288D01*
X151604760Y-120224270D01*
X151471580Y-120286373D01*
X151450940Y-120293885D01*
X151308999Y-120331917D01*
X151287371Y-120335730D01*
X151135475Y-120349020D01*
X151124493Y-120349500D01*
X105415507Y-120349500D01*
X105404525Y-120349020D01*
X105252628Y-120335730D01*
X105231000Y-120331917D01*
X105089059Y-120293885D01*
X105068422Y-120286374D01*
X104935238Y-120224269D01*
X104916218Y-120213288D01*
X104795843Y-120129000D01*
X104779019Y-120114882D01*
X104675117Y-120010980D01*
X104660999Y-119994156D01*
X104576708Y-119873776D01*
X104565732Y-119854765D01*
X104503622Y-119721571D01*
X104496116Y-119700946D01*
X104458082Y-119558999D01*
X104454268Y-119537370D01*
X104440979Y-119385473D01*
X104440500Y-119374492D01*
X104440500Y-75301350D01*
X105194500Y-75301350D01*
X105194500Y-77098649D01*
X105201009Y-77159196D01*
X105201011Y-77159204D01*
X105252110Y-77296202D01*
X105252112Y-77296207D01*
X105339738Y-77413261D01*
X105456792Y-77500887D01*
X105456794Y-77500888D01*
X105456796Y-77500889D01*
X105515875Y-77522924D01*
X105593795Y-77551988D01*
X105593803Y-77551990D01*
X105654350Y-77558499D01*
X105654355Y-77558499D01*
X105654362Y-77558500D01*
X105763099Y-77558500D01*
X105831220Y-77578502D01*
X105877713Y-77632158D01*
X105887817Y-77702432D01*
X105858323Y-77767012D01*
X105852194Y-77773595D01*
X105770798Y-77854990D01*
X105770796Y-77854993D01*
X105645108Y-78027987D01*
X105548029Y-78218515D01*
X105548026Y-78218521D01*
X105481952Y-78421878D01*
X105481951Y-78421883D01*
X105481951Y-78421884D01*
X105448500Y-78633084D01*
X105448500Y-78846916D01*
X105481658Y-79056263D01*
X105481952Y-79058121D01*
X105548026Y-79261478D01*
X105548028Y-79261483D01*
X105614407Y-79391758D01*
X105645108Y-79452012D01*
X105672054Y-79489100D01*
X105770794Y-79625004D01*
X105770796Y-79625006D01*
X105770798Y-79625009D01*
X105921990Y-79776201D01*
X105921993Y-79776203D01*
X105921996Y-79776206D01*
X105987513Y-79823807D01*
X105998863Y-79832053D01*
X106042217Y-79888275D01*
X106048292Y-79959011D01*
X106015161Y-80021803D01*
X105982006Y-80046254D01*
X105855355Y-80110786D01*
X105840987Y-80118108D01*
X105667993Y-80243796D01*
X105667990Y-80243798D01*
X105516798Y-80394990D01*
X105516796Y-80394993D01*
X105391108Y-80567987D01*
X105294029Y-80758515D01*
X105294026Y-80758521D01*
X105227952Y-80961878D01*
X105227951Y-80961883D01*
X105227951Y-80961884D01*
X105194500Y-81173084D01*
X105194500Y-81386916D01*
X105227951Y-81598116D01*
X105227952Y-81598121D01*
X105292058Y-81795421D01*
X105294028Y-81801483D01*
X105391106Y-81992009D01*
X105516794Y-82165004D01*
X105516796Y-82165006D01*
X105516798Y-82165009D01*
X105667990Y-82316201D01*
X105667993Y-82316203D01*
X105667996Y-82316206D01*
X105840991Y-82441894D01*
X105982005Y-82513744D01*
X106033620Y-82562491D01*
X106050686Y-82631406D01*
X106027786Y-82698607D01*
X105998864Y-82727946D01*
X105921989Y-82783799D01*
X105770798Y-82934990D01*
X105770796Y-82934993D01*
X105645108Y-83107987D01*
X105548029Y-83298515D01*
X105548026Y-83298521D01*
X105481952Y-83501878D01*
X105481951Y-83501883D01*
X105481951Y-83501884D01*
X105448500Y-83713084D01*
X105448500Y-83926916D01*
X105481951Y-84138115D01*
X105481952Y-84138121D01*
X105548026Y-84341478D01*
X105548028Y-84341483D01*
X105645106Y-84532009D01*
X105770794Y-84705004D01*
X105770796Y-84705006D01*
X105770798Y-84705009D01*
X105921990Y-84856201D01*
X105921993Y-84856203D01*
X105921996Y-84856206D01*
X105998863Y-84912053D01*
X106042217Y-84968275D01*
X106048292Y-85039011D01*
X106015161Y-85101803D01*
X105982006Y-85126254D01*
X105855355Y-85190786D01*
X105840987Y-85198108D01*
X105667993Y-85323796D01*
X105667990Y-85323798D01*
X105516798Y-85474990D01*
X105516796Y-85474993D01*
X105391108Y-85647987D01*
X105294029Y-85838515D01*
X105294026Y-85838521D01*
X105227952Y-86041878D01*
X105227951Y-86041883D01*
X105227951Y-86041884D01*
X105194500Y-86253084D01*
X105194500Y-86466916D01*
X105227951Y-86678116D01*
X105227952Y-86678121D01*
X105294026Y-86881478D01*
X105294028Y-86881483D01*
X105391106Y-87072009D01*
X105516794Y-87245004D01*
X105516796Y-87245006D01*
X105516798Y-87245009D01*
X105667990Y-87396201D01*
X105667993Y-87396203D01*
X105667996Y-87396206D01*
X105840991Y-87521894D01*
X105982005Y-87593744D01*
X106033620Y-87642491D01*
X106050686Y-87711406D01*
X106027786Y-87778607D01*
X105998864Y-87807946D01*
X105921989Y-87863799D01*
X105770798Y-88014990D01*
X105770796Y-88014993D01*
X105645108Y-88187987D01*
X105548029Y-88378515D01*
X105548026Y-88378521D01*
X105481952Y-88581878D01*
X105481951Y-88581883D01*
X105481951Y-88581884D01*
X105448500Y-88793084D01*
X105448500Y-89006916D01*
X105476581Y-89184210D01*
X105481952Y-89218121D01*
X105545959Y-89415115D01*
X105548028Y-89421483D01*
X105645106Y-89612009D01*
X105770794Y-89785004D01*
X105770796Y-89785006D01*
X105770798Y-89785009D01*
X105921990Y-89936201D01*
X105921993Y-89936203D01*
X105921996Y-89936206D01*
X105998863Y-89992053D01*
X106042217Y-90048275D01*
X106048292Y-90119011D01*
X106015161Y-90181803D01*
X105982006Y-90206254D01*
X105855355Y-90270786D01*
X105840987Y-90278108D01*
X105667993Y-90403796D01*
X105667990Y-90403798D01*
X105516798Y-90554990D01*
X105516796Y-90554993D01*
X105391108Y-90727987D01*
X105294029Y-90918515D01*
X105294026Y-90918521D01*
X105227952Y-91121878D01*
X105227951Y-91121883D01*
X105227951Y-91121884D01*
X105194500Y-91333084D01*
X105194500Y-91546916D01*
X105226174Y-91746896D01*
X105227952Y-91758121D01*
X105292342Y-91956295D01*
X105294028Y-91961483D01*
X105391106Y-92152009D01*
X105516794Y-92325004D01*
X105516796Y-92325006D01*
X105516798Y-92325009D01*
X105667990Y-92476201D01*
X105667993Y-92476203D01*
X105667996Y-92476206D01*
X105840991Y-92601894D01*
X105982005Y-92673744D01*
X106033620Y-92722491D01*
X106050686Y-92791406D01*
X106027786Y-92858607D01*
X105998864Y-92887946D01*
X105921989Y-92943799D01*
X105770798Y-93094990D01*
X105770796Y-93094993D01*
X105645108Y-93267987D01*
X105548029Y-93458515D01*
X105548026Y-93458521D01*
X105481952Y-93661878D01*
X105481951Y-93661883D01*
X105481951Y-93661884D01*
X105448500Y-93873084D01*
X105448500Y-94086916D01*
X105481951Y-94298116D01*
X105481952Y-94298121D01*
X105548026Y-94501478D01*
X105548028Y-94501483D01*
X105645106Y-94692009D01*
X105770794Y-94865004D01*
X105770796Y-94865006D01*
X105770798Y-94865009D01*
X105921990Y-95016201D01*
X105921993Y-95016203D01*
X105921996Y-95016206D01*
X105936571Y-95026795D01*
X105998863Y-95072053D01*
X106042217Y-95128275D01*
X106048292Y-95199011D01*
X106015161Y-95261803D01*
X105982006Y-95286254D01*
X105855355Y-95350786D01*
X105840987Y-95358108D01*
X105667993Y-95483796D01*
X105667990Y-95483798D01*
X105516798Y-95634990D01*
X105516796Y-95634993D01*
X105391108Y-95807987D01*
X105294029Y-95998515D01*
X105294026Y-95998521D01*
X105227952Y-96201878D01*
X105227952Y-96201880D01*
X105227951Y-96201884D01*
X105194500Y-96413084D01*
X105194500Y-96626916D01*
X105227951Y-96838116D01*
X105227952Y-96838121D01*
X105294026Y-97041478D01*
X105294028Y-97041483D01*
X105391106Y-97232009D01*
X105516794Y-97405004D01*
X105516796Y-97405006D01*
X105516798Y-97405009D01*
X105667990Y-97556201D01*
X105667993Y-97556203D01*
X105667996Y-97556206D01*
X105840991Y-97681894D01*
X105982005Y-97753744D01*
X106033620Y-97802491D01*
X106050686Y-97871406D01*
X106027786Y-97938607D01*
X105998864Y-97967946D01*
X105921989Y-98023799D01*
X105770798Y-98174990D01*
X105770796Y-98174993D01*
X105645108Y-98347987D01*
X105548029Y-98538515D01*
X105548026Y-98538521D01*
X105481952Y-98741878D01*
X105481951Y-98741883D01*
X105481951Y-98741884D01*
X105448500Y-98953084D01*
X105448500Y-99166916D01*
X105468080Y-99290539D01*
X105481952Y-99378121D01*
X105533254Y-99536014D01*
X105548028Y-99581483D01*
X105645106Y-99772009D01*
X105770794Y-99945004D01*
X105770796Y-99945006D01*
X105770798Y-99945009D01*
X105921990Y-100096201D01*
X105921993Y-100096203D01*
X105921996Y-100096206D01*
X105987779Y-100144000D01*
X105998863Y-100152053D01*
X106042217Y-100208275D01*
X106048292Y-100279011D01*
X106015161Y-100341803D01*
X105982006Y-100366254D01*
X105877957Y-100419271D01*
X105840987Y-100438108D01*
X105667993Y-100563796D01*
X105667990Y-100563798D01*
X105516798Y-100714990D01*
X105516796Y-100714993D01*
X105391108Y-100887987D01*
X105294029Y-101078515D01*
X105294026Y-101078521D01*
X105227952Y-101281878D01*
X105227952Y-101281880D01*
X105227951Y-101281884D01*
X105194500Y-101493084D01*
X105194500Y-101706916D01*
X105221326Y-101876287D01*
X105227952Y-101918121D01*
X105294026Y-102121478D01*
X105294028Y-102121483D01*
X105391106Y-102312009D01*
X105516794Y-102485004D01*
X105516796Y-102485006D01*
X105516798Y-102485009D01*
X105667990Y-102636201D01*
X105667993Y-102636203D01*
X105667996Y-102636206D01*
X105840991Y-102761894D01*
X105982005Y-102833744D01*
X106033620Y-102882491D01*
X106050686Y-102951406D01*
X106027786Y-103018607D01*
X105998864Y-103047946D01*
X105921989Y-103103799D01*
X105770798Y-103254990D01*
X105770796Y-103254993D01*
X105645108Y-103427987D01*
X105548029Y-103618515D01*
X105548026Y-103618521D01*
X105481952Y-103821878D01*
X105481952Y-103821880D01*
X105481951Y-103821884D01*
X105448500Y-104033084D01*
X105448500Y-104246916D01*
X105464335Y-104346893D01*
X105481952Y-104458121D01*
X105548026Y-104661478D01*
X105548028Y-104661483D01*
X105645106Y-104852009D01*
X105770794Y-105025004D01*
X105770796Y-105025006D01*
X105770798Y-105025009D01*
X105921990Y-105176201D01*
X105921993Y-105176203D01*
X105921996Y-105176206D01*
X105998863Y-105232053D01*
X106042217Y-105288275D01*
X106048292Y-105359011D01*
X106015161Y-105421803D01*
X105982006Y-105446254D01*
X105919197Y-105478258D01*
X105840987Y-105518108D01*
X105667993Y-105643796D01*
X105667990Y-105643798D01*
X105516798Y-105794990D01*
X105516796Y-105794993D01*
X105391108Y-105967987D01*
X105294029Y-106158515D01*
X105294026Y-106158521D01*
X105227952Y-106361878D01*
X105227951Y-106361883D01*
X105227951Y-106361884D01*
X105194500Y-106573084D01*
X105194500Y-106786916D01*
X105227951Y-106998116D01*
X105227952Y-106998121D01*
X105275594Y-107144749D01*
X105294028Y-107201483D01*
X105391106Y-107392009D01*
X105516794Y-107565004D01*
X105516796Y-107565006D01*
X105516798Y-107565009D01*
X105667990Y-107716201D01*
X105667993Y-107716203D01*
X105667996Y-107716206D01*
X105840991Y-107841894D01*
X105982005Y-107913744D01*
X106033620Y-107962491D01*
X106050686Y-108031406D01*
X106027786Y-108098607D01*
X105998864Y-108127946D01*
X105921989Y-108183799D01*
X105770798Y-108334990D01*
X105770796Y-108334993D01*
X105645108Y-108507987D01*
X105548029Y-108698515D01*
X105548026Y-108698521D01*
X105481952Y-108901878D01*
X105481951Y-108901883D01*
X105481951Y-108901884D01*
X105448500Y-109113084D01*
X105448500Y-109326916D01*
X105475556Y-109497737D01*
X105481952Y-109538121D01*
X105548026Y-109741478D01*
X105548028Y-109741483D01*
X105645106Y-109932009D01*
X105770794Y-110105004D01*
X105770796Y-110105006D01*
X105770798Y-110105009D01*
X105921990Y-110256201D01*
X105921993Y-110256203D01*
X105921996Y-110256206D01*
X105998863Y-110312053D01*
X106042217Y-110368275D01*
X106048292Y-110439011D01*
X106015161Y-110501803D01*
X105982006Y-110526254D01*
X105855355Y-110590786D01*
X105840987Y-110598108D01*
X105667993Y-110723796D01*
X105667990Y-110723798D01*
X105516798Y-110874990D01*
X105516796Y-110874993D01*
X105391108Y-111047987D01*
X105294029Y-111238515D01*
X105294026Y-111238521D01*
X105227952Y-111441878D01*
X105227951Y-111441883D01*
X105227951Y-111441884D01*
X105194500Y-111653084D01*
X105194500Y-111866916D01*
X105227951Y-112078116D01*
X105227952Y-112078121D01*
X105294026Y-112281478D01*
X105294028Y-112281483D01*
X105391106Y-112472009D01*
X105516794Y-112645004D01*
X105516796Y-112645006D01*
X105516798Y-112645009D01*
X105667990Y-112796201D01*
X105667993Y-112796203D01*
X105667996Y-112796206D01*
X105840991Y-112921894D01*
X105982005Y-112993744D01*
X106033620Y-113042491D01*
X106050686Y-113111406D01*
X106027786Y-113178607D01*
X105998864Y-113207946D01*
X105921989Y-113263799D01*
X105770798Y-113414990D01*
X105770796Y-113414993D01*
X105645108Y-113587987D01*
X105548029Y-113778515D01*
X105548026Y-113778521D01*
X105481952Y-113981878D01*
X105481952Y-113981881D01*
X105481951Y-113981884D01*
X105448500Y-114193084D01*
X105448500Y-114406916D01*
X105481951Y-114618116D01*
X105481952Y-114618121D01*
X105548026Y-114821478D01*
X105548028Y-114821483D01*
X105645106Y-115012009D01*
X105770794Y-115185004D01*
X105770796Y-115185006D01*
X105770798Y-115185009D01*
X105921990Y-115336201D01*
X105921993Y-115336203D01*
X105921996Y-115336206D01*
X105990499Y-115385976D01*
X105999317Y-115392383D01*
X106042671Y-115448605D01*
X106048746Y-115519342D01*
X106015614Y-115582133D01*
X105982459Y-115606586D01*
X105841250Y-115678535D01*
X105668320Y-115804177D01*
X105517177Y-115955320D01*
X105391536Y-116128249D01*
X105294493Y-116318707D01*
X105294490Y-116318713D01*
X105228440Y-116521995D01*
X105218302Y-116586000D01*
X106122297Y-116586000D01*
X106087075Y-116647007D01*
X106053000Y-116774174D01*
X106053000Y-116905826D01*
X106087075Y-117032993D01*
X106122297Y-117094000D01*
X105218302Y-117094000D01*
X105228440Y-117158004D01*
X105294490Y-117361286D01*
X105294493Y-117361292D01*
X105391536Y-117551750D01*
X105517177Y-117724679D01*
X105668320Y-117875822D01*
X105841249Y-118001463D01*
X106031707Y-118098506D01*
X106031713Y-118098509D01*
X106234998Y-118164560D01*
X106299000Y-118174696D01*
X106299000Y-117270702D01*
X106360007Y-117305925D01*
X106487174Y-117340000D01*
X106618826Y-117340000D01*
X106745993Y-117305925D01*
X106807000Y-117270702D01*
X106807000Y-118174696D01*
X106871001Y-118164560D01*
X107074286Y-118098509D01*
X107074292Y-118098506D01*
X107264750Y-118001463D01*
X107437679Y-117875822D01*
X107588822Y-117724679D01*
X107714463Y-117551750D01*
X107811506Y-117361292D01*
X107811509Y-117361286D01*
X107877559Y-117158004D01*
X107887698Y-117094000D01*
X106983703Y-117094000D01*
X107018925Y-117032993D01*
X107053000Y-116905826D01*
X107053000Y-116774174D01*
X107018925Y-116647007D01*
X106983703Y-116586000D01*
X107887697Y-116586000D01*
X107877559Y-116521995D01*
X107811509Y-116318713D01*
X107811506Y-116318707D01*
X107714463Y-116128249D01*
X107588822Y-115955320D01*
X107437679Y-115804177D01*
X107360636Y-115748202D01*
X107317282Y-115691979D01*
X107311207Y-115621243D01*
X107344339Y-115558451D01*
X107377491Y-115534000D01*
X107519009Y-115461894D01*
X107692004Y-115336206D01*
X107843206Y-115185004D01*
X107968894Y-115012009D01*
X108065972Y-114821483D01*
X108132049Y-114618116D01*
X108165500Y-114406916D01*
X108165500Y-114193084D01*
X108132049Y-113981884D01*
X108065972Y-113778517D01*
X107968894Y-113587991D01*
X107843206Y-113414996D01*
X107843203Y-113414993D01*
X107843201Y-113414990D01*
X107692009Y-113263798D01*
X107692006Y-113263796D01*
X107692004Y-113263794D01*
X107519009Y-113138106D01*
X107377992Y-113066254D01*
X107326379Y-113017508D01*
X107309313Y-112948593D01*
X107332214Y-112881391D01*
X107361133Y-112852055D01*
X107438004Y-112796206D01*
X107589206Y-112645004D01*
X107714894Y-112472009D01*
X107811972Y-112281483D01*
X107878049Y-112078116D01*
X107911500Y-111866916D01*
X107911500Y-111653084D01*
X107878049Y-111441884D01*
X107811972Y-111238517D01*
X107714894Y-111047991D01*
X107589206Y-110874996D01*
X107589203Y-110874993D01*
X107589201Y-110874990D01*
X107438006Y-110723795D01*
X107361136Y-110667946D01*
X107317782Y-110611723D01*
X107311707Y-110540987D01*
X107344839Y-110478196D01*
X107377989Y-110453747D01*
X107519009Y-110381894D01*
X107692004Y-110256206D01*
X107843206Y-110105004D01*
X107968894Y-109932009D01*
X108065972Y-109741483D01*
X108132049Y-109538116D01*
X108155190Y-109392005D01*
X108185601Y-109327856D01*
X108245869Y-109290328D01*
X108316859Y-109291342D01*
X108368733Y-109322624D01*
X109790980Y-110744872D01*
X109790983Y-110744874D01*
X109790985Y-110744876D01*
X109857648Y-110783363D01*
X109857650Y-110783365D01*
X109924308Y-110821850D01*
X109924311Y-110821851D01*
X109924314Y-110821853D01*
X110073023Y-110861700D01*
X110073025Y-110861700D01*
X128416975Y-110861700D01*
X128416977Y-110861700D01*
X128565686Y-110821853D01*
X128699014Y-110744876D01*
X128807876Y-110636014D01*
X129107876Y-110336014D01*
X129169949Y-110228500D01*
X129184853Y-110202686D01*
X129224700Y-110053977D01*
X129224700Y-109673491D01*
X129244702Y-109605370D01*
X129261605Y-109584396D01*
X129286000Y-109560001D01*
X129286000Y-109560000D01*
X129794000Y-109560000D01*
X129813853Y-109560000D01*
X129813852Y-109559999D01*
X129914229Y-109549744D01*
X129914241Y-109549742D01*
X130076884Y-109495847D01*
X130222728Y-109405890D01*
X130222734Y-109405885D01*
X130343885Y-109284734D01*
X130343890Y-109284728D01*
X130433847Y-109138884D01*
X130487742Y-108976241D01*
X130487744Y-108976229D01*
X130497999Y-108875852D01*
X130498000Y-108875852D01*
X130498000Y-108831000D01*
X129794000Y-108831000D01*
X129794000Y-109560000D01*
X129286000Y-109560000D01*
X129286000Y-108703000D01*
X129306002Y-108634879D01*
X129359658Y-108588386D01*
X129412000Y-108577000D01*
X129540000Y-108577000D01*
X129540000Y-108449000D01*
X129560002Y-108380879D01*
X129613658Y-108334386D01*
X129666000Y-108323000D01*
X130498000Y-108323000D01*
X130498000Y-108278147D01*
X130487744Y-108177770D01*
X130487742Y-108177758D01*
X130433847Y-108015115D01*
X130343890Y-107869271D01*
X130343885Y-107869265D01*
X130222734Y-107748114D01*
X130222728Y-107748109D01*
X130076888Y-107658154D01*
X129988473Y-107628857D01*
X129930102Y-107588443D01*
X129902846Y-107522886D01*
X129915359Y-107453001D01*
X129927232Y-107433751D01*
X129995689Y-107342304D01*
X130046789Y-107205301D01*
X130047200Y-107201484D01*
X130053299Y-107144749D01*
X130053300Y-107144732D01*
X130053300Y-106287700D01*
X130073302Y-106219579D01*
X130126958Y-106173086D01*
X130179300Y-106161700D01*
X131416975Y-106161700D01*
X131416977Y-106161700D01*
X131565686Y-106121853D01*
X131699014Y-106044876D01*
X131807876Y-105936014D01*
X131867401Y-105876489D01*
X131867403Y-105876486D01*
X132207876Y-105536015D01*
X132259698Y-105446256D01*
X132274263Y-105421029D01*
X132283748Y-105404600D01*
X132284853Y-105402686D01*
X132324700Y-105253977D01*
X132324700Y-103471380D01*
X132344702Y-103403259D01*
X132361600Y-103382289D01*
X134307876Y-101436015D01*
X134383037Y-101305831D01*
X134384853Y-101302686D01*
X134424700Y-101153977D01*
X134424700Y-100261380D01*
X134444702Y-100193259D01*
X134461605Y-100172285D01*
X141175375Y-93458515D01*
X148171268Y-86462621D01*
X148233578Y-86428597D01*
X148304393Y-86433662D01*
X148361229Y-86476209D01*
X148384809Y-86532004D01*
X148407951Y-86678116D01*
X148407952Y-86678121D01*
X148474026Y-86881478D01*
X148474028Y-86881483D01*
X148571106Y-87072009D01*
X148696794Y-87245004D01*
X148696796Y-87245006D01*
X148696798Y-87245009D01*
X148847990Y-87396201D01*
X148847993Y-87396203D01*
X148847996Y-87396206D01*
X149020991Y-87521894D01*
X149162005Y-87593744D01*
X149213620Y-87642491D01*
X149230686Y-87711406D01*
X149207786Y-87778607D01*
X149178864Y-87807946D01*
X149101989Y-87863799D01*
X148950798Y-88014990D01*
X148950796Y-88014993D01*
X148825108Y-88187987D01*
X148728029Y-88378515D01*
X148728026Y-88378521D01*
X148661952Y-88581878D01*
X148661951Y-88581883D01*
X148661951Y-88581884D01*
X148628500Y-88793084D01*
X148628500Y-89006916D01*
X148656581Y-89184210D01*
X148661952Y-89218121D01*
X148725959Y-89415115D01*
X148728028Y-89421483D01*
X148825106Y-89612009D01*
X148950794Y-89785004D01*
X148950796Y-89785006D01*
X148950798Y-89785009D01*
X149101990Y-89936201D01*
X149101993Y-89936203D01*
X149101996Y-89936206D01*
X149178863Y-89992053D01*
X149222217Y-90048275D01*
X149228292Y-90119011D01*
X149195161Y-90181803D01*
X149162006Y-90206254D01*
X149035355Y-90270786D01*
X149020987Y-90278108D01*
X148847993Y-90403796D01*
X148847990Y-90403798D01*
X148696798Y-90554990D01*
X148696796Y-90554993D01*
X148571108Y-90727987D01*
X148474029Y-90918515D01*
X148474026Y-90918521D01*
X148407952Y-91121878D01*
X148407951Y-91121883D01*
X148407951Y-91121884D01*
X148374500Y-91333084D01*
X148374500Y-91546916D01*
X148406174Y-91746896D01*
X148407952Y-91758121D01*
X148472342Y-91956295D01*
X148474028Y-91961483D01*
X148571106Y-92152009D01*
X148696794Y-92325004D01*
X148696796Y-92325006D01*
X148696798Y-92325009D01*
X148847990Y-92476201D01*
X148847993Y-92476203D01*
X148847996Y-92476206D01*
X149020991Y-92601894D01*
X149162005Y-92673744D01*
X149213620Y-92722491D01*
X149230686Y-92791406D01*
X149207786Y-92858607D01*
X149178864Y-92887946D01*
X149101989Y-92943799D01*
X148950798Y-93094990D01*
X148950796Y-93094993D01*
X148825108Y-93267987D01*
X148728029Y-93458515D01*
X148728026Y-93458521D01*
X148661952Y-93661878D01*
X148661951Y-93661883D01*
X148661951Y-93661884D01*
X148628500Y-93873084D01*
X148628500Y-94086916D01*
X148661951Y-94298116D01*
X148661952Y-94298121D01*
X148728026Y-94501478D01*
X148728028Y-94501483D01*
X148825106Y-94692009D01*
X148950794Y-94865004D01*
X148950796Y-94865006D01*
X148950798Y-94865009D01*
X149101990Y-95016201D01*
X149101993Y-95016203D01*
X149101996Y-95016206D01*
X149116571Y-95026795D01*
X149178863Y-95072053D01*
X149222217Y-95128275D01*
X149228292Y-95199011D01*
X149195161Y-95261803D01*
X149162006Y-95286254D01*
X149035355Y-95350786D01*
X149020987Y-95358108D01*
X148847993Y-95483796D01*
X148847990Y-95483798D01*
X148696798Y-95634990D01*
X148696796Y-95634993D01*
X148571108Y-95807987D01*
X148474029Y-95998515D01*
X148474026Y-95998521D01*
X148407952Y-96201878D01*
X148407952Y-96201880D01*
X148407951Y-96201884D01*
X148374500Y-96413084D01*
X148374500Y-96626916D01*
X148407951Y-96838116D01*
X148407952Y-96838121D01*
X148474026Y-97041478D01*
X148474028Y-97041483D01*
X148571106Y-97232009D01*
X148696794Y-97405004D01*
X148696796Y-97405006D01*
X148696798Y-97405009D01*
X148847990Y-97556201D01*
X148847993Y-97556203D01*
X148847996Y-97556206D01*
X149020991Y-97681894D01*
X149162005Y-97753744D01*
X149213620Y-97802491D01*
X149230686Y-97871406D01*
X149207786Y-97938607D01*
X149178864Y-97967946D01*
X149101989Y-98023799D01*
X148950798Y-98174990D01*
X148950796Y-98174993D01*
X148825108Y-98347987D01*
X148728029Y-98538515D01*
X148728026Y-98538521D01*
X148661952Y-98741878D01*
X148661951Y-98741883D01*
X148661951Y-98741884D01*
X148628500Y-98953084D01*
X148628500Y-99166916D01*
X148648080Y-99290539D01*
X148661952Y-99378121D01*
X148713254Y-99536014D01*
X148728028Y-99581483D01*
X148825106Y-99772009D01*
X148950794Y-99945004D01*
X148950796Y-99945006D01*
X148950798Y-99945009D01*
X149101990Y-100096201D01*
X149101993Y-100096203D01*
X149101996Y-100096206D01*
X149167779Y-100144000D01*
X149178863Y-100152053D01*
X149222217Y-100208275D01*
X149228292Y-100279011D01*
X149195161Y-100341803D01*
X149162006Y-100366254D01*
X149057957Y-100419271D01*
X149020987Y-100438108D01*
X148847993Y-100563796D01*
X148847990Y-100563798D01*
X148696798Y-100714990D01*
X148696796Y-100714993D01*
X148571108Y-100887987D01*
X148474029Y-101078515D01*
X148474026Y-101078521D01*
X148407952Y-101281878D01*
X148407952Y-101281880D01*
X148407951Y-101281884D01*
X148374500Y-101493084D01*
X148374500Y-101706916D01*
X148401326Y-101876287D01*
X148407952Y-101918121D01*
X148474026Y-102121478D01*
X148474028Y-102121483D01*
X148571106Y-102312009D01*
X148696794Y-102485004D01*
X148696796Y-102485006D01*
X148696798Y-102485009D01*
X148847990Y-102636201D01*
X148847993Y-102636203D01*
X148847996Y-102636206D01*
X149020991Y-102761894D01*
X149162005Y-102833744D01*
X149213620Y-102882491D01*
X149230686Y-102951406D01*
X149207786Y-103018607D01*
X149178864Y-103047946D01*
X149101989Y-103103799D01*
X148950798Y-103254990D01*
X148950796Y-103254993D01*
X148825108Y-103427987D01*
X148728029Y-103618515D01*
X148728026Y-103618521D01*
X148661952Y-103821878D01*
X148661952Y-103821880D01*
X148661951Y-103821884D01*
X148628500Y-104033084D01*
X148628500Y-104246916D01*
X148644335Y-104346893D01*
X148661952Y-104458121D01*
X148728026Y-104661478D01*
X148728028Y-104661483D01*
X148825106Y-104852009D01*
X148950794Y-105025004D01*
X148950796Y-105025006D01*
X148950798Y-105025009D01*
X149101990Y-105176201D01*
X149101993Y-105176203D01*
X149101996Y-105176206D01*
X149178863Y-105232053D01*
X149222217Y-105288275D01*
X149228292Y-105359011D01*
X149195161Y-105421803D01*
X149162006Y-105446254D01*
X149099197Y-105478258D01*
X149020987Y-105518108D01*
X148847993Y-105643796D01*
X148847990Y-105643798D01*
X148696798Y-105794990D01*
X148696796Y-105794993D01*
X148571108Y-105967987D01*
X148474029Y-106158515D01*
X148474026Y-106158521D01*
X148407952Y-106361878D01*
X148407951Y-106361883D01*
X148407951Y-106361884D01*
X148374500Y-106573084D01*
X148374500Y-106786916D01*
X148407951Y-106998116D01*
X148407952Y-106998121D01*
X148455594Y-107144749D01*
X148474028Y-107201483D01*
X148571106Y-107392009D01*
X148696794Y-107565004D01*
X148696796Y-107565006D01*
X148696798Y-107565009D01*
X148847990Y-107716201D01*
X148847993Y-107716203D01*
X148847996Y-107716206D01*
X149020991Y-107841894D01*
X149162005Y-107913744D01*
X149213620Y-107962491D01*
X149230686Y-108031406D01*
X149207786Y-108098607D01*
X149178864Y-108127946D01*
X149101989Y-108183799D01*
X148950798Y-108334990D01*
X148950796Y-108334993D01*
X148825108Y-108507987D01*
X148728029Y-108698515D01*
X148728026Y-108698521D01*
X148661952Y-108901878D01*
X148661951Y-108901883D01*
X148661951Y-108901884D01*
X148628500Y-109113084D01*
X148628500Y-109326916D01*
X148655556Y-109497737D01*
X148661952Y-109538121D01*
X148728026Y-109741478D01*
X148728028Y-109741483D01*
X148825106Y-109932009D01*
X148950794Y-110105004D01*
X148950796Y-110105006D01*
X148950798Y-110105009D01*
X149101990Y-110256201D01*
X149101993Y-110256203D01*
X149101996Y-110256206D01*
X149178863Y-110312053D01*
X149222217Y-110368275D01*
X149228292Y-110439011D01*
X149195161Y-110501803D01*
X149162006Y-110526254D01*
X149035355Y-110590786D01*
X149020987Y-110598108D01*
X148847993Y-110723796D01*
X148847990Y-110723798D01*
X148696798Y-110874990D01*
X148696796Y-110874993D01*
X148571108Y-111047987D01*
X148474029Y-111238515D01*
X148474026Y-111238521D01*
X148407952Y-111441877D01*
X148379898Y-111619001D01*
X148349485Y-111683153D01*
X148289217Y-111720680D01*
X148218227Y-111719666D01*
X148166354Y-111688384D01*
X144532424Y-108054454D01*
X144532414Y-108054446D01*
X144404882Y-107980816D01*
X144381684Y-107974600D01*
X144262633Y-107942700D01*
X144262631Y-107942700D01*
X136821615Y-107942700D01*
X136753494Y-107922698D01*
X136714375Y-107882847D01*
X136658103Y-107791618D01*
X136658100Y-107791613D01*
X136658097Y-107791610D01*
X136658094Y-107791606D01*
X136537893Y-107671405D01*
X136537887Y-107671400D01*
X136393192Y-107582151D01*
X136349364Y-107567628D01*
X136231814Y-107528676D01*
X136231811Y-107528675D01*
X136231809Y-107528675D01*
X136132219Y-107518500D01*
X135597789Y-107518500D01*
X135498190Y-107528675D01*
X135498187Y-107528675D01*
X135498186Y-107528676D01*
X135428133Y-107551889D01*
X135336807Y-107582151D01*
X135192112Y-107671400D01*
X135192106Y-107671405D01*
X135166595Y-107696917D01*
X135104283Y-107730943D01*
X135033468Y-107725878D01*
X134988405Y-107696917D01*
X134962893Y-107671405D01*
X134962887Y-107671400D01*
X134818192Y-107582151D01*
X134774364Y-107567628D01*
X134656814Y-107528676D01*
X134656811Y-107528675D01*
X134656809Y-107528675D01*
X134557219Y-107518500D01*
X134022789Y-107518500D01*
X133923190Y-107528675D01*
X133923187Y-107528675D01*
X133923186Y-107528676D01*
X133853133Y-107551889D01*
X133761807Y-107582151D01*
X133617112Y-107671400D01*
X133617106Y-107671405D01*
X133577316Y-107711195D01*
X133515004Y-107745220D01*
X133463640Y-107745678D01*
X133314944Y-107716100D01*
X133314942Y-107716100D01*
X133165058Y-107716100D01*
X133165055Y-107716100D01*
X133018053Y-107745341D01*
X133018048Y-107745343D01*
X132879578Y-107802699D01*
X132754952Y-107885971D01*
X132754946Y-107885976D01*
X132648976Y-107991946D01*
X132648971Y-107991952D01*
X132565699Y-108116578D01*
X132508343Y-108255048D01*
X132508341Y-108255053D01*
X132479100Y-108402055D01*
X132479100Y-108402058D01*
X132479100Y-108551942D01*
X132508341Y-108698946D01*
X132565699Y-108837421D01*
X132608771Y-108901884D01*
X132648971Y-108962047D01*
X132648976Y-108962053D01*
X132754946Y-109068023D01*
X132754952Y-109068028D01*
X132754954Y-109068030D01*
X132879579Y-109151301D01*
X133018054Y-109208659D01*
X133165058Y-109237900D01*
X133165059Y-109237900D01*
X133314941Y-109237900D01*
X133314942Y-109237900D01*
X133421937Y-109216617D01*
X133492650Y-109222945D01*
X133535613Y-109251101D01*
X133617106Y-109332594D01*
X133617112Y-109332599D01*
X133617113Y-109332600D01*
X133761808Y-109421849D01*
X133923186Y-109475324D01*
X134022789Y-109485500D01*
X134557210Y-109485499D01*
X134656814Y-109475324D01*
X134818192Y-109421849D01*
X134962887Y-109332600D01*
X134988405Y-109307081D01*
X135050715Y-109273057D01*
X135121531Y-109278121D01*
X135166594Y-109307081D01*
X135192113Y-109332600D01*
X135336808Y-109421849D01*
X135498186Y-109475324D01*
X135597789Y-109485500D01*
X136132210Y-109485499D01*
X136231814Y-109475324D01*
X136393192Y-109421849D01*
X136537887Y-109332600D01*
X136658100Y-109212387D01*
X136689030Y-109162242D01*
X136714375Y-109121153D01*
X136767161Y-109073675D01*
X136821615Y-109061300D01*
X143905141Y-109061300D01*
X143973262Y-109081302D01*
X143994236Y-109098205D01*
X148660314Y-113764284D01*
X148694340Y-113826596D01*
X148691053Y-113892313D01*
X148661951Y-113981881D01*
X148661951Y-113981884D01*
X148628500Y-114193084D01*
X148628500Y-114406916D01*
X148661951Y-114618116D01*
X148661952Y-114618121D01*
X148728026Y-114821478D01*
X148728028Y-114821483D01*
X148825106Y-115012009D01*
X148950794Y-115185004D01*
X148950796Y-115185006D01*
X148950798Y-115185009D01*
X149101990Y-115336201D01*
X149101993Y-115336203D01*
X149101996Y-115336206D01*
X149170499Y-115385976D01*
X149179317Y-115392383D01*
X149222671Y-115448605D01*
X149228746Y-115519342D01*
X149195614Y-115582133D01*
X149162459Y-115606586D01*
X149021250Y-115678535D01*
X148848320Y-115804177D01*
X148697177Y-115955320D01*
X148571536Y-116128249D01*
X148474493Y-116318707D01*
X148474490Y-116318713D01*
X148408440Y-116521995D01*
X148398302Y-116586000D01*
X149302297Y-116586000D01*
X149267075Y-116647007D01*
X149233000Y-116774174D01*
X149233000Y-116905826D01*
X149267075Y-117032993D01*
X149302297Y-117094000D01*
X148398302Y-117094000D01*
X148408440Y-117158004D01*
X148474490Y-117361286D01*
X148474493Y-117361292D01*
X148571536Y-117551750D01*
X148697177Y-117724679D01*
X148848320Y-117875822D01*
X149021249Y-118001463D01*
X149211707Y-118098506D01*
X149211713Y-118098509D01*
X149414998Y-118164560D01*
X149479000Y-118174696D01*
X149479000Y-117270702D01*
X149540007Y-117305925D01*
X149667174Y-117340000D01*
X149798826Y-117340000D01*
X149925993Y-117305925D01*
X149987000Y-117270702D01*
X149987000Y-118174696D01*
X150051001Y-118164560D01*
X150254286Y-118098509D01*
X150254292Y-118098506D01*
X150444750Y-118001463D01*
X150617679Y-117875822D01*
X150768822Y-117724679D01*
X150894463Y-117551750D01*
X150991506Y-117361292D01*
X150991509Y-117361286D01*
X151057559Y-117158004D01*
X151067698Y-117094000D01*
X150163703Y-117094000D01*
X150198925Y-117032993D01*
X150233000Y-116905826D01*
X150233000Y-116774174D01*
X150198925Y-116647007D01*
X150163703Y-116586000D01*
X151067697Y-116586000D01*
X151057559Y-116521995D01*
X150991509Y-116318713D01*
X150991506Y-116318707D01*
X150894463Y-116128249D01*
X150768822Y-115955320D01*
X150617679Y-115804177D01*
X150540636Y-115748202D01*
X150497282Y-115691979D01*
X150491207Y-115621243D01*
X150524339Y-115558451D01*
X150557491Y-115534000D01*
X150699009Y-115461894D01*
X150872004Y-115336206D01*
X151023206Y-115185004D01*
X151148894Y-115012009D01*
X151245972Y-114821483D01*
X151312049Y-114618116D01*
X151345500Y-114406916D01*
X151345500Y-114193084D01*
X151312049Y-113981884D01*
X151245972Y-113778517D01*
X151148894Y-113587991D01*
X151023206Y-113414996D01*
X151023203Y-113414993D01*
X151023201Y-113414990D01*
X150872009Y-113263798D01*
X150872006Y-113263796D01*
X150872004Y-113263794D01*
X150699009Y-113138106D01*
X150557992Y-113066254D01*
X150506379Y-113017508D01*
X150489313Y-112948593D01*
X150512214Y-112881391D01*
X150541133Y-112852055D01*
X150618004Y-112796206D01*
X150769206Y-112645004D01*
X150894894Y-112472009D01*
X150991972Y-112281483D01*
X151058049Y-112078116D01*
X151091500Y-111866916D01*
X151091500Y-111653084D01*
X151058049Y-111441884D01*
X150991972Y-111238517D01*
X150894894Y-111047991D01*
X150769206Y-110874996D01*
X150769203Y-110874993D01*
X150769201Y-110874990D01*
X150618006Y-110723795D01*
X150541136Y-110667946D01*
X150497782Y-110611723D01*
X150491707Y-110540987D01*
X150524839Y-110478196D01*
X150557989Y-110453747D01*
X150699009Y-110381894D01*
X150872004Y-110256206D01*
X151023206Y-110105004D01*
X151148894Y-109932009D01*
X151245972Y-109741483D01*
X151312049Y-109538116D01*
X151345500Y-109326916D01*
X151345500Y-109113084D01*
X151312049Y-108901884D01*
X151245972Y-108698517D01*
X151148894Y-108507991D01*
X151023206Y-108334996D01*
X151023203Y-108334993D01*
X151023201Y-108334990D01*
X150872009Y-108183798D01*
X150872006Y-108183796D01*
X150872004Y-108183794D01*
X150699009Y-108058106D01*
X150557992Y-107986254D01*
X150506379Y-107937508D01*
X150489313Y-107868593D01*
X150512214Y-107801391D01*
X150541133Y-107772055D01*
X150618004Y-107716206D01*
X150769206Y-107565004D01*
X150894894Y-107392009D01*
X150991972Y-107201483D01*
X151058049Y-106998116D01*
X151091500Y-106786916D01*
X151091500Y-106573084D01*
X151058049Y-106361884D01*
X150991972Y-106158517D01*
X150894894Y-105967991D01*
X150769206Y-105794996D01*
X150769203Y-105794993D01*
X150769201Y-105794990D01*
X150618006Y-105643795D01*
X150541136Y-105587946D01*
X150497782Y-105531723D01*
X150491707Y-105460987D01*
X150524839Y-105398196D01*
X150557989Y-105373747D01*
X150699009Y-105301894D01*
X150872004Y-105176206D01*
X151023206Y-105025004D01*
X151148894Y-104852009D01*
X151245972Y-104661483D01*
X151312049Y-104458116D01*
X151345500Y-104246916D01*
X151345500Y-104033084D01*
X151312049Y-103821884D01*
X151245972Y-103618517D01*
X151148894Y-103427991D01*
X151023206Y-103254996D01*
X151023203Y-103254993D01*
X151023201Y-103254990D01*
X150872009Y-103103798D01*
X150872006Y-103103796D01*
X150872004Y-103103794D01*
X150699009Y-102978106D01*
X150557992Y-102906254D01*
X150506379Y-102857508D01*
X150489313Y-102788593D01*
X150512214Y-102721391D01*
X150541133Y-102692055D01*
X150618004Y-102636206D01*
X150769206Y-102485004D01*
X150894894Y-102312009D01*
X150991972Y-102121483D01*
X151058049Y-101918116D01*
X151091500Y-101706916D01*
X151091500Y-101493084D01*
X151058049Y-101281884D01*
X150991972Y-101078517D01*
X150894894Y-100887991D01*
X150769206Y-100714996D01*
X150769203Y-100714993D01*
X150769201Y-100714990D01*
X150618006Y-100563795D01*
X150541136Y-100507946D01*
X150497782Y-100451723D01*
X150491707Y-100380987D01*
X150524839Y-100318196D01*
X150557989Y-100293747D01*
X150699009Y-100221894D01*
X150872004Y-100096206D01*
X151023206Y-99945004D01*
X151148894Y-99772009D01*
X151245972Y-99581483D01*
X151312049Y-99378116D01*
X151345500Y-99166916D01*
X151345500Y-98953084D01*
X151312049Y-98741884D01*
X151245972Y-98538517D01*
X151148894Y-98347991D01*
X151023206Y-98174996D01*
X151023203Y-98174993D01*
X151023201Y-98174990D01*
X150872009Y-98023798D01*
X150872006Y-98023796D01*
X150872004Y-98023794D01*
X150699009Y-97898106D01*
X150557992Y-97826254D01*
X150506379Y-97777508D01*
X150489313Y-97708593D01*
X150512214Y-97641391D01*
X150541133Y-97612055D01*
X150618004Y-97556206D01*
X150769206Y-97405004D01*
X150894894Y-97232009D01*
X150991972Y-97041483D01*
X151058049Y-96838116D01*
X151091500Y-96626916D01*
X151091500Y-96413084D01*
X151058049Y-96201884D01*
X150991972Y-95998517D01*
X150894894Y-95807991D01*
X150769206Y-95634996D01*
X150769203Y-95634993D01*
X150769201Y-95634990D01*
X150618006Y-95483795D01*
X150541136Y-95427946D01*
X150497782Y-95371723D01*
X150491707Y-95300987D01*
X150524839Y-95238196D01*
X150557989Y-95213747D01*
X150699009Y-95141894D01*
X150872004Y-95016206D01*
X151023206Y-94865004D01*
X151148894Y-94692009D01*
X151245972Y-94501483D01*
X151312049Y-94298116D01*
X151345500Y-94086916D01*
X151345500Y-93873084D01*
X151312049Y-93661884D01*
X151245972Y-93458517D01*
X151148894Y-93267991D01*
X151023206Y-93094996D01*
X151023203Y-93094993D01*
X151023201Y-93094990D01*
X150872009Y-92943798D01*
X150872006Y-92943796D01*
X150872004Y-92943794D01*
X150699009Y-92818106D01*
X150557992Y-92746254D01*
X150506379Y-92697508D01*
X150489313Y-92628593D01*
X150512214Y-92561391D01*
X150541133Y-92532055D01*
X150618004Y-92476206D01*
X150769206Y-92325004D01*
X150894894Y-92152009D01*
X150991972Y-91961483D01*
X151058049Y-91758116D01*
X151091500Y-91546916D01*
X151091500Y-91333084D01*
X151058049Y-91121884D01*
X150991972Y-90918517D01*
X150894894Y-90727991D01*
X150769206Y-90554996D01*
X150769203Y-90554993D01*
X150769201Y-90554990D01*
X150618006Y-90403795D01*
X150541136Y-90347946D01*
X150497782Y-90291723D01*
X150491707Y-90220987D01*
X150524839Y-90158196D01*
X150557989Y-90133747D01*
X150699009Y-90061894D01*
X150872004Y-89936206D01*
X151023206Y-89785004D01*
X151148894Y-89612009D01*
X151245972Y-89421483D01*
X151312049Y-89218116D01*
X151345500Y-89006916D01*
X151345500Y-88793084D01*
X151312049Y-88581884D01*
X151245972Y-88378517D01*
X151148894Y-88187991D01*
X151023206Y-88014996D01*
X151023203Y-88014993D01*
X151023201Y-88014990D01*
X150872009Y-87863798D01*
X150872006Y-87863796D01*
X150872004Y-87863794D01*
X150699009Y-87738106D01*
X150557992Y-87666254D01*
X150506379Y-87617508D01*
X150489313Y-87548593D01*
X150512214Y-87481391D01*
X150541133Y-87452055D01*
X150618004Y-87396206D01*
X150769206Y-87245004D01*
X150894894Y-87072009D01*
X150991972Y-86881483D01*
X151058049Y-86678116D01*
X151091500Y-86466916D01*
X151091500Y-86253084D01*
X151058049Y-86041884D01*
X150991972Y-85838517D01*
X150894894Y-85647991D01*
X150769206Y-85474996D01*
X150769203Y-85474993D01*
X150769201Y-85474990D01*
X150618006Y-85323795D01*
X150541136Y-85267946D01*
X150497782Y-85211723D01*
X150491707Y-85140987D01*
X150524839Y-85078196D01*
X150557989Y-85053747D01*
X150699009Y-84981894D01*
X150872004Y-84856206D01*
X151023206Y-84705004D01*
X151148894Y-84532009D01*
X151245972Y-84341483D01*
X151312049Y-84138116D01*
X151345500Y-83926916D01*
X151345500Y-83713084D01*
X151312049Y-83501884D01*
X151245972Y-83298517D01*
X151148894Y-83107991D01*
X151023206Y-82934996D01*
X151023203Y-82934993D01*
X151023201Y-82934990D01*
X150872009Y-82783798D01*
X150872006Y-82783796D01*
X150872004Y-82783794D01*
X150699009Y-82658106D01*
X150557992Y-82586254D01*
X150506379Y-82537508D01*
X150489313Y-82468593D01*
X150512214Y-82401391D01*
X150541133Y-82372055D01*
X150618004Y-82316206D01*
X150769206Y-82165004D01*
X150894894Y-81992009D01*
X150991972Y-81801483D01*
X151058049Y-81598116D01*
X151091500Y-81386916D01*
X151091500Y-81173084D01*
X151058049Y-80961884D01*
X150991972Y-80758517D01*
X150894894Y-80567991D01*
X150769206Y-80394996D01*
X150769203Y-80394993D01*
X150769201Y-80394990D01*
X150618006Y-80243795D01*
X150541136Y-80187946D01*
X150497782Y-80131723D01*
X150491707Y-80060987D01*
X150524839Y-79998196D01*
X150557989Y-79973747D01*
X150699009Y-79901894D01*
X150872004Y-79776206D01*
X151023206Y-79625004D01*
X151148894Y-79452009D01*
X151245972Y-79261483D01*
X151312049Y-79058116D01*
X151345500Y-78846916D01*
X151345500Y-78633084D01*
X151312049Y-78421884D01*
X151245972Y-78218517D01*
X151148894Y-78027991D01*
X151023206Y-77854996D01*
X151023203Y-77854993D01*
X151023201Y-77854990D01*
X150872009Y-77703798D01*
X150872005Y-77703795D01*
X150872004Y-77703794D01*
X150850949Y-77688497D01*
X150807597Y-77632277D01*
X150801520Y-77561541D01*
X150834651Y-77498749D01*
X150849502Y-77485694D01*
X150946261Y-77413261D01*
X151033887Y-77296207D01*
X151033887Y-77296206D01*
X151033889Y-77296204D01*
X151084989Y-77159201D01*
X151086194Y-77148000D01*
X151091499Y-77098649D01*
X151091500Y-77098632D01*
X151091500Y-75301367D01*
X151091499Y-75301350D01*
X151084990Y-75240803D01*
X151084988Y-75240795D01*
X151033889Y-75103797D01*
X151033887Y-75103792D01*
X150946261Y-74986738D01*
X150829207Y-74899112D01*
X150829202Y-74899110D01*
X150692204Y-74848011D01*
X150692196Y-74848009D01*
X150631649Y-74841500D01*
X150631638Y-74841500D01*
X148834362Y-74841500D01*
X148834350Y-74841500D01*
X148773803Y-74848009D01*
X148773795Y-74848011D01*
X148636797Y-74899110D01*
X148636792Y-74899112D01*
X148519738Y-74986738D01*
X148432112Y-75103792D01*
X148432110Y-75103797D01*
X148381011Y-75240795D01*
X148381009Y-75240803D01*
X148374500Y-75301350D01*
X148374500Y-77098649D01*
X148381009Y-77159196D01*
X148381011Y-77159204D01*
X148432110Y-77296202D01*
X148432112Y-77296207D01*
X148519738Y-77413261D01*
X148636792Y-77500887D01*
X148636794Y-77500888D01*
X148636796Y-77500889D01*
X148695875Y-77522924D01*
X148773795Y-77551988D01*
X148773803Y-77551990D01*
X148834350Y-77558499D01*
X148834355Y-77558499D01*
X148834362Y-77558500D01*
X148873419Y-77558500D01*
X148941540Y-77578502D01*
X148988033Y-77632158D01*
X148998137Y-77702432D01*
X148968643Y-77767012D01*
X148962514Y-77773595D01*
X148937129Y-77798979D01*
X148937123Y-77798987D01*
X148860145Y-77932317D01*
X148846048Y-77984929D01*
X148827560Y-78023694D01*
X148827691Y-78023774D01*
X148826932Y-78025012D01*
X148826288Y-78026363D01*
X148825112Y-78027981D01*
X148825105Y-78027992D01*
X148728029Y-78218515D01*
X148728026Y-78218521D01*
X148661952Y-78421878D01*
X148661951Y-78421883D01*
X148661951Y-78421884D01*
X148628500Y-78633084D01*
X148628500Y-78846916D01*
X148650800Y-78987716D01*
X148661951Y-79058118D01*
X148682244Y-79120574D01*
X148684270Y-79191542D01*
X148651505Y-79248603D01*
X146714713Y-81185396D01*
X146652403Y-81219420D01*
X146625620Y-81222300D01*
X133109364Y-81222300D01*
X133041243Y-81202298D01*
X132994750Y-81148642D01*
X132984646Y-81078368D01*
X133000911Y-81032160D01*
X133049145Y-80950601D01*
X133095562Y-80790831D01*
X133098499Y-80753511D01*
X133098500Y-80753511D01*
X133098500Y-80447212D01*
X133118502Y-80379091D01*
X133172158Y-80332598D01*
X133242432Y-80322494D01*
X133307012Y-80351988D01*
X133329262Y-80377207D01*
X133376039Y-80447212D01*
X133408268Y-80495447D01*
X133408273Y-80495453D01*
X133521546Y-80608726D01*
X133521552Y-80608731D01*
X133654758Y-80697737D01*
X133802769Y-80759045D01*
X133959897Y-80790300D01*
X134120103Y-80790300D01*
X134277231Y-80759045D01*
X134425242Y-80697737D01*
X134558448Y-80608731D01*
X134671731Y-80495448D01*
X134760737Y-80362242D01*
X134822045Y-80214231D01*
X134853300Y-80057103D01*
X134853300Y-79896897D01*
X134825645Y-79757869D01*
X134831973Y-79687159D01*
X134860131Y-79644193D01*
X134869285Y-79635040D01*
X134959302Y-79489101D01*
X135013236Y-79326336D01*
X135019862Y-79261483D01*
X135023500Y-79225880D01*
X135023500Y-78678119D01*
X135014757Y-78592549D01*
X135013236Y-78577664D01*
X134959302Y-78414899D01*
X134869285Y-78268960D01*
X134866070Y-78265745D01*
X134832043Y-78203438D01*
X134837104Y-78132622D01*
X134866072Y-78087546D01*
X134868890Y-78084727D01*
X134958847Y-77938884D01*
X135012742Y-77776241D01*
X135012744Y-77776229D01*
X135022999Y-77675852D01*
X135023000Y-77675852D01*
X135023000Y-77656000D01*
X133057000Y-77656000D01*
X133057000Y-77675852D01*
X133067255Y-77776229D01*
X133067257Y-77776241D01*
X133121152Y-77938884D01*
X133211109Y-78084728D01*
X133211114Y-78084734D01*
X133213932Y-78087552D01*
X133215248Y-78089963D01*
X133215662Y-78090486D01*
X133215572Y-78090556D01*
X133247958Y-78149864D01*
X133242893Y-78220679D01*
X133213932Y-78265742D01*
X133210720Y-78268953D01*
X133210715Y-78268959D01*
X133120698Y-78414898D01*
X133072569Y-78560146D01*
X133032155Y-78618517D01*
X132966598Y-78645773D01*
X132896713Y-78633260D01*
X132863869Y-78609608D01*
X132846810Y-78592549D01*
X132846803Y-78592544D01*
X132703605Y-78507856D01*
X132543829Y-78461437D01*
X132506511Y-78458500D01*
X132506502Y-78458500D01*
X130773498Y-78458500D01*
X130773489Y-78458500D01*
X130736171Y-78461437D01*
X130736170Y-78461437D01*
X130576394Y-78507856D01*
X130433196Y-78592544D01*
X130433189Y-78592549D01*
X130315549Y-78710189D01*
X130315544Y-78710196D01*
X130230856Y-78853394D01*
X130184437Y-79013170D01*
X130184437Y-79013171D01*
X130181500Y-79050488D01*
X130181500Y-79483511D01*
X130184437Y-79520828D01*
X130184437Y-79520829D01*
X130230856Y-79680605D01*
X130315543Y-79823802D01*
X130316298Y-79824775D01*
X130316652Y-79825676D01*
X130319582Y-79830631D01*
X130318782Y-79831103D01*
X130342244Y-79890861D01*
X130328342Y-79960483D01*
X130316298Y-79979225D01*
X130315543Y-79980197D01*
X130230856Y-80123394D01*
X130184437Y-80283170D01*
X130184437Y-80283171D01*
X130181500Y-80320488D01*
X130181500Y-80753511D01*
X130184437Y-80790828D01*
X130184437Y-80790829D01*
X130230856Y-80950605D01*
X130315543Y-81093802D01*
X130316298Y-81094775D01*
X130316652Y-81095676D01*
X130319582Y-81100631D01*
X130318782Y-81101103D01*
X130342244Y-81160861D01*
X130328342Y-81230483D01*
X130316298Y-81249225D01*
X130315543Y-81250197D01*
X130230856Y-81393394D01*
X130184437Y-81553170D01*
X130184437Y-81553171D01*
X130181500Y-81590488D01*
X130181500Y-81727300D01*
X130161498Y-81795421D01*
X130107842Y-81841914D01*
X130055500Y-81853300D01*
X126224500Y-81853300D01*
X126156379Y-81833298D01*
X126109886Y-81779642D01*
X126098500Y-81727300D01*
X126098500Y-81590489D01*
X126098499Y-81590488D01*
X126096868Y-81569769D01*
X126095562Y-81553169D01*
X126049145Y-81393399D01*
X126049143Y-81393397D01*
X126049143Y-81393394D01*
X125964456Y-81250198D01*
X125964455Y-81250197D01*
X125964453Y-81250193D01*
X125964449Y-81250189D01*
X125963708Y-81249233D01*
X125963356Y-81248337D01*
X125960418Y-81243369D01*
X125961219Y-81242895D01*
X125937756Y-81183150D01*
X125951652Y-81113526D01*
X125963708Y-81094767D01*
X125964445Y-81093814D01*
X125964453Y-81093807D01*
X126017049Y-81004872D01*
X126049143Y-80950605D01*
X126049143Y-80950603D01*
X126049145Y-80950601D01*
X126095562Y-80790831D01*
X126098499Y-80753511D01*
X126098500Y-80753511D01*
X126098500Y-80698002D01*
X126118502Y-80629881D01*
X126172158Y-80583388D01*
X126199915Y-80574424D01*
X126277231Y-80559045D01*
X126425242Y-80497737D01*
X126558448Y-80408731D01*
X126671731Y-80295448D01*
X126760737Y-80162242D01*
X126822045Y-80014231D01*
X126853300Y-79857103D01*
X126853300Y-79696897D01*
X126822045Y-79539769D01*
X126760737Y-79391758D01*
X126671731Y-79258552D01*
X126671726Y-79258546D01*
X126558453Y-79145273D01*
X126558447Y-79145268D01*
X126514247Y-79115734D01*
X126425242Y-79056263D01*
X126331907Y-79017602D01*
X126277234Y-78994956D01*
X126277232Y-78994955D01*
X126277231Y-78994955D01*
X126224734Y-78984512D01*
X126153864Y-78970415D01*
X126090955Y-78937507D01*
X126057451Y-78881991D01*
X126049145Y-78853399D01*
X126049143Y-78853395D01*
X126049142Y-78853392D01*
X125964455Y-78710196D01*
X125964450Y-78710189D01*
X125846810Y-78592549D01*
X125846803Y-78592544D01*
X125703605Y-78507856D01*
X125543829Y-78461437D01*
X125506511Y-78458500D01*
X125506502Y-78458500D01*
X123773498Y-78458500D01*
X123773489Y-78458500D01*
X123736171Y-78461437D01*
X123736170Y-78461437D01*
X123576394Y-78507856D01*
X123433196Y-78592544D01*
X123433189Y-78592549D01*
X123315549Y-78710189D01*
X123315544Y-78710196D01*
X123230856Y-78853394D01*
X123184437Y-79013170D01*
X123184437Y-79013171D01*
X123181500Y-79050488D01*
X123181500Y-79483511D01*
X123184437Y-79520828D01*
X123184437Y-79520829D01*
X123189940Y-79539769D01*
X123217618Y-79635040D01*
X123230856Y-79680603D01*
X123279089Y-79762160D01*
X123296549Y-79830977D01*
X123274033Y-79898308D01*
X123218688Y-79942777D01*
X123170636Y-79952300D01*
X111184381Y-79952300D01*
X111116260Y-79932298D01*
X111095286Y-79915395D01*
X108308038Y-77128147D01*
X133057000Y-77128147D01*
X133057000Y-77148000D01*
X133786000Y-77148000D01*
X134294000Y-77148000D01*
X135023000Y-77148000D01*
X135023000Y-77128147D01*
X135012744Y-77027770D01*
X135012742Y-77027758D01*
X134958847Y-76865115D01*
X134868890Y-76719271D01*
X134868885Y-76719265D01*
X134747734Y-76598114D01*
X134747728Y-76598109D01*
X134601884Y-76508152D01*
X134439241Y-76454257D01*
X134439229Y-76454255D01*
X134338852Y-76444000D01*
X134294000Y-76444000D01*
X134294000Y-77148000D01*
X133786000Y-77148000D01*
X133786000Y-76444000D01*
X133741147Y-76444000D01*
X133640770Y-76454255D01*
X133640758Y-76454257D01*
X133478115Y-76508152D01*
X133332271Y-76598109D01*
X133332265Y-76598114D01*
X133211114Y-76719265D01*
X133211109Y-76719271D01*
X133121152Y-76865115D01*
X133067257Y-77027758D01*
X133067255Y-77027770D01*
X133057000Y-77128147D01*
X108308038Y-77128147D01*
X107948405Y-76768514D01*
X107914379Y-76706202D01*
X107911500Y-76679419D01*
X107911500Y-75301367D01*
X107911499Y-75301350D01*
X107904990Y-75240803D01*
X107904988Y-75240795D01*
X107853889Y-75103797D01*
X107853887Y-75103792D01*
X107766261Y-74986738D01*
X107649207Y-74899112D01*
X107649202Y-74899110D01*
X107512204Y-74848011D01*
X107512196Y-74848009D01*
X107451649Y-74841500D01*
X107451638Y-74841500D01*
X105654362Y-74841500D01*
X105654350Y-74841500D01*
X105593803Y-74848009D01*
X105593795Y-74848011D01*
X105456797Y-74899110D01*
X105456792Y-74899112D01*
X105339738Y-74986738D01*
X105252112Y-75103792D01*
X105252110Y-75103797D01*
X105201011Y-75240795D01*
X105201009Y-75240803D01*
X105194500Y-75301350D01*
X104440500Y-75301350D01*
X104440500Y-73665507D01*
X104440979Y-73654526D01*
X104454268Y-73502629D01*
X104454268Y-73502628D01*
X104458082Y-73481000D01*
X104496117Y-73339049D01*
X104503621Y-73318432D01*
X104565734Y-73185229D01*
X104576704Y-73166228D01*
X104661004Y-73045836D01*
X104675111Y-73029025D01*
X104779025Y-72925111D01*
X104795836Y-72911004D01*
X104916228Y-72826704D01*
X104935229Y-72815734D01*
X105068432Y-72753621D01*
X105089049Y-72746117D01*
X105231001Y-72708081D01*
X105252625Y-72704268D01*
X105369615Y-72694033D01*
X105404526Y-72690979D01*
X105415507Y-72690500D01*
X105457594Y-72690500D01*
X151082406Y-72690500D01*
X151124493Y-72690500D01*
X151135474Y-72690979D01*
G37*
%TD.AperFunction*%
%TD*%
M02*
