%TF.GenerationSoftware,KiCad,Pcbnew,10.0.2*%
%TF.CreationDate,2026-09-05T11:05:33-04:00*%
%TF.ProjectId,UIUCBreakout,55495543-4272-4656-916b-6f75742e6b69,rev?*%
%TF.SameCoordinates,Original*%
%TF.FileFunction,Legend,Top*%
%TF.FilePolarity,Positive*%
%FSLAX46Y46*%
G04 Gerber Fmt 4.6, Leading zero omitted, Abs format (unit mm)*
G04 Created by KiCad (PCBNEW 10.0.2) date 2026-09-05 11:05:33*
%MOMM*%
%LPD*%
G01*
G04 APERTURE LIST*
G04 Aperture macros list*
%AMRoundRect*
0 Rectangle with rounded corners*
0 $1 Rounding radius*
0 $2 $3 $4 $5 $6 $7 $8 $9 X,Y pos of 4 corners*
0 Add a 4 corners polygon primitive as box body*
4,1,4,$2,$3,$4,$5,$6,$7,$8,$9,$2,$3,0*
0 Add four circle primitives for the rounded corners*
1,1,$1+$1,$2,$3*
1,1,$1+$1,$4,$5*
1,1,$1+$1,$6,$7*
1,1,$1+$1,$8,$9*
0 Add four rect primitives between the rounded corners*
20,1,$1+$1,$2,$3,$4,$5,0*
20,1,$1+$1,$4,$5,$6,$7,0*
20,1,$1+$1,$6,$7,$8,$9,0*
20,1,$1+$1,$8,$9,$2,$3,0*%
G04 Aperture macros list end*
%ADD10C,0.150000*%
%ADD11C,0.300000*%
%ADD12C,0.120000*%
%ADD13C,0.152400*%
%ADD14RoundRect,0.225000X-0.225000X-0.250000X0.225000X-0.250000X0.225000X0.250000X-0.225000X0.250000X0*%
%ADD15RoundRect,0.225000X0.250000X-0.225000X0.250000X0.225000X-0.250000X0.225000X-0.250000X-0.225000X0*%
%ADD16R,0.381000X0.330200*%
%ADD17R,0.330200X0.381000*%
%ADD18R,0.609600X0.838200*%
%ADD19R,0.838200X0.609600*%
%ADD20R,1.066800X1.066800*%
%ADD21RoundRect,0.150000X-0.800000X-0.150000X0.800000X-0.150000X0.800000X0.150000X-0.800000X0.150000X0*%
%ADD22RoundRect,0.218750X-0.218750X-0.256250X0.218750X-0.256250X0.218750X0.256250X-0.218750X0.256250X0*%
%ADD23R,1.700000X1.700000*%
%ADD24O,1.700000X1.700000*%
G04 APERTURE END LIST*
D10*
X109556779Y-76654819D02*
X109556779Y-75654819D01*
X109556779Y-75654819D02*
X109937731Y-75654819D01*
X109937731Y-75654819D02*
X110032969Y-75702438D01*
X110032969Y-75702438D02*
X110080588Y-75750057D01*
X110080588Y-75750057D02*
X110128207Y-75845295D01*
X110128207Y-75845295D02*
X110128207Y-75988152D01*
X110128207Y-75988152D02*
X110080588Y-76083390D01*
X110080588Y-76083390D02*
X110032969Y-76131009D01*
X110032969Y-76131009D02*
X109937731Y-76178628D01*
X109937731Y-76178628D02*
X109556779Y-76178628D01*
X110890112Y-76131009D02*
X111032969Y-76178628D01*
X111032969Y-76178628D02*
X111080588Y-76226247D01*
X111080588Y-76226247D02*
X111128207Y-76321485D01*
X111128207Y-76321485D02*
X111128207Y-76464342D01*
X111128207Y-76464342D02*
X111080588Y-76559580D01*
X111080588Y-76559580D02*
X111032969Y-76607200D01*
X111032969Y-76607200D02*
X110937731Y-76654819D01*
X110937731Y-76654819D02*
X110556779Y-76654819D01*
X110556779Y-76654819D02*
X110556779Y-75654819D01*
X110556779Y-75654819D02*
X110890112Y-75654819D01*
X110890112Y-75654819D02*
X110985350Y-75702438D01*
X110985350Y-75702438D02*
X111032969Y-75750057D01*
X111032969Y-75750057D02*
X111080588Y-75845295D01*
X111080588Y-75845295D02*
X111080588Y-75940533D01*
X111080588Y-75940533D02*
X111032969Y-76035771D01*
X111032969Y-76035771D02*
X110985350Y-76083390D01*
X110985350Y-76083390D02*
X110890112Y-76131009D01*
X110890112Y-76131009D02*
X110556779Y-76131009D01*
X111985350Y-75988152D02*
X111985350Y-76654819D01*
X111747255Y-75607200D02*
X111509160Y-76321485D01*
X111509160Y-76321485D02*
X112128207Y-76321485D01*
X113223446Y-76369104D02*
X113699636Y-76369104D01*
X113128208Y-76654819D02*
X113461541Y-75654819D01*
X113461541Y-75654819D02*
X113794874Y-76654819D01*
X113985351Y-75654819D02*
X114556779Y-75654819D01*
X114271065Y-76654819D02*
X114271065Y-75654819D01*
X114842494Y-75750057D02*
X114890113Y-75702438D01*
X114890113Y-75702438D02*
X114985351Y-75654819D01*
X114985351Y-75654819D02*
X115223446Y-75654819D01*
X115223446Y-75654819D02*
X115318684Y-75702438D01*
X115318684Y-75702438D02*
X115366303Y-75750057D01*
X115366303Y-75750057D02*
X115413922Y-75845295D01*
X115413922Y-75845295D02*
X115413922Y-75940533D01*
X115413922Y-75940533D02*
X115366303Y-76083390D01*
X115366303Y-76083390D02*
X114794875Y-76654819D01*
X114794875Y-76654819D02*
X115413922Y-76654819D01*
X116318684Y-75654819D02*
X115842494Y-75654819D01*
X115842494Y-75654819D02*
X115794875Y-76131009D01*
X115794875Y-76131009D02*
X115842494Y-76083390D01*
X115842494Y-76083390D02*
X115937732Y-76035771D01*
X115937732Y-76035771D02*
X116175827Y-76035771D01*
X116175827Y-76035771D02*
X116271065Y-76083390D01*
X116271065Y-76083390D02*
X116318684Y-76131009D01*
X116318684Y-76131009D02*
X116366303Y-76226247D01*
X116366303Y-76226247D02*
X116366303Y-76464342D01*
X116366303Y-76464342D02*
X116318684Y-76559580D01*
X116318684Y-76559580D02*
X116271065Y-76607200D01*
X116271065Y-76607200D02*
X116175827Y-76654819D01*
X116175827Y-76654819D02*
X115937732Y-76654819D01*
X115937732Y-76654819D02*
X115842494Y-76607200D01*
X115842494Y-76607200D02*
X115794875Y-76559580D01*
X116556780Y-76750057D02*
X117318684Y-76750057D01*
X117556780Y-76654819D02*
X117556780Y-75654819D01*
X117556780Y-75654819D02*
X117890113Y-76369104D01*
X117890113Y-76369104D02*
X118223446Y-75654819D01*
X118223446Y-75654819D02*
X118223446Y-76654819D01*
X118699637Y-76654819D02*
X118699637Y-75654819D01*
X119128208Y-76607200D02*
X119271065Y-76654819D01*
X119271065Y-76654819D02*
X119509160Y-76654819D01*
X119509160Y-76654819D02*
X119604398Y-76607200D01*
X119604398Y-76607200D02*
X119652017Y-76559580D01*
X119652017Y-76559580D02*
X119699636Y-76464342D01*
X119699636Y-76464342D02*
X119699636Y-76369104D01*
X119699636Y-76369104D02*
X119652017Y-76273866D01*
X119652017Y-76273866D02*
X119604398Y-76226247D01*
X119604398Y-76226247D02*
X119509160Y-76178628D01*
X119509160Y-76178628D02*
X119318684Y-76131009D01*
X119318684Y-76131009D02*
X119223446Y-76083390D01*
X119223446Y-76083390D02*
X119175827Y-76035771D01*
X119175827Y-76035771D02*
X119128208Y-75940533D01*
X119128208Y-75940533D02*
X119128208Y-75845295D01*
X119128208Y-75845295D02*
X119175827Y-75750057D01*
X119175827Y-75750057D02*
X119223446Y-75702438D01*
X119223446Y-75702438D02*
X119318684Y-75654819D01*
X119318684Y-75654819D02*
X119556779Y-75654819D01*
X119556779Y-75654819D02*
X119699636Y-75702438D01*
X120318684Y-75654819D02*
X120509160Y-75654819D01*
X120509160Y-75654819D02*
X120604398Y-75702438D01*
X120604398Y-75702438D02*
X120699636Y-75797676D01*
X120699636Y-75797676D02*
X120747255Y-75988152D01*
X120747255Y-75988152D02*
X120747255Y-76321485D01*
X120747255Y-76321485D02*
X120699636Y-76511961D01*
X120699636Y-76511961D02*
X120604398Y-76607200D01*
X120604398Y-76607200D02*
X120509160Y-76654819D01*
X120509160Y-76654819D02*
X120318684Y-76654819D01*
X120318684Y-76654819D02*
X120223446Y-76607200D01*
X120223446Y-76607200D02*
X120128208Y-76511961D01*
X120128208Y-76511961D02*
X120080589Y-76321485D01*
X120080589Y-76321485D02*
X120080589Y-75988152D01*
X120080589Y-75988152D02*
X120128208Y-75797676D01*
X120128208Y-75797676D02*
X120223446Y-75702438D01*
X120223446Y-75702438D02*
X120318684Y-75654819D01*
X109556779Y-79194819D02*
X109556779Y-78194819D01*
X109556779Y-78194819D02*
X109937731Y-78194819D01*
X109937731Y-78194819D02*
X110032969Y-78242438D01*
X110032969Y-78242438D02*
X110080588Y-78290057D01*
X110080588Y-78290057D02*
X110128207Y-78385295D01*
X110128207Y-78385295D02*
X110128207Y-78528152D01*
X110128207Y-78528152D02*
X110080588Y-78623390D01*
X110080588Y-78623390D02*
X110032969Y-78671009D01*
X110032969Y-78671009D02*
X109937731Y-78718628D01*
X109937731Y-78718628D02*
X109556779Y-78718628D01*
X110890112Y-78671009D02*
X111032969Y-78718628D01*
X111032969Y-78718628D02*
X111080588Y-78766247D01*
X111080588Y-78766247D02*
X111128207Y-78861485D01*
X111128207Y-78861485D02*
X111128207Y-79004342D01*
X111128207Y-79004342D02*
X111080588Y-79099580D01*
X111080588Y-79099580D02*
X111032969Y-79147200D01*
X111032969Y-79147200D02*
X110937731Y-79194819D01*
X110937731Y-79194819D02*
X110556779Y-79194819D01*
X110556779Y-79194819D02*
X110556779Y-78194819D01*
X110556779Y-78194819D02*
X110890112Y-78194819D01*
X110890112Y-78194819D02*
X110985350Y-78242438D01*
X110985350Y-78242438D02*
X111032969Y-78290057D01*
X111032969Y-78290057D02*
X111080588Y-78385295D01*
X111080588Y-78385295D02*
X111080588Y-78480533D01*
X111080588Y-78480533D02*
X111032969Y-78575771D01*
X111032969Y-78575771D02*
X110985350Y-78623390D01*
X110985350Y-78623390D02*
X110890112Y-78671009D01*
X110890112Y-78671009D02*
X110556779Y-78671009D01*
X112032969Y-78194819D02*
X111556779Y-78194819D01*
X111556779Y-78194819D02*
X111509160Y-78671009D01*
X111509160Y-78671009D02*
X111556779Y-78623390D01*
X111556779Y-78623390D02*
X111652017Y-78575771D01*
X111652017Y-78575771D02*
X111890112Y-78575771D01*
X111890112Y-78575771D02*
X111985350Y-78623390D01*
X111985350Y-78623390D02*
X112032969Y-78671009D01*
X112032969Y-78671009D02*
X112080588Y-78766247D01*
X112080588Y-78766247D02*
X112080588Y-79004342D01*
X112080588Y-79004342D02*
X112032969Y-79099580D01*
X112032969Y-79099580D02*
X111985350Y-79147200D01*
X111985350Y-79147200D02*
X111890112Y-79194819D01*
X111890112Y-79194819D02*
X111652017Y-79194819D01*
X111652017Y-79194819D02*
X111556779Y-79147200D01*
X111556779Y-79147200D02*
X111509160Y-79099580D01*
X113223446Y-78909104D02*
X113699636Y-78909104D01*
X113128208Y-79194819D02*
X113461541Y-78194819D01*
X113461541Y-78194819D02*
X113794874Y-79194819D01*
X113985351Y-78194819D02*
X114556779Y-78194819D01*
X114271065Y-79194819D02*
X114271065Y-78194819D01*
X114842494Y-78290057D02*
X114890113Y-78242438D01*
X114890113Y-78242438D02*
X114985351Y-78194819D01*
X114985351Y-78194819D02*
X115223446Y-78194819D01*
X115223446Y-78194819D02*
X115318684Y-78242438D01*
X115318684Y-78242438D02*
X115366303Y-78290057D01*
X115366303Y-78290057D02*
X115413922Y-78385295D01*
X115413922Y-78385295D02*
X115413922Y-78480533D01*
X115413922Y-78480533D02*
X115366303Y-78623390D01*
X115366303Y-78623390D02*
X114794875Y-79194819D01*
X114794875Y-79194819D02*
X115413922Y-79194819D01*
X116318684Y-78194819D02*
X115842494Y-78194819D01*
X115842494Y-78194819D02*
X115794875Y-78671009D01*
X115794875Y-78671009D02*
X115842494Y-78623390D01*
X115842494Y-78623390D02*
X115937732Y-78575771D01*
X115937732Y-78575771D02*
X116175827Y-78575771D01*
X116175827Y-78575771D02*
X116271065Y-78623390D01*
X116271065Y-78623390D02*
X116318684Y-78671009D01*
X116318684Y-78671009D02*
X116366303Y-78766247D01*
X116366303Y-78766247D02*
X116366303Y-79004342D01*
X116366303Y-79004342D02*
X116318684Y-79099580D01*
X116318684Y-79099580D02*
X116271065Y-79147200D01*
X116271065Y-79147200D02*
X116175827Y-79194819D01*
X116175827Y-79194819D02*
X115937732Y-79194819D01*
X115937732Y-79194819D02*
X115842494Y-79147200D01*
X115842494Y-79147200D02*
X115794875Y-79099580D01*
X116556780Y-79290057D02*
X117318684Y-79290057D01*
X117556780Y-79194819D02*
X117556780Y-78194819D01*
X117556780Y-78194819D02*
X117890113Y-78909104D01*
X117890113Y-78909104D02*
X118223446Y-78194819D01*
X118223446Y-78194819D02*
X118223446Y-79194819D01*
X118890113Y-78194819D02*
X119080589Y-78194819D01*
X119080589Y-78194819D02*
X119175827Y-78242438D01*
X119175827Y-78242438D02*
X119271065Y-78337676D01*
X119271065Y-78337676D02*
X119318684Y-78528152D01*
X119318684Y-78528152D02*
X119318684Y-78861485D01*
X119318684Y-78861485D02*
X119271065Y-79051961D01*
X119271065Y-79051961D02*
X119175827Y-79147200D01*
X119175827Y-79147200D02*
X119080589Y-79194819D01*
X119080589Y-79194819D02*
X118890113Y-79194819D01*
X118890113Y-79194819D02*
X118794875Y-79147200D01*
X118794875Y-79147200D02*
X118699637Y-79051961D01*
X118699637Y-79051961D02*
X118652018Y-78861485D01*
X118652018Y-78861485D02*
X118652018Y-78528152D01*
X118652018Y-78528152D02*
X118699637Y-78337676D01*
X118699637Y-78337676D02*
X118794875Y-78242438D01*
X118794875Y-78242438D02*
X118890113Y-78194819D01*
X119699637Y-79147200D02*
X119842494Y-79194819D01*
X119842494Y-79194819D02*
X120080589Y-79194819D01*
X120080589Y-79194819D02*
X120175827Y-79147200D01*
X120175827Y-79147200D02*
X120223446Y-79099580D01*
X120223446Y-79099580D02*
X120271065Y-79004342D01*
X120271065Y-79004342D02*
X120271065Y-78909104D01*
X120271065Y-78909104D02*
X120223446Y-78813866D01*
X120223446Y-78813866D02*
X120175827Y-78766247D01*
X120175827Y-78766247D02*
X120080589Y-78718628D01*
X120080589Y-78718628D02*
X119890113Y-78671009D01*
X119890113Y-78671009D02*
X119794875Y-78623390D01*
X119794875Y-78623390D02*
X119747256Y-78575771D01*
X119747256Y-78575771D02*
X119699637Y-78480533D01*
X119699637Y-78480533D02*
X119699637Y-78385295D01*
X119699637Y-78385295D02*
X119747256Y-78290057D01*
X119747256Y-78290057D02*
X119794875Y-78242438D01*
X119794875Y-78242438D02*
X119890113Y-78194819D01*
X119890113Y-78194819D02*
X120128208Y-78194819D01*
X120128208Y-78194819D02*
X120271065Y-78242438D01*
X120699637Y-79194819D02*
X120699637Y-78194819D01*
X109556779Y-86854819D02*
X109556779Y-85854819D01*
X109556779Y-85854819D02*
X110128207Y-86854819D01*
X110128207Y-86854819D02*
X110128207Y-85854819D01*
X111175826Y-86759580D02*
X111128207Y-86807200D01*
X111128207Y-86807200D02*
X110985350Y-86854819D01*
X110985350Y-86854819D02*
X110890112Y-86854819D01*
X110890112Y-86854819D02*
X110747255Y-86807200D01*
X110747255Y-86807200D02*
X110652017Y-86711961D01*
X110652017Y-86711961D02*
X110604398Y-86616723D01*
X110604398Y-86616723D02*
X110556779Y-86426247D01*
X110556779Y-86426247D02*
X110556779Y-86283390D01*
X110556779Y-86283390D02*
X110604398Y-86092914D01*
X110604398Y-86092914D02*
X110652017Y-85997676D01*
X110652017Y-85997676D02*
X110747255Y-85902438D01*
X110747255Y-85902438D02*
X110890112Y-85854819D01*
X110890112Y-85854819D02*
X110985350Y-85854819D01*
X110985350Y-85854819D02*
X111128207Y-85902438D01*
X111128207Y-85902438D02*
X111175826Y-85950057D01*
X109556779Y-89354819D02*
X109556779Y-88354819D01*
X109556779Y-88354819D02*
X110128207Y-89354819D01*
X110128207Y-89354819D02*
X110128207Y-88354819D01*
X111175826Y-89259580D02*
X111128207Y-89307200D01*
X111128207Y-89307200D02*
X110985350Y-89354819D01*
X110985350Y-89354819D02*
X110890112Y-89354819D01*
X110890112Y-89354819D02*
X110747255Y-89307200D01*
X110747255Y-89307200D02*
X110652017Y-89211961D01*
X110652017Y-89211961D02*
X110604398Y-89116723D01*
X110604398Y-89116723D02*
X110556779Y-88926247D01*
X110556779Y-88926247D02*
X110556779Y-88783390D01*
X110556779Y-88783390D02*
X110604398Y-88592914D01*
X110604398Y-88592914D02*
X110652017Y-88497676D01*
X110652017Y-88497676D02*
X110747255Y-88402438D01*
X110747255Y-88402438D02*
X110890112Y-88354819D01*
X110890112Y-88354819D02*
X110985350Y-88354819D01*
X110985350Y-88354819D02*
X111128207Y-88402438D01*
X111128207Y-88402438D02*
X111175826Y-88450057D01*
X109556779Y-94434819D02*
X109556779Y-93434819D01*
X109556779Y-93434819D02*
X109937731Y-93434819D01*
X109937731Y-93434819D02*
X110032969Y-93482438D01*
X110032969Y-93482438D02*
X110080588Y-93530057D01*
X110080588Y-93530057D02*
X110128207Y-93625295D01*
X110128207Y-93625295D02*
X110128207Y-93768152D01*
X110128207Y-93768152D02*
X110080588Y-93863390D01*
X110080588Y-93863390D02*
X110032969Y-93911009D01*
X110032969Y-93911009D02*
X109937731Y-93958628D01*
X109937731Y-93958628D02*
X109556779Y-93958628D01*
X110509160Y-94149104D02*
X110985350Y-94149104D01*
X110413922Y-94434819D02*
X110747255Y-93434819D01*
X110747255Y-93434819D02*
X111080588Y-94434819D01*
X111604398Y-93434819D02*
X111699636Y-93434819D01*
X111699636Y-93434819D02*
X111794874Y-93482438D01*
X111794874Y-93482438D02*
X111842493Y-93530057D01*
X111842493Y-93530057D02*
X111890112Y-93625295D01*
X111890112Y-93625295D02*
X111937731Y-93815771D01*
X111937731Y-93815771D02*
X111937731Y-94053866D01*
X111937731Y-94053866D02*
X111890112Y-94244342D01*
X111890112Y-94244342D02*
X111842493Y-94339580D01*
X111842493Y-94339580D02*
X111794874Y-94387200D01*
X111794874Y-94387200D02*
X111699636Y-94434819D01*
X111699636Y-94434819D02*
X111604398Y-94434819D01*
X111604398Y-94434819D02*
X111509160Y-94387200D01*
X111509160Y-94387200D02*
X111461541Y-94339580D01*
X111461541Y-94339580D02*
X111413922Y-94244342D01*
X111413922Y-94244342D02*
X111366303Y-94053866D01*
X111366303Y-94053866D02*
X111366303Y-93815771D01*
X111366303Y-93815771D02*
X111413922Y-93625295D01*
X111413922Y-93625295D02*
X111461541Y-93530057D01*
X111461541Y-93530057D02*
X111509160Y-93482438D01*
X111509160Y-93482438D02*
X111604398Y-93434819D01*
X113032970Y-93434819D02*
X113271065Y-94434819D01*
X113271065Y-94434819D02*
X113461541Y-93720533D01*
X113461541Y-93720533D02*
X113652017Y-94434819D01*
X113652017Y-94434819D02*
X113890113Y-93434819D01*
X114271065Y-94434819D02*
X114271065Y-93434819D01*
X114842493Y-94434819D02*
X114413922Y-93863390D01*
X114842493Y-93434819D02*
X114271065Y-94006247D01*
X115271065Y-93434819D02*
X115271065Y-94244342D01*
X115271065Y-94244342D02*
X115318684Y-94339580D01*
X115318684Y-94339580D02*
X115366303Y-94387200D01*
X115366303Y-94387200D02*
X115461541Y-94434819D01*
X115461541Y-94434819D02*
X115652017Y-94434819D01*
X115652017Y-94434819D02*
X115747255Y-94387200D01*
X115747255Y-94387200D02*
X115794874Y-94339580D01*
X115794874Y-94339580D02*
X115842493Y-94244342D01*
X115842493Y-94244342D02*
X115842493Y-93434819D01*
X116318684Y-94434819D02*
X116318684Y-93434819D01*
X116318684Y-93434819D02*
X116699636Y-93434819D01*
X116699636Y-93434819D02*
X116794874Y-93482438D01*
X116794874Y-93482438D02*
X116842493Y-93530057D01*
X116842493Y-93530057D02*
X116890112Y-93625295D01*
X116890112Y-93625295D02*
X116890112Y-93768152D01*
X116890112Y-93768152D02*
X116842493Y-93863390D01*
X116842493Y-93863390D02*
X116794874Y-93911009D01*
X116794874Y-93911009D02*
X116699636Y-93958628D01*
X116699636Y-93958628D02*
X116318684Y-93958628D01*
X117842493Y-94434819D02*
X117271065Y-94434819D01*
X117556779Y-94434819D02*
X117556779Y-93434819D01*
X117556779Y-93434819D02*
X117461541Y-93577676D01*
X117461541Y-93577676D02*
X117366303Y-93672914D01*
X117366303Y-93672914D02*
X117271065Y-93720533D01*
X109556779Y-96974819D02*
X109556779Y-95974819D01*
X109556779Y-95974819D02*
X109937731Y-95974819D01*
X109937731Y-95974819D02*
X110032969Y-96022438D01*
X110032969Y-96022438D02*
X110080588Y-96070057D01*
X110080588Y-96070057D02*
X110128207Y-96165295D01*
X110128207Y-96165295D02*
X110128207Y-96308152D01*
X110128207Y-96308152D02*
X110080588Y-96403390D01*
X110080588Y-96403390D02*
X110032969Y-96451009D01*
X110032969Y-96451009D02*
X109937731Y-96498628D01*
X109937731Y-96498628D02*
X109556779Y-96498628D01*
X110509160Y-96689104D02*
X110985350Y-96689104D01*
X110413922Y-96974819D02*
X110747255Y-95974819D01*
X110747255Y-95974819D02*
X111080588Y-96974819D01*
X111937731Y-96974819D02*
X111366303Y-96974819D01*
X111652017Y-96974819D02*
X111652017Y-95974819D01*
X111652017Y-95974819D02*
X111556779Y-96117676D01*
X111556779Y-96117676D02*
X111461541Y-96212914D01*
X111461541Y-96212914D02*
X111366303Y-96260533D01*
X113080589Y-96689104D02*
X113556779Y-96689104D01*
X112985351Y-96974819D02*
X113318684Y-95974819D01*
X113318684Y-95974819D02*
X113652017Y-96974819D01*
X114556779Y-96879580D02*
X114509160Y-96927200D01*
X114509160Y-96927200D02*
X114366303Y-96974819D01*
X114366303Y-96974819D02*
X114271065Y-96974819D01*
X114271065Y-96974819D02*
X114128208Y-96927200D01*
X114128208Y-96927200D02*
X114032970Y-96831961D01*
X114032970Y-96831961D02*
X113985351Y-96736723D01*
X113985351Y-96736723D02*
X113937732Y-96546247D01*
X113937732Y-96546247D02*
X113937732Y-96403390D01*
X113937732Y-96403390D02*
X113985351Y-96212914D01*
X113985351Y-96212914D02*
X114032970Y-96117676D01*
X114032970Y-96117676D02*
X114128208Y-96022438D01*
X114128208Y-96022438D02*
X114271065Y-95974819D01*
X114271065Y-95974819D02*
X114366303Y-95974819D01*
X114366303Y-95974819D02*
X114509160Y-96022438D01*
X114509160Y-96022438D02*
X114556779Y-96070057D01*
X115556779Y-96879580D02*
X115509160Y-96927200D01*
X115509160Y-96927200D02*
X115366303Y-96974819D01*
X115366303Y-96974819D02*
X115271065Y-96974819D01*
X115271065Y-96974819D02*
X115128208Y-96927200D01*
X115128208Y-96927200D02*
X115032970Y-96831961D01*
X115032970Y-96831961D02*
X114985351Y-96736723D01*
X114985351Y-96736723D02*
X114937732Y-96546247D01*
X114937732Y-96546247D02*
X114937732Y-96403390D01*
X114937732Y-96403390D02*
X114985351Y-96212914D01*
X114985351Y-96212914D02*
X115032970Y-96117676D01*
X115032970Y-96117676D02*
X115128208Y-96022438D01*
X115128208Y-96022438D02*
X115271065Y-95974819D01*
X115271065Y-95974819D02*
X115366303Y-95974819D01*
X115366303Y-95974819D02*
X115509160Y-96022438D01*
X115509160Y-96022438D02*
X115556779Y-96070057D01*
X115985351Y-96451009D02*
X116318684Y-96451009D01*
X116461541Y-96974819D02*
X115985351Y-96974819D01*
X115985351Y-96974819D02*
X115985351Y-95974819D01*
X115985351Y-95974819D02*
X116461541Y-95974819D01*
X117366303Y-96974819D02*
X116890113Y-96974819D01*
X116890113Y-96974819D02*
X116890113Y-95974819D01*
X117461542Y-97070057D02*
X118223446Y-97070057D01*
X118461542Y-96308152D02*
X118461542Y-96974819D01*
X118461542Y-96403390D02*
X118509161Y-96355771D01*
X118509161Y-96355771D02*
X118604399Y-96308152D01*
X118604399Y-96308152D02*
X118747256Y-96308152D01*
X118747256Y-96308152D02*
X118842494Y-96355771D01*
X118842494Y-96355771D02*
X118890113Y-96451009D01*
X118890113Y-96451009D02*
X118890113Y-96974819D01*
X119937732Y-96879580D02*
X119890113Y-96927200D01*
X119890113Y-96927200D02*
X119747256Y-96974819D01*
X119747256Y-96974819D02*
X119652018Y-96974819D01*
X119652018Y-96974819D02*
X119509161Y-96927200D01*
X119509161Y-96927200D02*
X119413923Y-96831961D01*
X119413923Y-96831961D02*
X119366304Y-96736723D01*
X119366304Y-96736723D02*
X119318685Y-96546247D01*
X119318685Y-96546247D02*
X119318685Y-96403390D01*
X119318685Y-96403390D02*
X119366304Y-96212914D01*
X119366304Y-96212914D02*
X119413923Y-96117676D01*
X119413923Y-96117676D02*
X119509161Y-96022438D01*
X119509161Y-96022438D02*
X119652018Y-95974819D01*
X119652018Y-95974819D02*
X119747256Y-95974819D01*
X119747256Y-95974819D02*
X119890113Y-96022438D01*
X119890113Y-96022438D02*
X119937732Y-96070057D01*
X120318685Y-96927200D02*
X120461542Y-96974819D01*
X120461542Y-96974819D02*
X120699637Y-96974819D01*
X120699637Y-96974819D02*
X120794875Y-96927200D01*
X120794875Y-96927200D02*
X120842494Y-96879580D01*
X120842494Y-96879580D02*
X120890113Y-96784342D01*
X120890113Y-96784342D02*
X120890113Y-96689104D01*
X120890113Y-96689104D02*
X120842494Y-96593866D01*
X120842494Y-96593866D02*
X120794875Y-96546247D01*
X120794875Y-96546247D02*
X120699637Y-96498628D01*
X120699637Y-96498628D02*
X120509161Y-96451009D01*
X120509161Y-96451009D02*
X120413923Y-96403390D01*
X120413923Y-96403390D02*
X120366304Y-96355771D01*
X120366304Y-96355771D02*
X120318685Y-96260533D01*
X120318685Y-96260533D02*
X120318685Y-96165295D01*
X120318685Y-96165295D02*
X120366304Y-96070057D01*
X120366304Y-96070057D02*
X120413923Y-96022438D01*
X120413923Y-96022438D02*
X120509161Y-95974819D01*
X120509161Y-95974819D02*
X120747256Y-95974819D01*
X120747256Y-95974819D02*
X120890113Y-96022438D01*
X109556779Y-99514819D02*
X109556779Y-98514819D01*
X109556779Y-98514819D02*
X109937731Y-98514819D01*
X109937731Y-98514819D02*
X110032969Y-98562438D01*
X110032969Y-98562438D02*
X110080588Y-98610057D01*
X110080588Y-98610057D02*
X110128207Y-98705295D01*
X110128207Y-98705295D02*
X110128207Y-98848152D01*
X110128207Y-98848152D02*
X110080588Y-98943390D01*
X110080588Y-98943390D02*
X110032969Y-98991009D01*
X110032969Y-98991009D02*
X109937731Y-99038628D01*
X109937731Y-99038628D02*
X109556779Y-99038628D01*
X110509160Y-99229104D02*
X110985350Y-99229104D01*
X110413922Y-99514819D02*
X110747255Y-98514819D01*
X110747255Y-98514819D02*
X111080588Y-99514819D01*
X111366303Y-98610057D02*
X111413922Y-98562438D01*
X111413922Y-98562438D02*
X111509160Y-98514819D01*
X111509160Y-98514819D02*
X111747255Y-98514819D01*
X111747255Y-98514819D02*
X111842493Y-98562438D01*
X111842493Y-98562438D02*
X111890112Y-98610057D01*
X111890112Y-98610057D02*
X111937731Y-98705295D01*
X111937731Y-98705295D02*
X111937731Y-98800533D01*
X111937731Y-98800533D02*
X111890112Y-98943390D01*
X111890112Y-98943390D02*
X111318684Y-99514819D01*
X111318684Y-99514819D02*
X111937731Y-99514819D01*
X113080589Y-99229104D02*
X113556779Y-99229104D01*
X112985351Y-99514819D02*
X113318684Y-98514819D01*
X113318684Y-98514819D02*
X113652017Y-99514819D01*
X114556779Y-99419580D02*
X114509160Y-99467200D01*
X114509160Y-99467200D02*
X114366303Y-99514819D01*
X114366303Y-99514819D02*
X114271065Y-99514819D01*
X114271065Y-99514819D02*
X114128208Y-99467200D01*
X114128208Y-99467200D02*
X114032970Y-99371961D01*
X114032970Y-99371961D02*
X113985351Y-99276723D01*
X113985351Y-99276723D02*
X113937732Y-99086247D01*
X113937732Y-99086247D02*
X113937732Y-98943390D01*
X113937732Y-98943390D02*
X113985351Y-98752914D01*
X113985351Y-98752914D02*
X114032970Y-98657676D01*
X114032970Y-98657676D02*
X114128208Y-98562438D01*
X114128208Y-98562438D02*
X114271065Y-98514819D01*
X114271065Y-98514819D02*
X114366303Y-98514819D01*
X114366303Y-98514819D02*
X114509160Y-98562438D01*
X114509160Y-98562438D02*
X114556779Y-98610057D01*
X115556779Y-99419580D02*
X115509160Y-99467200D01*
X115509160Y-99467200D02*
X115366303Y-99514819D01*
X115366303Y-99514819D02*
X115271065Y-99514819D01*
X115271065Y-99514819D02*
X115128208Y-99467200D01*
X115128208Y-99467200D02*
X115032970Y-99371961D01*
X115032970Y-99371961D02*
X114985351Y-99276723D01*
X114985351Y-99276723D02*
X114937732Y-99086247D01*
X114937732Y-99086247D02*
X114937732Y-98943390D01*
X114937732Y-98943390D02*
X114985351Y-98752914D01*
X114985351Y-98752914D02*
X115032970Y-98657676D01*
X115032970Y-98657676D02*
X115128208Y-98562438D01*
X115128208Y-98562438D02*
X115271065Y-98514819D01*
X115271065Y-98514819D02*
X115366303Y-98514819D01*
X115366303Y-98514819D02*
X115509160Y-98562438D01*
X115509160Y-98562438D02*
X115556779Y-98610057D01*
X115985351Y-98991009D02*
X116318684Y-98991009D01*
X116461541Y-99514819D02*
X115985351Y-99514819D01*
X115985351Y-99514819D02*
X115985351Y-98514819D01*
X115985351Y-98514819D02*
X116461541Y-98514819D01*
X117366303Y-99514819D02*
X116890113Y-99514819D01*
X116890113Y-99514819D02*
X116890113Y-98514819D01*
X117461542Y-99610057D02*
X118223446Y-99610057D01*
X118461542Y-99514819D02*
X118461542Y-98514819D01*
X118461542Y-98514819D02*
X118794875Y-99229104D01*
X118794875Y-99229104D02*
X119128208Y-98514819D01*
X119128208Y-98514819D02*
X119128208Y-99514819D01*
X119794875Y-98514819D02*
X119985351Y-98514819D01*
X119985351Y-98514819D02*
X120080589Y-98562438D01*
X120080589Y-98562438D02*
X120175827Y-98657676D01*
X120175827Y-98657676D02*
X120223446Y-98848152D01*
X120223446Y-98848152D02*
X120223446Y-99181485D01*
X120223446Y-99181485D02*
X120175827Y-99371961D01*
X120175827Y-99371961D02*
X120080589Y-99467200D01*
X120080589Y-99467200D02*
X119985351Y-99514819D01*
X119985351Y-99514819D02*
X119794875Y-99514819D01*
X119794875Y-99514819D02*
X119699637Y-99467200D01*
X119699637Y-99467200D02*
X119604399Y-99371961D01*
X119604399Y-99371961D02*
X119556780Y-99181485D01*
X119556780Y-99181485D02*
X119556780Y-98848152D01*
X119556780Y-98848152D02*
X119604399Y-98657676D01*
X119604399Y-98657676D02*
X119699637Y-98562438D01*
X119699637Y-98562438D02*
X119794875Y-98514819D01*
X120604399Y-99467200D02*
X120747256Y-99514819D01*
X120747256Y-99514819D02*
X120985351Y-99514819D01*
X120985351Y-99514819D02*
X121080589Y-99467200D01*
X121080589Y-99467200D02*
X121128208Y-99419580D01*
X121128208Y-99419580D02*
X121175827Y-99324342D01*
X121175827Y-99324342D02*
X121175827Y-99229104D01*
X121175827Y-99229104D02*
X121128208Y-99133866D01*
X121128208Y-99133866D02*
X121080589Y-99086247D01*
X121080589Y-99086247D02*
X120985351Y-99038628D01*
X120985351Y-99038628D02*
X120794875Y-98991009D01*
X120794875Y-98991009D02*
X120699637Y-98943390D01*
X120699637Y-98943390D02*
X120652018Y-98895771D01*
X120652018Y-98895771D02*
X120604399Y-98800533D01*
X120604399Y-98800533D02*
X120604399Y-98705295D01*
X120604399Y-98705295D02*
X120652018Y-98610057D01*
X120652018Y-98610057D02*
X120699637Y-98562438D01*
X120699637Y-98562438D02*
X120794875Y-98514819D01*
X120794875Y-98514819D02*
X121032970Y-98514819D01*
X121032970Y-98514819D02*
X121175827Y-98562438D01*
X121604399Y-99514819D02*
X121604399Y-98514819D01*
X109556779Y-102054819D02*
X109556779Y-101054819D01*
X109556779Y-101054819D02*
X109937731Y-101054819D01*
X109937731Y-101054819D02*
X110032969Y-101102438D01*
X110032969Y-101102438D02*
X110080588Y-101150057D01*
X110080588Y-101150057D02*
X110128207Y-101245295D01*
X110128207Y-101245295D02*
X110128207Y-101388152D01*
X110128207Y-101388152D02*
X110080588Y-101483390D01*
X110080588Y-101483390D02*
X110032969Y-101531009D01*
X110032969Y-101531009D02*
X109937731Y-101578628D01*
X109937731Y-101578628D02*
X109556779Y-101578628D01*
X110509160Y-101769104D02*
X110985350Y-101769104D01*
X110413922Y-102054819D02*
X110747255Y-101054819D01*
X110747255Y-101054819D02*
X111080588Y-102054819D01*
X111318684Y-101054819D02*
X111937731Y-101054819D01*
X111937731Y-101054819D02*
X111604398Y-101435771D01*
X111604398Y-101435771D02*
X111747255Y-101435771D01*
X111747255Y-101435771D02*
X111842493Y-101483390D01*
X111842493Y-101483390D02*
X111890112Y-101531009D01*
X111890112Y-101531009D02*
X111937731Y-101626247D01*
X111937731Y-101626247D02*
X111937731Y-101864342D01*
X111937731Y-101864342D02*
X111890112Y-101959580D01*
X111890112Y-101959580D02*
X111842493Y-102007200D01*
X111842493Y-102007200D02*
X111747255Y-102054819D01*
X111747255Y-102054819D02*
X111461541Y-102054819D01*
X111461541Y-102054819D02*
X111366303Y-102007200D01*
X111366303Y-102007200D02*
X111318684Y-101959580D01*
X113080589Y-101769104D02*
X113556779Y-101769104D01*
X112985351Y-102054819D02*
X113318684Y-101054819D01*
X113318684Y-101054819D02*
X113652017Y-102054819D01*
X114556779Y-101959580D02*
X114509160Y-102007200D01*
X114509160Y-102007200D02*
X114366303Y-102054819D01*
X114366303Y-102054819D02*
X114271065Y-102054819D01*
X114271065Y-102054819D02*
X114128208Y-102007200D01*
X114128208Y-102007200D02*
X114032970Y-101911961D01*
X114032970Y-101911961D02*
X113985351Y-101816723D01*
X113985351Y-101816723D02*
X113937732Y-101626247D01*
X113937732Y-101626247D02*
X113937732Y-101483390D01*
X113937732Y-101483390D02*
X113985351Y-101292914D01*
X113985351Y-101292914D02*
X114032970Y-101197676D01*
X114032970Y-101197676D02*
X114128208Y-101102438D01*
X114128208Y-101102438D02*
X114271065Y-101054819D01*
X114271065Y-101054819D02*
X114366303Y-101054819D01*
X114366303Y-101054819D02*
X114509160Y-101102438D01*
X114509160Y-101102438D02*
X114556779Y-101150057D01*
X115556779Y-101959580D02*
X115509160Y-102007200D01*
X115509160Y-102007200D02*
X115366303Y-102054819D01*
X115366303Y-102054819D02*
X115271065Y-102054819D01*
X115271065Y-102054819D02*
X115128208Y-102007200D01*
X115128208Y-102007200D02*
X115032970Y-101911961D01*
X115032970Y-101911961D02*
X114985351Y-101816723D01*
X114985351Y-101816723D02*
X114937732Y-101626247D01*
X114937732Y-101626247D02*
X114937732Y-101483390D01*
X114937732Y-101483390D02*
X114985351Y-101292914D01*
X114985351Y-101292914D02*
X115032970Y-101197676D01*
X115032970Y-101197676D02*
X115128208Y-101102438D01*
X115128208Y-101102438D02*
X115271065Y-101054819D01*
X115271065Y-101054819D02*
X115366303Y-101054819D01*
X115366303Y-101054819D02*
X115509160Y-101102438D01*
X115509160Y-101102438D02*
X115556779Y-101150057D01*
X115985351Y-101531009D02*
X116318684Y-101531009D01*
X116461541Y-102054819D02*
X115985351Y-102054819D01*
X115985351Y-102054819D02*
X115985351Y-101054819D01*
X115985351Y-101054819D02*
X116461541Y-101054819D01*
X117366303Y-102054819D02*
X116890113Y-102054819D01*
X116890113Y-102054819D02*
X116890113Y-101054819D01*
X117461542Y-102150057D02*
X118223446Y-102150057D01*
X118461542Y-102054819D02*
X118461542Y-101054819D01*
X118461542Y-101054819D02*
X118794875Y-101769104D01*
X118794875Y-101769104D02*
X119128208Y-101054819D01*
X119128208Y-101054819D02*
X119128208Y-102054819D01*
X119604399Y-102054819D02*
X119604399Y-101054819D01*
X120032970Y-102007200D02*
X120175827Y-102054819D01*
X120175827Y-102054819D02*
X120413922Y-102054819D01*
X120413922Y-102054819D02*
X120509160Y-102007200D01*
X120509160Y-102007200D02*
X120556779Y-101959580D01*
X120556779Y-101959580D02*
X120604398Y-101864342D01*
X120604398Y-101864342D02*
X120604398Y-101769104D01*
X120604398Y-101769104D02*
X120556779Y-101673866D01*
X120556779Y-101673866D02*
X120509160Y-101626247D01*
X120509160Y-101626247D02*
X120413922Y-101578628D01*
X120413922Y-101578628D02*
X120223446Y-101531009D01*
X120223446Y-101531009D02*
X120128208Y-101483390D01*
X120128208Y-101483390D02*
X120080589Y-101435771D01*
X120080589Y-101435771D02*
X120032970Y-101340533D01*
X120032970Y-101340533D02*
X120032970Y-101245295D01*
X120032970Y-101245295D02*
X120080589Y-101150057D01*
X120080589Y-101150057D02*
X120128208Y-101102438D01*
X120128208Y-101102438D02*
X120223446Y-101054819D01*
X120223446Y-101054819D02*
X120461541Y-101054819D01*
X120461541Y-101054819D02*
X120604398Y-101102438D01*
X121223446Y-101054819D02*
X121413922Y-101054819D01*
X121413922Y-101054819D02*
X121509160Y-101102438D01*
X121509160Y-101102438D02*
X121604398Y-101197676D01*
X121604398Y-101197676D02*
X121652017Y-101388152D01*
X121652017Y-101388152D02*
X121652017Y-101721485D01*
X121652017Y-101721485D02*
X121604398Y-101911961D01*
X121604398Y-101911961D02*
X121509160Y-102007200D01*
X121509160Y-102007200D02*
X121413922Y-102054819D01*
X121413922Y-102054819D02*
X121223446Y-102054819D01*
X121223446Y-102054819D02*
X121128208Y-102007200D01*
X121128208Y-102007200D02*
X121032970Y-101911961D01*
X121032970Y-101911961D02*
X120985351Y-101721485D01*
X120985351Y-101721485D02*
X120985351Y-101388152D01*
X120985351Y-101388152D02*
X121032970Y-101197676D01*
X121032970Y-101197676D02*
X121128208Y-101102438D01*
X121128208Y-101102438D02*
X121223446Y-101054819D01*
X109556779Y-104594819D02*
X109556779Y-103594819D01*
X109556779Y-103594819D02*
X109937731Y-103594819D01*
X109937731Y-103594819D02*
X110032969Y-103642438D01*
X110032969Y-103642438D02*
X110080588Y-103690057D01*
X110080588Y-103690057D02*
X110128207Y-103785295D01*
X110128207Y-103785295D02*
X110128207Y-103928152D01*
X110128207Y-103928152D02*
X110080588Y-104023390D01*
X110080588Y-104023390D02*
X110032969Y-104071009D01*
X110032969Y-104071009D02*
X109937731Y-104118628D01*
X109937731Y-104118628D02*
X109556779Y-104118628D01*
X110509160Y-104309104D02*
X110985350Y-104309104D01*
X110413922Y-104594819D02*
X110747255Y-103594819D01*
X110747255Y-103594819D02*
X111080588Y-104594819D01*
X111842493Y-103928152D02*
X111842493Y-104594819D01*
X111604398Y-103547200D02*
X111366303Y-104261485D01*
X111366303Y-104261485D02*
X111985350Y-104261485D01*
X113080589Y-104309104D02*
X113556779Y-104309104D01*
X112985351Y-104594819D02*
X113318684Y-103594819D01*
X113318684Y-103594819D02*
X113652017Y-104594819D01*
X114556779Y-104499580D02*
X114509160Y-104547200D01*
X114509160Y-104547200D02*
X114366303Y-104594819D01*
X114366303Y-104594819D02*
X114271065Y-104594819D01*
X114271065Y-104594819D02*
X114128208Y-104547200D01*
X114128208Y-104547200D02*
X114032970Y-104451961D01*
X114032970Y-104451961D02*
X113985351Y-104356723D01*
X113985351Y-104356723D02*
X113937732Y-104166247D01*
X113937732Y-104166247D02*
X113937732Y-104023390D01*
X113937732Y-104023390D02*
X113985351Y-103832914D01*
X113985351Y-103832914D02*
X114032970Y-103737676D01*
X114032970Y-103737676D02*
X114128208Y-103642438D01*
X114128208Y-103642438D02*
X114271065Y-103594819D01*
X114271065Y-103594819D02*
X114366303Y-103594819D01*
X114366303Y-103594819D02*
X114509160Y-103642438D01*
X114509160Y-103642438D02*
X114556779Y-103690057D01*
X115556779Y-104499580D02*
X115509160Y-104547200D01*
X115509160Y-104547200D02*
X115366303Y-104594819D01*
X115366303Y-104594819D02*
X115271065Y-104594819D01*
X115271065Y-104594819D02*
X115128208Y-104547200D01*
X115128208Y-104547200D02*
X115032970Y-104451961D01*
X115032970Y-104451961D02*
X114985351Y-104356723D01*
X114985351Y-104356723D02*
X114937732Y-104166247D01*
X114937732Y-104166247D02*
X114937732Y-104023390D01*
X114937732Y-104023390D02*
X114985351Y-103832914D01*
X114985351Y-103832914D02*
X115032970Y-103737676D01*
X115032970Y-103737676D02*
X115128208Y-103642438D01*
X115128208Y-103642438D02*
X115271065Y-103594819D01*
X115271065Y-103594819D02*
X115366303Y-103594819D01*
X115366303Y-103594819D02*
X115509160Y-103642438D01*
X115509160Y-103642438D02*
X115556779Y-103690057D01*
X115985351Y-104071009D02*
X116318684Y-104071009D01*
X116461541Y-104594819D02*
X115985351Y-104594819D01*
X115985351Y-104594819D02*
X115985351Y-103594819D01*
X115985351Y-103594819D02*
X116461541Y-103594819D01*
X117366303Y-104594819D02*
X116890113Y-104594819D01*
X116890113Y-104594819D02*
X116890113Y-103594819D01*
X117461542Y-104690057D02*
X118223446Y-104690057D01*
X118413923Y-104547200D02*
X118556780Y-104594819D01*
X118556780Y-104594819D02*
X118794875Y-104594819D01*
X118794875Y-104594819D02*
X118890113Y-104547200D01*
X118890113Y-104547200D02*
X118937732Y-104499580D01*
X118937732Y-104499580D02*
X118985351Y-104404342D01*
X118985351Y-104404342D02*
X118985351Y-104309104D01*
X118985351Y-104309104D02*
X118937732Y-104213866D01*
X118937732Y-104213866D02*
X118890113Y-104166247D01*
X118890113Y-104166247D02*
X118794875Y-104118628D01*
X118794875Y-104118628D02*
X118604399Y-104071009D01*
X118604399Y-104071009D02*
X118509161Y-104023390D01*
X118509161Y-104023390D02*
X118461542Y-103975771D01*
X118461542Y-103975771D02*
X118413923Y-103880533D01*
X118413923Y-103880533D02*
X118413923Y-103785295D01*
X118413923Y-103785295D02*
X118461542Y-103690057D01*
X118461542Y-103690057D02*
X118509161Y-103642438D01*
X118509161Y-103642438D02*
X118604399Y-103594819D01*
X118604399Y-103594819D02*
X118842494Y-103594819D01*
X118842494Y-103594819D02*
X118985351Y-103642438D01*
X119985351Y-104499580D02*
X119937732Y-104547200D01*
X119937732Y-104547200D02*
X119794875Y-104594819D01*
X119794875Y-104594819D02*
X119699637Y-104594819D01*
X119699637Y-104594819D02*
X119556780Y-104547200D01*
X119556780Y-104547200D02*
X119461542Y-104451961D01*
X119461542Y-104451961D02*
X119413923Y-104356723D01*
X119413923Y-104356723D02*
X119366304Y-104166247D01*
X119366304Y-104166247D02*
X119366304Y-104023390D01*
X119366304Y-104023390D02*
X119413923Y-103832914D01*
X119413923Y-103832914D02*
X119461542Y-103737676D01*
X119461542Y-103737676D02*
X119556780Y-103642438D01*
X119556780Y-103642438D02*
X119699637Y-103594819D01*
X119699637Y-103594819D02*
X119794875Y-103594819D01*
X119794875Y-103594819D02*
X119937732Y-103642438D01*
X119937732Y-103642438D02*
X119985351Y-103690057D01*
X120413923Y-104594819D02*
X120413923Y-103594819D01*
X120985351Y-104594819D02*
X120556780Y-104023390D01*
X120985351Y-103594819D02*
X120413923Y-104166247D01*
X109556779Y-107134819D02*
X109556779Y-106134819D01*
X109556779Y-106134819D02*
X109937731Y-106134819D01*
X109937731Y-106134819D02*
X110032969Y-106182438D01*
X110032969Y-106182438D02*
X110080588Y-106230057D01*
X110080588Y-106230057D02*
X110128207Y-106325295D01*
X110128207Y-106325295D02*
X110128207Y-106468152D01*
X110128207Y-106468152D02*
X110080588Y-106563390D01*
X110080588Y-106563390D02*
X110032969Y-106611009D01*
X110032969Y-106611009D02*
X109937731Y-106658628D01*
X109937731Y-106658628D02*
X109556779Y-106658628D01*
X110509160Y-106849104D02*
X110985350Y-106849104D01*
X110413922Y-107134819D02*
X110747255Y-106134819D01*
X110747255Y-106134819D02*
X111080588Y-107134819D01*
X111890112Y-106134819D02*
X111413922Y-106134819D01*
X111413922Y-106134819D02*
X111366303Y-106611009D01*
X111366303Y-106611009D02*
X111413922Y-106563390D01*
X111413922Y-106563390D02*
X111509160Y-106515771D01*
X111509160Y-106515771D02*
X111747255Y-106515771D01*
X111747255Y-106515771D02*
X111842493Y-106563390D01*
X111842493Y-106563390D02*
X111890112Y-106611009D01*
X111890112Y-106611009D02*
X111937731Y-106706247D01*
X111937731Y-106706247D02*
X111937731Y-106944342D01*
X111937731Y-106944342D02*
X111890112Y-107039580D01*
X111890112Y-107039580D02*
X111842493Y-107087200D01*
X111842493Y-107087200D02*
X111747255Y-107134819D01*
X111747255Y-107134819D02*
X111509160Y-107134819D01*
X111509160Y-107134819D02*
X111413922Y-107087200D01*
X111413922Y-107087200D02*
X111366303Y-107039580D01*
X113604398Y-107134819D02*
X113128208Y-107134819D01*
X113128208Y-107134819D02*
X113128208Y-106134819D01*
X113937732Y-107134819D02*
X113937732Y-106134819D01*
X113937732Y-106134819D02*
X114318684Y-106134819D01*
X114318684Y-106134819D02*
X114413922Y-106182438D01*
X114413922Y-106182438D02*
X114461541Y-106230057D01*
X114461541Y-106230057D02*
X114509160Y-106325295D01*
X114509160Y-106325295D02*
X114509160Y-106468152D01*
X114509160Y-106468152D02*
X114461541Y-106563390D01*
X114461541Y-106563390D02*
X114413922Y-106611009D01*
X114413922Y-106611009D02*
X114318684Y-106658628D01*
X114318684Y-106658628D02*
X113937732Y-106658628D01*
X114890113Y-107087200D02*
X115032970Y-107134819D01*
X115032970Y-107134819D02*
X115271065Y-107134819D01*
X115271065Y-107134819D02*
X115366303Y-107087200D01*
X115366303Y-107087200D02*
X115413922Y-107039580D01*
X115413922Y-107039580D02*
X115461541Y-106944342D01*
X115461541Y-106944342D02*
X115461541Y-106849104D01*
X115461541Y-106849104D02*
X115413922Y-106753866D01*
X115413922Y-106753866D02*
X115366303Y-106706247D01*
X115366303Y-106706247D02*
X115271065Y-106658628D01*
X115271065Y-106658628D02*
X115080589Y-106611009D01*
X115080589Y-106611009D02*
X114985351Y-106563390D01*
X114985351Y-106563390D02*
X114937732Y-106515771D01*
X114937732Y-106515771D02*
X114890113Y-106420533D01*
X114890113Y-106420533D02*
X114890113Y-106325295D01*
X114890113Y-106325295D02*
X114937732Y-106230057D01*
X114937732Y-106230057D02*
X114985351Y-106182438D01*
X114985351Y-106182438D02*
X115080589Y-106134819D01*
X115080589Y-106134819D02*
X115318684Y-106134819D01*
X115318684Y-106134819D02*
X115461541Y-106182438D01*
X115652018Y-107230057D02*
X116413922Y-107230057D01*
X116604399Y-107087200D02*
X116747256Y-107134819D01*
X116747256Y-107134819D02*
X116985351Y-107134819D01*
X116985351Y-107134819D02*
X117080589Y-107087200D01*
X117080589Y-107087200D02*
X117128208Y-107039580D01*
X117128208Y-107039580D02*
X117175827Y-106944342D01*
X117175827Y-106944342D02*
X117175827Y-106849104D01*
X117175827Y-106849104D02*
X117128208Y-106753866D01*
X117128208Y-106753866D02*
X117080589Y-106706247D01*
X117080589Y-106706247D02*
X116985351Y-106658628D01*
X116985351Y-106658628D02*
X116794875Y-106611009D01*
X116794875Y-106611009D02*
X116699637Y-106563390D01*
X116699637Y-106563390D02*
X116652018Y-106515771D01*
X116652018Y-106515771D02*
X116604399Y-106420533D01*
X116604399Y-106420533D02*
X116604399Y-106325295D01*
X116604399Y-106325295D02*
X116652018Y-106230057D01*
X116652018Y-106230057D02*
X116699637Y-106182438D01*
X116699637Y-106182438D02*
X116794875Y-106134819D01*
X116794875Y-106134819D02*
X117032970Y-106134819D01*
X117032970Y-106134819D02*
X117175827Y-106182438D01*
X118175827Y-107039580D02*
X118128208Y-107087200D01*
X118128208Y-107087200D02*
X117985351Y-107134819D01*
X117985351Y-107134819D02*
X117890113Y-107134819D01*
X117890113Y-107134819D02*
X117747256Y-107087200D01*
X117747256Y-107087200D02*
X117652018Y-106991961D01*
X117652018Y-106991961D02*
X117604399Y-106896723D01*
X117604399Y-106896723D02*
X117556780Y-106706247D01*
X117556780Y-106706247D02*
X117556780Y-106563390D01*
X117556780Y-106563390D02*
X117604399Y-106372914D01*
X117604399Y-106372914D02*
X117652018Y-106277676D01*
X117652018Y-106277676D02*
X117747256Y-106182438D01*
X117747256Y-106182438D02*
X117890113Y-106134819D01*
X117890113Y-106134819D02*
X117985351Y-106134819D01*
X117985351Y-106134819D02*
X118128208Y-106182438D01*
X118128208Y-106182438D02*
X118175827Y-106230057D01*
X118604399Y-107134819D02*
X118604399Y-106134819D01*
X119175827Y-107134819D02*
X118747256Y-106563390D01*
X119175827Y-106134819D02*
X118604399Y-106706247D01*
X109556779Y-109674819D02*
X109556779Y-108674819D01*
X109556779Y-108674819D02*
X109937731Y-108674819D01*
X109937731Y-108674819D02*
X110032969Y-108722438D01*
X110032969Y-108722438D02*
X110080588Y-108770057D01*
X110080588Y-108770057D02*
X110128207Y-108865295D01*
X110128207Y-108865295D02*
X110128207Y-109008152D01*
X110128207Y-109008152D02*
X110080588Y-109103390D01*
X110080588Y-109103390D02*
X110032969Y-109151009D01*
X110032969Y-109151009D02*
X109937731Y-109198628D01*
X109937731Y-109198628D02*
X109556779Y-109198628D01*
X110509160Y-109389104D02*
X110985350Y-109389104D01*
X110413922Y-109674819D02*
X110747255Y-108674819D01*
X110747255Y-108674819D02*
X111080588Y-109674819D01*
X111842493Y-108674819D02*
X111652017Y-108674819D01*
X111652017Y-108674819D02*
X111556779Y-108722438D01*
X111556779Y-108722438D02*
X111509160Y-108770057D01*
X111509160Y-108770057D02*
X111413922Y-108912914D01*
X111413922Y-108912914D02*
X111366303Y-109103390D01*
X111366303Y-109103390D02*
X111366303Y-109484342D01*
X111366303Y-109484342D02*
X111413922Y-109579580D01*
X111413922Y-109579580D02*
X111461541Y-109627200D01*
X111461541Y-109627200D02*
X111556779Y-109674819D01*
X111556779Y-109674819D02*
X111747255Y-109674819D01*
X111747255Y-109674819D02*
X111842493Y-109627200D01*
X111842493Y-109627200D02*
X111890112Y-109579580D01*
X111890112Y-109579580D02*
X111937731Y-109484342D01*
X111937731Y-109484342D02*
X111937731Y-109246247D01*
X111937731Y-109246247D02*
X111890112Y-109151009D01*
X111890112Y-109151009D02*
X111842493Y-109103390D01*
X111842493Y-109103390D02*
X111747255Y-109055771D01*
X111747255Y-109055771D02*
X111556779Y-109055771D01*
X111556779Y-109055771D02*
X111461541Y-109103390D01*
X111461541Y-109103390D02*
X111413922Y-109151009D01*
X111413922Y-109151009D02*
X111366303Y-109246247D01*
X113604398Y-109674819D02*
X113128208Y-109674819D01*
X113128208Y-109674819D02*
X113128208Y-108674819D01*
X113937732Y-109674819D02*
X113937732Y-108674819D01*
X113937732Y-108674819D02*
X114318684Y-108674819D01*
X114318684Y-108674819D02*
X114413922Y-108722438D01*
X114413922Y-108722438D02*
X114461541Y-108770057D01*
X114461541Y-108770057D02*
X114509160Y-108865295D01*
X114509160Y-108865295D02*
X114509160Y-109008152D01*
X114509160Y-109008152D02*
X114461541Y-109103390D01*
X114461541Y-109103390D02*
X114413922Y-109151009D01*
X114413922Y-109151009D02*
X114318684Y-109198628D01*
X114318684Y-109198628D02*
X113937732Y-109198628D01*
X114890113Y-109627200D02*
X115032970Y-109674819D01*
X115032970Y-109674819D02*
X115271065Y-109674819D01*
X115271065Y-109674819D02*
X115366303Y-109627200D01*
X115366303Y-109627200D02*
X115413922Y-109579580D01*
X115413922Y-109579580D02*
X115461541Y-109484342D01*
X115461541Y-109484342D02*
X115461541Y-109389104D01*
X115461541Y-109389104D02*
X115413922Y-109293866D01*
X115413922Y-109293866D02*
X115366303Y-109246247D01*
X115366303Y-109246247D02*
X115271065Y-109198628D01*
X115271065Y-109198628D02*
X115080589Y-109151009D01*
X115080589Y-109151009D02*
X114985351Y-109103390D01*
X114985351Y-109103390D02*
X114937732Y-109055771D01*
X114937732Y-109055771D02*
X114890113Y-108960533D01*
X114890113Y-108960533D02*
X114890113Y-108865295D01*
X114890113Y-108865295D02*
X114937732Y-108770057D01*
X114937732Y-108770057D02*
X114985351Y-108722438D01*
X114985351Y-108722438D02*
X115080589Y-108674819D01*
X115080589Y-108674819D02*
X115318684Y-108674819D01*
X115318684Y-108674819D02*
X115461541Y-108722438D01*
X115652018Y-109770057D02*
X116413922Y-109770057D01*
X117223446Y-109674819D02*
X116890113Y-109198628D01*
X116652018Y-109674819D02*
X116652018Y-108674819D01*
X116652018Y-108674819D02*
X117032970Y-108674819D01*
X117032970Y-108674819D02*
X117128208Y-108722438D01*
X117128208Y-108722438D02*
X117175827Y-108770057D01*
X117175827Y-108770057D02*
X117223446Y-108865295D01*
X117223446Y-108865295D02*
X117223446Y-109008152D01*
X117223446Y-109008152D02*
X117175827Y-109103390D01*
X117175827Y-109103390D02*
X117128208Y-109151009D01*
X117128208Y-109151009D02*
X117032970Y-109198628D01*
X117032970Y-109198628D02*
X116652018Y-109198628D01*
X117652018Y-109674819D02*
X117652018Y-108674819D01*
X117652018Y-108674819D02*
X117890113Y-108674819D01*
X117890113Y-108674819D02*
X118032970Y-108722438D01*
X118032970Y-108722438D02*
X118128208Y-108817676D01*
X118128208Y-108817676D02*
X118175827Y-108912914D01*
X118175827Y-108912914D02*
X118223446Y-109103390D01*
X118223446Y-109103390D02*
X118223446Y-109246247D01*
X118223446Y-109246247D02*
X118175827Y-109436723D01*
X118175827Y-109436723D02*
X118128208Y-109531961D01*
X118128208Y-109531961D02*
X118032970Y-109627200D01*
X118032970Y-109627200D02*
X117890113Y-109674819D01*
X117890113Y-109674819D02*
X117652018Y-109674819D01*
X118842494Y-109198628D02*
X118842494Y-109674819D01*
X118509161Y-108674819D02*
X118842494Y-109198628D01*
X118842494Y-109198628D02*
X119175827Y-108674819D01*
X109556779Y-112214819D02*
X109556779Y-111214819D01*
X109556779Y-111214819D02*
X109937731Y-111214819D01*
X109937731Y-111214819D02*
X110032969Y-111262438D01*
X110032969Y-111262438D02*
X110080588Y-111310057D01*
X110080588Y-111310057D02*
X110128207Y-111405295D01*
X110128207Y-111405295D02*
X110128207Y-111548152D01*
X110128207Y-111548152D02*
X110080588Y-111643390D01*
X110080588Y-111643390D02*
X110032969Y-111691009D01*
X110032969Y-111691009D02*
X109937731Y-111738628D01*
X109937731Y-111738628D02*
X109556779Y-111738628D01*
X110509160Y-111929104D02*
X110985350Y-111929104D01*
X110413922Y-112214819D02*
X110747255Y-111214819D01*
X110747255Y-111214819D02*
X111080588Y-112214819D01*
X111318684Y-111214819D02*
X111985350Y-111214819D01*
X111985350Y-111214819D02*
X111556779Y-112214819D01*
X109556779Y-114754819D02*
X109556779Y-113754819D01*
X109556779Y-113754819D02*
X109937731Y-113754819D01*
X109937731Y-113754819D02*
X110032969Y-113802438D01*
X110032969Y-113802438D02*
X110080588Y-113850057D01*
X110080588Y-113850057D02*
X110128207Y-113945295D01*
X110128207Y-113945295D02*
X110128207Y-114088152D01*
X110128207Y-114088152D02*
X110080588Y-114183390D01*
X110080588Y-114183390D02*
X110032969Y-114231009D01*
X110032969Y-114231009D02*
X109937731Y-114278628D01*
X109937731Y-114278628D02*
X109556779Y-114278628D01*
X110890112Y-114231009D02*
X111032969Y-114278628D01*
X111032969Y-114278628D02*
X111080588Y-114326247D01*
X111080588Y-114326247D02*
X111128207Y-114421485D01*
X111128207Y-114421485D02*
X111128207Y-114564342D01*
X111128207Y-114564342D02*
X111080588Y-114659580D01*
X111080588Y-114659580D02*
X111032969Y-114707200D01*
X111032969Y-114707200D02*
X110937731Y-114754819D01*
X110937731Y-114754819D02*
X110556779Y-114754819D01*
X110556779Y-114754819D02*
X110556779Y-113754819D01*
X110556779Y-113754819D02*
X110890112Y-113754819D01*
X110890112Y-113754819D02*
X110985350Y-113802438D01*
X110985350Y-113802438D02*
X111032969Y-113850057D01*
X111032969Y-113850057D02*
X111080588Y-113945295D01*
X111080588Y-113945295D02*
X111080588Y-114040533D01*
X111080588Y-114040533D02*
X111032969Y-114135771D01*
X111032969Y-114135771D02*
X110985350Y-114183390D01*
X110985350Y-114183390D02*
X110890112Y-114231009D01*
X110890112Y-114231009D02*
X110556779Y-114231009D01*
X111747255Y-113754819D02*
X111842493Y-113754819D01*
X111842493Y-113754819D02*
X111937731Y-113802438D01*
X111937731Y-113802438D02*
X111985350Y-113850057D01*
X111985350Y-113850057D02*
X112032969Y-113945295D01*
X112032969Y-113945295D02*
X112080588Y-114135771D01*
X112080588Y-114135771D02*
X112080588Y-114373866D01*
X112080588Y-114373866D02*
X112032969Y-114564342D01*
X112032969Y-114564342D02*
X111985350Y-114659580D01*
X111985350Y-114659580D02*
X111937731Y-114707200D01*
X111937731Y-114707200D02*
X111842493Y-114754819D01*
X111842493Y-114754819D02*
X111747255Y-114754819D01*
X111747255Y-114754819D02*
X111652017Y-114707200D01*
X111652017Y-114707200D02*
X111604398Y-114659580D01*
X111604398Y-114659580D02*
X111556779Y-114564342D01*
X111556779Y-114564342D02*
X111509160Y-114373866D01*
X111509160Y-114373866D02*
X111509160Y-114135771D01*
X111509160Y-114135771D02*
X111556779Y-113945295D01*
X111556779Y-113945295D02*
X111604398Y-113850057D01*
X111604398Y-113850057D02*
X111652017Y-113802438D01*
X111652017Y-113802438D02*
X111747255Y-113754819D01*
X113747255Y-114754819D02*
X113271065Y-114754819D01*
X113271065Y-114754819D02*
X113271065Y-113754819D01*
X114080589Y-114754819D02*
X114080589Y-113754819D01*
X114080589Y-113754819D02*
X114461541Y-113754819D01*
X114461541Y-113754819D02*
X114556779Y-113802438D01*
X114556779Y-113802438D02*
X114604398Y-113850057D01*
X114604398Y-113850057D02*
X114652017Y-113945295D01*
X114652017Y-113945295D02*
X114652017Y-114088152D01*
X114652017Y-114088152D02*
X114604398Y-114183390D01*
X114604398Y-114183390D02*
X114556779Y-114231009D01*
X114556779Y-114231009D02*
X114461541Y-114278628D01*
X114461541Y-114278628D02*
X114080589Y-114278628D01*
X115032970Y-114707200D02*
X115175827Y-114754819D01*
X115175827Y-114754819D02*
X115413922Y-114754819D01*
X115413922Y-114754819D02*
X115509160Y-114707200D01*
X115509160Y-114707200D02*
X115556779Y-114659580D01*
X115556779Y-114659580D02*
X115604398Y-114564342D01*
X115604398Y-114564342D02*
X115604398Y-114469104D01*
X115604398Y-114469104D02*
X115556779Y-114373866D01*
X115556779Y-114373866D02*
X115509160Y-114326247D01*
X115509160Y-114326247D02*
X115413922Y-114278628D01*
X115413922Y-114278628D02*
X115223446Y-114231009D01*
X115223446Y-114231009D02*
X115128208Y-114183390D01*
X115128208Y-114183390D02*
X115080589Y-114135771D01*
X115080589Y-114135771D02*
X115032970Y-114040533D01*
X115032970Y-114040533D02*
X115032970Y-113945295D01*
X115032970Y-113945295D02*
X115080589Y-113850057D01*
X115080589Y-113850057D02*
X115128208Y-113802438D01*
X115128208Y-113802438D02*
X115223446Y-113754819D01*
X115223446Y-113754819D02*
X115461541Y-113754819D01*
X115461541Y-113754819D02*
X115604398Y-113802438D01*
X115794875Y-114850057D02*
X116556779Y-114850057D01*
X117366303Y-114659580D02*
X117318684Y-114707200D01*
X117318684Y-114707200D02*
X117175827Y-114754819D01*
X117175827Y-114754819D02*
X117080589Y-114754819D01*
X117080589Y-114754819D02*
X116937732Y-114707200D01*
X116937732Y-114707200D02*
X116842494Y-114611961D01*
X116842494Y-114611961D02*
X116794875Y-114516723D01*
X116794875Y-114516723D02*
X116747256Y-114326247D01*
X116747256Y-114326247D02*
X116747256Y-114183390D01*
X116747256Y-114183390D02*
X116794875Y-113992914D01*
X116794875Y-113992914D02*
X116842494Y-113897676D01*
X116842494Y-113897676D02*
X116937732Y-113802438D01*
X116937732Y-113802438D02*
X117080589Y-113754819D01*
X117080589Y-113754819D02*
X117175827Y-113754819D01*
X117175827Y-113754819D02*
X117318684Y-113802438D01*
X117318684Y-113802438D02*
X117366303Y-113850057D01*
X117747256Y-114707200D02*
X117890113Y-114754819D01*
X117890113Y-114754819D02*
X118128208Y-114754819D01*
X118128208Y-114754819D02*
X118223446Y-114707200D01*
X118223446Y-114707200D02*
X118271065Y-114659580D01*
X118271065Y-114659580D02*
X118318684Y-114564342D01*
X118318684Y-114564342D02*
X118318684Y-114469104D01*
X118318684Y-114469104D02*
X118271065Y-114373866D01*
X118271065Y-114373866D02*
X118223446Y-114326247D01*
X118223446Y-114326247D02*
X118128208Y-114278628D01*
X118128208Y-114278628D02*
X117937732Y-114231009D01*
X117937732Y-114231009D02*
X117842494Y-114183390D01*
X117842494Y-114183390D02*
X117794875Y-114135771D01*
X117794875Y-114135771D02*
X117747256Y-114040533D01*
X117747256Y-114040533D02*
X117747256Y-113945295D01*
X117747256Y-113945295D02*
X117794875Y-113850057D01*
X117794875Y-113850057D02*
X117842494Y-113802438D01*
X117842494Y-113802438D02*
X117937732Y-113754819D01*
X117937732Y-113754819D02*
X118175827Y-113754819D01*
X118175827Y-113754819D02*
X118318684Y-113802438D01*
X110080588Y-116342438D02*
X109985350Y-116294819D01*
X109985350Y-116294819D02*
X109842493Y-116294819D01*
X109842493Y-116294819D02*
X109699636Y-116342438D01*
X109699636Y-116342438D02*
X109604398Y-116437676D01*
X109604398Y-116437676D02*
X109556779Y-116532914D01*
X109556779Y-116532914D02*
X109509160Y-116723390D01*
X109509160Y-116723390D02*
X109509160Y-116866247D01*
X109509160Y-116866247D02*
X109556779Y-117056723D01*
X109556779Y-117056723D02*
X109604398Y-117151961D01*
X109604398Y-117151961D02*
X109699636Y-117247200D01*
X109699636Y-117247200D02*
X109842493Y-117294819D01*
X109842493Y-117294819D02*
X109937731Y-117294819D01*
X109937731Y-117294819D02*
X110080588Y-117247200D01*
X110080588Y-117247200D02*
X110128207Y-117199580D01*
X110128207Y-117199580D02*
X110128207Y-116866247D01*
X110128207Y-116866247D02*
X109937731Y-116866247D01*
X110556779Y-117294819D02*
X110556779Y-116294819D01*
X110556779Y-116294819D02*
X111128207Y-117294819D01*
X111128207Y-117294819D02*
X111128207Y-116294819D01*
X111604398Y-117294819D02*
X111604398Y-116294819D01*
X111604398Y-116294819D02*
X111842493Y-116294819D01*
X111842493Y-116294819D02*
X111985350Y-116342438D01*
X111985350Y-116342438D02*
X112080588Y-116437676D01*
X112080588Y-116437676D02*
X112128207Y-116532914D01*
X112128207Y-116532914D02*
X112175826Y-116723390D01*
X112175826Y-116723390D02*
X112175826Y-116866247D01*
X112175826Y-116866247D02*
X112128207Y-117056723D01*
X112128207Y-117056723D02*
X112080588Y-117151961D01*
X112080588Y-117151961D02*
X111985350Y-117247200D01*
X111985350Y-117247200D02*
X111842493Y-117294819D01*
X111842493Y-117294819D02*
X111604398Y-117294819D01*
X109601779Y-81781819D02*
X109601779Y-80781819D01*
X109601779Y-80781819D02*
X109982731Y-80781819D01*
X109982731Y-80781819D02*
X110077969Y-80829438D01*
X110077969Y-80829438D02*
X110125588Y-80877057D01*
X110125588Y-80877057D02*
X110173207Y-80972295D01*
X110173207Y-80972295D02*
X110173207Y-81115152D01*
X110173207Y-81115152D02*
X110125588Y-81210390D01*
X110125588Y-81210390D02*
X110077969Y-81258009D01*
X110077969Y-81258009D02*
X109982731Y-81305628D01*
X109982731Y-81305628D02*
X109601779Y-81305628D01*
X110935112Y-81258009D02*
X111077969Y-81305628D01*
X111077969Y-81305628D02*
X111125588Y-81353247D01*
X111125588Y-81353247D02*
X111173207Y-81448485D01*
X111173207Y-81448485D02*
X111173207Y-81591342D01*
X111173207Y-81591342D02*
X111125588Y-81686580D01*
X111125588Y-81686580D02*
X111077969Y-81734200D01*
X111077969Y-81734200D02*
X110982731Y-81781819D01*
X110982731Y-81781819D02*
X110601779Y-81781819D01*
X110601779Y-81781819D02*
X110601779Y-80781819D01*
X110601779Y-80781819D02*
X110935112Y-80781819D01*
X110935112Y-80781819D02*
X111030350Y-80829438D01*
X111030350Y-80829438D02*
X111077969Y-80877057D01*
X111077969Y-80877057D02*
X111125588Y-80972295D01*
X111125588Y-80972295D02*
X111125588Y-81067533D01*
X111125588Y-81067533D02*
X111077969Y-81162771D01*
X111077969Y-81162771D02*
X111030350Y-81210390D01*
X111030350Y-81210390D02*
X110935112Y-81258009D01*
X110935112Y-81258009D02*
X110601779Y-81258009D01*
X111506541Y-80781819D02*
X112173207Y-80781819D01*
X112173207Y-80781819D02*
X111744636Y-81781819D01*
X109651779Y-84331819D02*
X109651779Y-83331819D01*
X109651779Y-83331819D02*
X110032731Y-83331819D01*
X110032731Y-83331819D02*
X110127969Y-83379438D01*
X110127969Y-83379438D02*
X110175588Y-83427057D01*
X110175588Y-83427057D02*
X110223207Y-83522295D01*
X110223207Y-83522295D02*
X110223207Y-83665152D01*
X110223207Y-83665152D02*
X110175588Y-83760390D01*
X110175588Y-83760390D02*
X110127969Y-83808009D01*
X110127969Y-83808009D02*
X110032731Y-83855628D01*
X110032731Y-83855628D02*
X109651779Y-83855628D01*
X110985112Y-83808009D02*
X111127969Y-83855628D01*
X111127969Y-83855628D02*
X111175588Y-83903247D01*
X111175588Y-83903247D02*
X111223207Y-83998485D01*
X111223207Y-83998485D02*
X111223207Y-84141342D01*
X111223207Y-84141342D02*
X111175588Y-84236580D01*
X111175588Y-84236580D02*
X111127969Y-84284200D01*
X111127969Y-84284200D02*
X111032731Y-84331819D01*
X111032731Y-84331819D02*
X110651779Y-84331819D01*
X110651779Y-84331819D02*
X110651779Y-83331819D01*
X110651779Y-83331819D02*
X110985112Y-83331819D01*
X110985112Y-83331819D02*
X111080350Y-83379438D01*
X111080350Y-83379438D02*
X111127969Y-83427057D01*
X111127969Y-83427057D02*
X111175588Y-83522295D01*
X111175588Y-83522295D02*
X111175588Y-83617533D01*
X111175588Y-83617533D02*
X111127969Y-83712771D01*
X111127969Y-83712771D02*
X111080350Y-83760390D01*
X111080350Y-83760390D02*
X110985112Y-83808009D01*
X110985112Y-83808009D02*
X110651779Y-83808009D01*
X112080350Y-83331819D02*
X111889874Y-83331819D01*
X111889874Y-83331819D02*
X111794636Y-83379438D01*
X111794636Y-83379438D02*
X111747017Y-83427057D01*
X111747017Y-83427057D02*
X111651779Y-83569914D01*
X111651779Y-83569914D02*
X111604160Y-83760390D01*
X111604160Y-83760390D02*
X111604160Y-84141342D01*
X111604160Y-84141342D02*
X111651779Y-84236580D01*
X111651779Y-84236580D02*
X111699398Y-84284200D01*
X111699398Y-84284200D02*
X111794636Y-84331819D01*
X111794636Y-84331819D02*
X111985112Y-84331819D01*
X111985112Y-84331819D02*
X112080350Y-84284200D01*
X112080350Y-84284200D02*
X112127969Y-84236580D01*
X112127969Y-84236580D02*
X112175588Y-84141342D01*
X112175588Y-84141342D02*
X112175588Y-83903247D01*
X112175588Y-83903247D02*
X112127969Y-83808009D01*
X112127969Y-83808009D02*
X112080350Y-83760390D01*
X112080350Y-83760390D02*
X111985112Y-83712771D01*
X111985112Y-83712771D02*
X111794636Y-83712771D01*
X111794636Y-83712771D02*
X111699398Y-83760390D01*
X111699398Y-83760390D02*
X111651779Y-83808009D01*
X111651779Y-83808009D02*
X111604160Y-83903247D01*
X109423696Y-90894819D02*
X109995124Y-90894819D01*
X109709410Y-91894819D02*
X109709410Y-90894819D01*
X110280839Y-91609104D02*
X110757029Y-91609104D01*
X110185601Y-91894819D02*
X110518934Y-90894819D01*
X110518934Y-90894819D02*
X110852267Y-91894819D01*
X111709410Y-90942438D02*
X111614172Y-90894819D01*
X111614172Y-90894819D02*
X111471315Y-90894819D01*
X111471315Y-90894819D02*
X111328458Y-90942438D01*
X111328458Y-90942438D02*
X111233220Y-91037676D01*
X111233220Y-91037676D02*
X111185601Y-91132914D01*
X111185601Y-91132914D02*
X111137982Y-91323390D01*
X111137982Y-91323390D02*
X111137982Y-91466247D01*
X111137982Y-91466247D02*
X111185601Y-91656723D01*
X111185601Y-91656723D02*
X111233220Y-91751961D01*
X111233220Y-91751961D02*
X111328458Y-91847200D01*
X111328458Y-91847200D02*
X111471315Y-91894819D01*
X111471315Y-91894819D02*
X111566553Y-91894819D01*
X111566553Y-91894819D02*
X111709410Y-91847200D01*
X111709410Y-91847200D02*
X111757029Y-91799580D01*
X111757029Y-91799580D02*
X111757029Y-91466247D01*
X111757029Y-91466247D02*
X111566553Y-91466247D01*
X111947506Y-91990057D02*
X112709410Y-91990057D01*
X112852268Y-90894819D02*
X113471315Y-90894819D01*
X113471315Y-90894819D02*
X113137982Y-91275771D01*
X113137982Y-91275771D02*
X113280839Y-91275771D01*
X113280839Y-91275771D02*
X113376077Y-91323390D01*
X113376077Y-91323390D02*
X113423696Y-91371009D01*
X113423696Y-91371009D02*
X113471315Y-91466247D01*
X113471315Y-91466247D02*
X113471315Y-91704342D01*
X113471315Y-91704342D02*
X113423696Y-91799580D01*
X113423696Y-91799580D02*
X113376077Y-91847200D01*
X113376077Y-91847200D02*
X113280839Y-91894819D01*
X113280839Y-91894819D02*
X112995125Y-91894819D01*
X112995125Y-91894819D02*
X112899887Y-91847200D01*
X112899887Y-91847200D02*
X112852268Y-91799580D01*
X113757030Y-90894819D02*
X114090363Y-91894819D01*
X114090363Y-91894819D02*
X114423696Y-90894819D01*
X114661792Y-90894819D02*
X115280839Y-90894819D01*
X115280839Y-90894819D02*
X114947506Y-91275771D01*
X114947506Y-91275771D02*
X115090363Y-91275771D01*
X115090363Y-91275771D02*
X115185601Y-91323390D01*
X115185601Y-91323390D02*
X115233220Y-91371009D01*
X115233220Y-91371009D02*
X115280839Y-91466247D01*
X115280839Y-91466247D02*
X115280839Y-91704342D01*
X115280839Y-91704342D02*
X115233220Y-91799580D01*
X115233220Y-91799580D02*
X115185601Y-91847200D01*
X115185601Y-91847200D02*
X115090363Y-91894819D01*
X115090363Y-91894819D02*
X114804649Y-91894819D01*
X114804649Y-91894819D02*
X114709411Y-91847200D01*
X114709411Y-91847200D02*
X114661792Y-91799580D01*
X141173696Y-75654819D02*
X141745124Y-75654819D01*
X141459410Y-76654819D02*
X141459410Y-75654819D01*
X142030839Y-76369104D02*
X142507029Y-76369104D01*
X141935601Y-76654819D02*
X142268934Y-75654819D01*
X142268934Y-75654819D02*
X142602267Y-76654819D01*
X143459410Y-75702438D02*
X143364172Y-75654819D01*
X143364172Y-75654819D02*
X143221315Y-75654819D01*
X143221315Y-75654819D02*
X143078458Y-75702438D01*
X143078458Y-75702438D02*
X142983220Y-75797676D01*
X142983220Y-75797676D02*
X142935601Y-75892914D01*
X142935601Y-75892914D02*
X142887982Y-76083390D01*
X142887982Y-76083390D02*
X142887982Y-76226247D01*
X142887982Y-76226247D02*
X142935601Y-76416723D01*
X142935601Y-76416723D02*
X142983220Y-76511961D01*
X142983220Y-76511961D02*
X143078458Y-76607200D01*
X143078458Y-76607200D02*
X143221315Y-76654819D01*
X143221315Y-76654819D02*
X143316553Y-76654819D01*
X143316553Y-76654819D02*
X143459410Y-76607200D01*
X143459410Y-76607200D02*
X143507029Y-76559580D01*
X143507029Y-76559580D02*
X143507029Y-76226247D01*
X143507029Y-76226247D02*
X143316553Y-76226247D01*
X143697506Y-76750057D02*
X144459410Y-76750057D01*
X144602268Y-75654819D02*
X145221315Y-75654819D01*
X145221315Y-75654819D02*
X144887982Y-76035771D01*
X144887982Y-76035771D02*
X145030839Y-76035771D01*
X145030839Y-76035771D02*
X145126077Y-76083390D01*
X145126077Y-76083390D02*
X145173696Y-76131009D01*
X145173696Y-76131009D02*
X145221315Y-76226247D01*
X145221315Y-76226247D02*
X145221315Y-76464342D01*
X145221315Y-76464342D02*
X145173696Y-76559580D01*
X145173696Y-76559580D02*
X145126077Y-76607200D01*
X145126077Y-76607200D02*
X145030839Y-76654819D01*
X145030839Y-76654819D02*
X144745125Y-76654819D01*
X144745125Y-76654819D02*
X144649887Y-76607200D01*
X144649887Y-76607200D02*
X144602268Y-76559580D01*
X145507030Y-75654819D02*
X145840363Y-76654819D01*
X145840363Y-76654819D02*
X146173696Y-75654819D01*
X146411792Y-75654819D02*
X147030839Y-75654819D01*
X147030839Y-75654819D02*
X146697506Y-76035771D01*
X146697506Y-76035771D02*
X146840363Y-76035771D01*
X146840363Y-76035771D02*
X146935601Y-76083390D01*
X146935601Y-76083390D02*
X146983220Y-76131009D01*
X146983220Y-76131009D02*
X147030839Y-76226247D01*
X147030839Y-76226247D02*
X147030839Y-76464342D01*
X147030839Y-76464342D02*
X146983220Y-76559580D01*
X146983220Y-76559580D02*
X146935601Y-76607200D01*
X146935601Y-76607200D02*
X146840363Y-76654819D01*
X146840363Y-76654819D02*
X146554649Y-76654819D01*
X146554649Y-76654819D02*
X146459411Y-76607200D01*
X146459411Y-76607200D02*
X146411792Y-76559580D01*
X135745124Y-81449104D02*
X136221314Y-81449104D01*
X135649886Y-81734819D02*
X135983219Y-80734819D01*
X135983219Y-80734819D02*
X136316552Y-81734819D01*
X136507029Y-80734819D02*
X137078457Y-80734819D01*
X136792743Y-81734819D02*
X136792743Y-80734819D01*
X137364172Y-80830057D02*
X137411791Y-80782438D01*
X137411791Y-80782438D02*
X137507029Y-80734819D01*
X137507029Y-80734819D02*
X137745124Y-80734819D01*
X137745124Y-80734819D02*
X137840362Y-80782438D01*
X137840362Y-80782438D02*
X137887981Y-80830057D01*
X137887981Y-80830057D02*
X137935600Y-80925295D01*
X137935600Y-80925295D02*
X137935600Y-81020533D01*
X137935600Y-81020533D02*
X137887981Y-81163390D01*
X137887981Y-81163390D02*
X137316553Y-81734819D01*
X137316553Y-81734819D02*
X137935600Y-81734819D01*
X138840362Y-80734819D02*
X138364172Y-80734819D01*
X138364172Y-80734819D02*
X138316553Y-81211009D01*
X138316553Y-81211009D02*
X138364172Y-81163390D01*
X138364172Y-81163390D02*
X138459410Y-81115771D01*
X138459410Y-81115771D02*
X138697505Y-81115771D01*
X138697505Y-81115771D02*
X138792743Y-81163390D01*
X138792743Y-81163390D02*
X138840362Y-81211009D01*
X138840362Y-81211009D02*
X138887981Y-81306247D01*
X138887981Y-81306247D02*
X138887981Y-81544342D01*
X138887981Y-81544342D02*
X138840362Y-81639580D01*
X138840362Y-81639580D02*
X138792743Y-81687200D01*
X138792743Y-81687200D02*
X138697505Y-81734819D01*
X138697505Y-81734819D02*
X138459410Y-81734819D01*
X138459410Y-81734819D02*
X138364172Y-81687200D01*
X138364172Y-81687200D02*
X138316553Y-81639580D01*
X139078458Y-81830057D02*
X139840362Y-81830057D01*
X140078458Y-81068152D02*
X140078458Y-81734819D01*
X140078458Y-81163390D02*
X140126077Y-81115771D01*
X140126077Y-81115771D02*
X140221315Y-81068152D01*
X140221315Y-81068152D02*
X140364172Y-81068152D01*
X140364172Y-81068152D02*
X140459410Y-81115771D01*
X140459410Y-81115771D02*
X140507029Y-81211009D01*
X140507029Y-81211009D02*
X140507029Y-81734819D01*
X141554648Y-81639580D02*
X141507029Y-81687200D01*
X141507029Y-81687200D02*
X141364172Y-81734819D01*
X141364172Y-81734819D02*
X141268934Y-81734819D01*
X141268934Y-81734819D02*
X141126077Y-81687200D01*
X141126077Y-81687200D02*
X141030839Y-81591961D01*
X141030839Y-81591961D02*
X140983220Y-81496723D01*
X140983220Y-81496723D02*
X140935601Y-81306247D01*
X140935601Y-81306247D02*
X140935601Y-81163390D01*
X140935601Y-81163390D02*
X140983220Y-80972914D01*
X140983220Y-80972914D02*
X141030839Y-80877676D01*
X141030839Y-80877676D02*
X141126077Y-80782438D01*
X141126077Y-80782438D02*
X141268934Y-80734819D01*
X141268934Y-80734819D02*
X141364172Y-80734819D01*
X141364172Y-80734819D02*
X141507029Y-80782438D01*
X141507029Y-80782438D02*
X141554648Y-80830057D01*
X141935601Y-81687200D02*
X142078458Y-81734819D01*
X142078458Y-81734819D02*
X142316553Y-81734819D01*
X142316553Y-81734819D02*
X142411791Y-81687200D01*
X142411791Y-81687200D02*
X142459410Y-81639580D01*
X142459410Y-81639580D02*
X142507029Y-81544342D01*
X142507029Y-81544342D02*
X142507029Y-81449104D01*
X142507029Y-81449104D02*
X142459410Y-81353866D01*
X142459410Y-81353866D02*
X142411791Y-81306247D01*
X142411791Y-81306247D02*
X142316553Y-81258628D01*
X142316553Y-81258628D02*
X142126077Y-81211009D01*
X142126077Y-81211009D02*
X142030839Y-81163390D01*
X142030839Y-81163390D02*
X141983220Y-81115771D01*
X141983220Y-81115771D02*
X141935601Y-81020533D01*
X141935601Y-81020533D02*
X141935601Y-80925295D01*
X141935601Y-80925295D02*
X141983220Y-80830057D01*
X141983220Y-80830057D02*
X142030839Y-80782438D01*
X142030839Y-80782438D02*
X142126077Y-80734819D01*
X142126077Y-80734819D02*
X142364172Y-80734819D01*
X142364172Y-80734819D02*
X142507029Y-80782438D01*
X143697506Y-81734819D02*
X143697506Y-80734819D01*
X143697506Y-80734819D02*
X144078458Y-80734819D01*
X144078458Y-80734819D02*
X144173696Y-80782438D01*
X144173696Y-80782438D02*
X144221315Y-80830057D01*
X144221315Y-80830057D02*
X144268934Y-80925295D01*
X144268934Y-80925295D02*
X144268934Y-81068152D01*
X144268934Y-81068152D02*
X144221315Y-81163390D01*
X144221315Y-81163390D02*
X144173696Y-81211009D01*
X144173696Y-81211009D02*
X144078458Y-81258628D01*
X144078458Y-81258628D02*
X143697506Y-81258628D01*
X144649887Y-81449104D02*
X145126077Y-81449104D01*
X144554649Y-81734819D02*
X144887982Y-80734819D01*
X144887982Y-80734819D02*
X145221315Y-81734819D01*
X146078458Y-81734819D02*
X145507030Y-81734819D01*
X145792744Y-81734819D02*
X145792744Y-80734819D01*
X145792744Y-80734819D02*
X145697506Y-80877676D01*
X145697506Y-80877676D02*
X145602268Y-80972914D01*
X145602268Y-80972914D02*
X145507030Y-81020533D01*
X146983220Y-80734819D02*
X146507030Y-80734819D01*
X146507030Y-80734819D02*
X146459411Y-81211009D01*
X146459411Y-81211009D02*
X146507030Y-81163390D01*
X146507030Y-81163390D02*
X146602268Y-81115771D01*
X146602268Y-81115771D02*
X146840363Y-81115771D01*
X146840363Y-81115771D02*
X146935601Y-81163390D01*
X146935601Y-81163390D02*
X146983220Y-81211009D01*
X146983220Y-81211009D02*
X147030839Y-81306247D01*
X147030839Y-81306247D02*
X147030839Y-81544342D01*
X147030839Y-81544342D02*
X146983220Y-81639580D01*
X146983220Y-81639580D02*
X146935601Y-81687200D01*
X146935601Y-81687200D02*
X146840363Y-81734819D01*
X146840363Y-81734819D02*
X146602268Y-81734819D01*
X146602268Y-81734819D02*
X146507030Y-81687200D01*
X146507030Y-81687200D02*
X146459411Y-81639580D01*
X136268934Y-84274819D02*
X135792744Y-84274819D01*
X135792744Y-84274819D02*
X135792744Y-83274819D01*
X136602268Y-84274819D02*
X136602268Y-83274819D01*
X136602268Y-83274819D02*
X136983220Y-83274819D01*
X136983220Y-83274819D02*
X137078458Y-83322438D01*
X137078458Y-83322438D02*
X137126077Y-83370057D01*
X137126077Y-83370057D02*
X137173696Y-83465295D01*
X137173696Y-83465295D02*
X137173696Y-83608152D01*
X137173696Y-83608152D02*
X137126077Y-83703390D01*
X137126077Y-83703390D02*
X137078458Y-83751009D01*
X137078458Y-83751009D02*
X136983220Y-83798628D01*
X136983220Y-83798628D02*
X136602268Y-83798628D01*
X137554649Y-84227200D02*
X137697506Y-84274819D01*
X137697506Y-84274819D02*
X137935601Y-84274819D01*
X137935601Y-84274819D02*
X138030839Y-84227200D01*
X138030839Y-84227200D02*
X138078458Y-84179580D01*
X138078458Y-84179580D02*
X138126077Y-84084342D01*
X138126077Y-84084342D02*
X138126077Y-83989104D01*
X138126077Y-83989104D02*
X138078458Y-83893866D01*
X138078458Y-83893866D02*
X138030839Y-83846247D01*
X138030839Y-83846247D02*
X137935601Y-83798628D01*
X137935601Y-83798628D02*
X137745125Y-83751009D01*
X137745125Y-83751009D02*
X137649887Y-83703390D01*
X137649887Y-83703390D02*
X137602268Y-83655771D01*
X137602268Y-83655771D02*
X137554649Y-83560533D01*
X137554649Y-83560533D02*
X137554649Y-83465295D01*
X137554649Y-83465295D02*
X137602268Y-83370057D01*
X137602268Y-83370057D02*
X137649887Y-83322438D01*
X137649887Y-83322438D02*
X137745125Y-83274819D01*
X137745125Y-83274819D02*
X137983220Y-83274819D01*
X137983220Y-83274819D02*
X138126077Y-83322438D01*
X138316554Y-84370057D02*
X139078458Y-84370057D01*
X139316554Y-84274819D02*
X139316554Y-83274819D01*
X139316554Y-83274819D02*
X139649887Y-83989104D01*
X139649887Y-83989104D02*
X139983220Y-83274819D01*
X139983220Y-83274819D02*
X139983220Y-84274819D01*
X140649887Y-83274819D02*
X140840363Y-83274819D01*
X140840363Y-83274819D02*
X140935601Y-83322438D01*
X140935601Y-83322438D02*
X141030839Y-83417676D01*
X141030839Y-83417676D02*
X141078458Y-83608152D01*
X141078458Y-83608152D02*
X141078458Y-83941485D01*
X141078458Y-83941485D02*
X141030839Y-84131961D01*
X141030839Y-84131961D02*
X140935601Y-84227200D01*
X140935601Y-84227200D02*
X140840363Y-84274819D01*
X140840363Y-84274819D02*
X140649887Y-84274819D01*
X140649887Y-84274819D02*
X140554649Y-84227200D01*
X140554649Y-84227200D02*
X140459411Y-84131961D01*
X140459411Y-84131961D02*
X140411792Y-83941485D01*
X140411792Y-83941485D02*
X140411792Y-83608152D01*
X140411792Y-83608152D02*
X140459411Y-83417676D01*
X140459411Y-83417676D02*
X140554649Y-83322438D01*
X140554649Y-83322438D02*
X140649887Y-83274819D01*
X141459411Y-84227200D02*
X141602268Y-84274819D01*
X141602268Y-84274819D02*
X141840363Y-84274819D01*
X141840363Y-84274819D02*
X141935601Y-84227200D01*
X141935601Y-84227200D02*
X141983220Y-84179580D01*
X141983220Y-84179580D02*
X142030839Y-84084342D01*
X142030839Y-84084342D02*
X142030839Y-83989104D01*
X142030839Y-83989104D02*
X141983220Y-83893866D01*
X141983220Y-83893866D02*
X141935601Y-83846247D01*
X141935601Y-83846247D02*
X141840363Y-83798628D01*
X141840363Y-83798628D02*
X141649887Y-83751009D01*
X141649887Y-83751009D02*
X141554649Y-83703390D01*
X141554649Y-83703390D02*
X141507030Y-83655771D01*
X141507030Y-83655771D02*
X141459411Y-83560533D01*
X141459411Y-83560533D02*
X141459411Y-83465295D01*
X141459411Y-83465295D02*
X141507030Y-83370057D01*
X141507030Y-83370057D02*
X141554649Y-83322438D01*
X141554649Y-83322438D02*
X141649887Y-83274819D01*
X141649887Y-83274819D02*
X141887982Y-83274819D01*
X141887982Y-83274819D02*
X142030839Y-83322438D01*
X142459411Y-84274819D02*
X142459411Y-83274819D01*
X143697506Y-84274819D02*
X143697506Y-83274819D01*
X143697506Y-83274819D02*
X144078458Y-83274819D01*
X144078458Y-83274819D02*
X144173696Y-83322438D01*
X144173696Y-83322438D02*
X144221315Y-83370057D01*
X144221315Y-83370057D02*
X144268934Y-83465295D01*
X144268934Y-83465295D02*
X144268934Y-83608152D01*
X144268934Y-83608152D02*
X144221315Y-83703390D01*
X144221315Y-83703390D02*
X144173696Y-83751009D01*
X144173696Y-83751009D02*
X144078458Y-83798628D01*
X144078458Y-83798628D02*
X143697506Y-83798628D01*
X144649887Y-83989104D02*
X145126077Y-83989104D01*
X144554649Y-84274819D02*
X144887982Y-83274819D01*
X144887982Y-83274819D02*
X145221315Y-84274819D01*
X146078458Y-84274819D02*
X145507030Y-84274819D01*
X145792744Y-84274819D02*
X145792744Y-83274819D01*
X145792744Y-83274819D02*
X145697506Y-83417676D01*
X145697506Y-83417676D02*
X145602268Y-83512914D01*
X145602268Y-83512914D02*
X145507030Y-83560533D01*
X146459411Y-83370057D02*
X146507030Y-83322438D01*
X146507030Y-83322438D02*
X146602268Y-83274819D01*
X146602268Y-83274819D02*
X146840363Y-83274819D01*
X146840363Y-83274819D02*
X146935601Y-83322438D01*
X146935601Y-83322438D02*
X146983220Y-83370057D01*
X146983220Y-83370057D02*
X147030839Y-83465295D01*
X147030839Y-83465295D02*
X147030839Y-83560533D01*
X147030839Y-83560533D02*
X146983220Y-83703390D01*
X146983220Y-83703390D02*
X146411792Y-84274819D01*
X146411792Y-84274819D02*
X147030839Y-84274819D01*
X136268934Y-86814819D02*
X135792744Y-86814819D01*
X135792744Y-86814819D02*
X135792744Y-85814819D01*
X136602268Y-86814819D02*
X136602268Y-85814819D01*
X136602268Y-85814819D02*
X136983220Y-85814819D01*
X136983220Y-85814819D02*
X137078458Y-85862438D01*
X137078458Y-85862438D02*
X137126077Y-85910057D01*
X137126077Y-85910057D02*
X137173696Y-86005295D01*
X137173696Y-86005295D02*
X137173696Y-86148152D01*
X137173696Y-86148152D02*
X137126077Y-86243390D01*
X137126077Y-86243390D02*
X137078458Y-86291009D01*
X137078458Y-86291009D02*
X136983220Y-86338628D01*
X136983220Y-86338628D02*
X136602268Y-86338628D01*
X137554649Y-86767200D02*
X137697506Y-86814819D01*
X137697506Y-86814819D02*
X137935601Y-86814819D01*
X137935601Y-86814819D02*
X138030839Y-86767200D01*
X138030839Y-86767200D02*
X138078458Y-86719580D01*
X138078458Y-86719580D02*
X138126077Y-86624342D01*
X138126077Y-86624342D02*
X138126077Y-86529104D01*
X138126077Y-86529104D02*
X138078458Y-86433866D01*
X138078458Y-86433866D02*
X138030839Y-86386247D01*
X138030839Y-86386247D02*
X137935601Y-86338628D01*
X137935601Y-86338628D02*
X137745125Y-86291009D01*
X137745125Y-86291009D02*
X137649887Y-86243390D01*
X137649887Y-86243390D02*
X137602268Y-86195771D01*
X137602268Y-86195771D02*
X137554649Y-86100533D01*
X137554649Y-86100533D02*
X137554649Y-86005295D01*
X137554649Y-86005295D02*
X137602268Y-85910057D01*
X137602268Y-85910057D02*
X137649887Y-85862438D01*
X137649887Y-85862438D02*
X137745125Y-85814819D01*
X137745125Y-85814819D02*
X137983220Y-85814819D01*
X137983220Y-85814819D02*
X138126077Y-85862438D01*
X138316554Y-86910057D02*
X139078458Y-86910057D01*
X139316554Y-86814819D02*
X139316554Y-85814819D01*
X139316554Y-85814819D02*
X139649887Y-86529104D01*
X139649887Y-86529104D02*
X139983220Y-85814819D01*
X139983220Y-85814819D02*
X139983220Y-86814819D01*
X140459411Y-86814819D02*
X140459411Y-85814819D01*
X140887982Y-86767200D02*
X141030839Y-86814819D01*
X141030839Y-86814819D02*
X141268934Y-86814819D01*
X141268934Y-86814819D02*
X141364172Y-86767200D01*
X141364172Y-86767200D02*
X141411791Y-86719580D01*
X141411791Y-86719580D02*
X141459410Y-86624342D01*
X141459410Y-86624342D02*
X141459410Y-86529104D01*
X141459410Y-86529104D02*
X141411791Y-86433866D01*
X141411791Y-86433866D02*
X141364172Y-86386247D01*
X141364172Y-86386247D02*
X141268934Y-86338628D01*
X141268934Y-86338628D02*
X141078458Y-86291009D01*
X141078458Y-86291009D02*
X140983220Y-86243390D01*
X140983220Y-86243390D02*
X140935601Y-86195771D01*
X140935601Y-86195771D02*
X140887982Y-86100533D01*
X140887982Y-86100533D02*
X140887982Y-86005295D01*
X140887982Y-86005295D02*
X140935601Y-85910057D01*
X140935601Y-85910057D02*
X140983220Y-85862438D01*
X140983220Y-85862438D02*
X141078458Y-85814819D01*
X141078458Y-85814819D02*
X141316553Y-85814819D01*
X141316553Y-85814819D02*
X141459410Y-85862438D01*
X142078458Y-85814819D02*
X142268934Y-85814819D01*
X142268934Y-85814819D02*
X142364172Y-85862438D01*
X142364172Y-85862438D02*
X142459410Y-85957676D01*
X142459410Y-85957676D02*
X142507029Y-86148152D01*
X142507029Y-86148152D02*
X142507029Y-86481485D01*
X142507029Y-86481485D02*
X142459410Y-86671961D01*
X142459410Y-86671961D02*
X142364172Y-86767200D01*
X142364172Y-86767200D02*
X142268934Y-86814819D01*
X142268934Y-86814819D02*
X142078458Y-86814819D01*
X142078458Y-86814819D02*
X141983220Y-86767200D01*
X141983220Y-86767200D02*
X141887982Y-86671961D01*
X141887982Y-86671961D02*
X141840363Y-86481485D01*
X141840363Y-86481485D02*
X141840363Y-86148152D01*
X141840363Y-86148152D02*
X141887982Y-85957676D01*
X141887982Y-85957676D02*
X141983220Y-85862438D01*
X141983220Y-85862438D02*
X142078458Y-85814819D01*
X143697506Y-86814819D02*
X143697506Y-85814819D01*
X143697506Y-85814819D02*
X144078458Y-85814819D01*
X144078458Y-85814819D02*
X144173696Y-85862438D01*
X144173696Y-85862438D02*
X144221315Y-85910057D01*
X144221315Y-85910057D02*
X144268934Y-86005295D01*
X144268934Y-86005295D02*
X144268934Y-86148152D01*
X144268934Y-86148152D02*
X144221315Y-86243390D01*
X144221315Y-86243390D02*
X144173696Y-86291009D01*
X144173696Y-86291009D02*
X144078458Y-86338628D01*
X144078458Y-86338628D02*
X143697506Y-86338628D01*
X144649887Y-86529104D02*
X145126077Y-86529104D01*
X144554649Y-86814819D02*
X144887982Y-85814819D01*
X144887982Y-85814819D02*
X145221315Y-86814819D01*
X146078458Y-86814819D02*
X145507030Y-86814819D01*
X145792744Y-86814819D02*
X145792744Y-85814819D01*
X145792744Y-85814819D02*
X145697506Y-85957676D01*
X145697506Y-85957676D02*
X145602268Y-86052914D01*
X145602268Y-86052914D02*
X145507030Y-86100533D01*
X147030839Y-86814819D02*
X146459411Y-86814819D01*
X146745125Y-86814819D02*
X146745125Y-85814819D01*
X146745125Y-85814819D02*
X146649887Y-85957676D01*
X146649887Y-85957676D02*
X146554649Y-86052914D01*
X146554649Y-86052914D02*
X146459411Y-86100533D01*
X143697506Y-89354819D02*
X143697506Y-88354819D01*
X143697506Y-88354819D02*
X144078458Y-88354819D01*
X144078458Y-88354819D02*
X144173696Y-88402438D01*
X144173696Y-88402438D02*
X144221315Y-88450057D01*
X144221315Y-88450057D02*
X144268934Y-88545295D01*
X144268934Y-88545295D02*
X144268934Y-88688152D01*
X144268934Y-88688152D02*
X144221315Y-88783390D01*
X144221315Y-88783390D02*
X144173696Y-88831009D01*
X144173696Y-88831009D02*
X144078458Y-88878628D01*
X144078458Y-88878628D02*
X143697506Y-88878628D01*
X144649887Y-89069104D02*
X145126077Y-89069104D01*
X144554649Y-89354819D02*
X144887982Y-88354819D01*
X144887982Y-88354819D02*
X145221315Y-89354819D01*
X146078458Y-89354819D02*
X145507030Y-89354819D01*
X145792744Y-89354819D02*
X145792744Y-88354819D01*
X145792744Y-88354819D02*
X145697506Y-88497676D01*
X145697506Y-88497676D02*
X145602268Y-88592914D01*
X145602268Y-88592914D02*
X145507030Y-88640533D01*
X146697506Y-88354819D02*
X146792744Y-88354819D01*
X146792744Y-88354819D02*
X146887982Y-88402438D01*
X146887982Y-88402438D02*
X146935601Y-88450057D01*
X146935601Y-88450057D02*
X146983220Y-88545295D01*
X146983220Y-88545295D02*
X147030839Y-88735771D01*
X147030839Y-88735771D02*
X147030839Y-88973866D01*
X147030839Y-88973866D02*
X146983220Y-89164342D01*
X146983220Y-89164342D02*
X146935601Y-89259580D01*
X146935601Y-89259580D02*
X146887982Y-89307200D01*
X146887982Y-89307200D02*
X146792744Y-89354819D01*
X146792744Y-89354819D02*
X146697506Y-89354819D01*
X146697506Y-89354819D02*
X146602268Y-89307200D01*
X146602268Y-89307200D02*
X146554649Y-89259580D01*
X146554649Y-89259580D02*
X146507030Y-89164342D01*
X146507030Y-89164342D02*
X146459411Y-88973866D01*
X146459411Y-88973866D02*
X146459411Y-88735771D01*
X146459411Y-88735771D02*
X146507030Y-88545295D01*
X146507030Y-88545295D02*
X146554649Y-88450057D01*
X146554649Y-88450057D02*
X146602268Y-88402438D01*
X146602268Y-88402438D02*
X146697506Y-88354819D01*
X144649887Y-91894819D02*
X144649887Y-90894819D01*
X144649887Y-90894819D02*
X145030839Y-90894819D01*
X145030839Y-90894819D02*
X145126077Y-90942438D01*
X145126077Y-90942438D02*
X145173696Y-90990057D01*
X145173696Y-90990057D02*
X145221315Y-91085295D01*
X145221315Y-91085295D02*
X145221315Y-91228152D01*
X145221315Y-91228152D02*
X145173696Y-91323390D01*
X145173696Y-91323390D02*
X145126077Y-91371009D01*
X145126077Y-91371009D02*
X145030839Y-91418628D01*
X145030839Y-91418628D02*
X144649887Y-91418628D01*
X145602268Y-91609104D02*
X146078458Y-91609104D01*
X145507030Y-91894819D02*
X145840363Y-90894819D01*
X145840363Y-90894819D02*
X146173696Y-91894819D01*
X146554649Y-91894819D02*
X146745125Y-91894819D01*
X146745125Y-91894819D02*
X146840363Y-91847200D01*
X146840363Y-91847200D02*
X146887982Y-91799580D01*
X146887982Y-91799580D02*
X146983220Y-91656723D01*
X146983220Y-91656723D02*
X147030839Y-91466247D01*
X147030839Y-91466247D02*
X147030839Y-91085295D01*
X147030839Y-91085295D02*
X146983220Y-90990057D01*
X146983220Y-90990057D02*
X146935601Y-90942438D01*
X146935601Y-90942438D02*
X146840363Y-90894819D01*
X146840363Y-90894819D02*
X146649887Y-90894819D01*
X146649887Y-90894819D02*
X146554649Y-90942438D01*
X146554649Y-90942438D02*
X146507030Y-90990057D01*
X146507030Y-90990057D02*
X146459411Y-91085295D01*
X146459411Y-91085295D02*
X146459411Y-91323390D01*
X146459411Y-91323390D02*
X146507030Y-91418628D01*
X146507030Y-91418628D02*
X146554649Y-91466247D01*
X146554649Y-91466247D02*
X146649887Y-91513866D01*
X146649887Y-91513866D02*
X146840363Y-91513866D01*
X146840363Y-91513866D02*
X146935601Y-91466247D01*
X146935601Y-91466247D02*
X146983220Y-91418628D01*
X146983220Y-91418628D02*
X147030839Y-91323390D01*
X144649887Y-94434819D02*
X144649887Y-93434819D01*
X144649887Y-93434819D02*
X145030839Y-93434819D01*
X145030839Y-93434819D02*
X145126077Y-93482438D01*
X145126077Y-93482438D02*
X145173696Y-93530057D01*
X145173696Y-93530057D02*
X145221315Y-93625295D01*
X145221315Y-93625295D02*
X145221315Y-93768152D01*
X145221315Y-93768152D02*
X145173696Y-93863390D01*
X145173696Y-93863390D02*
X145126077Y-93911009D01*
X145126077Y-93911009D02*
X145030839Y-93958628D01*
X145030839Y-93958628D02*
X144649887Y-93958628D01*
X145602268Y-94149104D02*
X146078458Y-94149104D01*
X145507030Y-94434819D02*
X145840363Y-93434819D01*
X145840363Y-93434819D02*
X146173696Y-94434819D01*
X146649887Y-93863390D02*
X146554649Y-93815771D01*
X146554649Y-93815771D02*
X146507030Y-93768152D01*
X146507030Y-93768152D02*
X146459411Y-93672914D01*
X146459411Y-93672914D02*
X146459411Y-93625295D01*
X146459411Y-93625295D02*
X146507030Y-93530057D01*
X146507030Y-93530057D02*
X146554649Y-93482438D01*
X146554649Y-93482438D02*
X146649887Y-93434819D01*
X146649887Y-93434819D02*
X146840363Y-93434819D01*
X146840363Y-93434819D02*
X146935601Y-93482438D01*
X146935601Y-93482438D02*
X146983220Y-93530057D01*
X146983220Y-93530057D02*
X147030839Y-93625295D01*
X147030839Y-93625295D02*
X147030839Y-93672914D01*
X147030839Y-93672914D02*
X146983220Y-93768152D01*
X146983220Y-93768152D02*
X146935601Y-93815771D01*
X146935601Y-93815771D02*
X146840363Y-93863390D01*
X146840363Y-93863390D02*
X146649887Y-93863390D01*
X146649887Y-93863390D02*
X146554649Y-93911009D01*
X146554649Y-93911009D02*
X146507030Y-93958628D01*
X146507030Y-93958628D02*
X146459411Y-94053866D01*
X146459411Y-94053866D02*
X146459411Y-94244342D01*
X146459411Y-94244342D02*
X146507030Y-94339580D01*
X146507030Y-94339580D02*
X146554649Y-94387200D01*
X146554649Y-94387200D02*
X146649887Y-94434819D01*
X146649887Y-94434819D02*
X146840363Y-94434819D01*
X146840363Y-94434819D02*
X146935601Y-94387200D01*
X146935601Y-94387200D02*
X146983220Y-94339580D01*
X146983220Y-94339580D02*
X147030839Y-94244342D01*
X147030839Y-94244342D02*
X147030839Y-94053866D01*
X147030839Y-94053866D02*
X146983220Y-93958628D01*
X146983220Y-93958628D02*
X146935601Y-93911009D01*
X146935601Y-93911009D02*
X146840363Y-93863390D01*
X145411792Y-96974819D02*
X145411792Y-95974819D01*
X145411792Y-95974819D02*
X145983220Y-96974819D01*
X145983220Y-96974819D02*
X145983220Y-95974819D01*
X147030839Y-96879580D02*
X146983220Y-96927200D01*
X146983220Y-96927200D02*
X146840363Y-96974819D01*
X146840363Y-96974819D02*
X146745125Y-96974819D01*
X146745125Y-96974819D02*
X146602268Y-96927200D01*
X146602268Y-96927200D02*
X146507030Y-96831961D01*
X146507030Y-96831961D02*
X146459411Y-96736723D01*
X146459411Y-96736723D02*
X146411792Y-96546247D01*
X146411792Y-96546247D02*
X146411792Y-96403390D01*
X146411792Y-96403390D02*
X146459411Y-96212914D01*
X146459411Y-96212914D02*
X146507030Y-96117676D01*
X146507030Y-96117676D02*
X146602268Y-96022438D01*
X146602268Y-96022438D02*
X146745125Y-95974819D01*
X146745125Y-95974819D02*
X146840363Y-95974819D01*
X146840363Y-95974819D02*
X146983220Y-96022438D01*
X146983220Y-96022438D02*
X147030839Y-96070057D01*
X145411792Y-99514819D02*
X145411792Y-98514819D01*
X145411792Y-98514819D02*
X145983220Y-99514819D01*
X145983220Y-99514819D02*
X145983220Y-98514819D01*
X147030839Y-99419580D02*
X146983220Y-99467200D01*
X146983220Y-99467200D02*
X146840363Y-99514819D01*
X146840363Y-99514819D02*
X146745125Y-99514819D01*
X146745125Y-99514819D02*
X146602268Y-99467200D01*
X146602268Y-99467200D02*
X146507030Y-99371961D01*
X146507030Y-99371961D02*
X146459411Y-99276723D01*
X146459411Y-99276723D02*
X146411792Y-99086247D01*
X146411792Y-99086247D02*
X146411792Y-98943390D01*
X146411792Y-98943390D02*
X146459411Y-98752914D01*
X146459411Y-98752914D02*
X146507030Y-98657676D01*
X146507030Y-98657676D02*
X146602268Y-98562438D01*
X146602268Y-98562438D02*
X146745125Y-98514819D01*
X146745125Y-98514819D02*
X146840363Y-98514819D01*
X146840363Y-98514819D02*
X146983220Y-98562438D01*
X146983220Y-98562438D02*
X147030839Y-98610057D01*
X145411792Y-102054819D02*
X145411792Y-101054819D01*
X145411792Y-101054819D02*
X145983220Y-102054819D01*
X145983220Y-102054819D02*
X145983220Y-101054819D01*
X147030839Y-101959580D02*
X146983220Y-102007200D01*
X146983220Y-102007200D02*
X146840363Y-102054819D01*
X146840363Y-102054819D02*
X146745125Y-102054819D01*
X146745125Y-102054819D02*
X146602268Y-102007200D01*
X146602268Y-102007200D02*
X146507030Y-101911961D01*
X146507030Y-101911961D02*
X146459411Y-101816723D01*
X146459411Y-101816723D02*
X146411792Y-101626247D01*
X146411792Y-101626247D02*
X146411792Y-101483390D01*
X146411792Y-101483390D02*
X146459411Y-101292914D01*
X146459411Y-101292914D02*
X146507030Y-101197676D01*
X146507030Y-101197676D02*
X146602268Y-101102438D01*
X146602268Y-101102438D02*
X146745125Y-101054819D01*
X146745125Y-101054819D02*
X146840363Y-101054819D01*
X146840363Y-101054819D02*
X146983220Y-101102438D01*
X146983220Y-101102438D02*
X147030839Y-101150057D01*
X145411792Y-104594819D02*
X145411792Y-103594819D01*
X145411792Y-103594819D02*
X145983220Y-104594819D01*
X145983220Y-104594819D02*
X145983220Y-103594819D01*
X147030839Y-104499580D02*
X146983220Y-104547200D01*
X146983220Y-104547200D02*
X146840363Y-104594819D01*
X146840363Y-104594819D02*
X146745125Y-104594819D01*
X146745125Y-104594819D02*
X146602268Y-104547200D01*
X146602268Y-104547200D02*
X146507030Y-104451961D01*
X146507030Y-104451961D02*
X146459411Y-104356723D01*
X146459411Y-104356723D02*
X146411792Y-104166247D01*
X146411792Y-104166247D02*
X146411792Y-104023390D01*
X146411792Y-104023390D02*
X146459411Y-103832914D01*
X146459411Y-103832914D02*
X146507030Y-103737676D01*
X146507030Y-103737676D02*
X146602268Y-103642438D01*
X146602268Y-103642438D02*
X146745125Y-103594819D01*
X146745125Y-103594819D02*
X146840363Y-103594819D01*
X146840363Y-103594819D02*
X146983220Y-103642438D01*
X146983220Y-103642438D02*
X147030839Y-103690057D01*
X145411792Y-107134819D02*
X145411792Y-106134819D01*
X145411792Y-106134819D02*
X145983220Y-107134819D01*
X145983220Y-107134819D02*
X145983220Y-106134819D01*
X147030839Y-107039580D02*
X146983220Y-107087200D01*
X146983220Y-107087200D02*
X146840363Y-107134819D01*
X146840363Y-107134819D02*
X146745125Y-107134819D01*
X146745125Y-107134819D02*
X146602268Y-107087200D01*
X146602268Y-107087200D02*
X146507030Y-106991961D01*
X146507030Y-106991961D02*
X146459411Y-106896723D01*
X146459411Y-106896723D02*
X146411792Y-106706247D01*
X146411792Y-106706247D02*
X146411792Y-106563390D01*
X146411792Y-106563390D02*
X146459411Y-106372914D01*
X146459411Y-106372914D02*
X146507030Y-106277676D01*
X146507030Y-106277676D02*
X146602268Y-106182438D01*
X146602268Y-106182438D02*
X146745125Y-106134819D01*
X146745125Y-106134819D02*
X146840363Y-106134819D01*
X146840363Y-106134819D02*
X146983220Y-106182438D01*
X146983220Y-106182438D02*
X147030839Y-106230057D01*
X145411792Y-109674819D02*
X145411792Y-108674819D01*
X145411792Y-108674819D02*
X145983220Y-109674819D01*
X145983220Y-109674819D02*
X145983220Y-108674819D01*
X147030839Y-109579580D02*
X146983220Y-109627200D01*
X146983220Y-109627200D02*
X146840363Y-109674819D01*
X146840363Y-109674819D02*
X146745125Y-109674819D01*
X146745125Y-109674819D02*
X146602268Y-109627200D01*
X146602268Y-109627200D02*
X146507030Y-109531961D01*
X146507030Y-109531961D02*
X146459411Y-109436723D01*
X146459411Y-109436723D02*
X146411792Y-109246247D01*
X146411792Y-109246247D02*
X146411792Y-109103390D01*
X146411792Y-109103390D02*
X146459411Y-108912914D01*
X146459411Y-108912914D02*
X146507030Y-108817676D01*
X146507030Y-108817676D02*
X146602268Y-108722438D01*
X146602268Y-108722438D02*
X146745125Y-108674819D01*
X146745125Y-108674819D02*
X146840363Y-108674819D01*
X146840363Y-108674819D02*
X146983220Y-108722438D01*
X146983220Y-108722438D02*
X147030839Y-108770057D01*
X145411792Y-112214819D02*
X145411792Y-111214819D01*
X145411792Y-111214819D02*
X145983220Y-112214819D01*
X145983220Y-112214819D02*
X145983220Y-111214819D01*
X147030839Y-112119580D02*
X146983220Y-112167200D01*
X146983220Y-112167200D02*
X146840363Y-112214819D01*
X146840363Y-112214819D02*
X146745125Y-112214819D01*
X146745125Y-112214819D02*
X146602268Y-112167200D01*
X146602268Y-112167200D02*
X146507030Y-112071961D01*
X146507030Y-112071961D02*
X146459411Y-111976723D01*
X146459411Y-111976723D02*
X146411792Y-111786247D01*
X146411792Y-111786247D02*
X146411792Y-111643390D01*
X146411792Y-111643390D02*
X146459411Y-111452914D01*
X146459411Y-111452914D02*
X146507030Y-111357676D01*
X146507030Y-111357676D02*
X146602268Y-111262438D01*
X146602268Y-111262438D02*
X146745125Y-111214819D01*
X146745125Y-111214819D02*
X146840363Y-111214819D01*
X146840363Y-111214819D02*
X146983220Y-111262438D01*
X146983220Y-111262438D02*
X147030839Y-111310057D01*
X144935601Y-116342438D02*
X144840363Y-116294819D01*
X144840363Y-116294819D02*
X144697506Y-116294819D01*
X144697506Y-116294819D02*
X144554649Y-116342438D01*
X144554649Y-116342438D02*
X144459411Y-116437676D01*
X144459411Y-116437676D02*
X144411792Y-116532914D01*
X144411792Y-116532914D02*
X144364173Y-116723390D01*
X144364173Y-116723390D02*
X144364173Y-116866247D01*
X144364173Y-116866247D02*
X144411792Y-117056723D01*
X144411792Y-117056723D02*
X144459411Y-117151961D01*
X144459411Y-117151961D02*
X144554649Y-117247200D01*
X144554649Y-117247200D02*
X144697506Y-117294819D01*
X144697506Y-117294819D02*
X144792744Y-117294819D01*
X144792744Y-117294819D02*
X144935601Y-117247200D01*
X144935601Y-117247200D02*
X144983220Y-117199580D01*
X144983220Y-117199580D02*
X144983220Y-116866247D01*
X144983220Y-116866247D02*
X144792744Y-116866247D01*
X145411792Y-117294819D02*
X145411792Y-116294819D01*
X145411792Y-116294819D02*
X145983220Y-117294819D01*
X145983220Y-117294819D02*
X145983220Y-116294819D01*
X146459411Y-117294819D02*
X146459411Y-116294819D01*
X146459411Y-116294819D02*
X146697506Y-116294819D01*
X146697506Y-116294819D02*
X146840363Y-116342438D01*
X146840363Y-116342438D02*
X146935601Y-116437676D01*
X146935601Y-116437676D02*
X146983220Y-116532914D01*
X146983220Y-116532914D02*
X147030839Y-116723390D01*
X147030839Y-116723390D02*
X147030839Y-116866247D01*
X147030839Y-116866247D02*
X146983220Y-117056723D01*
X146983220Y-117056723D02*
X146935601Y-117151961D01*
X146935601Y-117151961D02*
X146840363Y-117247200D01*
X146840363Y-117247200D02*
X146697506Y-117294819D01*
X146697506Y-117294819D02*
X146459411Y-117294819D01*
X136929410Y-78821104D02*
X137405600Y-78821104D01*
X136834172Y-79106819D02*
X137167505Y-78106819D01*
X137167505Y-78106819D02*
X137500838Y-79106819D01*
X137691315Y-78106819D02*
X138262743Y-78106819D01*
X137977029Y-79106819D02*
X137977029Y-78106819D01*
X138548458Y-78202057D02*
X138596077Y-78154438D01*
X138596077Y-78154438D02*
X138691315Y-78106819D01*
X138691315Y-78106819D02*
X138929410Y-78106819D01*
X138929410Y-78106819D02*
X139024648Y-78154438D01*
X139024648Y-78154438D02*
X139072267Y-78202057D01*
X139072267Y-78202057D02*
X139119886Y-78297295D01*
X139119886Y-78297295D02*
X139119886Y-78392533D01*
X139119886Y-78392533D02*
X139072267Y-78535390D01*
X139072267Y-78535390D02*
X138500839Y-79106819D01*
X138500839Y-79106819D02*
X139119886Y-79106819D01*
X140024648Y-78106819D02*
X139548458Y-78106819D01*
X139548458Y-78106819D02*
X139500839Y-78583009D01*
X139500839Y-78583009D02*
X139548458Y-78535390D01*
X139548458Y-78535390D02*
X139643696Y-78487771D01*
X139643696Y-78487771D02*
X139881791Y-78487771D01*
X139881791Y-78487771D02*
X139977029Y-78535390D01*
X139977029Y-78535390D02*
X140024648Y-78583009D01*
X140024648Y-78583009D02*
X140072267Y-78678247D01*
X140072267Y-78678247D02*
X140072267Y-78916342D01*
X140072267Y-78916342D02*
X140024648Y-79011580D01*
X140024648Y-79011580D02*
X139977029Y-79059200D01*
X139977029Y-79059200D02*
X139881791Y-79106819D01*
X139881791Y-79106819D02*
X139643696Y-79106819D01*
X139643696Y-79106819D02*
X139548458Y-79059200D01*
X139548458Y-79059200D02*
X139500839Y-79011580D01*
X140262744Y-79202057D02*
X141024648Y-79202057D01*
X141215125Y-79059200D02*
X141357982Y-79106819D01*
X141357982Y-79106819D02*
X141596077Y-79106819D01*
X141596077Y-79106819D02*
X141691315Y-79059200D01*
X141691315Y-79059200D02*
X141738934Y-79011580D01*
X141738934Y-79011580D02*
X141786553Y-78916342D01*
X141786553Y-78916342D02*
X141786553Y-78821104D01*
X141786553Y-78821104D02*
X141738934Y-78725866D01*
X141738934Y-78725866D02*
X141691315Y-78678247D01*
X141691315Y-78678247D02*
X141596077Y-78630628D01*
X141596077Y-78630628D02*
X141405601Y-78583009D01*
X141405601Y-78583009D02*
X141310363Y-78535390D01*
X141310363Y-78535390D02*
X141262744Y-78487771D01*
X141262744Y-78487771D02*
X141215125Y-78392533D01*
X141215125Y-78392533D02*
X141215125Y-78297295D01*
X141215125Y-78297295D02*
X141262744Y-78202057D01*
X141262744Y-78202057D02*
X141310363Y-78154438D01*
X141310363Y-78154438D02*
X141405601Y-78106819D01*
X141405601Y-78106819D02*
X141643696Y-78106819D01*
X141643696Y-78106819D02*
X141786553Y-78154438D01*
X142786553Y-79011580D02*
X142738934Y-79059200D01*
X142738934Y-79059200D02*
X142596077Y-79106819D01*
X142596077Y-79106819D02*
X142500839Y-79106819D01*
X142500839Y-79106819D02*
X142357982Y-79059200D01*
X142357982Y-79059200D02*
X142262744Y-78963961D01*
X142262744Y-78963961D02*
X142215125Y-78868723D01*
X142215125Y-78868723D02*
X142167506Y-78678247D01*
X142167506Y-78678247D02*
X142167506Y-78535390D01*
X142167506Y-78535390D02*
X142215125Y-78344914D01*
X142215125Y-78344914D02*
X142262744Y-78249676D01*
X142262744Y-78249676D02*
X142357982Y-78154438D01*
X142357982Y-78154438D02*
X142500839Y-78106819D01*
X142500839Y-78106819D02*
X142596077Y-78106819D01*
X142596077Y-78106819D02*
X142738934Y-78154438D01*
X142738934Y-78154438D02*
X142786553Y-78202057D01*
X143215125Y-79106819D02*
X143215125Y-78106819D01*
X143786553Y-79106819D02*
X143357982Y-78535390D01*
X143786553Y-78106819D02*
X143215125Y-78678247D01*
X144977030Y-79106819D02*
X144977030Y-78106819D01*
X144977030Y-78106819D02*
X145357982Y-78106819D01*
X145357982Y-78106819D02*
X145453220Y-78154438D01*
X145453220Y-78154438D02*
X145500839Y-78202057D01*
X145500839Y-78202057D02*
X145548458Y-78297295D01*
X145548458Y-78297295D02*
X145548458Y-78440152D01*
X145548458Y-78440152D02*
X145500839Y-78535390D01*
X145500839Y-78535390D02*
X145453220Y-78583009D01*
X145453220Y-78583009D02*
X145357982Y-78630628D01*
X145357982Y-78630628D02*
X144977030Y-78630628D01*
X146310363Y-78583009D02*
X146453220Y-78630628D01*
X146453220Y-78630628D02*
X146500839Y-78678247D01*
X146500839Y-78678247D02*
X146548458Y-78773485D01*
X146548458Y-78773485D02*
X146548458Y-78916342D01*
X146548458Y-78916342D02*
X146500839Y-79011580D01*
X146500839Y-79011580D02*
X146453220Y-79059200D01*
X146453220Y-79059200D02*
X146357982Y-79106819D01*
X146357982Y-79106819D02*
X145977030Y-79106819D01*
X145977030Y-79106819D02*
X145977030Y-78106819D01*
X145977030Y-78106819D02*
X146310363Y-78106819D01*
X146310363Y-78106819D02*
X146405601Y-78154438D01*
X146405601Y-78154438D02*
X146453220Y-78202057D01*
X146453220Y-78202057D02*
X146500839Y-78297295D01*
X146500839Y-78297295D02*
X146500839Y-78392533D01*
X146500839Y-78392533D02*
X146453220Y-78487771D01*
X146453220Y-78487771D02*
X146405601Y-78535390D01*
X146405601Y-78535390D02*
X146310363Y-78583009D01*
X146310363Y-78583009D02*
X145977030Y-78583009D01*
X146881792Y-78106819D02*
X147500839Y-78106819D01*
X147500839Y-78106819D02*
X147167506Y-78487771D01*
X147167506Y-78487771D02*
X147310363Y-78487771D01*
X147310363Y-78487771D02*
X147405601Y-78535390D01*
X147405601Y-78535390D02*
X147453220Y-78583009D01*
X147453220Y-78583009D02*
X147500839Y-78678247D01*
X147500839Y-78678247D02*
X147500839Y-78916342D01*
X147500839Y-78916342D02*
X147453220Y-79011580D01*
X147453220Y-79011580D02*
X147405601Y-79059200D01*
X147405601Y-79059200D02*
X147310363Y-79106819D01*
X147310363Y-79106819D02*
X147024649Y-79106819D01*
X147024649Y-79106819D02*
X146929411Y-79059200D01*
X146929411Y-79059200D02*
X146881792Y-79011580D01*
X136081734Y-114831019D02*
X135605544Y-114831019D01*
X135605544Y-114831019D02*
X135605544Y-113831019D01*
X136415068Y-114831019D02*
X136415068Y-113831019D01*
X136415068Y-113831019D02*
X136796020Y-113831019D01*
X136796020Y-113831019D02*
X136891258Y-113878638D01*
X136891258Y-113878638D02*
X136938877Y-113926257D01*
X136938877Y-113926257D02*
X136986496Y-114021495D01*
X136986496Y-114021495D02*
X136986496Y-114164352D01*
X136986496Y-114164352D02*
X136938877Y-114259590D01*
X136938877Y-114259590D02*
X136891258Y-114307209D01*
X136891258Y-114307209D02*
X136796020Y-114354828D01*
X136796020Y-114354828D02*
X136415068Y-114354828D01*
X137367449Y-114783400D02*
X137510306Y-114831019D01*
X137510306Y-114831019D02*
X137748401Y-114831019D01*
X137748401Y-114831019D02*
X137843639Y-114783400D01*
X137843639Y-114783400D02*
X137891258Y-114735780D01*
X137891258Y-114735780D02*
X137938877Y-114640542D01*
X137938877Y-114640542D02*
X137938877Y-114545304D01*
X137938877Y-114545304D02*
X137891258Y-114450066D01*
X137891258Y-114450066D02*
X137843639Y-114402447D01*
X137843639Y-114402447D02*
X137748401Y-114354828D01*
X137748401Y-114354828D02*
X137557925Y-114307209D01*
X137557925Y-114307209D02*
X137462687Y-114259590D01*
X137462687Y-114259590D02*
X137415068Y-114211971D01*
X137415068Y-114211971D02*
X137367449Y-114116733D01*
X137367449Y-114116733D02*
X137367449Y-114021495D01*
X137367449Y-114021495D02*
X137415068Y-113926257D01*
X137415068Y-113926257D02*
X137462687Y-113878638D01*
X137462687Y-113878638D02*
X137557925Y-113831019D01*
X137557925Y-113831019D02*
X137796020Y-113831019D01*
X137796020Y-113831019D02*
X137938877Y-113878638D01*
X138129354Y-114926257D02*
X138891258Y-114926257D01*
X139129354Y-114831019D02*
X139129354Y-113831019D01*
X139129354Y-113831019D02*
X139510306Y-113831019D01*
X139510306Y-113831019D02*
X139605544Y-113878638D01*
X139605544Y-113878638D02*
X139653163Y-113926257D01*
X139653163Y-113926257D02*
X139700782Y-114021495D01*
X139700782Y-114021495D02*
X139700782Y-114164352D01*
X139700782Y-114164352D02*
X139653163Y-114259590D01*
X139653163Y-114259590D02*
X139605544Y-114307209D01*
X139605544Y-114307209D02*
X139510306Y-114354828D01*
X139510306Y-114354828D02*
X139129354Y-114354828D01*
X140034116Y-113831019D02*
X140272211Y-114831019D01*
X140272211Y-114831019D02*
X140462687Y-114116733D01*
X140462687Y-114116733D02*
X140653163Y-114831019D01*
X140653163Y-114831019D02*
X140891259Y-113831019D01*
X141843639Y-114831019D02*
X141510306Y-114354828D01*
X141272211Y-114831019D02*
X141272211Y-113831019D01*
X141272211Y-113831019D02*
X141653163Y-113831019D01*
X141653163Y-113831019D02*
X141748401Y-113878638D01*
X141748401Y-113878638D02*
X141796020Y-113926257D01*
X141796020Y-113926257D02*
X141843639Y-114021495D01*
X141843639Y-114021495D02*
X141843639Y-114164352D01*
X141843639Y-114164352D02*
X141796020Y-114259590D01*
X141796020Y-114259590D02*
X141748401Y-114307209D01*
X141748401Y-114307209D02*
X141653163Y-114354828D01*
X141653163Y-114354828D02*
X141272211Y-114354828D01*
X142034116Y-114926257D02*
X142796020Y-114926257D01*
X143034116Y-114831019D02*
X143034116Y-113831019D01*
X143510306Y-114831019D02*
X143510306Y-113831019D01*
X143510306Y-113831019D02*
X144081734Y-114831019D01*
X144081734Y-114831019D02*
X144081734Y-113831019D01*
X145319830Y-114831019D02*
X145319830Y-113831019D01*
X145319830Y-113831019D02*
X145700782Y-113831019D01*
X145700782Y-113831019D02*
X145796020Y-113878638D01*
X145796020Y-113878638D02*
X145843639Y-113926257D01*
X145843639Y-113926257D02*
X145891258Y-114021495D01*
X145891258Y-114021495D02*
X145891258Y-114164352D01*
X145891258Y-114164352D02*
X145843639Y-114259590D01*
X145843639Y-114259590D02*
X145796020Y-114307209D01*
X145796020Y-114307209D02*
X145700782Y-114354828D01*
X145700782Y-114354828D02*
X145319830Y-114354828D01*
X146653163Y-114307209D02*
X146796020Y-114354828D01*
X146796020Y-114354828D02*
X146843639Y-114402447D01*
X146843639Y-114402447D02*
X146891258Y-114497685D01*
X146891258Y-114497685D02*
X146891258Y-114640542D01*
X146891258Y-114640542D02*
X146843639Y-114735780D01*
X146843639Y-114735780D02*
X146796020Y-114783400D01*
X146796020Y-114783400D02*
X146700782Y-114831019D01*
X146700782Y-114831019D02*
X146319830Y-114831019D01*
X146319830Y-114831019D02*
X146319830Y-113831019D01*
X146319830Y-113831019D02*
X146653163Y-113831019D01*
X146653163Y-113831019D02*
X146748401Y-113878638D01*
X146748401Y-113878638D02*
X146796020Y-113926257D01*
X146796020Y-113926257D02*
X146843639Y-114021495D01*
X146843639Y-114021495D02*
X146843639Y-114116733D01*
X146843639Y-114116733D02*
X146796020Y-114211971D01*
X146796020Y-114211971D02*
X146748401Y-114259590D01*
X146748401Y-114259590D02*
X146653163Y-114307209D01*
X146653163Y-114307209D02*
X146319830Y-114307209D01*
X147843639Y-114831019D02*
X147272211Y-114831019D01*
X147557925Y-114831019D02*
X147557925Y-113831019D01*
X147557925Y-113831019D02*
X147462687Y-113973876D01*
X147462687Y-113973876D02*
X147367449Y-114069114D01*
X147367449Y-114069114D02*
X147272211Y-114116733D01*
D11*
X119019999Y-117588328D02*
X119019999Y-118802614D01*
X119019999Y-118802614D02*
X119091428Y-118945471D01*
X119091428Y-118945471D02*
X119162857Y-119016900D01*
X119162857Y-119016900D02*
X119305714Y-119088328D01*
X119305714Y-119088328D02*
X119591428Y-119088328D01*
X119591428Y-119088328D02*
X119734285Y-119016900D01*
X119734285Y-119016900D02*
X119805714Y-118945471D01*
X119805714Y-118945471D02*
X119877142Y-118802614D01*
X119877142Y-118802614D02*
X119877142Y-117588328D01*
X120591428Y-119088328D02*
X120591428Y-117588328D01*
X121305714Y-117588328D02*
X121305714Y-118802614D01*
X121305714Y-118802614D02*
X121377143Y-118945471D01*
X121377143Y-118945471D02*
X121448572Y-119016900D01*
X121448572Y-119016900D02*
X121591429Y-119088328D01*
X121591429Y-119088328D02*
X121877143Y-119088328D01*
X121877143Y-119088328D02*
X122020000Y-119016900D01*
X122020000Y-119016900D02*
X122091429Y-118945471D01*
X122091429Y-118945471D02*
X122162857Y-118802614D01*
X122162857Y-118802614D02*
X122162857Y-117588328D01*
X123734286Y-118945471D02*
X123662858Y-119016900D01*
X123662858Y-119016900D02*
X123448572Y-119088328D01*
X123448572Y-119088328D02*
X123305715Y-119088328D01*
X123305715Y-119088328D02*
X123091429Y-119016900D01*
X123091429Y-119016900D02*
X122948572Y-118874042D01*
X122948572Y-118874042D02*
X122877143Y-118731185D01*
X122877143Y-118731185D02*
X122805715Y-118445471D01*
X122805715Y-118445471D02*
X122805715Y-118231185D01*
X122805715Y-118231185D02*
X122877143Y-117945471D01*
X122877143Y-117945471D02*
X122948572Y-117802614D01*
X122948572Y-117802614D02*
X123091429Y-117659757D01*
X123091429Y-117659757D02*
X123305715Y-117588328D01*
X123305715Y-117588328D02*
X123448572Y-117588328D01*
X123448572Y-117588328D02*
X123662858Y-117659757D01*
X123662858Y-117659757D02*
X123734286Y-117731185D01*
X126020000Y-118302614D02*
X126234286Y-118374042D01*
X126234286Y-118374042D02*
X126305715Y-118445471D01*
X126305715Y-118445471D02*
X126377143Y-118588328D01*
X126377143Y-118588328D02*
X126377143Y-118802614D01*
X126377143Y-118802614D02*
X126305715Y-118945471D01*
X126305715Y-118945471D02*
X126234286Y-119016900D01*
X126234286Y-119016900D02*
X126091429Y-119088328D01*
X126091429Y-119088328D02*
X125520000Y-119088328D01*
X125520000Y-119088328D02*
X125520000Y-117588328D01*
X125520000Y-117588328D02*
X126020000Y-117588328D01*
X126020000Y-117588328D02*
X126162858Y-117659757D01*
X126162858Y-117659757D02*
X126234286Y-117731185D01*
X126234286Y-117731185D02*
X126305715Y-117874042D01*
X126305715Y-117874042D02*
X126305715Y-118016900D01*
X126305715Y-118016900D02*
X126234286Y-118159757D01*
X126234286Y-118159757D02*
X126162858Y-118231185D01*
X126162858Y-118231185D02*
X126020000Y-118302614D01*
X126020000Y-118302614D02*
X125520000Y-118302614D01*
X127020000Y-119088328D02*
X127020000Y-118088328D01*
X127020000Y-118374042D02*
X127091429Y-118231185D01*
X127091429Y-118231185D02*
X127162858Y-118159757D01*
X127162858Y-118159757D02*
X127305715Y-118088328D01*
X127305715Y-118088328D02*
X127448572Y-118088328D01*
X128520000Y-119016900D02*
X128377143Y-119088328D01*
X128377143Y-119088328D02*
X128091429Y-119088328D01*
X128091429Y-119088328D02*
X127948571Y-119016900D01*
X127948571Y-119016900D02*
X127877143Y-118874042D01*
X127877143Y-118874042D02*
X127877143Y-118302614D01*
X127877143Y-118302614D02*
X127948571Y-118159757D01*
X127948571Y-118159757D02*
X128091429Y-118088328D01*
X128091429Y-118088328D02*
X128377143Y-118088328D01*
X128377143Y-118088328D02*
X128520000Y-118159757D01*
X128520000Y-118159757D02*
X128591429Y-118302614D01*
X128591429Y-118302614D02*
X128591429Y-118445471D01*
X128591429Y-118445471D02*
X127877143Y-118588328D01*
X129877143Y-119088328D02*
X129877143Y-118302614D01*
X129877143Y-118302614D02*
X129805714Y-118159757D01*
X129805714Y-118159757D02*
X129662857Y-118088328D01*
X129662857Y-118088328D02*
X129377143Y-118088328D01*
X129377143Y-118088328D02*
X129234285Y-118159757D01*
X129877143Y-119016900D02*
X129734285Y-119088328D01*
X129734285Y-119088328D02*
X129377143Y-119088328D01*
X129377143Y-119088328D02*
X129234285Y-119016900D01*
X129234285Y-119016900D02*
X129162857Y-118874042D01*
X129162857Y-118874042D02*
X129162857Y-118731185D01*
X129162857Y-118731185D02*
X129234285Y-118588328D01*
X129234285Y-118588328D02*
X129377143Y-118516900D01*
X129377143Y-118516900D02*
X129734285Y-118516900D01*
X129734285Y-118516900D02*
X129877143Y-118445471D01*
X130591428Y-119088328D02*
X130591428Y-117588328D01*
X130734286Y-118516900D02*
X131162857Y-119088328D01*
X131162857Y-118088328D02*
X130591428Y-118659757D01*
X132020000Y-119088328D02*
X131877143Y-119016900D01*
X131877143Y-119016900D02*
X131805714Y-118945471D01*
X131805714Y-118945471D02*
X131734286Y-118802614D01*
X131734286Y-118802614D02*
X131734286Y-118374042D01*
X131734286Y-118374042D02*
X131805714Y-118231185D01*
X131805714Y-118231185D02*
X131877143Y-118159757D01*
X131877143Y-118159757D02*
X132020000Y-118088328D01*
X132020000Y-118088328D02*
X132234286Y-118088328D01*
X132234286Y-118088328D02*
X132377143Y-118159757D01*
X132377143Y-118159757D02*
X132448572Y-118231185D01*
X132448572Y-118231185D02*
X132520000Y-118374042D01*
X132520000Y-118374042D02*
X132520000Y-118802614D01*
X132520000Y-118802614D02*
X132448572Y-118945471D01*
X132448572Y-118945471D02*
X132377143Y-119016900D01*
X132377143Y-119016900D02*
X132234286Y-119088328D01*
X132234286Y-119088328D02*
X132020000Y-119088328D01*
X133805715Y-118088328D02*
X133805715Y-119088328D01*
X133162857Y-118088328D02*
X133162857Y-118874042D01*
X133162857Y-118874042D02*
X133234286Y-119016900D01*
X133234286Y-119016900D02*
X133377143Y-119088328D01*
X133377143Y-119088328D02*
X133591429Y-119088328D01*
X133591429Y-119088328D02*
X133734286Y-119016900D01*
X133734286Y-119016900D02*
X133805715Y-118945471D01*
X134305715Y-118088328D02*
X134877143Y-118088328D01*
X134520000Y-117588328D02*
X134520000Y-118874042D01*
X134520000Y-118874042D02*
X134591429Y-119016900D01*
X134591429Y-119016900D02*
X134734286Y-119088328D01*
X134734286Y-119088328D02*
X134877143Y-119088328D01*
X136305715Y-117588328D02*
X136805715Y-119088328D01*
X136805715Y-119088328D02*
X137305715Y-117588328D01*
X137734286Y-117731185D02*
X137805714Y-117659757D01*
X137805714Y-117659757D02*
X137948572Y-117588328D01*
X137948572Y-117588328D02*
X138305714Y-117588328D01*
X138305714Y-117588328D02*
X138448572Y-117659757D01*
X138448572Y-117659757D02*
X138520000Y-117731185D01*
X138520000Y-117731185D02*
X138591429Y-117874042D01*
X138591429Y-117874042D02*
X138591429Y-118016900D01*
X138591429Y-118016900D02*
X138520000Y-118231185D01*
X138520000Y-118231185D02*
X137662857Y-119088328D01*
X137662857Y-119088328D02*
X138591429Y-119088328D01*
D10*
X124928095Y-88131819D02*
X124928095Y-88941342D01*
X124928095Y-88941342D02*
X124975714Y-89036580D01*
X124975714Y-89036580D02*
X125023333Y-89084200D01*
X125023333Y-89084200D02*
X125118571Y-89131819D01*
X125118571Y-89131819D02*
X125309047Y-89131819D01*
X125309047Y-89131819D02*
X125404285Y-89084200D01*
X125404285Y-89084200D02*
X125451904Y-89036580D01*
X125451904Y-89036580D02*
X125499523Y-88941342D01*
X125499523Y-88941342D02*
X125499523Y-88131819D01*
X125928095Y-88227057D02*
X125975714Y-88179438D01*
X125975714Y-88179438D02*
X126070952Y-88131819D01*
X126070952Y-88131819D02*
X126309047Y-88131819D01*
X126309047Y-88131819D02*
X126404285Y-88179438D01*
X126404285Y-88179438D02*
X126451904Y-88227057D01*
X126451904Y-88227057D02*
X126499523Y-88322295D01*
X126499523Y-88322295D02*
X126499523Y-88417533D01*
X126499523Y-88417533D02*
X126451904Y-88560390D01*
X126451904Y-88560390D02*
X125880476Y-89131819D01*
X125880476Y-89131819D02*
X126499523Y-89131819D01*
X124378095Y-101931819D02*
X124378095Y-102741342D01*
X124378095Y-102741342D02*
X124425714Y-102836580D01*
X124425714Y-102836580D02*
X124473333Y-102884200D01*
X124473333Y-102884200D02*
X124568571Y-102931819D01*
X124568571Y-102931819D02*
X124759047Y-102931819D01*
X124759047Y-102931819D02*
X124854285Y-102884200D01*
X124854285Y-102884200D02*
X124901904Y-102836580D01*
X124901904Y-102836580D02*
X124949523Y-102741342D01*
X124949523Y-102741342D02*
X124949523Y-101931819D01*
X125330476Y-101931819D02*
X125949523Y-101931819D01*
X125949523Y-101931819D02*
X125616190Y-102312771D01*
X125616190Y-102312771D02*
X125759047Y-102312771D01*
X125759047Y-102312771D02*
X125854285Y-102360390D01*
X125854285Y-102360390D02*
X125901904Y-102408009D01*
X125901904Y-102408009D02*
X125949523Y-102503247D01*
X125949523Y-102503247D02*
X125949523Y-102741342D01*
X125949523Y-102741342D02*
X125901904Y-102836580D01*
X125901904Y-102836580D02*
X125854285Y-102884200D01*
X125854285Y-102884200D02*
X125759047Y-102931819D01*
X125759047Y-102931819D02*
X125473333Y-102931819D01*
X125473333Y-102931819D02*
X125378095Y-102884200D01*
X125378095Y-102884200D02*
X125330476Y-102836580D01*
X130120799Y-107622180D02*
X130120799Y-107384085D01*
X130358894Y-107479323D02*
X130120799Y-107384085D01*
X130120799Y-107384085D02*
X129882704Y-107479323D01*
X130263656Y-107193609D02*
X130120799Y-107384085D01*
X130120799Y-107384085D02*
X129977942Y-107193609D01*
X127378095Y-76576819D02*
X127378095Y-77386342D01*
X127378095Y-77386342D02*
X127425714Y-77481580D01*
X127425714Y-77481580D02*
X127473333Y-77529200D01*
X127473333Y-77529200D02*
X127568571Y-77576819D01*
X127568571Y-77576819D02*
X127759047Y-77576819D01*
X127759047Y-77576819D02*
X127854285Y-77529200D01*
X127854285Y-77529200D02*
X127901904Y-77481580D01*
X127901904Y-77481580D02*
X127949523Y-77386342D01*
X127949523Y-77386342D02*
X127949523Y-76576819D01*
X128949523Y-77576819D02*
X128378095Y-77576819D01*
X128663809Y-77576819D02*
X128663809Y-76576819D01*
X128663809Y-76576819D02*
X128568571Y-76719676D01*
X128568571Y-76719676D02*
X128473333Y-76814914D01*
X128473333Y-76814914D02*
X128378095Y-76862533D01*
X131643333Y-93531580D02*
X131595714Y-93579200D01*
X131595714Y-93579200D02*
X131452857Y-93626819D01*
X131452857Y-93626819D02*
X131357619Y-93626819D01*
X131357619Y-93626819D02*
X131214762Y-93579200D01*
X131214762Y-93579200D02*
X131119524Y-93483961D01*
X131119524Y-93483961D02*
X131071905Y-93388723D01*
X131071905Y-93388723D02*
X131024286Y-93198247D01*
X131024286Y-93198247D02*
X131024286Y-93055390D01*
X131024286Y-93055390D02*
X131071905Y-92864914D01*
X131071905Y-92864914D02*
X131119524Y-92769676D01*
X131119524Y-92769676D02*
X131214762Y-92674438D01*
X131214762Y-92674438D02*
X131357619Y-92626819D01*
X131357619Y-92626819D02*
X131452857Y-92626819D01*
X131452857Y-92626819D02*
X131595714Y-92674438D01*
X131595714Y-92674438D02*
X131643333Y-92722057D01*
X132500476Y-92960152D02*
X132500476Y-93626819D01*
X132262381Y-92579200D02*
X132024286Y-93293485D01*
X132024286Y-93293485D02*
X132643333Y-93293485D01*
%TO.C,C1*%
D12*
X128299420Y-87467000D02*
X128580580Y-87467000D01*
X128299420Y-88487000D02*
X128580580Y-88487000D01*
%TO.C,C6*%
X135235000Y-78312580D02*
X135235000Y-78031420D01*
X136255000Y-78312580D02*
X136255000Y-78031420D01*
%TO.C,U2*%
D13*
X127190000Y-89384193D02*
X127190000Y-89998608D01*
X127207300Y-92012200D02*
X127821715Y-92012200D01*
X127821715Y-89370600D02*
X127207300Y-89370600D01*
X129158285Y-92012200D02*
X129772700Y-92012200D01*
X129772700Y-89370600D02*
X129158285Y-89370600D01*
%TO.C,C7*%
D12*
X131599420Y-89467000D02*
X131880580Y-89467000D01*
X131599420Y-90487000D02*
X131880580Y-90487000D01*
%TO.C,U1*%
X125380000Y-77962000D02*
X130900000Y-77962000D01*
X125380000Y-78707000D02*
X125380000Y-77962000D01*
X125380000Y-84382000D02*
X125380000Y-83637000D01*
X130900000Y-77962000D02*
X130900000Y-78707000D01*
X130900000Y-83637000D02*
X130900000Y-84382000D01*
X130900000Y-84382000D02*
X125380000Y-84382000D01*
X124640000Y-78702000D02*
X124300000Y-78232000D01*
X124980000Y-78232000D01*
X124640000Y-78702000D01*
G36*
X124640000Y-78702000D02*
G01*
X124300000Y-78232000D01*
X124980000Y-78232000D01*
X124640000Y-78702000D01*
G37*
%TO.C,C5*%
X128624420Y-108067000D02*
X128905580Y-108067000D01*
X128624420Y-109087000D02*
X128905580Y-109087000D01*
%TO.C,C4*%
X131599420Y-91067000D02*
X131880580Y-91067000D01*
X131599420Y-92087000D02*
X131880580Y-92087000D01*
%TO.C,C2*%
X133530000Y-78317580D02*
X133530000Y-78036420D01*
X134550000Y-78317580D02*
X134550000Y-78036420D01*
%TO.C,R1*%
X134914721Y-107992000D02*
X135240279Y-107992000D01*
X134914721Y-109012000D02*
X135240279Y-109012000D01*
%TO.C,C3*%
X127430000Y-102017580D02*
X127430000Y-101736420D01*
X128450000Y-102017580D02*
X128450000Y-101736420D01*
%TD*%
%LPC*%
D14*
%TO.C,C1*%
X127665000Y-87977000D03*
X129215000Y-87977000D03*
%TD*%
D15*
%TO.C,C6*%
X135745000Y-78947000D03*
X135745000Y-77397000D03*
%TD*%
D16*
%TO.C,U2*%
X127626400Y-89941399D03*
X127626400Y-90441400D03*
X127626400Y-90941400D03*
X127626400Y-91441401D03*
D17*
X128240000Y-91605800D03*
X128740000Y-91605800D03*
D16*
X129353600Y-91441401D03*
X129353600Y-90941400D03*
X129353600Y-90441400D03*
X129353600Y-89941399D03*
D17*
X128740000Y-89777000D03*
X128240000Y-89777000D03*
%TD*%
D18*
%TO.C,U3*%
X129240000Y-106677000D03*
X129240000Y-105577000D03*
X129240000Y-104477000D03*
D19*
X128020800Y-104357800D03*
D18*
X126801600Y-104477000D03*
X126801600Y-105577000D03*
X126801600Y-106677000D03*
D19*
X128020800Y-106796200D03*
D20*
X128020800Y-105577000D03*
%TD*%
D14*
%TO.C,C7*%
X130965000Y-89977000D03*
X132515000Y-89977000D03*
%TD*%
D21*
%TO.C,U1*%
X124640000Y-79267000D03*
X124640000Y-80537000D03*
X124640000Y-81807000D03*
X124640000Y-83077000D03*
X131640000Y-83077000D03*
X131640000Y-81807000D03*
X131640000Y-80537000D03*
X131640000Y-79267000D03*
%TD*%
D14*
%TO.C,C5*%
X127990000Y-108577000D03*
X129540000Y-108577000D03*
%TD*%
%TO.C,C4*%
X130965000Y-91577000D03*
X132515000Y-91577000D03*
%TD*%
D15*
%TO.C,C2*%
X134040000Y-78952000D03*
X134040000Y-77402000D03*
%TD*%
D22*
%TO.C,R1*%
X134290000Y-108502000D03*
X135865000Y-108502000D03*
%TD*%
D15*
%TO.C,C3*%
X127940000Y-102652000D03*
X127940000Y-101102000D03*
%TD*%
D23*
%TO.C,J3*%
X106553000Y-76200000D03*
D24*
X106807000Y-78740000D03*
X106553000Y-81280000D03*
X106807000Y-83820000D03*
X106553000Y-86360000D03*
X106807000Y-88900000D03*
X106553000Y-91440000D03*
X106807000Y-93980000D03*
X106553000Y-96520000D03*
X106807000Y-99060000D03*
X106553000Y-101600000D03*
X106807000Y-104140000D03*
X106553000Y-106680000D03*
X106807000Y-109220000D03*
X106553000Y-111760000D03*
X106807000Y-114300000D03*
X106553000Y-116840000D03*
%TD*%
D23*
%TO.C,J4*%
X149733000Y-76200000D03*
D24*
X149987000Y-78740000D03*
X149733000Y-81280000D03*
X149987000Y-83820000D03*
X149733000Y-86360000D03*
X149987000Y-88900000D03*
X149733000Y-91440000D03*
X149987000Y-93980000D03*
X149733000Y-96520000D03*
X149987000Y-99060000D03*
X149733000Y-101600000D03*
X149987000Y-104140000D03*
X149733000Y-106680000D03*
X149987000Y-109220000D03*
X149733000Y-111760000D03*
X149987000Y-114300000D03*
X149733000Y-116840000D03*
%TD*%
%LPD*%
M02*
