%TF.GenerationSoftware,KiCad,Pcbnew,10.0.2*%
%TF.CreationDate,2026-09-05T08:04:12-04:00*%
%TF.ProjectId,UIUCBreakout,55495543-4272-4656-916b-6f75742e6b69,rev?*%
%TF.SameCoordinates,Original*%
%TF.FileFunction,Copper,L2,Inr*%
%TF.FilePolarity,Positive*%
%FSLAX46Y46*%
G04 Gerber Fmt 4.6, Leading zero omitted, Abs format (unit mm)*
G04 Created by KiCad (PCBNEW 10.0.2) date 2026-09-05 08:04:12*
%MOMM*%
%LPD*%
G01*
G04 APERTURE LIST*
%TA.AperFunction,ComponentPad*%
%ADD10R,1.700000X1.700000*%
%TD*%
%TA.AperFunction,ComponentPad*%
%ADD11O,1.700000X1.700000*%
%TD*%
%TA.AperFunction,ViaPad*%
%ADD12C,0.609600*%
%TD*%
%TA.AperFunction,ViaPad*%
%ADD13C,0.504800*%
%TD*%
G04 APERTURE END LIST*
D10*
%TO.N,/AT25_MISO*%
%TO.C,J3*%
X106553000Y-76200000D03*
D11*
%TO.N,/AT25_MOSI*%
X106807000Y-78740000D03*
%TO.N,unconnected-(J3-Pin_3-Pad3)*%
X106553000Y-81280000D03*
%TO.N,unconnected-(J3-Pin_4-Pad4)*%
X106807000Y-83820000D03*
%TO.N,unconnected-(J3-Pin_5-Pad5)*%
X106553000Y-86360000D03*
%TO.N,unconnected-(J3-Pin_6-Pad6)*%
X106807000Y-88900000D03*
%TO.N,+3.3V*%
X106553000Y-91440000D03*
%TO.N,/WKUP1*%
X106807000Y-93980000D03*
%TO.N,/ACCEL_nCS*%
X106553000Y-96520000D03*
%TO.N,/ACCEL_MOSI*%
X106807000Y-99060000D03*
%TO.N,/ACCEL_MISO*%
X106553000Y-101600000D03*
%TO.N,/ACCEL_SCK*%
X106807000Y-104140000D03*
%TO.N,/LPS_SCK*%
X106553000Y-106680000D03*
%TO.N,/LPS_RDY*%
X106807000Y-109220000D03*
%TO.N,unconnected-(J3-Pin_15-Pad15)*%
X106553000Y-111760000D03*
%TO.N,/LPS_CS*%
X106807000Y-114300000D03*
%TO.N,GND*%
X106553000Y-116840000D03*
%TD*%
D10*
%TO.N,+3.3V*%
%TO.C,J4*%
X149733000Y-76200000D03*
D11*
%TO.N,/AT25_SCK*%
X149987000Y-78740000D03*
%TO.N,/AT25_nCS*%
X149733000Y-81280000D03*
%TO.N,/LPS_MOSI*%
X149987000Y-83820000D03*
%TO.N,/LPS_MISO*%
X149733000Y-86360000D03*
%TO.N,unconnected-(J4-Pin_6-Pad6)*%
X149987000Y-88900000D03*
%TO.N,unconnected-(J4-Pin_7-Pad7)*%
X149733000Y-91440000D03*
%TO.N,unconnected-(J4-Pin_8-Pad8)*%
X149987000Y-93980000D03*
%TO.N,unconnected-(J4-Pin_9-Pad9)*%
X149733000Y-96520000D03*
%TO.N,unconnected-(J4-Pin_10-Pad10)*%
X149987000Y-99060000D03*
%TO.N,unconnected-(J4-Pin_11-Pad11)*%
X149733000Y-101600000D03*
%TO.N,unconnected-(J4-Pin_12-Pad12)*%
X149987000Y-104140000D03*
%TO.N,unconnected-(J4-Pin_13-Pad13)*%
X149733000Y-106680000D03*
%TO.N,unconnected-(J4-Pin_14-Pad14)*%
X149987000Y-109220000D03*
%TO.N,unconnected-(J4-Pin_15-Pad15)*%
X149733000Y-111760000D03*
%TO.N,/LPS_PWR_IN*%
X149987000Y-114300000D03*
%TO.N,GND*%
X149733000Y-116840000D03*
%TD*%
D12*
%TO.N,+3.3V*%
X134040000Y-79977000D03*
D13*
X130940000Y-89027000D03*
D12*
X122870000Y-81807000D03*
X126640000Y-88027000D03*
%TO.N,GND*%
X125840000Y-105677000D03*
X129840000Y-91677000D03*
X127940000Y-100077000D03*
X129990000Y-87927000D03*
X130540000Y-107977000D03*
D13*
X133365000Y-91527000D03*
D12*
X133490000Y-89927000D03*
X134040000Y-76277000D03*
%TO.N,/ACCEL_MOSI*%
X113290000Y-99177000D03*
%TO.N,/ACCEL_MISO*%
X125640000Y-90927000D03*
X121790000Y-91027000D03*
%TO.N,/ACCEL_nCS*%
X126540000Y-91427000D03*
X118740000Y-91827000D03*
%TO.N,/WKUP1*%
X128140000Y-92477000D03*
%TO.N,/LPS_MISO*%
X130640000Y-104377000D03*
D13*
%TO.N,/LPS_PWR*%
X133240000Y-108477000D03*
D12*
X126840000Y-108777000D03*
X126740000Y-102677000D03*
%TO.N,/LPS_RDY*%
X125290000Y-104427000D03*
%TO.N,/LPS_CS*%
X125540000Y-106977000D03*
%TO.N,/AT25_nCS*%
X126040000Y-79777000D03*
%TD*%
%TA.AperFunction,Conductor*%
%TO.N,+3.3V*%
G36*
X151135394Y-72690971D02*
G01*
X151287546Y-72704283D01*
X151308823Y-72708034D01*
X151451111Y-72746160D01*
X151471420Y-72753553D01*
X151604914Y-72815802D01*
X151623633Y-72826609D01*
X151744299Y-72911100D01*
X151760857Y-72924994D01*
X151865005Y-73029142D01*
X151878899Y-73045700D01*
X151963390Y-73166366D01*
X151974197Y-73185085D01*
X152036446Y-73318579D01*
X152043839Y-73338889D01*
X152081963Y-73481169D01*
X152085716Y-73502455D01*
X152099028Y-73654604D01*
X152099500Y-73665412D01*
X152099500Y-119374587D01*
X152099028Y-119385394D01*
X152099028Y-119385395D01*
X152085716Y-119537544D01*
X152081963Y-119558830D01*
X152043839Y-119701110D01*
X152036446Y-119721420D01*
X151974197Y-119854914D01*
X151963390Y-119873633D01*
X151878899Y-119994299D01*
X151865005Y-120010857D01*
X151760857Y-120115005D01*
X151744299Y-120128899D01*
X151623633Y-120213390D01*
X151604914Y-120224197D01*
X151471420Y-120286446D01*
X151451110Y-120293839D01*
X151308830Y-120331963D01*
X151287544Y-120335716D01*
X151156148Y-120347212D01*
X151135393Y-120349028D01*
X151124588Y-120349500D01*
X105415412Y-120349500D01*
X105404606Y-120349028D01*
X105380770Y-120346942D01*
X105252455Y-120335716D01*
X105231169Y-120331963D01*
X105088889Y-120293839D01*
X105068579Y-120286446D01*
X104935085Y-120224197D01*
X104916366Y-120213390D01*
X104795700Y-120128899D01*
X104779142Y-120115005D01*
X104674994Y-120010857D01*
X104661100Y-119994299D01*
X104576609Y-119873633D01*
X104565802Y-119854914D01*
X104503553Y-119721420D01*
X104496160Y-119701110D01*
X104458034Y-119558823D01*
X104454283Y-119537543D01*
X104440972Y-119385394D01*
X104440500Y-119374587D01*
X104440500Y-75301345D01*
X105194500Y-75301345D01*
X105194500Y-77098654D01*
X105201011Y-77159202D01*
X105201011Y-77159204D01*
X105250575Y-77292086D01*
X105252111Y-77296204D01*
X105339739Y-77413261D01*
X105456796Y-77500889D01*
X105571297Y-77543596D01*
X105588463Y-77549999D01*
X105593799Y-77551989D01*
X105621050Y-77554918D01*
X105654345Y-77558499D01*
X105654362Y-77558500D01*
X105767928Y-77558500D01*
X105834967Y-77578185D01*
X105880722Y-77630989D01*
X105890666Y-77700147D01*
X105861641Y-77763703D01*
X105855609Y-77770181D01*
X105770796Y-77854993D01*
X105645106Y-78027990D01*
X105548027Y-78218516D01*
X105548026Y-78218519D01*
X105481951Y-78421882D01*
X105448500Y-78633084D01*
X105448500Y-78846915D01*
X105481951Y-79058117D01*
X105548026Y-79261480D01*
X105548027Y-79261483D01*
X105645106Y-79452009D01*
X105770794Y-79625004D01*
X105921996Y-79776206D01*
X106001503Y-79833971D01*
X106044168Y-79889301D01*
X106050147Y-79958915D01*
X106017541Y-80020710D01*
X105984912Y-80044774D01*
X105840990Y-80118106D01*
X105667993Y-80243796D01*
X105516796Y-80394993D01*
X105391106Y-80567990D01*
X105294027Y-80758516D01*
X105294026Y-80758519D01*
X105227951Y-80961882D01*
X105194500Y-81173084D01*
X105194500Y-81386915D01*
X105227951Y-81598117D01*
X105294026Y-81801480D01*
X105294027Y-81801483D01*
X105391106Y-81992009D01*
X105516794Y-82165004D01*
X105667996Y-82316206D01*
X105840991Y-82441894D01*
X105984913Y-82515226D01*
X106035708Y-82563199D01*
X106052503Y-82631020D01*
X106029966Y-82697155D01*
X106001504Y-82726027D01*
X105921996Y-82783793D01*
X105770796Y-82934993D01*
X105645106Y-83107990D01*
X105548027Y-83298516D01*
X105548026Y-83298519D01*
X105481951Y-83501882D01*
X105448500Y-83713084D01*
X105448500Y-83926915D01*
X105481951Y-84138117D01*
X105548026Y-84341480D01*
X105548027Y-84341483D01*
X105645106Y-84532009D01*
X105770794Y-84705004D01*
X105921996Y-84856206D01*
X106001503Y-84913971D01*
X106044168Y-84969301D01*
X106050147Y-85038915D01*
X106017541Y-85100710D01*
X105984912Y-85124774D01*
X105840990Y-85198106D01*
X105667993Y-85323796D01*
X105516796Y-85474993D01*
X105391106Y-85647990D01*
X105294027Y-85838516D01*
X105294026Y-85838519D01*
X105227951Y-86041882D01*
X105194500Y-86253084D01*
X105194500Y-86466915D01*
X105227951Y-86678117D01*
X105294026Y-86881480D01*
X105294027Y-86881483D01*
X105391106Y-87072009D01*
X105516794Y-87245004D01*
X105667996Y-87396206D01*
X105840991Y-87521894D01*
X105984913Y-87595226D01*
X106035708Y-87643199D01*
X106052503Y-87711020D01*
X106029966Y-87777155D01*
X106001504Y-87806027D01*
X105921996Y-87863793D01*
X105770796Y-88014993D01*
X105645106Y-88187990D01*
X105548027Y-88378516D01*
X105548026Y-88378519D01*
X105481951Y-88581882D01*
X105448500Y-88793084D01*
X105448500Y-89006915D01*
X105481951Y-89218117D01*
X105548026Y-89421480D01*
X105548027Y-89421483D01*
X105609311Y-89541758D01*
X105645106Y-89612009D01*
X105770794Y-89785004D01*
X105921996Y-89936206D01*
X106009221Y-89999579D01*
X106051887Y-90054907D01*
X106057866Y-90124521D01*
X106025261Y-90186316D01*
X105992632Y-90210380D01*
X105845444Y-90285377D01*
X105673540Y-90410272D01*
X105673535Y-90410276D01*
X105523276Y-90560535D01*
X105523272Y-90560540D01*
X105398379Y-90732442D01*
X105301904Y-90921782D01*
X105236242Y-91123870D01*
X105236242Y-91123873D01*
X105225769Y-91190000D01*
X106119988Y-91190000D01*
X106087075Y-91247007D01*
X106053000Y-91374174D01*
X106053000Y-91505826D01*
X106087075Y-91632993D01*
X106119988Y-91690000D01*
X105225769Y-91690000D01*
X105236242Y-91756126D01*
X105236242Y-91756129D01*
X105301904Y-91958217D01*
X105398379Y-92147557D01*
X105523272Y-92319459D01*
X105523276Y-92319464D01*
X105673535Y-92469723D01*
X105673540Y-92469727D01*
X105845442Y-92594620D01*
X105992631Y-92669618D01*
X106043427Y-92717593D01*
X106060222Y-92785414D01*
X106037684Y-92851549D01*
X106009222Y-92880421D01*
X105921993Y-92943796D01*
X105770796Y-93094993D01*
X105645106Y-93267990D01*
X105548027Y-93458516D01*
X105548026Y-93458519D01*
X105481951Y-93661882D01*
X105448500Y-93873084D01*
X105448500Y-94086915D01*
X105481951Y-94298117D01*
X105548026Y-94501480D01*
X105548027Y-94501483D01*
X105645106Y-94692009D01*
X105770794Y-94865004D01*
X105921996Y-95016206D01*
X106001503Y-95073971D01*
X106044168Y-95129301D01*
X106050147Y-95198915D01*
X106017541Y-95260710D01*
X105984912Y-95284774D01*
X105840990Y-95358106D01*
X105667993Y-95483796D01*
X105516796Y-95634993D01*
X105391106Y-95807990D01*
X105294027Y-95998516D01*
X105294026Y-95998519D01*
X105227951Y-96201882D01*
X105194500Y-96413084D01*
X105194500Y-96626915D01*
X105227951Y-96838117D01*
X105294026Y-97041480D01*
X105294027Y-97041483D01*
X105391106Y-97232009D01*
X105516794Y-97405004D01*
X105667996Y-97556206D01*
X105840991Y-97681894D01*
X105984913Y-97755226D01*
X106035708Y-97803199D01*
X106052503Y-97871020D01*
X106029966Y-97937155D01*
X106001504Y-97966027D01*
X105921996Y-98023793D01*
X105770796Y-98174993D01*
X105645106Y-98347990D01*
X105548027Y-98538516D01*
X105548026Y-98538519D01*
X105481951Y-98741882D01*
X105448500Y-98953084D01*
X105448500Y-99166915D01*
X105481951Y-99378117D01*
X105548026Y-99581480D01*
X105548027Y-99581483D01*
X105645106Y-99772009D01*
X105770794Y-99945004D01*
X105921996Y-100096206D01*
X106001503Y-100153971D01*
X106044168Y-100209301D01*
X106050147Y-100278915D01*
X106017541Y-100340710D01*
X105984912Y-100364774D01*
X105840990Y-100438106D01*
X105667993Y-100563796D01*
X105516796Y-100714993D01*
X105391106Y-100887990D01*
X105294027Y-101078516D01*
X105294026Y-101078519D01*
X105227951Y-101281882D01*
X105194500Y-101493084D01*
X105194500Y-101706915D01*
X105227951Y-101918117D01*
X105294026Y-102121480D01*
X105294027Y-102121483D01*
X105380790Y-102291762D01*
X105391106Y-102312009D01*
X105516794Y-102485004D01*
X105667996Y-102636206D01*
X105840991Y-102761894D01*
X105984913Y-102835226D01*
X106035708Y-102883199D01*
X106052503Y-102951020D01*
X106029966Y-103017155D01*
X106001504Y-103046027D01*
X105921996Y-103103793D01*
X105770796Y-103254993D01*
X105645106Y-103427990D01*
X105548027Y-103618516D01*
X105548026Y-103618519D01*
X105481951Y-103821882D01*
X105448500Y-104033084D01*
X105448500Y-104246915D01*
X105481951Y-104458117D01*
X105548026Y-104661480D01*
X105548027Y-104661483D01*
X105645106Y-104852009D01*
X105770794Y-105025004D01*
X105921996Y-105176206D01*
X106001503Y-105233971D01*
X106044168Y-105289301D01*
X106050147Y-105358915D01*
X106017541Y-105420710D01*
X105984912Y-105444774D01*
X105840990Y-105518106D01*
X105667993Y-105643796D01*
X105516796Y-105794993D01*
X105391106Y-105967990D01*
X105294027Y-106158516D01*
X105294026Y-106158519D01*
X105227951Y-106361882D01*
X105194500Y-106573084D01*
X105194500Y-106786915D01*
X105227951Y-106998117D01*
X105294026Y-107201480D01*
X105294027Y-107201483D01*
X105367292Y-107345271D01*
X105391106Y-107392009D01*
X105516794Y-107565004D01*
X105667996Y-107716206D01*
X105840991Y-107841894D01*
X105984913Y-107915226D01*
X106035708Y-107963199D01*
X106052503Y-108031020D01*
X106029966Y-108097155D01*
X106001504Y-108126027D01*
X105921996Y-108183793D01*
X105770796Y-108334993D01*
X105645106Y-108507990D01*
X105548027Y-108698516D01*
X105548026Y-108698519D01*
X105481951Y-108901882D01*
X105448500Y-109113084D01*
X105448500Y-109326915D01*
X105481951Y-109538117D01*
X105548026Y-109741480D01*
X105548027Y-109741483D01*
X105645106Y-109932009D01*
X105770794Y-110105004D01*
X105921996Y-110256206D01*
X106001503Y-110313971D01*
X106044168Y-110369301D01*
X106050147Y-110438915D01*
X106017541Y-110500710D01*
X105984912Y-110524774D01*
X105840990Y-110598106D01*
X105667993Y-110723796D01*
X105516796Y-110874993D01*
X105391106Y-111047990D01*
X105294027Y-111238516D01*
X105294026Y-111238519D01*
X105227951Y-111441882D01*
X105194500Y-111653084D01*
X105194500Y-111866915D01*
X105227951Y-112078117D01*
X105294026Y-112281480D01*
X105294027Y-112281483D01*
X105391106Y-112472009D01*
X105516794Y-112645004D01*
X105667996Y-112796206D01*
X105840991Y-112921894D01*
X105984913Y-112995226D01*
X106035708Y-113043199D01*
X106052503Y-113111020D01*
X106029966Y-113177155D01*
X106001504Y-113206027D01*
X105921996Y-113263793D01*
X105770796Y-113414993D01*
X105645106Y-113587990D01*
X105548027Y-113778516D01*
X105548026Y-113778519D01*
X105481951Y-113981882D01*
X105448500Y-114193084D01*
X105448500Y-114406915D01*
X105481951Y-114618117D01*
X105548026Y-114821480D01*
X105548027Y-114821483D01*
X105645106Y-115012009D01*
X105770794Y-115185004D01*
X105921996Y-115336206D01*
X106001503Y-115393971D01*
X106044168Y-115449301D01*
X106050147Y-115518915D01*
X106017541Y-115580710D01*
X105984912Y-115604774D01*
X105840990Y-115678106D01*
X105667993Y-115803796D01*
X105516796Y-115954993D01*
X105391106Y-116127990D01*
X105294027Y-116318516D01*
X105294026Y-116318519D01*
X105227951Y-116521882D01*
X105194500Y-116733084D01*
X105194500Y-116946915D01*
X105227951Y-117158117D01*
X105294026Y-117361480D01*
X105294027Y-117361483D01*
X105391106Y-117552009D01*
X105516794Y-117725004D01*
X105667996Y-117876206D01*
X105840991Y-118001894D01*
X105934438Y-118049507D01*
X106031516Y-118098972D01*
X106031519Y-118098973D01*
X106133200Y-118132010D01*
X106234884Y-118165049D01*
X106446084Y-118198500D01*
X106446085Y-118198500D01*
X106659915Y-118198500D01*
X106659916Y-118198500D01*
X106871116Y-118165049D01*
X107074483Y-118098972D01*
X107265009Y-118001894D01*
X107438004Y-117876206D01*
X107589206Y-117725004D01*
X107714894Y-117552009D01*
X107811972Y-117361483D01*
X107878049Y-117158116D01*
X107911500Y-116946916D01*
X107911500Y-116733084D01*
X107878049Y-116521884D01*
X107811972Y-116318517D01*
X107811972Y-116318516D01*
X107714893Y-116127990D01*
X107589206Y-115954996D01*
X107438004Y-115803794D01*
X107358496Y-115746028D01*
X107315831Y-115690697D01*
X107309852Y-115621084D01*
X107342458Y-115559289D01*
X107375085Y-115535226D01*
X107519009Y-115461894D01*
X107692004Y-115336206D01*
X107843206Y-115185004D01*
X107968894Y-115012009D01*
X108065972Y-114821483D01*
X108132049Y-114618116D01*
X108165500Y-114406916D01*
X108165500Y-114193084D01*
X108132049Y-113981884D01*
X108065972Y-113778517D01*
X108065972Y-113778516D01*
X107968893Y-113587990D01*
X107843206Y-113414996D01*
X107692004Y-113263794D01*
X107519009Y-113138106D01*
X107375086Y-113064773D01*
X107324291Y-113016799D01*
X107307496Y-112948978D01*
X107330033Y-112882843D01*
X107358497Y-112853971D01*
X107438004Y-112796206D01*
X107589206Y-112645004D01*
X107714894Y-112472009D01*
X107811972Y-112281483D01*
X107878049Y-112078116D01*
X107911500Y-111866916D01*
X107911500Y-111653084D01*
X107878049Y-111441884D01*
X107811972Y-111238517D01*
X107811972Y-111238516D01*
X107714893Y-111047990D01*
X107589206Y-110874996D01*
X107438004Y-110723794D01*
X107358496Y-110666028D01*
X107315831Y-110610697D01*
X107309852Y-110541084D01*
X107342458Y-110479289D01*
X107375085Y-110455226D01*
X107519009Y-110381894D01*
X107692004Y-110256206D01*
X107843206Y-110105004D01*
X107968894Y-109932009D01*
X108065972Y-109741483D01*
X108132049Y-109538116D01*
X108165500Y-109326916D01*
X108165500Y-109113084D01*
X108132049Y-108901884D01*
X108117499Y-108857105D01*
X126026699Y-108857105D01*
X126057953Y-109014225D01*
X126057956Y-109014235D01*
X126119260Y-109162237D01*
X126119261Y-109162239D01*
X126208268Y-109295447D01*
X126208271Y-109295451D01*
X126321548Y-109408728D01*
X126321552Y-109408731D01*
X126454758Y-109497737D01*
X126454759Y-109497737D01*
X126454760Y-109497738D01*
X126454762Y-109497739D01*
X126552244Y-109538117D01*
X126602769Y-109559045D01*
X126602773Y-109559045D01*
X126602774Y-109559046D01*
X126759894Y-109590300D01*
X126759897Y-109590300D01*
X126920105Y-109590300D01*
X127025813Y-109569272D01*
X127077231Y-109559045D01*
X127225242Y-109497737D01*
X127358448Y-109408731D01*
X127471731Y-109295448D01*
X127560737Y-109162242D01*
X127622045Y-109014231D01*
X127632426Y-108962044D01*
X127653300Y-108857105D01*
X127653300Y-108696894D01*
X127622046Y-108539774D01*
X127622045Y-108539773D01*
X127622045Y-108539769D01*
X127603686Y-108495447D01*
X127560739Y-108391762D01*
X127560738Y-108391760D01*
X127541011Y-108362237D01*
X127471731Y-108258552D01*
X127471728Y-108258548D01*
X127358451Y-108145271D01*
X127358447Y-108145268D01*
X127226502Y-108057105D01*
X129726699Y-108057105D01*
X129757953Y-108214225D01*
X129757956Y-108214235D01*
X129819260Y-108362237D01*
X129819261Y-108362239D01*
X129908268Y-108495447D01*
X129908271Y-108495451D01*
X130021548Y-108608728D01*
X130021552Y-108608731D01*
X130154758Y-108697737D01*
X130154759Y-108697737D01*
X130154760Y-108697738D01*
X130154762Y-108697739D01*
X130157686Y-108698950D01*
X130302769Y-108759045D01*
X130302773Y-108759045D01*
X130302774Y-108759046D01*
X130459894Y-108790300D01*
X130459897Y-108790300D01*
X130620105Y-108790300D01*
X130725813Y-108769272D01*
X130777231Y-108759045D01*
X130925242Y-108697737D01*
X131058448Y-108608731D01*
X131171731Y-108495448D01*
X131234136Y-108402053D01*
X132479100Y-108402053D01*
X132479100Y-108551946D01*
X132508339Y-108698938D01*
X132508342Y-108698950D01*
X132565697Y-108837419D01*
X132565699Y-108837422D01*
X132648968Y-108962044D01*
X132648974Y-108962051D01*
X132754948Y-109068025D01*
X132754955Y-109068031D01*
X132879577Y-109151300D01*
X132879580Y-109151302D01*
X133018049Y-109208657D01*
X133018054Y-109208659D01*
X133165053Y-109237899D01*
X133165056Y-109237900D01*
X133165058Y-109237900D01*
X133314944Y-109237900D01*
X133314945Y-109237899D01*
X133461946Y-109208659D01*
X133600421Y-109151301D01*
X133725046Y-109068030D01*
X133831030Y-108962046D01*
X133914301Y-108837421D01*
X133971659Y-108698946D01*
X134000900Y-108551942D01*
X134000900Y-108402058D01*
X134000900Y-108402055D01*
X134000899Y-108402053D01*
X133987560Y-108334993D01*
X133971659Y-108255054D01*
X133971657Y-108255049D01*
X133914302Y-108116580D01*
X133914300Y-108116577D01*
X133831031Y-107991955D01*
X133831025Y-107991948D01*
X133725051Y-107885974D01*
X133725044Y-107885968D01*
X133600422Y-107802699D01*
X133600419Y-107802697D01*
X133461950Y-107745342D01*
X133461938Y-107745339D01*
X133314945Y-107716100D01*
X133314942Y-107716100D01*
X133165058Y-107716100D01*
X133165055Y-107716100D01*
X133018061Y-107745339D01*
X133018049Y-107745342D01*
X132879580Y-107802697D01*
X132879577Y-107802699D01*
X132754955Y-107885968D01*
X132754948Y-107885974D01*
X132648974Y-107991948D01*
X132648968Y-107991955D01*
X132565699Y-108116577D01*
X132565697Y-108116580D01*
X132508342Y-108255049D01*
X132508339Y-108255061D01*
X132479100Y-108402053D01*
X131234136Y-108402053D01*
X131260737Y-108362242D01*
X131322045Y-108214231D01*
X131341469Y-108116580D01*
X131353300Y-108057105D01*
X131353300Y-107896894D01*
X131322046Y-107739774D01*
X131322045Y-107739773D01*
X131322045Y-107739769D01*
X131304635Y-107697737D01*
X131260739Y-107591762D01*
X131260738Y-107591760D01*
X131242861Y-107565006D01*
X131171731Y-107458552D01*
X131171728Y-107458548D01*
X131058451Y-107345271D01*
X131058447Y-107345268D01*
X130925239Y-107256261D01*
X130925237Y-107256260D01*
X130777235Y-107194956D01*
X130777225Y-107194953D01*
X130620105Y-107163700D01*
X130620103Y-107163700D01*
X130459897Y-107163700D01*
X130459895Y-107163700D01*
X130302774Y-107194953D01*
X130302764Y-107194956D01*
X130154762Y-107256260D01*
X130154760Y-107256261D01*
X130021552Y-107345268D01*
X130021548Y-107345271D01*
X129908271Y-107458548D01*
X129908268Y-107458552D01*
X129819261Y-107591760D01*
X129819260Y-107591762D01*
X129757956Y-107739764D01*
X129757953Y-107739774D01*
X129726700Y-107896894D01*
X129726700Y-107896897D01*
X129726700Y-108057103D01*
X129726700Y-108057105D01*
X129726699Y-108057105D01*
X127226502Y-108057105D01*
X127225239Y-108056261D01*
X127225237Y-108056260D01*
X127102366Y-108005366D01*
X127102365Y-108005366D01*
X127077231Y-107994955D01*
X127077225Y-107994953D01*
X126920105Y-107963700D01*
X126920103Y-107963700D01*
X126759897Y-107963700D01*
X126759895Y-107963700D01*
X126602774Y-107994953D01*
X126602764Y-107994956D01*
X126454762Y-108056260D01*
X126454760Y-108056261D01*
X126321552Y-108145268D01*
X126321548Y-108145271D01*
X126208271Y-108258548D01*
X126208268Y-108258552D01*
X126119261Y-108391760D01*
X126119260Y-108391762D01*
X126057956Y-108539764D01*
X126057953Y-108539774D01*
X126026700Y-108696894D01*
X126026700Y-108696897D01*
X126026700Y-108857103D01*
X126026700Y-108857105D01*
X126026699Y-108857105D01*
X108117499Y-108857105D01*
X108111104Y-108837422D01*
X108075920Y-108729134D01*
X108075917Y-108729124D01*
X108072685Y-108719179D01*
X108065972Y-108698517D01*
X108065971Y-108698516D01*
X108065972Y-108698516D01*
X107985088Y-108539774D01*
X107968894Y-108507991D01*
X107843206Y-108334996D01*
X107692004Y-108183794D01*
X107519009Y-108058106D01*
X107375086Y-107984773D01*
X107324291Y-107936799D01*
X107307496Y-107868978D01*
X107330033Y-107802843D01*
X107358497Y-107773971D01*
X107438004Y-107716206D01*
X107589206Y-107565004D01*
X107714894Y-107392009D01*
X107811972Y-107201483D01*
X107878049Y-106998116D01*
X107911500Y-106786916D01*
X107911500Y-106573084D01*
X107878049Y-106361884D01*
X107832851Y-106222777D01*
X107811973Y-106158519D01*
X107811972Y-106158516D01*
X107714893Y-105967990D01*
X107675835Y-105914231D01*
X107589206Y-105794996D01*
X107438004Y-105643794D01*
X107358496Y-105586028D01*
X107315831Y-105530697D01*
X107309852Y-105461084D01*
X107342458Y-105399289D01*
X107375085Y-105375226D01*
X107519009Y-105301894D01*
X107692004Y-105176206D01*
X107843206Y-105025004D01*
X107968894Y-104852009D01*
X108065972Y-104661483D01*
X108116132Y-104507105D01*
X124476699Y-104507105D01*
X124507953Y-104664225D01*
X124507956Y-104664235D01*
X124569260Y-104812237D01*
X124569261Y-104812239D01*
X124658268Y-104945447D01*
X124658271Y-104945451D01*
X124771548Y-105058728D01*
X124771552Y-105058731D01*
X124904758Y-105147737D01*
X124904759Y-105147737D01*
X124904760Y-105147738D01*
X124904762Y-105147739D01*
X124932053Y-105159043D01*
X125024207Y-105197214D01*
X125078611Y-105241054D01*
X125100676Y-105307348D01*
X125091316Y-105359227D01*
X125057956Y-105439764D01*
X125057953Y-105439774D01*
X125026700Y-105596894D01*
X125026700Y-105596897D01*
X125026700Y-105757103D01*
X125026700Y-105757105D01*
X125026699Y-105757105D01*
X125057953Y-105914225D01*
X125057956Y-105914235D01*
X125119260Y-106062237D01*
X125119261Y-106062238D01*
X125119263Y-106062242D01*
X125150954Y-106109670D01*
X125171832Y-106176347D01*
X125153348Y-106243727D01*
X125116743Y-106281663D01*
X125021552Y-106345268D01*
X125021548Y-106345271D01*
X124908271Y-106458548D01*
X124908268Y-106458552D01*
X124819261Y-106591760D01*
X124819260Y-106591762D01*
X124757956Y-106739764D01*
X124757953Y-106739774D01*
X124726700Y-106896894D01*
X124726700Y-106896897D01*
X124726700Y-107057103D01*
X124726700Y-107057105D01*
X124726699Y-107057105D01*
X124757953Y-107214225D01*
X124757956Y-107214235D01*
X124819260Y-107362237D01*
X124819261Y-107362239D01*
X124908268Y-107495447D01*
X124908271Y-107495451D01*
X125021548Y-107608728D01*
X125021552Y-107608731D01*
X125154758Y-107697737D01*
X125154759Y-107697737D01*
X125154760Y-107697738D01*
X125154762Y-107697739D01*
X125269687Y-107745342D01*
X125302769Y-107759045D01*
X125302773Y-107759045D01*
X125302774Y-107759046D01*
X125459894Y-107790300D01*
X125459897Y-107790300D01*
X125620105Y-107790300D01*
X125725813Y-107769272D01*
X125777231Y-107759045D01*
X125925242Y-107697737D01*
X126058448Y-107608731D01*
X126171731Y-107495448D01*
X126260737Y-107362242D01*
X126322045Y-107214231D01*
X126353300Y-107057103D01*
X126353300Y-106896897D01*
X126353300Y-106896894D01*
X126322046Y-106739774D01*
X126322045Y-106739773D01*
X126322045Y-106739769D01*
X126260737Y-106591758D01*
X126229044Y-106544327D01*
X126208168Y-106477651D01*
X126226653Y-106410271D01*
X126263257Y-106372336D01*
X126303765Y-106345269D01*
X126358448Y-106308731D01*
X126471731Y-106195448D01*
X126560737Y-106062242D01*
X126622045Y-105914231D01*
X126653300Y-105757103D01*
X126653300Y-105596897D01*
X126653300Y-105596894D01*
X126622046Y-105439774D01*
X126622045Y-105439773D01*
X126622045Y-105439769D01*
X126605278Y-105399289D01*
X126560739Y-105291762D01*
X126560738Y-105291760D01*
X126505469Y-105209045D01*
X126471731Y-105158552D01*
X126471728Y-105158548D01*
X126358451Y-105045271D01*
X126358447Y-105045268D01*
X126225239Y-104956261D01*
X126105792Y-104906785D01*
X126051389Y-104862944D01*
X126029324Y-104796650D01*
X126038684Y-104744771D01*
X126072045Y-104664231D01*
X126103300Y-104507103D01*
X126103300Y-104457105D01*
X129826699Y-104457105D01*
X129857953Y-104614225D01*
X129857956Y-104614235D01*
X129919260Y-104762237D01*
X129919261Y-104762239D01*
X130008268Y-104895447D01*
X130008271Y-104895451D01*
X130121548Y-105008728D01*
X130121552Y-105008731D01*
X130254758Y-105097737D01*
X130254759Y-105097737D01*
X130254760Y-105097738D01*
X130254762Y-105097739D01*
X130375469Y-105147737D01*
X130402769Y-105159045D01*
X130402773Y-105159045D01*
X130402774Y-105159046D01*
X130559894Y-105190300D01*
X130559897Y-105190300D01*
X130720105Y-105190300D01*
X130825813Y-105169272D01*
X130877231Y-105159045D01*
X131025242Y-105097737D01*
X131158448Y-105008731D01*
X131271731Y-104895448D01*
X131360737Y-104762242D01*
X131422045Y-104614231D01*
X131443354Y-104507103D01*
X131453300Y-104457105D01*
X131453300Y-104296894D01*
X131422046Y-104139774D01*
X131422045Y-104139773D01*
X131422045Y-104139769D01*
X131422043Y-104139764D01*
X131360739Y-103991762D01*
X131360738Y-103991760D01*
X131271731Y-103858552D01*
X131271728Y-103858548D01*
X131158451Y-103745271D01*
X131158447Y-103745268D01*
X131025239Y-103656261D01*
X131025237Y-103656260D01*
X130877235Y-103594956D01*
X130877225Y-103594953D01*
X130720105Y-103563700D01*
X130720103Y-103563700D01*
X130559897Y-103563700D01*
X130559895Y-103563700D01*
X130402774Y-103594953D01*
X130402764Y-103594956D01*
X130254762Y-103656260D01*
X130254760Y-103656261D01*
X130121552Y-103745268D01*
X130121548Y-103745271D01*
X130008271Y-103858548D01*
X130008268Y-103858552D01*
X129919261Y-103991760D01*
X129919260Y-103991762D01*
X129857956Y-104139764D01*
X129857953Y-104139774D01*
X129826700Y-104296894D01*
X129826700Y-104296897D01*
X129826700Y-104457103D01*
X129826700Y-104457105D01*
X129826699Y-104457105D01*
X126103300Y-104457105D01*
X126103300Y-104346897D01*
X126103300Y-104346894D01*
X126096955Y-104314997D01*
X126096955Y-104314996D01*
X126072046Y-104189776D01*
X126072046Y-104189774D01*
X126072045Y-104189769D01*
X126072043Y-104189764D01*
X126010739Y-104041762D01*
X126010738Y-104041760D01*
X125977330Y-103991762D01*
X125921731Y-103908552D01*
X125921728Y-103908548D01*
X125808451Y-103795271D01*
X125808447Y-103795268D01*
X125675239Y-103706261D01*
X125675237Y-103706260D01*
X125527235Y-103644956D01*
X125527225Y-103644953D01*
X125370105Y-103613700D01*
X125370103Y-103613700D01*
X125209897Y-103613700D01*
X125209895Y-103613700D01*
X125052774Y-103644953D01*
X125052764Y-103644956D01*
X124904762Y-103706260D01*
X124904760Y-103706261D01*
X124771552Y-103795268D01*
X124771548Y-103795271D01*
X124658271Y-103908548D01*
X124658268Y-103908552D01*
X124569261Y-104041760D01*
X124569260Y-104041762D01*
X124507956Y-104189764D01*
X124507953Y-104189774D01*
X124476700Y-104346894D01*
X124476700Y-104346897D01*
X124476700Y-104507103D01*
X124476700Y-104507105D01*
X124476699Y-104507105D01*
X108116132Y-104507105D01*
X108132049Y-104458116D01*
X108148180Y-104356268D01*
X108153702Y-104321407D01*
X108153702Y-104321406D01*
X108165500Y-104246916D01*
X108165500Y-104033084D01*
X108158955Y-103991760D01*
X108132049Y-103821884D01*
X108078235Y-103656260D01*
X108065973Y-103618519D01*
X108065972Y-103618516D01*
X107984717Y-103459045D01*
X107968894Y-103427991D01*
X107843206Y-103254996D01*
X107692004Y-103103794D01*
X107519009Y-102978106D01*
X107375086Y-102904773D01*
X107324291Y-102856799D01*
X107307496Y-102788978D01*
X107318357Y-102757105D01*
X125926699Y-102757105D01*
X125957953Y-102914225D01*
X125957956Y-102914235D01*
X126019260Y-103062237D01*
X126019261Y-103062239D01*
X126108268Y-103195447D01*
X126108271Y-103195451D01*
X126221548Y-103308728D01*
X126221552Y-103308731D01*
X126354758Y-103397737D01*
X126354759Y-103397737D01*
X126354760Y-103397738D01*
X126354762Y-103397739D01*
X126502764Y-103459043D01*
X126502769Y-103459045D01*
X126502773Y-103459045D01*
X126502774Y-103459046D01*
X126659894Y-103490300D01*
X126659897Y-103490300D01*
X126820105Y-103490300D01*
X126925813Y-103469272D01*
X126977231Y-103459045D01*
X127125242Y-103397737D01*
X127258448Y-103308731D01*
X127371731Y-103195448D01*
X127460737Y-103062242D01*
X127522045Y-102914231D01*
X127533469Y-102856799D01*
X127553300Y-102757105D01*
X127553300Y-102596894D01*
X127522046Y-102439774D01*
X127522045Y-102439773D01*
X127522045Y-102439769D01*
X127522043Y-102439764D01*
X127460739Y-102291762D01*
X127460738Y-102291760D01*
X127371731Y-102158552D01*
X127371728Y-102158548D01*
X127258451Y-102045271D01*
X127258447Y-102045268D01*
X127125239Y-101956261D01*
X127125237Y-101956260D01*
X126977235Y-101894956D01*
X126977225Y-101894953D01*
X126820105Y-101863700D01*
X126820103Y-101863700D01*
X126659897Y-101863700D01*
X126659895Y-101863700D01*
X126502774Y-101894953D01*
X126502764Y-101894956D01*
X126354762Y-101956260D01*
X126354760Y-101956261D01*
X126221552Y-102045268D01*
X126221548Y-102045271D01*
X126108271Y-102158548D01*
X126108268Y-102158552D01*
X126019261Y-102291760D01*
X126019260Y-102291762D01*
X125957956Y-102439764D01*
X125957953Y-102439774D01*
X125926700Y-102596894D01*
X125926700Y-102596897D01*
X125926700Y-102757103D01*
X125926700Y-102757105D01*
X125926699Y-102757105D01*
X107318357Y-102757105D01*
X107330033Y-102722843D01*
X107358497Y-102693971D01*
X107438004Y-102636206D01*
X107589206Y-102485004D01*
X107714894Y-102312009D01*
X107811972Y-102121483D01*
X107878049Y-101918116D01*
X107911500Y-101706916D01*
X107911500Y-101493084D01*
X107878049Y-101281884D01*
X107811972Y-101078517D01*
X107811972Y-101078516D01*
X107714893Y-100887990D01*
X107693864Y-100859046D01*
X107589206Y-100714996D01*
X107438004Y-100563794D01*
X107358496Y-100506028D01*
X107315831Y-100450697D01*
X107309852Y-100381084D01*
X107342458Y-100319289D01*
X107375085Y-100295226D01*
X107519009Y-100221894D01*
X107608184Y-100157105D01*
X127126699Y-100157105D01*
X127157953Y-100314225D01*
X127157956Y-100314235D01*
X127219260Y-100462237D01*
X127219261Y-100462239D01*
X127308268Y-100595447D01*
X127308271Y-100595451D01*
X127421548Y-100708728D01*
X127421552Y-100708731D01*
X127554758Y-100797737D01*
X127554759Y-100797737D01*
X127554760Y-100797738D01*
X127554762Y-100797739D01*
X127702764Y-100859043D01*
X127702769Y-100859045D01*
X127702773Y-100859045D01*
X127702774Y-100859046D01*
X127859894Y-100890300D01*
X127859897Y-100890300D01*
X128020105Y-100890300D01*
X128125813Y-100869272D01*
X128177231Y-100859045D01*
X128325242Y-100797737D01*
X128458448Y-100708731D01*
X128571731Y-100595448D01*
X128660737Y-100462242D01*
X128722045Y-100314231D01*
X128753300Y-100157103D01*
X128753300Y-99996897D01*
X128753300Y-99996894D01*
X128722046Y-99839774D01*
X128722045Y-99839773D01*
X128722045Y-99839769D01*
X128709189Y-99808731D01*
X128660739Y-99691762D01*
X128660738Y-99691760D01*
X128571731Y-99558552D01*
X128571728Y-99558548D01*
X128458451Y-99445271D01*
X128458447Y-99445268D01*
X128325239Y-99356261D01*
X128325237Y-99356260D01*
X128177235Y-99294956D01*
X128177225Y-99294953D01*
X128020105Y-99263700D01*
X128020103Y-99263700D01*
X127859897Y-99263700D01*
X127859895Y-99263700D01*
X127702774Y-99294953D01*
X127702764Y-99294956D01*
X127554762Y-99356260D01*
X127554760Y-99356261D01*
X127421552Y-99445268D01*
X127421548Y-99445271D01*
X127308271Y-99558548D01*
X127308268Y-99558552D01*
X127219261Y-99691760D01*
X127219260Y-99691762D01*
X127157956Y-99839764D01*
X127157953Y-99839774D01*
X127126700Y-99996894D01*
X127126700Y-99996897D01*
X127126700Y-100157103D01*
X127126700Y-100157105D01*
X127126699Y-100157105D01*
X107608184Y-100157105D01*
X107692004Y-100096206D01*
X107843206Y-99945004D01*
X107968894Y-99772009D01*
X108065972Y-99581483D01*
X108132049Y-99378116D01*
X108151215Y-99257105D01*
X112476699Y-99257105D01*
X112507953Y-99414225D01*
X112507956Y-99414235D01*
X112569260Y-99562237D01*
X112569261Y-99562239D01*
X112658268Y-99695447D01*
X112658271Y-99695451D01*
X112771548Y-99808728D01*
X112771552Y-99808731D01*
X112904758Y-99897737D01*
X112904759Y-99897737D01*
X112904760Y-99897738D01*
X112904762Y-99897739D01*
X113052764Y-99959043D01*
X113052769Y-99959045D01*
X113052773Y-99959045D01*
X113052774Y-99959046D01*
X113209894Y-99990300D01*
X113209897Y-99990300D01*
X113370105Y-99990300D01*
X113475813Y-99969272D01*
X113527231Y-99959045D01*
X113675242Y-99897737D01*
X113808448Y-99808731D01*
X113921731Y-99695448D01*
X114010737Y-99562242D01*
X114072045Y-99414231D01*
X114083576Y-99356260D01*
X114103300Y-99257105D01*
X114103300Y-99096894D01*
X114072046Y-98939774D01*
X114072045Y-98939773D01*
X114072045Y-98939769D01*
X114010737Y-98791758D01*
X113921731Y-98658552D01*
X113921728Y-98658548D01*
X113808451Y-98545271D01*
X113808447Y-98545268D01*
X113675239Y-98456261D01*
X113675237Y-98456260D01*
X113527235Y-98394956D01*
X113527225Y-98394953D01*
X113370105Y-98363700D01*
X113370103Y-98363700D01*
X113209897Y-98363700D01*
X113209895Y-98363700D01*
X113052774Y-98394953D01*
X113052764Y-98394956D01*
X112904762Y-98456260D01*
X112904760Y-98456261D01*
X112771552Y-98545268D01*
X112771548Y-98545271D01*
X112658271Y-98658548D01*
X112658268Y-98658552D01*
X112569261Y-98791760D01*
X112569260Y-98791762D01*
X112507956Y-98939764D01*
X112507953Y-98939774D01*
X112476700Y-99096894D01*
X112476700Y-99096897D01*
X112476700Y-99257103D01*
X112476700Y-99257105D01*
X112476699Y-99257105D01*
X108151215Y-99257105D01*
X108165500Y-99166916D01*
X108165500Y-98953084D01*
X108132049Y-98741884D01*
X108099010Y-98640200D01*
X108065973Y-98538519D01*
X108065972Y-98538516D01*
X107968893Y-98347990D01*
X107843206Y-98174996D01*
X107692004Y-98023794D01*
X107519009Y-97898106D01*
X107375086Y-97824773D01*
X107324291Y-97776799D01*
X107307496Y-97708978D01*
X107330033Y-97642843D01*
X107358497Y-97613971D01*
X107438004Y-97556206D01*
X107589206Y-97405004D01*
X107714894Y-97232009D01*
X107811972Y-97041483D01*
X107878049Y-96838116D01*
X107911500Y-96626916D01*
X107911500Y-96413084D01*
X107878049Y-96201884D01*
X107811972Y-95998517D01*
X107811972Y-95998516D01*
X107714893Y-95807990D01*
X107589206Y-95634996D01*
X107438004Y-95483794D01*
X107358496Y-95426028D01*
X107315831Y-95370697D01*
X107309852Y-95301084D01*
X107342458Y-95239289D01*
X107375085Y-95215226D01*
X107519009Y-95141894D01*
X107692004Y-95016206D01*
X107843206Y-94865004D01*
X107968894Y-94692009D01*
X108065972Y-94501483D01*
X108132049Y-94298116D01*
X108165500Y-94086916D01*
X108165500Y-93873084D01*
X108132049Y-93661884D01*
X108065972Y-93458517D01*
X108065972Y-93458516D01*
X107968893Y-93267990D01*
X107917852Y-93197738D01*
X107843206Y-93094996D01*
X107692004Y-92943794D01*
X107579750Y-92862237D01*
X107519007Y-92818104D01*
X107366586Y-92740441D01*
X107315791Y-92692467D01*
X107298996Y-92624646D01*
X107321534Y-92558511D01*
X107349998Y-92529638D01*
X107432462Y-92469725D01*
X107582723Y-92319464D01*
X107582727Y-92319459D01*
X107707620Y-92147557D01*
X107804095Y-91958217D01*
X107820702Y-91907105D01*
X117926699Y-91907105D01*
X117957953Y-92064225D01*
X117957956Y-92064235D01*
X118019260Y-92212237D01*
X118019261Y-92212239D01*
X118108268Y-92345447D01*
X118108271Y-92345451D01*
X118221548Y-92458728D01*
X118221552Y-92458731D01*
X118354758Y-92547737D01*
X118354759Y-92547737D01*
X118354760Y-92547738D01*
X118354762Y-92547739D01*
X118391227Y-92562843D01*
X118502769Y-92609045D01*
X118502773Y-92609045D01*
X118502774Y-92609046D01*
X118659894Y-92640300D01*
X118659897Y-92640300D01*
X118820105Y-92640300D01*
X118925813Y-92619272D01*
X118977231Y-92609045D01*
X119102626Y-92557105D01*
X127326699Y-92557105D01*
X127357953Y-92714225D01*
X127357956Y-92714235D01*
X127419260Y-92862237D01*
X127419261Y-92862239D01*
X127508268Y-92995447D01*
X127508271Y-92995451D01*
X127621548Y-93108728D01*
X127621552Y-93108731D01*
X127754758Y-93197737D01*
X127754759Y-93197737D01*
X127754760Y-93197738D01*
X127754762Y-93197739D01*
X127902764Y-93259043D01*
X127902769Y-93259045D01*
X127902773Y-93259045D01*
X127902774Y-93259046D01*
X128059894Y-93290300D01*
X128059897Y-93290300D01*
X128220105Y-93290300D01*
X128332262Y-93267990D01*
X128377231Y-93259045D01*
X128525242Y-93197737D01*
X128658448Y-93108731D01*
X128771731Y-92995448D01*
X128860737Y-92862242D01*
X128922045Y-92714231D01*
X128942968Y-92609045D01*
X128953300Y-92557105D01*
X128953300Y-92396894D01*
X128922046Y-92239774D01*
X128922045Y-92239773D01*
X128922045Y-92239769D01*
X128909318Y-92209043D01*
X128860739Y-92091762D01*
X128860738Y-92091760D01*
X128842346Y-92064235D01*
X128771731Y-91958552D01*
X128771728Y-91958548D01*
X128658451Y-91845271D01*
X128658447Y-91845268D01*
X128526502Y-91757105D01*
X129026699Y-91757105D01*
X129057953Y-91914225D01*
X129057956Y-91914235D01*
X129119260Y-92062237D01*
X129119261Y-92062239D01*
X129208268Y-92195447D01*
X129208271Y-92195451D01*
X129321548Y-92308728D01*
X129321552Y-92308731D01*
X129454758Y-92397737D01*
X129454759Y-92397737D01*
X129454760Y-92397738D01*
X129454762Y-92397739D01*
X129602004Y-92458728D01*
X129602769Y-92459045D01*
X129602773Y-92459045D01*
X129602774Y-92459046D01*
X129759894Y-92490300D01*
X129759897Y-92490300D01*
X129920105Y-92490300D01*
X130025813Y-92469272D01*
X130077231Y-92459045D01*
X130225242Y-92397737D01*
X130358448Y-92308731D01*
X130471731Y-92195448D01*
X130560737Y-92062242D01*
X130622045Y-91914231D01*
X130642968Y-91809045D01*
X130653300Y-91757105D01*
X130653300Y-91596894D01*
X130628090Y-91470158D01*
X130628090Y-91470157D01*
X130624488Y-91452053D01*
X132604100Y-91452053D01*
X132604100Y-91601946D01*
X132633339Y-91748938D01*
X132633342Y-91748950D01*
X132690697Y-91887419D01*
X132690699Y-91887422D01*
X132773968Y-92012044D01*
X132773974Y-92012051D01*
X132879948Y-92118025D01*
X132879955Y-92118031D01*
X133004577Y-92201300D01*
X133004580Y-92201302D01*
X133097437Y-92239764D01*
X133143054Y-92258659D01*
X133290053Y-92287899D01*
X133290056Y-92287900D01*
X133290058Y-92287900D01*
X133439944Y-92287900D01*
X133439945Y-92287899D01*
X133586946Y-92258659D01*
X133706723Y-92209046D01*
X133725419Y-92201302D01*
X133725422Y-92201300D01*
X133734176Y-92195451D01*
X133850046Y-92118030D01*
X133956030Y-92012046D01*
X134039301Y-91887421D01*
X134096659Y-91748946D01*
X134125900Y-91601942D01*
X134125900Y-91452058D01*
X134125900Y-91452055D01*
X134125899Y-91452053D01*
X134104982Y-91346897D01*
X134096659Y-91305054D01*
X134091153Y-91291762D01*
X134039302Y-91166580D01*
X134039300Y-91166577D01*
X133956031Y-91041955D01*
X133956025Y-91041948D01*
X133850050Y-90935973D01*
X133850043Y-90935968D01*
X133786284Y-90893366D01*
X133741480Y-90839755D01*
X133732773Y-90770431D01*
X133762927Y-90707403D01*
X133807724Y-90675704D01*
X133875237Y-90647739D01*
X133875236Y-90647739D01*
X133875242Y-90647737D01*
X134008448Y-90558731D01*
X134121731Y-90445448D01*
X134210737Y-90312242D01*
X134272045Y-90164231D01*
X134292401Y-90061894D01*
X134303300Y-90007105D01*
X134303300Y-89846894D01*
X134272046Y-89689774D01*
X134272045Y-89689773D01*
X134272045Y-89689769D01*
X134210737Y-89541758D01*
X134121731Y-89408552D01*
X134121728Y-89408548D01*
X134008451Y-89295271D01*
X134008447Y-89295268D01*
X133875239Y-89206261D01*
X133875237Y-89206260D01*
X133727235Y-89144956D01*
X133727225Y-89144953D01*
X133570105Y-89113700D01*
X133570103Y-89113700D01*
X133409897Y-89113700D01*
X133409895Y-89113700D01*
X133252774Y-89144953D01*
X133252764Y-89144956D01*
X133104762Y-89206260D01*
X133104760Y-89206261D01*
X132971552Y-89295268D01*
X132971548Y-89295271D01*
X132858271Y-89408548D01*
X132858268Y-89408552D01*
X132769261Y-89541760D01*
X132769260Y-89541762D01*
X132707956Y-89689764D01*
X132707953Y-89689774D01*
X132676700Y-89846894D01*
X132676700Y-89846897D01*
X132676700Y-90007103D01*
X132676700Y-90007105D01*
X132676699Y-90007105D01*
X132707953Y-90164225D01*
X132707956Y-90164235D01*
X132769260Y-90312237D01*
X132769261Y-90312239D01*
X132858268Y-90445447D01*
X132858271Y-90445451D01*
X132971551Y-90558731D01*
X133024358Y-90594015D01*
X133053818Y-90613700D01*
X133062891Y-90619762D01*
X133107696Y-90673374D01*
X133116403Y-90742699D01*
X133086249Y-90805726D01*
X133041453Y-90837425D01*
X133004577Y-90852699D01*
X132879955Y-90935968D01*
X132879948Y-90935974D01*
X132773974Y-91041948D01*
X132773968Y-91041955D01*
X132690699Y-91166577D01*
X132690697Y-91166580D01*
X132633342Y-91305049D01*
X132633339Y-91305061D01*
X132604100Y-91452053D01*
X130624488Y-91452053D01*
X130623175Y-91445451D01*
X130622045Y-91439769D01*
X130594875Y-91374174D01*
X130560739Y-91291762D01*
X130560738Y-91291760D01*
X130542346Y-91264235D01*
X130471731Y-91158552D01*
X130471728Y-91158548D01*
X130358451Y-91045271D01*
X130358447Y-91045268D01*
X130225239Y-90956261D01*
X130225237Y-90956260D01*
X130077235Y-90894956D01*
X130077225Y-90894953D01*
X129920105Y-90863700D01*
X129920103Y-90863700D01*
X129759897Y-90863700D01*
X129759895Y-90863700D01*
X129602774Y-90894953D01*
X129602764Y-90894956D01*
X129454762Y-90956260D01*
X129454760Y-90956261D01*
X129321552Y-91045268D01*
X129321548Y-91045271D01*
X129208271Y-91158548D01*
X129208268Y-91158552D01*
X129119261Y-91291760D01*
X129119260Y-91291762D01*
X129057956Y-91439764D01*
X129057953Y-91439774D01*
X129026700Y-91596894D01*
X129026700Y-91596897D01*
X129026700Y-91757103D01*
X129026700Y-91757105D01*
X129026699Y-91757105D01*
X128526502Y-91757105D01*
X128525239Y-91756261D01*
X128525237Y-91756260D01*
X128402366Y-91705366D01*
X128402365Y-91705366D01*
X128377231Y-91694955D01*
X128377225Y-91694953D01*
X128220105Y-91663700D01*
X128220103Y-91663700D01*
X128059897Y-91663700D01*
X128059895Y-91663700D01*
X127902774Y-91694953D01*
X127902764Y-91694956D01*
X127754762Y-91756260D01*
X127754760Y-91756261D01*
X127621552Y-91845268D01*
X127621548Y-91845271D01*
X127508271Y-91958548D01*
X127508268Y-91958552D01*
X127419261Y-92091760D01*
X127419260Y-92091762D01*
X127357956Y-92239764D01*
X127357953Y-92239774D01*
X127326700Y-92396894D01*
X127326700Y-92396897D01*
X127326700Y-92557103D01*
X127326700Y-92557105D01*
X127326699Y-92557105D01*
X119102626Y-92557105D01*
X119125242Y-92547737D01*
X119258448Y-92458731D01*
X119371731Y-92345448D01*
X119460737Y-92212242D01*
X119522045Y-92064231D01*
X119545673Y-91945447D01*
X119553300Y-91907105D01*
X119553300Y-91746894D01*
X119522046Y-91589774D01*
X119522045Y-91589773D01*
X119522045Y-91589769D01*
X119509189Y-91558731D01*
X119460739Y-91441762D01*
X119460738Y-91441760D01*
X119459412Y-91439776D01*
X119371731Y-91308552D01*
X119371728Y-91308548D01*
X119258451Y-91195271D01*
X119258447Y-91195268D01*
X119126502Y-91107105D01*
X120976699Y-91107105D01*
X121007953Y-91264225D01*
X121007956Y-91264235D01*
X121069260Y-91412237D01*
X121069261Y-91412239D01*
X121158268Y-91545447D01*
X121158271Y-91545451D01*
X121271548Y-91658728D01*
X121271552Y-91658731D01*
X121404758Y-91747737D01*
X121404759Y-91747737D01*
X121404760Y-91747738D01*
X121404762Y-91747739D01*
X121549372Y-91807638D01*
X121552769Y-91809045D01*
X121552773Y-91809045D01*
X121552774Y-91809046D01*
X121709894Y-91840300D01*
X121709897Y-91840300D01*
X121870105Y-91840300D01*
X121975813Y-91819272D01*
X122027231Y-91809045D01*
X122175242Y-91747737D01*
X122308448Y-91658731D01*
X122421731Y-91545448D01*
X122510737Y-91412242D01*
X122572045Y-91264231D01*
X122591469Y-91166580D01*
X122603300Y-91107105D01*
X122603300Y-91007105D01*
X124826699Y-91007105D01*
X124857953Y-91164225D01*
X124857956Y-91164235D01*
X124919260Y-91312237D01*
X124919261Y-91312239D01*
X125008268Y-91445447D01*
X125008271Y-91445451D01*
X125121548Y-91558728D01*
X125121552Y-91558731D01*
X125254758Y-91647737D01*
X125254759Y-91647737D01*
X125254760Y-91647738D01*
X125254762Y-91647739D01*
X125368755Y-91694956D01*
X125402769Y-91709045D01*
X125402773Y-91709045D01*
X125402774Y-91709046D01*
X125559894Y-91740300D01*
X125706609Y-91740300D01*
X125773648Y-91759985D01*
X125814939Y-91807638D01*
X125816388Y-91806864D01*
X125819261Y-91812239D01*
X125908268Y-91945447D01*
X125908271Y-91945451D01*
X126021548Y-92058728D01*
X126021552Y-92058731D01*
X126154758Y-92147737D01*
X126154759Y-92147737D01*
X126154760Y-92147738D01*
X126154762Y-92147739D01*
X126302764Y-92209043D01*
X126302769Y-92209045D01*
X126302773Y-92209045D01*
X126302774Y-92209046D01*
X126459894Y-92240300D01*
X126459897Y-92240300D01*
X126620105Y-92240300D01*
X126725813Y-92219272D01*
X126777231Y-92209045D01*
X126925242Y-92147737D01*
X127058448Y-92058731D01*
X127171731Y-91945448D01*
X127260737Y-91812242D01*
X127322045Y-91664231D01*
X127336858Y-91589764D01*
X127353300Y-91507105D01*
X127353300Y-91346894D01*
X127322046Y-91189774D01*
X127322045Y-91189773D01*
X127322045Y-91189769D01*
X127312440Y-91166580D01*
X127260739Y-91041762D01*
X127260738Y-91041760D01*
X127171731Y-90908552D01*
X127171728Y-90908548D01*
X127058451Y-90795271D01*
X127058447Y-90795268D01*
X126925239Y-90706261D01*
X126925237Y-90706260D01*
X126777235Y-90644956D01*
X126777225Y-90644953D01*
X126620105Y-90613700D01*
X126620103Y-90613700D01*
X126473391Y-90613700D01*
X126406352Y-90594015D01*
X126365060Y-90546361D01*
X126363612Y-90547136D01*
X126360738Y-90541760D01*
X126338546Y-90508548D01*
X126271731Y-90408552D01*
X126271728Y-90408548D01*
X126158451Y-90295271D01*
X126158447Y-90295268D01*
X126025239Y-90206261D01*
X126025237Y-90206260D01*
X125877235Y-90144956D01*
X125877225Y-90144953D01*
X125720105Y-90113700D01*
X125720103Y-90113700D01*
X125559897Y-90113700D01*
X125559895Y-90113700D01*
X125402774Y-90144953D01*
X125402764Y-90144956D01*
X125254762Y-90206260D01*
X125254760Y-90206261D01*
X125121552Y-90295268D01*
X125121548Y-90295271D01*
X125008271Y-90408548D01*
X125008268Y-90408552D01*
X124919261Y-90541760D01*
X124919260Y-90541762D01*
X124857956Y-90689764D01*
X124857953Y-90689774D01*
X124826700Y-90846894D01*
X124826700Y-90846897D01*
X124826700Y-91007103D01*
X124826700Y-91007105D01*
X124826699Y-91007105D01*
X122603300Y-91007105D01*
X122603300Y-90946894D01*
X122587009Y-90864997D01*
X122587009Y-90864996D01*
X122573139Y-90795269D01*
X122572045Y-90789769D01*
X122551554Y-90740300D01*
X122510739Y-90641762D01*
X122510738Y-90641760D01*
X122500505Y-90626446D01*
X122421731Y-90508552D01*
X122421728Y-90508548D01*
X122308451Y-90395271D01*
X122308447Y-90395268D01*
X122175239Y-90306261D01*
X122175237Y-90306260D01*
X122027235Y-90244956D01*
X122027225Y-90244953D01*
X121870105Y-90213700D01*
X121870103Y-90213700D01*
X121709897Y-90213700D01*
X121709895Y-90213700D01*
X121552774Y-90244953D01*
X121552764Y-90244956D01*
X121404762Y-90306260D01*
X121404760Y-90306261D01*
X121271552Y-90395268D01*
X121271548Y-90395271D01*
X121158271Y-90508548D01*
X121158268Y-90508552D01*
X121069261Y-90641760D01*
X121069260Y-90641762D01*
X121007956Y-90789764D01*
X121007953Y-90789774D01*
X120976700Y-90946894D01*
X120976700Y-90946897D01*
X120976700Y-91107103D01*
X120976700Y-91107105D01*
X120976699Y-91107105D01*
X119126502Y-91107105D01*
X119125239Y-91106261D01*
X119125237Y-91106260D01*
X119002366Y-91055366D01*
X119002365Y-91055366D01*
X118977231Y-91044955D01*
X118977225Y-91044953D01*
X118820105Y-91013700D01*
X118820103Y-91013700D01*
X118659897Y-91013700D01*
X118659895Y-91013700D01*
X118502774Y-91044953D01*
X118502764Y-91044956D01*
X118354762Y-91106260D01*
X118354760Y-91106261D01*
X118221552Y-91195268D01*
X118221548Y-91195271D01*
X118108271Y-91308548D01*
X118108268Y-91308552D01*
X118019261Y-91441760D01*
X118019260Y-91441762D01*
X117957956Y-91589764D01*
X117957953Y-91589774D01*
X117926700Y-91746894D01*
X117926700Y-91746897D01*
X117926700Y-91907103D01*
X117926700Y-91907105D01*
X117926699Y-91907105D01*
X107820702Y-91907105D01*
X107869757Y-91756129D01*
X107869757Y-91756126D01*
X107875257Y-91721407D01*
X107880231Y-91690000D01*
X106986012Y-91690000D01*
X107018925Y-91632993D01*
X107053000Y-91505826D01*
X107053000Y-91374174D01*
X107018925Y-91247007D01*
X106986012Y-91190000D01*
X107880231Y-91190000D01*
X107869757Y-91123873D01*
X107869757Y-91123870D01*
X107804095Y-90921782D01*
X107707620Y-90732442D01*
X107582727Y-90560540D01*
X107582723Y-90560535D01*
X107432464Y-90410276D01*
X107432459Y-90410272D01*
X107349997Y-90350360D01*
X107307331Y-90295030D01*
X107301352Y-90225417D01*
X107333957Y-90163622D01*
X107366587Y-90139557D01*
X107375089Y-90135225D01*
X107519009Y-90061894D01*
X107692004Y-89936206D01*
X107843206Y-89785004D01*
X107968894Y-89612009D01*
X108065972Y-89421483D01*
X108132049Y-89218116D01*
X108165500Y-89006916D01*
X108165500Y-88793084D01*
X108132049Y-88581884D01*
X108065972Y-88378517D01*
X108065972Y-88378516D01*
X107968893Y-88187990D01*
X107951627Y-88164225D01*
X107843206Y-88014996D01*
X107835315Y-88007105D01*
X129176699Y-88007105D01*
X129207953Y-88164225D01*
X129207956Y-88164235D01*
X129269260Y-88312237D01*
X129269261Y-88312239D01*
X129358268Y-88445447D01*
X129358271Y-88445451D01*
X129471548Y-88558728D01*
X129471552Y-88558731D01*
X129604758Y-88647737D01*
X129604759Y-88647737D01*
X129604760Y-88647738D01*
X129604762Y-88647739D01*
X129752764Y-88709043D01*
X129752769Y-88709045D01*
X129752773Y-88709045D01*
X129752774Y-88709046D01*
X129909894Y-88740300D01*
X129909897Y-88740300D01*
X130070105Y-88740300D01*
X130175813Y-88719272D01*
X130227231Y-88709045D01*
X130375242Y-88647737D01*
X130508448Y-88558731D01*
X130621731Y-88445448D01*
X130710737Y-88312242D01*
X130772045Y-88164231D01*
X130803300Y-88007103D01*
X130803300Y-87846897D01*
X130803300Y-87846894D01*
X130772046Y-87689774D01*
X130772045Y-87689773D01*
X130772045Y-87689769D01*
X130710737Y-87541758D01*
X130621731Y-87408552D01*
X130621728Y-87408548D01*
X130508451Y-87295271D01*
X130508447Y-87295268D01*
X130375239Y-87206261D01*
X130375237Y-87206260D01*
X130227235Y-87144956D01*
X130227225Y-87144953D01*
X130070105Y-87113700D01*
X130070103Y-87113700D01*
X129909897Y-87113700D01*
X129909895Y-87113700D01*
X129752774Y-87144953D01*
X129752764Y-87144956D01*
X129604762Y-87206260D01*
X129604760Y-87206261D01*
X129471552Y-87295268D01*
X129471548Y-87295271D01*
X129358271Y-87408548D01*
X129358268Y-87408552D01*
X129269261Y-87541760D01*
X129269260Y-87541762D01*
X129207956Y-87689764D01*
X129207953Y-87689774D01*
X129176700Y-87846894D01*
X129176700Y-87846897D01*
X129176700Y-88007103D01*
X129176700Y-88007105D01*
X129176699Y-88007105D01*
X107835315Y-88007105D01*
X107692004Y-87863794D01*
X107519009Y-87738106D01*
X107375086Y-87664773D01*
X107324291Y-87616799D01*
X107307496Y-87548978D01*
X107330033Y-87482843D01*
X107358497Y-87453971D01*
X107438004Y-87396206D01*
X107589206Y-87245004D01*
X107714894Y-87072009D01*
X107811972Y-86881483D01*
X107878049Y-86678116D01*
X107911500Y-86466916D01*
X107911500Y-86253084D01*
X107878049Y-86041884D01*
X107811972Y-85838517D01*
X107811972Y-85838516D01*
X107714893Y-85647990D01*
X107589206Y-85474996D01*
X107438004Y-85323794D01*
X107358496Y-85266028D01*
X107315831Y-85210697D01*
X107309852Y-85141084D01*
X107342458Y-85079289D01*
X107375085Y-85055226D01*
X107519009Y-84981894D01*
X107692004Y-84856206D01*
X107843206Y-84705004D01*
X107968894Y-84532009D01*
X108065972Y-84341483D01*
X108132049Y-84138116D01*
X108165500Y-83926916D01*
X108165500Y-83713084D01*
X108132049Y-83501884D01*
X108065972Y-83298517D01*
X108065972Y-83298516D01*
X107968893Y-83107990D01*
X107843206Y-82934996D01*
X107692004Y-82783794D01*
X107519009Y-82658106D01*
X107375086Y-82584773D01*
X107324291Y-82536799D01*
X107307496Y-82468978D01*
X107330033Y-82402843D01*
X107358497Y-82373971D01*
X107438004Y-82316206D01*
X107589206Y-82165004D01*
X107714894Y-81992009D01*
X107811972Y-81801483D01*
X107878049Y-81598116D01*
X107911500Y-81386916D01*
X107911500Y-81173084D01*
X148374500Y-81173084D01*
X148374500Y-81386915D01*
X148407951Y-81598117D01*
X148474026Y-81801480D01*
X148474027Y-81801483D01*
X148571106Y-81992009D01*
X148696794Y-82165004D01*
X148847996Y-82316206D01*
X149020991Y-82441894D01*
X149164913Y-82515226D01*
X149215708Y-82563199D01*
X149232503Y-82631020D01*
X149209966Y-82697155D01*
X149181504Y-82726027D01*
X149101996Y-82783793D01*
X148950796Y-82934993D01*
X148825106Y-83107990D01*
X148728027Y-83298516D01*
X148728026Y-83298519D01*
X148661951Y-83501882D01*
X148628500Y-83713084D01*
X148628500Y-83926915D01*
X148661951Y-84138117D01*
X148728026Y-84341480D01*
X148728027Y-84341483D01*
X148825106Y-84532009D01*
X148950794Y-84705004D01*
X149101996Y-84856206D01*
X149181503Y-84913971D01*
X149224168Y-84969301D01*
X149230147Y-85038915D01*
X149197541Y-85100710D01*
X149164912Y-85124774D01*
X149020990Y-85198106D01*
X148847993Y-85323796D01*
X148696796Y-85474993D01*
X148571106Y-85647990D01*
X148474027Y-85838516D01*
X148474026Y-85838519D01*
X148407951Y-86041882D01*
X148374500Y-86253084D01*
X148374500Y-86466915D01*
X148407951Y-86678117D01*
X148474026Y-86881480D01*
X148474027Y-86881483D01*
X148571106Y-87072009D01*
X148696794Y-87245004D01*
X148847996Y-87396206D01*
X149020991Y-87521894D01*
X149164913Y-87595226D01*
X149215708Y-87643199D01*
X149232503Y-87711020D01*
X149209966Y-87777155D01*
X149181504Y-87806027D01*
X149101996Y-87863793D01*
X148950796Y-88014993D01*
X148825106Y-88187990D01*
X148728027Y-88378516D01*
X148728026Y-88378519D01*
X148661951Y-88581882D01*
X148628500Y-88793084D01*
X148628500Y-89006915D01*
X148661951Y-89218117D01*
X148728026Y-89421480D01*
X148728027Y-89421483D01*
X148789311Y-89541758D01*
X148825106Y-89612009D01*
X148950794Y-89785004D01*
X149101996Y-89936206D01*
X149181503Y-89993971D01*
X149224168Y-90049301D01*
X149230147Y-90118915D01*
X149197541Y-90180710D01*
X149164912Y-90204774D01*
X149020990Y-90278106D01*
X148847993Y-90403796D01*
X148696796Y-90554993D01*
X148571106Y-90727990D01*
X148474027Y-90918516D01*
X148474026Y-90918519D01*
X148407951Y-91121882D01*
X148377802Y-91312237D01*
X148374500Y-91333084D01*
X148374500Y-91546916D01*
X148381287Y-91589769D01*
X148407951Y-91758117D01*
X148474026Y-91961480D01*
X148474027Y-91961483D01*
X148553790Y-92118025D01*
X148571106Y-92152009D01*
X148696794Y-92325004D01*
X148847996Y-92476206D01*
X149020991Y-92601894D01*
X149164913Y-92675226D01*
X149215708Y-92723199D01*
X149232503Y-92791020D01*
X149209966Y-92857155D01*
X149181504Y-92886027D01*
X149101996Y-92943793D01*
X148950796Y-93094993D01*
X148825106Y-93267990D01*
X148728027Y-93458516D01*
X148728026Y-93458519D01*
X148661951Y-93661882D01*
X148628500Y-93873084D01*
X148628500Y-94086915D01*
X148661951Y-94298117D01*
X148728026Y-94501480D01*
X148728027Y-94501483D01*
X148825106Y-94692009D01*
X148950794Y-94865004D01*
X149101996Y-95016206D01*
X149181503Y-95073971D01*
X149224168Y-95129301D01*
X149230147Y-95198915D01*
X149197541Y-95260710D01*
X149164912Y-95284774D01*
X149020990Y-95358106D01*
X148847993Y-95483796D01*
X148696796Y-95634993D01*
X148571106Y-95807990D01*
X148474027Y-95998516D01*
X148474026Y-95998519D01*
X148407951Y-96201882D01*
X148374500Y-96413084D01*
X148374500Y-96626915D01*
X148407951Y-96838117D01*
X148474026Y-97041480D01*
X148474027Y-97041483D01*
X148571106Y-97232009D01*
X148696794Y-97405004D01*
X148847996Y-97556206D01*
X149020991Y-97681894D01*
X149164913Y-97755226D01*
X149215708Y-97803199D01*
X149232503Y-97871020D01*
X149209966Y-97937155D01*
X149181504Y-97966027D01*
X149101996Y-98023793D01*
X148950796Y-98174993D01*
X148825106Y-98347990D01*
X148728027Y-98538516D01*
X148728026Y-98538519D01*
X148661951Y-98741882D01*
X148628500Y-98953084D01*
X148628500Y-99166915D01*
X148661951Y-99378117D01*
X148728026Y-99581480D01*
X148728027Y-99581483D01*
X148825106Y-99772009D01*
X148950794Y-99945004D01*
X149101996Y-100096206D01*
X149181503Y-100153971D01*
X149224168Y-100209301D01*
X149230147Y-100278915D01*
X149197541Y-100340710D01*
X149164912Y-100364774D01*
X149020990Y-100438106D01*
X148847993Y-100563796D01*
X148696796Y-100714993D01*
X148571106Y-100887990D01*
X148474027Y-101078516D01*
X148474026Y-101078519D01*
X148407951Y-101281882D01*
X148374500Y-101493084D01*
X148374500Y-101706915D01*
X148407951Y-101918117D01*
X148474026Y-102121480D01*
X148474027Y-102121483D01*
X148560790Y-102291762D01*
X148571106Y-102312009D01*
X148696794Y-102485004D01*
X148847996Y-102636206D01*
X149020991Y-102761894D01*
X149164913Y-102835226D01*
X149215708Y-102883199D01*
X149232503Y-102951020D01*
X149209966Y-103017155D01*
X149181504Y-103046027D01*
X149101996Y-103103793D01*
X148950796Y-103254993D01*
X148825106Y-103427990D01*
X148728027Y-103618516D01*
X148728026Y-103618519D01*
X148661951Y-103821882D01*
X148628500Y-104033084D01*
X148628500Y-104246915D01*
X148661951Y-104458117D01*
X148728026Y-104661480D01*
X148728027Y-104661483D01*
X148825106Y-104852009D01*
X148950794Y-105025004D01*
X149101996Y-105176206D01*
X149181503Y-105233971D01*
X149224168Y-105289301D01*
X149230147Y-105358915D01*
X149197541Y-105420710D01*
X149164912Y-105444774D01*
X149020990Y-105518106D01*
X148847993Y-105643796D01*
X148696796Y-105794993D01*
X148571106Y-105967990D01*
X148474027Y-106158516D01*
X148474026Y-106158519D01*
X148407951Y-106361882D01*
X148374500Y-106573084D01*
X148374500Y-106786915D01*
X148407951Y-106998117D01*
X148474026Y-107201480D01*
X148474027Y-107201483D01*
X148547292Y-107345271D01*
X148571106Y-107392009D01*
X148696794Y-107565004D01*
X148847996Y-107716206D01*
X149020991Y-107841894D01*
X149164913Y-107915226D01*
X149215708Y-107963199D01*
X149232503Y-108031020D01*
X149209966Y-108097155D01*
X149181504Y-108126027D01*
X149101996Y-108183793D01*
X148950796Y-108334993D01*
X148825106Y-108507990D01*
X148728027Y-108698516D01*
X148728026Y-108698519D01*
X148661951Y-108901882D01*
X148628500Y-109113084D01*
X148628500Y-109326915D01*
X148661951Y-109538117D01*
X148728026Y-109741480D01*
X148728027Y-109741483D01*
X148825106Y-109932009D01*
X148950794Y-110105004D01*
X149101996Y-110256206D01*
X149181503Y-110313971D01*
X149224168Y-110369301D01*
X149230147Y-110438915D01*
X149197541Y-110500710D01*
X149164912Y-110524774D01*
X149020990Y-110598106D01*
X148847993Y-110723796D01*
X148696796Y-110874993D01*
X148571106Y-111047990D01*
X148474027Y-111238516D01*
X148474026Y-111238519D01*
X148407951Y-111441882D01*
X148374500Y-111653084D01*
X148374500Y-111866915D01*
X148407951Y-112078117D01*
X148474026Y-112281480D01*
X148474027Y-112281483D01*
X148571106Y-112472009D01*
X148696794Y-112645004D01*
X148847996Y-112796206D01*
X149020991Y-112921894D01*
X149164913Y-112995226D01*
X149215708Y-113043199D01*
X149232503Y-113111020D01*
X149209966Y-113177155D01*
X149181504Y-113206027D01*
X149101996Y-113263793D01*
X148950796Y-113414993D01*
X148825106Y-113587990D01*
X148728027Y-113778516D01*
X148728026Y-113778519D01*
X148661951Y-113981882D01*
X148628500Y-114193084D01*
X148628500Y-114406915D01*
X148661951Y-114618117D01*
X148728026Y-114821480D01*
X148728027Y-114821483D01*
X148825106Y-115012009D01*
X148950794Y-115185004D01*
X149101996Y-115336206D01*
X149181503Y-115393971D01*
X149224168Y-115449301D01*
X149230147Y-115518915D01*
X149197541Y-115580710D01*
X149164912Y-115604774D01*
X149020990Y-115678106D01*
X148847993Y-115803796D01*
X148696796Y-115954993D01*
X148571106Y-116127990D01*
X148474027Y-116318516D01*
X148474026Y-116318519D01*
X148407951Y-116521882D01*
X148374500Y-116733084D01*
X148374500Y-116946915D01*
X148407951Y-117158117D01*
X148474026Y-117361480D01*
X148474027Y-117361483D01*
X148571106Y-117552009D01*
X148696794Y-117725004D01*
X148847996Y-117876206D01*
X149020991Y-118001894D01*
X149114438Y-118049507D01*
X149211516Y-118098972D01*
X149211519Y-118098973D01*
X149313200Y-118132010D01*
X149414884Y-118165049D01*
X149626084Y-118198500D01*
X149626085Y-118198500D01*
X149839915Y-118198500D01*
X149839916Y-118198500D01*
X150051116Y-118165049D01*
X150254483Y-118098972D01*
X150445009Y-118001894D01*
X150618004Y-117876206D01*
X150769206Y-117725004D01*
X150894894Y-117552009D01*
X150991972Y-117361483D01*
X151058049Y-117158116D01*
X151091500Y-116946916D01*
X151091500Y-116733084D01*
X151058049Y-116521884D01*
X150991972Y-116318517D01*
X150991972Y-116318516D01*
X150894893Y-116127990D01*
X150769206Y-115954996D01*
X150618004Y-115803794D01*
X150538496Y-115746028D01*
X150495831Y-115690697D01*
X150489852Y-115621084D01*
X150522458Y-115559289D01*
X150555085Y-115535226D01*
X150699009Y-115461894D01*
X150872004Y-115336206D01*
X151023206Y-115185004D01*
X151148894Y-115012009D01*
X151245972Y-114821483D01*
X151312049Y-114618116D01*
X151345500Y-114406916D01*
X151345500Y-114193084D01*
X151312049Y-113981884D01*
X151245972Y-113778517D01*
X151245972Y-113778516D01*
X151148893Y-113587990D01*
X151023206Y-113414996D01*
X150872004Y-113263794D01*
X150699009Y-113138106D01*
X150555086Y-113064773D01*
X150504291Y-113016799D01*
X150487496Y-112948978D01*
X150510033Y-112882843D01*
X150538497Y-112853971D01*
X150618004Y-112796206D01*
X150769206Y-112645004D01*
X150894894Y-112472009D01*
X150991972Y-112281483D01*
X151058049Y-112078116D01*
X151091500Y-111866916D01*
X151091500Y-111653084D01*
X151058049Y-111441884D01*
X150991972Y-111238517D01*
X150991972Y-111238516D01*
X150894893Y-111047990D01*
X150769206Y-110874996D01*
X150618004Y-110723794D01*
X150538496Y-110666028D01*
X150495831Y-110610697D01*
X150489852Y-110541084D01*
X150522458Y-110479289D01*
X150555085Y-110455226D01*
X150699009Y-110381894D01*
X150872004Y-110256206D01*
X151023206Y-110105004D01*
X151148894Y-109932009D01*
X151245972Y-109741483D01*
X151312049Y-109538116D01*
X151345500Y-109326916D01*
X151345500Y-109113084D01*
X151312049Y-108901884D01*
X151265639Y-108759046D01*
X151245973Y-108698519D01*
X151245972Y-108698516D01*
X151165088Y-108539774D01*
X151148894Y-108507991D01*
X151023206Y-108334996D01*
X150872004Y-108183794D01*
X150699009Y-108058106D01*
X150555086Y-107984773D01*
X150504291Y-107936799D01*
X150487496Y-107868978D01*
X150510033Y-107802843D01*
X150538497Y-107773971D01*
X150618004Y-107716206D01*
X150769206Y-107565004D01*
X150894894Y-107392009D01*
X150991972Y-107201483D01*
X151058049Y-106998116D01*
X151091500Y-106786916D01*
X151091500Y-106573084D01*
X151058049Y-106361884D01*
X151012851Y-106222777D01*
X150991973Y-106158519D01*
X150991972Y-106158516D01*
X150894893Y-105967990D01*
X150855835Y-105914231D01*
X150769206Y-105794996D01*
X150618004Y-105643794D01*
X150538496Y-105586028D01*
X150495831Y-105530697D01*
X150489852Y-105461084D01*
X150522458Y-105399289D01*
X150555085Y-105375226D01*
X150699009Y-105301894D01*
X150872004Y-105176206D01*
X151023206Y-105025004D01*
X151148894Y-104852009D01*
X151245972Y-104661483D01*
X151312049Y-104458116D01*
X151345500Y-104246916D01*
X151345500Y-104033084D01*
X151312049Y-103821884D01*
X151258235Y-103656260D01*
X151245973Y-103618519D01*
X151245972Y-103618516D01*
X151164717Y-103459045D01*
X151148894Y-103427991D01*
X151023206Y-103254996D01*
X150872004Y-103103794D01*
X150699009Y-102978106D01*
X150555086Y-102904773D01*
X150504291Y-102856799D01*
X150487496Y-102788978D01*
X150510033Y-102722843D01*
X150538497Y-102693971D01*
X150618004Y-102636206D01*
X150769206Y-102485004D01*
X150894894Y-102312009D01*
X150991972Y-102121483D01*
X151058049Y-101918116D01*
X151091500Y-101706916D01*
X151091500Y-101493084D01*
X151058049Y-101281884D01*
X150991972Y-101078517D01*
X150991972Y-101078516D01*
X150894893Y-100887990D01*
X150873864Y-100859046D01*
X150769206Y-100714996D01*
X150618004Y-100563794D01*
X150538496Y-100506028D01*
X150495831Y-100450697D01*
X150489852Y-100381084D01*
X150522458Y-100319289D01*
X150555085Y-100295226D01*
X150699009Y-100221894D01*
X150872004Y-100096206D01*
X151023206Y-99945004D01*
X151148894Y-99772009D01*
X151245972Y-99581483D01*
X151312049Y-99378116D01*
X151345500Y-99166916D01*
X151345500Y-98953084D01*
X151312049Y-98741884D01*
X151279010Y-98640200D01*
X151245973Y-98538519D01*
X151245972Y-98538516D01*
X151148893Y-98347990D01*
X151023206Y-98174996D01*
X150872004Y-98023794D01*
X150699009Y-97898106D01*
X150555086Y-97824773D01*
X150504291Y-97776799D01*
X150487496Y-97708978D01*
X150510033Y-97642843D01*
X150538497Y-97613971D01*
X150618004Y-97556206D01*
X150769206Y-97405004D01*
X150894894Y-97232009D01*
X150991972Y-97041483D01*
X151058049Y-96838116D01*
X151091500Y-96626916D01*
X151091500Y-96413084D01*
X151058049Y-96201884D01*
X150991972Y-95998517D01*
X150991972Y-95998516D01*
X150894893Y-95807990D01*
X150769206Y-95634996D01*
X150618004Y-95483794D01*
X150538496Y-95426028D01*
X150495831Y-95370697D01*
X150489852Y-95301084D01*
X150522458Y-95239289D01*
X150555085Y-95215226D01*
X150699009Y-95141894D01*
X150872004Y-95016206D01*
X151023206Y-94865004D01*
X151148894Y-94692009D01*
X151245972Y-94501483D01*
X151312049Y-94298116D01*
X151345500Y-94086916D01*
X151345500Y-93873084D01*
X151312049Y-93661884D01*
X151245972Y-93458517D01*
X151245972Y-93458516D01*
X151148893Y-93267990D01*
X151097852Y-93197738D01*
X151023206Y-93094996D01*
X150872004Y-92943794D01*
X150699009Y-92818106D01*
X150555086Y-92744773D01*
X150504291Y-92696799D01*
X150487496Y-92628978D01*
X150510033Y-92562843D01*
X150538497Y-92533971D01*
X150544461Y-92529638D01*
X150618004Y-92476206D01*
X150769206Y-92325004D01*
X150894894Y-92152009D01*
X150991972Y-91961483D01*
X151058049Y-91758116D01*
X151091500Y-91546916D01*
X151091500Y-91333084D01*
X151058049Y-91121884D01*
X150991972Y-90918517D01*
X150991972Y-90918516D01*
X150934502Y-90805726D01*
X150894894Y-90727991D01*
X150769206Y-90554996D01*
X150618004Y-90403794D01*
X150538496Y-90346028D01*
X150495831Y-90290697D01*
X150489852Y-90221084D01*
X150522458Y-90159289D01*
X150555085Y-90135226D01*
X150699009Y-90061894D01*
X150872004Y-89936206D01*
X151023206Y-89785004D01*
X151148894Y-89612009D01*
X151245972Y-89421483D01*
X151312049Y-89218116D01*
X151345500Y-89006916D01*
X151345500Y-88793084D01*
X151312049Y-88581884D01*
X151245972Y-88378517D01*
X151245972Y-88378516D01*
X151148893Y-88187990D01*
X151131627Y-88164225D01*
X151023206Y-88014996D01*
X150872004Y-87863794D01*
X150699009Y-87738106D01*
X150555086Y-87664773D01*
X150504291Y-87616799D01*
X150487496Y-87548978D01*
X150510033Y-87482843D01*
X150538497Y-87453971D01*
X150618004Y-87396206D01*
X150769206Y-87245004D01*
X150894894Y-87072009D01*
X150991972Y-86881483D01*
X151058049Y-86678116D01*
X151091500Y-86466916D01*
X151091500Y-86253084D01*
X151058049Y-86041884D01*
X150991972Y-85838517D01*
X150991972Y-85838516D01*
X150894893Y-85647990D01*
X150769206Y-85474996D01*
X150618004Y-85323794D01*
X150538496Y-85266028D01*
X150495831Y-85210697D01*
X150489852Y-85141084D01*
X150522458Y-85079289D01*
X150555085Y-85055226D01*
X150699009Y-84981894D01*
X150872004Y-84856206D01*
X151023206Y-84705004D01*
X151148894Y-84532009D01*
X151245972Y-84341483D01*
X151312049Y-84138116D01*
X151345500Y-83926916D01*
X151345500Y-83713084D01*
X151312049Y-83501884D01*
X151245972Y-83298517D01*
X151245972Y-83298516D01*
X151148893Y-83107990D01*
X151023206Y-82934996D01*
X150872004Y-82783794D01*
X150699009Y-82658106D01*
X150555086Y-82584773D01*
X150504291Y-82536799D01*
X150487496Y-82468978D01*
X150510033Y-82402843D01*
X150538497Y-82373971D01*
X150618004Y-82316206D01*
X150769206Y-82165004D01*
X150894894Y-81992009D01*
X150991972Y-81801483D01*
X151058049Y-81598116D01*
X151091500Y-81386916D01*
X151091500Y-81173084D01*
X151058049Y-80961884D01*
X150991972Y-80758517D01*
X150991972Y-80758516D01*
X150894893Y-80567990D01*
X150843852Y-80497738D01*
X150769206Y-80394996D01*
X150618004Y-80243794D01*
X150538496Y-80186028D01*
X150495831Y-80130697D01*
X150489852Y-80061084D01*
X150522458Y-79999289D01*
X150555085Y-79975226D01*
X150699009Y-79901894D01*
X150872004Y-79776206D01*
X151023206Y-79625004D01*
X151148894Y-79452009D01*
X151245972Y-79261483D01*
X151312049Y-79058116D01*
X151345500Y-78846916D01*
X151345500Y-78633084D01*
X151312049Y-78421884D01*
X151245972Y-78218517D01*
X151245972Y-78218516D01*
X151148893Y-78027990D01*
X151023206Y-77854996D01*
X150872004Y-77703794D01*
X150841558Y-77681673D01*
X150798894Y-77626345D01*
X150792915Y-77556732D01*
X150825521Y-77494937D01*
X150840134Y-77482091D01*
X150940187Y-77407190D01*
X150940190Y-77407187D01*
X151026350Y-77292093D01*
X151026354Y-77292086D01*
X151076596Y-77157379D01*
X151076598Y-77157372D01*
X151082999Y-77097844D01*
X151083000Y-77097827D01*
X151083000Y-76450000D01*
X150166012Y-76450000D01*
X150198925Y-76392993D01*
X150233000Y-76265826D01*
X150233000Y-76134174D01*
X150198925Y-76007007D01*
X150166012Y-75950000D01*
X151083000Y-75950000D01*
X151083000Y-75302172D01*
X151082999Y-75302155D01*
X151076598Y-75242627D01*
X151076596Y-75242620D01*
X151026354Y-75107913D01*
X151026350Y-75107906D01*
X150940190Y-74992812D01*
X150940187Y-74992809D01*
X150825093Y-74906649D01*
X150825086Y-74906645D01*
X150690379Y-74856403D01*
X150690372Y-74856401D01*
X150630844Y-74850000D01*
X149983000Y-74850000D01*
X149983000Y-75766988D01*
X149925993Y-75734075D01*
X149798826Y-75700000D01*
X149667174Y-75700000D01*
X149540007Y-75734075D01*
X149483000Y-75766988D01*
X149483000Y-74850000D01*
X148835155Y-74850000D01*
X148775627Y-74856401D01*
X148775620Y-74856403D01*
X148640913Y-74906645D01*
X148640906Y-74906649D01*
X148525812Y-74992809D01*
X148525809Y-74992812D01*
X148439649Y-75107906D01*
X148439645Y-75107913D01*
X148389403Y-75242620D01*
X148389401Y-75242627D01*
X148383000Y-75302155D01*
X148383000Y-75950000D01*
X149299988Y-75950000D01*
X149267075Y-76007007D01*
X149233000Y-76134174D01*
X149233000Y-76265826D01*
X149267075Y-76392993D01*
X149299988Y-76450000D01*
X148383000Y-76450000D01*
X148383000Y-77097844D01*
X148389401Y-77157372D01*
X148389403Y-77157379D01*
X148439645Y-77292086D01*
X148439649Y-77292093D01*
X148525809Y-77407187D01*
X148525812Y-77407190D01*
X148640906Y-77493350D01*
X148640913Y-77493354D01*
X148775620Y-77543596D01*
X148775627Y-77543598D01*
X148835155Y-77549999D01*
X148835172Y-77550000D01*
X148956428Y-77550000D01*
X149023467Y-77569685D01*
X149069222Y-77622489D01*
X149079166Y-77691647D01*
X149050141Y-77755203D01*
X149044109Y-77761681D01*
X148950796Y-77854993D01*
X148825106Y-78027990D01*
X148728027Y-78218516D01*
X148728026Y-78218519D01*
X148661951Y-78421882D01*
X148628500Y-78633084D01*
X148628500Y-78846915D01*
X148661951Y-79058117D01*
X148728026Y-79261480D01*
X148728027Y-79261483D01*
X148825106Y-79452009D01*
X148950794Y-79625004D01*
X149101996Y-79776206D01*
X149181503Y-79833971D01*
X149224168Y-79889301D01*
X149230147Y-79958915D01*
X149197541Y-80020710D01*
X149164912Y-80044774D01*
X149020990Y-80118106D01*
X148847993Y-80243796D01*
X148696796Y-80394993D01*
X148571106Y-80567990D01*
X148474027Y-80758516D01*
X148474026Y-80758519D01*
X148407951Y-80961882D01*
X148374500Y-81173084D01*
X107911500Y-81173084D01*
X107878049Y-80961884D01*
X107811972Y-80758517D01*
X107811972Y-80758516D01*
X107714893Y-80567990D01*
X107663852Y-80497738D01*
X107589206Y-80394996D01*
X107438004Y-80243794D01*
X107358496Y-80186028D01*
X107315831Y-80130697D01*
X107309852Y-80061084D01*
X107342458Y-79999289D01*
X107375085Y-79975226D01*
X107519009Y-79901894D01*
X107580656Y-79857105D01*
X125226699Y-79857105D01*
X125257953Y-80014225D01*
X125257956Y-80014235D01*
X125319260Y-80162237D01*
X125319261Y-80162239D01*
X125408268Y-80295447D01*
X125408271Y-80295451D01*
X125521548Y-80408728D01*
X125521552Y-80408731D01*
X125654758Y-80497737D01*
X125654759Y-80497737D01*
X125654760Y-80497738D01*
X125654762Y-80497739D01*
X125802764Y-80559043D01*
X125802769Y-80559045D01*
X125802773Y-80559045D01*
X125802774Y-80559046D01*
X125959894Y-80590300D01*
X125959897Y-80590300D01*
X126120105Y-80590300D01*
X126232262Y-80567990D01*
X126277231Y-80559045D01*
X126425242Y-80497737D01*
X126558448Y-80408731D01*
X126671731Y-80295448D01*
X126760737Y-80162242D01*
X126822045Y-80014231D01*
X126844390Y-79901895D01*
X126853300Y-79857105D01*
X126853300Y-79696894D01*
X126822046Y-79539774D01*
X126822045Y-79539773D01*
X126822045Y-79539769D01*
X126760737Y-79391758D01*
X126671731Y-79258552D01*
X126671728Y-79258548D01*
X126558451Y-79145271D01*
X126558447Y-79145268D01*
X126425239Y-79056261D01*
X126425237Y-79056260D01*
X126277235Y-78994956D01*
X126277225Y-78994953D01*
X126120105Y-78963700D01*
X126120103Y-78963700D01*
X125959897Y-78963700D01*
X125959895Y-78963700D01*
X125802774Y-78994953D01*
X125802764Y-78994956D01*
X125654762Y-79056260D01*
X125654760Y-79056261D01*
X125521552Y-79145268D01*
X125521548Y-79145271D01*
X125408271Y-79258548D01*
X125408268Y-79258552D01*
X125319261Y-79391760D01*
X125319260Y-79391762D01*
X125257956Y-79539764D01*
X125257953Y-79539774D01*
X125226700Y-79696894D01*
X125226700Y-79696897D01*
X125226700Y-79857103D01*
X125226700Y-79857105D01*
X125226699Y-79857105D01*
X107580656Y-79857105D01*
X107692004Y-79776206D01*
X107843206Y-79625004D01*
X107968894Y-79452009D01*
X108065972Y-79261483D01*
X108132049Y-79058116D01*
X108165500Y-78846916D01*
X108165500Y-78633084D01*
X108132049Y-78421884D01*
X108065972Y-78218517D01*
X108065972Y-78218516D01*
X107968893Y-78027990D01*
X107843206Y-77854996D01*
X107692004Y-77703794D01*
X107668757Y-77686904D01*
X107626091Y-77631574D01*
X107620112Y-77561961D01*
X107652718Y-77500166D01*
X107667331Y-77487319D01*
X107675735Y-77481028D01*
X107766261Y-77413261D01*
X107853889Y-77296204D01*
X107904989Y-77159201D01*
X107908591Y-77125692D01*
X107911499Y-77098654D01*
X107911500Y-77098637D01*
X107911500Y-76357105D01*
X133226699Y-76357105D01*
X133257953Y-76514225D01*
X133257956Y-76514235D01*
X133319260Y-76662237D01*
X133319261Y-76662239D01*
X133408268Y-76795447D01*
X133408271Y-76795451D01*
X133521548Y-76908728D01*
X133521552Y-76908731D01*
X133654758Y-76997737D01*
X133654759Y-76997737D01*
X133654760Y-76997738D01*
X133654762Y-76997739D01*
X133802764Y-77059043D01*
X133802769Y-77059045D01*
X133802773Y-77059045D01*
X133802774Y-77059046D01*
X133959894Y-77090300D01*
X133959897Y-77090300D01*
X134120105Y-77090300D01*
X134225813Y-77069272D01*
X134277231Y-77059045D01*
X134425242Y-76997737D01*
X134558448Y-76908731D01*
X134671731Y-76795448D01*
X134760737Y-76662242D01*
X134822045Y-76514231D01*
X134832272Y-76462813D01*
X134853300Y-76357105D01*
X134853300Y-76196894D01*
X134822046Y-76039774D01*
X134822045Y-76039773D01*
X134822045Y-76039769D01*
X134760737Y-75891758D01*
X134671731Y-75758552D01*
X134671728Y-75758548D01*
X134558451Y-75645271D01*
X134558447Y-75645268D01*
X134425239Y-75556261D01*
X134425237Y-75556260D01*
X134277235Y-75494956D01*
X134277225Y-75494953D01*
X134120105Y-75463700D01*
X134120103Y-75463700D01*
X133959897Y-75463700D01*
X133959895Y-75463700D01*
X133802774Y-75494953D01*
X133802764Y-75494956D01*
X133654762Y-75556260D01*
X133654760Y-75556261D01*
X133521552Y-75645268D01*
X133521548Y-75645271D01*
X133408271Y-75758548D01*
X133408268Y-75758552D01*
X133319261Y-75891760D01*
X133319260Y-75891762D01*
X133257956Y-76039764D01*
X133257953Y-76039774D01*
X133226700Y-76196894D01*
X133226700Y-76196897D01*
X133226700Y-76357103D01*
X133226700Y-76357105D01*
X133226699Y-76357105D01*
X107911500Y-76357105D01*
X107911500Y-75301362D01*
X107911499Y-75301345D01*
X107908157Y-75270270D01*
X107904989Y-75240799D01*
X107853889Y-75103796D01*
X107766261Y-74986739D01*
X107649204Y-74899111D01*
X107512203Y-74848011D01*
X107451654Y-74841500D01*
X107451638Y-74841500D01*
X105654362Y-74841500D01*
X105654345Y-74841500D01*
X105593797Y-74848011D01*
X105593795Y-74848011D01*
X105456795Y-74899111D01*
X105339739Y-74986739D01*
X105252111Y-75103795D01*
X105201011Y-75240795D01*
X105201011Y-75240797D01*
X105194500Y-75301345D01*
X104440500Y-75301345D01*
X104440500Y-73665412D01*
X104440972Y-73654605D01*
X104454283Y-73502456D01*
X104454283Y-73502449D01*
X104458034Y-73481178D01*
X104496161Y-73338884D01*
X104503553Y-73318579D01*
X104565802Y-73185085D01*
X104576609Y-73166366D01*
X104661100Y-73045700D01*
X104674988Y-73029148D01*
X104779148Y-72924988D01*
X104795700Y-72911100D01*
X104916366Y-72826609D01*
X104935085Y-72815802D01*
X105068579Y-72753553D01*
X105088884Y-72746161D01*
X105231178Y-72708034D01*
X105252451Y-72704283D01*
X105404605Y-72690971D01*
X105415412Y-72690500D01*
X105457594Y-72690500D01*
X151082406Y-72690500D01*
X151124588Y-72690500D01*
X151135394Y-72690971D01*
G37*
%TD.AperFunction*%
%TD*%
M02*
