%TF.GenerationSoftware,KiCad,Pcbnew,10.0.2*%
%TF.CreationDate,2026-09-05T08:04:12-04:00*%
%TF.ProjectId,UIUCBreakout,55495543-4272-4656-916b-6f75742e6b69,rev?*%
%TF.SameCoordinates,Original*%
%TF.FileFunction,Legend,Bot*%
%TF.FilePolarity,Positive*%
%FSLAX46Y46*%
G04 Gerber Fmt 4.6, Leading zero omitted, Abs format (unit mm)*
G04 Created by KiCad (PCBNEW 10.0.2) date 2026-09-05 08:04:12*
%MOMM*%
%LPD*%
G01*
G04 APERTURE LIST*
%ADD10C,0.300000*%
%ADD11C,0.150000*%
%ADD12C,0.120000*%
%ADD13R,1.700000X1.700000*%
%ADD14O,1.700000X1.700000*%
G04 APERTURE END LIST*
D10*
X143210712Y-117994757D02*
X143353570Y-117923328D01*
X143353570Y-117923328D02*
X143567855Y-117923328D01*
X143567855Y-117923328D02*
X143782141Y-117994757D01*
X143782141Y-117994757D02*
X143924998Y-118137614D01*
X143924998Y-118137614D02*
X143996427Y-118280471D01*
X143996427Y-118280471D02*
X144067855Y-118566185D01*
X144067855Y-118566185D02*
X144067855Y-118780471D01*
X144067855Y-118780471D02*
X143996427Y-119066185D01*
X143996427Y-119066185D02*
X143924998Y-119209042D01*
X143924998Y-119209042D02*
X143782141Y-119351900D01*
X143782141Y-119351900D02*
X143567855Y-119423328D01*
X143567855Y-119423328D02*
X143424998Y-119423328D01*
X143424998Y-119423328D02*
X143210712Y-119351900D01*
X143210712Y-119351900D02*
X143139284Y-119280471D01*
X143139284Y-119280471D02*
X143139284Y-118780471D01*
X143139284Y-118780471D02*
X143424998Y-118780471D01*
X141924998Y-119351900D02*
X142067855Y-119423328D01*
X142067855Y-119423328D02*
X142353570Y-119423328D01*
X142353570Y-119423328D02*
X142496427Y-119351900D01*
X142496427Y-119351900D02*
X142567855Y-119209042D01*
X142567855Y-119209042D02*
X142567855Y-118637614D01*
X142567855Y-118637614D02*
X142496427Y-118494757D01*
X142496427Y-118494757D02*
X142353570Y-118423328D01*
X142353570Y-118423328D02*
X142067855Y-118423328D01*
X142067855Y-118423328D02*
X141924998Y-118494757D01*
X141924998Y-118494757D02*
X141853570Y-118637614D01*
X141853570Y-118637614D02*
X141853570Y-118780471D01*
X141853570Y-118780471D02*
X142567855Y-118923328D01*
X140996427Y-119423328D02*
X141139284Y-119351900D01*
X141139284Y-119351900D02*
X141210713Y-119280471D01*
X141210713Y-119280471D02*
X141282141Y-119137614D01*
X141282141Y-119137614D02*
X141282141Y-118709042D01*
X141282141Y-118709042D02*
X141210713Y-118566185D01*
X141210713Y-118566185D02*
X141139284Y-118494757D01*
X141139284Y-118494757D02*
X140996427Y-118423328D01*
X140996427Y-118423328D02*
X140782141Y-118423328D01*
X140782141Y-118423328D02*
X140639284Y-118494757D01*
X140639284Y-118494757D02*
X140567856Y-118566185D01*
X140567856Y-118566185D02*
X140496427Y-118709042D01*
X140496427Y-118709042D02*
X140496427Y-119137614D01*
X140496427Y-119137614D02*
X140567856Y-119280471D01*
X140567856Y-119280471D02*
X140639284Y-119351900D01*
X140639284Y-119351900D02*
X140782141Y-119423328D01*
X140782141Y-119423328D02*
X140996427Y-119423328D01*
X140067855Y-118423328D02*
X139496427Y-118423328D01*
X139853570Y-119423328D02*
X139853570Y-118137614D01*
X139853570Y-118137614D02*
X139782141Y-117994757D01*
X139782141Y-117994757D02*
X139639284Y-117923328D01*
X139639284Y-117923328D02*
X139496427Y-117923328D01*
X139210712Y-118423328D02*
X138639284Y-118423328D01*
X138996427Y-119423328D02*
X138996427Y-118137614D01*
X138996427Y-118137614D02*
X138924998Y-117994757D01*
X138924998Y-117994757D02*
X138782141Y-117923328D01*
X138782141Y-117923328D02*
X138639284Y-117923328D01*
X138139284Y-119423328D02*
X138139284Y-118423328D01*
X138139284Y-118709042D02*
X138067855Y-118566185D01*
X138067855Y-118566185D02*
X137996427Y-118494757D01*
X137996427Y-118494757D02*
X137853569Y-118423328D01*
X137853569Y-118423328D02*
X137710712Y-118423328D01*
X136639284Y-119351900D02*
X136782141Y-119423328D01*
X136782141Y-119423328D02*
X137067856Y-119423328D01*
X137067856Y-119423328D02*
X137210713Y-119351900D01*
X137210713Y-119351900D02*
X137282141Y-119209042D01*
X137282141Y-119209042D02*
X137282141Y-118637614D01*
X137282141Y-118637614D02*
X137210713Y-118494757D01*
X137210713Y-118494757D02*
X137067856Y-118423328D01*
X137067856Y-118423328D02*
X136782141Y-118423328D01*
X136782141Y-118423328D02*
X136639284Y-118494757D01*
X136639284Y-118494757D02*
X136567856Y-118637614D01*
X136567856Y-118637614D02*
X136567856Y-118780471D01*
X136567856Y-118780471D02*
X137282141Y-118923328D01*
X136067856Y-118423328D02*
X135710713Y-119423328D01*
X135353570Y-118423328D02*
X135710713Y-119423328D01*
X135710713Y-119423328D02*
X135853570Y-119780471D01*
X135853570Y-119780471D02*
X135924999Y-119851900D01*
X135924999Y-119851900D02*
X136067856Y-119923328D01*
X133139285Y-118637614D02*
X132924999Y-118709042D01*
X132924999Y-118709042D02*
X132853570Y-118780471D01*
X132853570Y-118780471D02*
X132782142Y-118923328D01*
X132782142Y-118923328D02*
X132782142Y-119137614D01*
X132782142Y-119137614D02*
X132853570Y-119280471D01*
X132853570Y-119280471D02*
X132924999Y-119351900D01*
X132924999Y-119351900D02*
X133067856Y-119423328D01*
X133067856Y-119423328D02*
X133639285Y-119423328D01*
X133639285Y-119423328D02*
X133639285Y-117923328D01*
X133639285Y-117923328D02*
X133139285Y-117923328D01*
X133139285Y-117923328D02*
X132996428Y-117994757D01*
X132996428Y-117994757D02*
X132924999Y-118066185D01*
X132924999Y-118066185D02*
X132853570Y-118209042D01*
X132853570Y-118209042D02*
X132853570Y-118351900D01*
X132853570Y-118351900D02*
X132924999Y-118494757D01*
X132924999Y-118494757D02*
X132996428Y-118566185D01*
X132996428Y-118566185D02*
X133139285Y-118637614D01*
X133139285Y-118637614D02*
X133639285Y-118637614D01*
X132139285Y-119423328D02*
X132139285Y-118423328D01*
X132139285Y-118709042D02*
X132067856Y-118566185D01*
X132067856Y-118566185D02*
X131996428Y-118494757D01*
X131996428Y-118494757D02*
X131853570Y-118423328D01*
X131853570Y-118423328D02*
X131710713Y-118423328D01*
X130996428Y-119423328D02*
X131139285Y-119351900D01*
X131139285Y-119351900D02*
X131210714Y-119280471D01*
X131210714Y-119280471D02*
X131282142Y-119137614D01*
X131282142Y-119137614D02*
X131282142Y-118709042D01*
X131282142Y-118709042D02*
X131210714Y-118566185D01*
X131210714Y-118566185D02*
X131139285Y-118494757D01*
X131139285Y-118494757D02*
X130996428Y-118423328D01*
X130996428Y-118423328D02*
X130782142Y-118423328D01*
X130782142Y-118423328D02*
X130639285Y-118494757D01*
X130639285Y-118494757D02*
X130567857Y-118566185D01*
X130567857Y-118566185D02*
X130496428Y-118709042D01*
X130496428Y-118709042D02*
X130496428Y-119137614D01*
X130496428Y-119137614D02*
X130567857Y-119280471D01*
X130567857Y-119280471D02*
X130639285Y-119351900D01*
X130639285Y-119351900D02*
X130782142Y-119423328D01*
X130782142Y-119423328D02*
X130996428Y-119423328D01*
X129996428Y-118423328D02*
X129710714Y-119423328D01*
X129710714Y-119423328D02*
X129424999Y-118709042D01*
X129424999Y-118709042D02*
X129139285Y-119423328D01*
X129139285Y-119423328D02*
X128853571Y-118423328D01*
X128282142Y-118423328D02*
X128282142Y-119423328D01*
X128282142Y-118566185D02*
X128210713Y-118494757D01*
X128210713Y-118494757D02*
X128067856Y-118423328D01*
X128067856Y-118423328D02*
X127853570Y-118423328D01*
X127853570Y-118423328D02*
X127710713Y-118494757D01*
X127710713Y-118494757D02*
X127639285Y-118637614D01*
X127639285Y-118637614D02*
X127639285Y-119423328D01*
X125710713Y-119423328D02*
X125424999Y-119423328D01*
X125424999Y-119423328D02*
X125282142Y-119351900D01*
X125282142Y-119351900D02*
X125210713Y-119280471D01*
X125210713Y-119280471D02*
X125067856Y-119066185D01*
X125067856Y-119066185D02*
X124996427Y-118780471D01*
X124996427Y-118780471D02*
X124996427Y-118209042D01*
X124996427Y-118209042D02*
X125067856Y-118066185D01*
X125067856Y-118066185D02*
X125139285Y-117994757D01*
X125139285Y-117994757D02*
X125282142Y-117923328D01*
X125282142Y-117923328D02*
X125567856Y-117923328D01*
X125567856Y-117923328D02*
X125710713Y-117994757D01*
X125710713Y-117994757D02*
X125782142Y-118066185D01*
X125782142Y-118066185D02*
X125853570Y-118209042D01*
X125853570Y-118209042D02*
X125853570Y-118566185D01*
X125853570Y-118566185D02*
X125782142Y-118709042D01*
X125782142Y-118709042D02*
X125710713Y-118780471D01*
X125710713Y-118780471D02*
X125567856Y-118851900D01*
X125567856Y-118851900D02*
X125282142Y-118851900D01*
X125282142Y-118851900D02*
X125139285Y-118780471D01*
X125139285Y-118780471D02*
X125067856Y-118709042D01*
X125067856Y-118709042D02*
X124996427Y-118566185D01*
X123639285Y-117923328D02*
X124353571Y-117923328D01*
X124353571Y-117923328D02*
X124424999Y-118637614D01*
X124424999Y-118637614D02*
X124353571Y-118566185D01*
X124353571Y-118566185D02*
X124210714Y-118494757D01*
X124210714Y-118494757D02*
X123853571Y-118494757D01*
X123853571Y-118494757D02*
X123710714Y-118566185D01*
X123710714Y-118566185D02*
X123639285Y-118637614D01*
X123639285Y-118637614D02*
X123567856Y-118780471D01*
X123567856Y-118780471D02*
X123567856Y-119137614D01*
X123567856Y-119137614D02*
X123639285Y-119280471D01*
X123639285Y-119280471D02*
X123710714Y-119351900D01*
X123710714Y-119351900D02*
X123853571Y-119423328D01*
X123853571Y-119423328D02*
X124210714Y-119423328D01*
X124210714Y-119423328D02*
X124353571Y-119351900D01*
X124353571Y-119351900D02*
X124424999Y-119280471D01*
X121853571Y-117851900D02*
X123139285Y-119780471D01*
X121424999Y-118066185D02*
X121353571Y-117994757D01*
X121353571Y-117994757D02*
X121210714Y-117923328D01*
X121210714Y-117923328D02*
X120853571Y-117923328D01*
X120853571Y-117923328D02*
X120710714Y-117994757D01*
X120710714Y-117994757D02*
X120639285Y-118066185D01*
X120639285Y-118066185D02*
X120567856Y-118209042D01*
X120567856Y-118209042D02*
X120567856Y-118351900D01*
X120567856Y-118351900D02*
X120639285Y-118566185D01*
X120639285Y-118566185D02*
X121496428Y-119423328D01*
X121496428Y-119423328D02*
X120567856Y-119423328D01*
X119639285Y-117923328D02*
X119496428Y-117923328D01*
X119496428Y-117923328D02*
X119353571Y-117994757D01*
X119353571Y-117994757D02*
X119282143Y-118066185D01*
X119282143Y-118066185D02*
X119210714Y-118209042D01*
X119210714Y-118209042D02*
X119139285Y-118494757D01*
X119139285Y-118494757D02*
X119139285Y-118851900D01*
X119139285Y-118851900D02*
X119210714Y-119137614D01*
X119210714Y-119137614D02*
X119282143Y-119280471D01*
X119282143Y-119280471D02*
X119353571Y-119351900D01*
X119353571Y-119351900D02*
X119496428Y-119423328D01*
X119496428Y-119423328D02*
X119639285Y-119423328D01*
X119639285Y-119423328D02*
X119782143Y-119351900D01*
X119782143Y-119351900D02*
X119853571Y-119280471D01*
X119853571Y-119280471D02*
X119925000Y-119137614D01*
X119925000Y-119137614D02*
X119996428Y-118851900D01*
X119996428Y-118851900D02*
X119996428Y-118494757D01*
X119996428Y-118494757D02*
X119925000Y-118209042D01*
X119925000Y-118209042D02*
X119853571Y-118066185D01*
X119853571Y-118066185D02*
X119782143Y-117994757D01*
X119782143Y-117994757D02*
X119639285Y-117923328D01*
X118567857Y-118066185D02*
X118496429Y-117994757D01*
X118496429Y-117994757D02*
X118353572Y-117923328D01*
X118353572Y-117923328D02*
X117996429Y-117923328D01*
X117996429Y-117923328D02*
X117853572Y-117994757D01*
X117853572Y-117994757D02*
X117782143Y-118066185D01*
X117782143Y-118066185D02*
X117710714Y-118209042D01*
X117710714Y-118209042D02*
X117710714Y-118351900D01*
X117710714Y-118351900D02*
X117782143Y-118566185D01*
X117782143Y-118566185D02*
X118639286Y-119423328D01*
X118639286Y-119423328D02*
X117710714Y-119423328D01*
X116425001Y-117923328D02*
X116710715Y-117923328D01*
X116710715Y-117923328D02*
X116853572Y-117994757D01*
X116853572Y-117994757D02*
X116925001Y-118066185D01*
X116925001Y-118066185D02*
X117067858Y-118280471D01*
X117067858Y-118280471D02*
X117139286Y-118566185D01*
X117139286Y-118566185D02*
X117139286Y-119137614D01*
X117139286Y-119137614D02*
X117067858Y-119280471D01*
X117067858Y-119280471D02*
X116996429Y-119351900D01*
X116996429Y-119351900D02*
X116853572Y-119423328D01*
X116853572Y-119423328D02*
X116567858Y-119423328D01*
X116567858Y-119423328D02*
X116425001Y-119351900D01*
X116425001Y-119351900D02*
X116353572Y-119280471D01*
X116353572Y-119280471D02*
X116282143Y-119137614D01*
X116282143Y-119137614D02*
X116282143Y-118780471D01*
X116282143Y-118780471D02*
X116353572Y-118637614D01*
X116353572Y-118637614D02*
X116425001Y-118566185D01*
X116425001Y-118566185D02*
X116567858Y-118494757D01*
X116567858Y-118494757D02*
X116853572Y-118494757D01*
X116853572Y-118494757D02*
X116996429Y-118566185D01*
X116996429Y-118566185D02*
X117067858Y-118637614D01*
X117067858Y-118637614D02*
X117139286Y-118780471D01*
D11*
X107013333Y-73324819D02*
X107013333Y-74039104D01*
X107013333Y-74039104D02*
X107060952Y-74181961D01*
X107060952Y-74181961D02*
X107156190Y-74277200D01*
X107156190Y-74277200D02*
X107299047Y-74324819D01*
X107299047Y-74324819D02*
X107394285Y-74324819D01*
X106632380Y-73324819D02*
X106013333Y-73324819D01*
X106013333Y-73324819D02*
X106346666Y-73705771D01*
X106346666Y-73705771D02*
X106203809Y-73705771D01*
X106203809Y-73705771D02*
X106108571Y-73753390D01*
X106108571Y-73753390D02*
X106060952Y-73801009D01*
X106060952Y-73801009D02*
X106013333Y-73896247D01*
X106013333Y-73896247D02*
X106013333Y-74134342D01*
X106013333Y-74134342D02*
X106060952Y-74229580D01*
X106060952Y-74229580D02*
X106108571Y-74277200D01*
X106108571Y-74277200D02*
X106203809Y-74324819D01*
X106203809Y-74324819D02*
X106489523Y-74324819D01*
X106489523Y-74324819D02*
X106584761Y-74277200D01*
X106584761Y-74277200D02*
X106632380Y-74229580D01*
X150193333Y-73324819D02*
X150193333Y-74039104D01*
X150193333Y-74039104D02*
X150240952Y-74181961D01*
X150240952Y-74181961D02*
X150336190Y-74277200D01*
X150336190Y-74277200D02*
X150479047Y-74324819D01*
X150479047Y-74324819D02*
X150574285Y-74324819D01*
X149288571Y-73658152D02*
X149288571Y-74324819D01*
X149526666Y-73277200D02*
X149764761Y-73991485D01*
X149764761Y-73991485D02*
X149145714Y-73991485D01*
%TO.C,J3*%
D12*
X105350000Y-77470000D02*
X105350000Y-118170000D01*
X108010000Y-74870000D02*
X106680000Y-74870000D01*
X108010000Y-76200000D02*
X108010000Y-74870000D01*
X108010000Y-77470000D02*
X105350000Y-77470000D01*
X108010000Y-77470000D02*
X108010000Y-118170000D01*
X108010000Y-118170000D02*
X105350000Y-118170000D01*
%TO.C,J4*%
X148530000Y-77470000D02*
X148530000Y-118170000D01*
X151190000Y-74870000D02*
X149860000Y-74870000D01*
X151190000Y-76200000D02*
X151190000Y-74870000D01*
X151190000Y-77470000D02*
X148530000Y-77470000D01*
X151190000Y-77470000D02*
X151190000Y-118170000D01*
X151190000Y-118170000D02*
X148530000Y-118170000D01*
%TD*%
%LPC*%
D13*
%TO.C,J3*%
X106553000Y-76200000D03*
D14*
X106807000Y-78740000D03*
X106553000Y-81280000D03*
X106807000Y-83820000D03*
X106553000Y-86360000D03*
X106807000Y-88900000D03*
X106553000Y-91440000D03*
X106807000Y-93980000D03*
X106553000Y-96520000D03*
X106807000Y-99060000D03*
X106553000Y-101600000D03*
X106807000Y-104140000D03*
X106553000Y-106680000D03*
X106807000Y-109220000D03*
X106553000Y-111760000D03*
X106807000Y-114300000D03*
X106553000Y-116840000D03*
%TD*%
D13*
%TO.C,J4*%
X149733000Y-76200000D03*
D14*
X149987000Y-78740000D03*
X149733000Y-81280000D03*
X149987000Y-83820000D03*
X149733000Y-86360000D03*
X149987000Y-88900000D03*
X149733000Y-91440000D03*
X149987000Y-93980000D03*
X149733000Y-96520000D03*
X149987000Y-99060000D03*
X149733000Y-101600000D03*
X149987000Y-104140000D03*
X149733000Y-106680000D03*
X149987000Y-109220000D03*
X149733000Y-111760000D03*
X149987000Y-114300000D03*
X149733000Y-116840000D03*
%TD*%
%LPD*%
M02*
