%TF.GenerationSoftware,KiCad,Pcbnew,10.0.2*%
%TF.CreationDate,2026-07-08T13:13:14-04:00*%
%TF.ProjectId,tag-breakout-l432-1v8-v1,7461672d-6272-4656-916b-6f75742d6c34,rev?*%
%TF.SameCoordinates,Original*%
%TF.FileFunction,Copper,L4,Bot*%
%TF.FilePolarity,Positive*%
%FSLAX46Y46*%
G04 Gerber Fmt 4.6, Leading zero omitted, Abs format (unit mm)*
G04 Created by KiCad (PCBNEW 10.0.2) date 2026-07-08 13:13:14*
%MOMM*%
%LPD*%
G01*
G04 APERTURE LIST*
G04 Aperture macros list*
%AMRoundRect*
0 Rectangle with rounded corners*
0 $1 Rounding radius*
0 $2 $3 $4 $5 $6 $7 $8 $9 X,Y pos of 4 corners*
0 Add a 4 corners polygon primitive as box body*
4,1,4,$2,$3,$4,$5,$6,$7,$8,$9,$2,$3,0*
0 Add four circle primitives for the rounded corners*
1,1,$1+$1,$2,$3*
1,1,$1+$1,$4,$5*
1,1,$1+$1,$6,$7*
1,1,$1+$1,$8,$9*
0 Add four rect primitives between the rounded corners*
20,1,$1+$1,$2,$3,$4,$5,0*
20,1,$1+$1,$4,$5,$6,$7,0*
20,1,$1+$1,$6,$7,$8,$9,0*
20,1,$1+$1,$8,$9,$2,$3,0*%
G04 Aperture macros list end*
%TA.AperFunction,ComponentPad*%
%ADD10C,1.016000*%
%TD*%
%TA.AperFunction,ComponentPad*%
%ADD11R,1.700000X1.700000*%
%TD*%
%TA.AperFunction,ComponentPad*%
%ADD12C,1.700000*%
%TD*%
%TA.AperFunction,ComponentPad*%
%ADD13O,1.700000X1.700000*%
%TD*%
%TA.AperFunction,ComponentPad*%
%ADD14RoundRect,0.250000X0.725000X-0.600000X0.725000X0.600000X-0.725000X0.600000X-0.725000X-0.600000X0*%
%TD*%
%TA.AperFunction,ComponentPad*%
%ADD15O,1.950000X1.700000*%
%TD*%
%TA.AperFunction,SMDPad,CuDef*%
%ADD16C,2.500000*%
%TD*%
%TA.AperFunction,ViaPad*%
%ADD17C,0.660400*%
%TD*%
%TA.AperFunction,Conductor*%
%ADD18C,0.152400*%
%TD*%
G04 APERTURE END LIST*
D10*
%TO.P,J102,1,Pin_1_1*%
%TO.N,+3V3*%
X15671800Y59664600D03*
%TO.P,J102,2,Pin_2_2*%
%TO.N,/SWDIO*%
X16941800Y59664600D03*
%TO.P,J102,3,Pin_3_3*%
%TO.N,GND*%
X15671800Y58394600D03*
%TO.P,J102,4,Pin_4_4*%
%TO.N,/SCLK*%
X16941800Y58394600D03*
%TO.P,J102,5,Pin_5_5*%
%TO.N,GND*%
X15671800Y57124600D03*
%TO.P,J102,6,Pin_6_6*%
%TO.N,unconnected-(J102-Pin_6-Pad6)*%
X16941800Y57124600D03*
%TO.P,J102,7,Pin_7_7*%
%TO.N,unconnected-(J102-Pin_7-Pad7)*%
X15671800Y55854600D03*
%TO.P,J102,8,Pin_8_8*%
%TO.N,unconnected-(J102-Pin_8-Pad8)*%
X16941800Y55854600D03*
%TO.P,J102,9,Pin_9_9*%
%TO.N,GND*%
X15671800Y54584600D03*
%TO.P,J102,10,Pin_10_10*%
%TO.N,/NRST*%
X16941800Y54584600D03*
%TD*%
D11*
%TO.P,J2,1,Pin_1_1*%
%TO.N,/UART_TX*%
X9265000Y69100000D03*
D12*
%TO.P,J2,2,Pin_2_2*%
%TO.N,GND*%
X6725000Y69100000D03*
%TD*%
D11*
%TO.P,J3,1,Pin_1_1*%
%TO.N,/stm32/PB4*%
X5207000Y48200000D03*
D13*
%TO.P,J3,2,Pin_2_2*%
%TO.N,/stm32/PB5*%
X4953000Y45660000D03*
%TO.P,J3,3,Pin_3_3*%
%TO.N,/stm32/rtc_scl*%
X5207000Y43120000D03*
%TO.P,J3,4,Pin_4_4*%
%TO.N,/stm32/rtc_sda*%
X4953000Y40580000D03*
%TO.P,J3,5,Pin_5_5*%
%TO.N,GND*%
X5207000Y38040000D03*
%TO.P,J3,6,Pin_6_6*%
X4953000Y35500000D03*
%TO.P,J3,7,Pin_7_7*%
%TO.N,TAG_1V8*%
X5207000Y32960000D03*
%TO.P,J3,8,Pin_8_8*%
%TO.N,/stm32/PA0*%
X4953000Y30420000D03*
%TO.P,J3,9,Pin_9_9*%
%TO.N,/stm32/PA1*%
X5207000Y27880000D03*
%TO.P,J3,10,Pin_10_10*%
%TO.N,/stm32/PA2*%
X4953000Y25340000D03*
%TO.P,J3,11,Pin_11_11*%
%TO.N,/stm32/PA3*%
X5207000Y22800000D03*
%TO.P,J3,12,Pin_12_12*%
%TO.N,/stm32/PA4*%
X4953000Y20260000D03*
%TO.P,J3,13,Pin_13_13*%
%TO.N,/stm32/PA5*%
X5207000Y17720000D03*
%TO.P,J3,14,Pin_14_14*%
%TO.N,/stm32/PA6*%
X4953000Y15180000D03*
%TO.P,J3,15,Pin_15_15*%
%TO.N,/stm32/PA7*%
X5207000Y12640000D03*
%TO.P,J3,16,Pin_16_16*%
%TO.N,/stm32/PB0*%
X4953000Y10100000D03*
%TO.P,J3,17,Pin_17_17*%
%TO.N,GND*%
X5207000Y7560000D03*
%TD*%
D11*
%TO.P,J4,1,Pin_1_1*%
%TO.N,TAG_1V8*%
X48387000Y48200000D03*
D13*
%TO.P,J4,2,Pin_2_2*%
%TO.N,/stm32/PB3*%
X48133000Y45660000D03*
%TO.P,J4,3,Pin_3_3*%
%TO.N,/stm32/PA15*%
X48387000Y43120000D03*
%TO.P,J4,4,Pin_4_4*%
%TO.N,/stm32/PA12*%
X48133000Y40580000D03*
%TO.P,J4,5,Pin_5_5*%
%TO.N,/stm32/PA11*%
X48387000Y38040000D03*
%TO.P,J4,6,Pin_6_6*%
%TO.N,/stm32/PA10*%
X48133000Y35500000D03*
%TO.P,J4,7,Pin_7_7*%
%TO.N,/stm32/PA9*%
X48387000Y32960000D03*
%TO.P,J4,8,Pin_8_8*%
%TO.N,/stm32/PA8*%
X48133000Y30420000D03*
%TO.P,J4,9,Pin_9_9*%
%TO.N,GND*%
X48387000Y27880000D03*
%TO.P,J4,10,Pin_10_10*%
X48133000Y25340000D03*
%TO.P,J4,11,Pin_11_11*%
X48387000Y22800000D03*
%TO.P,J4,12,Pin_12_12*%
X48133000Y20260000D03*
%TO.P,J4,13,Pin_13_13*%
X48387000Y17720000D03*
%TO.P,J4,14,Pin_14_14*%
X48133000Y15180000D03*
%TO.P,J4,15,Pin_15_15*%
X48387000Y12640000D03*
%TO.P,J4,16,Pin_16_16*%
%TO.N,/stm32/PB1*%
X48133000Y10100000D03*
%TO.P,J4,17,Pin_17_17*%
%TO.N,GND*%
X48387000Y7560000D03*
%TD*%
D14*
%TO.P,J1,1,Pin_1_1*%
%TO.N,PWR_IN_MIRROR*%
X48260000Y58360000D03*
D15*
%TO.P,J1,2,Pin_2_2*%
%TO.N,PWR_IN*%
X48260000Y60860000D03*
%TO.P,J1,3,Pin_3_3*%
%TO.N,AUX_PWR*%
X48260000Y63360000D03*
%TO.P,J1,4,Pin_4_4*%
%TO.N,GND*%
X48260000Y65860000D03*
%TD*%
D16*
%TO.P,TP3,1,1_1*%
%TO.N,TAG_SWDIO*%
X32875000Y41150000D03*
%TD*%
%TO.P,TP7,1,1_1*%
%TO.N,/stm32/NRST*%
X25650000Y39050000D03*
%TD*%
%TO.P,TP1,1,1_1*%
%TO.N,Net-(U5-PB4)*%
X31750000Y51650000D03*
%TD*%
%TO.P,TP5,1,1_1*%
%TO.N,Net-(U5-PA15)*%
X23100000Y46625000D03*
%TD*%
%TO.P,TP2,1,1_1*%
%TO.N,Net-(U5-PB3)*%
X26100000Y52200000D03*
%TD*%
%TO.P,TP4,1,1_1*%
%TO.N,TAG_SCK*%
X36150000Y30875000D03*
%TD*%
D17*
%TO.N,+3V3*%
X32700000Y48900000D03*
X28400000Y48400000D03*
X4600000Y60175000D03*
X38587600Y65887600D03*
X39995300Y52501300D03*
X4575000Y56400000D03*
X33045400Y58140600D03*
X34137600Y54787800D03*
X26800000Y61900000D03*
%TO.N,GND*%
X38836600Y71526400D03*
X20800000Y35400000D03*
X22968400Y27271000D03*
X35356800Y56743600D03*
X17000000Y53500000D03*
X25300000Y29500000D03*
X36398200Y65836800D03*
X35700000Y33600000D03*
X34500000Y43500000D03*
X24200000Y63200000D03*
X32080200Y44170600D03*
X28016200Y44272200D03*
X25100000Y63300000D03*
X15595600Y67106800D03*
X30759400Y49149000D03*
X36998200Y54150000D03*
X24866600Y25628600D03*
X27323835Y29543600D03*
X33300000Y34900000D03*
X35000000Y36150000D03*
X27900000Y50600000D03*
X29750000Y26850000D03*
X18000000Y57800000D03*
X34112200Y72491600D03*
X29438600Y58445400D03*
X28309050Y58509050D03*
X24600000Y36700000D03*
X35382200Y57937400D03*
X31950000Y24650000D03*
X29309050Y57509050D03*
X32300000Y33400000D03*
X29413200Y56718200D03*
X35280600Y55651400D03*
X10400000Y56725000D03*
X21800000Y55100000D03*
X18000000Y59100000D03*
X28575000Y61137800D03*
X19989800Y51943000D03*
X31100000Y26000000D03*
X24800000Y60600000D03*
X33400000Y23043600D03*
X20700000Y61200000D03*
X29400000Y29150000D03*
X37406434Y48636366D03*
X36118800Y66675000D03*
X22943000Y31182600D03*
X26670000Y49276000D03*
X32400000Y46500000D03*
X40300000Y43500000D03*
X28400000Y46100000D03*
%TO.N,/NRST*%
X32918400Y56819800D03*
%TO.N,/boot0*%
X10425000Y54350000D03*
X30375000Y54125000D03*
%TO.N,Net-(U5-PA10)*%
X25800000Y57863800D03*
X22936200Y54856400D03*
%TO.N,TAG_1V8*%
X27405000Y25651400D03*
X27500000Y27758200D03*
X39000000Y46025000D03*
X21099200Y28693400D03*
X35433000Y23926800D03*
%TO.N,/stm32/NRST*%
X25746200Y36608200D03*
X25500000Y27500000D03*
%TO.N,/UART_TX*%
X20700000Y60300000D03*
X25848088Y58700000D03*
%TO.N,/stm32/rtc_scl*%
X22100000Y35000000D03*
X25200000Y30400000D03*
%TO.N,/stm32/PB3*%
X34600000Y34600000D03*
X32387078Y32503373D03*
%TO.N,/stm32/PA15*%
X34700000Y33700000D03*
X32600000Y31600000D03*
%TO.N,+1V8*%
X27990600Y45209400D03*
X32169400Y45130600D03*
%TO.N,Net-(U5-PB4)*%
X30145200Y49804800D03*
%TO.N,Net-(U5-PA15)*%
X28450000Y51900000D03*
X29275000Y49000000D03*
X27454300Y54100000D03*
%TO.N,Net-(U5-PB3)*%
X25900000Y50100000D03*
%TO.N,TAG_SWDIO*%
X30275000Y41150000D03*
%TO.N,TAG_SCK*%
X33292500Y30225000D03*
%TD*%
%TO.N,+3V3*%
D18*
X34188400Y54838600D02*
X34137600Y54787800D01*
%TO.N,/NRST*%
X29972000Y55270400D02*
X25039348Y55270400D01*
X23845548Y54076600D02*
X17449800Y54076600D01*
X32918400Y56819800D02*
X31521400Y56819800D01*
X31521400Y56819800D02*
X29972000Y55270400D01*
X25039348Y55270400D02*
X23845548Y54076600D01*
X17449800Y54076600D02*
X16941800Y54584600D01*
%TO.N,/boot0*%
X22975000Y52775000D02*
X12000000Y52775000D01*
X25000000Y54800000D02*
X22975000Y52775000D01*
X29575000Y54125000D02*
X28900000Y54800000D01*
X12000000Y52775000D02*
X10425000Y54350000D01*
X30375000Y54125000D02*
X29575000Y54125000D01*
X28900000Y54800000D02*
X25000000Y54800000D01*
%TO.N,Net-(U5-PA10)*%
X25800000Y57863800D02*
X25800000Y57720200D01*
X25800000Y57720200D02*
X22936200Y54856400D01*
%TO.N,TAG_1V8*%
X27500000Y25746400D02*
X27405000Y25651400D01*
X27500000Y27758200D02*
X27500000Y25746400D01*
%TO.N,/stm32/NRST*%
X25650000Y36704400D02*
X25650000Y39050000D01*
X26000000Y28000000D02*
X26000000Y36354400D01*
X26000000Y36354400D02*
X25746200Y36608200D01*
X25746200Y36608200D02*
X25650000Y36704400D01*
X25500000Y27500000D02*
X26000000Y28000000D01*
%TO.N,/UART_TX*%
X25848088Y58700000D02*
X25800000Y58700000D01*
X25848088Y58700000D02*
X22300000Y58700000D01*
X22300000Y58700000D02*
X20700000Y60300000D01*
%TO.N,/stm32/rtc_scl*%
X25200000Y30400000D02*
X25200000Y31900000D01*
X25200000Y31900000D02*
X22100000Y35000000D01*
%TO.N,/stm32/PB3*%
X34600000Y34600000D02*
X32503373Y32503373D01*
X32503373Y32503373D02*
X32387078Y32503373D01*
%TO.N,/stm32/PA15*%
X32600000Y31600000D02*
X34700000Y33700000D01*
%TO.N,+1V8*%
X32090600Y45209400D02*
X27990600Y45209400D01*
X32169400Y45130600D02*
X32090600Y45209400D01*
%TO.N,Net-(U5-PB4)*%
X30145200Y50045200D02*
X30145200Y49804800D01*
X31750000Y51650000D02*
X30145200Y50045200D01*
%TO.N,Net-(U5-PA15)*%
X27900000Y46625000D02*
X29300000Y48025000D01*
X23100000Y46625000D02*
X27900000Y46625000D01*
X28450000Y53104300D02*
X28450000Y51900000D01*
X29300000Y48025000D02*
X29275000Y48050000D01*
X27454300Y54100000D02*
X28450000Y53104300D01*
X29275000Y48050000D02*
X29275000Y49000000D01*
%TO.N,Net-(U5-PB3)*%
X26100000Y52200000D02*
X26100000Y50300000D01*
X26100000Y50300000D02*
X25900000Y50100000D01*
%TO.N,TAG_SWDIO*%
X32875000Y41150000D02*
X30275000Y41150000D01*
%TO.N,TAG_SCK*%
X33942500Y30875000D02*
X33292500Y30225000D01*
X36150000Y30875000D02*
X33942500Y30875000D01*
%TD*%
%TA.AperFunction,Conductor*%
%TO.N,GND*%
G36*
X16372567Y53742319D02*
G01*
X16376335Y53739898D01*
X16460307Y53683790D01*
X16645298Y53607164D01*
X16645300Y53607164D01*
X16648225Y53606276D01*
X16649571Y53605394D01*
X16651017Y53604795D01*
X16650903Y53604521D01*
X16707608Y53567364D01*
X16736527Y53502524D01*
X16725799Y53432342D01*
X16678832Y53379101D01*
X16611655Y53359700D01*
X16000216Y53359700D01*
X15932095Y53379702D01*
X15885602Y53433358D01*
X15875498Y53503632D01*
X15904992Y53568212D01*
X15963647Y53606277D01*
X15968161Y53607647D01*
X16153053Y53684231D01*
X16236347Y53739887D01*
X16304100Y53761102D01*
X16372567Y53742319D01*
G37*
%TD.AperFunction*%
%TA.AperFunction,Conductor*%
G36*
X50803801Y73524270D02*
G01*
X50832245Y73522550D01*
X51089466Y73506991D01*
X51104547Y73505160D01*
X51382305Y73454259D01*
X51397052Y73450624D01*
X51666660Y73366611D01*
X51680872Y73361220D01*
X51699685Y73352753D01*
X51938355Y73245336D01*
X51951827Y73238266D01*
X52193476Y73092185D01*
X52205998Y73083541D01*
X52428267Y72909405D01*
X52439656Y72899315D01*
X52639314Y72699657D01*
X52649404Y72688268D01*
X52823540Y72465999D01*
X52832184Y72453477D01*
X52978265Y72211828D01*
X52985335Y72198356D01*
X53101217Y71940878D01*
X53106613Y71926652D01*
X53190619Y71657069D01*
X53194260Y71642295D01*
X53245157Y71364560D01*
X53246991Y71349456D01*
X53264270Y71063803D01*
X53264500Y71056195D01*
X53264500Y2483806D01*
X53264270Y2476198D01*
X53246991Y2190545D01*
X53245157Y2175441D01*
X53194260Y1897706D01*
X53190619Y1882932D01*
X53106613Y1613349D01*
X53101217Y1599123D01*
X52985335Y1341645D01*
X52978265Y1328173D01*
X52832184Y1086524D01*
X52823540Y1074002D01*
X52649404Y851733D01*
X52639314Y840344D01*
X52439656Y640686D01*
X52428267Y630596D01*
X52205998Y456460D01*
X52193476Y447816D01*
X51951827Y301735D01*
X51938355Y294665D01*
X51680877Y178783D01*
X51666651Y173387D01*
X51397068Y89381D01*
X51382294Y85740D01*
X51104559Y34843D01*
X51089455Y33009D01*
X50803802Y15730D01*
X50796194Y15500D01*
X2543806Y15500D01*
X2536198Y15730D01*
X2250544Y33009D01*
X2235440Y34843D01*
X1957705Y85740D01*
X1942935Y89380D01*
X1673348Y173387D01*
X1659122Y178783D01*
X1401644Y294665D01*
X1388172Y301735D01*
X1146523Y447816D01*
X1134001Y456460D01*
X911732Y630596D01*
X900343Y640686D01*
X700685Y840344D01*
X690595Y851733D01*
X516459Y1074002D01*
X507815Y1086524D01*
X361734Y1328173D01*
X354664Y1341645D01*
X238782Y1599123D01*
X233389Y1613340D01*
X149376Y1882948D01*
X145741Y1897695D01*
X94840Y2175453D01*
X93009Y2190534D01*
X75730Y2476199D01*
X75500Y2483806D01*
X75500Y45766916D01*
X3594500Y45766916D01*
X3594500Y45553084D01*
X3627951Y45341884D01*
X3627952Y45341879D01*
X3687138Y45159722D01*
X3694028Y45138517D01*
X3791106Y44947991D01*
X3916794Y44774996D01*
X3916796Y44774994D01*
X3916798Y44774991D01*
X4067990Y44623799D01*
X4067993Y44623797D01*
X4067996Y44623794D01*
X4240991Y44498106D01*
X4382005Y44426256D01*
X4433620Y44377509D01*
X4450686Y44308594D01*
X4427786Y44241393D01*
X4398864Y44212054D01*
X4321989Y44156201D01*
X4170798Y44005010D01*
X4170796Y44005007D01*
X4045108Y43832013D01*
X3948029Y43641485D01*
X3948026Y43641479D01*
X3881952Y43438122D01*
X3881951Y43438117D01*
X3881951Y43438116D01*
X3848500Y43226916D01*
X3848500Y43013084D01*
X3879280Y42818749D01*
X3881952Y42801879D01*
X3948026Y42598522D01*
X3948028Y42598517D01*
X4045106Y42407991D01*
X4170794Y42234996D01*
X4170796Y42234994D01*
X4170798Y42234991D01*
X4321990Y42083799D01*
X4321993Y42083797D01*
X4321996Y42083794D01*
X4398863Y42027947D01*
X4442217Y41971725D01*
X4448292Y41900989D01*
X4415161Y41838197D01*
X4382006Y41813746D01*
X4271033Y41757201D01*
X4240987Y41741892D01*
X4067993Y41616204D01*
X4067990Y41616202D01*
X3916798Y41465010D01*
X3916796Y41465007D01*
X3791108Y41292013D01*
X3694029Y41101485D01*
X3694026Y41101479D01*
X3627952Y40898122D01*
X3627951Y40898117D01*
X3627951Y40898116D01*
X3594500Y40686916D01*
X3594500Y40473084D01*
X3627951Y40261884D01*
X3627952Y40261879D01*
X3644176Y40211947D01*
X3694028Y40058517D01*
X3791106Y39867991D01*
X3916794Y39694996D01*
X3916796Y39694994D01*
X3916798Y39694991D01*
X4067990Y39543799D01*
X4067993Y39543797D01*
X4067996Y39543794D01*
X4240991Y39418106D01*
X4382505Y39346001D01*
X4434120Y39297252D01*
X4451186Y39228337D01*
X4428285Y39161136D01*
X4399364Y39131799D01*
X4322323Y39075825D01*
X4322317Y39075820D01*
X4171177Y38924680D01*
X4045536Y38751751D01*
X3948493Y38561293D01*
X3948490Y38561287D01*
X3882440Y38358005D01*
X3872302Y38294000D01*
X4776297Y38294000D01*
X4741075Y38232993D01*
X4707000Y38105826D01*
X4707000Y37974174D01*
X4741075Y37847007D01*
X4776297Y37786000D01*
X3872302Y37786000D01*
X3882440Y37721996D01*
X3948490Y37518714D01*
X3948493Y37518708D01*
X4045536Y37328250D01*
X4171177Y37155321D01*
X4322316Y37004182D01*
X4399819Y36947872D01*
X4443172Y36891649D01*
X4449247Y36820913D01*
X4416115Y36758121D01*
X4382960Y36733669D01*
X4241250Y36661465D01*
X4068320Y36535823D01*
X3917177Y36384680D01*
X3791536Y36211751D01*
X3694493Y36021293D01*
X3694490Y36021287D01*
X3628440Y35818005D01*
X3618302Y35754000D01*
X4522297Y35754000D01*
X4487075Y35692993D01*
X4453000Y35565826D01*
X4453000Y35434174D01*
X4487075Y35307007D01*
X4522297Y35246000D01*
X3618302Y35246000D01*
X3628440Y35181996D01*
X3694490Y34978714D01*
X3694493Y34978708D01*
X3791536Y34788250D01*
X3917177Y34615321D01*
X4068320Y34464178D01*
X4241252Y34338535D01*
X4382458Y34266587D01*
X4434074Y34217839D01*
X4451140Y34148924D01*
X4428240Y34081723D01*
X4399318Y34052385D01*
X4321996Y33996207D01*
X4321990Y33996202D01*
X4170798Y33845010D01*
X4170796Y33845007D01*
X4045108Y33672013D01*
X3948029Y33481485D01*
X3948026Y33481479D01*
X3881952Y33278122D01*
X3881951Y33278117D01*
X3881951Y33278116D01*
X3848500Y33066916D01*
X3848500Y32853084D01*
X3865142Y32748013D01*
X3881952Y32641879D01*
X3948026Y32438522D01*
X3948028Y32438517D01*
X4045106Y32247991D01*
X4170794Y32074996D01*
X4170796Y32074994D01*
X4170798Y32074991D01*
X4321990Y31923799D01*
X4321993Y31923797D01*
X4321996Y31923794D01*
X4375181Y31885153D01*
X4398863Y31867947D01*
X4442217Y31811725D01*
X4448292Y31740989D01*
X4415161Y31678197D01*
X4382006Y31653746D01*
X4287556Y31605620D01*
X4240987Y31581892D01*
X4067993Y31456204D01*
X4067990Y31456202D01*
X3916798Y31305010D01*
X3916796Y31305007D01*
X3791108Y31132013D01*
X3694029Y30941485D01*
X3694026Y30941479D01*
X3627952Y30738122D01*
X3627951Y30738117D01*
X3627951Y30738116D01*
X3594500Y30526916D01*
X3594500Y30313084D01*
X3621535Y30142395D01*
X3627952Y30101879D01*
X3694026Y29898522D01*
X3694028Y29898517D01*
X3791106Y29707991D01*
X3916794Y29534996D01*
X3916796Y29534994D01*
X3916798Y29534991D01*
X4067990Y29383799D01*
X4067993Y29383797D01*
X4067996Y29383794D01*
X4240991Y29258106D01*
X4382005Y29186256D01*
X4433620Y29137509D01*
X4450686Y29068594D01*
X4427786Y29001393D01*
X4398864Y28972054D01*
X4321989Y28916201D01*
X4170798Y28765010D01*
X4170796Y28765007D01*
X4045108Y28592013D01*
X3948029Y28401485D01*
X3948026Y28401479D01*
X3881952Y28198122D01*
X3881951Y28198117D01*
X3881951Y28198116D01*
X3848500Y27986916D01*
X3848500Y27773084D01*
X3881933Y27561996D01*
X3881952Y27561879D01*
X3947245Y27360927D01*
X3948028Y27358517D01*
X4045106Y27167991D01*
X4170794Y26994996D01*
X4170796Y26994994D01*
X4170798Y26994991D01*
X4321990Y26843799D01*
X4321993Y26843797D01*
X4321996Y26843794D01*
X4398863Y26787947D01*
X4442217Y26731725D01*
X4448292Y26660989D01*
X4415161Y26598197D01*
X4382006Y26573746D01*
X4255355Y26509214D01*
X4240987Y26501892D01*
X4067993Y26376204D01*
X4067990Y26376202D01*
X3916798Y26225010D01*
X3916796Y26225007D01*
X3791108Y26052013D01*
X3694029Y25861485D01*
X3694026Y25861479D01*
X3627952Y25658122D01*
X3627951Y25658117D01*
X3627951Y25658116D01*
X3594500Y25446916D01*
X3594500Y25233084D01*
X3627933Y25021996D01*
X3627952Y25021879D01*
X3693964Y24818714D01*
X3694028Y24818517D01*
X3791106Y24627991D01*
X3916794Y24454996D01*
X3916796Y24454994D01*
X3916798Y24454991D01*
X4067990Y24303799D01*
X4067993Y24303797D01*
X4067996Y24303794D01*
X4240991Y24178106D01*
X4382005Y24106256D01*
X4433620Y24057509D01*
X4450686Y23988594D01*
X4427786Y23921393D01*
X4398864Y23892054D01*
X4321989Y23836201D01*
X4170798Y23685010D01*
X4170796Y23685007D01*
X4045108Y23512013D01*
X3948029Y23321485D01*
X3948026Y23321479D01*
X3881952Y23118122D01*
X3881951Y23118117D01*
X3881951Y23118116D01*
X3848500Y22906916D01*
X3848500Y22693084D01*
X3881933Y22481996D01*
X3881952Y22481879D01*
X3947964Y22278714D01*
X3948028Y22278517D01*
X4045106Y22087991D01*
X4170794Y21914996D01*
X4170796Y21914994D01*
X4170798Y21914991D01*
X4321990Y21763799D01*
X4321993Y21763797D01*
X4321996Y21763794D01*
X4398863Y21707947D01*
X4442217Y21651725D01*
X4448292Y21580989D01*
X4415161Y21518197D01*
X4382006Y21493746D01*
X4255355Y21429214D01*
X4240987Y21421892D01*
X4067993Y21296204D01*
X4067990Y21296202D01*
X3916798Y21145010D01*
X3916796Y21145007D01*
X3791108Y20972013D01*
X3694029Y20781485D01*
X3694026Y20781479D01*
X3627952Y20578122D01*
X3627951Y20578117D01*
X3627951Y20578116D01*
X3594500Y20366916D01*
X3594500Y20153084D01*
X3627933Y19941996D01*
X3627952Y19941879D01*
X3693964Y19738714D01*
X3694028Y19738517D01*
X3791106Y19547991D01*
X3916794Y19374996D01*
X3916796Y19374994D01*
X3916798Y19374991D01*
X4067990Y19223799D01*
X4067993Y19223797D01*
X4067996Y19223794D01*
X4240991Y19098106D01*
X4382005Y19026256D01*
X4433620Y18977509D01*
X4450686Y18908594D01*
X4427786Y18841393D01*
X4398864Y18812054D01*
X4321989Y18756201D01*
X4170798Y18605010D01*
X4170796Y18605007D01*
X4045108Y18432013D01*
X3948029Y18241485D01*
X3948026Y18241479D01*
X3881952Y18038122D01*
X3881951Y18038117D01*
X3881951Y18038116D01*
X3848500Y17826916D01*
X3848500Y17613084D01*
X3881933Y17401996D01*
X3881952Y17401879D01*
X3947964Y17198714D01*
X3948028Y17198517D01*
X4045106Y17007991D01*
X4170794Y16834996D01*
X4170796Y16834994D01*
X4170798Y16834991D01*
X4321990Y16683799D01*
X4321993Y16683797D01*
X4321996Y16683794D01*
X4398863Y16627947D01*
X4442217Y16571725D01*
X4448292Y16500989D01*
X4415161Y16438197D01*
X4382006Y16413746D01*
X4255355Y16349214D01*
X4240987Y16341892D01*
X4067993Y16216204D01*
X4067990Y16216202D01*
X3916798Y16065010D01*
X3916796Y16065007D01*
X3791108Y15892013D01*
X3694029Y15701485D01*
X3694026Y15701479D01*
X3627952Y15498122D01*
X3627951Y15498117D01*
X3627951Y15498116D01*
X3594500Y15286916D01*
X3594500Y15073084D01*
X3627933Y14861996D01*
X3627952Y14861879D01*
X3693964Y14658714D01*
X3694028Y14658517D01*
X3791106Y14467991D01*
X3916794Y14294996D01*
X3916796Y14294994D01*
X3916798Y14294991D01*
X4067990Y14143799D01*
X4067993Y14143797D01*
X4067996Y14143794D01*
X4240991Y14018106D01*
X4382005Y13946256D01*
X4433620Y13897509D01*
X4450686Y13828594D01*
X4427786Y13761393D01*
X4398864Y13732054D01*
X4321989Y13676201D01*
X4170798Y13525010D01*
X4170796Y13525007D01*
X4045108Y13352013D01*
X3948029Y13161485D01*
X3948026Y13161479D01*
X3881952Y12958122D01*
X3881951Y12958117D01*
X3881951Y12958116D01*
X3848500Y12746916D01*
X3848500Y12533084D01*
X3881933Y12321996D01*
X3881952Y12321879D01*
X3947964Y12118714D01*
X3948028Y12118517D01*
X4045106Y11927991D01*
X4170794Y11754996D01*
X4170796Y11754994D01*
X4170798Y11754991D01*
X4321990Y11603799D01*
X4321993Y11603797D01*
X4321996Y11603794D01*
X4398511Y11548203D01*
X4398863Y11547947D01*
X4442217Y11491725D01*
X4448292Y11420989D01*
X4415161Y11358197D01*
X4382006Y11333746D01*
X4255355Y11269214D01*
X4240987Y11261892D01*
X4067993Y11136204D01*
X4067990Y11136202D01*
X3916798Y10985010D01*
X3916796Y10985007D01*
X3791108Y10812013D01*
X3694029Y10621485D01*
X3694026Y10621479D01*
X3627952Y10418122D01*
X3627951Y10418117D01*
X3627951Y10418116D01*
X3594500Y10206916D01*
X3594500Y9993084D01*
X3627951Y9781884D01*
X3627952Y9781879D01*
X3694026Y9578522D01*
X3694028Y9578517D01*
X3791106Y9387991D01*
X3916794Y9214996D01*
X3916796Y9214994D01*
X3916798Y9214991D01*
X4067990Y9063799D01*
X4067993Y9063797D01*
X4067996Y9063794D01*
X4240991Y8938106D01*
X4382505Y8866001D01*
X4434120Y8817252D01*
X4451186Y8748337D01*
X4428285Y8681136D01*
X4399364Y8651799D01*
X4322323Y8595825D01*
X4322317Y8595820D01*
X4171177Y8444680D01*
X4045536Y8271751D01*
X3948493Y8081293D01*
X3948490Y8081287D01*
X3882440Y7878005D01*
X3872302Y7814000D01*
X4776297Y7814000D01*
X4741075Y7752993D01*
X4707000Y7625826D01*
X4707000Y7494174D01*
X4741075Y7367007D01*
X4776297Y7306000D01*
X3872302Y7306000D01*
X3882440Y7241996D01*
X3948490Y7038714D01*
X3948493Y7038708D01*
X4045536Y6848250D01*
X4171177Y6675321D01*
X4322320Y6524178D01*
X4495249Y6398537D01*
X4685707Y6301494D01*
X4685713Y6301491D01*
X4888998Y6235440D01*
X4953000Y6225304D01*
X4953000Y7129298D01*
X5014007Y7094075D01*
X5141174Y7060000D01*
X5272826Y7060000D01*
X5399993Y7094075D01*
X5461000Y7129298D01*
X5461000Y6225304D01*
X5525001Y6235440D01*
X5728286Y6301491D01*
X5728292Y6301494D01*
X5918750Y6398537D01*
X6091679Y6524178D01*
X6242822Y6675321D01*
X6368463Y6848250D01*
X6465506Y7038708D01*
X6465509Y7038714D01*
X6531559Y7241996D01*
X6541698Y7306000D01*
X5637703Y7306000D01*
X5672925Y7367007D01*
X5707000Y7494174D01*
X5707000Y7625826D01*
X5672925Y7752993D01*
X5637703Y7814000D01*
X6541697Y7814000D01*
X6531559Y7878005D01*
X6465509Y8081287D01*
X6465506Y8081293D01*
X6368463Y8271751D01*
X6242822Y8444680D01*
X6091679Y8595823D01*
X5918750Y8721464D01*
X5777540Y8793414D01*
X5725925Y8842162D01*
X5708859Y8911077D01*
X5731760Y8978279D01*
X5760679Y9007615D01*
X5838004Y9063794D01*
X5989206Y9214996D01*
X6114894Y9387991D01*
X6211972Y9578517D01*
X6278049Y9781884D01*
X6311500Y9993084D01*
X6311500Y10206916D01*
X6278049Y10418116D01*
X6211972Y10621483D01*
X6114894Y10812009D01*
X5989206Y10985004D01*
X5989203Y10985007D01*
X5989201Y10985010D01*
X5838006Y11136205D01*
X5761136Y11192054D01*
X5717782Y11248277D01*
X5711707Y11319013D01*
X5744839Y11381804D01*
X5777989Y11406253D01*
X5919009Y11478106D01*
X6092004Y11603794D01*
X6243206Y11754996D01*
X6368894Y11927991D01*
X6465972Y12118517D01*
X6532049Y12321884D01*
X6565500Y12533084D01*
X6565500Y12746916D01*
X6532049Y12958116D01*
X6465972Y13161483D01*
X6368894Y13352009D01*
X6243206Y13525004D01*
X6243203Y13525007D01*
X6243201Y13525010D01*
X6092009Y13676202D01*
X6092006Y13676204D01*
X6092004Y13676206D01*
X5919009Y13801894D01*
X5777992Y13873746D01*
X5726379Y13922492D01*
X5709313Y13991407D01*
X5732214Y14058609D01*
X5761133Y14087945D01*
X5838004Y14143794D01*
X5989206Y14294996D01*
X6114894Y14467991D01*
X6211972Y14658517D01*
X6278049Y14861884D01*
X6311500Y15073084D01*
X6311500Y15286916D01*
X6278049Y15498116D01*
X6211972Y15701483D01*
X6114894Y15892009D01*
X5989206Y16065004D01*
X5989203Y16065007D01*
X5989201Y16065010D01*
X5838006Y16216205D01*
X5761136Y16272054D01*
X5717782Y16328277D01*
X5711707Y16399013D01*
X5744839Y16461804D01*
X5777989Y16486253D01*
X5919009Y16558106D01*
X6092004Y16683794D01*
X6243206Y16834996D01*
X6368894Y17007991D01*
X6465972Y17198517D01*
X6532049Y17401884D01*
X6565500Y17613084D01*
X6565500Y17826916D01*
X6532049Y18038116D01*
X6465972Y18241483D01*
X6368894Y18432009D01*
X6243206Y18605004D01*
X6243203Y18605007D01*
X6243201Y18605010D01*
X6092009Y18756202D01*
X6092006Y18756204D01*
X6092004Y18756206D01*
X5919009Y18881894D01*
X5777992Y18953746D01*
X5726379Y19002492D01*
X5709313Y19071407D01*
X5732214Y19138609D01*
X5761133Y19167945D01*
X5838004Y19223794D01*
X5989206Y19374996D01*
X6114894Y19547991D01*
X6211972Y19738517D01*
X6278049Y19941884D01*
X6311500Y20153084D01*
X6311500Y20366916D01*
X6278049Y20578116D01*
X6211972Y20781483D01*
X6114894Y20972009D01*
X5989206Y21145004D01*
X5989203Y21145007D01*
X5989201Y21145010D01*
X5838006Y21296205D01*
X5761136Y21352054D01*
X5717782Y21408277D01*
X5711707Y21479013D01*
X5744839Y21541804D01*
X5777989Y21566253D01*
X5919009Y21638106D01*
X6092004Y21763794D01*
X6243206Y21914996D01*
X6368894Y22087991D01*
X6465972Y22278517D01*
X6532049Y22481884D01*
X6565500Y22693084D01*
X6565500Y22906916D01*
X6532049Y23118116D01*
X6465972Y23321483D01*
X6368894Y23512009D01*
X6243206Y23685004D01*
X6243203Y23685007D01*
X6243201Y23685010D01*
X6092009Y23836202D01*
X6092006Y23836204D01*
X6092004Y23836206D01*
X5919009Y23961894D01*
X5825758Y24009408D01*
X34594300Y24009408D01*
X34594300Y23844193D01*
X34625965Y23685004D01*
X34626531Y23682160D01*
X34689754Y23529527D01*
X34701632Y23511751D01*
X34781540Y23392159D01*
X34781545Y23392153D01*
X34898352Y23275346D01*
X34898358Y23275341D01*
X34898360Y23275339D01*
X35035727Y23183554D01*
X35188360Y23120331D01*
X35350395Y23088100D01*
X35350396Y23088100D01*
X35515604Y23088100D01*
X35515605Y23088100D01*
X35677640Y23120331D01*
X35830273Y23183554D01*
X35967640Y23275339D01*
X36084461Y23392160D01*
X36176246Y23529527D01*
X36239469Y23682160D01*
X36271700Y23844195D01*
X36271700Y24009405D01*
X36239469Y24171440D01*
X36176246Y24324073D01*
X36084461Y24461440D01*
X36084459Y24461442D01*
X36084454Y24461448D01*
X35967647Y24578255D01*
X35967641Y24578260D01*
X35893218Y24627988D01*
X35830273Y24670046D01*
X35677641Y24733269D01*
X35515607Y24765500D01*
X35515605Y24765500D01*
X35350395Y24765500D01*
X35350392Y24765500D01*
X35188358Y24733269D01*
X35188357Y24733268D01*
X35035725Y24670045D01*
X34898358Y24578260D01*
X34898352Y24578255D01*
X34781545Y24461448D01*
X34781540Y24461442D01*
X34781539Y24461440D01*
X34689754Y24324073D01*
X34681514Y24304179D01*
X34626532Y24171443D01*
X34626531Y24171442D01*
X34594300Y24009408D01*
X5825758Y24009408D01*
X5777992Y24033746D01*
X5726379Y24082492D01*
X5709313Y24151407D01*
X5732214Y24218609D01*
X5761133Y24247945D01*
X5838004Y24303794D01*
X5989206Y24454996D01*
X6114894Y24627991D01*
X6211972Y24818517D01*
X6278049Y25021884D01*
X6311500Y25233084D01*
X6311500Y25446916D01*
X6278049Y25658116D01*
X6211972Y25861483D01*
X6114894Y26052009D01*
X5989206Y26225004D01*
X5989203Y26225007D01*
X5989201Y26225010D01*
X5838006Y26376205D01*
X5761136Y26432054D01*
X5717782Y26488277D01*
X5711707Y26559013D01*
X5744839Y26621804D01*
X5777989Y26646253D01*
X5919009Y26718106D01*
X6092004Y26843794D01*
X6243206Y26994996D01*
X6368894Y27167991D01*
X6465972Y27358517D01*
X6532049Y27561884D01*
X6565500Y27773084D01*
X6565500Y27986916D01*
X6532049Y28198116D01*
X6465972Y28401483D01*
X6368894Y28592009D01*
X6243206Y28765004D01*
X6243203Y28765007D01*
X6243201Y28765010D01*
X6232203Y28776008D01*
X20260500Y28776008D01*
X20260500Y28610793D01*
X20264288Y28591751D01*
X20292731Y28448760D01*
X20355954Y28296127D01*
X20421443Y28198116D01*
X20447740Y28158759D01*
X20447745Y28158753D01*
X20564552Y28041946D01*
X20564558Y28041941D01*
X20564560Y28041939D01*
X20701927Y27950154D01*
X20854560Y27886931D01*
X21016595Y27854700D01*
X21016596Y27854700D01*
X21181804Y27854700D01*
X21181805Y27854700D01*
X21343840Y27886931D01*
X21496473Y27950154D01*
X21633840Y28041939D01*
X21750661Y28158760D01*
X21842446Y28296127D01*
X21905669Y28448760D01*
X21937900Y28610795D01*
X21937900Y28776005D01*
X21905669Y28938040D01*
X21842446Y29090673D01*
X21750661Y29228040D01*
X21750659Y29228042D01*
X21750654Y29228048D01*
X21633847Y29344855D01*
X21633841Y29344860D01*
X21575568Y29383797D01*
X21496473Y29436646D01*
X21343841Y29499869D01*
X21181807Y29532100D01*
X21181805Y29532100D01*
X21016595Y29532100D01*
X21016592Y29532100D01*
X20854558Y29499869D01*
X20854557Y29499868D01*
X20701925Y29436645D01*
X20564558Y29344860D01*
X20564552Y29344855D01*
X20447745Y29228048D01*
X20447740Y29228042D01*
X20355955Y29090675D01*
X20292732Y28938043D01*
X20292731Y28938042D01*
X20260500Y28776008D01*
X6232203Y28776008D01*
X6092009Y28916202D01*
X6092006Y28916204D01*
X6092004Y28916206D01*
X5919009Y29041894D01*
X5777992Y29113746D01*
X5726379Y29162492D01*
X5709313Y29231407D01*
X5732214Y29298609D01*
X5761133Y29327945D01*
X5838004Y29383794D01*
X5989206Y29534996D01*
X6114894Y29707991D01*
X6211972Y29898517D01*
X6278049Y30101884D01*
X6311500Y30313084D01*
X6311500Y30526916D01*
X6278049Y30738116D01*
X6211972Y30941483D01*
X6114894Y31132009D01*
X5989206Y31305004D01*
X5989203Y31305007D01*
X5989201Y31305010D01*
X5838006Y31456205D01*
X5761136Y31512054D01*
X5717782Y31568277D01*
X5711707Y31639013D01*
X5744839Y31701804D01*
X5777989Y31726253D01*
X5919009Y31798106D01*
X6092004Y31923794D01*
X6243206Y32074996D01*
X6368894Y32247991D01*
X6465972Y32438517D01*
X6532049Y32641884D01*
X6565500Y32853084D01*
X6565500Y33066916D01*
X6532049Y33278116D01*
X6465972Y33481483D01*
X6368894Y33672009D01*
X6243206Y33845004D01*
X6243203Y33845007D01*
X6243201Y33845010D01*
X6092009Y33996202D01*
X6092006Y33996204D01*
X6092004Y33996206D01*
X5919012Y34121892D01*
X5919011Y34121893D01*
X5777494Y34194000D01*
X5725879Y34242749D01*
X5708813Y34311664D01*
X5731714Y34378865D01*
X5760636Y34408203D01*
X5837679Y34464179D01*
X5837682Y34464181D01*
X5988822Y34615321D01*
X6114463Y34788250D01*
X6211506Y34978708D01*
X6211509Y34978714D01*
X6245267Y35082608D01*
X21261300Y35082608D01*
X21261300Y34917393D01*
X21287040Y34787991D01*
X21293531Y34755360D01*
X21356754Y34602727D01*
X21413770Y34517397D01*
X21448540Y34465359D01*
X21448545Y34465353D01*
X21565352Y34348546D01*
X21565358Y34348541D01*
X21565360Y34348539D01*
X21702727Y34256754D01*
X21855360Y34193531D01*
X22017395Y34161300D01*
X22059620Y34161300D01*
X22127741Y34141298D01*
X22148715Y34124395D01*
X24578395Y31694715D01*
X24612421Y31632403D01*
X24615300Y31605620D01*
X24615300Y31053592D01*
X24595298Y30985471D01*
X24578395Y30964497D01*
X24548545Y30934648D01*
X24548540Y30934642D01*
X24496498Y30856754D01*
X24456754Y30797273D01*
X24455204Y30793531D01*
X24393532Y30644643D01*
X24393531Y30644642D01*
X24361300Y30482608D01*
X24361300Y30317393D01*
X24381341Y30216642D01*
X24393531Y30155360D01*
X24456754Y30002727D01*
X24528111Y29895934D01*
X24548540Y29865359D01*
X24548545Y29865353D01*
X24665352Y29748546D01*
X24665358Y29748541D01*
X24665360Y29748539D01*
X24802727Y29656754D01*
X24955360Y29593531D01*
X25117395Y29561300D01*
X25117396Y29561300D01*
X25288795Y29561300D01*
X25288795Y29558485D01*
X25346646Y29547544D01*
X25398199Y29498730D01*
X25415300Y29435350D01*
X25415300Y28441689D01*
X25395298Y28373568D01*
X25341642Y28327075D01*
X25313885Y28318111D01*
X25289917Y28313343D01*
X25255359Y28306469D01*
X25102726Y28243246D01*
X24965358Y28151460D01*
X24965352Y28151455D01*
X24848545Y28034648D01*
X24848540Y28034642D01*
X24756755Y27897275D01*
X24693532Y27744643D01*
X24693531Y27744642D01*
X24661300Y27582608D01*
X24661300Y27417393D01*
X24673012Y27358516D01*
X24693531Y27255360D01*
X24756754Y27102727D01*
X24828741Y26994991D01*
X24848540Y26965359D01*
X24848545Y26965353D01*
X24965352Y26848546D01*
X24965358Y26848541D01*
X24965360Y26848539D01*
X25102727Y26756754D01*
X25255360Y26693531D01*
X25417395Y26661300D01*
X25417396Y26661300D01*
X25582604Y26661300D01*
X25582605Y26661300D01*
X25744640Y26693531D01*
X25897273Y26756754D01*
X26034640Y26848539D01*
X26151461Y26965360D01*
X26243246Y27102727D01*
X26306469Y27255360D01*
X26338700Y27417395D01*
X26338700Y27459620D01*
X26347483Y27489536D01*
X26354112Y27520005D01*
X26357926Y27525101D01*
X26358702Y27527741D01*
X26375605Y27548715D01*
X26468265Y27641375D01*
X26530577Y27675401D01*
X26601392Y27670336D01*
X26658228Y27627789D01*
X26680939Y27576863D01*
X26693531Y27513560D01*
X26756754Y27360927D01*
X26848539Y27223560D01*
X26878395Y27193704D01*
X26912420Y27131394D01*
X26915300Y27104609D01*
X26915300Y26399336D01*
X26895298Y26331215D01*
X26874323Y26307651D01*
X26874737Y26307237D01*
X26870362Y26302863D01*
X26870360Y26302861D01*
X26814139Y26246640D01*
X26753541Y26186043D01*
X26753540Y26186042D01*
X26661755Y26048675D01*
X26598532Y25896043D01*
X26598531Y25896042D01*
X26566300Y25734008D01*
X26566300Y25568793D01*
X26590543Y25446916D01*
X26598531Y25406760D01*
X26661754Y25254127D01*
X26675815Y25233084D01*
X26753540Y25116759D01*
X26753545Y25116753D01*
X26870352Y24999946D01*
X26870358Y24999941D01*
X26870360Y24999939D01*
X27007727Y24908154D01*
X27160360Y24844931D01*
X27322395Y24812700D01*
X27322396Y24812700D01*
X27487604Y24812700D01*
X27487605Y24812700D01*
X27649640Y24844931D01*
X27802273Y24908154D01*
X27939640Y24999939D01*
X28056461Y25116760D01*
X28148246Y25254127D01*
X28211469Y25406760D01*
X28243700Y25568795D01*
X28243700Y25734005D01*
X28211469Y25896040D01*
X28148246Y26048673D01*
X28105932Y26112001D01*
X28084720Y26179754D01*
X28084700Y26182000D01*
X28084700Y27104609D01*
X28104702Y27172730D01*
X28121601Y27193701D01*
X28151461Y27223560D01*
X28243246Y27360927D01*
X28306469Y27513560D01*
X28338700Y27675595D01*
X28338700Y27840805D01*
X28306469Y28002840D01*
X28243246Y28155473D01*
X28151461Y28292840D01*
X28151459Y28292842D01*
X28151454Y28292848D01*
X28034647Y28409655D01*
X28034641Y28409660D01*
X27976127Y28448758D01*
X27897273Y28501446D01*
X27744641Y28564669D01*
X27582607Y28596900D01*
X27582605Y28596900D01*
X27417395Y28596900D01*
X27417392Y28596900D01*
X27255358Y28564669D01*
X27255357Y28564668D01*
X27102725Y28501445D01*
X26965358Y28409660D01*
X26965352Y28409655D01*
X26848545Y28292848D01*
X26848540Y28292841D01*
X26815465Y28243341D01*
X26760988Y28197813D01*
X26690545Y28188966D01*
X26626501Y28219607D01*
X26589189Y28280009D01*
X26584700Y28313343D01*
X26584700Y32585981D01*
X31548378Y32585981D01*
X31548378Y32585978D01*
X31548378Y32420768D01*
X31580609Y32258733D01*
X31643832Y32106100D01*
X31735617Y31968733D01*
X31756888Y31947462D01*
X31790913Y31885153D01*
X31791372Y31833785D01*
X31761300Y31682608D01*
X31761300Y31517393D01*
X31786692Y31389742D01*
X31793531Y31355360D01*
X31856754Y31202727D01*
X31904004Y31132013D01*
X31948540Y31065359D01*
X31948545Y31065353D01*
X32065352Y30948546D01*
X32065358Y30948541D01*
X32065360Y30948539D01*
X32202727Y30856754D01*
X32355360Y30793531D01*
X32449413Y30774823D01*
X32449451Y30774815D01*
X32512360Y30741907D01*
X32547492Y30680212D01*
X32543692Y30609317D01*
X32541278Y30603017D01*
X32486032Y30469643D01*
X32486031Y30469642D01*
X32453800Y30307608D01*
X32453800Y30142393D01*
X32463115Y30095566D01*
X32486031Y29980360D01*
X32549254Y29827727D01*
X32629261Y29707988D01*
X32641040Y29690359D01*
X32641045Y29690353D01*
X32757852Y29573546D01*
X32757858Y29573541D01*
X32757860Y29573539D01*
X32895227Y29481754D01*
X33047860Y29418531D01*
X33209895Y29386300D01*
X33209896Y29386300D01*
X33375104Y29386300D01*
X33375105Y29386300D01*
X33537140Y29418531D01*
X33689773Y29481754D01*
X33827140Y29573539D01*
X33943961Y29690360D01*
X34035746Y29827727D01*
X34098969Y29980360D01*
X34131200Y30142395D01*
X34131200Y30164300D01*
X34133791Y30173126D01*
X34132482Y30182232D01*
X34143637Y30206658D01*
X34151202Y30232421D01*
X34158155Y30238446D01*
X34161976Y30246812D01*
X34184561Y30261327D01*
X34204858Y30278914D01*
X34215544Y30281239D01*
X34221702Y30285196D01*
X34257200Y30290300D01*
X34404614Y30290300D01*
X34472735Y30270298D01*
X34519228Y30216642D01*
X34521021Y30212521D01*
X34569465Y30095567D01*
X34569466Y30095566D01*
X34569471Y30095556D01*
X34623067Y30002726D01*
X34684724Y29895934D01*
X34797822Y29748541D01*
X34825053Y29713053D01*
X34825062Y29713043D01*
X34988042Y29550063D01*
X34988052Y29550054D01*
X34988053Y29550053D01*
X35170934Y29409724D01*
X35370567Y29294465D01*
X35583536Y29206251D01*
X35806198Y29146589D01*
X35806204Y29146589D01*
X35806205Y29146588D01*
X35832425Y29143137D01*
X36034742Y29116500D01*
X36034749Y29116500D01*
X36265251Y29116500D01*
X36265258Y29116500D01*
X36493802Y29146589D01*
X36716464Y29206251D01*
X36929433Y29294465D01*
X37129066Y29409724D01*
X37311947Y29550053D01*
X37474947Y29713053D01*
X37615276Y29895934D01*
X37730535Y30095567D01*
X37818749Y30308536D01*
X37878411Y30531198D01*
X37908500Y30759742D01*
X37908500Y30990258D01*
X37881863Y31192575D01*
X37878412Y31218795D01*
X37878411Y31218796D01*
X37878411Y31218802D01*
X37818749Y31441464D01*
X37730535Y31654433D01*
X37615276Y31854066D01*
X37474947Y32036947D01*
X37474946Y32036948D01*
X37474937Y32036958D01*
X37311957Y32199938D01*
X37311947Y32199947D01*
X37129066Y32340276D01*
X37129061Y32340279D01*
X36929444Y32455529D01*
X36929439Y32455532D01*
X36929433Y32455535D01*
X36716464Y32543749D01*
X36493802Y32603411D01*
X36493800Y32603412D01*
X36493794Y32603413D01*
X36265260Y32633500D01*
X36265258Y32633500D01*
X36034742Y32633500D01*
X36034739Y32633500D01*
X35806205Y32603413D01*
X35583536Y32543749D01*
X35370565Y32455534D01*
X35370555Y32455529D01*
X35170938Y32340279D01*
X34988052Y32199947D01*
X34988042Y32199938D01*
X34825062Y32036958D01*
X34825053Y32036948D01*
X34684721Y31854062D01*
X34569471Y31654445D01*
X34569466Y31654435D01*
X34569465Y31654433D01*
X34530193Y31559620D01*
X34521023Y31537482D01*
X34476475Y31482201D01*
X34409111Y31459780D01*
X34404614Y31459700D01*
X33865523Y31459700D01*
X33766383Y31433136D01*
X33716813Y31419853D01*
X33664664Y31389744D01*
X33664661Y31389742D01*
X33621525Y31364839D01*
X33552529Y31348103D01*
X33485438Y31371325D01*
X33441552Y31427134D01*
X33434806Y31497809D01*
X33434905Y31498317D01*
X33438700Y31517395D01*
X33438700Y31559620D01*
X33458702Y31627741D01*
X33475605Y31648715D01*
X34651286Y32824395D01*
X34713598Y32858421D01*
X34740381Y32861300D01*
X34782604Y32861300D01*
X34782605Y32861300D01*
X34944640Y32893531D01*
X35097273Y32956754D01*
X35234640Y33048539D01*
X35351461Y33165360D01*
X35443246Y33302727D01*
X35506469Y33455360D01*
X35538700Y33617395D01*
X35538700Y33782605D01*
X35506469Y33944640D01*
X35443246Y34097273D01*
X35391965Y34174021D01*
X35370751Y34241774D01*
X35380322Y34292239D01*
X35406469Y34355360D01*
X35438700Y34517395D01*
X35438700Y34682605D01*
X35406469Y34844640D01*
X35343246Y34997273D01*
X35251461Y35134640D01*
X35251459Y35134642D01*
X35251454Y35134648D01*
X35134647Y35251455D01*
X35134641Y35251460D01*
X35051509Y35307007D01*
X34997273Y35343246D01*
X34844641Y35406469D01*
X34682607Y35438700D01*
X34682605Y35438700D01*
X34517395Y35438700D01*
X34517392Y35438700D01*
X34355358Y35406469D01*
X34355357Y35406468D01*
X34202725Y35343245D01*
X34065358Y35251460D01*
X34065352Y35251455D01*
X33948545Y35134648D01*
X33948540Y35134642D01*
X33856755Y34997275D01*
X33793532Y34844643D01*
X33793531Y34844642D01*
X33761300Y34682608D01*
X33761300Y34640382D01*
X33741298Y34572261D01*
X33724395Y34551287D01*
X32552086Y33378978D01*
X32489774Y33344952D01*
X32462991Y33342073D01*
X32304470Y33342073D01*
X32142436Y33309842D01*
X32142435Y33309841D01*
X31989803Y33246618D01*
X31852436Y33154833D01*
X31852430Y33154828D01*
X31735623Y33038021D01*
X31735618Y33038015D01*
X31643833Y32900648D01*
X31580610Y32748016D01*
X31580609Y32748015D01*
X31548378Y32585981D01*
X26584700Y32585981D01*
X26584700Y36431376D01*
X26584700Y36431377D01*
X26581662Y36442712D01*
X26579790Y36499909D01*
X26584899Y36525592D01*
X26584900Y36525595D01*
X26584900Y36690805D01*
X26552669Y36852840D01*
X26489446Y37005473D01*
X26397661Y37142840D01*
X26397659Y37142842D01*
X26397654Y37142848D01*
X26309348Y37231154D01*
X26275322Y37293466D01*
X26280387Y37364281D01*
X26322934Y37421117D01*
X26350215Y37436653D01*
X26429433Y37469465D01*
X26629066Y37584724D01*
X26811947Y37725053D01*
X26974947Y37888053D01*
X27115276Y38070934D01*
X27230535Y38270567D01*
X27318749Y38483536D01*
X27378411Y38706198D01*
X27408500Y38934742D01*
X27408500Y39165258D01*
X27378411Y39393802D01*
X27318749Y39616464D01*
X27230535Y39829433D01*
X27115276Y40029066D01*
X26974947Y40211947D01*
X26974946Y40211948D01*
X26974937Y40211958D01*
X26811957Y40374938D01*
X26811947Y40374947D01*
X26770495Y40406754D01*
X26629066Y40515276D01*
X26629061Y40515279D01*
X26429444Y40630529D01*
X26429439Y40630532D01*
X26429433Y40630535D01*
X26216464Y40718749D01*
X25993802Y40778411D01*
X25993800Y40778412D01*
X25993794Y40778413D01*
X25765260Y40808500D01*
X25765258Y40808500D01*
X25534742Y40808500D01*
X25534739Y40808500D01*
X25306205Y40778413D01*
X25083536Y40718749D01*
X24870565Y40630534D01*
X24870555Y40630529D01*
X24670938Y40515279D01*
X24488052Y40374947D01*
X24488042Y40374938D01*
X24325062Y40211958D01*
X24325053Y40211948D01*
X24184721Y40029062D01*
X24069471Y39829445D01*
X24069466Y39829435D01*
X23981251Y39616464D01*
X23921587Y39393795D01*
X23891500Y39165261D01*
X23891500Y38934740D01*
X23921587Y38706206D01*
X23921588Y38706200D01*
X23921589Y38706198D01*
X23981251Y38483536D01*
X24069465Y38270567D01*
X24069466Y38270566D01*
X24069471Y38270556D01*
X24140855Y38146916D01*
X24184724Y38070934D01*
X24290497Y37933088D01*
X24325053Y37888053D01*
X24325062Y37888043D01*
X24488042Y37725063D01*
X24488052Y37725054D01*
X24488053Y37725053D01*
X24670934Y37584724D01*
X24870567Y37469465D01*
X24987518Y37421023D01*
X25003334Y37408278D01*
X25021812Y37399839D01*
X25030411Y37386459D01*
X25042798Y37376477D01*
X25049213Y37357202D01*
X25060196Y37340113D01*
X25064222Y37312111D01*
X25065220Y37309113D01*
X25065300Y37304615D01*
X25065300Y37137004D01*
X25045298Y37068883D01*
X25044067Y37067005D01*
X25002954Y37005473D01*
X25002953Y37005470D01*
X24939732Y36852843D01*
X24939731Y36852842D01*
X24907500Y36690808D01*
X24907500Y36525593D01*
X24926241Y36431377D01*
X24939731Y36363560D01*
X25002954Y36210927D01*
X25002955Y36210926D01*
X25094740Y36073559D01*
X25094745Y36073553D01*
X25211552Y35956746D01*
X25211558Y35956741D01*
X25211560Y35956739D01*
X25348927Y35864954D01*
X25354074Y35861515D01*
X25353379Y35860476D01*
X25399340Y35815333D01*
X25415300Y35753956D01*
X25415300Y32815780D01*
X25395298Y32747659D01*
X25341642Y32701166D01*
X25271368Y32691062D01*
X25206788Y32720556D01*
X25200205Y32726685D01*
X22975605Y34951285D01*
X22941579Y35013597D01*
X22938700Y35040380D01*
X22938700Y35082604D01*
X22938699Y35082608D01*
X22906469Y35244640D01*
X22843246Y35397273D01*
X22751461Y35534640D01*
X22751459Y35534642D01*
X22751454Y35534648D01*
X22634647Y35651455D01*
X22634641Y35651460D01*
X22497274Y35743245D01*
X22497275Y35743245D01*
X22497273Y35743246D01*
X22344641Y35806469D01*
X22182607Y35838700D01*
X22182605Y35838700D01*
X22017395Y35838700D01*
X22017392Y35838700D01*
X21855358Y35806469D01*
X21855357Y35806468D01*
X21765945Y35769432D01*
X21728690Y35754000D01*
X21702725Y35743245D01*
X21565358Y35651460D01*
X21565352Y35651455D01*
X21448545Y35534648D01*
X21448540Y35534642D01*
X21356755Y35397275D01*
X21293532Y35244643D01*
X21293531Y35244642D01*
X21261300Y35082608D01*
X6245267Y35082608D01*
X6259928Y35127731D01*
X6277559Y35181996D01*
X6287698Y35246000D01*
X5383703Y35246000D01*
X5418925Y35307007D01*
X5453000Y35434174D01*
X5453000Y35565826D01*
X5418925Y35692993D01*
X5383703Y35754000D01*
X6287697Y35754000D01*
X6277559Y35818005D01*
X6211509Y36021287D01*
X6211506Y36021293D01*
X6114463Y36211751D01*
X5988822Y36384680D01*
X5837683Y36535819D01*
X5760180Y36592129D01*
X5716827Y36648352D01*
X5710752Y36719088D01*
X5743884Y36781880D01*
X5777040Y36806332D01*
X5918747Y36878535D01*
X6091679Y37004178D01*
X6242822Y37155321D01*
X6368463Y37328250D01*
X6465506Y37518708D01*
X6465509Y37518714D01*
X6531559Y37721996D01*
X6541698Y37786000D01*
X5637703Y37786000D01*
X5672925Y37847007D01*
X5707000Y37974174D01*
X5707000Y38105826D01*
X5672925Y38232993D01*
X5637703Y38294000D01*
X6541697Y38294000D01*
X6531559Y38358005D01*
X6465509Y38561287D01*
X6465506Y38561293D01*
X6368463Y38751751D01*
X6242822Y38924680D01*
X6091679Y39075823D01*
X5918750Y39201464D01*
X5777540Y39273414D01*
X5725925Y39322162D01*
X5708859Y39391077D01*
X5731760Y39458279D01*
X5760679Y39487615D01*
X5838004Y39543794D01*
X5989206Y39694996D01*
X6114894Y39867991D01*
X6211972Y40058517D01*
X6278049Y40261884D01*
X6311500Y40473084D01*
X6311500Y40686916D01*
X6278049Y40898116D01*
X6211972Y41101483D01*
X6145160Y41232608D01*
X29436300Y41232608D01*
X29436300Y41067393D01*
X29468531Y40905360D01*
X29531754Y40752727D01*
X29613404Y40630529D01*
X29623540Y40615359D01*
X29623545Y40615353D01*
X29740352Y40498546D01*
X29740358Y40498541D01*
X29740360Y40498539D01*
X29877727Y40406754D01*
X30030360Y40343531D01*
X30192395Y40311300D01*
X30192396Y40311300D01*
X30357604Y40311300D01*
X30357605Y40311300D01*
X30519640Y40343531D01*
X30672273Y40406754D01*
X30809640Y40498539D01*
X30809647Y40498546D01*
X30839497Y40528395D01*
X30866865Y40543340D01*
X30893094Y40560196D01*
X30899392Y40561102D01*
X30901809Y40562421D01*
X30928592Y40565300D01*
X31129614Y40565300D01*
X31197735Y40545298D01*
X31244228Y40491642D01*
X31246021Y40487521D01*
X31294465Y40370567D01*
X31294466Y40370566D01*
X31294471Y40370556D01*
X31386044Y40211948D01*
X31409724Y40170934D01*
X31495985Y40058516D01*
X31550053Y39988053D01*
X31550062Y39988043D01*
X31713042Y39825063D01*
X31713052Y39825054D01*
X31713053Y39825053D01*
X31895934Y39684724D01*
X32095567Y39569465D01*
X32308536Y39481251D01*
X32531198Y39421589D01*
X32531204Y39421589D01*
X32531205Y39421588D01*
X32557425Y39418137D01*
X32759742Y39391500D01*
X32759749Y39391500D01*
X32990251Y39391500D01*
X32990258Y39391500D01*
X33218802Y39421589D01*
X33441464Y39481251D01*
X33654433Y39569465D01*
X33854066Y39684724D01*
X34036947Y39825053D01*
X34199947Y39988053D01*
X34340276Y40170934D01*
X34455535Y40370567D01*
X34543749Y40583536D01*
X34603411Y40806198D01*
X34633500Y41034742D01*
X34633500Y41265258D01*
X34603411Y41493802D01*
X34543749Y41716464D01*
X34455535Y41929433D01*
X34340276Y42129066D01*
X34199947Y42311947D01*
X34199946Y42311948D01*
X34199937Y42311958D01*
X34036957Y42474938D01*
X34036947Y42474947D01*
X33854066Y42615276D01*
X33854061Y42615279D01*
X33654444Y42730529D01*
X33654439Y42730532D01*
X33654433Y42730535D01*
X33441464Y42818749D01*
X33218802Y42878411D01*
X33218800Y42878412D01*
X33218794Y42878413D01*
X32990260Y42908500D01*
X32990258Y42908500D01*
X32759742Y42908500D01*
X32759739Y42908500D01*
X32531205Y42878413D01*
X32308536Y42818749D01*
X32095565Y42730534D01*
X32095555Y42730529D01*
X31895938Y42615279D01*
X31713052Y42474947D01*
X31713042Y42474938D01*
X31550062Y42311958D01*
X31550053Y42311948D01*
X31409721Y42129062D01*
X31294471Y41929445D01*
X31294466Y41929435D01*
X31246023Y41812482D01*
X31233276Y41796664D01*
X31224838Y41778188D01*
X31211457Y41769589D01*
X31201475Y41757201D01*
X31182199Y41750786D01*
X31165112Y41739804D01*
X31137108Y41735778D01*
X31134111Y41734780D01*
X31129614Y41734700D01*
X30928592Y41734700D01*
X30860471Y41754702D01*
X30839497Y41771605D01*
X30809647Y41801455D01*
X30809641Y41801460D01*
X30808763Y41802047D01*
X30672273Y41893246D01*
X30519641Y41956469D01*
X30357607Y41988700D01*
X30357605Y41988700D01*
X30192395Y41988700D01*
X30192392Y41988700D01*
X30030358Y41956469D01*
X30030357Y41956468D01*
X29877725Y41893245D01*
X29740358Y41801460D01*
X29740352Y41801455D01*
X29623545Y41684648D01*
X29623540Y41684642D01*
X29531755Y41547275D01*
X29468532Y41394643D01*
X29468531Y41394642D01*
X29436300Y41232608D01*
X6145160Y41232608D01*
X6114894Y41292009D01*
X5989206Y41465004D01*
X5989203Y41465007D01*
X5989201Y41465010D01*
X5838006Y41616205D01*
X5761136Y41672054D01*
X5717782Y41728277D01*
X5711707Y41799013D01*
X5744839Y41861804D01*
X5777989Y41886253D01*
X5919009Y41958106D01*
X6092004Y42083794D01*
X6243206Y42234996D01*
X6368894Y42407991D01*
X6465972Y42598517D01*
X6532049Y42801884D01*
X6565500Y43013084D01*
X6565500Y43226916D01*
X6532049Y43438116D01*
X6465972Y43641483D01*
X6368894Y43832009D01*
X6243206Y44005004D01*
X6243203Y44005007D01*
X6243201Y44005010D01*
X6092009Y44156202D01*
X6092006Y44156204D01*
X6092004Y44156206D01*
X5919009Y44281894D01*
X5777992Y44353746D01*
X5726379Y44402492D01*
X5709313Y44471407D01*
X5732214Y44538609D01*
X5761133Y44567945D01*
X5838004Y44623794D01*
X5989206Y44774996D01*
X6114894Y44947991D01*
X6211972Y45138517D01*
X6278049Y45341884D01*
X6311500Y45553084D01*
X6311500Y45766916D01*
X6278049Y45978116D01*
X6211972Y46181483D01*
X6114894Y46372009D01*
X5989206Y46545004D01*
X5989203Y46545007D01*
X5989201Y46545010D01*
X5907806Y46626405D01*
X5873780Y46688717D01*
X5878845Y46759532D01*
X5921392Y46816368D01*
X5987912Y46841179D01*
X5996901Y46841500D01*
X6105632Y46841500D01*
X6105638Y46841500D01*
X6105645Y46841501D01*
X6105649Y46841501D01*
X6166196Y46848010D01*
X6166199Y46848011D01*
X6166201Y46848011D01*
X6303204Y46899111D01*
X6420261Y46986739D01*
X6507889Y47103796D01*
X6558989Y47240799D01*
X6559614Y47246605D01*
X6565499Y47301351D01*
X6565500Y47301368D01*
X6565500Y49098633D01*
X6565499Y49098650D01*
X6558990Y49159197D01*
X6558988Y49159205D01*
X6527122Y49244640D01*
X6507889Y49296204D01*
X6507888Y49296206D01*
X6507887Y49296208D01*
X6420261Y49413262D01*
X6303207Y49500888D01*
X6303202Y49500890D01*
X6166204Y49551989D01*
X6166196Y49551991D01*
X6105649Y49558500D01*
X6105638Y49558500D01*
X4308362Y49558500D01*
X4308350Y49558500D01*
X4247803Y49551991D01*
X4247795Y49551989D01*
X4110797Y49500890D01*
X4110792Y49500888D01*
X3993738Y49413262D01*
X3906112Y49296208D01*
X3906110Y49296203D01*
X3855011Y49159205D01*
X3855009Y49159197D01*
X3848500Y49098650D01*
X3848500Y47301351D01*
X3855009Y47240804D01*
X3855011Y47240796D01*
X3906110Y47103798D01*
X3906112Y47103793D01*
X3993738Y46986739D01*
X4090497Y46914306D01*
X4133044Y46857470D01*
X4138108Y46786654D01*
X4104083Y46724342D01*
X4089054Y46711507D01*
X4070627Y46698118D01*
X4067989Y46696201D01*
X3916798Y46545010D01*
X3916796Y46545007D01*
X3791108Y46372013D01*
X3694029Y46181485D01*
X3694026Y46181479D01*
X3627952Y45978122D01*
X3627951Y45978117D01*
X3627951Y45978116D01*
X3594500Y45766916D01*
X75500Y45766916D01*
X75500Y54432608D01*
X9586300Y54432608D01*
X9586300Y54267393D01*
X9603166Y54182605D01*
X9618531Y54105360D01*
X9681754Y53952727D01*
X9730109Y53880359D01*
X9773540Y53815359D01*
X9773545Y53815353D01*
X9890352Y53698546D01*
X9890358Y53698541D01*
X9890360Y53698539D01*
X10027727Y53606754D01*
X10180360Y53543531D01*
X10342395Y53511300D01*
X10384620Y53511300D01*
X10452741Y53491298D01*
X10473710Y53474400D01*
X11640985Y52307124D01*
X11658043Y52297276D01*
X11658047Y52297272D01*
X11658048Y52297273D01*
X11774314Y52230147D01*
X11923023Y52190300D01*
X11923025Y52190300D01*
X23051975Y52190300D01*
X23051977Y52190300D01*
X23200686Y52230147D01*
X23334014Y52307124D01*
X23442876Y52415986D01*
X23502401Y52475511D01*
X23502403Y52475515D01*
X25205287Y54178396D01*
X25267599Y54212421D01*
X25294382Y54215300D01*
X26489600Y54215300D01*
X26557721Y54195298D01*
X26604214Y54141642D01*
X26615600Y54089300D01*
X26615600Y54046585D01*
X26595598Y53978464D01*
X26541942Y53931971D01*
X26471668Y53921867D01*
X26456995Y53924877D01*
X26443801Y53928412D01*
X26215260Y53958500D01*
X26215258Y53958500D01*
X25984742Y53958500D01*
X25984739Y53958500D01*
X25756205Y53928413D01*
X25533536Y53868749D01*
X25320565Y53780534D01*
X25320555Y53780529D01*
X25120938Y53665279D01*
X24938052Y53524947D01*
X24938042Y53524938D01*
X24775062Y53361958D01*
X24775053Y53361948D01*
X24634721Y53179062D01*
X24519471Y52979445D01*
X24519466Y52979435D01*
X24431251Y52766464D01*
X24371587Y52543795D01*
X24341500Y52315261D01*
X24341500Y52084740D01*
X24371587Y51856206D01*
X24371588Y51856200D01*
X24371589Y51856198D01*
X24431251Y51633536D01*
X24519465Y51420567D01*
X24519466Y51420566D01*
X24519471Y51420556D01*
X24585492Y51306206D01*
X24634724Y51220934D01*
X24757214Y51061301D01*
X24775053Y51038053D01*
X24775062Y51038043D01*
X24938042Y50875063D01*
X24938052Y50875054D01*
X24938053Y50875053D01*
X25120934Y50734724D01*
X25132515Y50728038D01*
X25144768Y50720963D01*
X25193761Y50669580D01*
X25207197Y50599866D01*
X25186534Y50541844D01*
X25156755Y50497277D01*
X25093532Y50344643D01*
X25093531Y50344642D01*
X25061300Y50182608D01*
X25061300Y50017393D01*
X25093531Y49855360D01*
X25156754Y49702727D01*
X25196499Y49643245D01*
X25248540Y49565359D01*
X25248545Y49565353D01*
X25365352Y49448546D01*
X25365358Y49448541D01*
X25365360Y49448539D01*
X25502727Y49356754D01*
X25655360Y49293531D01*
X25817395Y49261300D01*
X25817396Y49261300D01*
X25982604Y49261300D01*
X25982605Y49261300D01*
X26144640Y49293531D01*
X26297273Y49356754D01*
X26434640Y49448539D01*
X26551461Y49565360D01*
X26643246Y49702727D01*
X26706469Y49855360D01*
X26738700Y50017395D01*
X26738700Y50182605D01*
X26706469Y50344640D01*
X26694291Y50374041D01*
X26692638Y50382352D01*
X26689804Y50386761D01*
X26684700Y50422259D01*
X26684700Y50454615D01*
X26704702Y50522736D01*
X26758358Y50569229D01*
X26762452Y50571011D01*
X26879433Y50619465D01*
X27079066Y50734724D01*
X27261947Y50875053D01*
X27424947Y51038053D01*
X27565276Y51220934D01*
X27621417Y51318174D01*
X27672799Y51367166D01*
X27742513Y51380602D01*
X27808424Y51354216D01*
X27819623Y51344276D01*
X27915360Y51248539D01*
X28052727Y51156754D01*
X28205360Y51093531D01*
X28367395Y51061300D01*
X28367396Y51061300D01*
X28532604Y51061300D01*
X28532605Y51061300D01*
X28694640Y51093531D01*
X28847273Y51156754D01*
X28984640Y51248539D01*
X29101461Y51365360D01*
X29193246Y51502727D01*
X29256469Y51655360D01*
X29288700Y51817395D01*
X29288700Y51982605D01*
X29256469Y52144640D01*
X29193246Y52297273D01*
X29101461Y52434640D01*
X29101459Y52434642D01*
X29101454Y52434648D01*
X29071605Y52464497D01*
X29037579Y52526809D01*
X29034700Y52553592D01*
X29034700Y53181276D01*
X29034700Y53181277D01*
X28994853Y53329986D01*
X28931856Y53439100D01*
X28917876Y53463315D01*
X28380986Y54000205D01*
X28346960Y54062517D01*
X28352025Y54133332D01*
X28394572Y54190168D01*
X28461092Y54214979D01*
X28470081Y54215300D01*
X28605620Y54215300D01*
X28673741Y54195298D01*
X28694714Y54178396D01*
X29107124Y53765986D01*
X29215986Y53657124D01*
X29349314Y53580147D01*
X29498023Y53540300D01*
X29721408Y53540300D01*
X29789529Y53520298D01*
X29810503Y53503395D01*
X29840352Y53473546D01*
X29840358Y53473541D01*
X29840360Y53473539D01*
X29977727Y53381754D01*
X30130360Y53318531D01*
X30292395Y53286300D01*
X30292396Y53286300D01*
X30457604Y53286300D01*
X30457605Y53286300D01*
X30619640Y53318531D01*
X30639796Y53326881D01*
X30710386Y53334472D01*
X30773874Y53302694D01*
X30810103Y53241638D01*
X30807571Y53170686D01*
X30767082Y53112367D01*
X30764722Y53110511D01*
X30588062Y52974955D01*
X30588042Y52974938D01*
X30425062Y52811958D01*
X30425053Y52811948D01*
X30284721Y52629062D01*
X30169471Y52429445D01*
X30169466Y52429435D01*
X30169465Y52429433D01*
X30114725Y52297278D01*
X30081251Y52216464D01*
X30021587Y51993795D01*
X29991500Y51765261D01*
X29991500Y51534740D01*
X30021587Y51306206D01*
X30021588Y51306200D01*
X30021589Y51306198D01*
X30078572Y51093533D01*
X30081253Y51083530D01*
X30129693Y50966584D01*
X30137282Y50895994D01*
X30105502Y50832507D01*
X30102379Y50829271D01*
X29890659Y50617551D01*
X29849783Y50590238D01*
X29747932Y50548049D01*
X29747927Y50548047D01*
X29610558Y50456260D01*
X29610552Y50456255D01*
X29493745Y50339448D01*
X29493740Y50339442D01*
X29401955Y50202075D01*
X29338732Y50049443D01*
X29338731Y50049442D01*
X29316985Y49940118D01*
X29284077Y49877208D01*
X29222382Y49842077D01*
X29193406Y49838700D01*
X29192392Y49838700D01*
X29030358Y49806469D01*
X29030357Y49806468D01*
X28877725Y49743245D01*
X28740358Y49651460D01*
X28740352Y49651455D01*
X28623545Y49534648D01*
X28623540Y49534642D01*
X28538605Y49407526D01*
X28531754Y49397273D01*
X28514971Y49356754D01*
X28498289Y49316481D01*
X28453740Y49261201D01*
X28386377Y49238780D01*
X28381880Y49238700D01*
X28317392Y49238700D01*
X28155358Y49206469D01*
X28155357Y49206468D01*
X28065945Y49169432D01*
X28006093Y49144640D01*
X28002725Y49143245D01*
X27865358Y49051460D01*
X27865352Y49051455D01*
X27748545Y48934648D01*
X27748540Y48934642D01*
X27656755Y48797275D01*
X27593532Y48644643D01*
X27593531Y48644642D01*
X27561300Y48482608D01*
X27561300Y48317393D01*
X27585591Y48195277D01*
X27593531Y48155360D01*
X27656754Y48002727D01*
X27692027Y47949938D01*
X27748540Y47865359D01*
X27748545Y47865353D01*
X27865352Y47748546D01*
X27865357Y47748542D01*
X27865360Y47748539D01*
X27865363Y47748537D01*
X27936295Y47701142D01*
X27981823Y47646666D01*
X27990672Y47576223D01*
X27960031Y47512178D01*
X27955390Y47507282D01*
X27694715Y47246605D01*
X27632403Y47212580D01*
X27605619Y47209700D01*
X24845386Y47209700D01*
X24777265Y47229702D01*
X24730772Y47283358D01*
X24728977Y47287482D01*
X24723225Y47301368D01*
X24680535Y47404433D01*
X24565276Y47604066D01*
X24424947Y47786947D01*
X24424946Y47786948D01*
X24424937Y47786958D01*
X24261957Y47949938D01*
X24261947Y47949947D01*
X24079066Y48090276D01*
X24073428Y48093531D01*
X23879444Y48205529D01*
X23879439Y48205532D01*
X23879433Y48205535D01*
X23666464Y48293749D01*
X23443802Y48353411D01*
X23443800Y48353412D01*
X23443794Y48353413D01*
X23215260Y48383500D01*
X23215258Y48383500D01*
X22984742Y48383500D01*
X22984739Y48383500D01*
X22756205Y48353413D01*
X22756198Y48353411D01*
X22533536Y48293749D01*
X22335857Y48211868D01*
X22320565Y48205534D01*
X22320555Y48205529D01*
X22120938Y48090279D01*
X21938052Y47949947D01*
X21938042Y47949938D01*
X21775062Y47786958D01*
X21775053Y47786948D01*
X21634721Y47604062D01*
X21519471Y47404445D01*
X21519466Y47404435D01*
X21519465Y47404433D01*
X21454091Y47246605D01*
X21431251Y47191464D01*
X21371587Y46968795D01*
X21341500Y46740261D01*
X21341500Y46509740D01*
X21371587Y46281206D01*
X21371588Y46281200D01*
X21371589Y46281198D01*
X21431251Y46058536D01*
X21519465Y45845567D01*
X21519466Y45845566D01*
X21519471Y45845556D01*
X21634721Y45645939D01*
X21634724Y45645934D01*
X21754105Y45490353D01*
X21775053Y45463053D01*
X21775062Y45463043D01*
X21938042Y45300063D01*
X21938052Y45300054D01*
X21938053Y45300053D01*
X22120934Y45159724D01*
X22320567Y45044465D01*
X22533536Y44956251D01*
X22756198Y44896589D01*
X22756204Y44896589D01*
X22756205Y44896588D01*
X22782425Y44893137D01*
X22984742Y44866500D01*
X22984749Y44866500D01*
X23215251Y44866500D01*
X23215258Y44866500D01*
X23443802Y44896589D01*
X23666464Y44956251D01*
X23879433Y45044465D01*
X24079066Y45159724D01*
X24261947Y45300053D01*
X24424947Y45463053D01*
X24565276Y45645934D01*
X24680535Y45845567D01*
X24728977Y45962519D01*
X24773525Y46017799D01*
X24840889Y46040220D01*
X24845386Y46040300D01*
X27331208Y46040300D01*
X27399329Y46020298D01*
X27445822Y45966642D01*
X27455926Y45896368D01*
X27426432Y45831788D01*
X27420303Y45825205D01*
X27339145Y45744048D01*
X27339140Y45744042D01*
X27247355Y45606675D01*
X27184132Y45454043D01*
X27184131Y45454042D01*
X27151900Y45292008D01*
X27151900Y45126793D01*
X27184131Y44964760D01*
X27247354Y44812127D01*
X27272168Y44774991D01*
X27339140Y44674759D01*
X27339145Y44674753D01*
X27455952Y44557946D01*
X27455958Y44557941D01*
X27455960Y44557939D01*
X27593327Y44466154D01*
X27745960Y44402931D01*
X27907995Y44370700D01*
X27907996Y44370700D01*
X28073204Y44370700D01*
X28073205Y44370700D01*
X28235240Y44402931D01*
X28387873Y44466154D01*
X28525240Y44557939D01*
X28535249Y44567948D01*
X28555097Y44587795D01*
X28617409Y44621821D01*
X28644192Y44624700D01*
X31437008Y44624700D01*
X31505129Y44604698D01*
X31526103Y44587795D01*
X31634752Y44479146D01*
X31634758Y44479141D01*
X31634760Y44479139D01*
X31772127Y44387354D01*
X31924760Y44324131D01*
X32086795Y44291900D01*
X32086796Y44291900D01*
X32252004Y44291900D01*
X32252005Y44291900D01*
X32414040Y44324131D01*
X32566673Y44387354D01*
X32704040Y44479139D01*
X32820861Y44595960D01*
X32912646Y44733327D01*
X32975869Y44885960D01*
X33008100Y45047995D01*
X33008100Y45213205D01*
X32975869Y45375240D01*
X32912646Y45527873D01*
X32820861Y45665240D01*
X32820859Y45665242D01*
X32820854Y45665248D01*
X32704047Y45782055D01*
X32704041Y45782060D01*
X32682507Y45796449D01*
X32566673Y45873846D01*
X32414041Y45937069D01*
X32252007Y45969300D01*
X32252005Y45969300D01*
X32086795Y45969300D01*
X32086792Y45969300D01*
X31924758Y45937069D01*
X31924757Y45937068D01*
X31772125Y45873845D01*
X31752693Y45860861D01*
X31709183Y45831788D01*
X31684559Y45815335D01*
X31616806Y45794120D01*
X31614557Y45794100D01*
X28644192Y45794100D01*
X28576071Y45814102D01*
X28555097Y45831005D01*
X28525247Y45860855D01*
X28525241Y45860860D01*
X28505808Y45873845D01*
X28387873Y45952646D01*
X28326384Y45978116D01*
X28300421Y45999039D01*
X28273736Y46019015D01*
X28272920Y46021201D01*
X28271105Y46022664D01*
X28260576Y46054298D01*
X28248925Y46085535D01*
X28249420Y46087814D01*
X28248684Y46090027D01*
X28253171Y46107608D01*
X38161300Y46107608D01*
X38161300Y45942393D01*
X38193193Y45782060D01*
X38193531Y45780360D01*
X38256754Y45627727D01*
X38323473Y45527875D01*
X38348540Y45490359D01*
X38348545Y45490353D01*
X38465352Y45373546D01*
X38465358Y45373541D01*
X38465360Y45373539D01*
X38602727Y45281754D01*
X38755360Y45218531D01*
X38917395Y45186300D01*
X38917396Y45186300D01*
X39082604Y45186300D01*
X39082605Y45186300D01*
X39244640Y45218531D01*
X39397273Y45281754D01*
X39534640Y45373539D01*
X39651461Y45490360D01*
X39743246Y45627727D01*
X39800900Y45766916D01*
X46774500Y45766916D01*
X46774500Y45553084D01*
X46807951Y45341884D01*
X46807952Y45341879D01*
X46867138Y45159722D01*
X46874028Y45138517D01*
X46971106Y44947991D01*
X47096794Y44774996D01*
X47096796Y44774994D01*
X47096798Y44774991D01*
X47247990Y44623799D01*
X47247993Y44623797D01*
X47247996Y44623794D01*
X47420991Y44498106D01*
X47562005Y44426256D01*
X47613620Y44377509D01*
X47630686Y44308594D01*
X47607786Y44241393D01*
X47578864Y44212054D01*
X47501989Y44156201D01*
X47350798Y44005010D01*
X47350796Y44005007D01*
X47225108Y43832013D01*
X47128029Y43641485D01*
X47128026Y43641479D01*
X47061952Y43438122D01*
X47061951Y43438117D01*
X47061951Y43438116D01*
X47028500Y43226916D01*
X47028500Y43013084D01*
X47059280Y42818749D01*
X47061952Y42801879D01*
X47128026Y42598522D01*
X47128028Y42598517D01*
X47225106Y42407991D01*
X47350794Y42234996D01*
X47350796Y42234994D01*
X47350798Y42234991D01*
X47501990Y42083799D01*
X47501993Y42083797D01*
X47501996Y42083794D01*
X47578863Y42027947D01*
X47622217Y41971725D01*
X47628292Y41900989D01*
X47595161Y41838197D01*
X47562006Y41813746D01*
X47451033Y41757201D01*
X47420987Y41741892D01*
X47247993Y41616204D01*
X47247990Y41616202D01*
X47096798Y41465010D01*
X47096796Y41465007D01*
X46971108Y41292013D01*
X46874029Y41101485D01*
X46874026Y41101479D01*
X46807952Y40898122D01*
X46807951Y40898117D01*
X46807951Y40898116D01*
X46774500Y40686916D01*
X46774500Y40473084D01*
X46807951Y40261884D01*
X46807952Y40261879D01*
X46824176Y40211947D01*
X46874028Y40058517D01*
X46971106Y39867991D01*
X47096794Y39694996D01*
X47096796Y39694994D01*
X47096798Y39694991D01*
X47247990Y39543799D01*
X47247993Y39543797D01*
X47247996Y39543794D01*
X47420991Y39418106D01*
X47562005Y39346256D01*
X47613620Y39297509D01*
X47630686Y39228594D01*
X47607786Y39161393D01*
X47578864Y39132054D01*
X47501989Y39076201D01*
X47350798Y38925010D01*
X47350796Y38925007D01*
X47225108Y38752013D01*
X47128029Y38561485D01*
X47128026Y38561479D01*
X47061952Y38358122D01*
X47061951Y38358117D01*
X47061951Y38358116D01*
X47028500Y38146916D01*
X47028500Y37933084D01*
X47061449Y37725054D01*
X47061952Y37721879D01*
X47127964Y37518714D01*
X47128028Y37518517D01*
X47225106Y37327991D01*
X47350794Y37154996D01*
X47350796Y37154994D01*
X47350798Y37154991D01*
X47501990Y37003799D01*
X47501993Y37003797D01*
X47501996Y37003794D01*
X47578863Y36947947D01*
X47622217Y36891725D01*
X47628292Y36820989D01*
X47595161Y36758197D01*
X47562006Y36733746D01*
X47477738Y36690808D01*
X47420987Y36661892D01*
X47247993Y36536204D01*
X47247990Y36536202D01*
X47096798Y36385010D01*
X47096796Y36385007D01*
X46971108Y36212013D01*
X46874029Y36021485D01*
X46874026Y36021479D01*
X46807952Y35818122D01*
X46807951Y35818117D01*
X46807951Y35818116D01*
X46774500Y35606916D01*
X46774500Y35393084D01*
X46807933Y35181996D01*
X46807952Y35181879D01*
X46870885Y34988190D01*
X46874028Y34978517D01*
X46971106Y34787991D01*
X47096794Y34614996D01*
X47096796Y34614994D01*
X47096798Y34614991D01*
X47247990Y34463799D01*
X47247993Y34463797D01*
X47247996Y34463794D01*
X47420991Y34338106D01*
X47562005Y34266256D01*
X47613620Y34217509D01*
X47630686Y34148594D01*
X47607786Y34081393D01*
X47578864Y34052054D01*
X47501989Y33996201D01*
X47350798Y33845010D01*
X47350796Y33845007D01*
X47225108Y33672013D01*
X47128029Y33481485D01*
X47128026Y33481479D01*
X47061952Y33278122D01*
X47061951Y33278117D01*
X47061951Y33278116D01*
X47028500Y33066916D01*
X47028500Y32853084D01*
X47045142Y32748013D01*
X47061952Y32641879D01*
X47128026Y32438522D01*
X47128028Y32438517D01*
X47225106Y32247991D01*
X47350794Y32074996D01*
X47350796Y32074994D01*
X47350798Y32074991D01*
X47501990Y31923799D01*
X47501993Y31923797D01*
X47501996Y31923794D01*
X47555181Y31885153D01*
X47578863Y31867947D01*
X47622217Y31811725D01*
X47628292Y31740989D01*
X47595161Y31678197D01*
X47562006Y31653746D01*
X47467556Y31605620D01*
X47420987Y31581892D01*
X47247993Y31456204D01*
X47247990Y31456202D01*
X47096798Y31305010D01*
X47096796Y31305007D01*
X46971108Y31132013D01*
X46874029Y30941485D01*
X46874026Y30941479D01*
X46807952Y30738122D01*
X46807951Y30738117D01*
X46807951Y30738116D01*
X46774500Y30526916D01*
X46774500Y30313084D01*
X46801535Y30142395D01*
X46807952Y30101879D01*
X46874026Y29898522D01*
X46874028Y29898517D01*
X46971106Y29707991D01*
X47096794Y29534996D01*
X47096796Y29534994D01*
X47096798Y29534991D01*
X47247990Y29383799D01*
X47247993Y29383797D01*
X47247996Y29383794D01*
X47420991Y29258106D01*
X47562505Y29186001D01*
X47614120Y29137252D01*
X47631186Y29068337D01*
X47608285Y29001136D01*
X47579364Y28971799D01*
X47502323Y28915825D01*
X47502317Y28915820D01*
X47351177Y28764680D01*
X47225536Y28591751D01*
X47128493Y28401293D01*
X47128490Y28401287D01*
X47062440Y28198005D01*
X47052302Y28134000D01*
X47956297Y28134000D01*
X47921075Y28072993D01*
X47887000Y27945826D01*
X47887000Y27814174D01*
X47921075Y27687007D01*
X47956297Y27626000D01*
X47052302Y27626000D01*
X47062440Y27561996D01*
X47128490Y27358714D01*
X47128493Y27358708D01*
X47225536Y27168250D01*
X47351177Y26995321D01*
X47502316Y26844182D01*
X47579819Y26787872D01*
X47623172Y26731649D01*
X47629247Y26660913D01*
X47596115Y26598121D01*
X47562960Y26573669D01*
X47421250Y26501465D01*
X47248320Y26375823D01*
X47097177Y26224680D01*
X46971536Y26051751D01*
X46874493Y25861293D01*
X46874490Y25861287D01*
X46808440Y25658005D01*
X46798302Y25594000D01*
X47702297Y25594000D01*
X47667075Y25532993D01*
X47633000Y25405826D01*
X47633000Y25274174D01*
X47667075Y25147007D01*
X47702297Y25086000D01*
X46798302Y25086000D01*
X46808440Y25021996D01*
X46874490Y24818714D01*
X46874493Y24818708D01*
X46971536Y24628250D01*
X47097177Y24455321D01*
X47248320Y24304178D01*
X47421252Y24178535D01*
X47562959Y24106332D01*
X47614575Y24057584D01*
X47631641Y23988669D01*
X47608741Y23921468D01*
X47579819Y23892130D01*
X47502323Y23835825D01*
X47502317Y23835820D01*
X47351177Y23684680D01*
X47225536Y23511751D01*
X47128493Y23321293D01*
X47128490Y23321287D01*
X47062440Y23118005D01*
X47052302Y23054000D01*
X47956297Y23054000D01*
X47921075Y22992993D01*
X47887000Y22865826D01*
X47887000Y22734174D01*
X47921075Y22607007D01*
X47956297Y22546000D01*
X47052302Y22546000D01*
X47062440Y22481996D01*
X47128490Y22278714D01*
X47128493Y22278708D01*
X47225536Y22088250D01*
X47351177Y21915321D01*
X47502316Y21764182D01*
X47579819Y21707872D01*
X47623172Y21651649D01*
X47629247Y21580913D01*
X47596115Y21518121D01*
X47562960Y21493669D01*
X47421250Y21421465D01*
X47248320Y21295823D01*
X47097177Y21144680D01*
X46971536Y20971751D01*
X46874493Y20781293D01*
X46874490Y20781287D01*
X46808440Y20578005D01*
X46798302Y20514000D01*
X47702297Y20514000D01*
X47667075Y20452993D01*
X47633000Y20325826D01*
X47633000Y20194174D01*
X47667075Y20067007D01*
X47702297Y20006000D01*
X46798302Y20006000D01*
X46808440Y19941996D01*
X46874490Y19738714D01*
X46874493Y19738708D01*
X46971536Y19548250D01*
X47097177Y19375321D01*
X47248320Y19224178D01*
X47421252Y19098535D01*
X47562959Y19026332D01*
X47614575Y18977584D01*
X47631641Y18908669D01*
X47608741Y18841468D01*
X47579819Y18812130D01*
X47502323Y18755825D01*
X47502317Y18755820D01*
X47351177Y18604680D01*
X47225536Y18431751D01*
X47128493Y18241293D01*
X47128490Y18241287D01*
X47062440Y18038005D01*
X47052302Y17974000D01*
X47956297Y17974000D01*
X47921075Y17912993D01*
X47887000Y17785826D01*
X47887000Y17654174D01*
X47921075Y17527007D01*
X47956297Y17466000D01*
X47052302Y17466000D01*
X47062440Y17401996D01*
X47128490Y17198714D01*
X47128493Y17198708D01*
X47225536Y17008250D01*
X47351177Y16835321D01*
X47502316Y16684182D01*
X47579819Y16627872D01*
X47623172Y16571649D01*
X47629247Y16500913D01*
X47596115Y16438121D01*
X47562960Y16413669D01*
X47421250Y16341465D01*
X47248320Y16215823D01*
X47097177Y16064680D01*
X46971536Y15891751D01*
X46874493Y15701293D01*
X46874490Y15701287D01*
X46808440Y15498005D01*
X46798302Y15434000D01*
X47702297Y15434000D01*
X47667075Y15372993D01*
X47633000Y15245826D01*
X47633000Y15114174D01*
X47667075Y14987007D01*
X47702297Y14926000D01*
X46798302Y14926000D01*
X46808440Y14861996D01*
X46874490Y14658714D01*
X46874493Y14658708D01*
X46971536Y14468250D01*
X47097177Y14295321D01*
X47248320Y14144178D01*
X47421252Y14018535D01*
X47562959Y13946332D01*
X47614575Y13897584D01*
X47631641Y13828669D01*
X47608741Y13761468D01*
X47579819Y13732130D01*
X47502323Y13675825D01*
X47502317Y13675820D01*
X47351177Y13524680D01*
X47225536Y13351751D01*
X47128493Y13161293D01*
X47128490Y13161287D01*
X47062440Y12958005D01*
X47052302Y12894000D01*
X47956297Y12894000D01*
X47921075Y12832993D01*
X47887000Y12705826D01*
X47887000Y12574174D01*
X47921075Y12447007D01*
X47956297Y12386000D01*
X47052302Y12386000D01*
X47062440Y12321996D01*
X47128490Y12118714D01*
X47128493Y12118708D01*
X47225536Y11928250D01*
X47351177Y11755321D01*
X47502320Y11604178D01*
X47579363Y11548203D01*
X47622717Y11491980D01*
X47628792Y11421244D01*
X47595660Y11358453D01*
X47562506Y11334001D01*
X47420990Y11261894D01*
X47247993Y11136204D01*
X47247990Y11136202D01*
X47096798Y10985010D01*
X47096796Y10985007D01*
X46971108Y10812013D01*
X46874029Y10621485D01*
X46874026Y10621479D01*
X46807952Y10418122D01*
X46807951Y10418117D01*
X46807951Y10418116D01*
X46774500Y10206916D01*
X46774500Y9993084D01*
X46807951Y9781884D01*
X46807952Y9781879D01*
X46874026Y9578522D01*
X46874028Y9578517D01*
X46971106Y9387991D01*
X47096794Y9214996D01*
X47096796Y9214994D01*
X47096798Y9214991D01*
X47247990Y9063799D01*
X47247993Y9063797D01*
X47247996Y9063794D01*
X47420991Y8938106D01*
X47562505Y8866001D01*
X47614120Y8817252D01*
X47631186Y8748337D01*
X47608285Y8681136D01*
X47579364Y8651799D01*
X47502323Y8595825D01*
X47502317Y8595820D01*
X47351177Y8444680D01*
X47225536Y8271751D01*
X47128493Y8081293D01*
X47128490Y8081287D01*
X47062440Y7878005D01*
X47052302Y7814000D01*
X47956297Y7814000D01*
X47921075Y7752993D01*
X47887000Y7625826D01*
X47887000Y7494174D01*
X47921075Y7367007D01*
X47956297Y7306000D01*
X47052302Y7306000D01*
X47062440Y7241996D01*
X47128490Y7038714D01*
X47128493Y7038708D01*
X47225536Y6848250D01*
X47351177Y6675321D01*
X47502320Y6524178D01*
X47675249Y6398537D01*
X47865707Y6301494D01*
X47865713Y6301491D01*
X48068998Y6235440D01*
X48133000Y6225304D01*
X48133000Y7129298D01*
X48194007Y7094075D01*
X48321174Y7060000D01*
X48452826Y7060000D01*
X48579993Y7094075D01*
X48641000Y7129298D01*
X48641000Y6225304D01*
X48705001Y6235440D01*
X48908286Y6301491D01*
X48908292Y6301494D01*
X49098750Y6398537D01*
X49271679Y6524178D01*
X49422822Y6675321D01*
X49548463Y6848250D01*
X49645506Y7038708D01*
X49645509Y7038714D01*
X49711559Y7241996D01*
X49721698Y7306000D01*
X48817703Y7306000D01*
X48852925Y7367007D01*
X48887000Y7494174D01*
X48887000Y7625826D01*
X48852925Y7752993D01*
X48817703Y7814000D01*
X49721697Y7814000D01*
X49711559Y7878005D01*
X49645509Y8081287D01*
X49645506Y8081293D01*
X49548463Y8271751D01*
X49422822Y8444680D01*
X49271679Y8595823D01*
X49098750Y8721464D01*
X48957540Y8793414D01*
X48905925Y8842162D01*
X48888859Y8911077D01*
X48911760Y8978279D01*
X48940679Y9007615D01*
X49018004Y9063794D01*
X49169206Y9214996D01*
X49294894Y9387991D01*
X49391972Y9578517D01*
X49458049Y9781884D01*
X49491500Y9993084D01*
X49491500Y10206916D01*
X49458049Y10418116D01*
X49391972Y10621483D01*
X49294894Y10812009D01*
X49169206Y10985004D01*
X49169203Y10985007D01*
X49169201Y10985010D01*
X49018006Y11136205D01*
X48940682Y11192384D01*
X48897328Y11248607D01*
X48891253Y11319343D01*
X48924385Y11382134D01*
X48957541Y11406587D01*
X49098747Y11478535D01*
X49271679Y11604178D01*
X49422822Y11755321D01*
X49548463Y11928250D01*
X49645506Y12118708D01*
X49645509Y12118714D01*
X49711559Y12321996D01*
X49721698Y12386000D01*
X48817703Y12386000D01*
X48852925Y12447007D01*
X48887000Y12574174D01*
X48887000Y12705826D01*
X48852925Y12832993D01*
X48817703Y12894000D01*
X49721697Y12894000D01*
X49711559Y12958005D01*
X49645509Y13161287D01*
X49645506Y13161293D01*
X49548463Y13351751D01*
X49422822Y13524680D01*
X49271679Y13675823D01*
X49098750Y13801464D01*
X48957039Y13873669D01*
X48905424Y13922417D01*
X48888358Y13991332D01*
X48911259Y14058534D01*
X48940181Y14087872D01*
X49017679Y14144179D01*
X49017682Y14144181D01*
X49168822Y14295321D01*
X49294463Y14468250D01*
X49391506Y14658708D01*
X49391509Y14658714D01*
X49457559Y14861996D01*
X49467698Y14926000D01*
X48563703Y14926000D01*
X48598925Y14987007D01*
X48633000Y15114174D01*
X48633000Y15245826D01*
X48598925Y15372993D01*
X48563703Y15434000D01*
X49467697Y15434000D01*
X49457559Y15498005D01*
X49391509Y15701287D01*
X49391506Y15701293D01*
X49294463Y15891751D01*
X49168822Y16064680D01*
X49017683Y16215819D01*
X48940180Y16272129D01*
X48896827Y16328352D01*
X48890752Y16399088D01*
X48923884Y16461880D01*
X48957040Y16486332D01*
X49098747Y16558535D01*
X49271679Y16684178D01*
X49422822Y16835321D01*
X49548463Y17008250D01*
X49645506Y17198708D01*
X49645509Y17198714D01*
X49711559Y17401996D01*
X49721698Y17466000D01*
X48817703Y17466000D01*
X48852925Y17527007D01*
X48887000Y17654174D01*
X48887000Y17785826D01*
X48852925Y17912993D01*
X48817703Y17974000D01*
X49721697Y17974000D01*
X49711559Y18038005D01*
X49645509Y18241287D01*
X49645506Y18241293D01*
X49548463Y18431751D01*
X49422822Y18604680D01*
X49271679Y18755823D01*
X49098750Y18881464D01*
X48957039Y18953669D01*
X48905424Y19002417D01*
X48888358Y19071332D01*
X48911259Y19138534D01*
X48940181Y19167872D01*
X49017679Y19224179D01*
X49017682Y19224181D01*
X49168822Y19375321D01*
X49294463Y19548250D01*
X49391506Y19738708D01*
X49391509Y19738714D01*
X49457559Y19941996D01*
X49467698Y20006000D01*
X48563703Y20006000D01*
X48598925Y20067007D01*
X48633000Y20194174D01*
X48633000Y20325826D01*
X48598925Y20452993D01*
X48563703Y20514000D01*
X49467697Y20514000D01*
X49457559Y20578005D01*
X49391509Y20781287D01*
X49391506Y20781293D01*
X49294463Y20971751D01*
X49168822Y21144680D01*
X49017683Y21295819D01*
X48940180Y21352129D01*
X48896827Y21408352D01*
X48890752Y21479088D01*
X48923884Y21541880D01*
X48957040Y21566332D01*
X49098747Y21638535D01*
X49271679Y21764178D01*
X49422822Y21915321D01*
X49548463Y22088250D01*
X49645506Y22278708D01*
X49645509Y22278714D01*
X49711559Y22481996D01*
X49721698Y22546000D01*
X48817703Y22546000D01*
X48852925Y22607007D01*
X48887000Y22734174D01*
X48887000Y22865826D01*
X48852925Y22992993D01*
X48817703Y23054000D01*
X49721697Y23054000D01*
X49711559Y23118005D01*
X49645509Y23321287D01*
X49645506Y23321293D01*
X49548463Y23511751D01*
X49422822Y23684680D01*
X49271679Y23835823D01*
X49098750Y23961464D01*
X48957039Y24033669D01*
X48905424Y24082417D01*
X48888358Y24151332D01*
X48911259Y24218534D01*
X48940181Y24247872D01*
X49017679Y24304179D01*
X49017682Y24304181D01*
X49168822Y24455321D01*
X49294463Y24628250D01*
X49391506Y24818708D01*
X49391509Y24818714D01*
X49457559Y25021996D01*
X49467698Y25086000D01*
X48563703Y25086000D01*
X48598925Y25147007D01*
X48633000Y25274174D01*
X48633000Y25405826D01*
X48598925Y25532993D01*
X48563703Y25594000D01*
X49467697Y25594000D01*
X49457559Y25658005D01*
X49391509Y25861287D01*
X49391506Y25861293D01*
X49294463Y26051751D01*
X49168822Y26224680D01*
X49017683Y26375819D01*
X48940180Y26432129D01*
X48896827Y26488352D01*
X48890752Y26559088D01*
X48923884Y26621880D01*
X48957040Y26646332D01*
X49098747Y26718535D01*
X49271679Y26844178D01*
X49422822Y26995321D01*
X49548463Y27168250D01*
X49645506Y27358708D01*
X49645509Y27358714D01*
X49711559Y27561996D01*
X49721698Y27626000D01*
X48817703Y27626000D01*
X48852925Y27687007D01*
X48887000Y27814174D01*
X48887000Y27945826D01*
X48852925Y28072993D01*
X48817703Y28134000D01*
X49721697Y28134000D01*
X49711559Y28198005D01*
X49645509Y28401287D01*
X49645506Y28401293D01*
X49548463Y28591751D01*
X49422822Y28764680D01*
X49271679Y28915823D01*
X49098750Y29041464D01*
X48957540Y29113414D01*
X48905925Y29162162D01*
X48888859Y29231077D01*
X48911760Y29298279D01*
X48940679Y29327615D01*
X49018004Y29383794D01*
X49169206Y29534996D01*
X49294894Y29707991D01*
X49391972Y29898517D01*
X49458049Y30101884D01*
X49491500Y30313084D01*
X49491500Y30526916D01*
X49458049Y30738116D01*
X49391972Y30941483D01*
X49294894Y31132009D01*
X49169206Y31305004D01*
X49169203Y31305007D01*
X49169201Y31305010D01*
X49018006Y31456205D01*
X48941136Y31512054D01*
X48897782Y31568277D01*
X48891707Y31639013D01*
X48924839Y31701804D01*
X48957989Y31726253D01*
X49099009Y31798106D01*
X49272004Y31923794D01*
X49423206Y32074996D01*
X49548894Y32247991D01*
X49645972Y32438517D01*
X49712049Y32641884D01*
X49745500Y32853084D01*
X49745500Y33066916D01*
X49712049Y33278116D01*
X49645972Y33481483D01*
X49548894Y33672009D01*
X49423206Y33845004D01*
X49423203Y33845007D01*
X49423201Y33845010D01*
X49272009Y33996202D01*
X49272006Y33996204D01*
X49272004Y33996206D01*
X49099009Y34121894D01*
X48957992Y34193746D01*
X48906379Y34242492D01*
X48889313Y34311407D01*
X48912214Y34378609D01*
X48941133Y34407945D01*
X49018004Y34463794D01*
X49169206Y34614996D01*
X49294894Y34787991D01*
X49391972Y34978517D01*
X49458049Y35181884D01*
X49491500Y35393084D01*
X49491500Y35606916D01*
X49458049Y35818116D01*
X49391972Y36021483D01*
X49294894Y36212009D01*
X49169206Y36385004D01*
X49169203Y36385007D01*
X49169201Y36385010D01*
X49018006Y36536205D01*
X48941136Y36592054D01*
X48897782Y36648277D01*
X48891707Y36719013D01*
X48924839Y36781804D01*
X48957989Y36806253D01*
X49099009Y36878106D01*
X49272004Y37003794D01*
X49423206Y37154996D01*
X49548894Y37327991D01*
X49645972Y37518517D01*
X49712049Y37721884D01*
X49745500Y37933084D01*
X49745500Y38146916D01*
X49712049Y38358116D01*
X49645972Y38561483D01*
X49548894Y38752009D01*
X49423206Y38925004D01*
X49423203Y38925007D01*
X49423201Y38925010D01*
X49272009Y39076202D01*
X49272006Y39076204D01*
X49272004Y39076206D01*
X49099009Y39201894D01*
X48957992Y39273746D01*
X48906379Y39322492D01*
X48889313Y39391407D01*
X48912214Y39458609D01*
X48941133Y39487945D01*
X49018004Y39543794D01*
X49169206Y39694996D01*
X49294894Y39867991D01*
X49391972Y40058517D01*
X49458049Y40261884D01*
X49491500Y40473084D01*
X49491500Y40686916D01*
X49458049Y40898116D01*
X49391972Y41101483D01*
X49294894Y41292009D01*
X49169206Y41465004D01*
X49169203Y41465007D01*
X49169201Y41465010D01*
X49018006Y41616205D01*
X48941136Y41672054D01*
X48897782Y41728277D01*
X48891707Y41799013D01*
X48924839Y41861804D01*
X48957989Y41886253D01*
X49099009Y41958106D01*
X49272004Y42083794D01*
X49423206Y42234996D01*
X49548894Y42407991D01*
X49645972Y42598517D01*
X49712049Y42801884D01*
X49745500Y43013084D01*
X49745500Y43226916D01*
X49712049Y43438116D01*
X49645972Y43641483D01*
X49548894Y43832009D01*
X49423206Y44005004D01*
X49423203Y44005007D01*
X49423201Y44005010D01*
X49272009Y44156202D01*
X49272006Y44156204D01*
X49272004Y44156206D01*
X49099009Y44281894D01*
X48957992Y44353746D01*
X48906379Y44402492D01*
X48889313Y44471407D01*
X48912214Y44538609D01*
X48941133Y44567945D01*
X49018004Y44623794D01*
X49169206Y44774996D01*
X49294894Y44947991D01*
X49391972Y45138517D01*
X49458049Y45341884D01*
X49491500Y45553084D01*
X49491500Y45766916D01*
X49458049Y45978116D01*
X49391972Y46181483D01*
X49294894Y46372009D01*
X49169206Y46545004D01*
X49169203Y46545007D01*
X49169201Y46545010D01*
X49087806Y46626405D01*
X49053780Y46688717D01*
X49058845Y46759532D01*
X49101392Y46816368D01*
X49167912Y46841179D01*
X49176901Y46841500D01*
X49285632Y46841500D01*
X49285638Y46841500D01*
X49285645Y46841501D01*
X49285649Y46841501D01*
X49346196Y46848010D01*
X49346199Y46848011D01*
X49346201Y46848011D01*
X49483204Y46899111D01*
X49600261Y46986739D01*
X49687889Y47103796D01*
X49738989Y47240799D01*
X49739614Y47246605D01*
X49745499Y47301351D01*
X49745500Y47301368D01*
X49745500Y49098633D01*
X49745499Y49098650D01*
X49738990Y49159197D01*
X49738988Y49159205D01*
X49707122Y49244640D01*
X49687889Y49296204D01*
X49687888Y49296206D01*
X49687887Y49296208D01*
X49600261Y49413262D01*
X49483207Y49500888D01*
X49483202Y49500890D01*
X49346204Y49551989D01*
X49346196Y49551991D01*
X49285649Y49558500D01*
X49285638Y49558500D01*
X47488362Y49558500D01*
X47488350Y49558500D01*
X47427803Y49551991D01*
X47427795Y49551989D01*
X47290797Y49500890D01*
X47290792Y49500888D01*
X47173738Y49413262D01*
X47086112Y49296208D01*
X47086110Y49296203D01*
X47035011Y49159205D01*
X47035009Y49159197D01*
X47028500Y49098650D01*
X47028500Y47301351D01*
X47035009Y47240804D01*
X47035011Y47240796D01*
X47086110Y47103798D01*
X47086112Y47103793D01*
X47173738Y46986739D01*
X47270497Y46914306D01*
X47313044Y46857470D01*
X47318108Y46786654D01*
X47284083Y46724342D01*
X47269054Y46711507D01*
X47250627Y46698118D01*
X47247989Y46696201D01*
X47096798Y46545010D01*
X47096796Y46545007D01*
X46971108Y46372013D01*
X46874029Y46181485D01*
X46874026Y46181479D01*
X46807952Y45978122D01*
X46807951Y45978117D01*
X46807951Y45978116D01*
X46774500Y45766916D01*
X39800900Y45766916D01*
X39806469Y45780360D01*
X39838700Y45942395D01*
X39838700Y46107605D01*
X39806469Y46269640D01*
X39743246Y46422273D01*
X39651461Y46559640D01*
X39651459Y46559642D01*
X39651454Y46559648D01*
X39534647Y46676455D01*
X39534641Y46676460D01*
X39505097Y46696201D01*
X39397273Y46768246D01*
X39244641Y46831469D01*
X39082607Y46863700D01*
X39082605Y46863700D01*
X38917395Y46863700D01*
X38917392Y46863700D01*
X38755358Y46831469D01*
X38755357Y46831468D01*
X38602725Y46768245D01*
X38465358Y46676460D01*
X38465352Y46676455D01*
X38348545Y46559648D01*
X38348540Y46559642D01*
X38256755Y46422275D01*
X38193532Y46269643D01*
X38193531Y46269642D01*
X38161300Y46107608D01*
X28253171Y46107608D01*
X28256927Y46122325D01*
X28264016Y46154909D01*
X28265880Y46157400D01*
X28266243Y46158819D01*
X28285509Y46183619D01*
X29767870Y47665980D01*
X29767876Y47665986D01*
X29844853Y47799315D01*
X29884700Y47948023D01*
X29884700Y48101977D01*
X29873837Y48142518D01*
X29863993Y48179258D01*
X29859700Y48211868D01*
X29859700Y48346409D01*
X29879702Y48414530D01*
X29896601Y48435501D01*
X29926461Y48465360D01*
X30018246Y48602727D01*
X30081469Y48755360D01*
X30103215Y48864682D01*
X30136123Y48927592D01*
X30197818Y48962723D01*
X30226794Y48966100D01*
X30227804Y48966100D01*
X30227805Y48966100D01*
X30310796Y48982608D01*
X31861300Y48982608D01*
X31861300Y48817393D01*
X31873640Y48755358D01*
X31893531Y48655360D01*
X31956754Y48502727D01*
X32036419Y48383500D01*
X32048540Y48365359D01*
X32048545Y48365353D01*
X32165352Y48248546D01*
X32165358Y48248541D01*
X32165360Y48248539D01*
X32302727Y48156754D01*
X32455360Y48093531D01*
X32617395Y48061300D01*
X32617396Y48061300D01*
X32782604Y48061300D01*
X32782605Y48061300D01*
X32944640Y48093531D01*
X33097273Y48156754D01*
X33234640Y48248539D01*
X33351461Y48365360D01*
X33443246Y48502727D01*
X33506469Y48655360D01*
X33538700Y48817395D01*
X33538700Y48982605D01*
X33506469Y49144640D01*
X33443246Y49297273D01*
X33351461Y49434640D01*
X33351459Y49434642D01*
X33351454Y49434648D01*
X33234647Y49551455D01*
X33234641Y49551460D01*
X33233850Y49551989D01*
X33097273Y49643246D01*
X32944641Y49706469D01*
X32782607Y49738700D01*
X32782605Y49738700D01*
X32617395Y49738700D01*
X32617392Y49738700D01*
X32455358Y49706469D01*
X32455357Y49706468D01*
X32365945Y49669432D01*
X32322558Y49651460D01*
X32302725Y49643245D01*
X32165358Y49551460D01*
X32165352Y49551455D01*
X32048545Y49434648D01*
X32048540Y49434642D01*
X31996498Y49356754D01*
X31956754Y49297273D01*
X31941854Y49261301D01*
X31893532Y49144643D01*
X31893531Y49144642D01*
X31861300Y48982608D01*
X30310796Y48982608D01*
X30389840Y48998331D01*
X30542473Y49061554D01*
X30679840Y49153339D01*
X30796661Y49270160D01*
X30888446Y49407527D01*
X30951669Y49560160D01*
X30983900Y49722195D01*
X30983900Y49875371D01*
X31003902Y49943492D01*
X31057558Y49989985D01*
X31127832Y50000089D01*
X31158113Y49991782D01*
X31183536Y49981251D01*
X31406198Y49921589D01*
X31406204Y49921589D01*
X31406205Y49921588D01*
X31432425Y49918137D01*
X31634742Y49891500D01*
X31634749Y49891500D01*
X31865251Y49891500D01*
X31865258Y49891500D01*
X32093802Y49921589D01*
X32316464Y49981251D01*
X32529433Y50069465D01*
X32729066Y50184724D01*
X32911947Y50325053D01*
X33074947Y50488053D01*
X33215276Y50670934D01*
X33330535Y50870567D01*
X33418749Y51083536D01*
X33478411Y51306198D01*
X33508500Y51534742D01*
X33508500Y51765258D01*
X33478411Y51993802D01*
X33418749Y52216464D01*
X33330535Y52429433D01*
X33241348Y52583908D01*
X39156600Y52583908D01*
X39156600Y52418693D01*
X39188831Y52256660D01*
X39252054Y52104027D01*
X39325704Y51993802D01*
X39343840Y51966659D01*
X39343845Y51966653D01*
X39460652Y51849846D01*
X39460658Y51849841D01*
X39460660Y51849839D01*
X39598027Y51758054D01*
X39750660Y51694831D01*
X39912695Y51662600D01*
X39912696Y51662600D01*
X40077904Y51662600D01*
X40077905Y51662600D01*
X40239940Y51694831D01*
X40392573Y51758054D01*
X40529940Y51849839D01*
X40646761Y51966660D01*
X40738546Y52104027D01*
X40801769Y52256660D01*
X40834000Y52418695D01*
X40834000Y52583905D01*
X40801769Y52745940D01*
X40738546Y52898573D01*
X40646761Y53035940D01*
X40646759Y53035942D01*
X40646754Y53035948D01*
X40529947Y53152755D01*
X40529941Y53152760D01*
X40487264Y53181276D01*
X40392573Y53244546D01*
X40239941Y53307769D01*
X40077907Y53340000D01*
X40077905Y53340000D01*
X39912695Y53340000D01*
X39912692Y53340000D01*
X39750658Y53307769D01*
X39750657Y53307768D01*
X39661245Y53270732D01*
X39609780Y53249414D01*
X39598025Y53244545D01*
X39460658Y53152760D01*
X39460652Y53152755D01*
X39343845Y53035948D01*
X39343840Y53035942D01*
X39306083Y52979433D01*
X39252054Y52898573D01*
X39225868Y52835355D01*
X39188832Y52745943D01*
X39188831Y52745942D01*
X39156600Y52583908D01*
X33241348Y52583908D01*
X33215276Y52629066D01*
X33074947Y52811947D01*
X33074946Y52811948D01*
X33074937Y52811958D01*
X32911957Y52974938D01*
X32911947Y52974947D01*
X32832456Y53035942D01*
X32729066Y53115276D01*
X32664151Y53152755D01*
X32529444Y53230529D01*
X32529439Y53230532D01*
X32529433Y53230535D01*
X32316464Y53318749D01*
X32093802Y53378411D01*
X32093800Y53378412D01*
X32093794Y53378413D01*
X31865260Y53408500D01*
X31865258Y53408500D01*
X31634742Y53408500D01*
X31634739Y53408500D01*
X31406205Y53378413D01*
X31406198Y53378411D01*
X31183536Y53318749D01*
X31183534Y53318749D01*
X31183533Y53318748D01*
X31034465Y53257003D01*
X30963875Y53249414D01*
X30900389Y53281194D01*
X30864162Y53342252D01*
X30866696Y53413204D01*
X30906327Y53470821D01*
X30909632Y53473535D01*
X30909640Y53473539D01*
X31026461Y53590360D01*
X31118246Y53727727D01*
X31181469Y53880360D01*
X31213700Y54042395D01*
X31213700Y54207605D01*
X31181469Y54369640D01*
X31118246Y54522273D01*
X31026461Y54659640D01*
X31026459Y54659642D01*
X31026454Y54659648D01*
X30909644Y54776458D01*
X30905016Y54779550D01*
X30817390Y54838100D01*
X30772272Y54868247D01*
X30772267Y54868249D01*
X30767055Y54870408D01*
X33298900Y54870408D01*
X33298900Y54705193D01*
X33320891Y54594640D01*
X33331131Y54543160D01*
X33394354Y54390527D01*
X33462795Y54288098D01*
X33486140Y54253159D01*
X33486145Y54253153D01*
X33602952Y54136346D01*
X33602958Y54136341D01*
X33602960Y54136339D01*
X33740327Y54044554D01*
X33892960Y53981331D01*
X34054995Y53949100D01*
X34054996Y53949100D01*
X34220204Y53949100D01*
X34220205Y53949100D01*
X34382240Y53981331D01*
X34534873Y54044554D01*
X34672240Y54136339D01*
X34789061Y54253160D01*
X34880846Y54390527D01*
X34944069Y54543160D01*
X34976300Y54705195D01*
X34976300Y54870405D01*
X34944069Y55032440D01*
X34880846Y55185073D01*
X34789061Y55322440D01*
X34789059Y55322442D01*
X34789054Y55322448D01*
X34672247Y55439255D01*
X34672241Y55439260D01*
X34569574Y55507860D01*
X34534873Y55531046D01*
X34382241Y55594269D01*
X34220207Y55626500D01*
X34220205Y55626500D01*
X34054995Y55626500D01*
X34054992Y55626500D01*
X33892958Y55594269D01*
X33892957Y55594268D01*
X33740325Y55531045D01*
X33602958Y55439260D01*
X33602952Y55439255D01*
X33486145Y55322448D01*
X33486140Y55322442D01*
X33394355Y55185075D01*
X33331132Y55032443D01*
X33331131Y55032442D01*
X33298900Y54870408D01*
X30767055Y54870408D01*
X30680945Y54906077D01*
X30625664Y54950625D01*
X30603244Y55017989D01*
X30620803Y55086780D01*
X30640061Y55111572D01*
X31726688Y56198198D01*
X31788998Y56232221D01*
X31815781Y56235100D01*
X32264808Y56235100D01*
X32332929Y56215098D01*
X32353903Y56198195D01*
X32383752Y56168346D01*
X32383758Y56168341D01*
X32383760Y56168339D01*
X32521127Y56076554D01*
X32673760Y56013331D01*
X32835795Y55981100D01*
X32835796Y55981100D01*
X33001004Y55981100D01*
X33001005Y55981100D01*
X33163040Y56013331D01*
X33315673Y56076554D01*
X33453040Y56168339D01*
X33569861Y56285160D01*
X33661646Y56422527D01*
X33724869Y56575160D01*
X33757100Y56737195D01*
X33757100Y56902405D01*
X33724869Y57064440D01*
X33661646Y57217073D01*
X33661645Y57217075D01*
X33661644Y57217077D01*
X33661643Y57217078D01*
X33577434Y57343107D01*
X33556219Y57410859D01*
X33575002Y57479326D01*
X33593100Y57502200D01*
X33696861Y57605960D01*
X33788646Y57743327D01*
X33851869Y57895960D01*
X33884100Y58057995D01*
X33884100Y58223205D01*
X33851869Y58385240D01*
X33788646Y58537873D01*
X33696861Y58675240D01*
X33696859Y58675242D01*
X33696854Y58675248D01*
X33580047Y58792055D01*
X33580041Y58792060D01*
X33455863Y58875033D01*
X33442673Y58883846D01*
X33290041Y58947069D01*
X33128007Y58979300D01*
X33128005Y58979300D01*
X32962795Y58979300D01*
X32962792Y58979300D01*
X32800758Y58947069D01*
X32800757Y58947068D01*
X32648125Y58883845D01*
X32510758Y58792060D01*
X32510752Y58792055D01*
X32393945Y58675248D01*
X32393940Y58675242D01*
X32302155Y58537875D01*
X32238932Y58385243D01*
X32238931Y58385242D01*
X32206700Y58223208D01*
X32206700Y58057993D01*
X32238931Y57895960D01*
X32302154Y57743327D01*
X32386366Y57617293D01*
X32396004Y57586513D01*
X32407280Y57556285D01*
X32406537Y57552874D01*
X32407581Y57549542D01*
X32399046Y57518432D01*
X32392190Y57486911D01*
X32389362Y57483135D01*
X32388798Y57481075D01*
X32370699Y57458200D01*
X32353904Y57441406D01*
X32291596Y57407380D01*
X32264809Y57404500D01*
X31444423Y57404500D01*
X31295714Y57364653D01*
X31241158Y57333155D01*
X31241157Y57333156D01*
X31162388Y57287679D01*
X31162382Y57287674D01*
X30928876Y57054167D01*
X29766713Y55892004D01*
X29704403Y55857980D01*
X29677620Y55855100D01*
X25065979Y55855100D01*
X24997858Y55875102D01*
X24951365Y55928758D01*
X24941261Y55999032D01*
X24970755Y56063612D01*
X24976863Y56070175D01*
X25916977Y57010289D01*
X25979286Y57044311D01*
X25981422Y57044757D01*
X26044640Y57057331D01*
X26197273Y57120554D01*
X26334640Y57212339D01*
X26451461Y57329160D01*
X26543246Y57466527D01*
X26606469Y57619160D01*
X26638700Y57781195D01*
X26638700Y57946405D01*
X26606469Y58108440D01*
X26576769Y58180139D01*
X26569181Y58250727D01*
X26588415Y58298360D01*
X26591334Y58302727D01*
X26654557Y58455360D01*
X26686788Y58617395D01*
X26686788Y58782605D01*
X26654557Y58944640D01*
X26591334Y59097273D01*
X26499549Y59234640D01*
X26499547Y59234642D01*
X26499542Y59234648D01*
X26382735Y59351455D01*
X26382729Y59351460D01*
X26357829Y59368098D01*
X26245361Y59443246D01*
X26092729Y59506469D01*
X25930695Y59538700D01*
X25930693Y59538700D01*
X25765483Y59538700D01*
X25765480Y59538700D01*
X25603446Y59506469D01*
X25603445Y59506468D01*
X25572218Y59493533D01*
X25494404Y59461301D01*
X25450813Y59443245D01*
X25313446Y59351460D01*
X25313440Y59351455D01*
X25283591Y59321605D01*
X25221279Y59287579D01*
X25194496Y59284700D01*
X22594381Y59284700D01*
X22526260Y59304702D01*
X22505286Y59321605D01*
X21575605Y60251286D01*
X21541579Y60313598D01*
X21538700Y60340381D01*
X21538700Y60382604D01*
X21538699Y60382608D01*
X21531333Y60419640D01*
X21506469Y60544640D01*
X21443246Y60697273D01*
X21351461Y60834640D01*
X21351459Y60834642D01*
X21351454Y60834648D01*
X21234647Y60951455D01*
X21234641Y60951460D01*
X21211510Y60966916D01*
X21097273Y61043246D01*
X20944641Y61106469D01*
X20782607Y61138700D01*
X20782605Y61138700D01*
X20617395Y61138700D01*
X20617392Y61138700D01*
X20455358Y61106469D01*
X20455357Y61106468D01*
X20424130Y61093533D01*
X20346316Y61061301D01*
X20302725Y61043245D01*
X20165358Y60951460D01*
X20165352Y60951455D01*
X20048545Y60834648D01*
X20048540Y60834642D01*
X19956755Y60697275D01*
X19893532Y60544643D01*
X19893531Y60544642D01*
X19861300Y60382608D01*
X19861300Y60217393D01*
X19893531Y60055360D01*
X19956754Y59902727D01*
X20044631Y59771210D01*
X20048540Y59765359D01*
X20048545Y59765353D01*
X20165352Y59648546D01*
X20165358Y59648541D01*
X20165360Y59648539D01*
X20302727Y59556754D01*
X20455360Y59493531D01*
X20617395Y59461300D01*
X20659620Y59461300D01*
X20727741Y59441298D01*
X20748710Y59424400D01*
X21940986Y58232123D01*
X21940987Y58232122D01*
X21940989Y58232121D01*
X22074310Y58155148D01*
X22074312Y58155148D01*
X22074315Y58155146D01*
X22223023Y58115300D01*
X22376977Y58115300D01*
X24841364Y58115300D01*
X24909485Y58095298D01*
X24955978Y58041642D01*
X24967337Y57986694D01*
X24967107Y57975601D01*
X24961300Y57946405D01*
X24961300Y57781195D01*
X24962917Y57773066D01*
X24962633Y57759336D01*
X24955882Y57737990D01*
X24953864Y57715689D01*
X24944146Y57700878D01*
X24941226Y57691643D01*
X24934326Y57685911D01*
X24925755Y57672847D01*
X22984913Y55732004D01*
X22922603Y55697980D01*
X22895820Y55695100D01*
X22853592Y55695100D01*
X22691558Y55662869D01*
X22691557Y55662868D01*
X22538925Y55599645D01*
X22401558Y55507860D01*
X22401552Y55507855D01*
X22284745Y55391048D01*
X22284740Y55391042D01*
X22214432Y55285817D01*
X22192954Y55253673D01*
X22166768Y55190455D01*
X22129732Y55101043D01*
X22129731Y55101042D01*
X22097500Y54939008D01*
X22097500Y54787300D01*
X22077498Y54719179D01*
X22023842Y54672686D01*
X21971500Y54661300D01*
X18066363Y54661300D01*
X17998242Y54681302D01*
X17951749Y54734958D01*
X17942784Y54762718D01*
X17940051Y54776458D01*
X17919236Y54881102D01*
X17842610Y55066093D01*
X17786812Y55149601D01*
X17765598Y55217350D01*
X17784381Y55285817D01*
X17786793Y55289571D01*
X17842610Y55373107D01*
X17919236Y55558098D01*
X17958300Y55754484D01*
X17958300Y55954716D01*
X17919236Y56151102D01*
X17842610Y56336093D01*
X17786812Y56419601D01*
X17765598Y56487350D01*
X17784381Y56555817D01*
X17786793Y56559571D01*
X17842610Y56643107D01*
X17919236Y56828098D01*
X17958300Y57024484D01*
X17958300Y57224716D01*
X17919236Y57421102D01*
X17842610Y57606093D01*
X17786812Y57689601D01*
X17765598Y57757350D01*
X17784381Y57825817D01*
X17786793Y57829571D01*
X17842610Y57913107D01*
X17919236Y58098098D01*
X17958300Y58294484D01*
X17958300Y58494716D01*
X17919236Y58691102D01*
X17842610Y58876093D01*
X17786812Y58959601D01*
X17765598Y59027350D01*
X17784381Y59095817D01*
X17786793Y59099571D01*
X17842610Y59183107D01*
X17919236Y59368098D01*
X17958300Y59564484D01*
X17958300Y59764716D01*
X17919236Y59961102D01*
X17842610Y60146093D01*
X17731367Y60312581D01*
X17731365Y60312583D01*
X17731360Y60312589D01*
X17589788Y60454161D01*
X17589782Y60454166D01*
X17538547Y60488400D01*
X17423293Y60565410D01*
X17306639Y60613730D01*
X17238305Y60642035D01*
X17238302Y60642036D01*
X17041919Y60681100D01*
X17041916Y60681100D01*
X16841684Y60681100D01*
X16841680Y60681100D01*
X16645297Y60642036D01*
X16645294Y60642035D01*
X16460308Y60565411D01*
X16376801Y60509614D01*
X16309048Y60488400D01*
X16240581Y60507184D01*
X16236799Y60509614D01*
X16188510Y60541879D01*
X16153293Y60565410D01*
X16153291Y60565411D01*
X15968305Y60642035D01*
X15968302Y60642036D01*
X15771919Y60681100D01*
X15771916Y60681100D01*
X15571684Y60681100D01*
X15571680Y60681100D01*
X15375297Y60642036D01*
X15375294Y60642035D01*
X15190307Y60565410D01*
X15023817Y60454166D01*
X15023811Y60454161D01*
X14882239Y60312589D01*
X14882234Y60312583D01*
X14770990Y60146093D01*
X14694365Y59961106D01*
X14694364Y59961103D01*
X14655300Y59764720D01*
X14655300Y59564481D01*
X14694364Y59368098D01*
X14694365Y59368095D01*
X14770989Y59183109D01*
X14827086Y59099152D01*
X14848300Y59031399D01*
X14829516Y58962932D01*
X14827086Y58959151D01*
X14771433Y58875859D01*
X14771432Y58875857D01*
X14694846Y58690962D01*
X14694844Y58690957D01*
X14655800Y58494670D01*
X14655800Y58294531D01*
X14694844Y58098244D01*
X14694846Y58098239D01*
X14771434Y57913340D01*
X14795423Y57877437D01*
X15354300Y58436312D01*
X15354300Y58352800D01*
X15375937Y58272049D01*
X15417737Y58199650D01*
X15476850Y58140537D01*
X15549249Y58098737D01*
X15630000Y58077100D01*
X15713600Y58077100D01*
X15794351Y58098737D01*
X15866750Y58140537D01*
X15925863Y58199650D01*
X15939474Y58223225D01*
X15964364Y58098098D01*
X15964365Y58098095D01*
X15973170Y58076838D01*
X15980759Y58006248D01*
X15948980Y57942761D01*
X15887921Y57906534D01*
X15816970Y57909068D01*
X15767666Y57939525D01*
X15671801Y58035390D01*
X15671799Y58035390D01*
X15396010Y57759601D01*
X15671799Y57483812D01*
X15767665Y57579677D01*
X15829977Y57613702D01*
X15900793Y57608638D01*
X15957629Y57566091D01*
X15982440Y57499571D01*
X15973171Y57442367D01*
X15964366Y57421110D01*
X15964364Y57421103D01*
X15939473Y57295976D01*
X15925863Y57319550D01*
X15866750Y57378663D01*
X15794351Y57420463D01*
X15713600Y57442100D01*
X15630000Y57442100D01*
X15549249Y57420463D01*
X15476850Y57378663D01*
X15417737Y57319550D01*
X15375937Y57247151D01*
X15354300Y57166400D01*
X15354300Y57082890D01*
X14795423Y57641766D01*
X14771433Y57605858D01*
X14694846Y57420962D01*
X14694844Y57420957D01*
X14655800Y57224670D01*
X14655800Y57024531D01*
X14694844Y56828244D01*
X14694846Y56828239D01*
X14771432Y56643344D01*
X14827085Y56560053D01*
X14848300Y56492300D01*
X14829517Y56423833D01*
X14827086Y56420051D01*
X14770991Y56336097D01*
X14694365Y56151106D01*
X14694364Y56151103D01*
X14655300Y55954720D01*
X14655300Y55754481D01*
X14694364Y55558098D01*
X14694365Y55558095D01*
X14770989Y55373109D01*
X14827086Y55289152D01*
X14848300Y55221399D01*
X14829516Y55152932D01*
X14827086Y55149151D01*
X14771433Y55065859D01*
X14771432Y55065857D01*
X14694846Y54880962D01*
X14694844Y54880957D01*
X14655800Y54684670D01*
X14655800Y54484531D01*
X14694844Y54288244D01*
X14694846Y54288239D01*
X14771432Y54103344D01*
X14795424Y54067437D01*
X15354300Y54626312D01*
X15354300Y54542800D01*
X15375937Y54462049D01*
X15417737Y54389650D01*
X15476850Y54330537D01*
X15549249Y54288737D01*
X15630000Y54267100D01*
X15713508Y54267100D01*
X15154634Y53708227D01*
X15154635Y53708226D01*
X15190540Y53684234D01*
X15375438Y53607647D01*
X15379953Y53606277D01*
X15439337Y53567365D01*
X15468256Y53502525D01*
X15457529Y53432343D01*
X15410562Y53379102D01*
X15343384Y53359700D01*
X12294381Y53359700D01*
X12226260Y53379702D01*
X12205286Y53396605D01*
X11300605Y54301286D01*
X11266579Y54363598D01*
X11263700Y54390381D01*
X11263700Y54432604D01*
X11263699Y54432608D01*
X11257843Y54462049D01*
X11231469Y54594640D01*
X11168246Y54747273D01*
X11076461Y54884640D01*
X11076459Y54884642D01*
X11076454Y54884648D01*
X10959647Y55001455D01*
X10959641Y55001460D01*
X10934904Y55017989D01*
X10822273Y55093246D01*
X10669641Y55156469D01*
X10507607Y55188700D01*
X10507605Y55188700D01*
X10342395Y55188700D01*
X10342392Y55188700D01*
X10180358Y55156469D01*
X10180357Y55156468D01*
X10090945Y55119432D01*
X10046544Y55101040D01*
X10027725Y55093245D01*
X9890358Y55001460D01*
X9890352Y55001455D01*
X9773545Y54884648D01*
X9773540Y54884642D01*
X9701255Y54776458D01*
X9681754Y54747273D01*
X9664325Y54705195D01*
X9618532Y54594643D01*
X9618531Y54594642D01*
X9586300Y54432608D01*
X75500Y54432608D01*
X75500Y56482608D01*
X3736300Y56482608D01*
X3736300Y56317393D01*
X3765948Y56168346D01*
X3768531Y56155360D01*
X3831754Y56002727D01*
X3872208Y55942184D01*
X3923540Y55865359D01*
X3923545Y55865353D01*
X4040352Y55748546D01*
X4040358Y55748541D01*
X4040360Y55748539D01*
X4177727Y55656754D01*
X4330360Y55593531D01*
X4492395Y55561300D01*
X4492396Y55561300D01*
X4657604Y55561300D01*
X4657605Y55561300D01*
X4819640Y55593531D01*
X4972273Y55656754D01*
X5109640Y55748539D01*
X5226461Y55865360D01*
X5318246Y56002727D01*
X5381469Y56155360D01*
X5413700Y56317395D01*
X5413700Y56482605D01*
X5381469Y56644640D01*
X5318246Y56797273D01*
X5226461Y56934640D01*
X5226459Y56934642D01*
X5226454Y56934648D01*
X5109647Y57051455D01*
X5109641Y57051460D01*
X5100855Y57057331D01*
X4972273Y57143246D01*
X4819641Y57206469D01*
X4657607Y57238700D01*
X4657605Y57238700D01*
X4492395Y57238700D01*
X4492392Y57238700D01*
X4330358Y57206469D01*
X4330357Y57206468D01*
X4177725Y57143245D01*
X4040358Y57051460D01*
X4040352Y57051455D01*
X3923545Y56934648D01*
X3923540Y56934642D01*
X3831755Y56797275D01*
X3768532Y56644643D01*
X3768531Y56644642D01*
X3736300Y56482608D01*
X75500Y56482608D01*
X75500Y60257608D01*
X3761300Y60257608D01*
X3761300Y60092393D01*
X3784653Y59974991D01*
X3793531Y59930360D01*
X3856754Y59777727D01*
X3943070Y59648546D01*
X3948540Y59640359D01*
X3948545Y59640353D01*
X4065352Y59523546D01*
X4065358Y59523541D01*
X4065360Y59523539D01*
X4202727Y59431754D01*
X4355360Y59368531D01*
X4517395Y59336300D01*
X4517396Y59336300D01*
X4682604Y59336300D01*
X4682605Y59336300D01*
X4844640Y59368531D01*
X4997273Y59431754D01*
X5134640Y59523539D01*
X5251461Y59640360D01*
X5343246Y59777727D01*
X5406469Y59930360D01*
X5438700Y60092395D01*
X5438700Y60257605D01*
X5406469Y60419640D01*
X5343246Y60572273D01*
X5251461Y60709640D01*
X5251459Y60709642D01*
X5251454Y60709648D01*
X5134647Y60826455D01*
X5134641Y60826460D01*
X4997274Y60918245D01*
X4997275Y60918245D01*
X4997273Y60918246D01*
X4844641Y60981469D01*
X4682607Y61013700D01*
X4682605Y61013700D01*
X4517395Y61013700D01*
X4517392Y61013700D01*
X4355358Y60981469D01*
X4355357Y60981468D01*
X4202725Y60918245D01*
X4065358Y60826460D01*
X4065352Y60826455D01*
X3948545Y60709648D01*
X3948540Y60709642D01*
X3856755Y60572275D01*
X3793532Y60419643D01*
X3793531Y60419642D01*
X3761300Y60257608D01*
X75500Y60257608D01*
X75500Y61982608D01*
X25961300Y61982608D01*
X25961300Y61817393D01*
X25993531Y61655360D01*
X26056754Y61502727D01*
X26056755Y61502726D01*
X26148540Y61365359D01*
X26148545Y61365353D01*
X26265352Y61248546D01*
X26265358Y61248541D01*
X26265360Y61248539D01*
X26402727Y61156754D01*
X26555360Y61093531D01*
X26717395Y61061300D01*
X26717396Y61061300D01*
X26882604Y61061300D01*
X26882605Y61061300D01*
X27044640Y61093531D01*
X27197273Y61156754D01*
X27334640Y61248539D01*
X27451461Y61365360D01*
X27543246Y61502727D01*
X27606469Y61655360D01*
X27638700Y61817395D01*
X27638700Y61982605D01*
X27606469Y62144640D01*
X27543246Y62297273D01*
X27451461Y62434640D01*
X27451459Y62434642D01*
X27451454Y62434648D01*
X27334647Y62551455D01*
X27334641Y62551460D01*
X27197274Y62643245D01*
X27197275Y62643245D01*
X27197273Y62643246D01*
X27044641Y62706469D01*
X26882607Y62738700D01*
X26882605Y62738700D01*
X26717395Y62738700D01*
X26717392Y62738700D01*
X26555358Y62706469D01*
X26555357Y62706468D01*
X26465945Y62669432D01*
X26414183Y62647991D01*
X26402725Y62643245D01*
X26265358Y62551460D01*
X26265352Y62551455D01*
X26148545Y62434648D01*
X26148540Y62434642D01*
X26056755Y62297275D01*
X25993532Y62144643D01*
X25993531Y62144642D01*
X25961300Y61982608D01*
X75500Y61982608D01*
X75500Y63466916D01*
X46776500Y63466916D01*
X46776500Y63253084D01*
X46809951Y63041884D01*
X46809952Y63041879D01*
X46876026Y62838522D01*
X46876028Y62838517D01*
X46973106Y62647991D01*
X47098794Y62474996D01*
X47098796Y62474994D01*
X47098798Y62474991D01*
X47249990Y62323799D01*
X47249993Y62323797D01*
X47249996Y62323794D01*
X47350298Y62250921D01*
X47403955Y62211936D01*
X47447309Y62155714D01*
X47453384Y62084977D01*
X47420252Y62022186D01*
X47403955Y62008064D01*
X47249993Y61896204D01*
X47249990Y61896202D01*
X47098798Y61745010D01*
X47098796Y61745007D01*
X46973108Y61572013D01*
X46876029Y61381485D01*
X46876026Y61381479D01*
X46809952Y61178122D01*
X46809951Y61178117D01*
X46809951Y61178116D01*
X46776500Y60966916D01*
X46776500Y60753084D01*
X46809951Y60541884D01*
X46809952Y60541879D01*
X46861702Y60382608D01*
X46876028Y60338517D01*
X46973106Y60147991D01*
X47098794Y59974996D01*
X47098796Y59974994D01*
X47098798Y59974991D01*
X47229104Y59844685D01*
X47263130Y59782373D01*
X47258065Y59711558D01*
X47215518Y59654722D01*
X47206156Y59648349D01*
X47061347Y59559030D01*
X47061341Y59559025D01*
X46935975Y59433659D01*
X46935970Y59433653D01*
X46842885Y59282738D01*
X46787113Y59114428D01*
X46787112Y59114421D01*
X46776500Y59010554D01*
X46776500Y57709456D01*
X46787112Y57605575D01*
X46842885Y57437262D01*
X46935970Y57286348D01*
X46935975Y57286342D01*
X47061341Y57160976D01*
X47061347Y57160971D01*
X47061348Y57160970D01*
X47212262Y57067885D01*
X47380574Y57012113D01*
X47484455Y57001500D01*
X49035544Y57001501D01*
X49139426Y57012113D01*
X49139429Y57012114D01*
X49139431Y57012114D01*
X49258973Y57051726D01*
X49329928Y57054167D01*
X49390938Y57017859D01*
X49422633Y56954330D01*
X49422185Y56907541D01*
X49409500Y56843773D01*
X49409500Y56676231D01*
X49415784Y56644642D01*
X49432609Y56560053D01*
X49442185Y56511915D01*
X49452360Y56487350D01*
X49506297Y56357137D01*
X49506298Y56357136D01*
X49599373Y56217839D01*
X49599378Y56217833D01*
X49717832Y56099379D01*
X49717838Y56099374D01*
X49857137Y56006297D01*
X50011918Y55942184D01*
X50176233Y55909500D01*
X50176234Y55909500D01*
X50343766Y55909500D01*
X50343767Y55909500D01*
X50508082Y55942184D01*
X50662863Y56006297D01*
X50802162Y56099374D01*
X50920626Y56217838D01*
X51013703Y56357137D01*
X51077816Y56511918D01*
X51110500Y56676233D01*
X51110500Y56843767D01*
X51077816Y57008082D01*
X51013703Y57162863D01*
X50920626Y57302162D01*
X50920621Y57302168D01*
X50802167Y57420622D01*
X50802161Y57420627D01*
X50726382Y57471261D01*
X50662863Y57513703D01*
X50548983Y57560874D01*
X50508085Y57577815D01*
X50508083Y57577816D01*
X50508082Y57577816D01*
X50425368Y57594269D01*
X50343769Y57610500D01*
X50343767Y57610500D01*
X50176233Y57610500D01*
X50176230Y57610500D01*
X50011912Y57577815D01*
X49912615Y57536684D01*
X49842025Y57529095D01*
X49778538Y57560874D01*
X49742311Y57621933D01*
X49739050Y57665902D01*
X49739760Y57672847D01*
X49743500Y57709455D01*
X49743499Y59010544D01*
X49742878Y59016619D01*
X49732887Y59114426D01*
X49710128Y59183109D01*
X49677115Y59282738D01*
X49584030Y59433652D01*
X49584029Y59433653D01*
X49584024Y59433659D01*
X49458658Y59559025D01*
X49458652Y59559030D01*
X49326797Y59640359D01*
X49313842Y59648350D01*
X49266365Y59701135D01*
X49254962Y59771210D01*
X49283255Y59836326D01*
X49290884Y59844675D01*
X49421206Y59974996D01*
X49546894Y60147991D01*
X49643972Y60338517D01*
X49710049Y60541884D01*
X49743500Y60753084D01*
X49743500Y60966916D01*
X49710049Y61178116D01*
X49643972Y61381483D01*
X49546894Y61572009D01*
X49421206Y61745004D01*
X49421203Y61745007D01*
X49421201Y61745010D01*
X49270009Y61896202D01*
X49270006Y61896204D01*
X49270004Y61896206D01*
X49116043Y62008065D01*
X49072690Y62064286D01*
X49066615Y62135022D01*
X49099746Y62197814D01*
X49116044Y62211936D01*
X49270004Y62323794D01*
X49421206Y62474996D01*
X49546894Y62647991D01*
X49643972Y62838517D01*
X49710049Y63041884D01*
X49743500Y63253084D01*
X49743500Y63466916D01*
X49710049Y63678116D01*
X49643972Y63881483D01*
X49546894Y64072009D01*
X49421206Y64245004D01*
X49421203Y64245007D01*
X49421201Y64245010D01*
X49270009Y64396202D01*
X49270006Y64396204D01*
X49270005Y64396205D01*
X49270004Y64396206D01*
X49115618Y64508374D01*
X49072264Y64564596D01*
X49066189Y64635333D01*
X49099320Y64698124D01*
X49115618Y64712246D01*
X49269679Y64824179D01*
X49269682Y64824181D01*
X49420822Y64975321D01*
X49546463Y65148250D01*
X49643506Y65338708D01*
X49643509Y65338714D01*
X49709559Y65541996D01*
X49719698Y65606000D01*
X48661836Y65606000D01*
X48702630Y65676657D01*
X48735000Y65797465D01*
X48735000Y65922535D01*
X48702630Y66043343D01*
X48661836Y66114000D01*
X49719697Y66114000D01*
X49709559Y66178005D01*
X49643509Y66381287D01*
X49643506Y66381293D01*
X49546463Y66571751D01*
X49420822Y66744680D01*
X49269679Y66895823D01*
X49096750Y67021464D01*
X48906292Y67118507D01*
X48906286Y67118510D01*
X48703004Y67184560D01*
X48514000Y67214497D01*
X48514000Y66261837D01*
X48443343Y66302630D01*
X48322535Y66335000D01*
X48197465Y66335000D01*
X48076657Y66302630D01*
X48006000Y66261837D01*
X48006000Y67214497D01*
X47816995Y67184560D01*
X47613713Y67118510D01*
X47613707Y67118507D01*
X47423249Y67021464D01*
X47250320Y66895823D01*
X47099177Y66744680D01*
X46973536Y66571751D01*
X46876493Y66381293D01*
X46876490Y66381287D01*
X46810440Y66178005D01*
X46800302Y66114000D01*
X47858164Y66114000D01*
X47817370Y66043343D01*
X47785000Y65922535D01*
X47785000Y65797465D01*
X47817370Y65676657D01*
X47858164Y65606000D01*
X46800302Y65606000D01*
X46810440Y65541996D01*
X46876490Y65338714D01*
X46876493Y65338708D01*
X46973536Y65148250D01*
X47099177Y64975321D01*
X47250317Y64824181D01*
X47250320Y64824179D01*
X47404381Y64712246D01*
X47447735Y64656024D01*
X47453810Y64585287D01*
X47420678Y64522496D01*
X47404381Y64508374D01*
X47249993Y64396205D01*
X47098798Y64245010D01*
X47098796Y64245007D01*
X46973108Y64072013D01*
X46876029Y63881485D01*
X46876026Y63881479D01*
X46809952Y63678122D01*
X46809951Y63678117D01*
X46809951Y63678116D01*
X46776500Y63466916D01*
X75500Y63466916D01*
X75500Y65970208D01*
X37748900Y65970208D01*
X37748900Y65804993D01*
X37774428Y65676657D01*
X37781131Y65642960D01*
X37844354Y65490327D01*
X37844355Y65490326D01*
X37936140Y65352959D01*
X37936145Y65352953D01*
X38052952Y65236146D01*
X38052958Y65236141D01*
X38052960Y65236139D01*
X38190327Y65144354D01*
X38342960Y65081131D01*
X38504995Y65048900D01*
X38504996Y65048900D01*
X38670204Y65048900D01*
X38670205Y65048900D01*
X38832240Y65081131D01*
X38984873Y65144354D01*
X39122240Y65236139D01*
X39239061Y65352960D01*
X39330846Y65490327D01*
X39394069Y65642960D01*
X39426300Y65804995D01*
X39426300Y65970205D01*
X39394069Y66132240D01*
X39330846Y66284873D01*
X39239061Y66422240D01*
X39239059Y66422242D01*
X39239054Y66422248D01*
X39122247Y66539055D01*
X39122241Y66539060D01*
X39073316Y66571751D01*
X38984873Y66630846D01*
X38832241Y66694069D01*
X38670207Y66726300D01*
X38670205Y66726300D01*
X38504995Y66726300D01*
X38504992Y66726300D01*
X38342958Y66694069D01*
X38342957Y66694068D01*
X38190325Y66630845D01*
X38052958Y66539060D01*
X38052952Y66539055D01*
X37936145Y66422248D01*
X37936140Y66422242D01*
X37844355Y66284875D01*
X37781132Y66132243D01*
X37781131Y66132242D01*
X37748900Y65970208D01*
X75500Y65970208D01*
X75500Y67648918D01*
X23024500Y67648918D01*
X23024500Y67501082D01*
X23053342Y67356087D01*
X23109916Y67219505D01*
X23192049Y67096584D01*
X23296584Y66992049D01*
X23419505Y66909916D01*
X23556087Y66853342D01*
X23701082Y66824500D01*
X23701087Y66824500D01*
X23848913Y66824500D01*
X23848918Y66824500D01*
X23993913Y66853342D01*
X24130495Y66909916D01*
X24253416Y66992049D01*
X24357951Y67096584D01*
X24440084Y67219505D01*
X24496658Y67356087D01*
X24525500Y67501082D01*
X24525500Y67648918D01*
X27424500Y67648918D01*
X27424500Y67501082D01*
X27453342Y67356087D01*
X27509916Y67219505D01*
X27592049Y67096584D01*
X27696584Y66992049D01*
X27819505Y66909916D01*
X27956087Y66853342D01*
X28101082Y66824500D01*
X28101087Y66824500D01*
X28248913Y66824500D01*
X28248918Y66824500D01*
X28393913Y66853342D01*
X28530495Y66909916D01*
X28653416Y66992049D01*
X28757951Y67096584D01*
X28840084Y67219505D01*
X28896658Y67356087D01*
X28925500Y67501082D01*
X28925500Y67648918D01*
X28896658Y67793913D01*
X28840084Y67930495D01*
X28757951Y68053416D01*
X28653416Y68157951D01*
X28530495Y68240084D01*
X28500998Y68252302D01*
X28393916Y68296657D01*
X28393913Y68296658D01*
X28248918Y68325500D01*
X28101082Y68325500D01*
X28046356Y68314614D01*
X27956086Y68296658D01*
X27956083Y68296657D01*
X27819504Y68240084D01*
X27696588Y68157954D01*
X27696581Y68157949D01*
X27592051Y68053419D01*
X27592046Y68053412D01*
X27509916Y67930496D01*
X27453343Y67793917D01*
X27453342Y67793914D01*
X27444211Y67748011D01*
X27424500Y67648918D01*
X24525500Y67648918D01*
X24496658Y67793913D01*
X24440084Y67930495D01*
X24357951Y68053416D01*
X24253416Y68157951D01*
X24130495Y68240084D01*
X24100998Y68252302D01*
X23993916Y68296657D01*
X23993913Y68296658D01*
X23848918Y68325500D01*
X23701082Y68325500D01*
X23646356Y68314614D01*
X23556086Y68296658D01*
X23556083Y68296657D01*
X23419504Y68240084D01*
X23296588Y68157954D01*
X23296581Y68157949D01*
X23192051Y68053419D01*
X23192046Y68053412D01*
X23109916Y67930496D01*
X23053343Y67793917D01*
X23053342Y67793914D01*
X23044211Y67748011D01*
X23024500Y67648918D01*
X75500Y67648918D01*
X75500Y69206874D01*
X5367000Y69206874D01*
X5367000Y68993127D01*
X5400440Y68781997D01*
X5466490Y68578714D01*
X5466493Y68578708D01*
X5563535Y68388252D01*
X5563536Y68388250D01*
X5601620Y68335833D01*
X5601621Y68335832D01*
X6240841Y68975053D01*
X6259075Y68907007D01*
X6324901Y68792993D01*
X6417993Y68699901D01*
X6532007Y68634075D01*
X6600051Y68615843D01*
X5960831Y67976622D01*
X6013249Y67938537D01*
X6013251Y67938536D01*
X6203707Y67841494D01*
X6203713Y67841491D01*
X6406996Y67775441D01*
X6618126Y67742000D01*
X6831874Y67742000D01*
X7043003Y67775441D01*
X7246286Y67841491D01*
X7246292Y67841494D01*
X7436750Y67938537D01*
X7489167Y67976622D01*
X7489167Y67976624D01*
X6849948Y68615843D01*
X6917993Y68634075D01*
X7032007Y68699901D01*
X7125099Y68792993D01*
X7190925Y68907007D01*
X7209157Y68975052D01*
X7869595Y68314614D01*
X7903621Y68252302D01*
X7906500Y68225519D01*
X7906500Y68201351D01*
X7913009Y68140804D01*
X7913011Y68140796D01*
X7964110Y68003798D01*
X7964112Y68003793D01*
X8051738Y67886739D01*
X8168792Y67799113D01*
X8168794Y67799112D01*
X8168796Y67799111D01*
X8227875Y67777076D01*
X8305795Y67748012D01*
X8305803Y67748010D01*
X8366350Y67741501D01*
X8366355Y67741501D01*
X8366362Y67741500D01*
X8366368Y67741500D01*
X10163632Y67741500D01*
X10163638Y67741500D01*
X10163645Y67741501D01*
X10163649Y67741501D01*
X10224196Y67748010D01*
X10224199Y67748011D01*
X10224201Y67748011D01*
X10224204Y67748012D01*
X10291636Y67773163D01*
X10316846Y67782567D01*
X10361204Y67799111D01*
X10478261Y67886739D01*
X10565887Y68003793D01*
X10565887Y68003794D01*
X10565889Y68003796D01*
X10616989Y68140799D01*
X10618834Y68157954D01*
X10623499Y68201351D01*
X10623500Y68201368D01*
X10623500Y69998633D01*
X10623499Y69998650D01*
X10616990Y70059197D01*
X10616988Y70059205D01*
X10565889Y70196203D01*
X10565887Y70196208D01*
X10478261Y70313262D01*
X10361207Y70400888D01*
X10361202Y70400890D01*
X10224204Y70451989D01*
X10224196Y70451991D01*
X10163649Y70458500D01*
X10163638Y70458500D01*
X8366362Y70458500D01*
X8366350Y70458500D01*
X8305803Y70451991D01*
X8305795Y70451989D01*
X8168797Y70400890D01*
X8168792Y70400888D01*
X8051738Y70313262D01*
X7964112Y70196208D01*
X7964110Y70196203D01*
X7913011Y70059205D01*
X7913009Y70059197D01*
X7906500Y69998650D01*
X7906500Y69974482D01*
X7886498Y69906361D01*
X7869596Y69885387D01*
X7209157Y69224949D01*
X7190925Y69292993D01*
X7125099Y69407007D01*
X7032007Y69500099D01*
X6917993Y69565925D01*
X6849947Y69584159D01*
X7489168Y70223379D01*
X7489167Y70223380D01*
X7436750Y70261464D01*
X7436748Y70261465D01*
X7246292Y70358507D01*
X7246286Y70358510D01*
X7043003Y70424560D01*
X6831874Y70458000D01*
X6618126Y70458000D01*
X6406996Y70424560D01*
X6203713Y70358510D01*
X6203707Y70358507D01*
X6013253Y70261466D01*
X5960831Y70223379D01*
X5960831Y70223378D01*
X6600051Y69584158D01*
X6532007Y69565925D01*
X6417993Y69500099D01*
X6324901Y69407007D01*
X6259075Y69292993D01*
X6240842Y69224949D01*
X5601622Y69864169D01*
X5601621Y69864169D01*
X5563534Y69811747D01*
X5466493Y69621293D01*
X5466490Y69621287D01*
X5400440Y69418004D01*
X5367000Y69206874D01*
X75500Y69206874D01*
X75500Y71056195D01*
X75730Y71063802D01*
X76408Y71075018D01*
X93009Y71349469D01*
X94840Y71364546D01*
X145742Y71642310D01*
X149375Y71657050D01*
X233391Y71926667D01*
X238778Y71940868D01*
X354665Y72198360D01*
X361734Y72211828D01*
X507820Y72453486D01*
X516452Y72465991D01*
X690602Y72688277D01*
X700677Y72699649D01*
X900351Y72899323D01*
X911723Y72909398D01*
X1134009Y73083548D01*
X1146514Y73092180D01*
X1388175Y73238268D01*
X1401640Y73245335D01*
X1659132Y73361222D01*
X1673333Y73366609D01*
X1942950Y73450625D01*
X1957690Y73454258D01*
X2235454Y73505160D01*
X2250531Y73506991D01*
X2509703Y73522668D01*
X2536199Y73524270D01*
X2543806Y73524500D01*
X2564531Y73524500D01*
X50775469Y73524500D01*
X50796194Y73524500D01*
X50803801Y73524270D01*
G37*
%TD.AperFunction*%
%TD*%
M02*
