%TF.GenerationSoftware,KiCad,Pcbnew,10.0.2*%
%TF.CreationDate,2026-07-21T08:03:38-04:00*%
%TF.ProjectId,tag-breakout-l432-1v8-v1,7461672d-6272-4656-916b-6f75742d6c34,rev?*%
%TF.SameCoordinates,Original*%
%TF.FileFunction,Copper,L1,Top*%
%TF.FilePolarity,Positive*%
%FSLAX46Y46*%
G04 Gerber Fmt 4.6, Leading zero omitted, Abs format (unit mm)*
G04 Created by KiCad (PCBNEW 10.0.2) date 2026-07-21 08:03:38*
%MOMM*%
%LPD*%
G01*
G04 APERTURE LIST*
G04 Aperture macros list*
%AMRoundRect*
0 Rectangle with rounded corners*
0 $1 Rounding radius*
0 $2 $3 $4 $5 $6 $7 $8 $9 X,Y pos of 4 corners*
0 Add a 4 corners polygon primitive as box body*
4,1,4,$2,$3,$4,$5,$6,$7,$8,$9,$2,$3,0*
0 Add four circle primitives for the rounded corners*
1,1,$1+$1,$2,$3*
1,1,$1+$1,$4,$5*
1,1,$1+$1,$6,$7*
1,1,$1+$1,$8,$9*
0 Add four rect primitives between the rounded corners*
20,1,$1+$1,$2,$3,$4,$5,0*
20,1,$1+$1,$4,$5,$6,$7,0*
20,1,$1+$1,$6,$7,$8,$9,0*
20,1,$1+$1,$8,$9,$2,$3,0*%
G04 Aperture macros list end*
%TA.AperFunction,Conductor*%
%ADD10C,0.200000*%
%TD*%
%TA.AperFunction,ComponentPad*%
%ADD11C,1.016000*%
%TD*%
%TA.AperFunction,SMDPad,CuDef*%
%ADD12R,0.750000X1.000000*%
%TD*%
%TA.AperFunction,SMDPad,CuDef*%
%ADD13RoundRect,0.150000X0.150000X-0.512500X0.150000X0.512500X-0.150000X0.512500X-0.150000X-0.512500X0*%
%TD*%
%TA.AperFunction,SMDPad,CuDef*%
%ADD14RoundRect,0.140000X-0.140000X-0.170000X0.140000X-0.170000X0.140000X0.170000X-0.140000X0.170000X0*%
%TD*%
%TA.AperFunction,SMDPad,CuDef*%
%ADD15RoundRect,0.140000X0.140000X0.170000X-0.140000X0.170000X-0.140000X-0.170000X0.140000X-0.170000X0*%
%TD*%
%TA.AperFunction,SMDPad,CuDef*%
%ADD16RoundRect,0.135000X-0.135000X-0.185000X0.135000X-0.185000X0.135000X0.185000X-0.135000X0.185000X0*%
%TD*%
%TA.AperFunction,SMDPad,CuDef*%
%ADD17RoundRect,0.135000X-0.185000X0.135000X-0.185000X-0.135000X0.185000X-0.135000X0.185000X0.135000X0*%
%TD*%
%TA.AperFunction,SMDPad,CuDef*%
%ADD18RoundRect,0.140000X0.170000X-0.140000X0.170000X0.140000X-0.170000X0.140000X-0.170000X-0.140000X0*%
%TD*%
%TA.AperFunction,SMDPad,CuDef*%
%ADD19RoundRect,0.140000X-0.170000X0.140000X-0.170000X-0.140000X0.170000X-0.140000X0.170000X0.140000X0*%
%TD*%
%TA.AperFunction,ComponentPad*%
%ADD20R,1.700000X1.700000*%
%TD*%
%TA.AperFunction,ComponentPad*%
%ADD21C,1.700000*%
%TD*%
%TA.AperFunction,ComponentPad*%
%ADD22O,1.700000X1.700000*%
%TD*%
%TA.AperFunction,SMDPad,CuDef*%
%ADD23RoundRect,0.150000X-0.150000X0.587500X-0.150000X-0.587500X0.150000X-0.587500X0.150000X0.587500X0*%
%TD*%
%TA.AperFunction,SMDPad,CuDef*%
%ADD24R,0.800000X0.500000*%
%TD*%
%TA.AperFunction,SMDPad,CuDef*%
%ADD25RoundRect,0.243750X-0.456250X0.243750X-0.456250X-0.243750X0.456250X-0.243750X0.456250X0.243750X0*%
%TD*%
%TA.AperFunction,SMDPad,CuDef*%
%ADD26RoundRect,0.135000X0.185000X-0.135000X0.185000X0.135000X-0.185000X0.135000X-0.185000X-0.135000X0*%
%TD*%
%TA.AperFunction,ComponentPad*%
%ADD27RoundRect,0.250000X0.725000X-0.600000X0.725000X0.600000X-0.725000X0.600000X-0.725000X-0.600000X0*%
%TD*%
%TA.AperFunction,ComponentPad*%
%ADD28O,1.950000X1.700000*%
%TD*%
%TA.AperFunction,SMDPad,CuDef*%
%ADD29RoundRect,0.218750X-0.256250X0.218750X-0.256250X-0.218750X0.256250X-0.218750X0.256250X0.218750X0*%
%TD*%
%TA.AperFunction,SMDPad,CuDef*%
%ADD30RoundRect,0.125000X0.125000X0.875000X-0.125000X0.875000X-0.125000X-0.875000X0.125000X-0.875000X0*%
%TD*%
%TA.AperFunction,SMDPad,CuDef*%
%ADD31RoundRect,0.250000X0.750000X0.600000X-0.750000X0.600000X-0.750000X-0.600000X0.750000X-0.600000X0*%
%TD*%
%TA.AperFunction,SMDPad,CuDef*%
%ADD32RoundRect,0.087500X-0.087500X0.425000X-0.087500X-0.425000X0.087500X-0.425000X0.087500X0.425000X0*%
%TD*%
%TA.AperFunction,SMDPad,CuDef*%
%ADD33RoundRect,0.062500X0.375000X0.062500X-0.375000X0.062500X-0.375000X-0.062500X0.375000X-0.062500X0*%
%TD*%
%TA.AperFunction,SMDPad,CuDef*%
%ADD34RoundRect,0.062500X0.062500X0.375000X-0.062500X0.375000X-0.062500X-0.375000X0.062500X-0.375000X0*%
%TD*%
%TA.AperFunction,HeatsinkPad*%
%ADD35R,3.500000X3.500000*%
%TD*%
%TA.AperFunction,SMDPad,CuDef*%
%ADD36RoundRect,0.062500X-0.375000X-0.062500X0.375000X-0.062500X0.375000X0.062500X-0.375000X0.062500X0*%
%TD*%
%TA.AperFunction,SMDPad,CuDef*%
%ADD37RoundRect,0.062500X-0.062500X-0.375000X0.062500X-0.375000X0.062500X0.375000X-0.062500X0.375000X0*%
%TD*%
%TA.AperFunction,SMDPad,CuDef*%
%ADD38R,1.117600X0.762000*%
%TD*%
%TA.AperFunction,SMDPad,CuDef*%
%ADD39RoundRect,0.150000X-0.512500X-0.150000X0.512500X-0.150000X0.512500X0.150000X-0.512500X0.150000X0*%
%TD*%
%TA.AperFunction,SMDPad,CuDef*%
%ADD40RoundRect,0.150000X-0.150000X0.512500X-0.150000X-0.512500X0.150000X-0.512500X0.150000X0.512500X0*%
%TD*%
%TA.AperFunction,SMDPad,CuDef*%
%ADD41RoundRect,0.135000X0.135000X0.185000X-0.135000X0.185000X-0.135000X-0.185000X0.135000X-0.185000X0*%
%TD*%
%TA.AperFunction,SMDPad,CuDef*%
%ADD42RoundRect,0.093750X0.093750X-0.156250X0.093750X0.156250X-0.093750X0.156250X-0.093750X-0.156250X0*%
%TD*%
%TA.AperFunction,SMDPad,CuDef*%
%ADD43RoundRect,0.075000X0.075000X-0.250000X0.075000X0.250000X-0.075000X0.250000X-0.075000X-0.250000X0*%
%TD*%
%TA.AperFunction,ViaPad*%
%ADD44C,0.660400*%
%TD*%
%TA.AperFunction,Conductor*%
%ADD45C,0.152400*%
%TD*%
%TA.AperFunction,Conductor*%
%ADD46C,0.304800*%
%TD*%
G04 APERTURE END LIST*
%TO.N,+3V3*%
D10*
X31600000Y48100000D02*
X32600000Y48100000D01*
%TD*%
D11*
%TO.P,J102,1,Pin_1_1*%
%TO.N,+3V3*%
X15671800Y59664600D03*
%TO.P,J102,2,Pin_2_2*%
%TO.N,/SWDIO*%
X16941800Y59664600D03*
%TO.P,J102,3,Pin_3_3*%
%TO.N,GND*%
X15671800Y58394600D03*
%TO.P,J102,4,Pin_4_4*%
%TO.N,/SCLK*%
X16941800Y58394600D03*
%TO.P,J102,5,Pin_5_5*%
%TO.N,GND*%
X15671800Y57124600D03*
%TO.P,J102,6,Pin_6_6*%
%TO.N,unconnected-(J102-Pin_6-Pad6)*%
X16941800Y57124600D03*
%TO.P,J102,7,Pin_7_7*%
%TO.N,unconnected-(J102-Pin_7-Pad7)*%
X15671800Y55854600D03*
%TO.P,J102,8,Pin_8_8*%
%TO.N,unconnected-(J102-Pin_8-Pad8)*%
X16941800Y55854600D03*
%TO.P,J102,9,Pin_9_9*%
%TO.N,GND*%
X15671800Y54584600D03*
%TO.P,J102,10,Pin_10_10*%
%TO.N,/NRST*%
X16941800Y54584600D03*
%TD*%
D12*
%TO.P,U105,1,A_1*%
%TO.N,/boot0*%
X8350000Y61300000D03*
X8350000Y55300000D03*
%TO.P,U105,2,B_2*%
%TO.N,+3V3*%
X4600000Y61300000D03*
X4600000Y55300000D03*
%TD*%
D13*
%TO.P,U1,1,GND_1*%
%TO.N,GND*%
X36413500Y67791660D03*
%TO.P,U1,2,VO_2*%
%TO.N,+3V3*%
X38313500Y67791660D03*
%TO.P,U1,3,VI_3*%
%TO.N,VUSB*%
X37363500Y70066660D03*
%TD*%
D14*
%TO.P,C1,1*%
%TO.N,VUSB*%
X36962200Y71983600D03*
%TO.P,C1,2*%
%TO.N,GND*%
X37922200Y71983600D03*
%TD*%
%TO.P,C101,1*%
%TO.N,/NRST*%
X33731200Y56692800D03*
%TO.P,C101,2*%
%TO.N,GND*%
X34691200Y56692800D03*
%TD*%
D15*
%TO.P,C104,1*%
%TO.N,+3V3*%
X37922200Y65887600D03*
%TO.P,C104,2*%
%TO.N,GND*%
X36962200Y65887600D03*
%TD*%
D14*
%TO.P,C107,1*%
%TO.N,+3V3*%
X26827600Y61163200D03*
%TO.P,C107,2*%
%TO.N,GND*%
X27787600Y61163200D03*
%TD*%
D16*
%TO.P,R104,1*%
%TO.N,Net-(U5-PA10)*%
X21789200Y53670200D03*
%TO.P,R104,2*%
%TO.N,TAG_RESET*%
X22809200Y53670200D03*
%TD*%
D17*
%TO.P,R105,1*%
%TO.N,GND*%
X10425000Y56070000D03*
%TO.P,R105,2*%
%TO.N,/boot0*%
X10425000Y55050000D03*
%TD*%
D18*
%TO.P,C3,1*%
%TO.N,TAG_1V8*%
X27025600Y28600400D03*
%TO.P,C3,2*%
%TO.N,GND*%
X27025600Y29560400D03*
%TD*%
D15*
%TO.P,C5,1*%
%TO.N,/stm32/NRST*%
X25501600Y26670000D03*
%TO.P,C5,2*%
%TO.N,GND*%
X24541600Y26670000D03*
%TD*%
D19*
%TO.P,C6,1*%
%TO.N,TAG_1V8*%
X34721800Y23825200D03*
%TO.P,C6,2*%
%TO.N,GND*%
X34721800Y22865200D03*
%TD*%
%TO.P,C7,1*%
%TO.N,TAG_1V8*%
X21774600Y28693400D03*
%TO.P,C7,2*%
%TO.N,GND*%
X21774600Y27733400D03*
%TD*%
D15*
%TO.P,C9,1*%
%TO.N,TAG_1V8*%
X26489600Y25603200D03*
%TO.P,C9,2*%
%TO.N,GND*%
X25529600Y25603200D03*
%TD*%
D20*
%TO.P,J2,1,Pin_1_1*%
%TO.N,/UART_TX*%
X9265000Y69100000D03*
D21*
%TO.P,J2,2,Pin_2_2*%
%TO.N,GND*%
X6725000Y69100000D03*
%TD*%
D20*
%TO.P,J3,1,Pin_1_1*%
%TO.N,/stm32/PB4*%
X5207000Y48200000D03*
D22*
%TO.P,J3,2,Pin_2_2*%
%TO.N,/stm32/PB5*%
X4953000Y45660000D03*
%TO.P,J3,3,Pin_3_3*%
%TO.N,/stm32/rtc_scl*%
X5207000Y43120000D03*
%TO.P,J3,4,Pin_4_4*%
%TO.N,/stm32/rtc_sda*%
X4953000Y40580000D03*
%TO.P,J3,5,Pin_5_5*%
%TO.N,GND*%
X5207000Y38040000D03*
%TO.P,J3,6,Pin_6_6*%
X4953000Y35500000D03*
%TO.P,J3,7,Pin_7_7*%
%TO.N,TAG_1V8*%
X5207000Y32960000D03*
%TO.P,J3,8,Pin_8_8*%
%TO.N,/stm32/PA0*%
X4953000Y30420000D03*
%TO.P,J3,9,Pin_9_9*%
%TO.N,/stm32/PA1*%
X5207000Y27880000D03*
%TO.P,J3,10,Pin_10_10*%
%TO.N,/stm32/PA2*%
X4953000Y25340000D03*
%TO.P,J3,11,Pin_11_11*%
%TO.N,/stm32/PA3*%
X5207000Y22800000D03*
%TO.P,J3,12,Pin_12_12*%
%TO.N,/stm32/PA4*%
X4953000Y20260000D03*
%TO.P,J3,13,Pin_13_13*%
%TO.N,/stm32/PA5*%
X5207000Y17720000D03*
%TO.P,J3,14,Pin_14_14*%
%TO.N,/stm32/PA6*%
X4953000Y15180000D03*
%TO.P,J3,15,Pin_15_15*%
%TO.N,/stm32/PA7*%
X5207000Y12640000D03*
%TO.P,J3,16,Pin_16_16*%
%TO.N,/stm32/PB0*%
X4953000Y10100000D03*
%TO.P,J3,17,Pin_17_17*%
%TO.N,GND*%
X5207000Y7560000D03*
%TD*%
D23*
%TO.P,Q1,1,B_1*%
%TO.N,TAG_RESET*%
X23135400Y51917600D03*
%TO.P,Q1,2,E_2*%
%TO.N,GND*%
X21235400Y51917600D03*
%TO.P,Q1,3,C_3*%
%TO.N,/stm32/NRST*%
X22185400Y50042600D03*
%TD*%
D24*
%TO.P,U6,1,CLKOUT_1*%
%TO.N,/stm32/clkout*%
X24136800Y27945800D03*
%TO.P,U6,2,~{INT}_2*%
%TO.N,unconnected-(U6-~{INT}-Pad2)*%
X24136800Y28845800D03*
%TO.P,U6,3,SCL_3*%
%TO.N,/stm32/rtc_scl*%
X24136800Y29745800D03*
%TO.P,U6,4,SDA_4*%
%TO.N,/stm32/rtc_sda*%
X24136800Y30645800D03*
%TO.P,U6,5,GND_5*%
%TO.N,GND*%
X22936800Y30645800D03*
%TO.P,U6,6,VBACK_6*%
%TO.N,/stm32/VBACK*%
X22936800Y29745800D03*
%TO.P,U6,7,VDD_7*%
%TO.N,TAG_1V8*%
X22936800Y28845800D03*
%TO.P,U6,8,EVI_8*%
%TO.N,GND*%
X22936800Y27945800D03*
%TD*%
D20*
%TO.P,J4,1,Pin_1_1*%
%TO.N,TAG_1V8*%
X48387000Y48200000D03*
D22*
%TO.P,J4,2,Pin_2_2*%
%TO.N,/stm32/PB3*%
X48133000Y45660000D03*
%TO.P,J4,3,Pin_3_3*%
%TO.N,/stm32/PA15*%
X48387000Y43120000D03*
%TO.P,J4,4,Pin_4_4*%
%TO.N,/stm32/PA12*%
X48133000Y40580000D03*
%TO.P,J4,5,Pin_5_5*%
%TO.N,/stm32/PA11*%
X48387000Y38040000D03*
%TO.P,J4,6,Pin_6_6*%
%TO.N,/stm32/PA10*%
X48133000Y35500000D03*
%TO.P,J4,7,Pin_7_7*%
%TO.N,/stm32/PA9*%
X48387000Y32960000D03*
%TO.P,J4,8,Pin_8_8*%
%TO.N,/stm32/PA8*%
X48133000Y30420000D03*
%TO.P,J4,9,Pin_9_9*%
%TO.N,GND*%
X48387000Y27880000D03*
%TO.P,J4,10,Pin_10_10*%
X48133000Y25340000D03*
%TO.P,J4,11,Pin_11_11*%
X48387000Y22800000D03*
%TO.P,J4,12,Pin_12_12*%
X48133000Y20260000D03*
%TO.P,J4,13,Pin_13_13*%
X48387000Y17720000D03*
%TO.P,J4,14,Pin_14_14*%
X48133000Y15180000D03*
%TO.P,J4,15,Pin_15_15*%
X48387000Y12640000D03*
%TO.P,J4,16,Pin_16_16*%
%TO.N,/stm32/PB1*%
X48133000Y10100000D03*
%TO.P,J4,17,Pin_17_17*%
%TO.N,GND*%
X48387000Y7560000D03*
%TD*%
D25*
%TO.P,D1,1,K_1*%
%TO.N,Net-(D1-K)*%
X34039400Y69314200D03*
%TO.P,D1,2,A_2*%
%TO.N,/LED_GREEN*%
X34039400Y67439200D03*
%TD*%
D26*
%TO.P,R1,1*%
%TO.N,Net-(D1-K)*%
X34061400Y70635400D03*
%TO.P,R1,2*%
%TO.N,GND*%
X34061400Y71655400D03*
%TD*%
D27*
%TO.P,J1,1,Pin_1_1*%
%TO.N,PWR_IN_MIRROR*%
X48260000Y58360000D03*
D28*
%TO.P,J1,2,Pin_2_2*%
%TO.N,PWR_IN*%
X48260000Y60860000D03*
%TO.P,J1,3,Pin_3_3*%
%TO.N,AUX_PWR*%
X48260000Y63360000D03*
%TO.P,J1,4,Pin_4_4*%
%TO.N,GND*%
X48260000Y65860000D03*
%TD*%
D29*
%TO.P,D105,1,K_1*%
%TO.N,Net-(D105-K)*%
X17221200Y69164200D03*
%TO.P,D105,2,A_2*%
%TO.N,VUSB*%
X17221200Y67589200D03*
%TD*%
D14*
%TO.P,C11,1*%
%TO.N,+3V3*%
X33756600Y57937400D03*
%TO.P,C11,2*%
%TO.N,GND*%
X34716600Y57937400D03*
%TD*%
%TO.P,C2,1*%
%TO.N,+3V3*%
X33754000Y55651400D03*
%TO.P,C2,2*%
%TO.N,GND*%
X34714000Y55651400D03*
%TD*%
D17*
%TO.P,R3,1*%
%TO.N,GND*%
X21800000Y30700000D03*
%TO.P,R3,2*%
%TO.N,/stm32/VBACK*%
X21800000Y29680000D03*
%TD*%
D30*
%TO.P,J104,1,VBUS_1*%
%TO.N,VUSB*%
X27575000Y64875000D03*
%TO.P,J104,2,D-_2*%
%TO.N,/DM*%
X26775000Y64875000D03*
%TO.P,J104,3,D+_3*%
%TO.N,/DP*%
X25975000Y64875000D03*
%TO.P,J104,4,ID_4*%
%TO.N,GND*%
X25175000Y64875000D03*
%TO.P,J104,5,GND_5*%
X24375000Y64875000D03*
D31*
%TO.P,J104,SH,Shield_SH*%
X30425000Y64975000D03*
X30425000Y70425000D03*
X21525000Y64975000D03*
X21525000Y70425000D03*
%TD*%
D19*
%TO.P,C103,1*%
%TO.N,+1V8*%
X27305000Y45209400D03*
%TO.P,C103,2*%
%TO.N,GND*%
X27305000Y44249400D03*
%TD*%
%TO.P,C108,1*%
%TO.N,TAG_3V3*%
X34500000Y45180000D03*
%TO.P,C108,2*%
%TO.N,GND*%
X34500000Y44220000D03*
%TD*%
D17*
%TO.P,R2,1*%
%TO.N,Net-(U5-PB5)*%
X29200000Y53700000D03*
%TO.P,R2,2*%
%TO.N,Net-(U5-PB4)*%
X29200000Y52680000D03*
%TD*%
D32*
%TO.P,U8,1,VCCA_1*%
%TO.N,+3V3*%
X31445200Y48004600D03*
%TO.P,U8,2,GND_2*%
%TO.N,GND*%
X30795200Y48004600D03*
%TO.P,U8,3,A_3*%
%TO.N,Net-(U5-PB4)*%
X30145200Y48004600D03*
%TO.P,U8,4,B_4*%
%TO.N,Net-(U8-B)*%
X30145200Y46329600D03*
%TO.P,U8,5,DIR_5*%
%TO.N,Net-(U5-PA15)*%
X30795200Y46329600D03*
%TO.P,U8,6,VCCB_6*%
%TO.N,+1V8*%
X31445200Y46329600D03*
%TD*%
D19*
%TO.P,C109,1*%
%TO.N,+1V8*%
X31470600Y45130600D03*
%TO.P,C109,2*%
%TO.N,GND*%
X31470600Y44170600D03*
%TD*%
D33*
%TO.P,U5,1,VDD_1*%
%TO.N,+3V3*%
X31798200Y55707400D03*
%TO.P,U5,2,PC14_2*%
%TO.N,unconnected-(U5-PC14-Pad2)*%
X31798200Y56207400D03*
%TO.P,U5,3,PC15_3*%
%TO.N,unconnected-(U5-PC15-Pad3)*%
X31798200Y56707400D03*
%TO.P,U5,4,~{NRST}_4*%
%TO.N,/NRST*%
X31798200Y57207400D03*
%TO.P,U5,5,VDDA/VREF+_5*%
%TO.N,+3V3*%
X31798200Y57707400D03*
%TO.P,U5,6,PA0_6*%
%TO.N,unconnected-(U5-PA0-Pad6)*%
X31798200Y58207400D03*
%TO.P,U5,7,PA1_7*%
%TO.N,/en1.8v*%
X31798200Y58707400D03*
%TO.P,U5,8,PA2_8*%
%TO.N,Net-(U5-PA2)*%
X31798200Y59207400D03*
D34*
%TO.P,U5,9,PA3_9*%
%TO.N,/LED_GREEN*%
X31110700Y59894900D03*
%TO.P,U5,10,PA4_10*%
%TO.N,unconnected-(U5-PA4-Pad10)*%
X30610700Y59894900D03*
%TO.P,U5,11,PA5_11*%
%TO.N,unconnected-(U5-PA5-Pad11)*%
X30110700Y59894900D03*
%TO.P,U5,12,PA6_12*%
%TO.N,unconnected-(U5-PA6-Pad12)*%
X29610700Y59894900D03*
%TO.P,U5,13,PA7_13*%
%TO.N,unconnected-(U5-PA7-Pad13)*%
X29110700Y59894900D03*
%TO.P,U5,14,PB0_14*%
%TO.N,unconnected-(U5-PB0-Pad14)*%
X28610700Y59894900D03*
%TO.P,U5,15,PB1_15*%
%TO.N,unconnected-(U5-PB1-Pad15)*%
X28110700Y59894900D03*
%TO.P,U5,16,VSS_16*%
%TO.N,GND*%
X27610700Y59894900D03*
D33*
%TO.P,U5,17,VDD_17*%
%TO.N,+3V3*%
X26923200Y59207400D03*
%TO.P,U5,18,PA8_18*%
%TO.N,unconnected-(U5-PA8-Pad18)*%
X26923200Y58707400D03*
%TO.P,U5,19,PA9_19*%
%TO.N,/UART_TX*%
X26923200Y58207400D03*
%TO.P,U5,20,PA10_20*%
%TO.N,Net-(U5-PA10)*%
X26923200Y57707400D03*
%TO.P,U5,21,PA11_21*%
%TO.N,/USB_DM*%
X26923200Y57207400D03*
%TO.P,U5,22,PA12_22*%
%TO.N,/USB_DP*%
X26923200Y56707400D03*
%TO.P,U5,23,PA13_23*%
%TO.N,/SWDIO*%
X26923200Y56207400D03*
%TO.P,U5,24,PA14_24*%
%TO.N,/SCLK*%
X26923200Y55707400D03*
D34*
%TO.P,U5,25,PA15_25*%
%TO.N,Net-(U5-PA15)*%
X27610700Y55019900D03*
%TO.P,U5,26,PB3_26*%
%TO.N,Net-(U5-PB3)*%
X28110700Y55019900D03*
%TO.P,U5,27,PB4_27*%
%TO.N,Net-(U5-PB4)*%
X28610700Y55019900D03*
%TO.P,U5,28,PB5_28*%
%TO.N,Net-(U5-PB5)*%
X29110700Y55019900D03*
%TO.P,U5,29,PB6_29*%
%TO.N,unconnected-(U5-PB6-Pad29)*%
X29610700Y55019900D03*
%TO.P,U5,30,PB7_30*%
%TO.N,unconnected-(U5-PB7-Pad30)*%
X30110700Y55019900D03*
%TO.P,U5,31,BOOT0_31*%
%TO.N,/boot0*%
X30610700Y55019900D03*
%TO.P,U5,32,VSS_32*%
%TO.N,GND*%
X31110700Y55019900D03*
D35*
%TO.P,U5,33,GND_33*%
X29360700Y57457400D03*
%TD*%
D15*
%TO.P,C105,1*%
%TO.N,+1V8*%
X38926000Y48739800D03*
%TO.P,C105,2*%
%TO.N,GND*%
X37966000Y48739800D03*
%TD*%
D36*
%TO.P,U3,1,VDD_1*%
%TO.N,TAG_1V8*%
X28417500Y27495000D03*
%TO.P,U3,2,PC14_2*%
%TO.N,/stm32/clkout*%
X28417500Y26995000D03*
%TO.P,U3,3,PC15_3*%
%TO.N,unconnected-(U3-PC15-Pad3)*%
X28417500Y26495000D03*
%TO.P,U3,4,~{NRST}_4*%
%TO.N,/stm32/NRST*%
X28417500Y25995000D03*
%TO.P,U3,5,VDDA/VREF+_5*%
%TO.N,TAG_1V8*%
X28417500Y25495000D03*
%TO.P,U3,6,PA0_6*%
%TO.N,/stm32/PA0*%
X28417500Y24995000D03*
%TO.P,U3,7,PA1_7*%
%TO.N,/stm32/PA1*%
X28417500Y24495000D03*
%TO.P,U3,8,PA2_8*%
%TO.N,/stm32/PA2*%
X28417500Y23995000D03*
D37*
%TO.P,U3,9,PA3_9*%
%TO.N,/stm32/PA3*%
X29105000Y23307500D03*
%TO.P,U3,10,PA4_10*%
%TO.N,/stm32/PA4*%
X29605000Y23307500D03*
%TO.P,U3,11,PA5_11*%
%TO.N,/stm32/PA5*%
X30105000Y23307500D03*
%TO.P,U3,12,PA6_12*%
%TO.N,/stm32/PA6*%
X30605000Y23307500D03*
%TO.P,U3,13,PA7_13*%
%TO.N,/stm32/PA7*%
X31105000Y23307500D03*
%TO.P,U3,14,PB0_14*%
%TO.N,/stm32/PB0*%
X31605000Y23307500D03*
%TO.P,U3,15,PB1_15*%
%TO.N,/stm32/PB1*%
X32105000Y23307500D03*
%TO.P,U3,16,VSS_16*%
%TO.N,GND*%
X32605000Y23307500D03*
D36*
%TO.P,U3,17,VDD_17*%
%TO.N,TAG_1V8*%
X33292500Y23995000D03*
%TO.P,U3,18,PA8_18*%
%TO.N,/stm32/PA8*%
X33292500Y24495000D03*
%TO.P,U3,19,PA9_19*%
%TO.N,/stm32/PA9*%
X33292500Y24995000D03*
%TO.P,U3,20,PA10_20*%
%TO.N,/stm32/PA10*%
X33292500Y25495000D03*
%TO.P,U3,21,PA11_21*%
%TO.N,/stm32/PA11*%
X33292500Y25995000D03*
%TO.P,U3,22,PA12_22*%
%TO.N,/stm32/PA12*%
X33292500Y26495000D03*
%TO.P,U3,23,PA13_23*%
%TO.N,TAG_SWDIO*%
X33292500Y26995000D03*
%TO.P,U3,24,PA14_24*%
%TO.N,TAG_SCK*%
X33292500Y27495000D03*
D37*
%TO.P,U3,25,PA15_25*%
%TO.N,/stm32/PA15*%
X32605000Y28182500D03*
%TO.P,U3,26,PB3_26*%
%TO.N,/stm32/PB3*%
X32105000Y28182500D03*
%TO.P,U3,27,PB4_27*%
%TO.N,/stm32/PB4*%
X31605000Y28182500D03*
%TO.P,U3,28,PB5_28*%
%TO.N,/stm32/PB5*%
X31105000Y28182500D03*
%TO.P,U3,29,PB6_29*%
%TO.N,/stm32/rtc_sda*%
X30605000Y28182500D03*
%TO.P,U3,30,PB7_30*%
%TO.N,/stm32/rtc_scl*%
X30105000Y28182500D03*
%TO.P,U3,31,BOOT0_31*%
%TO.N,GND*%
X29605000Y28182500D03*
%TO.P,U3,32,VSS_32*%
X29105000Y28182500D03*
D35*
%TO.P,U3,33,GND_33*%
X30855000Y25745000D03*
%TD*%
D19*
%TO.P,C106,1*%
%TO.N,TAG_1V8*%
X40300000Y45180000D03*
%TO.P,C106,2*%
%TO.N,GND*%
X40300000Y44220000D03*
%TD*%
D17*
%TO.P,R107,1*%
%TO.N,Net-(D105-K)*%
X15500000Y68900000D03*
%TO.P,R107,2*%
%TO.N,GND*%
X15500000Y67880000D03*
%TD*%
D38*
%TO.P,SW1,1,A_1*%
%TO.N,PWR_IN*%
X43125000Y58624996D03*
%TO.P,SW1,2,B_2*%
%TO.N,TAG_3V3*%
X39340400Y60374998D03*
%TO.P,SW1,3,C_3*%
%TO.N,+3V3*%
X43125000Y62125000D03*
%TD*%
D39*
%TO.P,U11,1,IN_1*%
%TO.N,TAG_3V3*%
X36325000Y45200000D03*
%TO.P,U11,2,GND_2*%
%TO.N,GND*%
X36325000Y44250000D03*
%TO.P,U11,3,EN_3*%
%TO.N,TAG_3V3*%
X36325000Y43300000D03*
%TO.P,U11,4,NC_4*%
%TO.N,unconnected-(U11-NC-Pad4)*%
X38600000Y43300000D03*
%TO.P,U11,5,OUT_5*%
%TO.N,TAG_1V8*%
X38600000Y45200000D03*
%TD*%
D17*
%TO.P,R106,1*%
%TO.N,Net-(U8-B)*%
X30200000Y45160000D03*
%TO.P,R106,2*%
%TO.N,TAG_SWDIO*%
X30200000Y44140000D03*
%TD*%
D40*
%TO.P,U10,1,VIN_1*%
%TO.N,+3V3*%
X38766000Y52501300D03*
%TO.P,U10,2,GND_2*%
%TO.N,GND*%
X37816000Y52501300D03*
%TO.P,U10,3,EN_3*%
%TO.N,/en1.8v*%
X36866000Y52501300D03*
%TO.P,U10,4,NC_4*%
%TO.N,unconnected-(U10-NC-Pad4)*%
X36866000Y50226300D03*
%TO.P,U10,5,VOUT_5*%
%TO.N,+1V8*%
X38766000Y50226300D03*
%TD*%
D19*
%TO.P,C110,1*%
%TO.N,+3V3*%
X28400000Y47660000D03*
%TO.P,C110,2*%
%TO.N,GND*%
X28400000Y46700000D03*
%TD*%
%TO.P,C102,1*%
%TO.N,VUSB*%
X22656800Y61031000D03*
%TO.P,C102,2*%
%TO.N,GND*%
X22656800Y60071000D03*
%TD*%
D32*
%TO.P,U7,1,VCCA_1*%
%TO.N,+3V3*%
X27233400Y48042293D03*
%TO.P,U7,2,GND_2*%
%TO.N,GND*%
X26583400Y48042293D03*
%TO.P,U7,3,A_3*%
%TO.N,Net-(U5-PB3)*%
X25933400Y48042293D03*
%TO.P,U7,4,B_4*%
%TO.N,TAG_SCK*%
X25933400Y46367293D03*
%TO.P,U7,5,DIR_5*%
%TO.N,+3V3*%
X26583400Y46367293D03*
%TO.P,U7,6,VCCB_6*%
%TO.N,+1V8*%
X27233400Y46367293D03*
%TD*%
D41*
%TO.P,R108,1*%
%TO.N,AUX_PWR*%
X34665000Y59455000D03*
%TO.P,R108,2*%
%TO.N,Net-(U5-PA2)*%
X33645000Y59455000D03*
%TD*%
D42*
%TO.P,U4,1,I/O1_1*%
%TO.N,/USB_DP*%
X23977600Y59768000D03*
D43*
%TO.P,U4,2,GND_2*%
%TO.N,GND*%
X24515100Y59693000D03*
D42*
%TO.P,U4,3,I/O2_3*%
%TO.N,/USB_DM*%
X25052600Y59768000D03*
%TO.P,U4,4,I/O2_4*%
%TO.N,/DM*%
X25052600Y61468000D03*
D43*
%TO.P,U4,5,VBUS_5*%
%TO.N,VUSB*%
X24515100Y61543000D03*
D42*
%TO.P,U4,6,I/O1_6*%
%TO.N,/DP*%
X23977600Y61468000D03*
%TD*%
D15*
%TO.P,C12,1*%
%TO.N,+3V3*%
X38700000Y54150000D03*
%TO.P,C12,2*%
%TO.N,GND*%
X37740000Y54150000D03*
%TD*%
D19*
%TO.P,C111,1*%
%TO.N,+3V3*%
X32600000Y48100000D03*
%TO.P,C111,2*%
%TO.N,GND*%
X32600000Y47140000D03*
%TD*%
D44*
%TO.N,+3V3*%
X32700000Y48900000D03*
X28400000Y48400000D03*
X4600000Y60175000D03*
X38587600Y65887600D03*
X39995300Y52501300D03*
X4575000Y56400000D03*
X33045400Y58140600D03*
X34137600Y54787800D03*
X26800000Y61900000D03*
%TO.N,GND*%
X38836600Y71526400D03*
X20800000Y35400000D03*
X22968400Y27271000D03*
X35356800Y56743600D03*
X17000000Y53500000D03*
X25300000Y29500000D03*
X36398200Y65836800D03*
X35700000Y33600000D03*
X34500000Y43500000D03*
X24200000Y63200000D03*
X32080200Y44170600D03*
X28016200Y44272200D03*
X25100000Y63300000D03*
X15595600Y67106800D03*
X30759400Y49149000D03*
X36998200Y54150000D03*
X24866600Y25628600D03*
X27323835Y29543600D03*
X33300000Y34900000D03*
X35000000Y36150000D03*
X27900000Y50600000D03*
X29750000Y26850000D03*
X18000000Y57800000D03*
X34112200Y72491600D03*
X29438600Y58445400D03*
X28309050Y58509050D03*
X24600000Y36700000D03*
X35382200Y57937400D03*
X31950000Y24650000D03*
X29309050Y57509050D03*
X32300000Y33400000D03*
X29413200Y56718200D03*
X35280600Y55651400D03*
X10400000Y56725000D03*
X21800000Y55100000D03*
X18000000Y59100000D03*
X28575000Y61137800D03*
X19989800Y51943000D03*
X31100000Y26000000D03*
X24800000Y60600000D03*
X33400000Y23043600D03*
X20700000Y61200000D03*
X29400000Y29150000D03*
X37406434Y48636366D03*
X36118800Y66675000D03*
X22943000Y31182600D03*
X26670000Y49276000D03*
X32400000Y46500000D03*
X40300000Y43500000D03*
X28400000Y46100000D03*
%TO.N,/NRST*%
X32918400Y56819800D03*
%TO.N,/boot0*%
X10425000Y54350000D03*
X30375000Y54125000D03*
%TO.N,Net-(U5-PA10)*%
X25800000Y57863800D03*
X22936200Y54856400D03*
%TO.N,TAG_1V8*%
X27405000Y25651400D03*
X27500000Y27758200D03*
X39000000Y46025000D03*
X21099200Y28693400D03*
X35433000Y23926800D03*
%TO.N,/stm32/NRST*%
X25746200Y36608200D03*
X25500000Y27500000D03*
%TO.N,/UART_TX*%
X20700000Y60300000D03*
X25848088Y58700000D03*
%TO.N,/stm32/rtc_scl*%
X22100000Y35000000D03*
X25200000Y30400000D03*
%TO.N,/stm32/PB3*%
X34600000Y34600000D03*
X32387078Y32503373D03*
%TO.N,/stm32/PA15*%
X34700000Y33700000D03*
X32600000Y31600000D03*
%TO.N,+1V8*%
X27990600Y45209400D03*
X32169400Y45130600D03*
%TO.N,Net-(U5-PB4)*%
X30145200Y49804800D03*
%TO.N,Net-(U5-PA15)*%
X28450000Y51900000D03*
X29275000Y49000000D03*
X27454300Y54100000D03*
%TO.N,Net-(U5-PB3)*%
X25900000Y50100000D03*
%TO.N,TAG_SWDIO*%
X30275000Y41150000D03*
%TO.N,TAG_SCK*%
X33292500Y30225000D03*
%TD*%
%TO.N,+3V3*%
D45*
X32893000Y57707400D02*
X33526600Y57707400D01*
X34137600Y55267800D02*
X33754000Y55651400D01*
D46*
X43125000Y62125000D02*
X43125000Y64350000D01*
D45*
X32600000Y48800000D02*
X32700000Y48900000D01*
X26827600Y61163200D02*
X26827600Y61872400D01*
X38313500Y67791660D02*
X38313500Y66278900D01*
X32600000Y48100000D02*
X32600000Y48800000D01*
X38587600Y65887600D02*
X38600000Y65900000D01*
X4600000Y61300000D02*
X4600000Y60175000D01*
X38700000Y54150000D02*
X38700000Y52567300D01*
X38558040Y68036200D02*
X38313500Y67791660D01*
X39995300Y52501300D02*
X40003000Y52509000D01*
X27233400Y47329251D02*
X26583400Y46679251D01*
X4600000Y55300000D02*
X4600000Y56375000D01*
X33756600Y57937400D02*
X33248600Y57937400D01*
X28017707Y48042293D02*
X28400000Y47660000D01*
X26889937Y59240663D02*
X26923200Y59207400D01*
X31798200Y55707400D02*
X33698000Y55707400D01*
X26583400Y46679251D02*
X26583400Y46367293D01*
X33248600Y57937400D02*
X33045400Y58140600D01*
X33526600Y57707400D02*
X33756600Y57937400D01*
X31798200Y57707400D02*
X32893000Y57707400D01*
X27233400Y48042293D02*
X27233400Y47329251D01*
X33698000Y55707400D02*
X33754000Y55651400D01*
X26827600Y61163200D02*
X26827600Y59303000D01*
X38766000Y52501300D02*
X38766000Y52249222D01*
X27233400Y48042293D02*
X28017707Y48042293D01*
X38700000Y52567300D02*
X38766000Y52501300D01*
X34137600Y54787800D02*
X34137600Y55267800D01*
D46*
X43125000Y64350000D02*
X39683340Y67791660D01*
D45*
X4600000Y56375000D02*
X4575000Y56400000D01*
X38766000Y52501300D02*
X39995300Y52501300D01*
X38313500Y66278900D02*
X37922200Y65887600D01*
X28400000Y47660000D02*
X28400000Y48400000D01*
X26827600Y61872400D02*
X26800000Y61900000D01*
X37922200Y65887600D02*
X38587600Y65887600D01*
D46*
X39683340Y67791660D02*
X38313500Y67791660D01*
X38220160Y68122500D02*
X38213500Y68129160D01*
%TO.N,/SWDIO*%
D45*
X16941800Y59664600D02*
X20066000Y59664600D01*
X23523200Y56207400D02*
X26923200Y56207400D01*
X20066000Y59664600D02*
X23523200Y56207400D01*
%TO.N,GND*%
X27610700Y60986300D02*
X27610700Y59894900D01*
X34500000Y44220000D02*
X34500000Y43500000D01*
X26583400Y49189400D02*
X26670000Y49276000D01*
X34691200Y56692800D02*
X35306000Y56692800D01*
X37740000Y52577300D02*
X37816000Y52501300D01*
X29360700Y57457400D02*
X29360700Y56770700D01*
X30835600Y49225200D02*
X30759400Y49149000D01*
X24541600Y26670000D02*
X24541600Y25953600D01*
X27025600Y29560400D02*
X27108800Y29643600D01*
X27787600Y61163200D02*
X28549600Y61163200D01*
X22936800Y27302600D02*
X22968400Y27271000D01*
X29605000Y28182500D02*
X29605000Y28945000D01*
X31470600Y44170600D02*
X32080200Y44170600D01*
X24286499Y60246600D02*
X24515100Y60017999D01*
X25529600Y25603200D02*
X24892000Y25603200D01*
X34061400Y71655400D02*
X34061400Y72440800D01*
X21800000Y30700000D02*
X22882600Y30700000D01*
X35306000Y56692800D02*
X35356800Y56743600D01*
X22656800Y60071000D02*
X22832400Y60246600D01*
X27993400Y44249400D02*
X28016200Y44272200D01*
X32605000Y23307500D02*
X32605000Y23995000D01*
X25235000Y63435000D02*
X25100000Y63300000D01*
X20015200Y51917600D02*
X19989800Y51943000D01*
X22882600Y31122200D02*
X22943000Y31182600D01*
X29105000Y27495000D02*
X30855000Y25745000D01*
X22724400Y27733400D02*
X22936800Y27945800D01*
X28400000Y46700000D02*
X28400000Y46100000D01*
X25235000Y65364400D02*
X25235000Y63435000D01*
X29605000Y26995000D02*
X29750000Y26850000D01*
X32605000Y23307500D02*
X32868900Y23043600D01*
X31110700Y55707400D02*
X29360700Y57457400D01*
X32868900Y23043600D02*
X33400000Y23043600D01*
X32600000Y46700000D02*
X32400000Y46500000D01*
X31110700Y55019900D02*
X31110700Y55707400D01*
X24515100Y59693000D02*
X24515100Y60315100D01*
X24541600Y25953600D02*
X24866600Y25628600D01*
X29105000Y28182500D02*
X29105000Y28855000D01*
X32600000Y47140000D02*
X32600000Y46700000D01*
X34061400Y72440800D02*
X34112200Y72491600D01*
X24515100Y60315100D02*
X24800000Y60600000D01*
X22882600Y30700000D02*
X22936800Y30645800D01*
X29105000Y28855000D02*
X29400000Y29150000D01*
X29309050Y57509050D02*
X29360700Y57457400D01*
X37966000Y48739800D02*
X37509868Y48739800D01*
X15521200Y67866700D02*
X15521200Y67181200D01*
X10425000Y56070000D02*
X10425000Y56700000D01*
X32605000Y23995000D02*
X31950000Y24650000D01*
X22832400Y60246600D02*
X24286499Y60246600D01*
X15521200Y67181200D02*
X15595600Y67106800D01*
X28549600Y61163200D02*
X28575000Y61137800D01*
X37740000Y54150000D02*
X37740000Y52577300D01*
X34500000Y44220000D02*
X36295000Y44220000D01*
X22882600Y30700000D02*
X22882600Y31122200D01*
X37509868Y48739800D02*
X37406434Y48636366D01*
X10425000Y56700000D02*
X10400000Y56725000D01*
X29360700Y58367500D02*
X29438600Y58445400D01*
X26583400Y48042293D02*
X26583400Y49189400D01*
X36962200Y65887600D02*
X36347400Y65887600D01*
X29605000Y28945000D02*
X29400000Y29150000D01*
X37922200Y71983600D02*
X38379400Y71983600D01*
X36347400Y65887600D02*
X36398200Y65836800D01*
X27610700Y59207400D02*
X28309050Y58509050D01*
X21774600Y27733400D02*
X22724400Y27733400D01*
X28077400Y29560400D02*
X28123000Y29514800D01*
X21235400Y51917600D02*
X20015200Y51917600D01*
X27223835Y29643600D02*
X27323835Y29543600D01*
X28123000Y29514800D02*
X28123000Y29164500D01*
X38379400Y71983600D02*
X38836600Y71526400D01*
X27025600Y29560400D02*
X28077400Y29560400D01*
X37740000Y54150000D02*
X36998200Y54150000D01*
X29750000Y26850000D02*
X30855000Y25745000D01*
X36413500Y67791660D02*
X36413500Y66969700D01*
X28309050Y58509050D02*
X29309050Y57509050D01*
X27305000Y44249400D02*
X27993400Y44249400D01*
X33400000Y23043600D02*
X34543400Y23043600D01*
X24892000Y25603200D02*
X24866600Y25628600D01*
X29105000Y28182500D02*
X29105000Y27495000D01*
X30855000Y25755000D02*
X31100000Y26000000D01*
X36413500Y66969700D02*
X36118800Y66675000D01*
X27108800Y29643600D02*
X27223835Y29643600D01*
X24435000Y65364400D02*
X24435000Y63435000D01*
X24435000Y63435000D02*
X24200000Y63200000D01*
X27610700Y59894900D02*
X27610700Y59207400D01*
X25235000Y65364400D02*
X24435000Y65364400D01*
X34716600Y57937400D02*
X35382200Y57937400D01*
X22936800Y27945800D02*
X22936800Y27302600D01*
X30795200Y49113200D02*
X30759400Y49149000D01*
X34543400Y23043600D02*
X34721800Y22865200D01*
D46*
X36313500Y68129160D02*
X36313500Y67879160D01*
D45*
X40300000Y44220000D02*
X40300000Y43500000D01*
X30795200Y48004600D02*
X30795200Y49113200D01*
X36295000Y44220000D02*
X36325000Y44250000D01*
X30855000Y25745000D02*
X30855000Y25755000D01*
X27787600Y61163200D02*
X27610700Y60986300D01*
X29360700Y56770700D02*
X29413200Y56718200D01*
X28123000Y29164500D02*
X29105000Y28182500D01*
X29360700Y57457400D02*
X29360700Y58367500D01*
X34714000Y55651400D02*
X35280600Y55651400D01*
X31950000Y24650000D02*
X30855000Y25745000D01*
X24515100Y60017999D02*
X24515100Y59693000D01*
%TO.N,/SCLK*%
X22192600Y55707400D02*
X19505400Y58394600D01*
X26923200Y55707400D02*
X22192600Y55707400D01*
X19505400Y58394600D02*
X16941800Y58394600D01*
%TO.N,/NRST*%
X33216600Y57207400D02*
X33731200Y56692800D01*
X31798200Y57207400D02*
X33216600Y57207400D01*
X33731200Y56692800D02*
X33045400Y56692800D01*
X33045400Y56692800D02*
X32918400Y56819800D01*
%TO.N,/boot0*%
X8350000Y61300000D02*
X8350000Y55300000D01*
X30610700Y54360700D02*
X30375000Y54125000D01*
X10425000Y55050000D02*
X10425000Y54350000D01*
X10175000Y55300000D02*
X10425000Y55050000D01*
X8350000Y55300000D02*
X10175000Y55300000D01*
X30610700Y55019900D02*
X30610700Y54360700D01*
%TO.N,VUSB*%
X23164800Y61493400D02*
X23241000Y61417200D01*
D46*
X37198200Y70194460D02*
X37263500Y70129160D01*
D45*
X24101870Y60883800D02*
X24515100Y61297030D01*
X22656800Y61031000D02*
X22854800Y61031000D01*
X23241000Y61417200D02*
X23774400Y60883800D01*
X36962200Y71983600D02*
X36962200Y70467960D01*
X36962200Y70467960D02*
X37363500Y70066660D01*
X24515100Y61297030D02*
X24515100Y61543000D01*
D46*
X37251000Y70116660D02*
X37263500Y70129160D01*
X31031500Y68331500D02*
X35628340Y68331500D01*
X27575000Y65075000D02*
X27575000Y64875000D01*
X35628340Y68331500D02*
X37363500Y70066660D01*
D45*
X27575000Y65782200D02*
X27575000Y64875000D01*
X22854800Y61031000D02*
X23241000Y61417200D01*
X17221200Y67589200D02*
X18706800Y66103600D01*
X27253600Y66103600D02*
X27575000Y65782200D01*
X23774400Y60883800D02*
X24101870Y60883800D01*
X23164800Y66103600D02*
X27253600Y66103600D01*
X23164800Y66103600D02*
X23164800Y61493400D01*
D46*
X27575000Y64875000D02*
X31031500Y68331500D01*
D45*
X18706800Y66103600D02*
X23164800Y66103600D01*
%TO.N,Net-(U5-PA10)*%
X26923200Y57707400D02*
X25956400Y57707400D01*
X25956400Y57707400D02*
X25800000Y57863800D01*
X21789200Y53990199D02*
X22655401Y54856400D01*
X21789200Y53670200D02*
X21789200Y53990199D01*
X22655401Y54856400D02*
X22936200Y54856400D01*
%TO.N,TAG_RESET*%
X22809200Y53670200D02*
X22809200Y52243800D01*
X22809200Y52243800D02*
X23135400Y51917600D01*
%TO.N,TAG_1V8*%
X27025600Y28600400D02*
X27025600Y28232600D01*
X21774600Y28693400D02*
X21099200Y28693400D01*
X27500000Y27738900D02*
X27500000Y27758200D01*
X34552000Y23995000D02*
X34721800Y23825200D01*
X21099200Y28693400D02*
X21075600Y28717000D01*
X27561400Y25495000D02*
X27405000Y25651400D01*
X22784400Y28693400D02*
X22936800Y28845800D01*
X21774600Y28693400D02*
X22784400Y28693400D01*
X33292500Y23995000D02*
X34552000Y23995000D01*
X34721800Y23825200D02*
X35331400Y23825200D01*
X27456250Y27695150D02*
X27500000Y27738900D01*
X28417500Y25495000D02*
X27561400Y25495000D01*
X28154300Y27758200D02*
X28417500Y27495000D01*
X27400000Y25500000D02*
X27400000Y25646400D01*
X38600000Y45200000D02*
X40280000Y45200000D01*
X27500000Y27758200D02*
X28154300Y27758200D01*
X27400000Y25646400D02*
X27405000Y25651400D01*
X27025600Y28232600D02*
X27500000Y27758200D01*
X38600000Y45200000D02*
X39000000Y45600000D01*
X40280000Y45200000D02*
X40300000Y45180000D01*
X26489600Y25603200D02*
X27356800Y25603200D01*
X39000000Y45600000D02*
X39000000Y46025000D01*
X35331400Y23825200D02*
X35433000Y23926800D01*
X27356800Y25603200D02*
X27405000Y25651400D01*
%TO.N,/stm32/NRST*%
X22185400Y40169000D02*
X25746200Y36608200D01*
X22185400Y50042600D02*
X22185400Y40169000D01*
X28066590Y25995000D02*
X28417500Y25995000D01*
X25501600Y27498400D02*
X25500000Y27500000D01*
X27391590Y26670000D02*
X28066590Y25995000D01*
X25501600Y26670000D02*
X25501600Y27498400D01*
X25501600Y26670000D02*
X27391590Y26670000D01*
%TO.N,/UART_TX*%
X9265000Y69100000D02*
X10775000Y69100000D01*
X25848088Y58700000D02*
X26340688Y58207400D01*
X26340688Y58207400D02*
X26923200Y58207400D01*
X18075000Y61800000D02*
X19200000Y61800000D01*
X10775000Y69100000D02*
X18075000Y61800000D01*
X19200000Y61800000D02*
X20700000Y60300000D01*
%TO.N,/stm32/PB4*%
X11159342Y48200000D02*
X5080000Y48200000D01*
X31605000Y34384200D02*
X30149800Y35839400D01*
X30149800Y35839400D02*
X23519942Y35839400D01*
X31480000Y28307500D02*
X31480000Y31939342D01*
X31605000Y28182500D02*
X31480000Y28307500D01*
X23519942Y35839400D02*
X11159342Y48200000D01*
X31480000Y31939342D02*
X31605000Y32064342D01*
X31605000Y32064342D02*
X31605000Y34384200D01*
%TO.N,/stm32/PB5*%
X31105000Y33969800D02*
X29616400Y35458400D01*
X31105000Y28182500D02*
X31105000Y33969800D01*
X5080000Y45660000D02*
X13268290Y45660000D01*
X23469890Y35458400D02*
X22813786Y36114504D01*
X13268290Y45660000D02*
X22813786Y36114504D01*
X29616400Y35458400D02*
X23469890Y35458400D01*
%TO.N,/stm32/rtc_scl*%
X25200000Y30200000D02*
X24900000Y30200000D01*
X30105000Y29595000D02*
X29500000Y30200000D01*
X24900000Y30200000D02*
X24445800Y29745800D01*
X25200000Y30200000D02*
X25200000Y30400000D01*
X29500000Y30200000D02*
X25200000Y30200000D01*
X22100000Y35000000D02*
X18850000Y38250000D01*
X24445800Y29745800D02*
X24136800Y29745800D01*
X18850000Y38250000D02*
X9950000Y38250000D01*
X30105000Y28182500D02*
X30105000Y29595000D01*
X5080000Y43120000D02*
X9950000Y38250000D01*
%TO.N,/stm32/rtc_sda*%
X24689200Y31048200D02*
X29082852Y31048200D01*
X30605000Y29526052D02*
X30605000Y28182500D01*
X24136800Y30645800D02*
X24286800Y30645800D01*
X24136800Y30645800D02*
X24136800Y31763200D01*
X21190380Y34709620D02*
X10950380Y34709620D01*
X24286800Y30645800D02*
X24689200Y31048200D01*
X29082852Y31048200D02*
X30605000Y29526052D01*
X10950380Y34709620D02*
X5080000Y40580000D01*
X24136800Y31763200D02*
X21190380Y34709620D01*
%TO.N,/stm32/PA0*%
X4953000Y30420000D02*
X10378000Y24995000D01*
X10378000Y24995000D02*
X28417500Y24995000D01*
%TO.N,/stm32/PA1*%
X8592000Y24495000D02*
X5207000Y27880000D01*
X28417500Y24495000D02*
X8592000Y24495000D01*
%TO.N,/stm32/PA2*%
X4953000Y25340000D02*
X6298000Y23995000D01*
X6298000Y23995000D02*
X28417500Y23995000D01*
%TO.N,/stm32/PA3*%
X28597500Y22800000D02*
X29105000Y23307500D01*
X5207000Y22800000D02*
X28597500Y22800000D01*
%TO.N,/stm32/PA4*%
X4953000Y20260000D02*
X6511600Y21818600D01*
X29108400Y21818600D02*
X29605000Y22315200D01*
X29605000Y22315200D02*
X29605000Y23307500D01*
X6511600Y21818600D02*
X29108400Y21818600D01*
%TO.N,/stm32/PA5*%
X25830422Y17720000D02*
X30105000Y21994578D01*
X30105000Y21994578D02*
X30105000Y23307500D01*
X5080000Y17720000D02*
X25830422Y17720000D01*
%TO.N,/stm32/PA6*%
X29100000Y20237867D02*
X27038816Y18176684D01*
X5080000Y15180000D02*
X24042132Y15180000D01*
X24042132Y15180000D02*
X27038816Y18176684D01*
X30600000Y21900000D02*
X29100000Y20400000D01*
X30605000Y22870001D02*
X30600000Y22865001D01*
X30605000Y23307500D02*
X30605000Y22870001D01*
X30600000Y22865001D02*
X30600000Y21900000D01*
X29100000Y20400000D02*
X29100000Y20237867D01*
%TO.N,/stm32/PA7*%
X31105000Y23307500D02*
X31105000Y21811800D01*
X21933200Y12640000D02*
X26046600Y16753400D01*
X31105000Y21811800D02*
X29546600Y20253400D01*
X26046600Y16753400D02*
X29546600Y20253400D01*
X5080000Y12640000D02*
X21933200Y12640000D01*
%TO.N,/stm32/PB0*%
X20500000Y10100000D02*
X5080000Y10100000D01*
X31605000Y23307500D02*
X31605000Y21205000D01*
X31605000Y21205000D02*
X20500000Y10100000D01*
%TO.N,/stm32/clkout*%
X26849000Y26995000D02*
X28417500Y26995000D01*
X24136800Y27945800D02*
X24286800Y27945800D01*
X24689200Y28348200D02*
X25495800Y28348200D01*
X24286800Y27945800D02*
X24689200Y28348200D01*
X25495800Y28348200D02*
X26849000Y26995000D01*
%TO.N,/stm32/VBACK*%
X22936800Y29745800D02*
X21865800Y29745800D01*
X21865800Y29745800D02*
X21800000Y29680000D01*
%TO.N,/stm32/PB3*%
X31843600Y31328110D02*
X31843600Y31843600D01*
X43700000Y43700000D02*
X46300000Y43700000D01*
X46300000Y43700000D02*
X48260000Y45660000D01*
X32387078Y32387078D02*
X32387078Y32503373D01*
X32105000Y28182500D02*
X32105000Y31066710D01*
X31843600Y31843600D02*
X32387078Y32387078D01*
X32105000Y31066710D02*
X31843600Y31328110D01*
X34600000Y34600000D02*
X43700000Y43700000D01*
%TO.N,/stm32/PA15*%
X45539660Y43120000D02*
X48260000Y43120000D01*
X44100000Y43100000D02*
X44100000Y43120000D01*
X32600000Y31600000D02*
X32605000Y31595000D01*
X44100000Y43120000D02*
X45539660Y43120000D01*
X32524699Y31675301D02*
X32600000Y31600000D01*
X34700000Y33700000D02*
X44100000Y43100000D01*
X32605000Y31595000D02*
X32605000Y28182500D01*
%TO.N,/stm32/PA12*%
X41996360Y32104858D02*
X36391502Y26500000D01*
X41996360Y36856360D02*
X41996360Y32104858D01*
X36391502Y26500000D02*
X34512500Y26500000D01*
X48260000Y40580000D02*
X45720000Y40580000D01*
X34507500Y26495000D02*
X34512500Y26500000D01*
X33292500Y26495000D02*
X34507500Y26495000D01*
X45720000Y40580000D02*
X41996360Y36856360D01*
%TO.N,/stm32/PA11*%
X33292500Y25995000D02*
X34507500Y25995000D01*
X42301171Y31893944D02*
X36407227Y26000000D01*
X34507500Y25995000D02*
X34512500Y26000000D01*
X36407227Y26000000D02*
X34512500Y26000000D01*
X42301171Y34621171D02*
X42301171Y31893944D01*
X48260000Y38040000D02*
X45720000Y38040000D01*
X45720000Y38040000D02*
X42301171Y34621171D01*
%TO.N,/stm32/PA10*%
X45720000Y35500000D02*
X48260000Y35500000D01*
X33417499Y25370001D02*
X37070001Y25370001D01*
X42605982Y32385983D02*
X45356780Y35136780D01*
X33292500Y25495000D02*
X33417499Y25370001D01*
X45356780Y35136780D02*
X45720000Y35500000D01*
X42605982Y30905982D02*
X42605982Y32385983D01*
X37070001Y25370001D02*
X42605982Y30905982D01*
%TO.N,/stm32/PA9*%
X34507500Y24995000D02*
X34512500Y25000000D01*
X37760000Y25000000D02*
X45720000Y32960000D01*
X45720000Y32960000D02*
X48260000Y32960000D01*
X33292500Y24995000D02*
X34507500Y24995000D01*
X34512500Y25000000D02*
X37760000Y25000000D01*
%TO.N,/stm32/PA8*%
X34507500Y24495000D02*
X34512500Y24500000D01*
X34512500Y24500000D02*
X39800000Y24500000D01*
X45720000Y30420000D02*
X48260000Y30420000D01*
X39800000Y24500000D02*
X45720000Y30420000D01*
X33292500Y24495000D02*
X34507500Y24495000D01*
%TO.N,/stm32/PB1*%
X38497200Y19735800D02*
X33375600Y19735800D01*
X32105000Y21006400D02*
X32105000Y23307500D01*
X33375600Y19735800D02*
X32105000Y21006400D01*
X48133000Y10100000D02*
X38497200Y19735800D01*
%TO.N,Net-(D1-K)*%
X34061400Y70635400D02*
X34061400Y69186200D01*
X34061400Y69186200D02*
X34039400Y69164200D01*
%TO.N,/LED_GREEN*%
X34039400Y67589200D02*
X34039400Y64621000D01*
X34039400Y64621000D02*
X31110700Y61692300D01*
X31110700Y61692300D02*
X31110700Y59894900D01*
%TO.N,PWR_IN*%
D46*
X43125000Y58624996D02*
X46024996Y58624996D01*
X46024996Y58624996D02*
X48260000Y60860000D01*
D45*
X48170000Y60950000D02*
X48260000Y60860000D01*
%TO.N,AUX_PWR*%
X36080000Y59455000D02*
X37875000Y61250000D01*
X37875000Y61250000D02*
X46150000Y61250000D01*
X34665000Y59455000D02*
X36080000Y59455000D01*
X46150000Y61250000D02*
X48260000Y63360000D01*
%TO.N,Net-(D105-K)*%
X16943700Y68886700D02*
X17221200Y69164200D01*
X15521200Y68886700D02*
X16943700Y68886700D01*
%TO.N,/DM*%
X26775000Y63190400D02*
X26775000Y64875000D01*
X25052600Y61468000D02*
X26775000Y63190400D01*
X26835000Y65364400D02*
X26835000Y64062000D01*
%TO.N,/DP*%
X25975000Y64875000D02*
X25975000Y63211400D01*
X25975000Y63211400D02*
X25044400Y62280800D01*
X26035000Y65364400D02*
X26035000Y64062000D01*
X23977600Y62001400D02*
X23977600Y61468000D01*
X25044400Y62280800D02*
X24257000Y62280800D01*
X23977600Y62001400D02*
X24257000Y62280800D01*
%TO.N,+1V8*%
X32169400Y45130600D02*
X32200000Y45100000D01*
X27233400Y46367293D02*
X27233400Y45281000D01*
X38766000Y48899800D02*
X38926000Y48739800D01*
X27990600Y45209400D02*
X28000000Y45200000D01*
X38766000Y50226300D02*
X38766000Y48899800D01*
X27305000Y45209400D02*
X27990600Y45209400D01*
X38926000Y48739800D02*
X37636200Y47450000D01*
X31445200Y46329600D02*
X31445200Y45156000D01*
X37636200Y47450000D02*
X34775000Y47450000D01*
X32169400Y45130600D02*
X32455600Y45130600D01*
X31445200Y45156000D02*
X31470600Y45130600D01*
X27233400Y45281000D02*
X27305000Y45209400D01*
X31470600Y45130600D02*
X32169400Y45130600D01*
X32455600Y45130600D02*
X34775000Y47450000D01*
%TO.N,TAG_3V3*%
X36325000Y45200000D02*
X36577078Y45200000D01*
D46*
X39340400Y59134600D02*
X42150000Y56325000D01*
D45*
X36305000Y45180000D02*
X36325000Y45200000D01*
D46*
X42150000Y48975000D02*
X41300000Y48125000D01*
X38150000Y47025000D02*
X36325000Y45200000D01*
X39340400Y60374998D02*
X39340400Y59134600D01*
X42150000Y56325000D02*
X42150000Y48975000D01*
D45*
X34500000Y45180000D02*
X36305000Y45180000D01*
X37216100Y43528601D02*
X36987499Y43300000D01*
D46*
X38150000Y47025000D02*
X40200000Y47025000D01*
D45*
X37216100Y44560978D02*
X37216100Y43528601D01*
X36987499Y43300000D02*
X36325000Y43300000D01*
D46*
X40200000Y47025000D02*
X41300000Y48125000D01*
D45*
X36577078Y45200000D02*
X37216100Y44560978D01*
%TO.N,Net-(U5-PB5)*%
X29110700Y55019900D02*
X29110700Y53789300D01*
X29110700Y53789300D02*
X29200000Y53700000D01*
%TO.N,Net-(U5-PB4)*%
X29200000Y50750000D02*
X30145200Y49804800D01*
X28610700Y55019900D02*
X28610700Y53269300D01*
X29200000Y52680000D02*
X29200000Y50750000D01*
X28610700Y53269300D02*
X29200000Y52680000D01*
X30145200Y48004600D02*
X30145200Y49804800D01*
%TO.N,Net-(U8-B)*%
X30145200Y46329600D02*
X30145200Y45191200D01*
%TO.N,Net-(U5-PA15)*%
X30795200Y46329600D02*
X30795200Y46842099D01*
X27610700Y54256400D02*
X27454300Y54100000D01*
X30054100Y47070700D02*
X29287400Y47837400D01*
X27610700Y55019900D02*
X27610700Y54256400D01*
X28550000Y50550000D02*
X28550000Y51800000D01*
X30795200Y46842099D02*
X30566599Y47070700D01*
X30566599Y47070700D02*
X30054100Y47070700D01*
X29287400Y47837400D02*
X29287400Y49812600D01*
X29287400Y49812600D02*
X28550000Y50550000D01*
X28550000Y51800000D02*
X28450000Y51900000D01*
%TO.N,/en1.8v*%
X36150000Y54334600D02*
X36150000Y58250000D01*
X36866000Y52501300D02*
X36242300Y53125000D01*
X35692600Y58707400D02*
X31798200Y58707400D01*
X36242300Y54242300D02*
X36150000Y54334600D01*
X36242300Y53125000D02*
X36242300Y54242300D01*
X36150000Y58250000D02*
X35692600Y58707400D01*
%TO.N,Net-(U5-PA2)*%
X33397400Y59207400D02*
X33645000Y59455000D01*
X31798200Y59207400D02*
X33397400Y59207400D01*
%TO.N,/USB_DM*%
X25345200Y57207400D02*
X25052600Y57500000D01*
X25052600Y59768000D02*
X25052600Y57500000D01*
X26923200Y57207400D02*
X25345200Y57207400D01*
%TO.N,/USB_DP*%
X23977600Y59768000D02*
X23977600Y57848058D01*
X23977600Y57848058D02*
X25118258Y56707400D01*
X26923200Y56707400D02*
X25118258Y56707400D01*
%TO.N,Net-(U5-PB3)*%
X25900000Y50600000D02*
X25900000Y50100000D01*
X28110700Y52810700D02*
X25900000Y50600000D01*
X25900000Y50100000D02*
X25900000Y49464400D01*
X25933400Y48042293D02*
X25933400Y49431000D01*
X28110700Y55019900D02*
X28110700Y52810700D01*
X25900000Y49464400D02*
X25933400Y49431000D01*
%TO.N,TAG_SWDIO*%
X33729999Y26995000D02*
X33292500Y26995000D01*
X30200600Y44115800D02*
X30200600Y39399400D01*
X30200600Y39399400D02*
X34000000Y35600000D01*
X34000000Y35600000D02*
X34000000Y27265001D01*
X34000000Y27265001D02*
X33729999Y26995000D01*
%TO.N,TAG_SCK*%
X25933400Y46367293D02*
X25933400Y41138800D01*
X33292500Y30225000D02*
X33292500Y27495000D01*
X33111300Y33988700D02*
X33300000Y33800000D01*
X33292500Y31835790D02*
X33292500Y30225000D01*
X33300000Y33800000D02*
X33300000Y31843290D01*
X33083500Y33988700D02*
X33111300Y33988700D01*
X33300000Y31843290D02*
X33292500Y31835790D01*
X25933400Y41138800D02*
X33083500Y33988700D01*
%TD*%
%TA.AperFunction,Conductor*%
%TO.N,GND*%
G36*
X46897147Y29815298D02*
G01*
X46941292Y29766504D01*
X46971106Y29707991D01*
X47096794Y29534996D01*
X47096796Y29534994D01*
X47096798Y29534991D01*
X47247990Y29383799D01*
X47247993Y29383797D01*
X47247996Y29383794D01*
X47420991Y29258106D01*
X47562505Y29186001D01*
X47614120Y29137252D01*
X47631186Y29068337D01*
X47608285Y29001136D01*
X47579364Y28971799D01*
X47502323Y28915825D01*
X47502317Y28915820D01*
X47351177Y28764680D01*
X47225536Y28591751D01*
X47128493Y28401293D01*
X47128490Y28401287D01*
X47062440Y28198005D01*
X47052302Y28134000D01*
X47956297Y28134000D01*
X47921075Y28072993D01*
X47887000Y27945826D01*
X47887000Y27814174D01*
X47921075Y27687007D01*
X47956297Y27626000D01*
X47052302Y27626000D01*
X47062440Y27561996D01*
X47128490Y27358714D01*
X47128493Y27358708D01*
X47225536Y27168250D01*
X47351177Y26995321D01*
X47502316Y26844182D01*
X47579819Y26787872D01*
X47623172Y26731649D01*
X47629247Y26660913D01*
X47596115Y26598121D01*
X47562960Y26573669D01*
X47421250Y26501465D01*
X47248320Y26375823D01*
X47097177Y26224680D01*
X46971536Y26051751D01*
X46874493Y25861293D01*
X46874490Y25861287D01*
X46808440Y25658005D01*
X46798302Y25594000D01*
X47702297Y25594000D01*
X47667075Y25532993D01*
X47633000Y25405826D01*
X47633000Y25274174D01*
X47667075Y25147007D01*
X47702297Y25086000D01*
X46798302Y25086000D01*
X46808440Y25021996D01*
X46874490Y24818714D01*
X46874493Y24818708D01*
X46971536Y24628250D01*
X47097177Y24455321D01*
X47248320Y24304178D01*
X47421252Y24178535D01*
X47562959Y24106332D01*
X47614575Y24057584D01*
X47631641Y23988669D01*
X47608741Y23921468D01*
X47579819Y23892130D01*
X47502323Y23835825D01*
X47502317Y23835820D01*
X47351177Y23684680D01*
X47225536Y23511751D01*
X47128493Y23321293D01*
X47128490Y23321287D01*
X47062440Y23118005D01*
X47052302Y23054000D01*
X47956297Y23054000D01*
X47921075Y22992993D01*
X47887000Y22865826D01*
X47887000Y22734174D01*
X47921075Y22607007D01*
X47956297Y22546000D01*
X47052302Y22546000D01*
X47062440Y22481996D01*
X47128490Y22278714D01*
X47128493Y22278708D01*
X47225536Y22088250D01*
X47351177Y21915321D01*
X47502316Y21764182D01*
X47579819Y21707872D01*
X47623172Y21651649D01*
X47629247Y21580913D01*
X47596115Y21518121D01*
X47562960Y21493669D01*
X47421250Y21421465D01*
X47248320Y21295823D01*
X47097177Y21144680D01*
X46971536Y20971751D01*
X46874493Y20781293D01*
X46874490Y20781287D01*
X46808440Y20578005D01*
X46798302Y20514000D01*
X47702297Y20514000D01*
X47667075Y20452993D01*
X47633000Y20325826D01*
X47633000Y20194174D01*
X47667075Y20067007D01*
X47702297Y20006000D01*
X46798302Y20006000D01*
X46808440Y19941996D01*
X46874490Y19738714D01*
X46874493Y19738708D01*
X46971536Y19548250D01*
X47097177Y19375321D01*
X47248320Y19224178D01*
X47421252Y19098535D01*
X47562959Y19026332D01*
X47614575Y18977584D01*
X47631641Y18908669D01*
X47608741Y18841468D01*
X47579819Y18812130D01*
X47502323Y18755825D01*
X47502317Y18755820D01*
X47351177Y18604680D01*
X47225536Y18431751D01*
X47128493Y18241293D01*
X47128490Y18241287D01*
X47062440Y18038005D01*
X47052302Y17974000D01*
X47956297Y17974000D01*
X47921075Y17912993D01*
X47887000Y17785826D01*
X47887000Y17654174D01*
X47921075Y17527007D01*
X47956297Y17466000D01*
X47052302Y17466000D01*
X47062440Y17401996D01*
X47128490Y17198714D01*
X47128493Y17198708D01*
X47225536Y17008250D01*
X47351177Y16835321D01*
X47502316Y16684182D01*
X47579819Y16627872D01*
X47623172Y16571649D01*
X47629247Y16500913D01*
X47596115Y16438121D01*
X47562960Y16413669D01*
X47421250Y16341465D01*
X47248320Y16215823D01*
X47097177Y16064680D01*
X46971536Y15891751D01*
X46874493Y15701293D01*
X46874490Y15701287D01*
X46808440Y15498005D01*
X46798302Y15434000D01*
X47702297Y15434000D01*
X47667075Y15372993D01*
X47633000Y15245826D01*
X47633000Y15114174D01*
X47667075Y14987007D01*
X47702297Y14926000D01*
X46798302Y14926000D01*
X46808440Y14861996D01*
X46874490Y14658714D01*
X46874493Y14658708D01*
X46971536Y14468250D01*
X47097177Y14295321D01*
X47248320Y14144178D01*
X47421252Y14018535D01*
X47562959Y13946332D01*
X47614575Y13897584D01*
X47631641Y13828669D01*
X47608741Y13761468D01*
X47579819Y13732130D01*
X47502323Y13675825D01*
X47502317Y13675820D01*
X47351177Y13524680D01*
X47225536Y13351751D01*
X47128493Y13161293D01*
X47128490Y13161287D01*
X47062440Y12958005D01*
X47052302Y12894000D01*
X47956297Y12894000D01*
X47921075Y12832993D01*
X47887000Y12705826D01*
X47887000Y12574174D01*
X47921075Y12447007D01*
X47956297Y12386000D01*
X47052302Y12386000D01*
X47062853Y12319388D01*
X47053754Y12248976D01*
X47008032Y12194662D01*
X46940204Y12173689D01*
X46871805Y12192716D01*
X46849309Y12210581D01*
X43752645Y15307245D01*
X39105326Y19954565D01*
X38856220Y20203671D01*
X38856210Y20203679D01*
X38722886Y20280653D01*
X38574177Y20320500D01*
X38574175Y20320500D01*
X33669980Y20320500D01*
X33640064Y20329284D01*
X33609595Y20335912D01*
X33604499Y20339727D01*
X33601859Y20340502D01*
X33580885Y20357405D01*
X32726605Y21211685D01*
X32692579Y21273997D01*
X32689700Y21300780D01*
X32689700Y22249501D01*
X32709702Y22317622D01*
X32763358Y22364115D01*
X32799255Y22374423D01*
X32816430Y22376684D01*
X32955208Y22434167D01*
X33074385Y22525615D01*
X33140057Y22611200D01*
X33910127Y22611200D01*
X33952370Y22465799D01*
X34035708Y22324882D01*
X34035714Y22324875D01*
X34151474Y22209115D01*
X34151481Y22209109D01*
X34292399Y22125771D01*
X34449629Y22080091D01*
X34449624Y22080091D01*
X34467799Y22078661D01*
X34467800Y22078661D01*
X34975800Y22078661D01*
X34993973Y22080091D01*
X35151200Y22125771D01*
X35292118Y22209109D01*
X35292125Y22209115D01*
X35407885Y22324875D01*
X35407891Y22324882D01*
X35491229Y22465799D01*
X35533473Y22611200D01*
X34975800Y22611200D01*
X34975800Y22078661D01*
X34467800Y22078661D01*
X34467800Y22611200D01*
X33910127Y22611200D01*
X33140057Y22611200D01*
X33165833Y22644792D01*
X33182373Y22684723D01*
X33223315Y22783570D01*
X33237999Y22895104D01*
X33238000Y22895113D01*
X33238000Y23235501D01*
X33258002Y23303622D01*
X33311658Y23350115D01*
X33363998Y23361501D01*
X33704924Y23361501D01*
X33800218Y23374046D01*
X33870365Y23363107D01*
X33923464Y23315979D01*
X33942654Y23247625D01*
X33937660Y23213971D01*
X33910127Y23119200D01*
X34200421Y23119200D01*
X34264560Y23101654D01*
X34292199Y23085308D01*
X34292203Y23085306D01*
X34449546Y23039594D01*
X34486306Y23036701D01*
X34486307Y23036700D01*
X34486316Y23036700D01*
X34957293Y23036700D01*
X34957293Y23036701D01*
X34994054Y23039594D01*
X35151397Y23085306D01*
X35163546Y23092492D01*
X35232361Y23109953D01*
X35252267Y23107620D01*
X35350395Y23088100D01*
X35350400Y23088100D01*
X35515604Y23088100D01*
X35515605Y23088100D01*
X35677640Y23120331D01*
X35830273Y23183554D01*
X35967640Y23275339D01*
X36084461Y23392160D01*
X36176246Y23529527D01*
X36239469Y23682160D01*
X36265670Y23813884D01*
X36298578Y23876791D01*
X36360273Y23911923D01*
X36389249Y23915300D01*
X39876975Y23915300D01*
X39876977Y23915300D01*
X40025686Y23955147D01*
X40159014Y24032124D01*
X40267876Y24140986D01*
X40327380Y24200490D01*
X40327393Y24200505D01*
X45925286Y29798395D01*
X45987598Y29832421D01*
X46014381Y29835300D01*
X46829026Y29835300D01*
X46897147Y29815298D01*
G37*
%TD.AperFunction*%
%TA.AperFunction,Conductor*%
G36*
X29893435Y27251199D02*
G01*
X29893439Y27251197D01*
X30005075Y27236500D01*
X30204924Y27236501D01*
X30316561Y27251197D01*
X30316569Y27251201D01*
X30322386Y27252758D01*
X30387610Y27252759D01*
X30393437Y27251198D01*
X30393439Y27251197D01*
X30505075Y27236500D01*
X30704924Y27236501D01*
X30816561Y27251197D01*
X30816569Y27251201D01*
X30822386Y27252758D01*
X30887610Y27252759D01*
X30893437Y27251198D01*
X30893439Y27251197D01*
X31005075Y27236500D01*
X31204924Y27236501D01*
X31316561Y27251197D01*
X31316569Y27251201D01*
X31322386Y27252758D01*
X31387610Y27252759D01*
X31393437Y27251198D01*
X31393439Y27251197D01*
X31505075Y27236500D01*
X31704924Y27236501D01*
X31816561Y27251197D01*
X31816569Y27251201D01*
X31822386Y27252758D01*
X31887610Y27252759D01*
X31893437Y27251198D01*
X31893439Y27251197D01*
X32005075Y27236500D01*
X32204924Y27236501D01*
X32205134Y27236529D01*
X32205196Y27236519D01*
X32209047Y27236771D01*
X32209103Y27235911D01*
X32275284Y27225607D01*
X32328394Y27178492D01*
X32347600Y27110142D01*
X32346535Y27095195D01*
X32346501Y27094941D01*
X32346500Y27094918D01*
X32346500Y26895077D01*
X32346501Y26895068D01*
X32361196Y26783443D01*
X32362759Y26777612D01*
X32362759Y26712392D01*
X32361197Y26706564D01*
X32346500Y26594927D01*
X32346500Y26395077D01*
X32346501Y26395068D01*
X32361196Y26283443D01*
X32362759Y26277612D01*
X32362759Y26212392D01*
X32361197Y26206564D01*
X32346500Y26094927D01*
X32346500Y25895077D01*
X32346501Y25895068D01*
X32361196Y25783443D01*
X32362759Y25777612D01*
X32362759Y25712392D01*
X32361197Y25706564D01*
X32346500Y25594927D01*
X32346500Y25395077D01*
X32346501Y25395068D01*
X32361196Y25283443D01*
X32362759Y25277612D01*
X32362759Y25212392D01*
X32361197Y25206564D01*
X32346500Y25094927D01*
X32346500Y24895077D01*
X32346501Y24895068D01*
X32361196Y24783443D01*
X32362759Y24777612D01*
X32362759Y24712392D01*
X32361197Y24706564D01*
X32346500Y24594927D01*
X32346500Y24395077D01*
X32346501Y24395073D01*
X32346532Y24394839D01*
X32346521Y24394770D01*
X32346771Y24390953D01*
X32345917Y24390898D01*
X32335594Y24324691D01*
X32288466Y24271591D01*
X32220113Y24252400D01*
X32205190Y24253466D01*
X32204945Y24253499D01*
X32204927Y24253500D01*
X32204925Y24253500D01*
X32204917Y24253500D01*
X32005076Y24253500D01*
X32005067Y24253499D01*
X31893437Y24238803D01*
X31887609Y24237241D01*
X31822389Y24237241D01*
X31816558Y24238804D01*
X31747674Y24247872D01*
X31704925Y24253500D01*
X31704921Y24253500D01*
X31505076Y24253500D01*
X31505067Y24253499D01*
X31393437Y24238803D01*
X31387609Y24237241D01*
X31322389Y24237241D01*
X31316558Y24238804D01*
X31247674Y24247872D01*
X31204925Y24253500D01*
X31204921Y24253500D01*
X31005076Y24253500D01*
X31005067Y24253499D01*
X30893437Y24238803D01*
X30887609Y24237241D01*
X30822389Y24237241D01*
X30816558Y24238804D01*
X30747674Y24247872D01*
X30704925Y24253500D01*
X30704921Y24253500D01*
X30505076Y24253500D01*
X30505067Y24253499D01*
X30393437Y24238803D01*
X30387609Y24237241D01*
X30322389Y24237241D01*
X30316558Y24238804D01*
X30247674Y24247872D01*
X30204925Y24253500D01*
X30204921Y24253500D01*
X30005076Y24253500D01*
X30005067Y24253499D01*
X29893437Y24238803D01*
X29887609Y24237241D01*
X29822389Y24237241D01*
X29816558Y24238804D01*
X29747674Y24247872D01*
X29704925Y24253500D01*
X29704921Y24253500D01*
X29505076Y24253500D01*
X29505064Y24253499D01*
X29504835Y24253468D01*
X29504766Y24253479D01*
X29500953Y24253229D01*
X29500897Y24254083D01*
X29434686Y24264408D01*
X29381588Y24311537D01*
X29362399Y24379891D01*
X29363467Y24394825D01*
X29363500Y24395075D01*
X29363499Y24594924D01*
X29348803Y24706561D01*
X29348801Y24706565D01*
X29347241Y24712389D01*
X29347242Y24777613D01*
X29348800Y24783433D01*
X29348803Y24783439D01*
X29363500Y24895075D01*
X29363499Y25094924D01*
X29348803Y25206561D01*
X29348801Y25206565D01*
X29347241Y25212389D01*
X29347242Y25277613D01*
X29348800Y25283433D01*
X29348803Y25283439D01*
X29363500Y25395075D01*
X29363499Y25594924D01*
X29348803Y25706561D01*
X29348801Y25706565D01*
X29347241Y25712389D01*
X29347242Y25777613D01*
X29348800Y25783433D01*
X29348803Y25783439D01*
X29363500Y25895075D01*
X29363499Y26094924D01*
X29348803Y26206561D01*
X29348801Y26206565D01*
X29347241Y26212389D01*
X29347242Y26277613D01*
X29348800Y26283433D01*
X29348803Y26283439D01*
X29363500Y26395075D01*
X29363499Y26594924D01*
X29363312Y26596342D01*
X29348803Y26706559D01*
X29348803Y26706561D01*
X29348801Y26706565D01*
X29347241Y26712389D01*
X29347242Y26777613D01*
X29348800Y26783433D01*
X29348803Y26783439D01*
X29363500Y26895075D01*
X29363499Y27094924D01*
X29363401Y27095668D01*
X29363435Y27095890D01*
X29363229Y27099047D01*
X29363935Y27099094D01*
X29374335Y27165816D01*
X29421459Y27218919D01*
X29489811Y27238114D01*
X29504773Y27237044D01*
X29505101Y27237001D01*
X29505113Y27237000D01*
X29704887Y27237000D01*
X29704896Y27237001D01*
X29816433Y27251685D01*
X29821414Y27253019D01*
X29886637Y27253020D01*
X29893435Y27251199D01*
G37*
%TD.AperFunction*%
%TA.AperFunction,Conductor*%
G36*
X6555041Y38273998D02*
G01*
X6576015Y38257095D01*
X10482504Y34350606D01*
X10591366Y34241744D01*
X10724694Y34164767D01*
X10873403Y34124920D01*
X11027357Y34124920D01*
X20896000Y34124920D01*
X20964121Y34104918D01*
X20985095Y34088015D01*
X23454215Y31618895D01*
X23488241Y31556583D01*
X23483176Y31485768D01*
X23440629Y31428932D01*
X23374109Y31404121D01*
X23365120Y31403800D01*
X23186800Y31403800D01*
X23186800Y30771800D01*
X23166798Y30703679D01*
X23113142Y30657186D01*
X23060800Y30645800D01*
X22936800Y30645800D01*
X22936800Y30630300D01*
X22916798Y30562179D01*
X22863142Y30515686D01*
X22810800Y30504300D01*
X22488150Y30504300D01*
X22427603Y30497791D01*
X22427595Y30497789D01*
X22290596Y30446690D01*
X22282686Y30442370D01*
X22281751Y30444082D01*
X22225915Y30423257D01*
X22181777Y30427939D01*
X22086467Y30455629D01*
X22086464Y30455630D01*
X22049997Y30458500D01*
X21550012Y30458500D01*
X21513534Y30455630D01*
X21497611Y30451003D01*
X21462459Y30446000D01*
X20979985Y30446000D01*
X21020194Y30307601D01*
X21051521Y30254629D01*
X21068980Y30185813D01*
X21051522Y30126354D01*
X21019731Y30072597D01*
X20974370Y29916466D01*
X20974370Y29916465D01*
X20971500Y29879999D01*
X20971500Y29626536D01*
X20951498Y29558415D01*
X20897842Y29511922D01*
X20870086Y29502958D01*
X20854564Y29499871D01*
X20854560Y29499869D01*
X20701926Y29436646D01*
X20564558Y29344860D01*
X20564552Y29344855D01*
X20447745Y29228048D01*
X20447740Y29228042D01*
X20363554Y29102047D01*
X20355954Y29090673D01*
X20335749Y29041894D01*
X20292732Y28938043D01*
X20292731Y28938042D01*
X20260500Y28776008D01*
X20260500Y28610793D01*
X20282251Y28501446D01*
X20292731Y28448760D01*
X20355954Y28296127D01*
X20421443Y28198116D01*
X20447740Y28158759D01*
X20447745Y28158753D01*
X20564552Y28041946D01*
X20564558Y28041941D01*
X20564560Y28041939D01*
X20701927Y27950154D01*
X20854560Y27886931D01*
X21016595Y27854700D01*
X21016596Y27854700D01*
X21181804Y27854700D01*
X21181805Y27854700D01*
X21343840Y27886931D01*
X21397908Y27909328D01*
X21468493Y27916918D01*
X21481267Y27913919D01*
X21502346Y27907794D01*
X21539106Y27904901D01*
X21539107Y27904900D01*
X21539116Y27904900D01*
X22010093Y27904900D01*
X22010093Y27904901D01*
X22046854Y27907794D01*
X22204197Y27953506D01*
X22204199Y27953508D01*
X22204201Y27953508D01*
X22345226Y28036910D01*
X22345227Y28036911D01*
X22345229Y28036912D01*
X22361972Y28053655D01*
X22424283Y28087682D01*
X22464536Y28089840D01*
X22488162Y28087300D01*
X22810800Y28087300D01*
X22878921Y28067298D01*
X22925414Y28013642D01*
X22936800Y27961300D01*
X22936800Y27945800D01*
X23060800Y27945800D01*
X23128921Y27925798D01*
X23175414Y27872142D01*
X23186800Y27819800D01*
X23186800Y27187800D01*
X23385385Y27187800D01*
X23385397Y27187801D01*
X23445893Y27194306D01*
X23445898Y27194307D01*
X23492050Y27211521D01*
X23511456Y27212910D01*
X23529830Y27219311D01*
X23552295Y27215831D01*
X23562865Y27216587D01*
X23565537Y27215975D01*
X23572960Y27214191D01*
X23627599Y27193811D01*
X23682095Y27187953D01*
X23689995Y27186053D01*
X23714009Y27172255D01*
X23739601Y27161655D01*
X23744343Y27154825D01*
X23751553Y27150682D01*
X23764295Y27126091D01*
X23780093Y27103338D01*
X23780390Y27095028D01*
X23784216Y27087644D01*
X23781639Y27060064D01*
X23782629Y27032386D01*
X23781539Y27028392D01*
X23756490Y26942175D01*
X23755060Y26924001D01*
X23755061Y26924000D01*
X24415600Y26924000D01*
X24483721Y26903998D01*
X24530214Y26850342D01*
X24541600Y26798000D01*
X24541600Y26670000D01*
X24587100Y26670000D01*
X24655221Y26649998D01*
X24701714Y26596342D01*
X24713100Y26544000D01*
X24713100Y26434507D01*
X24715993Y26397749D01*
X24715993Y26397748D01*
X24716770Y26395075D01*
X24760370Y26245000D01*
X24761707Y26240401D01*
X24778053Y26212762D01*
X24795600Y26148622D01*
X24795600Y25857200D01*
X25232571Y25857200D01*
X25236768Y25857130D01*
X25251633Y25856635D01*
X25259346Y25854394D01*
X25296116Y25851500D01*
X25405697Y25851500D01*
X25407797Y25851430D01*
X25439590Y25840933D01*
X25471721Y25831498D01*
X25473146Y25829853D01*
X25475214Y25829170D01*
X25496291Y25803142D01*
X25518214Y25777842D01*
X25518740Y25775420D01*
X25519894Y25773996D01*
X25520755Y25766160D01*
X25529600Y25725500D01*
X25529600Y25705700D01*
X25509598Y25637579D01*
X25455942Y25591086D01*
X25403600Y25579700D01*
X10672381Y25579700D01*
X10604260Y25599702D01*
X10583286Y25616605D01*
X9783891Y26416000D01*
X23755061Y26416000D01*
X23756490Y26397827D01*
X23802170Y26240600D01*
X23885508Y26099682D01*
X23885514Y26099675D01*
X24001274Y25983915D01*
X24001281Y25983909D01*
X24142198Y25900571D01*
X24287600Y25858328D01*
X24287600Y26416000D01*
X23755061Y26416000D01*
X9783891Y26416000D01*
X8784280Y27415611D01*
X8720491Y27479400D01*
X20962927Y27479400D01*
X21005170Y27333999D01*
X21088508Y27193082D01*
X21088514Y27193075D01*
X21204274Y27077315D01*
X21204281Y27077309D01*
X21345199Y26993971D01*
X21502429Y26948291D01*
X21502424Y26948291D01*
X21520599Y26946861D01*
X21520600Y26946861D01*
X22028600Y26946861D01*
X22046773Y26948291D01*
X22204000Y26993971D01*
X22344918Y27077309D01*
X22418504Y27150895D01*
X22480816Y27184920D01*
X22507600Y27187800D01*
X22686800Y27187800D01*
X22686800Y27479400D01*
X22028600Y27479400D01*
X22028600Y26946861D01*
X21520600Y26946861D01*
X21520600Y27479400D01*
X20962927Y27479400D01*
X8720491Y27479400D01*
X6288493Y29911397D01*
X6254468Y29973709D01*
X6257754Y30039425D01*
X6278049Y30101884D01*
X6311500Y30313084D01*
X6311500Y30526916D01*
X6278049Y30738116D01*
X6211972Y30941483D01*
X6205594Y30954000D01*
X20979985Y30954000D01*
X21546000Y30954000D01*
X22054000Y30954000D01*
X22686800Y30954000D01*
X22686800Y31403800D01*
X22488202Y31403800D01*
X22427704Y31397295D01*
X22404153Y31388511D01*
X22333337Y31383448D01*
X22295984Y31398115D01*
X22242397Y31429807D01*
X22086391Y31475131D01*
X22054000Y31477681D01*
X22054000Y30954000D01*
X21546000Y30954000D01*
X21546000Y31477681D01*
X21513610Y31475131D01*
X21513607Y31475131D01*
X21357600Y31429806D01*
X21217771Y31347111D01*
X21217764Y31347106D01*
X21102894Y31232236D01*
X21102889Y31232229D01*
X21020194Y31092400D01*
X20979985Y30954000D01*
X6205594Y30954000D01*
X6114894Y31132009D01*
X5989206Y31305004D01*
X5989203Y31305007D01*
X5989201Y31305010D01*
X5838006Y31456205D01*
X5761136Y31512054D01*
X5717782Y31568277D01*
X5711707Y31639013D01*
X5744839Y31701804D01*
X5777989Y31726253D01*
X5919009Y31798106D01*
X6092004Y31923794D01*
X6243206Y32074996D01*
X6368894Y32247991D01*
X6465972Y32438517D01*
X6532049Y32641884D01*
X6565500Y32853084D01*
X6565500Y33066916D01*
X6532049Y33278116D01*
X6465972Y33481483D01*
X6368894Y33672009D01*
X6243206Y33845004D01*
X6243203Y33845007D01*
X6243201Y33845010D01*
X6092009Y33996202D01*
X6092006Y33996204D01*
X6092004Y33996206D01*
X5919012Y34121892D01*
X5919011Y34121893D01*
X5777494Y34194000D01*
X5725879Y34242749D01*
X5708813Y34311664D01*
X5731714Y34378865D01*
X5760636Y34408203D01*
X5837679Y34464179D01*
X5837682Y34464181D01*
X5988822Y34615321D01*
X6114463Y34788250D01*
X6211506Y34978708D01*
X6211509Y34978714D01*
X6277559Y35181996D01*
X6287698Y35246000D01*
X5383703Y35246000D01*
X5418925Y35307007D01*
X5453000Y35434174D01*
X5453000Y35565826D01*
X5418925Y35692993D01*
X5383703Y35754000D01*
X6287697Y35754000D01*
X6277559Y35818005D01*
X6211509Y36021287D01*
X6211506Y36021293D01*
X6114463Y36211751D01*
X5988822Y36384680D01*
X5837683Y36535819D01*
X5760180Y36592129D01*
X5716827Y36648352D01*
X5710752Y36719088D01*
X5743884Y36781880D01*
X5777040Y36806332D01*
X5918747Y36878535D01*
X6091679Y37004178D01*
X6242822Y37155321D01*
X6368463Y37328250D01*
X6465506Y37518708D01*
X6465509Y37518714D01*
X6531559Y37721996D01*
X6541698Y37786000D01*
X5637703Y37786000D01*
X5672925Y37847007D01*
X5707000Y37974174D01*
X5707000Y38105826D01*
X5672925Y38232993D01*
X5637703Y38294000D01*
X6486920Y38294000D01*
X6555041Y38273998D01*
G37*
%TD.AperFunction*%
%TA.AperFunction,Conductor*%
G36*
X47097862Y42530944D02*
G01*
X47113314Y42531606D01*
X47131236Y42521145D01*
X47151147Y42515298D01*
X47162220Y42503058D01*
X47174629Y42495815D01*
X47195292Y42466505D01*
X47225106Y42407991D01*
X47350794Y42234996D01*
X47350796Y42234994D01*
X47350798Y42234991D01*
X47501990Y42083799D01*
X47501993Y42083797D01*
X47501996Y42083794D01*
X47578863Y42027947D01*
X47622217Y41971725D01*
X47628292Y41900989D01*
X47595161Y41838197D01*
X47562006Y41813746D01*
X47435355Y41749214D01*
X47420987Y41741892D01*
X47247993Y41616204D01*
X47247990Y41616202D01*
X47096798Y41465010D01*
X47096796Y41465007D01*
X46971108Y41292013D01*
X46941293Y41233497D01*
X46892545Y41181882D01*
X46829026Y41164700D01*
X45643023Y41164700D01*
X45543883Y41138136D01*
X45494313Y41124853D01*
X45453839Y41101485D01*
X45453836Y41101483D01*
X45407410Y41074680D01*
X45360986Y41047877D01*
X45360978Y41047871D01*
X42246198Y37933088D01*
X41637346Y37324236D01*
X41582915Y37269806D01*
X41528485Y37215376D01*
X41528481Y37215371D01*
X41451507Y37082047D01*
X41451507Y37082046D01*
X41430541Y37003799D01*
X41411660Y36933336D01*
X41411660Y32399239D01*
X41391658Y32331118D01*
X41374755Y32310144D01*
X36186217Y27121605D01*
X36123905Y27087579D01*
X36097122Y27084700D01*
X34710700Y27084700D01*
X34642579Y27104702D01*
X34596086Y27158358D01*
X34584700Y27210700D01*
X34584700Y32735300D01*
X34604702Y32803421D01*
X34658358Y32849914D01*
X34710700Y32861300D01*
X34782604Y32861300D01*
X34782605Y32861300D01*
X34944640Y32893531D01*
X35097273Y32956754D01*
X35234640Y33048539D01*
X35351461Y33165360D01*
X35443246Y33302727D01*
X35506469Y33455360D01*
X35538700Y33617395D01*
X35538700Y33659620D01*
X35558702Y33727741D01*
X35575605Y33748715D01*
X44325286Y42498395D01*
X44387598Y42532421D01*
X44414381Y42535300D01*
X45462683Y42535300D01*
X47083026Y42535300D01*
X47097862Y42530944D01*
G37*
%TD.AperFunction*%
%TA.AperFunction,Conductor*%
G36*
X29273741Y29595298D02*
G01*
X29294715Y29578395D01*
X29483395Y29389715D01*
X29517421Y29327403D01*
X29520300Y29300620D01*
X29520300Y29240500D01*
X29500298Y29172379D01*
X29446642Y29125886D01*
X29410750Y29115578D01*
X29393568Y29113316D01*
X29387610Y29111719D01*
X29322390Y29111719D01*
X29316429Y29113316D01*
X29204896Y29128000D01*
X29005103Y29128000D01*
X28893569Y29113316D01*
X28754791Y29055834D01*
X28635614Y28964386D01*
X28544166Y28845209D01*
X28486684Y28706431D01*
X28472000Y28594897D01*
X28472000Y28442605D01*
X28467017Y28425636D01*
X28467141Y28407951D01*
X28457223Y28392280D01*
X28451998Y28374484D01*
X28438631Y28362903D01*
X28429175Y28347959D01*
X28412359Y28340138D01*
X28398342Y28327991D01*
X28380639Y28325383D01*
X28364802Y28318016D01*
X28340056Y28319404D01*
X28328939Y28317765D01*
X28321064Y28318842D01*
X28231277Y28342900D01*
X28145019Y28342900D01*
X28136531Y28344060D01*
X28111640Y28355219D01*
X28085471Y28362902D01*
X28074153Y28372023D01*
X28071746Y28373102D01*
X28070560Y28374919D01*
X28064497Y28379805D01*
X28034647Y28409655D01*
X28034643Y28409658D01*
X28034640Y28409661D01*
X27950041Y28466188D01*
X27900098Y28499559D01*
X27854570Y28554036D01*
X27844100Y28604324D01*
X27844100Y28805893D01*
X27844099Y28805894D01*
X27841206Y28842652D01*
X27841206Y28842653D01*
X27841205Y28842656D01*
X27795494Y28999997D01*
X27785584Y29016754D01*
X27768125Y29085567D01*
X27785587Y29145035D01*
X27795030Y29161002D01*
X27837273Y29306400D01*
X27546979Y29306400D01*
X27503069Y29314299D01*
X27492520Y29318221D01*
X27455197Y29340294D01*
X27354353Y29369592D01*
X27350030Y29371199D01*
X27325139Y29389792D01*
X27298952Y29406516D01*
X27296962Y29410839D01*
X27293150Y29413687D01*
X27282261Y29442789D01*
X27269274Y29471012D01*
X27269937Y29475724D01*
X27268270Y29480181D01*
X27274842Y29510548D01*
X27279177Y29541315D01*
X27282283Y29544921D01*
X27283290Y29549571D01*
X27305237Y29571564D01*
X27325517Y29595103D01*
X27330078Y29596457D01*
X27333440Y29599825D01*
X27363796Y29606462D01*
X27393580Y29615299D01*
X27393940Y29615300D01*
X29205620Y29615300D01*
X29273741Y29595298D01*
G37*
%TD.AperFunction*%
%TA.AperFunction,Conductor*%
G36*
X26670453Y29611427D02*
G01*
X26684171Y29612393D01*
X26703853Y29601620D01*
X26725381Y29595298D01*
X26734385Y29584906D01*
X26746448Y29578303D01*
X26757180Y29558600D01*
X26771874Y29541642D01*
X26773831Y29528031D01*
X26780408Y29515956D01*
X26778784Y29493580D01*
X26781978Y29471368D01*
X26776265Y29458860D01*
X26775270Y29445145D01*
X26761804Y29427197D01*
X26752484Y29406788D01*
X26740916Y29399354D01*
X26732664Y29388354D01*
X26701170Y29371199D01*
X26696846Y29369592D01*
X26596003Y29340294D01*
X26558679Y29318221D01*
X26548131Y29314299D01*
X26504221Y29306400D01*
X26213927Y29306400D01*
X26256170Y29160999D01*
X26265614Y29145031D01*
X26283074Y29076215D01*
X26265617Y29016757D01*
X26255704Y28999995D01*
X26209994Y28842656D01*
X26209993Y28842652D01*
X26207100Y28805894D01*
X26207100Y28767981D01*
X26201425Y28748655D01*
X26200763Y28728526D01*
X26191628Y28715292D01*
X26187098Y28699860D01*
X26171876Y28686671D01*
X26160436Y28670094D01*
X26145595Y28663899D01*
X26133442Y28653367D01*
X26113505Y28650501D01*
X26094920Y28642741D01*
X26079086Y28645552D01*
X26063168Y28643263D01*
X26044846Y28651631D01*
X26025016Y28655151D01*
X26003909Y28670327D01*
X25998588Y28672757D01*
X25995500Y28675522D01*
X25993720Y28677170D01*
X25854814Y28816076D01*
X25837476Y28826086D01*
X25808779Y28842654D01*
X25721486Y28893053D01*
X25572777Y28932900D01*
X25572775Y28932900D01*
X25171300Y28932900D01*
X25170736Y28933066D01*
X25170172Y28932905D01*
X25136716Y28943055D01*
X25103179Y28952902D01*
X25102794Y28953346D01*
X25102233Y28953516D01*
X25079577Y28980140D01*
X25056686Y29006558D01*
X25056475Y29007289D01*
X25056222Y29007586D01*
X25055753Y29009788D01*
X25046427Y29042086D01*
X25045300Y29050456D01*
X25045300Y29144438D01*
X25038789Y29205001D01*
X25016411Y29264996D01*
X25014528Y29278986D01*
X25017846Y29300685D01*
X25016280Y29322582D01*
X25021346Y29339834D01*
X25038789Y29386599D01*
X25038790Y29386604D01*
X25045473Y29448768D01*
X25072642Y29514360D01*
X25130959Y29554852D01*
X25170751Y29561300D01*
X25282604Y29561300D01*
X25282605Y29561300D01*
X25444640Y29593531D01*
X25474041Y29605710D01*
X25522258Y29615300D01*
X26657260Y29615300D01*
X26670453Y29611427D01*
G37*
%TD.AperFunction*%
%TA.AperFunction,Conductor*%
G36*
X32398212Y33846644D02*
G01*
X32404795Y33840515D01*
X32678395Y33566915D01*
X32712421Y33504603D01*
X32715300Y33477820D01*
X32715300Y33446748D01*
X32695298Y33378627D01*
X32641642Y33332134D01*
X32571368Y33322030D01*
X32564726Y33323168D01*
X32530328Y33330010D01*
X32469685Y33342073D01*
X32469683Y33342073D01*
X32315700Y33342073D01*
X32247579Y33362075D01*
X32201086Y33415731D01*
X32189700Y33468073D01*
X32189700Y33751420D01*
X32209702Y33819541D01*
X32263358Y33866034D01*
X32333632Y33876138D01*
X32398212Y33846644D01*
G37*
%TD.AperFunction*%
%TA.AperFunction,Conductor*%
G36*
X29387715Y46536037D02*
G01*
X29441503Y46489698D01*
X29461699Y46421634D01*
X29461700Y46421275D01*
X29461700Y45865534D01*
X29474683Y45766913D01*
X29477040Y45749014D01*
X29477041Y45749007D01*
X29477189Y45748651D01*
X29477223Y45748328D01*
X29479178Y45741034D01*
X29478040Y45740730D01*
X29484775Y45678061D01*
X29469232Y45636301D01*
X29419732Y45552600D01*
X29374370Y45396466D01*
X29374370Y45396465D01*
X29371500Y45359999D01*
X29371500Y44960013D01*
X29374370Y44923536D01*
X29406738Y44812127D01*
X29415954Y44780403D01*
X29419732Y44767401D01*
X29451231Y44714138D01*
X29468690Y44645321D01*
X29451231Y44585862D01*
X29419732Y44532600D01*
X29374370Y44376466D01*
X29374370Y44376465D01*
X29371500Y44339999D01*
X29371500Y43940013D01*
X29374370Y43903536D01*
X29419732Y43747400D01*
X29502492Y43607461D01*
X29502494Y43607459D01*
X29578996Y43530957D01*
X29613020Y43468647D01*
X29615900Y43441863D01*
X29615900Y41711430D01*
X29595898Y41643309D01*
X29594666Y41641429D01*
X29531754Y41547274D01*
X29468532Y41394643D01*
X29468531Y41394642D01*
X29436300Y41232608D01*
X29436300Y41067393D01*
X29468531Y40905360D01*
X29531754Y40752727D01*
X29575730Y40686912D01*
X29594665Y40658574D01*
X29615880Y40590821D01*
X29615900Y40588572D01*
X29615900Y39322425D01*
X29615899Y39322425D01*
X29648196Y39201894D01*
X29655747Y39173714D01*
X29712043Y39076206D01*
X29712046Y39076201D01*
X29732724Y39040385D01*
X33378395Y35394715D01*
X33412421Y35332403D01*
X33415300Y35305620D01*
X33415300Y34787981D01*
X33395298Y34719860D01*
X33341642Y34673367D01*
X33271368Y34663263D01*
X33206788Y34692757D01*
X33200205Y34698886D01*
X26555005Y41344086D01*
X26520979Y41406398D01*
X26518100Y41433181D01*
X26518100Y43505699D01*
X26538102Y43573820D01*
X26591758Y43620313D01*
X26662032Y43630417D01*
X26726612Y43600923D01*
X26733195Y43594794D01*
X26734674Y43593315D01*
X26734681Y43593309D01*
X26875599Y43509971D01*
X27032829Y43464291D01*
X27032824Y43464291D01*
X27050999Y43462861D01*
X27051000Y43462861D01*
X27559000Y43462861D01*
X27577173Y43464291D01*
X27734400Y43509971D01*
X27875318Y43593309D01*
X27875325Y43593315D01*
X27991085Y43709075D01*
X27991091Y43709082D01*
X28074429Y43849999D01*
X28116673Y43995400D01*
X27559000Y43995400D01*
X27559000Y43462861D01*
X27051000Y43462861D01*
X27051000Y44123400D01*
X27071002Y44191521D01*
X27124658Y44238014D01*
X27177000Y44249400D01*
X27305000Y44249400D01*
X27305000Y44294900D01*
X27306234Y44299104D01*
X27305286Y44303379D01*
X27316147Y44332866D01*
X27325002Y44363021D01*
X27328312Y44365890D01*
X27329826Y44369999D01*
X27354905Y44388933D01*
X27378658Y44409514D01*
X27383983Y44410885D01*
X27386489Y44412776D01*
X27403140Y44415816D01*
X27421502Y44420541D01*
X27426251Y44420900D01*
X27540484Y44420900D01*
X27577254Y44423794D01*
X27616900Y44435313D01*
X27629972Y44436301D01*
X27652387Y44431521D01*
X27675312Y44431455D01*
X27687675Y44427074D01*
X27745960Y44402931D01*
X27907995Y44370700D01*
X27907996Y44370700D01*
X28073204Y44370700D01*
X28073205Y44370700D01*
X28235240Y44402931D01*
X28387873Y44466154D01*
X28525240Y44557939D01*
X28642061Y44674760D01*
X28733846Y44812127D01*
X28797069Y44964760D01*
X28829300Y45126795D01*
X28829300Y45292005D01*
X28797069Y45454040D01*
X28733846Y45606673D01*
X28646912Y45736779D01*
X28625698Y45804531D01*
X28644481Y45872998D01*
X28697299Y45920441D01*
X28716525Y45927777D01*
X28829400Y45960571D01*
X28970318Y46043909D01*
X28970325Y46043915D01*
X29086085Y46159675D01*
X29086091Y46159682D01*
X29169429Y46300600D01*
X29214703Y46456428D01*
X29252916Y46516264D01*
X29317413Y46545941D01*
X29387715Y46536037D01*
G37*
%TD.AperFunction*%
%TA.AperFunction,Conductor*%
G36*
X6492696Y40875783D02*
G01*
X6515192Y40857918D01*
X9482124Y37890986D01*
X9590986Y37782124D01*
X9724314Y37705147D01*
X9873023Y37665300D01*
X18555620Y37665300D01*
X18623741Y37645298D01*
X18644715Y37628395D01*
X20763695Y35509415D01*
X20797721Y35447103D01*
X20792656Y35376288D01*
X20750109Y35319452D01*
X20683589Y35294641D01*
X20674600Y35294320D01*
X11244760Y35294320D01*
X11176639Y35314322D01*
X11155665Y35331225D01*
X6316192Y40170698D01*
X6282166Y40233010D01*
X6280838Y40279495D01*
X6311500Y40473084D01*
X6311500Y40686916D01*
X6301648Y40749116D01*
X6310747Y40819522D01*
X6356469Y40873837D01*
X6424297Y40894810D01*
X6492696Y40875783D01*
G37*
%TD.AperFunction*%
%TA.AperFunction,Conductor*%
G36*
X33071513Y55102698D02*
G01*
X33092487Y55085795D01*
X33209471Y54968811D01*
X33209473Y54968810D01*
X33213371Y54964912D01*
X33239158Y54949662D01*
X33241199Y54948345D01*
X33262867Y54923253D01*
X33285490Y54899025D01*
X33286133Y54896312D01*
X33287602Y54894611D01*
X33289194Y54883399D01*
X33298900Y54842462D01*
X33298900Y54705193D01*
X33323883Y54579597D01*
X33331131Y54543160D01*
X33394354Y54390527D01*
X33477666Y54265842D01*
X33486140Y54253159D01*
X33486145Y54253153D01*
X33602952Y54136346D01*
X33602958Y54136341D01*
X33602960Y54136339D01*
X33740327Y54044554D01*
X33892960Y53981331D01*
X34054995Y53949100D01*
X34054996Y53949100D01*
X34220204Y53949100D01*
X34220205Y53949100D01*
X34382240Y53981331D01*
X34534873Y54044554D01*
X34672240Y54136339D01*
X34789061Y54253160D01*
X34880846Y54390527D01*
X34944069Y54543160D01*
X34976300Y54705195D01*
X34976300Y54747536D01*
X34996302Y54815657D01*
X35049958Y54862150D01*
X35067148Y54868533D01*
X35113399Y54881970D01*
X35113400Y54881971D01*
X35254318Y54965309D01*
X35254325Y54965315D01*
X35350205Y55061194D01*
X35412517Y55095220D01*
X35483332Y55090155D01*
X35540168Y55047608D01*
X35564979Y54981088D01*
X35565300Y54972099D01*
X35565300Y54257625D01*
X35565299Y54257625D01*
X35605147Y54108914D01*
X35640719Y54047302D01*
X35657600Y53984302D01*
X35657600Y53048025D01*
X35657599Y53048025D01*
X35697447Y52899314D01*
X35774421Y52765990D01*
X35774423Y52765988D01*
X35774424Y52765986D01*
X36020596Y52519814D01*
X36054620Y52457503D01*
X36057500Y52430720D01*
X36057500Y51922289D01*
X36060437Y51884972D01*
X36060437Y51884971D01*
X36106856Y51725195D01*
X36191544Y51581997D01*
X36191549Y51581990D01*
X36309193Y51464346D01*
X36310469Y51463356D01*
X36311212Y51462327D01*
X36314798Y51458741D01*
X36314219Y51458163D01*
X36352034Y51405798D01*
X36355881Y51334906D01*
X36320791Y51273187D01*
X36310469Y51264244D01*
X36309193Y51263255D01*
X36191549Y51145611D01*
X36191544Y51145604D01*
X36106856Y51002406D01*
X36060437Y50842630D01*
X36060437Y50842629D01*
X36057500Y50805312D01*
X36057500Y49647289D01*
X36060437Y49609972D01*
X36060437Y49609971D01*
X36106856Y49450195D01*
X36191544Y49306997D01*
X36191549Y49306990D01*
X36309189Y49189350D01*
X36309196Y49189345D01*
X36452394Y49104657D01*
X36452397Y49104657D01*
X36452399Y49104655D01*
X36612169Y49058238D01*
X36649488Y49055301D01*
X36649489Y49055300D01*
X37067497Y49055300D01*
X37135618Y49035298D01*
X37160021Y49014830D01*
X37179461Y48993800D01*
X37840000Y48993800D01*
X37848825Y48991209D01*
X37857932Y48992518D01*
X37882357Y48981363D01*
X37908121Y48973798D01*
X37914145Y48966845D01*
X37922512Y48963024D01*
X37937026Y48940439D01*
X37954614Y48920142D01*
X37956938Y48909456D01*
X37960896Y48903298D01*
X37966000Y48867800D01*
X37966000Y48658881D01*
X37945998Y48590760D01*
X37929095Y48569786D01*
X37882014Y48522705D01*
X37819702Y48488679D01*
X37792919Y48485800D01*
X37179461Y48485800D01*
X37180890Y48467627D01*
X37226569Y48310402D01*
X37277171Y48224840D01*
X37294631Y48156023D01*
X37272115Y48088692D01*
X37216770Y48044223D01*
X37168718Y48034700D01*
X34698023Y48034700D01*
X34598883Y48008136D01*
X34549313Y47994853D01*
X34442003Y47932897D01*
X34440836Y47932223D01*
X34428411Y47925050D01*
X34415987Y47917877D01*
X34415979Y47917871D01*
X33421014Y46922905D01*
X33358702Y46888879D01*
X33331919Y46886000D01*
X32854000Y46886000D01*
X32854000Y46408081D01*
X32833998Y46339960D01*
X32817098Y46318990D01*
X32610541Y46112432D01*
X32479293Y45981184D01*
X32472982Y45977739D01*
X32468857Y45971848D01*
X32442232Y45960948D01*
X32416981Y45947159D01*
X32408216Y45947021D01*
X32403154Y45944948D01*
X32371263Y45946438D01*
X32367319Y45946375D01*
X32366439Y45946538D01*
X32252005Y45969300D01*
X32243167Y45969300D01*
X32231821Y45971395D01*
X32210021Y45982419D01*
X32186579Y45989302D01*
X32178911Y45998151D01*
X32168464Y46003434D01*
X32156084Y46024495D01*
X32140086Y46042958D01*
X32137062Y46056856D01*
X32132487Y46064640D01*
X32132933Y46075841D01*
X32128700Y46095300D01*
X32128700Y46244927D01*
X32148702Y46313048D01*
X32202358Y46359541D01*
X32272632Y46369645D01*
X32289855Y46365923D01*
X32327825Y46354891D01*
X32327824Y46354891D01*
X32345999Y46353461D01*
X32346000Y46353461D01*
X32346000Y47014000D01*
X32366002Y47082121D01*
X32419658Y47128614D01*
X32472000Y47140000D01*
X32600000Y47140000D01*
X32600000Y47185500D01*
X32620002Y47253621D01*
X32673658Y47300114D01*
X32726000Y47311500D01*
X32835493Y47311500D01*
X32835493Y47311501D01*
X32872254Y47314394D01*
X33029597Y47360106D01*
X33057240Y47376454D01*
X33121379Y47394000D01*
X33411673Y47394000D01*
X33369429Y47539401D01*
X33359986Y47555368D01*
X33342525Y47624184D01*
X33359987Y47683652D01*
X33369894Y47700403D01*
X33415606Y47857746D01*
X33418499Y47894507D01*
X33418500Y47894507D01*
X33418500Y48305493D01*
X33418499Y48305494D01*
X33418128Y48310203D01*
X33415606Y48342254D01*
X33407862Y48368909D01*
X33408065Y48439906D01*
X33424095Y48474065D01*
X33443243Y48502722D01*
X33443243Y48502724D01*
X33443246Y48502727D01*
X33506469Y48655360D01*
X33538700Y48817395D01*
X33538700Y48982605D01*
X33506469Y49144640D01*
X33443246Y49297273D01*
X33351461Y49434640D01*
X33351459Y49434642D01*
X33351454Y49434648D01*
X33234647Y49551455D01*
X33234641Y49551460D01*
X33233850Y49551989D01*
X33097273Y49643246D01*
X32944641Y49706469D01*
X32782607Y49738700D01*
X32782605Y49738700D01*
X32617395Y49738700D01*
X32617392Y49738700D01*
X32455358Y49706469D01*
X32455357Y49706468D01*
X32446316Y49702723D01*
X32312510Y49647298D01*
X32302725Y49643245D01*
X32165358Y49551460D01*
X32165352Y49551455D01*
X32048545Y49434648D01*
X32048540Y49434642D01*
X31956755Y49297275D01*
X31893532Y49144643D01*
X31893531Y49144642D01*
X31883165Y49092527D01*
X31850257Y49029617D01*
X31788562Y48994486D01*
X31717667Y48998287D01*
X31711371Y49000699D01*
X31688287Y49010260D01*
X31571768Y49025600D01*
X31571766Y49025600D01*
X31318634Y49025600D01*
X31318631Y49025600D01*
X31202112Y49010260D01*
X31202105Y49010258D01*
X31167762Y48996033D01*
X31097173Y48988444D01*
X31071329Y48996033D01*
X31038157Y49009773D01*
X30970199Y49018721D01*
X30938977Y48991339D01*
X30922211Y48983562D01*
X30908242Y48971457D01*
X30890673Y48968931D01*
X30874573Y48961462D01*
X30856263Y48963984D01*
X30837968Y48961353D01*
X30821822Y48968727D01*
X30804240Y48971148D01*
X30790198Y48983170D01*
X30773388Y48990847D01*
X30763793Y49005777D01*
X30750309Y49017321D01*
X30744995Y49035026D01*
X30735004Y49050573D01*
X30730104Y49084646D01*
X30729902Y49085322D01*
X30729900Y49086071D01*
X30729900Y49151209D01*
X30749902Y49219330D01*
X30766801Y49240301D01*
X30796661Y49270160D01*
X30888446Y49407527D01*
X30951669Y49560160D01*
X30983900Y49722195D01*
X30983900Y49887405D01*
X30951669Y50049440D01*
X30888446Y50202073D01*
X30796661Y50339440D01*
X30796659Y50339442D01*
X30796654Y50339448D01*
X30679847Y50456255D01*
X30679841Y50456260D01*
X30654754Y50473023D01*
X30542473Y50548046D01*
X30389841Y50611269D01*
X30227807Y50643500D01*
X30227805Y50643500D01*
X30185581Y50643500D01*
X30117460Y50663502D01*
X30096486Y50680405D01*
X29821605Y50955286D01*
X29787579Y51017598D01*
X29784700Y51044381D01*
X29784700Y51982463D01*
X29804702Y52050584D01*
X29821600Y52071554D01*
X29897506Y52147459D01*
X29980269Y52287404D01*
X30025629Y52443534D01*
X30028500Y52480011D01*
X30028499Y52879988D01*
X30025629Y52916466D01*
X29980269Y53072596D01*
X29948767Y53125863D01*
X29945445Y53138954D01*
X29937725Y53150040D01*
X29936883Y53172699D01*
X29931308Y53194675D01*
X29935533Y53209067D01*
X29935091Y53220988D01*
X29948766Y53254137D01*
X29959430Y53272169D01*
X30011324Y53320620D01*
X30081174Y53333325D01*
X30116100Y53324437D01*
X30130352Y53318534D01*
X30130354Y53318534D01*
X30130360Y53318531D01*
X30292395Y53286300D01*
X30292396Y53286300D01*
X30457604Y53286300D01*
X30457605Y53286300D01*
X30619640Y53318531D01*
X30772273Y53381754D01*
X30909640Y53473539D01*
X31026461Y53590360D01*
X31118246Y53727727D01*
X31181469Y53880360D01*
X31202706Y53987127D01*
X31235614Y54050035D01*
X31297309Y54085167D01*
X31309839Y54087466D01*
X31322130Y54089085D01*
X31460908Y54146567D01*
X31580085Y54238015D01*
X31671533Y54357192D01*
X31729015Y54495970D01*
X31743699Y54607504D01*
X31743700Y54607513D01*
X31743700Y54947901D01*
X31763702Y55016022D01*
X31817358Y55062515D01*
X31869698Y55073901D01*
X32210624Y55073901D01*
X32322261Y55088597D01*
X32381438Y55113109D01*
X32429656Y55122700D01*
X33003392Y55122700D01*
X33071513Y55102698D01*
G37*
%TD.AperFunction*%
%TA.AperFunction,Conductor*%
G36*
X38191133Y60635075D02*
G01*
X38247968Y60592528D01*
X38272779Y60526008D01*
X38273100Y60517019D01*
X38273100Y59945349D01*
X38279609Y59884802D01*
X38279611Y59884794D01*
X38330710Y59747796D01*
X38330712Y59747791D01*
X38418338Y59630737D01*
X38535391Y59543112D01*
X38535392Y59543112D01*
X38535396Y59543109D01*
X38597536Y59519932D01*
X38654368Y59477387D01*
X38679179Y59410867D01*
X38679500Y59401878D01*
X38679500Y59069505D01*
X38703490Y58948902D01*
X38704898Y58941823D01*
X38754718Y58821546D01*
X38827045Y58713301D01*
X38827046Y58713300D01*
X38827047Y58713299D01*
X41452195Y56088152D01*
X41486221Y56025840D01*
X41489100Y55999057D01*
X41489100Y49300944D01*
X41469098Y49232823D01*
X41452195Y49211849D01*
X39963151Y47722805D01*
X39900839Y47688779D01*
X39874056Y47685900D01*
X39233362Y47685900D01*
X39165241Y47705902D01*
X39118748Y47759558D01*
X39108644Y47829832D01*
X39138138Y47894412D01*
X39197864Y47932796D01*
X39198057Y47932853D01*
X39325597Y47969906D01*
X39466629Y48053312D01*
X39582488Y48169171D01*
X39665894Y48310203D01*
X39711606Y48467546D01*
X39714499Y48504307D01*
X39714500Y48504307D01*
X39714500Y48975293D01*
X39714499Y48975294D01*
X39714021Y48981363D01*
X39711606Y49012054D01*
X39665894Y49169397D01*
X39582488Y49310429D01*
X39559278Y49333639D01*
X39525254Y49395948D01*
X39527376Y49457882D01*
X39571562Y49609969D01*
X39574499Y49647289D01*
X39574500Y49647289D01*
X39574500Y50805311D01*
X39574499Y50805312D01*
X39574472Y50805650D01*
X39571562Y50842631D01*
X39525145Y51002401D01*
X39525143Y51002403D01*
X39525143Y51002406D01*
X39440455Y51145604D01*
X39440450Y51145611D01*
X39322810Y51263251D01*
X39321536Y51264239D01*
X39320792Y51265269D01*
X39317202Y51268859D01*
X39317781Y51269439D01*
X39279968Y51321794D01*
X39276116Y51392686D01*
X39311202Y51454407D01*
X39321536Y51463361D01*
X39322805Y51464346D01*
X39322807Y51464347D01*
X39440453Y51581993D01*
X39499436Y51681729D01*
X39551328Y51730180D01*
X39621179Y51742885D01*
X39656108Y51733996D01*
X39750648Y51694835D01*
X39750656Y51694833D01*
X39750660Y51694831D01*
X39912695Y51662600D01*
X39912696Y51662600D01*
X40077904Y51662600D01*
X40077905Y51662600D01*
X40239940Y51694831D01*
X40392573Y51758054D01*
X40529940Y51849839D01*
X40646761Y51966660D01*
X40738546Y52104027D01*
X40801769Y52256660D01*
X40834000Y52418695D01*
X40834000Y52583905D01*
X40801769Y52745940D01*
X40738546Y52898573D01*
X40646761Y53035940D01*
X40646759Y53035942D01*
X40646754Y53035948D01*
X40529947Y53152755D01*
X40529941Y53152760D01*
X40502946Y53170798D01*
X40392573Y53244546D01*
X40239941Y53307769D01*
X40077907Y53340000D01*
X40077905Y53340000D01*
X39912695Y53340000D01*
X39912692Y53340000D01*
X39750658Y53307769D01*
X39750657Y53307768D01*
X39696683Y53285411D01*
X39670229Y53274453D01*
X39656108Y53268604D01*
X39626257Y53265395D01*
X39596817Y53259500D01*
X39591352Y53261643D01*
X39585518Y53261015D01*
X39558672Y53274453D01*
X39530718Y53285411D01*
X39525924Y53290845D01*
X39522031Y53292794D01*
X39505782Y53311187D01*
X39502387Y53315883D01*
X39440453Y53420607D01*
X39390683Y53470377D01*
X39384789Y53478529D01*
X39376159Y53502892D01*
X39363775Y53525572D01*
X39364506Y53535794D01*
X39361085Y53545452D01*
X39366996Y53570610D01*
X39368840Y53596387D01*
X39377134Y53613754D01*
X39377325Y53614566D01*
X39377691Y53614921D01*
X39378443Y53616494D01*
X39439892Y53720399D01*
X39439892Y53720401D01*
X39439894Y53720403D01*
X39485606Y53877746D01*
X39488499Y53914507D01*
X39488500Y53914507D01*
X39488500Y54385493D01*
X39488499Y54385494D01*
X39485606Y54422252D01*
X39485606Y54422253D01*
X39485606Y54422254D01*
X39439894Y54579597D01*
X39356488Y54720629D01*
X39356486Y54720631D01*
X39356483Y54720635D01*
X39240634Y54836484D01*
X39240630Y54836487D01*
X39240629Y54836488D01*
X39099597Y54919894D01*
X39020925Y54942750D01*
X38942252Y54965607D01*
X38905493Y54968500D01*
X38905484Y54968500D01*
X38494516Y54968500D01*
X38494507Y54968500D01*
X38457748Y54965607D01*
X38457744Y54965606D01*
X38300405Y54919896D01*
X38283643Y54909983D01*
X38214826Y54892526D01*
X38155369Y54909986D01*
X38139400Y54919430D01*
X38139402Y54919430D01*
X37994000Y54961674D01*
X37994000Y54671380D01*
X37976454Y54607242D01*
X37960107Y54579601D01*
X37914393Y54422253D01*
X37914393Y54422252D01*
X37911500Y54385494D01*
X37911500Y53914507D01*
X37914393Y53877749D01*
X37914393Y53877748D01*
X37920898Y53855359D01*
X37957978Y53727726D01*
X37960107Y53720401D01*
X38043510Y53579374D01*
X38043561Y53579309D01*
X38043584Y53579250D01*
X38047547Y53572549D01*
X38046466Y53571910D01*
X38052167Y53557388D01*
X38064896Y53537582D01*
X38067757Y53517679D01*
X38069507Y53513223D01*
X38070000Y53502084D01*
X38070000Y53418645D01*
X38052454Y53354507D01*
X38006856Y53277405D01*
X37960437Y53117630D01*
X37960437Y53117629D01*
X37957500Y53080312D01*
X37957500Y51922289D01*
X37960437Y51884972D01*
X37960437Y51884971D01*
X37970644Y51849839D01*
X38006855Y51725199D01*
X38043875Y51662601D01*
X38052453Y51648098D01*
X38070000Y51583958D01*
X38070000Y51333808D01*
X38073683Y51331042D01*
X38116148Y51274146D01*
X38121112Y51203323D01*
X38094002Y51153734D01*
X38096405Y51151870D01*
X38091544Y51145604D01*
X38006856Y51002406D01*
X37960437Y50842630D01*
X37960437Y50842629D01*
X37957500Y50805312D01*
X37957500Y49683800D01*
X37954908Y49674975D01*
X37956218Y49665868D01*
X37945062Y49641443D01*
X37937498Y49615679D01*
X37930544Y49609655D01*
X37926724Y49601288D01*
X37904138Y49586774D01*
X37883842Y49569186D01*
X37873155Y49566862D01*
X37866998Y49562904D01*
X37831500Y49557800D01*
X37800500Y49557800D01*
X37732379Y49577802D01*
X37685886Y49631458D01*
X37674500Y49683800D01*
X37674500Y50805311D01*
X37674499Y50805312D01*
X37674472Y50805650D01*
X37671562Y50842631D01*
X37625145Y51002401D01*
X37625143Y51002403D01*
X37625143Y51002406D01*
X37540455Y51145604D01*
X37535595Y51151870D01*
X37538015Y51153748D01*
X37510848Y51203499D01*
X37515913Y51274314D01*
X37558317Y51331043D01*
X37562000Y51333809D01*
X37562000Y51583958D01*
X37579547Y51648098D01*
X37625145Y51725199D01*
X37671562Y51884969D01*
X37674499Y51922289D01*
X37674500Y51922289D01*
X37674500Y53080311D01*
X37674499Y53080312D01*
X37671562Y53117629D01*
X37671562Y53117630D01*
X37671562Y53117631D01*
X37625145Y53277401D01*
X37625143Y53277405D01*
X37625143Y53277406D01*
X37540455Y53420604D01*
X37540450Y53420611D01*
X37522905Y53438156D01*
X37488879Y53500468D01*
X37486000Y53527251D01*
X37486000Y54961674D01*
X37340598Y54919430D01*
X37199681Y54836092D01*
X37199674Y54836086D01*
X37083914Y54720326D01*
X37083908Y54720319D01*
X37000570Y54579402D01*
X36990009Y54543049D01*
X36978587Y54525166D01*
X36971648Y54505115D01*
X36959863Y54495848D01*
X36951795Y54483214D01*
X36932521Y54474346D01*
X36915841Y54461228D01*
X36900916Y54459804D01*
X36887299Y54453537D01*
X36866288Y54456497D01*
X36845166Y54454480D01*
X36831840Y54461350D01*
X36816996Y54463441D01*
X36800920Y54477291D01*
X36782062Y54487013D01*
X36766150Y54507247D01*
X36763208Y54509781D01*
X36759892Y54515204D01*
X36751580Y54529601D01*
X36734700Y54592600D01*
X36734700Y58326976D01*
X36730163Y58343910D01*
X36694853Y58475686D01*
X36689412Y58485110D01*
X36656364Y58542351D01*
X36656363Y58542352D01*
X36648230Y58556438D01*
X36617876Y58609015D01*
X36427866Y58799025D01*
X36423354Y58807288D01*
X36415835Y58812957D01*
X36406610Y58837952D01*
X36393843Y58861334D01*
X36394514Y58870728D01*
X36391254Y58879563D01*
X36397006Y58905577D01*
X36398907Y58932150D01*
X36404957Y58941530D01*
X36406584Y58948884D01*
X36419094Y58963444D01*
X36428175Y58977520D01*
X36436222Y58985513D01*
X36439014Y58987124D01*
X36547876Y59095986D01*
X36547875Y59095986D01*
X38058007Y60606117D01*
X38120317Y60640140D01*
X38191133Y60635075D01*
G37*
%TD.AperFunction*%
%TA.AperFunction,Conductor*%
G36*
X27700420Y51469366D02*
G01*
X27757256Y51426819D01*
X27761147Y51421321D01*
X27798539Y51365360D01*
X27798540Y51365359D01*
X27798543Y51365355D01*
X27915350Y51248548D01*
X27915355Y51248544D01*
X27915360Y51248539D01*
X27915365Y51248536D01*
X27919231Y51245363D01*
X27959201Y51186687D01*
X27965300Y51147961D01*
X27965300Y50473025D01*
X27965299Y50473025D01*
X27969793Y50456255D01*
X28005147Y50324314D01*
X28073948Y50205147D01*
X28082124Y50190986D01*
X28082126Y50190983D01*
X28596454Y49676655D01*
X28630480Y49614343D01*
X28625415Y49543528D01*
X28612125Y49517559D01*
X28531754Y49397274D01*
X28498289Y49316481D01*
X28453740Y49261201D01*
X28386377Y49238780D01*
X28381880Y49238700D01*
X28317392Y49238700D01*
X28155358Y49206469D01*
X28155357Y49206468D01*
X28114031Y49189350D01*
X28006093Y49144640D01*
X28002725Y49143245D01*
X27865358Y49051460D01*
X27801638Y48987740D01*
X27739325Y48953715D01*
X27668510Y48958781D01*
X27635840Y48976873D01*
X27621472Y48987898D01*
X27610319Y48992518D01*
X27476485Y49047954D01*
X27359968Y49063293D01*
X27359966Y49063293D01*
X27106834Y49063293D01*
X27106831Y49063293D01*
X26990312Y49047953D01*
X26990305Y49047951D01*
X26955962Y49033726D01*
X26885373Y49026137D01*
X26859529Y49033726D01*
X26826357Y49047466D01*
X26758399Y49056414D01*
X26727177Y49029032D01*
X26662773Y48999155D01*
X26592440Y49008841D01*
X26538509Y49055014D01*
X26518102Y49123015D01*
X26518100Y49123764D01*
X26518100Y49479809D01*
X26538102Y49547930D01*
X26547993Y49560198D01*
X26547534Y49560575D01*
X26551465Y49565365D01*
X26643243Y49702723D01*
X26643244Y49702724D01*
X26643245Y49702726D01*
X26643246Y49702727D01*
X26706469Y49855360D01*
X26738700Y50017395D01*
X26738700Y50182605D01*
X26706469Y50344640D01*
X26706467Y50344644D01*
X26706465Y50344652D01*
X26669875Y50432986D01*
X26662285Y50503576D01*
X26694064Y50567063D01*
X26697160Y50570272D01*
X27567295Y51440407D01*
X27629605Y51474431D01*
X27700420Y51469366D01*
G37*
%TD.AperFunction*%
%TA.AperFunction,Conductor*%
G36*
X34912721Y57917398D02*
G01*
X34959214Y57863742D01*
X34970600Y57811400D01*
X34970600Y57064991D01*
X34950598Y56996870D01*
X34945200Y56990172D01*
X34945200Y56589674D01*
X34965121Y56553192D01*
X34968000Y56526409D01*
X34968000Y55777400D01*
X34965408Y55768575D01*
X34966718Y55759468D01*
X34955562Y55735043D01*
X34947998Y55709279D01*
X34941044Y55703255D01*
X34937224Y55694888D01*
X34914638Y55680374D01*
X34894342Y55662786D01*
X34883655Y55660462D01*
X34877498Y55656504D01*
X34842000Y55651400D01*
X34668500Y55651400D01*
X34600379Y55671402D01*
X34553886Y55725058D01*
X34542500Y55777400D01*
X34542500Y55886893D01*
X34542499Y55886894D01*
X34541097Y55904702D01*
X34539606Y55923654D01*
X34493894Y56080997D01*
X34466546Y56127240D01*
X34449087Y56196052D01*
X34466551Y56255523D01*
X34471094Y56263203D01*
X34516806Y56420546D01*
X34519699Y56457307D01*
X34519700Y56457307D01*
X34519700Y56928293D01*
X34519699Y56928294D01*
X34519199Y56934642D01*
X34516806Y56965054D01*
X34471094Y57122397D01*
X34471092Y57122401D01*
X34454746Y57150042D01*
X34450325Y57166201D01*
X34442304Y57178682D01*
X34437200Y57214180D01*
X34437200Y57373074D01*
X34454746Y57437212D01*
X34496494Y57507803D01*
X34542206Y57665146D01*
X34545099Y57701907D01*
X34545100Y57701907D01*
X34545100Y57811400D01*
X34547691Y57820226D01*
X34546382Y57829332D01*
X34557537Y57853758D01*
X34565102Y57879521D01*
X34572055Y57885546D01*
X34575876Y57893912D01*
X34598461Y57908427D01*
X34618758Y57926014D01*
X34629444Y57928339D01*
X34635602Y57932296D01*
X34671100Y57937400D01*
X34844600Y57937400D01*
X34912721Y57917398D01*
G37*
%TD.AperFunction*%
%TA.AperFunction,Conductor*%
G36*
X30399137Y58963598D02*
G01*
X30399139Y58963597D01*
X30510775Y58948900D01*
X30710624Y58948901D01*
X30710834Y58948929D01*
X30710896Y58948919D01*
X30714747Y58949171D01*
X30714803Y58948311D01*
X30780984Y58938007D01*
X30834094Y58890892D01*
X30853300Y58822542D01*
X30852235Y58807595D01*
X30852201Y58807341D01*
X30852200Y58807318D01*
X30852200Y58607477D01*
X30852201Y58607468D01*
X30866896Y58495843D01*
X30868459Y58490012D01*
X30868459Y58424792D01*
X30866897Y58418964D01*
X30852200Y58307327D01*
X30852200Y58107477D01*
X30852201Y58107468D01*
X30866896Y57995843D01*
X30868459Y57990012D01*
X30868459Y57924792D01*
X30866897Y57918964D01*
X30852200Y57807327D01*
X30852200Y57607477D01*
X30852201Y57607468D01*
X30866896Y57495843D01*
X30868459Y57490012D01*
X30868459Y57424792D01*
X30866897Y57418964D01*
X30852200Y57307327D01*
X30852200Y57107477D01*
X30852201Y57107468D01*
X30866896Y56995843D01*
X30868459Y56990012D01*
X30868459Y56924792D01*
X30866897Y56918964D01*
X30852200Y56807327D01*
X30852200Y56607477D01*
X30852201Y56607468D01*
X30866896Y56495843D01*
X30868459Y56490012D01*
X30868459Y56424792D01*
X30866897Y56418964D01*
X30852200Y56307327D01*
X30852200Y56107477D01*
X30852201Y56107473D01*
X30852232Y56107239D01*
X30852221Y56107170D01*
X30852471Y56103353D01*
X30851617Y56103298D01*
X30841294Y56037091D01*
X30794166Y55983991D01*
X30725813Y55964800D01*
X30710890Y55965866D01*
X30710645Y55965899D01*
X30710627Y55965900D01*
X30710625Y55965900D01*
X30710617Y55965900D01*
X30510776Y55965900D01*
X30510767Y55965899D01*
X30399137Y55951203D01*
X30393309Y55949641D01*
X30328089Y55949641D01*
X30322258Y55951204D01*
X30262570Y55959062D01*
X30210625Y55965900D01*
X30210621Y55965900D01*
X30010776Y55965900D01*
X30010767Y55965899D01*
X29899137Y55951203D01*
X29893309Y55949641D01*
X29828089Y55949641D01*
X29822258Y55951204D01*
X29762570Y55959062D01*
X29710625Y55965900D01*
X29710621Y55965900D01*
X29510776Y55965900D01*
X29510767Y55965899D01*
X29399137Y55951203D01*
X29393309Y55949641D01*
X29328089Y55949641D01*
X29322258Y55951204D01*
X29262570Y55959062D01*
X29210625Y55965900D01*
X29210621Y55965900D01*
X29010776Y55965900D01*
X29010767Y55965899D01*
X28899137Y55951203D01*
X28893309Y55949641D01*
X28828089Y55949641D01*
X28822258Y55951204D01*
X28762570Y55959062D01*
X28710625Y55965900D01*
X28710621Y55965900D01*
X28510776Y55965900D01*
X28510767Y55965899D01*
X28399137Y55951203D01*
X28393309Y55949641D01*
X28328089Y55949641D01*
X28322258Y55951204D01*
X28262570Y55959062D01*
X28210625Y55965900D01*
X28210621Y55965900D01*
X28010776Y55965900D01*
X28010764Y55965899D01*
X28010535Y55965868D01*
X28010466Y55965879D01*
X28006653Y55965629D01*
X28006597Y55966483D01*
X27940386Y55976808D01*
X27887288Y56023937D01*
X27868099Y56092291D01*
X27869167Y56107225D01*
X27869200Y56107475D01*
X27869199Y56307324D01*
X27854503Y56418961D01*
X27854501Y56418965D01*
X27852941Y56424789D01*
X27852942Y56490013D01*
X27854500Y56495833D01*
X27854503Y56495839D01*
X27869200Y56607475D01*
X27869199Y56807324D01*
X27854503Y56918961D01*
X27854501Y56918965D01*
X27852941Y56924789D01*
X27852942Y56990013D01*
X27854500Y56995833D01*
X27854503Y56995839D01*
X27869200Y57107475D01*
X27869199Y57307324D01*
X27854503Y57418961D01*
X27854501Y57418965D01*
X27852941Y57424789D01*
X27852942Y57490013D01*
X27854500Y57495833D01*
X27854503Y57495839D01*
X27869200Y57607475D01*
X27869199Y57807324D01*
X27868662Y57811400D01*
X27856139Y57906534D01*
X27854503Y57918961D01*
X27854501Y57918965D01*
X27852941Y57924789D01*
X27852942Y57990013D01*
X27854500Y57995833D01*
X27854503Y57995839D01*
X27869200Y58107475D01*
X27869199Y58307324D01*
X27854503Y58418961D01*
X27854501Y58418965D01*
X27852941Y58424789D01*
X27852942Y58490013D01*
X27854500Y58495833D01*
X27854503Y58495839D01*
X27869200Y58607475D01*
X27869199Y58807324D01*
X27869170Y58807541D01*
X27869180Y58807606D01*
X27868929Y58811447D01*
X27869787Y58811504D01*
X27880095Y58877688D01*
X27927212Y58930797D01*
X27995561Y58950001D01*
X28010529Y58948933D01*
X28010775Y58948900D01*
X28210624Y58948901D01*
X28210860Y58948932D01*
X28218980Y58950001D01*
X28322261Y58963597D01*
X28322269Y58963601D01*
X28328086Y58965158D01*
X28393310Y58965159D01*
X28399137Y58963598D01*
X28399139Y58963597D01*
X28510775Y58948900D01*
X28710624Y58948901D01*
X28710860Y58948932D01*
X28718980Y58950001D01*
X28822261Y58963597D01*
X28822269Y58963601D01*
X28828086Y58965158D01*
X28893310Y58965159D01*
X28899137Y58963598D01*
X28899139Y58963597D01*
X29010775Y58948900D01*
X29210624Y58948901D01*
X29210860Y58948932D01*
X29218980Y58950001D01*
X29322261Y58963597D01*
X29322269Y58963601D01*
X29328086Y58965158D01*
X29393310Y58965159D01*
X29399137Y58963598D01*
X29399139Y58963597D01*
X29510775Y58948900D01*
X29710624Y58948901D01*
X29710860Y58948932D01*
X29718980Y58950001D01*
X29822261Y58963597D01*
X29822269Y58963601D01*
X29828086Y58965158D01*
X29893310Y58965159D01*
X29899137Y58963598D01*
X29899139Y58963597D01*
X30010775Y58948900D01*
X30210624Y58948901D01*
X30210860Y58948932D01*
X30218980Y58950001D01*
X30322261Y58963597D01*
X30322269Y58963601D01*
X30328086Y58965158D01*
X30393310Y58965159D01*
X30399137Y58963598D01*
G37*
%TD.AperFunction*%
%TA.AperFunction,Conductor*%
G36*
X35547622Y67650598D02*
G01*
X35594115Y67596942D01*
X35605501Y67544600D01*
X35605501Y67212704D01*
X35608434Y67175410D01*
X35654818Y67015760D01*
X35739448Y66872659D01*
X35739449Y66872657D01*
X35856996Y66755110D01*
X35856998Y66755109D01*
X36000098Y66670479D01*
X36159751Y66624095D01*
X36159750Y66624095D01*
X36192091Y66621550D01*
X36258433Y66596266D01*
X36300574Y66539129D01*
X36305135Y66468279D01*
X36290662Y66431799D01*
X36222769Y66316998D01*
X36177090Y66159774D01*
X36175660Y66141601D01*
X36175661Y66141600D01*
X36836200Y66141600D01*
X36904321Y66121598D01*
X36950814Y66067942D01*
X36962200Y66015600D01*
X36962200Y65887600D01*
X37007700Y65887600D01*
X37075821Y65867598D01*
X37122314Y65813942D01*
X37133700Y65761600D01*
X37133700Y65652107D01*
X37136593Y65615349D01*
X37136593Y65615348D01*
X37153037Y65558748D01*
X37172915Y65490326D01*
X37182307Y65458001D01*
X37198653Y65430362D01*
X37216200Y65366222D01*
X37216200Y65075928D01*
X37361598Y65118170D01*
X37377565Y65127613D01*
X37446381Y65145075D01*
X37505846Y65127616D01*
X37522603Y65117706D01*
X37679946Y65071994D01*
X37716706Y65069101D01*
X37716707Y65069100D01*
X37716716Y65069100D01*
X38127693Y65069100D01*
X38127693Y65069101D01*
X38164454Y65071994D01*
X38239848Y65093898D01*
X38310839Y65093696D01*
X38323219Y65089308D01*
X38342951Y65081134D01*
X38342956Y65081133D01*
X38342960Y65081131D01*
X38504995Y65048900D01*
X38504996Y65048900D01*
X38670204Y65048900D01*
X38670205Y65048900D01*
X38832240Y65081131D01*
X38984873Y65144354D01*
X39122240Y65236139D01*
X39239061Y65352960D01*
X39330846Y65490327D01*
X39394069Y65642960D01*
X39426300Y65804995D01*
X39426300Y65970205D01*
X39394069Y66132240D01*
X39330846Y66284873D01*
X39239061Y66422240D01*
X39239059Y66422242D01*
X39239054Y66422248D01*
X39122247Y66539055D01*
X39122241Y66539060D01*
X39073727Y66571476D01*
X38984873Y66630846D01*
X38984871Y66630847D01*
X38979409Y66633767D01*
X38980762Y66636299D01*
X38935066Y66673282D01*
X38912786Y66740692D01*
X38930488Y66809447D01*
X38949618Y66834019D01*
X38987953Y66872353D01*
X39072645Y67015559D01*
X39079720Y67039915D01*
X39094266Y67062690D01*
X39105493Y67087272D01*
X39113078Y67092148D01*
X39117933Y67099748D01*
X39142485Y67111046D01*
X39165219Y67125656D01*
X39178334Y67127542D01*
X39182429Y67129426D01*
X39200717Y67130760D01*
X39357396Y67130760D01*
X39425517Y67110758D01*
X39446491Y67093855D01*
X42427195Y64113152D01*
X42461221Y64050840D01*
X42464100Y64024057D01*
X42464100Y63098121D01*
X42444098Y63030000D01*
X42390442Y62983507D01*
X42382134Y62980066D01*
X42319995Y62956889D01*
X42319992Y62956888D01*
X42202938Y62869262D01*
X42115312Y62752208D01*
X42115310Y62752203D01*
X42064211Y62615205D01*
X42064209Y62615197D01*
X42057700Y62554650D01*
X42057700Y61960700D01*
X42037698Y61892579D01*
X41984042Y61846086D01*
X41931700Y61834700D01*
X37798023Y61834700D01*
X37649314Y61794853D01*
X37649312Y61794853D01*
X37649308Y61794851D01*
X37582650Y61756365D01*
X37515988Y61717879D01*
X37515982Y61717874D01*
X37239585Y61441476D01*
X35874713Y60076604D01*
X35812403Y60042580D01*
X35785620Y60039700D01*
X35362537Y60039700D01*
X35294416Y60059702D01*
X35273446Y60076601D01*
X35197541Y60152506D01*
X35197539Y60152508D01*
X35057600Y60235268D01*
X34901464Y60280630D01*
X34864998Y60283500D01*
X34465012Y60283500D01*
X34428535Y60280630D01*
X34272400Y60235268D01*
X34219138Y60203769D01*
X34150321Y60186310D01*
X34090862Y60203769D01*
X34037599Y60235268D01*
X33881464Y60280630D01*
X33844998Y60283500D01*
X33445012Y60283500D01*
X33408535Y60280630D01*
X33252399Y60235268D01*
X33112460Y60152508D01*
X33112453Y60152502D01*
X32997498Y60037547D01*
X32997492Y60037540D01*
X32914731Y59897600D01*
X32910476Y59882949D01*
X32872264Y59823113D01*
X32807768Y59793435D01*
X32789478Y59792100D01*
X32429656Y59792100D01*
X32381438Y59801691D01*
X32322261Y59826203D01*
X32210627Y59840900D01*
X32210625Y59840900D01*
X31870199Y59840900D01*
X31802078Y59860902D01*
X31755585Y59914558D01*
X31744199Y59966900D01*
X31744199Y60307325D01*
X31744198Y60307333D01*
X31738083Y60353781D01*
X31729503Y60418961D01*
X31704990Y60478139D01*
X31695400Y60526356D01*
X31695400Y61397920D01*
X31715402Y61466041D01*
X31732305Y61487015D01*
X33110791Y62865500D01*
X34507276Y64261985D01*
X34564814Y64361645D01*
X34584253Y64395314D01*
X34624100Y64544023D01*
X34624100Y65633600D01*
X36175661Y65633600D01*
X36177090Y65615427D01*
X36222770Y65458200D01*
X36306108Y65317282D01*
X36306114Y65317275D01*
X36421874Y65201515D01*
X36421881Y65201509D01*
X36562798Y65118171D01*
X36708200Y65075928D01*
X36708200Y65633600D01*
X36175661Y65633600D01*
X34624100Y65633600D01*
X34624100Y66354555D01*
X34644102Y66422676D01*
X34697758Y66469169D01*
X34710455Y66474156D01*
X34815729Y66509039D01*
X34965398Y66601356D01*
X35089744Y66725702D01*
X35182061Y66875371D01*
X35237374Y67042296D01*
X35247900Y67145325D01*
X35247899Y67544601D01*
X35250490Y67553426D01*
X35249181Y67562532D01*
X35260336Y67586959D01*
X35267901Y67612720D01*
X35274853Y67618745D01*
X35278675Y67627112D01*
X35301259Y67641627D01*
X35321556Y67659214D01*
X35332243Y67661539D01*
X35338401Y67665496D01*
X35373899Y67670600D01*
X35479501Y67670600D01*
X35547622Y67650598D01*
G37*
%TD.AperFunction*%
%TA.AperFunction,Conductor*%
G36*
X32773021Y67650598D02*
G01*
X32819514Y67596942D01*
X32830900Y67544600D01*
X32830900Y67145326D01*
X32839514Y67061008D01*
X32841426Y67042296D01*
X32883172Y66916313D01*
X32896739Y66875371D01*
X32989056Y66725702D01*
X32989061Y66725696D01*
X33113395Y66601362D01*
X33113401Y66601357D01*
X33113402Y66601356D01*
X33263071Y66509039D01*
X33368334Y66474159D01*
X33426704Y66433746D01*
X33453960Y66368190D01*
X33454700Y66354555D01*
X33454700Y64915381D01*
X33434698Y64847260D01*
X33417795Y64826286D01*
X32058426Y63466916D01*
X30751686Y62160176D01*
X30701510Y62110000D01*
X30642825Y62051316D01*
X30642821Y62051311D01*
X30565847Y61917987D01*
X30565847Y61917986D01*
X30526434Y61770894D01*
X30526000Y61769276D01*
X30526000Y60953404D01*
X30516589Y60921357D01*
X30508307Y60889018D01*
X30506639Y60887469D01*
X30505998Y60885283D01*
X30480755Y60863411D01*
X30456304Y60840684D01*
X30453557Y60839844D01*
X30452342Y60838790D01*
X30422266Y60829387D01*
X30419352Y60828864D01*
X30399139Y60826203D01*
X30395012Y60824494D01*
X30382966Y60822331D01*
X30361650Y60824641D01*
X30328089Y60824641D01*
X30322258Y60826204D01*
X30258175Y60834640D01*
X30210625Y60840900D01*
X30210621Y60840900D01*
X30010776Y60840900D01*
X30010767Y60840899D01*
X29899137Y60826203D01*
X29893309Y60824641D01*
X29828089Y60824641D01*
X29822258Y60826204D01*
X29758175Y60834640D01*
X29710625Y60840900D01*
X29710621Y60840900D01*
X29510776Y60840900D01*
X29510767Y60840899D01*
X29399137Y60826203D01*
X29393309Y60824641D01*
X29328089Y60824641D01*
X29322258Y60826204D01*
X29258175Y60834640D01*
X29210625Y60840900D01*
X29210621Y60840900D01*
X29010776Y60840900D01*
X29010767Y60840899D01*
X28899137Y60826203D01*
X28893309Y60824641D01*
X28885538Y60824096D01*
X28881283Y60822041D01*
X28866551Y60822762D01*
X28845428Y60821277D01*
X28829440Y60823230D01*
X28822261Y60826203D01*
X28710625Y60840900D01*
X28684726Y60840900D01*
X28677117Y60841829D01*
X28651273Y60852973D01*
X28624268Y60860902D01*
X28615152Y60868548D01*
X28611923Y60869940D01*
X28609887Y60872964D01*
X28599865Y60881370D01*
X28574139Y60909200D01*
X27913600Y60909200D01*
X27845479Y60929202D01*
X27798986Y60982858D01*
X27787600Y61035200D01*
X27787600Y61163200D01*
X27742100Y61163200D01*
X27673979Y61183202D01*
X27627486Y61236858D01*
X27616100Y61289200D01*
X27616100Y61398693D01*
X27616099Y61398694D01*
X27614642Y61417200D01*
X28041600Y61417200D01*
X28574139Y61417200D01*
X28574139Y61417201D01*
X28572709Y61435374D01*
X28527029Y61592601D01*
X28443691Y61733519D01*
X28443685Y61733526D01*
X28327925Y61849286D01*
X28327918Y61849292D01*
X28187000Y61932630D01*
X28187002Y61932630D01*
X28041600Y61974874D01*
X28041600Y61417200D01*
X27614642Y61417200D01*
X27614642Y61417201D01*
X27613206Y61435454D01*
X27585222Y61531777D01*
X27585425Y61602770D01*
X27589804Y61615130D01*
X27606469Y61655360D01*
X27638700Y61817395D01*
X27638700Y61982605D01*
X27606469Y62144640D01*
X27543246Y62297273D01*
X27451461Y62434640D01*
X27451459Y62434642D01*
X27451454Y62434648D01*
X27334647Y62551455D01*
X27334641Y62551460D01*
X27329892Y62554633D01*
X27239484Y62615042D01*
X27193957Y62669518D01*
X27185109Y62739961D01*
X27204346Y62789242D01*
X27211372Y62799883D01*
X27242876Y62831385D01*
X27315335Y62956889D01*
X27319853Y62964714D01*
X27359700Y63113423D01*
X27359700Y63240501D01*
X27379702Y63308622D01*
X27433358Y63355115D01*
X27485696Y63366501D01*
X27763978Y63366501D01*
X27799889Y63369326D01*
X27953593Y63413982D01*
X28091363Y63495458D01*
X28204542Y63608637D01*
X28286018Y63746407D01*
X28330674Y63900111D01*
X28333500Y63936021D01*
X28333499Y64324484D01*
X28917000Y64324484D01*
X28927605Y64220682D01*
X28927606Y64220679D01*
X28983342Y64052475D01*
X29076365Y63901661D01*
X29076370Y63901655D01*
X29201654Y63776371D01*
X29201660Y63776366D01*
X29352474Y63683343D01*
X29520678Y63627607D01*
X29520681Y63627606D01*
X29624483Y63617001D01*
X29624483Y63617000D01*
X30171000Y63617000D01*
X30679000Y63617000D01*
X31225517Y63617000D01*
X31225516Y63617001D01*
X31329318Y63627606D01*
X31329321Y63627607D01*
X31497525Y63683343D01*
X31648339Y63776366D01*
X31648345Y63776371D01*
X31773629Y63901655D01*
X31773634Y63901661D01*
X31866657Y64052475D01*
X31922393Y64220679D01*
X31922394Y64220682D01*
X31932999Y64324484D01*
X31933000Y64324484D01*
X31933000Y64721000D01*
X30679000Y64721000D01*
X30679000Y63617000D01*
X30171000Y63617000D01*
X30171000Y64721000D01*
X28917000Y64721000D01*
X28917000Y64324484D01*
X28333499Y64324484D01*
X28333499Y64646658D01*
X28342282Y64676573D01*
X28348911Y64707042D01*
X28352725Y64712138D01*
X28353501Y64714778D01*
X28370399Y64735747D01*
X28826750Y65192098D01*
X28889060Y65226121D01*
X28915843Y65229000D01*
X30171000Y65229000D01*
X30679000Y65229000D01*
X31933000Y65229000D01*
X31933000Y65625517D01*
X31922394Y65729319D01*
X31922393Y65729322D01*
X31866657Y65897526D01*
X31773634Y66048340D01*
X31773629Y66048346D01*
X31648345Y66173630D01*
X31648339Y66173635D01*
X31497525Y66266658D01*
X31329321Y66322394D01*
X31329318Y66322395D01*
X31225516Y66333000D01*
X30679000Y66333000D01*
X30679000Y65229000D01*
X30171000Y65229000D01*
X30171000Y66333001D01*
X30158422Y66345579D01*
X30124396Y66407891D01*
X30129461Y66478706D01*
X30158422Y66523769D01*
X31268348Y67633695D01*
X31330660Y67667721D01*
X31357443Y67670600D01*
X32704900Y67670600D01*
X32773021Y67650598D01*
G37*
%TD.AperFunction*%
%TA.AperFunction,Conductor*%
G36*
X24567121Y64854998D02*
G01*
X24613614Y64801342D01*
X24625000Y64749000D01*
X24625000Y63377144D01*
X24739846Y63410509D01*
X24754762Y63411031D01*
X24765834Y63415178D01*
X24792623Y63412356D01*
X24801609Y63412670D01*
X25026128Y63364159D01*
X25045963Y63353365D01*
X25067632Y63347003D01*
X25076540Y63336724D01*
X25088488Y63330221D01*
X25099339Y63310416D01*
X25114128Y63293350D01*
X25116064Y63279888D01*
X25122601Y63267957D01*
X25121021Y63245431D01*
X25124237Y63223077D01*
X25118586Y63210702D01*
X25117635Y63197134D01*
X25104128Y63179038D01*
X25094748Y63158495D01*
X25088614Y63151906D01*
X24839115Y62902405D01*
X24776803Y62868380D01*
X24750019Y62865500D01*
X24180023Y62865500D01*
X24031314Y62825653D01*
X24031312Y62825653D01*
X24031308Y62825651D01*
X23964650Y62787165D01*
X23964648Y62787164D01*
X23938498Y62772067D01*
X23869502Y62755330D01*
X23802411Y62778552D01*
X23758525Y62834360D01*
X23749500Y62881187D01*
X23749500Y63339682D01*
X23769502Y63407803D01*
X23823158Y63454296D01*
X23893432Y63464400D01*
X23939641Y63448135D01*
X23996606Y63414445D01*
X24124999Y63377143D01*
X24125000Y63377143D01*
X24125000Y64749000D01*
X24127591Y64757826D01*
X24126282Y64766932D01*
X24137437Y64791358D01*
X24145002Y64817121D01*
X24151955Y64823146D01*
X24155776Y64831512D01*
X24178361Y64846027D01*
X24198658Y64863614D01*
X24209344Y64865939D01*
X24215502Y64869896D01*
X24251000Y64875000D01*
X24499000Y64875000D01*
X24567121Y64854998D01*
G37*
%TD.AperFunction*%
%TA.AperFunction,Conductor*%
G36*
X37595494Y68875658D02*
G01*
X37641987Y68822002D01*
X37652091Y68751728D01*
X37635826Y68705522D01*
X37632503Y68699901D01*
X37554356Y68567764D01*
X37507937Y68407990D01*
X37507937Y68407989D01*
X37505000Y68370672D01*
X37505000Y67212649D01*
X37507937Y67175332D01*
X37507937Y67175331D01*
X37554356Y67015555D01*
X37639045Y66872354D01*
X37640009Y66871112D01*
X37640460Y66869962D01*
X37643082Y66865529D01*
X37642366Y66865107D01*
X37650000Y66845664D01*
X37663320Y66821786D01*
X37662778Y66813115D01*
X37665954Y66805026D01*
X37660600Y66778217D01*
X37658897Y66750928D01*
X37653752Y66743925D01*
X37652051Y66735404D01*
X37633053Y66715745D01*
X37616867Y66693709D01*
X37606900Y66688682D01*
X37602715Y66684350D01*
X37585547Y66676237D01*
X37580631Y66674353D01*
X37522603Y66657494D01*
X37496718Y66642187D01*
X37486808Y66638387D01*
X37461569Y66636352D01*
X37437026Y66630126D01*
X37425679Y66633459D01*
X37416041Y66632681D01*
X37401052Y66640690D01*
X37377569Y66647586D01*
X37361601Y66657030D01*
X37204377Y66702708D01*
X37204369Y66702710D01*
X37198114Y66703202D01*
X37131774Y66728491D01*
X37089638Y66785631D01*
X37085082Y66856481D01*
X37099554Y66892952D01*
X37172180Y67015756D01*
X37218565Y67175411D01*
X37221500Y67212704D01*
X37221500Y67537660D01*
X36539500Y67537660D01*
X36471379Y67557662D01*
X36424886Y67611318D01*
X36413500Y67663660D01*
X36413500Y67919660D01*
X36433502Y67987781D01*
X36487158Y68034274D01*
X36539500Y68045660D01*
X37221499Y68045660D01*
X37221499Y68370617D01*
X37218565Y68407911D01*
X37172181Y68567561D01*
X37090592Y68705521D01*
X37073133Y68774337D01*
X37095650Y68841668D01*
X37150994Y68886138D01*
X37199046Y68895660D01*
X37527373Y68895660D01*
X37595494Y68875658D01*
G37*
%TD.AperFunction*%
%TA.AperFunction,Conductor*%
G36*
X50803801Y73524270D02*
G01*
X50832245Y73522550D01*
X51089466Y73506991D01*
X51104547Y73505160D01*
X51382305Y73454259D01*
X51397052Y73450624D01*
X51666660Y73366611D01*
X51680872Y73361220D01*
X51699685Y73352753D01*
X51938355Y73245336D01*
X51951827Y73238266D01*
X52193476Y73092185D01*
X52205998Y73083541D01*
X52428267Y72909405D01*
X52439656Y72899315D01*
X52639314Y72699657D01*
X52649404Y72688268D01*
X52823540Y72465999D01*
X52832184Y72453477D01*
X52978265Y72211828D01*
X52985335Y72198356D01*
X53101217Y71940878D01*
X53106613Y71926652D01*
X53173704Y71711349D01*
X53190619Y71657069D01*
X53194260Y71642295D01*
X53245157Y71364560D01*
X53246991Y71349456D01*
X53264270Y71063803D01*
X53264500Y71056195D01*
X53264500Y2483806D01*
X53264270Y2476198D01*
X53246991Y2190545D01*
X53245157Y2175441D01*
X53194260Y1897706D01*
X53190619Y1882932D01*
X53106613Y1613349D01*
X53101217Y1599123D01*
X52985335Y1341645D01*
X52978265Y1328173D01*
X52832184Y1086524D01*
X52823540Y1074002D01*
X52649404Y851733D01*
X52639314Y840344D01*
X52439656Y640686D01*
X52428267Y630596D01*
X52205998Y456460D01*
X52193476Y447816D01*
X51951827Y301735D01*
X51938355Y294665D01*
X51680877Y178783D01*
X51666651Y173387D01*
X51397068Y89381D01*
X51382294Y85740D01*
X51104559Y34843D01*
X51089455Y33009D01*
X50803802Y15730D01*
X50796194Y15500D01*
X2543806Y15500D01*
X2536198Y15730D01*
X2250544Y33009D01*
X2235440Y34843D01*
X1957705Y85740D01*
X1942935Y89380D01*
X1673348Y173387D01*
X1659122Y178783D01*
X1401644Y294665D01*
X1388172Y301735D01*
X1146523Y447816D01*
X1134001Y456460D01*
X911732Y630596D01*
X900343Y640686D01*
X700685Y840344D01*
X690595Y851733D01*
X516459Y1074002D01*
X507815Y1086524D01*
X361734Y1328173D01*
X354664Y1341645D01*
X238782Y1599123D01*
X233389Y1613340D01*
X149376Y1882948D01*
X145741Y1897695D01*
X94840Y2175453D01*
X93009Y2190534D01*
X75730Y2476199D01*
X75500Y2483806D01*
X75500Y45766916D01*
X3594500Y45766916D01*
X3594500Y45553084D01*
X3627699Y45343477D01*
X3627952Y45341879D01*
X3679388Y45183574D01*
X3694028Y45138517D01*
X3784981Y44960012D01*
X3791108Y44947988D01*
X3808875Y44923534D01*
X3916794Y44774996D01*
X3916796Y44774994D01*
X3916798Y44774991D01*
X4067990Y44623799D01*
X4067993Y44623797D01*
X4067996Y44623794D01*
X4240991Y44498106D01*
X4382005Y44426256D01*
X4433620Y44377509D01*
X4450686Y44308594D01*
X4427786Y44241393D01*
X4398864Y44212054D01*
X4321989Y44156201D01*
X4170798Y44005010D01*
X4170796Y44005007D01*
X4045108Y43832013D01*
X3948029Y43641485D01*
X3948026Y43641479D01*
X3881952Y43438122D01*
X3881951Y43438117D01*
X3881951Y43438116D01*
X3848500Y43226916D01*
X3848500Y43013084D01*
X3868565Y42886399D01*
X3881952Y42801879D01*
X3939246Y42625545D01*
X3948028Y42598517D01*
X4045106Y42407991D01*
X4170794Y42234996D01*
X4170796Y42234994D01*
X4170798Y42234991D01*
X4321990Y42083799D01*
X4321993Y42083797D01*
X4321996Y42083794D01*
X4398863Y42027947D01*
X4442217Y41971725D01*
X4448292Y41900989D01*
X4415161Y41838197D01*
X4382006Y41813746D01*
X4255355Y41749214D01*
X4240987Y41741892D01*
X4067993Y41616204D01*
X4067990Y41616202D01*
X3916798Y41465010D01*
X3916796Y41465007D01*
X3791108Y41292013D01*
X3694029Y41101485D01*
X3694028Y41101482D01*
X3627952Y40898122D01*
X3627951Y40898117D01*
X3627951Y40898116D01*
X3594500Y40686916D01*
X3594500Y40473084D01*
X3625160Y40279505D01*
X3627952Y40261879D01*
X3683141Y40092023D01*
X3694028Y40058517D01*
X3791106Y39867991D01*
X3916794Y39694996D01*
X3916796Y39694994D01*
X3916798Y39694991D01*
X4067990Y39543799D01*
X4067993Y39543797D01*
X4067996Y39543794D01*
X4240991Y39418106D01*
X4382505Y39346001D01*
X4434120Y39297252D01*
X4451186Y39228337D01*
X4428285Y39161136D01*
X4399364Y39131799D01*
X4322323Y39075825D01*
X4322317Y39075820D01*
X4171177Y38924680D01*
X4045536Y38751751D01*
X3948493Y38561293D01*
X3948490Y38561287D01*
X3882440Y38358005D01*
X3872302Y38294000D01*
X4776297Y38294000D01*
X4741075Y38232993D01*
X4707000Y38105826D01*
X4707000Y37974174D01*
X4741075Y37847007D01*
X4776297Y37786000D01*
X3872302Y37786000D01*
X3882440Y37721996D01*
X3948490Y37518714D01*
X3948493Y37518708D01*
X4045536Y37328250D01*
X4171177Y37155321D01*
X4322316Y37004182D01*
X4399819Y36947872D01*
X4443172Y36891649D01*
X4449247Y36820913D01*
X4416115Y36758121D01*
X4382960Y36733669D01*
X4241250Y36661465D01*
X4068320Y36535823D01*
X3917177Y36384680D01*
X3791536Y36211751D01*
X3694493Y36021293D01*
X3694490Y36021287D01*
X3628440Y35818005D01*
X3618302Y35754000D01*
X4522297Y35754000D01*
X4487075Y35692993D01*
X4453000Y35565826D01*
X4453000Y35434174D01*
X4487075Y35307007D01*
X4522297Y35246000D01*
X3618302Y35246000D01*
X3628440Y35181996D01*
X3694490Y34978714D01*
X3694493Y34978708D01*
X3791536Y34788250D01*
X3917177Y34615321D01*
X4068320Y34464178D01*
X4241252Y34338535D01*
X4382458Y34266587D01*
X4434074Y34217839D01*
X4451140Y34148924D01*
X4428240Y34081723D01*
X4399318Y34052385D01*
X4321996Y33996207D01*
X4321990Y33996202D01*
X4170798Y33845010D01*
X4170796Y33845007D01*
X4045108Y33672013D01*
X3948029Y33481485D01*
X3948026Y33481479D01*
X3881952Y33278122D01*
X3881951Y33278117D01*
X3881951Y33278116D01*
X3848500Y33066916D01*
X3848500Y32853084D01*
X3881951Y32641884D01*
X3881952Y32641879D01*
X3948026Y32438522D01*
X3948028Y32438517D01*
X4045106Y32247991D01*
X4170794Y32074996D01*
X4170796Y32074994D01*
X4170798Y32074991D01*
X4321990Y31923799D01*
X4321993Y31923797D01*
X4321996Y31923794D01*
X4398863Y31867947D01*
X4442217Y31811725D01*
X4448292Y31740989D01*
X4415161Y31678197D01*
X4382006Y31653746D01*
X4262892Y31593053D01*
X4240987Y31581892D01*
X4067993Y31456204D01*
X4067990Y31456202D01*
X3916798Y31305010D01*
X3916796Y31305007D01*
X3791108Y31132013D01*
X3694029Y30941485D01*
X3694028Y30941482D01*
X3627952Y30738122D01*
X3627951Y30738117D01*
X3627951Y30738116D01*
X3594500Y30526916D01*
X3594500Y30313084D01*
X3627951Y30101884D01*
X3627952Y30101879D01*
X3688196Y29916466D01*
X3694028Y29898517D01*
X3791106Y29707991D01*
X3916794Y29534996D01*
X3916796Y29534994D01*
X3916798Y29534991D01*
X4067990Y29383799D01*
X4067993Y29383797D01*
X4067996Y29383794D01*
X4240991Y29258106D01*
X4382005Y29186256D01*
X4433620Y29137509D01*
X4450686Y29068594D01*
X4427786Y29001393D01*
X4398864Y28972054D01*
X4321989Y28916201D01*
X4170798Y28765010D01*
X4170796Y28765007D01*
X4045108Y28592013D01*
X3948029Y28401485D01*
X3948026Y28401479D01*
X3881952Y28198122D01*
X3881951Y28198117D01*
X3881951Y28198116D01*
X3848500Y27986916D01*
X3848500Y27773084D01*
X3881933Y27561996D01*
X3881952Y27561879D01*
X3941334Y27379119D01*
X3948028Y27358517D01*
X4045106Y27167991D01*
X4170794Y26994996D01*
X4170796Y26994994D01*
X4170798Y26994991D01*
X4321990Y26843799D01*
X4321993Y26843797D01*
X4321996Y26843794D01*
X4385026Y26798000D01*
X4398863Y26787947D01*
X4442217Y26731725D01*
X4448292Y26660989D01*
X4415161Y26598197D01*
X4382006Y26573746D01*
X4323629Y26544000D01*
X4240987Y26501892D01*
X4067993Y26376204D01*
X4067990Y26376202D01*
X3916798Y26225010D01*
X3916796Y26225007D01*
X3791108Y26052013D01*
X3694029Y25861485D01*
X3694026Y25861479D01*
X3627952Y25658122D01*
X3627951Y25658117D01*
X3627951Y25658116D01*
X3594500Y25446916D01*
X3594500Y25233084D01*
X3627933Y25021996D01*
X3627952Y25021879D01*
X3693964Y24818714D01*
X3694028Y24818517D01*
X3791106Y24627991D01*
X3791108Y24627988D01*
X3822182Y24585219D01*
X3916794Y24454996D01*
X3916796Y24454994D01*
X3916798Y24454991D01*
X4067990Y24303799D01*
X4067993Y24303797D01*
X4067996Y24303794D01*
X4240991Y24178106D01*
X4382005Y24106256D01*
X4433620Y24057509D01*
X4450686Y23988594D01*
X4427786Y23921393D01*
X4398864Y23892054D01*
X4321989Y23836201D01*
X4170798Y23685010D01*
X4170796Y23685007D01*
X4045108Y23512013D01*
X3948029Y23321485D01*
X3948026Y23321479D01*
X3881952Y23118122D01*
X3881951Y23118117D01*
X3881951Y23118116D01*
X3848500Y22906916D01*
X3848500Y22693084D01*
X3881933Y22481996D01*
X3881952Y22481879D01*
X3947964Y22278714D01*
X3948028Y22278517D01*
X4045106Y22087991D01*
X4045108Y22087988D01*
X4076182Y22045219D01*
X4170794Y21914996D01*
X4170796Y21914994D01*
X4170798Y21914991D01*
X4321990Y21763799D01*
X4321993Y21763797D01*
X4321996Y21763794D01*
X4398863Y21707947D01*
X4442217Y21651725D01*
X4448292Y21580989D01*
X4415161Y21518197D01*
X4382006Y21493746D01*
X4255355Y21429214D01*
X4240987Y21421892D01*
X4067993Y21296204D01*
X4067990Y21296202D01*
X3916798Y21145010D01*
X3916796Y21145007D01*
X3791108Y20972013D01*
X3694029Y20781485D01*
X3694026Y20781479D01*
X3627952Y20578122D01*
X3627951Y20578117D01*
X3627951Y20578116D01*
X3594500Y20366916D01*
X3594500Y20153084D01*
X3627933Y19941996D01*
X3627952Y19941879D01*
X3693964Y19738714D01*
X3694028Y19738517D01*
X3791106Y19547991D01*
X3916794Y19374996D01*
X3916796Y19374994D01*
X3916798Y19374991D01*
X4067990Y19223799D01*
X4067993Y19223797D01*
X4067996Y19223794D01*
X4240991Y19098106D01*
X4382005Y19026256D01*
X4433620Y18977509D01*
X4450686Y18908594D01*
X4427786Y18841393D01*
X4398864Y18812054D01*
X4321989Y18756201D01*
X4170798Y18605010D01*
X4170796Y18605007D01*
X4045108Y18432013D01*
X3948029Y18241485D01*
X3948026Y18241479D01*
X3881952Y18038122D01*
X3881951Y18038117D01*
X3881951Y18038116D01*
X3848500Y17826916D01*
X3848500Y17613084D01*
X3881933Y17401996D01*
X3881952Y17401879D01*
X3947964Y17198714D01*
X3948028Y17198517D01*
X4045106Y17007991D01*
X4170794Y16834996D01*
X4170796Y16834994D01*
X4170798Y16834991D01*
X4321990Y16683799D01*
X4321993Y16683797D01*
X4321996Y16683794D01*
X4398863Y16627947D01*
X4442217Y16571725D01*
X4448292Y16500989D01*
X4415161Y16438197D01*
X4382006Y16413746D01*
X4255355Y16349214D01*
X4240987Y16341892D01*
X4067993Y16216204D01*
X4067990Y16216202D01*
X3916798Y16065010D01*
X3916796Y16065007D01*
X3791108Y15892013D01*
X3694029Y15701485D01*
X3694026Y15701479D01*
X3627952Y15498122D01*
X3627951Y15498117D01*
X3627951Y15498116D01*
X3594500Y15286916D01*
X3594500Y15073084D01*
X3627933Y14861996D01*
X3627952Y14861879D01*
X3693964Y14658714D01*
X3694028Y14658517D01*
X3791106Y14467991D01*
X3916794Y14294996D01*
X3916796Y14294994D01*
X3916798Y14294991D01*
X4067990Y14143799D01*
X4067993Y14143797D01*
X4067996Y14143794D01*
X4240991Y14018106D01*
X4382005Y13946256D01*
X4433620Y13897509D01*
X4450686Y13828594D01*
X4427786Y13761393D01*
X4398864Y13732054D01*
X4321989Y13676201D01*
X4170798Y13525010D01*
X4170796Y13525007D01*
X4045108Y13352013D01*
X3948029Y13161485D01*
X3948026Y13161479D01*
X3881952Y12958122D01*
X3881951Y12958117D01*
X3881951Y12958116D01*
X3848500Y12746916D01*
X3848500Y12533084D01*
X3881933Y12321996D01*
X3881952Y12321879D01*
X3947964Y12118714D01*
X3948028Y12118517D01*
X4045106Y11927991D01*
X4170794Y11754996D01*
X4170796Y11754994D01*
X4170798Y11754991D01*
X4321990Y11603799D01*
X4321993Y11603797D01*
X4321996Y11603794D01*
X4398863Y11547947D01*
X4442217Y11491725D01*
X4448292Y11420989D01*
X4415161Y11358197D01*
X4382006Y11333746D01*
X4255355Y11269214D01*
X4240987Y11261892D01*
X4067993Y11136204D01*
X4067990Y11136202D01*
X3916798Y10985010D01*
X3916796Y10985007D01*
X3791108Y10812013D01*
X3694029Y10621485D01*
X3694026Y10621479D01*
X3627952Y10418122D01*
X3627951Y10418117D01*
X3627951Y10418116D01*
X3594500Y10206916D01*
X3594500Y9993084D01*
X3625004Y9800490D01*
X3627952Y9781879D01*
X3694026Y9578522D01*
X3694028Y9578517D01*
X3791106Y9387991D01*
X3916794Y9214996D01*
X3916796Y9214994D01*
X3916798Y9214991D01*
X4067990Y9063799D01*
X4067993Y9063797D01*
X4067996Y9063794D01*
X4240991Y8938106D01*
X4382505Y8866001D01*
X4434120Y8817252D01*
X4451186Y8748337D01*
X4428285Y8681136D01*
X4399364Y8651799D01*
X4322323Y8595825D01*
X4322317Y8595820D01*
X4171177Y8444680D01*
X4045536Y8271751D01*
X3948493Y8081293D01*
X3948490Y8081287D01*
X3882440Y7878005D01*
X3872302Y7814000D01*
X4776297Y7814000D01*
X4741075Y7752993D01*
X4707000Y7625826D01*
X4707000Y7494174D01*
X4741075Y7367007D01*
X4776297Y7306000D01*
X3872302Y7306000D01*
X3882440Y7241996D01*
X3948490Y7038714D01*
X3948493Y7038708D01*
X4045536Y6848250D01*
X4171177Y6675321D01*
X4322320Y6524178D01*
X4495249Y6398537D01*
X4685707Y6301494D01*
X4685713Y6301491D01*
X4888998Y6235440D01*
X4953000Y6225304D01*
X4953000Y7129298D01*
X5014007Y7094075D01*
X5141174Y7060000D01*
X5272826Y7060000D01*
X5399993Y7094075D01*
X5461000Y7129298D01*
X5461000Y6225304D01*
X5525001Y6235440D01*
X5728286Y6301491D01*
X5728292Y6301494D01*
X5918750Y6398537D01*
X6091679Y6524178D01*
X6242822Y6675321D01*
X6368463Y6848250D01*
X6465506Y7038708D01*
X6465509Y7038714D01*
X6531559Y7241996D01*
X6541698Y7306000D01*
X5637703Y7306000D01*
X5672925Y7367007D01*
X5707000Y7494174D01*
X5707000Y7625826D01*
X5672925Y7752993D01*
X5637703Y7814000D01*
X6541697Y7814000D01*
X6531559Y7878005D01*
X6465509Y8081287D01*
X6465506Y8081293D01*
X6368463Y8271751D01*
X6242822Y8444680D01*
X6091679Y8595823D01*
X5918750Y8721464D01*
X5777540Y8793414D01*
X5725925Y8842162D01*
X5708859Y8911077D01*
X5731760Y8978279D01*
X5760679Y9007615D01*
X5838004Y9063794D01*
X5989206Y9214996D01*
X6114894Y9387991D01*
X6144707Y9446504D01*
X6193455Y9498118D01*
X6256974Y9515300D01*
X20576975Y9515300D01*
X20576977Y9515300D01*
X20725686Y9555147D01*
X20859014Y9632124D01*
X20967876Y9740986D01*
X21027380Y9800490D01*
X21027393Y9800505D01*
X31666606Y20439717D01*
X31728916Y20473741D01*
X31799731Y20468676D01*
X31844794Y20439715D01*
X33016579Y19267930D01*
X33016584Y19267926D01*
X33016586Y19267924D01*
X33149915Y19190946D01*
X33298623Y19151100D01*
X33452577Y19151100D01*
X38202820Y19151100D01*
X38270941Y19131098D01*
X38291915Y19114195D01*
X46797505Y10608605D01*
X46831531Y10546293D01*
X46828244Y10480577D01*
X46807952Y10418121D01*
X46807951Y10418118D01*
X46807951Y10418116D01*
X46774500Y10206916D01*
X46774500Y9993084D01*
X46805004Y9800490D01*
X46807952Y9781879D01*
X46874026Y9578522D01*
X46874028Y9578517D01*
X46971106Y9387991D01*
X47096794Y9214996D01*
X47096796Y9214994D01*
X47096798Y9214991D01*
X47247990Y9063799D01*
X47247993Y9063797D01*
X47247996Y9063794D01*
X47420991Y8938106D01*
X47562505Y8866001D01*
X47614120Y8817252D01*
X47631186Y8748337D01*
X47608285Y8681136D01*
X47579364Y8651799D01*
X47502323Y8595825D01*
X47502317Y8595820D01*
X47351177Y8444680D01*
X47225536Y8271751D01*
X47128493Y8081293D01*
X47128490Y8081287D01*
X47062440Y7878005D01*
X47052302Y7814000D01*
X47956297Y7814000D01*
X47921075Y7752993D01*
X47887000Y7625826D01*
X47887000Y7494174D01*
X47921075Y7367007D01*
X47956297Y7306000D01*
X47052302Y7306000D01*
X47062440Y7241996D01*
X47128490Y7038714D01*
X47128493Y7038708D01*
X47225536Y6848250D01*
X47351177Y6675321D01*
X47502320Y6524178D01*
X47675249Y6398537D01*
X47865707Y6301494D01*
X47865713Y6301491D01*
X48068998Y6235440D01*
X48133000Y6225304D01*
X48133000Y7129298D01*
X48194007Y7094075D01*
X48321174Y7060000D01*
X48452826Y7060000D01*
X48579993Y7094075D01*
X48641000Y7129298D01*
X48641000Y6225304D01*
X48705001Y6235440D01*
X48908286Y6301491D01*
X48908292Y6301494D01*
X49098750Y6398537D01*
X49271679Y6524178D01*
X49422822Y6675321D01*
X49548463Y6848250D01*
X49645506Y7038708D01*
X49645509Y7038714D01*
X49711559Y7241996D01*
X49721698Y7306000D01*
X48817703Y7306000D01*
X48852925Y7367007D01*
X48887000Y7494174D01*
X48887000Y7625826D01*
X48852925Y7752993D01*
X48817703Y7814000D01*
X49721697Y7814000D01*
X49711559Y7878005D01*
X49645509Y8081287D01*
X49645506Y8081293D01*
X49548463Y8271751D01*
X49422822Y8444680D01*
X49271679Y8595823D01*
X49098750Y8721464D01*
X48957540Y8793414D01*
X48905925Y8842162D01*
X48888859Y8911077D01*
X48911760Y8978279D01*
X48940679Y9007615D01*
X49018004Y9063794D01*
X49169206Y9214996D01*
X49294894Y9387991D01*
X49391972Y9578517D01*
X49458049Y9781884D01*
X49491500Y9993084D01*
X49491500Y10206916D01*
X49458049Y10418116D01*
X49391972Y10621483D01*
X49294894Y10812009D01*
X49169206Y10985004D01*
X49169203Y10985007D01*
X49169201Y10985010D01*
X49018006Y11136205D01*
X48940682Y11192384D01*
X48897328Y11248607D01*
X48891253Y11319343D01*
X48924385Y11382134D01*
X48957541Y11406587D01*
X49098747Y11478535D01*
X49271679Y11604178D01*
X49422822Y11755321D01*
X49548463Y11928250D01*
X49645506Y12118708D01*
X49645509Y12118714D01*
X49711559Y12321996D01*
X49721698Y12386000D01*
X48817703Y12386000D01*
X48852925Y12447007D01*
X48887000Y12574174D01*
X48887000Y12705826D01*
X48852925Y12832993D01*
X48817703Y12894000D01*
X49721697Y12894000D01*
X49711559Y12958005D01*
X49645509Y13161287D01*
X49645506Y13161293D01*
X49548463Y13351751D01*
X49422822Y13524680D01*
X49271679Y13675823D01*
X49098750Y13801464D01*
X48957039Y13873669D01*
X48905424Y13922417D01*
X48888358Y13991332D01*
X48911259Y14058534D01*
X48940181Y14087872D01*
X49017679Y14144179D01*
X49017682Y14144181D01*
X49168822Y14295321D01*
X49294463Y14468250D01*
X49391506Y14658708D01*
X49391509Y14658714D01*
X49457559Y14861996D01*
X49467698Y14926000D01*
X48563703Y14926000D01*
X48598925Y14987007D01*
X48633000Y15114174D01*
X48633000Y15245826D01*
X48598925Y15372993D01*
X48563703Y15434000D01*
X49467697Y15434000D01*
X49457559Y15498005D01*
X49391509Y15701287D01*
X49391506Y15701293D01*
X49294463Y15891751D01*
X49168822Y16064680D01*
X49017683Y16215819D01*
X48940180Y16272129D01*
X48896827Y16328352D01*
X48890752Y16399088D01*
X48923884Y16461880D01*
X48957040Y16486332D01*
X49098747Y16558535D01*
X49271679Y16684178D01*
X49422822Y16835321D01*
X49548463Y17008250D01*
X49645506Y17198708D01*
X49645509Y17198714D01*
X49711559Y17401996D01*
X49721698Y17466000D01*
X48817703Y17466000D01*
X48852925Y17527007D01*
X48887000Y17654174D01*
X48887000Y17785826D01*
X48852925Y17912993D01*
X48817703Y17974000D01*
X49721697Y17974000D01*
X49711559Y18038005D01*
X49645509Y18241287D01*
X49645506Y18241293D01*
X49548463Y18431751D01*
X49422822Y18604680D01*
X49271679Y18755823D01*
X49098750Y18881464D01*
X48957039Y18953669D01*
X48905424Y19002417D01*
X48888358Y19071332D01*
X48911259Y19138534D01*
X48940181Y19167872D01*
X49017679Y19224179D01*
X49017682Y19224181D01*
X49168822Y19375321D01*
X49294463Y19548250D01*
X49391506Y19738708D01*
X49391509Y19738714D01*
X49457559Y19941996D01*
X49467698Y20006000D01*
X48563703Y20006000D01*
X48598925Y20067007D01*
X48633000Y20194174D01*
X48633000Y20325826D01*
X48598925Y20452993D01*
X48563703Y20514000D01*
X49467697Y20514000D01*
X49457559Y20578005D01*
X49391509Y20781287D01*
X49391506Y20781293D01*
X49294463Y20971751D01*
X49168822Y21144680D01*
X49017683Y21295819D01*
X48940180Y21352129D01*
X48896827Y21408352D01*
X48890752Y21479088D01*
X48923884Y21541880D01*
X48957040Y21566332D01*
X49098747Y21638535D01*
X49271679Y21764178D01*
X49422822Y21915321D01*
X49548463Y22088250D01*
X49645506Y22278708D01*
X49645509Y22278714D01*
X49711559Y22481996D01*
X49721698Y22546000D01*
X48817703Y22546000D01*
X48852925Y22607007D01*
X48887000Y22734174D01*
X48887000Y22865826D01*
X48852925Y22992993D01*
X48817703Y23054000D01*
X49721697Y23054000D01*
X49711559Y23118005D01*
X49645509Y23321287D01*
X49645506Y23321293D01*
X49548463Y23511751D01*
X49422822Y23684680D01*
X49271679Y23835823D01*
X49098750Y23961464D01*
X48957039Y24033669D01*
X48905424Y24082417D01*
X48888358Y24151332D01*
X48911259Y24218534D01*
X48940181Y24247872D01*
X49017679Y24304179D01*
X49017682Y24304181D01*
X49168822Y24455321D01*
X49294463Y24628250D01*
X49391506Y24818708D01*
X49391509Y24818714D01*
X49457559Y25021996D01*
X49467698Y25086000D01*
X48563703Y25086000D01*
X48598925Y25147007D01*
X48633000Y25274174D01*
X48633000Y25405826D01*
X48598925Y25532993D01*
X48563703Y25594000D01*
X49467697Y25594000D01*
X49457559Y25658005D01*
X49391509Y25861287D01*
X49391506Y25861293D01*
X49294463Y26051751D01*
X49168822Y26224680D01*
X49017683Y26375819D01*
X48940180Y26432129D01*
X48896827Y26488352D01*
X48890752Y26559088D01*
X48923884Y26621880D01*
X48957040Y26646332D01*
X49098747Y26718535D01*
X49271679Y26844178D01*
X49422822Y26995321D01*
X49548463Y27168250D01*
X49645506Y27358708D01*
X49645509Y27358714D01*
X49711559Y27561996D01*
X49721698Y27626000D01*
X48817703Y27626000D01*
X48852925Y27687007D01*
X48887000Y27814174D01*
X48887000Y27945826D01*
X48852925Y28072993D01*
X48817703Y28134000D01*
X49721697Y28134000D01*
X49711559Y28198005D01*
X49645509Y28401287D01*
X49645506Y28401293D01*
X49548463Y28591751D01*
X49422822Y28764680D01*
X49271679Y28915823D01*
X49098750Y29041464D01*
X48957540Y29113414D01*
X48905925Y29162162D01*
X48888859Y29231077D01*
X48911760Y29298279D01*
X48940679Y29327615D01*
X49018004Y29383794D01*
X49169206Y29534996D01*
X49294894Y29707991D01*
X49391972Y29898517D01*
X49458049Y30101884D01*
X49491500Y30313084D01*
X49491500Y30526916D01*
X49458049Y30738116D01*
X49391972Y30941483D01*
X49294894Y31132009D01*
X49169206Y31305004D01*
X49169203Y31305007D01*
X49169201Y31305010D01*
X49018006Y31456205D01*
X48941136Y31512054D01*
X48897782Y31568277D01*
X48891707Y31639013D01*
X48924839Y31701804D01*
X48957989Y31726253D01*
X49099009Y31798106D01*
X49272004Y31923794D01*
X49423206Y32074996D01*
X49548894Y32247991D01*
X49645972Y32438517D01*
X49712049Y32641884D01*
X49745500Y32853084D01*
X49745500Y33066916D01*
X49712049Y33278116D01*
X49645972Y33481483D01*
X49548894Y33672009D01*
X49423206Y33845004D01*
X49423203Y33845007D01*
X49423201Y33845010D01*
X49272009Y33996202D01*
X49272006Y33996204D01*
X49272004Y33996206D01*
X49099009Y34121894D01*
X48957992Y34193746D01*
X48906379Y34242492D01*
X48889313Y34311407D01*
X48912214Y34378609D01*
X48941133Y34407945D01*
X49018004Y34463794D01*
X49169206Y34614996D01*
X49294894Y34787991D01*
X49391972Y34978517D01*
X49458049Y35181884D01*
X49491500Y35393084D01*
X49491500Y35606916D01*
X49458049Y35818116D01*
X49391972Y36021483D01*
X49294894Y36212009D01*
X49169206Y36385004D01*
X49169203Y36385007D01*
X49169201Y36385010D01*
X49018006Y36536205D01*
X48941136Y36592054D01*
X48897782Y36648277D01*
X48891707Y36719013D01*
X48924839Y36781804D01*
X48957989Y36806253D01*
X49099009Y36878106D01*
X49272004Y37003794D01*
X49423206Y37154996D01*
X49548894Y37327991D01*
X49645972Y37518517D01*
X49712049Y37721884D01*
X49745500Y37933084D01*
X49745500Y38146916D01*
X49712049Y38358116D01*
X49645972Y38561483D01*
X49548894Y38752009D01*
X49423206Y38925004D01*
X49423203Y38925007D01*
X49423201Y38925010D01*
X49272009Y39076202D01*
X49272004Y39076206D01*
X49099012Y39201892D01*
X49099011Y39201893D01*
X49099009Y39201894D01*
X48957992Y39273746D01*
X48906379Y39322492D01*
X48889313Y39391407D01*
X48912214Y39458609D01*
X48941133Y39487945D01*
X49018004Y39543794D01*
X49169206Y39694996D01*
X49294894Y39867991D01*
X49391972Y40058517D01*
X49458049Y40261884D01*
X49491500Y40473084D01*
X49491500Y40686916D01*
X49458049Y40898116D01*
X49391972Y41101483D01*
X49294894Y41292009D01*
X49169206Y41465004D01*
X49169203Y41465007D01*
X49169201Y41465010D01*
X49018006Y41616205D01*
X48941136Y41672054D01*
X48897782Y41728277D01*
X48891707Y41799013D01*
X48924839Y41861804D01*
X48957989Y41886253D01*
X49099009Y41958106D01*
X49272004Y42083794D01*
X49423206Y42234996D01*
X49548894Y42407991D01*
X49645972Y42598517D01*
X49712049Y42801884D01*
X49745500Y43013084D01*
X49745500Y43226916D01*
X49712049Y43438116D01*
X49645972Y43641483D01*
X49548894Y43832009D01*
X49423206Y44005004D01*
X49423203Y44005007D01*
X49423201Y44005010D01*
X49272009Y44156202D01*
X49272006Y44156204D01*
X49272004Y44156206D01*
X49137919Y44253624D01*
X49099012Y44281892D01*
X49099011Y44281893D01*
X49099009Y44281894D01*
X48957992Y44353746D01*
X48906379Y44402492D01*
X48889313Y44471407D01*
X48912214Y44538609D01*
X48941133Y44567945D01*
X49018004Y44623794D01*
X49169206Y44774996D01*
X49294894Y44947991D01*
X49391972Y45138517D01*
X49458049Y45341884D01*
X49491500Y45553084D01*
X49491500Y45766916D01*
X49458049Y45978116D01*
X49391972Y46181483D01*
X49294894Y46372009D01*
X49169206Y46545004D01*
X49169203Y46545007D01*
X49169201Y46545010D01*
X49087806Y46626405D01*
X49053780Y46688717D01*
X49058845Y46759532D01*
X49101392Y46816368D01*
X49167912Y46841179D01*
X49176901Y46841500D01*
X49285632Y46841500D01*
X49285638Y46841500D01*
X49285645Y46841501D01*
X49285649Y46841501D01*
X49346196Y46848010D01*
X49346199Y46848011D01*
X49346201Y46848011D01*
X49483204Y46899111D01*
X49600261Y46986739D01*
X49620668Y47014000D01*
X49687887Y47103793D01*
X49687887Y47103794D01*
X49687889Y47103796D01*
X49738989Y47240799D01*
X49740368Y47253621D01*
X49745499Y47301351D01*
X49745500Y47301368D01*
X49745500Y49098633D01*
X49745499Y49098650D01*
X49738990Y49159197D01*
X49738988Y49159205D01*
X49705587Y49248754D01*
X49687889Y49296204D01*
X49687888Y49296206D01*
X49687887Y49296208D01*
X49600261Y49413262D01*
X49483207Y49500888D01*
X49483202Y49500890D01*
X49346204Y49551989D01*
X49346196Y49551991D01*
X49285649Y49558500D01*
X49285638Y49558500D01*
X47488362Y49558500D01*
X47488350Y49558500D01*
X47427803Y49551991D01*
X47427795Y49551989D01*
X47290797Y49500890D01*
X47290792Y49500888D01*
X47173738Y49413262D01*
X47086112Y49296208D01*
X47086110Y49296203D01*
X47035011Y49159205D01*
X47035009Y49159197D01*
X47028500Y49098650D01*
X47028500Y47301351D01*
X47035009Y47240804D01*
X47035011Y47240796D01*
X47086110Y47103798D01*
X47086112Y47103793D01*
X47173738Y46986739D01*
X47270497Y46914306D01*
X47313044Y46857470D01*
X47318108Y46786654D01*
X47284083Y46724342D01*
X47269054Y46711507D01*
X47250627Y46698118D01*
X47247989Y46696201D01*
X47096798Y46545010D01*
X47096796Y46545007D01*
X46971108Y46372013D01*
X46874029Y46181485D01*
X46874026Y46181479D01*
X46807952Y45978122D01*
X46807951Y45978117D01*
X46807951Y45978116D01*
X46774500Y45766916D01*
X46774500Y45553084D01*
X46807699Y45343477D01*
X46807952Y45341879D01*
X46859388Y45183574D01*
X46861415Y45112606D01*
X46828651Y45055543D01*
X46094715Y44321605D01*
X46032402Y44287580D01*
X46005619Y44284700D01*
X43623023Y44284700D01*
X43474314Y44244853D01*
X43474312Y44244853D01*
X43474308Y44244851D01*
X43407650Y44206365D01*
X43340988Y44167879D01*
X43340978Y44167871D01*
X34795100Y35621991D01*
X34732788Y35587965D01*
X34661973Y35593030D01*
X34605137Y35635577D01*
X34584299Y35678473D01*
X34544853Y35825686D01*
X34467876Y35959014D01*
X34359014Y36067876D01*
X30822205Y39604685D01*
X30788179Y39666997D01*
X30785300Y39693780D01*
X30785300Y40422008D01*
X30805302Y40490129D01*
X30822205Y40511103D01*
X30926454Y40615353D01*
X30926461Y40615360D01*
X31018246Y40752727D01*
X31081469Y40905360D01*
X31113700Y41067395D01*
X31113700Y41232605D01*
X31081469Y41394640D01*
X31018246Y41547273D01*
X30926461Y41684640D01*
X30926459Y41684642D01*
X30926454Y41684648D01*
X30822205Y41788897D01*
X30788179Y41851209D01*
X30785300Y41877992D01*
X30785300Y43361608D01*
X30805302Y43429729D01*
X30858958Y43476222D01*
X30929232Y43486326D01*
X30975439Y43470061D01*
X31041199Y43431171D01*
X31198429Y43385491D01*
X31198424Y43385491D01*
X31216599Y43384061D01*
X31216600Y43384061D01*
X31724600Y43384061D01*
X31742773Y43385491D01*
X31900000Y43431171D01*
X32040918Y43514509D01*
X32040925Y43514515D01*
X32156685Y43630275D01*
X32156691Y43630282D01*
X32240029Y43771199D01*
X32282273Y43916600D01*
X31724600Y43916600D01*
X31724600Y43384061D01*
X31216600Y43384061D01*
X31216600Y43966000D01*
X33688327Y43966000D01*
X33730570Y43820599D01*
X33813908Y43679682D01*
X33813914Y43679675D01*
X33929674Y43563915D01*
X33929681Y43563909D01*
X34070599Y43480571D01*
X34227829Y43434891D01*
X34227824Y43434891D01*
X34245999Y43433461D01*
X34246000Y43433461D01*
X34246000Y43966000D01*
X33688327Y43966000D01*
X31216600Y43966000D01*
X31216600Y44044600D01*
X31236602Y44112721D01*
X31290258Y44159214D01*
X31342600Y44170600D01*
X31470600Y44170600D01*
X31470600Y44216100D01*
X31471694Y44219828D01*
X31470824Y44223615D01*
X31481617Y44253624D01*
X31490602Y44284221D01*
X31493538Y44286766D01*
X31494854Y44290422D01*
X31520158Y44309832D01*
X31544258Y44330714D01*
X31548998Y44331954D01*
X31551187Y44333632D01*
X31565934Y44336382D01*
X31586139Y44341665D01*
X31591360Y44342100D01*
X31706084Y44342100D01*
X31742854Y44344994D01*
X31789793Y44358632D01*
X31802366Y44359679D01*
X31825279Y44354976D01*
X31848668Y44354909D01*
X31861046Y44350523D01*
X31924760Y44324131D01*
X32086795Y44291900D01*
X32086796Y44291900D01*
X32252004Y44291900D01*
X32252005Y44291900D01*
X32414040Y44324131D01*
X32566673Y44387354D01*
X32704040Y44479139D01*
X32820861Y44595960D01*
X32912646Y44733327D01*
X32922452Y44757002D01*
X32949759Y44797871D01*
X33466407Y45314519D01*
X33528717Y45348542D01*
X33599533Y45343477D01*
X33656368Y45300930D01*
X33681179Y45234410D01*
X33681500Y45225421D01*
X33681500Y44974507D01*
X33684393Y44937749D01*
X33684393Y44937748D01*
X33730106Y44780403D01*
X33740016Y44763646D01*
X33757474Y44694830D01*
X33740017Y44635374D01*
X33730569Y44619399D01*
X33688327Y44474000D01*
X33978621Y44474000D01*
X34042760Y44456454D01*
X34069136Y44440855D01*
X34070403Y44440106D01*
X34227746Y44394394D01*
X34264506Y44391501D01*
X34264507Y44391500D01*
X34264516Y44391500D01*
X34735493Y44391500D01*
X34735493Y44391501D01*
X34772254Y44394394D01*
X34929597Y44440106D01*
X34957240Y44456454D01*
X34978691Y44466548D01*
X35062003Y44496548D01*
X35070464Y44497057D01*
X35077908Y44501121D01*
X35104691Y44504000D01*
X35407658Y44504000D01*
X35471796Y44486454D01*
X35548899Y44440855D01*
X35708669Y44394438D01*
X35745988Y44391501D01*
X35745989Y44391500D01*
X35745998Y44391500D01*
X36199000Y44391500D01*
X36207825Y44388909D01*
X36216932Y44390218D01*
X36241357Y44379063D01*
X36267121Y44371498D01*
X36273145Y44364545D01*
X36281512Y44360724D01*
X36296026Y44338139D01*
X36313614Y44317842D01*
X36315938Y44307156D01*
X36319896Y44300998D01*
X36325000Y44265500D01*
X36325000Y44234500D01*
X36304998Y44166379D01*
X36251342Y44119886D01*
X36199000Y44108500D01*
X35745989Y44108500D01*
X35708671Y44105563D01*
X35708670Y44105563D01*
X35548894Y44059144D01*
X35421069Y43983547D01*
X35356930Y43966000D01*
X34754000Y43966000D01*
X34754000Y43433461D01*
X34772173Y43434891D01*
X34929399Y43480570D01*
X34963859Y43500950D01*
X35032675Y43518411D01*
X35100007Y43495896D01*
X35144477Y43440552D01*
X35154000Y43392498D01*
X35154000Y43083489D01*
X35156937Y43046172D01*
X35156937Y43046171D01*
X35203356Y42886395D01*
X35288044Y42743197D01*
X35288049Y42743190D01*
X35405689Y42625550D01*
X35405696Y42625545D01*
X35548894Y42540857D01*
X35548897Y42540857D01*
X35548899Y42540855D01*
X35708669Y42494438D01*
X35745988Y42491501D01*
X35745989Y42491500D01*
X35745998Y42491500D01*
X36904011Y42491500D01*
X36904011Y42491501D01*
X36941331Y42494438D01*
X37101101Y42540855D01*
X37101103Y42540857D01*
X37101105Y42540857D01*
X37198610Y42598522D01*
X37244307Y42625547D01*
X37361953Y42743193D01*
X37361955Y42743197D01*
X37362939Y42744464D01*
X37363968Y42745208D01*
X37367559Y42748798D01*
X37368138Y42748219D01*
X37420494Y42786032D01*
X37491386Y42789884D01*
X37553107Y42754798D01*
X37562061Y42744464D01*
X37563049Y42743190D01*
X37680689Y42625550D01*
X37680696Y42625545D01*
X37823894Y42540857D01*
X37823897Y42540857D01*
X37823899Y42540855D01*
X37983669Y42494438D01*
X38020988Y42491501D01*
X38020989Y42491500D01*
X38020998Y42491500D01*
X39179011Y42491500D01*
X39179011Y42491501D01*
X39216331Y42494438D01*
X39376101Y42540855D01*
X39376103Y42540857D01*
X39376105Y42540857D01*
X39473610Y42598522D01*
X39519307Y42625547D01*
X39636953Y42743193D01*
X39721645Y42886399D01*
X39768062Y43046169D01*
X39770999Y43083489D01*
X39771000Y43083489D01*
X39771000Y43341691D01*
X39791002Y43409812D01*
X39844658Y43456305D01*
X39914932Y43466409D01*
X39932154Y43462688D01*
X40027828Y43434891D01*
X40045999Y43433461D01*
X40046000Y43433461D01*
X40554000Y43433461D01*
X40572173Y43434891D01*
X40729400Y43480571D01*
X40870318Y43563909D01*
X40870325Y43563915D01*
X40986085Y43679675D01*
X40986091Y43679682D01*
X41069429Y43820599D01*
X41111673Y43966000D01*
X40554000Y43966000D01*
X40554000Y43433461D01*
X40046000Y43433461D01*
X40046000Y43966000D01*
X39568070Y43966000D01*
X39503931Y43983547D01*
X39376105Y44059144D01*
X39216329Y44105563D01*
X39179011Y44108500D01*
X39179002Y44108500D01*
X38020998Y44108500D01*
X38020989Y44108500D01*
X37983671Y44105563D01*
X37983664Y44105562D01*
X37961951Y44099253D01*
X37935278Y44099330D01*
X37908868Y44095532D01*
X37900334Y44099430D01*
X37890955Y44099456D01*
X37868552Y44113945D01*
X37844288Y44125026D01*
X37839217Y44132916D01*
X37831339Y44138011D01*
X37820325Y44162312D01*
X37805904Y44184752D01*
X37803928Y44198492D01*
X37802032Y44202676D01*
X37800800Y44220250D01*
X37800800Y44279751D01*
X37820802Y44347872D01*
X37874458Y44394365D01*
X37944732Y44404469D01*
X37961947Y44400749D01*
X37983669Y44394438D01*
X38020988Y44391501D01*
X38020989Y44391500D01*
X38020998Y44391500D01*
X39179011Y44391500D01*
X39179011Y44391501D01*
X39216331Y44394438D01*
X39376101Y44440855D01*
X39397939Y44453771D01*
X39402476Y44456453D01*
X39466616Y44474000D01*
X39778621Y44474000D01*
X39842760Y44456454D01*
X39869136Y44440855D01*
X39870403Y44440106D01*
X40027746Y44394394D01*
X40064506Y44391501D01*
X40064507Y44391500D01*
X40064516Y44391500D01*
X40535493Y44391500D01*
X40535493Y44391501D01*
X40572254Y44394394D01*
X40729597Y44440106D01*
X40757240Y44456454D01*
X40821379Y44474000D01*
X41111673Y44474000D01*
X41069429Y44619401D01*
X41059986Y44635368D01*
X41042525Y44704184D01*
X41059987Y44763652D01*
X41069894Y44780403D01*
X41115606Y44937746D01*
X41118499Y44974507D01*
X41118500Y44974507D01*
X41118500Y45385493D01*
X41118499Y45385494D01*
X41117635Y45396466D01*
X41115606Y45422254D01*
X41069894Y45579597D01*
X40986488Y45720629D01*
X40986486Y45720631D01*
X40986483Y45720635D01*
X40870634Y45836484D01*
X40870630Y45836487D01*
X40870629Y45836488D01*
X40729597Y45919894D01*
X40635750Y45947159D01*
X40572252Y45965607D01*
X40535493Y45968500D01*
X40535484Y45968500D01*
X40064516Y45968500D01*
X40064507Y45968500D01*
X40027748Y45965607D01*
X40027747Y45965607D01*
X39999850Y45957502D01*
X39928853Y45957707D01*
X39869238Y45996262D01*
X39840043Y46060154D01*
X39838700Y46069280D01*
X39838700Y46107605D01*
X39817014Y46216624D01*
X39816554Y46219754D01*
X39821066Y46251899D01*
X39823960Y46284232D01*
X39825968Y46286818D01*
X39826424Y46290061D01*
X39847605Y46314671D01*
X39867514Y46340299D01*
X39870600Y46341389D01*
X39872738Y46343871D01*
X39903860Y46353122D01*
X39934466Y46363919D01*
X39940754Y46364088D01*
X39940792Y46364099D01*
X39940824Y46364090D01*
X39941211Y46364100D01*
X40265092Y46364100D01*
X40265093Y46364100D01*
X40392777Y46389498D01*
X40513054Y46439318D01*
X40621299Y46511645D01*
X41813355Y47703701D01*
X42663355Y48553701D01*
X42735682Y48661946D01*
X42785503Y48782223D01*
X42810901Y48909907D01*
X42810901Y49040094D01*
X42810901Y49045286D01*
X42810900Y49045312D01*
X42810900Y56390090D01*
X42810900Y56390093D01*
X42804842Y56420548D01*
X42804448Y56422528D01*
X42791554Y56487350D01*
X42785502Y56517777D01*
X42735682Y56638054D01*
X42663355Y56746299D01*
X42571299Y56838355D01*
X42571298Y56838356D01*
X42566898Y56842756D01*
X42566887Y56842766D01*
X40080934Y59328720D01*
X40046908Y59391032D01*
X40051973Y59461848D01*
X40094520Y59518683D01*
X40125990Y59535869D01*
X40145404Y59543109D01*
X40262461Y59630737D01*
X40278464Y59652115D01*
X40350087Y59747791D01*
X40350087Y59747792D01*
X40350089Y59747794D01*
X40401189Y59884797D01*
X40402566Y59897600D01*
X40407699Y59945349D01*
X40407700Y59945366D01*
X40407700Y60539300D01*
X40427702Y60607421D01*
X40481358Y60653914D01*
X40533700Y60665300D01*
X46226975Y60665300D01*
X46226977Y60665300D01*
X46375686Y60705147D01*
X46509014Y60782124D01*
X46561604Y60834715D01*
X46623914Y60868738D01*
X46694729Y60863674D01*
X46751566Y60821128D01*
X46775398Y60757923D01*
X46775726Y60757974D01*
X46775977Y60756385D01*
X46776309Y60755506D01*
X46776498Y60753095D01*
X46787712Y60682294D01*
X46809951Y60541884D01*
X46833764Y60468593D01*
X46834471Y60466418D01*
X46836497Y60395450D01*
X46803732Y60338388D01*
X45788145Y59322800D01*
X45725835Y59288776D01*
X45699052Y59285896D01*
X44172535Y59285896D01*
X44104414Y59305898D01*
X44071666Y59336388D01*
X44050417Y59364773D01*
X44047061Y59369257D01*
X44047060Y59369258D01*
X43930007Y59456884D01*
X43930002Y59456886D01*
X43793004Y59507985D01*
X43792996Y59507987D01*
X43732449Y59514496D01*
X43732438Y59514496D01*
X42517562Y59514496D01*
X42517550Y59514496D01*
X42457003Y59507987D01*
X42456995Y59507985D01*
X42319997Y59456886D01*
X42319992Y59456884D01*
X42202938Y59369258D01*
X42115312Y59252204D01*
X42115310Y59252199D01*
X42064211Y59115201D01*
X42064209Y59115193D01*
X42057700Y59054646D01*
X42057700Y58195347D01*
X42064209Y58134800D01*
X42064211Y58134792D01*
X42115310Y57997794D01*
X42115312Y57997789D01*
X42202938Y57880735D01*
X42319992Y57793109D01*
X42319994Y57793108D01*
X42319996Y57793107D01*
X42328600Y57789898D01*
X42456995Y57742008D01*
X42457003Y57742006D01*
X42517550Y57735497D01*
X42517555Y57735497D01*
X42517562Y57735496D01*
X42517568Y57735496D01*
X43732432Y57735496D01*
X43732438Y57735496D01*
X43732445Y57735497D01*
X43732449Y57735497D01*
X43792996Y57742006D01*
X43792999Y57742007D01*
X43793001Y57742007D01*
X43930004Y57793107D01*
X44047061Y57880735D01*
X44071666Y57913605D01*
X44128502Y57956151D01*
X44172535Y57964096D01*
X46090088Y57964096D01*
X46090089Y57964096D01*
X46217773Y57989494D01*
X46338050Y58039314D01*
X46446295Y58111641D01*
X46561405Y58226752D01*
X46623716Y58260776D01*
X46694532Y58255712D01*
X46751368Y58213165D01*
X46776179Y58146645D01*
X46776500Y58137656D01*
X46776500Y57709456D01*
X46787112Y57605575D01*
X46842885Y57437262D01*
X46935970Y57286348D01*
X46935975Y57286342D01*
X47061341Y57160976D01*
X47061347Y57160971D01*
X47061348Y57160970D01*
X47212262Y57067885D01*
X47380574Y57012113D01*
X47484455Y57001500D01*
X49035544Y57001501D01*
X49139426Y57012113D01*
X49139429Y57012114D01*
X49139431Y57012114D01*
X49258973Y57051726D01*
X49329928Y57054167D01*
X49390938Y57017859D01*
X49422633Y56954330D01*
X49422185Y56907541D01*
X49409500Y56843773D01*
X49409500Y56676231D01*
X49415784Y56644642D01*
X49441018Y56517778D01*
X49442185Y56511915D01*
X49452360Y56487350D01*
X49506297Y56357137D01*
X49539581Y56307324D01*
X49599373Y56217839D01*
X49599378Y56217833D01*
X49717832Y56099379D01*
X49717838Y56099374D01*
X49857137Y56006297D01*
X50011918Y55942184D01*
X50176233Y55909500D01*
X50176234Y55909500D01*
X50343766Y55909500D01*
X50343767Y55909500D01*
X50508082Y55942184D01*
X50662863Y56006297D01*
X50802162Y56099374D01*
X50920626Y56217838D01*
X51013703Y56357137D01*
X51077816Y56511918D01*
X51110500Y56676233D01*
X51110500Y56843767D01*
X51077816Y57008082D01*
X51013703Y57162863D01*
X50920626Y57302162D01*
X50920621Y57302168D01*
X50802167Y57420622D01*
X50802161Y57420627D01*
X50699772Y57489041D01*
X50662863Y57513703D01*
X50548983Y57560874D01*
X50508085Y57577815D01*
X50508083Y57577816D01*
X50508082Y57577816D01*
X50425368Y57594269D01*
X50343769Y57610500D01*
X50343767Y57610500D01*
X50176233Y57610500D01*
X50176230Y57610500D01*
X50011912Y57577815D01*
X49912615Y57536684D01*
X49842025Y57529095D01*
X49778538Y57560874D01*
X49742311Y57621933D01*
X49739050Y57665902D01*
X49743500Y57709455D01*
X49743499Y59010544D01*
X49742878Y59016619D01*
X49732887Y59114426D01*
X49687234Y59252200D01*
X49677115Y59282738D01*
X49584030Y59433652D01*
X49584029Y59433653D01*
X49584024Y59433659D01*
X49458658Y59559025D01*
X49458652Y59559030D01*
X49437180Y59572274D01*
X49313842Y59648350D01*
X49266365Y59701135D01*
X49254962Y59771210D01*
X49283255Y59836326D01*
X49290884Y59844675D01*
X49421206Y59974996D01*
X49546894Y60147991D01*
X49643972Y60338517D01*
X49710049Y60541884D01*
X49743500Y60753084D01*
X49743500Y60966916D01*
X49710049Y61178116D01*
X49643972Y61381483D01*
X49546894Y61572009D01*
X49421206Y61745004D01*
X49421203Y61745007D01*
X49421201Y61745010D01*
X49270009Y61896202D01*
X49270006Y61896204D01*
X49270004Y61896206D01*
X49116043Y62008065D01*
X49072690Y62064286D01*
X49066615Y62135022D01*
X49099746Y62197814D01*
X49116044Y62211936D01*
X49270004Y62323794D01*
X49421206Y62474996D01*
X49546894Y62647991D01*
X49643972Y62838517D01*
X49710049Y63041884D01*
X49743500Y63253084D01*
X49743500Y63466916D01*
X49710049Y63678116D01*
X49643972Y63881483D01*
X49546894Y64072009D01*
X49421206Y64245004D01*
X49421203Y64245007D01*
X49421201Y64245010D01*
X49270009Y64396202D01*
X49270006Y64396204D01*
X49270005Y64396205D01*
X49270004Y64396206D01*
X49115618Y64508374D01*
X49072264Y64564596D01*
X49066189Y64635333D01*
X49099320Y64698124D01*
X49115618Y64712246D01*
X49269679Y64824179D01*
X49269682Y64824181D01*
X49420822Y64975321D01*
X49546463Y65148250D01*
X49643506Y65338708D01*
X49643509Y65338714D01*
X49709559Y65541996D01*
X49719698Y65606000D01*
X48661836Y65606000D01*
X48702630Y65676657D01*
X48735000Y65797465D01*
X48735000Y65922535D01*
X48702630Y66043343D01*
X48661836Y66114000D01*
X49719697Y66114000D01*
X49709559Y66178005D01*
X49643509Y66381287D01*
X49643506Y66381293D01*
X49546463Y66571751D01*
X49420822Y66744680D01*
X49269679Y66895823D01*
X49096750Y67021464D01*
X48906292Y67118507D01*
X48906286Y67118510D01*
X48703004Y67184560D01*
X48514000Y67214497D01*
X48514000Y66261837D01*
X48443343Y66302630D01*
X48322535Y66335000D01*
X48197465Y66335000D01*
X48076657Y66302630D01*
X48006000Y66261837D01*
X48006000Y67214497D01*
X47816995Y67184560D01*
X47613713Y67118510D01*
X47613707Y67118507D01*
X47423249Y67021464D01*
X47250320Y66895823D01*
X47099177Y66744680D01*
X46973536Y66571751D01*
X46876493Y66381293D01*
X46876490Y66381287D01*
X46810440Y66178005D01*
X46800302Y66114000D01*
X47858164Y66114000D01*
X47817370Y66043343D01*
X47785000Y65922535D01*
X47785000Y65797465D01*
X47817370Y65676657D01*
X47858164Y65606000D01*
X46800302Y65606000D01*
X46810440Y65541996D01*
X46876490Y65338714D01*
X46876493Y65338708D01*
X46973536Y65148250D01*
X47099177Y64975321D01*
X47250317Y64824181D01*
X47250320Y64824179D01*
X47404381Y64712246D01*
X47447735Y64656024D01*
X47453810Y64585287D01*
X47420678Y64522496D01*
X47404381Y64508374D01*
X47249993Y64396205D01*
X47098798Y64245010D01*
X47098796Y64245007D01*
X46973108Y64072013D01*
X46876029Y63881485D01*
X46876026Y63881479D01*
X46809952Y63678122D01*
X46809951Y63678117D01*
X46809951Y63678116D01*
X46776500Y63466916D01*
X46776500Y63253084D01*
X46781253Y63223077D01*
X46809952Y63041877D01*
X46809953Y63041876D01*
X46860897Y62885083D01*
X46862924Y62814116D01*
X46830160Y62757053D01*
X45944715Y61871605D01*
X45882402Y61837580D01*
X45855619Y61834700D01*
X44318300Y61834700D01*
X44250179Y61854702D01*
X44203686Y61908358D01*
X44192300Y61960700D01*
X44192300Y62554633D01*
X44192299Y62554650D01*
X44185790Y62615197D01*
X44185788Y62615205D01*
X44134689Y62752203D01*
X44134687Y62752208D01*
X44047061Y62869262D01*
X43930007Y62956888D01*
X43930004Y62956889D01*
X43867866Y62980066D01*
X43811031Y63022613D01*
X43786221Y63089134D01*
X43785900Y63098121D01*
X43785900Y64415089D01*
X43785900Y64415093D01*
X43778220Y64453701D01*
X43760502Y64542777D01*
X43710682Y64663054D01*
X43673634Y64718500D01*
X43638355Y64771299D01*
X43546299Y64863355D01*
X43546298Y64863356D01*
X43541898Y64867756D01*
X43541887Y64867766D01*
X42422408Y65987245D01*
X41813387Y66596266D01*
X40104639Y68305015D01*
X39996394Y68377342D01*
X39876117Y68427162D01*
X39748435Y68452560D01*
X39748433Y68452560D01*
X39200717Y68452560D01*
X39132596Y68472562D01*
X39086103Y68526218D01*
X39079720Y68543407D01*
X39072703Y68567561D01*
X39072645Y68567761D01*
X39072643Y68567763D01*
X39072643Y68567766D01*
X38987955Y68710964D01*
X38987950Y68710971D01*
X38870310Y68828611D01*
X38870303Y68828616D01*
X38727105Y68913304D01*
X38567329Y68959723D01*
X38530011Y68962660D01*
X38530002Y68962660D01*
X38149627Y68962660D01*
X38081506Y68982662D01*
X38035013Y69036318D01*
X38024909Y69106592D01*
X38041174Y69152800D01*
X38048878Y69165826D01*
X38122645Y69290559D01*
X38169062Y69450329D01*
X38171999Y69487649D01*
X38172000Y69487649D01*
X38172000Y70645671D01*
X38171999Y70645672D01*
X38169062Y70682989D01*
X38169062Y70682990D01*
X38169062Y70682991D01*
X38122645Y70842761D01*
X38122643Y70842763D01*
X38122643Y70842766D01*
X38043276Y70976968D01*
X38025816Y71045784D01*
X38048333Y71113115D01*
X38103677Y71157585D01*
X38141845Y71166719D01*
X38164376Y71168492D01*
X38164377Y71168493D01*
X38321601Y71214171D01*
X38462518Y71297509D01*
X38462525Y71297515D01*
X38578285Y71413275D01*
X38578291Y71413282D01*
X38661629Y71554200D01*
X38707309Y71711427D01*
X38708739Y71729600D01*
X38048200Y71729600D01*
X37980079Y71749602D01*
X37933586Y71803258D01*
X37922200Y71855600D01*
X37922200Y71983600D01*
X37876700Y71983600D01*
X37808579Y72003602D01*
X37762086Y72057258D01*
X37750700Y72109600D01*
X37750700Y72219093D01*
X37750699Y72219094D01*
X37749242Y72237600D01*
X38176200Y72237600D01*
X38708739Y72237600D01*
X38708739Y72237601D01*
X38707309Y72255774D01*
X38661629Y72413001D01*
X38578291Y72553919D01*
X38578285Y72553926D01*
X38462525Y72669686D01*
X38462518Y72669692D01*
X38321600Y72753030D01*
X38321602Y72753030D01*
X38176200Y72795274D01*
X38176200Y72237600D01*
X37749242Y72237600D01*
X37749242Y72237601D01*
X37747806Y72255854D01*
X37702094Y72413197D01*
X37702092Y72413201D01*
X37685746Y72440842D01*
X37668200Y72504980D01*
X37668200Y72795274D01*
X37522801Y72753031D01*
X37506826Y72743583D01*
X37438009Y72726126D01*
X37378554Y72743584D01*
X37361797Y72753494D01*
X37204452Y72799207D01*
X37167693Y72802100D01*
X37167684Y72802100D01*
X36756716Y72802100D01*
X36756707Y72802100D01*
X36719948Y72799207D01*
X36719947Y72799207D01*
X36562600Y72753493D01*
X36421569Y72670087D01*
X36421565Y72670084D01*
X36305716Y72554235D01*
X36305713Y72554231D01*
X36222307Y72413200D01*
X36176593Y72255853D01*
X36176593Y72255852D01*
X36173700Y72219094D01*
X36173700Y71748107D01*
X36176593Y71711349D01*
X36176593Y71711348D01*
X36176594Y71711346D01*
X36222306Y71554003D01*
X36305712Y71412971D01*
X36340595Y71378088D01*
X36374620Y71315778D01*
X36377500Y71288993D01*
X36377500Y70390985D01*
X36377499Y70390985D01*
X36398326Y70313261D01*
X36417347Y70242274D01*
X36428256Y70223379D01*
X36437494Y70207379D01*
X36454231Y70138384D01*
X36431010Y70071292D01*
X36417469Y70055285D01*
X35928111Y69565925D01*
X35462995Y69100809D01*
X35400682Y69066784D01*
X35329867Y69071848D01*
X35273031Y69114395D01*
X35248220Y69180915D01*
X35247899Y69189885D01*
X35247899Y69608074D01*
X35237374Y69711104D01*
X35182061Y69878029D01*
X35089744Y70027698D01*
X35089743Y70027699D01*
X35089738Y70027705D01*
X34965404Y70152039D01*
X34965395Y70152046D01*
X34919706Y70180228D01*
X34872228Y70233014D01*
X34860826Y70303089D01*
X34864853Y70322607D01*
X34887029Y70398934D01*
X34889900Y70435411D01*
X34889899Y70835388D01*
X34887029Y70871866D01*
X34841669Y71027996D01*
X34809877Y71081754D01*
X34792418Y71150567D01*
X34809878Y71210032D01*
X34841207Y71263005D01*
X34881415Y71401400D01*
X34398942Y71401400D01*
X34363790Y71406403D01*
X34347868Y71411029D01*
X34347864Y71411030D01*
X34311398Y71413900D01*
X33811412Y71413900D01*
X33774934Y71411030D01*
X33759011Y71406403D01*
X33723859Y71401400D01*
X33241385Y71401400D01*
X33281594Y71263001D01*
X33312921Y71210029D01*
X33330380Y71141213D01*
X33312922Y71081754D01*
X33281131Y71027997D01*
X33235770Y70871866D01*
X33235770Y70871865D01*
X33232900Y70835399D01*
X33232900Y70435413D01*
X33235770Y70398936D01*
X33251256Y70345635D01*
X33251053Y70274638D01*
X33212499Y70215022D01*
X33196410Y70203245D01*
X33184995Y70196203D01*
X33113401Y70152044D01*
X33113395Y70152039D01*
X32989061Y70027705D01*
X32989056Y70027699D01*
X32896739Y69878030D01*
X32841425Y69711100D01*
X32830900Y69608084D01*
X32830900Y69608076D01*
X32830900Y69608075D01*
X32830900Y69351655D01*
X32830901Y69118400D01*
X32810899Y69050279D01*
X32757244Y69003786D01*
X32704901Y68992400D01*
X31713312Y68992400D01*
X31645191Y69012402D01*
X31598698Y69066058D01*
X31588594Y69136332D01*
X31618088Y69200912D01*
X31642616Y69221774D01*
X31642584Y69221815D01*
X31643746Y69222734D01*
X31647162Y69225639D01*
X31648337Y69226365D01*
X31648345Y69226371D01*
X31773629Y69351655D01*
X31773634Y69351661D01*
X31866657Y69502475D01*
X31922393Y69670679D01*
X31922394Y69670682D01*
X31932999Y69774484D01*
X31933000Y69774484D01*
X31933000Y70171000D01*
X30679000Y70171000D01*
X30679000Y69064543D01*
X30682373Y69058365D01*
X30692420Y69049794D01*
X30699061Y69027805D01*
X30710071Y69007642D01*
X30709128Y68994470D01*
X30712946Y68981830D01*
X30706644Y68959742D01*
X30705006Y68936827D01*
X30696644Y68924684D01*
X30693470Y68913557D01*
X30678182Y68897874D01*
X30670194Y68886273D01*
X30663908Y68880741D01*
X30610201Y68844855D01*
X30518145Y68752799D01*
X30518143Y68752797D01*
X30515302Y68749956D01*
X29134553Y67369208D01*
X29072241Y67335183D01*
X29001425Y67340248D01*
X28944590Y67382795D01*
X28919779Y67449315D01*
X28921879Y67482881D01*
X28925500Y67501082D01*
X28925500Y67648918D01*
X28896658Y67793913D01*
X28840084Y67930495D01*
X28757951Y68053416D01*
X28653416Y68157951D01*
X28530495Y68240084D01*
X28415774Y68287603D01*
X28393916Y68296657D01*
X28393913Y68296658D01*
X28248918Y68325500D01*
X28101082Y68325500D01*
X28046356Y68314614D01*
X27956086Y68296658D01*
X27956083Y68296657D01*
X27819504Y68240084D01*
X27696588Y68157954D01*
X27696581Y68157949D01*
X27592051Y68053419D01*
X27592046Y68053412D01*
X27509916Y67930496D01*
X27453343Y67793917D01*
X27453342Y67793914D01*
X27444211Y67748011D01*
X27424500Y67648918D01*
X27424500Y67501082D01*
X27438124Y67432591D01*
X27453342Y67356087D01*
X27453343Y67356084D01*
X27467465Y67321990D01*
X27509916Y67219505D01*
X27592049Y67096584D01*
X27696584Y66992049D01*
X27819505Y66909916D01*
X27956087Y66853342D01*
X28101082Y66824500D01*
X28101087Y66824500D01*
X28248913Y66824500D01*
X28248918Y66824500D01*
X28267114Y66828120D01*
X28337824Y66821795D01*
X28393893Y66778243D01*
X28417515Y66711291D01*
X28401191Y66642197D01*
X28380791Y66615447D01*
X28115557Y66350213D01*
X28053245Y66316187D01*
X27986549Y66319797D01*
X27973850Y66324038D01*
X27953593Y66336018D01*
X27833547Y66370896D01*
X27831165Y66371691D01*
X27818441Y66380545D01*
X27781984Y66402106D01*
X27612614Y66571476D01*
X27560860Y66601356D01*
X27479286Y66648453D01*
X27330577Y66688300D01*
X27330575Y66688300D01*
X24214189Y66688300D01*
X24146068Y66708302D01*
X24099575Y66761958D01*
X24089471Y66832232D01*
X24118965Y66896812D01*
X24144188Y66919065D01*
X24253407Y66992043D01*
X24253406Y66992043D01*
X24253416Y66992049D01*
X24357951Y67096584D01*
X24440084Y67219505D01*
X24496658Y67356087D01*
X24525500Y67501082D01*
X24525500Y67648918D01*
X24496658Y67793913D01*
X24440084Y67930495D01*
X24357951Y68053416D01*
X24253416Y68157951D01*
X24130495Y68240084D01*
X24015774Y68287603D01*
X23993916Y68296657D01*
X23993913Y68296658D01*
X23848918Y68325500D01*
X23701082Y68325500D01*
X23646356Y68314614D01*
X23556086Y68296658D01*
X23556083Y68296657D01*
X23419504Y68240084D01*
X23296588Y68157954D01*
X23296581Y68157949D01*
X23192051Y68053419D01*
X23192046Y68053412D01*
X23109916Y67930496D01*
X23053343Y67793917D01*
X23053342Y67793914D01*
X23044211Y67748011D01*
X23024500Y67648918D01*
X23024500Y67501082D01*
X23038124Y67432591D01*
X23053342Y67356087D01*
X23053343Y67356084D01*
X23067465Y67321990D01*
X23109916Y67219505D01*
X23192049Y67096584D01*
X23296584Y66992049D01*
X23296587Y66992047D01*
X23296592Y66992043D01*
X23405812Y66919065D01*
X23451340Y66864589D01*
X23460189Y66794146D01*
X23429548Y66730101D01*
X23369146Y66692790D01*
X23335811Y66688300D01*
X19001182Y66688300D01*
X18933061Y66708302D01*
X18912087Y66725205D01*
X18241604Y67395688D01*
X18207578Y67458000D01*
X18204699Y67484783D01*
X18204699Y67856411D01*
X18194524Y67956010D01*
X18194524Y67956014D01*
X18141049Y68117392D01*
X18051800Y68262087D01*
X18026281Y68287606D01*
X17992257Y68349915D01*
X17997321Y68420731D01*
X18026281Y68465795D01*
X18051800Y68491313D01*
X18141049Y68636008D01*
X18194524Y68797386D01*
X18204700Y68896989D01*
X18204699Y69431410D01*
X18204583Y69432541D01*
X18197439Y69502475D01*
X18194524Y69531014D01*
X18141049Y69692392D01*
X18090414Y69774484D01*
X20017000Y69774484D01*
X20027605Y69670682D01*
X20027606Y69670679D01*
X20083342Y69502475D01*
X20176365Y69351661D01*
X20176370Y69351655D01*
X20301654Y69226371D01*
X20301660Y69226366D01*
X20452474Y69133343D01*
X20620678Y69077607D01*
X20620681Y69077606D01*
X20724483Y69067001D01*
X20724483Y69067000D01*
X21271000Y69067000D01*
X21779000Y69067000D01*
X22325517Y69067000D01*
X22325516Y69067001D01*
X22429318Y69077606D01*
X22429321Y69077607D01*
X22597525Y69133343D01*
X22748339Y69226366D01*
X22748345Y69226371D01*
X22873629Y69351655D01*
X22873634Y69351661D01*
X22966657Y69502475D01*
X23022393Y69670679D01*
X23022394Y69670682D01*
X23032999Y69774484D01*
X23033000Y69774484D01*
X28917000Y69774484D01*
X28927605Y69670682D01*
X28927606Y69670679D01*
X28983342Y69502475D01*
X29076365Y69351661D01*
X29076370Y69351655D01*
X29201654Y69226371D01*
X29201660Y69226366D01*
X29352474Y69133343D01*
X29520678Y69077607D01*
X29520681Y69077606D01*
X29624483Y69067001D01*
X29624483Y69067000D01*
X30171000Y69067000D01*
X30171000Y70171000D01*
X28917000Y70171000D01*
X28917000Y69774484D01*
X23033000Y69774484D01*
X23033000Y70171000D01*
X21779000Y70171000D01*
X21779000Y69067000D01*
X21271000Y69067000D01*
X21271000Y70171000D01*
X20017000Y70171000D01*
X20017000Y69774484D01*
X18090414Y69774484D01*
X18051800Y69837087D01*
X18051799Y69837088D01*
X18051794Y69837094D01*
X17931593Y69957295D01*
X17931587Y69957300D01*
X17786892Y70046549D01*
X17760528Y70055285D01*
X17625514Y70100024D01*
X17625511Y70100025D01*
X17625509Y70100025D01*
X17525919Y70110200D01*
X16916489Y70110200D01*
X16816890Y70100025D01*
X16816887Y70100025D01*
X16816886Y70100024D01*
X16736923Y70073528D01*
X16655507Y70046549D01*
X16510812Y69957300D01*
X16510806Y69957295D01*
X16390605Y69837094D01*
X16390600Y69837088D01*
X16301349Y69692389D01*
X16274460Y69611242D01*
X16234046Y69552870D01*
X16168490Y69525615D01*
X16098605Y69538128D01*
X16089564Y69543811D01*
X16089364Y69543471D01*
X15942600Y69630268D01*
X15786464Y69675630D01*
X15749998Y69678500D01*
X15250012Y69678500D01*
X15213535Y69675630D01*
X15057399Y69630268D01*
X14917460Y69547508D01*
X14917453Y69547502D01*
X14802498Y69432547D01*
X14802492Y69432540D01*
X14719732Y69292601D01*
X14674370Y69136466D01*
X14674370Y69136465D01*
X14671500Y69099999D01*
X14671500Y68700013D01*
X14674370Y68663536D01*
X14719732Y68507401D01*
X14751521Y68453648D01*
X14768980Y68384832D01*
X14751522Y68325374D01*
X14720194Y68272399D01*
X14679985Y68134000D01*
X15162458Y68134000D01*
X15169890Y68133781D01*
X15184017Y68132947D01*
X15213534Y68124371D01*
X15250011Y68121500D01*
X15377738Y68121501D01*
X15381432Y68121282D01*
X15411487Y68110494D01*
X15442120Y68101499D01*
X15444636Y68098595D01*
X15448254Y68097296D01*
X15467702Y68071976D01*
X15488613Y68047844D01*
X15489551Y68043531D01*
X15491501Y68040992D01*
X15492379Y68030530D01*
X15500000Y67995501D01*
X15500000Y67880000D01*
X15628000Y67880000D01*
X15696121Y67859998D01*
X15742614Y67806342D01*
X15754000Y67754000D01*
X15754000Y67102321D01*
X15786385Y67104868D01*
X15942397Y67150194D01*
X16083254Y67233497D01*
X16152070Y67250957D01*
X16219402Y67228441D01*
X16263871Y67173096D01*
X16266998Y67164677D01*
X16301349Y67061012D01*
X16301350Y67061010D01*
X16301351Y67061008D01*
X16343887Y66992047D01*
X16390600Y66916313D01*
X16390605Y66916307D01*
X16510806Y66796106D01*
X16510812Y66796101D01*
X16510813Y66796100D01*
X16655508Y66706851D01*
X16816886Y66653376D01*
X16916489Y66643200D01*
X17288118Y66643201D01*
X17356238Y66623199D01*
X17377208Y66606301D01*
X18347786Y65635723D01*
X18347787Y65635722D01*
X18347789Y65635721D01*
X18481110Y65558748D01*
X18481112Y65558748D01*
X18481115Y65558746D01*
X18629823Y65518900D01*
X19891000Y65518900D01*
X19959121Y65498898D01*
X20005614Y65445242D01*
X20017000Y65392900D01*
X20017000Y65229000D01*
X21399000Y65229000D01*
X21467121Y65208998D01*
X21513614Y65155342D01*
X21525000Y65103000D01*
X21525000Y64975000D01*
X21653000Y64975000D01*
X21721121Y64954998D01*
X21767614Y64901342D01*
X21779000Y64849000D01*
X21779000Y63617000D01*
X22325517Y63617000D01*
X22325516Y63617001D01*
X22436166Y63628305D01*
X22436338Y63626618D01*
X22498513Y63621969D01*
X22555211Y63579239D01*
X22579807Y63512639D01*
X22580100Y63504056D01*
X22580100Y61945500D01*
X22560098Y61877379D01*
X22506442Y61830886D01*
X22454100Y61819500D01*
X22421307Y61819500D01*
X22384548Y61816607D01*
X22384547Y61816607D01*
X22227200Y61770893D01*
X22086169Y61687487D01*
X22086165Y61687484D01*
X21970316Y61571635D01*
X21970313Y61571631D01*
X21886907Y61430600D01*
X21841193Y61273253D01*
X21841193Y61273252D01*
X21838300Y61236494D01*
X21838300Y60825507D01*
X21841193Y60788749D01*
X21841193Y60788748D01*
X21886906Y60631403D01*
X21896816Y60614646D01*
X21914274Y60545830D01*
X21896817Y60486374D01*
X21887369Y60470399D01*
X21845127Y60325000D01*
X22135421Y60325000D01*
X22199560Y60307454D01*
X22207522Y60302745D01*
X22227203Y60291106D01*
X22384546Y60245394D01*
X22421306Y60242501D01*
X22421307Y60242500D01*
X22530800Y60242500D01*
X22598921Y60222498D01*
X22645414Y60168842D01*
X22656800Y60116500D01*
X22656800Y60071000D01*
X22784800Y60071000D01*
X22852921Y60050998D01*
X22899414Y59997342D01*
X22910800Y59945000D01*
X22910800Y59284461D01*
X22928973Y59285891D01*
X23086198Y59331570D01*
X23171531Y59382036D01*
X23181089Y59384462D01*
X23188842Y59390558D01*
X23214940Y59393050D01*
X23240347Y59399496D01*
X23249699Y59396369D01*
X23259517Y59397306D01*
X23282817Y59385294D01*
X23307679Y59376980D01*
X23315538Y59368426D01*
X23322622Y59364773D01*
X23333585Y59348780D01*
X23344791Y59336582D01*
X23348916Y59329436D01*
X23357785Y59308026D01*
X23371890Y59289644D01*
X23376020Y59282491D01*
X23382519Y59255698D01*
X23392463Y59229979D01*
X23392900Y59219492D01*
X23392900Y57771083D01*
X23392899Y57771083D01*
X23427550Y57641766D01*
X23432747Y57622372D01*
X23500455Y57505098D01*
X23509724Y57489044D01*
X23991574Y57007194D01*
X24002355Y56987449D01*
X24017092Y56970442D01*
X24019040Y56956894D01*
X24025598Y56944883D01*
X24023993Y56922443D01*
X24027196Y56900168D01*
X24021510Y56887719D01*
X24020534Y56874068D01*
X24007049Y56856055D01*
X23997702Y56835588D01*
X23986189Y56828190D01*
X23977987Y56817232D01*
X23956903Y56809369D01*
X23937976Y56797204D01*
X23915705Y56794002D01*
X23911467Y56792421D01*
X23902478Y56792100D01*
X23817580Y56792100D01*
X23749459Y56812102D01*
X23728485Y56829005D01*
X21147966Y59409524D01*
X21113940Y59471836D01*
X21119005Y59542651D01*
X21161552Y59599487D01*
X21167030Y59603365D01*
X21234640Y59648539D01*
X21351461Y59765360D01*
X21385965Y59817000D01*
X21845127Y59817000D01*
X21887370Y59671599D01*
X21970708Y59530682D01*
X21970714Y59530675D01*
X22086474Y59414915D01*
X22086481Y59414909D01*
X22227399Y59331571D01*
X22384629Y59285891D01*
X22384624Y59285891D01*
X22402799Y59284461D01*
X22402800Y59284461D01*
X22402800Y59817000D01*
X21845127Y59817000D01*
X21385965Y59817000D01*
X21443246Y59902727D01*
X21506469Y60055360D01*
X21538700Y60217395D01*
X21538700Y60382605D01*
X21506469Y60544640D01*
X21443246Y60697273D01*
X21351461Y60834640D01*
X21351459Y60834642D01*
X21351454Y60834648D01*
X21234647Y60951455D01*
X21234641Y60951460D01*
X21211510Y60966916D01*
X21097273Y61043246D01*
X20944641Y61106469D01*
X20782607Y61138700D01*
X20782605Y61138700D01*
X20740381Y61138700D01*
X20672260Y61158702D01*
X20651286Y61175605D01*
X19559020Y62267871D01*
X19559010Y62267879D01*
X19508097Y62297273D01*
X19425686Y62344853D01*
X19276977Y62384700D01*
X19276975Y62384700D01*
X18369380Y62384700D01*
X18301259Y62404702D01*
X18280285Y62421605D01*
X16377406Y64324484D01*
X20017000Y64324484D01*
X20027605Y64220682D01*
X20027606Y64220679D01*
X20083342Y64052475D01*
X20176365Y63901661D01*
X20176370Y63901655D01*
X20301654Y63776371D01*
X20301660Y63776366D01*
X20452474Y63683343D01*
X20620678Y63627607D01*
X20620681Y63627606D01*
X20724483Y63617001D01*
X20724483Y63617000D01*
X21271000Y63617000D01*
X21271000Y64721000D01*
X20017000Y64721000D01*
X20017000Y64324484D01*
X16377406Y64324484D01*
X16017794Y64684096D01*
X13139680Y67562211D01*
X13075891Y67626000D01*
X14679985Y67626000D01*
X14720194Y67487601D01*
X14802889Y67347772D01*
X14802894Y67347765D01*
X14917764Y67232895D01*
X14917771Y67232890D01*
X15057600Y67150195D01*
X15213614Y67104868D01*
X15245999Y67102321D01*
X15246000Y67102321D01*
X15246000Y67626000D01*
X14679985Y67626000D01*
X13075891Y67626000D01*
X11134018Y69567873D01*
X11134012Y69567877D01*
X11116991Y69577704D01*
X11116991Y69577705D01*
X11116989Y69577705D01*
X11064371Y69608084D01*
X11000686Y69644853D01*
X10851977Y69684700D01*
X10851975Y69684700D01*
X10749500Y69684700D01*
X10681379Y69704702D01*
X10634886Y69758358D01*
X10623500Y69810700D01*
X10623500Y69998633D01*
X10623499Y69998650D01*
X10616990Y70059197D01*
X10616988Y70059205D01*
X10582359Y70152046D01*
X10565889Y70196204D01*
X10565888Y70196206D01*
X10565887Y70196208D01*
X10478261Y70313262D01*
X10361207Y70400888D01*
X10361202Y70400890D01*
X10224204Y70451989D01*
X10224196Y70451991D01*
X10163649Y70458500D01*
X10163638Y70458500D01*
X8366362Y70458500D01*
X8366350Y70458500D01*
X8305803Y70451991D01*
X8305795Y70451989D01*
X8168797Y70400890D01*
X8168792Y70400888D01*
X8051738Y70313262D01*
X7964112Y70196208D01*
X7964110Y70196203D01*
X7913011Y70059205D01*
X7913009Y70059197D01*
X7906500Y69998650D01*
X7906500Y69974482D01*
X7886498Y69906361D01*
X7869596Y69885387D01*
X7209157Y69224949D01*
X7190925Y69292993D01*
X7125099Y69407007D01*
X7032007Y69500099D01*
X6917993Y69565925D01*
X6849947Y69584159D01*
X7489168Y70223379D01*
X7489167Y70223380D01*
X7436750Y70261464D01*
X7436748Y70261465D01*
X7246292Y70358507D01*
X7246286Y70358510D01*
X7043003Y70424560D01*
X6831874Y70458000D01*
X6618126Y70458000D01*
X6406996Y70424560D01*
X6203713Y70358510D01*
X6203707Y70358507D01*
X6013253Y70261466D01*
X5960831Y70223379D01*
X5960831Y70223378D01*
X6600051Y69584158D01*
X6532007Y69565925D01*
X6417993Y69500099D01*
X6324901Y69407007D01*
X6259075Y69292993D01*
X6240842Y69224949D01*
X5601622Y69864169D01*
X5601621Y69864169D01*
X5563534Y69811747D01*
X5466493Y69621293D01*
X5466490Y69621287D01*
X5400440Y69418004D01*
X5367000Y69206874D01*
X5367000Y68993127D01*
X5400440Y68781997D01*
X5466490Y68578714D01*
X5466493Y68578708D01*
X5563535Y68388252D01*
X5563536Y68388250D01*
X5601620Y68335833D01*
X5601621Y68335832D01*
X6240841Y68975053D01*
X6259075Y68907007D01*
X6324901Y68792993D01*
X6417993Y68699901D01*
X6532007Y68634075D01*
X6600051Y68615843D01*
X5960831Y67976622D01*
X6013249Y67938537D01*
X6013251Y67938536D01*
X6203707Y67841494D01*
X6203713Y67841491D01*
X6406996Y67775441D01*
X6618126Y67742000D01*
X6831874Y67742000D01*
X7043003Y67775441D01*
X7246286Y67841491D01*
X7246292Y67841494D01*
X7436750Y67938537D01*
X7489167Y67976622D01*
X7489167Y67976624D01*
X6849948Y68615843D01*
X6917993Y68634075D01*
X7032007Y68699901D01*
X7125099Y68792993D01*
X7190925Y68907007D01*
X7209157Y68975052D01*
X7869595Y68314614D01*
X7903621Y68252302D01*
X7906500Y68225519D01*
X7906500Y68201351D01*
X7913009Y68140804D01*
X7913011Y68140796D01*
X7964110Y68003798D01*
X7964112Y68003793D01*
X8051738Y67886739D01*
X8168792Y67799113D01*
X8168794Y67799112D01*
X8168796Y67799111D01*
X8227875Y67777076D01*
X8305795Y67748012D01*
X8305803Y67748010D01*
X8366350Y67741501D01*
X8366355Y67741501D01*
X8366362Y67741500D01*
X8366368Y67741500D01*
X10163632Y67741500D01*
X10163638Y67741500D01*
X10163645Y67741501D01*
X10163649Y67741501D01*
X10224196Y67748010D01*
X10224199Y67748011D01*
X10224201Y67748011D01*
X10361204Y67799111D01*
X10370864Y67806342D01*
X10478261Y67886739D01*
X10565887Y68003793D01*
X10565887Y68003794D01*
X10565889Y68003796D01*
X10616989Y68140799D01*
X10617019Y68141079D01*
X10617103Y68141282D01*
X10618803Y68148474D01*
X10619967Y68148199D01*
X10644180Y68206672D01*
X10702493Y68247169D01*
X10773444Y68249712D01*
X10831393Y68216717D01*
X17607124Y61440986D01*
X17715986Y61332124D01*
X17715987Y61332123D01*
X17715989Y61332122D01*
X17767718Y61302257D01*
X17849314Y61255147D01*
X17998023Y61215300D01*
X18151977Y61215300D01*
X18905620Y61215300D01*
X18973741Y61195298D01*
X18994715Y61178395D01*
X19708715Y60464395D01*
X19742741Y60402083D01*
X19737676Y60331268D01*
X19695129Y60274432D01*
X19628609Y60249621D01*
X19619620Y60249300D01*
X17840998Y60249300D01*
X17772877Y60269302D01*
X17736231Y60305301D01*
X17734879Y60307324D01*
X17731367Y60312581D01*
X17589781Y60454167D01*
X17423293Y60565410D01*
X17304427Y60614646D01*
X17238305Y60642035D01*
X17238302Y60642036D01*
X17041919Y60681100D01*
X17041916Y60681100D01*
X16841684Y60681100D01*
X16841680Y60681100D01*
X16645297Y60642036D01*
X16645294Y60642035D01*
X16460308Y60565411D01*
X16376801Y60509614D01*
X16309048Y60488400D01*
X16240581Y60507184D01*
X16236799Y60509614D01*
X16188510Y60541879D01*
X16153293Y60565410D01*
X16037189Y60613502D01*
X15968305Y60642035D01*
X15968302Y60642036D01*
X15771919Y60681100D01*
X15771916Y60681100D01*
X15571684Y60681100D01*
X15571680Y60681100D01*
X15375297Y60642036D01*
X15375294Y60642035D01*
X15190307Y60565410D01*
X15023817Y60454166D01*
X15023811Y60454161D01*
X14882239Y60312589D01*
X14882234Y60312583D01*
X14770990Y60146093D01*
X14694365Y59961106D01*
X14694364Y59961103D01*
X14655300Y59764720D01*
X14655300Y59564481D01*
X14694364Y59368098D01*
X14694365Y59368095D01*
X14770989Y59183109D01*
X14827086Y59099152D01*
X14848300Y59031399D01*
X14829516Y58962932D01*
X14827086Y58959151D01*
X14771433Y58875859D01*
X14771432Y58875857D01*
X14694846Y58690962D01*
X14694844Y58690957D01*
X14655800Y58494670D01*
X14655800Y58294531D01*
X14694844Y58098244D01*
X14694846Y58098239D01*
X14771434Y57913340D01*
X14795423Y57877437D01*
X15354300Y58436312D01*
X15354300Y58352800D01*
X15375937Y58272049D01*
X15417737Y58199650D01*
X15476850Y58140537D01*
X15549249Y58098737D01*
X15630000Y58077100D01*
X15713600Y58077100D01*
X15794351Y58098737D01*
X15866750Y58140537D01*
X15925863Y58199650D01*
X15939474Y58223225D01*
X15964364Y58098098D01*
X15964365Y58098095D01*
X15973170Y58076838D01*
X15980759Y58006248D01*
X15948980Y57942761D01*
X15887921Y57906534D01*
X15816970Y57909068D01*
X15767666Y57939525D01*
X15671801Y58035390D01*
X15671799Y58035390D01*
X15396010Y57759601D01*
X15671799Y57483812D01*
X15767665Y57579677D01*
X15829977Y57613702D01*
X15900793Y57608638D01*
X15957629Y57566091D01*
X15982440Y57499571D01*
X15973171Y57442367D01*
X15964366Y57421110D01*
X15964364Y57421103D01*
X15939473Y57295976D01*
X15925863Y57319550D01*
X15866750Y57378663D01*
X15794351Y57420463D01*
X15713600Y57442100D01*
X15630000Y57442100D01*
X15549249Y57420463D01*
X15476850Y57378663D01*
X15417737Y57319550D01*
X15375937Y57247151D01*
X15354300Y57166400D01*
X15354300Y57082890D01*
X14795423Y57641766D01*
X14771433Y57605858D01*
X14694846Y57420962D01*
X14694844Y57420957D01*
X14655800Y57224670D01*
X14655800Y57024531D01*
X14694844Y56828244D01*
X14694846Y56828239D01*
X14771432Y56643344D01*
X14827085Y56560053D01*
X14848300Y56492300D01*
X14829517Y56423833D01*
X14827086Y56420051D01*
X14770991Y56336097D01*
X14694365Y56151106D01*
X14694364Y56151103D01*
X14655300Y55954720D01*
X14655300Y55754481D01*
X14694364Y55558098D01*
X14694365Y55558095D01*
X14770989Y55373109D01*
X14827086Y55289152D01*
X14848300Y55221399D01*
X14829516Y55152932D01*
X14827086Y55149151D01*
X14771433Y55065859D01*
X14771432Y55065857D01*
X14694846Y54880962D01*
X14694844Y54880957D01*
X14655800Y54684670D01*
X14655800Y54484531D01*
X14694844Y54288244D01*
X14694846Y54288239D01*
X14771432Y54103344D01*
X14795424Y54067437D01*
X15354300Y54626312D01*
X15354300Y54542800D01*
X15375937Y54462049D01*
X15417737Y54389650D01*
X15476850Y54330537D01*
X15549249Y54288737D01*
X15630000Y54267100D01*
X15713508Y54267100D01*
X15154634Y53708227D01*
X15154635Y53708226D01*
X15190540Y53684234D01*
X15375438Y53607647D01*
X15375443Y53607645D01*
X15571730Y53568601D01*
X15571734Y53568600D01*
X15771866Y53568600D01*
X15771869Y53568601D01*
X15968156Y53607645D01*
X15968161Y53607647D01*
X16153053Y53684231D01*
X16236347Y53739887D01*
X16304100Y53761102D01*
X16372567Y53742319D01*
X16376335Y53739898D01*
X16460307Y53683790D01*
X16645298Y53607164D01*
X16841684Y53568100D01*
X17041916Y53568100D01*
X17238302Y53607164D01*
X17423293Y53683790D01*
X17589781Y53795033D01*
X17731367Y53936619D01*
X17842610Y54103107D01*
X17919236Y54288098D01*
X17958300Y54484484D01*
X17958300Y54684716D01*
X17919236Y54881102D01*
X17842610Y55066093D01*
X17786812Y55149601D01*
X17765598Y55217350D01*
X17784381Y55285817D01*
X17786793Y55289571D01*
X17842610Y55373107D01*
X17919236Y55558098D01*
X17958300Y55754484D01*
X17958300Y55954716D01*
X17919236Y56151102D01*
X17842610Y56336093D01*
X17786812Y56419601D01*
X17765598Y56487350D01*
X17784381Y56555817D01*
X17786793Y56559571D01*
X17842610Y56643107D01*
X17919236Y56828098D01*
X17958300Y57024484D01*
X17958300Y57224716D01*
X17919236Y57421102D01*
X17842610Y57606093D01*
X17841685Y57607477D01*
X17837394Y57613900D01*
X17816180Y57681653D01*
X17834964Y57750119D01*
X17887782Y57797562D01*
X17942160Y57809900D01*
X19211020Y57809900D01*
X19279141Y57789898D01*
X19300115Y57772995D01*
X21833579Y55239529D01*
X21833583Y55239526D01*
X21833586Y55239523D01*
X21833589Y55239522D01*
X21833592Y55239519D01*
X21931050Y55183252D01*
X21980044Y55131870D01*
X21993481Y55062157D01*
X21967094Y54996245D01*
X21957146Y54985038D01*
X21456090Y54483982D01*
X21402156Y54452083D01*
X21399948Y54451441D01*
X21396603Y54450469D01*
X21396598Y54450467D01*
X21256660Y54367708D01*
X21256653Y54367702D01*
X21141698Y54252747D01*
X21141692Y54252740D01*
X21058932Y54112801D01*
X21013570Y53956666D01*
X21013570Y53956665D01*
X21010700Y53920199D01*
X21010700Y53420213D01*
X21013570Y53383735D01*
X21035830Y53307116D01*
X21035627Y53236120D01*
X20997072Y53176504D01*
X20949987Y53150967D01*
X20821998Y53113782D01*
X20678898Y53029152D01*
X20678896Y53029151D01*
X20561349Y52911604D01*
X20561348Y52911602D01*
X20476718Y52768502D01*
X20430334Y52608850D01*
X20427400Y52571557D01*
X20427400Y52171600D01*
X22053787Y52171600D01*
X22060045Y52175018D01*
X22088544Y52192019D01*
X22091028Y52191937D01*
X22093211Y52193128D01*
X22126330Y52190761D01*
X22159501Y52189655D01*
X22161546Y52188243D01*
X22164027Y52188065D01*
X22190609Y52168167D01*
X22217916Y52149304D01*
X22219216Y52146753D01*
X22220864Y52145519D01*
X22236290Y52118505D01*
X22239526Y52110745D01*
X22264347Y52018114D01*
X22314072Y51931988D01*
X22317193Y51924505D01*
X22319480Y51903699D01*
X22326900Y51876008D01*
X22326900Y51414600D01*
X22306898Y51346479D01*
X22253242Y51299986D01*
X22200900Y51288600D01*
X22169400Y51288600D01*
X22101279Y51308602D01*
X22054786Y51362258D01*
X22043400Y51414600D01*
X22043400Y51663600D01*
X21489400Y51663600D01*
X21489400Y51034945D01*
X21471854Y50970807D01*
X21426256Y50893705D01*
X21379837Y50733930D01*
X21379837Y50733929D01*
X21376900Y50696612D01*
X21376900Y49388589D01*
X21379837Y49351272D01*
X21379837Y49351271D01*
X21426256Y49191495D01*
X21510944Y49048297D01*
X21510946Y49048294D01*
X21510947Y49048293D01*
X21563796Y48995444D01*
X21597820Y48933134D01*
X21600700Y48906350D01*
X21600700Y40092025D01*
X21600699Y40092025D01*
X21609678Y40058517D01*
X21637197Y39955815D01*
X21640547Y39943315D01*
X21640548Y39943311D01*
X21644124Y39937118D01*
X21644126Y39937115D01*
X21717521Y39809990D01*
X21717529Y39809980D01*
X24870595Y36656915D01*
X24885539Y36629547D01*
X24902396Y36603318D01*
X24903301Y36597020D01*
X24904621Y36594603D01*
X24907500Y36567820D01*
X24907500Y36550100D01*
X24887498Y36481979D01*
X24833842Y36435486D01*
X24781500Y36424100D01*
X23814322Y36424100D01*
X23746201Y36444102D01*
X23725227Y36461005D01*
X11518362Y48667871D01*
X11518352Y48667879D01*
X11447993Y48708500D01*
X11385028Y48744853D01*
X11236319Y48784700D01*
X11236317Y48784700D01*
X6691500Y48784700D01*
X6623379Y48804702D01*
X6576886Y48858358D01*
X6565500Y48910700D01*
X6565500Y49098633D01*
X6565499Y49098650D01*
X6558990Y49159197D01*
X6558988Y49159205D01*
X6525587Y49248754D01*
X6507889Y49296204D01*
X6507888Y49296206D01*
X6507887Y49296208D01*
X6420261Y49413262D01*
X6303207Y49500888D01*
X6303202Y49500890D01*
X6166204Y49551989D01*
X6166196Y49551991D01*
X6105649Y49558500D01*
X6105638Y49558500D01*
X4308362Y49558500D01*
X4308350Y49558500D01*
X4247803Y49551991D01*
X4247795Y49551989D01*
X4110797Y49500890D01*
X4110792Y49500888D01*
X3993738Y49413262D01*
X3906112Y49296208D01*
X3906110Y49296203D01*
X3855011Y49159205D01*
X3855009Y49159197D01*
X3848500Y49098650D01*
X3848500Y47301351D01*
X3855009Y47240804D01*
X3855011Y47240796D01*
X3906110Y47103798D01*
X3906112Y47103793D01*
X3993738Y46986739D01*
X4090497Y46914306D01*
X4133044Y46857470D01*
X4138108Y46786654D01*
X4104083Y46724342D01*
X4089054Y46711507D01*
X4070627Y46698118D01*
X4067989Y46696201D01*
X3916798Y46545010D01*
X3916796Y46545007D01*
X3791108Y46372013D01*
X3694029Y46181485D01*
X3694026Y46181479D01*
X3627952Y45978122D01*
X3627951Y45978117D01*
X3627951Y45978116D01*
X3594500Y45766916D01*
X75500Y45766916D01*
X75500Y51263644D01*
X20427401Y51263644D01*
X20430334Y51226350D01*
X20476718Y51066700D01*
X20561348Y50923599D01*
X20561349Y50923597D01*
X20678897Y50806049D01*
X20822000Y50721419D01*
X20981400Y50675109D01*
X20981400Y51663600D01*
X20427401Y51663600D01*
X20427401Y51263644D01*
X75500Y51263644D01*
X75500Y55848638D01*
X3716500Y55848638D01*
X3716500Y55834899D01*
X3716500Y54751351D01*
X3723009Y54690804D01*
X3723011Y54690796D01*
X3774110Y54553798D01*
X3774112Y54553793D01*
X3861738Y54436739D01*
X3978792Y54349113D01*
X3978794Y54349112D01*
X3978796Y54349111D01*
X4028594Y54330537D01*
X4115795Y54298012D01*
X4115803Y54298010D01*
X4176350Y54291501D01*
X4176355Y54291501D01*
X4176362Y54291500D01*
X4176368Y54291500D01*
X5023632Y54291500D01*
X5023638Y54291500D01*
X5023645Y54291501D01*
X5023649Y54291501D01*
X5084196Y54298010D01*
X5084199Y54298011D01*
X5084201Y54298011D01*
X5221204Y54349111D01*
X5338261Y54436739D01*
X5355020Y54459126D01*
X5425887Y54553793D01*
X5425887Y54553794D01*
X5425889Y54553796D01*
X5476989Y54690799D01*
X5478537Y54705193D01*
X5483499Y54751351D01*
X5483500Y54751368D01*
X5483500Y55848633D01*
X5483499Y55848650D01*
X5476990Y55909197D01*
X5476988Y55909205D01*
X5425889Y56046203D01*
X5425886Y56046209D01*
X5407313Y56071019D01*
X5382501Y56137539D01*
X5384600Y56171103D01*
X5413700Y56317395D01*
X5413700Y56482605D01*
X5381469Y56644640D01*
X5318246Y56797273D01*
X5226461Y56934640D01*
X5226459Y56934642D01*
X5226454Y56934648D01*
X5109647Y57051455D01*
X5109641Y57051460D01*
X5089391Y57064991D01*
X4972273Y57143246D01*
X4819641Y57206469D01*
X4657607Y57238700D01*
X4657605Y57238700D01*
X4492395Y57238700D01*
X4492392Y57238700D01*
X4330358Y57206469D01*
X4330357Y57206468D01*
X4177725Y57143245D01*
X4040358Y57051460D01*
X4040352Y57051455D01*
X3923545Y56934648D01*
X3923540Y56934642D01*
X3838470Y56807324D01*
X3831754Y56797273D01*
X3830399Y56794002D01*
X3768532Y56644643D01*
X3768531Y56644642D01*
X3736300Y56482608D01*
X3736300Y56317393D01*
X3768531Y56155360D01*
X3768534Y56155351D01*
X3773919Y56142350D01*
X3776454Y56118762D01*
X3783494Y56096101D01*
X3780992Y56076541D01*
X3781506Y56071760D01*
X3779397Y56064075D01*
X3778944Y56060527D01*
X3775489Y56048046D01*
X3774111Y56046204D01*
X3723011Y55909201D01*
X3716500Y55848638D01*
X75500Y55848638D01*
X75500Y61848650D01*
X3716500Y61848650D01*
X3716500Y60751351D01*
X3723009Y60690804D01*
X3723011Y60690796D01*
X3774109Y60553799D01*
X3774110Y60553798D01*
X3774111Y60553796D01*
X3779388Y60546746D01*
X3804200Y60480228D01*
X3794932Y60423025D01*
X3793535Y60419654D01*
X3793531Y60419641D01*
X3761300Y60257608D01*
X3761300Y60092393D01*
X3786893Y59963729D01*
X3793531Y59930360D01*
X3856754Y59777727D01*
X3943072Y59648543D01*
X3948540Y59640359D01*
X3948545Y59640353D01*
X4065352Y59523546D01*
X4065358Y59523541D01*
X4065360Y59523539D01*
X4202727Y59431754D01*
X4355360Y59368531D01*
X4517395Y59336300D01*
X4517396Y59336300D01*
X4682604Y59336300D01*
X4682605Y59336300D01*
X4844640Y59368531D01*
X4997273Y59431754D01*
X5134640Y59523539D01*
X5251461Y59640360D01*
X5343246Y59777727D01*
X5406469Y59930360D01*
X5438700Y60092395D01*
X5438700Y60257605D01*
X5406469Y60419640D01*
X5405069Y60423020D01*
X5404863Y60424931D01*
X5404672Y60425562D01*
X5404791Y60425599D01*
X5397480Y60493610D01*
X5420612Y60546748D01*
X5425889Y60553796D01*
X5458801Y60642036D01*
X5476988Y60690796D01*
X5476990Y60690804D01*
X5483499Y60751351D01*
X5483500Y60751368D01*
X5483500Y61848633D01*
X5483499Y61848650D01*
X7466500Y61848650D01*
X7466500Y60751351D01*
X7473009Y60690804D01*
X7473011Y60690796D01*
X7524110Y60553798D01*
X7524112Y60553793D01*
X7611738Y60436739D01*
X7714809Y60359581D01*
X7757356Y60302745D01*
X7765300Y60258713D01*
X7765300Y56341287D01*
X7745298Y56273166D01*
X7714809Y56240419D01*
X7611738Y56163262D01*
X7524112Y56046208D01*
X7524110Y56046203D01*
X7473011Y55909205D01*
X7473009Y55909197D01*
X7466500Y55848650D01*
X7466500Y54751351D01*
X7473009Y54690804D01*
X7473011Y54690796D01*
X7524110Y54553798D01*
X7524112Y54553793D01*
X7611738Y54436739D01*
X7728792Y54349113D01*
X7728794Y54349112D01*
X7728796Y54349111D01*
X7778594Y54330537D01*
X7865795Y54298012D01*
X7865803Y54298010D01*
X7926350Y54291501D01*
X7926355Y54291501D01*
X7926362Y54291500D01*
X7926368Y54291500D01*
X8773632Y54291500D01*
X8773638Y54291500D01*
X8773645Y54291501D01*
X8773649Y54291501D01*
X8834196Y54298010D01*
X8834199Y54298011D01*
X8834201Y54298011D01*
X8971204Y54349111D01*
X9088261Y54436739D01*
X9175889Y54553796D01*
X9205556Y54633336D01*
X9219039Y54651348D01*
X9228386Y54671812D01*
X9239898Y54679211D01*
X9248101Y54690168D01*
X9269184Y54698032D01*
X9288112Y54710196D01*
X9310382Y54713399D01*
X9314621Y54714979D01*
X9323610Y54715300D01*
X9489001Y54715300D01*
X9557122Y54695298D01*
X9603615Y54641642D01*
X9613719Y54571368D01*
X9612585Y54564751D01*
X9597123Y54487013D01*
X9586300Y54432608D01*
X9586300Y54267393D01*
X9589215Y54252741D01*
X9618531Y54105360D01*
X9681754Y53952727D01*
X9746814Y53855358D01*
X9773540Y53815359D01*
X9773545Y53815353D01*
X9890352Y53698546D01*
X9890358Y53698541D01*
X9890360Y53698539D01*
X10027727Y53606754D01*
X10180360Y53543531D01*
X10342395Y53511300D01*
X10342396Y53511300D01*
X10507604Y53511300D01*
X10507605Y53511300D01*
X10669640Y53543531D01*
X10822273Y53606754D01*
X10959640Y53698539D01*
X11076461Y53815360D01*
X11168246Y53952727D01*
X11231469Y54105360D01*
X11263700Y54267395D01*
X11263700Y54432605D01*
X11231469Y54594640D01*
X11226249Y54607242D01*
X11222285Y54616813D01*
X11214696Y54687403D01*
X11217697Y54700183D01*
X11219154Y54705197D01*
X11250629Y54813534D01*
X11253500Y54850011D01*
X11253499Y55249988D01*
X11250629Y55286466D01*
X11205269Y55442596D01*
X11173477Y55496353D01*
X11156018Y55565167D01*
X11173478Y55624632D01*
X11204807Y55677605D01*
X11245015Y55816000D01*
X10762542Y55816000D01*
X10727390Y55821003D01*
X10711468Y55825629D01*
X10711464Y55825630D01*
X10674998Y55828500D01*
X10674989Y55828500D01*
X10462771Y55828500D01*
X10408835Y55842952D01*
X10408314Y55841693D01*
X10400688Y55844852D01*
X10400687Y55844853D01*
X10400686Y55844853D01*
X10251977Y55884700D01*
X10251974Y55884700D01*
X9323610Y55884700D01*
X9255489Y55904702D01*
X9208996Y55958358D01*
X9205564Y55966642D01*
X9175889Y56046204D01*
X9175886Y56046208D01*
X9175886Y56046209D01*
X9088261Y56163262D01*
X9042088Y56197826D01*
X8985191Y56240419D01*
X8942644Y56297255D01*
X8937819Y56324000D01*
X9604985Y56324000D01*
X10171000Y56324000D01*
X10679000Y56324000D01*
X11245015Y56324000D01*
X11204805Y56462400D01*
X11122110Y56602229D01*
X11122105Y56602236D01*
X11007235Y56717106D01*
X11007228Y56717111D01*
X10867399Y56799806D01*
X10711391Y56845131D01*
X10679000Y56847681D01*
X10679000Y56324000D01*
X10171000Y56324000D01*
X10171000Y56847681D01*
X10138610Y56845131D01*
X10138607Y56845131D01*
X9982600Y56799806D01*
X9842771Y56717111D01*
X9842764Y56717106D01*
X9727894Y56602236D01*
X9727889Y56602229D01*
X9645194Y56462400D01*
X9604985Y56324000D01*
X8937819Y56324000D01*
X8934700Y56341287D01*
X8934700Y60258713D01*
X8954702Y60326834D01*
X8985191Y60359581D01*
X9088261Y60436739D01*
X9175887Y60553793D01*
X9175887Y60553794D01*
X9175889Y60553796D01*
X9226989Y60690799D01*
X9227686Y60697275D01*
X9233499Y60751351D01*
X9233500Y60751368D01*
X9233500Y61848633D01*
X9233499Y61848650D01*
X9226990Y61909197D01*
X9226988Y61909205D01*
X9197924Y61987125D01*
X9175889Y62046204D01*
X9175888Y62046206D01*
X9175887Y62046208D01*
X9088261Y62163262D01*
X8971207Y62250888D01*
X8971202Y62250890D01*
X8834204Y62301989D01*
X8834196Y62301991D01*
X8773649Y62308500D01*
X8773638Y62308500D01*
X7926362Y62308500D01*
X7926350Y62308500D01*
X7865803Y62301991D01*
X7865795Y62301989D01*
X7728797Y62250890D01*
X7728792Y62250888D01*
X7611738Y62163262D01*
X7524112Y62046208D01*
X7524110Y62046203D01*
X7473011Y61909205D01*
X7473009Y61909197D01*
X7466500Y61848650D01*
X5483499Y61848650D01*
X5476990Y61909197D01*
X5476988Y61909205D01*
X5447924Y61987125D01*
X5425889Y62046204D01*
X5425888Y62046206D01*
X5425887Y62046208D01*
X5338261Y62163262D01*
X5221207Y62250888D01*
X5221202Y62250890D01*
X5084204Y62301989D01*
X5084196Y62301991D01*
X5023649Y62308500D01*
X5023638Y62308500D01*
X4176362Y62308500D01*
X4176350Y62308500D01*
X4115803Y62301991D01*
X4115795Y62301989D01*
X3978797Y62250890D01*
X3978792Y62250888D01*
X3861738Y62163262D01*
X3774112Y62046208D01*
X3774110Y62046203D01*
X3723011Y61909205D01*
X3723009Y61909197D01*
X3716500Y61848650D01*
X75500Y61848650D01*
X75500Y71056195D01*
X75730Y71063801D01*
X76439Y71075517D01*
X20017000Y71075517D01*
X20017000Y70679000D01*
X21271000Y70679000D01*
X21779000Y70679000D01*
X23033000Y70679000D01*
X23033000Y71075517D01*
X28917000Y71075517D01*
X28917000Y70679000D01*
X30171000Y70679000D01*
X30679000Y70679000D01*
X31933000Y70679000D01*
X31933000Y71075517D01*
X31922394Y71179319D01*
X31922393Y71179322D01*
X31866657Y71347526D01*
X31773634Y71498340D01*
X31773629Y71498346D01*
X31648345Y71623630D01*
X31648339Y71623635D01*
X31497525Y71716658D01*
X31353177Y71764489D01*
X31353174Y71764491D01*
X31329330Y71772393D01*
X31329318Y71772395D01*
X31225516Y71783000D01*
X30679000Y71783000D01*
X30679000Y70679000D01*
X30171000Y70679000D01*
X30171000Y71783000D01*
X29624483Y71783000D01*
X29520681Y71772395D01*
X29520678Y71772394D01*
X29352474Y71716658D01*
X29201660Y71623635D01*
X29201654Y71623630D01*
X29076370Y71498346D01*
X29076365Y71498340D01*
X28983342Y71347526D01*
X28927606Y71179322D01*
X28927605Y71179319D01*
X28917000Y71075517D01*
X23033000Y71075517D01*
X23022394Y71179319D01*
X23022393Y71179322D01*
X22966657Y71347526D01*
X22873634Y71498340D01*
X22873629Y71498346D01*
X22748345Y71623630D01*
X22748339Y71623635D01*
X22597525Y71716658D01*
X22429321Y71772394D01*
X22429318Y71772395D01*
X22325516Y71783000D01*
X21779000Y71783000D01*
X21779000Y70679000D01*
X21271000Y70679000D01*
X21271000Y71783000D01*
X20724483Y71783000D01*
X20620681Y71772395D01*
X20620678Y71772394D01*
X20452474Y71716658D01*
X20301660Y71623635D01*
X20301654Y71623630D01*
X20176370Y71498346D01*
X20176365Y71498340D01*
X20083342Y71347526D01*
X20027606Y71179322D01*
X20027605Y71179319D01*
X20017000Y71075517D01*
X76439Y71075517D01*
X77092Y71086322D01*
X77092Y71086323D01*
X80978Y71150567D01*
X93009Y71349469D01*
X94840Y71364546D01*
X145742Y71642310D01*
X149375Y71657050D01*
X228010Y71909400D01*
X33241385Y71909400D01*
X33807400Y71909400D01*
X34315400Y71909400D01*
X34881415Y71909400D01*
X34841205Y72047800D01*
X34758510Y72187629D01*
X34758505Y72187636D01*
X34643635Y72302506D01*
X34643628Y72302511D01*
X34503799Y72385206D01*
X34347791Y72430531D01*
X34315400Y72433081D01*
X34315400Y71909400D01*
X33807400Y71909400D01*
X33807400Y72433081D01*
X33775010Y72430531D01*
X33775007Y72430531D01*
X33619000Y72385206D01*
X33479171Y72302511D01*
X33479164Y72302506D01*
X33364294Y72187636D01*
X33364289Y72187629D01*
X33281594Y72047800D01*
X33241385Y71909400D01*
X228010Y71909400D01*
X233391Y71926667D01*
X238778Y71940868D01*
X354665Y72198360D01*
X361734Y72211828D01*
X507820Y72453486D01*
X516452Y72465991D01*
X690602Y72688277D01*
X700677Y72699649D01*
X900351Y72899323D01*
X911723Y72909398D01*
X1134009Y73083548D01*
X1146514Y73092180D01*
X1388175Y73238268D01*
X1401640Y73245335D01*
X1659132Y73361222D01*
X1673333Y73366609D01*
X1942950Y73450625D01*
X1957690Y73454258D01*
X2235454Y73505160D01*
X2250531Y73506991D01*
X2509703Y73522668D01*
X2536199Y73524270D01*
X2543806Y73524500D01*
X2564531Y73524500D01*
X50775469Y73524500D01*
X50796194Y73524500D01*
X50803801Y73524270D01*
G37*
%TD.AperFunction*%
%TD*%
M02*
