M48
; DRILL file KiCad 10.0.2 date 2026-06-21T18:45:48
; FORMAT={-:-/ absolute / inch / decimal}
; #@! TF.CreationDate,2026-06-21T18:45:48-04:00
; #@! TF.GenerationSoftware,Kicad,Pcbnew,10.0.2
; #@! TF.FileFunction,Plated,1,2,PTH
FMAT,2
INCH
; #@! TA.AperFunction,Plated,PTH,ViaDrill
T1C0.0120
; #@! TA.AperFunction,Plated,PTH,ComponentDrill
T2C0.0240
; #@! TA.AperFunction,Plated,PTH,ComponentDrill
T3C0.0250
; #@! TA.AperFunction,Plated,PTH,ComponentDrill
T4C0.0374
%
G90
G05
T1
X0.5Y-0.9409
X0.5512Y-0.7126
X0.9055Y-0.2992
X1.0748Y-0.937
X1.1102Y-1.4016
X1.5354Y-0.4685
X1.6181Y-0.5118
X1.6299Y-0.6929
T2
X0.95Y-1.2821
X0.95Y-1.3321
X1.0Y-1.2821
X1.0Y-1.3321
X1.05Y-1.2821
X1.05Y-1.3321
T3
X0.9594Y-0.4992
X0.9594Y-0.5492
X1.0094Y-0.4992
X1.0094Y-0.5492
X1.0594Y-0.4992
X1.0594Y-0.5492
X1.1094Y-0.4992
X1.1094Y-0.5492
X1.1594Y-0.4992
X1.1594Y-0.5492
T4
X0.3346Y-0.5354
X0.4331Y-0.5354
X0.5315Y-0.5354
X0.6299Y-0.5354
M30
