%TF.GenerationSoftware,KiCad,Pcbnew,10.0.2*%
%TF.CreationDate,2026-06-21T18:45:48-04:00*%
%TF.ProjectId,TagPwrMonitor,54616750-7772-44d6-9f6e-69746f722e6b,rev?*%
%TF.SameCoordinates,Original*%
%TF.FileFunction,Soldermask,Top*%
%TF.FilePolarity,Negative*%
%FSLAX46Y46*%
G04 Gerber Fmt 4.6, Leading zero omitted, Abs format (unit mm)*
G04 Created by KiCad (PCBNEW 10.0.2) date 2026-06-21 18:45:48*
%MOMM*%
%LPD*%
G01*
G04 APERTURE LIST*
G04 Aperture macros list*
%AMRoundRect*
0 Rectangle with rounded corners*
0 $1 Rounding radius*
0 $2 $3 $4 $5 $6 $7 $8 $9 X,Y pos of 4 corners*
0 Add a 4 corners polygon primitive as box body*
4,1,4,$2,$3,$4,$5,$6,$7,$8,$9,$2,$3,0*
0 Add four circle primitives for the rounded corners*
1,1,$1+$1,$2,$3*
1,1,$1+$1,$4,$5*
1,1,$1+$1,$6,$7*
1,1,$1+$1,$8,$9*
0 Add four rect primitives between the rounded corners*
20,1,$1+$1,$2,$3,$4,$5,0*
20,1,$1+$1,$4,$5,$6,$7,0*
20,1,$1+$1,$6,$7,$8,$9,0*
20,1,$1+$1,$8,$9,$2,$3,0*%
%AMFreePoly0*
4,1,23,0.500000,-0.750000,0.000000,-0.750000,0.000000,-0.745722,-0.065263,-0.745722,-0.191342,-0.711940,-0.304381,-0.646677,-0.396677,-0.554381,-0.461940,-0.441342,-0.495722,-0.315263,-0.495722,-0.250000,-0.500000,-0.250000,-0.500000,0.250000,-0.495722,0.250000,-0.495722,0.315263,-0.461940,0.441342,-0.396677,0.554381,-0.304381,0.646677,-0.191342,0.711940,-0.065263,0.745722,0.000000,0.745722,
0.000000,0.750000,0.500000,0.750000,0.500000,-0.750000,0.500000,-0.750000,$1*%
%AMFreePoly1*
4,1,23,0.000000,0.745722,0.065263,0.745722,0.191342,0.711940,0.304381,0.646677,0.396677,0.554381,0.461940,0.441342,0.495722,0.315263,0.495722,0.250000,0.500000,0.250000,0.500000,-0.250000,0.495722,-0.250000,0.495722,-0.315263,0.461940,-0.441342,0.396677,-0.554381,0.304381,-0.646677,0.191342,-0.711940,0.065263,-0.745722,0.000000,-0.745722,0.000000,-0.750000,-0.500000,-0.750000,
-0.500000,0.750000,0.000000,0.750000,0.000000,0.745722,0.000000,0.745722,$1*%
G04 Aperture macros list end*
%ADD10C,1.016000*%
%ADD11C,0.939800*%
%ADD12RoundRect,0.250000X0.600000X0.725000X-0.600000X0.725000X-0.600000X-0.725000X0.600000X-0.725000X0*%
%ADD13O,1.700000X1.950000*%
%ADD14RoundRect,0.150000X-0.512500X-0.150000X0.512500X-0.150000X0.512500X0.150000X-0.512500X0.150000X0*%
%ADD15RoundRect,0.150000X-0.150000X0.587500X-0.150000X-0.587500X0.150000X-0.587500X0.150000X0.587500X0*%
%ADD16RoundRect,0.250000X0.250000X0.475000X-0.250000X0.475000X-0.250000X-0.475000X0.250000X-0.475000X0*%
%ADD17FreePoly0,0.000000*%
%ADD18FreePoly1,0.000000*%
%ADD19RoundRect,0.250000X0.475000X-0.250000X0.475000X0.250000X-0.475000X0.250000X-0.475000X-0.250000X0*%
%ADD20FreePoly0,270.000000*%
%ADD21FreePoly1,270.000000*%
%ADD22RoundRect,0.250000X-0.262500X-0.450000X0.262500X-0.450000X0.262500X0.450000X-0.262500X0.450000X0*%
%ADD23RoundRect,0.250000X0.262500X0.450000X-0.262500X0.450000X-0.262500X-0.450000X0.262500X-0.450000X0*%
%ADD24FreePoly0,90.000000*%
%ADD25FreePoly1,90.000000*%
G04 APERTURE END LIST*
%TO.C,JP3*%
G36*
X28900000Y-7950000D02*
G01*
X29200000Y-7950000D01*
X29200000Y-9450000D01*
X28900000Y-9450000D01*
X28900000Y-7950000D01*
G37*
%TO.C,JP2*%
G36*
X33950000Y-9700000D02*
G01*
X35450000Y-9700000D01*
X35450000Y-10000000D01*
X33950000Y-10000000D01*
X33950000Y-9700000D01*
G37*
%TO.C,JP1*%
G36*
X34050000Y-13700000D02*
G01*
X35550000Y-13700000D01*
X35550000Y-14000000D01*
X34050000Y-14000000D01*
X34050000Y-13700000D01*
G37*
%TD*%
D10*
%TO.C,J102*%
X29450000Y-12680000D03*
X29450000Y-13950000D03*
X28180000Y-12680000D03*
X28180000Y-13950000D03*
X26910000Y-12680000D03*
X26910000Y-13950000D03*
X25640000Y-12680000D03*
X25640000Y-13950000D03*
X24370000Y-12680000D03*
X24370000Y-13950000D03*
%TD*%
D11*
%TO.C,J101*%
X24130000Y-33835000D03*
X24130000Y-32565000D03*
X25400000Y-33835000D03*
X25400000Y-32565000D03*
X26670000Y-33835000D03*
X26670000Y-32565000D03*
%TD*%
D12*
%TO.C,J1*%
X16000000Y-13600000D03*
D13*
X13500000Y-13600000D03*
X11000000Y-13600000D03*
X8500000Y-13600000D03*
%TD*%
D14*
%TO.C,U1*%
X42500000Y-13000000D03*
X42500000Y-14900000D03*
X44775000Y-13950000D03*
%TD*%
D15*
%TO.C,Q1*%
X15950000Y-19062500D03*
X14050000Y-19062500D03*
X15000000Y-20937500D03*
%TD*%
D16*
%TO.C,C2*%
X44500000Y-17500000D03*
X42600000Y-17500000D03*
%TD*%
D17*
%TO.C,JP3*%
X28400000Y-8700000D03*
D18*
X29700000Y-8700000D03*
%TD*%
D19*
%TO.C,C1*%
X39100000Y-14800000D03*
X39100000Y-12900000D03*
%TD*%
D20*
%TO.C,JP2*%
X34700000Y-9200000D03*
D21*
X34700000Y-10500000D03*
%TD*%
D22*
%TO.C,R1*%
X9087500Y-20087500D03*
X10912500Y-20087500D03*
%TD*%
D23*
%TO.C,R2*%
X21112500Y-19900000D03*
X19287500Y-19900000D03*
%TD*%
D24*
%TO.C,JP1*%
X34800000Y-14500000D03*
D25*
X34800000Y-13200000D03*
%TD*%
M02*
