%TF.GenerationSoftware,KiCad,Pcbnew,10.0.2*%
%TF.CreationDate,2026-06-22T10:40:36-04:00*%
%TF.ProjectId,TagPwrMonitor,54616750-7772-44d6-9f6e-69746f722e6b,rev?*%
%TF.SameCoordinates,Original*%
%TF.FileFunction,Legend,Bot*%
%TF.FilePolarity,Positive*%
%FSLAX46Y46*%
G04 Gerber Fmt 4.6, Leading zero omitted, Abs format (unit mm)*
G04 Created by KiCad (PCBNEW 10.0.2) date 2026-06-22 10:40:36*
%MOMM*%
%LPD*%
G01*
G04 APERTURE LIST*
G04 Aperture macros list*
%AMRoundRect*
0 Rectangle with rounded corners*
0 $1 Rounding radius*
0 $2 $3 $4 $5 $6 $7 $8 $9 X,Y pos of 4 corners*
0 Add a 4 corners polygon primitive as box body*
4,1,4,$2,$3,$4,$5,$6,$7,$8,$9,$2,$3,0*
0 Add four circle primitives for the rounded corners*
1,1,$1+$1,$2,$3*
1,1,$1+$1,$4,$5*
1,1,$1+$1,$6,$7*
1,1,$1+$1,$8,$9*
0 Add four rect primitives between the rounded corners*
20,1,$1+$1,$2,$3,$4,$5,0*
20,1,$1+$1,$4,$5,$6,$7,0*
20,1,$1+$1,$6,$7,$8,$9,0*
20,1,$1+$1,$8,$9,$2,$3,0*%
G04 Aperture macros list end*
%ADD10C,0.200000*%
%ADD11C,0.300000*%
%ADD12C,0.150000*%
%ADD13C,1.016000*%
%ADD14C,2.160000*%
%ADD15C,1.587500*%
%ADD16C,0.939800*%
%ADD17C,1.200000*%
%ADD18RoundRect,0.250000X0.600000X0.725000X-0.600000X0.725000X-0.600000X-0.725000X0.600000X-0.725000X0*%
%ADD19O,1.700000X1.950000*%
%ADD20C,2.200000*%
%ADD21R,1.700000X1.700000*%
%ADD22C,1.700000*%
G04 APERTURE END LIST*
D10*
X23447780Y-38758898D02*
X23923971Y-39092231D01*
X23447780Y-39330326D02*
X24447780Y-39330326D01*
X24447780Y-39330326D02*
X24447780Y-38949374D01*
X24447780Y-38949374D02*
X24400161Y-38854136D01*
X24400161Y-38854136D02*
X24352542Y-38806517D01*
X24352542Y-38806517D02*
X24257304Y-38758898D01*
X24257304Y-38758898D02*
X24114447Y-38758898D01*
X24114447Y-38758898D02*
X24019209Y-38806517D01*
X24019209Y-38806517D02*
X23971590Y-38854136D01*
X23971590Y-38854136D02*
X23923971Y-38949374D01*
X23923971Y-38949374D02*
X23923971Y-39330326D01*
X23971590Y-38330326D02*
X23971590Y-37996993D01*
X23447780Y-37854136D02*
X23447780Y-38330326D01*
X23447780Y-38330326D02*
X24447780Y-38330326D01*
X24447780Y-38330326D02*
X24447780Y-37854136D01*
X23495400Y-37473183D02*
X23447780Y-37330326D01*
X23447780Y-37330326D02*
X23447780Y-37092231D01*
X23447780Y-37092231D02*
X23495400Y-36996993D01*
X23495400Y-36996993D02*
X23543019Y-36949374D01*
X23543019Y-36949374D02*
X23638257Y-36901755D01*
X23638257Y-36901755D02*
X23733495Y-36901755D01*
X23733495Y-36901755D02*
X23828733Y-36949374D01*
X23828733Y-36949374D02*
X23876352Y-36996993D01*
X23876352Y-36996993D02*
X23923971Y-37092231D01*
X23923971Y-37092231D02*
X23971590Y-37282707D01*
X23971590Y-37282707D02*
X24019209Y-37377945D01*
X24019209Y-37377945D02*
X24066828Y-37425564D01*
X24066828Y-37425564D02*
X24162066Y-37473183D01*
X24162066Y-37473183D02*
X24257304Y-37473183D01*
X24257304Y-37473183D02*
X24352542Y-37425564D01*
X24352542Y-37425564D02*
X24400161Y-37377945D01*
X24400161Y-37377945D02*
X24447780Y-37282707D01*
X24447780Y-37282707D02*
X24447780Y-37044612D01*
X24447780Y-37044612D02*
X24400161Y-36901755D01*
X23971590Y-36473183D02*
X23971590Y-36139850D01*
X23447780Y-35996993D02*
X23447780Y-36473183D01*
X23447780Y-36473183D02*
X24447780Y-36473183D01*
X24447780Y-36473183D02*
X24447780Y-35996993D01*
X24447780Y-35711278D02*
X24447780Y-35139850D01*
X23447780Y-35425564D02*
X24447780Y-35425564D01*
X24995400Y-39377945D02*
X24947780Y-39235088D01*
X24947780Y-39235088D02*
X24947780Y-38996993D01*
X24947780Y-38996993D02*
X24995400Y-38901755D01*
X24995400Y-38901755D02*
X25043019Y-38854136D01*
X25043019Y-38854136D02*
X25138257Y-38806517D01*
X25138257Y-38806517D02*
X25233495Y-38806517D01*
X25233495Y-38806517D02*
X25328733Y-38854136D01*
X25328733Y-38854136D02*
X25376352Y-38901755D01*
X25376352Y-38901755D02*
X25423971Y-38996993D01*
X25423971Y-38996993D02*
X25471590Y-39187469D01*
X25471590Y-39187469D02*
X25519209Y-39282707D01*
X25519209Y-39282707D02*
X25566828Y-39330326D01*
X25566828Y-39330326D02*
X25662066Y-39377945D01*
X25662066Y-39377945D02*
X25757304Y-39377945D01*
X25757304Y-39377945D02*
X25852542Y-39330326D01*
X25852542Y-39330326D02*
X25900161Y-39282707D01*
X25900161Y-39282707D02*
X25947780Y-39187469D01*
X25947780Y-39187469D02*
X25947780Y-38949374D01*
X25947780Y-38949374D02*
X25900161Y-38806517D01*
X25947780Y-38473183D02*
X24947780Y-38235088D01*
X24947780Y-38235088D02*
X25662066Y-38044612D01*
X25662066Y-38044612D02*
X24947780Y-37854136D01*
X24947780Y-37854136D02*
X25947780Y-37616041D01*
X24947780Y-37235088D02*
X25947780Y-37235088D01*
X25947780Y-37235088D02*
X25947780Y-36996993D01*
X25947780Y-36996993D02*
X25900161Y-36854136D01*
X25900161Y-36854136D02*
X25804923Y-36758898D01*
X25804923Y-36758898D02*
X25709685Y-36711279D01*
X25709685Y-36711279D02*
X25519209Y-36663660D01*
X25519209Y-36663660D02*
X25376352Y-36663660D01*
X25376352Y-36663660D02*
X25185876Y-36711279D01*
X25185876Y-36711279D02*
X25090638Y-36758898D01*
X25090638Y-36758898D02*
X24995400Y-36854136D01*
X24995400Y-36854136D02*
X24947780Y-36996993D01*
X24947780Y-36996993D02*
X24947780Y-37235088D01*
X24947780Y-36235088D02*
X25947780Y-36235088D01*
X25947780Y-35568422D02*
X25947780Y-35377946D01*
X25947780Y-35377946D02*
X25900161Y-35282708D01*
X25900161Y-35282708D02*
X25804923Y-35187470D01*
X25804923Y-35187470D02*
X25614447Y-35139851D01*
X25614447Y-35139851D02*
X25281114Y-35139851D01*
X25281114Y-35139851D02*
X25090638Y-35187470D01*
X25090638Y-35187470D02*
X24995400Y-35282708D01*
X24995400Y-35282708D02*
X24947780Y-35377946D01*
X24947780Y-35377946D02*
X24947780Y-35568422D01*
X24947780Y-35568422D02*
X24995400Y-35663660D01*
X24995400Y-35663660D02*
X25090638Y-35758898D01*
X25090638Y-35758898D02*
X25281114Y-35806517D01*
X25281114Y-35806517D02*
X25614447Y-35806517D01*
X25614447Y-35806517D02*
X25804923Y-35758898D01*
X25804923Y-35758898D02*
X25900161Y-35663660D01*
X25900161Y-35663660D02*
X25947780Y-35568422D01*
X27447780Y-37425564D02*
X27447780Y-36806517D01*
X27447780Y-36806517D02*
X27066828Y-37139850D01*
X27066828Y-37139850D02*
X27066828Y-36996993D01*
X27066828Y-36996993D02*
X27019209Y-36901755D01*
X27019209Y-36901755D02*
X26971590Y-36854136D01*
X26971590Y-36854136D02*
X26876352Y-36806517D01*
X26876352Y-36806517D02*
X26638257Y-36806517D01*
X26638257Y-36806517D02*
X26543019Y-36854136D01*
X26543019Y-36854136D02*
X26495400Y-36901755D01*
X26495400Y-36901755D02*
X26447780Y-36996993D01*
X26447780Y-36996993D02*
X26447780Y-37282707D01*
X26447780Y-37282707D02*
X26495400Y-37377945D01*
X26495400Y-37377945D02*
X26543019Y-37425564D01*
X27114447Y-36473183D02*
X26447780Y-36235088D01*
X26447780Y-36235088D02*
X27114447Y-35996993D01*
X27447780Y-35711278D02*
X27447780Y-35092231D01*
X27447780Y-35092231D02*
X27066828Y-35425564D01*
X27066828Y-35425564D02*
X27066828Y-35282707D01*
X27066828Y-35282707D02*
X27019209Y-35187469D01*
X27019209Y-35187469D02*
X26971590Y-35139850D01*
X26971590Y-35139850D02*
X26876352Y-35092231D01*
X26876352Y-35092231D02*
X26638257Y-35092231D01*
X26638257Y-35092231D02*
X26543019Y-35139850D01*
X26543019Y-35139850D02*
X26495400Y-35187469D01*
X26495400Y-35187469D02*
X26447780Y-35282707D01*
X26447780Y-35282707D02*
X26447780Y-35568421D01*
X26447780Y-35568421D02*
X26495400Y-35663659D01*
X26495400Y-35663659D02*
X26543019Y-35711278D01*
X24447780Y-31117292D02*
X24447780Y-30545864D01*
X23447780Y-30831578D02*
X24447780Y-30831578D01*
X23447780Y-29783959D02*
X23971590Y-29783959D01*
X23971590Y-29783959D02*
X24066828Y-29831578D01*
X24066828Y-29831578D02*
X24114447Y-29926816D01*
X24114447Y-29926816D02*
X24114447Y-30117292D01*
X24114447Y-30117292D02*
X24066828Y-30212530D01*
X23495400Y-29783959D02*
X23447780Y-29879197D01*
X23447780Y-29879197D02*
X23447780Y-30117292D01*
X23447780Y-30117292D02*
X23495400Y-30212530D01*
X23495400Y-30212530D02*
X23590638Y-30260149D01*
X23590638Y-30260149D02*
X23685876Y-30260149D01*
X23685876Y-30260149D02*
X23781114Y-30212530D01*
X23781114Y-30212530D02*
X23828733Y-30117292D01*
X23828733Y-30117292D02*
X23828733Y-29879197D01*
X23828733Y-29879197D02*
X23876352Y-29783959D01*
X24114447Y-28879197D02*
X23304923Y-28879197D01*
X23304923Y-28879197D02*
X23209685Y-28926816D01*
X23209685Y-28926816D02*
X23162066Y-28974435D01*
X23162066Y-28974435D02*
X23114447Y-29069673D01*
X23114447Y-29069673D02*
X23114447Y-29212530D01*
X23114447Y-29212530D02*
X23162066Y-29307768D01*
X23495400Y-28879197D02*
X23447780Y-28974435D01*
X23447780Y-28974435D02*
X23447780Y-29164911D01*
X23447780Y-29164911D02*
X23495400Y-29260149D01*
X23495400Y-29260149D02*
X23543019Y-29307768D01*
X23543019Y-29307768D02*
X23638257Y-29355387D01*
X23638257Y-29355387D02*
X23923971Y-29355387D01*
X23923971Y-29355387D02*
X24019209Y-29307768D01*
X24019209Y-29307768D02*
X24066828Y-29260149D01*
X24066828Y-29260149D02*
X24114447Y-29164911D01*
X24114447Y-29164911D02*
X24114447Y-28974435D01*
X24114447Y-28974435D02*
X24066828Y-28879197D01*
X24400161Y-27879197D02*
X24447780Y-27974435D01*
X24447780Y-27974435D02*
X24447780Y-28117292D01*
X24447780Y-28117292D02*
X24400161Y-28260149D01*
X24400161Y-28260149D02*
X24304923Y-28355387D01*
X24304923Y-28355387D02*
X24209685Y-28403006D01*
X24209685Y-28403006D02*
X24019209Y-28450625D01*
X24019209Y-28450625D02*
X23876352Y-28450625D01*
X23876352Y-28450625D02*
X23685876Y-28403006D01*
X23685876Y-28403006D02*
X23590638Y-28355387D01*
X23590638Y-28355387D02*
X23495400Y-28260149D01*
X23495400Y-28260149D02*
X23447780Y-28117292D01*
X23447780Y-28117292D02*
X23447780Y-28022054D01*
X23447780Y-28022054D02*
X23495400Y-27879197D01*
X23495400Y-27879197D02*
X23543019Y-27831578D01*
X23543019Y-27831578D02*
X23876352Y-27831578D01*
X23876352Y-27831578D02*
X23876352Y-28022054D01*
X24114447Y-27403006D02*
X23447780Y-27403006D01*
X24019209Y-27403006D02*
X24066828Y-27355387D01*
X24066828Y-27355387D02*
X24114447Y-27260149D01*
X24114447Y-27260149D02*
X24114447Y-27117292D01*
X24114447Y-27117292D02*
X24066828Y-27022054D01*
X24066828Y-27022054D02*
X23971590Y-26974435D01*
X23971590Y-26974435D02*
X23447780Y-26974435D01*
X23447780Y-26069673D02*
X24447780Y-26069673D01*
X23495400Y-26069673D02*
X23447780Y-26164911D01*
X23447780Y-26164911D02*
X23447780Y-26355387D01*
X23447780Y-26355387D02*
X23495400Y-26450625D01*
X23495400Y-26450625D02*
X23543019Y-26498244D01*
X23543019Y-26498244D02*
X23638257Y-26545863D01*
X23638257Y-26545863D02*
X23923971Y-26545863D01*
X23923971Y-26545863D02*
X24019209Y-26498244D01*
X24019209Y-26498244D02*
X24066828Y-26450625D01*
X24066828Y-26450625D02*
X24114447Y-26355387D01*
X24114447Y-26355387D02*
X24114447Y-26164911D01*
X24114447Y-26164911D02*
X24066828Y-26069673D01*
X24995400Y-31260149D02*
X24947780Y-31117292D01*
X24947780Y-31117292D02*
X24947780Y-30879197D01*
X24947780Y-30879197D02*
X24995400Y-30783959D01*
X24995400Y-30783959D02*
X25043019Y-30736340D01*
X25043019Y-30736340D02*
X25138257Y-30688721D01*
X25138257Y-30688721D02*
X25233495Y-30688721D01*
X25233495Y-30688721D02*
X25328733Y-30736340D01*
X25328733Y-30736340D02*
X25376352Y-30783959D01*
X25376352Y-30783959D02*
X25423971Y-30879197D01*
X25423971Y-30879197D02*
X25471590Y-31069673D01*
X25471590Y-31069673D02*
X25519209Y-31164911D01*
X25519209Y-31164911D02*
X25566828Y-31212530D01*
X25566828Y-31212530D02*
X25662066Y-31260149D01*
X25662066Y-31260149D02*
X25757304Y-31260149D01*
X25757304Y-31260149D02*
X25852542Y-31212530D01*
X25852542Y-31212530D02*
X25900161Y-31164911D01*
X25900161Y-31164911D02*
X25947780Y-31069673D01*
X25947780Y-31069673D02*
X25947780Y-30831578D01*
X25947780Y-30831578D02*
X25900161Y-30688721D01*
X24995400Y-29831578D02*
X24947780Y-29926816D01*
X24947780Y-29926816D02*
X24947780Y-30117292D01*
X24947780Y-30117292D02*
X24995400Y-30212530D01*
X24995400Y-30212530D02*
X25043019Y-30260149D01*
X25043019Y-30260149D02*
X25138257Y-30307768D01*
X25138257Y-30307768D02*
X25423971Y-30307768D01*
X25423971Y-30307768D02*
X25519209Y-30260149D01*
X25519209Y-30260149D02*
X25566828Y-30212530D01*
X25566828Y-30212530D02*
X25614447Y-30117292D01*
X25614447Y-30117292D02*
X25614447Y-29926816D01*
X25614447Y-29926816D02*
X25566828Y-29831578D01*
X24947780Y-29403006D02*
X25947780Y-29403006D01*
X25328733Y-29307768D02*
X24947780Y-29022054D01*
X25614447Y-29022054D02*
X25233495Y-29403006D01*
X27447780Y-31474435D02*
X26447780Y-31141102D01*
X26447780Y-31141102D02*
X27447780Y-30807769D01*
X26447780Y-30474435D02*
X27447780Y-30474435D01*
X27066828Y-30474435D02*
X27114447Y-30379197D01*
X27114447Y-30379197D02*
X27114447Y-30188721D01*
X27114447Y-30188721D02*
X27066828Y-30093483D01*
X27066828Y-30093483D02*
X27019209Y-30045864D01*
X27019209Y-30045864D02*
X26923971Y-29998245D01*
X26923971Y-29998245D02*
X26638257Y-29998245D01*
X26638257Y-29998245D02*
X26543019Y-30045864D01*
X26543019Y-30045864D02*
X26495400Y-30093483D01*
X26495400Y-30093483D02*
X26447780Y-30188721D01*
X26447780Y-30188721D02*
X26447780Y-30379197D01*
X26447780Y-30379197D02*
X26495400Y-30474435D01*
X26447780Y-29141102D02*
X26971590Y-29141102D01*
X26971590Y-29141102D02*
X27066828Y-29188721D01*
X27066828Y-29188721D02*
X27114447Y-29283959D01*
X27114447Y-29283959D02*
X27114447Y-29474435D01*
X27114447Y-29474435D02*
X27066828Y-29569673D01*
X26495400Y-29141102D02*
X26447780Y-29236340D01*
X26447780Y-29236340D02*
X26447780Y-29474435D01*
X26447780Y-29474435D02*
X26495400Y-29569673D01*
X26495400Y-29569673D02*
X26590638Y-29617292D01*
X26590638Y-29617292D02*
X26685876Y-29617292D01*
X26685876Y-29617292D02*
X26781114Y-29569673D01*
X26781114Y-29569673D02*
X26828733Y-29474435D01*
X26828733Y-29474435D02*
X26828733Y-29236340D01*
X26828733Y-29236340D02*
X26876352Y-29141102D01*
X27114447Y-28807768D02*
X27114447Y-28426816D01*
X27447780Y-28664911D02*
X26590638Y-28664911D01*
X26590638Y-28664911D02*
X26495400Y-28617292D01*
X26495400Y-28617292D02*
X26447780Y-28522054D01*
X26447780Y-28522054D02*
X26447780Y-28426816D01*
D11*
X32792856Y-51542299D02*
X32935714Y-51470870D01*
X32935714Y-51470870D02*
X33149999Y-51470870D01*
X33149999Y-51470870D02*
X33364285Y-51542299D01*
X33364285Y-51542299D02*
X33507142Y-51685156D01*
X33507142Y-51685156D02*
X33578571Y-51828013D01*
X33578571Y-51828013D02*
X33649999Y-52113727D01*
X33649999Y-52113727D02*
X33649999Y-52328013D01*
X33649999Y-52328013D02*
X33578571Y-52613727D01*
X33578571Y-52613727D02*
X33507142Y-52756584D01*
X33507142Y-52756584D02*
X33364285Y-52899442D01*
X33364285Y-52899442D02*
X33149999Y-52970870D01*
X33149999Y-52970870D02*
X33007142Y-52970870D01*
X33007142Y-52970870D02*
X32792856Y-52899442D01*
X32792856Y-52899442D02*
X32721428Y-52828013D01*
X32721428Y-52828013D02*
X32721428Y-52328013D01*
X32721428Y-52328013D02*
X33007142Y-52328013D01*
X31507142Y-52899442D02*
X31649999Y-52970870D01*
X31649999Y-52970870D02*
X31935714Y-52970870D01*
X31935714Y-52970870D02*
X32078571Y-52899442D01*
X32078571Y-52899442D02*
X32149999Y-52756584D01*
X32149999Y-52756584D02*
X32149999Y-52185156D01*
X32149999Y-52185156D02*
X32078571Y-52042299D01*
X32078571Y-52042299D02*
X31935714Y-51970870D01*
X31935714Y-51970870D02*
X31649999Y-51970870D01*
X31649999Y-51970870D02*
X31507142Y-52042299D01*
X31507142Y-52042299D02*
X31435714Y-52185156D01*
X31435714Y-52185156D02*
X31435714Y-52328013D01*
X31435714Y-52328013D02*
X32149999Y-52470870D01*
X30578571Y-52970870D02*
X30721428Y-52899442D01*
X30721428Y-52899442D02*
X30792857Y-52828013D01*
X30792857Y-52828013D02*
X30864285Y-52685156D01*
X30864285Y-52685156D02*
X30864285Y-52256584D01*
X30864285Y-52256584D02*
X30792857Y-52113727D01*
X30792857Y-52113727D02*
X30721428Y-52042299D01*
X30721428Y-52042299D02*
X30578571Y-51970870D01*
X30578571Y-51970870D02*
X30364285Y-51970870D01*
X30364285Y-51970870D02*
X30221428Y-52042299D01*
X30221428Y-52042299D02*
X30150000Y-52113727D01*
X30150000Y-52113727D02*
X30078571Y-52256584D01*
X30078571Y-52256584D02*
X30078571Y-52685156D01*
X30078571Y-52685156D02*
X30150000Y-52828013D01*
X30150000Y-52828013D02*
X30221428Y-52899442D01*
X30221428Y-52899442D02*
X30364285Y-52970870D01*
X30364285Y-52970870D02*
X30578571Y-52970870D01*
X29649999Y-51970870D02*
X29078571Y-51970870D01*
X29435714Y-52970870D02*
X29435714Y-51685156D01*
X29435714Y-51685156D02*
X29364285Y-51542299D01*
X29364285Y-51542299D02*
X29221428Y-51470870D01*
X29221428Y-51470870D02*
X29078571Y-51470870D01*
X28792856Y-51970870D02*
X28221428Y-51970870D01*
X28578571Y-52970870D02*
X28578571Y-51685156D01*
X28578571Y-51685156D02*
X28507142Y-51542299D01*
X28507142Y-51542299D02*
X28364285Y-51470870D01*
X28364285Y-51470870D02*
X28221428Y-51470870D01*
X27721428Y-52970870D02*
X27721428Y-51970870D01*
X27721428Y-52256584D02*
X27649999Y-52113727D01*
X27649999Y-52113727D02*
X27578571Y-52042299D01*
X27578571Y-52042299D02*
X27435713Y-51970870D01*
X27435713Y-51970870D02*
X27292856Y-51970870D01*
X26221428Y-52899442D02*
X26364285Y-52970870D01*
X26364285Y-52970870D02*
X26650000Y-52970870D01*
X26650000Y-52970870D02*
X26792857Y-52899442D01*
X26792857Y-52899442D02*
X26864285Y-52756584D01*
X26864285Y-52756584D02*
X26864285Y-52185156D01*
X26864285Y-52185156D02*
X26792857Y-52042299D01*
X26792857Y-52042299D02*
X26650000Y-51970870D01*
X26650000Y-51970870D02*
X26364285Y-51970870D01*
X26364285Y-51970870D02*
X26221428Y-52042299D01*
X26221428Y-52042299D02*
X26150000Y-52185156D01*
X26150000Y-52185156D02*
X26150000Y-52328013D01*
X26150000Y-52328013D02*
X26864285Y-52470870D01*
X25650000Y-51970870D02*
X25292857Y-52970870D01*
X24935714Y-51970870D02*
X25292857Y-52970870D01*
X25292857Y-52970870D02*
X25435714Y-53328013D01*
X25435714Y-53328013D02*
X25507143Y-53399442D01*
X25507143Y-53399442D02*
X25650000Y-53470870D01*
X22721429Y-52185156D02*
X22507143Y-52256584D01*
X22507143Y-52256584D02*
X22435714Y-52328013D01*
X22435714Y-52328013D02*
X22364286Y-52470870D01*
X22364286Y-52470870D02*
X22364286Y-52685156D01*
X22364286Y-52685156D02*
X22435714Y-52828013D01*
X22435714Y-52828013D02*
X22507143Y-52899442D01*
X22507143Y-52899442D02*
X22650000Y-52970870D01*
X22650000Y-52970870D02*
X23221429Y-52970870D01*
X23221429Y-52970870D02*
X23221429Y-51470870D01*
X23221429Y-51470870D02*
X22721429Y-51470870D01*
X22721429Y-51470870D02*
X22578572Y-51542299D01*
X22578572Y-51542299D02*
X22507143Y-51613727D01*
X22507143Y-51613727D02*
X22435714Y-51756584D01*
X22435714Y-51756584D02*
X22435714Y-51899442D01*
X22435714Y-51899442D02*
X22507143Y-52042299D01*
X22507143Y-52042299D02*
X22578572Y-52113727D01*
X22578572Y-52113727D02*
X22721429Y-52185156D01*
X22721429Y-52185156D02*
X23221429Y-52185156D01*
X21721429Y-52970870D02*
X21721429Y-51970870D01*
X21721429Y-52256584D02*
X21650000Y-52113727D01*
X21650000Y-52113727D02*
X21578572Y-52042299D01*
X21578572Y-52042299D02*
X21435714Y-51970870D01*
X21435714Y-51970870D02*
X21292857Y-51970870D01*
X20578572Y-52970870D02*
X20721429Y-52899442D01*
X20721429Y-52899442D02*
X20792858Y-52828013D01*
X20792858Y-52828013D02*
X20864286Y-52685156D01*
X20864286Y-52685156D02*
X20864286Y-52256584D01*
X20864286Y-52256584D02*
X20792858Y-52113727D01*
X20792858Y-52113727D02*
X20721429Y-52042299D01*
X20721429Y-52042299D02*
X20578572Y-51970870D01*
X20578572Y-51970870D02*
X20364286Y-51970870D01*
X20364286Y-51970870D02*
X20221429Y-52042299D01*
X20221429Y-52042299D02*
X20150001Y-52113727D01*
X20150001Y-52113727D02*
X20078572Y-52256584D01*
X20078572Y-52256584D02*
X20078572Y-52685156D01*
X20078572Y-52685156D02*
X20150001Y-52828013D01*
X20150001Y-52828013D02*
X20221429Y-52899442D01*
X20221429Y-52899442D02*
X20364286Y-52970870D01*
X20364286Y-52970870D02*
X20578572Y-52970870D01*
X19578572Y-51970870D02*
X19292858Y-52970870D01*
X19292858Y-52970870D02*
X19007143Y-52256584D01*
X19007143Y-52256584D02*
X18721429Y-52970870D01*
X18721429Y-52970870D02*
X18435715Y-51970870D01*
X17864286Y-51970870D02*
X17864286Y-52970870D01*
X17864286Y-52113727D02*
X17792857Y-52042299D01*
X17792857Y-52042299D02*
X17650000Y-51970870D01*
X17650000Y-51970870D02*
X17435714Y-51970870D01*
X17435714Y-51970870D02*
X17292857Y-52042299D01*
X17292857Y-52042299D02*
X17221429Y-52185156D01*
X17221429Y-52185156D02*
X17221429Y-52970870D01*
X29542856Y-53885786D02*
X29828570Y-53885786D01*
X29828570Y-53885786D02*
X29971427Y-53957215D01*
X29971427Y-53957215D02*
X30042856Y-54028643D01*
X30042856Y-54028643D02*
X30185713Y-54242929D01*
X30185713Y-54242929D02*
X30257141Y-54528643D01*
X30257141Y-54528643D02*
X30257141Y-55100072D01*
X30257141Y-55100072D02*
X30185713Y-55242929D01*
X30185713Y-55242929D02*
X30114284Y-55314358D01*
X30114284Y-55314358D02*
X29971427Y-55385786D01*
X29971427Y-55385786D02*
X29685713Y-55385786D01*
X29685713Y-55385786D02*
X29542856Y-55314358D01*
X29542856Y-55314358D02*
X29471427Y-55242929D01*
X29471427Y-55242929D02*
X29399998Y-55100072D01*
X29399998Y-55100072D02*
X29399998Y-54742929D01*
X29399998Y-54742929D02*
X29471427Y-54600072D01*
X29471427Y-54600072D02*
X29542856Y-54528643D01*
X29542856Y-54528643D02*
X29685713Y-54457215D01*
X29685713Y-54457215D02*
X29971427Y-54457215D01*
X29971427Y-54457215D02*
X30114284Y-54528643D01*
X30114284Y-54528643D02*
X30185713Y-54600072D01*
X30185713Y-54600072D02*
X30257141Y-54742929D01*
X27685713Y-53814358D02*
X28971427Y-55742929D01*
X27257141Y-54028643D02*
X27185713Y-53957215D01*
X27185713Y-53957215D02*
X27042856Y-53885786D01*
X27042856Y-53885786D02*
X26685713Y-53885786D01*
X26685713Y-53885786D02*
X26542856Y-53957215D01*
X26542856Y-53957215D02*
X26471427Y-54028643D01*
X26471427Y-54028643D02*
X26399998Y-54171500D01*
X26399998Y-54171500D02*
X26399998Y-54314358D01*
X26399998Y-54314358D02*
X26471427Y-54528643D01*
X26471427Y-54528643D02*
X27328570Y-55385786D01*
X27328570Y-55385786D02*
X26399998Y-55385786D01*
X24971427Y-55385786D02*
X25828570Y-55385786D01*
X25399999Y-55385786D02*
X25399999Y-53885786D01*
X25399999Y-53885786D02*
X25542856Y-54100072D01*
X25542856Y-54100072D02*
X25685713Y-54242929D01*
X25685713Y-54242929D02*
X25828570Y-54314358D01*
X23257142Y-53814358D02*
X24542856Y-55742929D01*
X22828570Y-54028643D02*
X22757142Y-53957215D01*
X22757142Y-53957215D02*
X22614285Y-53885786D01*
X22614285Y-53885786D02*
X22257142Y-53885786D01*
X22257142Y-53885786D02*
X22114285Y-53957215D01*
X22114285Y-53957215D02*
X22042856Y-54028643D01*
X22042856Y-54028643D02*
X21971427Y-54171500D01*
X21971427Y-54171500D02*
X21971427Y-54314358D01*
X21971427Y-54314358D02*
X22042856Y-54528643D01*
X22042856Y-54528643D02*
X22899999Y-55385786D01*
X22899999Y-55385786D02*
X21971427Y-55385786D01*
X20685714Y-53885786D02*
X20971428Y-53885786D01*
X20971428Y-53885786D02*
X21114285Y-53957215D01*
X21114285Y-53957215D02*
X21185714Y-54028643D01*
X21185714Y-54028643D02*
X21328571Y-54242929D01*
X21328571Y-54242929D02*
X21399999Y-54528643D01*
X21399999Y-54528643D02*
X21399999Y-55100072D01*
X21399999Y-55100072D02*
X21328571Y-55242929D01*
X21328571Y-55242929D02*
X21257142Y-55314358D01*
X21257142Y-55314358D02*
X21114285Y-55385786D01*
X21114285Y-55385786D02*
X20828571Y-55385786D01*
X20828571Y-55385786D02*
X20685714Y-55314358D01*
X20685714Y-55314358D02*
X20614285Y-55242929D01*
X20614285Y-55242929D02*
X20542856Y-55100072D01*
X20542856Y-55100072D02*
X20542856Y-54742929D01*
X20542856Y-54742929D02*
X20614285Y-54600072D01*
X20614285Y-54600072D02*
X20685714Y-54528643D01*
X20685714Y-54528643D02*
X20828571Y-54457215D01*
X20828571Y-54457215D02*
X21114285Y-54457215D01*
X21114285Y-54457215D02*
X21257142Y-54528643D01*
X21257142Y-54528643D02*
X21328571Y-54600072D01*
X21328571Y-54600072D02*
X21399999Y-54742929D01*
%TO.C,J101*%
D12*
X17521320Y-38200000D02*
G75*
G02*
X13278680Y-38200000I-2121320J0D01*
G01*
X13278680Y-38200000D02*
G75*
G02*
X17521320Y-38200000I2121320J0D01*
G01*
X37521320Y-38200000D02*
G75*
G02*
X33278680Y-38200000I-2121320J0D01*
G01*
X33278680Y-38200000D02*
G75*
G02*
X37521320Y-38200000I2121320J0D01*
G01*
%TD*%
%LPC*%
D13*
%TO.C,J102*%
X29450000Y-12680000D03*
X29450000Y-13950000D03*
X28180000Y-12680000D03*
X28180000Y-13950000D03*
X26910000Y-12680000D03*
X26910000Y-13950000D03*
X25640000Y-12680000D03*
X25640000Y-13950000D03*
X24370000Y-12680000D03*
X24370000Y-13950000D03*
%TD*%
D14*
%TO.C,J101*%
X15400000Y-38200000D03*
D15*
X15400000Y-41700000D03*
X18900000Y-38200000D03*
X31900000Y-38200000D03*
D14*
X35400000Y-38200000D03*
D15*
X35400000Y-41700000D03*
D16*
X24130000Y-33835000D03*
X24130000Y-32565000D03*
X25400000Y-33835000D03*
X25400000Y-32565000D03*
X26670000Y-33835000D03*
X26670000Y-32565000D03*
%TD*%
D17*
%TO.C,J1*%
X17600000Y-11600000D03*
D18*
X16000000Y-13600000D03*
D19*
X13500000Y-13600000D03*
X11000000Y-13600000D03*
X8500000Y-13600000D03*
%TD*%
D20*
%TO.C,H2*%
X4400000Y-55200000D03*
%TD*%
D21*
%TO.C,J2*%
X38850000Y-10050000D03*
D22*
X38850000Y-12590000D03*
X38850000Y-15130000D03*
%TD*%
D20*
%TO.C,H1*%
X4400000Y-4200000D03*
%TD*%
%TO.C,H4*%
X46400000Y-55200000D03*
%TD*%
%TO.C,H3*%
X46400000Y-4200000D03*
%TD*%
%LPD*%
M02*
