%TF.GenerationSoftware,KiCad,Pcbnew,10.0.2*%
%TF.CreationDate,2026-06-21T18:45:48-04:00*%
%TF.ProjectId,TagPwrMonitor,54616750-7772-44d6-9f6e-69746f722e6b,rev?*%
%TF.SameCoordinates,Original*%
%TF.FileFunction,Copper,L1,Top*%
%TF.FilePolarity,Positive*%
%FSLAX46Y46*%
G04 Gerber Fmt 4.6, Leading zero omitted, Abs format (unit mm)*
G04 Created by KiCad (PCBNEW 10.0.2) date 2026-06-21 18:45:48*
%MOMM*%
%LPD*%
G01*
G04 APERTURE LIST*
G04 Aperture macros list*
%AMRoundRect*
0 Rectangle with rounded corners*
0 $1 Rounding radius*
0 $2 $3 $4 $5 $6 $7 $8 $9 X,Y pos of 4 corners*
0 Add a 4 corners polygon primitive as box body*
4,1,4,$2,$3,$4,$5,$6,$7,$8,$9,$2,$3,0*
0 Add four circle primitives for the rounded corners*
1,1,$1+$1,$2,$3*
1,1,$1+$1,$4,$5*
1,1,$1+$1,$6,$7*
1,1,$1+$1,$8,$9*
0 Add four rect primitives between the rounded corners*
20,1,$1+$1,$2,$3,$4,$5,0*
20,1,$1+$1,$4,$5,$6,$7,0*
20,1,$1+$1,$6,$7,$8,$9,0*
20,1,$1+$1,$8,$9,$2,$3,0*%
%AMFreePoly0*
4,1,23,0.500000,-0.750000,0.000000,-0.750000,0.000000,-0.745722,-0.065263,-0.745722,-0.191342,-0.711940,-0.304381,-0.646677,-0.396677,-0.554381,-0.461940,-0.441342,-0.495722,-0.315263,-0.495722,-0.250000,-0.500000,-0.250000,-0.500000,0.250000,-0.495722,0.250000,-0.495722,0.315263,-0.461940,0.441342,-0.396677,0.554381,-0.304381,0.646677,-0.191342,0.711940,-0.065263,0.745722,0.000000,0.745722,
0.000000,0.750000,0.500000,0.750000,0.500000,-0.750000,0.500000,-0.750000,$1*%
%AMFreePoly1*
4,1,23,0.000000,0.745722,0.065263,0.745722,0.191342,0.711940,0.304381,0.646677,0.396677,0.554381,0.461940,0.441342,0.495722,0.315263,0.495722,0.250000,0.500000,0.250000,0.500000,-0.250000,0.495722,-0.250000,0.495722,-0.315263,0.461940,-0.441342,0.396677,-0.554381,0.304381,-0.646677,0.191342,-0.711940,0.065263,-0.745722,0.000000,-0.745722,0.000000,-0.750000,-0.500000,-0.750000,
-0.500000,0.750000,0.000000,0.750000,0.000000,0.745722,0.000000,0.745722,$1*%
G04 Aperture macros list end*
%TA.AperFunction,ComponentPad*%
%ADD10C,1.016000*%
%TD*%
%TA.AperFunction,ComponentPad*%
%ADD11C,0.939800*%
%TD*%
%TA.AperFunction,ComponentPad*%
%ADD12RoundRect,0.250000X0.600000X0.725000X-0.600000X0.725000X-0.600000X-0.725000X0.600000X-0.725000X0*%
%TD*%
%TA.AperFunction,ComponentPad*%
%ADD13O,1.700000X1.950000*%
%TD*%
%TA.AperFunction,SMDPad,CuDef*%
%ADD14RoundRect,0.150000X-0.512500X-0.150000X0.512500X-0.150000X0.512500X0.150000X-0.512500X0.150000X0*%
%TD*%
%TA.AperFunction,SMDPad,CuDef*%
%ADD15RoundRect,0.150000X-0.150000X0.587500X-0.150000X-0.587500X0.150000X-0.587500X0.150000X0.587500X0*%
%TD*%
%TA.AperFunction,SMDPad,CuDef*%
%ADD16RoundRect,0.250000X0.250000X0.475000X-0.250000X0.475000X-0.250000X-0.475000X0.250000X-0.475000X0*%
%TD*%
%TA.AperFunction,SMDPad,CuDef*%
%ADD17FreePoly0,0.000000*%
%TD*%
%TA.AperFunction,SMDPad,CuDef*%
%ADD18FreePoly1,0.000000*%
%TD*%
%TA.AperFunction,SMDPad,CuDef*%
%ADD19RoundRect,0.250000X0.475000X-0.250000X0.475000X0.250000X-0.475000X0.250000X-0.475000X-0.250000X0*%
%TD*%
%TA.AperFunction,SMDPad,CuDef*%
%ADD20FreePoly0,270.000000*%
%TD*%
%TA.AperFunction,SMDPad,CuDef*%
%ADD21FreePoly1,270.000000*%
%TD*%
%TA.AperFunction,SMDPad,CuDef*%
%ADD22RoundRect,0.250000X-0.262500X-0.450000X0.262500X-0.450000X0.262500X0.450000X-0.262500X0.450000X0*%
%TD*%
%TA.AperFunction,SMDPad,CuDef*%
%ADD23RoundRect,0.250000X0.262500X0.450000X-0.262500X0.450000X-0.262500X-0.450000X0.262500X-0.450000X0*%
%TD*%
%TA.AperFunction,SMDPad,CuDef*%
%ADD24FreePoly0,90.000000*%
%TD*%
%TA.AperFunction,SMDPad,CuDef*%
%ADD25FreePoly1,90.000000*%
%TD*%
%TA.AperFunction,ViaPad*%
%ADD26C,0.660400*%
%TD*%
%TA.AperFunction,Conductor*%
%ADD27C,0.152400*%
%TD*%
%TA.AperFunction,Conductor*%
%ADD28C,0.304800*%
%TD*%
G04 APERTURE END LIST*
D10*
%TO.P,J102,1,Pin_1_1*%
%TO.N,/STLINK_VSENSE*%
X29450000Y-12680000D03*
%TO.P,J102,2,Pin_2_2*%
%TO.N,/TAG_SWDIO*%
X29450000Y-13950000D03*
%TO.P,J102,3,Pin_3_3*%
%TO.N,GND*%
X28180000Y-12680000D03*
%TO.P,J102,4,Pin_4_4*%
%TO.N,/TAG_SCK*%
X28180000Y-13950000D03*
%TO.P,J102,5,Pin_5_5*%
%TO.N,GND*%
X26910000Y-12680000D03*
%TO.P,J102,6,Pin_6_6*%
%TO.N,unconnected-(J102-Pin_6-Pad6)*%
X26910000Y-13950000D03*
%TO.P,J102,7,Pin_7_7*%
%TO.N,unconnected-(J102-Pin_7-Pad7)*%
X25640000Y-12680000D03*
%TO.P,J102,8,Pin_8_8*%
%TO.N,unconnected-(J102-Pin_8-Pad8)*%
X25640000Y-13950000D03*
%TO.P,J102,9,Pin_9_9*%
%TO.N,GND*%
X24370000Y-12680000D03*
%TO.P,J102,10,Pin_10_10*%
%TO.N,/NRST*%
X24370000Y-13950000D03*
%TD*%
D11*
%TO.P,J101,1,Pin_1_1*%
%TO.N,/TAG_RESET*%
X24130000Y-33835000D03*
%TO.P,J101,2,Pin_2_2*%
%TO.N,GND*%
X24130000Y-32565000D03*
%TO.P,J101,3,Pin_3_3*%
%TO.N,/TAG_SWDIO*%
X25400000Y-33835000D03*
%TO.P,J101,4,Pin_4_4*%
%TO.N,/TAG_SCK*%
X25400000Y-32565000D03*
%TO.P,J101,5,Pin_5_5*%
%TO.N,/TAG_3V3*%
X26670000Y-33835000D03*
%TO.P,J101,6,Pin_6_6*%
%TO.N,unconnected-(J101-Pin_6-Pad6)*%
X26670000Y-32565000D03*
%TD*%
D12*
%TO.P,J1,1,Pin_1_1*%
%TO.N,/TAG_MIRROR*%
X16000000Y-13600000D03*
D13*
%TO.P,J1,2,Pin_2_2*%
%TO.N,/TAG_3V3*%
X13500000Y-13600000D03*
%TO.P,J1,3,Pin_3_3*%
%TO.N,/EXT_PWR*%
X11000000Y-13600000D03*
%TO.P,J1,4,Pin_4_4*%
%TO.N,GND*%
X8500000Y-13600000D03*
%TD*%
D14*
%TO.P,U1,1,GND_1*%
%TO.N,GND*%
X42500000Y-13000000D03*
%TO.P,U1,2,VO_2*%
%TO.N,Net-(JP1-A)*%
X42500000Y-14900000D03*
%TO.P,U1,3,VI_3*%
%TO.N,Net-(JP2-B)*%
X44775000Y-13950000D03*
%TD*%
D15*
%TO.P,Q1,1,B_1*%
%TO.N,Net-(Q1-B)*%
X15950000Y-19062500D03*
%TO.P,Q1,2,E_2*%
%TO.N,GND*%
X14050000Y-19062500D03*
%TO.P,Q1,3,C_3*%
%TO.N,/TAG_RESET*%
X15000000Y-20937500D03*
%TD*%
D16*
%TO.P,C2,1*%
%TO.N,Net-(JP2-B)*%
X44500000Y-17500000D03*
%TO.P,C2,2*%
%TO.N,GND*%
X42600000Y-17500000D03*
%TD*%
D17*
%TO.P,JP3,1,A_1*%
%TO.N,/TAG_MIRROR*%
X28400000Y-8700000D03*
D18*
%TO.P,JP3,2,B_2*%
%TO.N,/STLINK_VSENSE*%
X29700000Y-8700000D03*
%TD*%
D19*
%TO.P,C1,1*%
%TO.N,Net-(JP1-A)*%
X39100000Y-14800000D03*
%TO.P,C1,2*%
%TO.N,GND*%
X39100000Y-12900000D03*
%TD*%
D20*
%TO.P,JP2,1,A_1*%
%TO.N,/EXT_PWR*%
X34700000Y-9200000D03*
D21*
%TO.P,JP2,2,B_2*%
%TO.N,Net-(JP2-B)*%
X34700000Y-10500000D03*
%TD*%
D22*
%TO.P,R1,1*%
%TO.N,/EXT_PWR*%
X9087500Y-20087500D03*
%TO.P,R1,2*%
%TO.N,/TAG_RESET*%
X10912500Y-20087500D03*
%TD*%
D23*
%TO.P,R2,1*%
%TO.N,/NRST*%
X21112500Y-19900000D03*
%TO.P,R2,2*%
%TO.N,Net-(Q1-B)*%
X19287500Y-19900000D03*
%TD*%
D24*
%TO.P,JP1,1,A_1*%
%TO.N,Net-(JP1-A)*%
X34800000Y-14500000D03*
D25*
%TO.P,JP1,2,B_2*%
%TO.N,/STLINK_VSENSE*%
X34800000Y-13200000D03*
%TD*%
D26*
%TO.N,/TAG_SWDIO*%
X28200000Y-35600000D03*
%TO.N,GND*%
X39000000Y-11900000D03*
X27300000Y-23800000D03*
X23000000Y-7600000D03*
X12700000Y-23900000D03*
X14000000Y-18100000D03*
X41100000Y-13000000D03*
X41400000Y-17600000D03*
%TD*%
%TO.N,/STLINK_VSENSE*%
D27*
X29700000Y-12430000D02*
X29450000Y-12680000D01*
X29450000Y-12680000D02*
X29970000Y-13200000D01*
X29970000Y-13200000D02*
X34800000Y-13200000D01*
X29700000Y-8700000D02*
X29700000Y-12430000D01*
%TO.N,/TAG_SWDIO*%
X29450000Y-13950000D02*
X29450000Y-34350000D01*
X29450000Y-34350000D02*
X28200000Y-35600000D01*
%TO.N,GND*%
X14050000Y-19000000D02*
X14050000Y-18150000D01*
X41500000Y-17500000D02*
X41400000Y-17600000D01*
X14050000Y-18150000D02*
X14000000Y-18100000D01*
X39100000Y-12900000D02*
X39100000Y-12000000D01*
X42500000Y-13000000D02*
X41100000Y-13000000D01*
X42600000Y-17500000D02*
X41500000Y-17500000D01*
X39100000Y-12000000D02*
X39000000Y-11900000D01*
%TO.N,/TAG_SCK*%
X25400000Y-32565000D02*
X25400000Y-21700000D01*
X28180000Y-18880000D02*
X28180000Y-13950000D01*
X28200000Y-18900000D02*
X28180000Y-18880000D01*
X25400000Y-21700000D02*
X28200000Y-18900000D01*
%TO.N,/NRST*%
X24370000Y-13950000D02*
X21112500Y-17207500D01*
X21112500Y-17207500D02*
X21112500Y-19900000D01*
%TO.N,/TAG_RESET*%
X23100000Y-35800000D02*
X24130000Y-34770000D01*
X21700000Y-35800000D02*
X23100000Y-35800000D01*
X10912500Y-20087500D02*
X14087500Y-20087500D01*
X14087500Y-20087500D02*
X15000000Y-21000000D01*
X15000000Y-29100000D02*
X21700000Y-35800000D01*
X15000000Y-21000000D02*
X15000000Y-29100000D01*
X24130000Y-34770000D02*
X24130000Y-33835000D01*
%TO.N,/TAG_3V3*%
D28*
X25600000Y-36500000D02*
X26670000Y-35430000D01*
X10095200Y-26095200D02*
X20500000Y-36500000D01*
X20500000Y-36500000D02*
X25600000Y-36500000D01*
X13500000Y-13600000D02*
X10095200Y-17004800D01*
X26670000Y-35430000D02*
X26670000Y-33835000D01*
X10095200Y-17004800D02*
X10095200Y-26095200D01*
%TO.N,/TAG_MIRROR*%
D27*
X16000000Y-13600000D02*
X18400000Y-13600000D01*
X18400000Y-13600000D02*
X22200000Y-9800000D01*
X22200000Y-9800000D02*
X27300000Y-9800000D01*
X27300000Y-9800000D02*
X28400000Y-8700000D01*
%TO.N,/EXT_PWR*%
X30500000Y-5400000D02*
X32400000Y-7300000D01*
X11000000Y-14500000D02*
X9087500Y-16412500D01*
X11000000Y-13600000D02*
X11000000Y-14500000D01*
X19200000Y-5400000D02*
X30500000Y-5400000D01*
X32800000Y-7300000D02*
X34700000Y-9200000D01*
X32400000Y-7300000D02*
X32800000Y-7300000D01*
X11000000Y-13600000D02*
X19200000Y-5400000D01*
X9087500Y-16412500D02*
X9087500Y-20087500D01*
%TO.N,Net-(JP1-A)*%
X39200000Y-14900000D02*
X39100000Y-14800000D01*
X34800000Y-14500000D02*
X38800000Y-14500000D01*
X38800000Y-14500000D02*
X39100000Y-14800000D01*
X42500000Y-14900000D02*
X39200000Y-14900000D01*
%TO.N,Net-(JP2-B)*%
X44775000Y-13950000D02*
X44775000Y-13975000D01*
X44500000Y-14250000D02*
X44500000Y-17500000D01*
X43100000Y-10500000D02*
X44775000Y-12175000D01*
X44775000Y-12175000D02*
X44775000Y-13950000D01*
X34700000Y-10500000D02*
X43100000Y-10500000D01*
X44775000Y-13975000D02*
X44500000Y-14250000D01*
%TO.N,Net-(Q1-B)*%
X15950000Y-19000000D02*
X18387500Y-19000000D01*
X18387500Y-19000000D02*
X19287500Y-19900000D01*
%TD*%
%TA.AperFunction,Conductor*%
%TO.N,GND*%
G36*
X26292339Y-14779172D02*
G01*
X26312651Y-14779535D01*
X26338173Y-14791746D01*
X26341217Y-14792581D01*
X26344970Y-14794993D01*
X26428507Y-14850810D01*
X26613498Y-14927436D01*
X26809884Y-14966500D01*
X27010116Y-14966500D01*
X27206502Y-14927436D01*
X27391493Y-14850810D01*
X27399295Y-14845596D01*
X27467046Y-14824379D01*
X27535514Y-14843159D01*
X27582959Y-14895975D01*
X27595300Y-14950359D01*
X27595300Y-18625620D01*
X27575298Y-18693741D01*
X27558395Y-18714715D01*
X25040986Y-21232124D01*
X24987724Y-21285386D01*
X24932125Y-21340984D01*
X24932121Y-21340989D01*
X24855147Y-21474313D01*
X24815300Y-21623024D01*
X24815300Y-31611062D01*
X24795298Y-31679183D01*
X24741642Y-31725676D01*
X24671368Y-31735780D01*
X24619299Y-31715828D01*
X24593209Y-31698395D01*
X24415248Y-31624682D01*
X24415243Y-31624680D01*
X24226317Y-31587100D01*
X24033682Y-31587100D01*
X23844756Y-31624680D01*
X23844751Y-31624682D01*
X23666788Y-31698396D01*
X23640303Y-31716093D01*
X23640302Y-31716093D01*
X24189636Y-32265427D01*
X24170128Y-32260200D01*
X24089872Y-32260200D01*
X24012352Y-32280972D01*
X23942848Y-32321099D01*
X23886099Y-32377848D01*
X23845972Y-32447352D01*
X23825200Y-32524872D01*
X23825200Y-32605128D01*
X23830427Y-32624637D01*
X23658590Y-32452800D01*
X23624564Y-32390488D01*
X23624123Y-32388368D01*
X23613775Y-32336345D01*
X23554683Y-32193684D01*
X23468895Y-32065293D01*
X23359707Y-31956105D01*
X23231316Y-31870317D01*
X23088655Y-31811225D01*
X23057481Y-31805024D01*
X22937209Y-31781100D01*
X22937207Y-31781100D01*
X22782793Y-31781100D01*
X22782790Y-31781100D01*
X22631344Y-31811225D01*
X22631339Y-31811227D01*
X22488683Y-31870317D01*
X22360297Y-31956102D01*
X22360290Y-31956107D01*
X22251107Y-32065290D01*
X22251102Y-32065297D01*
X22165317Y-32193683D01*
X22106227Y-32336339D01*
X22106225Y-32336344D01*
X22076100Y-32487790D01*
X22076100Y-32642209D01*
X22106225Y-32793655D01*
X22165317Y-32936316D01*
X22251105Y-33064707D01*
X22297303Y-33110905D01*
X22331328Y-33173218D01*
X22326262Y-33244034D01*
X22297303Y-33289095D01*
X22251103Y-33335295D01*
X22251102Y-33335297D01*
X22165317Y-33463683D01*
X22106227Y-33606339D01*
X22106225Y-33606344D01*
X22076100Y-33757790D01*
X22076100Y-33757793D01*
X22076100Y-33912207D01*
X22106225Y-34063655D01*
X22165317Y-34206316D01*
X22251105Y-34334707D01*
X22360293Y-34443895D01*
X22488684Y-34529683D01*
X22631345Y-34588775D01*
X22782793Y-34618900D01*
X22782794Y-34618900D01*
X22937206Y-34618900D01*
X22937207Y-34618900D01*
X23088655Y-34588775D01*
X23178893Y-34551396D01*
X23249483Y-34543807D01*
X23312970Y-34575586D01*
X23349198Y-34636643D01*
X23346664Y-34707595D01*
X23316208Y-34756900D01*
X22894715Y-35178395D01*
X22832403Y-35212420D01*
X22805619Y-35215300D01*
X21994380Y-35215300D01*
X21926259Y-35195298D01*
X21905285Y-35178395D01*
X15621605Y-28894715D01*
X15587579Y-28832403D01*
X15584700Y-28805620D01*
X15584700Y-22073750D01*
X15604702Y-22005629D01*
X15621600Y-21984659D01*
X15674453Y-21931807D01*
X15759145Y-21788601D01*
X15805562Y-21628831D01*
X15808499Y-21591511D01*
X15808500Y-21591511D01*
X15808500Y-20434500D01*
X15828502Y-20366379D01*
X15882158Y-20319886D01*
X15934500Y-20308500D01*
X16166511Y-20308500D01*
X16166511Y-20308499D01*
X16203831Y-20305562D01*
X16363601Y-20259145D01*
X16363603Y-20259143D01*
X16363605Y-20259143D01*
X16435204Y-20216799D01*
X16506807Y-20174453D01*
X16624453Y-20056807D01*
X16709145Y-19913601D01*
X16755562Y-19753831D01*
X16758499Y-19716511D01*
X16758500Y-19716511D01*
X16758500Y-19710700D01*
X16778502Y-19642579D01*
X16832158Y-19596086D01*
X16884500Y-19584700D01*
X18093120Y-19584700D01*
X18123035Y-19593483D01*
X18153505Y-19600112D01*
X18158600Y-19603926D01*
X18161241Y-19604702D01*
X18182215Y-19621605D01*
X18229595Y-19668985D01*
X18263621Y-19731297D01*
X18266500Y-19758080D01*
X18266500Y-20400544D01*
X18277112Y-20504425D01*
X18332885Y-20672738D01*
X18425970Y-20823652D01*
X18425975Y-20823658D01*
X18551341Y-20949024D01*
X18551347Y-20949029D01*
X18551348Y-20949030D01*
X18702262Y-21042115D01*
X18870574Y-21097887D01*
X18974455Y-21108500D01*
X19600544Y-21108499D01*
X19704426Y-21097887D01*
X19872738Y-21042115D01*
X20023652Y-20949030D01*
X20023658Y-20949024D01*
X20110905Y-20861778D01*
X20173217Y-20827752D01*
X20244032Y-20832817D01*
X20289095Y-20861778D01*
X20376341Y-20949024D01*
X20376347Y-20949029D01*
X20376348Y-20949030D01*
X20527262Y-21042115D01*
X20695574Y-21097887D01*
X20799455Y-21108500D01*
X21425544Y-21108499D01*
X21529426Y-21097887D01*
X21697738Y-21042115D01*
X21848652Y-20949030D01*
X21974030Y-20823652D01*
X22067115Y-20672738D01*
X22122887Y-20504426D01*
X22133500Y-20400545D01*
X22133499Y-19399456D01*
X22122887Y-19295574D01*
X22067115Y-19127262D01*
X21974030Y-18976348D01*
X21974029Y-18976347D01*
X21974024Y-18976341D01*
X21848658Y-18850975D01*
X21848652Y-18850970D01*
X21757053Y-18794471D01*
X21709575Y-18741685D01*
X21697200Y-18687230D01*
X21697200Y-17501879D01*
X21717202Y-17433758D01*
X21734100Y-17412789D01*
X24147616Y-14999272D01*
X24209926Y-14965249D01*
X24261293Y-14964791D01*
X24269884Y-14966500D01*
X24269887Y-14966500D01*
X24470116Y-14966500D01*
X24666502Y-14927436D01*
X24851493Y-14850810D01*
X24935000Y-14795012D01*
X25002750Y-14773798D01*
X25071217Y-14792581D01*
X25074970Y-14794993D01*
X25158507Y-14850810D01*
X25343498Y-14927436D01*
X25539884Y-14966500D01*
X25740116Y-14966500D01*
X25936502Y-14927436D01*
X26121493Y-14850810D01*
X26205000Y-14795012D01*
X26224383Y-14788942D01*
X26241666Y-14778267D01*
X26257570Y-14778551D01*
X26272750Y-14773798D01*
X26292339Y-14779172D01*
G37*
%TD.AperFunction*%
%TA.AperFunction,Conductor*%
G36*
X28783332Y-19247724D02*
G01*
X28840168Y-19290271D01*
X28864979Y-19356791D01*
X28865300Y-19365780D01*
X28865300Y-32123460D01*
X28845298Y-32191581D01*
X28791642Y-32238074D01*
X28721368Y-32248178D01*
X28656788Y-32218684D01*
X28634535Y-32193462D01*
X28587761Y-32123460D01*
X28548895Y-32065293D01*
X28439707Y-31956105D01*
X28311316Y-31870317D01*
X28168655Y-31811225D01*
X28137481Y-31805024D01*
X28017209Y-31781100D01*
X28017207Y-31781100D01*
X27862793Y-31781100D01*
X27862790Y-31781100D01*
X27711344Y-31811225D01*
X27711339Y-31811227D01*
X27568685Y-31870316D01*
X27528955Y-31896863D01*
X27461202Y-31918077D01*
X27392735Y-31899293D01*
X27369859Y-31881192D01*
X27293696Y-31805029D01*
X27293694Y-31805027D01*
X27133446Y-31697953D01*
X26955389Y-31624199D01*
X26766366Y-31586600D01*
X26766364Y-31586600D01*
X26573636Y-31586600D01*
X26573633Y-31586600D01*
X26384610Y-31624199D01*
X26384605Y-31624201D01*
X26206556Y-31697952D01*
X26206554Y-31697953D01*
X26205891Y-31698396D01*
X26180700Y-31715228D01*
X26112947Y-31736441D01*
X26044480Y-31717657D01*
X25997038Y-31664838D01*
X25984700Y-31610461D01*
X25984700Y-21994380D01*
X26004702Y-21926259D01*
X26021605Y-21905285D01*
X28650205Y-19276685D01*
X28712517Y-19242659D01*
X28783332Y-19247724D01*
G37*
%TD.AperFunction*%
%TA.AperFunction,Conductor*%
G36*
X13861241Y-20692202D02*
G01*
X13882215Y-20709105D01*
X14154595Y-20981485D01*
X14188621Y-21043797D01*
X14191500Y-21070580D01*
X14191500Y-21591511D01*
X14194437Y-21628828D01*
X14194437Y-21628829D01*
X14240856Y-21788605D01*
X14325544Y-21931803D01*
X14325546Y-21931806D01*
X14325547Y-21931807D01*
X14378396Y-21984656D01*
X14412420Y-22046966D01*
X14415300Y-22073750D01*
X14415300Y-29176456D01*
X14395298Y-29244577D01*
X14341642Y-29291070D01*
X14271368Y-29301174D01*
X14206788Y-29271680D01*
X14200205Y-29265551D01*
X10793005Y-25858351D01*
X10758979Y-25796039D01*
X10756100Y-25769256D01*
X10756100Y-21421999D01*
X10776102Y-21353878D01*
X10829758Y-21307385D01*
X10882100Y-21295999D01*
X11225544Y-21295999D01*
X11329426Y-21285387D01*
X11497738Y-21229615D01*
X11648652Y-21136530D01*
X11774030Y-21011152D01*
X11867115Y-20860238D01*
X11900804Y-20758566D01*
X11941218Y-20700196D01*
X12006774Y-20672940D01*
X12020409Y-20672200D01*
X13793120Y-20672200D01*
X13861241Y-20692202D01*
G37*
%TD.AperFunction*%
%TA.AperFunction,Conductor*%
G36*
X28097727Y-9918258D02*
G01*
X28135290Y-9928323D01*
X28201268Y-9946002D01*
X28201271Y-9946002D01*
X28201274Y-9946003D01*
X28235523Y-9950511D01*
X28334174Y-9963500D01*
X28334181Y-9963500D01*
X28899994Y-9963500D01*
X28900000Y-9963500D01*
X28973079Y-9958273D01*
X28973079Y-9958272D01*
X28979816Y-9957791D01*
X28980032Y-9960820D01*
X29037360Y-9966906D01*
X29092702Y-10011379D01*
X29115214Y-10078712D01*
X29115300Y-10083380D01*
X29115300Y-11634195D01*
X29111514Y-11647089D01*
X29112526Y-11660488D01*
X29101705Y-11680493D01*
X29095298Y-11702316D01*
X29084384Y-11712516D01*
X29078750Y-11722935D01*
X29059216Y-11736043D01*
X29050125Y-11744541D01*
X29043982Y-11747926D01*
X28968507Y-11779190D01*
X28880089Y-11838268D01*
X28875375Y-11840867D01*
X28845751Y-11847435D01*
X28816797Y-11856501D01*
X28811462Y-11855037D01*
X28806062Y-11856235D01*
X28777589Y-11845744D01*
X28748331Y-11837717D01*
X28744548Y-11835286D01*
X28661255Y-11779632D01*
X28476361Y-11703046D01*
X28476356Y-11703044D01*
X28280069Y-11664000D01*
X28079930Y-11664000D01*
X27883643Y-11703044D01*
X27883638Y-11703046D01*
X27698742Y-11779633D01*
X27662834Y-11803623D01*
X28221710Y-12362500D01*
X28138200Y-12362500D01*
X28057449Y-12384137D01*
X27985050Y-12425937D01*
X27925937Y-12485050D01*
X27884137Y-12557449D01*
X27862500Y-12638200D01*
X27862500Y-12721800D01*
X27884137Y-12802551D01*
X27925937Y-12874950D01*
X27985050Y-12934063D01*
X28008624Y-12947673D01*
X27883497Y-12972564D01*
X27883490Y-12972566D01*
X27862233Y-12981371D01*
X27791643Y-12988958D01*
X27728157Y-12957177D01*
X27691931Y-12896118D01*
X27694467Y-12825167D01*
X27724923Y-12775865D01*
X27820789Y-12679999D01*
X27545000Y-12404210D01*
X27544999Y-12404210D01*
X27269210Y-12679999D01*
X27269210Y-12680001D01*
X27365075Y-12775866D01*
X27399101Y-12838178D01*
X27394036Y-12908993D01*
X27351489Y-12965829D01*
X27284969Y-12990640D01*
X27227762Y-12981370D01*
X27206505Y-12972565D01*
X27206502Y-12972564D01*
X27081375Y-12947674D01*
X27104950Y-12934063D01*
X27164063Y-12874950D01*
X27205863Y-12802551D01*
X27227500Y-12721800D01*
X27227500Y-12638200D01*
X27205863Y-12557449D01*
X27164063Y-12485050D01*
X27104950Y-12425937D01*
X27032551Y-12384137D01*
X26951800Y-12362500D01*
X26868289Y-12362500D01*
X27427163Y-11803623D01*
X27391260Y-11779634D01*
X27206361Y-11703046D01*
X27206356Y-11703044D01*
X27010069Y-11664000D01*
X26809930Y-11664000D01*
X26613643Y-11703044D01*
X26613638Y-11703046D01*
X26428743Y-11779632D01*
X26428741Y-11779633D01*
X26345449Y-11835286D01*
X26277696Y-11856500D01*
X26209230Y-11837716D01*
X26205448Y-11835286D01*
X26122156Y-11779633D01*
X26121493Y-11779190D01*
X26121491Y-11779189D01*
X25936505Y-11702565D01*
X25936502Y-11702564D01*
X25740119Y-11663500D01*
X25740116Y-11663500D01*
X25539884Y-11663500D01*
X25539880Y-11663500D01*
X25343497Y-11702564D01*
X25343494Y-11702565D01*
X25158503Y-11779191D01*
X25074549Y-11835286D01*
X25006796Y-11856500D01*
X24938329Y-11837716D01*
X24934547Y-11835285D01*
X24851256Y-11779632D01*
X24666361Y-11703046D01*
X24666356Y-11703044D01*
X24470069Y-11664000D01*
X24269930Y-11664000D01*
X24073643Y-11703044D01*
X24073638Y-11703046D01*
X23888743Y-11779632D01*
X23852834Y-11803625D01*
X24411709Y-12362500D01*
X24328200Y-12362500D01*
X24247449Y-12384137D01*
X24175050Y-12425937D01*
X24115937Y-12485050D01*
X24074137Y-12557449D01*
X24052500Y-12638200D01*
X24052500Y-12721709D01*
X23493625Y-12162834D01*
X23469632Y-12198743D01*
X23393046Y-12383638D01*
X23393044Y-12383643D01*
X23354000Y-12579930D01*
X23354000Y-12780069D01*
X23393044Y-12976356D01*
X23393046Y-12976361D01*
X23469632Y-13161256D01*
X23525285Y-13244547D01*
X23546500Y-13312300D01*
X23527717Y-13380767D01*
X23525286Y-13384549D01*
X23469191Y-13468503D01*
X23392565Y-13653494D01*
X23392564Y-13653497D01*
X23353500Y-13849880D01*
X23353500Y-14050119D01*
X23355209Y-14058711D01*
X23348879Y-14129425D01*
X23320724Y-14172384D01*
X21306297Y-16186813D01*
X20753486Y-16739624D01*
X20699055Y-16794054D01*
X20644625Y-16848484D01*
X20644621Y-16848489D01*
X20567647Y-16981813D01*
X20527800Y-17130524D01*
X20527800Y-18687230D01*
X20507798Y-18755351D01*
X20467947Y-18794471D01*
X20376347Y-18850970D01*
X20376341Y-18850975D01*
X20289095Y-18938222D01*
X20226783Y-18972248D01*
X20155968Y-18967183D01*
X20110905Y-18938222D01*
X20023658Y-18850975D01*
X20023652Y-18850970D01*
X19978343Y-18823023D01*
X19872738Y-18757885D01*
X19765628Y-18722393D01*
X19704427Y-18702113D01*
X19704420Y-18702112D01*
X19600553Y-18691500D01*
X18974453Y-18691500D01*
X18971798Y-18691772D01*
X18937703Y-18685430D01*
X18903537Y-18679558D01*
X18902626Y-18678906D01*
X18901998Y-18678790D01*
X18873910Y-18659348D01*
X18871869Y-18657479D01*
X18746514Y-18532124D01*
X18727222Y-18520986D01*
X18715290Y-18514097D01*
X18715289Y-18514096D01*
X18613186Y-18455147D01*
X18588965Y-18448657D01*
X18464477Y-18415300D01*
X18464475Y-18415300D01*
X16862987Y-18415300D01*
X16794866Y-18395298D01*
X16748373Y-18341642D01*
X16741990Y-18324453D01*
X16736349Y-18305037D01*
X16709145Y-18211399D01*
X16709143Y-18211397D01*
X16709143Y-18211394D01*
X16624455Y-18068196D01*
X16624450Y-18068189D01*
X16506810Y-17950549D01*
X16506803Y-17950544D01*
X16363605Y-17865856D01*
X16203829Y-17819437D01*
X16166511Y-17816500D01*
X16166502Y-17816500D01*
X15733498Y-17816500D01*
X15733489Y-17816500D01*
X15696171Y-17819437D01*
X15696170Y-17819437D01*
X15536394Y-17865856D01*
X15393196Y-17950544D01*
X15393189Y-17950549D01*
X15275549Y-18068189D01*
X15275544Y-18068196D01*
X15190856Y-18211394D01*
X15144437Y-18371170D01*
X15144437Y-18371171D01*
X15141500Y-18408488D01*
X15141500Y-19565500D01*
X15138908Y-19574325D01*
X15140218Y-19583432D01*
X15129062Y-19607857D01*
X15121498Y-19633621D01*
X15114544Y-19639645D01*
X15110724Y-19648012D01*
X15088138Y-19662526D01*
X15067842Y-19680114D01*
X15057155Y-19682438D01*
X15050998Y-19686396D01*
X15015500Y-19691500D01*
X14984000Y-19691500D01*
X14915879Y-19671498D01*
X14869386Y-19617842D01*
X14858000Y-19565500D01*
X14858000Y-19316500D01*
X13242001Y-19316500D01*
X13242001Y-19376800D01*
X13221999Y-19444921D01*
X13168343Y-19491414D01*
X13116001Y-19502800D01*
X12020409Y-19502800D01*
X11952288Y-19482798D01*
X11905795Y-19429142D01*
X11900804Y-19416432D01*
X11895179Y-19399456D01*
X11867115Y-19314762D01*
X11774030Y-19163848D01*
X11774029Y-19163847D01*
X11774024Y-19163841D01*
X11648658Y-19038475D01*
X11648652Y-19038470D01*
X11497738Y-18945385D01*
X11413582Y-18917499D01*
X11329427Y-18889613D01*
X11329420Y-18889612D01*
X11225553Y-18879000D01*
X11225545Y-18879000D01*
X10882100Y-18879000D01*
X10813979Y-18858998D01*
X10767486Y-18805342D01*
X10756100Y-18753000D01*
X10756100Y-18408543D01*
X13242000Y-18408543D01*
X13242000Y-18808500D01*
X13796000Y-18808500D01*
X14304000Y-18808500D01*
X14857999Y-18808500D01*
X14857999Y-18408543D01*
X14855065Y-18371249D01*
X14808681Y-18211599D01*
X14724051Y-18068498D01*
X14724050Y-18068496D01*
X14606503Y-17950949D01*
X14606501Y-17950948D01*
X14463401Y-17866318D01*
X14304000Y-17820007D01*
X14304000Y-18808500D01*
X13796000Y-18808500D01*
X13796000Y-17820007D01*
X13636598Y-17866318D01*
X13493498Y-17950948D01*
X13493496Y-17950949D01*
X13375949Y-18068496D01*
X13375948Y-18068498D01*
X13291318Y-18211598D01*
X13244934Y-18371250D01*
X13242000Y-18408543D01*
X10756100Y-18408543D01*
X10756100Y-17330743D01*
X10776102Y-17262622D01*
X10793005Y-17241648D01*
X11847840Y-16186813D01*
X12978388Y-15056264D01*
X13040698Y-15022241D01*
X13106414Y-15025527D01*
X13181884Y-15050049D01*
X13393084Y-15083500D01*
X13393087Y-15083500D01*
X13606913Y-15083500D01*
X13606916Y-15083500D01*
X13818116Y-15050049D01*
X14021483Y-14983972D01*
X14212009Y-14886894D01*
X14385004Y-14761206D01*
X14515316Y-14630893D01*
X14577626Y-14596870D01*
X14648442Y-14601934D01*
X14705278Y-14644481D01*
X14711646Y-14653836D01*
X14790130Y-14781077D01*
X14800970Y-14798652D01*
X14800975Y-14798658D01*
X14926341Y-14924024D01*
X14926347Y-14924029D01*
X14926348Y-14924030D01*
X15077262Y-15017115D01*
X15245574Y-15072887D01*
X15349455Y-15083500D01*
X16650544Y-15083499D01*
X16754426Y-15072887D01*
X16922738Y-15017115D01*
X17073652Y-14924030D01*
X17199030Y-14798652D01*
X17292115Y-14647738D01*
X17347887Y-14479426D01*
X17354749Y-14412264D01*
X17358500Y-14375553D01*
X17358500Y-14310700D01*
X17378502Y-14242579D01*
X17432158Y-14196086D01*
X17484500Y-14184700D01*
X18476975Y-14184700D01*
X18476977Y-14184700D01*
X18625686Y-14144853D01*
X18759014Y-14067876D01*
X18867876Y-13959014D01*
X18927380Y-13899510D01*
X18927393Y-13899495D01*
X22405286Y-10421605D01*
X22467598Y-10387579D01*
X22494381Y-10384700D01*
X27376975Y-10384700D01*
X27376977Y-10384700D01*
X27525686Y-10344853D01*
X27659014Y-10267876D01*
X27767876Y-10159014D01*
X27976021Y-9950867D01*
X27986725Y-9945022D01*
X27994492Y-9935617D01*
X28017307Y-9928323D01*
X28038331Y-9916844D01*
X28052188Y-9917173D01*
X28062117Y-9914000D01*
X28097727Y-9918258D01*
G37*
%TD.AperFunction*%
%TA.AperFunction,Conductor*%
G36*
X30273741Y-6004702D02*
G01*
X30294715Y-6021605D01*
X32040979Y-7767870D01*
X32040984Y-7767874D01*
X32040986Y-7767876D01*
X32040987Y-7767877D01*
X32040989Y-7767878D01*
X32134705Y-7821985D01*
X32174315Y-7844854D01*
X32323023Y-7884700D01*
X32505620Y-7884700D01*
X32573741Y-7904702D01*
X32594715Y-7921605D01*
X33449130Y-8776020D01*
X33483156Y-8838332D01*
X33481742Y-8897726D01*
X33453997Y-9001271D01*
X33453996Y-9001274D01*
X33436500Y-9134171D01*
X33436500Y-9134174D01*
X33436500Y-9700000D01*
X33437444Y-9713195D01*
X33441727Y-9773081D01*
X33452397Y-9809419D01*
X33456219Y-9862848D01*
X33444264Y-9946003D01*
X33436500Y-10000002D01*
X33436500Y-10565828D01*
X33453996Y-10698725D01*
X33453999Y-10698738D01*
X33488071Y-10825894D01*
X33539371Y-10949744D01*
X33539377Y-10949754D01*
X33605194Y-11063753D01*
X33605199Y-11063760D01*
X33686794Y-11170097D01*
X33686813Y-11170118D01*
X33779881Y-11263186D01*
X33779902Y-11263205D01*
X33886239Y-11344800D01*
X33886246Y-11344805D01*
X33976153Y-11396713D01*
X34000257Y-11410629D01*
X34124101Y-11461927D01*
X34251268Y-11496002D01*
X34251271Y-11496002D01*
X34251274Y-11496003D01*
X34285523Y-11500511D01*
X34384174Y-11513500D01*
X34384181Y-11513500D01*
X35015819Y-11513500D01*
X35015826Y-11513500D01*
X35135941Y-11497685D01*
X35148725Y-11496003D01*
X35148725Y-11496002D01*
X35148732Y-11496002D01*
X35275899Y-11461927D01*
X35399743Y-11410629D01*
X35513757Y-11344803D01*
X35620106Y-11263198D01*
X35713198Y-11170106D01*
X35740907Y-11133994D01*
X35798245Y-11092128D01*
X35840869Y-11084700D01*
X42805620Y-11084700D01*
X42873741Y-11104702D01*
X42894715Y-11121605D01*
X44153395Y-12380285D01*
X44187421Y-12442597D01*
X44190300Y-12469380D01*
X44190300Y-13040644D01*
X44170298Y-13108765D01*
X44116642Y-13155258D01*
X44099454Y-13161641D01*
X44040003Y-13178913D01*
X43998899Y-13190855D01*
X43998898Y-13190855D01*
X43998893Y-13190857D01*
X43855696Y-13275544D01*
X43849430Y-13280405D01*
X43847557Y-13277991D01*
X43797749Y-13305162D01*
X43726936Y-13300067D01*
X43670257Y-13257682D01*
X43667493Y-13254000D01*
X42754000Y-13254000D01*
X42754000Y-13807999D01*
X43078956Y-13807999D01*
X43116250Y-13805065D01*
X43275900Y-13758681D01*
X43413861Y-13677092D01*
X43482677Y-13659633D01*
X43550008Y-13682150D01*
X43594478Y-13737494D01*
X43604000Y-13785546D01*
X43604000Y-14113872D01*
X43583998Y-14181993D01*
X43530342Y-14228486D01*
X43460068Y-14238590D01*
X43413861Y-14222326D01*
X43276102Y-14140855D01*
X43116329Y-14094437D01*
X43079011Y-14091500D01*
X43079002Y-14091500D01*
X41920998Y-14091500D01*
X41920989Y-14091500D01*
X41883671Y-14094437D01*
X41883670Y-14094437D01*
X41723894Y-14140856D01*
X41580696Y-14225544D01*
X41580693Y-14225546D01*
X41564598Y-14241642D01*
X41527843Y-14278396D01*
X41465534Y-14312420D01*
X41438750Y-14315300D01*
X40387273Y-14315300D01*
X40319152Y-14295298D01*
X40272659Y-14241642D01*
X40267670Y-14228937D01*
X40267115Y-14227262D01*
X40174030Y-14076348D01*
X40174029Y-14076347D01*
X40174024Y-14076341D01*
X40048657Y-13950974D01*
X40045547Y-13948515D01*
X40043967Y-13946284D01*
X40043463Y-13945780D01*
X40043549Y-13945693D01*
X40004518Y-13890575D01*
X40001326Y-13819650D01*
X40036986Y-13758259D01*
X40045558Y-13750832D01*
X40048350Y-13748624D01*
X40173629Y-13623345D01*
X40173634Y-13623339D01*
X40266657Y-13472525D01*
X40322393Y-13304321D01*
X40322394Y-13304318D01*
X40327535Y-13254000D01*
X41332507Y-13254000D01*
X41378818Y-13413401D01*
X41463448Y-13556501D01*
X41463449Y-13556503D01*
X41580996Y-13674050D01*
X41580998Y-13674051D01*
X41724098Y-13758681D01*
X41883751Y-13805065D01*
X41883749Y-13805065D01*
X41921043Y-13807999D01*
X42246000Y-13807999D01*
X42246000Y-13254000D01*
X41332507Y-13254000D01*
X40327535Y-13254000D01*
X40331429Y-13215894D01*
X40331429Y-13215892D01*
X40333000Y-13200511D01*
X40333000Y-13154000D01*
X37867000Y-13154000D01*
X37867000Y-13200516D01*
X37877605Y-13304318D01*
X37877606Y-13304321D01*
X37933342Y-13472525D01*
X38026365Y-13623339D01*
X38026370Y-13623345D01*
X38103230Y-13700205D01*
X38137256Y-13762517D01*
X38132191Y-13833332D01*
X38089644Y-13890168D01*
X38023124Y-13914979D01*
X38014135Y-13915300D01*
X36177957Y-13915300D01*
X36109836Y-13895298D01*
X36063343Y-13841642D01*
X36053239Y-13771369D01*
X36058685Y-13733488D01*
X36063500Y-13700000D01*
X36063500Y-13134174D01*
X36050511Y-13035523D01*
X36046003Y-13001274D01*
X36046000Y-13001261D01*
X36040670Y-12981371D01*
X36011927Y-12874101D01*
X35960629Y-12750257D01*
X35958171Y-12746000D01*
X41332507Y-12746000D01*
X42246000Y-12746000D01*
X42754000Y-12746000D01*
X43667492Y-12746000D01*
X43621181Y-12586598D01*
X43536551Y-12443498D01*
X43536550Y-12443496D01*
X43419003Y-12325949D01*
X43419001Y-12325948D01*
X43275901Y-12241318D01*
X43116248Y-12194934D01*
X43116250Y-12194934D01*
X43078956Y-12192000D01*
X42754000Y-12192000D01*
X42754000Y-12746000D01*
X42246000Y-12746000D01*
X42246000Y-12192000D01*
X41921044Y-12192000D01*
X41883749Y-12194934D01*
X41724099Y-12241318D01*
X41580998Y-12325948D01*
X41580996Y-12325949D01*
X41463449Y-12443496D01*
X41463448Y-12443498D01*
X41378818Y-12586598D01*
X41332507Y-12746000D01*
X35958171Y-12746000D01*
X35894803Y-12636243D01*
X35866596Y-12599483D01*
X37867000Y-12599483D01*
X37867000Y-12646000D01*
X38846000Y-12646000D01*
X39354000Y-12646000D01*
X40333000Y-12646000D01*
X40333000Y-12599483D01*
X40322394Y-12495681D01*
X40322393Y-12495678D01*
X40266657Y-12327474D01*
X40173634Y-12176660D01*
X40173629Y-12176654D01*
X40048345Y-12051370D01*
X40048339Y-12051365D01*
X39897525Y-11958342D01*
X39729321Y-11902606D01*
X39729318Y-11902605D01*
X39625516Y-11892000D01*
X39354000Y-11892000D01*
X39354000Y-12646000D01*
X38846000Y-12646000D01*
X38846000Y-11892000D01*
X38574483Y-11892000D01*
X38470681Y-11902605D01*
X38470678Y-11902606D01*
X38302474Y-11958342D01*
X38151660Y-12051365D01*
X38151654Y-12051370D01*
X38026370Y-12176654D01*
X38026365Y-12176660D01*
X37933342Y-12327474D01*
X37877606Y-12495678D01*
X37877605Y-12495681D01*
X37867000Y-12599483D01*
X35866596Y-12599483D01*
X35859563Y-12590317D01*
X35813205Y-12529902D01*
X35813186Y-12529881D01*
X35720118Y-12436813D01*
X35720097Y-12436794D01*
X35613760Y-12355199D01*
X35613753Y-12355194D01*
X35499754Y-12289377D01*
X35499744Y-12289371D01*
X35375894Y-12238071D01*
X35248738Y-12203999D01*
X35248725Y-12203996D01*
X35115828Y-12186500D01*
X35115826Y-12186500D01*
X34484174Y-12186500D01*
X34484171Y-12186500D01*
X34351274Y-12203996D01*
X34351261Y-12203999D01*
X34224105Y-12238071D01*
X34100255Y-12289371D01*
X34100245Y-12289377D01*
X33986246Y-12355194D01*
X33986239Y-12355199D01*
X33879902Y-12436794D01*
X33879881Y-12436813D01*
X33786813Y-12529881D01*
X33786800Y-12529896D01*
X33759093Y-12566005D01*
X33701755Y-12607872D01*
X33659131Y-12615300D01*
X30576950Y-12615300D01*
X30508829Y-12595298D01*
X30462336Y-12541642D01*
X30453371Y-12513882D01*
X30427436Y-12383498D01*
X30350810Y-12198507D01*
X30336213Y-12176660D01*
X30305934Y-12131344D01*
X30284720Y-12063590D01*
X30284700Y-12061343D01*
X30284700Y-9840868D01*
X30304702Y-9772747D01*
X30333993Y-9740908D01*
X30370106Y-9713198D01*
X30463198Y-9620106D01*
X30544803Y-9513757D01*
X30610629Y-9399743D01*
X30661927Y-9275899D01*
X30696002Y-9148732D01*
X30713500Y-9015826D01*
X30713500Y-8384174D01*
X30696002Y-8251268D01*
X30661927Y-8124101D01*
X30610629Y-8000257D01*
X30565219Y-7921605D01*
X30544805Y-7886246D01*
X30544800Y-7886239D01*
X30463205Y-7779902D01*
X30463186Y-7779881D01*
X30370118Y-7686813D01*
X30370097Y-7686794D01*
X30263760Y-7605199D01*
X30263753Y-7605194D01*
X30149754Y-7539377D01*
X30149744Y-7539371D01*
X30025894Y-7488071D01*
X29898738Y-7453999D01*
X29898725Y-7453996D01*
X29765828Y-7436500D01*
X29765826Y-7436500D01*
X29200000Y-7436500D01*
X29126921Y-7441727D01*
X29126918Y-7441727D01*
X29126910Y-7441729D01*
X29090579Y-7452397D01*
X29037151Y-7456219D01*
X28900000Y-7436500D01*
X28334174Y-7436500D01*
X28334171Y-7436500D01*
X28201274Y-7453996D01*
X28201261Y-7453999D01*
X28074105Y-7488071D01*
X27950255Y-7539371D01*
X27950245Y-7539377D01*
X27836246Y-7605194D01*
X27836239Y-7605199D01*
X27729902Y-7686794D01*
X27729881Y-7686813D01*
X27636813Y-7779881D01*
X27636794Y-7779902D01*
X27555199Y-7886239D01*
X27555194Y-7886246D01*
X27489377Y-8000245D01*
X27489371Y-8000255D01*
X27438071Y-8124105D01*
X27403999Y-8251261D01*
X27403996Y-8251274D01*
X27386500Y-8384171D01*
X27386500Y-8834420D01*
X27366498Y-8902541D01*
X27349595Y-8923515D01*
X27094715Y-9178395D01*
X27032403Y-9212421D01*
X27005620Y-9215300D01*
X22276977Y-9215300D01*
X22123023Y-9215300D01*
X22032010Y-9239686D01*
X21974310Y-9255147D01*
X21840989Y-9332120D01*
X21840979Y-9332128D01*
X18194715Y-12978395D01*
X18132403Y-13012420D01*
X18105620Y-13015300D01*
X17484499Y-13015300D01*
X17416378Y-12995298D01*
X17369885Y-12941642D01*
X17358499Y-12889300D01*
X17358499Y-12824455D01*
X17347887Y-12720574D01*
X17319943Y-12636243D01*
X17308272Y-12601024D01*
X17305833Y-12530071D01*
X17342141Y-12469061D01*
X17405670Y-12437366D01*
X17452455Y-12437813D01*
X17516233Y-12450500D01*
X17516234Y-12450500D01*
X17683766Y-12450500D01*
X17683767Y-12450500D01*
X17848082Y-12417816D01*
X18002863Y-12353703D01*
X18142162Y-12260626D01*
X18260626Y-12142162D01*
X18353703Y-12002863D01*
X18417816Y-11848082D01*
X18450500Y-11683767D01*
X18450500Y-11516233D01*
X18417816Y-11351918D01*
X18353703Y-11197137D01*
X18260626Y-11057838D01*
X18260621Y-11057832D01*
X18142167Y-10939378D01*
X18142161Y-10939373D01*
X18002864Y-10846298D01*
X18002865Y-10846298D01*
X18002863Y-10846297D01*
X17893420Y-10800964D01*
X17848085Y-10782185D01*
X17848083Y-10782184D01*
X17848082Y-10782184D01*
X17765368Y-10765731D01*
X17683769Y-10749500D01*
X17683767Y-10749500D01*
X17516233Y-10749500D01*
X17516230Y-10749500D01*
X17393830Y-10773847D01*
X17351918Y-10782184D01*
X17351917Y-10782184D01*
X17351914Y-10782185D01*
X17197135Y-10846298D01*
X17057838Y-10939373D01*
X17057832Y-10939378D01*
X16939378Y-11057832D01*
X16939373Y-11057838D01*
X16846298Y-11197135D01*
X16782185Y-11351914D01*
X16749500Y-11516230D01*
X16749500Y-11683769D01*
X16782185Y-11848087D01*
X16823316Y-11947384D01*
X16830905Y-12017973D01*
X16799126Y-12081460D01*
X16738068Y-12117688D01*
X16694101Y-12120949D01*
X16650545Y-12116500D01*
X16650544Y-12116500D01*
X15349455Y-12116500D01*
X15245574Y-12127112D01*
X15077261Y-12182885D01*
X14926347Y-12275970D01*
X14926341Y-12275975D01*
X14800975Y-12401341D01*
X14800970Y-12401347D01*
X14711651Y-12546156D01*
X14658865Y-12593634D01*
X14588790Y-12605037D01*
X14523674Y-12576744D01*
X14515315Y-12569104D01*
X14385009Y-12438798D01*
X14385006Y-12438796D01*
X14385004Y-12438794D01*
X14212009Y-12313106D01*
X14021483Y-12216028D01*
X14021480Y-12216027D01*
X14021478Y-12216026D01*
X13818120Y-12149952D01*
X13818123Y-12149952D01*
X13757195Y-12140302D01*
X13606916Y-12116500D01*
X13606913Y-12116500D01*
X13606900Y-12116498D01*
X13604477Y-12116307D01*
X13603612Y-12115977D01*
X13602026Y-12115726D01*
X13602078Y-12115392D01*
X13538139Y-12091012D01*
X13496008Y-12033868D01*
X13491459Y-11963018D01*
X13525284Y-11901604D01*
X19405286Y-6021605D01*
X19467598Y-5987579D01*
X19494381Y-5984700D01*
X30205620Y-5984700D01*
X30273741Y-6004702D01*
G37*
%TD.AperFunction*%
%TA.AperFunction,Conductor*%
G36*
X49004119Y-75770D02*
G01*
X49014288Y-76436D01*
X49242966Y-91424D01*
X49259282Y-93572D01*
X49490006Y-139465D01*
X49505916Y-143729D01*
X49728654Y-219338D01*
X49743873Y-225641D01*
X49954854Y-329686D01*
X49969111Y-337918D01*
X50164698Y-468604D01*
X50177762Y-478629D01*
X50354624Y-633733D01*
X50366266Y-645375D01*
X50521366Y-822231D01*
X50531399Y-835307D01*
X50662076Y-1030880D01*
X50670317Y-1045153D01*
X50774356Y-1256122D01*
X50780663Y-1271350D01*
X50856269Y-1494080D01*
X50860535Y-1509999D01*
X50906425Y-1740702D01*
X50908576Y-1757043D01*
X50924230Y-1995880D01*
X50924500Y-2004121D01*
X50924500Y-57995878D01*
X50924230Y-58004118D01*
X50924230Y-58004119D01*
X50908576Y-58242956D01*
X50906425Y-58259297D01*
X50860535Y-58490000D01*
X50856269Y-58505919D01*
X50780663Y-58728649D01*
X50774356Y-58743877D01*
X50670317Y-58954846D01*
X50662076Y-58969119D01*
X50531399Y-59164692D01*
X50521366Y-59177768D01*
X50366272Y-59354618D01*
X50354618Y-59366272D01*
X50177768Y-59521366D01*
X50164692Y-59531399D01*
X49969119Y-59662076D01*
X49954846Y-59670317D01*
X49743877Y-59774356D01*
X49728649Y-59780663D01*
X49505919Y-59856269D01*
X49490000Y-59860535D01*
X49259297Y-59906425D01*
X49242956Y-59908576D01*
X49004120Y-59924230D01*
X48995879Y-59924500D01*
X2004121Y-59924500D01*
X1995880Y-59924230D01*
X1757043Y-59908576D01*
X1740704Y-59906425D01*
X1666899Y-59891744D01*
X1509999Y-59860535D01*
X1494080Y-59856269D01*
X1271350Y-59780663D01*
X1256122Y-59774356D01*
X1045153Y-59670317D01*
X1030883Y-59662078D01*
X835303Y-59531396D01*
X822231Y-59521366D01*
X651239Y-59371409D01*
X645375Y-59366266D01*
X633733Y-59354624D01*
X478629Y-59177762D01*
X468604Y-59164698D01*
X337918Y-58969111D01*
X329686Y-58954854D01*
X225641Y-58743873D01*
X219336Y-58728649D01*
X198945Y-58668579D01*
X143729Y-58505916D01*
X139464Y-58490000D01*
X93572Y-58259282D01*
X91424Y-58242966D01*
X75770Y-58004118D01*
X75500Y-57995878D01*
X75500Y-55093713D01*
X3049500Y-55093713D01*
X3049500Y-55306287D01*
X3082754Y-55516243D01*
X3148443Y-55718412D01*
X3244949Y-55907816D01*
X3369896Y-56079792D01*
X3369898Y-56079794D01*
X3369900Y-56079797D01*
X3520202Y-56230099D01*
X3520205Y-56230101D01*
X3520208Y-56230104D01*
X3692184Y-56355051D01*
X3881588Y-56451557D01*
X4083757Y-56517246D01*
X4293713Y-56550500D01*
X4293716Y-56550500D01*
X4506284Y-56550500D01*
X4506287Y-56550500D01*
X4716243Y-56517246D01*
X4918412Y-56451557D01*
X5107816Y-56355051D01*
X5279792Y-56230104D01*
X5430104Y-56079792D01*
X5555051Y-55907816D01*
X5651557Y-55718412D01*
X5717246Y-55516243D01*
X5750500Y-55306287D01*
X5750500Y-55093713D01*
X45049500Y-55093713D01*
X45049500Y-55306287D01*
X45082754Y-55516243D01*
X45148443Y-55718412D01*
X45244949Y-55907816D01*
X45369896Y-56079792D01*
X45369898Y-56079794D01*
X45369900Y-56079797D01*
X45520202Y-56230099D01*
X45520205Y-56230101D01*
X45520208Y-56230104D01*
X45692184Y-56355051D01*
X45881588Y-56451557D01*
X46083757Y-56517246D01*
X46293713Y-56550500D01*
X46293716Y-56550500D01*
X46506284Y-56550500D01*
X46506287Y-56550500D01*
X46716243Y-56517246D01*
X46918412Y-56451557D01*
X47107816Y-56355051D01*
X47279792Y-56230104D01*
X47430104Y-56079792D01*
X47555051Y-55907816D01*
X47651557Y-55718412D01*
X47717246Y-55516243D01*
X47750500Y-55306287D01*
X47750500Y-55093713D01*
X47717246Y-54883757D01*
X47651557Y-54681588D01*
X47555051Y-54492184D01*
X47430104Y-54320208D01*
X47430101Y-54320205D01*
X47430099Y-54320202D01*
X47279797Y-54169900D01*
X47279794Y-54169898D01*
X47279792Y-54169896D01*
X47107816Y-54044949D01*
X46918412Y-53948443D01*
X46716243Y-53882754D01*
X46506287Y-53849500D01*
X46293713Y-53849500D01*
X46083757Y-53882754D01*
X46083754Y-53882754D01*
X46083753Y-53882755D01*
X45881588Y-53948443D01*
X45881586Y-53948444D01*
X45692180Y-54044951D01*
X45520205Y-54169898D01*
X45520202Y-54169900D01*
X45369900Y-54320202D01*
X45369898Y-54320205D01*
X45244951Y-54492180D01*
X45244949Y-54492184D01*
X45148443Y-54681588D01*
X45082754Y-54883757D01*
X45049500Y-55093713D01*
X5750500Y-55093713D01*
X5717246Y-54883757D01*
X5651557Y-54681588D01*
X5555051Y-54492184D01*
X5430104Y-54320208D01*
X5430101Y-54320205D01*
X5430099Y-54320202D01*
X5279797Y-54169900D01*
X5279794Y-54169898D01*
X5279792Y-54169896D01*
X5107816Y-54044949D01*
X4918412Y-53948443D01*
X4716243Y-53882754D01*
X4506287Y-53849500D01*
X4293713Y-53849500D01*
X4083757Y-53882754D01*
X4083754Y-53882754D01*
X4083753Y-53882755D01*
X3881588Y-53948443D01*
X3881586Y-53948444D01*
X3692180Y-54044951D01*
X3520205Y-54169898D01*
X3520202Y-54169900D01*
X3369900Y-54320202D01*
X3369898Y-54320205D01*
X3244951Y-54492180D01*
X3244949Y-54492184D01*
X3148443Y-54681588D01*
X3082754Y-54883757D01*
X3049500Y-55093713D01*
X75500Y-55093713D01*
X75500Y-41597147D01*
X14355750Y-41597147D01*
X14355750Y-41802852D01*
X14395880Y-42004597D01*
X14395882Y-42004602D01*
X14474597Y-42194638D01*
X14588877Y-42365670D01*
X14588882Y-42365676D01*
X14734323Y-42511117D01*
X14734329Y-42511122D01*
X14905362Y-42625403D01*
X15095403Y-42704120D01*
X15297150Y-42744250D01*
X15297151Y-42744250D01*
X15502849Y-42744250D01*
X15502850Y-42744250D01*
X15704597Y-42704120D01*
X15894638Y-42625403D01*
X16065671Y-42511122D01*
X16211122Y-42365671D01*
X16325403Y-42194638D01*
X16404120Y-42004597D01*
X16444250Y-41802850D01*
X16444250Y-41597150D01*
X16444249Y-41597147D01*
X34355750Y-41597147D01*
X34355750Y-41802852D01*
X34395880Y-42004597D01*
X34395882Y-42004602D01*
X34474597Y-42194638D01*
X34588877Y-42365670D01*
X34588882Y-42365676D01*
X34734323Y-42511117D01*
X34734329Y-42511122D01*
X34905362Y-42625403D01*
X35095403Y-42704120D01*
X35297150Y-42744250D01*
X35297151Y-42744250D01*
X35502849Y-42744250D01*
X35502850Y-42744250D01*
X35704597Y-42704120D01*
X35894638Y-42625403D01*
X36065671Y-42511122D01*
X36211122Y-42365671D01*
X36325403Y-42194638D01*
X36404120Y-42004597D01*
X36444250Y-41802850D01*
X36444250Y-41597150D01*
X36404120Y-41395403D01*
X36325403Y-41205362D01*
X36211122Y-41034329D01*
X36211117Y-41034323D01*
X36065676Y-40888882D01*
X36065670Y-40888877D01*
X35894638Y-40774597D01*
X35704602Y-40695882D01*
X35704597Y-40695880D01*
X35502852Y-40655750D01*
X35502850Y-40655750D01*
X35297150Y-40655750D01*
X35297147Y-40655750D01*
X35095402Y-40695880D01*
X35095397Y-40695882D01*
X34905361Y-40774597D01*
X34734329Y-40888877D01*
X34734323Y-40888882D01*
X34588882Y-41034323D01*
X34588877Y-41034329D01*
X34474597Y-41205361D01*
X34395882Y-41395397D01*
X34395880Y-41395402D01*
X34355750Y-41597147D01*
X16444249Y-41597147D01*
X16404120Y-41395403D01*
X16325403Y-41205362D01*
X16211122Y-41034329D01*
X16211117Y-41034323D01*
X16065676Y-40888882D01*
X16065670Y-40888877D01*
X15894638Y-40774597D01*
X15704602Y-40695882D01*
X15704597Y-40695880D01*
X15502852Y-40655750D01*
X15502850Y-40655750D01*
X15297150Y-40655750D01*
X15297147Y-40655750D01*
X15095402Y-40695880D01*
X15095397Y-40695882D01*
X14905361Y-40774597D01*
X14734329Y-40888877D01*
X14734323Y-40888882D01*
X14588882Y-41034323D01*
X14588877Y-41034329D01*
X14474597Y-41205361D01*
X14395882Y-41395397D01*
X14395880Y-41395402D01*
X14355750Y-41597147D01*
X75500Y-41597147D01*
X75500Y-38095287D01*
X14069500Y-38095287D01*
X14069500Y-38304713D01*
X14101159Y-38504602D01*
X14102262Y-38511564D01*
X14166975Y-38710730D01*
X14166977Y-38710735D01*
X14262054Y-38897334D01*
X14385152Y-39066762D01*
X14385154Y-39066764D01*
X14385157Y-39066768D01*
X14533231Y-39214842D01*
X14533234Y-39214844D01*
X14533238Y-39214848D01*
X14702666Y-39337946D01*
X14889265Y-39433023D01*
X15088441Y-39497739D01*
X15295287Y-39530500D01*
X15295290Y-39530500D01*
X15504710Y-39530500D01*
X15504713Y-39530500D01*
X15711559Y-39497739D01*
X15910735Y-39433023D01*
X16097334Y-39337946D01*
X16266762Y-39214848D01*
X16414848Y-39066762D01*
X16537946Y-38897334D01*
X16633023Y-38710735D01*
X16697739Y-38511559D01*
X16730500Y-38304713D01*
X16730500Y-38097147D01*
X17855750Y-38097147D01*
X17855750Y-38302852D01*
X17895880Y-38504597D01*
X17895882Y-38504602D01*
X17974597Y-38694638D01*
X18088877Y-38865670D01*
X18088882Y-38865676D01*
X18234323Y-39011117D01*
X18234329Y-39011122D01*
X18405362Y-39125403D01*
X18595403Y-39204120D01*
X18797150Y-39244250D01*
X18797151Y-39244250D01*
X19002849Y-39244250D01*
X19002850Y-39244250D01*
X19204597Y-39204120D01*
X19394638Y-39125403D01*
X19565671Y-39011122D01*
X19711122Y-38865671D01*
X19825403Y-38694638D01*
X19904120Y-38504597D01*
X19944250Y-38302850D01*
X19944250Y-38097150D01*
X19944249Y-38097147D01*
X30855750Y-38097147D01*
X30855750Y-38302852D01*
X30895880Y-38504597D01*
X30895882Y-38504602D01*
X30974597Y-38694638D01*
X31088877Y-38865670D01*
X31088882Y-38865676D01*
X31234323Y-39011117D01*
X31234329Y-39011122D01*
X31405362Y-39125403D01*
X31595403Y-39204120D01*
X31797150Y-39244250D01*
X31797151Y-39244250D01*
X32002849Y-39244250D01*
X32002850Y-39244250D01*
X32204597Y-39204120D01*
X32394638Y-39125403D01*
X32565671Y-39011122D01*
X32711122Y-38865671D01*
X32825403Y-38694638D01*
X32904120Y-38504597D01*
X32944250Y-38302850D01*
X32944250Y-38097150D01*
X32944249Y-38097147D01*
X32943879Y-38095287D01*
X34069500Y-38095287D01*
X34069500Y-38304713D01*
X34101159Y-38504602D01*
X34102262Y-38511564D01*
X34166975Y-38710730D01*
X34166977Y-38710735D01*
X34262054Y-38897334D01*
X34385152Y-39066762D01*
X34385154Y-39066764D01*
X34385157Y-39066768D01*
X34533231Y-39214842D01*
X34533234Y-39214844D01*
X34533238Y-39214848D01*
X34702666Y-39337946D01*
X34889265Y-39433023D01*
X35088441Y-39497739D01*
X35295287Y-39530500D01*
X35295290Y-39530500D01*
X35504710Y-39530500D01*
X35504713Y-39530500D01*
X35711559Y-39497739D01*
X35910735Y-39433023D01*
X36097334Y-39337946D01*
X36266762Y-39214848D01*
X36414848Y-39066762D01*
X36537946Y-38897334D01*
X36633023Y-38710735D01*
X36697739Y-38511559D01*
X36730500Y-38304713D01*
X36730500Y-38095287D01*
X36697739Y-37888441D01*
X36633023Y-37689265D01*
X36537946Y-37502666D01*
X36414848Y-37333238D01*
X36414844Y-37333234D01*
X36414842Y-37333231D01*
X36266768Y-37185157D01*
X36266764Y-37185154D01*
X36266762Y-37185152D01*
X36097334Y-37062054D01*
X35910735Y-36966977D01*
X35910732Y-36966976D01*
X35910730Y-36966975D01*
X35711564Y-36902262D01*
X35711560Y-36902261D01*
X35711559Y-36902261D01*
X35504713Y-36869500D01*
X35295287Y-36869500D01*
X35088441Y-36902261D01*
X35088435Y-36902262D01*
X34889269Y-36966975D01*
X34889263Y-36966978D01*
X34702666Y-37062054D01*
X34533231Y-37185157D01*
X34385157Y-37333231D01*
X34262054Y-37502666D01*
X34166978Y-37689263D01*
X34166975Y-37689269D01*
X34102262Y-37888435D01*
X34102261Y-37888440D01*
X34102261Y-37888441D01*
X34069500Y-38095287D01*
X32943879Y-38095287D01*
X32936267Y-38057019D01*
X32904120Y-37895403D01*
X32825403Y-37705362D01*
X32711122Y-37534329D01*
X32711117Y-37534323D01*
X32565676Y-37388882D01*
X32565670Y-37388877D01*
X32394638Y-37274597D01*
X32204602Y-37195882D01*
X32204597Y-37195880D01*
X32002852Y-37155750D01*
X32002850Y-37155750D01*
X31797150Y-37155750D01*
X31797147Y-37155750D01*
X31595402Y-37195880D01*
X31595397Y-37195882D01*
X31405361Y-37274597D01*
X31234329Y-37388877D01*
X31234323Y-37388882D01*
X31088882Y-37534323D01*
X31088877Y-37534329D01*
X30974597Y-37705361D01*
X30895882Y-37895397D01*
X30895880Y-37895402D01*
X30855750Y-38097147D01*
X19944249Y-38097147D01*
X19904120Y-37895403D01*
X19825403Y-37705362D01*
X19711122Y-37534329D01*
X19711117Y-37534323D01*
X19565676Y-37388882D01*
X19565670Y-37388877D01*
X19394638Y-37274597D01*
X19204602Y-37195882D01*
X19204597Y-37195880D01*
X19002852Y-37155750D01*
X19002850Y-37155750D01*
X18797150Y-37155750D01*
X18797147Y-37155750D01*
X18595402Y-37195880D01*
X18595397Y-37195882D01*
X18405361Y-37274597D01*
X18234329Y-37388877D01*
X18234323Y-37388882D01*
X18088882Y-37534323D01*
X18088877Y-37534329D01*
X17974597Y-37705361D01*
X17895882Y-37895397D01*
X17895880Y-37895402D01*
X17855750Y-38097147D01*
X16730500Y-38097147D01*
X16730500Y-38095287D01*
X16697739Y-37888441D01*
X16633023Y-37689265D01*
X16537946Y-37502666D01*
X16414848Y-37333238D01*
X16414844Y-37333234D01*
X16414842Y-37333231D01*
X16266768Y-37185157D01*
X16266764Y-37185154D01*
X16266762Y-37185152D01*
X16097334Y-37062054D01*
X15910735Y-36966977D01*
X15910732Y-36966976D01*
X15910730Y-36966975D01*
X15711564Y-36902262D01*
X15711560Y-36902261D01*
X15711559Y-36902261D01*
X15504713Y-36869500D01*
X15295287Y-36869500D01*
X15088441Y-36902261D01*
X15088435Y-36902262D01*
X14889269Y-36966975D01*
X14889263Y-36966978D01*
X14702666Y-37062054D01*
X14533231Y-37185157D01*
X14385157Y-37333231D01*
X14262054Y-37502666D01*
X14166978Y-37689263D01*
X14166975Y-37689269D01*
X14102262Y-37888435D01*
X14102261Y-37888440D01*
X14102261Y-37888441D01*
X14069500Y-38095287D01*
X75500Y-38095287D01*
X75500Y-13346000D01*
X7145504Y-13346000D01*
X8098164Y-13346000D01*
X8057370Y-13416657D01*
X8025000Y-13537465D01*
X8025000Y-13662535D01*
X8057370Y-13783343D01*
X8098164Y-13854000D01*
X7145504Y-13854000D01*
X7175440Y-14043003D01*
X7241490Y-14246286D01*
X7241493Y-14246292D01*
X7338536Y-14436750D01*
X7464177Y-14609679D01*
X7615320Y-14760822D01*
X7788249Y-14886463D01*
X7978707Y-14983506D01*
X7978713Y-14983509D01*
X8181998Y-15049560D01*
X8246000Y-15059696D01*
X8246000Y-14001836D01*
X8316657Y-14042630D01*
X8437465Y-14075000D01*
X8562535Y-14075000D01*
X8683343Y-14042630D01*
X8754000Y-14001836D01*
X8754000Y-15059696D01*
X8818001Y-15049560D01*
X9021286Y-14983509D01*
X9021292Y-14983506D01*
X9211750Y-14886463D01*
X9384679Y-14760822D01*
X9535819Y-14609682D01*
X9535821Y-14609679D01*
X9647754Y-14455618D01*
X9703976Y-14412264D01*
X9774712Y-14406189D01*
X9837504Y-14439320D01*
X9851626Y-14455618D01*
X9942330Y-14580461D01*
X9966188Y-14647329D01*
X9950108Y-14716480D01*
X9929490Y-14743617D01*
X8728486Y-15944624D01*
X8728485Y-15944624D01*
X8619629Y-16053479D01*
X8619621Y-16053489D01*
X8542647Y-16186813D01*
X8542647Y-16186814D01*
X8503385Y-16333342D01*
X8502800Y-16335524D01*
X8502800Y-18874730D01*
X8482798Y-18942851D01*
X8442947Y-18981971D01*
X8351347Y-19038470D01*
X8351341Y-19038475D01*
X8225975Y-19163841D01*
X8225970Y-19163847D01*
X8132885Y-19314762D01*
X8077113Y-19483072D01*
X8077112Y-19483079D01*
X8066500Y-19586946D01*
X8066500Y-20588044D01*
X8077112Y-20691925D01*
X8132885Y-20860238D01*
X8225970Y-21011152D01*
X8225975Y-21011158D01*
X8351341Y-21136524D01*
X8351347Y-21136529D01*
X8351348Y-21136530D01*
X8502262Y-21229615D01*
X8670574Y-21285387D01*
X8774455Y-21296000D01*
X9308300Y-21295999D01*
X9376421Y-21316001D01*
X9422914Y-21369656D01*
X9434300Y-21421999D01*
X9434300Y-26030107D01*
X9434300Y-26160293D01*
X9459698Y-26287977D01*
X9509518Y-26408254D01*
X9581845Y-26516499D01*
X14783003Y-31717657D01*
X19982234Y-36916887D01*
X19982244Y-36916898D01*
X19986644Y-36921298D01*
X19986645Y-36921299D01*
X20078701Y-37013355D01*
X20186946Y-37085682D01*
X20307223Y-37135502D01*
X20434906Y-37160900D01*
X25665092Y-37160900D01*
X25665093Y-37160900D01*
X25792777Y-37135502D01*
X25913054Y-37085682D01*
X26021299Y-37013355D01*
X27183355Y-35851299D01*
X27183831Y-35850585D01*
X27184177Y-35850296D01*
X27187286Y-35846509D01*
X27188003Y-35847098D01*
X27238303Y-35805053D01*
X27308745Y-35796197D01*
X27372792Y-35826832D01*
X27405011Y-35872358D01*
X27456751Y-35997268D01*
X27456753Y-35997272D01*
X27548540Y-36134641D01*
X27548545Y-36134647D01*
X27665352Y-36251454D01*
X27665358Y-36251459D01*
X27665360Y-36251461D01*
X27802727Y-36343246D01*
X27955360Y-36406469D01*
X28117395Y-36438700D01*
X28117396Y-36438700D01*
X28282604Y-36438700D01*
X28282605Y-36438700D01*
X28444640Y-36406469D01*
X28597273Y-36343246D01*
X28734640Y-36251461D01*
X28851461Y-36134640D01*
X28943246Y-35997273D01*
X29006469Y-35844640D01*
X29038700Y-35682605D01*
X29038700Y-35640380D01*
X29058702Y-35572259D01*
X29075600Y-35551289D01*
X29917876Y-34709014D01*
X29970974Y-34617045D01*
X29994853Y-34575686D01*
X30034700Y-34426977D01*
X30034700Y-18025516D01*
X41592000Y-18025516D01*
X41602605Y-18129318D01*
X41602606Y-18129321D01*
X41658342Y-18297525D01*
X41751365Y-18448339D01*
X41751370Y-18448345D01*
X41876654Y-18573629D01*
X41876660Y-18573634D01*
X42027474Y-18666657D01*
X42195678Y-18722393D01*
X42195681Y-18722394D01*
X42299483Y-18732999D01*
X42299483Y-18733000D01*
X42346000Y-18733000D01*
X42346000Y-17754000D01*
X41592000Y-17754000D01*
X41592000Y-18025516D01*
X30034700Y-18025516D01*
X30034700Y-16974483D01*
X41592000Y-16974483D01*
X41592000Y-17246000D01*
X42346000Y-17246000D01*
X42346000Y-16267000D01*
X42299483Y-16267000D01*
X42195681Y-16277605D01*
X42195678Y-16277606D01*
X42027474Y-16333342D01*
X41876660Y-16426365D01*
X41876654Y-16426370D01*
X41751370Y-16551654D01*
X41751365Y-16551660D01*
X41658342Y-16702474D01*
X41602606Y-16870678D01*
X41602605Y-16870681D01*
X41592000Y-16974483D01*
X30034700Y-16974483D01*
X30034700Y-14849198D01*
X30054702Y-14781077D01*
X30090703Y-14744430D01*
X30092524Y-14743212D01*
X30097981Y-14739567D01*
X30239567Y-14597981D01*
X30350810Y-14431493D01*
X30427436Y-14246502D01*
X30466500Y-14050116D01*
X30466500Y-13910700D01*
X30486502Y-13842579D01*
X30540158Y-13796086D01*
X30592500Y-13784700D01*
X33422044Y-13784700D01*
X33490165Y-13804702D01*
X33536658Y-13858358D01*
X33546761Y-13928628D01*
X33546761Y-13928632D01*
X33536500Y-13999994D01*
X33536500Y-14565828D01*
X33553996Y-14698725D01*
X33553999Y-14698738D01*
X33588071Y-14825894D01*
X33639371Y-14949744D01*
X33639377Y-14949754D01*
X33705194Y-15063753D01*
X33705199Y-15063760D01*
X33786794Y-15170097D01*
X33786813Y-15170118D01*
X33879881Y-15263186D01*
X33879902Y-15263205D01*
X33945580Y-15313601D01*
X33986243Y-15344803D01*
X34100257Y-15410629D01*
X34224101Y-15461927D01*
X34351268Y-15496002D01*
X34351271Y-15496002D01*
X34351274Y-15496003D01*
X34385523Y-15500511D01*
X34484174Y-15513500D01*
X34484181Y-15513500D01*
X35115819Y-15513500D01*
X35115826Y-15513500D01*
X35235941Y-15497685D01*
X35248725Y-15496003D01*
X35248725Y-15496002D01*
X35248732Y-15496002D01*
X35375899Y-15461927D01*
X35499743Y-15410629D01*
X35613757Y-15344803D01*
X35720106Y-15263198D01*
X35813198Y-15170106D01*
X35840907Y-15133994D01*
X35898245Y-15092128D01*
X35940869Y-15084700D01*
X37751098Y-15084700D01*
X37819219Y-15104702D01*
X37865712Y-15158358D01*
X37876446Y-15197897D01*
X37877112Y-15204424D01*
X37932885Y-15372738D01*
X38025970Y-15523652D01*
X38025975Y-15523658D01*
X38151341Y-15649024D01*
X38151347Y-15649029D01*
X38151348Y-15649030D01*
X38302262Y-15742115D01*
X38470574Y-15797887D01*
X38574455Y-15808500D01*
X39625544Y-15808499D01*
X39729426Y-15797887D01*
X39897738Y-15742115D01*
X40048652Y-15649030D01*
X40048658Y-15649024D01*
X40176078Y-15521605D01*
X40238390Y-15487579D01*
X40265173Y-15484700D01*
X41438750Y-15484700D01*
X41506871Y-15504702D01*
X41527840Y-15521600D01*
X41580690Y-15574450D01*
X41580693Y-15574453D01*
X41580696Y-15574455D01*
X41723894Y-15659143D01*
X41723897Y-15659143D01*
X41723899Y-15659145D01*
X41883669Y-15705562D01*
X41920988Y-15708499D01*
X41920989Y-15708500D01*
X41920998Y-15708500D01*
X43079011Y-15708500D01*
X43079011Y-15708499D01*
X43116331Y-15705562D01*
X43276101Y-15659145D01*
X43276103Y-15659143D01*
X43276105Y-15659143D01*
X43347704Y-15616799D01*
X43419307Y-15574453D01*
X43536953Y-15456807D01*
X43621645Y-15313601D01*
X43668062Y-15153831D01*
X43668062Y-15153828D01*
X43668303Y-15153000D01*
X43706516Y-15093165D01*
X43771012Y-15063487D01*
X43841314Y-15073390D01*
X43895103Y-15119730D01*
X43915299Y-15187793D01*
X43915300Y-15188153D01*
X43915300Y-16269940D01*
X43895298Y-16338061D01*
X43855447Y-16377180D01*
X43776353Y-16425966D01*
X43776341Y-16425975D01*
X43650971Y-16551345D01*
X43648511Y-16554457D01*
X43646281Y-16556035D01*
X43645780Y-16556537D01*
X43645694Y-16556451D01*
X43590568Y-16595483D01*
X43519643Y-16598671D01*
X43458254Y-16563008D01*
X43450837Y-16554446D01*
X43448632Y-16551657D01*
X43323345Y-16426370D01*
X43323339Y-16426365D01*
X43172525Y-16333342D01*
X43004321Y-16277606D01*
X43004318Y-16277605D01*
X42900516Y-16267000D01*
X42854000Y-16267000D01*
X42854000Y-18733000D01*
X42900517Y-18733000D01*
X42900516Y-18732999D01*
X43004318Y-18722394D01*
X43004321Y-18722393D01*
X43172525Y-18666657D01*
X43323339Y-18573634D01*
X43323345Y-18573629D01*
X43448624Y-18448350D01*
X43450832Y-18445558D01*
X43452837Y-18444137D01*
X43453825Y-18443150D01*
X43453993Y-18443318D01*
X43508768Y-18404522D01*
X43579693Y-18401323D01*
X43641088Y-18436976D01*
X43648515Y-18445547D01*
X43650974Y-18448657D01*
X43776341Y-18574024D01*
X43776347Y-18574029D01*
X43776348Y-18574030D01*
X43927262Y-18667115D01*
X44095574Y-18722887D01*
X44199455Y-18733500D01*
X44800544Y-18733499D01*
X44904426Y-18722887D01*
X45072738Y-18667115D01*
X45223652Y-18574030D01*
X45349030Y-18448652D01*
X45442115Y-18297738D01*
X45497887Y-18129426D01*
X45508500Y-18025545D01*
X45508499Y-16974456D01*
X45497887Y-16870574D01*
X45442115Y-16702262D01*
X45349030Y-16551348D01*
X45349027Y-16551345D01*
X45349024Y-16551341D01*
X45223658Y-16425975D01*
X45223654Y-16425972D01*
X45223652Y-16425970D01*
X45223646Y-16425966D01*
X45144553Y-16377180D01*
X45097075Y-16324394D01*
X45084700Y-16269940D01*
X45084700Y-14884500D01*
X45104702Y-14816379D01*
X45158358Y-14769886D01*
X45210700Y-14758500D01*
X45354011Y-14758500D01*
X45354011Y-14758499D01*
X45391331Y-14755562D01*
X45551101Y-14709145D01*
X45551103Y-14709143D01*
X45551105Y-14709143D01*
X45657587Y-14646169D01*
X45694307Y-14624453D01*
X45811953Y-14506807D01*
X45867866Y-14412264D01*
X45896643Y-14363605D01*
X45896643Y-14363603D01*
X45896645Y-14363601D01*
X45943062Y-14203831D01*
X45945999Y-14166511D01*
X45946000Y-14166511D01*
X45946000Y-13733489D01*
X45945999Y-13733488D01*
X45943379Y-13700205D01*
X45943062Y-13696169D01*
X45896645Y-13536399D01*
X45896643Y-13536397D01*
X45896643Y-13536394D01*
X45811955Y-13393196D01*
X45811950Y-13393189D01*
X45694310Y-13275549D01*
X45694303Y-13275544D01*
X45551106Y-13190857D01*
X45551102Y-13190856D01*
X45551101Y-13190855D01*
X45491198Y-13173451D01*
X45450546Y-13161641D01*
X45390711Y-13123427D01*
X45361034Y-13058931D01*
X45359700Y-13040644D01*
X45359700Y-12098024D01*
X45349871Y-12061343D01*
X45334202Y-12002863D01*
X45319854Y-11949315D01*
X45285858Y-11890433D01*
X45242878Y-11815989D01*
X45242870Y-11815979D01*
X43459018Y-10032127D01*
X43459009Y-10032120D01*
X43447862Y-10025685D01*
X43447862Y-10025684D01*
X43447859Y-10025684D01*
X43325686Y-9955147D01*
X43311411Y-9951322D01*
X43176977Y-9915300D01*
X43176975Y-9915300D01*
X36077957Y-9915300D01*
X36009836Y-9895298D01*
X35963343Y-9841642D01*
X35953239Y-9771369D01*
X35963500Y-9699997D01*
X35963500Y-9134181D01*
X35963500Y-9134174D01*
X35946002Y-9001268D01*
X35911927Y-8874101D01*
X35860629Y-8750257D01*
X35794803Y-8636243D01*
X35794800Y-8636239D01*
X35713205Y-8529902D01*
X35713186Y-8529881D01*
X35620118Y-8436813D01*
X35620097Y-8436794D01*
X35513760Y-8355199D01*
X35513753Y-8355194D01*
X35399754Y-8289377D01*
X35399744Y-8289371D01*
X35275894Y-8238071D01*
X35148738Y-8203999D01*
X35148725Y-8203996D01*
X35015828Y-8186500D01*
X35015826Y-8186500D01*
X34565580Y-8186500D01*
X34497459Y-8166498D01*
X34476485Y-8149595D01*
X33159020Y-6832129D01*
X33159010Y-6832121D01*
X33025686Y-6755147D01*
X32876977Y-6715300D01*
X32876975Y-6715300D01*
X32694380Y-6715300D01*
X32626259Y-6695298D01*
X32605285Y-6678395D01*
X30859020Y-4932129D01*
X30859016Y-4932126D01*
X30859014Y-4932124D01*
X30816911Y-4907816D01*
X30725686Y-4855147D01*
X30576977Y-4815300D01*
X19123023Y-4815300D01*
X18974314Y-4855147D01*
X18974312Y-4855147D01*
X18974308Y-4855149D01*
X18907650Y-4893635D01*
X18840988Y-4932121D01*
X18840978Y-4932129D01*
X11602948Y-12170160D01*
X11540636Y-12204186D01*
X11474917Y-12200898D01*
X11318120Y-12149952D01*
X11318123Y-12149952D01*
X11257195Y-12140302D01*
X11106916Y-12116500D01*
X10893084Y-12116500D01*
X10681884Y-12149951D01*
X10681878Y-12149952D01*
X10478521Y-12216026D01*
X10478515Y-12216029D01*
X10287987Y-12313108D01*
X10114993Y-12438796D01*
X10114990Y-12438798D01*
X9963795Y-12589993D01*
X9851626Y-12744381D01*
X9795403Y-12787735D01*
X9724667Y-12793810D01*
X9661876Y-12760678D01*
X9647754Y-12744381D01*
X9535821Y-12590320D01*
X9535819Y-12590317D01*
X9384679Y-12439177D01*
X9211750Y-12313536D01*
X9021292Y-12216493D01*
X9021286Y-12216490D01*
X8818004Y-12150440D01*
X8754000Y-12140302D01*
X8754000Y-13198163D01*
X8683343Y-13157370D01*
X8562535Y-13125000D01*
X8437465Y-13125000D01*
X8316657Y-13157370D01*
X8246000Y-13198163D01*
X8246000Y-12140302D01*
X8181995Y-12150440D01*
X7978713Y-12216490D01*
X7978707Y-12216493D01*
X7788249Y-12313536D01*
X7615320Y-12439177D01*
X7464177Y-12590320D01*
X7338536Y-12763249D01*
X7241493Y-12953707D01*
X7241490Y-12953713D01*
X7175440Y-13156996D01*
X7145504Y-13346000D01*
X75500Y-13346000D01*
X75500Y-4093713D01*
X3049500Y-4093713D01*
X3049500Y-4306287D01*
X3082754Y-4516243D01*
X3148443Y-4718412D01*
X3244949Y-4907816D01*
X3369896Y-5079792D01*
X3369898Y-5079794D01*
X3369900Y-5079797D01*
X3520202Y-5230099D01*
X3520205Y-5230101D01*
X3520208Y-5230104D01*
X3692184Y-5355051D01*
X3881588Y-5451557D01*
X4083757Y-5517246D01*
X4293713Y-5550500D01*
X4293716Y-5550500D01*
X4506284Y-5550500D01*
X4506287Y-5550500D01*
X4716243Y-5517246D01*
X4918412Y-5451557D01*
X5107816Y-5355051D01*
X5279792Y-5230104D01*
X5430104Y-5079792D01*
X5555051Y-4907816D01*
X5651557Y-4718412D01*
X5717246Y-4516243D01*
X5750500Y-4306287D01*
X5750500Y-4093713D01*
X45049500Y-4093713D01*
X45049500Y-4306287D01*
X45082754Y-4516243D01*
X45148443Y-4718412D01*
X45244949Y-4907816D01*
X45369896Y-5079792D01*
X45369898Y-5079794D01*
X45369900Y-5079797D01*
X45520202Y-5230099D01*
X45520205Y-5230101D01*
X45520208Y-5230104D01*
X45692184Y-5355051D01*
X45881588Y-5451557D01*
X46083757Y-5517246D01*
X46293713Y-5550500D01*
X46293716Y-5550500D01*
X46506284Y-5550500D01*
X46506287Y-5550500D01*
X46716243Y-5517246D01*
X46918412Y-5451557D01*
X47107816Y-5355051D01*
X47279792Y-5230104D01*
X47430104Y-5079792D01*
X47555051Y-4907816D01*
X47651557Y-4718412D01*
X47717246Y-4516243D01*
X47750500Y-4306287D01*
X47750500Y-4093713D01*
X47717246Y-3883757D01*
X47651557Y-3681588D01*
X47555051Y-3492184D01*
X47430104Y-3320208D01*
X47430101Y-3320205D01*
X47430099Y-3320202D01*
X47279797Y-3169900D01*
X47279794Y-3169898D01*
X47279792Y-3169896D01*
X47107816Y-3044949D01*
X46918412Y-2948443D01*
X46716243Y-2882754D01*
X46506287Y-2849500D01*
X46293713Y-2849500D01*
X46083757Y-2882754D01*
X46083754Y-2882754D01*
X46083753Y-2882755D01*
X45881588Y-2948443D01*
X45881586Y-2948444D01*
X45692180Y-3044951D01*
X45520205Y-3169898D01*
X45520202Y-3169900D01*
X45369900Y-3320202D01*
X45369898Y-3320205D01*
X45244951Y-3492180D01*
X45244949Y-3492184D01*
X45148443Y-3681588D01*
X45082754Y-3883757D01*
X45049500Y-4093713D01*
X5750500Y-4093713D01*
X5717246Y-3883757D01*
X5651557Y-3681588D01*
X5555051Y-3492184D01*
X5430104Y-3320208D01*
X5430101Y-3320205D01*
X5430099Y-3320202D01*
X5279797Y-3169900D01*
X5279794Y-3169898D01*
X5279792Y-3169896D01*
X5107816Y-3044949D01*
X4918412Y-2948443D01*
X4716243Y-2882754D01*
X4506287Y-2849500D01*
X4293713Y-2849500D01*
X4083757Y-2882754D01*
X4083754Y-2882754D01*
X4083753Y-2882755D01*
X3881588Y-2948443D01*
X3881586Y-2948444D01*
X3692180Y-3044951D01*
X3520205Y-3169898D01*
X3520202Y-3169900D01*
X3369900Y-3320202D01*
X3369898Y-3320205D01*
X3244951Y-3492180D01*
X3244949Y-3492184D01*
X3148443Y-3681588D01*
X3082754Y-3883757D01*
X3049500Y-4093713D01*
X75500Y-4093713D01*
X75500Y-2004121D01*
X75770Y-1995881D01*
X84416Y-1863965D01*
X91424Y-1757029D01*
X93571Y-1740719D01*
X139466Y-1509990D01*
X143727Y-1494087D01*
X219340Y-1271339D01*
X225638Y-1256132D01*
X329690Y-1045138D01*
X337914Y-1030894D01*
X468610Y-835293D01*
X478623Y-822244D01*
X633740Y-645367D01*
X645367Y-633740D01*
X822244Y-478623D01*
X835293Y-468610D01*
X1030894Y-337914D01*
X1045138Y-329690D01*
X1256132Y-225638D01*
X1271339Y-219340D01*
X1494087Y-143727D01*
X1509990Y-139466D01*
X1740719Y-93571D01*
X1757031Y-91424D01*
X1986508Y-76384D01*
X1995881Y-75770D01*
X2004121Y-75500D01*
X2024531Y-75500D01*
X48975469Y-75500D01*
X48995879Y-75500D01*
X49004119Y-75770D01*
G37*
%TD.AperFunction*%
%TD*%
M02*
