%TF.GenerationSoftware,KiCad,Pcbnew,10.0.2*%
%TF.CreationDate,2026-09-07T16:51:00-04:00*%
%TF.ProjectId,tagbase-lipo-v1,74616762-6173-4652-9d6c-69706f2d7631,rev?*%
%TF.SameCoordinates,Original*%
%TF.FileFunction,Copper,L4,Bot*%
%TF.FilePolarity,Positive*%
%FSLAX46Y46*%
G04 Gerber Fmt 4.6, Leading zero omitted, Abs format (unit mm)*
G04 Created by KiCad (PCBNEW 10.0.2) date 2026-09-07 16:51:00*
%MOMM*%
%LPD*%
G01*
G04 APERTURE LIST*
G04 Aperture macros list*
%AMRoundRect*
0 Rectangle with rounded corners*
0 $1 Rounding radius*
0 $2 $3 $4 $5 $6 $7 $8 $9 X,Y pos of 4 corners*
0 Add a 4 corners polygon primitive as box body*
4,1,4,$2,$3,$4,$5,$6,$7,$8,$9,$2,$3,0*
0 Add four circle primitives for the rounded corners*
1,1,$1+$1,$2,$3*
1,1,$1+$1,$4,$5*
1,1,$1+$1,$6,$7*
1,1,$1+$1,$8,$9*
0 Add four rect primitives between the rounded corners*
20,1,$1+$1,$2,$3,$4,$5,0*
20,1,$1+$1,$4,$5,$6,$7,0*
20,1,$1+$1,$6,$7,$8,$9,0*
20,1,$1+$1,$8,$9,$2,$3,0*%
G04 Aperture macros list end*
%TA.AperFunction,ComponentPad*%
%ADD10C,1.016000*%
%TD*%
%TA.AperFunction,ComponentPad*%
%ADD11C,0.939800*%
%TD*%
%TA.AperFunction,ComponentPad*%
%ADD12RoundRect,0.250000X0.725000X-0.600000X0.725000X0.600000X-0.725000X0.600000X-0.725000X-0.600000X0*%
%TD*%
%TA.AperFunction,ComponentPad*%
%ADD13O,1.950000X1.700000*%
%TD*%
%TA.AperFunction,ComponentPad*%
%ADD14R,1.700000X1.700000*%
%TD*%
%TA.AperFunction,ComponentPad*%
%ADD15C,1.700000*%
%TD*%
%TA.AperFunction,ViaPad*%
%ADD16C,0.504800*%
%TD*%
%TA.AperFunction,Conductor*%
%ADD17C,0.101600*%
%TD*%
G04 APERTURE END LIST*
D10*
%TO.P,J102,1,Pin_1_1*%
%TO.N,+3V3*%
X13265000Y-7360000D03*
%TO.P,J102,2,Pin_2_2*%
%TO.N,/SWDIO*%
X14535000Y-7360000D03*
%TO.P,J102,3,Pin_3_3*%
%TO.N,GND*%
X13265000Y-8630000D03*
%TO.P,J102,4,Pin_4_4*%
%TO.N,/SCLK*%
X14535000Y-8630000D03*
%TO.P,J102,5,Pin_5_5*%
%TO.N,GND*%
X13265000Y-9900000D03*
%TO.P,J102,6,Pin_6_6*%
%TO.N,unconnected-(J102-Pin_6-Pad6)*%
X14535000Y-9900000D03*
%TO.P,J102,7,Pin_7_7*%
%TO.N,unconnected-(J102-Pin_7-Pad7)*%
X13265000Y-11170000D03*
%TO.P,J102,8,Pin_8_8*%
%TO.N,unconnected-(J102-Pin_8-Pad8)*%
X14535000Y-11170000D03*
%TO.P,J102,9,Pin_9_9*%
%TO.N,GND*%
X13265000Y-12440000D03*
%TO.P,J102,10,Pin_10_10*%
%TO.N,NRST*%
X14535000Y-12440000D03*
%TD*%
D11*
%TO.P,J101,1,Pin_1_1*%
%TO.N,TAG_RESET*%
X24130000Y-43815000D03*
%TO.P,J101,2,Pin_2_2*%
%TO.N,GND*%
X24130000Y-42545000D03*
%TO.P,J101,3,Pin_3_3*%
%TO.N,TAG_SWDIO*%
X25400000Y-43815000D03*
%TO.P,J101,4,Pin_4_4*%
%TO.N,TAG_SCK*%
X25400000Y-42545000D03*
%TO.P,J101,5,Pin_5_5*%
%TO.N,TAG_3V3*%
X26670000Y-43815000D03*
%TO.P,J101,6,Pin_6_6*%
X26670000Y-42545000D03*
%TD*%
D12*
%TO.P,J1,1,Pin_1_1*%
%TO.N,unconnected-(J1-Pin_1-Pad1)*%
X45940000Y-15410000D03*
D13*
%TO.P,J1,2,Pin_2_2*%
%TO.N,TAG_3V3_IN*%
X45940000Y-12910000D03*
%TO.P,J1,3,Pin_3_3*%
%TO.N,unconnected-(J1-Pin_3-Pad3)*%
X45940000Y-10410000D03*
%TO.P,J1,4,Pin_4_4*%
%TO.N,GND*%
X45940000Y-7910000D03*
%TD*%
D14*
%TO.P,J5,1,Pin_1_1*%
%TO.N,GND*%
X5660000Y-17620000D03*
D15*
%TO.P,J5,2,Pin_2_2*%
%TO.N,/UART_TX*%
X8200000Y-17620000D03*
%TD*%
D16*
%TO.N,+3V3*%
X7870000Y-11730000D03*
X30290000Y-18540000D03*
X17200000Y-17010000D03*
X36990000Y-17320000D03*
X27680000Y-25810000D03*
X32900000Y-21300000D03*
X23600000Y-31850000D03*
X29540000Y-15680000D03*
X28280000Y-22450000D03*
X24440000Y-22460000D03*
X12160000Y-3090000D03*
X40130000Y-18460000D03*
X22340000Y-13670000D03*
X39580000Y-3120000D03*
X13080000Y-16950000D03*
%TO.N,GND*%
X26100000Y-26350000D03*
X26120000Y-16182500D03*
X19850000Y-8150000D03*
X29080000Y-20480000D03*
X25750000Y-31850000D03*
X6880000Y-11670000D03*
X25470000Y-22490000D03*
X22700000Y-22490000D03*
X31090000Y-23230000D03*
X33175000Y-13000000D03*
X21060000Y-13700000D03*
X28380000Y-18620000D03*
X40100400Y-14934600D03*
X34950000Y-12275000D03*
X5990000Y-8943000D03*
X32164400Y-2635600D03*
X20720000Y-11820000D03*
X34700000Y-24400000D03*
X27580000Y-22490000D03*
X23950000Y-13660000D03*
X40049600Y-16001400D03*
X26140000Y-25150000D03*
X32200000Y-8100000D03*
X24330581Y-10146900D03*
X32900000Y-23400000D03*
X36227601Y-13907601D03*
X19900000Y-2700000D03*
X25510000Y-12440000D03*
X31080000Y-25110000D03*
%TO.N,NRST*%
X29390000Y-16410000D03*
%TO.N,TAG_RESET*%
X21530000Y-37170000D03*
%TO.N,TAG_SWDIO*%
X19350000Y-37000000D03*
%TO.N,TAG_SCK*%
X25340000Y-35510000D03*
%TO.N,TAG_3V3*%
X38620000Y-35320000D03*
%TO.N,/boot0*%
X19990000Y-20780000D03*
X27350000Y-19570000D03*
%TO.N,/LED_RED*%
X27780000Y-12580000D03*
X15160000Y-3720000D03*
%TO.N,/LED_GREEN*%
X31370000Y-10590000D03*
X30800000Y-11860000D03*
%TO.N,Net-(U5-PA10)*%
X22534137Y-15957280D03*
X21600000Y-19140000D03*
%TO.N,/en1.8v*%
X26050000Y-31150000D03*
X26350000Y-19600000D03*
%TO.N,/UART_TX*%
X22730000Y-15380000D03*
%TO.N,/BAT*%
X34020000Y-16220000D03*
X34180000Y-15120000D03*
%TO.N,Net-(U5-PB3)*%
X24980000Y-19450000D03*
X25690000Y-21260000D03*
%TD*%
%TO.N,NRST*%
D17*
X29390000Y-16410000D02*
X26323600Y-13343600D01*
X26323600Y-13343600D02*
X24387942Y-13343600D01*
X23484342Y-12440000D02*
X14535000Y-12440000D01*
X24387942Y-13343600D02*
X23484342Y-12440000D01*
%TO.N,TAG_RESET*%
X21530000Y-45310000D02*
X21530000Y-37170000D01*
X23690000Y-45790000D02*
X22010000Y-45790000D01*
X24130000Y-45350000D02*
X23690000Y-45790000D01*
X22010000Y-45790000D02*
X21530000Y-45310000D01*
X24130000Y-43815000D02*
X24130000Y-45350000D01*
%TO.N,TAG_SWDIO*%
X22200000Y-46770000D02*
X24140000Y-46770000D01*
X25400000Y-45510000D02*
X25400000Y-43815000D01*
X24140000Y-46770000D02*
X25400000Y-45510000D01*
X21200000Y-38850000D02*
X21200000Y-45770000D01*
X21200000Y-45770000D02*
X22200000Y-46770000D01*
X19350000Y-37000000D02*
X21200000Y-38850000D01*
%TO.N,TAG_SCK*%
X25400000Y-35570000D02*
X25340000Y-35510000D01*
X25400000Y-42545000D02*
X25400000Y-35570000D01*
%TO.N,TAG_3V3*%
X26670000Y-43815000D02*
X26670000Y-45520000D01*
X38620000Y-38290000D02*
X38620000Y-35320000D01*
X30590000Y-46320000D02*
X38620000Y-38290000D01*
X26670000Y-42545000D02*
X26670000Y-40700000D01*
X26670000Y-45520000D02*
X27470000Y-46320000D01*
X32050000Y-35320000D02*
X26670000Y-40700000D01*
X27470000Y-46320000D02*
X30590000Y-46320000D01*
X38620000Y-35320000D02*
X32050000Y-35320000D01*
%TO.N,/boot0*%
X27350000Y-19570000D02*
X26530000Y-18750000D01*
X21950000Y-20780000D02*
X19990000Y-20780000D01*
X23980000Y-18750000D02*
X21950000Y-20780000D01*
X26530000Y-18750000D02*
X23980000Y-18750000D01*
%TO.N,/LED_RED*%
X27130000Y-11930000D02*
X27780000Y-12580000D01*
X23730000Y-7020000D02*
X27130000Y-10420000D01*
X18460000Y-7020000D02*
X23730000Y-7020000D01*
X27130000Y-10420000D02*
X27130000Y-11930000D01*
X15160000Y-3720000D02*
X18460000Y-7020000D01*
%TO.N,/LED_GREEN*%
X30800000Y-11160000D02*
X31370000Y-10590000D01*
X30800000Y-11860000D02*
X30800000Y-11160000D01*
%TO.N,Net-(U5-PA10)*%
X21600000Y-16891417D02*
X21600000Y-19140000D01*
X22534137Y-15957280D02*
X21600000Y-16891417D01*
%TO.N,/en1.8v*%
X26350000Y-24749342D02*
X26571800Y-24971142D01*
X26571800Y-24971142D02*
X26571800Y-30628200D01*
X26571800Y-30628200D02*
X26050000Y-31150000D01*
X26350000Y-19600000D02*
X26350000Y-24749342D01*
%TO.N,/UART_TX*%
X8200000Y-17620000D02*
X10440000Y-15380000D01*
X10440000Y-15380000D02*
X22730000Y-15380000D01*
%TO.N,/BAT*%
X34020000Y-16220000D02*
X34020000Y-15280000D01*
X34020000Y-15280000D02*
X34180000Y-15120000D01*
%TO.N,Net-(U5-PB3)*%
X24980000Y-19450000D02*
X25690000Y-20160000D01*
X25690000Y-20160000D02*
X25690000Y-21260000D01*
%TD*%
%TA.AperFunction,Conductor*%
%TO.N,GND*%
G36*
X48263802Y-300730D02*
G01*
X48522346Y-316369D01*
X48537426Y-318200D01*
X48788460Y-364203D01*
X48803210Y-367839D01*
X49046867Y-443765D01*
X49061085Y-449158D01*
X49293795Y-553892D01*
X49307266Y-560962D01*
X49525667Y-692990D01*
X49538169Y-701619D01*
X49739073Y-859017D01*
X49750453Y-869100D01*
X49930899Y-1049546D01*
X49940983Y-1060927D01*
X50098377Y-1261827D01*
X50107013Y-1274338D01*
X50239036Y-1492731D01*
X50246107Y-1506204D01*
X50350839Y-1738909D01*
X50356235Y-1753136D01*
X50432157Y-1996778D01*
X50435798Y-2011551D01*
X50481797Y-2262561D01*
X50483631Y-2277665D01*
X50499270Y-2536197D01*
X50499500Y-2543805D01*
X50499500Y-67306194D01*
X50499270Y-67313802D01*
X50483631Y-67572334D01*
X50481797Y-67587438D01*
X50435798Y-67838448D01*
X50432157Y-67853221D01*
X50356235Y-68096863D01*
X50350839Y-68111090D01*
X50246107Y-68343795D01*
X50239036Y-68357268D01*
X50107013Y-68575661D01*
X50098370Y-68588183D01*
X49940989Y-68789065D01*
X49930899Y-68800453D01*
X49750453Y-68980899D01*
X49739065Y-68990989D01*
X49538183Y-69148370D01*
X49525661Y-69157013D01*
X49307268Y-69289036D01*
X49293795Y-69296107D01*
X49061090Y-69400839D01*
X49046863Y-69406235D01*
X48803221Y-69482157D01*
X48788448Y-69485798D01*
X48537438Y-69531797D01*
X48522334Y-69533631D01*
X48263802Y-69549270D01*
X48256194Y-69549500D01*
X2543806Y-69549500D01*
X2536198Y-69549270D01*
X2277665Y-69533631D01*
X2262561Y-69531797D01*
X2011551Y-69485798D01*
X1996778Y-69482157D01*
X1753136Y-69406235D01*
X1738909Y-69400839D01*
X1506204Y-69296107D01*
X1492731Y-69289036D01*
X1274338Y-69157013D01*
X1261827Y-69148377D01*
X1060927Y-68990983D01*
X1049546Y-68980899D01*
X869100Y-68800453D01*
X859017Y-68789073D01*
X701619Y-68588169D01*
X692990Y-68575667D01*
X560962Y-68357266D01*
X553892Y-68343795D01*
X449160Y-68111090D01*
X443764Y-68096863D01*
X367839Y-67853210D01*
X364203Y-67838460D01*
X318200Y-67587426D01*
X316369Y-67572346D01*
X300730Y-67313802D01*
X300500Y-67306194D01*
X300500Y-51576752D01*
X14351750Y-51576752D01*
X14351750Y-51783247D01*
X14392034Y-51985763D01*
X14392035Y-51985766D01*
X14471053Y-52176533D01*
X14585770Y-52348219D01*
X14585775Y-52348225D01*
X14731774Y-52494224D01*
X14731780Y-52494229D01*
X14903467Y-52608947D01*
X15094237Y-52687966D01*
X15296756Y-52728250D01*
X15503244Y-52728250D01*
X15705763Y-52687966D01*
X15896533Y-52608947D01*
X16068220Y-52494229D01*
X16214229Y-52348220D01*
X16328947Y-52176533D01*
X16407966Y-51985763D01*
X16448250Y-51783244D01*
X16448250Y-51576756D01*
X16448249Y-51576752D01*
X34351750Y-51576752D01*
X34351750Y-51783247D01*
X34392034Y-51985763D01*
X34392035Y-51985766D01*
X34471053Y-52176533D01*
X34585770Y-52348219D01*
X34585775Y-52348225D01*
X34731774Y-52494224D01*
X34731780Y-52494229D01*
X34903467Y-52608947D01*
X35094237Y-52687966D01*
X35296756Y-52728250D01*
X35503244Y-52728250D01*
X35705763Y-52687966D01*
X35896533Y-52608947D01*
X36068220Y-52494229D01*
X36214229Y-52348220D01*
X36328947Y-52176533D01*
X36407966Y-51985763D01*
X36448250Y-51783244D01*
X36448250Y-51576756D01*
X36407966Y-51374237D01*
X36328947Y-51183467D01*
X36214229Y-51011780D01*
X36214224Y-51011774D01*
X36068225Y-50865775D01*
X36068219Y-50865770D01*
X35896533Y-50751053D01*
X35705766Y-50672035D01*
X35705763Y-50672034D01*
X35503247Y-50631750D01*
X35503244Y-50631750D01*
X35296756Y-50631750D01*
X35296752Y-50631750D01*
X35094236Y-50672034D01*
X35094233Y-50672035D01*
X34903466Y-50751053D01*
X34731780Y-50865770D01*
X34731774Y-50865775D01*
X34585775Y-51011774D01*
X34585770Y-51011780D01*
X34471053Y-51183466D01*
X34392035Y-51374233D01*
X34392034Y-51374236D01*
X34351750Y-51576752D01*
X16448249Y-51576752D01*
X16407966Y-51374237D01*
X16328947Y-51183467D01*
X16214229Y-51011780D01*
X16214224Y-51011774D01*
X16068225Y-50865775D01*
X16068219Y-50865770D01*
X15896533Y-50751053D01*
X15705766Y-50672035D01*
X15705763Y-50672034D01*
X15503247Y-50631750D01*
X15503244Y-50631750D01*
X15296756Y-50631750D01*
X15296752Y-50631750D01*
X15094236Y-50672034D01*
X15094233Y-50672035D01*
X14903466Y-50751053D01*
X14731780Y-50865770D01*
X14731774Y-50865775D01*
X14585775Y-51011774D01*
X14585770Y-51011780D01*
X14471053Y-51183466D01*
X14392035Y-51374233D01*
X14392034Y-51374236D01*
X14351750Y-51576752D01*
X300500Y-51576752D01*
X300500Y-48074975D01*
X14065500Y-48074975D01*
X14065500Y-48285024D01*
X14098359Y-48492498D01*
X14163269Y-48692268D01*
X14163270Y-48692270D01*
X14258633Y-48879431D01*
X14382100Y-49049369D01*
X14382102Y-49049371D01*
X14382104Y-49049374D01*
X14530625Y-49197895D01*
X14530628Y-49197897D01*
X14530631Y-49197900D01*
X14700569Y-49321367D01*
X14887730Y-49416730D01*
X15087504Y-49481641D01*
X15294973Y-49514500D01*
X15294975Y-49514500D01*
X15505025Y-49514500D01*
X15505027Y-49514500D01*
X15712496Y-49481641D01*
X15912270Y-49416730D01*
X16099431Y-49321367D01*
X16269369Y-49197900D01*
X16417900Y-49049369D01*
X16541367Y-48879431D01*
X16636730Y-48692270D01*
X16701641Y-48492496D01*
X16734500Y-48285027D01*
X16734500Y-48076752D01*
X17851750Y-48076752D01*
X17851750Y-48283247D01*
X17892034Y-48485763D01*
X17892035Y-48485766D01*
X17971053Y-48676533D01*
X18085770Y-48848219D01*
X18085775Y-48848225D01*
X18231774Y-48994224D01*
X18231780Y-48994229D01*
X18403467Y-49108947D01*
X18594237Y-49187966D01*
X18796756Y-49228250D01*
X19003244Y-49228250D01*
X19205763Y-49187966D01*
X19396533Y-49108947D01*
X19568220Y-48994229D01*
X19714229Y-48848220D01*
X19828947Y-48676533D01*
X19907966Y-48485763D01*
X19948250Y-48283244D01*
X19948250Y-48076756D01*
X19948249Y-48076752D01*
X30851750Y-48076752D01*
X30851750Y-48283247D01*
X30892034Y-48485763D01*
X30892035Y-48485766D01*
X30971053Y-48676533D01*
X31085770Y-48848219D01*
X31085775Y-48848225D01*
X31231774Y-48994224D01*
X31231780Y-48994229D01*
X31403467Y-49108947D01*
X31594237Y-49187966D01*
X31796756Y-49228250D01*
X32003244Y-49228250D01*
X32205763Y-49187966D01*
X32396533Y-49108947D01*
X32568220Y-48994229D01*
X32714229Y-48848220D01*
X32828947Y-48676533D01*
X32907966Y-48485763D01*
X32948250Y-48283244D01*
X32948250Y-48076756D01*
X32948249Y-48076752D01*
X32947896Y-48074975D01*
X34065500Y-48074975D01*
X34065500Y-48285024D01*
X34098359Y-48492498D01*
X34163269Y-48692268D01*
X34163270Y-48692270D01*
X34258633Y-48879431D01*
X34382100Y-49049369D01*
X34382102Y-49049371D01*
X34382104Y-49049374D01*
X34530625Y-49197895D01*
X34530628Y-49197897D01*
X34530631Y-49197900D01*
X34700569Y-49321367D01*
X34887730Y-49416730D01*
X35087504Y-49481641D01*
X35294973Y-49514500D01*
X35294975Y-49514500D01*
X35505025Y-49514500D01*
X35505027Y-49514500D01*
X35712496Y-49481641D01*
X35912270Y-49416730D01*
X36099431Y-49321367D01*
X36269369Y-49197900D01*
X36417900Y-49049369D01*
X36541367Y-48879431D01*
X36636730Y-48692270D01*
X36701641Y-48492496D01*
X36734500Y-48285027D01*
X36734500Y-48074973D01*
X36701641Y-47867504D01*
X36636730Y-47667730D01*
X36541367Y-47480569D01*
X36417900Y-47310631D01*
X36417897Y-47310628D01*
X36417895Y-47310625D01*
X36269374Y-47162104D01*
X36269371Y-47162102D01*
X36269369Y-47162100D01*
X36099431Y-47038633D01*
X35912270Y-46943270D01*
X35912269Y-46943269D01*
X35912268Y-46943269D01*
X35712498Y-46878359D01*
X35608761Y-46861929D01*
X35505027Y-46845500D01*
X35294973Y-46845500D01*
X35211985Y-46858643D01*
X35087501Y-46878359D01*
X34887731Y-46943269D01*
X34700565Y-47038635D01*
X34530628Y-47162102D01*
X34530625Y-47162104D01*
X34382104Y-47310625D01*
X34382102Y-47310628D01*
X34258635Y-47480565D01*
X34163269Y-47667731D01*
X34098359Y-47867501D01*
X34065500Y-48074975D01*
X32947896Y-48074975D01*
X32934882Y-48009553D01*
X32907966Y-47874237D01*
X32828947Y-47683467D01*
X32714229Y-47511780D01*
X32714224Y-47511774D01*
X32568225Y-47365775D01*
X32568219Y-47365770D01*
X32396533Y-47251053D01*
X32205766Y-47172035D01*
X32205763Y-47172034D01*
X32003247Y-47131750D01*
X32003244Y-47131750D01*
X31796756Y-47131750D01*
X31796752Y-47131750D01*
X31594236Y-47172034D01*
X31594233Y-47172035D01*
X31403466Y-47251053D01*
X31231780Y-47365770D01*
X31231774Y-47365775D01*
X31085775Y-47511774D01*
X31085770Y-47511780D01*
X30971053Y-47683466D01*
X30892035Y-47874233D01*
X30892034Y-47874236D01*
X30851750Y-48076752D01*
X19948249Y-48076752D01*
X19907966Y-47874237D01*
X19828947Y-47683467D01*
X19714229Y-47511780D01*
X19714224Y-47511774D01*
X19568225Y-47365775D01*
X19568219Y-47365770D01*
X19396533Y-47251053D01*
X19205766Y-47172035D01*
X19205763Y-47172034D01*
X19003247Y-47131750D01*
X19003244Y-47131750D01*
X18796756Y-47131750D01*
X18796752Y-47131750D01*
X18594236Y-47172034D01*
X18594233Y-47172035D01*
X18403466Y-47251053D01*
X18231780Y-47365770D01*
X18231774Y-47365775D01*
X18085775Y-47511774D01*
X18085770Y-47511780D01*
X17971053Y-47683466D01*
X17892035Y-47874233D01*
X17892034Y-47874236D01*
X17851750Y-48076752D01*
X16734500Y-48076752D01*
X16734500Y-48074973D01*
X16701641Y-47867504D01*
X16636730Y-47667730D01*
X16541367Y-47480569D01*
X16417900Y-47310631D01*
X16417897Y-47310628D01*
X16417895Y-47310625D01*
X16269374Y-47162104D01*
X16269371Y-47162102D01*
X16269369Y-47162100D01*
X16099431Y-47038633D01*
X15912270Y-46943270D01*
X15912269Y-46943269D01*
X15912268Y-46943269D01*
X15712498Y-46878359D01*
X15608761Y-46861929D01*
X15505027Y-46845500D01*
X15294973Y-46845500D01*
X15211985Y-46858643D01*
X15087501Y-46878359D01*
X14887731Y-46943269D01*
X14700565Y-47038635D01*
X14530628Y-47162102D01*
X14530625Y-47162104D01*
X14382104Y-47310625D01*
X14382102Y-47310628D01*
X14258635Y-47480565D01*
X14163269Y-47667731D01*
X14098359Y-47867501D01*
X14065500Y-48074975D01*
X300500Y-48074975D01*
X300500Y-36925055D01*
X18589100Y-36925055D01*
X18589100Y-37074944D01*
X18618341Y-37221946D01*
X18675699Y-37360421D01*
X18746440Y-37466294D01*
X18758971Y-37485047D01*
X18758976Y-37485053D01*
X18864946Y-37591023D01*
X18864952Y-37591028D01*
X18864954Y-37591030D01*
X18989579Y-37674301D01*
X19128054Y-37731659D01*
X19275058Y-37760900D01*
X19275069Y-37760900D01*
X19279954Y-37761381D01*
X19345789Y-37787957D01*
X19356712Y-37797681D01*
X20603795Y-39044764D01*
X20637821Y-39107076D01*
X20640700Y-39133859D01*
X20640700Y-45843631D01*
X20640699Y-45843631D01*
X20678816Y-45985882D01*
X20732751Y-46079300D01*
X20752446Y-46113414D01*
X20752454Y-46113424D01*
X21856575Y-47217546D01*
X21856579Y-47217549D01*
X21856582Y-47217552D01*
X21856583Y-47217553D01*
X21856585Y-47217554D01*
X21984114Y-47291183D01*
X21984116Y-47291183D01*
X21984119Y-47291185D01*
X22126367Y-47329300D01*
X22126369Y-47329300D01*
X24213631Y-47329300D01*
X24213633Y-47329300D01*
X24355882Y-47291184D01*
X24483418Y-47217551D01*
X24587551Y-47113418D01*
X25847551Y-45853418D01*
X25860388Y-45831184D01*
X25921184Y-45725882D01*
X25921185Y-45725876D01*
X25923561Y-45721762D01*
X25974943Y-45672768D01*
X26044657Y-45659331D01*
X26110568Y-45685718D01*
X26143631Y-45729339D01*
X26144687Y-45728730D01*
X26148815Y-45735881D01*
X26148816Y-45735882D01*
X26162968Y-45760395D01*
X26222446Y-45863414D01*
X26222448Y-45863416D01*
X26222449Y-45863418D01*
X27022449Y-46663418D01*
X27126582Y-46767551D01*
X27254118Y-46841184D01*
X27396367Y-46879300D01*
X27396369Y-46879300D01*
X30663631Y-46879300D01*
X30663633Y-46879300D01*
X30805882Y-46841184D01*
X30933418Y-46767551D01*
X31037551Y-46663418D01*
X39067551Y-38633418D01*
X39141184Y-38505882D01*
X39179300Y-38363633D01*
X39179300Y-35888792D01*
X39199302Y-35820671D01*
X39207900Y-35808860D01*
X39211027Y-35805049D01*
X39211030Y-35805046D01*
X39294301Y-35680421D01*
X39351659Y-35541946D01*
X39380900Y-35394942D01*
X39380900Y-35245058D01*
X39351659Y-35098054D01*
X39294301Y-34959579D01*
X39211030Y-34834954D01*
X39211028Y-34834952D01*
X39211023Y-34834946D01*
X39105053Y-34728976D01*
X39105047Y-34728971D01*
X38980421Y-34645699D01*
X38841951Y-34588343D01*
X38841946Y-34588341D01*
X38694944Y-34559100D01*
X38694942Y-34559100D01*
X38545058Y-34559100D01*
X38545055Y-34559100D01*
X38398053Y-34588341D01*
X38398048Y-34588343D01*
X38259578Y-34645699D01*
X38134953Y-34728971D01*
X38131134Y-34732105D01*
X38065784Y-34759854D01*
X38051207Y-34760700D01*
X31976367Y-34760700D01*
X31881534Y-34786110D01*
X31834117Y-34798816D01*
X31770235Y-34835699D01*
X31706585Y-34872446D01*
X31706575Y-34872454D01*
X26330157Y-40248873D01*
X26330151Y-40248879D01*
X26326582Y-40252449D01*
X26222449Y-40356582D01*
X26188683Y-40415065D01*
X26181244Y-40423805D01*
X26160761Y-40437223D01*
X26143037Y-40454124D01*
X26131599Y-40456328D01*
X26121857Y-40462711D01*
X26097367Y-40462925D01*
X26073323Y-40467560D01*
X26062511Y-40463231D01*
X26050863Y-40463334D01*
X26030146Y-40450275D01*
X26007412Y-40441174D01*
X26000655Y-40431685D01*
X25990803Y-40425475D01*
X25980436Y-40403291D01*
X25966230Y-40383342D01*
X25963485Y-40367019D01*
X25960745Y-40361156D01*
X25961525Y-40355366D01*
X25959300Y-40342131D01*
X25959300Y-35990957D01*
X25979302Y-35922836D01*
X25980535Y-35920955D01*
X25983709Y-35916205D01*
X26014301Y-35870421D01*
X26071659Y-35731946D01*
X26100900Y-35584942D01*
X26100900Y-35435058D01*
X26071659Y-35288054D01*
X26014301Y-35149579D01*
X25931030Y-35024954D01*
X25931028Y-35024952D01*
X25931023Y-35024946D01*
X25825053Y-34918976D01*
X25825047Y-34918971D01*
X25700421Y-34835699D01*
X25561951Y-34778343D01*
X25561946Y-34778341D01*
X25414944Y-34749100D01*
X25414942Y-34749100D01*
X25265058Y-34749100D01*
X25265055Y-34749100D01*
X25118053Y-34778341D01*
X25118048Y-34778343D01*
X24979578Y-34835699D01*
X24854952Y-34918971D01*
X24854946Y-34918976D01*
X24748976Y-35024946D01*
X24748971Y-35024952D01*
X24665699Y-35149578D01*
X24608343Y-35288048D01*
X24608341Y-35288053D01*
X24579100Y-35435055D01*
X24579100Y-35435058D01*
X24579100Y-35584942D01*
X24608341Y-35731946D01*
X24665699Y-35870421D01*
X24748970Y-35995046D01*
X24803796Y-36049872D01*
X24837820Y-36112182D01*
X24840700Y-36138966D01*
X24840700Y-41608034D01*
X24820698Y-41676155D01*
X24767042Y-41722648D01*
X24696768Y-41732752D01*
X24644699Y-41712799D01*
X24593214Y-41678398D01*
X24593210Y-41678396D01*
X24415248Y-41604682D01*
X24415243Y-41604680D01*
X24226317Y-41567100D01*
X24033682Y-41567100D01*
X23844756Y-41604680D01*
X23844751Y-41604682D01*
X23666788Y-41678396D01*
X23640303Y-41696093D01*
X23640302Y-41696093D01*
X24189636Y-42245427D01*
X24170128Y-42240200D01*
X24089872Y-42240200D01*
X24012352Y-42260972D01*
X23942848Y-42301099D01*
X23886099Y-42357848D01*
X23845972Y-42427352D01*
X23825200Y-42504872D01*
X23825200Y-42585128D01*
X23830427Y-42604637D01*
X23663681Y-42437891D01*
X23629655Y-42375579D01*
X23629211Y-42373447D01*
X23617621Y-42315178D01*
X23558228Y-42171790D01*
X23472002Y-42042743D01*
X23362257Y-41932998D01*
X23233210Y-41846772D01*
X23111439Y-41796333D01*
X23089825Y-41787380D01*
X23089822Y-41787379D01*
X22937604Y-41757100D01*
X22937601Y-41757100D01*
X22782399Y-41757100D01*
X22782395Y-41757100D01*
X22630177Y-41787379D01*
X22630174Y-41787380D01*
X22486790Y-41846772D01*
X22357744Y-41932997D01*
X22357738Y-41933002D01*
X22304395Y-41986346D01*
X22242083Y-42020372D01*
X22171268Y-42015307D01*
X22114432Y-41972760D01*
X22089621Y-41906240D01*
X22089300Y-41897251D01*
X22089300Y-37738792D01*
X22109302Y-37670671D01*
X22117900Y-37658860D01*
X22121027Y-37655049D01*
X22121030Y-37655046D01*
X22204301Y-37530421D01*
X22261659Y-37391946D01*
X22290900Y-37244942D01*
X22290900Y-37095058D01*
X22261659Y-36948054D01*
X22204301Y-36809579D01*
X22121030Y-36684954D01*
X22121028Y-36684952D01*
X22121023Y-36684946D01*
X22015053Y-36578976D01*
X22015047Y-36578971D01*
X21890421Y-36495699D01*
X21751951Y-36438343D01*
X21751946Y-36438341D01*
X21604944Y-36409100D01*
X21604942Y-36409100D01*
X21455058Y-36409100D01*
X21455055Y-36409100D01*
X21308053Y-36438341D01*
X21308048Y-36438343D01*
X21169578Y-36495699D01*
X21044952Y-36578971D01*
X21044946Y-36578976D01*
X20938976Y-36684946D01*
X20938971Y-36684952D01*
X20855699Y-36809578D01*
X20798343Y-36948048D01*
X20798341Y-36948053D01*
X20769100Y-37095055D01*
X20769100Y-37244944D01*
X20783213Y-37315893D01*
X20776885Y-37386607D01*
X20733331Y-37442675D01*
X20666378Y-37466294D01*
X20597285Y-37449967D01*
X20570539Y-37429570D01*
X20147681Y-37006712D01*
X20113655Y-36944400D01*
X20111381Y-36929954D01*
X20110900Y-36925069D01*
X20110900Y-36925058D01*
X20081659Y-36778054D01*
X20024301Y-36639579D01*
X19941030Y-36514954D01*
X19941028Y-36514952D01*
X19941023Y-36514946D01*
X19835053Y-36408976D01*
X19835047Y-36408971D01*
X19710421Y-36325699D01*
X19571951Y-36268343D01*
X19571946Y-36268341D01*
X19424944Y-36239100D01*
X19424942Y-36239100D01*
X19275058Y-36239100D01*
X19275055Y-36239100D01*
X19128053Y-36268341D01*
X19128048Y-36268343D01*
X18989578Y-36325699D01*
X18864952Y-36408971D01*
X18864946Y-36408976D01*
X18758976Y-36514946D01*
X18758971Y-36514952D01*
X18675699Y-36639578D01*
X18618343Y-36778048D01*
X18618341Y-36778053D01*
X18589100Y-36925055D01*
X300500Y-36925055D01*
X300500Y-31775055D01*
X22839100Y-31775055D01*
X22839100Y-31924944D01*
X22868341Y-32071946D01*
X22868343Y-32071951D01*
X22925699Y-32210421D01*
X23008971Y-32335047D01*
X23008976Y-32335053D01*
X23114946Y-32441023D01*
X23114952Y-32441028D01*
X23114954Y-32441030D01*
X23239579Y-32524301D01*
X23378054Y-32581659D01*
X23525058Y-32610900D01*
X23525059Y-32610900D01*
X23674941Y-32610900D01*
X23674942Y-32610900D01*
X23821946Y-32581659D01*
X23960421Y-32524301D01*
X24085046Y-32441030D01*
X24191030Y-32335046D01*
X24274301Y-32210421D01*
X24331659Y-32071946D01*
X24360900Y-31924942D01*
X24360900Y-31775058D01*
X24331659Y-31628054D01*
X24274301Y-31489579D01*
X24191030Y-31364954D01*
X24191028Y-31364952D01*
X24191023Y-31364946D01*
X24085053Y-31258976D01*
X24085047Y-31258971D01*
X24026791Y-31220046D01*
X23960421Y-31175699D01*
X23821946Y-31118341D01*
X23674944Y-31089100D01*
X23674942Y-31089100D01*
X23525058Y-31089100D01*
X23525055Y-31089100D01*
X23378053Y-31118341D01*
X23378048Y-31118343D01*
X23239578Y-31175699D01*
X23114952Y-31258971D01*
X23114946Y-31258976D01*
X23008976Y-31364946D01*
X23008971Y-31364952D01*
X22925699Y-31489578D01*
X22868343Y-31628048D01*
X22868341Y-31628053D01*
X22839100Y-31775055D01*
X300500Y-31775055D01*
X300500Y-16721402D01*
X4302000Y-16721402D01*
X4302000Y-17366000D01*
X5229297Y-17366000D01*
X5194075Y-17427007D01*
X5160000Y-17554174D01*
X5160000Y-17685826D01*
X5194075Y-17812993D01*
X5229297Y-17874000D01*
X4302000Y-17874000D01*
X4302000Y-18518597D01*
X4308505Y-18579093D01*
X4359555Y-18715964D01*
X4359555Y-18715965D01*
X4447095Y-18832904D01*
X4564034Y-18920444D01*
X4700906Y-18971494D01*
X4761402Y-18977999D01*
X4761415Y-18978000D01*
X5406000Y-18978000D01*
X5406000Y-18050702D01*
X5467007Y-18085925D01*
X5594174Y-18120000D01*
X5725826Y-18120000D01*
X5852993Y-18085925D01*
X5914000Y-18050702D01*
X5914000Y-18978000D01*
X6558585Y-18978000D01*
X6558597Y-18977999D01*
X6619093Y-18971494D01*
X6755964Y-18920444D01*
X6755965Y-18920444D01*
X6872904Y-18832904D01*
X6960444Y-18715965D01*
X7004478Y-18597903D01*
X7047024Y-18541067D01*
X7113544Y-18516256D01*
X7182918Y-18531347D01*
X7211629Y-18552840D01*
X7314990Y-18656201D01*
X7314993Y-18656203D01*
X7314996Y-18656206D01*
X7487991Y-18781894D01*
X7678517Y-18878972D01*
X7881878Y-18945047D01*
X7881879Y-18945047D01*
X7881884Y-18945049D01*
X8093084Y-18978500D01*
X8093087Y-18978500D01*
X8306913Y-18978500D01*
X8306916Y-18978500D01*
X8518116Y-18945049D01*
X8721483Y-18878972D01*
X8912009Y-18781894D01*
X9085004Y-18656206D01*
X9236206Y-18505004D01*
X9361894Y-18332009D01*
X9458972Y-18141483D01*
X9525049Y-17938116D01*
X9558500Y-17726916D01*
X9558500Y-17513084D01*
X9525049Y-17301884D01*
X9495945Y-17212312D01*
X9493918Y-17141348D01*
X9526681Y-17084287D01*
X9735913Y-16875055D01*
X12319100Y-16875055D01*
X12319100Y-17024944D01*
X12348341Y-17171946D01*
X12348343Y-17171951D01*
X12373194Y-17231946D01*
X12405699Y-17310421D01*
X12445789Y-17370421D01*
X12488971Y-17435047D01*
X12488976Y-17435053D01*
X12594946Y-17541023D01*
X12594952Y-17541028D01*
X12594954Y-17541030D01*
X12719579Y-17624301D01*
X12858054Y-17681659D01*
X13005058Y-17710900D01*
X13005059Y-17710900D01*
X13154941Y-17710900D01*
X13154942Y-17710900D01*
X13301946Y-17681659D01*
X13440421Y-17624301D01*
X13565046Y-17541030D01*
X13671030Y-17435046D01*
X13754301Y-17310421D01*
X13811659Y-17171946D01*
X13840900Y-17024942D01*
X13840900Y-16935055D01*
X16439100Y-16935055D01*
X16439100Y-17084944D01*
X16468341Y-17231946D01*
X16468343Y-17231951D01*
X16525699Y-17370421D01*
X16608971Y-17495047D01*
X16608976Y-17495053D01*
X16714946Y-17601023D01*
X16714952Y-17601028D01*
X16714954Y-17601030D01*
X16839579Y-17684301D01*
X16978054Y-17741659D01*
X17125058Y-17770900D01*
X17125059Y-17770900D01*
X17274941Y-17770900D01*
X17274942Y-17770900D01*
X17421946Y-17741659D01*
X17560421Y-17684301D01*
X17685046Y-17601030D01*
X17791030Y-17495046D01*
X17874301Y-17370421D01*
X17931659Y-17231946D01*
X17960900Y-17084942D01*
X17960900Y-16935058D01*
X17931659Y-16788054D01*
X17874301Y-16649579D01*
X17791030Y-16524954D01*
X17791028Y-16524952D01*
X17791023Y-16524946D01*
X17685053Y-16418976D01*
X17685047Y-16418971D01*
X17667273Y-16407095D01*
X17560421Y-16335699D01*
X17421946Y-16278341D01*
X17408664Y-16275699D01*
X17274944Y-16249100D01*
X17274942Y-16249100D01*
X17125058Y-16249100D01*
X17125055Y-16249100D01*
X16978053Y-16278341D01*
X16978048Y-16278343D01*
X16839578Y-16335699D01*
X16714952Y-16418971D01*
X16714946Y-16418976D01*
X16608976Y-16524946D01*
X16608971Y-16524952D01*
X16525699Y-16649578D01*
X16468343Y-16788048D01*
X16468341Y-16788053D01*
X16439100Y-16935055D01*
X13840900Y-16935055D01*
X13840900Y-16875058D01*
X13811659Y-16728054D01*
X13754301Y-16589579D01*
X13671030Y-16464954D01*
X13671028Y-16464952D01*
X13671023Y-16464946D01*
X13565053Y-16358976D01*
X13565047Y-16358971D01*
X13529258Y-16335058D01*
X13440421Y-16275699D01*
X13301946Y-16218341D01*
X13232886Y-16204604D01*
X13166003Y-16191300D01*
X13166002Y-16191300D01*
X13154942Y-16189100D01*
X13005058Y-16189100D01*
X12993998Y-16191300D01*
X12993997Y-16191300D01*
X12858053Y-16218341D01*
X12858048Y-16218343D01*
X12719578Y-16275699D01*
X12594952Y-16358971D01*
X12594946Y-16358976D01*
X12488976Y-16464946D01*
X12488971Y-16464952D01*
X12405699Y-16589578D01*
X12348343Y-16728048D01*
X12348341Y-16728053D01*
X12319100Y-16875055D01*
X9735913Y-16875055D01*
X10634767Y-15976202D01*
X10697077Y-15942179D01*
X10723860Y-15939300D01*
X21456956Y-15939300D01*
X21525077Y-15959302D01*
X21571570Y-16012958D01*
X21581674Y-16083232D01*
X21552180Y-16147812D01*
X21546052Y-16154395D01*
X21256582Y-16443866D01*
X21256581Y-16443866D01*
X21152454Y-16547992D01*
X21152446Y-16548002D01*
X21078816Y-16675534D01*
X21066651Y-16720935D01*
X21040880Y-16817115D01*
X21040700Y-16817785D01*
X21040700Y-18571207D01*
X21020698Y-18639328D01*
X21012105Y-18651134D01*
X21008971Y-18654953D01*
X21008970Y-18654954D01*
X20990935Y-18681946D01*
X20925699Y-18779578D01*
X20868343Y-18918048D01*
X20868341Y-18918053D01*
X20839100Y-19065055D01*
X20839100Y-19214944D01*
X20868341Y-19361946D01*
X20868343Y-19361951D01*
X20925699Y-19500421D01*
X21008971Y-19625047D01*
X21008976Y-19625053D01*
X21114946Y-19731023D01*
X21114952Y-19731028D01*
X21114954Y-19731030D01*
X21239579Y-19814301D01*
X21378054Y-19871659D01*
X21525058Y-19900900D01*
X21525059Y-19900900D01*
X21674941Y-19900900D01*
X21674942Y-19900900D01*
X21720925Y-19891753D01*
X21791638Y-19898079D01*
X21847706Y-19941632D01*
X21871327Y-20008584D01*
X21855002Y-20077678D01*
X21834605Y-20104425D01*
X21814731Y-20124300D01*
X21755235Y-20183795D01*
X21692926Y-20217820D01*
X21666141Y-20220700D01*
X20558793Y-20220700D01*
X20490672Y-20200698D01*
X20478866Y-20192105D01*
X20475051Y-20188975D01*
X20475046Y-20188970D01*
X20350421Y-20105699D01*
X20228136Y-20055047D01*
X20211951Y-20048343D01*
X20211946Y-20048341D01*
X20064944Y-20019100D01*
X20064942Y-20019100D01*
X19915058Y-20019100D01*
X19915055Y-20019100D01*
X19768053Y-20048341D01*
X19768048Y-20048343D01*
X19629578Y-20105699D01*
X19504952Y-20188971D01*
X19504946Y-20188976D01*
X19398976Y-20294946D01*
X19398971Y-20294952D01*
X19315699Y-20419578D01*
X19258343Y-20558048D01*
X19258341Y-20558053D01*
X19229100Y-20705055D01*
X19229100Y-20854944D01*
X19258341Y-21001946D01*
X19258343Y-21001951D01*
X19315699Y-21140421D01*
X19398971Y-21265047D01*
X19398976Y-21265053D01*
X19504946Y-21371023D01*
X19504952Y-21371028D01*
X19504954Y-21371030D01*
X19629579Y-21454301D01*
X19768054Y-21511659D01*
X19915058Y-21540900D01*
X19915059Y-21540900D01*
X20064941Y-21540900D01*
X20064942Y-21540900D01*
X20211946Y-21511659D01*
X20350421Y-21454301D01*
X20475046Y-21371030D01*
X20475057Y-21371018D01*
X20478866Y-21367895D01*
X20544216Y-21340146D01*
X20558793Y-21339300D01*
X22023631Y-21339300D01*
X22023633Y-21339300D01*
X22165882Y-21301184D01*
X22293418Y-21227551D01*
X22397551Y-21123418D01*
X22457076Y-21063893D01*
X22457078Y-21063889D01*
X24015405Y-19505564D01*
X24077716Y-19471540D01*
X24148532Y-19476605D01*
X24205367Y-19519152D01*
X24228078Y-19570079D01*
X24248341Y-19671946D01*
X24248343Y-19671951D01*
X24305699Y-19810421D01*
X24388971Y-19935047D01*
X24388976Y-19935053D01*
X24494946Y-20041023D01*
X24494952Y-20041028D01*
X24494954Y-20041030D01*
X24619579Y-20124301D01*
X24758054Y-20181659D01*
X24905058Y-20210900D01*
X24905069Y-20210900D01*
X24909954Y-20211381D01*
X24933350Y-20220825D01*
X24958002Y-20226188D01*
X24971304Y-20236146D01*
X24975789Y-20237957D01*
X24986712Y-20247681D01*
X25093795Y-20354764D01*
X25127821Y-20417076D01*
X25130700Y-20443859D01*
X25130700Y-20691207D01*
X25110698Y-20759328D01*
X25102105Y-20771134D01*
X25098971Y-20774953D01*
X25015699Y-20899578D01*
X24958343Y-21038048D01*
X24958341Y-21038053D01*
X24929100Y-21185055D01*
X24929100Y-21334944D01*
X24958341Y-21481946D01*
X24958343Y-21481951D01*
X25015699Y-21620421D01*
X25036919Y-21652179D01*
X25058134Y-21719932D01*
X25039351Y-21788399D01*
X24986533Y-21835842D01*
X24916451Y-21847199D01*
X24862153Y-21826946D01*
X24800425Y-21785701D01*
X24800421Y-21785699D01*
X24661951Y-21728343D01*
X24661946Y-21728341D01*
X24514944Y-21699100D01*
X24514942Y-21699100D01*
X24365058Y-21699100D01*
X24365055Y-21699100D01*
X24218053Y-21728341D01*
X24218048Y-21728343D01*
X24079578Y-21785699D01*
X23954952Y-21868971D01*
X23954946Y-21868976D01*
X23848976Y-21974946D01*
X23848971Y-21974952D01*
X23765699Y-22099578D01*
X23708343Y-22238048D01*
X23708341Y-22238053D01*
X23679100Y-22385055D01*
X23679100Y-22385058D01*
X23679100Y-22534942D01*
X23708341Y-22681946D01*
X23765699Y-22820421D01*
X23842288Y-22935046D01*
X23848971Y-22945047D01*
X23848976Y-22945053D01*
X23954946Y-23051023D01*
X23954952Y-23051028D01*
X23954954Y-23051030D01*
X24079579Y-23134301D01*
X24218054Y-23191659D01*
X24365058Y-23220900D01*
X24365059Y-23220900D01*
X24514941Y-23220900D01*
X24514942Y-23220900D01*
X24661946Y-23191659D01*
X24800421Y-23134301D01*
X24925046Y-23051030D01*
X25031030Y-22945046D01*
X25114301Y-22820421D01*
X25171659Y-22681946D01*
X25200900Y-22534942D01*
X25200900Y-22385058D01*
X25171659Y-22238054D01*
X25114301Y-22099579D01*
X25093079Y-22067818D01*
X25071865Y-22000067D01*
X25090648Y-21931600D01*
X25143465Y-21884157D01*
X25213547Y-21872800D01*
X25267845Y-21893052D01*
X25329579Y-21934301D01*
X25468054Y-21991659D01*
X25615058Y-22020900D01*
X25615059Y-22020900D01*
X25664700Y-22020900D01*
X25732821Y-22040902D01*
X25779314Y-22094558D01*
X25790700Y-22146900D01*
X25790700Y-24822973D01*
X25790699Y-24822973D01*
X25810672Y-24897510D01*
X25828816Y-24965224D01*
X25874745Y-25044775D01*
X25902449Y-25092760D01*
X25979971Y-25170282D01*
X25983884Y-25175048D01*
X25995450Y-25202267D01*
X26009620Y-25228217D01*
X26010684Y-25238118D01*
X26011650Y-25240390D01*
X26011207Y-25242978D01*
X26012500Y-25255001D01*
X26012500Y-30278246D01*
X25992498Y-30346367D01*
X25938842Y-30392860D01*
X25911083Y-30401825D01*
X25875289Y-30408945D01*
X25828054Y-30418341D01*
X25828052Y-30418342D01*
X25828048Y-30418343D01*
X25689578Y-30475699D01*
X25564952Y-30558971D01*
X25564946Y-30558976D01*
X25458976Y-30664946D01*
X25458971Y-30664952D01*
X25375699Y-30789578D01*
X25318343Y-30928048D01*
X25318341Y-30928053D01*
X25289100Y-31075055D01*
X25289100Y-31224944D01*
X25316949Y-31364946D01*
X25318341Y-31371946D01*
X25375699Y-31510421D01*
X25454297Y-31628053D01*
X25458971Y-31635047D01*
X25458976Y-31635053D01*
X25564946Y-31741023D01*
X25564952Y-31741028D01*
X25564954Y-31741030D01*
X25689579Y-31824301D01*
X25828054Y-31881659D01*
X25975058Y-31910900D01*
X25975059Y-31910900D01*
X26124941Y-31910900D01*
X26124942Y-31910900D01*
X26271946Y-31881659D01*
X26410421Y-31824301D01*
X26535046Y-31741030D01*
X26641030Y-31635046D01*
X26724301Y-31510421D01*
X26781659Y-31371946D01*
X26810900Y-31224942D01*
X26810900Y-31224929D01*
X26811381Y-31220046D01*
X26837956Y-31154211D01*
X26847664Y-31143304D01*
X27019351Y-30971618D01*
X27092985Y-30844081D01*
X27131100Y-30701833D01*
X27131100Y-30554567D01*
X27131100Y-26593775D01*
X27151102Y-26525654D01*
X27204758Y-26479161D01*
X27275032Y-26469057D01*
X27316498Y-26482654D01*
X27319575Y-26484298D01*
X27319579Y-26484301D01*
X27458054Y-26541659D01*
X27605058Y-26570900D01*
X27605059Y-26570900D01*
X27754941Y-26570900D01*
X27754942Y-26570900D01*
X27901946Y-26541659D01*
X28040421Y-26484301D01*
X28165046Y-26401030D01*
X28271030Y-26295046D01*
X28354301Y-26170421D01*
X28411659Y-26031946D01*
X28440900Y-25884942D01*
X28440900Y-25735058D01*
X28411659Y-25588054D01*
X28354301Y-25449579D01*
X28271030Y-25324954D01*
X28271028Y-25324952D01*
X28271023Y-25324946D01*
X28165053Y-25218976D01*
X28165047Y-25218971D01*
X28064543Y-25151817D01*
X28040421Y-25135699D01*
X27901946Y-25078341D01*
X27754944Y-25049100D01*
X27754942Y-25049100D01*
X27605058Y-25049100D01*
X27605055Y-25049100D01*
X27458053Y-25078341D01*
X27458048Y-25078343D01*
X27319570Y-25135702D01*
X27316488Y-25137350D01*
X27314689Y-25137724D01*
X27313860Y-25138068D01*
X27313794Y-25137910D01*
X27246981Y-25151817D01*
X27180687Y-25126409D01*
X27138653Y-25069193D01*
X27131100Y-25026224D01*
X27131100Y-24897510D01*
X27131100Y-24897509D01*
X27092985Y-24755261D01*
X27092983Y-24755258D01*
X27092983Y-24755256D01*
X27019354Y-24627727D01*
X27019346Y-24627717D01*
X26946205Y-24554576D01*
X26912179Y-24492264D01*
X26909300Y-24465481D01*
X26909300Y-22375055D01*
X27519100Y-22375055D01*
X27519100Y-22524944D01*
X27548341Y-22671946D01*
X27548343Y-22671951D01*
X27605699Y-22810421D01*
X27688971Y-22935047D01*
X27688976Y-22935053D01*
X27794946Y-23041023D01*
X27794952Y-23041028D01*
X27794954Y-23041030D01*
X27919579Y-23124301D01*
X28058054Y-23181659D01*
X28205058Y-23210900D01*
X28205059Y-23210900D01*
X28354941Y-23210900D01*
X28354942Y-23210900D01*
X28501946Y-23181659D01*
X28640421Y-23124301D01*
X28765046Y-23041030D01*
X28871030Y-22935046D01*
X28954301Y-22810421D01*
X29011659Y-22671946D01*
X29040900Y-22524942D01*
X29040900Y-22375058D01*
X29011659Y-22228054D01*
X28954301Y-22089579D01*
X28871030Y-21964954D01*
X28871028Y-21964952D01*
X28871023Y-21964946D01*
X28765053Y-21858976D01*
X28765047Y-21858971D01*
X28753162Y-21851030D01*
X28640421Y-21775699D01*
X28501946Y-21718341D01*
X28354944Y-21689100D01*
X28354942Y-21689100D01*
X28205058Y-21689100D01*
X28205055Y-21689100D01*
X28058053Y-21718341D01*
X28058048Y-21718343D01*
X27919578Y-21775699D01*
X27794952Y-21858971D01*
X27794946Y-21858976D01*
X27688976Y-21964946D01*
X27688971Y-21964952D01*
X27605699Y-22089578D01*
X27548343Y-22228048D01*
X27548341Y-22228053D01*
X27519100Y-22375055D01*
X26909300Y-22375055D01*
X26909300Y-21225055D01*
X32139100Y-21225055D01*
X32139100Y-21374944D01*
X32168341Y-21521946D01*
X32168343Y-21521951D01*
X32225699Y-21660421D01*
X32308971Y-21785047D01*
X32308976Y-21785053D01*
X32414946Y-21891023D01*
X32414952Y-21891028D01*
X32414954Y-21891030D01*
X32539579Y-21974301D01*
X32678054Y-22031659D01*
X32825058Y-22060900D01*
X32825059Y-22060900D01*
X32974941Y-22060900D01*
X32974942Y-22060900D01*
X33121946Y-22031659D01*
X33260421Y-21974301D01*
X33385046Y-21891030D01*
X33491030Y-21785046D01*
X33574301Y-21660421D01*
X33631659Y-21521946D01*
X33660900Y-21374942D01*
X33660900Y-21225058D01*
X33631659Y-21078054D01*
X33574301Y-20939579D01*
X33491030Y-20814954D01*
X33491028Y-20814952D01*
X33491023Y-20814946D01*
X33385053Y-20708976D01*
X33385047Y-20708971D01*
X33379186Y-20705055D01*
X33260421Y-20625699D01*
X33121946Y-20568341D01*
X32974944Y-20539100D01*
X32974942Y-20539100D01*
X32825058Y-20539100D01*
X32825055Y-20539100D01*
X32678053Y-20568341D01*
X32678048Y-20568343D01*
X32539578Y-20625699D01*
X32414952Y-20708971D01*
X32414946Y-20708976D01*
X32308976Y-20814946D01*
X32308971Y-20814952D01*
X32225699Y-20939578D01*
X32168343Y-21078048D01*
X32168341Y-21078053D01*
X32139100Y-21225055D01*
X26909300Y-21225055D01*
X26909300Y-20399620D01*
X26929302Y-20331499D01*
X26982958Y-20285006D01*
X27053232Y-20274902D01*
X27083519Y-20283212D01*
X27128043Y-20301655D01*
X27128047Y-20301656D01*
X27128054Y-20301659D01*
X27275058Y-20330900D01*
X27275059Y-20330900D01*
X27424941Y-20330900D01*
X27424942Y-20330900D01*
X27571946Y-20301659D01*
X27710421Y-20244301D01*
X27835046Y-20161030D01*
X27941030Y-20055046D01*
X28024301Y-19930421D01*
X28081659Y-19791946D01*
X28110900Y-19644942D01*
X28110900Y-19495058D01*
X28081659Y-19348054D01*
X28024301Y-19209579D01*
X27941030Y-19084954D01*
X27941028Y-19084952D01*
X27941023Y-19084946D01*
X27835053Y-18978976D01*
X27835047Y-18978971D01*
X27834342Y-18978500D01*
X27710421Y-18895699D01*
X27670038Y-18878972D01*
X27571951Y-18838343D01*
X27571946Y-18838341D01*
X27424936Y-18809098D01*
X27420035Y-18808616D01*
X27354203Y-18782034D01*
X27343289Y-18772318D01*
X27118939Y-18547968D01*
X27118934Y-18547964D01*
X27036025Y-18465055D01*
X29529100Y-18465055D01*
X29529100Y-18614944D01*
X29549195Y-18715965D01*
X29558341Y-18761946D01*
X29615699Y-18900421D01*
X29668187Y-18978976D01*
X29698971Y-19025047D01*
X29698976Y-19025053D01*
X29804946Y-19131023D01*
X29804952Y-19131028D01*
X29804954Y-19131030D01*
X29929579Y-19214301D01*
X30068054Y-19271659D01*
X30215058Y-19300900D01*
X30215059Y-19300900D01*
X30364941Y-19300900D01*
X30364942Y-19300900D01*
X30511946Y-19271659D01*
X30650421Y-19214301D01*
X30775046Y-19131030D01*
X30881030Y-19025046D01*
X30964301Y-18900421D01*
X31021659Y-18761946D01*
X31050900Y-18614942D01*
X31050900Y-18465058D01*
X31034986Y-18385055D01*
X39369100Y-18385055D01*
X39369100Y-18534944D01*
X39398341Y-18681946D01*
X39398343Y-18681951D01*
X39455699Y-18820421D01*
X39538971Y-18945047D01*
X39538976Y-18945053D01*
X39644946Y-19051023D01*
X39644952Y-19051028D01*
X39644954Y-19051030D01*
X39769579Y-19134301D01*
X39908054Y-19191659D01*
X40055058Y-19220900D01*
X40055059Y-19220900D01*
X40204941Y-19220900D01*
X40204942Y-19220900D01*
X40351946Y-19191659D01*
X40490421Y-19134301D01*
X40615046Y-19051030D01*
X40721030Y-18945046D01*
X40804301Y-18820421D01*
X40861659Y-18681946D01*
X40890900Y-18534942D01*
X40890900Y-18385058D01*
X40861659Y-18238054D01*
X40804301Y-18099579D01*
X40721030Y-17974954D01*
X40721028Y-17974952D01*
X40721023Y-17974946D01*
X40615053Y-17868976D01*
X40615047Y-17868971D01*
X40610150Y-17865699D01*
X40490421Y-17785699D01*
X40384096Y-17741658D01*
X40351951Y-17728343D01*
X40351946Y-17728341D01*
X40204944Y-17699100D01*
X40204942Y-17699100D01*
X40055058Y-17699100D01*
X40055055Y-17699100D01*
X39908053Y-17728341D01*
X39908048Y-17728343D01*
X39769578Y-17785699D01*
X39644952Y-17868971D01*
X39644946Y-17868976D01*
X39538976Y-17974946D01*
X39538971Y-17974952D01*
X39455699Y-18099578D01*
X39398343Y-18238048D01*
X39398341Y-18238053D01*
X39369100Y-18385055D01*
X31034986Y-18385055D01*
X31021659Y-18318054D01*
X30964301Y-18179579D01*
X30881030Y-18054954D01*
X30881028Y-18054952D01*
X30881023Y-18054946D01*
X30775053Y-17948976D01*
X30775047Y-17948971D01*
X30758801Y-17938116D01*
X30650421Y-17865699D01*
X30511946Y-17808341D01*
X30495381Y-17805046D01*
X30364944Y-17779100D01*
X30364942Y-17779100D01*
X30215058Y-17779100D01*
X30215055Y-17779100D01*
X30068053Y-17808341D01*
X30068048Y-17808343D01*
X29929578Y-17865699D01*
X29804952Y-17948971D01*
X29804946Y-17948976D01*
X29698976Y-18054946D01*
X29698971Y-18054952D01*
X29615699Y-18179578D01*
X29558343Y-18318048D01*
X29558341Y-18318053D01*
X29529100Y-18465055D01*
X27036025Y-18465055D01*
X26873420Y-18302451D01*
X26873414Y-18302446D01*
X26804884Y-18262881D01*
X26745882Y-18228816D01*
X26745878Y-18228815D01*
X26603633Y-18190700D01*
X24053633Y-18190700D01*
X23906367Y-18190700D01*
X23819307Y-18214027D01*
X23764114Y-18228816D01*
X23636585Y-18302445D01*
X23636575Y-18302453D01*
X22564427Y-19374602D01*
X22502115Y-19408628D01*
X22431300Y-19403563D01*
X22374464Y-19361016D01*
X22349653Y-19294496D01*
X22351752Y-19260928D01*
X22360900Y-19214942D01*
X22360900Y-19065058D01*
X22331659Y-18918054D01*
X22274301Y-18779579D01*
X22191030Y-18654954D01*
X22191023Y-18654947D01*
X22187895Y-18651134D01*
X22160146Y-18585784D01*
X22159300Y-18571207D01*
X22159300Y-17245055D01*
X36229100Y-17245055D01*
X36229100Y-17394944D01*
X36258157Y-17541023D01*
X36258341Y-17541946D01*
X36315699Y-17680421D01*
X36373714Y-17767248D01*
X36398971Y-17805047D01*
X36398976Y-17805053D01*
X36504946Y-17911023D01*
X36504952Y-17911028D01*
X36504954Y-17911030D01*
X36629579Y-17994301D01*
X36768054Y-18051659D01*
X36915058Y-18080900D01*
X36915059Y-18080900D01*
X37064941Y-18080900D01*
X37064942Y-18080900D01*
X37211946Y-18051659D01*
X37350421Y-17994301D01*
X37475046Y-17911030D01*
X37581030Y-17805046D01*
X37664301Y-17680421D01*
X37721659Y-17541946D01*
X37750900Y-17394942D01*
X37750900Y-17245058D01*
X37721659Y-17098054D01*
X37664301Y-16959579D01*
X37581030Y-16834954D01*
X37581028Y-16834952D01*
X37581023Y-16834946D01*
X37475053Y-16728976D01*
X37475047Y-16728971D01*
X37473673Y-16728053D01*
X37350421Y-16645699D01*
X37261894Y-16609030D01*
X37211951Y-16588343D01*
X37211946Y-16588341D01*
X37064944Y-16559100D01*
X37064942Y-16559100D01*
X36915058Y-16559100D01*
X36915055Y-16559100D01*
X36768053Y-16588341D01*
X36768048Y-16588343D01*
X36629578Y-16645699D01*
X36504952Y-16728971D01*
X36504946Y-16728976D01*
X36398976Y-16834946D01*
X36398971Y-16834952D01*
X36315699Y-16959578D01*
X36258343Y-17098048D01*
X36258341Y-17098053D01*
X36229100Y-17245055D01*
X22159300Y-17245055D01*
X22159300Y-17175277D01*
X22179302Y-17107156D01*
X22196205Y-17086182D01*
X22527426Y-16754961D01*
X22589738Y-16720935D01*
X22604183Y-16718662D01*
X22609077Y-16718180D01*
X22609079Y-16718180D01*
X22756083Y-16688939D01*
X22894558Y-16631581D01*
X23019183Y-16548310D01*
X23125167Y-16442326D01*
X23208438Y-16317701D01*
X23265796Y-16179226D01*
X23295037Y-16032222D01*
X23295037Y-15941801D01*
X23315039Y-15873680D01*
X23317734Y-15869977D01*
X23321026Y-15865049D01*
X23321030Y-15865046D01*
X23404301Y-15740421D01*
X23461659Y-15601946D01*
X23490900Y-15454942D01*
X23490900Y-15305058D01*
X23461659Y-15158054D01*
X23404301Y-15019579D01*
X23321030Y-14894954D01*
X23321028Y-14894952D01*
X23321023Y-14894946D01*
X23215053Y-14788976D01*
X23215047Y-14788971D01*
X23170874Y-14759456D01*
X23090421Y-14705699D01*
X22951946Y-14648341D01*
X22804944Y-14619100D01*
X22804942Y-14619100D01*
X22670442Y-14619100D01*
X22602321Y-14599098D01*
X22555828Y-14545442D01*
X22545724Y-14475168D01*
X22575218Y-14410588D01*
X22622224Y-14376691D01*
X22700421Y-14344301D01*
X22825046Y-14261030D01*
X22931030Y-14155046D01*
X23014301Y-14030421D01*
X23071659Y-13891946D01*
X23100900Y-13744942D01*
X23100900Y-13595058D01*
X23071659Y-13448054D01*
X23014301Y-13309579D01*
X22937943Y-13195301D01*
X22934858Y-13185447D01*
X22928095Y-13177642D01*
X22924427Y-13152135D01*
X22916729Y-13127549D01*
X22919460Y-13117590D01*
X22917991Y-13107368D01*
X22928695Y-13083929D01*
X22935512Y-13059082D01*
X22943195Y-13052180D01*
X22947485Y-13042788D01*
X22969160Y-13028858D01*
X22988330Y-13011639D01*
X23000113Y-13008965D01*
X23007211Y-13004404D01*
X23042709Y-12999300D01*
X23200482Y-12999300D01*
X23268603Y-13019302D01*
X23289577Y-13036204D01*
X24044523Y-13791151D01*
X24108290Y-13827966D01*
X24108292Y-13827968D01*
X24172054Y-13864781D01*
X24172057Y-13864782D01*
X24172060Y-13864784D01*
X24314309Y-13902900D01*
X26039741Y-13902900D01*
X26107862Y-13922902D01*
X26128836Y-13939805D01*
X28592318Y-16403287D01*
X28626344Y-16465599D01*
X28628617Y-16480035D01*
X28629100Y-16484945D01*
X28658341Y-16631946D01*
X28658343Y-16631951D01*
X28698530Y-16728971D01*
X28715699Y-16770421D01*
X28798472Y-16894301D01*
X28798971Y-16895047D01*
X28798976Y-16895053D01*
X28904946Y-17001023D01*
X28904952Y-17001028D01*
X28904954Y-17001030D01*
X29029579Y-17084301D01*
X29168054Y-17141659D01*
X29315058Y-17170900D01*
X29315059Y-17170900D01*
X29464941Y-17170900D01*
X29464942Y-17170900D01*
X29611946Y-17141659D01*
X29750421Y-17084301D01*
X29875046Y-17001030D01*
X29981030Y-16895046D01*
X30064301Y-16770421D01*
X30121659Y-16631946D01*
X30150900Y-16484942D01*
X30150900Y-16335058D01*
X30133802Y-16249100D01*
X30130464Y-16232319D01*
X30133243Y-16201263D01*
X30133800Y-16170086D01*
X30136546Y-16164344D01*
X30136792Y-16161605D01*
X30145449Y-16145055D01*
X33259100Y-16145055D01*
X33259100Y-16294944D01*
X33288341Y-16441946D01*
X33288343Y-16441951D01*
X33298011Y-16465292D01*
X33345699Y-16580421D01*
X33391908Y-16649579D01*
X33428971Y-16705047D01*
X33428976Y-16705053D01*
X33534946Y-16811023D01*
X33534952Y-16811028D01*
X33534954Y-16811030D01*
X33659579Y-16894301D01*
X33798054Y-16951659D01*
X33945058Y-16980900D01*
X33945059Y-16980900D01*
X34094941Y-16980900D01*
X34094942Y-16980900D01*
X34241946Y-16951659D01*
X34380421Y-16894301D01*
X34505046Y-16811030D01*
X34611030Y-16705046D01*
X34694301Y-16580421D01*
X34751659Y-16441946D01*
X34780900Y-16294942D01*
X34780900Y-16145058D01*
X34751659Y-15998054D01*
X34694301Y-15859579D01*
X34680530Y-15838970D01*
X34659316Y-15771221D01*
X34678098Y-15702754D01*
X34696197Y-15679878D01*
X34771030Y-15605046D01*
X34854301Y-15480421D01*
X34911659Y-15341946D01*
X34940900Y-15194942D01*
X34940900Y-15045058D01*
X34911659Y-14898054D01*
X34854301Y-14759579D01*
X34771030Y-14634954D01*
X34771028Y-14634952D01*
X34771023Y-14634946D01*
X34665053Y-14528976D01*
X34665047Y-14528971D01*
X34628510Y-14504558D01*
X34540421Y-14445699D01*
X34434096Y-14401658D01*
X34401951Y-14388343D01*
X34401946Y-14388341D01*
X34254944Y-14359100D01*
X34254942Y-14359100D01*
X34105058Y-14359100D01*
X34105055Y-14359100D01*
X33958053Y-14388341D01*
X33958048Y-14388343D01*
X33819578Y-14445699D01*
X33694952Y-14528971D01*
X33694946Y-14528976D01*
X33588976Y-14634946D01*
X33588971Y-14634952D01*
X33505699Y-14759578D01*
X33448343Y-14898048D01*
X33448341Y-14898053D01*
X33419100Y-15045055D01*
X33419100Y-15194944D01*
X33448341Y-15341947D01*
X33448342Y-15341949D01*
X33451108Y-15348626D01*
X33460700Y-15396847D01*
X33460700Y-15651207D01*
X33440698Y-15719328D01*
X33432105Y-15731134D01*
X33428971Y-15734953D01*
X33428970Y-15734954D01*
X33415616Y-15754940D01*
X33345699Y-15859578D01*
X33288343Y-15998048D01*
X33288341Y-15998053D01*
X33259100Y-16145055D01*
X30145449Y-16145055D01*
X30149278Y-16137735D01*
X30174775Y-16099577D01*
X30214301Y-16040421D01*
X30271659Y-15901946D01*
X30300900Y-15754942D01*
X30300900Y-15605058D01*
X30271659Y-15458054D01*
X30214301Y-15319579D01*
X30131030Y-15194954D01*
X30131028Y-15194952D01*
X30131023Y-15194946D01*
X30025053Y-15088976D01*
X30025047Y-15088971D01*
X29921192Y-15019578D01*
X29900421Y-15005699D01*
X29761946Y-14948341D01*
X29614944Y-14919100D01*
X29614942Y-14919100D01*
X29465058Y-14919100D01*
X29465055Y-14919100D01*
X29318053Y-14948341D01*
X29318048Y-14948343D01*
X29179580Y-15005698D01*
X29054953Y-15088970D01*
X29054945Y-15088976D01*
X29046533Y-15097388D01*
X28984219Y-15131409D01*
X28913403Y-15126338D01*
X28868350Y-15097381D01*
X27135863Y-13364893D01*
X27135863Y-13364894D01*
X26667018Y-12896049D01*
X26652299Y-12887551D01*
X26539482Y-12822416D01*
X26397233Y-12784300D01*
X26397231Y-12784300D01*
X24671803Y-12784300D01*
X24603682Y-12764298D01*
X24582708Y-12747396D01*
X23827762Y-11992451D01*
X23827760Y-11992449D01*
X23827757Y-11992447D01*
X23827753Y-11992444D01*
X23779996Y-11964872D01*
X23779995Y-11964872D01*
X23700224Y-11918816D01*
X23651271Y-11905699D01*
X23557975Y-11880700D01*
X23557973Y-11880700D01*
X15518388Y-11880700D01*
X15450267Y-11860698D01*
X15403774Y-11807042D01*
X15393670Y-11736768D01*
X15413623Y-11684698D01*
X15421490Y-11672924D01*
X15435810Y-11651493D01*
X15512436Y-11466502D01*
X15551500Y-11270116D01*
X15551500Y-11069884D01*
X15512436Y-10873498D01*
X15435810Y-10688507D01*
X15380012Y-10604999D01*
X15358798Y-10537250D01*
X15377581Y-10468783D01*
X15379993Y-10465029D01*
X15435810Y-10381493D01*
X15512436Y-10196502D01*
X15551500Y-10000116D01*
X15551500Y-9799884D01*
X15512436Y-9603498D01*
X15435810Y-9418507D01*
X15380012Y-9334999D01*
X15358798Y-9267250D01*
X15377581Y-9198783D01*
X15379993Y-9195029D01*
X15435810Y-9111493D01*
X15512436Y-8926502D01*
X15551500Y-8730116D01*
X15551500Y-8529884D01*
X15512436Y-8333498D01*
X15435810Y-8148507D01*
X15380012Y-8064999D01*
X15358798Y-7997250D01*
X15377581Y-7928783D01*
X15379993Y-7925029D01*
X15435810Y-7841493D01*
X15512436Y-7656502D01*
X15551500Y-7460116D01*
X15551500Y-7259884D01*
X15512436Y-7063498D01*
X15435810Y-6878507D01*
X15324567Y-6712019D01*
X15324565Y-6712017D01*
X15324560Y-6712011D01*
X15182988Y-6570439D01*
X15182982Y-6570434D01*
X15169999Y-6561759D01*
X15016493Y-6459190D01*
X14899839Y-6410870D01*
X14831505Y-6382565D01*
X14831502Y-6382564D01*
X14635119Y-6343500D01*
X14635116Y-6343500D01*
X14434884Y-6343500D01*
X14434880Y-6343500D01*
X14238497Y-6382564D01*
X14238494Y-6382565D01*
X14053508Y-6459189D01*
X13970001Y-6514986D01*
X13902248Y-6536200D01*
X13833781Y-6517416D01*
X13829999Y-6514986D01*
X13788772Y-6487440D01*
X13746493Y-6459190D01*
X13739299Y-6456210D01*
X13561505Y-6382565D01*
X13561502Y-6382564D01*
X13365119Y-6343500D01*
X13365116Y-6343500D01*
X13164884Y-6343500D01*
X13164880Y-6343500D01*
X12968497Y-6382564D01*
X12968494Y-6382565D01*
X12783507Y-6459190D01*
X12617017Y-6570434D01*
X12617011Y-6570439D01*
X12475439Y-6712011D01*
X12475434Y-6712017D01*
X12364190Y-6878507D01*
X12287565Y-7063494D01*
X12287564Y-7063497D01*
X12248500Y-7259880D01*
X12248500Y-7460119D01*
X12276186Y-7599302D01*
X12287564Y-7656502D01*
X12364190Y-7841493D01*
X12384962Y-7872581D01*
X12420286Y-7925448D01*
X12441500Y-7993201D01*
X12422716Y-8061668D01*
X12420286Y-8065449D01*
X12364633Y-8148741D01*
X12364632Y-8148743D01*
X12288046Y-8333638D01*
X12288044Y-8333643D01*
X12249000Y-8529930D01*
X12249000Y-8730069D01*
X12288044Y-8926356D01*
X12288046Y-8926361D01*
X12364634Y-9111260D01*
X12388623Y-9147163D01*
X12947500Y-8588288D01*
X12947500Y-8671800D01*
X12969137Y-8752551D01*
X13010937Y-8824950D01*
X13070050Y-8884063D01*
X13142449Y-8925863D01*
X13223200Y-8947500D01*
X13306800Y-8947500D01*
X13387551Y-8925863D01*
X13459950Y-8884063D01*
X13519063Y-8824950D01*
X13532674Y-8801375D01*
X13557564Y-8926502D01*
X13557565Y-8926505D01*
X13566370Y-8947762D01*
X13573959Y-9018352D01*
X13542180Y-9081839D01*
X13481121Y-9118066D01*
X13410170Y-9115532D01*
X13360866Y-9085075D01*
X13265001Y-8989210D01*
X13264999Y-8989210D01*
X12989210Y-9264999D01*
X13264999Y-9540788D01*
X13360865Y-9444923D01*
X13423177Y-9410898D01*
X13493993Y-9415962D01*
X13550829Y-9458509D01*
X13575640Y-9525029D01*
X13566371Y-9582233D01*
X13557566Y-9603490D01*
X13557564Y-9603497D01*
X13532673Y-9728624D01*
X13519063Y-9705050D01*
X13459950Y-9645937D01*
X13387551Y-9604137D01*
X13306800Y-9582500D01*
X13223200Y-9582500D01*
X13142449Y-9604137D01*
X13070050Y-9645937D01*
X13010937Y-9705050D01*
X12969137Y-9777449D01*
X12947500Y-9858200D01*
X12947500Y-9941710D01*
X12388623Y-9382834D01*
X12364633Y-9418742D01*
X12288046Y-9603638D01*
X12288044Y-9603643D01*
X12249000Y-9799930D01*
X12249000Y-10000069D01*
X12288044Y-10196356D01*
X12288046Y-10196361D01*
X12364632Y-10381256D01*
X12420285Y-10464547D01*
X12441500Y-10532300D01*
X12422717Y-10600767D01*
X12420286Y-10604549D01*
X12364191Y-10688503D01*
X12287565Y-10873494D01*
X12287564Y-10873497D01*
X12248500Y-11069880D01*
X12248500Y-11270119D01*
X12287564Y-11466502D01*
X12287565Y-11466505D01*
X12364189Y-11651491D01*
X12420286Y-11735448D01*
X12441500Y-11803201D01*
X12422716Y-11871668D01*
X12420286Y-11875449D01*
X12364633Y-11958741D01*
X12364632Y-11958743D01*
X12288046Y-12143638D01*
X12288044Y-12143643D01*
X12249000Y-12339930D01*
X12249000Y-12540069D01*
X12288044Y-12736356D01*
X12288046Y-12736361D01*
X12364632Y-12921256D01*
X12388624Y-12957163D01*
X12947500Y-12398288D01*
X12947500Y-12481800D01*
X12969137Y-12562551D01*
X13010937Y-12634950D01*
X13070050Y-12694063D01*
X13142449Y-12735863D01*
X13223200Y-12757500D01*
X13306708Y-12757500D01*
X12747834Y-13316373D01*
X12747835Y-13316374D01*
X12783740Y-13340366D01*
X12968638Y-13416953D01*
X12968643Y-13416955D01*
X13164930Y-13455999D01*
X13164934Y-13456000D01*
X13365066Y-13456000D01*
X13365069Y-13455999D01*
X13561356Y-13416955D01*
X13561361Y-13416953D01*
X13746253Y-13340369D01*
X13829547Y-13284713D01*
X13897300Y-13263498D01*
X13965767Y-13282281D01*
X13969535Y-13284702D01*
X14053507Y-13340810D01*
X14238498Y-13417436D01*
X14434884Y-13456500D01*
X14635116Y-13456500D01*
X14831502Y-13417436D01*
X15016493Y-13340810D01*
X15182981Y-13229567D01*
X15324567Y-13087981D01*
X15346404Y-13055298D01*
X15400881Y-13009771D01*
X15451170Y-12999300D01*
X21637291Y-12999300D01*
X21705412Y-13019302D01*
X21751905Y-13072958D01*
X21762009Y-13143232D01*
X21742056Y-13195302D01*
X21665699Y-13309578D01*
X21608343Y-13448048D01*
X21608341Y-13448053D01*
X21579100Y-13595055D01*
X21579100Y-13744944D01*
X21602938Y-13864784D01*
X21608341Y-13891946D01*
X21665699Y-14030421D01*
X21726656Y-14121651D01*
X21748971Y-14155047D01*
X21748976Y-14155053D01*
X21854946Y-14261023D01*
X21854952Y-14261028D01*
X21854954Y-14261030D01*
X21979579Y-14344301D01*
X22118054Y-14401659D01*
X22265058Y-14430900D01*
X22265059Y-14430900D01*
X22399558Y-14430900D01*
X22467679Y-14450902D01*
X22514172Y-14504558D01*
X22524276Y-14574832D01*
X22494782Y-14639412D01*
X22447776Y-14673309D01*
X22369578Y-14705699D01*
X22244953Y-14788971D01*
X22241134Y-14792105D01*
X22175784Y-14819854D01*
X22161207Y-14820700D01*
X10366367Y-14820700D01*
X10224118Y-14858816D01*
X10164773Y-14893079D01*
X10164772Y-14893078D01*
X10096583Y-14932447D01*
X10096573Y-14932455D01*
X8735714Y-16293314D01*
X8673402Y-16327340D01*
X8607684Y-16324053D01*
X8518116Y-16294951D01*
X8306916Y-16261500D01*
X8093084Y-16261500D01*
X7881884Y-16294951D01*
X7881878Y-16294952D01*
X7678521Y-16361026D01*
X7678515Y-16361029D01*
X7487987Y-16458108D01*
X7314995Y-16583794D01*
X7211629Y-16687160D01*
X7149317Y-16721185D01*
X7078501Y-16716119D01*
X7021665Y-16673573D01*
X7004478Y-16642096D01*
X6960444Y-16524034D01*
X6872904Y-16407095D01*
X6755965Y-16319555D01*
X6619093Y-16268505D01*
X6558597Y-16262000D01*
X5914000Y-16262000D01*
X5914000Y-17189297D01*
X5852993Y-17154075D01*
X5725826Y-17120000D01*
X5594174Y-17120000D01*
X5467007Y-17154075D01*
X5406000Y-17189297D01*
X5406000Y-16262000D01*
X4761402Y-16262000D01*
X4700906Y-16268505D01*
X4564035Y-16319555D01*
X4564034Y-16319555D01*
X4447095Y-16407095D01*
X4359555Y-16524034D01*
X4359555Y-16524035D01*
X4308505Y-16660906D01*
X4302000Y-16721402D01*
X300500Y-16721402D01*
X300500Y-11655055D01*
X7109100Y-11655055D01*
X7109100Y-11804944D01*
X7122796Y-11873796D01*
X7138341Y-11951946D01*
X7195699Y-12090421D01*
X7267574Y-12197991D01*
X7278971Y-12215047D01*
X7278976Y-12215053D01*
X7384946Y-12321023D01*
X7384952Y-12321028D01*
X7384954Y-12321030D01*
X7509579Y-12404301D01*
X7648054Y-12461659D01*
X7795058Y-12490900D01*
X7795059Y-12490900D01*
X7944941Y-12490900D01*
X7944942Y-12490900D01*
X8091946Y-12461659D01*
X8230421Y-12404301D01*
X8355046Y-12321030D01*
X8461030Y-12215046D01*
X8544301Y-12090421D01*
X8601659Y-11951946D01*
X8630900Y-11804942D01*
X8630900Y-11655058D01*
X8601659Y-11508054D01*
X8544301Y-11369579D01*
X8461030Y-11244954D01*
X8461028Y-11244952D01*
X8461023Y-11244946D01*
X8355053Y-11138976D01*
X8355047Y-11138971D01*
X8329661Y-11122009D01*
X8230421Y-11055699D01*
X8091946Y-10998341D01*
X7944944Y-10969100D01*
X7944942Y-10969100D01*
X7795058Y-10969100D01*
X7795055Y-10969100D01*
X7648053Y-10998341D01*
X7648048Y-10998343D01*
X7509578Y-11055699D01*
X7384952Y-11138971D01*
X7384946Y-11138976D01*
X7278976Y-11244946D01*
X7278971Y-11244952D01*
X7195699Y-11369578D01*
X7138343Y-11508048D01*
X7138341Y-11508053D01*
X7109100Y-11655055D01*
X300500Y-11655055D01*
X300500Y-3015055D01*
X11399100Y-3015055D01*
X11399100Y-3164944D01*
X11413026Y-3234952D01*
X11428341Y-3311946D01*
X11485699Y-3450421D01*
X11517525Y-3498053D01*
X11568971Y-3575047D01*
X11568976Y-3575053D01*
X11674946Y-3681023D01*
X11674952Y-3681028D01*
X11674954Y-3681030D01*
X11799579Y-3764301D01*
X11938054Y-3821659D01*
X12085058Y-3850900D01*
X12085059Y-3850900D01*
X12234941Y-3850900D01*
X12234942Y-3850900D01*
X12381946Y-3821659D01*
X12520421Y-3764301D01*
X12645046Y-3681030D01*
X12681021Y-3645055D01*
X14399100Y-3645055D01*
X14399100Y-3794944D01*
X14428341Y-3941946D01*
X14428343Y-3941951D01*
X14485699Y-4080421D01*
X14568971Y-4205047D01*
X14568976Y-4205053D01*
X14674946Y-4311023D01*
X14674952Y-4311028D01*
X14674954Y-4311030D01*
X14799579Y-4394301D01*
X14938054Y-4451659D01*
X15085058Y-4480900D01*
X15085069Y-4480900D01*
X15089954Y-4481381D01*
X15155789Y-4507957D01*
X15166712Y-4517681D01*
X18116575Y-7467545D01*
X18116580Y-7467549D01*
X18116582Y-7467551D01*
X18244119Y-7541185D01*
X18386367Y-7579300D01*
X18533633Y-7579300D01*
X23446141Y-7579300D01*
X23514262Y-7599302D01*
X23535236Y-7616205D01*
X26533795Y-10614764D01*
X26567821Y-10677076D01*
X26570700Y-10703859D01*
X26570700Y-12003631D01*
X26570699Y-12003631D01*
X26608816Y-12145882D01*
X26651365Y-12219579D01*
X26682446Y-12273414D01*
X26682448Y-12273416D01*
X26682449Y-12273418D01*
X26982319Y-12573288D01*
X26992902Y-12592670D01*
X27007481Y-12609267D01*
X27013002Y-12629481D01*
X27016343Y-12635599D01*
X27015996Y-12640442D01*
X27018617Y-12650035D01*
X27019100Y-12654945D01*
X27048341Y-12801946D01*
X27048343Y-12801951D01*
X27097760Y-12921256D01*
X27105699Y-12940421D01*
X27188970Y-13065046D01*
X27294954Y-13171030D01*
X27419579Y-13254301D01*
X27558054Y-13311659D01*
X27705058Y-13340900D01*
X27705059Y-13340900D01*
X27854941Y-13340900D01*
X27854942Y-13340900D01*
X28001946Y-13311659D01*
X28140421Y-13254301D01*
X28265046Y-13171030D01*
X28371030Y-13065046D01*
X28454301Y-12940421D01*
X28511659Y-12801946D01*
X28540900Y-12654942D01*
X28540900Y-12505058D01*
X28511659Y-12358054D01*
X28454301Y-12219579D01*
X28371030Y-12094954D01*
X28371028Y-12094952D01*
X28371023Y-12094946D01*
X28265053Y-11988976D01*
X28265047Y-11988971D01*
X28228980Y-11964872D01*
X28140421Y-11905699D01*
X28001946Y-11848341D01*
X27854945Y-11819100D01*
X27850035Y-11818617D01*
X27826643Y-11809172D01*
X27801997Y-11803811D01*
X27788687Y-11793846D01*
X27784202Y-11792036D01*
X27776361Y-11785055D01*
X30039100Y-11785055D01*
X30039100Y-11934944D01*
X30068341Y-12081946D01*
X30068343Y-12081951D01*
X30116407Y-12197987D01*
X30125699Y-12220421D01*
X30192918Y-12321023D01*
X30208971Y-12345047D01*
X30208976Y-12345053D01*
X30314946Y-12451023D01*
X30314952Y-12451028D01*
X30314954Y-12451030D01*
X30439579Y-12534301D01*
X30578054Y-12591659D01*
X30725058Y-12620900D01*
X30725059Y-12620900D01*
X30874941Y-12620900D01*
X30874942Y-12620900D01*
X31021946Y-12591659D01*
X31160421Y-12534301D01*
X31285046Y-12451030D01*
X31391030Y-12345046D01*
X31474301Y-12220421D01*
X31531659Y-12081946D01*
X31560900Y-11934942D01*
X31560900Y-11785058D01*
X31531659Y-11638054D01*
X31474301Y-11499579D01*
X31474297Y-11499574D01*
X31473922Y-11498667D01*
X31466333Y-11428077D01*
X31498112Y-11364590D01*
X31559170Y-11328362D01*
X31565732Y-11326873D01*
X31591946Y-11321659D01*
X31730421Y-11264301D01*
X31855046Y-11181030D01*
X31961030Y-11075046D01*
X32044301Y-10950421D01*
X32101659Y-10811946D01*
X32130900Y-10664942D01*
X32130900Y-10515058D01*
X32101659Y-10368054D01*
X32074748Y-10303084D01*
X44456500Y-10303084D01*
X44456500Y-10516916D01*
X44481867Y-10677076D01*
X44489952Y-10728121D01*
X44556026Y-10931478D01*
X44556028Y-10931483D01*
X44634946Y-11086368D01*
X44653108Y-11122012D01*
X44665433Y-11138976D01*
X44778794Y-11295004D01*
X44778796Y-11295006D01*
X44778798Y-11295009D01*
X44929990Y-11446201D01*
X44929993Y-11446203D01*
X44929996Y-11446206D01*
X45015121Y-11508053D01*
X45083955Y-11558064D01*
X45127309Y-11614286D01*
X45133384Y-11685023D01*
X45100252Y-11747814D01*
X45083955Y-11761936D01*
X44929993Y-11873796D01*
X44929990Y-11873798D01*
X44778798Y-12024990D01*
X44778796Y-12024993D01*
X44653108Y-12197987D01*
X44556029Y-12388515D01*
X44556026Y-12388521D01*
X44489952Y-12591878D01*
X44489951Y-12591883D01*
X44489951Y-12591884D01*
X44456500Y-12803084D01*
X44456500Y-13016916D01*
X44481957Y-13177642D01*
X44489952Y-13228121D01*
X44551464Y-13417436D01*
X44556028Y-13431483D01*
X44653106Y-13622009D01*
X44778794Y-13795004D01*
X44778796Y-13795006D01*
X44778798Y-13795009D01*
X44909104Y-13925315D01*
X44943130Y-13987627D01*
X44938065Y-14058442D01*
X44895518Y-14115278D01*
X44886156Y-14121651D01*
X44741347Y-14210970D01*
X44741341Y-14210975D01*
X44615975Y-14336341D01*
X44615970Y-14336347D01*
X44522885Y-14487262D01*
X44467113Y-14655572D01*
X44467112Y-14655579D01*
X44456500Y-14759446D01*
X44456500Y-16060544D01*
X44467112Y-16164425D01*
X44522885Y-16332738D01*
X44615970Y-16483652D01*
X44615975Y-16483658D01*
X44741341Y-16609024D01*
X44741347Y-16609029D01*
X44741348Y-16609030D01*
X44892262Y-16702115D01*
X45060574Y-16757887D01*
X45164455Y-16768500D01*
X46715544Y-16768499D01*
X46819426Y-16757887D01*
X46934608Y-16719719D01*
X47005561Y-16717279D01*
X47066571Y-16753587D01*
X47098267Y-16817115D01*
X47097819Y-16863905D01*
X47085500Y-16925833D01*
X47085500Y-17094163D01*
X47118338Y-17259249D01*
X47118340Y-17259254D01*
X47162556Y-17366000D01*
X47182752Y-17414758D01*
X47276266Y-17554712D01*
X47395288Y-17673734D01*
X47535242Y-17767248D01*
X47690751Y-17831662D01*
X47855839Y-17864500D01*
X47855840Y-17864500D01*
X48024160Y-17864500D01*
X48024161Y-17864500D01*
X48189249Y-17831662D01*
X48344758Y-17767248D01*
X48484712Y-17673734D01*
X48603734Y-17554712D01*
X48697248Y-17414758D01*
X48761662Y-17259249D01*
X48794500Y-17094161D01*
X48794500Y-16925839D01*
X48761662Y-16760751D01*
X48697248Y-16605242D01*
X48603734Y-16465288D01*
X48484712Y-16346266D01*
X48344758Y-16252752D01*
X48189249Y-16188338D01*
X48187821Y-16188054D01*
X48024163Y-16155500D01*
X48024161Y-16155500D01*
X47855839Y-16155500D01*
X47855836Y-16155500D01*
X47690750Y-16188338D01*
X47690741Y-16188341D01*
X47593076Y-16228795D01*
X47522486Y-16236384D01*
X47459000Y-16204604D01*
X47422773Y-16143546D01*
X47419512Y-16099577D01*
X47423499Y-16060551D01*
X47423500Y-16060545D01*
X47423499Y-14759456D01*
X47418007Y-14705699D01*
X47412887Y-14655574D01*
X47410490Y-14648341D01*
X47357115Y-14487262D01*
X47264030Y-14336348D01*
X47264029Y-14336347D01*
X47264024Y-14336341D01*
X47138658Y-14210975D01*
X47138652Y-14210970D01*
X46993842Y-14121650D01*
X46946365Y-14068865D01*
X46934962Y-13998790D01*
X46963255Y-13933674D01*
X46970884Y-13925325D01*
X47101206Y-13795004D01*
X47226894Y-13622009D01*
X47323972Y-13431483D01*
X47390049Y-13228116D01*
X47423500Y-13016916D01*
X47423500Y-12803084D01*
X47390049Y-12591884D01*
X47323972Y-12388517D01*
X47226894Y-12197991D01*
X47101206Y-12024996D01*
X47101203Y-12024993D01*
X47101201Y-12024990D01*
X46950009Y-11873798D01*
X46950006Y-11873796D01*
X46950004Y-11873794D01*
X46796043Y-11761935D01*
X46752690Y-11705714D01*
X46746615Y-11634978D01*
X46779746Y-11572186D01*
X46796044Y-11558064D01*
X46950004Y-11446206D01*
X47101206Y-11295004D01*
X47226894Y-11122009D01*
X47323972Y-10931483D01*
X47390049Y-10728116D01*
X47423500Y-10516916D01*
X47423500Y-10303084D01*
X47390049Y-10091884D01*
X47323972Y-9888517D01*
X47226894Y-9697991D01*
X47101206Y-9524996D01*
X47101203Y-9524993D01*
X47101201Y-9524990D01*
X46950009Y-9373798D01*
X46950006Y-9373796D01*
X46950005Y-9373795D01*
X46950004Y-9373794D01*
X46800262Y-9265000D01*
X46795618Y-9261626D01*
X46752264Y-9205404D01*
X46746189Y-9134667D01*
X46779320Y-9071876D01*
X46795618Y-9057754D01*
X46949679Y-8945821D01*
X46949682Y-8945819D01*
X47100822Y-8794679D01*
X47226463Y-8621750D01*
X47323506Y-8431292D01*
X47323509Y-8431286D01*
X47389559Y-8228004D01*
X47399698Y-8164000D01*
X46341836Y-8164000D01*
X46382630Y-8093343D01*
X46415000Y-7972535D01*
X46415000Y-7847465D01*
X46382630Y-7726657D01*
X46341836Y-7656000D01*
X47399697Y-7656000D01*
X47389559Y-7591995D01*
X47323509Y-7388713D01*
X47323506Y-7388707D01*
X47226463Y-7198249D01*
X47100822Y-7025320D01*
X46949679Y-6874177D01*
X46776750Y-6748536D01*
X46586292Y-6651493D01*
X46586286Y-6651490D01*
X46383004Y-6585440D01*
X46194000Y-6555503D01*
X46194000Y-7508163D01*
X46123343Y-7467370D01*
X46002535Y-7435000D01*
X45877465Y-7435000D01*
X45756657Y-7467370D01*
X45686000Y-7508163D01*
X45686000Y-6555503D01*
X45496995Y-6585440D01*
X45293713Y-6651490D01*
X45293707Y-6651493D01*
X45103249Y-6748536D01*
X44930320Y-6874177D01*
X44779177Y-7025320D01*
X44653536Y-7198249D01*
X44556493Y-7388707D01*
X44556490Y-7388713D01*
X44490440Y-7591995D01*
X44480302Y-7656000D01*
X45538164Y-7656000D01*
X45497370Y-7726657D01*
X45465000Y-7847465D01*
X45465000Y-7972535D01*
X45497370Y-8093343D01*
X45538164Y-8164000D01*
X44480302Y-8164000D01*
X44490440Y-8228004D01*
X44556490Y-8431286D01*
X44556493Y-8431292D01*
X44653536Y-8621750D01*
X44779177Y-8794679D01*
X44930317Y-8945819D01*
X44930320Y-8945821D01*
X45084381Y-9057754D01*
X45127735Y-9113976D01*
X45133810Y-9184713D01*
X45100678Y-9247504D01*
X45084381Y-9261626D01*
X44929993Y-9373795D01*
X44778798Y-9524990D01*
X44778796Y-9524993D01*
X44653108Y-9697987D01*
X44556029Y-9888515D01*
X44556026Y-9888521D01*
X44489952Y-10091878D01*
X44489951Y-10091883D01*
X44489951Y-10091884D01*
X44456500Y-10303084D01*
X32074748Y-10303084D01*
X32044301Y-10229579D01*
X31961030Y-10104954D01*
X31961028Y-10104952D01*
X31961023Y-10104946D01*
X31855053Y-9998976D01*
X31855047Y-9998971D01*
X31842384Y-9990510D01*
X31730421Y-9915699D01*
X31591946Y-9858341D01*
X31591237Y-9858200D01*
X31444944Y-9829100D01*
X31444942Y-9829100D01*
X31295058Y-9829100D01*
X31295055Y-9829100D01*
X31148053Y-9858341D01*
X31148048Y-9858343D01*
X31009578Y-9915699D01*
X30884952Y-9998971D01*
X30884946Y-9998976D01*
X30778976Y-10104946D01*
X30778971Y-10104952D01*
X30695699Y-10229578D01*
X30638343Y-10368048D01*
X30638341Y-10368053D01*
X30609098Y-10515064D01*
X30608616Y-10519965D01*
X30599173Y-10543352D01*
X30593811Y-10568002D01*
X30583845Y-10581314D01*
X30582035Y-10585798D01*
X30572319Y-10596712D01*
X30456582Y-10712449D01*
X30404516Y-10764515D01*
X30352450Y-10816580D01*
X30352446Y-10816585D01*
X30278816Y-10944117D01*
X30278816Y-10944118D01*
X30243734Y-11075046D01*
X30240700Y-11086368D01*
X30240700Y-11291207D01*
X30220698Y-11359328D01*
X30212105Y-11371134D01*
X30208971Y-11374953D01*
X30125699Y-11499578D01*
X30068343Y-11638048D01*
X30068341Y-11638053D01*
X30039100Y-11785055D01*
X27776361Y-11785055D01*
X27773287Y-11782318D01*
X27726205Y-11735236D01*
X27692179Y-11672924D01*
X27689300Y-11646141D01*
X27689300Y-10346369D01*
X27689300Y-10346367D01*
X27651184Y-10204118D01*
X27586386Y-10091884D01*
X27577551Y-10076581D01*
X27577546Y-10076576D01*
X27577544Y-10076573D01*
X25283725Y-7782755D01*
X24073424Y-6572454D01*
X24073420Y-6572451D01*
X24073418Y-6572449D01*
X24019219Y-6541157D01*
X23970227Y-6489776D01*
X23956790Y-6420063D01*
X23983177Y-6354151D01*
X24035419Y-6316949D01*
X24034776Y-6315396D01*
X24043688Y-6311704D01*
X24168706Y-6259920D01*
X24284093Y-6182821D01*
X24382221Y-6084693D01*
X24459320Y-5969306D01*
X24512427Y-5841095D01*
X24539500Y-5704987D01*
X24539500Y-5566213D01*
X24539499Y-5566210D01*
X27530500Y-5566210D01*
X27530500Y-5566213D01*
X27530500Y-5704987D01*
X27557573Y-5841095D01*
X27610680Y-5969306D01*
X27687779Y-6084693D01*
X27785907Y-6182821D01*
X27901294Y-6259920D01*
X28029505Y-6313027D01*
X28165613Y-6340100D01*
X28165614Y-6340100D01*
X28304386Y-6340100D01*
X28304387Y-6340100D01*
X28440495Y-6313027D01*
X28568706Y-6259920D01*
X28684093Y-6182821D01*
X28782221Y-6084693D01*
X28859320Y-5969306D01*
X28912427Y-5841095D01*
X28939500Y-5704987D01*
X28939500Y-5566213D01*
X28912427Y-5430105D01*
X28859320Y-5301894D01*
X28782221Y-5186507D01*
X28684093Y-5088379D01*
X28568706Y-5011280D01*
X28440495Y-4958173D01*
X28304389Y-4931100D01*
X28304387Y-4931100D01*
X28165613Y-4931100D01*
X28165610Y-4931100D01*
X28029504Y-4958173D01*
X28029499Y-4958175D01*
X27901294Y-5011280D01*
X27785911Y-5088376D01*
X27785904Y-5088381D01*
X27687781Y-5186504D01*
X27687776Y-5186511D01*
X27610680Y-5301894D01*
X27557575Y-5430099D01*
X27557573Y-5430104D01*
X27530500Y-5566210D01*
X24539499Y-5566210D01*
X24512427Y-5430105D01*
X24459320Y-5301894D01*
X24382221Y-5186507D01*
X24284093Y-5088379D01*
X24168706Y-5011280D01*
X24040495Y-4958173D01*
X23904389Y-4931100D01*
X23904387Y-4931100D01*
X23765613Y-4931100D01*
X23765610Y-4931100D01*
X23629504Y-4958173D01*
X23629499Y-4958175D01*
X23501294Y-5011280D01*
X23385911Y-5088376D01*
X23385904Y-5088381D01*
X23287781Y-5186504D01*
X23287776Y-5186511D01*
X23210680Y-5301894D01*
X23157575Y-5430099D01*
X23157573Y-5430104D01*
X23130500Y-5566210D01*
X23130500Y-5566213D01*
X23130500Y-5704987D01*
X23157573Y-5841095D01*
X23210680Y-5969306D01*
X23287779Y-6084693D01*
X23385907Y-6182821D01*
X23444663Y-6222081D01*
X23456418Y-6229935D01*
X23501946Y-6284412D01*
X23510794Y-6354855D01*
X23480153Y-6418899D01*
X23419751Y-6456210D01*
X23386416Y-6460700D01*
X18743859Y-6460700D01*
X18675738Y-6440698D01*
X18654764Y-6423795D01*
X15957681Y-3726712D01*
X15923655Y-3664400D01*
X15921381Y-3649954D01*
X15920900Y-3645069D01*
X15920900Y-3645058D01*
X15891659Y-3498054D01*
X15834301Y-3359579D01*
X15751030Y-3234954D01*
X15751028Y-3234952D01*
X15751023Y-3234946D01*
X15645053Y-3128976D01*
X15645047Y-3128971D01*
X15520421Y-3045699D01*
X15518866Y-3045055D01*
X38819100Y-3045055D01*
X38819100Y-3194944D01*
X38827059Y-3234954D01*
X38848341Y-3341946D01*
X38905699Y-3480421D01*
X38968925Y-3575047D01*
X38988971Y-3605047D01*
X38988976Y-3605053D01*
X39094946Y-3711023D01*
X39094952Y-3711028D01*
X39094954Y-3711030D01*
X39219579Y-3794301D01*
X39358054Y-3851659D01*
X39505058Y-3880900D01*
X39505059Y-3880900D01*
X39654941Y-3880900D01*
X39654942Y-3880900D01*
X39801946Y-3851659D01*
X39940421Y-3794301D01*
X40065046Y-3711030D01*
X40171030Y-3605046D01*
X40254301Y-3480421D01*
X40311659Y-3341946D01*
X40340900Y-3194942D01*
X40340900Y-3045058D01*
X40311659Y-2898054D01*
X40254301Y-2759579D01*
X40171030Y-2634954D01*
X40171028Y-2634952D01*
X40171023Y-2634946D01*
X40065053Y-2528976D01*
X40065047Y-2528971D01*
X39940421Y-2445699D01*
X39801951Y-2388343D01*
X39801946Y-2388341D01*
X39654944Y-2359100D01*
X39654942Y-2359100D01*
X39505058Y-2359100D01*
X39505055Y-2359100D01*
X39358053Y-2388341D01*
X39358048Y-2388343D01*
X39219578Y-2445699D01*
X39094952Y-2528971D01*
X39094946Y-2528976D01*
X38988976Y-2634946D01*
X38988971Y-2634952D01*
X38905699Y-2759578D01*
X38848343Y-2898048D01*
X38848341Y-2898053D01*
X38819100Y-3045055D01*
X15518866Y-3045055D01*
X15381951Y-2988343D01*
X15381946Y-2988341D01*
X15234944Y-2959100D01*
X15234942Y-2959100D01*
X15085058Y-2959100D01*
X15085055Y-2959100D01*
X14938053Y-2988341D01*
X14938048Y-2988343D01*
X14799578Y-3045699D01*
X14674952Y-3128971D01*
X14674946Y-3128976D01*
X14568976Y-3234946D01*
X14568971Y-3234952D01*
X14485699Y-3359578D01*
X14428343Y-3498048D01*
X14428341Y-3498053D01*
X14399100Y-3645055D01*
X12681021Y-3645055D01*
X12751030Y-3575046D01*
X12834301Y-3450421D01*
X12891659Y-3311946D01*
X12920900Y-3164942D01*
X12920900Y-3015058D01*
X12891659Y-2868054D01*
X12834301Y-2729579D01*
X12751030Y-2604954D01*
X12751028Y-2604952D01*
X12751023Y-2604946D01*
X12645053Y-2498976D01*
X12645047Y-2498971D01*
X12565319Y-2445699D01*
X12520421Y-2415699D01*
X12435397Y-2380481D01*
X12381951Y-2358343D01*
X12381946Y-2358341D01*
X12234944Y-2329100D01*
X12234942Y-2329100D01*
X12085058Y-2329100D01*
X12085055Y-2329100D01*
X11938053Y-2358341D01*
X11938048Y-2358343D01*
X11799578Y-2415699D01*
X11674952Y-2498971D01*
X11674946Y-2498976D01*
X11568976Y-2604946D01*
X11568971Y-2604952D01*
X11485699Y-2729578D01*
X11428343Y-2868048D01*
X11428341Y-2868053D01*
X11399100Y-3015055D01*
X300500Y-3015055D01*
X300500Y-2543805D01*
X300730Y-2536197D01*
X302893Y-2500438D01*
X316369Y-2277651D01*
X318200Y-2262575D01*
X364204Y-2011536D01*
X367838Y-1996792D01*
X443767Y-1753126D01*
X449156Y-1738919D01*
X553896Y-1506195D01*
X560958Y-1492739D01*
X692995Y-1274324D01*
X701613Y-1261837D01*
X859024Y-1060917D01*
X869092Y-1049554D01*
X1049554Y-869092D01*
X1060917Y-859024D01*
X1261837Y-701613D01*
X1274324Y-692995D01*
X1492739Y-560958D01*
X1506195Y-553896D01*
X1738919Y-449156D01*
X1753126Y-443767D01*
X1996792Y-367838D01*
X2011536Y-364204D01*
X2262575Y-318200D01*
X2277651Y-316369D01*
X2536198Y-300730D01*
X2543806Y-300500D01*
X2587595Y-300500D01*
X48212405Y-300500D01*
X48256194Y-300500D01*
X48263802Y-300730D01*
G37*
%TD.AperFunction*%
%TD*%
M02*
