M48
; DRILL file KiCad 10.0.2 date 2026-09-07T16:51:00
; FORMAT={-:-/ absolute / inch / decimal}
; #@! TF.CreationDate,2026-09-07T16:51:00-04:00
; #@! TF.GenerationSoftware,Kicad,Pcbnew,10.0.2
; #@! TF.FileFunction,Plated,1,4,PTH
FMAT,2
INCH
; #@! TA.AperFunction,Plated,PTH,ViaDrill
T1C0.0079
; #@! TA.AperFunction,Plated,PTH,ComponentDrill
T2C0.0240
; #@! TA.AperFunction,Plated,PTH,ComponentDrill
T3C0.0250
; #@! TA.AperFunction,Plated,PTH,ComponentDrill
T4C0.0374
; #@! TA.AperFunction,Plated,PTH,ComponentDrill
T5C0.0394
%
G90
G05
T1
X0.2358Y-0.3521
X0.2709Y-0.4594
X0.3098Y-0.4618
X0.4787Y-0.1217
X0.515Y-0.6673
X0.5969Y-0.1465
X0.6772Y-0.6697
X0.7618Y-1.4567
X0.7815Y-0.3209
X0.7835Y-0.1063
X0.787Y-0.8181
X0.8157Y-0.4654
X0.8291Y-0.5394
X0.8476Y-1.4634
X0.8504Y-0.7535
X0.8795Y-0.5382
X0.8872Y-0.6282
X0.8937Y-0.8854
X0.8949Y-0.6055
X0.9291Y-1.2539
X0.9429Y-0.5378
X0.9579Y-0.3995
X0.9622Y-0.8843
X0.9835Y-0.7657
X0.9976Y-1.398
X1.0028Y-0.8854
X1.0043Y-0.4898
X1.0114Y-0.837
X1.0138Y-1.2539
X1.0256Y-1.2264
X1.0276Y-1.0374
X1.0283Y-0.6371
X1.0291Y-0.9902
X1.0374Y-0.7717
X1.0768Y-0.7705
X1.0858Y-0.8854
X1.0898Y-1.0161
X1.0937Y-0.4953
X1.1134Y-0.8839
X1.1173Y-0.7331
X1.1449Y-0.8063
X1.1571Y-0.6461
X1.163Y-0.6173
X1.1925Y-0.7299
X1.2126Y-0.4669
X1.2236Y-0.9886
X1.224Y-0.9146
X1.235Y-0.4169
X1.2663Y-0.1038
X1.2677Y-0.3189
X1.2953Y-0.8386
X1.2953Y-0.9213
X1.3061Y-0.5118
X1.3394Y-0.6386
X1.3457Y-0.5953
X1.3661Y-0.9606
X1.376Y-0.4833
X1.4263Y-0.5475
X1.4563Y-0.6819
X1.5205Y-1.3906
X1.5583Y-0.1228
X1.5768Y-0.63
X1.5788Y-0.588
X1.5799Y-0.7268
T2
X0.95Y-1.675
X0.95Y-1.725
X1.0Y-1.675
X1.0Y-1.725
X1.05Y-1.675
X1.05Y-1.725
T3
X0.5222Y-0.2898
X0.5222Y-0.3398
X0.5222Y-0.3898
X0.5222Y-0.4398
X0.5222Y-0.4898
X0.5722Y-0.2898
X0.5722Y-0.3398
X0.5722Y-0.3898
X0.5722Y-0.4398
X0.5722Y-0.4898
T4
X1.8087Y-0.3114
X1.8087Y-0.4098
X1.8087Y-0.5083
X1.8087Y-0.6067
T5
X0.2228Y-0.6937
X0.3228Y-0.6937
M30
