%TF.GenerationSoftware,KiCad,Pcbnew,10.0.2*%
%TF.CreationDate,2026-06-09T10:42:52-04:00*%
%TF.ProjectId,tag-breakout-l432-u375-lipo-v1,7461672d-6272-4656-916b-6f75742d6c34,rev?*%
%TF.SameCoordinates,Original*%
%TF.FileFunction,Legend,Bot*%
%TF.FilePolarity,Positive*%
%FSLAX46Y46*%
G04 Gerber Fmt 4.6, Leading zero omitted, Abs format (unit mm)*
G04 Created by KiCad (PCBNEW 10.0.2) date 2026-06-09 10:42:52*
%MOMM*%
%LPD*%
G01*
G04 APERTURE LIST*
G04 Aperture macros list*
%AMRoundRect*
0 Rectangle with rounded corners*
0 $1 Rounding radius*
0 $2 $3 $4 $5 $6 $7 $8 $9 X,Y pos of 4 corners*
0 Add a 4 corners polygon primitive as box body*
4,1,4,$2,$3,$4,$5,$6,$7,$8,$9,$2,$3,0*
0 Add four circle primitives for the rounded corners*
1,1,$1+$1,$2,$3*
1,1,$1+$1,$4,$5*
1,1,$1+$1,$6,$7*
1,1,$1+$1,$8,$9*
0 Add four rect primitives between the rounded corners*
20,1,$1+$1,$2,$3,$4,$5,0*
20,1,$1+$1,$4,$5,$6,$7,0*
20,1,$1+$1,$6,$7,$8,$9,0*
20,1,$1+$1,$8,$9,$2,$3,0*%
G04 Aperture macros list end*
%ADD10C,0.150000*%
%ADD11C,0.300000*%
%ADD12C,0.120000*%
%ADD13C,1.016000*%
%ADD14R,1.700000X1.700000*%
%ADD15C,1.700000*%
%ADD16O,1.700000X1.700000*%
%ADD17C,1.200000*%
%ADD18RoundRect,0.250000X0.725000X-0.600000X0.725000X0.600000X-0.725000X0.600000X-0.725000X-0.600000X0*%
%ADD19O,1.950000X1.700000*%
%ADD20C,1.000000*%
%ADD21C,2.500000*%
G04 APERTURE END LIST*
D10*
X9508877Y61428981D02*
X8937449Y61428981D01*
X9223163Y60428981D02*
X9223163Y61428981D01*
X8699353Y61428981D02*
X8032687Y60428981D01*
X8032687Y61428981D02*
X8699353Y60428981D01*
X13776077Y33505181D02*
X13204649Y33505181D01*
X13490363Y32505181D02*
X13490363Y33505181D01*
X12918934Y32790896D02*
X12442744Y32790896D01*
X13014172Y32505181D02*
X12680839Y33505181D01*
X12680839Y33505181D02*
X12347506Y32505181D01*
X11490363Y33457562D02*
X11585601Y33505181D01*
X11585601Y33505181D02*
X11728458Y33505181D01*
X11728458Y33505181D02*
X11871315Y33457562D01*
X11871315Y33457562D02*
X11966553Y33362324D01*
X11966553Y33362324D02*
X12014172Y33267086D01*
X12014172Y33267086D02*
X12061791Y33076610D01*
X12061791Y33076610D02*
X12061791Y32933753D01*
X12061791Y32933753D02*
X12014172Y32743277D01*
X12014172Y32743277D02*
X11966553Y32648039D01*
X11966553Y32648039D02*
X11871315Y32552800D01*
X11871315Y32552800D02*
X11728458Y32505181D01*
X11728458Y32505181D02*
X11633220Y32505181D01*
X11633220Y32505181D02*
X11490363Y32552800D01*
X11490363Y32552800D02*
X11442744Y32600420D01*
X11442744Y32600420D02*
X11442744Y32933753D01*
X11442744Y32933753D02*
X11633220Y32933753D01*
X11252268Y32409943D02*
X10490363Y32409943D01*
X9728458Y32505181D02*
X10299886Y32505181D01*
X10014172Y32505181D02*
X10014172Y33505181D01*
X10014172Y33505181D02*
X10109410Y33362324D01*
X10109410Y33362324D02*
X10204648Y33267086D01*
X10204648Y33267086D02*
X10299886Y33219467D01*
X9442743Y33505181D02*
X9109410Y32505181D01*
X9109410Y32505181D02*
X8776077Y33505181D01*
X8299886Y33076610D02*
X8395124Y33124229D01*
X8395124Y33124229D02*
X8442743Y33171848D01*
X8442743Y33171848D02*
X8490362Y33267086D01*
X8490362Y33267086D02*
X8490362Y33314705D01*
X8490362Y33314705D02*
X8442743Y33409943D01*
X8442743Y33409943D02*
X8395124Y33457562D01*
X8395124Y33457562D02*
X8299886Y33505181D01*
X8299886Y33505181D02*
X8109410Y33505181D01*
X8109410Y33505181D02*
X8014172Y33457562D01*
X8014172Y33457562D02*
X7966553Y33409943D01*
X7966553Y33409943D02*
X7918934Y33314705D01*
X7918934Y33314705D02*
X7918934Y33267086D01*
X7918934Y33267086D02*
X7966553Y33171848D01*
X7966553Y33171848D02*
X8014172Y33124229D01*
X8014172Y33124229D02*
X8109410Y33076610D01*
X8109410Y33076610D02*
X8299886Y33076610D01*
X8299886Y33076610D02*
X8395124Y33028991D01*
X8395124Y33028991D02*
X8442743Y32981372D01*
X8442743Y32981372D02*
X8490362Y32886134D01*
X8490362Y32886134D02*
X8490362Y32695658D01*
X8490362Y32695658D02*
X8442743Y32600420D01*
X8442743Y32600420D02*
X8395124Y32552800D01*
X8395124Y32552800D02*
X8299886Y32505181D01*
X8299886Y32505181D02*
X8109410Y32505181D01*
X8109410Y32505181D02*
X8014172Y32552800D01*
X8014172Y32552800D02*
X7966553Y32600420D01*
X7966553Y32600420D02*
X7918934Y32695658D01*
X7918934Y32695658D02*
X7918934Y32886134D01*
X7918934Y32886134D02*
X7966553Y32981372D01*
X7966553Y32981372D02*
X8014172Y33028991D01*
X8014172Y33028991D02*
X8109410Y33076610D01*
X44859411Y66477562D02*
X44954649Y66525181D01*
X44954649Y66525181D02*
X45097506Y66525181D01*
X45097506Y66525181D02*
X45240363Y66477562D01*
X45240363Y66477562D02*
X45335601Y66382324D01*
X45335601Y66382324D02*
X45383220Y66287086D01*
X45383220Y66287086D02*
X45430839Y66096610D01*
X45430839Y66096610D02*
X45430839Y65953753D01*
X45430839Y65953753D02*
X45383220Y65763277D01*
X45383220Y65763277D02*
X45335601Y65668039D01*
X45335601Y65668039D02*
X45240363Y65572800D01*
X45240363Y65572800D02*
X45097506Y65525181D01*
X45097506Y65525181D02*
X45002268Y65525181D01*
X45002268Y65525181D02*
X44859411Y65572800D01*
X44859411Y65572800D02*
X44811792Y65620420D01*
X44811792Y65620420D02*
X44811792Y65953753D01*
X44811792Y65953753D02*
X45002268Y65953753D01*
X44383220Y65525181D02*
X44383220Y66525181D01*
X44383220Y66525181D02*
X43811792Y65525181D01*
X43811792Y65525181D02*
X43811792Y66525181D01*
X43335601Y65525181D02*
X43335601Y66525181D01*
X43335601Y66525181D02*
X43097506Y66525181D01*
X43097506Y66525181D02*
X42954649Y66477562D01*
X42954649Y66477562D02*
X42859411Y66382324D01*
X42859411Y66382324D02*
X42811792Y66287086D01*
X42811792Y66287086D02*
X42764173Y66096610D01*
X42764173Y66096610D02*
X42764173Y65953753D01*
X42764173Y65953753D02*
X42811792Y65763277D01*
X42811792Y65763277D02*
X42859411Y65668039D01*
X42859411Y65668039D02*
X42954649Y65572800D01*
X42954649Y65572800D02*
X43097506Y65525181D01*
X43097506Y65525181D02*
X43335601Y65525181D01*
X45383220Y63508991D02*
X45049887Y63508991D01*
X44907030Y62985181D02*
X45383220Y62985181D01*
X45383220Y62985181D02*
X45383220Y63985181D01*
X45383220Y63985181D02*
X44907030Y63985181D01*
X44573696Y63985181D02*
X43907030Y62985181D01*
X43907030Y63985181D02*
X44573696Y62985181D01*
X43668934Y63985181D02*
X43097506Y63985181D01*
X43383220Y62985181D02*
X43383220Y63985181D01*
X43002268Y62889943D02*
X42240363Y62889943D01*
X42002267Y62985181D02*
X42002267Y63985181D01*
X42002267Y63985181D02*
X41621315Y63985181D01*
X41621315Y63985181D02*
X41526077Y63937562D01*
X41526077Y63937562D02*
X41478458Y63889943D01*
X41478458Y63889943D02*
X41430839Y63794705D01*
X41430839Y63794705D02*
X41430839Y63651848D01*
X41430839Y63651848D02*
X41478458Y63556610D01*
X41478458Y63556610D02*
X41526077Y63508991D01*
X41526077Y63508991D02*
X41621315Y63461372D01*
X41621315Y63461372D02*
X42002267Y63461372D01*
X41097505Y63985181D02*
X40859410Y62985181D01*
X40859410Y62985181D02*
X40668934Y63699467D01*
X40668934Y63699467D02*
X40478458Y62985181D01*
X40478458Y62985181D02*
X40240363Y63985181D01*
X39287982Y62985181D02*
X39621315Y63461372D01*
X39859410Y62985181D02*
X39859410Y63985181D01*
X39859410Y63985181D02*
X39478458Y63985181D01*
X39478458Y63985181D02*
X39383220Y63937562D01*
X39383220Y63937562D02*
X39335601Y63889943D01*
X39335601Y63889943D02*
X39287982Y63794705D01*
X39287982Y63794705D02*
X39287982Y63651848D01*
X39287982Y63651848D02*
X39335601Y63556610D01*
X39335601Y63556610D02*
X39383220Y63508991D01*
X39383220Y63508991D02*
X39478458Y63461372D01*
X39478458Y63461372D02*
X39859410Y63461372D01*
X45526077Y61445181D02*
X44954649Y61445181D01*
X45240363Y60445181D02*
X45240363Y61445181D01*
X44668934Y60730896D02*
X44192744Y60730896D01*
X44764172Y60445181D02*
X44430839Y61445181D01*
X44430839Y61445181D02*
X44097506Y60445181D01*
X43240363Y61397562D02*
X43335601Y61445181D01*
X43335601Y61445181D02*
X43478458Y61445181D01*
X43478458Y61445181D02*
X43621315Y61397562D01*
X43621315Y61397562D02*
X43716553Y61302324D01*
X43716553Y61302324D02*
X43764172Y61207086D01*
X43764172Y61207086D02*
X43811791Y61016610D01*
X43811791Y61016610D02*
X43811791Y60873753D01*
X43811791Y60873753D02*
X43764172Y60683277D01*
X43764172Y60683277D02*
X43716553Y60588039D01*
X43716553Y60588039D02*
X43621315Y60492800D01*
X43621315Y60492800D02*
X43478458Y60445181D01*
X43478458Y60445181D02*
X43383220Y60445181D01*
X43383220Y60445181D02*
X43240363Y60492800D01*
X43240363Y60492800D02*
X43192744Y60540420D01*
X43192744Y60540420D02*
X43192744Y60873753D01*
X43192744Y60873753D02*
X43383220Y60873753D01*
X43002268Y60349943D02*
X42240363Y60349943D01*
X42097505Y61445181D02*
X41478458Y61445181D01*
X41478458Y61445181D02*
X41811791Y61064229D01*
X41811791Y61064229D02*
X41668934Y61064229D01*
X41668934Y61064229D02*
X41573696Y61016610D01*
X41573696Y61016610D02*
X41526077Y60968991D01*
X41526077Y60968991D02*
X41478458Y60873753D01*
X41478458Y60873753D02*
X41478458Y60635658D01*
X41478458Y60635658D02*
X41526077Y60540420D01*
X41526077Y60540420D02*
X41573696Y60492800D01*
X41573696Y60492800D02*
X41668934Y60445181D01*
X41668934Y60445181D02*
X41954648Y60445181D01*
X41954648Y60445181D02*
X42049886Y60492800D01*
X42049886Y60492800D02*
X42097505Y60540420D01*
X41192743Y61445181D02*
X40859410Y60445181D01*
X40859410Y60445181D02*
X40526077Y61445181D01*
X40287981Y61445181D02*
X39668934Y61445181D01*
X39668934Y61445181D02*
X40002267Y61064229D01*
X40002267Y61064229D02*
X39859410Y61064229D01*
X39859410Y61064229D02*
X39764172Y61016610D01*
X39764172Y61016610D02*
X39716553Y60968991D01*
X39716553Y60968991D02*
X39668934Y60873753D01*
X39668934Y60873753D02*
X39668934Y60635658D01*
X39668934Y60635658D02*
X39716553Y60540420D01*
X39716553Y60540420D02*
X39764172Y60492800D01*
X39764172Y60492800D02*
X39859410Y60445181D01*
X39859410Y60445181D02*
X40145124Y60445181D01*
X40145124Y60445181D02*
X40240362Y60492800D01*
X40240362Y60492800D02*
X40287981Y60540420D01*
X45526077Y58905181D02*
X44954649Y58905181D01*
X45240363Y57905181D02*
X45240363Y58905181D01*
X44668934Y58190896D02*
X44192744Y58190896D01*
X44764172Y57905181D02*
X44430839Y58905181D01*
X44430839Y58905181D02*
X44097506Y57905181D01*
X43240363Y58857562D02*
X43335601Y58905181D01*
X43335601Y58905181D02*
X43478458Y58905181D01*
X43478458Y58905181D02*
X43621315Y58857562D01*
X43621315Y58857562D02*
X43716553Y58762324D01*
X43716553Y58762324D02*
X43764172Y58667086D01*
X43764172Y58667086D02*
X43811791Y58476610D01*
X43811791Y58476610D02*
X43811791Y58333753D01*
X43811791Y58333753D02*
X43764172Y58143277D01*
X43764172Y58143277D02*
X43716553Y58048039D01*
X43716553Y58048039D02*
X43621315Y57952800D01*
X43621315Y57952800D02*
X43478458Y57905181D01*
X43478458Y57905181D02*
X43383220Y57905181D01*
X43383220Y57905181D02*
X43240363Y57952800D01*
X43240363Y57952800D02*
X43192744Y58000420D01*
X43192744Y58000420D02*
X43192744Y58333753D01*
X43192744Y58333753D02*
X43383220Y58333753D01*
X43002268Y57809943D02*
X42240363Y57809943D01*
X42002267Y57905181D02*
X42002267Y58905181D01*
X42002267Y58905181D02*
X41668934Y58190896D01*
X41668934Y58190896D02*
X41335601Y58905181D01*
X41335601Y58905181D02*
X41335601Y57905181D01*
X40859410Y57905181D02*
X40859410Y58905181D01*
X39811792Y57905181D02*
X40145125Y58381372D01*
X40383220Y57905181D02*
X40383220Y58905181D01*
X40383220Y58905181D02*
X40002268Y58905181D01*
X40002268Y58905181D02*
X39907030Y58857562D01*
X39907030Y58857562D02*
X39859411Y58809943D01*
X39859411Y58809943D02*
X39811792Y58714705D01*
X39811792Y58714705D02*
X39811792Y58571848D01*
X39811792Y58571848D02*
X39859411Y58476610D01*
X39859411Y58476610D02*
X39907030Y58428991D01*
X39907030Y58428991D02*
X40002268Y58381372D01*
X40002268Y58381372D02*
X40383220Y58381372D01*
X38811792Y57905181D02*
X39145125Y58381372D01*
X39383220Y57905181D02*
X39383220Y58905181D01*
X39383220Y58905181D02*
X39002268Y58905181D01*
X39002268Y58905181D02*
X38907030Y58857562D01*
X38907030Y58857562D02*
X38859411Y58809943D01*
X38859411Y58809943D02*
X38811792Y58714705D01*
X38811792Y58714705D02*
X38811792Y58571848D01*
X38811792Y58571848D02*
X38859411Y58476610D01*
X38859411Y58476610D02*
X38907030Y58428991D01*
X38907030Y58428991D02*
X39002268Y58381372D01*
X39002268Y58381372D02*
X39383220Y58381372D01*
X38192744Y58905181D02*
X38002268Y58905181D01*
X38002268Y58905181D02*
X37907030Y58857562D01*
X37907030Y58857562D02*
X37811792Y58762324D01*
X37811792Y58762324D02*
X37764173Y58571848D01*
X37764173Y58571848D02*
X37764173Y58238515D01*
X37764173Y58238515D02*
X37811792Y58048039D01*
X37811792Y58048039D02*
X37907030Y57952800D01*
X37907030Y57952800D02*
X38002268Y57905181D01*
X38002268Y57905181D02*
X38192744Y57905181D01*
X38192744Y57905181D02*
X38287982Y57952800D01*
X38287982Y57952800D02*
X38383220Y58048039D01*
X38383220Y58048039D02*
X38430839Y58238515D01*
X38430839Y58238515D02*
X38430839Y58571848D01*
X38430839Y58571848D02*
X38383220Y58762324D01*
X38383220Y58762324D02*
X38287982Y58857562D01*
X38287982Y58857562D02*
X38192744Y58905181D01*
X36764173Y57905181D02*
X37097506Y58381372D01*
X37335601Y57905181D02*
X37335601Y58905181D01*
X37335601Y58905181D02*
X36954649Y58905181D01*
X36954649Y58905181D02*
X36859411Y58857562D01*
X36859411Y58857562D02*
X36811792Y58809943D01*
X36811792Y58809943D02*
X36764173Y58714705D01*
X36764173Y58714705D02*
X36764173Y58571848D01*
X36764173Y58571848D02*
X36811792Y58476610D01*
X36811792Y58476610D02*
X36859411Y58428991D01*
X36859411Y58428991D02*
X36954649Y58381372D01*
X36954649Y58381372D02*
X37335601Y58381372D01*
X45526077Y48745181D02*
X44954649Y48745181D01*
X45240363Y47745181D02*
X45240363Y48745181D01*
X44668934Y48030896D02*
X44192744Y48030896D01*
X44764172Y47745181D02*
X44430839Y48745181D01*
X44430839Y48745181D02*
X44097506Y47745181D01*
X43240363Y48697562D02*
X43335601Y48745181D01*
X43335601Y48745181D02*
X43478458Y48745181D01*
X43478458Y48745181D02*
X43621315Y48697562D01*
X43621315Y48697562D02*
X43716553Y48602324D01*
X43716553Y48602324D02*
X43764172Y48507086D01*
X43764172Y48507086D02*
X43811791Y48316610D01*
X43811791Y48316610D02*
X43811791Y48173753D01*
X43811791Y48173753D02*
X43764172Y47983277D01*
X43764172Y47983277D02*
X43716553Y47888039D01*
X43716553Y47888039D02*
X43621315Y47792800D01*
X43621315Y47792800D02*
X43478458Y47745181D01*
X43478458Y47745181D02*
X43383220Y47745181D01*
X43383220Y47745181D02*
X43240363Y47792800D01*
X43240363Y47792800D02*
X43192744Y47840420D01*
X43192744Y47840420D02*
X43192744Y48173753D01*
X43192744Y48173753D02*
X43383220Y48173753D01*
X43002268Y47649943D02*
X42240363Y47649943D01*
X41478458Y47745181D02*
X42049886Y47745181D01*
X41764172Y47745181D02*
X41764172Y48745181D01*
X41764172Y48745181D02*
X41859410Y48602324D01*
X41859410Y48602324D02*
X41954648Y48507086D01*
X41954648Y48507086D02*
X42049886Y48459467D01*
X41192743Y48745181D02*
X40859410Y47745181D01*
X40859410Y47745181D02*
X40526077Y48745181D01*
X40049886Y48316610D02*
X40145124Y48364229D01*
X40145124Y48364229D02*
X40192743Y48411848D01*
X40192743Y48411848D02*
X40240362Y48507086D01*
X40240362Y48507086D02*
X40240362Y48554705D01*
X40240362Y48554705D02*
X40192743Y48649943D01*
X40192743Y48649943D02*
X40145124Y48697562D01*
X40145124Y48697562D02*
X40049886Y48745181D01*
X40049886Y48745181D02*
X39859410Y48745181D01*
X39859410Y48745181D02*
X39764172Y48697562D01*
X39764172Y48697562D02*
X39716553Y48649943D01*
X39716553Y48649943D02*
X39668934Y48554705D01*
X39668934Y48554705D02*
X39668934Y48507086D01*
X39668934Y48507086D02*
X39716553Y48411848D01*
X39716553Y48411848D02*
X39764172Y48364229D01*
X39764172Y48364229D02*
X39859410Y48316610D01*
X39859410Y48316610D02*
X40049886Y48316610D01*
X40049886Y48316610D02*
X40145124Y48268991D01*
X40145124Y48268991D02*
X40192743Y48221372D01*
X40192743Y48221372D02*
X40240362Y48126134D01*
X40240362Y48126134D02*
X40240362Y47935658D01*
X40240362Y47935658D02*
X40192743Y47840420D01*
X40192743Y47840420D02*
X40145124Y47792800D01*
X40145124Y47792800D02*
X40049886Y47745181D01*
X40049886Y47745181D02*
X39859410Y47745181D01*
X39859410Y47745181D02*
X39764172Y47792800D01*
X39764172Y47792800D02*
X39716553Y47840420D01*
X39716553Y47840420D02*
X39668934Y47935658D01*
X39668934Y47935658D02*
X39668934Y48126134D01*
X39668934Y48126134D02*
X39716553Y48221372D01*
X39716553Y48221372D02*
X39764172Y48268991D01*
X39764172Y48268991D02*
X39859410Y48316610D01*
X45383220Y42665181D02*
X45383220Y43665181D01*
X45383220Y43665181D02*
X45002268Y43665181D01*
X45002268Y43665181D02*
X44907030Y43617562D01*
X44907030Y43617562D02*
X44859411Y43569943D01*
X44859411Y43569943D02*
X44811792Y43474705D01*
X44811792Y43474705D02*
X44811792Y43331848D01*
X44811792Y43331848D02*
X44859411Y43236610D01*
X44859411Y43236610D02*
X44907030Y43188991D01*
X44907030Y43188991D02*
X45002268Y43141372D01*
X45002268Y43141372D02*
X45383220Y43141372D01*
X44430839Y42950896D02*
X43954649Y42950896D01*
X44526077Y42665181D02*
X44192744Y43665181D01*
X44192744Y43665181D02*
X43859411Y42665181D01*
X43002268Y42665181D02*
X43573696Y42665181D01*
X43287982Y42665181D02*
X43287982Y43665181D01*
X43287982Y43665181D02*
X43383220Y43522324D01*
X43383220Y43522324D02*
X43478458Y43427086D01*
X43478458Y43427086D02*
X43573696Y43379467D01*
X42097506Y43665181D02*
X42573696Y43665181D01*
X42573696Y43665181D02*
X42621315Y43188991D01*
X42621315Y43188991D02*
X42573696Y43236610D01*
X42573696Y43236610D02*
X42478458Y43284229D01*
X42478458Y43284229D02*
X42240363Y43284229D01*
X42240363Y43284229D02*
X42145125Y43236610D01*
X42145125Y43236610D02*
X42097506Y43188991D01*
X42097506Y43188991D02*
X42049887Y43093753D01*
X42049887Y43093753D02*
X42049887Y42855658D01*
X42049887Y42855658D02*
X42097506Y42760420D01*
X42097506Y42760420D02*
X42145125Y42712800D01*
X42145125Y42712800D02*
X42240363Y42665181D01*
X42240363Y42665181D02*
X42478458Y42665181D01*
X42478458Y42665181D02*
X42573696Y42712800D01*
X42573696Y42712800D02*
X42621315Y42760420D01*
X45383220Y40125181D02*
X45383220Y41125181D01*
X45383220Y41125181D02*
X45002268Y41125181D01*
X45002268Y41125181D02*
X44907030Y41077562D01*
X44907030Y41077562D02*
X44859411Y41029943D01*
X44859411Y41029943D02*
X44811792Y40934705D01*
X44811792Y40934705D02*
X44811792Y40791848D01*
X44811792Y40791848D02*
X44859411Y40696610D01*
X44859411Y40696610D02*
X44907030Y40648991D01*
X44907030Y40648991D02*
X45002268Y40601372D01*
X45002268Y40601372D02*
X45383220Y40601372D01*
X44430839Y40410896D02*
X43954649Y40410896D01*
X44526077Y40125181D02*
X44192744Y41125181D01*
X44192744Y41125181D02*
X43859411Y40125181D01*
X43002268Y40125181D02*
X43573696Y40125181D01*
X43287982Y40125181D02*
X43287982Y41125181D01*
X43287982Y41125181D02*
X43383220Y40982324D01*
X43383220Y40982324D02*
X43478458Y40887086D01*
X43478458Y40887086D02*
X43573696Y40839467D01*
X42621315Y41029943D02*
X42573696Y41077562D01*
X42573696Y41077562D02*
X42478458Y41125181D01*
X42478458Y41125181D02*
X42240363Y41125181D01*
X42240363Y41125181D02*
X42145125Y41077562D01*
X42145125Y41077562D02*
X42097506Y41029943D01*
X42097506Y41029943D02*
X42049887Y40934705D01*
X42049887Y40934705D02*
X42049887Y40839467D01*
X42049887Y40839467D02*
X42097506Y40696610D01*
X42097506Y40696610D02*
X42668934Y40125181D01*
X42668934Y40125181D02*
X42049887Y40125181D01*
X45383220Y37585181D02*
X45383220Y38585181D01*
X45383220Y38585181D02*
X45002268Y38585181D01*
X45002268Y38585181D02*
X44907030Y38537562D01*
X44907030Y38537562D02*
X44859411Y38489943D01*
X44859411Y38489943D02*
X44811792Y38394705D01*
X44811792Y38394705D02*
X44811792Y38251848D01*
X44811792Y38251848D02*
X44859411Y38156610D01*
X44859411Y38156610D02*
X44907030Y38108991D01*
X44907030Y38108991D02*
X45002268Y38061372D01*
X45002268Y38061372D02*
X45383220Y38061372D01*
X44430839Y37870896D02*
X43954649Y37870896D01*
X44526077Y37585181D02*
X44192744Y38585181D01*
X44192744Y38585181D02*
X43859411Y37585181D01*
X43002268Y37585181D02*
X43573696Y37585181D01*
X43287982Y37585181D02*
X43287982Y38585181D01*
X43287982Y38585181D02*
X43383220Y38442324D01*
X43383220Y38442324D02*
X43478458Y38347086D01*
X43478458Y38347086D02*
X43573696Y38299467D01*
X42049887Y37585181D02*
X42621315Y37585181D01*
X42335601Y37585181D02*
X42335601Y38585181D01*
X42335601Y38585181D02*
X42430839Y38442324D01*
X42430839Y38442324D02*
X42526077Y38347086D01*
X42526077Y38347086D02*
X42621315Y38299467D01*
X45383220Y35045181D02*
X45383220Y36045181D01*
X45383220Y36045181D02*
X45002268Y36045181D01*
X45002268Y36045181D02*
X44907030Y35997562D01*
X44907030Y35997562D02*
X44859411Y35949943D01*
X44859411Y35949943D02*
X44811792Y35854705D01*
X44811792Y35854705D02*
X44811792Y35711848D01*
X44811792Y35711848D02*
X44859411Y35616610D01*
X44859411Y35616610D02*
X44907030Y35568991D01*
X44907030Y35568991D02*
X45002268Y35521372D01*
X45002268Y35521372D02*
X45383220Y35521372D01*
X44430839Y35330896D02*
X43954649Y35330896D01*
X44526077Y35045181D02*
X44192744Y36045181D01*
X44192744Y36045181D02*
X43859411Y35045181D01*
X43002268Y35045181D02*
X43573696Y35045181D01*
X43287982Y35045181D02*
X43287982Y36045181D01*
X43287982Y36045181D02*
X43383220Y35902324D01*
X43383220Y35902324D02*
X43478458Y35807086D01*
X43478458Y35807086D02*
X43573696Y35759467D01*
X42383220Y36045181D02*
X42287982Y36045181D01*
X42287982Y36045181D02*
X42192744Y35997562D01*
X42192744Y35997562D02*
X42145125Y35949943D01*
X42145125Y35949943D02*
X42097506Y35854705D01*
X42097506Y35854705D02*
X42049887Y35664229D01*
X42049887Y35664229D02*
X42049887Y35426134D01*
X42049887Y35426134D02*
X42097506Y35235658D01*
X42097506Y35235658D02*
X42145125Y35140420D01*
X42145125Y35140420D02*
X42192744Y35092800D01*
X42192744Y35092800D02*
X42287982Y35045181D01*
X42287982Y35045181D02*
X42383220Y35045181D01*
X42383220Y35045181D02*
X42478458Y35092800D01*
X42478458Y35092800D02*
X42526077Y35140420D01*
X42526077Y35140420D02*
X42573696Y35235658D01*
X42573696Y35235658D02*
X42621315Y35426134D01*
X42621315Y35426134D02*
X42621315Y35664229D01*
X42621315Y35664229D02*
X42573696Y35854705D01*
X42573696Y35854705D02*
X42526077Y35949943D01*
X42526077Y35949943D02*
X42478458Y35997562D01*
X42478458Y35997562D02*
X42383220Y36045181D01*
X45383220Y32505181D02*
X45383220Y33505181D01*
X45383220Y33505181D02*
X45002268Y33505181D01*
X45002268Y33505181D02*
X44907030Y33457562D01*
X44907030Y33457562D02*
X44859411Y33409943D01*
X44859411Y33409943D02*
X44811792Y33314705D01*
X44811792Y33314705D02*
X44811792Y33171848D01*
X44811792Y33171848D02*
X44859411Y33076610D01*
X44859411Y33076610D02*
X44907030Y33028991D01*
X44907030Y33028991D02*
X45002268Y32981372D01*
X45002268Y32981372D02*
X45383220Y32981372D01*
X44430839Y32790896D02*
X43954649Y32790896D01*
X44526077Y32505181D02*
X44192744Y33505181D01*
X44192744Y33505181D02*
X43859411Y32505181D01*
X43478458Y32505181D02*
X43287982Y32505181D01*
X43287982Y32505181D02*
X43192744Y32552800D01*
X43192744Y32552800D02*
X43145125Y32600420D01*
X43145125Y32600420D02*
X43049887Y32743277D01*
X43049887Y32743277D02*
X43002268Y32933753D01*
X43002268Y32933753D02*
X43002268Y33314705D01*
X43002268Y33314705D02*
X43049887Y33409943D01*
X43049887Y33409943D02*
X43097506Y33457562D01*
X43097506Y33457562D02*
X43192744Y33505181D01*
X43192744Y33505181D02*
X43383220Y33505181D01*
X43383220Y33505181D02*
X43478458Y33457562D01*
X43478458Y33457562D02*
X43526077Y33409943D01*
X43526077Y33409943D02*
X43573696Y33314705D01*
X43573696Y33314705D02*
X43573696Y33076610D01*
X43573696Y33076610D02*
X43526077Y32981372D01*
X43526077Y32981372D02*
X43478458Y32933753D01*
X43478458Y32933753D02*
X43383220Y32886134D01*
X43383220Y32886134D02*
X43192744Y32886134D01*
X43192744Y32886134D02*
X43097506Y32933753D01*
X43097506Y32933753D02*
X43049887Y32981372D01*
X43049887Y32981372D02*
X43002268Y33076610D01*
X45383220Y29965181D02*
X45383220Y30965181D01*
X45383220Y30965181D02*
X45002268Y30965181D01*
X45002268Y30965181D02*
X44907030Y30917562D01*
X44907030Y30917562D02*
X44859411Y30869943D01*
X44859411Y30869943D02*
X44811792Y30774705D01*
X44811792Y30774705D02*
X44811792Y30631848D01*
X44811792Y30631848D02*
X44859411Y30536610D01*
X44859411Y30536610D02*
X44907030Y30488991D01*
X44907030Y30488991D02*
X45002268Y30441372D01*
X45002268Y30441372D02*
X45383220Y30441372D01*
X44430839Y30250896D02*
X43954649Y30250896D01*
X44526077Y29965181D02*
X44192744Y30965181D01*
X44192744Y30965181D02*
X43859411Y29965181D01*
X43383220Y30536610D02*
X43478458Y30584229D01*
X43478458Y30584229D02*
X43526077Y30631848D01*
X43526077Y30631848D02*
X43573696Y30727086D01*
X43573696Y30727086D02*
X43573696Y30774705D01*
X43573696Y30774705D02*
X43526077Y30869943D01*
X43526077Y30869943D02*
X43478458Y30917562D01*
X43478458Y30917562D02*
X43383220Y30965181D01*
X43383220Y30965181D02*
X43192744Y30965181D01*
X43192744Y30965181D02*
X43097506Y30917562D01*
X43097506Y30917562D02*
X43049887Y30869943D01*
X43049887Y30869943D02*
X43002268Y30774705D01*
X43002268Y30774705D02*
X43002268Y30727086D01*
X43002268Y30727086D02*
X43049887Y30631848D01*
X43049887Y30631848D02*
X43097506Y30584229D01*
X43097506Y30584229D02*
X43192744Y30536610D01*
X43192744Y30536610D02*
X43383220Y30536610D01*
X43383220Y30536610D02*
X43478458Y30488991D01*
X43478458Y30488991D02*
X43526077Y30441372D01*
X43526077Y30441372D02*
X43573696Y30346134D01*
X43573696Y30346134D02*
X43573696Y30155658D01*
X43573696Y30155658D02*
X43526077Y30060420D01*
X43526077Y30060420D02*
X43478458Y30012800D01*
X43478458Y30012800D02*
X43383220Y29965181D01*
X43383220Y29965181D02*
X43192744Y29965181D01*
X43192744Y29965181D02*
X43097506Y30012800D01*
X43097506Y30012800D02*
X43049887Y30060420D01*
X43049887Y30060420D02*
X43002268Y30155658D01*
X43002268Y30155658D02*
X43002268Y30346134D01*
X43002268Y30346134D02*
X43049887Y30441372D01*
X43049887Y30441372D02*
X43097506Y30488991D01*
X43097506Y30488991D02*
X43192744Y30536610D01*
X45383220Y9645181D02*
X45383220Y10645181D01*
X45383220Y10645181D02*
X45002268Y10645181D01*
X45002268Y10645181D02*
X44907030Y10597562D01*
X44907030Y10597562D02*
X44859411Y10549943D01*
X44859411Y10549943D02*
X44811792Y10454705D01*
X44811792Y10454705D02*
X44811792Y10311848D01*
X44811792Y10311848D02*
X44859411Y10216610D01*
X44859411Y10216610D02*
X44907030Y10168991D01*
X44907030Y10168991D02*
X45002268Y10121372D01*
X45002268Y10121372D02*
X45383220Y10121372D01*
X44049887Y10168991D02*
X43907030Y10121372D01*
X43907030Y10121372D02*
X43859411Y10073753D01*
X43859411Y10073753D02*
X43811792Y9978515D01*
X43811792Y9978515D02*
X43811792Y9835658D01*
X43811792Y9835658D02*
X43859411Y9740420D01*
X43859411Y9740420D02*
X43907030Y9692800D01*
X43907030Y9692800D02*
X44002268Y9645181D01*
X44002268Y9645181D02*
X44383220Y9645181D01*
X44383220Y9645181D02*
X44383220Y10645181D01*
X44383220Y10645181D02*
X44049887Y10645181D01*
X44049887Y10645181D02*
X43954649Y10597562D01*
X43954649Y10597562D02*
X43907030Y10549943D01*
X43907030Y10549943D02*
X43859411Y10454705D01*
X43859411Y10454705D02*
X43859411Y10359467D01*
X43859411Y10359467D02*
X43907030Y10264229D01*
X43907030Y10264229D02*
X43954649Y10216610D01*
X43954649Y10216610D02*
X44049887Y10168991D01*
X44049887Y10168991D02*
X44383220Y10168991D01*
X42859411Y9645181D02*
X43430839Y9645181D01*
X43145125Y9645181D02*
X43145125Y10645181D01*
X43145125Y10645181D02*
X43240363Y10502324D01*
X43240363Y10502324D02*
X43335601Y10407086D01*
X43335601Y10407086D02*
X43430839Y10359467D01*
X44859411Y8057562D02*
X44954649Y8105181D01*
X44954649Y8105181D02*
X45097506Y8105181D01*
X45097506Y8105181D02*
X45240363Y8057562D01*
X45240363Y8057562D02*
X45335601Y7962324D01*
X45335601Y7962324D02*
X45383220Y7867086D01*
X45383220Y7867086D02*
X45430839Y7676610D01*
X45430839Y7676610D02*
X45430839Y7533753D01*
X45430839Y7533753D02*
X45383220Y7343277D01*
X45383220Y7343277D02*
X45335601Y7248039D01*
X45335601Y7248039D02*
X45240363Y7152800D01*
X45240363Y7152800D02*
X45097506Y7105181D01*
X45097506Y7105181D02*
X45002268Y7105181D01*
X45002268Y7105181D02*
X44859411Y7152800D01*
X44859411Y7152800D02*
X44811792Y7200420D01*
X44811792Y7200420D02*
X44811792Y7533753D01*
X44811792Y7533753D02*
X45002268Y7533753D01*
X44383220Y7105181D02*
X44383220Y8105181D01*
X44383220Y8105181D02*
X43811792Y7105181D01*
X43811792Y7105181D02*
X43811792Y8105181D01*
X43335601Y7105181D02*
X43335601Y8105181D01*
X43335601Y8105181D02*
X43097506Y8105181D01*
X43097506Y8105181D02*
X42954649Y8057562D01*
X42954649Y8057562D02*
X42859411Y7962324D01*
X42859411Y7962324D02*
X42811792Y7867086D01*
X42811792Y7867086D02*
X42764173Y7676610D01*
X42764173Y7676610D02*
X42764173Y7533753D01*
X42764173Y7533753D02*
X42811792Y7343277D01*
X42811792Y7343277D02*
X42859411Y7248039D01*
X42859411Y7248039D02*
X42954649Y7152800D01*
X42954649Y7152800D02*
X43097506Y7105181D01*
X43097506Y7105181D02*
X43335601Y7105181D01*
X10432969Y47745181D02*
X10432969Y48745181D01*
X10432969Y48745181D02*
X10052017Y48745181D01*
X10052017Y48745181D02*
X9956779Y48697562D01*
X9956779Y48697562D02*
X9909160Y48649943D01*
X9909160Y48649943D02*
X9861541Y48554705D01*
X9861541Y48554705D02*
X9861541Y48411848D01*
X9861541Y48411848D02*
X9909160Y48316610D01*
X9909160Y48316610D02*
X9956779Y48268991D01*
X9956779Y48268991D02*
X10052017Y48221372D01*
X10052017Y48221372D02*
X10432969Y48221372D01*
X9099636Y48268991D02*
X8956779Y48221372D01*
X8956779Y48221372D02*
X8909160Y48173753D01*
X8909160Y48173753D02*
X8861541Y48078515D01*
X8861541Y48078515D02*
X8861541Y47935658D01*
X8861541Y47935658D02*
X8909160Y47840420D01*
X8909160Y47840420D02*
X8956779Y47792800D01*
X8956779Y47792800D02*
X9052017Y47745181D01*
X9052017Y47745181D02*
X9432969Y47745181D01*
X9432969Y47745181D02*
X9432969Y48745181D01*
X9432969Y48745181D02*
X9099636Y48745181D01*
X9099636Y48745181D02*
X9004398Y48697562D01*
X9004398Y48697562D02*
X8956779Y48649943D01*
X8956779Y48649943D02*
X8909160Y48554705D01*
X8909160Y48554705D02*
X8909160Y48459467D01*
X8909160Y48459467D02*
X8956779Y48364229D01*
X8956779Y48364229D02*
X9004398Y48316610D01*
X9004398Y48316610D02*
X9099636Y48268991D01*
X9099636Y48268991D02*
X9432969Y48268991D01*
X8004398Y48411848D02*
X8004398Y47745181D01*
X8242493Y48792800D02*
X8480588Y48078515D01*
X8480588Y48078515D02*
X7861541Y48078515D01*
X10432969Y45205181D02*
X10432969Y46205181D01*
X10432969Y46205181D02*
X10052017Y46205181D01*
X10052017Y46205181D02*
X9956779Y46157562D01*
X9956779Y46157562D02*
X9909160Y46109943D01*
X9909160Y46109943D02*
X9861541Y46014705D01*
X9861541Y46014705D02*
X9861541Y45871848D01*
X9861541Y45871848D02*
X9909160Y45776610D01*
X9909160Y45776610D02*
X9956779Y45728991D01*
X9956779Y45728991D02*
X10052017Y45681372D01*
X10052017Y45681372D02*
X10432969Y45681372D01*
X9099636Y45728991D02*
X8956779Y45681372D01*
X8956779Y45681372D02*
X8909160Y45633753D01*
X8909160Y45633753D02*
X8861541Y45538515D01*
X8861541Y45538515D02*
X8861541Y45395658D01*
X8861541Y45395658D02*
X8909160Y45300420D01*
X8909160Y45300420D02*
X8956779Y45252800D01*
X8956779Y45252800D02*
X9052017Y45205181D01*
X9052017Y45205181D02*
X9432969Y45205181D01*
X9432969Y45205181D02*
X9432969Y46205181D01*
X9432969Y46205181D02*
X9099636Y46205181D01*
X9099636Y46205181D02*
X9004398Y46157562D01*
X9004398Y46157562D02*
X8956779Y46109943D01*
X8956779Y46109943D02*
X8909160Y46014705D01*
X8909160Y46014705D02*
X8909160Y45919467D01*
X8909160Y45919467D02*
X8956779Y45824229D01*
X8956779Y45824229D02*
X9004398Y45776610D01*
X9004398Y45776610D02*
X9099636Y45728991D01*
X9099636Y45728991D02*
X9432969Y45728991D01*
X7956779Y46205181D02*
X8432969Y46205181D01*
X8432969Y46205181D02*
X8480588Y45728991D01*
X8480588Y45728991D02*
X8432969Y45776610D01*
X8432969Y45776610D02*
X8337731Y45824229D01*
X8337731Y45824229D02*
X8099636Y45824229D01*
X8099636Y45824229D02*
X8004398Y45776610D01*
X8004398Y45776610D02*
X7956779Y45728991D01*
X7956779Y45728991D02*
X7909160Y45633753D01*
X7909160Y45633753D02*
X7909160Y45395658D01*
X7909160Y45395658D02*
X7956779Y45300420D01*
X7956779Y45300420D02*
X8004398Y45252800D01*
X8004398Y45252800D02*
X8099636Y45205181D01*
X8099636Y45205181D02*
X8337731Y45205181D01*
X8337731Y45205181D02*
X8432969Y45252800D01*
X8432969Y45252800D02*
X8480588Y45300420D01*
X12480590Y42665181D02*
X12480590Y43331848D01*
X12480590Y43141372D02*
X12432971Y43236610D01*
X12432971Y43236610D02*
X12385352Y43284229D01*
X12385352Y43284229D02*
X12290114Y43331848D01*
X12290114Y43331848D02*
X12194876Y43331848D01*
X12004399Y43331848D02*
X11623447Y43331848D01*
X11861542Y43665181D02*
X11861542Y42808039D01*
X11861542Y42808039D02*
X11813923Y42712800D01*
X11813923Y42712800D02*
X11718685Y42665181D01*
X11718685Y42665181D02*
X11623447Y42665181D01*
X10861542Y42712800D02*
X10956780Y42665181D01*
X10956780Y42665181D02*
X11147256Y42665181D01*
X11147256Y42665181D02*
X11242494Y42712800D01*
X11242494Y42712800D02*
X11290113Y42760420D01*
X11290113Y42760420D02*
X11337732Y42855658D01*
X11337732Y42855658D02*
X11337732Y43141372D01*
X11337732Y43141372D02*
X11290113Y43236610D01*
X11290113Y43236610D02*
X11242494Y43284229D01*
X11242494Y43284229D02*
X11147256Y43331848D01*
X11147256Y43331848D02*
X10956780Y43331848D01*
X10956780Y43331848D02*
X10861542Y43284229D01*
X10671066Y42569943D02*
X9909161Y42569943D01*
X9718684Y42712800D02*
X9623446Y42665181D01*
X9623446Y42665181D02*
X9432970Y42665181D01*
X9432970Y42665181D02*
X9337732Y42712800D01*
X9337732Y42712800D02*
X9290113Y42808039D01*
X9290113Y42808039D02*
X9290113Y42855658D01*
X9290113Y42855658D02*
X9337732Y42950896D01*
X9337732Y42950896D02*
X9432970Y42998515D01*
X9432970Y42998515D02*
X9575827Y42998515D01*
X9575827Y42998515D02*
X9671065Y43046134D01*
X9671065Y43046134D02*
X9718684Y43141372D01*
X9718684Y43141372D02*
X9718684Y43188991D01*
X9718684Y43188991D02*
X9671065Y43284229D01*
X9671065Y43284229D02*
X9575827Y43331848D01*
X9575827Y43331848D02*
X9432970Y43331848D01*
X9432970Y43331848D02*
X9337732Y43284229D01*
X8432970Y42712800D02*
X8528208Y42665181D01*
X8528208Y42665181D02*
X8718684Y42665181D01*
X8718684Y42665181D02*
X8813922Y42712800D01*
X8813922Y42712800D02*
X8861541Y42760420D01*
X8861541Y42760420D02*
X8909160Y42855658D01*
X8909160Y42855658D02*
X8909160Y43141372D01*
X8909160Y43141372D02*
X8861541Y43236610D01*
X8861541Y43236610D02*
X8813922Y43284229D01*
X8813922Y43284229D02*
X8718684Y43331848D01*
X8718684Y43331848D02*
X8528208Y43331848D01*
X8528208Y43331848D02*
X8432970Y43284229D01*
X7861541Y42665181D02*
X7956779Y42712800D01*
X7956779Y42712800D02*
X8004398Y42808039D01*
X8004398Y42808039D02*
X8004398Y43665181D01*
X12909161Y40125181D02*
X12909161Y40791848D01*
X12909161Y40601372D02*
X12861542Y40696610D01*
X12861542Y40696610D02*
X12813923Y40744229D01*
X12813923Y40744229D02*
X12718685Y40791848D01*
X12718685Y40791848D02*
X12623447Y40791848D01*
X12432970Y40791848D02*
X12052018Y40791848D01*
X12290113Y41125181D02*
X12290113Y40268039D01*
X12290113Y40268039D02*
X12242494Y40172800D01*
X12242494Y40172800D02*
X12147256Y40125181D01*
X12147256Y40125181D02*
X12052018Y40125181D01*
X11290113Y40172800D02*
X11385351Y40125181D01*
X11385351Y40125181D02*
X11575827Y40125181D01*
X11575827Y40125181D02*
X11671065Y40172800D01*
X11671065Y40172800D02*
X11718684Y40220420D01*
X11718684Y40220420D02*
X11766303Y40315658D01*
X11766303Y40315658D02*
X11766303Y40601372D01*
X11766303Y40601372D02*
X11718684Y40696610D01*
X11718684Y40696610D02*
X11671065Y40744229D01*
X11671065Y40744229D02*
X11575827Y40791848D01*
X11575827Y40791848D02*
X11385351Y40791848D01*
X11385351Y40791848D02*
X11290113Y40744229D01*
X11099637Y40029943D02*
X10337732Y40029943D01*
X10147255Y40172800D02*
X10052017Y40125181D01*
X10052017Y40125181D02*
X9861541Y40125181D01*
X9861541Y40125181D02*
X9766303Y40172800D01*
X9766303Y40172800D02*
X9718684Y40268039D01*
X9718684Y40268039D02*
X9718684Y40315658D01*
X9718684Y40315658D02*
X9766303Y40410896D01*
X9766303Y40410896D02*
X9861541Y40458515D01*
X9861541Y40458515D02*
X10004398Y40458515D01*
X10004398Y40458515D02*
X10099636Y40506134D01*
X10099636Y40506134D02*
X10147255Y40601372D01*
X10147255Y40601372D02*
X10147255Y40648991D01*
X10147255Y40648991D02*
X10099636Y40744229D01*
X10099636Y40744229D02*
X10004398Y40791848D01*
X10004398Y40791848D02*
X9861541Y40791848D01*
X9861541Y40791848D02*
X9766303Y40744229D01*
X8861541Y40125181D02*
X8861541Y41125181D01*
X8861541Y40172800D02*
X8956779Y40125181D01*
X8956779Y40125181D02*
X9147255Y40125181D01*
X9147255Y40125181D02*
X9242493Y40172800D01*
X9242493Y40172800D02*
X9290112Y40220420D01*
X9290112Y40220420D02*
X9337731Y40315658D01*
X9337731Y40315658D02*
X9337731Y40601372D01*
X9337731Y40601372D02*
X9290112Y40696610D01*
X9290112Y40696610D02*
X9242493Y40744229D01*
X9242493Y40744229D02*
X9147255Y40791848D01*
X9147255Y40791848D02*
X8956779Y40791848D01*
X8956779Y40791848D02*
X8861541Y40744229D01*
X7956779Y40125181D02*
X7956779Y40648991D01*
X7956779Y40648991D02*
X8004398Y40744229D01*
X8004398Y40744229D02*
X8099636Y40791848D01*
X8099636Y40791848D02*
X8290112Y40791848D01*
X8290112Y40791848D02*
X8385350Y40744229D01*
X7956779Y40172800D02*
X8052017Y40125181D01*
X8052017Y40125181D02*
X8290112Y40125181D01*
X8290112Y40125181D02*
X8385350Y40172800D01*
X8385350Y40172800D02*
X8432969Y40268039D01*
X8432969Y40268039D02*
X8432969Y40363277D01*
X8432969Y40363277D02*
X8385350Y40458515D01*
X8385350Y40458515D02*
X8290112Y40506134D01*
X8290112Y40506134D02*
X8052017Y40506134D01*
X8052017Y40506134D02*
X7956779Y40553753D01*
X10290112Y29965181D02*
X10290112Y30965181D01*
X10290112Y30965181D02*
X9909160Y30965181D01*
X9909160Y30965181D02*
X9813922Y30917562D01*
X9813922Y30917562D02*
X9766303Y30869943D01*
X9766303Y30869943D02*
X9718684Y30774705D01*
X9718684Y30774705D02*
X9718684Y30631848D01*
X9718684Y30631848D02*
X9766303Y30536610D01*
X9766303Y30536610D02*
X9813922Y30488991D01*
X9813922Y30488991D02*
X9909160Y30441372D01*
X9909160Y30441372D02*
X10290112Y30441372D01*
X9337731Y30250896D02*
X8861541Y30250896D01*
X9432969Y29965181D02*
X9099636Y30965181D01*
X9099636Y30965181D02*
X8766303Y29965181D01*
X8242493Y30965181D02*
X8147255Y30965181D01*
X8147255Y30965181D02*
X8052017Y30917562D01*
X8052017Y30917562D02*
X8004398Y30869943D01*
X8004398Y30869943D02*
X7956779Y30774705D01*
X7956779Y30774705D02*
X7909160Y30584229D01*
X7909160Y30584229D02*
X7909160Y30346134D01*
X7909160Y30346134D02*
X7956779Y30155658D01*
X7956779Y30155658D02*
X8004398Y30060420D01*
X8004398Y30060420D02*
X8052017Y30012800D01*
X8052017Y30012800D02*
X8147255Y29965181D01*
X8147255Y29965181D02*
X8242493Y29965181D01*
X8242493Y29965181D02*
X8337731Y30012800D01*
X8337731Y30012800D02*
X8385350Y30060420D01*
X8385350Y30060420D02*
X8432969Y30155658D01*
X8432969Y30155658D02*
X8480588Y30346134D01*
X8480588Y30346134D02*
X8480588Y30584229D01*
X8480588Y30584229D02*
X8432969Y30774705D01*
X8432969Y30774705D02*
X8385350Y30869943D01*
X8385350Y30869943D02*
X8337731Y30917562D01*
X8337731Y30917562D02*
X8242493Y30965181D01*
X10290112Y27425181D02*
X10290112Y28425181D01*
X10290112Y28425181D02*
X9909160Y28425181D01*
X9909160Y28425181D02*
X9813922Y28377562D01*
X9813922Y28377562D02*
X9766303Y28329943D01*
X9766303Y28329943D02*
X9718684Y28234705D01*
X9718684Y28234705D02*
X9718684Y28091848D01*
X9718684Y28091848D02*
X9766303Y27996610D01*
X9766303Y27996610D02*
X9813922Y27948991D01*
X9813922Y27948991D02*
X9909160Y27901372D01*
X9909160Y27901372D02*
X10290112Y27901372D01*
X9337731Y27710896D02*
X8861541Y27710896D01*
X9432969Y27425181D02*
X9099636Y28425181D01*
X9099636Y28425181D02*
X8766303Y27425181D01*
X7909160Y27425181D02*
X8480588Y27425181D01*
X8194874Y27425181D02*
X8194874Y28425181D01*
X8194874Y28425181D02*
X8290112Y28282324D01*
X8290112Y28282324D02*
X8385350Y28187086D01*
X8385350Y28187086D02*
X8480588Y28139467D01*
X10290112Y24885181D02*
X10290112Y25885181D01*
X10290112Y25885181D02*
X9909160Y25885181D01*
X9909160Y25885181D02*
X9813922Y25837562D01*
X9813922Y25837562D02*
X9766303Y25789943D01*
X9766303Y25789943D02*
X9718684Y25694705D01*
X9718684Y25694705D02*
X9718684Y25551848D01*
X9718684Y25551848D02*
X9766303Y25456610D01*
X9766303Y25456610D02*
X9813922Y25408991D01*
X9813922Y25408991D02*
X9909160Y25361372D01*
X9909160Y25361372D02*
X10290112Y25361372D01*
X9337731Y25170896D02*
X8861541Y25170896D01*
X9432969Y24885181D02*
X9099636Y25885181D01*
X9099636Y25885181D02*
X8766303Y24885181D01*
X8480588Y25789943D02*
X8432969Y25837562D01*
X8432969Y25837562D02*
X8337731Y25885181D01*
X8337731Y25885181D02*
X8099636Y25885181D01*
X8099636Y25885181D02*
X8004398Y25837562D01*
X8004398Y25837562D02*
X7956779Y25789943D01*
X7956779Y25789943D02*
X7909160Y25694705D01*
X7909160Y25694705D02*
X7909160Y25599467D01*
X7909160Y25599467D02*
X7956779Y25456610D01*
X7956779Y25456610D02*
X8528207Y24885181D01*
X8528207Y24885181D02*
X7909160Y24885181D01*
X10290112Y22345181D02*
X10290112Y23345181D01*
X10290112Y23345181D02*
X9909160Y23345181D01*
X9909160Y23345181D02*
X9813922Y23297562D01*
X9813922Y23297562D02*
X9766303Y23249943D01*
X9766303Y23249943D02*
X9718684Y23154705D01*
X9718684Y23154705D02*
X9718684Y23011848D01*
X9718684Y23011848D02*
X9766303Y22916610D01*
X9766303Y22916610D02*
X9813922Y22868991D01*
X9813922Y22868991D02*
X9909160Y22821372D01*
X9909160Y22821372D02*
X10290112Y22821372D01*
X9337731Y22630896D02*
X8861541Y22630896D01*
X9432969Y22345181D02*
X9099636Y23345181D01*
X9099636Y23345181D02*
X8766303Y22345181D01*
X8528207Y23345181D02*
X7909160Y23345181D01*
X7909160Y23345181D02*
X8242493Y22964229D01*
X8242493Y22964229D02*
X8099636Y22964229D01*
X8099636Y22964229D02*
X8004398Y22916610D01*
X8004398Y22916610D02*
X7956779Y22868991D01*
X7956779Y22868991D02*
X7909160Y22773753D01*
X7909160Y22773753D02*
X7909160Y22535658D01*
X7909160Y22535658D02*
X7956779Y22440420D01*
X7956779Y22440420D02*
X8004398Y22392800D01*
X8004398Y22392800D02*
X8099636Y22345181D01*
X8099636Y22345181D02*
X8385350Y22345181D01*
X8385350Y22345181D02*
X8480588Y22392800D01*
X8480588Y22392800D02*
X8528207Y22440420D01*
X10290112Y19805181D02*
X10290112Y20805181D01*
X10290112Y20805181D02*
X9909160Y20805181D01*
X9909160Y20805181D02*
X9813922Y20757562D01*
X9813922Y20757562D02*
X9766303Y20709943D01*
X9766303Y20709943D02*
X9718684Y20614705D01*
X9718684Y20614705D02*
X9718684Y20471848D01*
X9718684Y20471848D02*
X9766303Y20376610D01*
X9766303Y20376610D02*
X9813922Y20328991D01*
X9813922Y20328991D02*
X9909160Y20281372D01*
X9909160Y20281372D02*
X10290112Y20281372D01*
X9337731Y20090896D02*
X8861541Y20090896D01*
X9432969Y19805181D02*
X9099636Y20805181D01*
X9099636Y20805181D02*
X8766303Y19805181D01*
X8004398Y20471848D02*
X8004398Y19805181D01*
X8242493Y20852800D02*
X8480588Y20138515D01*
X8480588Y20138515D02*
X7861541Y20138515D01*
X10290112Y17265181D02*
X10290112Y18265181D01*
X10290112Y18265181D02*
X9909160Y18265181D01*
X9909160Y18265181D02*
X9813922Y18217562D01*
X9813922Y18217562D02*
X9766303Y18169943D01*
X9766303Y18169943D02*
X9718684Y18074705D01*
X9718684Y18074705D02*
X9718684Y17931848D01*
X9718684Y17931848D02*
X9766303Y17836610D01*
X9766303Y17836610D02*
X9813922Y17788991D01*
X9813922Y17788991D02*
X9909160Y17741372D01*
X9909160Y17741372D02*
X10290112Y17741372D01*
X9337731Y17550896D02*
X8861541Y17550896D01*
X9432969Y17265181D02*
X9099636Y18265181D01*
X9099636Y18265181D02*
X8766303Y17265181D01*
X7956779Y18265181D02*
X8432969Y18265181D01*
X8432969Y18265181D02*
X8480588Y17788991D01*
X8480588Y17788991D02*
X8432969Y17836610D01*
X8432969Y17836610D02*
X8337731Y17884229D01*
X8337731Y17884229D02*
X8099636Y17884229D01*
X8099636Y17884229D02*
X8004398Y17836610D01*
X8004398Y17836610D02*
X7956779Y17788991D01*
X7956779Y17788991D02*
X7909160Y17693753D01*
X7909160Y17693753D02*
X7909160Y17455658D01*
X7909160Y17455658D02*
X7956779Y17360420D01*
X7956779Y17360420D02*
X8004398Y17312800D01*
X8004398Y17312800D02*
X8099636Y17265181D01*
X8099636Y17265181D02*
X8337731Y17265181D01*
X8337731Y17265181D02*
X8432969Y17312800D01*
X8432969Y17312800D02*
X8480588Y17360420D01*
X10290112Y14725181D02*
X10290112Y15725181D01*
X10290112Y15725181D02*
X9909160Y15725181D01*
X9909160Y15725181D02*
X9813922Y15677562D01*
X9813922Y15677562D02*
X9766303Y15629943D01*
X9766303Y15629943D02*
X9718684Y15534705D01*
X9718684Y15534705D02*
X9718684Y15391848D01*
X9718684Y15391848D02*
X9766303Y15296610D01*
X9766303Y15296610D02*
X9813922Y15248991D01*
X9813922Y15248991D02*
X9909160Y15201372D01*
X9909160Y15201372D02*
X10290112Y15201372D01*
X9337731Y15010896D02*
X8861541Y15010896D01*
X9432969Y14725181D02*
X9099636Y15725181D01*
X9099636Y15725181D02*
X8766303Y14725181D01*
X8004398Y15725181D02*
X8194874Y15725181D01*
X8194874Y15725181D02*
X8290112Y15677562D01*
X8290112Y15677562D02*
X8337731Y15629943D01*
X8337731Y15629943D02*
X8432969Y15487086D01*
X8432969Y15487086D02*
X8480588Y15296610D01*
X8480588Y15296610D02*
X8480588Y14915658D01*
X8480588Y14915658D02*
X8432969Y14820420D01*
X8432969Y14820420D02*
X8385350Y14772800D01*
X8385350Y14772800D02*
X8290112Y14725181D01*
X8290112Y14725181D02*
X8099636Y14725181D01*
X8099636Y14725181D02*
X8004398Y14772800D01*
X8004398Y14772800D02*
X7956779Y14820420D01*
X7956779Y14820420D02*
X7909160Y14915658D01*
X7909160Y14915658D02*
X7909160Y15153753D01*
X7909160Y15153753D02*
X7956779Y15248991D01*
X7956779Y15248991D02*
X8004398Y15296610D01*
X8004398Y15296610D02*
X8099636Y15344229D01*
X8099636Y15344229D02*
X8290112Y15344229D01*
X8290112Y15344229D02*
X8385350Y15296610D01*
X8385350Y15296610D02*
X8432969Y15248991D01*
X8432969Y15248991D02*
X8480588Y15153753D01*
X10290112Y12185181D02*
X10290112Y13185181D01*
X10290112Y13185181D02*
X9909160Y13185181D01*
X9909160Y13185181D02*
X9813922Y13137562D01*
X9813922Y13137562D02*
X9766303Y13089943D01*
X9766303Y13089943D02*
X9718684Y12994705D01*
X9718684Y12994705D02*
X9718684Y12851848D01*
X9718684Y12851848D02*
X9766303Y12756610D01*
X9766303Y12756610D02*
X9813922Y12708991D01*
X9813922Y12708991D02*
X9909160Y12661372D01*
X9909160Y12661372D02*
X10290112Y12661372D01*
X9337731Y12470896D02*
X8861541Y12470896D01*
X9432969Y12185181D02*
X9099636Y13185181D01*
X9099636Y13185181D02*
X8766303Y12185181D01*
X8528207Y13185181D02*
X7861541Y13185181D01*
X7861541Y13185181D02*
X8290112Y12185181D01*
X10432969Y9645181D02*
X10432969Y10645181D01*
X10432969Y10645181D02*
X10052017Y10645181D01*
X10052017Y10645181D02*
X9956779Y10597562D01*
X9956779Y10597562D02*
X9909160Y10549943D01*
X9909160Y10549943D02*
X9861541Y10454705D01*
X9861541Y10454705D02*
X9861541Y10311848D01*
X9861541Y10311848D02*
X9909160Y10216610D01*
X9909160Y10216610D02*
X9956779Y10168991D01*
X9956779Y10168991D02*
X10052017Y10121372D01*
X10052017Y10121372D02*
X10432969Y10121372D01*
X9099636Y10168991D02*
X8956779Y10121372D01*
X8956779Y10121372D02*
X8909160Y10073753D01*
X8909160Y10073753D02*
X8861541Y9978515D01*
X8861541Y9978515D02*
X8861541Y9835658D01*
X8861541Y9835658D02*
X8909160Y9740420D01*
X8909160Y9740420D02*
X8956779Y9692800D01*
X8956779Y9692800D02*
X9052017Y9645181D01*
X9052017Y9645181D02*
X9432969Y9645181D01*
X9432969Y9645181D02*
X9432969Y10645181D01*
X9432969Y10645181D02*
X9099636Y10645181D01*
X9099636Y10645181D02*
X9004398Y10597562D01*
X9004398Y10597562D02*
X8956779Y10549943D01*
X8956779Y10549943D02*
X8909160Y10454705D01*
X8909160Y10454705D02*
X8909160Y10359467D01*
X8909160Y10359467D02*
X8956779Y10264229D01*
X8956779Y10264229D02*
X9004398Y10216610D01*
X9004398Y10216610D02*
X9099636Y10168991D01*
X9099636Y10168991D02*
X9432969Y10168991D01*
X8242493Y10645181D02*
X8147255Y10645181D01*
X8147255Y10645181D02*
X8052017Y10597562D01*
X8052017Y10597562D02*
X8004398Y10549943D01*
X8004398Y10549943D02*
X7956779Y10454705D01*
X7956779Y10454705D02*
X7909160Y10264229D01*
X7909160Y10264229D02*
X7909160Y10026134D01*
X7909160Y10026134D02*
X7956779Y9835658D01*
X7956779Y9835658D02*
X8004398Y9740420D01*
X8004398Y9740420D02*
X8052017Y9692800D01*
X8052017Y9692800D02*
X8147255Y9645181D01*
X8147255Y9645181D02*
X8242493Y9645181D01*
X8242493Y9645181D02*
X8337731Y9692800D01*
X8337731Y9692800D02*
X8385350Y9740420D01*
X8385350Y9740420D02*
X8432969Y9835658D01*
X8432969Y9835658D02*
X8480588Y10026134D01*
X8480588Y10026134D02*
X8480588Y10264229D01*
X8480588Y10264229D02*
X8432969Y10454705D01*
X8432969Y10454705D02*
X8385350Y10549943D01*
X8385350Y10549943D02*
X8337731Y10597562D01*
X8337731Y10597562D02*
X8242493Y10645181D01*
X10004398Y8057562D02*
X10099636Y8105181D01*
X10099636Y8105181D02*
X10242493Y8105181D01*
X10242493Y8105181D02*
X10385350Y8057562D01*
X10385350Y8057562D02*
X10480588Y7962324D01*
X10480588Y7962324D02*
X10528207Y7867086D01*
X10528207Y7867086D02*
X10575826Y7676610D01*
X10575826Y7676610D02*
X10575826Y7533753D01*
X10575826Y7533753D02*
X10528207Y7343277D01*
X10528207Y7343277D02*
X10480588Y7248039D01*
X10480588Y7248039D02*
X10385350Y7152800D01*
X10385350Y7152800D02*
X10242493Y7105181D01*
X10242493Y7105181D02*
X10147255Y7105181D01*
X10147255Y7105181D02*
X10004398Y7152800D01*
X10004398Y7152800D02*
X9956779Y7200420D01*
X9956779Y7200420D02*
X9956779Y7533753D01*
X9956779Y7533753D02*
X10147255Y7533753D01*
X9528207Y7105181D02*
X9528207Y8105181D01*
X9528207Y8105181D02*
X8956779Y7105181D01*
X8956779Y7105181D02*
X8956779Y8105181D01*
X8480588Y7105181D02*
X8480588Y8105181D01*
X8480588Y8105181D02*
X8242493Y8105181D01*
X8242493Y8105181D02*
X8099636Y8057562D01*
X8099636Y8057562D02*
X8004398Y7962324D01*
X8004398Y7962324D02*
X7956779Y7867086D01*
X7956779Y7867086D02*
X7909160Y7676610D01*
X7909160Y7676610D02*
X7909160Y7533753D01*
X7909160Y7533753D02*
X7956779Y7343277D01*
X7956779Y7343277D02*
X8004398Y7248039D01*
X8004398Y7248039D02*
X8099636Y7152800D01*
X8099636Y7152800D02*
X8242493Y7105181D01*
X8242493Y7105181D02*
X8480588Y7105181D01*
X10029798Y53735962D02*
X10125036Y53783581D01*
X10125036Y53783581D02*
X10267893Y53783581D01*
X10267893Y53783581D02*
X10410750Y53735962D01*
X10410750Y53735962D02*
X10505988Y53640724D01*
X10505988Y53640724D02*
X10553607Y53545486D01*
X10553607Y53545486D02*
X10601226Y53355010D01*
X10601226Y53355010D02*
X10601226Y53212153D01*
X10601226Y53212153D02*
X10553607Y53021677D01*
X10553607Y53021677D02*
X10505988Y52926439D01*
X10505988Y52926439D02*
X10410750Y52831200D01*
X10410750Y52831200D02*
X10267893Y52783581D01*
X10267893Y52783581D02*
X10172655Y52783581D01*
X10172655Y52783581D02*
X10029798Y52831200D01*
X10029798Y52831200D02*
X9982179Y52878820D01*
X9982179Y52878820D02*
X9982179Y53212153D01*
X9982179Y53212153D02*
X10172655Y53212153D01*
X9553607Y52783581D02*
X9553607Y53783581D01*
X9553607Y53783581D02*
X8982179Y52783581D01*
X8982179Y52783581D02*
X8982179Y53783581D01*
X8505988Y52783581D02*
X8505988Y53783581D01*
X8505988Y53783581D02*
X8267893Y53783581D01*
X8267893Y53783581D02*
X8125036Y53735962D01*
X8125036Y53735962D02*
X8029798Y53640724D01*
X8029798Y53640724D02*
X7982179Y53545486D01*
X7982179Y53545486D02*
X7934560Y53355010D01*
X7934560Y53355010D02*
X7934560Y53212153D01*
X7934560Y53212153D02*
X7982179Y53021677D01*
X7982179Y53021677D02*
X8029798Y52926439D01*
X8029798Y52926439D02*
X8125036Y52831200D01*
X8125036Y52831200D02*
X8267893Y52783581D01*
X8267893Y52783581D02*
X8505988Y52783581D01*
X45449409Y45047701D02*
X45449409Y46047701D01*
X45449409Y46047701D02*
X45068457Y46047701D01*
X45068457Y46047701D02*
X44973219Y46000082D01*
X44973219Y46000082D02*
X44925600Y45952463D01*
X44925600Y45952463D02*
X44877981Y45857225D01*
X44877981Y45857225D02*
X44877981Y45714368D01*
X44877981Y45714368D02*
X44925600Y45619130D01*
X44925600Y45619130D02*
X44973219Y45571511D01*
X44973219Y45571511D02*
X45068457Y45523892D01*
X45068457Y45523892D02*
X45449409Y45523892D01*
X44116076Y45571511D02*
X43973219Y45523892D01*
X43973219Y45523892D02*
X43925600Y45476273D01*
X43925600Y45476273D02*
X43877981Y45381035D01*
X43877981Y45381035D02*
X43877981Y45238178D01*
X43877981Y45238178D02*
X43925600Y45142940D01*
X43925600Y45142940D02*
X43973219Y45095320D01*
X43973219Y45095320D02*
X44068457Y45047701D01*
X44068457Y45047701D02*
X44449409Y45047701D01*
X44449409Y45047701D02*
X44449409Y46047701D01*
X44449409Y46047701D02*
X44116076Y46047701D01*
X44116076Y46047701D02*
X44020838Y46000082D01*
X44020838Y46000082D02*
X43973219Y45952463D01*
X43973219Y45952463D02*
X43925600Y45857225D01*
X43925600Y45857225D02*
X43925600Y45761987D01*
X43925600Y45761987D02*
X43973219Y45666749D01*
X43973219Y45666749D02*
X44020838Y45619130D01*
X44020838Y45619130D02*
X44116076Y45571511D01*
X44116076Y45571511D02*
X44449409Y45571511D01*
X43544647Y46047701D02*
X42925600Y46047701D01*
X42925600Y46047701D02*
X43258933Y45666749D01*
X43258933Y45666749D02*
X43116076Y45666749D01*
X43116076Y45666749D02*
X43020838Y45619130D01*
X43020838Y45619130D02*
X42973219Y45571511D01*
X42973219Y45571511D02*
X42925600Y45476273D01*
X42925600Y45476273D02*
X42925600Y45238178D01*
X42925600Y45238178D02*
X42973219Y45142940D01*
X42973219Y45142940D02*
X43020838Y45095320D01*
X43020838Y45095320D02*
X43116076Y45047701D01*
X43116076Y45047701D02*
X43401790Y45047701D01*
X43401790Y45047701D02*
X43497028Y45095320D01*
X43497028Y45095320D02*
X43544647Y45142940D01*
X22992800Y50589161D02*
X22945180Y50732018D01*
X22945180Y50732018D02*
X22945180Y50970113D01*
X22945180Y50970113D02*
X22992800Y51065351D01*
X22992800Y51065351D02*
X23040419Y51112970D01*
X23040419Y51112970D02*
X23135657Y51160589D01*
X23135657Y51160589D02*
X23230895Y51160589D01*
X23230895Y51160589D02*
X23326133Y51112970D01*
X23326133Y51112970D02*
X23373752Y51065351D01*
X23373752Y51065351D02*
X23421371Y50970113D01*
X23421371Y50970113D02*
X23468990Y50779637D01*
X23468990Y50779637D02*
X23516609Y50684399D01*
X23516609Y50684399D02*
X23564228Y50636780D01*
X23564228Y50636780D02*
X23659466Y50589161D01*
X23659466Y50589161D02*
X23754704Y50589161D01*
X23754704Y50589161D02*
X23849942Y50636780D01*
X23849942Y50636780D02*
X23897561Y50684399D01*
X23897561Y50684399D02*
X23945180Y50779637D01*
X23945180Y50779637D02*
X23945180Y51017732D01*
X23945180Y51017732D02*
X23897561Y51160589D01*
X23040419Y52160589D02*
X22992800Y52112970D01*
X22992800Y52112970D02*
X22945180Y51970113D01*
X22945180Y51970113D02*
X22945180Y51874875D01*
X22945180Y51874875D02*
X22992800Y51732018D01*
X22992800Y51732018D02*
X23088038Y51636780D01*
X23088038Y51636780D02*
X23183276Y51589161D01*
X23183276Y51589161D02*
X23373752Y51541542D01*
X23373752Y51541542D02*
X23516609Y51541542D01*
X23516609Y51541542D02*
X23707085Y51589161D01*
X23707085Y51589161D02*
X23802323Y51636780D01*
X23802323Y51636780D02*
X23897561Y51732018D01*
X23897561Y51732018D02*
X23945180Y51874875D01*
X23945180Y51874875D02*
X23945180Y51970113D01*
X23945180Y51970113D02*
X23897561Y52112970D01*
X23897561Y52112970D02*
X23849942Y52160589D01*
X22945180Y53065351D02*
X22945180Y52589161D01*
X22945180Y52589161D02*
X23945180Y52589161D01*
X22945180Y53398685D02*
X23945180Y53398685D01*
X22945180Y53970113D02*
X23516609Y53541542D01*
X23945180Y53970113D02*
X23373752Y53398685D01*
X33992800Y49939161D02*
X33945180Y50082018D01*
X33945180Y50082018D02*
X33945180Y50320113D01*
X33945180Y50320113D02*
X33992800Y50415351D01*
X33992800Y50415351D02*
X34040419Y50462970D01*
X34040419Y50462970D02*
X34135657Y50510589D01*
X34135657Y50510589D02*
X34230895Y50510589D01*
X34230895Y50510589D02*
X34326133Y50462970D01*
X34326133Y50462970D02*
X34373752Y50415351D01*
X34373752Y50415351D02*
X34421371Y50320113D01*
X34421371Y50320113D02*
X34468990Y50129637D01*
X34468990Y50129637D02*
X34516609Y50034399D01*
X34516609Y50034399D02*
X34564228Y49986780D01*
X34564228Y49986780D02*
X34659466Y49939161D01*
X34659466Y49939161D02*
X34754704Y49939161D01*
X34754704Y49939161D02*
X34849942Y49986780D01*
X34849942Y49986780D02*
X34897561Y50034399D01*
X34897561Y50034399D02*
X34945180Y50129637D01*
X34945180Y50129637D02*
X34945180Y50367732D01*
X34945180Y50367732D02*
X34897561Y50510589D01*
X34945180Y50843923D02*
X33945180Y51082018D01*
X33945180Y51082018D02*
X34659466Y51272494D01*
X34659466Y51272494D02*
X33945180Y51462970D01*
X33945180Y51462970D02*
X34945180Y51701065D01*
X33945180Y52082018D02*
X34945180Y52082018D01*
X34945180Y52082018D02*
X34945180Y52320113D01*
X34945180Y52320113D02*
X34897561Y52462970D01*
X34897561Y52462970D02*
X34802323Y52558208D01*
X34802323Y52558208D02*
X34707085Y52605827D01*
X34707085Y52605827D02*
X34516609Y52653446D01*
X34516609Y52653446D02*
X34373752Y52653446D01*
X34373752Y52653446D02*
X34183276Y52605827D01*
X34183276Y52605827D02*
X34088038Y52558208D01*
X34088038Y52558208D02*
X33992800Y52462970D01*
X33992800Y52462970D02*
X33945180Y52320113D01*
X33945180Y52320113D02*
X33945180Y52082018D01*
X33945180Y53082018D02*
X34945180Y53082018D01*
X34945180Y53748684D02*
X34945180Y53939160D01*
X34945180Y53939160D02*
X34897561Y54034398D01*
X34897561Y54034398D02*
X34802323Y54129636D01*
X34802323Y54129636D02*
X34611847Y54177255D01*
X34611847Y54177255D02*
X34278514Y54177255D01*
X34278514Y54177255D02*
X34088038Y54129636D01*
X34088038Y54129636D02*
X33992800Y54034398D01*
X33992800Y54034398D02*
X33945180Y53939160D01*
X33945180Y53939160D02*
X33945180Y53748684D01*
X33945180Y53748684D02*
X33992800Y53653446D01*
X33992800Y53653446D02*
X34088038Y53558208D01*
X34088038Y53558208D02*
X34278514Y53510589D01*
X34278514Y53510589D02*
X34611847Y53510589D01*
X34611847Y53510589D02*
X34802323Y53558208D01*
X34802323Y53558208D02*
X34897561Y53653446D01*
X34897561Y53653446D02*
X34945180Y53748684D01*
D11*
X35332856Y6977701D02*
X35475714Y7049130D01*
X35475714Y7049130D02*
X35689999Y7049130D01*
X35689999Y7049130D02*
X35904285Y6977701D01*
X35904285Y6977701D02*
X36047142Y6834844D01*
X36047142Y6834844D02*
X36118571Y6691987D01*
X36118571Y6691987D02*
X36189999Y6406273D01*
X36189999Y6406273D02*
X36189999Y6191987D01*
X36189999Y6191987D02*
X36118571Y5906273D01*
X36118571Y5906273D02*
X36047142Y5763416D01*
X36047142Y5763416D02*
X35904285Y5620558D01*
X35904285Y5620558D02*
X35689999Y5549130D01*
X35689999Y5549130D02*
X35547142Y5549130D01*
X35547142Y5549130D02*
X35332856Y5620558D01*
X35332856Y5620558D02*
X35261428Y5691987D01*
X35261428Y5691987D02*
X35261428Y6191987D01*
X35261428Y6191987D02*
X35547142Y6191987D01*
X34047142Y5620558D02*
X34189999Y5549130D01*
X34189999Y5549130D02*
X34475714Y5549130D01*
X34475714Y5549130D02*
X34618571Y5620558D01*
X34618571Y5620558D02*
X34689999Y5763416D01*
X34689999Y5763416D02*
X34689999Y6334844D01*
X34689999Y6334844D02*
X34618571Y6477701D01*
X34618571Y6477701D02*
X34475714Y6549130D01*
X34475714Y6549130D02*
X34189999Y6549130D01*
X34189999Y6549130D02*
X34047142Y6477701D01*
X34047142Y6477701D02*
X33975714Y6334844D01*
X33975714Y6334844D02*
X33975714Y6191987D01*
X33975714Y6191987D02*
X34689999Y6049130D01*
X33118571Y5549130D02*
X33261428Y5620558D01*
X33261428Y5620558D02*
X33332857Y5691987D01*
X33332857Y5691987D02*
X33404285Y5834844D01*
X33404285Y5834844D02*
X33404285Y6263416D01*
X33404285Y6263416D02*
X33332857Y6406273D01*
X33332857Y6406273D02*
X33261428Y6477701D01*
X33261428Y6477701D02*
X33118571Y6549130D01*
X33118571Y6549130D02*
X32904285Y6549130D01*
X32904285Y6549130D02*
X32761428Y6477701D01*
X32761428Y6477701D02*
X32690000Y6406273D01*
X32690000Y6406273D02*
X32618571Y6263416D01*
X32618571Y6263416D02*
X32618571Y5834844D01*
X32618571Y5834844D02*
X32690000Y5691987D01*
X32690000Y5691987D02*
X32761428Y5620558D01*
X32761428Y5620558D02*
X32904285Y5549130D01*
X32904285Y5549130D02*
X33118571Y5549130D01*
X32189999Y6549130D02*
X31618571Y6549130D01*
X31975714Y5549130D02*
X31975714Y6834844D01*
X31975714Y6834844D02*
X31904285Y6977701D01*
X31904285Y6977701D02*
X31761428Y7049130D01*
X31761428Y7049130D02*
X31618571Y7049130D01*
X31332856Y6549130D02*
X30761428Y6549130D01*
X31118571Y5549130D02*
X31118571Y6834844D01*
X31118571Y6834844D02*
X31047142Y6977701D01*
X31047142Y6977701D02*
X30904285Y7049130D01*
X30904285Y7049130D02*
X30761428Y7049130D01*
X30261428Y5549130D02*
X30261428Y6549130D01*
X30261428Y6263416D02*
X30189999Y6406273D01*
X30189999Y6406273D02*
X30118571Y6477701D01*
X30118571Y6477701D02*
X29975713Y6549130D01*
X29975713Y6549130D02*
X29832856Y6549130D01*
X28761428Y5620558D02*
X28904285Y5549130D01*
X28904285Y5549130D02*
X29190000Y5549130D01*
X29190000Y5549130D02*
X29332857Y5620558D01*
X29332857Y5620558D02*
X29404285Y5763416D01*
X29404285Y5763416D02*
X29404285Y6334844D01*
X29404285Y6334844D02*
X29332857Y6477701D01*
X29332857Y6477701D02*
X29190000Y6549130D01*
X29190000Y6549130D02*
X28904285Y6549130D01*
X28904285Y6549130D02*
X28761428Y6477701D01*
X28761428Y6477701D02*
X28690000Y6334844D01*
X28690000Y6334844D02*
X28690000Y6191987D01*
X28690000Y6191987D02*
X29404285Y6049130D01*
X28190000Y6549130D02*
X27832857Y5549130D01*
X27475714Y6549130D02*
X27832857Y5549130D01*
X27832857Y5549130D02*
X27975714Y5191987D01*
X27975714Y5191987D02*
X28047143Y5120558D01*
X28047143Y5120558D02*
X28190000Y5049130D01*
X25261429Y6334844D02*
X25047143Y6263416D01*
X25047143Y6263416D02*
X24975714Y6191987D01*
X24975714Y6191987D02*
X24904286Y6049130D01*
X24904286Y6049130D02*
X24904286Y5834844D01*
X24904286Y5834844D02*
X24975714Y5691987D01*
X24975714Y5691987D02*
X25047143Y5620558D01*
X25047143Y5620558D02*
X25190000Y5549130D01*
X25190000Y5549130D02*
X25761429Y5549130D01*
X25761429Y5549130D02*
X25761429Y7049130D01*
X25761429Y7049130D02*
X25261429Y7049130D01*
X25261429Y7049130D02*
X25118572Y6977701D01*
X25118572Y6977701D02*
X25047143Y6906273D01*
X25047143Y6906273D02*
X24975714Y6763416D01*
X24975714Y6763416D02*
X24975714Y6620558D01*
X24975714Y6620558D02*
X25047143Y6477701D01*
X25047143Y6477701D02*
X25118572Y6406273D01*
X25118572Y6406273D02*
X25261429Y6334844D01*
X25261429Y6334844D02*
X25761429Y6334844D01*
X24261429Y5549130D02*
X24261429Y6549130D01*
X24261429Y6263416D02*
X24190000Y6406273D01*
X24190000Y6406273D02*
X24118572Y6477701D01*
X24118572Y6477701D02*
X23975714Y6549130D01*
X23975714Y6549130D02*
X23832857Y6549130D01*
X23118572Y5549130D02*
X23261429Y5620558D01*
X23261429Y5620558D02*
X23332858Y5691987D01*
X23332858Y5691987D02*
X23404286Y5834844D01*
X23404286Y5834844D02*
X23404286Y6263416D01*
X23404286Y6263416D02*
X23332858Y6406273D01*
X23332858Y6406273D02*
X23261429Y6477701D01*
X23261429Y6477701D02*
X23118572Y6549130D01*
X23118572Y6549130D02*
X22904286Y6549130D01*
X22904286Y6549130D02*
X22761429Y6477701D01*
X22761429Y6477701D02*
X22690001Y6406273D01*
X22690001Y6406273D02*
X22618572Y6263416D01*
X22618572Y6263416D02*
X22618572Y5834844D01*
X22618572Y5834844D02*
X22690001Y5691987D01*
X22690001Y5691987D02*
X22761429Y5620558D01*
X22761429Y5620558D02*
X22904286Y5549130D01*
X22904286Y5549130D02*
X23118572Y5549130D01*
X22118572Y6549130D02*
X21832858Y5549130D01*
X21832858Y5549130D02*
X21547143Y6263416D01*
X21547143Y6263416D02*
X21261429Y5549130D01*
X21261429Y5549130D02*
X20975715Y6549130D01*
X20404286Y6549130D02*
X20404286Y5549130D01*
X20404286Y6406273D02*
X20332857Y6477701D01*
X20332857Y6477701D02*
X20190000Y6549130D01*
X20190000Y6549130D02*
X19975714Y6549130D01*
X19975714Y6549130D02*
X19832857Y6477701D01*
X19832857Y6477701D02*
X19761429Y6334844D01*
X19761429Y6334844D02*
X19761429Y5549130D01*
X31368571Y4634214D02*
X31654285Y4634214D01*
X31654285Y4634214D02*
X31797142Y4562785D01*
X31797142Y4562785D02*
X31868571Y4491357D01*
X31868571Y4491357D02*
X32011428Y4277071D01*
X32011428Y4277071D02*
X32082856Y3991357D01*
X32082856Y3991357D02*
X32082856Y3419928D01*
X32082856Y3419928D02*
X32011428Y3277071D01*
X32011428Y3277071D02*
X31939999Y3205642D01*
X31939999Y3205642D02*
X31797142Y3134214D01*
X31797142Y3134214D02*
X31511428Y3134214D01*
X31511428Y3134214D02*
X31368571Y3205642D01*
X31368571Y3205642D02*
X31297142Y3277071D01*
X31297142Y3277071D02*
X31225713Y3419928D01*
X31225713Y3419928D02*
X31225713Y3777071D01*
X31225713Y3777071D02*
X31297142Y3919928D01*
X31297142Y3919928D02*
X31368571Y3991357D01*
X31368571Y3991357D02*
X31511428Y4062785D01*
X31511428Y4062785D02*
X31797142Y4062785D01*
X31797142Y4062785D02*
X31939999Y3991357D01*
X31939999Y3991357D02*
X32011428Y3919928D01*
X32011428Y3919928D02*
X32082856Y3777071D01*
X29511428Y4705642D02*
X30797142Y2777071D01*
X29154285Y4634214D02*
X28154285Y4634214D01*
X28154285Y4634214D02*
X28797142Y3134214D01*
X26511428Y4705642D02*
X27797142Y2777071D01*
X26082856Y4491357D02*
X26011428Y4562785D01*
X26011428Y4562785D02*
X25868571Y4634214D01*
X25868571Y4634214D02*
X25511428Y4634214D01*
X25511428Y4634214D02*
X25368571Y4562785D01*
X25368571Y4562785D02*
X25297142Y4491357D01*
X25297142Y4491357D02*
X25225713Y4348500D01*
X25225713Y4348500D02*
X25225713Y4205642D01*
X25225713Y4205642D02*
X25297142Y3991357D01*
X25297142Y3991357D02*
X26154285Y3134214D01*
X26154285Y3134214D02*
X25225713Y3134214D01*
X23940000Y4634214D02*
X24225714Y4634214D01*
X24225714Y4634214D02*
X24368571Y4562785D01*
X24368571Y4562785D02*
X24440000Y4491357D01*
X24440000Y4491357D02*
X24582857Y4277071D01*
X24582857Y4277071D02*
X24654285Y3991357D01*
X24654285Y3991357D02*
X24654285Y3419928D01*
X24654285Y3419928D02*
X24582857Y3277071D01*
X24582857Y3277071D02*
X24511428Y3205642D01*
X24511428Y3205642D02*
X24368571Y3134214D01*
X24368571Y3134214D02*
X24082857Y3134214D01*
X24082857Y3134214D02*
X23940000Y3205642D01*
X23940000Y3205642D02*
X23868571Y3277071D01*
X23868571Y3277071D02*
X23797142Y3419928D01*
X23797142Y3419928D02*
X23797142Y3777071D01*
X23797142Y3777071D02*
X23868571Y3919928D01*
X23868571Y3919928D02*
X23940000Y3991357D01*
X23940000Y3991357D02*
X24082857Y4062785D01*
X24082857Y4062785D02*
X24368571Y4062785D01*
X24368571Y4062785D02*
X24511428Y3991357D01*
X24511428Y3991357D02*
X24582857Y3919928D01*
X24582857Y3919928D02*
X24654285Y3777071D01*
%TO.C,TP1*%
D12*
X33200000Y51650000D02*
G75*
G02*
X30300000Y51650000I-1450000J0D01*
G01*
X30300000Y51650000D02*
G75*
G02*
X33200000Y51650000I1450000J0D01*
G01*
%TO.C,TP2*%
X27550000Y52200000D02*
G75*
G02*
X24650000Y52200000I-1450000J0D01*
G01*
X24650000Y52200000D02*
G75*
G02*
X27550000Y52200000I1450000J0D01*
G01*
%TD*%
%LPC*%
D13*
%TO.C,J102*%
X15671800Y59664600D03*
X16941800Y59664600D03*
X15671800Y58394600D03*
X16941800Y58394600D03*
X15671800Y57124600D03*
X16941800Y57124600D03*
X15671800Y55854600D03*
X16941800Y55854600D03*
X15671800Y54584600D03*
X16941800Y54584600D03*
%TD*%
D14*
%TO.C,J2*%
X8610600Y58425000D03*
D15*
X8610600Y55885000D03*
%TD*%
D14*
%TO.C,J3*%
X5207000Y48200000D03*
D16*
X4953000Y45660000D03*
X5207000Y43120000D03*
X4953000Y40580000D03*
X5207000Y38040000D03*
X4953000Y35500000D03*
X5207000Y32960000D03*
X4953000Y30420000D03*
X5207000Y27880000D03*
X4953000Y25340000D03*
X5207000Y22800000D03*
X4953000Y20260000D03*
X5207000Y17720000D03*
X4953000Y15180000D03*
X5207000Y12640000D03*
X4953000Y10100000D03*
X5207000Y7560000D03*
%TD*%
D14*
%TO.C,J4*%
X48387000Y48200000D03*
D16*
X48133000Y45660000D03*
X48387000Y43120000D03*
X48133000Y40580000D03*
X48387000Y38040000D03*
X48133000Y35500000D03*
X48387000Y32960000D03*
X48133000Y30420000D03*
X48387000Y27880000D03*
X48133000Y25340000D03*
X48387000Y22800000D03*
X48133000Y20260000D03*
X48387000Y17720000D03*
X48133000Y15180000D03*
X48387000Y12640000D03*
X48133000Y10100000D03*
X48387000Y7560000D03*
%TD*%
D17*
%TO.C,J1*%
X50260000Y56760000D03*
D18*
X48260000Y58360000D03*
D19*
X48260000Y60860000D03*
X48260000Y63360000D03*
X48260000Y65860000D03*
%TD*%
D20*
%TO.C,J104*%
X28175000Y67575000D03*
X23775000Y67575000D03*
%TD*%
D21*
%TO.C,TP1*%
X31750000Y51650000D03*
%TD*%
%TO.C,TP2*%
X26100000Y52200000D03*
%TD*%
%LPD*%
M02*
