M48
; DRILL file KiCad 10.0.2 date 2026-06-09T10:42:52
; FORMAT={-:-/ absolute / inch / decimal}
; #@! TF.CreationDate,2026-06-09T10:42:52-04:00
; #@! TF.GenerationSoftware,Kicad,Pcbnew,10.0.2
; #@! TF.FileFunction,Plated,1,2,PTH
FMAT,2
INCH
; #@! TA.AperFunction,Plated,PTH,ViaDrill
T1C0.0120
; #@! TA.AperFunction,Plated,PTH,ComponentDrill
T2C0.0250
; #@! TA.AperFunction,Plated,PTH,ComponentDrill
T3C0.0374
; #@! TA.AperFunction,Plated,PTH,ComponentDrill
T4C0.0394
%
G90
G05
T1
X0.4232Y0.4547
X0.4331Y0.5571
X0.4626Y0.8307
X0.4626Y0.7323
X0.5098Y0.6575
X0.5157Y0.4409
X0.5413Y0.5512
X0.5669Y0.7283
X0.5748Y1.6909
X0.614Y2.642
X0.622Y0.8327
X0.626Y1.2992
X0.6378Y0.5551
X0.6476Y0.6555
X0.6575Y1.5728
X0.6575Y0.4429
X0.7205Y2.2126
X0.7244Y0.7303
X0.7283Y2.374
X0.7283Y2.3268
X0.7323Y2.2717
X0.7323Y1.3051
X0.7579Y0.4449
X0.7598Y2.3268
X0.7598Y2.248
X0.7598Y2.185
X0.7638Y2.4272
X0.7677Y2.374
X0.7736Y1.4587
X0.787Y2.045
X0.7874Y2.2323
X0.7894Y0.8228
X0.7953Y2.3071
X0.7992Y2.1339
X0.7992Y0.5472
X0.8031Y2.1772
X0.815Y2.3622
X0.815Y0.6555
X0.8228Y2.2835
X0.8228Y2.2283
X0.8248Y1.4252
X0.8425Y2.3346
X0.8484Y0.7303
X0.8504Y2.1772
X0.8543Y2.252
X0.8583Y2.2244
X0.8661Y2.311
X0.876Y1.2953
X0.8898Y2.2874
X0.903Y2.1597
X0.9331Y0.6555
X0.9354Y1.102
X0.937Y2.2362
X0.9429Y0.8248
X0.9528Y2.4882
X0.9652Y2.3202
X0.9665Y0.7303
X0.9681Y2.1789
X0.979Y1.009
X0.9882Y2.4921
X0.996Y1.653
X0.9961Y1.7008
X0.998Y1.7441
X0.999Y1.778
X1.0Y1.1378
X1.01Y1.268
X1.0136Y1.4413
X1.016Y2.259
X1.0176Y2.2952
X1.0197Y1.9724
X1.023Y1.58
X1.0257Y1.1894
X1.0335Y0.8228
X1.0343Y2.3323
X1.044Y1.0758
X1.0472Y1.7087
X1.0472Y1.6614
X1.05Y1.94
X1.065Y1.627
X1.065Y1.541
X1.0789Y1.0099
X1.0809Y2.1299
X1.082Y1.187
X1.0827Y1.0928
X1.0945Y1.5846
X1.101Y1.507
X1.103Y1.743
X1.1145Y2.3035
X1.1201Y2.0433
X1.122Y1.909
X1.125Y2.407
X1.138Y1.3647
X1.145Y1.458
X1.1539Y2.2641
X1.155Y1.659
X1.156Y1.591
X1.157Y1.824
X1.158Y2.233
X1.158Y1.707
X1.159Y2.301
X1.164Y1.269
X1.1713Y1.0571
X1.183Y1.177
X1.1831Y1.5118
X1.1868Y1.9608
X1.211Y1.935
X1.221Y1.689
X1.224Y1.577
X1.2244Y1.0236
X1.225Y1.636
X1.24Y1.452
X1.2579Y0.9705
X1.262Y1.534
X1.263Y1.739
X1.2755Y1.8325
X1.288Y1.404
X1.296Y2.237
X1.301Y2.289
X1.3025Y1.3381
X1.3025Y1.2156
X1.304Y1.8758
X1.306Y1.807
X1.31Y1.484
X1.311Y1.374
X1.315Y0.9072
X1.3386Y1.4016
X1.3386Y1.2717
X1.343Y2.854
X1.344Y2.157
X1.35Y1.451
X1.3622Y1.2402
X1.3622Y1.1969
X1.378Y1.4232
X1.389Y2.191
X1.392Y2.234
X1.393Y2.281
X1.395Y0.942
X1.413Y2.033
X1.422Y2.625
X1.4291Y1.315
X1.433Y2.592
X1.443Y1.7185
X1.488Y2.415
X1.5041Y2.1979
X1.529Y2.816
X1.552Y1.828
X1.563Y2.652
X1.5965Y2.002
X1.5984Y2.0787
X1.6024Y1.9409
X1.721Y2.609
T2
X0.617Y2.349
X0.617Y2.299
X0.617Y2.249
X0.617Y2.199
X0.617Y2.149
X0.667Y2.349
X0.667Y2.299
X0.667Y2.249
X0.667Y2.199
X0.667Y2.149
T3
X1.9Y2.5929
X1.9Y2.4945
X1.9Y2.3961
X1.9Y2.2976
T4
X0.195Y1.7976
X0.195Y1.5976
X0.195Y1.3976
X0.195Y1.1976
X0.195Y0.9976
X0.195Y0.7976
X0.195Y0.5976
X0.195Y0.3976
X0.205Y1.8976
X0.205Y1.6976
X0.205Y1.4976
X0.205Y1.2976
X0.205Y1.0976
X0.205Y0.8976
X0.205Y0.6976
X0.205Y0.4976
X0.205Y0.2976
X0.339Y2.3002
X0.339Y2.2002
X1.895Y1.7976
X1.895Y1.5976
X1.895Y1.3976
X1.895Y1.1976
X1.895Y0.9976
X1.895Y0.7976
X1.895Y0.5976
X1.895Y0.3976
X1.905Y1.8976
X1.905Y1.6976
X1.905Y1.4976
X1.905Y1.2976
X1.905Y1.0976
X1.905Y0.8976
X1.905Y0.6976
X1.905Y0.4976
X1.905Y0.2976
M30
