%TF.GenerationSoftware,KiCad,Pcbnew,10.0.2*%
%TF.CreationDate,2026-06-09T10:42:52-04:00*%
%TF.ProjectId,tag-breakout-l432-u375-lipo-v1,7461672d-6272-4656-916b-6f75742d6c34,rev?*%
%TF.SameCoordinates,Original*%
%TF.FileFunction,Copper,L2,Bot*%
%TF.FilePolarity,Positive*%
%FSLAX46Y46*%
G04 Gerber Fmt 4.6, Leading zero omitted, Abs format (unit mm)*
G04 Created by KiCad (PCBNEW 10.0.2) date 2026-06-09 10:42:52*
%MOMM*%
%LPD*%
G01*
G04 APERTURE LIST*
G04 Aperture macros list*
%AMRoundRect*
0 Rectangle with rounded corners*
0 $1 Rounding radius*
0 $2 $3 $4 $5 $6 $7 $8 $9 X,Y pos of 4 corners*
0 Add a 4 corners polygon primitive as box body*
4,1,4,$2,$3,$4,$5,$6,$7,$8,$9,$2,$3,0*
0 Add four circle primitives for the rounded corners*
1,1,$1+$1,$2,$3*
1,1,$1+$1,$4,$5*
1,1,$1+$1,$6,$7*
1,1,$1+$1,$8,$9*
0 Add four rect primitives between the rounded corners*
20,1,$1+$1,$2,$3,$4,$5,0*
20,1,$1+$1,$4,$5,$6,$7,0*
20,1,$1+$1,$6,$7,$8,$9,0*
20,1,$1+$1,$8,$9,$2,$3,0*%
G04 Aperture macros list end*
%TA.AperFunction,ComponentPad*%
%ADD10C,1.016000*%
%TD*%
%TA.AperFunction,ComponentPad*%
%ADD11R,1.700000X1.700000*%
%TD*%
%TA.AperFunction,ComponentPad*%
%ADD12C,1.700000*%
%TD*%
%TA.AperFunction,ComponentPad*%
%ADD13O,1.700000X1.700000*%
%TD*%
%TA.AperFunction,ComponentPad*%
%ADD14RoundRect,0.250000X0.725000X-0.600000X0.725000X0.600000X-0.725000X0.600000X-0.725000X-0.600000X0*%
%TD*%
%TA.AperFunction,ComponentPad*%
%ADD15O,1.950000X1.700000*%
%TD*%
%TA.AperFunction,SMDPad,CuDef*%
%ADD16C,2.500000*%
%TD*%
%TA.AperFunction,ViaPad*%
%ADD17C,0.660400*%
%TD*%
%TA.AperFunction,Conductor*%
%ADD18C,0.152400*%
%TD*%
%TA.AperFunction,Conductor*%
%ADD19C,0.304800*%
%TD*%
G04 APERTURE END LIST*
D10*
%TO.P,J102,1,Pin_1_1*%
%TO.N,+3V3*%
X15671800Y59664600D03*
%TO.P,J102,2,Pin_2_2*%
%TO.N,/SWDIO*%
X16941800Y59664600D03*
%TO.P,J102,3,Pin_3_3*%
%TO.N,GND*%
X15671800Y58394600D03*
%TO.P,J102,4,Pin_4_4*%
%TO.N,/SCLK*%
X16941800Y58394600D03*
%TO.P,J102,5,Pin_5_5*%
%TO.N,GND*%
X15671800Y57124600D03*
%TO.P,J102,6,Pin_6_6*%
%TO.N,unconnected-(J102-Pin_6-Pad6)*%
X16941800Y57124600D03*
%TO.P,J102,7,Pin_7_7*%
%TO.N,unconnected-(J102-Pin_7-Pad7)*%
X15671800Y55854600D03*
%TO.P,J102,8,Pin_8_8*%
%TO.N,unconnected-(J102-Pin_8-Pad8)*%
X16941800Y55854600D03*
%TO.P,J102,9,Pin_9_9*%
%TO.N,GND*%
X15671800Y54584600D03*
%TO.P,J102,10,Pin_10_10*%
%TO.N,/NRST*%
X16941800Y54584600D03*
%TD*%
D11*
%TO.P,J2,1,Pin_1_1*%
%TO.N,/UART_TX*%
X8610600Y58425000D03*
D12*
%TO.P,J2,2,Pin_2_2*%
%TO.N,GND*%
X8610600Y55885000D03*
%TD*%
D11*
%TO.P,J3,1,Pin_1_1*%
%TO.N,/stm32/PB4*%
X5207000Y48200000D03*
D13*
%TO.P,J3,2,Pin_2_2*%
%TO.N,/stm32/PB5*%
X4953000Y45660000D03*
%TO.P,J3,3,Pin_3_3*%
%TO.N,/stm32/rtc_scl*%
X5207000Y43120000D03*
%TO.P,J3,4,Pin_4_4*%
%TO.N,/stm32/rtc_sda*%
X4953000Y40580000D03*
%TO.P,J3,5,Pin_5_5*%
%TO.N,/stm32/PB8*%
X5207000Y38040000D03*
%TO.P,J3,6,Pin_6_6*%
%TO.N,/stm32/PB9*%
X4953000Y35500000D03*
%TO.P,J3,7,Pin_7_7*%
%TO.N,TAG_1V8*%
X5207000Y32960000D03*
%TO.P,J3,8,Pin_8_8*%
%TO.N,/stm32/PA0*%
X4953000Y30420000D03*
%TO.P,J3,9,Pin_9_9*%
%TO.N,/stm32/PA1*%
X5207000Y27880000D03*
%TO.P,J3,10,Pin_10_10*%
%TO.N,/stm32/PA2*%
X4953000Y25340000D03*
%TO.P,J3,11,Pin_11_11*%
%TO.N,/stm32/PA3*%
X5207000Y22800000D03*
%TO.P,J3,12,Pin_12_12*%
%TO.N,/stm32/PA4*%
X4953000Y20260000D03*
%TO.P,J3,13,Pin_13_13*%
%TO.N,/stm32/PA5*%
X5207000Y17720000D03*
%TO.P,J3,14,Pin_14_14*%
%TO.N,/stm32/PA6*%
X4953000Y15180000D03*
%TO.P,J3,15,Pin_15_15*%
%TO.N,/stm32/PA7*%
X5207000Y12640000D03*
%TO.P,J3,16,Pin_16_16*%
%TO.N,/stm32/PB0*%
X4953000Y10100000D03*
%TO.P,J3,17,Pin_17_17*%
%TO.N,GND*%
X5207000Y7560000D03*
%TD*%
D11*
%TO.P,J4,1,Pin_1_1*%
%TO.N,TAG_1V8*%
X48387000Y48200000D03*
D13*
%TO.P,J4,2,Pin_2_2*%
%TO.N,/stm32/PB3*%
X48133000Y45660000D03*
%TO.P,J4,3,Pin_3_3*%
%TO.N,/stm32/PA15*%
X48387000Y43120000D03*
%TO.P,J4,4,Pin_4_4*%
%TO.N,/stm32/PA12*%
X48133000Y40580000D03*
%TO.P,J4,5,Pin_5_5*%
%TO.N,/stm32/PA11*%
X48387000Y38040000D03*
%TO.P,J4,6,Pin_6_6*%
%TO.N,/stm32/PA10*%
X48133000Y35500000D03*
%TO.P,J4,7,Pin_7_7*%
%TO.N,/stm32/PA9*%
X48387000Y32960000D03*
%TO.P,J4,8,Pin_8_8*%
%TO.N,/stm32/PA8*%
X48133000Y30420000D03*
%TO.P,J4,9,Pin_9_9*%
%TO.N,/stm32/PB15*%
X48387000Y27880000D03*
%TO.P,J4,10,Pin_10_10*%
%TO.N,/stm32/PB14*%
X48133000Y25340000D03*
%TO.P,J4,11,Pin_11_11*%
%TO.N,/stm32/PB13*%
X48387000Y22800000D03*
%TO.P,J4,12,Pin_12_12*%
%TO.N,/stm32/PB12*%
X48133000Y20260000D03*
%TO.P,J4,13,Pin_13_13*%
%TO.N,/stm32/PB11*%
X48387000Y17720000D03*
%TO.P,J4,14,Pin_14_14*%
%TO.N,/stm32/PB10*%
X48133000Y15180000D03*
%TO.P,J4,15,Pin_15_15*%
%TO.N,/stm32/PB2*%
X48387000Y12640000D03*
%TO.P,J4,16,Pin_16_16*%
%TO.N,/stm32/PB1*%
X48133000Y10100000D03*
%TO.P,J4,17,Pin_17_17*%
%TO.N,GND*%
X48387000Y7560000D03*
%TD*%
D14*
%TO.P,J1,1,Pin_1_1*%
%TO.N,PWR_IN_MIRROR*%
X48260000Y58360000D03*
D15*
%TO.P,J1,2,Pin_2_2*%
%TO.N,PWR_IN*%
X48260000Y60860000D03*
%TO.P,J1,3,Pin_3_3*%
%TO.N,unconnected-(J1-Pin_3-Pad3)*%
X48260000Y63360000D03*
%TO.P,J1,4,Pin_4_4*%
%TO.N,GND*%
X48260000Y65860000D03*
%TD*%
D16*
%TO.P,TP1,1,1_1*%
%TO.N,Net-(U5-PB4)*%
X31750000Y51650000D03*
%TD*%
%TO.P,TP2,1,1_1*%
%TO.N,Net-(U5-PB3)*%
X26100000Y52200000D03*
%TD*%
D17*
%TO.N,+3V3*%
X28498800Y48488600D03*
X33121600Y47646400D03*
X33172400Y45897800D03*
X33045400Y58140600D03*
X26272319Y59240663D03*
X34137600Y54787800D03*
X19400000Y61650000D03*
%TO.N,GND*%
X21550000Y18550000D03*
X27965400Y38277800D03*
X27051000Y41325800D03*
X29337000Y42138600D03*
X19300000Y57100000D03*
X16700000Y11250000D03*
X18600000Y57700000D03*
X38836600Y71526400D03*
X31496000Y36880800D03*
X25654000Y32207200D03*
X18600000Y33150000D03*
X35356800Y56743600D03*
X30050000Y38400000D03*
X31089600Y40055800D03*
X12950000Y16700000D03*
X26600000Y43400000D03*
X18300000Y56200000D03*
X40600000Y52800000D03*
X35890200Y51638200D03*
X16200000Y14100000D03*
X36398200Y65836800D03*
X18500000Y60300000D03*
X19650000Y37050000D03*
X20000000Y56700000D03*
X39700200Y67360800D03*
X24515100Y58932100D03*
X20300000Y13900000D03*
X15800000Y21150000D03*
X24200000Y63200000D03*
X14400000Y18500000D03*
X10750000Y11550000D03*
X32080200Y44170600D03*
X28016200Y44272200D03*
X23800000Y56800000D03*
X19500000Y60300000D03*
X32715200Y35661600D03*
X14600000Y42950000D03*
X25100000Y63300000D03*
X15595600Y67106800D03*
X30759400Y49149000D03*
X27800000Y40250000D03*
X21400000Y59300000D03*
X21800000Y56500000D03*
X25298400Y41986200D03*
X37795200Y61341000D03*
X29413200Y43357800D03*
X21600000Y55300000D03*
X20900000Y58000000D03*
X20700000Y60000000D03*
X20050000Y20900000D03*
X24866600Y25628600D03*
X27482800Y30149800D03*
X33300000Y34900000D03*
X35000000Y36150000D03*
X19300000Y59100000D03*
X11000000Y14150000D03*
X29750000Y26850000D03*
X43713400Y66268600D03*
X16700000Y39950000D03*
X34112200Y72491600D03*
X39420800Y46431200D03*
X15900000Y33000000D03*
X29438600Y58445400D03*
X31115000Y41554400D03*
X28309050Y58509050D03*
X26600000Y42200000D03*
X19250000Y11300000D03*
X35382200Y57937400D03*
X31950000Y24650000D03*
X13100000Y11200000D03*
X11750000Y18600000D03*
X27051000Y39141400D03*
X29309050Y57509050D03*
X25300000Y43200000D03*
X21700000Y57200000D03*
X24590547Y55343781D03*
X31013400Y42900600D03*
X29413200Y56718200D03*
X25374600Y45161200D03*
X35280600Y55651400D03*
X34600000Y31500000D03*
X34600000Y30400000D03*
X11750000Y21100000D03*
X25984200Y40132000D03*
X22600000Y58100000D03*
X34290000Y36855400D03*
X29083000Y37033200D03*
X25400000Y28900000D03*
X40550000Y50850000D03*
X22000000Y58700000D03*
X28575000Y61137800D03*
X36652200Y43650000D03*
X19989800Y51943000D03*
X20700000Y16650000D03*
X31100000Y26000000D03*
X20950000Y36200000D03*
X19300000Y55500000D03*
X33400000Y23043600D03*
X24550000Y18550000D03*
X38203434Y55827366D03*
X26250000Y20900000D03*
X18400000Y18550000D03*
X36118800Y66675000D03*
X25350000Y44300000D03*
X29565600Y32232600D03*
X26670000Y49276000D03*
X23950000Y20950000D03*
X40700000Y49300000D03*
X18500000Y59100000D03*
X22250000Y32900000D03*
X20400000Y55300000D03*
X20900000Y56600000D03*
X20200000Y58600000D03*
X13750000Y14000000D03*
X33274000Y37693600D03*
X29362400Y40411400D03*
X16450000Y16650000D03*
X23700000Y16650000D03*
X32054800Y38963600D03*
%TO.N,/NRST*%
X32918400Y56819800D03*
%TO.N,Net-(U5-PA10)*%
X25806400Y57378600D03*
X22936200Y54856400D03*
%TO.N,TAG_1V8*%
X27405000Y25651400D03*
X36300000Y33400000D03*
X27500000Y27758200D03*
X35433000Y23926800D03*
%TO.N,/stm32/NRST*%
X25746200Y36608200D03*
X23758802Y27990800D03*
%TO.N,/UART_TX*%
X25848088Y58297679D03*
X20300000Y54200000D03*
%TO.N,/stm32/rtc_scl*%
X30048200Y29895800D03*
X28905200Y34662841D03*
%TO.N,/stm32/clkout*%
X26517600Y27326400D03*
X26053600Y30211051D03*
%TO.N,+1V8*%
X29387800Y46329600D03*
X32397501Y46544631D03*
%TO.N,Net-(U5-PB4)*%
X30145200Y49804800D03*
%TO.N,Net-(U5-PA15)*%
X28450000Y51900000D03*
X27454300Y54100000D03*
%TO.N,Net-(U5-PB3)*%
X25900000Y50100000D03*
%TO.N,TAG_SWDIO*%
X34000000Y32300000D03*
X34000000Y35600000D03*
%TO.N,TAG_SCK*%
X33083500Y30877200D03*
X33083500Y33988700D03*
%TD*%
%TO.N,+3V3*%
D18*
X31940600Y58140600D02*
X33045400Y58140600D01*
X19400000Y61650000D02*
X23862982Y61650000D01*
X33121600Y45948600D02*
X33121600Y47646400D01*
X34188400Y54838600D02*
X34137600Y54787800D01*
X26272319Y58827681D02*
X29100000Y56000000D01*
X33045400Y58140600D02*
X34188400Y56997600D01*
X33172400Y45897800D02*
X33121600Y45948600D01*
X26272319Y59240663D02*
X26272319Y58827681D01*
X33121600Y47646400D02*
X29341000Y47646400D01*
X29341000Y47646400D02*
X28498800Y48488600D01*
X23862982Y61650000D02*
X26272319Y59240663D01*
X29100000Y56000000D02*
X29800000Y56000000D01*
X34188400Y56997600D02*
X34188400Y54838600D01*
X29800000Y56000000D02*
X31940600Y58140600D01*
%TO.N,/NRST*%
X23400000Y53000000D02*
X18526400Y53000000D01*
X31521400Y56819800D02*
X29972000Y55270400D01*
X26401452Y55270400D02*
X24826252Y53695200D01*
X24826252Y53695200D02*
X24095200Y53695200D01*
X18526400Y53000000D02*
X16941800Y54584600D01*
X24095200Y53695200D02*
X23400000Y53000000D01*
X32918400Y56819800D02*
X31521400Y56819800D01*
X29972000Y55270400D02*
X26401452Y55270400D01*
%TO.N,Net-(U5-PA10)*%
X25806400Y57378600D02*
X25603200Y57378600D01*
X23081000Y54856400D02*
X22936200Y54856400D01*
X25603200Y57378600D02*
X23081000Y54856400D01*
%TO.N,TAG_1V8*%
D19*
X36300000Y30200000D02*
X35200000Y29100000D01*
D18*
X27500000Y25746400D02*
X27405000Y25651400D01*
X35433000Y23926800D02*
X35433000Y28167000D01*
X28141800Y28400000D02*
X27500000Y27758200D01*
D19*
X36300000Y33400000D02*
X36300000Y30200000D01*
D18*
X27500000Y27758200D02*
X27500000Y25746400D01*
X35200000Y28400000D02*
X28141800Y28400000D01*
D19*
X35200000Y29100000D02*
X35200000Y28400000D01*
D18*
X35433000Y28167000D02*
X35200000Y28400000D01*
%TO.N,/stm32/NRST*%
X23758802Y34620802D02*
X23758802Y27990800D01*
X25746200Y36608200D02*
X23758802Y34620802D01*
%TO.N,/UART_TX*%
X26600000Y57545767D02*
X26600000Y55900000D01*
X26600000Y55900000D02*
X24900000Y54200000D01*
X25848088Y58297679D02*
X26600000Y57545767D01*
X24900000Y54200000D02*
X20300000Y54200000D01*
%TO.N,/stm32/rtc_scl*%
X30048200Y29895800D02*
X30632400Y30480000D01*
X29794200Y34950400D02*
X29192759Y34950400D01*
X30632400Y34112200D02*
X29794200Y34950400D01*
X30632400Y30480000D02*
X30632400Y34112200D01*
X29192759Y34950400D02*
X28905200Y34662841D01*
%TO.N,/stm32/clkout*%
X26053600Y30211051D02*
X26053600Y27565800D01*
X26293000Y27326400D02*
X26517600Y27326400D01*
X26053600Y27565800D02*
X26293000Y27326400D01*
%TO.N,+1V8*%
X32182470Y46329600D02*
X32397501Y46544631D01*
X29387800Y46329600D02*
X32182470Y46329600D01*
%TO.N,Net-(U5-PB4)*%
X30145200Y50045200D02*
X30145200Y49804800D01*
X31750000Y51650000D02*
X30145200Y50045200D01*
%TO.N,Net-(U5-PA15)*%
X28450000Y53104300D02*
X28450000Y51900000D01*
X27454300Y54100000D02*
X28450000Y53104300D01*
%TO.N,Net-(U5-PB3)*%
X26100000Y52200000D02*
X26100000Y50300000D01*
X26100000Y50300000D02*
X25900000Y50100000D01*
%TO.N,TAG_SWDIO*%
X34000000Y35600000D02*
X34000000Y32300000D01*
%TO.N,TAG_SCK*%
X33083500Y33988700D02*
X33083500Y30877200D01*
%TD*%
%TA.AperFunction,Conductor*%
%TO.N,GND*%
G36*
X25679410Y56548729D02*
G01*
X25723795Y56539900D01*
X25723800Y56539900D01*
X25889300Y56539900D01*
X25957421Y56519898D01*
X26003914Y56466242D01*
X26015300Y56413900D01*
X26015300Y56194380D01*
X25995298Y56126259D01*
X25978395Y56105285D01*
X24694715Y54821605D01*
X24632403Y54787579D01*
X24605620Y54784700D01*
X24140380Y54784700D01*
X24072259Y54804702D01*
X24025766Y54858358D01*
X24015662Y54928632D01*
X24045156Y54993212D01*
X24051285Y54999795D01*
X24805974Y55754484D01*
X25565736Y56514247D01*
X25572812Y56518110D01*
X25577531Y56524654D01*
X25603530Y56534884D01*
X25628046Y56548270D01*
X25637774Y56548357D01*
X25643598Y56550648D01*
X25679410Y56548729D01*
G37*
%TD.AperFunction*%
%TA.AperFunction,Conductor*%
G36*
X50803801Y73524270D02*
G01*
X50832245Y73522550D01*
X51089466Y73506991D01*
X51104547Y73505160D01*
X51382305Y73454259D01*
X51397052Y73450624D01*
X51666660Y73366611D01*
X51680872Y73361220D01*
X51699685Y73352753D01*
X51938355Y73245336D01*
X51951827Y73238266D01*
X52193476Y73092185D01*
X52205998Y73083541D01*
X52428267Y72909405D01*
X52439656Y72899315D01*
X52639314Y72699657D01*
X52649404Y72688268D01*
X52823540Y72465999D01*
X52832184Y72453477D01*
X52978265Y72211828D01*
X52985335Y72198356D01*
X53101217Y71940878D01*
X53106613Y71926652D01*
X53190619Y71657069D01*
X53194260Y71642295D01*
X53245157Y71364560D01*
X53246991Y71349456D01*
X53264270Y71063803D01*
X53264500Y71056195D01*
X53264500Y2483806D01*
X53264270Y2476198D01*
X53246991Y2190545D01*
X53245157Y2175441D01*
X53194260Y1897706D01*
X53190619Y1882932D01*
X53106613Y1613349D01*
X53101217Y1599123D01*
X52985335Y1341645D01*
X52978265Y1328173D01*
X52832184Y1086524D01*
X52823540Y1074002D01*
X52649404Y851733D01*
X52639314Y840344D01*
X52439656Y640686D01*
X52428267Y630596D01*
X52205998Y456460D01*
X52193476Y447816D01*
X51951827Y301735D01*
X51938355Y294665D01*
X51680877Y178783D01*
X51666651Y173387D01*
X51397068Y89381D01*
X51382294Y85740D01*
X51104559Y34843D01*
X51089455Y33009D01*
X50803802Y15730D01*
X50796194Y15500D01*
X2543806Y15500D01*
X2536198Y15730D01*
X2250544Y33009D01*
X2235440Y34843D01*
X1957705Y85740D01*
X1942935Y89380D01*
X1673348Y173387D01*
X1659122Y178783D01*
X1401644Y294665D01*
X1388172Y301735D01*
X1146523Y447816D01*
X1134001Y456460D01*
X911732Y630596D01*
X900343Y640686D01*
X700685Y840344D01*
X690595Y851733D01*
X516459Y1074002D01*
X507815Y1086524D01*
X361734Y1328173D01*
X354664Y1341645D01*
X238782Y1599123D01*
X233389Y1613340D01*
X149376Y1882948D01*
X145741Y1897695D01*
X94840Y2175453D01*
X93009Y2190534D01*
X75730Y2476199D01*
X75500Y2483806D01*
X75500Y45766916D01*
X3594500Y45766916D01*
X3594500Y45553084D01*
X3627951Y45341884D01*
X3627952Y45341879D01*
X3688817Y45154554D01*
X3694028Y45138517D01*
X3791106Y44947991D01*
X3916794Y44774996D01*
X3916796Y44774994D01*
X3916798Y44774991D01*
X4067990Y44623799D01*
X4067993Y44623797D01*
X4067996Y44623794D01*
X4240991Y44498106D01*
X4382005Y44426256D01*
X4433620Y44377509D01*
X4450686Y44308594D01*
X4427786Y44241393D01*
X4398864Y44212054D01*
X4321989Y44156201D01*
X4170798Y44005010D01*
X4170796Y44005007D01*
X4045108Y43832013D01*
X3948029Y43641485D01*
X3948026Y43641479D01*
X3881952Y43438122D01*
X3881951Y43438117D01*
X3881951Y43438116D01*
X3848500Y43226916D01*
X3848500Y43013084D01*
X3881951Y42801884D01*
X3881952Y42801879D01*
X3948026Y42598522D01*
X3948028Y42598517D01*
X4045106Y42407991D01*
X4170794Y42234996D01*
X4170796Y42234994D01*
X4170798Y42234991D01*
X4321990Y42083799D01*
X4321993Y42083797D01*
X4321996Y42083794D01*
X4398863Y42027947D01*
X4442217Y41971725D01*
X4448292Y41900989D01*
X4415161Y41838197D01*
X4382006Y41813746D01*
X4255355Y41749214D01*
X4240987Y41741892D01*
X4067993Y41616204D01*
X4067990Y41616202D01*
X3916798Y41465010D01*
X3916796Y41465007D01*
X3791108Y41292013D01*
X3694029Y41101485D01*
X3694026Y41101479D01*
X3627952Y40898122D01*
X3627951Y40898117D01*
X3627951Y40898116D01*
X3594500Y40686916D01*
X3594500Y40473084D01*
X3627951Y40261884D01*
X3627952Y40261879D01*
X3694026Y40058522D01*
X3694028Y40058517D01*
X3791106Y39867991D01*
X3916794Y39694996D01*
X3916796Y39694994D01*
X3916798Y39694991D01*
X4067990Y39543799D01*
X4067993Y39543797D01*
X4067996Y39543794D01*
X4240991Y39418106D01*
X4382005Y39346256D01*
X4433620Y39297509D01*
X4450686Y39228594D01*
X4427786Y39161393D01*
X4398864Y39132054D01*
X4321989Y39076201D01*
X4170798Y38925010D01*
X4170796Y38925007D01*
X4045108Y38752013D01*
X3948029Y38561485D01*
X3948026Y38561479D01*
X3881952Y38358122D01*
X3881951Y38358117D01*
X3881951Y38358116D01*
X3848500Y38146916D01*
X3848500Y37933084D01*
X3881951Y37721884D01*
X3881952Y37721879D01*
X3948026Y37518522D01*
X3948028Y37518517D01*
X4045106Y37327991D01*
X4170794Y37154996D01*
X4170796Y37154994D01*
X4170798Y37154991D01*
X4321990Y37003799D01*
X4321993Y37003797D01*
X4321996Y37003794D01*
X4398863Y36947947D01*
X4442217Y36891725D01*
X4448292Y36820989D01*
X4415161Y36758197D01*
X4382006Y36733746D01*
X4297738Y36690808D01*
X4240987Y36661892D01*
X4067993Y36536204D01*
X4067990Y36536202D01*
X3916798Y36385010D01*
X3916796Y36385007D01*
X3791108Y36212013D01*
X3694029Y36021485D01*
X3694026Y36021479D01*
X3627952Y35818122D01*
X3627951Y35818117D01*
X3627951Y35818116D01*
X3594500Y35606916D01*
X3594500Y35393084D01*
X3625481Y35197481D01*
X3627952Y35181879D01*
X3693605Y34979818D01*
X3694028Y34978517D01*
X3791106Y34787991D01*
X3916794Y34614996D01*
X3916796Y34614994D01*
X3916798Y34614991D01*
X4067990Y34463799D01*
X4067993Y34463797D01*
X4067996Y34463794D01*
X4240991Y34338106D01*
X4382005Y34266256D01*
X4433620Y34217509D01*
X4450686Y34148594D01*
X4427786Y34081393D01*
X4398864Y34052054D01*
X4321989Y33996201D01*
X4170798Y33845010D01*
X4170796Y33845007D01*
X4045108Y33672013D01*
X3948029Y33481485D01*
X3948026Y33481479D01*
X3881952Y33278122D01*
X3881951Y33278117D01*
X3881951Y33278116D01*
X3848500Y33066916D01*
X3848500Y32853084D01*
X3881951Y32641884D01*
X3881952Y32641879D01*
X3913546Y32544643D01*
X3948028Y32438517D01*
X4045106Y32247991D01*
X4170794Y32074996D01*
X4170796Y32074994D01*
X4170798Y32074991D01*
X4321990Y31923799D01*
X4321993Y31923797D01*
X4321996Y31923794D01*
X4350994Y31902726D01*
X4398863Y31867947D01*
X4442217Y31811725D01*
X4448292Y31740989D01*
X4415161Y31678197D01*
X4382006Y31653746D01*
X4255355Y31589214D01*
X4240987Y31581892D01*
X4067993Y31456204D01*
X4067990Y31456202D01*
X3916798Y31305010D01*
X3916796Y31305007D01*
X3791108Y31132013D01*
X3694029Y30941485D01*
X3694026Y30941479D01*
X3627952Y30738122D01*
X3627951Y30738117D01*
X3627951Y30738116D01*
X3594500Y30526916D01*
X3594500Y30313084D01*
X3624925Y30120990D01*
X3627952Y30101879D01*
X3694026Y29898522D01*
X3694028Y29898517D01*
X3791106Y29707991D01*
X3916794Y29534996D01*
X3916796Y29534994D01*
X3916798Y29534991D01*
X4067990Y29383799D01*
X4067993Y29383797D01*
X4067996Y29383794D01*
X4240991Y29258106D01*
X4382005Y29186256D01*
X4433620Y29137509D01*
X4450686Y29068594D01*
X4427786Y29001393D01*
X4398864Y28972054D01*
X4321989Y28916201D01*
X4170798Y28765010D01*
X4170796Y28765007D01*
X4045108Y28592013D01*
X3948029Y28401485D01*
X3948026Y28401479D01*
X3881952Y28198122D01*
X3881951Y28198117D01*
X3881951Y28198116D01*
X3848500Y27986916D01*
X3848500Y27773084D01*
X3881951Y27561884D01*
X3881952Y27561879D01*
X3947245Y27360927D01*
X3948028Y27358517D01*
X4045106Y27167991D01*
X4170794Y26994996D01*
X4170796Y26994994D01*
X4170798Y26994991D01*
X4321990Y26843799D01*
X4321993Y26843797D01*
X4321996Y26843794D01*
X4398863Y26787947D01*
X4442217Y26731725D01*
X4448292Y26660989D01*
X4415161Y26598197D01*
X4382006Y26573746D01*
X4276393Y26519932D01*
X4240987Y26501892D01*
X4067993Y26376204D01*
X4067990Y26376202D01*
X3916798Y26225010D01*
X3916796Y26225007D01*
X3791108Y26052013D01*
X3694029Y25861485D01*
X3694026Y25861479D01*
X3627952Y25658122D01*
X3627951Y25658117D01*
X3627951Y25658116D01*
X3594500Y25446916D01*
X3594500Y25233084D01*
X3627951Y25021884D01*
X3627952Y25021879D01*
X3694026Y24818522D01*
X3694028Y24818517D01*
X3791106Y24627991D01*
X3916794Y24454996D01*
X3916796Y24454994D01*
X3916798Y24454991D01*
X4067990Y24303799D01*
X4067993Y24303797D01*
X4067996Y24303794D01*
X4240991Y24178106D01*
X4382005Y24106256D01*
X4433620Y24057509D01*
X4450686Y23988594D01*
X4427786Y23921393D01*
X4398864Y23892054D01*
X4321989Y23836201D01*
X4170798Y23685010D01*
X4170796Y23685007D01*
X4045108Y23512013D01*
X3948029Y23321485D01*
X3948026Y23321479D01*
X3881952Y23118122D01*
X3881951Y23118117D01*
X3881951Y23118116D01*
X3848500Y22906916D01*
X3848500Y22693084D01*
X3881951Y22481884D01*
X3881952Y22481879D01*
X3948026Y22278522D01*
X3948028Y22278517D01*
X4045106Y22087991D01*
X4170794Y21914996D01*
X4170796Y21914994D01*
X4170798Y21914991D01*
X4321990Y21763799D01*
X4321993Y21763797D01*
X4321996Y21763794D01*
X4398863Y21707947D01*
X4442217Y21651725D01*
X4448292Y21580989D01*
X4415161Y21518197D01*
X4382006Y21493746D01*
X4255355Y21429214D01*
X4240987Y21421892D01*
X4067993Y21296204D01*
X4067990Y21296202D01*
X3916798Y21145010D01*
X3916796Y21145007D01*
X3791108Y20972013D01*
X3694029Y20781485D01*
X3694026Y20781479D01*
X3627952Y20578122D01*
X3627951Y20578117D01*
X3627951Y20578116D01*
X3594500Y20366916D01*
X3594500Y20153084D01*
X3627951Y19941884D01*
X3627952Y19941879D01*
X3694026Y19738522D01*
X3694028Y19738517D01*
X3791106Y19547991D01*
X3916794Y19374996D01*
X3916796Y19374994D01*
X3916798Y19374991D01*
X4067990Y19223799D01*
X4067993Y19223797D01*
X4067996Y19223794D01*
X4240991Y19098106D01*
X4382005Y19026256D01*
X4433620Y18977509D01*
X4450686Y18908594D01*
X4427786Y18841393D01*
X4398864Y18812054D01*
X4321989Y18756201D01*
X4170798Y18605010D01*
X4170796Y18605007D01*
X4045108Y18432013D01*
X3948029Y18241485D01*
X3948026Y18241479D01*
X3881952Y18038122D01*
X3881951Y18038117D01*
X3881951Y18038116D01*
X3848500Y17826916D01*
X3848500Y17613084D01*
X3881951Y17401884D01*
X3881952Y17401879D01*
X3948026Y17198522D01*
X3948028Y17198517D01*
X4045106Y17007991D01*
X4170794Y16834996D01*
X4170796Y16834994D01*
X4170798Y16834991D01*
X4321990Y16683799D01*
X4321993Y16683797D01*
X4321996Y16683794D01*
X4398863Y16627947D01*
X4442217Y16571725D01*
X4448292Y16500989D01*
X4415161Y16438197D01*
X4382006Y16413746D01*
X4255355Y16349214D01*
X4240987Y16341892D01*
X4067993Y16216204D01*
X4067990Y16216202D01*
X3916798Y16065010D01*
X3916796Y16065007D01*
X3791108Y15892013D01*
X3694029Y15701485D01*
X3694026Y15701479D01*
X3627952Y15498122D01*
X3627951Y15498117D01*
X3627951Y15498116D01*
X3594500Y15286916D01*
X3594500Y15073084D01*
X3627951Y14861884D01*
X3627952Y14861879D01*
X3694026Y14658522D01*
X3694028Y14658517D01*
X3791106Y14467991D01*
X3916794Y14294996D01*
X3916796Y14294994D01*
X3916798Y14294991D01*
X4067990Y14143799D01*
X4067993Y14143797D01*
X4067996Y14143794D01*
X4240991Y14018106D01*
X4382005Y13946256D01*
X4433620Y13897509D01*
X4450686Y13828594D01*
X4427786Y13761393D01*
X4398864Y13732054D01*
X4321989Y13676201D01*
X4170798Y13525010D01*
X4170796Y13525007D01*
X4045108Y13352013D01*
X3948029Y13161485D01*
X3948026Y13161479D01*
X3881952Y12958122D01*
X3881951Y12958117D01*
X3881951Y12958116D01*
X3848500Y12746916D01*
X3848500Y12533084D01*
X3881951Y12321884D01*
X3881952Y12321879D01*
X3948026Y12118522D01*
X3948028Y12118517D01*
X4045106Y11927991D01*
X4170794Y11754996D01*
X4170796Y11754994D01*
X4170798Y11754991D01*
X4321990Y11603799D01*
X4321993Y11603797D01*
X4321996Y11603794D01*
X4398863Y11547947D01*
X4442217Y11491725D01*
X4448292Y11420989D01*
X4415161Y11358197D01*
X4382006Y11333746D01*
X4255355Y11269214D01*
X4240987Y11261892D01*
X4067993Y11136204D01*
X4067990Y11136202D01*
X3916798Y10985010D01*
X3916796Y10985007D01*
X3791108Y10812013D01*
X3694029Y10621485D01*
X3694026Y10621479D01*
X3627952Y10418122D01*
X3627951Y10418117D01*
X3627951Y10418116D01*
X3594500Y10206916D01*
X3594500Y9993084D01*
X3627951Y9781884D01*
X3627952Y9781879D01*
X3694026Y9578522D01*
X3694028Y9578517D01*
X3791106Y9387991D01*
X3916794Y9214996D01*
X3916796Y9214994D01*
X3916798Y9214991D01*
X4067990Y9063799D01*
X4067993Y9063797D01*
X4067996Y9063794D01*
X4240991Y8938106D01*
X4382505Y8866001D01*
X4434120Y8817252D01*
X4451186Y8748337D01*
X4428285Y8681136D01*
X4399364Y8651799D01*
X4322323Y8595825D01*
X4322317Y8595820D01*
X4171177Y8444680D01*
X4045536Y8271751D01*
X3948493Y8081293D01*
X3948490Y8081287D01*
X3882440Y7878005D01*
X3872302Y7814000D01*
X4776297Y7814000D01*
X4741075Y7752993D01*
X4707000Y7625826D01*
X4707000Y7494174D01*
X4741075Y7367007D01*
X4776297Y7306000D01*
X3872302Y7306000D01*
X3882440Y7241996D01*
X3948490Y7038714D01*
X3948493Y7038708D01*
X4045536Y6848250D01*
X4171177Y6675321D01*
X4322320Y6524178D01*
X4495249Y6398537D01*
X4685707Y6301494D01*
X4685713Y6301491D01*
X4888998Y6235440D01*
X4953000Y6225304D01*
X4953000Y7129298D01*
X5014007Y7094075D01*
X5141174Y7060000D01*
X5272826Y7060000D01*
X5399993Y7094075D01*
X5461000Y7129298D01*
X5461000Y6225304D01*
X5525001Y6235440D01*
X5728286Y6301491D01*
X5728292Y6301494D01*
X5918750Y6398537D01*
X6091679Y6524178D01*
X6242822Y6675321D01*
X6368463Y6848250D01*
X6465506Y7038708D01*
X6465509Y7038714D01*
X6531559Y7241996D01*
X6541698Y7306000D01*
X5637703Y7306000D01*
X5672925Y7367007D01*
X5707000Y7494174D01*
X5707000Y7625826D01*
X5672925Y7752993D01*
X5637703Y7814000D01*
X6541697Y7814000D01*
X6531559Y7878005D01*
X6465509Y8081287D01*
X6465506Y8081293D01*
X6368463Y8271751D01*
X6242822Y8444680D01*
X6091679Y8595823D01*
X5918750Y8721464D01*
X5777540Y8793414D01*
X5725925Y8842162D01*
X5708859Y8911077D01*
X5731760Y8978279D01*
X5760679Y9007615D01*
X5838004Y9063794D01*
X5989206Y9214996D01*
X6114894Y9387991D01*
X6211972Y9578517D01*
X6278049Y9781884D01*
X6311500Y9993084D01*
X6311500Y10206916D01*
X6278049Y10418116D01*
X6211972Y10621483D01*
X6114894Y10812009D01*
X5989206Y10985004D01*
X5989203Y10985007D01*
X5989201Y10985010D01*
X5838006Y11136205D01*
X5761136Y11192054D01*
X5717782Y11248277D01*
X5711707Y11319013D01*
X5744839Y11381804D01*
X5777989Y11406253D01*
X5919009Y11478106D01*
X6092004Y11603794D01*
X6243206Y11754996D01*
X6368894Y11927991D01*
X6465972Y12118517D01*
X6532049Y12321884D01*
X6565500Y12533084D01*
X6565500Y12746916D01*
X6532049Y12958116D01*
X6465972Y13161483D01*
X6368894Y13352009D01*
X6243206Y13525004D01*
X6243203Y13525007D01*
X6243201Y13525010D01*
X6092009Y13676202D01*
X6092006Y13676204D01*
X6092004Y13676206D01*
X5919009Y13801894D01*
X5777992Y13873746D01*
X5726379Y13922492D01*
X5709313Y13991407D01*
X5732214Y14058609D01*
X5761133Y14087945D01*
X5838004Y14143794D01*
X5989206Y14294996D01*
X6114894Y14467991D01*
X6211972Y14658517D01*
X6278049Y14861884D01*
X6311500Y15073084D01*
X6311500Y15286916D01*
X6278049Y15498116D01*
X6211972Y15701483D01*
X6114894Y15892009D01*
X5989206Y16065004D01*
X5989203Y16065007D01*
X5989201Y16065010D01*
X5838006Y16216205D01*
X5761136Y16272054D01*
X5717782Y16328277D01*
X5711707Y16399013D01*
X5744839Y16461804D01*
X5777989Y16486253D01*
X5919009Y16558106D01*
X6092004Y16683794D01*
X6243206Y16834996D01*
X6368894Y17007991D01*
X6465972Y17198517D01*
X6532049Y17401884D01*
X6565500Y17613084D01*
X6565500Y17826916D01*
X6532049Y18038116D01*
X6465972Y18241483D01*
X6368894Y18432009D01*
X6243206Y18605004D01*
X6243203Y18605007D01*
X6243201Y18605010D01*
X6092009Y18756202D01*
X6092006Y18756204D01*
X6092004Y18756206D01*
X5919009Y18881894D01*
X5777992Y18953746D01*
X5726379Y19002492D01*
X5709313Y19071407D01*
X5732214Y19138609D01*
X5761133Y19167945D01*
X5838004Y19223794D01*
X5989206Y19374996D01*
X6114894Y19547991D01*
X6211972Y19738517D01*
X6278049Y19941884D01*
X6311500Y20153084D01*
X6311500Y20366916D01*
X6278049Y20578116D01*
X6211972Y20781483D01*
X6114894Y20972009D01*
X5989206Y21145004D01*
X5989203Y21145007D01*
X5989201Y21145010D01*
X5838006Y21296205D01*
X5761136Y21352054D01*
X5717782Y21408277D01*
X5711707Y21479013D01*
X5744839Y21541804D01*
X5777989Y21566253D01*
X5919009Y21638106D01*
X6092004Y21763794D01*
X6243206Y21914996D01*
X6368894Y22087991D01*
X6465972Y22278517D01*
X6532049Y22481884D01*
X6565500Y22693084D01*
X6565500Y22906916D01*
X6532049Y23118116D01*
X6465972Y23321483D01*
X6368894Y23512009D01*
X6243206Y23685004D01*
X6243203Y23685007D01*
X6243201Y23685010D01*
X6092009Y23836202D01*
X6092006Y23836204D01*
X6092004Y23836206D01*
X5919009Y23961894D01*
X5777992Y24033746D01*
X5726379Y24082492D01*
X5709313Y24151407D01*
X5732214Y24218609D01*
X5761133Y24247945D01*
X5838004Y24303794D01*
X5989206Y24454996D01*
X6114894Y24627991D01*
X6211972Y24818517D01*
X6278049Y25021884D01*
X6311500Y25233084D01*
X6311500Y25446916D01*
X6278049Y25658116D01*
X6211972Y25861483D01*
X6114894Y26052009D01*
X5989206Y26225004D01*
X5989203Y26225007D01*
X5989201Y26225010D01*
X5838006Y26376205D01*
X5761136Y26432054D01*
X5717782Y26488277D01*
X5711707Y26559013D01*
X5744839Y26621804D01*
X5777989Y26646253D01*
X5919009Y26718106D01*
X6092004Y26843794D01*
X6243206Y26994996D01*
X6368894Y27167991D01*
X6465972Y27358517D01*
X6532049Y27561884D01*
X6565500Y27773084D01*
X6565500Y27986916D01*
X6551801Y28073408D01*
X22920102Y28073408D01*
X22920102Y27908193D01*
X22946977Y27773084D01*
X22952333Y27746160D01*
X23015556Y27593527D01*
X23085517Y27488823D01*
X23107342Y27456159D01*
X23107347Y27456153D01*
X23224154Y27339346D01*
X23224160Y27339341D01*
X23224162Y27339339D01*
X23361529Y27247554D01*
X23514162Y27184331D01*
X23676197Y27152100D01*
X23676198Y27152100D01*
X23841406Y27152100D01*
X23841407Y27152100D01*
X24003442Y27184331D01*
X24156075Y27247554D01*
X24293442Y27339339D01*
X24410263Y27456160D01*
X24502048Y27593527D01*
X24565271Y27746160D01*
X24597502Y27908195D01*
X24597502Y28073405D01*
X24565271Y28235440D01*
X24502048Y28388073D01*
X24410263Y28525440D01*
X24410261Y28525442D01*
X24410256Y28525448D01*
X24380407Y28555297D01*
X24346381Y28617609D01*
X24343502Y28644392D01*
X24343502Y30293659D01*
X25214900Y30293659D01*
X25214900Y30128444D01*
X25244745Y29978405D01*
X25247131Y29966411D01*
X25310354Y29813778D01*
X25402139Y29676411D01*
X25431995Y29646555D01*
X25466020Y29584245D01*
X25468900Y29557460D01*
X25468900Y27488825D01*
X25468899Y27488825D01*
X25503816Y27358517D01*
X25508747Y27340114D01*
X25561108Y27249423D01*
X25585724Y27206786D01*
X25696939Y27095571D01*
X25699941Y27092095D01*
X25703692Y27083846D01*
X25720989Y27057959D01*
X25774354Y26929127D01*
X25831372Y26843794D01*
X25866140Y26791759D01*
X25866145Y26791753D01*
X25982952Y26674946D01*
X25982958Y26674941D01*
X25982960Y26674939D01*
X26120327Y26583154D01*
X26272960Y26519931D01*
X26434995Y26487700D01*
X26434996Y26487700D01*
X26600204Y26487700D01*
X26600205Y26487700D01*
X26760794Y26519644D01*
X26831505Y26513316D01*
X26887572Y26469763D01*
X26911192Y26402810D01*
X26894866Y26333716D01*
X26874468Y26306970D01*
X26753545Y26186048D01*
X26753540Y26186042D01*
X26661755Y26048675D01*
X26598532Y25896043D01*
X26598531Y25896042D01*
X26566300Y25734008D01*
X26566300Y25734005D01*
X26566300Y25568795D01*
X26598531Y25406760D01*
X26661754Y25254127D01*
X26675815Y25233084D01*
X26753540Y25116759D01*
X26753545Y25116753D01*
X26870352Y24999946D01*
X26870358Y24999941D01*
X26870360Y24999939D01*
X27007727Y24908154D01*
X27160360Y24844931D01*
X27322395Y24812700D01*
X27322396Y24812700D01*
X27487604Y24812700D01*
X27487605Y24812700D01*
X27649640Y24844931D01*
X27802273Y24908154D01*
X27939640Y24999939D01*
X28056461Y25116760D01*
X28148246Y25254127D01*
X28211469Y25406760D01*
X28243700Y25568795D01*
X28243700Y25734005D01*
X28211469Y25896040D01*
X28148246Y26048673D01*
X28105932Y26112001D01*
X28084720Y26179754D01*
X28084700Y26182000D01*
X28084700Y27104609D01*
X28104702Y27172730D01*
X28121601Y27193701D01*
X28151461Y27223560D01*
X28243246Y27360927D01*
X28306469Y27513560D01*
X28338700Y27675595D01*
X28338700Y27689300D01*
X28358702Y27757421D01*
X28412358Y27803914D01*
X28464700Y27815300D01*
X34722300Y27815300D01*
X34790421Y27795298D01*
X34836914Y27741642D01*
X34848300Y27689300D01*
X34848300Y24580392D01*
X34828298Y24512271D01*
X34811395Y24491297D01*
X34781545Y24461448D01*
X34781540Y24461442D01*
X34689755Y24324075D01*
X34626532Y24171443D01*
X34626531Y24171442D01*
X34594300Y24009408D01*
X34594300Y23844193D01*
X34625965Y23685004D01*
X34626531Y23682160D01*
X34689754Y23529527D01*
X34701457Y23512013D01*
X34781540Y23392159D01*
X34781545Y23392153D01*
X34898352Y23275346D01*
X34898358Y23275341D01*
X34898360Y23275339D01*
X35035727Y23183554D01*
X35188360Y23120331D01*
X35350395Y23088100D01*
X35350396Y23088100D01*
X35515604Y23088100D01*
X35515605Y23088100D01*
X35677640Y23120331D01*
X35830273Y23183554D01*
X35967640Y23275339D01*
X36084461Y23392160D01*
X36176246Y23529527D01*
X36239469Y23682160D01*
X36271700Y23844195D01*
X36271700Y24009405D01*
X36239469Y24171440D01*
X36176246Y24324073D01*
X36084461Y24461440D01*
X36084459Y24461442D01*
X36084454Y24461448D01*
X36054605Y24491297D01*
X36020579Y24553609D01*
X36017700Y24580392D01*
X36017700Y28243976D01*
X36004607Y28292840D01*
X35977854Y28392685D01*
X35915061Y28501445D01*
X35900878Y28526011D01*
X35900870Y28526021D01*
X35897805Y28529086D01*
X35896044Y28532310D01*
X35895848Y28532566D01*
X35895887Y28532597D01*
X35882860Y28556455D01*
X35866004Y28582683D01*
X35865098Y28588982D01*
X35863779Y28591398D01*
X35860900Y28618181D01*
X35860900Y28774056D01*
X35880902Y28842177D01*
X35897805Y28863151D01*
X36333263Y29298609D01*
X36813355Y29778701D01*
X36885682Y29886946D01*
X36935502Y30007223D01*
X36960900Y30134907D01*
X36960900Y30265093D01*
X36960900Y32841266D01*
X36980902Y32909387D01*
X36982135Y32911268D01*
X36992519Y32926809D01*
X37043246Y33002727D01*
X37106469Y33155360D01*
X37138700Y33317395D01*
X37138700Y33482605D01*
X37106469Y33644640D01*
X37043246Y33797273D01*
X36951461Y33934640D01*
X36951459Y33934642D01*
X36951454Y33934648D01*
X36834647Y34051455D01*
X36834641Y34051460D01*
X36833753Y34052054D01*
X36697273Y34143246D01*
X36544641Y34206469D01*
X36382607Y34238700D01*
X36382605Y34238700D01*
X36217395Y34238700D01*
X36217392Y34238700D01*
X36055358Y34206469D01*
X36055357Y34206468D01*
X35902725Y34143245D01*
X35765358Y34051460D01*
X35765352Y34051455D01*
X35648545Y33934648D01*
X35648540Y33934642D01*
X35556755Y33797275D01*
X35493532Y33644643D01*
X35493531Y33644642D01*
X35461300Y33482608D01*
X35461300Y33482605D01*
X35461300Y33317395D01*
X35493531Y33155360D01*
X35556754Y33002727D01*
X35556755Y33002726D01*
X35617865Y32911268D01*
X35639080Y32843515D01*
X35639100Y32841266D01*
X35639100Y30525944D01*
X35619098Y30457823D01*
X35602195Y30436849D01*
X34686647Y29521302D01*
X34686642Y29521295D01*
X34614318Y29413055D01*
X34564500Y29292783D01*
X34564498Y29292778D01*
X34539100Y29165096D01*
X34539100Y29110700D01*
X34519098Y29042579D01*
X34465442Y28996086D01*
X34413100Y28984700D01*
X30609628Y28984700D01*
X30541507Y29004702D01*
X30495014Y29058358D01*
X30484910Y29128632D01*
X30514404Y29193212D01*
X30539623Y29215464D01*
X30582840Y29244339D01*
X30699661Y29361160D01*
X30791446Y29498527D01*
X30854669Y29651160D01*
X30886900Y29813195D01*
X30886900Y29855419D01*
X30906902Y29923540D01*
X30923805Y29944515D01*
X30986513Y30007223D01*
X31100277Y30120986D01*
X31177254Y30254315D01*
X31217100Y30403023D01*
X31217100Y30556977D01*
X31217100Y34071308D01*
X32244800Y34071308D01*
X32244800Y33906093D01*
X32262359Y33817820D01*
X32277031Y33744060D01*
X32340254Y33591427D01*
X32432039Y33454060D01*
X32461895Y33424204D01*
X32495920Y33361894D01*
X32498800Y33335109D01*
X32498800Y31530792D01*
X32478798Y31462671D01*
X32461895Y31441697D01*
X32432045Y31411848D01*
X32432040Y31411842D01*
X32340255Y31274475D01*
X32277032Y31121843D01*
X32277031Y31121842D01*
X32244800Y30959808D01*
X32244800Y30794593D01*
X32263165Y30702269D01*
X32277031Y30632560D01*
X32340254Y30479927D01*
X32391640Y30403023D01*
X32432040Y30342559D01*
X32432045Y30342553D01*
X32548852Y30225746D01*
X32548858Y30225741D01*
X32548860Y30225739D01*
X32686227Y30133954D01*
X32838860Y30070731D01*
X33000895Y30038500D01*
X33000896Y30038500D01*
X33166104Y30038500D01*
X33166105Y30038500D01*
X33328140Y30070731D01*
X33480773Y30133954D01*
X33618140Y30225739D01*
X33734961Y30342560D01*
X33826746Y30479927D01*
X33889969Y30632560D01*
X33922200Y30794595D01*
X33922200Y30959805D01*
X33889969Y31121840D01*
X33826746Y31274473D01*
X33826743Y31274478D01*
X33825982Y31275901D01*
X33825808Y31276736D01*
X33824377Y31280191D01*
X33825032Y31280463D01*
X33811509Y31345407D01*
X33836911Y31411704D01*
X33894123Y31453743D01*
X33937103Y31461300D01*
X34082604Y31461300D01*
X34082605Y31461300D01*
X34244640Y31493531D01*
X34397273Y31556754D01*
X34534640Y31648539D01*
X34651461Y31765360D01*
X34743246Y31902727D01*
X34806469Y32055360D01*
X34838700Y32217395D01*
X34838700Y32382605D01*
X34806469Y32544640D01*
X34743246Y32697273D01*
X34651461Y32834640D01*
X34651459Y32834642D01*
X34651454Y32834648D01*
X34621605Y32864497D01*
X34587579Y32926809D01*
X34584700Y32953592D01*
X34584700Y34946409D01*
X34604702Y35014530D01*
X34621601Y35035501D01*
X34651461Y35065360D01*
X34743246Y35202727D01*
X34806469Y35355360D01*
X34838700Y35517395D01*
X34838700Y35682605D01*
X34806469Y35844640D01*
X34743246Y35997273D01*
X34651461Y36134640D01*
X34651459Y36134642D01*
X34651454Y36134648D01*
X34534647Y36251455D01*
X34534641Y36251460D01*
X34397274Y36343245D01*
X34397275Y36343245D01*
X34397273Y36343246D01*
X34244641Y36406469D01*
X34082607Y36438700D01*
X34082605Y36438700D01*
X33917395Y36438700D01*
X33917392Y36438700D01*
X33755358Y36406469D01*
X33755357Y36406468D01*
X33602725Y36343245D01*
X33465358Y36251460D01*
X33465352Y36251455D01*
X33348545Y36134648D01*
X33348540Y36134642D01*
X33256755Y35997275D01*
X33193532Y35844643D01*
X33193531Y35844642D01*
X33161300Y35682608D01*
X33161300Y35517393D01*
X33183441Y35406086D01*
X33193531Y35355360D01*
X33256754Y35202727D01*
X33348539Y35065360D01*
X33378395Y35035504D01*
X33393340Y35008135D01*
X33410196Y34981907D01*
X33411101Y34975609D01*
X33412420Y34973194D01*
X33415300Y34946409D01*
X33415300Y34931364D01*
X33395298Y34863243D01*
X33341642Y34816750D01*
X33271368Y34806646D01*
X33264719Y34807785D01*
X33166110Y34827400D01*
X33166105Y34827400D01*
X33000895Y34827400D01*
X33000892Y34827400D01*
X32838858Y34795169D01*
X32838857Y34795168D01*
X32686225Y34731945D01*
X32548858Y34640160D01*
X32548852Y34640155D01*
X32432045Y34523348D01*
X32432040Y34523342D01*
X32340255Y34385975D01*
X32277032Y34233343D01*
X32277031Y34233342D01*
X32244800Y34071308D01*
X31217100Y34071308D01*
X31217100Y34189177D01*
X31177253Y34337886D01*
X31100276Y34471214D01*
X30991414Y34580076D01*
X30153214Y35418276D01*
X30153212Y35418277D01*
X30153210Y35418279D01*
X30019886Y35495253D01*
X29871177Y35535100D01*
X29115782Y35535100D01*
X29049699Y35517393D01*
X29006560Y35505834D01*
X28973949Y35501541D01*
X28822592Y35501541D01*
X28660558Y35469310D01*
X28660557Y35469309D01*
X28507925Y35406086D01*
X28370558Y35314301D01*
X28370552Y35314296D01*
X28253745Y35197489D01*
X28253740Y35197483D01*
X28165459Y35065359D01*
X28161954Y35060114D01*
X28136474Y34998599D01*
X28098732Y34907484D01*
X28098731Y34907483D01*
X28066500Y34745449D01*
X28066500Y34580234D01*
X28089661Y34463799D01*
X28098731Y34418201D01*
X28161954Y34265568D01*
X28245773Y34140124D01*
X28253740Y34128200D01*
X28253745Y34128194D01*
X28370552Y34011387D01*
X28370558Y34011382D01*
X28370560Y34011380D01*
X28507927Y33919595D01*
X28660560Y33856372D01*
X28822595Y33824141D01*
X28822596Y33824141D01*
X28987804Y33824141D01*
X28987805Y33824141D01*
X29149840Y33856372D01*
X29302473Y33919595D01*
X29439840Y34011380D01*
X29556661Y34128201D01*
X29564628Y34140126D01*
X29619102Y34185654D01*
X29689545Y34194504D01*
X29753590Y34163865D01*
X29758489Y34159221D01*
X30010795Y33906915D01*
X30044821Y33844603D01*
X30047700Y33817820D01*
X30047700Y30854238D01*
X30027698Y30786117D01*
X29974042Y30739624D01*
X29946282Y30730659D01*
X29803558Y30702269D01*
X29803557Y30702268D01*
X29650925Y30639045D01*
X29513558Y30547260D01*
X29513552Y30547255D01*
X29396745Y30430448D01*
X29396740Y30430442D01*
X29304955Y30293075D01*
X29241732Y30140443D01*
X29241731Y30140442D01*
X29209500Y29978408D01*
X29209500Y29813193D01*
X29230427Y29707988D01*
X29241731Y29651160D01*
X29304954Y29498527D01*
X29381613Y29383799D01*
X29396740Y29361159D01*
X29396745Y29361153D01*
X29513552Y29244346D01*
X29513558Y29244341D01*
X29513560Y29244339D01*
X29556774Y29215464D01*
X29602302Y29160988D01*
X29611150Y29090545D01*
X29580509Y29026501D01*
X29520107Y28989190D01*
X29486772Y28984700D01*
X28064823Y28984700D01*
X27916114Y28944853D01*
X27866496Y28916206D01*
X27866495Y28916207D01*
X27782788Y28867879D01*
X27782782Y28867874D01*
X27688965Y28774056D01*
X27548712Y28633804D01*
X27486402Y28599780D01*
X27459619Y28596900D01*
X27417392Y28596900D01*
X27255358Y28564669D01*
X27255357Y28564668D01*
X27102725Y28501445D01*
X26965358Y28409660D01*
X26965352Y28409655D01*
X26853395Y28297697D01*
X26791083Y28263671D01*
X26720268Y28268736D01*
X26663432Y28311283D01*
X26638621Y28377803D01*
X26638300Y28386792D01*
X26638300Y29557460D01*
X26658302Y29625581D01*
X26675201Y29646552D01*
X26705061Y29676411D01*
X26796846Y29813778D01*
X26860069Y29966411D01*
X26892300Y30128446D01*
X26892300Y30293656D01*
X26860069Y30455691D01*
X26796846Y30608324D01*
X26705061Y30745691D01*
X26705059Y30745693D01*
X26705054Y30745699D01*
X26588247Y30862506D01*
X26588241Y30862511D01*
X26470057Y30941479D01*
X26450873Y30954297D01*
X26298241Y31017520D01*
X26136207Y31049751D01*
X26136205Y31049751D01*
X25970995Y31049751D01*
X25970992Y31049751D01*
X25808958Y31017520D01*
X25808957Y31017519D01*
X25719545Y30980483D01*
X25669625Y30959805D01*
X25656325Y30954296D01*
X25518958Y30862511D01*
X25518952Y30862506D01*
X25402145Y30745699D01*
X25402140Y30745693D01*
X25310355Y30608326D01*
X25247132Y30455694D01*
X25247131Y30455693D01*
X25214900Y30293659D01*
X24343502Y30293659D01*
X24343502Y34326422D01*
X24363504Y34394543D01*
X24380407Y34415517D01*
X25697486Y35732595D01*
X25759798Y35766621D01*
X25786581Y35769500D01*
X25828804Y35769500D01*
X25828805Y35769500D01*
X25990840Y35801731D01*
X26143473Y35864954D01*
X26280840Y35956739D01*
X26397661Y36073560D01*
X26489446Y36210927D01*
X26552669Y36363560D01*
X26584900Y36525595D01*
X26584900Y36690805D01*
X26552669Y36852840D01*
X26489446Y37005473D01*
X26397661Y37142840D01*
X26397659Y37142842D01*
X26397654Y37142848D01*
X26280847Y37259655D01*
X26280841Y37259660D01*
X26178581Y37327988D01*
X26143473Y37351446D01*
X25990841Y37414669D01*
X25828807Y37446900D01*
X25828805Y37446900D01*
X25663595Y37446900D01*
X25663592Y37446900D01*
X25501558Y37414669D01*
X25501557Y37414668D01*
X25348925Y37351445D01*
X25211558Y37259660D01*
X25211552Y37259655D01*
X25094745Y37142848D01*
X25094740Y37142842D01*
X25002955Y37005475D01*
X24939732Y36852843D01*
X24939731Y36852842D01*
X24907500Y36690808D01*
X24907500Y36648581D01*
X24887498Y36580460D01*
X24870594Y36559486D01*
X23399788Y35088678D01*
X23371226Y35060116D01*
X23290927Y34979818D01*
X23290923Y34979813D01*
X23213949Y34846489D01*
X23174102Y34697778D01*
X23174102Y28644392D01*
X23154100Y28576271D01*
X23137197Y28555297D01*
X23107347Y28525448D01*
X23107342Y28525442D01*
X23018638Y28392685D01*
X23015556Y28388073D01*
X23011302Y28377803D01*
X22952334Y28235443D01*
X22952333Y28235442D01*
X22920102Y28073408D01*
X6551801Y28073408D01*
X6532049Y28198116D01*
X6465972Y28401483D01*
X6368894Y28592009D01*
X6243206Y28765004D01*
X6243203Y28765007D01*
X6243201Y28765010D01*
X6092009Y28916202D01*
X6092004Y28916206D01*
X5919012Y29041892D01*
X5919011Y29041893D01*
X5919009Y29041894D01*
X5777992Y29113746D01*
X5726379Y29162492D01*
X5709313Y29231407D01*
X5732214Y29298609D01*
X5761133Y29327945D01*
X5838004Y29383794D01*
X5989206Y29534996D01*
X6114894Y29707991D01*
X6211972Y29898517D01*
X6278049Y30101884D01*
X6311500Y30313084D01*
X6311500Y30526916D01*
X6278049Y30738116D01*
X6211972Y30941483D01*
X6114894Y31132009D01*
X5989206Y31305004D01*
X5989203Y31305007D01*
X5989201Y31305010D01*
X5838006Y31456205D01*
X5761136Y31512054D01*
X5717782Y31568277D01*
X5711707Y31639013D01*
X5744839Y31701804D01*
X5777989Y31726253D01*
X5919009Y31798106D01*
X6092004Y31923794D01*
X6243206Y32074996D01*
X6368894Y32247991D01*
X6465972Y32438517D01*
X6532049Y32641884D01*
X6565500Y32853084D01*
X6565500Y33066916D01*
X6532049Y33278116D01*
X6465972Y33481483D01*
X6368894Y33672009D01*
X6243206Y33845004D01*
X6243203Y33845007D01*
X6243201Y33845010D01*
X6092009Y33996202D01*
X6092006Y33996204D01*
X6092004Y33996206D01*
X5919009Y34121894D01*
X5777992Y34193746D01*
X5726379Y34242492D01*
X5709313Y34311407D01*
X5732214Y34378609D01*
X5761133Y34407945D01*
X5838004Y34463794D01*
X5989206Y34614996D01*
X6114894Y34787991D01*
X6211972Y34978517D01*
X6278049Y35181884D01*
X6311500Y35393084D01*
X6311500Y35606916D01*
X6278049Y35818116D01*
X6211972Y36021483D01*
X6114894Y36212009D01*
X5989206Y36385004D01*
X5989203Y36385007D01*
X5989201Y36385010D01*
X5838006Y36536205D01*
X5761136Y36592054D01*
X5717782Y36648277D01*
X5711707Y36719013D01*
X5744839Y36781804D01*
X5777989Y36806253D01*
X5919009Y36878106D01*
X6092004Y37003794D01*
X6243206Y37154996D01*
X6368894Y37327991D01*
X6465972Y37518517D01*
X6532049Y37721884D01*
X6565500Y37933084D01*
X6565500Y38146916D01*
X6532049Y38358116D01*
X6465972Y38561483D01*
X6368894Y38752009D01*
X6243206Y38925004D01*
X6243203Y38925007D01*
X6243201Y38925010D01*
X6092009Y39076202D01*
X6092006Y39076204D01*
X6092004Y39076206D01*
X5919009Y39201894D01*
X5777992Y39273746D01*
X5726379Y39322492D01*
X5709313Y39391407D01*
X5732214Y39458609D01*
X5761133Y39487945D01*
X5838004Y39543794D01*
X5989206Y39694996D01*
X6114894Y39867991D01*
X6211972Y40058517D01*
X6278049Y40261884D01*
X6311500Y40473084D01*
X6311500Y40686916D01*
X6278049Y40898116D01*
X6211972Y41101483D01*
X6114894Y41292009D01*
X5989206Y41465004D01*
X5989203Y41465007D01*
X5989201Y41465010D01*
X5838006Y41616205D01*
X5761136Y41672054D01*
X5717782Y41728277D01*
X5711707Y41799013D01*
X5744839Y41861804D01*
X5777989Y41886253D01*
X5919009Y41958106D01*
X6092004Y42083794D01*
X6243206Y42234996D01*
X6368894Y42407991D01*
X6465972Y42598517D01*
X6532049Y42801884D01*
X6565500Y43013084D01*
X6565500Y43226916D01*
X6532049Y43438116D01*
X6465972Y43641483D01*
X6368894Y43832009D01*
X6243206Y44005004D01*
X6243203Y44005007D01*
X6243201Y44005010D01*
X6092009Y44156202D01*
X6092006Y44156204D01*
X6092004Y44156206D01*
X5919009Y44281894D01*
X5777992Y44353746D01*
X5726379Y44402492D01*
X5709313Y44471407D01*
X5732214Y44538609D01*
X5761133Y44567945D01*
X5838004Y44623794D01*
X5989206Y44774996D01*
X6114894Y44947991D01*
X6211972Y45138517D01*
X6278049Y45341884D01*
X6311500Y45553084D01*
X6311500Y45766916D01*
X6278049Y45978116D01*
X6211972Y46181483D01*
X6114894Y46372009D01*
X5989206Y46545004D01*
X5989203Y46545007D01*
X5989201Y46545010D01*
X5907806Y46626405D01*
X5873780Y46688717D01*
X5878845Y46759532D01*
X5921392Y46816368D01*
X5987912Y46841179D01*
X5996901Y46841500D01*
X6105632Y46841500D01*
X6105638Y46841500D01*
X6105645Y46841501D01*
X6105649Y46841501D01*
X6166196Y46848010D01*
X6166199Y46848011D01*
X6166201Y46848011D01*
X6303204Y46899111D01*
X6420261Y46986739D01*
X6484720Y47072846D01*
X6507887Y47103793D01*
X6507887Y47103794D01*
X6507889Y47103796D01*
X6558989Y47240799D01*
X6559885Y47249126D01*
X6565499Y47301351D01*
X6565500Y47301368D01*
X6565500Y48571208D01*
X27660100Y48571208D01*
X27660100Y48405993D01*
X27691823Y48246512D01*
X27692331Y48243960D01*
X27755554Y48091327D01*
X27755555Y48091326D01*
X27847340Y47953959D01*
X27847345Y47953953D01*
X27964152Y47837146D01*
X27964158Y47837141D01*
X27964160Y47837139D01*
X28101527Y47745354D01*
X28254160Y47682131D01*
X28416195Y47649900D01*
X28458419Y47649900D01*
X28526540Y47629898D01*
X28547509Y47613000D01*
X28758749Y47401760D01*
X28940193Y47220316D01*
X28974218Y47158004D01*
X28969153Y47087188D01*
X28926606Y47030353D01*
X28921100Y47026457D01*
X28870743Y46992809D01*
X28853159Y46981060D01*
X28853152Y46981055D01*
X28736345Y46864248D01*
X28736340Y46864242D01*
X28644555Y46726875D01*
X28581332Y46574243D01*
X28581331Y46574242D01*
X28549100Y46412208D01*
X28549100Y46412205D01*
X28549100Y46246995D01*
X28581331Y46084960D01*
X28644554Y45932327D01*
X28735344Y45796450D01*
X28736340Y45794959D01*
X28736345Y45794953D01*
X28853152Y45678146D01*
X28853158Y45678141D01*
X28853160Y45678139D01*
X28990527Y45586354D01*
X29143160Y45523131D01*
X29305195Y45490900D01*
X29305196Y45490900D01*
X29470404Y45490900D01*
X29470405Y45490900D01*
X29632440Y45523131D01*
X29785073Y45586354D01*
X29922440Y45678139D01*
X29924140Y45679839D01*
X29952297Y45707995D01*
X30014609Y45742021D01*
X30041392Y45744900D01*
X32105493Y45744900D01*
X32111958Y45744900D01*
X32137420Y45742300D01*
X32148281Y45740059D01*
X32152861Y45738162D01*
X32281067Y45712660D01*
X32281518Y45712567D01*
X32312428Y45696117D01*
X32343547Y45679839D01*
X32343850Y45679394D01*
X32344192Y45679212D01*
X32345199Y45677414D01*
X32372464Y45637387D01*
X32429154Y45500527D01*
X32429155Y45500526D01*
X32520940Y45363159D01*
X32520945Y45363153D01*
X32637752Y45246346D01*
X32637758Y45246341D01*
X32637760Y45246339D01*
X32775127Y45154554D01*
X32927760Y45091331D01*
X33089795Y45059100D01*
X33089796Y45059100D01*
X33255004Y45059100D01*
X33255005Y45059100D01*
X33417040Y45091331D01*
X33569673Y45154554D01*
X33707040Y45246339D01*
X33823861Y45363160D01*
X33915646Y45500527D01*
X33978869Y45653160D01*
X34001497Y45766916D01*
X46774500Y45766916D01*
X46774500Y45553084D01*
X46807951Y45341884D01*
X46807952Y45341879D01*
X46868817Y45154554D01*
X46874028Y45138517D01*
X46971106Y44947991D01*
X47096794Y44774996D01*
X47096796Y44774994D01*
X47096798Y44774991D01*
X47247990Y44623799D01*
X47247993Y44623797D01*
X47247996Y44623794D01*
X47420991Y44498106D01*
X47562005Y44426256D01*
X47613620Y44377509D01*
X47630686Y44308594D01*
X47607786Y44241393D01*
X47578864Y44212054D01*
X47501989Y44156201D01*
X47350798Y44005010D01*
X47350796Y44005007D01*
X47225108Y43832013D01*
X47128029Y43641485D01*
X47128026Y43641479D01*
X47061952Y43438122D01*
X47061951Y43438117D01*
X47061951Y43438116D01*
X47028500Y43226916D01*
X47028500Y43013084D01*
X47061951Y42801884D01*
X47061952Y42801879D01*
X47128026Y42598522D01*
X47128028Y42598517D01*
X47225106Y42407991D01*
X47350794Y42234996D01*
X47350796Y42234994D01*
X47350798Y42234991D01*
X47501990Y42083799D01*
X47501993Y42083797D01*
X47501996Y42083794D01*
X47578863Y42027947D01*
X47622217Y41971725D01*
X47628292Y41900989D01*
X47595161Y41838197D01*
X47562006Y41813746D01*
X47435355Y41749214D01*
X47420987Y41741892D01*
X47247993Y41616204D01*
X47247990Y41616202D01*
X47096798Y41465010D01*
X47096796Y41465007D01*
X46971108Y41292013D01*
X46874029Y41101485D01*
X46874026Y41101479D01*
X46807952Y40898122D01*
X46807951Y40898117D01*
X46807951Y40898116D01*
X46774500Y40686916D01*
X46774500Y40473084D01*
X46807951Y40261884D01*
X46807952Y40261879D01*
X46874026Y40058522D01*
X46874028Y40058517D01*
X46971106Y39867991D01*
X47096794Y39694996D01*
X47096796Y39694994D01*
X47096798Y39694991D01*
X47247990Y39543799D01*
X47247993Y39543797D01*
X47247996Y39543794D01*
X47420991Y39418106D01*
X47562005Y39346256D01*
X47613620Y39297509D01*
X47630686Y39228594D01*
X47607786Y39161393D01*
X47578864Y39132054D01*
X47501989Y39076201D01*
X47350798Y38925010D01*
X47350796Y38925007D01*
X47225108Y38752013D01*
X47128029Y38561485D01*
X47128026Y38561479D01*
X47061952Y38358122D01*
X47061951Y38358117D01*
X47061951Y38358116D01*
X47028500Y38146916D01*
X47028500Y37933084D01*
X47061951Y37721884D01*
X47061952Y37721879D01*
X47128026Y37518522D01*
X47128028Y37518517D01*
X47225106Y37327991D01*
X47350794Y37154996D01*
X47350796Y37154994D01*
X47350798Y37154991D01*
X47501990Y37003799D01*
X47501993Y37003797D01*
X47501996Y37003794D01*
X47578863Y36947947D01*
X47622217Y36891725D01*
X47628292Y36820989D01*
X47595161Y36758197D01*
X47562006Y36733746D01*
X47477738Y36690808D01*
X47420987Y36661892D01*
X47247993Y36536204D01*
X47247990Y36536202D01*
X47096798Y36385010D01*
X47096796Y36385007D01*
X46971108Y36212013D01*
X46874029Y36021485D01*
X46874026Y36021479D01*
X46807952Y35818122D01*
X46807951Y35818117D01*
X46807951Y35818116D01*
X46774500Y35606916D01*
X46774500Y35393084D01*
X46805481Y35197481D01*
X46807952Y35181879D01*
X46873605Y34979818D01*
X46874028Y34978517D01*
X46971106Y34787991D01*
X47096794Y34614996D01*
X47096796Y34614994D01*
X47096798Y34614991D01*
X47247990Y34463799D01*
X47247993Y34463797D01*
X47247996Y34463794D01*
X47420991Y34338106D01*
X47562005Y34266256D01*
X47613620Y34217509D01*
X47630686Y34148594D01*
X47607786Y34081393D01*
X47578864Y34052054D01*
X47501989Y33996201D01*
X47350798Y33845010D01*
X47350796Y33845007D01*
X47225108Y33672013D01*
X47128029Y33481485D01*
X47128026Y33481479D01*
X47061952Y33278122D01*
X47061951Y33278117D01*
X47061951Y33278116D01*
X47028500Y33066916D01*
X47028500Y32853084D01*
X47061951Y32641884D01*
X47061952Y32641879D01*
X47093546Y32544643D01*
X47128028Y32438517D01*
X47225106Y32247991D01*
X47350794Y32074996D01*
X47350796Y32074994D01*
X47350798Y32074991D01*
X47501990Y31923799D01*
X47501993Y31923797D01*
X47501996Y31923794D01*
X47530994Y31902726D01*
X47578863Y31867947D01*
X47622217Y31811725D01*
X47628292Y31740989D01*
X47595161Y31678197D01*
X47562006Y31653746D01*
X47435355Y31589214D01*
X47420987Y31581892D01*
X47247993Y31456204D01*
X47247990Y31456202D01*
X47096798Y31305010D01*
X47096796Y31305007D01*
X46971108Y31132013D01*
X46874029Y30941485D01*
X46874026Y30941479D01*
X46807952Y30738122D01*
X46807951Y30738117D01*
X46807951Y30738116D01*
X46774500Y30526916D01*
X46774500Y30313084D01*
X46804925Y30120990D01*
X46807952Y30101879D01*
X46874026Y29898522D01*
X46874028Y29898517D01*
X46971106Y29707991D01*
X47096794Y29534996D01*
X47096796Y29534994D01*
X47096798Y29534991D01*
X47247990Y29383799D01*
X47247993Y29383797D01*
X47247996Y29383794D01*
X47420991Y29258106D01*
X47562005Y29186256D01*
X47613620Y29137509D01*
X47630686Y29068594D01*
X47607786Y29001393D01*
X47578864Y28972054D01*
X47501989Y28916201D01*
X47350798Y28765010D01*
X47350796Y28765007D01*
X47225108Y28592013D01*
X47128029Y28401485D01*
X47128026Y28401479D01*
X47061952Y28198122D01*
X47061951Y28198117D01*
X47061951Y28198116D01*
X47028500Y27986916D01*
X47028500Y27773084D01*
X47061951Y27561884D01*
X47061952Y27561879D01*
X47127245Y27360927D01*
X47128028Y27358517D01*
X47225106Y27167991D01*
X47350794Y26994996D01*
X47350796Y26994994D01*
X47350798Y26994991D01*
X47501990Y26843799D01*
X47501993Y26843797D01*
X47501996Y26843794D01*
X47578863Y26787947D01*
X47622217Y26731725D01*
X47628292Y26660989D01*
X47595161Y26598197D01*
X47562006Y26573746D01*
X47456393Y26519932D01*
X47420987Y26501892D01*
X47247993Y26376204D01*
X47247990Y26376202D01*
X47096798Y26225010D01*
X47096796Y26225007D01*
X46971108Y26052013D01*
X46874029Y25861485D01*
X46874026Y25861479D01*
X46807952Y25658122D01*
X46807951Y25658117D01*
X46807951Y25658116D01*
X46774500Y25446916D01*
X46774500Y25233084D01*
X46807951Y25021884D01*
X46807952Y25021879D01*
X46874026Y24818522D01*
X46874028Y24818517D01*
X46971106Y24627991D01*
X47096794Y24454996D01*
X47096796Y24454994D01*
X47096798Y24454991D01*
X47247990Y24303799D01*
X47247993Y24303797D01*
X47247996Y24303794D01*
X47420991Y24178106D01*
X47562005Y24106256D01*
X47613620Y24057509D01*
X47630686Y23988594D01*
X47607786Y23921393D01*
X47578864Y23892054D01*
X47501989Y23836201D01*
X47350798Y23685010D01*
X47350796Y23685007D01*
X47225108Y23512013D01*
X47128029Y23321485D01*
X47128026Y23321479D01*
X47061952Y23118122D01*
X47061951Y23118117D01*
X47061951Y23118116D01*
X47028500Y22906916D01*
X47028500Y22693084D01*
X47061951Y22481884D01*
X47061952Y22481879D01*
X47128026Y22278522D01*
X47128028Y22278517D01*
X47225106Y22087991D01*
X47350794Y21914996D01*
X47350796Y21914994D01*
X47350798Y21914991D01*
X47501990Y21763799D01*
X47501993Y21763797D01*
X47501996Y21763794D01*
X47578863Y21707947D01*
X47622217Y21651725D01*
X47628292Y21580989D01*
X47595161Y21518197D01*
X47562006Y21493746D01*
X47435355Y21429214D01*
X47420987Y21421892D01*
X47247993Y21296204D01*
X47247990Y21296202D01*
X47096798Y21145010D01*
X47096796Y21145007D01*
X46971108Y20972013D01*
X46874029Y20781485D01*
X46874026Y20781479D01*
X46807952Y20578122D01*
X46807951Y20578117D01*
X46807951Y20578116D01*
X46774500Y20366916D01*
X46774500Y20153084D01*
X46807951Y19941884D01*
X46807952Y19941879D01*
X46874026Y19738522D01*
X46874028Y19738517D01*
X46971106Y19547991D01*
X47096794Y19374996D01*
X47096796Y19374994D01*
X47096798Y19374991D01*
X47247990Y19223799D01*
X47247993Y19223797D01*
X47247996Y19223794D01*
X47420991Y19098106D01*
X47562005Y19026256D01*
X47613620Y18977509D01*
X47630686Y18908594D01*
X47607786Y18841393D01*
X47578864Y18812054D01*
X47501989Y18756201D01*
X47350798Y18605010D01*
X47350796Y18605007D01*
X47225108Y18432013D01*
X47128029Y18241485D01*
X47128026Y18241479D01*
X47061952Y18038122D01*
X47061951Y18038117D01*
X47061951Y18038116D01*
X47028500Y17826916D01*
X47028500Y17613084D01*
X47061951Y17401884D01*
X47061952Y17401879D01*
X47128026Y17198522D01*
X47128028Y17198517D01*
X47225106Y17007991D01*
X47350794Y16834996D01*
X47350796Y16834994D01*
X47350798Y16834991D01*
X47501990Y16683799D01*
X47501993Y16683797D01*
X47501996Y16683794D01*
X47578863Y16627947D01*
X47622217Y16571725D01*
X47628292Y16500989D01*
X47595161Y16438197D01*
X47562006Y16413746D01*
X47435355Y16349214D01*
X47420987Y16341892D01*
X47247993Y16216204D01*
X47247990Y16216202D01*
X47096798Y16065010D01*
X47096796Y16065007D01*
X46971108Y15892013D01*
X46874029Y15701485D01*
X46874026Y15701479D01*
X46807952Y15498122D01*
X46807951Y15498117D01*
X46807951Y15498116D01*
X46774500Y15286916D01*
X46774500Y15073084D01*
X46807951Y14861884D01*
X46807952Y14861879D01*
X46874026Y14658522D01*
X46874028Y14658517D01*
X46971106Y14467991D01*
X47096794Y14294996D01*
X47096796Y14294994D01*
X47096798Y14294991D01*
X47247990Y14143799D01*
X47247993Y14143797D01*
X47247996Y14143794D01*
X47420991Y14018106D01*
X47562005Y13946256D01*
X47613620Y13897509D01*
X47630686Y13828594D01*
X47607786Y13761393D01*
X47578864Y13732054D01*
X47501989Y13676201D01*
X47350798Y13525010D01*
X47350796Y13525007D01*
X47225108Y13352013D01*
X47128029Y13161485D01*
X47128026Y13161479D01*
X47061952Y12958122D01*
X47061951Y12958117D01*
X47061951Y12958116D01*
X47028500Y12746916D01*
X47028500Y12533084D01*
X47061951Y12321884D01*
X47061952Y12321879D01*
X47128026Y12118522D01*
X47128028Y12118517D01*
X47225106Y11927991D01*
X47350794Y11754996D01*
X47350796Y11754994D01*
X47350798Y11754991D01*
X47501990Y11603799D01*
X47501993Y11603797D01*
X47501996Y11603794D01*
X47578863Y11547947D01*
X47622217Y11491725D01*
X47628292Y11420989D01*
X47595161Y11358197D01*
X47562006Y11333746D01*
X47435355Y11269214D01*
X47420987Y11261892D01*
X47247993Y11136204D01*
X47247990Y11136202D01*
X47096798Y10985010D01*
X47096796Y10985007D01*
X46971108Y10812013D01*
X46874029Y10621485D01*
X46874026Y10621479D01*
X46807952Y10418122D01*
X46807951Y10418117D01*
X46807951Y10418116D01*
X46774500Y10206916D01*
X46774500Y9993084D01*
X46807951Y9781884D01*
X46807952Y9781879D01*
X46874026Y9578522D01*
X46874028Y9578517D01*
X46971106Y9387991D01*
X47096794Y9214996D01*
X47096796Y9214994D01*
X47096798Y9214991D01*
X47247990Y9063799D01*
X47247993Y9063797D01*
X47247996Y9063794D01*
X47420991Y8938106D01*
X47562505Y8866001D01*
X47614120Y8817252D01*
X47631186Y8748337D01*
X47608285Y8681136D01*
X47579364Y8651799D01*
X47502323Y8595825D01*
X47502317Y8595820D01*
X47351177Y8444680D01*
X47225536Y8271751D01*
X47128493Y8081293D01*
X47128490Y8081287D01*
X47062440Y7878005D01*
X47052302Y7814000D01*
X47956297Y7814000D01*
X47921075Y7752993D01*
X47887000Y7625826D01*
X47887000Y7494174D01*
X47921075Y7367007D01*
X47956297Y7306000D01*
X47052302Y7306000D01*
X47062440Y7241996D01*
X47128490Y7038714D01*
X47128493Y7038708D01*
X47225536Y6848250D01*
X47351177Y6675321D01*
X47502320Y6524178D01*
X47675249Y6398537D01*
X47865707Y6301494D01*
X47865713Y6301491D01*
X48068998Y6235440D01*
X48133000Y6225304D01*
X48133000Y7129298D01*
X48194007Y7094075D01*
X48321174Y7060000D01*
X48452826Y7060000D01*
X48579993Y7094075D01*
X48641000Y7129298D01*
X48641000Y6225304D01*
X48705001Y6235440D01*
X48908286Y6301491D01*
X48908292Y6301494D01*
X49098750Y6398537D01*
X49271679Y6524178D01*
X49422822Y6675321D01*
X49548463Y6848250D01*
X49645506Y7038708D01*
X49645509Y7038714D01*
X49711559Y7241996D01*
X49721698Y7306000D01*
X48817703Y7306000D01*
X48852925Y7367007D01*
X48887000Y7494174D01*
X48887000Y7625826D01*
X48852925Y7752993D01*
X48817703Y7814000D01*
X49721697Y7814000D01*
X49711559Y7878005D01*
X49645509Y8081287D01*
X49645506Y8081293D01*
X49548463Y8271751D01*
X49422822Y8444680D01*
X49271679Y8595823D01*
X49098750Y8721464D01*
X48957540Y8793414D01*
X48905925Y8842162D01*
X48888859Y8911077D01*
X48911760Y8978279D01*
X48940679Y9007615D01*
X49018004Y9063794D01*
X49169206Y9214996D01*
X49294894Y9387991D01*
X49391972Y9578517D01*
X49458049Y9781884D01*
X49491500Y9993084D01*
X49491500Y10206916D01*
X49458049Y10418116D01*
X49391972Y10621483D01*
X49294894Y10812009D01*
X49169206Y10985004D01*
X49169203Y10985007D01*
X49169201Y10985010D01*
X49018006Y11136205D01*
X48941136Y11192054D01*
X48897782Y11248277D01*
X48891707Y11319013D01*
X48924839Y11381804D01*
X48957989Y11406253D01*
X49099009Y11478106D01*
X49272004Y11603794D01*
X49423206Y11754996D01*
X49548894Y11927991D01*
X49645972Y12118517D01*
X49712049Y12321884D01*
X49745500Y12533084D01*
X49745500Y12746916D01*
X49712049Y12958116D01*
X49645972Y13161483D01*
X49548894Y13352009D01*
X49423206Y13525004D01*
X49423203Y13525007D01*
X49423201Y13525010D01*
X49272009Y13676202D01*
X49272006Y13676204D01*
X49272004Y13676206D01*
X49099009Y13801894D01*
X48957992Y13873746D01*
X48906379Y13922492D01*
X48889313Y13991407D01*
X48912214Y14058609D01*
X48941133Y14087945D01*
X49018004Y14143794D01*
X49169206Y14294996D01*
X49294894Y14467991D01*
X49391972Y14658517D01*
X49458049Y14861884D01*
X49491500Y15073084D01*
X49491500Y15286916D01*
X49458049Y15498116D01*
X49391972Y15701483D01*
X49294894Y15892009D01*
X49169206Y16065004D01*
X49169203Y16065007D01*
X49169201Y16065010D01*
X49018006Y16216205D01*
X48941136Y16272054D01*
X48897782Y16328277D01*
X48891707Y16399013D01*
X48924839Y16461804D01*
X48957989Y16486253D01*
X49099009Y16558106D01*
X49272004Y16683794D01*
X49423206Y16834996D01*
X49548894Y17007991D01*
X49645972Y17198517D01*
X49712049Y17401884D01*
X49745500Y17613084D01*
X49745500Y17826916D01*
X49712049Y18038116D01*
X49645972Y18241483D01*
X49548894Y18432009D01*
X49423206Y18605004D01*
X49423203Y18605007D01*
X49423201Y18605010D01*
X49272009Y18756202D01*
X49272006Y18756204D01*
X49272004Y18756206D01*
X49099009Y18881894D01*
X48957992Y18953746D01*
X48906379Y19002492D01*
X48889313Y19071407D01*
X48912214Y19138609D01*
X48941133Y19167945D01*
X49018004Y19223794D01*
X49169206Y19374996D01*
X49294894Y19547991D01*
X49391972Y19738517D01*
X49458049Y19941884D01*
X49491500Y20153084D01*
X49491500Y20366916D01*
X49458049Y20578116D01*
X49391972Y20781483D01*
X49294894Y20972009D01*
X49169206Y21145004D01*
X49169203Y21145007D01*
X49169201Y21145010D01*
X49018006Y21296205D01*
X48941136Y21352054D01*
X48897782Y21408277D01*
X48891707Y21479013D01*
X48924839Y21541804D01*
X48957989Y21566253D01*
X49099009Y21638106D01*
X49272004Y21763794D01*
X49423206Y21914996D01*
X49548894Y22087991D01*
X49645972Y22278517D01*
X49712049Y22481884D01*
X49745500Y22693084D01*
X49745500Y22906916D01*
X49712049Y23118116D01*
X49645972Y23321483D01*
X49548894Y23512009D01*
X49423206Y23685004D01*
X49423203Y23685007D01*
X49423201Y23685010D01*
X49272009Y23836202D01*
X49272006Y23836204D01*
X49272004Y23836206D01*
X49099009Y23961894D01*
X48957992Y24033746D01*
X48906379Y24082492D01*
X48889313Y24151407D01*
X48912214Y24218609D01*
X48941133Y24247945D01*
X49018004Y24303794D01*
X49169206Y24454996D01*
X49294894Y24627991D01*
X49391972Y24818517D01*
X49458049Y25021884D01*
X49491500Y25233084D01*
X49491500Y25446916D01*
X49458049Y25658116D01*
X49391972Y25861483D01*
X49294894Y26052009D01*
X49169206Y26225004D01*
X49169203Y26225007D01*
X49169201Y26225010D01*
X49018006Y26376205D01*
X48941136Y26432054D01*
X48897782Y26488277D01*
X48891707Y26559013D01*
X48924839Y26621804D01*
X48957989Y26646253D01*
X49099009Y26718106D01*
X49272004Y26843794D01*
X49423206Y26994996D01*
X49548894Y27167991D01*
X49645972Y27358517D01*
X49712049Y27561884D01*
X49745500Y27773084D01*
X49745500Y27986916D01*
X49712049Y28198116D01*
X49645972Y28401483D01*
X49548894Y28592009D01*
X49423206Y28765004D01*
X49423203Y28765007D01*
X49423201Y28765010D01*
X49272009Y28916202D01*
X49272004Y28916206D01*
X49099012Y29041892D01*
X49099011Y29041893D01*
X49099009Y29041894D01*
X48957992Y29113746D01*
X48906379Y29162492D01*
X48889313Y29231407D01*
X48912214Y29298609D01*
X48941133Y29327945D01*
X49018004Y29383794D01*
X49169206Y29534996D01*
X49294894Y29707991D01*
X49391972Y29898517D01*
X49458049Y30101884D01*
X49491500Y30313084D01*
X49491500Y30526916D01*
X49458049Y30738116D01*
X49391972Y30941483D01*
X49294894Y31132009D01*
X49169206Y31305004D01*
X49169203Y31305007D01*
X49169201Y31305010D01*
X49018006Y31456205D01*
X48941136Y31512054D01*
X48897782Y31568277D01*
X48891707Y31639013D01*
X48924839Y31701804D01*
X48957989Y31726253D01*
X49099009Y31798106D01*
X49272004Y31923794D01*
X49423206Y32074996D01*
X49548894Y32247991D01*
X49645972Y32438517D01*
X49712049Y32641884D01*
X49745500Y32853084D01*
X49745500Y33066916D01*
X49712049Y33278116D01*
X49645972Y33481483D01*
X49548894Y33672009D01*
X49423206Y33845004D01*
X49423203Y33845007D01*
X49423201Y33845010D01*
X49272009Y33996202D01*
X49272006Y33996204D01*
X49272004Y33996206D01*
X49099009Y34121894D01*
X48957992Y34193746D01*
X48906379Y34242492D01*
X48889313Y34311407D01*
X48912214Y34378609D01*
X48941133Y34407945D01*
X49018004Y34463794D01*
X49169206Y34614996D01*
X49294894Y34787991D01*
X49391972Y34978517D01*
X49458049Y35181884D01*
X49491500Y35393084D01*
X49491500Y35606916D01*
X49458049Y35818116D01*
X49391972Y36021483D01*
X49294894Y36212009D01*
X49169206Y36385004D01*
X49169203Y36385007D01*
X49169201Y36385010D01*
X49018006Y36536205D01*
X48941136Y36592054D01*
X48897782Y36648277D01*
X48891707Y36719013D01*
X48924839Y36781804D01*
X48957989Y36806253D01*
X49099009Y36878106D01*
X49272004Y37003794D01*
X49423206Y37154996D01*
X49548894Y37327991D01*
X49645972Y37518517D01*
X49712049Y37721884D01*
X49745500Y37933084D01*
X49745500Y38146916D01*
X49712049Y38358116D01*
X49645972Y38561483D01*
X49548894Y38752009D01*
X49423206Y38925004D01*
X49423203Y38925007D01*
X49423201Y38925010D01*
X49272009Y39076202D01*
X49272006Y39076204D01*
X49272004Y39076206D01*
X49099009Y39201894D01*
X48957992Y39273746D01*
X48906379Y39322492D01*
X48889313Y39391407D01*
X48912214Y39458609D01*
X48941133Y39487945D01*
X49018004Y39543794D01*
X49169206Y39694996D01*
X49294894Y39867991D01*
X49391972Y40058517D01*
X49458049Y40261884D01*
X49491500Y40473084D01*
X49491500Y40686916D01*
X49458049Y40898116D01*
X49391972Y41101483D01*
X49294894Y41292009D01*
X49169206Y41465004D01*
X49169203Y41465007D01*
X49169201Y41465010D01*
X49018006Y41616205D01*
X48941136Y41672054D01*
X48897782Y41728277D01*
X48891707Y41799013D01*
X48924839Y41861804D01*
X48957989Y41886253D01*
X49099009Y41958106D01*
X49272004Y42083794D01*
X49423206Y42234996D01*
X49548894Y42407991D01*
X49645972Y42598517D01*
X49712049Y42801884D01*
X49745500Y43013084D01*
X49745500Y43226916D01*
X49712049Y43438116D01*
X49645972Y43641483D01*
X49548894Y43832009D01*
X49423206Y44005004D01*
X49423203Y44005007D01*
X49423201Y44005010D01*
X49272009Y44156202D01*
X49272006Y44156204D01*
X49272004Y44156206D01*
X49099009Y44281894D01*
X48957992Y44353746D01*
X48906379Y44402492D01*
X48889313Y44471407D01*
X48912214Y44538609D01*
X48941133Y44567945D01*
X49018004Y44623794D01*
X49169206Y44774996D01*
X49294894Y44947991D01*
X49391972Y45138517D01*
X49458049Y45341884D01*
X49491500Y45553084D01*
X49491500Y45766916D01*
X49458049Y45978116D01*
X49391972Y46181483D01*
X49294894Y46372009D01*
X49169206Y46545004D01*
X49169203Y46545007D01*
X49169201Y46545010D01*
X49087806Y46626405D01*
X49053780Y46688717D01*
X49058845Y46759532D01*
X49101392Y46816368D01*
X49167912Y46841179D01*
X49176901Y46841500D01*
X49285632Y46841500D01*
X49285638Y46841500D01*
X49285645Y46841501D01*
X49285649Y46841501D01*
X49346196Y46848010D01*
X49346199Y46848011D01*
X49346201Y46848011D01*
X49483204Y46899111D01*
X49600261Y46986739D01*
X49664720Y47072846D01*
X49687887Y47103793D01*
X49687887Y47103794D01*
X49687889Y47103796D01*
X49738989Y47240799D01*
X49739885Y47249126D01*
X49745499Y47301351D01*
X49745500Y47301368D01*
X49745500Y49098633D01*
X49745499Y49098650D01*
X49738990Y49159197D01*
X49738988Y49159205D01*
X49709924Y49237125D01*
X49687889Y49296204D01*
X49687888Y49296206D01*
X49687887Y49296208D01*
X49600261Y49413262D01*
X49483207Y49500888D01*
X49483202Y49500890D01*
X49346204Y49551989D01*
X49346196Y49551991D01*
X49285649Y49558500D01*
X49285638Y49558500D01*
X47488362Y49558500D01*
X47488350Y49558500D01*
X47427803Y49551991D01*
X47427795Y49551989D01*
X47290797Y49500890D01*
X47290792Y49500888D01*
X47173738Y49413262D01*
X47086112Y49296208D01*
X47086110Y49296203D01*
X47035011Y49159205D01*
X47035009Y49159197D01*
X47028500Y49098650D01*
X47028500Y47301351D01*
X47035009Y47240804D01*
X47035011Y47240796D01*
X47086110Y47103798D01*
X47086112Y47103793D01*
X47173738Y46986739D01*
X47270497Y46914306D01*
X47313044Y46857470D01*
X47318108Y46786654D01*
X47284083Y46724342D01*
X47269054Y46711507D01*
X47250627Y46698118D01*
X47247989Y46696201D01*
X47096798Y46545010D01*
X47096796Y46545007D01*
X46971108Y46372013D01*
X46874029Y46181485D01*
X46874026Y46181479D01*
X46807952Y45978122D01*
X46807951Y45978117D01*
X46807951Y45978116D01*
X46774500Y45766916D01*
X34001497Y45766916D01*
X34011100Y45815195D01*
X34011100Y45980405D01*
X33978869Y46142440D01*
X33915646Y46295073D01*
X33823861Y46432440D01*
X33823859Y46432442D01*
X33823854Y46432448D01*
X33743205Y46513097D01*
X33709179Y46575409D01*
X33706300Y46602192D01*
X33706300Y46992809D01*
X33726302Y47060930D01*
X33743201Y47081901D01*
X33773061Y47111760D01*
X33864846Y47249127D01*
X33928069Y47401760D01*
X33960300Y47563795D01*
X33960300Y47729005D01*
X33928069Y47891040D01*
X33864846Y48043673D01*
X33773061Y48181040D01*
X33773059Y48181042D01*
X33773054Y48181048D01*
X33656247Y48297855D01*
X33656241Y48297860D01*
X33518874Y48389645D01*
X33518875Y48389645D01*
X33518873Y48389646D01*
X33366241Y48452869D01*
X33204207Y48485100D01*
X33204205Y48485100D01*
X33038995Y48485100D01*
X33038992Y48485100D01*
X32876958Y48452869D01*
X32876957Y48452868D01*
X32724325Y48389645D01*
X32586958Y48297860D01*
X32586952Y48297855D01*
X32557103Y48268005D01*
X32494791Y48233979D01*
X32468008Y48231100D01*
X29635381Y48231100D01*
X29605465Y48239884D01*
X29574996Y48246512D01*
X29569900Y48250327D01*
X29567260Y48251102D01*
X29546286Y48268005D01*
X29374405Y48439886D01*
X29340379Y48502198D01*
X29337500Y48528981D01*
X29337500Y48571204D01*
X29337499Y48571208D01*
X29305269Y48733240D01*
X29242046Y48885873D01*
X29150261Y49023240D01*
X29150259Y49023242D01*
X29150254Y49023248D01*
X29033447Y49140055D01*
X29033441Y49140060D01*
X29013568Y49153339D01*
X28896073Y49231846D01*
X28743441Y49295069D01*
X28581407Y49327300D01*
X28581405Y49327300D01*
X28416195Y49327300D01*
X28416192Y49327300D01*
X28254158Y49295069D01*
X28254157Y49295068D01*
X28101525Y49231845D01*
X27964158Y49140060D01*
X27964152Y49140055D01*
X27847345Y49023248D01*
X27847340Y49023242D01*
X27755555Y48885875D01*
X27692332Y48733243D01*
X27692331Y48733242D01*
X27660100Y48571208D01*
X6565500Y48571208D01*
X6565500Y49098633D01*
X6565499Y49098650D01*
X6558990Y49159197D01*
X6558988Y49159205D01*
X6529924Y49237125D01*
X6507889Y49296204D01*
X6507888Y49296206D01*
X6507887Y49296208D01*
X6420261Y49413262D01*
X6303207Y49500888D01*
X6303202Y49500890D01*
X6166204Y49551989D01*
X6166196Y49551991D01*
X6105649Y49558500D01*
X6105638Y49558500D01*
X4308362Y49558500D01*
X4308350Y49558500D01*
X4247803Y49551991D01*
X4247795Y49551989D01*
X4110797Y49500890D01*
X4110792Y49500888D01*
X3993738Y49413262D01*
X3906112Y49296208D01*
X3906110Y49296203D01*
X3855011Y49159205D01*
X3855009Y49159197D01*
X3848500Y49098650D01*
X3848500Y47301351D01*
X3855009Y47240804D01*
X3855011Y47240796D01*
X3906110Y47103798D01*
X3906112Y47103793D01*
X3993738Y46986739D01*
X4090497Y46914306D01*
X4133044Y46857470D01*
X4138108Y46786654D01*
X4104083Y46724342D01*
X4089054Y46711507D01*
X4070627Y46698118D01*
X4067989Y46696201D01*
X3916798Y46545010D01*
X3916796Y46545007D01*
X3791108Y46372013D01*
X3694029Y46181485D01*
X3694026Y46181479D01*
X3627952Y45978122D01*
X3627951Y45978117D01*
X3627951Y45978116D01*
X3594500Y45766916D01*
X75500Y45766916D01*
X75500Y59323650D01*
X7252100Y59323650D01*
X7252100Y57526351D01*
X7258609Y57465804D01*
X7258611Y57465796D01*
X7309710Y57328798D01*
X7309712Y57328793D01*
X7397338Y57211739D01*
X7514392Y57124113D01*
X7514394Y57124112D01*
X7514396Y57124111D01*
X7559816Y57107170D01*
X7651395Y57073012D01*
X7651403Y57073010D01*
X7711950Y57066501D01*
X7711955Y57066501D01*
X7711962Y57066500D01*
X7711968Y57066500D01*
X7736119Y57066500D01*
X7804240Y57046498D01*
X7825214Y57029595D01*
X8485651Y56369158D01*
X8417607Y56350925D01*
X8303593Y56285099D01*
X8210501Y56192007D01*
X8144675Y56077993D01*
X8126442Y56009949D01*
X7487222Y56649169D01*
X7487221Y56649169D01*
X7449134Y56596747D01*
X7352093Y56406293D01*
X7352090Y56406287D01*
X7286040Y56203004D01*
X7252600Y55991874D01*
X7252600Y55778127D01*
X7286040Y55566997D01*
X7352090Y55363714D01*
X7352093Y55363708D01*
X7449135Y55173252D01*
X7449136Y55173250D01*
X7487220Y55120833D01*
X7487221Y55120832D01*
X8126441Y55760053D01*
X8144675Y55692007D01*
X8210501Y55577993D01*
X8303593Y55484901D01*
X8417607Y55419075D01*
X8485651Y55400843D01*
X7846431Y54761622D01*
X7898849Y54723537D01*
X7898851Y54723536D01*
X8089307Y54626494D01*
X8089313Y54626491D01*
X8292596Y54560441D01*
X8503726Y54527000D01*
X8717474Y54527000D01*
X8928603Y54560441D01*
X9131886Y54626491D01*
X9131892Y54626494D01*
X9322350Y54723537D01*
X9374767Y54761622D01*
X9374767Y54761624D01*
X8735548Y55400843D01*
X8803593Y55419075D01*
X8917607Y55484901D01*
X9010699Y55577993D01*
X9076525Y55692007D01*
X9094757Y55760052D01*
X9733976Y55120833D01*
X9733978Y55120833D01*
X9772063Y55173250D01*
X9869106Y55363708D01*
X9869109Y55363714D01*
X9935159Y55566997D01*
X9968600Y55778127D01*
X9968600Y55991874D01*
X9935159Y56203004D01*
X9869109Y56406287D01*
X9869106Y56406293D01*
X9772064Y56596749D01*
X9772063Y56596751D01*
X9733978Y56649169D01*
X9094757Y56009949D01*
X9076525Y56077993D01*
X9010699Y56192007D01*
X8917607Y56285099D01*
X8803593Y56350925D01*
X8735547Y56369159D01*
X9395984Y57029595D01*
X9458297Y57063620D01*
X9485080Y57066500D01*
X9509232Y57066500D01*
X9509238Y57066500D01*
X9509245Y57066501D01*
X9509249Y57066501D01*
X9569796Y57073010D01*
X9569799Y57073011D01*
X9569801Y57073011D01*
X9706804Y57124111D01*
X9707458Y57124600D01*
X9823861Y57211739D01*
X9911487Y57328793D01*
X9911487Y57328794D01*
X9911489Y57328796D01*
X9962589Y57465799D01*
X9963177Y57471261D01*
X9969099Y57526351D01*
X9969100Y57526368D01*
X9969100Y59323633D01*
X9969099Y59323650D01*
X9962590Y59384197D01*
X9962588Y59384205D01*
X9933524Y59462125D01*
X9911489Y59521204D01*
X9911488Y59521206D01*
X9911487Y59521208D01*
X9823862Y59638260D01*
X9823859Y59638262D01*
X9781411Y59670039D01*
X9781410Y59670040D01*
X9706807Y59725888D01*
X9706802Y59725890D01*
X9602698Y59764720D01*
X14655300Y59764720D01*
X14655300Y59564481D01*
X14694364Y59368098D01*
X14694365Y59368095D01*
X14770989Y59183109D01*
X14827086Y59099152D01*
X14848300Y59031399D01*
X14829516Y58962932D01*
X14827086Y58959151D01*
X14771433Y58875859D01*
X14771432Y58875857D01*
X14694846Y58690962D01*
X14694844Y58690957D01*
X14655800Y58494670D01*
X14655800Y58294531D01*
X14694844Y58098244D01*
X14694846Y58098239D01*
X14771434Y57913340D01*
X14795423Y57877437D01*
X15354300Y58436312D01*
X15354300Y58352800D01*
X15375937Y58272049D01*
X15417737Y58199650D01*
X15476850Y58140537D01*
X15549249Y58098737D01*
X15630000Y58077100D01*
X15713600Y58077100D01*
X15794351Y58098737D01*
X15866750Y58140537D01*
X15925863Y58199650D01*
X15939474Y58223225D01*
X15964364Y58098098D01*
X15964365Y58098095D01*
X15973170Y58076838D01*
X15980759Y58006248D01*
X15948980Y57942761D01*
X15887921Y57906534D01*
X15816970Y57909068D01*
X15767666Y57939525D01*
X15671801Y58035390D01*
X15671799Y58035390D01*
X15396010Y57759601D01*
X15671799Y57483812D01*
X15767665Y57579677D01*
X15829977Y57613702D01*
X15900793Y57608638D01*
X15957629Y57566091D01*
X15982440Y57499571D01*
X15973171Y57442367D01*
X15964366Y57421110D01*
X15964364Y57421103D01*
X15939473Y57295976D01*
X15925863Y57319550D01*
X15866750Y57378663D01*
X15794351Y57420463D01*
X15713600Y57442100D01*
X15630000Y57442100D01*
X15549249Y57420463D01*
X15476850Y57378663D01*
X15417737Y57319550D01*
X15375937Y57247151D01*
X15354300Y57166400D01*
X15354300Y57082890D01*
X14795423Y57641766D01*
X14771433Y57605858D01*
X14694846Y57420962D01*
X14694844Y57420957D01*
X14655800Y57224670D01*
X14655800Y57024531D01*
X14694844Y56828244D01*
X14694846Y56828239D01*
X14771432Y56643344D01*
X14827085Y56560053D01*
X14848300Y56492300D01*
X14829517Y56423833D01*
X14827086Y56420051D01*
X14770991Y56336097D01*
X14694365Y56151106D01*
X14694364Y56151103D01*
X14655300Y55954720D01*
X14655300Y55754481D01*
X14694364Y55558098D01*
X14694365Y55558095D01*
X14770989Y55373109D01*
X14827086Y55289152D01*
X14848300Y55221399D01*
X14829516Y55152932D01*
X14827086Y55149151D01*
X14771433Y55065859D01*
X14771432Y55065857D01*
X14694846Y54880962D01*
X14694844Y54880957D01*
X14655800Y54684670D01*
X14655800Y54484531D01*
X14694844Y54288244D01*
X14694846Y54288239D01*
X14771432Y54103344D01*
X14795424Y54067437D01*
X15354300Y54626312D01*
X15354300Y54542800D01*
X15375937Y54462049D01*
X15417737Y54389650D01*
X15476850Y54330537D01*
X15549249Y54288737D01*
X15630000Y54267100D01*
X15713508Y54267100D01*
X15154634Y53708227D01*
X15154635Y53708226D01*
X15190540Y53684234D01*
X15375438Y53607647D01*
X15375443Y53607645D01*
X15571730Y53568601D01*
X15571734Y53568600D01*
X15771866Y53568600D01*
X15771869Y53568601D01*
X15968156Y53607645D01*
X15968161Y53607647D01*
X16153053Y53684231D01*
X16236347Y53739887D01*
X16304100Y53761102D01*
X16372567Y53742319D01*
X16376335Y53739898D01*
X16460307Y53683790D01*
X16645298Y53607164D01*
X16841684Y53568100D01*
X17041912Y53568100D01*
X17041916Y53568100D01*
X17050505Y53569809D01*
X17121216Y53563484D01*
X17164184Y53535326D01*
X18058524Y52640986D01*
X18167386Y52532124D01*
X18167387Y52532123D01*
X18167389Y52532122D01*
X18219118Y52502257D01*
X18300714Y52455147D01*
X18449423Y52415300D01*
X18449425Y52415300D01*
X23476975Y52415300D01*
X23476977Y52415300D01*
X23625686Y52455147D01*
X23759014Y52532124D01*
X23867876Y52640986D01*
X23927401Y52700511D01*
X23927403Y52700514D01*
X24292978Y53066088D01*
X24355289Y53100112D01*
X24426105Y53095047D01*
X24482940Y53052500D01*
X24507751Y52985979D01*
X24498481Y52928774D01*
X24431252Y52766467D01*
X24371587Y52543795D01*
X24341500Y52315261D01*
X24341500Y52084740D01*
X24371587Y51856206D01*
X24371588Y51856200D01*
X24371589Y51856198D01*
X24431251Y51633536D01*
X24519465Y51420567D01*
X24519466Y51420566D01*
X24519471Y51420556D01*
X24585492Y51306206D01*
X24634724Y51220934D01*
X24757214Y51061301D01*
X24775053Y51038053D01*
X24775062Y51038043D01*
X24938042Y50875063D01*
X24938052Y50875054D01*
X24938053Y50875053D01*
X25120934Y50734724D01*
X25132515Y50728038D01*
X25144768Y50720963D01*
X25193761Y50669580D01*
X25207197Y50599866D01*
X25186534Y50541844D01*
X25156755Y50497277D01*
X25093532Y50344643D01*
X25093531Y50344642D01*
X25061300Y50182608D01*
X25061300Y50017393D01*
X25093531Y49855360D01*
X25156754Y49702727D01*
X25156755Y49702726D01*
X25248540Y49565359D01*
X25248545Y49565353D01*
X25365352Y49448546D01*
X25365358Y49448541D01*
X25365360Y49448539D01*
X25502727Y49356754D01*
X25655360Y49293531D01*
X25817395Y49261300D01*
X25817396Y49261300D01*
X25982604Y49261300D01*
X25982605Y49261300D01*
X26144640Y49293531D01*
X26297273Y49356754D01*
X26434640Y49448539D01*
X26551461Y49565360D01*
X26643246Y49702727D01*
X26706469Y49855360D01*
X26712844Y49887408D01*
X29306500Y49887408D01*
X29306500Y49722193D01*
X29337697Y49565359D01*
X29338731Y49560160D01*
X29401954Y49407527D01*
X29478123Y49293532D01*
X29493740Y49270159D01*
X29493745Y49270153D01*
X29610552Y49153346D01*
X29610558Y49153341D01*
X29610560Y49153339D01*
X29747927Y49061554D01*
X29900560Y48998331D01*
X30062595Y48966100D01*
X30062596Y48966100D01*
X30227804Y48966100D01*
X30227805Y48966100D01*
X30389840Y48998331D01*
X30542473Y49061554D01*
X30679840Y49153339D01*
X30796661Y49270160D01*
X30888446Y49407527D01*
X30951669Y49560160D01*
X30983900Y49722195D01*
X30983900Y49875371D01*
X31003902Y49943492D01*
X31057558Y49989985D01*
X31127832Y50000089D01*
X31158113Y49991782D01*
X31183536Y49981251D01*
X31406198Y49921589D01*
X31406204Y49921589D01*
X31406205Y49921588D01*
X31432114Y49918177D01*
X31634742Y49891500D01*
X31634749Y49891500D01*
X31865251Y49891500D01*
X31865258Y49891500D01*
X32093802Y49921589D01*
X32316464Y49981251D01*
X32529433Y50069465D01*
X32729066Y50184724D01*
X32911947Y50325053D01*
X33074947Y50488053D01*
X33215276Y50670934D01*
X33330535Y50870567D01*
X33418749Y51083536D01*
X33478411Y51306198D01*
X33508500Y51534742D01*
X33508500Y51765258D01*
X33478411Y51993802D01*
X33418749Y52216464D01*
X33330535Y52429433D01*
X33215276Y52629066D01*
X33074947Y52811947D01*
X33074946Y52811948D01*
X33074937Y52811958D01*
X32911957Y52974938D01*
X32911947Y52974947D01*
X32897570Y52985979D01*
X32729066Y53115276D01*
X32687970Y53139003D01*
X32529444Y53230529D01*
X32529439Y53230532D01*
X32529433Y53230535D01*
X32316464Y53318749D01*
X32093802Y53378411D01*
X32093800Y53378412D01*
X32093794Y53378413D01*
X31865260Y53408500D01*
X31865258Y53408500D01*
X31634742Y53408500D01*
X31634739Y53408500D01*
X31406205Y53378413D01*
X31183536Y53318749D01*
X30970565Y53230534D01*
X30970555Y53230529D01*
X30770938Y53115279D01*
X30588052Y52974947D01*
X30588042Y52974938D01*
X30425062Y52811958D01*
X30425053Y52811948D01*
X30284721Y52629062D01*
X30169471Y52429445D01*
X30169466Y52429435D01*
X30081251Y52216464D01*
X30021587Y51993795D01*
X29991500Y51765261D01*
X29991500Y51534740D01*
X30021587Y51306206D01*
X30021588Y51306200D01*
X30021589Y51306198D01*
X30078572Y51093533D01*
X30081253Y51083530D01*
X30129693Y50966584D01*
X30137282Y50895994D01*
X30105502Y50832507D01*
X30102379Y50829271D01*
X29890659Y50617551D01*
X29849783Y50590238D01*
X29747932Y50548049D01*
X29747927Y50548047D01*
X29610558Y50456260D01*
X29610552Y50456255D01*
X29493745Y50339448D01*
X29493740Y50339442D01*
X29401955Y50202075D01*
X29338732Y50049443D01*
X29338731Y50049442D01*
X29306500Y49887408D01*
X26712844Y49887408D01*
X26738700Y50017395D01*
X26738700Y50182605D01*
X26706469Y50344640D01*
X26694291Y50374041D01*
X26692638Y50382352D01*
X26689804Y50386761D01*
X26684700Y50422259D01*
X26684700Y50454615D01*
X26704702Y50522736D01*
X26758358Y50569229D01*
X26762452Y50571011D01*
X26879433Y50619465D01*
X27079066Y50734724D01*
X27261947Y50875053D01*
X27424947Y51038053D01*
X27565276Y51220934D01*
X27621417Y51318174D01*
X27672799Y51367166D01*
X27742513Y51380602D01*
X27808424Y51354216D01*
X27819623Y51344276D01*
X27915360Y51248539D01*
X28052727Y51156754D01*
X28205360Y51093531D01*
X28367395Y51061300D01*
X28367396Y51061300D01*
X28532604Y51061300D01*
X28532605Y51061300D01*
X28694640Y51093531D01*
X28847273Y51156754D01*
X28984640Y51248539D01*
X29101461Y51365360D01*
X29193246Y51502727D01*
X29256469Y51655360D01*
X29288700Y51817395D01*
X29288700Y51982605D01*
X29256469Y52144640D01*
X29193246Y52297273D01*
X29101461Y52434640D01*
X29101459Y52434642D01*
X29101454Y52434648D01*
X29071605Y52464497D01*
X29037579Y52526809D01*
X29034700Y52553592D01*
X29034700Y53181276D01*
X29034700Y53181277D01*
X28994853Y53329986D01*
X28931856Y53439100D01*
X28917876Y53463315D01*
X28329905Y54051286D01*
X28295879Y54113598D01*
X28293000Y54140381D01*
X28293000Y54182604D01*
X28292999Y54182608D01*
X28278967Y54253153D01*
X28260769Y54344640D01*
X28197546Y54497273D01*
X28197543Y54497278D01*
X28195926Y54500304D01*
X28195558Y54502071D01*
X28195177Y54502991D01*
X28195351Y54503064D01*
X28181454Y54569810D01*
X28206858Y54636106D01*
X28264071Y54678144D01*
X28307048Y54685700D01*
X30048975Y54685700D01*
X30048977Y54685700D01*
X30197686Y54725547D01*
X30331014Y54802524D01*
X30439876Y54911386D01*
X30499401Y54970911D01*
X30499403Y54970915D01*
X31726687Y56198196D01*
X31788999Y56232221D01*
X31815782Y56235100D01*
X32264808Y56235100D01*
X32332929Y56215098D01*
X32353903Y56198195D01*
X32383752Y56168346D01*
X32383758Y56168341D01*
X32383760Y56168339D01*
X32521127Y56076554D01*
X32673760Y56013331D01*
X32835795Y55981100D01*
X32835796Y55981100D01*
X33001004Y55981100D01*
X33001005Y55981100D01*
X33163040Y56013331D01*
X33315673Y56076554D01*
X33407701Y56138046D01*
X33475450Y56159259D01*
X33543917Y56140476D01*
X33591361Y56087659D01*
X33603700Y56033279D01*
X33603700Y55492192D01*
X33583698Y55424071D01*
X33566795Y55403097D01*
X33486145Y55322448D01*
X33486140Y55322442D01*
X33394355Y55185075D01*
X33331132Y55032443D01*
X33331131Y55032442D01*
X33298900Y54870408D01*
X33298900Y54705193D01*
X33331131Y54543160D01*
X33394354Y54390527D01*
X33462795Y54288098D01*
X33486140Y54253159D01*
X33486145Y54253153D01*
X33602952Y54136346D01*
X33602958Y54136341D01*
X33602960Y54136339D01*
X33740327Y54044554D01*
X33892960Y53981331D01*
X34054995Y53949100D01*
X34054996Y53949100D01*
X34220204Y53949100D01*
X34220205Y53949100D01*
X34382240Y53981331D01*
X34534873Y54044554D01*
X34672240Y54136339D01*
X34789061Y54253160D01*
X34880846Y54390527D01*
X34944069Y54543160D01*
X34976300Y54705195D01*
X34976300Y54870405D01*
X34944069Y55032440D01*
X34880846Y55185073D01*
X34880845Y55185075D01*
X34880844Y55185077D01*
X34880843Y55185078D01*
X34794335Y55314548D01*
X34773120Y55382301D01*
X34773100Y55384549D01*
X34773100Y57074576D01*
X34771629Y57080067D01*
X34733253Y57223286D01*
X34677675Y57319550D01*
X34656278Y57356611D01*
X34656274Y57356616D01*
X34608390Y57404500D01*
X34547414Y57465476D01*
X33921005Y58091885D01*
X33886979Y58154197D01*
X33884100Y58180980D01*
X33884100Y58223204D01*
X33884099Y58223208D01*
X33869922Y58294481D01*
X33851869Y58385240D01*
X33788646Y58537873D01*
X33696861Y58675240D01*
X33696859Y58675242D01*
X33696854Y58675248D01*
X33580047Y58792055D01*
X33580041Y58792060D01*
X33455863Y58875033D01*
X33442673Y58883846D01*
X33290041Y58947069D01*
X33128007Y58979300D01*
X33128005Y58979300D01*
X32962795Y58979300D01*
X32962792Y58979300D01*
X32800758Y58947069D01*
X32800757Y58947068D01*
X32711345Y58910032D01*
X32666432Y58891428D01*
X32648125Y58883845D01*
X32510758Y58792060D01*
X32510752Y58792055D01*
X32480903Y58762205D01*
X32418591Y58728179D01*
X32391808Y58725300D01*
X32017577Y58725300D01*
X31863623Y58725300D01*
X31772610Y58700914D01*
X31714910Y58685453D01*
X31581589Y58608480D01*
X31581579Y58608472D01*
X29594715Y56621605D01*
X29567350Y56606663D01*
X29541118Y56589804D01*
X29534816Y56588898D01*
X29532403Y56587580D01*
X29505620Y56584700D01*
X29394380Y56584700D01*
X29326259Y56604702D01*
X29305285Y56621605D01*
X27094994Y58831896D01*
X27060968Y58894208D01*
X27066033Y58965023D01*
X27067658Y58969156D01*
X27078788Y58996023D01*
X27111019Y59158058D01*
X27111019Y59323268D01*
X27078788Y59485303D01*
X27015565Y59637936D01*
X26923780Y59775303D01*
X26923778Y59775305D01*
X26923773Y59775311D01*
X26806966Y59892118D01*
X26806960Y59892123D01*
X26703724Y59961103D01*
X26669592Y59983909D01*
X26516960Y60047132D01*
X26354926Y60079363D01*
X26354924Y60079363D01*
X26312699Y60079363D01*
X26244578Y60099365D01*
X26223604Y60116268D01*
X24222002Y62117871D01*
X24221992Y62117879D01*
X24106357Y62184640D01*
X24106355Y62184642D01*
X24088673Y62194851D01*
X24088666Y62194854D01*
X24019651Y62213347D01*
X23939959Y62234700D01*
X23939957Y62234700D01*
X20053592Y62234700D01*
X19985471Y62254702D01*
X19964497Y62271605D01*
X19934647Y62301455D01*
X19934641Y62301460D01*
X19901212Y62323797D01*
X19797273Y62393246D01*
X19644641Y62456469D01*
X19482607Y62488700D01*
X19482605Y62488700D01*
X19317395Y62488700D01*
X19317392Y62488700D01*
X19155358Y62456469D01*
X19155357Y62456468D01*
X19002725Y62393245D01*
X18865358Y62301460D01*
X18865352Y62301455D01*
X18748545Y62184648D01*
X18748540Y62184642D01*
X18656755Y62047275D01*
X18593532Y61894643D01*
X18593531Y61894642D01*
X18561300Y61732608D01*
X18561300Y61732605D01*
X18561300Y61567395D01*
X18593531Y61405360D01*
X18656754Y61252727D01*
X18656755Y61252726D01*
X18748540Y61115359D01*
X18748545Y61115353D01*
X18865352Y60998546D01*
X18865358Y60998541D01*
X18865360Y60998539D01*
X19002727Y60906754D01*
X19155360Y60843531D01*
X19317395Y60811300D01*
X19317396Y60811300D01*
X19482604Y60811300D01*
X19482605Y60811300D01*
X19644640Y60843531D01*
X19797273Y60906754D01*
X19934640Y60998539D01*
X19934647Y60998546D01*
X19964497Y61028395D01*
X20026809Y61062421D01*
X20053592Y61065300D01*
X23568602Y61065300D01*
X23636723Y61045298D01*
X23657697Y61028395D01*
X25396714Y59289378D01*
X25409112Y59266673D01*
X25424949Y59246213D01*
X25427413Y59233159D01*
X25430740Y59227066D01*
X25433137Y59211297D01*
X25433619Y59205805D01*
X25433619Y59158058D01*
X25441116Y59120367D01*
X25441716Y59113530D01*
X25436026Y59085181D01*
X25433449Y59056383D01*
X25429130Y59050824D01*
X25427745Y59043922D01*
X25407632Y59023150D01*
X25389894Y59000316D01*
X25386198Y58997751D01*
X25334090Y58962932D01*
X25313447Y58949139D01*
X25313440Y58949134D01*
X25196633Y58832327D01*
X25196628Y58832321D01*
X25125120Y58725300D01*
X25104842Y58694952D01*
X25096680Y58675248D01*
X25041620Y58542322D01*
X25041619Y58542321D01*
X25009388Y58380287D01*
X25009388Y58215072D01*
X25041619Y58053038D01*
X25041621Y58053033D01*
X25094958Y57924267D01*
X25102547Y57853678D01*
X25093073Y57823511D01*
X25088886Y57814386D01*
X25063154Y57775873D01*
X24999931Y57623240D01*
X24998961Y57618366D01*
X24993890Y57607311D01*
X24982576Y57594300D01*
X24968461Y57570754D01*
X23128154Y55730446D01*
X23065842Y55696421D01*
X23025122Y55696048D01*
X23024969Y55694493D01*
X23018805Y55695100D01*
X22853595Y55695100D01*
X22853592Y55695100D01*
X22691558Y55662869D01*
X22691557Y55662868D01*
X22538925Y55599645D01*
X22401558Y55507860D01*
X22401552Y55507855D01*
X22284745Y55391048D01*
X22284740Y55391042D01*
X22214432Y55285817D01*
X22192954Y55253673D01*
X22166768Y55190455D01*
X22129732Y55101043D01*
X22129731Y55101042D01*
X22097500Y54939008D01*
X22097500Y54910700D01*
X22077498Y54842579D01*
X22023842Y54796086D01*
X21971500Y54784700D01*
X20953592Y54784700D01*
X20885471Y54804702D01*
X20864497Y54821605D01*
X20834647Y54851455D01*
X20834641Y54851460D01*
X20824318Y54858358D01*
X20697273Y54943246D01*
X20544641Y55006469D01*
X20382607Y55038700D01*
X20382605Y55038700D01*
X20217395Y55038700D01*
X20217392Y55038700D01*
X20055358Y55006469D01*
X20055357Y55006468D01*
X20023355Y54993212D01*
X19928183Y54953790D01*
X19902725Y54943245D01*
X19765358Y54851460D01*
X19765352Y54851455D01*
X19648545Y54734648D01*
X19648540Y54734642D01*
X19556755Y54597275D01*
X19493532Y54444643D01*
X19493531Y54444642D01*
X19461300Y54282608D01*
X19461300Y54117393D01*
X19492906Y53958501D01*
X19493531Y53955360D01*
X19556754Y53802727D01*
X19571472Y53780700D01*
X19592686Y53712950D01*
X19573903Y53644483D01*
X19521086Y53597039D01*
X19466706Y53584700D01*
X18820780Y53584700D01*
X18752659Y53604702D01*
X18731685Y53621605D01*
X17991074Y54362216D01*
X17957048Y54424528D01*
X17956591Y54475894D01*
X17958300Y54484484D01*
X17958300Y54684716D01*
X17919236Y54881102D01*
X17842610Y55066093D01*
X17786812Y55149601D01*
X17765598Y55217350D01*
X17784381Y55285817D01*
X17786793Y55289571D01*
X17842610Y55373107D01*
X17919236Y55558098D01*
X17958300Y55754484D01*
X17958300Y55954716D01*
X17919236Y56151102D01*
X17842610Y56336093D01*
X17786812Y56419601D01*
X17765598Y56487350D01*
X17784381Y56555817D01*
X17786793Y56559571D01*
X17842610Y56643107D01*
X17919236Y56828098D01*
X17958300Y57024484D01*
X17958300Y57224716D01*
X17919236Y57421102D01*
X17842610Y57606093D01*
X17786812Y57689601D01*
X17765598Y57757350D01*
X17784381Y57825817D01*
X17786793Y57829571D01*
X17842610Y57913107D01*
X17919236Y58098098D01*
X17958300Y58294484D01*
X17958300Y58494716D01*
X17919236Y58691102D01*
X17842610Y58876093D01*
X17786812Y58959601D01*
X17765598Y59027350D01*
X17784381Y59095817D01*
X17786793Y59099571D01*
X17842610Y59183107D01*
X17919236Y59368098D01*
X17958300Y59564484D01*
X17958300Y59764716D01*
X17919236Y59961102D01*
X17842610Y60146093D01*
X17731367Y60312581D01*
X17731365Y60312583D01*
X17731360Y60312589D01*
X17589788Y60454161D01*
X17589782Y60454166D01*
X17538547Y60488400D01*
X17423293Y60565410D01*
X17306639Y60613730D01*
X17238305Y60642035D01*
X17238302Y60642036D01*
X17041919Y60681100D01*
X17041916Y60681100D01*
X16841684Y60681100D01*
X16841680Y60681100D01*
X16645297Y60642036D01*
X16645294Y60642035D01*
X16460308Y60565411D01*
X16376801Y60509614D01*
X16309048Y60488400D01*
X16240581Y60507184D01*
X16236799Y60509614D01*
X16188510Y60541879D01*
X16153293Y60565410D01*
X16153291Y60565411D01*
X15968305Y60642035D01*
X15968302Y60642036D01*
X15771919Y60681100D01*
X15771916Y60681100D01*
X15571684Y60681100D01*
X15571680Y60681100D01*
X15375297Y60642036D01*
X15375294Y60642035D01*
X15190307Y60565410D01*
X15023817Y60454166D01*
X15023811Y60454161D01*
X14882239Y60312589D01*
X14882234Y60312583D01*
X14770990Y60146093D01*
X14694365Y59961106D01*
X14694364Y59961103D01*
X14655300Y59764720D01*
X9602698Y59764720D01*
X9569804Y59776989D01*
X9569796Y59776991D01*
X9509249Y59783500D01*
X9509238Y59783500D01*
X7711962Y59783500D01*
X7711950Y59783500D01*
X7651403Y59776991D01*
X7651395Y59776989D01*
X7514397Y59725890D01*
X7514392Y59725888D01*
X7397338Y59638262D01*
X7309712Y59521208D01*
X7309710Y59521203D01*
X7258611Y59384205D01*
X7258609Y59384197D01*
X7252100Y59323650D01*
X75500Y59323650D01*
X75500Y63466916D01*
X46776500Y63466916D01*
X46776500Y63253084D01*
X46809951Y63041884D01*
X46809952Y63041879D01*
X46876026Y62838522D01*
X46876028Y62838517D01*
X46973106Y62647991D01*
X47098794Y62474996D01*
X47098796Y62474994D01*
X47098798Y62474991D01*
X47249990Y62323799D01*
X47249993Y62323797D01*
X47249996Y62323794D01*
X47321828Y62271605D01*
X47403955Y62211936D01*
X47447309Y62155714D01*
X47453384Y62084977D01*
X47420252Y62022186D01*
X47403955Y62008064D01*
X47249993Y61896204D01*
X47249990Y61896202D01*
X47098798Y61745010D01*
X47098796Y61745007D01*
X46973108Y61572013D01*
X46876029Y61381485D01*
X46876026Y61381479D01*
X46809952Y61178122D01*
X46809951Y61178117D01*
X46809951Y61178116D01*
X46776500Y60966916D01*
X46776500Y60753084D01*
X46794089Y60642035D01*
X46809952Y60541879D01*
X46876026Y60338522D01*
X46876028Y60338517D01*
X46973106Y60147991D01*
X47098794Y59974996D01*
X47098796Y59974994D01*
X47098798Y59974991D01*
X47229104Y59844685D01*
X47263130Y59782373D01*
X47258065Y59711558D01*
X47215518Y59654722D01*
X47206156Y59648349D01*
X47061347Y59559030D01*
X47061341Y59559025D01*
X46935975Y59433659D01*
X46935970Y59433653D01*
X46842885Y59282738D01*
X46787113Y59114428D01*
X46787112Y59114421D01*
X46776500Y59010554D01*
X46776500Y57709456D01*
X46787112Y57605575D01*
X46842885Y57437262D01*
X46935970Y57286348D01*
X46935975Y57286342D01*
X47061341Y57160976D01*
X47061347Y57160971D01*
X47061348Y57160970D01*
X47212262Y57067885D01*
X47380574Y57012113D01*
X47484455Y57001500D01*
X49035544Y57001501D01*
X49139426Y57012113D01*
X49139429Y57012114D01*
X49139431Y57012114D01*
X49258973Y57051726D01*
X49329928Y57054167D01*
X49390938Y57017859D01*
X49422633Y56954330D01*
X49422185Y56907541D01*
X49409500Y56843773D01*
X49409500Y56843767D01*
X49409500Y56676233D01*
X49441721Y56514245D01*
X49442185Y56511915D01*
X49452360Y56487350D01*
X49506297Y56357137D01*
X49506298Y56357136D01*
X49599373Y56217839D01*
X49599378Y56217833D01*
X49717832Y56099379D01*
X49717838Y56099374D01*
X49857137Y56006297D01*
X50011918Y55942184D01*
X50176233Y55909500D01*
X50176234Y55909500D01*
X50343766Y55909500D01*
X50343767Y55909500D01*
X50508082Y55942184D01*
X50662863Y56006297D01*
X50802162Y56099374D01*
X50920626Y56217838D01*
X51013703Y56357137D01*
X51077816Y56511918D01*
X51110500Y56676233D01*
X51110500Y56843767D01*
X51077816Y57008082D01*
X51013703Y57162863D01*
X50920626Y57302162D01*
X50920621Y57302168D01*
X50802167Y57420622D01*
X50802161Y57420627D01*
X50662864Y57513702D01*
X50662865Y57513702D01*
X50662863Y57513703D01*
X50548983Y57560874D01*
X50508085Y57577815D01*
X50508083Y57577816D01*
X50508082Y57577816D01*
X50411617Y57597004D01*
X50343769Y57610500D01*
X50343767Y57610500D01*
X50176233Y57610500D01*
X50176230Y57610500D01*
X50011912Y57577815D01*
X49912615Y57536684D01*
X49842025Y57529095D01*
X49778538Y57560874D01*
X49742311Y57621933D01*
X49739050Y57665902D01*
X49743499Y57709450D01*
X49743500Y57709455D01*
X49743499Y59010544D01*
X49742878Y59016619D01*
X49732887Y59114426D01*
X49710128Y59183109D01*
X49677115Y59282738D01*
X49584030Y59433652D01*
X49584029Y59433653D01*
X49584024Y59433659D01*
X49458658Y59559025D01*
X49458652Y59559030D01*
X49449810Y59564484D01*
X49313842Y59648350D01*
X49266365Y59701135D01*
X49254962Y59771210D01*
X49283255Y59836326D01*
X49290884Y59844675D01*
X49421206Y59974996D01*
X49546894Y60147991D01*
X49643972Y60338517D01*
X49710049Y60541884D01*
X49743500Y60753084D01*
X49743500Y60966916D01*
X49710049Y61178116D01*
X49643972Y61381483D01*
X49546894Y61572009D01*
X49421206Y61745004D01*
X49421203Y61745007D01*
X49421201Y61745010D01*
X49270009Y61896202D01*
X49270006Y61896204D01*
X49270004Y61896206D01*
X49116043Y62008065D01*
X49072690Y62064286D01*
X49066615Y62135022D01*
X49099746Y62197814D01*
X49116044Y62211936D01*
X49147376Y62234700D01*
X49270004Y62323794D01*
X49421206Y62474996D01*
X49546894Y62647991D01*
X49643972Y62838517D01*
X49710049Y63041884D01*
X49743500Y63253084D01*
X49743500Y63466916D01*
X49710049Y63678116D01*
X49643972Y63881483D01*
X49546894Y64072009D01*
X49421206Y64245004D01*
X49421203Y64245007D01*
X49421201Y64245010D01*
X49270009Y64396202D01*
X49270006Y64396204D01*
X49270005Y64396205D01*
X49270004Y64396206D01*
X49115618Y64508374D01*
X49072264Y64564596D01*
X49066189Y64635333D01*
X49099320Y64698124D01*
X49115618Y64712246D01*
X49269679Y64824179D01*
X49269682Y64824181D01*
X49420822Y64975321D01*
X49546463Y65148250D01*
X49643506Y65338708D01*
X49643509Y65338714D01*
X49709559Y65541996D01*
X49719698Y65606000D01*
X48661836Y65606000D01*
X48702630Y65676657D01*
X48735000Y65797465D01*
X48735000Y65922535D01*
X48702630Y66043343D01*
X48661836Y66114000D01*
X49719697Y66114000D01*
X49709559Y66178005D01*
X49643509Y66381287D01*
X49643506Y66381293D01*
X49546463Y66571751D01*
X49420822Y66744680D01*
X49269679Y66895823D01*
X49096750Y67021464D01*
X48906292Y67118507D01*
X48906286Y67118510D01*
X48703004Y67184560D01*
X48514000Y67214497D01*
X48514000Y66261837D01*
X48443343Y66302630D01*
X48322535Y66335000D01*
X48197465Y66335000D01*
X48076657Y66302630D01*
X48006000Y66261837D01*
X48006000Y67214497D01*
X47816995Y67184560D01*
X47613713Y67118510D01*
X47613707Y67118507D01*
X47423249Y67021464D01*
X47250320Y66895823D01*
X47099177Y66744680D01*
X46973536Y66571751D01*
X46876493Y66381293D01*
X46876490Y66381287D01*
X46810440Y66178005D01*
X46800302Y66114000D01*
X47858164Y66114000D01*
X47817370Y66043343D01*
X47785000Y65922535D01*
X47785000Y65797465D01*
X47817370Y65676657D01*
X47858164Y65606000D01*
X46800302Y65606000D01*
X46810440Y65541996D01*
X46876490Y65338714D01*
X46876493Y65338708D01*
X46973536Y65148250D01*
X47099177Y64975321D01*
X47250317Y64824181D01*
X47250320Y64824179D01*
X47404381Y64712246D01*
X47447735Y64656024D01*
X47453810Y64585287D01*
X47420678Y64522496D01*
X47404381Y64508374D01*
X47249993Y64396205D01*
X47098798Y64245010D01*
X47098796Y64245007D01*
X46973108Y64072013D01*
X46876029Y63881485D01*
X46876026Y63881479D01*
X46809952Y63678122D01*
X46809951Y63678117D01*
X46809951Y63678116D01*
X46776500Y63466916D01*
X75500Y63466916D01*
X75500Y67648918D01*
X23024500Y67648918D01*
X23024500Y67501082D01*
X23053342Y67356087D01*
X23109916Y67219505D01*
X23192049Y67096584D01*
X23296584Y66992049D01*
X23419505Y66909916D01*
X23556087Y66853342D01*
X23701082Y66824500D01*
X23701087Y66824500D01*
X23848913Y66824500D01*
X23848918Y66824500D01*
X23993913Y66853342D01*
X24130495Y66909916D01*
X24253416Y66992049D01*
X24357951Y67096584D01*
X24440084Y67219505D01*
X24496658Y67356087D01*
X24525500Y67501082D01*
X24525500Y67648918D01*
X27424500Y67648918D01*
X27424500Y67501082D01*
X27453342Y67356087D01*
X27509916Y67219505D01*
X27592049Y67096584D01*
X27696584Y66992049D01*
X27819505Y66909916D01*
X27956087Y66853342D01*
X28101082Y66824500D01*
X28101087Y66824500D01*
X28248913Y66824500D01*
X28248918Y66824500D01*
X28393913Y66853342D01*
X28530495Y66909916D01*
X28653416Y66992049D01*
X28757951Y67096584D01*
X28840084Y67219505D01*
X28896658Y67356087D01*
X28925500Y67501082D01*
X28925500Y67648918D01*
X28896658Y67793913D01*
X28840084Y67930495D01*
X28757951Y68053416D01*
X28653416Y68157951D01*
X28530495Y68240084D01*
X28393916Y68296657D01*
X28393913Y68296658D01*
X28248918Y68325500D01*
X28101082Y68325500D01*
X28028584Y68311079D01*
X27956086Y68296658D01*
X27956083Y68296657D01*
X27819504Y68240084D01*
X27696588Y68157954D01*
X27696581Y68157949D01*
X27592051Y68053419D01*
X27592046Y68053412D01*
X27509916Y67930496D01*
X27453343Y67793917D01*
X27453342Y67793914D01*
X27453342Y67793913D01*
X27424500Y67648918D01*
X24525500Y67648918D01*
X24496658Y67793913D01*
X24440084Y67930495D01*
X24357951Y68053416D01*
X24253416Y68157951D01*
X24130495Y68240084D01*
X23993916Y68296657D01*
X23993913Y68296658D01*
X23848918Y68325500D01*
X23701082Y68325500D01*
X23628584Y68311079D01*
X23556086Y68296658D01*
X23556083Y68296657D01*
X23419504Y68240084D01*
X23296588Y68157954D01*
X23296581Y68157949D01*
X23192051Y68053419D01*
X23192046Y68053412D01*
X23109916Y67930496D01*
X23053343Y67793917D01*
X23053342Y67793914D01*
X23053342Y67793913D01*
X23024500Y67648918D01*
X75500Y67648918D01*
X75500Y71056195D01*
X75730Y71063802D01*
X76408Y71075018D01*
X93009Y71349469D01*
X94840Y71364546D01*
X145742Y71642310D01*
X149375Y71657050D01*
X233391Y71926667D01*
X238778Y71940868D01*
X354665Y72198360D01*
X361734Y72211828D01*
X507820Y72453486D01*
X516452Y72465991D01*
X690602Y72688277D01*
X700677Y72699649D01*
X900351Y72899323D01*
X911723Y72909398D01*
X1134009Y73083548D01*
X1146514Y73092180D01*
X1388175Y73238268D01*
X1401640Y73245335D01*
X1659132Y73361222D01*
X1673333Y73366609D01*
X1942950Y73450625D01*
X1957690Y73454258D01*
X2235454Y73505160D01*
X2250531Y73506991D01*
X2509703Y73522668D01*
X2536199Y73524270D01*
X2543806Y73524500D01*
X2564531Y73524500D01*
X50775469Y73524500D01*
X50796194Y73524500D01*
X50803801Y73524270D01*
G37*
%TD.AperFunction*%
%TD*%
M02*
