%TF.GenerationSoftware,KiCad,Pcbnew,10.0.2*%
%TF.CreationDate,2026-06-12T14:20:48-04:00*%
%TF.ProjectId,tag-breakout-l432-u375-lipo-v1,7461672d-6272-4656-916b-6f75742d6c34,rev?*%
%TF.SameCoordinates,Original*%
%TF.FileFunction,Copper,L2,Inr*%
%TF.FilePolarity,Positive*%
%FSLAX46Y46*%
G04 Gerber Fmt 4.6, Leading zero omitted, Abs format (unit mm)*
G04 Created by KiCad (PCBNEW 10.0.2) date 2026-06-12 14:20:48*
%MOMM*%
%LPD*%
G01*
G04 APERTURE LIST*
G04 Aperture macros list*
%AMRoundRect*
0 Rectangle with rounded corners*
0 $1 Rounding radius*
0 $2 $3 $4 $5 $6 $7 $8 $9 X,Y pos of 4 corners*
0 Add a 4 corners polygon primitive as box body*
4,1,4,$2,$3,$4,$5,$6,$7,$8,$9,$2,$3,0*
0 Add four circle primitives for the rounded corners*
1,1,$1+$1,$2,$3*
1,1,$1+$1,$4,$5*
1,1,$1+$1,$6,$7*
1,1,$1+$1,$8,$9*
0 Add four rect primitives between the rounded corners*
20,1,$1+$1,$2,$3,$4,$5,0*
20,1,$1+$1,$4,$5,$6,$7,0*
20,1,$1+$1,$6,$7,$8,$9,0*
20,1,$1+$1,$8,$9,$2,$3,0*%
G04 Aperture macros list end*
%TA.AperFunction,ComponentPad*%
%ADD10C,1.016000*%
%TD*%
%TA.AperFunction,ComponentPad*%
%ADD11R,1.700000X1.700000*%
%TD*%
%TA.AperFunction,ComponentPad*%
%ADD12C,1.700000*%
%TD*%
%TA.AperFunction,ComponentPad*%
%ADD13O,1.700000X1.700000*%
%TD*%
%TA.AperFunction,ComponentPad*%
%ADD14RoundRect,0.250000X0.725000X-0.600000X0.725000X0.600000X-0.725000X0.600000X-0.725000X-0.600000X0*%
%TD*%
%TA.AperFunction,ComponentPad*%
%ADD15O,1.950000X1.700000*%
%TD*%
%TA.AperFunction,ViaPad*%
%ADD16C,0.660400*%
%TD*%
G04 APERTURE END LIST*
D10*
%TO.N,+3V3*%
%TO.C,J102*%
X15671800Y59664600D03*
%TO.N,/SWDIO*%
X16941800Y59664600D03*
%TO.N,GND*%
X15671800Y58394600D03*
%TO.N,/SCLK*%
X16941800Y58394600D03*
%TO.N,GND*%
X15671800Y57124600D03*
%TO.N,unconnected-(J102-Pin_6-Pad6)*%
X16941800Y57124600D03*
%TO.N,unconnected-(J102-Pin_7-Pad7)*%
X15671800Y55854600D03*
%TO.N,unconnected-(J102-Pin_8-Pad8)*%
X16941800Y55854600D03*
%TO.N,GND*%
X15671800Y54584600D03*
%TO.N,/NRST*%
X16941800Y54584600D03*
%TD*%
D11*
%TO.N,/UART_TX*%
%TO.C,J2*%
X8610600Y58425000D03*
D12*
%TO.N,GND*%
X8610600Y55885000D03*
%TD*%
D11*
%TO.N,/stm32/PB4*%
%TO.C,J3*%
X5207000Y48200000D03*
D13*
%TO.N,/stm32/PB5*%
X4953000Y45660000D03*
%TO.N,/stm32/rtc_scl*%
X5207000Y43120000D03*
%TO.N,/stm32/rtc_sda*%
X4953000Y40580000D03*
%TO.N,GND*%
X5207000Y38040000D03*
X4953000Y35500000D03*
%TO.N,TAG_1V8*%
X5207000Y32960000D03*
%TO.N,/stm32/PA0*%
X4953000Y30420000D03*
%TO.N,/stm32/PA1*%
X5207000Y27880000D03*
%TO.N,/stm32/PA2*%
X4953000Y25340000D03*
%TO.N,/stm32/PA3*%
X5207000Y22800000D03*
%TO.N,/stm32/PA4*%
X4953000Y20260000D03*
%TO.N,/stm32/PA5*%
X5207000Y17720000D03*
%TO.N,/stm32/PA6*%
X4953000Y15180000D03*
%TO.N,/stm32/PA7*%
X5207000Y12640000D03*
%TO.N,/stm32/PB0*%
X4953000Y10100000D03*
%TO.N,GND*%
X5207000Y7560000D03*
%TD*%
D11*
%TO.N,TAG_1V8*%
%TO.C,J4*%
X48387000Y48200000D03*
D13*
%TO.N,/stm32/PB3*%
X48133000Y45660000D03*
%TO.N,/stm32/PA15*%
X48387000Y43120000D03*
%TO.N,/stm32/PA12*%
X48133000Y40580000D03*
%TO.N,/stm32/PA11*%
X48387000Y38040000D03*
%TO.N,/stm32/PA10*%
X48133000Y35500000D03*
%TO.N,/stm32/PA9*%
X48387000Y32960000D03*
%TO.N,/stm32/PA8*%
X48133000Y30420000D03*
%TO.N,GND*%
X48387000Y27880000D03*
X48133000Y25340000D03*
X48387000Y22800000D03*
X48133000Y20260000D03*
X48387000Y17720000D03*
X48133000Y15180000D03*
X48387000Y12640000D03*
%TO.N,/stm32/PB1*%
X48133000Y10100000D03*
%TO.N,GND*%
X48387000Y7560000D03*
%TD*%
D14*
%TO.N,PWR_IN_MIRROR*%
%TO.C,J1*%
X48260000Y58360000D03*
D15*
%TO.N,PWR_IN*%
X48260000Y60860000D03*
%TO.N,unconnected-(J1-Pin_3-Pad3)*%
X48260000Y63360000D03*
%TO.N,GND*%
X48260000Y65860000D03*
%TD*%
D16*
%TO.N,+3V3*%
X32700000Y48900000D03*
X28400000Y48400000D03*
X40800000Y54100000D03*
X38587600Y65887600D03*
X40623400Y48076600D03*
X40792300Y59692300D03*
X33045400Y58140600D03*
X34137600Y54787800D03*
X26800000Y61900000D03*
%TO.N,GND*%
X26700000Y54500000D03*
X10100000Y57700000D03*
X38836600Y71526400D03*
X20800000Y35400000D03*
X22968400Y27271000D03*
X35356800Y56743600D03*
X35890200Y51638200D03*
X17000000Y53500000D03*
X25300000Y29500000D03*
X36398200Y65836800D03*
X35700000Y33600000D03*
X34500000Y43500000D03*
X24200000Y63200000D03*
X32080200Y44170600D03*
X28016200Y44272200D03*
X25100000Y63300000D03*
X15595600Y67106800D03*
X30759400Y49149000D03*
X37795200Y61341000D03*
X24866600Y25628600D03*
X27323835Y29543600D03*
X33300000Y34900000D03*
X35000000Y36150000D03*
X27900000Y50600000D03*
X29750000Y26850000D03*
X44500000Y66274400D03*
X18000000Y57800000D03*
X34112200Y72491600D03*
X29438600Y58445400D03*
X28309050Y58509050D03*
X24600000Y36700000D03*
X35382200Y57937400D03*
X31950000Y24650000D03*
X29309050Y57509050D03*
X32300000Y33400000D03*
X29413200Y56718200D03*
X41600000Y65400000D03*
X35280600Y55651400D03*
X21800000Y55100000D03*
X18000000Y59100000D03*
X28575000Y61137800D03*
X19989800Y51943000D03*
X31100000Y26000000D03*
X24800000Y60600000D03*
X33400000Y23043600D03*
X20700000Y61200000D03*
X38203434Y55827366D03*
X36118800Y66675000D03*
X40100000Y66400000D03*
X22943000Y31182600D03*
X41700000Y64200000D03*
X26670000Y49276000D03*
X32400000Y46500000D03*
X40300000Y43500000D03*
X28400000Y46100000D03*
%TO.N,/NRST*%
X32918400Y56819800D03*
%TO.N,Net-(U5-PA10)*%
X25800000Y57863800D03*
X22936200Y54856400D03*
%TO.N,TAG_1V8*%
X27405000Y25651400D03*
X27500000Y27758200D03*
X21099200Y28693400D03*
X35433000Y23926800D03*
%TO.N,/stm32/NRST*%
X25746200Y36608200D03*
X25500000Y27500000D03*
%TO.N,/UART_TX*%
X20700000Y60300000D03*
X25848088Y58700000D03*
%TO.N,/stm32/rtc_scl*%
X22100000Y35000000D03*
X25200000Y30400000D03*
%TO.N,/stm32/PB3*%
X34600000Y34600000D03*
X32387078Y32503373D03*
%TO.N,/stm32/PA15*%
X34700000Y33700000D03*
X32600000Y31600000D03*
%TO.N,+1V8*%
X27990600Y45209400D03*
X32169400Y45130600D03*
%TO.N,Net-(U5-PB4)*%
X30145200Y49804800D03*
%TO.N,Net-(U5-PA15)*%
X28450000Y51900000D03*
X27454300Y54100000D03*
%TO.N,Net-(U5-PB3)*%
X25900000Y50100000D03*
%TD*%
%TA.AperFunction,Conductor*%
%TO.N,GND*%
G36*
X50803736Y73524274D02*
G01*
X51089577Y73506984D01*
X51104441Y73505179D01*
X51382421Y73454237D01*
X51396958Y73450654D01*
X51666761Y73366580D01*
X51680752Y73361274D01*
X51699685Y73352753D01*
X51938471Y73245284D01*
X51951729Y73238326D01*
X52193582Y73092121D01*
X52205893Y73083623D01*
X52428364Y72909329D01*
X52439572Y72899399D01*
X52639398Y72699573D01*
X52649328Y72688365D01*
X52823618Y72465900D01*
X52832124Y72453577D01*
X52978324Y72211731D01*
X52985283Y72198472D01*
X53101271Y71940758D01*
X53106580Y71926757D01*
X53190652Y71656960D01*
X53194236Y71642422D01*
X53245178Y71364442D01*
X53246983Y71349577D01*
X53264274Y71063737D01*
X53264500Y71056250D01*
X53264500Y2483751D01*
X53264274Y2476264D01*
X53246983Y2190424D01*
X53245178Y2175559D01*
X53194236Y1897579D01*
X53190652Y1883041D01*
X53106580Y1613244D01*
X53101271Y1599243D01*
X52985283Y1341529D01*
X52978324Y1328270D01*
X52832124Y1086424D01*
X52823618Y1074101D01*
X52649328Y851636D01*
X52639398Y840428D01*
X52439572Y640602D01*
X52428364Y630672D01*
X52205899Y456382D01*
X52193576Y447876D01*
X51951730Y301676D01*
X51938471Y294717D01*
X51680757Y178729D01*
X51666756Y173420D01*
X51396959Y89348D01*
X51382421Y85764D01*
X51104441Y34822D01*
X51089576Y33017D01*
X50803736Y15726D01*
X50796249Y15500D01*
X2543751Y15500D01*
X2536264Y15726D01*
X2250423Y33017D01*
X2235558Y34822D01*
X1957578Y85764D01*
X1943040Y89348D01*
X1673243Y173420D01*
X1659242Y178729D01*
X1401528Y294717D01*
X1388269Y301676D01*
X1146423Y447876D01*
X1134100Y456382D01*
X911635Y630672D01*
X900427Y640602D01*
X700601Y840428D01*
X690671Y851636D01*
X516377Y1074107D01*
X507879Y1086418D01*
X361674Y1328271D01*
X354716Y1341529D01*
X238726Y1599248D01*
X233419Y1613244D01*
X149347Y1883041D01*
X145763Y1897579D01*
X94821Y2175559D01*
X93016Y2190424D01*
X75726Y2476264D01*
X75500Y2483751D01*
X75500Y7810000D01*
X3879769Y7810000D01*
X4773988Y7810000D01*
X4741075Y7752993D01*
X4707000Y7625826D01*
X4707000Y7494174D01*
X4741075Y7367007D01*
X4773988Y7310000D01*
X3879769Y7310000D01*
X3890242Y7243874D01*
X3890242Y7243871D01*
X3955904Y7041783D01*
X4052379Y6852443D01*
X4177272Y6680541D01*
X4177276Y6680536D01*
X4327535Y6530277D01*
X4327540Y6530273D01*
X4499442Y6405380D01*
X4688782Y6308905D01*
X4890871Y6243243D01*
X4957000Y6232769D01*
X4957000Y7126988D01*
X5014007Y7094075D01*
X5141174Y7060000D01*
X5272826Y7060000D01*
X5399993Y7094075D01*
X5457000Y7126988D01*
X5457000Y6232770D01*
X5523126Y6243243D01*
X5523129Y6243243D01*
X5725217Y6308905D01*
X5914557Y6405380D01*
X6086459Y6530273D01*
X6086464Y6530277D01*
X6236723Y6680536D01*
X6236727Y6680541D01*
X6361620Y6852443D01*
X6458095Y7041783D01*
X6523757Y7243871D01*
X6523757Y7243874D01*
X6534231Y7310000D01*
X5640012Y7310000D01*
X5672925Y7367007D01*
X5707000Y7494174D01*
X5707000Y7625826D01*
X5672925Y7752993D01*
X5640012Y7810000D01*
X6534231Y7810000D01*
X47059769Y7810000D01*
X47953988Y7810000D01*
X47921075Y7752993D01*
X47887000Y7625826D01*
X47887000Y7494174D01*
X47921075Y7367007D01*
X47953988Y7310000D01*
X47059769Y7310000D01*
X47070242Y7243874D01*
X47070242Y7243871D01*
X47135904Y7041783D01*
X47232379Y6852443D01*
X47357272Y6680541D01*
X47357276Y6680536D01*
X47507535Y6530277D01*
X47507540Y6530273D01*
X47679442Y6405380D01*
X47868782Y6308905D01*
X48070871Y6243243D01*
X48137000Y6232769D01*
X48137000Y7126988D01*
X48194007Y7094075D01*
X48321174Y7060000D01*
X48452826Y7060000D01*
X48579993Y7094075D01*
X48637000Y7126988D01*
X48637000Y6232770D01*
X48703126Y6243243D01*
X48703129Y6243243D01*
X48905217Y6308905D01*
X49094557Y6405380D01*
X49266459Y6530273D01*
X49266464Y6530277D01*
X49416723Y6680536D01*
X49416727Y6680541D01*
X49541620Y6852443D01*
X49638095Y7041783D01*
X49703757Y7243871D01*
X49703757Y7243874D01*
X49714231Y7310000D01*
X48820012Y7310000D01*
X48852925Y7367007D01*
X48887000Y7494174D01*
X48887000Y7625826D01*
X48852925Y7752993D01*
X48820012Y7810000D01*
X49714231Y7810000D01*
X49703757Y7876127D01*
X49703757Y7876130D01*
X49638095Y8078218D01*
X49541620Y8267558D01*
X49416727Y8439460D01*
X49416723Y8439465D01*
X49266464Y8589724D01*
X49266459Y8589728D01*
X49094557Y8714621D01*
X48905215Y8811097D01*
X48703124Y8876759D01*
X48637000Y8887232D01*
X48637000Y7993012D01*
X48579993Y8025925D01*
X48452826Y8060000D01*
X48321174Y8060000D01*
X48194007Y8025925D01*
X48137000Y7993012D01*
X48137000Y8851646D01*
X48005235Y8855432D01*
X47868782Y8811096D01*
X47679442Y8714621D01*
X47507540Y8589728D01*
X47507535Y8589724D01*
X47357276Y8439465D01*
X47357272Y8439460D01*
X47232379Y8267558D01*
X47135904Y8078218D01*
X47070242Y7876130D01*
X47070242Y7876127D01*
X47059769Y7810000D01*
X6534231Y7810000D01*
X6523757Y7876127D01*
X6523757Y7876130D01*
X6458095Y8078218D01*
X6361620Y8267558D01*
X6236727Y8439460D01*
X6236723Y8439465D01*
X6086464Y8589724D01*
X6086459Y8589728D01*
X5914557Y8714621D01*
X5725215Y8811097D01*
X5523124Y8876759D01*
X5457000Y8887232D01*
X5457000Y7993012D01*
X5399993Y8025925D01*
X5272826Y8060000D01*
X5141174Y8060000D01*
X5014007Y8025925D01*
X4957000Y7993012D01*
X4957000Y8893917D01*
X4928668Y8937316D01*
X4928169Y9007184D01*
X4965523Y9066231D01*
X5028870Y9095709D01*
X5047393Y9097100D01*
X5051779Y9097100D01*
X5051780Y9097101D01*
X5116363Y9109947D01*
X5245527Y9135639D01*
X5245530Y9135641D01*
X5245535Y9135641D01*
X5428051Y9211241D01*
X5592312Y9320996D01*
X5732004Y9460688D01*
X5841759Y9624949D01*
X5917359Y9807465D01*
X5955900Y10001223D01*
X5955900Y10198777D01*
X5955900Y10198780D01*
X5955899Y10198782D01*
X47130100Y10198782D01*
X47130100Y10001219D01*
X47168638Y9807473D01*
X47168641Y9807464D01*
X47244237Y9624957D01*
X47244243Y9624946D01*
X47353997Y9460686D01*
X47493685Y9320998D01*
X47493688Y9320996D01*
X47657949Y9211241D01*
X47840465Y9135641D01*
X47840467Y9135641D01*
X47840472Y9135639D01*
X48001307Y9103647D01*
X48001309Y9103647D01*
X48034223Y9097100D01*
X48229179Y9097100D01*
X48231779Y9097100D01*
X48231780Y9097101D01*
X48296363Y9109947D01*
X48425527Y9135639D01*
X48425530Y9135641D01*
X48425535Y9135641D01*
X48608051Y9211241D01*
X48772312Y9320996D01*
X48912004Y9460688D01*
X49021759Y9624949D01*
X49097359Y9807465D01*
X49135900Y10001223D01*
X49135900Y10198777D01*
X49135900Y10198780D01*
X49135899Y10198782D01*
X49097361Y10392528D01*
X49097358Y10392537D01*
X49021762Y10575044D01*
X49021761Y10575045D01*
X49021759Y10575051D01*
X48912004Y10739312D01*
X48912002Y10739315D01*
X48772314Y10879003D01*
X48608054Y10988757D01*
X48608053Y10988758D01*
X48608051Y10988759D01*
X48608048Y10988761D01*
X48608043Y10988763D01*
X48425536Y11064359D01*
X48425527Y11064362D01*
X48231780Y11102900D01*
X48231777Y11102900D01*
X48034223Y11102900D01*
X48001321Y11096356D01*
X48001308Y11096355D01*
X47840471Y11064361D01*
X47840463Y11064359D01*
X47657956Y10988763D01*
X47657945Y10988757D01*
X47493685Y10879003D01*
X47353997Y10739315D01*
X47244243Y10575055D01*
X47244237Y10575044D01*
X47168641Y10392537D01*
X47168638Y10392528D01*
X47130100Y10198782D01*
X5955899Y10198782D01*
X5917361Y10392528D01*
X5917358Y10392537D01*
X5841762Y10575044D01*
X5841761Y10575045D01*
X5841759Y10575051D01*
X5732004Y10739312D01*
X5732002Y10739315D01*
X5592314Y10879003D01*
X5428054Y10988757D01*
X5428053Y10988758D01*
X5428051Y10988759D01*
X5428048Y10988761D01*
X5428043Y10988763D01*
X5245536Y11064359D01*
X5245527Y11064362D01*
X5051780Y11102900D01*
X5051777Y11102900D01*
X4854223Y11102900D01*
X4854220Y11102900D01*
X4660472Y11064362D01*
X4660463Y11064359D01*
X4477956Y10988763D01*
X4477945Y10988757D01*
X4313685Y10879003D01*
X4173997Y10739315D01*
X4064243Y10575055D01*
X4064237Y10575044D01*
X3988641Y10392537D01*
X3988638Y10392528D01*
X3950100Y10198782D01*
X3950100Y10001219D01*
X3988638Y9807473D01*
X3988641Y9807464D01*
X4064237Y9624957D01*
X4064243Y9624946D01*
X4173997Y9460686D01*
X4313685Y9320998D01*
X4313688Y9320996D01*
X4477949Y9211241D01*
X4660465Y9135641D01*
X4660467Y9135641D01*
X4660472Y9135639D01*
X4831528Y9101614D01*
X4893439Y9069229D01*
X4928013Y9008514D01*
X4924274Y8938744D01*
X4883407Y8882072D01*
X4845655Y8862066D01*
X4688782Y8811096D01*
X4499442Y8714621D01*
X4327540Y8589728D01*
X4327535Y8589724D01*
X4177276Y8439465D01*
X4177272Y8439460D01*
X4052379Y8267558D01*
X3955904Y8078218D01*
X3890242Y7876130D01*
X3890242Y7876127D01*
X3879769Y7810000D01*
X75500Y7810000D01*
X75500Y12738782D01*
X4204100Y12738782D01*
X4204100Y12541219D01*
X4242638Y12347473D01*
X4242641Y12347464D01*
X4318237Y12164957D01*
X4318243Y12164946D01*
X4427997Y12000686D01*
X4567685Y11860998D01*
X4567688Y11860996D01*
X4731949Y11751241D01*
X4914465Y11675641D01*
X4914467Y11675641D01*
X4914472Y11675639D01*
X5108218Y11637101D01*
X5108221Y11637100D01*
X5108223Y11637100D01*
X5305779Y11637100D01*
X5305780Y11637101D01*
X5370363Y11649947D01*
X5499527Y11675639D01*
X5499530Y11675641D01*
X5499535Y11675641D01*
X5682051Y11751241D01*
X5846312Y11860996D01*
X5986004Y12000688D01*
X6095759Y12164949D01*
X6171359Y12347465D01*
X6179820Y12390000D01*
X6192005Y12451256D01*
X6192005Y12451257D01*
X6209899Y12541219D01*
X6209900Y12541221D01*
X6209900Y12738780D01*
X6209899Y12738782D01*
X6171361Y12932528D01*
X6171358Y12932537D01*
X6165364Y12947007D01*
X6095759Y13115051D01*
X5986004Y13279312D01*
X5986002Y13279315D01*
X5846314Y13419003D01*
X5682054Y13528757D01*
X5682053Y13528758D01*
X5682051Y13528759D01*
X5682048Y13528761D01*
X5682043Y13528763D01*
X5499536Y13604359D01*
X5499527Y13604362D01*
X5305780Y13642900D01*
X5305777Y13642900D01*
X5108223Y13642900D01*
X5108220Y13642900D01*
X4914472Y13604362D01*
X4914463Y13604359D01*
X4731956Y13528763D01*
X4731945Y13528757D01*
X4567685Y13419003D01*
X4427997Y13279315D01*
X4318243Y13115055D01*
X4318237Y13115044D01*
X4242641Y12932537D01*
X4242638Y12932528D01*
X4204100Y12738782D01*
X75500Y12738782D01*
X75500Y15278782D01*
X3950100Y15278782D01*
X3950100Y15081219D01*
X3988638Y14887473D01*
X3988641Y14887464D01*
X4064237Y14704957D01*
X4064243Y14704946D01*
X4173997Y14540686D01*
X4313685Y14400998D01*
X4313688Y14400996D01*
X4477949Y14291241D01*
X4660465Y14215641D01*
X4660467Y14215641D01*
X4660472Y14215639D01*
X4854218Y14177101D01*
X4854221Y14177100D01*
X4854223Y14177100D01*
X5051779Y14177100D01*
X5051780Y14177101D01*
X5116363Y14189947D01*
X5245527Y14215639D01*
X5245530Y14215641D01*
X5245535Y14215641D01*
X5428051Y14291241D01*
X5592312Y14400996D01*
X5732004Y14540688D01*
X5841759Y14704949D01*
X5917359Y14887465D01*
X5925820Y14930000D01*
X5938005Y14991256D01*
X5938005Y14991257D01*
X5955899Y15081219D01*
X5955900Y15081221D01*
X5955900Y15278780D01*
X5955899Y15278782D01*
X5938005Y15368745D01*
X5917360Y15472529D01*
X5917359Y15472535D01*
X5841759Y15655051D01*
X5732004Y15819312D01*
X5732002Y15819315D01*
X5592314Y15959003D01*
X5428054Y16068757D01*
X5428053Y16068758D01*
X5428051Y16068759D01*
X5428048Y16068761D01*
X5428043Y16068763D01*
X5245536Y16144359D01*
X5245527Y16144362D01*
X5051780Y16182900D01*
X5051777Y16182900D01*
X4854223Y16182900D01*
X4854220Y16182900D01*
X4660472Y16144362D01*
X4660463Y16144359D01*
X4477956Y16068763D01*
X4477945Y16068757D01*
X4313685Y15959003D01*
X4173997Y15819315D01*
X4064243Y15655055D01*
X4064237Y15655044D01*
X3988641Y15472537D01*
X3988638Y15472528D01*
X3950100Y15278782D01*
X75500Y15278782D01*
X75500Y17818782D01*
X4204100Y17818782D01*
X4204100Y17621219D01*
X4242638Y17427473D01*
X4242641Y17427464D01*
X4318237Y17244957D01*
X4318243Y17244946D01*
X4427997Y17080686D01*
X4567685Y16940998D01*
X4567688Y16940996D01*
X4731949Y16831241D01*
X4914465Y16755641D01*
X4914467Y16755641D01*
X4914472Y16755639D01*
X5108218Y16717101D01*
X5108221Y16717100D01*
X5108223Y16717100D01*
X5305779Y16717100D01*
X5305780Y16717101D01*
X5370363Y16729947D01*
X5499527Y16755639D01*
X5499530Y16755641D01*
X5499535Y16755641D01*
X5682051Y16831241D01*
X5846312Y16940996D01*
X5986004Y17080688D01*
X6095759Y17244949D01*
X6171359Y17427465D01*
X6209900Y17621223D01*
X6209900Y17818777D01*
X6209900Y17818780D01*
X6209899Y17818782D01*
X6171361Y18012528D01*
X6171358Y18012537D01*
X6165364Y18027007D01*
X6095759Y18195051D01*
X5986004Y18359312D01*
X5986002Y18359315D01*
X5846314Y18499003D01*
X5682054Y18608757D01*
X5682053Y18608758D01*
X5682051Y18608759D01*
X5682048Y18608761D01*
X5682043Y18608763D01*
X5499536Y18684359D01*
X5499527Y18684362D01*
X5305780Y18722900D01*
X5305777Y18722900D01*
X5108223Y18722900D01*
X5108220Y18722900D01*
X4914472Y18684362D01*
X4914463Y18684359D01*
X4731956Y18608763D01*
X4731945Y18608757D01*
X4567685Y18499003D01*
X4427997Y18359315D01*
X4318243Y18195055D01*
X4318237Y18195044D01*
X4242641Y18012537D01*
X4242638Y18012528D01*
X4204100Y17818782D01*
X75500Y17818782D01*
X75500Y20358782D01*
X3950100Y20358782D01*
X3950100Y20161219D01*
X3988638Y19967473D01*
X3988641Y19967464D01*
X4064237Y19784957D01*
X4064243Y19784946D01*
X4173997Y19620686D01*
X4313685Y19480998D01*
X4313688Y19480996D01*
X4477949Y19371241D01*
X4660465Y19295641D01*
X4660467Y19295641D01*
X4660472Y19295639D01*
X4854218Y19257101D01*
X4854221Y19257100D01*
X4854223Y19257100D01*
X5051779Y19257100D01*
X5051780Y19257101D01*
X5116363Y19269947D01*
X5245527Y19295639D01*
X5245530Y19295641D01*
X5245535Y19295641D01*
X5428051Y19371241D01*
X5592312Y19480996D01*
X5732004Y19620688D01*
X5841759Y19784949D01*
X5917359Y19967465D01*
X5925820Y20010000D01*
X5938005Y20071256D01*
X5938005Y20071257D01*
X5955899Y20161219D01*
X5955900Y20161221D01*
X5955900Y20358780D01*
X5955899Y20358782D01*
X5938005Y20448745D01*
X5917360Y20552529D01*
X5917359Y20552535D01*
X5841759Y20735051D01*
X5732004Y20899312D01*
X5732002Y20899315D01*
X5592314Y21039003D01*
X5428054Y21148757D01*
X5428053Y21148758D01*
X5428051Y21148759D01*
X5428048Y21148761D01*
X5428043Y21148763D01*
X5245536Y21224359D01*
X5245527Y21224362D01*
X5051780Y21262900D01*
X5051777Y21262900D01*
X4854223Y21262900D01*
X4854220Y21262900D01*
X4660472Y21224362D01*
X4660463Y21224359D01*
X4477956Y21148763D01*
X4477945Y21148757D01*
X4313685Y21039003D01*
X4173997Y20899315D01*
X4064243Y20735055D01*
X4064237Y20735044D01*
X3988641Y20552537D01*
X3988638Y20552528D01*
X3950100Y20358782D01*
X75500Y20358782D01*
X75500Y22898782D01*
X4204100Y22898782D01*
X4204100Y22701219D01*
X4242638Y22507473D01*
X4242641Y22507464D01*
X4318237Y22324957D01*
X4318243Y22324946D01*
X4427997Y22160686D01*
X4567685Y22020998D01*
X4567688Y22020996D01*
X4731949Y21911241D01*
X4914465Y21835641D01*
X4914467Y21835641D01*
X4914472Y21835639D01*
X5108218Y21797101D01*
X5108221Y21797100D01*
X5108223Y21797100D01*
X5305779Y21797100D01*
X5305780Y21797101D01*
X5370363Y21809947D01*
X5499527Y21835639D01*
X5499530Y21835641D01*
X5499535Y21835641D01*
X5682051Y21911241D01*
X5846312Y22020996D01*
X5986004Y22160688D01*
X6095759Y22324949D01*
X6171359Y22507465D01*
X6209900Y22701223D01*
X6209900Y22898777D01*
X6209900Y22898780D01*
X6209899Y22898782D01*
X6171361Y23092528D01*
X6171358Y23092537D01*
X6165364Y23107007D01*
X6095759Y23275051D01*
X5986004Y23439312D01*
X5986002Y23439315D01*
X5846314Y23579003D01*
X5682054Y23688757D01*
X5682053Y23688758D01*
X5682051Y23688759D01*
X5682048Y23688761D01*
X5682043Y23688763D01*
X5499536Y23764359D01*
X5499527Y23764362D01*
X5305780Y23802900D01*
X5305777Y23802900D01*
X5108223Y23802900D01*
X5108220Y23802900D01*
X4914472Y23764362D01*
X4914463Y23764359D01*
X4731956Y23688763D01*
X4731945Y23688757D01*
X4567685Y23579003D01*
X4427997Y23439315D01*
X4318243Y23275055D01*
X4318237Y23275044D01*
X4242641Y23092537D01*
X4242638Y23092528D01*
X4204100Y22898782D01*
X75500Y22898782D01*
X75500Y23990401D01*
X34949900Y23990401D01*
X34949900Y23863199D01*
X34966057Y23802900D01*
X34982822Y23740329D01*
X35012594Y23688763D01*
X35046424Y23630169D01*
X35136369Y23540224D01*
X35246530Y23476622D01*
X35369399Y23443700D01*
X35369401Y23443700D01*
X35496599Y23443700D01*
X35496601Y23443700D01*
X35619470Y23476622D01*
X35729631Y23540224D01*
X35819576Y23630169D01*
X35883178Y23740330D01*
X35916100Y23863199D01*
X35916100Y23990401D01*
X35883178Y24113270D01*
X35819576Y24223431D01*
X35729631Y24313376D01*
X35674550Y24345177D01*
X35619471Y24376978D01*
X35558035Y24393439D01*
X35496601Y24409900D01*
X35369399Y24409900D01*
X35246528Y24376978D01*
X35136369Y24313376D01*
X35136366Y24313374D01*
X35046426Y24223434D01*
X35046424Y24223431D01*
X34982822Y24113272D01*
X34974423Y24081925D01*
X34949900Y23990401D01*
X75500Y23990401D01*
X75500Y25438782D01*
X3950100Y25438782D01*
X3950100Y25241219D01*
X3988638Y25047473D01*
X3988641Y25047464D01*
X4064237Y24864957D01*
X4064243Y24864946D01*
X4173997Y24700686D01*
X4313685Y24560998D01*
X4313688Y24560996D01*
X4477949Y24451241D01*
X4660465Y24375641D01*
X4660467Y24375641D01*
X4660472Y24375639D01*
X4854218Y24337101D01*
X4854221Y24337100D01*
X4854223Y24337100D01*
X5051779Y24337100D01*
X5051780Y24337101D01*
X5116363Y24349947D01*
X5245527Y24375639D01*
X5245530Y24375641D01*
X5245535Y24375641D01*
X5428051Y24451241D01*
X5592312Y24560996D01*
X5732004Y24700688D01*
X5841759Y24864949D01*
X5917359Y25047465D01*
X5955900Y25241223D01*
X5955900Y25438777D01*
X5955900Y25438780D01*
X5955899Y25438782D01*
X5917361Y25632528D01*
X5917359Y25632533D01*
X5917359Y25632535D01*
X5883201Y25715001D01*
X26921900Y25715001D01*
X26921900Y25587800D01*
X26954822Y25464929D01*
X26986623Y25409850D01*
X27018424Y25354769D01*
X27108369Y25264824D01*
X27218530Y25201222D01*
X27341399Y25168300D01*
X27341401Y25168300D01*
X27468599Y25168300D01*
X27468601Y25168300D01*
X27591470Y25201222D01*
X27701631Y25264824D01*
X27791576Y25354769D01*
X27855178Y25464930D01*
X27888100Y25587799D01*
X27888100Y25590000D01*
X46805769Y25590000D01*
X47699988Y25590000D01*
X47667075Y25532993D01*
X47633000Y25405826D01*
X47633000Y25274174D01*
X47667075Y25147007D01*
X47699988Y25090000D01*
X46805769Y25090000D01*
X46816242Y25023874D01*
X46816242Y25023871D01*
X46881904Y24821783D01*
X46978379Y24632443D01*
X47103272Y24460541D01*
X47103276Y24460536D01*
X47253535Y24310277D01*
X47253540Y24310273D01*
X47425442Y24185380D01*
X47581131Y24106051D01*
X47631927Y24058076D01*
X47648722Y23990255D01*
X47626184Y23924120D01*
X47597722Y23895248D01*
X47507535Y23829724D01*
X47357276Y23679465D01*
X47357272Y23679460D01*
X47232379Y23507558D01*
X47135904Y23318218D01*
X47070242Y23116130D01*
X47070242Y23116127D01*
X47059769Y23050000D01*
X47953988Y23050000D01*
X47921075Y22992993D01*
X47887000Y22865826D01*
X47887000Y22734174D01*
X47921075Y22607007D01*
X47953988Y22550000D01*
X47059769Y22550000D01*
X47070242Y22483874D01*
X47070242Y22483871D01*
X47135904Y22281783D01*
X47232379Y22092443D01*
X47357272Y21920541D01*
X47357276Y21920536D01*
X47507539Y21770273D01*
X47597721Y21704753D01*
X47640387Y21649424D01*
X47646366Y21579810D01*
X47613761Y21518015D01*
X47581132Y21493951D01*
X47425444Y21414623D01*
X47253540Y21289728D01*
X47253535Y21289724D01*
X47103276Y21139465D01*
X47103272Y21139460D01*
X46978379Y20967558D01*
X46881904Y20778218D01*
X46816242Y20576130D01*
X46816242Y20576127D01*
X46805769Y20510000D01*
X47699988Y20510000D01*
X47667075Y20452993D01*
X47633000Y20325826D01*
X47633000Y20194174D01*
X47667075Y20067007D01*
X47699988Y20010000D01*
X46805769Y20010000D01*
X46816242Y19943874D01*
X46816242Y19943871D01*
X46881904Y19741783D01*
X46978379Y19552443D01*
X47103272Y19380541D01*
X47103276Y19380536D01*
X47253535Y19230277D01*
X47253540Y19230273D01*
X47425442Y19105380D01*
X47581131Y19026051D01*
X47631927Y18978076D01*
X47648722Y18910255D01*
X47626184Y18844120D01*
X47597722Y18815248D01*
X47507535Y18749724D01*
X47357276Y18599465D01*
X47357272Y18599460D01*
X47232379Y18427558D01*
X47135904Y18238218D01*
X47070242Y18036130D01*
X47070242Y18036127D01*
X47059769Y17970000D01*
X47953988Y17970000D01*
X47921075Y17912993D01*
X47887000Y17785826D01*
X47887000Y17654174D01*
X47921075Y17527007D01*
X47953988Y17470000D01*
X47059769Y17470000D01*
X47070242Y17403874D01*
X47070242Y17403871D01*
X47135904Y17201783D01*
X47232379Y17012443D01*
X47357272Y16840541D01*
X47357276Y16840536D01*
X47507539Y16690273D01*
X47597721Y16624753D01*
X47640387Y16569424D01*
X47646366Y16499810D01*
X47613761Y16438015D01*
X47581132Y16413951D01*
X47425444Y16334623D01*
X47253540Y16209728D01*
X47253535Y16209724D01*
X47103276Y16059465D01*
X47103272Y16059460D01*
X46978379Y15887558D01*
X46881904Y15698218D01*
X46816242Y15496130D01*
X46816242Y15496127D01*
X46805769Y15430000D01*
X47699988Y15430000D01*
X47667075Y15372993D01*
X47633000Y15245826D01*
X47633000Y15114174D01*
X47667075Y14987007D01*
X47699988Y14930000D01*
X46805769Y14930000D01*
X46816242Y14863874D01*
X46816242Y14863871D01*
X46881904Y14661783D01*
X46978379Y14472443D01*
X47103272Y14300541D01*
X47103276Y14300536D01*
X47253535Y14150277D01*
X47253540Y14150273D01*
X47425442Y14025380D01*
X47581131Y13946051D01*
X47631927Y13898076D01*
X47648722Y13830255D01*
X47626184Y13764120D01*
X47597722Y13735248D01*
X47507535Y13669724D01*
X47357276Y13519465D01*
X47357272Y13519460D01*
X47232379Y13347558D01*
X47135904Y13158218D01*
X47070242Y12956130D01*
X47070242Y12956127D01*
X47059769Y12890000D01*
X47953988Y12890000D01*
X47921075Y12832993D01*
X47887000Y12705826D01*
X47887000Y12574174D01*
X47921075Y12447007D01*
X47953988Y12390000D01*
X47059769Y12390000D01*
X47070242Y12323874D01*
X47070242Y12323871D01*
X47135904Y12121783D01*
X47232379Y11932443D01*
X47357272Y11760541D01*
X47357276Y11760536D01*
X47507535Y11610277D01*
X47507540Y11610273D01*
X47679442Y11485380D01*
X47868784Y11388904D01*
X48005233Y11344570D01*
X48137000Y11348355D01*
X48137000Y12206988D01*
X48194007Y12174075D01*
X48321174Y12140000D01*
X48452826Y12140000D01*
X48579993Y12174075D01*
X48637000Y12206988D01*
X48637000Y11312770D01*
X48703126Y11323243D01*
X48703129Y11323243D01*
X48905217Y11388905D01*
X49094557Y11485380D01*
X49266459Y11610273D01*
X49266464Y11610277D01*
X49416723Y11760536D01*
X49416727Y11760541D01*
X49541620Y11932443D01*
X49638095Y12121783D01*
X49703757Y12323871D01*
X49703757Y12323874D01*
X49714231Y12390000D01*
X48820012Y12390000D01*
X48852925Y12447007D01*
X48887000Y12574174D01*
X48887000Y12705826D01*
X48852925Y12832993D01*
X48820012Y12890000D01*
X49714231Y12890000D01*
X49703757Y12956127D01*
X49703757Y12956130D01*
X49638095Y13158218D01*
X49541620Y13347558D01*
X49416727Y13519460D01*
X49416723Y13519465D01*
X49266464Y13669724D01*
X49266459Y13669728D01*
X49094553Y13794624D01*
X49094552Y13794625D01*
X48938868Y13873951D01*
X48888072Y13921925D01*
X48871277Y13989746D01*
X48893815Y14055881D01*
X48922279Y14084754D01*
X49012462Y14150275D01*
X49162723Y14300536D01*
X49162727Y14300541D01*
X49287620Y14472443D01*
X49384095Y14661783D01*
X49449757Y14863871D01*
X49449757Y14863874D01*
X49460231Y14930000D01*
X48566012Y14930000D01*
X48598925Y14987007D01*
X48633000Y15114174D01*
X48633000Y15245826D01*
X48598925Y15372993D01*
X48566012Y15430000D01*
X49460231Y15430000D01*
X49449757Y15496127D01*
X49449757Y15496130D01*
X49384095Y15698218D01*
X49287620Y15887558D01*
X49162727Y16059460D01*
X49162723Y16059465D01*
X49012464Y16209724D01*
X49012459Y16209728D01*
X48922278Y16275248D01*
X48879612Y16330577D01*
X48873633Y16400191D01*
X48906238Y16461986D01*
X48938868Y16486051D01*
X49094557Y16565380D01*
X49266459Y16690273D01*
X49266464Y16690277D01*
X49416723Y16840536D01*
X49416727Y16840541D01*
X49541620Y17012443D01*
X49638095Y17201783D01*
X49703757Y17403871D01*
X49703757Y17403874D01*
X49714231Y17470000D01*
X48820012Y17470000D01*
X48852925Y17527007D01*
X48887000Y17654174D01*
X48887000Y17785826D01*
X48852925Y17912993D01*
X48820012Y17970000D01*
X49714231Y17970000D01*
X49703757Y18036127D01*
X49703757Y18036130D01*
X49638095Y18238218D01*
X49541620Y18427558D01*
X49416727Y18599460D01*
X49416723Y18599465D01*
X49266464Y18749724D01*
X49266459Y18749728D01*
X49094553Y18874624D01*
X49094552Y18874625D01*
X48938868Y18953951D01*
X48888072Y19001925D01*
X48871277Y19069746D01*
X48893815Y19135881D01*
X48922279Y19164754D01*
X49012462Y19230275D01*
X49162723Y19380536D01*
X49162727Y19380541D01*
X49287620Y19552443D01*
X49384095Y19741783D01*
X49449757Y19943871D01*
X49449757Y19943874D01*
X49460231Y20010000D01*
X48566012Y20010000D01*
X48598925Y20067007D01*
X48633000Y20194174D01*
X48633000Y20325826D01*
X48598925Y20452993D01*
X48566012Y20510000D01*
X49460231Y20510000D01*
X49449757Y20576127D01*
X49449757Y20576130D01*
X49384095Y20778218D01*
X49287620Y20967558D01*
X49162727Y21139460D01*
X49162723Y21139465D01*
X49012464Y21289724D01*
X49012459Y21289728D01*
X48922278Y21355248D01*
X48879612Y21410577D01*
X48873633Y21480191D01*
X48906238Y21541986D01*
X48938868Y21566051D01*
X49094557Y21645380D01*
X49266459Y21770273D01*
X49266464Y21770277D01*
X49416723Y21920536D01*
X49416727Y21920541D01*
X49541620Y22092443D01*
X49638095Y22281783D01*
X49703757Y22483871D01*
X49703757Y22483874D01*
X49714231Y22550000D01*
X48820012Y22550000D01*
X48852925Y22607007D01*
X48887000Y22734174D01*
X48887000Y22865826D01*
X48852925Y22992993D01*
X48820012Y23050000D01*
X49714231Y23050000D01*
X49703757Y23116127D01*
X49703757Y23116130D01*
X49638095Y23318218D01*
X49541620Y23507558D01*
X49416727Y23679460D01*
X49416723Y23679465D01*
X49266464Y23829724D01*
X49266459Y23829728D01*
X49094553Y23954624D01*
X49094552Y23954625D01*
X48938868Y24033951D01*
X48888072Y24081925D01*
X48871277Y24149746D01*
X48893815Y24215881D01*
X48922279Y24244754D01*
X49012462Y24310275D01*
X49162723Y24460536D01*
X49162727Y24460541D01*
X49287620Y24632443D01*
X49384095Y24821783D01*
X49449757Y25023871D01*
X49449757Y25023874D01*
X49460231Y25090000D01*
X48566012Y25090000D01*
X48598925Y25147007D01*
X48633000Y25274174D01*
X48633000Y25405826D01*
X48598925Y25532993D01*
X48566012Y25590000D01*
X49460231Y25590000D01*
X49449757Y25656127D01*
X49449757Y25656130D01*
X49384095Y25858218D01*
X49287620Y26047558D01*
X49162727Y26219460D01*
X49162723Y26219465D01*
X49012464Y26369724D01*
X49012459Y26369728D01*
X48922278Y26435248D01*
X48879612Y26490577D01*
X48873633Y26560191D01*
X48906238Y26621986D01*
X48938868Y26646051D01*
X49094557Y26725380D01*
X49266459Y26850273D01*
X49266464Y26850277D01*
X49416723Y27000536D01*
X49416727Y27000541D01*
X49541620Y27172443D01*
X49638095Y27361783D01*
X49703757Y27563871D01*
X49703759Y27563879D01*
X49714231Y27630000D01*
X48820012Y27630000D01*
X48852925Y27687007D01*
X48887000Y27814174D01*
X48887000Y27945826D01*
X48852925Y28072993D01*
X48820012Y28130000D01*
X49714231Y28130000D01*
X49703757Y28196127D01*
X49703757Y28196130D01*
X49638095Y28398218D01*
X49541620Y28587558D01*
X49416727Y28759460D01*
X49416723Y28759465D01*
X49266464Y28909724D01*
X49266459Y28909728D01*
X49094557Y29034621D01*
X48905215Y29131097D01*
X48703124Y29196759D01*
X48637000Y29207232D01*
X48637000Y28313012D01*
X48579993Y28345925D01*
X48452826Y28380000D01*
X48321174Y28380000D01*
X48194007Y28345925D01*
X48137000Y28313012D01*
X48137000Y29213917D01*
X48108668Y29257316D01*
X48108169Y29327184D01*
X48145523Y29386231D01*
X48208870Y29415709D01*
X48227393Y29417100D01*
X48231779Y29417100D01*
X48231780Y29417101D01*
X48296363Y29429947D01*
X48425527Y29455639D01*
X48425530Y29455641D01*
X48425535Y29455641D01*
X48608051Y29531241D01*
X48772312Y29640996D01*
X48912004Y29780688D01*
X49021759Y29944949D01*
X49097359Y30127465D01*
X49114479Y30213530D01*
X49135899Y30321219D01*
X49135900Y30321221D01*
X49135900Y30518780D01*
X49135899Y30518782D01*
X49097361Y30712528D01*
X49097358Y30712537D01*
X49021762Y30895044D01*
X49021761Y30895045D01*
X49021759Y30895051D01*
X48912004Y31059312D01*
X48912002Y31059315D01*
X48772314Y31199003D01*
X48608054Y31308757D01*
X48608053Y31308758D01*
X48608051Y31308759D01*
X48608048Y31308761D01*
X48608043Y31308763D01*
X48425536Y31384359D01*
X48425527Y31384362D01*
X48231780Y31422900D01*
X48231777Y31422900D01*
X48034223Y31422900D01*
X48034220Y31422900D01*
X47840472Y31384362D01*
X47840463Y31384359D01*
X47657956Y31308763D01*
X47657945Y31308757D01*
X47493685Y31199003D01*
X47353997Y31059315D01*
X47244243Y30895055D01*
X47244237Y30895044D01*
X47168641Y30712537D01*
X47168638Y30712528D01*
X47130100Y30518782D01*
X47130100Y30321219D01*
X47168638Y30127473D01*
X47168641Y30127464D01*
X47244237Y29944957D01*
X47244243Y29944946D01*
X47353997Y29780686D01*
X47493685Y29640998D01*
X47493688Y29640996D01*
X47657949Y29531241D01*
X47840465Y29455641D01*
X47840467Y29455641D01*
X47840472Y29455639D01*
X48011528Y29421614D01*
X48073439Y29389229D01*
X48108013Y29328514D01*
X48104274Y29258744D01*
X48063407Y29202072D01*
X48025655Y29182066D01*
X47868782Y29131096D01*
X47679442Y29034621D01*
X47507540Y28909728D01*
X47507535Y28909724D01*
X47357276Y28759465D01*
X47357272Y28759460D01*
X47232379Y28587558D01*
X47135904Y28398218D01*
X47070242Y28196130D01*
X47070242Y28196127D01*
X47059769Y28130000D01*
X47953988Y28130000D01*
X47921075Y28072993D01*
X47887000Y27945826D01*
X47887000Y27814174D01*
X47921075Y27687007D01*
X47953988Y27630000D01*
X47059769Y27630000D01*
X47070241Y27563879D01*
X47070242Y27563871D01*
X47135904Y27361783D01*
X47232379Y27172443D01*
X47357272Y27000541D01*
X47357276Y27000536D01*
X47507539Y26850273D01*
X47597721Y26784753D01*
X47640387Y26729424D01*
X47646366Y26659810D01*
X47613761Y26598015D01*
X47581132Y26573951D01*
X47425444Y26494623D01*
X47253540Y26369728D01*
X47253535Y26369724D01*
X47103276Y26219465D01*
X47103272Y26219460D01*
X46978379Y26047558D01*
X46881904Y25858218D01*
X46816242Y25656130D01*
X46816242Y25656127D01*
X46805769Y25590000D01*
X27888100Y25590000D01*
X27888100Y25715001D01*
X27855178Y25837870D01*
X27791576Y25948031D01*
X27701631Y26037976D01*
X27646550Y26069777D01*
X27591471Y26101578D01*
X27526434Y26119004D01*
X27468601Y26134500D01*
X27341399Y26134500D01*
X27218528Y26101578D01*
X27108369Y26037976D01*
X27108366Y26037974D01*
X27018426Y25948034D01*
X27018424Y25948031D01*
X26954822Y25837872D01*
X26921900Y25715001D01*
X5883201Y25715001D01*
X5841759Y25815051D01*
X5732004Y25979312D01*
X5732002Y25979315D01*
X5592314Y26119003D01*
X5428054Y26228757D01*
X5428053Y26228758D01*
X5428051Y26228759D01*
X5428048Y26228761D01*
X5428043Y26228763D01*
X5245536Y26304359D01*
X5245527Y26304362D01*
X5051780Y26342900D01*
X5051777Y26342900D01*
X4854223Y26342900D01*
X4854220Y26342900D01*
X4660472Y26304362D01*
X4660463Y26304359D01*
X4477956Y26228763D01*
X4477945Y26228757D01*
X4313685Y26119003D01*
X4173997Y25979315D01*
X4064243Y25815055D01*
X4064237Y25815044D01*
X3988641Y25632537D01*
X3988638Y25632528D01*
X3950100Y25438782D01*
X75500Y25438782D01*
X75500Y27978782D01*
X4204100Y27978782D01*
X4204100Y27781219D01*
X4242638Y27587473D01*
X4242641Y27587464D01*
X4318237Y27404957D01*
X4318243Y27404946D01*
X4427997Y27240686D01*
X4567685Y27100998D01*
X4567688Y27100996D01*
X4731949Y26991241D01*
X4914465Y26915641D01*
X4914467Y26915641D01*
X4914472Y26915639D01*
X5108218Y26877101D01*
X5108221Y26877100D01*
X5108223Y26877100D01*
X5305779Y26877100D01*
X5305780Y26877101D01*
X5370363Y26889947D01*
X5499527Y26915639D01*
X5499530Y26915641D01*
X5499535Y26915641D01*
X5682051Y26991241D01*
X5846312Y27100996D01*
X5986004Y27240688D01*
X6095759Y27404949D01*
X6161474Y27563601D01*
X25016900Y27563601D01*
X25016900Y27436400D01*
X25049822Y27313529D01*
X25053001Y27308023D01*
X25113424Y27203369D01*
X25203369Y27113424D01*
X25313530Y27049822D01*
X25436399Y27016900D01*
X25436401Y27016900D01*
X25563599Y27016900D01*
X25563601Y27016900D01*
X25686470Y27049822D01*
X25796631Y27113424D01*
X25886576Y27203369D01*
X25950178Y27313530D01*
X25983100Y27436399D01*
X25983100Y27563601D01*
X25950178Y27686470D01*
X25886576Y27796631D01*
X25861406Y27821801D01*
X27016900Y27821801D01*
X27016900Y27694600D01*
X27049822Y27571729D01*
X27054359Y27563871D01*
X27113424Y27461569D01*
X27203369Y27371624D01*
X27313530Y27308022D01*
X27436399Y27275100D01*
X27436401Y27275100D01*
X27563599Y27275100D01*
X27563601Y27275100D01*
X27686470Y27308022D01*
X27796631Y27371624D01*
X27886576Y27461569D01*
X27950178Y27571730D01*
X27983100Y27694599D01*
X27983100Y27821801D01*
X27950178Y27944670D01*
X27886576Y28054831D01*
X27796631Y28144776D01*
X27741550Y28176577D01*
X27686471Y28208378D01*
X27625035Y28224839D01*
X27563601Y28241300D01*
X27436399Y28241300D01*
X27313528Y28208378D01*
X27203369Y28144776D01*
X27203366Y28144774D01*
X27113426Y28054834D01*
X27113424Y28054831D01*
X27049822Y27944672D01*
X27016900Y27821801D01*
X25861406Y27821801D01*
X25796631Y27886576D01*
X25741550Y27918377D01*
X25686471Y27950178D01*
X25625035Y27966639D01*
X25563601Y27983100D01*
X25436399Y27983100D01*
X25313528Y27950178D01*
X25203369Y27886576D01*
X25203366Y27886574D01*
X25113426Y27796634D01*
X25113424Y27796631D01*
X25049822Y27686472D01*
X25016900Y27563601D01*
X6161474Y27563601D01*
X6171359Y27587465D01*
X6209900Y27781223D01*
X6209900Y27978777D01*
X6209900Y27978780D01*
X6209899Y27978782D01*
X6171361Y28172528D01*
X6171358Y28172537D01*
X6165364Y28187007D01*
X6095759Y28355051D01*
X5986004Y28519312D01*
X5986002Y28519315D01*
X5846315Y28659002D01*
X5846309Y28659007D01*
X5841840Y28661993D01*
X5841791Y28662025D01*
X5699648Y28757001D01*
X20616100Y28757001D01*
X20616100Y28629800D01*
X20649022Y28506929D01*
X20680823Y28451850D01*
X20712624Y28396769D01*
X20802569Y28306824D01*
X20912730Y28243222D01*
X21035599Y28210300D01*
X21035601Y28210300D01*
X21162799Y28210300D01*
X21162801Y28210300D01*
X21285670Y28243222D01*
X21395831Y28306824D01*
X21485776Y28396769D01*
X21549378Y28506930D01*
X21582300Y28629799D01*
X21582300Y28757001D01*
X21549378Y28879870D01*
X21485776Y28990031D01*
X21395831Y29079976D01*
X21340750Y29111777D01*
X21285671Y29143578D01*
X21224235Y29160039D01*
X21162801Y29176500D01*
X21035599Y29176500D01*
X20912728Y29143578D01*
X20802569Y29079976D01*
X20802566Y29079974D01*
X20712626Y28990034D01*
X20712624Y28990031D01*
X20649022Y28879872D01*
X20616100Y28757001D01*
X5699648Y28757001D01*
X5682054Y28768757D01*
X5682053Y28768758D01*
X5682051Y28768759D01*
X5682048Y28768761D01*
X5682043Y28768763D01*
X5499536Y28844359D01*
X5499527Y28844362D01*
X5305780Y28882900D01*
X5305777Y28882900D01*
X5108223Y28882900D01*
X5108220Y28882900D01*
X4914472Y28844362D01*
X4914463Y28844359D01*
X4731956Y28768763D01*
X4731945Y28768757D01*
X4567685Y28659003D01*
X4427997Y28519315D01*
X4318243Y28355055D01*
X4318237Y28355044D01*
X4242641Y28172537D01*
X4242638Y28172528D01*
X4204100Y27978782D01*
X75500Y27978782D01*
X75500Y30518782D01*
X3950100Y30518782D01*
X3950100Y30321219D01*
X3988638Y30127473D01*
X3988641Y30127464D01*
X4064237Y29944957D01*
X4064243Y29944946D01*
X4173997Y29780686D01*
X4313685Y29640998D01*
X4313688Y29640996D01*
X4477949Y29531241D01*
X4660465Y29455641D01*
X4660467Y29455641D01*
X4660472Y29455639D01*
X4854218Y29417101D01*
X4854221Y29417100D01*
X4854223Y29417100D01*
X5051779Y29417100D01*
X5051780Y29417101D01*
X5116363Y29429947D01*
X5245527Y29455639D01*
X5245530Y29455641D01*
X5245535Y29455641D01*
X5428051Y29531241D01*
X5592312Y29640996D01*
X5732004Y29780688D01*
X5841759Y29944949D01*
X5917359Y30127465D01*
X5934479Y30213530D01*
X5955899Y30321219D01*
X5955900Y30321221D01*
X5955900Y30463601D01*
X24716900Y30463601D01*
X24716900Y30336399D01*
X24733361Y30274965D01*
X24749822Y30213529D01*
X24781623Y30158450D01*
X24813424Y30103369D01*
X24903369Y30013424D01*
X25013530Y29949822D01*
X25136399Y29916900D01*
X25136401Y29916900D01*
X25263599Y29916900D01*
X25263601Y29916900D01*
X25386470Y29949822D01*
X25496631Y30013424D01*
X25586576Y30103369D01*
X25650178Y30213530D01*
X25683100Y30336399D01*
X25683100Y30463601D01*
X25650178Y30586470D01*
X25586576Y30696631D01*
X25496631Y30786576D01*
X25441550Y30818377D01*
X25386471Y30850178D01*
X25325035Y30866639D01*
X25263601Y30883100D01*
X25136399Y30883100D01*
X25013528Y30850178D01*
X24903369Y30786576D01*
X24903366Y30786574D01*
X24813426Y30696634D01*
X24813424Y30696631D01*
X24749822Y30586472D01*
X24731685Y30518782D01*
X24716900Y30463601D01*
X5955900Y30463601D01*
X5955900Y30518780D01*
X5955899Y30518782D01*
X5917361Y30712528D01*
X5917358Y30712537D01*
X5841762Y30895044D01*
X5841761Y30895045D01*
X5841759Y30895051D01*
X5732004Y31059312D01*
X5732002Y31059315D01*
X5592314Y31199003D01*
X5428054Y31308757D01*
X5428053Y31308758D01*
X5428051Y31308759D01*
X5428048Y31308761D01*
X5428043Y31308763D01*
X5245536Y31384359D01*
X5245527Y31384362D01*
X5051780Y31422900D01*
X5051777Y31422900D01*
X4854223Y31422900D01*
X4854220Y31422900D01*
X4660472Y31384362D01*
X4660463Y31384359D01*
X4477956Y31308763D01*
X4477945Y31308757D01*
X4313685Y31199003D01*
X4173997Y31059315D01*
X4064243Y30895055D01*
X4064237Y30895044D01*
X3988641Y30712537D01*
X3988638Y30712528D01*
X3950100Y30518782D01*
X75500Y30518782D01*
X75500Y33058782D01*
X4204100Y33058782D01*
X4204100Y32861219D01*
X4242638Y32667473D01*
X4242641Y32667464D01*
X4318237Y32484957D01*
X4318243Y32484946D01*
X4427997Y32320686D01*
X4567685Y32180998D01*
X4567688Y32180996D01*
X4731949Y32071241D01*
X4914465Y31995641D01*
X4914467Y31995641D01*
X4914472Y31995639D01*
X5108218Y31957101D01*
X5108221Y31957100D01*
X5108223Y31957100D01*
X5305779Y31957100D01*
X5305780Y31957101D01*
X5370363Y31969947D01*
X5499527Y31995639D01*
X5499530Y31995641D01*
X5499535Y31995641D01*
X5682051Y32071241D01*
X5846312Y32180996D01*
X5986004Y32320688D01*
X6095759Y32484949D01*
X6129735Y32566974D01*
X31903978Y32566974D01*
X31903978Y32439773D01*
X31936900Y32316902D01*
X31968701Y32261823D01*
X32000502Y32206742D01*
X32090447Y32116797D01*
X32170627Y32070505D01*
X32218843Y32019938D01*
X32232066Y31951331D01*
X32216014Y31901118D01*
X32149823Y31786474D01*
X32116900Y31663601D01*
X32116900Y31536400D01*
X32149822Y31413529D01*
X32166662Y31384362D01*
X32213424Y31303369D01*
X32303369Y31213424D01*
X32413530Y31149822D01*
X32536399Y31116900D01*
X32536401Y31116900D01*
X32663599Y31116900D01*
X32663601Y31116900D01*
X32786470Y31149822D01*
X32896631Y31213424D01*
X32986576Y31303369D01*
X33050178Y31413530D01*
X33083100Y31536399D01*
X33083100Y31663601D01*
X33050178Y31786470D01*
X32986576Y31896631D01*
X32896631Y31986576D01*
X32896629Y31986577D01*
X32896627Y31986579D01*
X32816450Y32032869D01*
X32768234Y32083436D01*
X32755012Y32152043D01*
X32771064Y32202257D01*
X32773652Y32206741D01*
X32773654Y32206742D01*
X32837256Y32316903D01*
X32870178Y32439772D01*
X32870178Y32566974D01*
X32837256Y32689843D01*
X32773654Y32800004D01*
X32683709Y32889949D01*
X32573548Y32953551D01*
X32450679Y32986473D01*
X32323477Y32986473D01*
X32200606Y32953551D01*
X32090447Y32889949D01*
X32090444Y32889947D01*
X32000504Y32800007D01*
X32000502Y32800004D01*
X31936900Y32689845D01*
X31903978Y32566974D01*
X6129735Y32566974D01*
X6171359Y32667465D01*
X6175811Y32689843D01*
X6209899Y32861219D01*
X6209900Y32861221D01*
X6209900Y33058780D01*
X6209899Y33058782D01*
X47384100Y33058782D01*
X47384100Y32861219D01*
X47422638Y32667473D01*
X47422641Y32667464D01*
X47498237Y32484957D01*
X47498243Y32484946D01*
X47607997Y32320686D01*
X47747685Y32180998D01*
X47747688Y32180996D01*
X47911949Y32071241D01*
X48094465Y31995641D01*
X48094467Y31995641D01*
X48094472Y31995639D01*
X48288218Y31957101D01*
X48288221Y31957100D01*
X48288223Y31957100D01*
X48485779Y31957100D01*
X48485780Y31957101D01*
X48550363Y31969947D01*
X48679527Y31995639D01*
X48679530Y31995641D01*
X48679535Y31995641D01*
X48862051Y32071241D01*
X49026312Y32180996D01*
X49166004Y32320688D01*
X49275759Y32484949D01*
X49351359Y32667465D01*
X49355811Y32689843D01*
X49389899Y32861219D01*
X49389900Y32861221D01*
X49389900Y33058780D01*
X49389899Y33058782D01*
X49351361Y33252528D01*
X49351358Y33252537D01*
X49275762Y33435044D01*
X49275761Y33435045D01*
X49275759Y33435051D01*
X49166004Y33599312D01*
X49166002Y33599315D01*
X49026314Y33739003D01*
X48862054Y33848757D01*
X48862053Y33848758D01*
X48862051Y33848759D01*
X48862048Y33848761D01*
X48862043Y33848763D01*
X48679536Y33924359D01*
X48679527Y33924362D01*
X48485780Y33962900D01*
X48485777Y33962900D01*
X48288223Y33962900D01*
X48288220Y33962900D01*
X48094472Y33924362D01*
X48094463Y33924359D01*
X47911956Y33848763D01*
X47911945Y33848757D01*
X47747685Y33739003D01*
X47607997Y33599315D01*
X47498243Y33435055D01*
X47498237Y33435044D01*
X47422641Y33252537D01*
X47422638Y33252528D01*
X47384100Y33058782D01*
X6209899Y33058782D01*
X6171361Y33252528D01*
X6171358Y33252537D01*
X6095762Y33435044D01*
X6095761Y33435045D01*
X6095759Y33435051D01*
X5986004Y33599312D01*
X5986002Y33599315D01*
X5846314Y33739003D01*
X5682054Y33848757D01*
X5682053Y33848758D01*
X5682051Y33848759D01*
X5682048Y33848761D01*
X5682043Y33848763D01*
X5499536Y33924359D01*
X5499528Y33924361D01*
X5338690Y33956355D01*
X5338679Y33956356D01*
X5305777Y33962900D01*
X5108223Y33962900D01*
X5108220Y33962900D01*
X4914472Y33924362D01*
X4914463Y33924359D01*
X4731956Y33848763D01*
X4731945Y33848757D01*
X4567685Y33739003D01*
X4427997Y33599315D01*
X4318243Y33435055D01*
X4318237Y33435044D01*
X4242641Y33252537D01*
X4242638Y33252528D01*
X4204100Y33058782D01*
X75500Y33058782D01*
X75500Y35750000D01*
X3625769Y35750000D01*
X4519988Y35750000D01*
X4487075Y35692993D01*
X4453000Y35565826D01*
X4453000Y35434174D01*
X4487075Y35307007D01*
X4519988Y35250000D01*
X3625769Y35250000D01*
X3636242Y35183874D01*
X3636242Y35183871D01*
X3701904Y34981783D01*
X3798379Y34792443D01*
X3923272Y34620541D01*
X3923276Y34620536D01*
X4073535Y34470277D01*
X4073540Y34470273D01*
X4245442Y34345380D01*
X4434782Y34248905D01*
X4636871Y34183243D01*
X4703000Y34172769D01*
X4703000Y35066988D01*
X4760007Y35034075D01*
X4887174Y35000000D01*
X5018826Y35000000D01*
X5145993Y35034075D01*
X5203000Y35066988D01*
X5203000Y34208355D01*
X5334765Y34204570D01*
X5471215Y34248904D01*
X5660557Y34345380D01*
X5832459Y34470273D01*
X5832464Y34470277D01*
X5982723Y34620536D01*
X5982727Y34620541D01*
X6107620Y34792443D01*
X6204096Y34981785D01*
X6230680Y35063601D01*
X21616900Y35063601D01*
X21616900Y34936400D01*
X21649822Y34813529D01*
X21665444Y34786472D01*
X21713424Y34703369D01*
X21803369Y34613424D01*
X21913530Y34549822D01*
X22036399Y34516900D01*
X22036401Y34516900D01*
X22163599Y34516900D01*
X22163601Y34516900D01*
X22286470Y34549822D01*
X22396631Y34613424D01*
X22446808Y34663601D01*
X34116900Y34663601D01*
X34116900Y34536399D01*
X34122125Y34516900D01*
X34149822Y34413529D01*
X34181623Y34358450D01*
X34213424Y34303369D01*
X34303369Y34213424D01*
X34307235Y34211192D01*
X34355451Y34160625D01*
X34368674Y34092018D01*
X34342706Y34027153D01*
X34332918Y34016125D01*
X34313424Y33996631D01*
X34249822Y33886472D01*
X34239717Y33848757D01*
X34216900Y33763601D01*
X34216900Y33636399D01*
X34226837Y33599312D01*
X34249822Y33513529D01*
X34281623Y33458450D01*
X34313424Y33403369D01*
X34403369Y33313424D01*
X34498768Y33258345D01*
X34508827Y33252537D01*
X34513530Y33249822D01*
X34636399Y33216900D01*
X34636401Y33216900D01*
X34763599Y33216900D01*
X34763601Y33216900D01*
X34886470Y33249822D01*
X34996631Y33313424D01*
X35086576Y33403369D01*
X35150178Y33513530D01*
X35183100Y33636399D01*
X35183100Y33763601D01*
X35150178Y33886470D01*
X35086576Y33996631D01*
X34996631Y34086576D01*
X34996628Y34086578D01*
X34996624Y34086581D01*
X34992761Y34088811D01*
X34944547Y34139379D01*
X34931326Y34207986D01*
X34957296Y34272851D01*
X34967068Y34283862D01*
X34986576Y34303369D01*
X35050178Y34413530D01*
X35083100Y34536399D01*
X35083100Y34663601D01*
X35050178Y34786470D01*
X35046729Y34792443D01*
X35034555Y34813530D01*
X34986576Y34896631D01*
X34896631Y34986576D01*
X34814361Y35034075D01*
X34786471Y35050178D01*
X34725035Y35066639D01*
X34663601Y35083100D01*
X34536399Y35083100D01*
X34413528Y35050178D01*
X34303369Y34986576D01*
X34303366Y34986574D01*
X34213426Y34896634D01*
X34213424Y34896631D01*
X34149822Y34786472D01*
X34127555Y34703367D01*
X34116900Y34663601D01*
X22446808Y34663601D01*
X22486576Y34703369D01*
X22550178Y34813530D01*
X22583100Y34936399D01*
X22583100Y35063601D01*
X22550178Y35186470D01*
X22486576Y35296631D01*
X22396631Y35386576D01*
X22314190Y35434174D01*
X22286471Y35450178D01*
X22225035Y35466639D01*
X22163601Y35483100D01*
X22036399Y35483100D01*
X21913528Y35450178D01*
X21803369Y35386576D01*
X21803366Y35386574D01*
X21713426Y35296634D01*
X21713424Y35296631D01*
X21649822Y35186472D01*
X21616900Y35063601D01*
X6230680Y35063601D01*
X6245770Y35110045D01*
X6245770Y35110046D01*
X6269757Y35183871D01*
X6269757Y35183874D01*
X6280231Y35250000D01*
X5386012Y35250000D01*
X5418925Y35307007D01*
X5453000Y35434174D01*
X5453000Y35565826D01*
X5444169Y35598782D01*
X47130100Y35598782D01*
X47130100Y35401219D01*
X47168638Y35207473D01*
X47168641Y35207464D01*
X47244237Y35024957D01*
X47244243Y35024946D01*
X47353997Y34860686D01*
X47493685Y34720998D01*
X47493688Y34720996D01*
X47657949Y34611241D01*
X47840465Y34535641D01*
X47840467Y34535641D01*
X47840472Y34535639D01*
X48034218Y34497101D01*
X48034221Y34497100D01*
X48034223Y34497100D01*
X48231779Y34497100D01*
X48231780Y34497101D01*
X48296363Y34509947D01*
X48425527Y34535639D01*
X48425530Y34535641D01*
X48425535Y34535641D01*
X48608051Y34611241D01*
X48772312Y34720996D01*
X48912004Y34860688D01*
X49021759Y35024949D01*
X49097359Y35207465D01*
X49135900Y35401223D01*
X49135900Y35598777D01*
X49135900Y35598780D01*
X49135899Y35598782D01*
X49097361Y35792528D01*
X49097358Y35792537D01*
X49091364Y35807007D01*
X49021759Y35975051D01*
X48912004Y36139312D01*
X48912002Y36139315D01*
X48772314Y36279003D01*
X48608054Y36388757D01*
X48608053Y36388758D01*
X48608051Y36388759D01*
X48608048Y36388761D01*
X48608043Y36388763D01*
X48425536Y36464359D01*
X48425527Y36464362D01*
X48231780Y36502900D01*
X48231777Y36502900D01*
X48034223Y36502900D01*
X48034220Y36502900D01*
X47840472Y36464362D01*
X47840463Y36464359D01*
X47657956Y36388763D01*
X47657945Y36388757D01*
X47493685Y36279003D01*
X47353997Y36139315D01*
X47244243Y35975055D01*
X47244237Y35975044D01*
X47168641Y35792537D01*
X47168638Y35792528D01*
X47130100Y35598782D01*
X5444169Y35598782D01*
X5418925Y35692993D01*
X5386012Y35750000D01*
X6280231Y35750000D01*
X6269757Y35816127D01*
X6269757Y35816130D01*
X6204095Y36018218D01*
X6107620Y36207558D01*
X5982727Y36379460D01*
X5982723Y36379465D01*
X5832464Y36529724D01*
X5832459Y36529728D01*
X5763802Y36579610D01*
X5742278Y36595248D01*
X5699612Y36650577D01*
X5697789Y36671801D01*
X25263100Y36671801D01*
X25263100Y36544600D01*
X25296022Y36421729D01*
X25315058Y36388759D01*
X25359624Y36311569D01*
X25449569Y36221624D01*
X25559730Y36158022D01*
X25682599Y36125100D01*
X25682601Y36125100D01*
X25809799Y36125100D01*
X25809801Y36125100D01*
X25932670Y36158022D01*
X26042831Y36221624D01*
X26132776Y36311569D01*
X26196378Y36421730D01*
X26229300Y36544599D01*
X26229300Y36671801D01*
X26196378Y36794670D01*
X26132776Y36904831D01*
X26042831Y36994776D01*
X25987750Y37026577D01*
X25932671Y37058378D01*
X25868239Y37075642D01*
X25809801Y37091300D01*
X25682599Y37091300D01*
X25559728Y37058378D01*
X25449569Y36994776D01*
X25449566Y36994774D01*
X25359626Y36904834D01*
X25359624Y36904831D01*
X25296022Y36794672D01*
X25263100Y36671801D01*
X5697789Y36671801D01*
X5693633Y36720191D01*
X5726238Y36781986D01*
X5758868Y36806051D01*
X5914557Y36885380D01*
X6086459Y37010273D01*
X6086464Y37010277D01*
X6236723Y37160536D01*
X6236727Y37160541D01*
X6361620Y37332443D01*
X6458095Y37521783D01*
X6523757Y37723871D01*
X6523757Y37723874D01*
X6534231Y37790000D01*
X5640012Y37790000D01*
X5672925Y37847007D01*
X5707000Y37974174D01*
X5707000Y38105826D01*
X5698169Y38138782D01*
X47384100Y38138782D01*
X47384100Y37941219D01*
X47422638Y37747473D01*
X47422641Y37747464D01*
X47498237Y37564957D01*
X47498243Y37564946D01*
X47607997Y37400686D01*
X47747685Y37260998D01*
X47747688Y37260996D01*
X47911949Y37151241D01*
X48094465Y37075641D01*
X48094467Y37075641D01*
X48094472Y37075639D01*
X48288218Y37037101D01*
X48288221Y37037100D01*
X48288223Y37037100D01*
X48485779Y37037100D01*
X48485780Y37037101D01*
X48550363Y37049947D01*
X48679527Y37075639D01*
X48679530Y37075641D01*
X48679535Y37075641D01*
X48862051Y37151241D01*
X49026312Y37260996D01*
X49166004Y37400688D01*
X49275759Y37564949D01*
X49351359Y37747465D01*
X49389900Y37941223D01*
X49389900Y38138777D01*
X49389900Y38138780D01*
X49389899Y38138782D01*
X49351361Y38332528D01*
X49351358Y38332537D01*
X49345364Y38347007D01*
X49275759Y38515051D01*
X49166004Y38679312D01*
X49166002Y38679315D01*
X49026314Y38819003D01*
X48862054Y38928757D01*
X48862053Y38928758D01*
X48862051Y38928759D01*
X48862048Y38928761D01*
X48862043Y38928763D01*
X48679536Y39004359D01*
X48679527Y39004362D01*
X48485780Y39042900D01*
X48485777Y39042900D01*
X48288223Y39042900D01*
X48288220Y39042900D01*
X48094472Y39004362D01*
X48094463Y39004359D01*
X47911956Y38928763D01*
X47911945Y38928757D01*
X47747685Y38819003D01*
X47607997Y38679315D01*
X47498243Y38515055D01*
X47498237Y38515044D01*
X47422641Y38332537D01*
X47422638Y38332528D01*
X47384100Y38138782D01*
X5698169Y38138782D01*
X5672925Y38232993D01*
X5640012Y38290000D01*
X6534231Y38290000D01*
X6523757Y38356127D01*
X6523757Y38356130D01*
X6458095Y38558218D01*
X6361620Y38747558D01*
X6236727Y38919460D01*
X6236723Y38919465D01*
X6086464Y39069724D01*
X6086459Y39069728D01*
X5914557Y39194621D01*
X5725215Y39291097D01*
X5523124Y39356759D01*
X5457000Y39367232D01*
X5457000Y38473012D01*
X5399993Y38505925D01*
X5272826Y38540000D01*
X5141174Y38540000D01*
X5014007Y38505925D01*
X4957000Y38473012D01*
X4957000Y39373917D01*
X4928668Y39417316D01*
X4928169Y39487184D01*
X4965523Y39546231D01*
X5028870Y39575709D01*
X5047393Y39577100D01*
X5051779Y39577100D01*
X5051780Y39577101D01*
X5116363Y39589947D01*
X5245527Y39615639D01*
X5245530Y39615641D01*
X5245535Y39615641D01*
X5428051Y39691241D01*
X5592312Y39800996D01*
X5732004Y39940688D01*
X5841759Y40104949D01*
X5917359Y40287465D01*
X5955900Y40481223D01*
X5955900Y40678777D01*
X5955900Y40678780D01*
X5955899Y40678782D01*
X47130100Y40678782D01*
X47130100Y40481219D01*
X47168638Y40287473D01*
X47168641Y40287464D01*
X47244237Y40104957D01*
X47244243Y40104946D01*
X47353997Y39940686D01*
X47493685Y39800998D01*
X47493688Y39800996D01*
X47657949Y39691241D01*
X47840465Y39615641D01*
X47840467Y39615641D01*
X47840472Y39615639D01*
X48034218Y39577101D01*
X48034221Y39577100D01*
X48034223Y39577100D01*
X48231779Y39577100D01*
X48231780Y39577101D01*
X48296363Y39589947D01*
X48425527Y39615639D01*
X48425530Y39615641D01*
X48425535Y39615641D01*
X48608051Y39691241D01*
X48772312Y39800996D01*
X48912004Y39940688D01*
X49021759Y40104949D01*
X49097359Y40287465D01*
X49135900Y40481223D01*
X49135900Y40678777D01*
X49135900Y40678780D01*
X49135899Y40678782D01*
X49097361Y40872528D01*
X49097358Y40872537D01*
X49021762Y41055044D01*
X49021761Y41055045D01*
X49021759Y41055051D01*
X48912004Y41219312D01*
X48912002Y41219315D01*
X48772314Y41359003D01*
X48608054Y41468757D01*
X48608053Y41468758D01*
X48608051Y41468759D01*
X48608048Y41468761D01*
X48608043Y41468763D01*
X48425536Y41544359D01*
X48425527Y41544362D01*
X48231780Y41582900D01*
X48231777Y41582900D01*
X48034223Y41582900D01*
X48034220Y41582900D01*
X47840472Y41544362D01*
X47840463Y41544359D01*
X47657956Y41468763D01*
X47657945Y41468757D01*
X47493685Y41359003D01*
X47353997Y41219315D01*
X47244243Y41055055D01*
X47244237Y41055044D01*
X47168641Y40872537D01*
X47168638Y40872528D01*
X47130100Y40678782D01*
X5955899Y40678782D01*
X5917361Y40872528D01*
X5917358Y40872537D01*
X5841762Y41055044D01*
X5841761Y41055045D01*
X5841759Y41055051D01*
X5732004Y41219312D01*
X5732002Y41219315D01*
X5592314Y41359003D01*
X5428054Y41468757D01*
X5428053Y41468758D01*
X5428051Y41468759D01*
X5428048Y41468761D01*
X5428043Y41468763D01*
X5245536Y41544359D01*
X5245527Y41544362D01*
X5051780Y41582900D01*
X5051777Y41582900D01*
X4854223Y41582900D01*
X4854220Y41582900D01*
X4660472Y41544362D01*
X4660463Y41544359D01*
X4477956Y41468763D01*
X4477945Y41468757D01*
X4313685Y41359003D01*
X4173997Y41219315D01*
X4064243Y41055055D01*
X4064237Y41055044D01*
X3988641Y40872537D01*
X3988638Y40872528D01*
X3950100Y40678782D01*
X3950100Y40481219D01*
X3988638Y40287473D01*
X3988641Y40287464D01*
X4064237Y40104957D01*
X4064243Y40104946D01*
X4173997Y39940686D01*
X4313685Y39800998D01*
X4313688Y39800996D01*
X4477949Y39691241D01*
X4660465Y39615641D01*
X4660467Y39615641D01*
X4660472Y39615639D01*
X4831528Y39581614D01*
X4893439Y39549229D01*
X4928013Y39488514D01*
X4924274Y39418744D01*
X4883407Y39362072D01*
X4845655Y39342066D01*
X4688782Y39291096D01*
X4499442Y39194621D01*
X4327540Y39069728D01*
X4327535Y39069724D01*
X4177276Y38919465D01*
X4177272Y38919460D01*
X4052379Y38747558D01*
X3955904Y38558218D01*
X3890242Y38356130D01*
X3890242Y38356127D01*
X3879769Y38290000D01*
X4773988Y38290000D01*
X4741075Y38232993D01*
X4707000Y38105826D01*
X4707000Y37974174D01*
X4741075Y37847007D01*
X4773988Y37790000D01*
X3879769Y37790000D01*
X3890242Y37723874D01*
X3890242Y37723871D01*
X3955904Y37521783D01*
X4052379Y37332443D01*
X4177272Y37160541D01*
X4177276Y37160536D01*
X4327539Y37010273D01*
X4417721Y36944753D01*
X4460387Y36889424D01*
X4466366Y36819810D01*
X4433761Y36758015D01*
X4401132Y36733951D01*
X4245444Y36654623D01*
X4073540Y36529728D01*
X4073535Y36529724D01*
X3923276Y36379465D01*
X3923272Y36379460D01*
X3798379Y36207558D01*
X3701904Y36018218D01*
X3636242Y35816130D01*
X3636242Y35816127D01*
X3625769Y35750000D01*
X75500Y35750000D01*
X75500Y43218782D01*
X4204100Y43218782D01*
X4204100Y43021219D01*
X4242638Y42827473D01*
X4242641Y42827464D01*
X4318237Y42644957D01*
X4318243Y42644946D01*
X4427997Y42480686D01*
X4567685Y42340998D01*
X4567688Y42340996D01*
X4731949Y42231241D01*
X4914465Y42155641D01*
X4914467Y42155641D01*
X4914472Y42155639D01*
X5108218Y42117101D01*
X5108221Y42117100D01*
X5108223Y42117100D01*
X5305779Y42117100D01*
X5305780Y42117101D01*
X5370363Y42129947D01*
X5499527Y42155639D01*
X5499530Y42155641D01*
X5499535Y42155641D01*
X5682051Y42231241D01*
X5846312Y42340996D01*
X5986004Y42480688D01*
X6095759Y42644949D01*
X6171359Y42827465D01*
X6209900Y43021223D01*
X6209900Y43218777D01*
X6209900Y43218780D01*
X6209899Y43218782D01*
X47384100Y43218782D01*
X47384100Y43021219D01*
X47422638Y42827473D01*
X47422641Y42827464D01*
X47498237Y42644957D01*
X47498243Y42644946D01*
X47607997Y42480686D01*
X47747685Y42340998D01*
X47747688Y42340996D01*
X47911949Y42231241D01*
X48094465Y42155641D01*
X48094467Y42155641D01*
X48094472Y42155639D01*
X48288218Y42117101D01*
X48288221Y42117100D01*
X48288223Y42117100D01*
X48485779Y42117100D01*
X48485780Y42117101D01*
X48550363Y42129947D01*
X48679527Y42155639D01*
X48679530Y42155641D01*
X48679535Y42155641D01*
X48862051Y42231241D01*
X49026312Y42340996D01*
X49166004Y42480688D01*
X49275759Y42644949D01*
X49351359Y42827465D01*
X49389900Y43021223D01*
X49389900Y43218777D01*
X49389900Y43218780D01*
X49389899Y43218782D01*
X49351361Y43412528D01*
X49351358Y43412537D01*
X49275762Y43595044D01*
X49275761Y43595045D01*
X49275759Y43595051D01*
X49166004Y43759312D01*
X49166002Y43759315D01*
X49026314Y43899003D01*
X48862054Y44008757D01*
X48862053Y44008758D01*
X48862051Y44008759D01*
X48862048Y44008761D01*
X48862043Y44008763D01*
X48679536Y44084359D01*
X48679527Y44084362D01*
X48485780Y44122900D01*
X48485777Y44122900D01*
X48288223Y44122900D01*
X48288220Y44122900D01*
X48094472Y44084362D01*
X48094463Y44084359D01*
X47911956Y44008763D01*
X47911945Y44008757D01*
X47747685Y43899003D01*
X47607997Y43759315D01*
X47498243Y43595055D01*
X47498237Y43595044D01*
X47422641Y43412537D01*
X47422638Y43412528D01*
X47384100Y43218782D01*
X6209899Y43218782D01*
X6171361Y43412528D01*
X6171358Y43412537D01*
X6095762Y43595044D01*
X6095761Y43595045D01*
X6095759Y43595051D01*
X5986004Y43759312D01*
X5986002Y43759315D01*
X5846314Y43899003D01*
X5682054Y44008757D01*
X5682053Y44008758D01*
X5682051Y44008759D01*
X5682048Y44008761D01*
X5682043Y44008763D01*
X5499536Y44084359D01*
X5499527Y44084362D01*
X5305780Y44122900D01*
X5305777Y44122900D01*
X5108223Y44122900D01*
X5108220Y44122900D01*
X4914472Y44084362D01*
X4914463Y44084359D01*
X4731956Y44008763D01*
X4731945Y44008757D01*
X4567685Y43899003D01*
X4427997Y43759315D01*
X4318243Y43595055D01*
X4318237Y43595044D01*
X4242641Y43412537D01*
X4242638Y43412528D01*
X4204100Y43218782D01*
X75500Y43218782D01*
X75500Y45758782D01*
X3950100Y45758782D01*
X3950100Y45561219D01*
X3988638Y45367473D01*
X3988641Y45367464D01*
X4064237Y45184957D01*
X4064243Y45184946D01*
X4173997Y45020686D01*
X4313685Y44880998D01*
X4313688Y44880996D01*
X4477949Y44771241D01*
X4660465Y44695641D01*
X4660467Y44695641D01*
X4660472Y44695639D01*
X4854218Y44657101D01*
X4854221Y44657100D01*
X4854223Y44657100D01*
X5051779Y44657100D01*
X5051780Y44657101D01*
X5116363Y44669947D01*
X5245527Y44695639D01*
X5245530Y44695641D01*
X5245535Y44695641D01*
X5428051Y44771241D01*
X5592312Y44880996D01*
X5732004Y45020688D01*
X5841759Y45184949D01*
X5878231Y45273001D01*
X27507500Y45273001D01*
X27507500Y45145800D01*
X27540422Y45022929D01*
X27572223Y44967850D01*
X27604024Y44912769D01*
X27693969Y44822824D01*
X27804130Y44759222D01*
X27926999Y44726300D01*
X27927001Y44726300D01*
X28054199Y44726300D01*
X28054201Y44726300D01*
X28177070Y44759222D01*
X28287231Y44822824D01*
X28377176Y44912769D01*
X28440778Y45022930D01*
X28473700Y45145799D01*
X28473700Y45194201D01*
X31686300Y45194201D01*
X31686300Y45067000D01*
X31719222Y44944129D01*
X31751023Y44889050D01*
X31782824Y44833969D01*
X31872769Y44744024D01*
X31982930Y44680422D01*
X32105799Y44647500D01*
X32105801Y44647500D01*
X32232999Y44647500D01*
X32233001Y44647500D01*
X32355870Y44680422D01*
X32466031Y44744024D01*
X32555976Y44833969D01*
X32619578Y44944130D01*
X32652500Y45066999D01*
X32652500Y45194201D01*
X32619578Y45317070D01*
X32555976Y45427231D01*
X32466031Y45517176D01*
X32389747Y45561219D01*
X32355871Y45580778D01*
X32294435Y45597239D01*
X32233001Y45613700D01*
X32105799Y45613700D01*
X31982928Y45580778D01*
X31872769Y45517176D01*
X31872766Y45517174D01*
X31782826Y45427234D01*
X31782824Y45427231D01*
X31719222Y45317072D01*
X31686300Y45194201D01*
X28473700Y45194201D01*
X28473700Y45273001D01*
X28440778Y45395870D01*
X28377176Y45506031D01*
X28287231Y45595976D01*
X28180699Y45657483D01*
X28177072Y45659578D01*
X28095157Y45681526D01*
X28054201Y45692500D01*
X27926999Y45692500D01*
X27804128Y45659578D01*
X27693969Y45595976D01*
X27693966Y45595974D01*
X27604026Y45506034D01*
X27604024Y45506031D01*
X27540422Y45395872D01*
X27507500Y45273001D01*
X5878231Y45273001D01*
X5917359Y45367465D01*
X5955900Y45561223D01*
X5955900Y45758777D01*
X5955900Y45758780D01*
X5955899Y45758782D01*
X47130100Y45758782D01*
X47130100Y45561219D01*
X47168638Y45367473D01*
X47168641Y45367464D01*
X47244237Y45184957D01*
X47244243Y45184946D01*
X47353997Y45020686D01*
X47493685Y44880998D01*
X47493688Y44880996D01*
X47657949Y44771241D01*
X47840465Y44695641D01*
X47840467Y44695641D01*
X47840472Y44695639D01*
X48034218Y44657101D01*
X48034221Y44657100D01*
X48034223Y44657100D01*
X48231779Y44657100D01*
X48231780Y44657101D01*
X48296363Y44669947D01*
X48425527Y44695639D01*
X48425530Y44695641D01*
X48425535Y44695641D01*
X48608051Y44771241D01*
X48772312Y44880996D01*
X48912004Y45020688D01*
X49021759Y45184949D01*
X49097359Y45367465D01*
X49135900Y45561223D01*
X49135900Y45758777D01*
X49135900Y45758780D01*
X49135899Y45758782D01*
X49097361Y45952528D01*
X49097358Y45952537D01*
X49021762Y46135044D01*
X49021761Y46135045D01*
X49021759Y46135051D01*
X48912004Y46299312D01*
X48912002Y46299315D01*
X48772314Y46439003D01*
X48608054Y46548757D01*
X48608053Y46548758D01*
X48608051Y46548759D01*
X48608048Y46548761D01*
X48608043Y46548763D01*
X48425536Y46624359D01*
X48425527Y46624362D01*
X48231780Y46662900D01*
X48231777Y46662900D01*
X48034223Y46662900D01*
X48034220Y46662900D01*
X47840472Y46624362D01*
X47840463Y46624359D01*
X47657956Y46548763D01*
X47657945Y46548757D01*
X47493685Y46439003D01*
X47353997Y46299315D01*
X47244243Y46135055D01*
X47244237Y46135044D01*
X47168641Y45952537D01*
X47168638Y45952528D01*
X47130100Y45758782D01*
X5955899Y45758782D01*
X5917361Y45952528D01*
X5917358Y45952537D01*
X5841762Y46135044D01*
X5841761Y46135045D01*
X5841759Y46135051D01*
X5732004Y46299312D01*
X5732002Y46299315D01*
X5592314Y46439003D01*
X5428054Y46548757D01*
X5428053Y46548758D01*
X5428051Y46548759D01*
X5428048Y46548761D01*
X5428043Y46548763D01*
X5245536Y46624359D01*
X5245527Y46624362D01*
X5051780Y46662900D01*
X5051777Y46662900D01*
X4854223Y46662900D01*
X4854220Y46662900D01*
X4660472Y46624362D01*
X4660463Y46624359D01*
X4477956Y46548763D01*
X4477945Y46548757D01*
X4313685Y46439003D01*
X4173997Y46299315D01*
X4064243Y46135055D01*
X4064237Y46135044D01*
X3988641Y45952537D01*
X3988638Y45952528D01*
X3950100Y45758782D01*
X75500Y45758782D01*
X75500Y49065060D01*
X4204100Y49065060D01*
X4204100Y47334946D01*
X4212972Y47290342D01*
X4212973Y47290339D01*
X4246765Y47239767D01*
X4246766Y47239766D01*
X4297342Y47205972D01*
X4297343Y47205972D01*
X4297345Y47205971D01*
X4319642Y47201536D01*
X4341943Y47197100D01*
X6072056Y47197101D01*
X6116658Y47205972D01*
X6167234Y47239766D01*
X6201028Y47290342D01*
X6209900Y47334943D01*
X6209899Y48463601D01*
X27916900Y48463601D01*
X27916900Y48336400D01*
X27949822Y48213529D01*
X27951668Y48210332D01*
X28013424Y48103369D01*
X28103369Y48013424D01*
X28213530Y47949822D01*
X28336399Y47916900D01*
X28336401Y47916900D01*
X28463599Y47916900D01*
X28463601Y47916900D01*
X28586470Y47949822D01*
X28696631Y48013424D01*
X28786576Y48103369D01*
X28807841Y48140201D01*
X40140300Y48140201D01*
X40140300Y48013000D01*
X40173222Y47890129D01*
X40205023Y47835050D01*
X40236824Y47779969D01*
X40326769Y47690024D01*
X40436930Y47626422D01*
X40559799Y47593500D01*
X40559801Y47593500D01*
X40686999Y47593500D01*
X40687001Y47593500D01*
X40809870Y47626422D01*
X40920031Y47690024D01*
X41009976Y47779969D01*
X41073578Y47890130D01*
X41106500Y48012999D01*
X41106500Y48140201D01*
X41073578Y48263070D01*
X41009976Y48373231D01*
X40920031Y48463176D01*
X40832998Y48513425D01*
X40809871Y48526778D01*
X40748435Y48543239D01*
X40687001Y48559700D01*
X40559799Y48559700D01*
X40436928Y48526778D01*
X40326769Y48463176D01*
X40326766Y48463174D01*
X40236826Y48373234D01*
X40236824Y48373231D01*
X40173222Y48263072D01*
X40140300Y48140201D01*
X28807841Y48140201D01*
X28848332Y48210332D01*
X28850175Y48213523D01*
X28850176Y48213527D01*
X28850177Y48213529D01*
X28850178Y48213530D01*
X28883100Y48336399D01*
X28883100Y48463601D01*
X28850178Y48586470D01*
X28786576Y48696631D01*
X28696631Y48786576D01*
X28610336Y48836399D01*
X28586471Y48850178D01*
X28583797Y48850894D01*
X28463601Y48883100D01*
X28336399Y48883100D01*
X28213528Y48850178D01*
X28103369Y48786576D01*
X28103366Y48786574D01*
X28013426Y48696634D01*
X28013424Y48696631D01*
X27949822Y48586472D01*
X27916900Y48463601D01*
X6209899Y48463601D01*
X6209899Y48963601D01*
X32216900Y48963601D01*
X32216900Y48836400D01*
X32249822Y48713529D01*
X32281623Y48658450D01*
X32313424Y48603369D01*
X32403369Y48513424D01*
X32513530Y48449822D01*
X32636399Y48416900D01*
X32636401Y48416900D01*
X32763599Y48416900D01*
X32763601Y48416900D01*
X32886470Y48449822D01*
X32996631Y48513424D01*
X33086576Y48603369D01*
X33150178Y48713530D01*
X33183100Y48836399D01*
X33183100Y48963601D01*
X33155915Y49065060D01*
X47384100Y49065060D01*
X47384100Y47334946D01*
X47392972Y47290342D01*
X47392973Y47290339D01*
X47426765Y47239767D01*
X47426766Y47239766D01*
X47477342Y47205972D01*
X47477343Y47205972D01*
X47477345Y47205971D01*
X47499642Y47201536D01*
X47521943Y47197100D01*
X49252056Y47197101D01*
X49296658Y47205972D01*
X49347234Y47239766D01*
X49381028Y47290342D01*
X49389900Y47334943D01*
X49389899Y49065056D01*
X49381028Y49109658D01*
X49381026Y49109660D01*
X49381026Y49109662D01*
X49347234Y49160234D01*
X49296659Y49194027D01*
X49296658Y49194028D01*
X49296657Y49194029D01*
X49296656Y49194029D01*
X49296654Y49194030D01*
X49252059Y49202900D01*
X47521945Y49202900D01*
X47477341Y49194028D01*
X47477338Y49194027D01*
X47426766Y49160235D01*
X47392971Y49109657D01*
X47392970Y49109655D01*
X47384100Y49065060D01*
X33155915Y49065060D01*
X33150178Y49086470D01*
X33086576Y49196631D01*
X32996631Y49286576D01*
X32935793Y49321701D01*
X32886471Y49350178D01*
X32825035Y49366639D01*
X32763601Y49383100D01*
X32636399Y49383100D01*
X32513528Y49350178D01*
X32403369Y49286576D01*
X32403366Y49286574D01*
X32313426Y49196634D01*
X32313424Y49196631D01*
X32249822Y49086472D01*
X32216900Y48963601D01*
X6209899Y48963601D01*
X6209899Y49065056D01*
X6201028Y49109658D01*
X6201026Y49109660D01*
X6201026Y49109662D01*
X6167234Y49160234D01*
X6116659Y49194027D01*
X6116658Y49194028D01*
X6116657Y49194029D01*
X6116656Y49194029D01*
X6116654Y49194030D01*
X6072059Y49202900D01*
X4341945Y49202900D01*
X4297341Y49194028D01*
X4297338Y49194027D01*
X4246766Y49160235D01*
X4212971Y49109657D01*
X4212970Y49109655D01*
X4204100Y49065060D01*
X75500Y49065060D01*
X75500Y50163601D01*
X25416900Y50163601D01*
X25416900Y50036400D01*
X25449822Y49913529D01*
X25475877Y49868401D01*
X25513424Y49803369D01*
X25603369Y49713424D01*
X25713530Y49649822D01*
X25836399Y49616900D01*
X25836401Y49616900D01*
X25963599Y49616900D01*
X25963601Y49616900D01*
X26086470Y49649822D01*
X26196631Y49713424D01*
X26286576Y49803369D01*
X26324123Y49868401D01*
X29662100Y49868401D01*
X29662100Y49741200D01*
X29695022Y49618329D01*
X29726823Y49563250D01*
X29758624Y49508169D01*
X29848569Y49418224D01*
X29958730Y49354622D01*
X30081599Y49321700D01*
X30081601Y49321700D01*
X30208799Y49321700D01*
X30208801Y49321700D01*
X30331670Y49354622D01*
X30441831Y49418224D01*
X30531776Y49508169D01*
X30595378Y49618330D01*
X30628300Y49741199D01*
X30628300Y49868401D01*
X30595378Y49991270D01*
X30531776Y50101431D01*
X30441831Y50191376D01*
X30386750Y50223177D01*
X30331671Y50254978D01*
X30270235Y50271439D01*
X30208801Y50287900D01*
X30081599Y50287900D01*
X29958728Y50254978D01*
X29848569Y50191376D01*
X29848566Y50191374D01*
X29758626Y50101434D01*
X29758624Y50101431D01*
X29695022Y49991272D01*
X29662100Y49868401D01*
X26324123Y49868401D01*
X26350178Y49913530D01*
X26383100Y50036399D01*
X26383100Y50163601D01*
X26350178Y50286470D01*
X26349352Y50287900D01*
X26341655Y50301232D01*
X26286576Y50396631D01*
X26196631Y50486576D01*
X26141550Y50518377D01*
X26086471Y50550178D01*
X26025035Y50566639D01*
X25963601Y50583100D01*
X25836399Y50583100D01*
X25713528Y50550178D01*
X25603369Y50486576D01*
X25603366Y50486574D01*
X25513426Y50396634D01*
X25513424Y50396631D01*
X25449822Y50286472D01*
X25416900Y50163601D01*
X75500Y50163601D01*
X75500Y51963601D01*
X27966900Y51963601D01*
X27966900Y51836400D01*
X27999822Y51713529D01*
X28031623Y51658450D01*
X28063424Y51603369D01*
X28153369Y51513424D01*
X28263530Y51449822D01*
X28386399Y51416900D01*
X28386401Y51416900D01*
X28513599Y51416900D01*
X28513601Y51416900D01*
X28636470Y51449822D01*
X28746631Y51513424D01*
X28836576Y51603369D01*
X28900178Y51713530D01*
X28933100Y51836399D01*
X28933100Y51963601D01*
X28900178Y52086470D01*
X28836576Y52196631D01*
X28746631Y52286576D01*
X28691550Y52318377D01*
X28636471Y52350178D01*
X28575035Y52366639D01*
X28513601Y52383100D01*
X28386399Y52383100D01*
X28263528Y52350178D01*
X28153369Y52286576D01*
X28153366Y52286574D01*
X28063426Y52196634D01*
X28063424Y52196631D01*
X27999822Y52086472D01*
X27966900Y51963601D01*
X75500Y51963601D01*
X75500Y53716261D01*
X15157011Y53716261D01*
X15157012Y53716260D01*
X15194328Y53691325D01*
X15194334Y53691322D01*
X15377776Y53615338D01*
X15377784Y53615336D01*
X15572516Y53576601D01*
X15572519Y53576600D01*
X15771081Y53576600D01*
X15771083Y53576601D01*
X15965815Y53615336D01*
X15965827Y53615339D01*
X16149261Y53691319D01*
X16186587Y53716261D01*
X15671801Y54231047D01*
X15671800Y54231047D01*
X15157011Y53716261D01*
X75500Y53716261D01*
X75500Y55991247D01*
X7260600Y55991247D01*
X7260600Y55778754D01*
X7293842Y55568873D01*
X7293842Y55568870D01*
X7359504Y55366783D01*
X7455975Y55177450D01*
X7495328Y55123284D01*
X8127636Y55755593D01*
X8144675Y55692007D01*
X8210501Y55577993D01*
X8303593Y55484901D01*
X8417607Y55419075D01*
X8481190Y55402038D01*
X7848882Y54769731D01*
X7848882Y54769730D01*
X7903049Y54730376D01*
X8092382Y54633905D01*
X8294470Y54568243D01*
X8504354Y54535000D01*
X8716846Y54535000D01*
X8926727Y54568243D01*
X8926730Y54568243D01*
X9128817Y54633905D01*
X9226905Y54683884D01*
X14663800Y54683884D01*
X14663800Y54485317D01*
X14702535Y54290585D01*
X14702537Y54290577D01*
X14778519Y54107138D01*
X14803459Y54069814D01*
X15318246Y54584600D01*
X15318246Y54584601D01*
X14803459Y55099388D01*
X14803457Y55099388D01*
X14778522Y55062070D01*
X14702537Y54878624D01*
X14702535Y54878616D01*
X14663800Y54683884D01*
X9226905Y54683884D01*
X9318154Y54730378D01*
X9372316Y54769730D01*
X9372317Y54769730D01*
X8740008Y55402038D01*
X8803593Y55419075D01*
X8917607Y55484901D01*
X9010699Y55577993D01*
X9076525Y55692007D01*
X9093562Y55755592D01*
X9725870Y55123283D01*
X9725870Y55123284D01*
X9765222Y55177446D01*
X9861695Y55366783D01*
X9927357Y55568870D01*
X9927357Y55568873D01*
X9960600Y55778754D01*
X9960600Y55991247D01*
X9927357Y56201128D01*
X9927357Y56201131D01*
X9861695Y56403218D01*
X9765224Y56592551D01*
X9725870Y56646718D01*
X9725869Y56646718D01*
X9093562Y56014410D01*
X9076525Y56077993D01*
X9010699Y56192007D01*
X8917607Y56285099D01*
X8803593Y56350925D01*
X8740009Y56367963D01*
X9372316Y57000272D01*
X9318150Y57039625D01*
X9128817Y57136096D01*
X8993170Y57180170D01*
X8935494Y57219607D01*
X8933687Y57223884D01*
X14663800Y57223884D01*
X14663800Y57025317D01*
X14702535Y56830585D01*
X14702537Y56830577D01*
X14778519Y56647138D01*
X14803459Y56609814D01*
X15318246Y57124600D01*
X15318246Y57124601D01*
X14807246Y57635601D01*
X14800927Y57635601D01*
X14778526Y57602076D01*
X14778521Y57602067D01*
X14702537Y57418624D01*
X14702535Y57418616D01*
X14663800Y57223884D01*
X8933687Y57223884D01*
X8908296Y57283966D01*
X8920211Y57352812D01*
X8967455Y57404288D01*
X9031487Y57422101D01*
X9475656Y57422101D01*
X9520258Y57430972D01*
X9570834Y57464766D01*
X9604628Y57515342D01*
X9613500Y57559943D01*
X9613500Y57759600D01*
X15390353Y57759600D01*
X15671800Y57478154D01*
X15671801Y57478154D01*
X15953246Y57759599D01*
X15953246Y57759601D01*
X15671801Y58041047D01*
X15671800Y58041047D01*
X15390353Y57759600D01*
X9613500Y57759600D01*
X9613499Y58493884D01*
X14663800Y58493884D01*
X14663800Y58295317D01*
X14702535Y58100585D01*
X14702537Y58100577D01*
X14778521Y57917135D01*
X14800927Y57883601D01*
X14807246Y57883601D01*
X14822288Y57898643D01*
X15318246Y58394600D01*
X15318246Y58394601D01*
X14803459Y58909388D01*
X14803457Y58909388D01*
X14778522Y58872070D01*
X14702537Y58688624D01*
X14702535Y58688616D01*
X14663800Y58493884D01*
X9613499Y58493884D01*
X9613499Y59290056D01*
X9604628Y59334658D01*
X9604626Y59334660D01*
X9604626Y59334662D01*
X9570834Y59385234D01*
X9555217Y59395669D01*
X9520258Y59419028D01*
X9520257Y59419029D01*
X9520256Y59419029D01*
X9520254Y59419030D01*
X9475659Y59427900D01*
X7745545Y59427900D01*
X7700941Y59419028D01*
X7700938Y59419027D01*
X7650366Y59385235D01*
X7616571Y59334657D01*
X7616570Y59334655D01*
X7607700Y59290060D01*
X7607700Y57559946D01*
X7616572Y57515342D01*
X7616573Y57515339D01*
X7650365Y57464767D01*
X7650366Y57464766D01*
X7700942Y57430972D01*
X7700943Y57430972D01*
X7700945Y57430971D01*
X7723242Y57426536D01*
X7745543Y57422100D01*
X8189712Y57422101D01*
X8256749Y57402417D01*
X8302504Y57349613D01*
X8312448Y57280454D01*
X8283423Y57216898D01*
X8228029Y57180170D01*
X8092381Y57136095D01*
X7903039Y57039620D01*
X7848882Y57000273D01*
X7848882Y57000272D01*
X8481191Y56367963D01*
X8417607Y56350925D01*
X8303593Y56285099D01*
X8210501Y56192007D01*
X8144675Y56077993D01*
X8127637Y56014409D01*
X7495328Y56646718D01*
X7495327Y56646718D01*
X7455980Y56592561D01*
X7359504Y56403218D01*
X7293842Y56201131D01*
X7293842Y56201128D01*
X7260600Y55991247D01*
X75500Y55991247D01*
X75500Y59729698D01*
X15010900Y59729698D01*
X15010900Y59599503D01*
X15036296Y59471831D01*
X15036299Y59471819D01*
X15086114Y59351553D01*
X15086121Y59351540D01*
X15158444Y59243302D01*
X15158447Y59243298D01*
X15250497Y59151248D01*
X15250505Y59151242D01*
X15295217Y59121366D01*
X15314008Y59105945D01*
X15707854Y58712100D01*
X15630000Y58712100D01*
X15549249Y58690463D01*
X15476850Y58648663D01*
X15417737Y58589550D01*
X15375937Y58517151D01*
X15354300Y58436400D01*
X15354300Y58352800D01*
X15375937Y58272049D01*
X15417737Y58199650D01*
X15476850Y58140537D01*
X15549249Y58098737D01*
X15630000Y58077100D01*
X15713600Y58077100D01*
X15794351Y58098737D01*
X15866750Y58140537D01*
X15925863Y58199650D01*
X15967663Y58272049D01*
X15989300Y58352800D01*
X15989300Y58430654D01*
X16383144Y58036809D01*
X16398565Y58018019D01*
X16428444Y57973302D01*
X16428447Y57973298D01*
X16520497Y57881248D01*
X16520503Y57881243D01*
X16548252Y57862701D01*
X16593057Y57809088D01*
X16601763Y57739763D01*
X16571607Y57676736D01*
X16548252Y57656499D01*
X16520503Y57637958D01*
X16520503Y57637957D01*
X16428443Y57545897D01*
X16398565Y57501182D01*
X16383145Y57482394D01*
X15989300Y57088547D01*
X15989300Y57166400D01*
X15967663Y57247151D01*
X15925863Y57319550D01*
X15866750Y57378663D01*
X15794351Y57420463D01*
X15713600Y57442100D01*
X15630000Y57442100D01*
X15549249Y57420463D01*
X15476850Y57378663D01*
X15417737Y57319550D01*
X15375937Y57247151D01*
X15354300Y57166400D01*
X15354300Y57082800D01*
X15375937Y57002049D01*
X15417737Y56929650D01*
X15476850Y56870537D01*
X15549249Y56828737D01*
X15630000Y56807100D01*
X15707853Y56807100D01*
X15314006Y56413255D01*
X15295218Y56397835D01*
X15250503Y56367957D01*
X15158443Y56275898D01*
X15086121Y56167661D01*
X15086114Y56167648D01*
X15036299Y56047382D01*
X15036296Y56047370D01*
X15010900Y55919698D01*
X15010900Y55789503D01*
X15036296Y55661831D01*
X15036299Y55661819D01*
X15086114Y55541553D01*
X15086121Y55541540D01*
X15158444Y55433302D01*
X15158447Y55433298D01*
X15250497Y55341248D01*
X15250505Y55341242D01*
X15295217Y55311366D01*
X15314008Y55295945D01*
X15707854Y54902100D01*
X15630000Y54902100D01*
X15549249Y54880463D01*
X15476850Y54838663D01*
X15417737Y54779550D01*
X15375937Y54707151D01*
X15354300Y54626400D01*
X15354300Y54542800D01*
X15375937Y54462049D01*
X15417737Y54389650D01*
X15476850Y54330537D01*
X15549249Y54288737D01*
X15630000Y54267100D01*
X15713600Y54267100D01*
X15794351Y54288737D01*
X15866750Y54330537D01*
X15925863Y54389650D01*
X15967663Y54462049D01*
X15989300Y54542800D01*
X15989300Y54620654D01*
X16383144Y54226809D01*
X16398565Y54208019D01*
X16428444Y54163302D01*
X16428447Y54163298D01*
X16520497Y54071248D01*
X16520501Y54071245D01*
X16628739Y53998922D01*
X16628752Y53998915D01*
X16749018Y53949100D01*
X16749023Y53949098D01*
X16876702Y53923701D01*
X16876705Y53923700D01*
X16876707Y53923700D01*
X17006895Y53923700D01*
X17006896Y53923701D01*
X17134577Y53949098D01*
X17254854Y53998918D01*
X17363099Y54071245D01*
X17455155Y54163301D01*
X17455355Y54163601D01*
X26971200Y54163601D01*
X26971200Y54036400D01*
X27004122Y53913529D01*
X27035923Y53858450D01*
X27067724Y53803369D01*
X27157669Y53713424D01*
X27267830Y53649822D01*
X27390699Y53616900D01*
X27390701Y53616900D01*
X27517899Y53616900D01*
X27517901Y53616900D01*
X27640770Y53649822D01*
X27750931Y53713424D01*
X27840876Y53803369D01*
X27904478Y53913530D01*
X27937400Y54036399D01*
X27937400Y54163601D01*
X40316900Y54163601D01*
X40316900Y54036400D01*
X40349822Y53913529D01*
X40381623Y53858450D01*
X40413424Y53803369D01*
X40503369Y53713424D01*
X40613530Y53649822D01*
X40736399Y53616900D01*
X40736401Y53616900D01*
X40863599Y53616900D01*
X40863601Y53616900D01*
X40986470Y53649822D01*
X41096631Y53713424D01*
X41186576Y53803369D01*
X41250178Y53913530D01*
X41283100Y54036399D01*
X41283100Y54163601D01*
X41250178Y54286470D01*
X41186576Y54396631D01*
X41096631Y54486576D01*
X41012759Y54535000D01*
X40986471Y54550178D01*
X40919049Y54568243D01*
X40863601Y54583100D01*
X40736399Y54583100D01*
X40613528Y54550178D01*
X40503369Y54486576D01*
X40503366Y54486574D01*
X40413426Y54396634D01*
X40413424Y54396631D01*
X40349822Y54286472D01*
X40316900Y54163601D01*
X27937400Y54163601D01*
X27904478Y54286470D01*
X27840876Y54396631D01*
X27750931Y54486576D01*
X27667059Y54535000D01*
X27640771Y54550178D01*
X27573349Y54568243D01*
X27517901Y54583100D01*
X27390699Y54583100D01*
X27267828Y54550178D01*
X27157669Y54486576D01*
X27157666Y54486574D01*
X27067726Y54396634D01*
X27067724Y54396631D01*
X27004122Y54286472D01*
X26971200Y54163601D01*
X17455355Y54163601D01*
X17497590Y54226809D01*
X17506818Y54240619D01*
X17527478Y54271540D01*
X17527478Y54271541D01*
X17527482Y54271546D01*
X17577302Y54391823D01*
X17602700Y54519507D01*
X17602700Y54649693D01*
X17602700Y54649696D01*
X17602699Y54649698D01*
X17587880Y54724199D01*
X17577302Y54777377D01*
X17551917Y54838663D01*
X17534515Y54880676D01*
X17527485Y54897648D01*
X17527478Y54897661D01*
X17512551Y54920001D01*
X22453100Y54920001D01*
X22453100Y54792800D01*
X22486022Y54669929D01*
X22497703Y54649698D01*
X22549624Y54559769D01*
X22639569Y54469824D01*
X22749730Y54406222D01*
X22872599Y54373300D01*
X22872601Y54373300D01*
X22999799Y54373300D01*
X22999801Y54373300D01*
X23122670Y54406222D01*
X23232831Y54469824D01*
X23322776Y54559769D01*
X23386378Y54669930D01*
X23419300Y54792799D01*
X23419300Y54851401D01*
X33654500Y54851401D01*
X33654500Y54724200D01*
X33687422Y54601329D01*
X33716955Y54550178D01*
X33751024Y54491169D01*
X33840969Y54401224D01*
X33951130Y54337622D01*
X34073999Y54304700D01*
X34074001Y54304700D01*
X34201199Y54304700D01*
X34201201Y54304700D01*
X34324070Y54337622D01*
X34434231Y54401224D01*
X34524176Y54491169D01*
X34587778Y54601330D01*
X34620700Y54724199D01*
X34620700Y54851401D01*
X34587778Y54974270D01*
X34524176Y55084431D01*
X34434231Y55174376D01*
X34356771Y55219098D01*
X34324071Y55237978D01*
X34262635Y55254439D01*
X34201201Y55270900D01*
X34073999Y55270900D01*
X33951128Y55237978D01*
X33840969Y55174376D01*
X33840966Y55174374D01*
X33751026Y55084434D01*
X33751024Y55084431D01*
X33687422Y54974272D01*
X33654500Y54851401D01*
X23419300Y54851401D01*
X23419300Y54920001D01*
X23386378Y55042870D01*
X23322776Y55153031D01*
X23232831Y55242976D01*
X23141087Y55295945D01*
X23122671Y55306578D01*
X23061235Y55323039D01*
X22999801Y55339500D01*
X22872599Y55339500D01*
X22749728Y55306578D01*
X22639569Y55242976D01*
X22639566Y55242974D01*
X22549626Y55153034D01*
X22549624Y55153031D01*
X22486022Y55042872D01*
X22453100Y54920001D01*
X17512551Y54920001D01*
X17455155Y55005899D01*
X17455152Y55005903D01*
X17363102Y55097953D01*
X17363097Y55097957D01*
X17335349Y55116497D01*
X17290543Y55170109D01*
X17281834Y55239433D01*
X17311988Y55302461D01*
X17335349Y55322703D01*
X17360487Y55339500D01*
X17363099Y55341245D01*
X17455155Y55433301D01*
X17527482Y55541546D01*
X17577302Y55661823D01*
X17602700Y55789507D01*
X17602700Y55919693D01*
X17602700Y55919696D01*
X17602699Y55919698D01*
X17588467Y55991247D01*
X17577302Y56047377D01*
X17564621Y56077993D01*
X17527485Y56167648D01*
X17527478Y56167661D01*
X17455155Y56275899D01*
X17455152Y56275903D01*
X17363102Y56367953D01*
X17363097Y56367957D01*
X17335349Y56386497D01*
X17290543Y56440109D01*
X17281834Y56509433D01*
X17311988Y56572461D01*
X17335349Y56592703D01*
X17360957Y56609814D01*
X17363099Y56611245D01*
X17455155Y56703301D01*
X17527482Y56811546D01*
X17557245Y56883401D01*
X32435300Y56883401D01*
X32435300Y56756200D01*
X32468222Y56633329D01*
X32480971Y56611248D01*
X32531824Y56523169D01*
X32621769Y56433224D01*
X32731930Y56369622D01*
X32854799Y56336700D01*
X32854801Y56336700D01*
X32981999Y56336700D01*
X32982001Y56336700D01*
X33104870Y56369622D01*
X33215031Y56433224D01*
X33304976Y56523169D01*
X33368578Y56633330D01*
X33401500Y56756199D01*
X33401500Y56843772D01*
X49409500Y56843772D01*
X49409500Y56676229D01*
X49442182Y56511926D01*
X49442184Y56511918D01*
X49506295Y56357140D01*
X49599373Y56217838D01*
X49717837Y56099374D01*
X49793843Y56048589D01*
X49857137Y56006297D01*
X50011918Y55942184D01*
X50176228Y55909501D01*
X50176232Y55909500D01*
X50176233Y55909500D01*
X50343768Y55909500D01*
X50343769Y55909501D01*
X50508082Y55942184D01*
X50662863Y56006297D01*
X50802162Y56099374D01*
X50920626Y56217838D01*
X51013703Y56357137D01*
X51077816Y56511918D01*
X51110500Y56676233D01*
X51110500Y56843767D01*
X51077816Y57008082D01*
X51013703Y57162863D01*
X50972930Y57223884D01*
X50920626Y57302163D01*
X50802162Y57420627D01*
X50662860Y57513705D01*
X50508082Y57577816D01*
X50508074Y57577818D01*
X50343771Y57610500D01*
X50343767Y57610500D01*
X50176233Y57610500D01*
X50176228Y57610500D01*
X50011925Y57577818D01*
X50011917Y57577816D01*
X49857139Y57513705D01*
X49717837Y57420627D01*
X49599373Y57302163D01*
X49506295Y57162861D01*
X49442184Y57008083D01*
X49442182Y57008075D01*
X49409500Y56843772D01*
X33401500Y56843772D01*
X33401500Y56883401D01*
X33368578Y57006270D01*
X33304976Y57116431D01*
X33215031Y57206376D01*
X33144407Y57247151D01*
X33104871Y57269978D01*
X33043435Y57286439D01*
X32982001Y57302900D01*
X32854799Y57302900D01*
X32731928Y57269978D01*
X32621769Y57206376D01*
X32621766Y57206374D01*
X32531826Y57116434D01*
X32531824Y57116431D01*
X32468222Y57006272D01*
X32435300Y56883401D01*
X17557245Y56883401D01*
X17577302Y56931823D01*
X17602700Y57059507D01*
X17602700Y57189693D01*
X17602700Y57189696D01*
X17602699Y57189698D01*
X17599382Y57206374D01*
X17577302Y57317377D01*
X17563950Y57349613D01*
X17527485Y57437648D01*
X17527478Y57437661D01*
X17455155Y57545899D01*
X17455152Y57545903D01*
X17363102Y57637953D01*
X17363097Y57637957D01*
X17335349Y57656497D01*
X17290543Y57710109D01*
X17281834Y57779433D01*
X17311988Y57842461D01*
X17316278Y57847002D01*
X17325024Y57855805D01*
X17363099Y57881245D01*
X17409255Y57927401D01*
X25316900Y57927401D01*
X25316900Y57800200D01*
X25349822Y57677329D01*
X25381623Y57622250D01*
X25413424Y57567169D01*
X25503369Y57477224D01*
X25613530Y57413622D01*
X25736399Y57380700D01*
X25736401Y57380700D01*
X25863599Y57380700D01*
X25863601Y57380700D01*
X25986470Y57413622D01*
X26096631Y57477224D01*
X26186576Y57567169D01*
X26250178Y57677330D01*
X26283100Y57800199D01*
X26283100Y57927401D01*
X26250178Y58050270D01*
X26186576Y58160431D01*
X26171296Y58175711D01*
X26166499Y58181901D01*
X26157755Y58204201D01*
X32562300Y58204201D01*
X32562300Y58077000D01*
X32595222Y57954129D01*
X32610654Y57927401D01*
X32658824Y57843969D01*
X32748769Y57754024D01*
X32858930Y57690422D01*
X32981799Y57657500D01*
X32981801Y57657500D01*
X33108999Y57657500D01*
X33109001Y57657500D01*
X33231870Y57690422D01*
X33342031Y57754024D01*
X33431976Y57843969D01*
X33495578Y57954130D01*
X33528500Y58076999D01*
X33528500Y58204201D01*
X33495578Y58327070D01*
X33431976Y58437231D01*
X33342031Y58527176D01*
X33286950Y58558977D01*
X33231871Y58590778D01*
X33170435Y58607239D01*
X33109001Y58623700D01*
X32981799Y58623700D01*
X32858928Y58590778D01*
X32748769Y58527176D01*
X32748766Y58527174D01*
X32658826Y58437234D01*
X32658824Y58437231D01*
X32595222Y58327072D01*
X32562300Y58204201D01*
X26157755Y58204201D01*
X26156487Y58207435D01*
X26143346Y58231503D01*
X26143917Y58239493D01*
X26140994Y58246949D01*
X26146375Y58273843D01*
X26148333Y58301194D01*
X26153439Y58309140D01*
X26154704Y58315460D01*
X26163040Y58324080D01*
X26176828Y58345534D01*
X26234664Y58403369D01*
X26298266Y58513530D01*
X26331188Y58636399D01*
X26331188Y58763601D01*
X26298266Y58886470D01*
X26285862Y58907955D01*
X26270491Y58934578D01*
X26270490Y58934579D01*
X26237503Y58991714D01*
X47132100Y58991714D01*
X47132100Y57728287D01*
X47147041Y57633950D01*
X47147042Y57633947D01*
X47147043Y57633945D01*
X47191905Y57545899D01*
X47204985Y57520228D01*
X47204988Y57520224D01*
X47295223Y57429989D01*
X47295227Y57429986D01*
X47295229Y57429984D01*
X47408945Y57372043D01*
X47408947Y57372043D01*
X47408949Y57372042D01*
X47503287Y57357100D01*
X47503292Y57357100D01*
X49016713Y57357100D01*
X49111050Y57372042D01*
X49111050Y57372043D01*
X49111055Y57372043D01*
X49224771Y57429984D01*
X49315016Y57520229D01*
X49372957Y57633945D01*
X49372958Y57633950D01*
X49387900Y57728287D01*
X49387900Y58991714D01*
X49372958Y59086051D01*
X49372957Y59086053D01*
X49372957Y59086055D01*
X49315016Y59199771D01*
X49315014Y59199773D01*
X49315011Y59199777D01*
X49224776Y59290012D01*
X49224772Y59290015D01*
X49224771Y59290016D01*
X49111055Y59347957D01*
X49111053Y59347958D01*
X49111050Y59347959D01*
X49016713Y59362900D01*
X49016708Y59362900D01*
X47503292Y59362900D01*
X47503287Y59362900D01*
X47408949Y59347959D01*
X47295227Y59290015D01*
X47295223Y59290012D01*
X47204988Y59199777D01*
X47204985Y59199773D01*
X47204984Y59199771D01*
X47160498Y59112461D01*
X47147041Y59086051D01*
X47132100Y58991714D01*
X26237503Y58991714D01*
X26234664Y58996631D01*
X26144719Y59086576D01*
X26089638Y59118377D01*
X26034559Y59150178D01*
X25973123Y59166639D01*
X25911689Y59183100D01*
X25784487Y59183100D01*
X25661616Y59150178D01*
X25551457Y59086576D01*
X25551454Y59086574D01*
X25461514Y58996634D01*
X25461512Y58996631D01*
X25397910Y58886472D01*
X25364988Y58763601D01*
X25364988Y58636400D01*
X25397910Y58513529D01*
X25428990Y58459698D01*
X25461512Y58403369D01*
X25461516Y58403365D01*
X25471258Y58393622D01*
X25504741Y58332298D01*
X25499754Y58262607D01*
X25471256Y58218263D01*
X25413424Y58160431D01*
X25349822Y58050272D01*
X25316900Y57927401D01*
X17409255Y57927401D01*
X17455155Y57973301D01*
X17527482Y58081546D01*
X17577302Y58201823D01*
X17602700Y58329507D01*
X17602700Y58459693D01*
X17602700Y58459696D01*
X17602699Y58459698D01*
X17589277Y58527176D01*
X17577302Y58587377D01*
X17535368Y58688616D01*
X17527485Y58707648D01*
X17527478Y58707661D01*
X17455155Y58815899D01*
X17455152Y58815903D01*
X17363102Y58907953D01*
X17363097Y58907957D01*
X17335349Y58926497D01*
X17290543Y58980109D01*
X17281834Y59049433D01*
X17311988Y59112461D01*
X17335349Y59132703D01*
X17361502Y59150178D01*
X17363099Y59151245D01*
X17455155Y59243301D01*
X17527482Y59351546D01*
X17577302Y59471823D01*
X17602700Y59599507D01*
X17602700Y59729693D01*
X17602700Y59729696D01*
X17602699Y59729698D01*
X17597487Y59755901D01*
X40309200Y59755901D01*
X40309200Y59628700D01*
X40342122Y59505829D01*
X40361751Y59471831D01*
X40405724Y59395669D01*
X40495669Y59305724D01*
X40605830Y59242122D01*
X40728699Y59209200D01*
X40728701Y59209200D01*
X40855899Y59209200D01*
X40855901Y59209200D01*
X40978770Y59242122D01*
X41088931Y59305724D01*
X41178876Y59395669D01*
X41242478Y59505830D01*
X41275400Y59628699D01*
X41275400Y59755901D01*
X41242478Y59878770D01*
X41178876Y59988931D01*
X41088931Y60078876D01*
X41028909Y60113530D01*
X40978771Y60142478D01*
X40917335Y60158939D01*
X40855901Y60175400D01*
X40728699Y60175400D01*
X40605828Y60142478D01*
X40495669Y60078876D01*
X40495666Y60078874D01*
X40405726Y59988934D01*
X40405724Y59988931D01*
X40342122Y59878772D01*
X40309200Y59755901D01*
X17597487Y59755901D01*
X17585353Y59816901D01*
X17577302Y59857377D01*
X17568440Y59878772D01*
X17527485Y59977648D01*
X17527478Y59977661D01*
X17455155Y60085899D01*
X17455152Y60085903D01*
X17363102Y60177953D01*
X17363098Y60177956D01*
X17254860Y60250279D01*
X17254856Y60250281D01*
X17254844Y60250286D01*
X17238231Y60257168D01*
X17238230Y60257169D01*
X17134581Y60300101D01*
X17134569Y60300104D01*
X17006896Y60325500D01*
X17006893Y60325500D01*
X16876707Y60325500D01*
X16876704Y60325500D01*
X16749030Y60300104D01*
X16749018Y60300101D01*
X16628752Y60250286D01*
X16628739Y60250279D01*
X16520501Y60177956D01*
X16520497Y60177953D01*
X16428447Y60085903D01*
X16428442Y60085897D01*
X16409901Y60058148D01*
X16356288Y60013343D01*
X16286963Y60004637D01*
X16223936Y60034793D01*
X16203699Y60058148D01*
X16185157Y60085897D01*
X16185152Y60085903D01*
X16093102Y60177953D01*
X16093098Y60177956D01*
X15984860Y60250279D01*
X15984847Y60250286D01*
X15864581Y60300101D01*
X15864569Y60300104D01*
X15736896Y60325500D01*
X15736893Y60325500D01*
X15606707Y60325500D01*
X15606704Y60325500D01*
X15479030Y60300104D01*
X15479018Y60300101D01*
X15358752Y60250286D01*
X15358739Y60250279D01*
X15250501Y60177956D01*
X15250497Y60177953D01*
X15158447Y60085903D01*
X15158444Y60085899D01*
X15086121Y59977661D01*
X15086114Y59977648D01*
X15036299Y59857382D01*
X15036296Y59857370D01*
X15010900Y59729698D01*
X75500Y59729698D01*
X75500Y60363601D01*
X20216900Y60363601D01*
X20216900Y60236400D01*
X20249822Y60113529D01*
X20269831Y60078874D01*
X20313424Y60003369D01*
X20403369Y59913424D01*
X20476132Y59871414D01*
X20513526Y59849824D01*
X20513530Y59849822D01*
X20636399Y59816900D01*
X20636401Y59816900D01*
X20763599Y59816900D01*
X20763601Y59816900D01*
X20886470Y59849822D01*
X20996631Y59913424D01*
X21086576Y60003369D01*
X21150178Y60113530D01*
X21183100Y60236399D01*
X21183100Y60363601D01*
X21150178Y60486470D01*
X21086576Y60596631D01*
X20996631Y60686576D01*
X20941550Y60718377D01*
X20886471Y60750178D01*
X20825035Y60766639D01*
X20763601Y60783100D01*
X20636399Y60783100D01*
X20513528Y60750178D01*
X20403369Y60686576D01*
X20403366Y60686574D01*
X20313426Y60596634D01*
X20313424Y60596631D01*
X20249822Y60486472D01*
X20216900Y60363601D01*
X75500Y60363601D01*
X75500Y60958782D01*
X47132100Y60958782D01*
X47132100Y60761219D01*
X47170638Y60567473D01*
X47170641Y60567464D01*
X47246237Y60384957D01*
X47246243Y60384946D01*
X47355997Y60220686D01*
X47495685Y60080998D01*
X47495688Y60080996D01*
X47659949Y59971241D01*
X47842465Y59895641D01*
X47842467Y59895641D01*
X47842472Y59895639D01*
X48036218Y59857101D01*
X48036221Y59857100D01*
X48036223Y59857100D01*
X48483779Y59857100D01*
X48483780Y59857101D01*
X48555743Y59871415D01*
X48677527Y59895639D01*
X48677530Y59895641D01*
X48677535Y59895641D01*
X48860051Y59971241D01*
X49024312Y60080996D01*
X49164004Y60220688D01*
X49273759Y60384949D01*
X49349359Y60567465D01*
X49355161Y60596631D01*
X49387899Y60761219D01*
X49387900Y60761221D01*
X49387900Y60958780D01*
X49387899Y60958782D01*
X49349361Y61152528D01*
X49349358Y61152537D01*
X49273762Y61335044D01*
X49273761Y61335045D01*
X49273759Y61335051D01*
X49164004Y61499312D01*
X49164002Y61499315D01*
X49024314Y61639003D01*
X48860054Y61748757D01*
X48860053Y61748758D01*
X48860051Y61748759D01*
X48860048Y61748761D01*
X48860043Y61748763D01*
X48677536Y61824359D01*
X48677527Y61824362D01*
X48483780Y61862900D01*
X48483777Y61862900D01*
X48036223Y61862900D01*
X48036220Y61862900D01*
X47842472Y61824362D01*
X47842463Y61824359D01*
X47659956Y61748763D01*
X47659945Y61748757D01*
X47495685Y61639003D01*
X47355997Y61499315D01*
X47246243Y61335055D01*
X47246237Y61335044D01*
X47170641Y61152537D01*
X47170638Y61152528D01*
X47132100Y60958782D01*
X75500Y60958782D01*
X75500Y61963601D01*
X26316900Y61963601D01*
X26316900Y61836400D01*
X26349822Y61713529D01*
X26381623Y61658450D01*
X26413424Y61603369D01*
X26503369Y61513424D01*
X26613530Y61449822D01*
X26736399Y61416900D01*
X26736401Y61416900D01*
X26863599Y61416900D01*
X26863601Y61416900D01*
X26986470Y61449822D01*
X27096631Y61513424D01*
X27186576Y61603369D01*
X27250178Y61713530D01*
X27283100Y61836399D01*
X27283100Y61963601D01*
X27250178Y62086470D01*
X27186576Y62196631D01*
X27096631Y62286576D01*
X27041550Y62318377D01*
X26986471Y62350178D01*
X26925035Y62366639D01*
X26863601Y62383100D01*
X26736399Y62383100D01*
X26613528Y62350178D01*
X26503369Y62286576D01*
X26503366Y62286574D01*
X26413426Y62196634D01*
X26413424Y62196631D01*
X26349822Y62086472D01*
X26316900Y61963601D01*
X75500Y61963601D01*
X75500Y65951201D01*
X38104500Y65951201D01*
X38104500Y65824000D01*
X38137422Y65701129D01*
X38169223Y65646050D01*
X38201024Y65590969D01*
X38290969Y65501024D01*
X38401130Y65437422D01*
X38523999Y65404500D01*
X38524001Y65404500D01*
X38651199Y65404500D01*
X38651201Y65404500D01*
X38774070Y65437422D01*
X38884231Y65501024D01*
X38974176Y65590969D01*
X39037778Y65701130D01*
X39070700Y65823999D01*
X39070700Y65951201D01*
X39037778Y66074070D01*
X39017034Y66110000D01*
X46807769Y66110000D01*
X47855854Y66110000D01*
X47817370Y66043343D01*
X47785000Y65922535D01*
X47785000Y65797465D01*
X47817370Y65676657D01*
X47855854Y65610000D01*
X46807769Y65610000D01*
X46818242Y65543874D01*
X46818242Y65543871D01*
X46883904Y65341783D01*
X46980379Y65152443D01*
X47105272Y64980541D01*
X47105276Y64980536D01*
X47255535Y64830277D01*
X47255540Y64830273D01*
X47427442Y64705380D01*
X47616782Y64608905D01*
X47808562Y64546592D01*
X47866237Y64507155D01*
X47893436Y64442796D01*
X47881522Y64373950D01*
X47834277Y64322474D01*
X47817697Y64314100D01*
X47659952Y64248761D01*
X47659945Y64248757D01*
X47495685Y64139003D01*
X47355997Y63999315D01*
X47246243Y63835055D01*
X47246237Y63835044D01*
X47170641Y63652537D01*
X47170638Y63652528D01*
X47132100Y63458782D01*
X47132100Y63261219D01*
X47170638Y63067473D01*
X47170641Y63067464D01*
X47246237Y62884957D01*
X47246243Y62884946D01*
X47355997Y62720686D01*
X47495685Y62580998D01*
X47495688Y62580996D01*
X47659949Y62471241D01*
X47842465Y62395641D01*
X47842467Y62395641D01*
X47842472Y62395639D01*
X48036218Y62357101D01*
X48036221Y62357100D01*
X48036223Y62357100D01*
X48483779Y62357100D01*
X48483780Y62357101D01*
X48548363Y62369947D01*
X48677527Y62395639D01*
X48677530Y62395641D01*
X48677535Y62395641D01*
X48860051Y62471241D01*
X49024312Y62580996D01*
X49164004Y62720688D01*
X49273759Y62884949D01*
X49349359Y63067465D01*
X49387900Y63261223D01*
X49387900Y63458777D01*
X49387900Y63458780D01*
X49387899Y63458782D01*
X49349361Y63652528D01*
X49349358Y63652537D01*
X49273762Y63835044D01*
X49273761Y63835045D01*
X49273759Y63835051D01*
X49164004Y63999312D01*
X49164002Y63999315D01*
X49024314Y64139003D01*
X48860054Y64248757D01*
X48860053Y64248758D01*
X48860051Y64248759D01*
X48860048Y64248761D01*
X48860043Y64248763D01*
X48702303Y64314100D01*
X48647899Y64357941D01*
X48625834Y64424235D01*
X48643113Y64491934D01*
X48694250Y64539545D01*
X48711437Y64546592D01*
X48903217Y64608905D01*
X49092557Y64705380D01*
X49264459Y64830273D01*
X49264464Y64830277D01*
X49414723Y64980536D01*
X49414727Y64980541D01*
X49539620Y65152443D01*
X49636095Y65341783D01*
X49701757Y65543871D01*
X49701757Y65543874D01*
X49712231Y65610000D01*
X48664146Y65610000D01*
X48702630Y65676657D01*
X48735000Y65797465D01*
X48735000Y65922535D01*
X48702630Y66043343D01*
X48664146Y66110000D01*
X49712231Y66110000D01*
X49701757Y66176127D01*
X49701757Y66176130D01*
X49636095Y66378218D01*
X49539620Y66567558D01*
X49414727Y66739460D01*
X49414723Y66739465D01*
X49264464Y66889724D01*
X49264459Y66889728D01*
X49092557Y67014621D01*
X48903217Y67111096D01*
X48701128Y67176758D01*
X48510000Y67207031D01*
X48510000Y66264146D01*
X48443343Y66302630D01*
X48322535Y66335000D01*
X48197465Y66335000D01*
X48076657Y66302630D01*
X48010000Y66264146D01*
X48010000Y67207031D01*
X47818872Y67176758D01*
X47818869Y67176758D01*
X47616782Y67111096D01*
X47427442Y67014621D01*
X47255540Y66889728D01*
X47255535Y66889724D01*
X47105276Y66739465D01*
X47105272Y66739460D01*
X46980379Y66567558D01*
X46883904Y66378218D01*
X46818242Y66176130D01*
X46818242Y66176127D01*
X46807769Y66110000D01*
X39017034Y66110000D01*
X38974176Y66184231D01*
X38884231Y66274176D01*
X38829150Y66305977D01*
X38774071Y66337778D01*
X38712635Y66354239D01*
X38651201Y66370700D01*
X38523999Y66370700D01*
X38401128Y66337778D01*
X38290969Y66274176D01*
X38290966Y66274174D01*
X38201026Y66184234D01*
X38201024Y66184231D01*
X38137422Y66074072D01*
X38104500Y65951201D01*
X75500Y65951201D01*
X75500Y67501080D01*
X23024499Y67501080D01*
X23053340Y67356093D01*
X23053343Y67356083D01*
X23109912Y67219512D01*
X23109919Y67219499D01*
X23192048Y67096585D01*
X23192051Y67096581D01*
X23296580Y66992052D01*
X23296584Y66992049D01*
X23419498Y66909920D01*
X23419511Y66909913D01*
X23556082Y66853344D01*
X23556087Y66853342D01*
X23556091Y66853342D01*
X23556092Y66853341D01*
X23701079Y66824500D01*
X23701082Y66824500D01*
X23848920Y66824500D01*
X23946462Y66843904D01*
X23993913Y66853342D01*
X24130495Y66909916D01*
X24253416Y66992049D01*
X24357951Y67096584D01*
X24440084Y67219505D01*
X24496658Y67356087D01*
X24525500Y67501080D01*
X27424499Y67501080D01*
X27453340Y67356093D01*
X27453343Y67356083D01*
X27509912Y67219512D01*
X27509919Y67219499D01*
X27592048Y67096585D01*
X27592051Y67096581D01*
X27696580Y66992052D01*
X27696584Y66992049D01*
X27819498Y66909920D01*
X27819511Y66909913D01*
X27956082Y66853344D01*
X27956087Y66853342D01*
X27956091Y66853342D01*
X27956092Y66853341D01*
X28101079Y66824500D01*
X28101082Y66824500D01*
X28248920Y66824500D01*
X28346462Y66843904D01*
X28393913Y66853342D01*
X28530495Y66909916D01*
X28653416Y66992049D01*
X28757951Y67096584D01*
X28840084Y67219505D01*
X28896658Y67356087D01*
X28925500Y67501082D01*
X28925500Y67648918D01*
X28925500Y67648921D01*
X28896659Y67793908D01*
X28896658Y67793909D01*
X28896658Y67793913D01*
X28896656Y67793918D01*
X28840087Y67930489D01*
X28840080Y67930502D01*
X28757951Y68053416D01*
X28757948Y68053420D01*
X28653419Y68157949D01*
X28653415Y68157952D01*
X28530501Y68240081D01*
X28530488Y68240088D01*
X28393917Y68296657D01*
X28393907Y68296660D01*
X28248920Y68325500D01*
X28248918Y68325500D01*
X28101082Y68325500D01*
X28101080Y68325500D01*
X27956092Y68296660D01*
X27956082Y68296657D01*
X27819511Y68240088D01*
X27819498Y68240081D01*
X27696584Y68157952D01*
X27696580Y68157949D01*
X27592051Y68053420D01*
X27592048Y68053416D01*
X27509919Y67930502D01*
X27509912Y67930489D01*
X27453343Y67793918D01*
X27453340Y67793908D01*
X27424500Y67648921D01*
X27424500Y67648918D01*
X27424500Y67501082D01*
X27424500Y67501080D01*
X27424499Y67501080D01*
X24525500Y67501080D01*
X24525500Y67501082D01*
X24525500Y67648918D01*
X24525500Y67648921D01*
X24496659Y67793908D01*
X24496658Y67793909D01*
X24496658Y67793913D01*
X24496656Y67793918D01*
X24440087Y67930489D01*
X24440080Y67930502D01*
X24357951Y68053416D01*
X24357948Y68053420D01*
X24253419Y68157949D01*
X24253415Y68157952D01*
X24130501Y68240081D01*
X24130488Y68240088D01*
X23993917Y68296657D01*
X23993907Y68296660D01*
X23848920Y68325500D01*
X23848918Y68325500D01*
X23701082Y68325500D01*
X23701080Y68325500D01*
X23556092Y68296660D01*
X23556082Y68296657D01*
X23419511Y68240088D01*
X23419498Y68240081D01*
X23296584Y68157952D01*
X23296580Y68157949D01*
X23192051Y68053420D01*
X23192048Y68053416D01*
X23109919Y67930502D01*
X23109912Y67930489D01*
X23053343Y67793918D01*
X23053340Y67793908D01*
X23024500Y67648921D01*
X23024500Y67648918D01*
X23024500Y67501082D01*
X23024500Y67501080D01*
X23024499Y67501080D01*
X75500Y67501080D01*
X75500Y71056250D01*
X75726Y71063737D01*
X93016Y71349577D01*
X94821Y71364442D01*
X145763Y71642422D01*
X149347Y71656960D01*
X233422Y71926767D01*
X238724Y71940748D01*
X354719Y72198479D01*
X361670Y72211724D01*
X507884Y72453591D01*
X516371Y72465887D01*
X690678Y72688374D01*
X700593Y72699565D01*
X900435Y72899407D01*
X911626Y72909322D01*
X1134113Y73083629D01*
X1146409Y73092116D01*
X1388276Y73238330D01*
X1401521Y73245281D01*
X1659252Y73361276D01*
X1673233Y73366578D01*
X1943045Y73450655D01*
X1957574Y73454237D01*
X2235562Y73505180D01*
X2250420Y73506984D01*
X2536264Y73524274D01*
X2543751Y73524500D01*
X2564531Y73524500D01*
X50775469Y73524500D01*
X50796249Y73524500D01*
X50803736Y73524274D01*
G37*
%TD.AperFunction*%
%TD*%
M02*
