%TF.GenerationSoftware,KiCad,Pcbnew,10.0.2*%
%TF.CreationDate,2026-06-09T14:50:08-04:00*%
%TF.ProjectId,tag-breakout-l432-u375-lipo-v1,7461672d-6272-4656-916b-6f75742d6c34,rev?*%
%TF.SameCoordinates,Original*%
%TF.FileFunction,Legend,Top*%
%TF.FilePolarity,Positive*%
%FSLAX46Y46*%
G04 Gerber Fmt 4.6, Leading zero omitted, Abs format (unit mm)*
G04 Created by KiCad (PCBNEW 10.0.2) date 2026-06-09 14:50:08*
%MOMM*%
%LPD*%
G01*
G04 APERTURE LIST*
G04 Aperture macros list*
%AMRoundRect*
0 Rectangle with rounded corners*
0 $1 Rounding radius*
0 $2 $3 $4 $5 $6 $7 $8 $9 X,Y pos of 4 corners*
0 Add a 4 corners polygon primitive as box body*
4,1,4,$2,$3,$4,$5,$6,$7,$8,$9,$2,$3,0*
0 Add four circle primitives for the rounded corners*
1,1,$1+$1,$2,$3*
1,1,$1+$1,$4,$5*
1,1,$1+$1,$6,$7*
1,1,$1+$1,$8,$9*
0 Add four rect primitives between the rounded corners*
20,1,$1+$1,$2,$3,$4,$5,0*
20,1,$1+$1,$4,$5,$6,$7,0*
20,1,$1+$1,$6,$7,$8,$9,0*
20,1,$1+$1,$8,$9,$2,$3,0*%
%AMFreePoly0*
4,1,6,0.180000,0.075000,0.000000,-0.105000,-0.180000,-0.105000,-0.180000,0.105000,0.180000,0.105000,0.180000,0.075000,0.180000,0.075000,$1*%
%AMFreePoly1*
4,1,6,0.180000,-0.075000,0.180000,-0.105000,-0.180000,-0.105000,-0.180000,0.105000,0.000000,0.105000,0.180000,-0.075000,0.180000,-0.075000,$1*%
%AMFreePoly2*
4,1,6,0.180000,-0.105000,0.000000,-0.105000,-0.180000,0.075000,-0.180000,0.105000,0.180000,0.105000,0.180000,-0.105000,0.180000,-0.105000,$1*%
%AMFreePoly3*
4,1,6,0.180000,-0.105000,-0.180000,-0.105000,-0.180000,-0.075000,0.000000,0.105000,0.180000,0.105000,0.180000,-0.105000,0.180000,-0.105000,$1*%
G04 Aperture macros list end*
%ADD10C,0.150000*%
%ADD11C,0.200000*%
%ADD12C,0.300000*%
%ADD13C,0.120000*%
%ADD14C,0.140357*%
%ADD15C,1.016000*%
%ADD16R,0.750000X1.000000*%
%ADD17RoundRect,0.150000X0.150000X-0.512500X0.150000X0.512500X-0.150000X0.512500X-0.150000X-0.512500X0*%
%ADD18RoundRect,0.140000X-0.140000X-0.170000X0.140000X-0.170000X0.140000X0.170000X-0.140000X0.170000X0*%
%ADD19RoundRect,0.140000X0.140000X0.170000X-0.140000X0.170000X-0.140000X-0.170000X0.140000X-0.170000X0*%
%ADD20RoundRect,0.135000X-0.135000X-0.185000X0.135000X-0.185000X0.135000X0.185000X-0.135000X0.185000X0*%
%ADD21RoundRect,0.135000X0.185000X-0.135000X0.185000X0.135000X-0.185000X0.135000X-0.185000X-0.135000X0*%
%ADD22RoundRect,0.140000X0.170000X-0.140000X0.170000X0.140000X-0.170000X0.140000X-0.170000X-0.140000X0*%
%ADD23RoundRect,0.140000X-0.170000X0.140000X-0.170000X-0.140000X0.170000X-0.140000X0.170000X0.140000X0*%
%ADD24R,1.700000X1.700000*%
%ADD25C,1.700000*%
%ADD26O,1.700000X1.700000*%
%ADD27RoundRect,0.150000X-0.150000X0.587500X-0.150000X-0.587500X0.150000X-0.587500X0.150000X0.587500X0*%
%ADD28R,0.800000X0.500000*%
%ADD29RoundRect,0.243750X-0.456250X0.243750X-0.456250X-0.243750X0.456250X-0.243750X0.456250X0.243750X0*%
%ADD30C,1.200000*%
%ADD31RoundRect,0.250000X0.725000X-0.600000X0.725000X0.600000X-0.725000X0.600000X-0.725000X-0.600000X0*%
%ADD32O,1.950000X1.700000*%
%ADD33RoundRect,0.218750X-0.256250X0.218750X-0.256250X-0.218750X0.256250X-0.218750X0.256250X0.218750X0*%
%ADD34RoundRect,0.135000X-0.185000X0.135000X-0.185000X-0.135000X0.185000X-0.135000X0.185000X0.135000X0*%
%ADD35C,1.000000*%
%ADD36RoundRect,0.125000X0.125000X0.875000X-0.125000X0.875000X-0.125000X-0.875000X0.125000X-0.875000X0*%
%ADD37RoundRect,0.250000X0.750000X0.600000X-0.750000X0.600000X-0.750000X-0.600000X0.750000X-0.600000X0*%
%ADD38RoundRect,0.087500X-0.087500X0.425000X-0.087500X-0.425000X0.087500X-0.425000X0.087500X0.425000X0*%
%ADD39RoundRect,0.062500X0.375000X0.062500X-0.375000X0.062500X-0.375000X-0.062500X0.375000X-0.062500X0*%
%ADD40RoundRect,0.062500X0.062500X0.375000X-0.062500X0.375000X-0.062500X-0.375000X0.062500X-0.375000X0*%
%ADD41R,3.500000X3.500000*%
%ADD42RoundRect,0.112500X-0.187500X-0.112500X0.187500X-0.112500X0.187500X0.112500X-0.187500X0.112500X0*%
%ADD43FreePoly0,180.000000*%
%ADD44FreePoly1,180.000000*%
%ADD45FreePoly2,180.000000*%
%ADD46FreePoly3,180.000000*%
%ADD47RoundRect,0.120000X0.000000X0.169706X-0.169706X0.000000X0.000000X-0.169706X0.169706X0.000000X0*%
%ADD48RoundRect,0.062500X-0.375000X-0.062500X0.375000X-0.062500X0.375000X0.062500X-0.375000X0.062500X0*%
%ADD49RoundRect,0.062500X-0.062500X-0.375000X0.062500X-0.375000X0.062500X0.375000X-0.062500X0.375000X0*%
%ADD50RoundRect,0.150000X-0.150000X0.512500X-0.150000X-0.512500X0.150000X-0.512500X0.150000X0.512500X0*%
%ADD51RoundRect,0.087500X0.425000X0.087500X-0.425000X0.087500X-0.425000X-0.087500X0.425000X-0.087500X0*%
%ADD52RoundRect,0.093750X0.093750X-0.156250X0.093750X0.156250X-0.093750X0.156250X-0.093750X-0.156250X0*%
%ADD53RoundRect,0.075000X0.075000X-0.250000X0.075000X0.250000X-0.075000X0.250000X-0.075000X-0.250000X0*%
G04 APERTURE END LIST*
D10*
X8201188Y53735962D02*
X8105950Y53783581D01*
X8105950Y53783581D02*
X7963093Y53783581D01*
X7963093Y53783581D02*
X7820236Y53735962D01*
X7820236Y53735962D02*
X7724998Y53640724D01*
X7724998Y53640724D02*
X7677379Y53545486D01*
X7677379Y53545486D02*
X7629760Y53355010D01*
X7629760Y53355010D02*
X7629760Y53212153D01*
X7629760Y53212153D02*
X7677379Y53021677D01*
X7677379Y53021677D02*
X7724998Y52926439D01*
X7724998Y52926439D02*
X7820236Y52831200D01*
X7820236Y52831200D02*
X7963093Y52783581D01*
X7963093Y52783581D02*
X8058331Y52783581D01*
X8058331Y52783581D02*
X8201188Y52831200D01*
X8201188Y52831200D02*
X8248807Y52878820D01*
X8248807Y52878820D02*
X8248807Y53212153D01*
X8248807Y53212153D02*
X8058331Y53212153D01*
X8677379Y52783581D02*
X8677379Y53783581D01*
X8677379Y53783581D02*
X9248807Y52783581D01*
X9248807Y52783581D02*
X9248807Y53783581D01*
X9724998Y52783581D02*
X9724998Y53783581D01*
X9724998Y53783581D02*
X9963093Y53783581D01*
X9963093Y53783581D02*
X10105950Y53735962D01*
X10105950Y53735962D02*
X10201188Y53640724D01*
X10201188Y53640724D02*
X10248807Y53545486D01*
X10248807Y53545486D02*
X10296426Y53355010D01*
X10296426Y53355010D02*
X10296426Y53212153D01*
X10296426Y53212153D02*
X10248807Y53021677D01*
X10248807Y53021677D02*
X10201188Y52926439D01*
X10201188Y52926439D02*
X10105950Y52831200D01*
X10105950Y52831200D02*
X9963093Y52783581D01*
X9963093Y52783581D02*
X9724998Y52783581D01*
X7756779Y42665181D02*
X7756779Y43331848D01*
X7756779Y43141372D02*
X7804398Y43236610D01*
X7804398Y43236610D02*
X7852017Y43284229D01*
X7852017Y43284229D02*
X7947255Y43331848D01*
X7947255Y43331848D02*
X8042493Y43331848D01*
X8232970Y43331848D02*
X8613922Y43331848D01*
X8375827Y43665181D02*
X8375827Y42808039D01*
X8375827Y42808039D02*
X8423446Y42712800D01*
X8423446Y42712800D02*
X8518684Y42665181D01*
X8518684Y42665181D02*
X8613922Y42665181D01*
X9375827Y42712800D02*
X9280589Y42665181D01*
X9280589Y42665181D02*
X9090113Y42665181D01*
X9090113Y42665181D02*
X8994875Y42712800D01*
X8994875Y42712800D02*
X8947256Y42760420D01*
X8947256Y42760420D02*
X8899637Y42855658D01*
X8899637Y42855658D02*
X8899637Y43141372D01*
X8899637Y43141372D02*
X8947256Y43236610D01*
X8947256Y43236610D02*
X8994875Y43284229D01*
X8994875Y43284229D02*
X9090113Y43331848D01*
X9090113Y43331848D02*
X9280589Y43331848D01*
X9280589Y43331848D02*
X9375827Y43284229D01*
X9566304Y42569943D02*
X10328208Y42569943D01*
X10518685Y42712800D02*
X10613923Y42665181D01*
X10613923Y42665181D02*
X10804399Y42665181D01*
X10804399Y42665181D02*
X10899637Y42712800D01*
X10899637Y42712800D02*
X10947256Y42808039D01*
X10947256Y42808039D02*
X10947256Y42855658D01*
X10947256Y42855658D02*
X10899637Y42950896D01*
X10899637Y42950896D02*
X10804399Y42998515D01*
X10804399Y42998515D02*
X10661542Y42998515D01*
X10661542Y42998515D02*
X10566304Y43046134D01*
X10566304Y43046134D02*
X10518685Y43141372D01*
X10518685Y43141372D02*
X10518685Y43188991D01*
X10518685Y43188991D02*
X10566304Y43284229D01*
X10566304Y43284229D02*
X10661542Y43331848D01*
X10661542Y43331848D02*
X10804399Y43331848D01*
X10804399Y43331848D02*
X10899637Y43284229D01*
X11804399Y42712800D02*
X11709161Y42665181D01*
X11709161Y42665181D02*
X11518685Y42665181D01*
X11518685Y42665181D02*
X11423447Y42712800D01*
X11423447Y42712800D02*
X11375828Y42760420D01*
X11375828Y42760420D02*
X11328209Y42855658D01*
X11328209Y42855658D02*
X11328209Y43141372D01*
X11328209Y43141372D02*
X11375828Y43236610D01*
X11375828Y43236610D02*
X11423447Y43284229D01*
X11423447Y43284229D02*
X11518685Y43331848D01*
X11518685Y43331848D02*
X11709161Y43331848D01*
X11709161Y43331848D02*
X11804399Y43284229D01*
X12375828Y42665181D02*
X12280590Y42712800D01*
X12280590Y42712800D02*
X12232971Y42808039D01*
X12232971Y42808039D02*
X12232971Y43665181D01*
X7856779Y40125181D02*
X7856779Y40791848D01*
X7856779Y40601372D02*
X7904398Y40696610D01*
X7904398Y40696610D02*
X7952017Y40744229D01*
X7952017Y40744229D02*
X8047255Y40791848D01*
X8047255Y40791848D02*
X8142493Y40791848D01*
X8332970Y40791848D02*
X8713922Y40791848D01*
X8475827Y41125181D02*
X8475827Y40268039D01*
X8475827Y40268039D02*
X8523446Y40172800D01*
X8523446Y40172800D02*
X8618684Y40125181D01*
X8618684Y40125181D02*
X8713922Y40125181D01*
X9475827Y40172800D02*
X9380589Y40125181D01*
X9380589Y40125181D02*
X9190113Y40125181D01*
X9190113Y40125181D02*
X9094875Y40172800D01*
X9094875Y40172800D02*
X9047256Y40220420D01*
X9047256Y40220420D02*
X8999637Y40315658D01*
X8999637Y40315658D02*
X8999637Y40601372D01*
X8999637Y40601372D02*
X9047256Y40696610D01*
X9047256Y40696610D02*
X9094875Y40744229D01*
X9094875Y40744229D02*
X9190113Y40791848D01*
X9190113Y40791848D02*
X9380589Y40791848D01*
X9380589Y40791848D02*
X9475827Y40744229D01*
X9666304Y40029943D02*
X10428208Y40029943D01*
X10618685Y40172800D02*
X10713923Y40125181D01*
X10713923Y40125181D02*
X10904399Y40125181D01*
X10904399Y40125181D02*
X10999637Y40172800D01*
X10999637Y40172800D02*
X11047256Y40268039D01*
X11047256Y40268039D02*
X11047256Y40315658D01*
X11047256Y40315658D02*
X10999637Y40410896D01*
X10999637Y40410896D02*
X10904399Y40458515D01*
X10904399Y40458515D02*
X10761542Y40458515D01*
X10761542Y40458515D02*
X10666304Y40506134D01*
X10666304Y40506134D02*
X10618685Y40601372D01*
X10618685Y40601372D02*
X10618685Y40648991D01*
X10618685Y40648991D02*
X10666304Y40744229D01*
X10666304Y40744229D02*
X10761542Y40791848D01*
X10761542Y40791848D02*
X10904399Y40791848D01*
X10904399Y40791848D02*
X10999637Y40744229D01*
X11904399Y40125181D02*
X11904399Y41125181D01*
X11904399Y40172800D02*
X11809161Y40125181D01*
X11809161Y40125181D02*
X11618685Y40125181D01*
X11618685Y40125181D02*
X11523447Y40172800D01*
X11523447Y40172800D02*
X11475828Y40220420D01*
X11475828Y40220420D02*
X11428209Y40315658D01*
X11428209Y40315658D02*
X11428209Y40601372D01*
X11428209Y40601372D02*
X11475828Y40696610D01*
X11475828Y40696610D02*
X11523447Y40744229D01*
X11523447Y40744229D02*
X11618685Y40791848D01*
X11618685Y40791848D02*
X11809161Y40791848D01*
X11809161Y40791848D02*
X11904399Y40744229D01*
X12809161Y40125181D02*
X12809161Y40648991D01*
X12809161Y40648991D02*
X12761542Y40744229D01*
X12761542Y40744229D02*
X12666304Y40791848D01*
X12666304Y40791848D02*
X12475828Y40791848D01*
X12475828Y40791848D02*
X12380590Y40744229D01*
X12809161Y40172800D02*
X12713923Y40125181D01*
X12713923Y40125181D02*
X12475828Y40125181D01*
X12475828Y40125181D02*
X12380590Y40172800D01*
X12380590Y40172800D02*
X12332971Y40268039D01*
X12332971Y40268039D02*
X12332971Y40363277D01*
X12332971Y40363277D02*
X12380590Y40458515D01*
X12380590Y40458515D02*
X12475828Y40506134D01*
X12475828Y40506134D02*
X12713923Y40506134D01*
X12713923Y40506134D02*
X12809161Y40553753D01*
X7856779Y37465181D02*
X7856779Y38465181D01*
X7856779Y38465181D02*
X8428207Y37465181D01*
X8428207Y37465181D02*
X8428207Y38465181D01*
X9475826Y37560420D02*
X9428207Y37512800D01*
X9428207Y37512800D02*
X9285350Y37465181D01*
X9285350Y37465181D02*
X9190112Y37465181D01*
X9190112Y37465181D02*
X9047255Y37512800D01*
X9047255Y37512800D02*
X8952017Y37608039D01*
X8952017Y37608039D02*
X8904398Y37703277D01*
X8904398Y37703277D02*
X8856779Y37893753D01*
X8856779Y37893753D02*
X8856779Y38036610D01*
X8856779Y38036610D02*
X8904398Y38227086D01*
X8904398Y38227086D02*
X8952017Y38322324D01*
X8952017Y38322324D02*
X9047255Y38417562D01*
X9047255Y38417562D02*
X9190112Y38465181D01*
X9190112Y38465181D02*
X9285350Y38465181D01*
X9285350Y38465181D02*
X9428207Y38417562D01*
X9428207Y38417562D02*
X9475826Y38369943D01*
X7856779Y34965181D02*
X7856779Y35965181D01*
X7856779Y35965181D02*
X8428207Y34965181D01*
X8428207Y34965181D02*
X8428207Y35965181D01*
X9475826Y35060420D02*
X9428207Y35012800D01*
X9428207Y35012800D02*
X9285350Y34965181D01*
X9285350Y34965181D02*
X9190112Y34965181D01*
X9190112Y34965181D02*
X9047255Y35012800D01*
X9047255Y35012800D02*
X8952017Y35108039D01*
X8952017Y35108039D02*
X8904398Y35203277D01*
X8904398Y35203277D02*
X8856779Y35393753D01*
X8856779Y35393753D02*
X8856779Y35536610D01*
X8856779Y35536610D02*
X8904398Y35727086D01*
X8904398Y35727086D02*
X8952017Y35822324D01*
X8952017Y35822324D02*
X9047255Y35917562D01*
X9047255Y35917562D02*
X9190112Y35965181D01*
X9190112Y35965181D02*
X9285350Y35965181D01*
X9285350Y35965181D02*
X9428207Y35917562D01*
X9428207Y35917562D02*
X9475826Y35869943D01*
X7956779Y47745181D02*
X7956779Y48745181D01*
X7956779Y48745181D02*
X8337731Y48745181D01*
X8337731Y48745181D02*
X8432969Y48697562D01*
X8432969Y48697562D02*
X8480588Y48649943D01*
X8480588Y48649943D02*
X8528207Y48554705D01*
X8528207Y48554705D02*
X8528207Y48411848D01*
X8528207Y48411848D02*
X8480588Y48316610D01*
X8480588Y48316610D02*
X8432969Y48268991D01*
X8432969Y48268991D02*
X8337731Y48221372D01*
X8337731Y48221372D02*
X7956779Y48221372D01*
X9290112Y48268991D02*
X9432969Y48221372D01*
X9432969Y48221372D02*
X9480588Y48173753D01*
X9480588Y48173753D02*
X9528207Y48078515D01*
X9528207Y48078515D02*
X9528207Y47935658D01*
X9528207Y47935658D02*
X9480588Y47840420D01*
X9480588Y47840420D02*
X9432969Y47792800D01*
X9432969Y47792800D02*
X9337731Y47745181D01*
X9337731Y47745181D02*
X8956779Y47745181D01*
X8956779Y47745181D02*
X8956779Y48745181D01*
X8956779Y48745181D02*
X9290112Y48745181D01*
X9290112Y48745181D02*
X9385350Y48697562D01*
X9385350Y48697562D02*
X9432969Y48649943D01*
X9432969Y48649943D02*
X9480588Y48554705D01*
X9480588Y48554705D02*
X9480588Y48459467D01*
X9480588Y48459467D02*
X9432969Y48364229D01*
X9432969Y48364229D02*
X9385350Y48316610D01*
X9385350Y48316610D02*
X9290112Y48268991D01*
X9290112Y48268991D02*
X8956779Y48268991D01*
X10385350Y48411848D02*
X10385350Y47745181D01*
X10147255Y48792800D02*
X9909160Y48078515D01*
X9909160Y48078515D02*
X10528207Y48078515D01*
X7956779Y45205181D02*
X7956779Y46205181D01*
X7956779Y46205181D02*
X8337731Y46205181D01*
X8337731Y46205181D02*
X8432969Y46157562D01*
X8432969Y46157562D02*
X8480588Y46109943D01*
X8480588Y46109943D02*
X8528207Y46014705D01*
X8528207Y46014705D02*
X8528207Y45871848D01*
X8528207Y45871848D02*
X8480588Y45776610D01*
X8480588Y45776610D02*
X8432969Y45728991D01*
X8432969Y45728991D02*
X8337731Y45681372D01*
X8337731Y45681372D02*
X7956779Y45681372D01*
X9290112Y45728991D02*
X9432969Y45681372D01*
X9432969Y45681372D02*
X9480588Y45633753D01*
X9480588Y45633753D02*
X9528207Y45538515D01*
X9528207Y45538515D02*
X9528207Y45395658D01*
X9528207Y45395658D02*
X9480588Y45300420D01*
X9480588Y45300420D02*
X9432969Y45252800D01*
X9432969Y45252800D02*
X9337731Y45205181D01*
X9337731Y45205181D02*
X8956779Y45205181D01*
X8956779Y45205181D02*
X8956779Y46205181D01*
X8956779Y46205181D02*
X9290112Y46205181D01*
X9290112Y46205181D02*
X9385350Y46157562D01*
X9385350Y46157562D02*
X9432969Y46109943D01*
X9432969Y46109943D02*
X9480588Y46014705D01*
X9480588Y46014705D02*
X9480588Y45919467D01*
X9480588Y45919467D02*
X9432969Y45824229D01*
X9432969Y45824229D02*
X9385350Y45776610D01*
X9385350Y45776610D02*
X9290112Y45728991D01*
X9290112Y45728991D02*
X8956779Y45728991D01*
X10432969Y46205181D02*
X9956779Y46205181D01*
X9956779Y46205181D02*
X9909160Y45728991D01*
X9909160Y45728991D02*
X9956779Y45776610D01*
X9956779Y45776610D02*
X10052017Y45824229D01*
X10052017Y45824229D02*
X10290112Y45824229D01*
X10290112Y45824229D02*
X10385350Y45776610D01*
X10385350Y45776610D02*
X10432969Y45728991D01*
X10432969Y45728991D02*
X10480588Y45633753D01*
X10480588Y45633753D02*
X10480588Y45395658D01*
X10480588Y45395658D02*
X10432969Y45300420D01*
X10432969Y45300420D02*
X10385350Y45252800D01*
X10385350Y45252800D02*
X10290112Y45205181D01*
X10290112Y45205181D02*
X10052017Y45205181D01*
X10052017Y45205181D02*
X9956779Y45252800D01*
X9956779Y45252800D02*
X9909160Y45300420D01*
X7956779Y29965181D02*
X7956779Y30965181D01*
X7956779Y30965181D02*
X8337731Y30965181D01*
X8337731Y30965181D02*
X8432969Y30917562D01*
X8432969Y30917562D02*
X8480588Y30869943D01*
X8480588Y30869943D02*
X8528207Y30774705D01*
X8528207Y30774705D02*
X8528207Y30631848D01*
X8528207Y30631848D02*
X8480588Y30536610D01*
X8480588Y30536610D02*
X8432969Y30488991D01*
X8432969Y30488991D02*
X8337731Y30441372D01*
X8337731Y30441372D02*
X7956779Y30441372D01*
X8909160Y30250896D02*
X9385350Y30250896D01*
X8813922Y29965181D02*
X9147255Y30965181D01*
X9147255Y30965181D02*
X9480588Y29965181D01*
X10004398Y30965181D02*
X10099636Y30965181D01*
X10099636Y30965181D02*
X10194874Y30917562D01*
X10194874Y30917562D02*
X10242493Y30869943D01*
X10242493Y30869943D02*
X10290112Y30774705D01*
X10290112Y30774705D02*
X10337731Y30584229D01*
X10337731Y30584229D02*
X10337731Y30346134D01*
X10337731Y30346134D02*
X10290112Y30155658D01*
X10290112Y30155658D02*
X10242493Y30060420D01*
X10242493Y30060420D02*
X10194874Y30012800D01*
X10194874Y30012800D02*
X10099636Y29965181D01*
X10099636Y29965181D02*
X10004398Y29965181D01*
X10004398Y29965181D02*
X9909160Y30012800D01*
X9909160Y30012800D02*
X9861541Y30060420D01*
X9861541Y30060420D02*
X9813922Y30155658D01*
X9813922Y30155658D02*
X9766303Y30346134D01*
X9766303Y30346134D02*
X9766303Y30584229D01*
X9766303Y30584229D02*
X9813922Y30774705D01*
X9813922Y30774705D02*
X9861541Y30869943D01*
X9861541Y30869943D02*
X9909160Y30917562D01*
X9909160Y30917562D02*
X10004398Y30965181D01*
X7956779Y27425181D02*
X7956779Y28425181D01*
X7956779Y28425181D02*
X8337731Y28425181D01*
X8337731Y28425181D02*
X8432969Y28377562D01*
X8432969Y28377562D02*
X8480588Y28329943D01*
X8480588Y28329943D02*
X8528207Y28234705D01*
X8528207Y28234705D02*
X8528207Y28091848D01*
X8528207Y28091848D02*
X8480588Y27996610D01*
X8480588Y27996610D02*
X8432969Y27948991D01*
X8432969Y27948991D02*
X8337731Y27901372D01*
X8337731Y27901372D02*
X7956779Y27901372D01*
X8909160Y27710896D02*
X9385350Y27710896D01*
X8813922Y27425181D02*
X9147255Y28425181D01*
X9147255Y28425181D02*
X9480588Y27425181D01*
X10337731Y27425181D02*
X9766303Y27425181D01*
X10052017Y27425181D02*
X10052017Y28425181D01*
X10052017Y28425181D02*
X9956779Y28282324D01*
X9956779Y28282324D02*
X9861541Y28187086D01*
X9861541Y28187086D02*
X9766303Y28139467D01*
X7956779Y24885181D02*
X7956779Y25885181D01*
X7956779Y25885181D02*
X8337731Y25885181D01*
X8337731Y25885181D02*
X8432969Y25837562D01*
X8432969Y25837562D02*
X8480588Y25789943D01*
X8480588Y25789943D02*
X8528207Y25694705D01*
X8528207Y25694705D02*
X8528207Y25551848D01*
X8528207Y25551848D02*
X8480588Y25456610D01*
X8480588Y25456610D02*
X8432969Y25408991D01*
X8432969Y25408991D02*
X8337731Y25361372D01*
X8337731Y25361372D02*
X7956779Y25361372D01*
X8909160Y25170896D02*
X9385350Y25170896D01*
X8813922Y24885181D02*
X9147255Y25885181D01*
X9147255Y25885181D02*
X9480588Y24885181D01*
X9766303Y25789943D02*
X9813922Y25837562D01*
X9813922Y25837562D02*
X9909160Y25885181D01*
X9909160Y25885181D02*
X10147255Y25885181D01*
X10147255Y25885181D02*
X10242493Y25837562D01*
X10242493Y25837562D02*
X10290112Y25789943D01*
X10290112Y25789943D02*
X10337731Y25694705D01*
X10337731Y25694705D02*
X10337731Y25599467D01*
X10337731Y25599467D02*
X10290112Y25456610D01*
X10290112Y25456610D02*
X9718684Y24885181D01*
X9718684Y24885181D02*
X10337731Y24885181D01*
X7956779Y22345181D02*
X7956779Y23345181D01*
X7956779Y23345181D02*
X8337731Y23345181D01*
X8337731Y23345181D02*
X8432969Y23297562D01*
X8432969Y23297562D02*
X8480588Y23249943D01*
X8480588Y23249943D02*
X8528207Y23154705D01*
X8528207Y23154705D02*
X8528207Y23011848D01*
X8528207Y23011848D02*
X8480588Y22916610D01*
X8480588Y22916610D02*
X8432969Y22868991D01*
X8432969Y22868991D02*
X8337731Y22821372D01*
X8337731Y22821372D02*
X7956779Y22821372D01*
X8909160Y22630896D02*
X9385350Y22630896D01*
X8813922Y22345181D02*
X9147255Y23345181D01*
X9147255Y23345181D02*
X9480588Y22345181D01*
X9718684Y23345181D02*
X10337731Y23345181D01*
X10337731Y23345181D02*
X10004398Y22964229D01*
X10004398Y22964229D02*
X10147255Y22964229D01*
X10147255Y22964229D02*
X10242493Y22916610D01*
X10242493Y22916610D02*
X10290112Y22868991D01*
X10290112Y22868991D02*
X10337731Y22773753D01*
X10337731Y22773753D02*
X10337731Y22535658D01*
X10337731Y22535658D02*
X10290112Y22440420D01*
X10290112Y22440420D02*
X10242493Y22392800D01*
X10242493Y22392800D02*
X10147255Y22345181D01*
X10147255Y22345181D02*
X9861541Y22345181D01*
X9861541Y22345181D02*
X9766303Y22392800D01*
X9766303Y22392800D02*
X9718684Y22440420D01*
X7956779Y19805181D02*
X7956779Y20805181D01*
X7956779Y20805181D02*
X8337731Y20805181D01*
X8337731Y20805181D02*
X8432969Y20757562D01*
X8432969Y20757562D02*
X8480588Y20709943D01*
X8480588Y20709943D02*
X8528207Y20614705D01*
X8528207Y20614705D02*
X8528207Y20471848D01*
X8528207Y20471848D02*
X8480588Y20376610D01*
X8480588Y20376610D02*
X8432969Y20328991D01*
X8432969Y20328991D02*
X8337731Y20281372D01*
X8337731Y20281372D02*
X7956779Y20281372D01*
X8909160Y20090896D02*
X9385350Y20090896D01*
X8813922Y19805181D02*
X9147255Y20805181D01*
X9147255Y20805181D02*
X9480588Y19805181D01*
X10242493Y20471848D02*
X10242493Y19805181D01*
X10004398Y20852800D02*
X9766303Y20138515D01*
X9766303Y20138515D02*
X10385350Y20138515D01*
X7956779Y17265181D02*
X7956779Y18265181D01*
X7956779Y18265181D02*
X8337731Y18265181D01*
X8337731Y18265181D02*
X8432969Y18217562D01*
X8432969Y18217562D02*
X8480588Y18169943D01*
X8480588Y18169943D02*
X8528207Y18074705D01*
X8528207Y18074705D02*
X8528207Y17931848D01*
X8528207Y17931848D02*
X8480588Y17836610D01*
X8480588Y17836610D02*
X8432969Y17788991D01*
X8432969Y17788991D02*
X8337731Y17741372D01*
X8337731Y17741372D02*
X7956779Y17741372D01*
X8909160Y17550896D02*
X9385350Y17550896D01*
X8813922Y17265181D02*
X9147255Y18265181D01*
X9147255Y18265181D02*
X9480588Y17265181D01*
X10290112Y18265181D02*
X9813922Y18265181D01*
X9813922Y18265181D02*
X9766303Y17788991D01*
X9766303Y17788991D02*
X9813922Y17836610D01*
X9813922Y17836610D02*
X9909160Y17884229D01*
X9909160Y17884229D02*
X10147255Y17884229D01*
X10147255Y17884229D02*
X10242493Y17836610D01*
X10242493Y17836610D02*
X10290112Y17788991D01*
X10290112Y17788991D02*
X10337731Y17693753D01*
X10337731Y17693753D02*
X10337731Y17455658D01*
X10337731Y17455658D02*
X10290112Y17360420D01*
X10290112Y17360420D02*
X10242493Y17312800D01*
X10242493Y17312800D02*
X10147255Y17265181D01*
X10147255Y17265181D02*
X9909160Y17265181D01*
X9909160Y17265181D02*
X9813922Y17312800D01*
X9813922Y17312800D02*
X9766303Y17360420D01*
X7956779Y14725181D02*
X7956779Y15725181D01*
X7956779Y15725181D02*
X8337731Y15725181D01*
X8337731Y15725181D02*
X8432969Y15677562D01*
X8432969Y15677562D02*
X8480588Y15629943D01*
X8480588Y15629943D02*
X8528207Y15534705D01*
X8528207Y15534705D02*
X8528207Y15391848D01*
X8528207Y15391848D02*
X8480588Y15296610D01*
X8480588Y15296610D02*
X8432969Y15248991D01*
X8432969Y15248991D02*
X8337731Y15201372D01*
X8337731Y15201372D02*
X7956779Y15201372D01*
X8909160Y15010896D02*
X9385350Y15010896D01*
X8813922Y14725181D02*
X9147255Y15725181D01*
X9147255Y15725181D02*
X9480588Y14725181D01*
X10242493Y15725181D02*
X10052017Y15725181D01*
X10052017Y15725181D02*
X9956779Y15677562D01*
X9956779Y15677562D02*
X9909160Y15629943D01*
X9909160Y15629943D02*
X9813922Y15487086D01*
X9813922Y15487086D02*
X9766303Y15296610D01*
X9766303Y15296610D02*
X9766303Y14915658D01*
X9766303Y14915658D02*
X9813922Y14820420D01*
X9813922Y14820420D02*
X9861541Y14772800D01*
X9861541Y14772800D02*
X9956779Y14725181D01*
X9956779Y14725181D02*
X10147255Y14725181D01*
X10147255Y14725181D02*
X10242493Y14772800D01*
X10242493Y14772800D02*
X10290112Y14820420D01*
X10290112Y14820420D02*
X10337731Y14915658D01*
X10337731Y14915658D02*
X10337731Y15153753D01*
X10337731Y15153753D02*
X10290112Y15248991D01*
X10290112Y15248991D02*
X10242493Y15296610D01*
X10242493Y15296610D02*
X10147255Y15344229D01*
X10147255Y15344229D02*
X9956779Y15344229D01*
X9956779Y15344229D02*
X9861541Y15296610D01*
X9861541Y15296610D02*
X9813922Y15248991D01*
X9813922Y15248991D02*
X9766303Y15153753D01*
X7956779Y12185181D02*
X7956779Y13185181D01*
X7956779Y13185181D02*
X8337731Y13185181D01*
X8337731Y13185181D02*
X8432969Y13137562D01*
X8432969Y13137562D02*
X8480588Y13089943D01*
X8480588Y13089943D02*
X8528207Y12994705D01*
X8528207Y12994705D02*
X8528207Y12851848D01*
X8528207Y12851848D02*
X8480588Y12756610D01*
X8480588Y12756610D02*
X8432969Y12708991D01*
X8432969Y12708991D02*
X8337731Y12661372D01*
X8337731Y12661372D02*
X7956779Y12661372D01*
X8909160Y12470896D02*
X9385350Y12470896D01*
X8813922Y12185181D02*
X9147255Y13185181D01*
X9147255Y13185181D02*
X9480588Y12185181D01*
X9718684Y13185181D02*
X10385350Y13185181D01*
X10385350Y13185181D02*
X9956779Y12185181D01*
X7956779Y9645181D02*
X7956779Y10645181D01*
X7956779Y10645181D02*
X8337731Y10645181D01*
X8337731Y10645181D02*
X8432969Y10597562D01*
X8432969Y10597562D02*
X8480588Y10549943D01*
X8480588Y10549943D02*
X8528207Y10454705D01*
X8528207Y10454705D02*
X8528207Y10311848D01*
X8528207Y10311848D02*
X8480588Y10216610D01*
X8480588Y10216610D02*
X8432969Y10168991D01*
X8432969Y10168991D02*
X8337731Y10121372D01*
X8337731Y10121372D02*
X7956779Y10121372D01*
X9290112Y10168991D02*
X9432969Y10121372D01*
X9432969Y10121372D02*
X9480588Y10073753D01*
X9480588Y10073753D02*
X9528207Y9978515D01*
X9528207Y9978515D02*
X9528207Y9835658D01*
X9528207Y9835658D02*
X9480588Y9740420D01*
X9480588Y9740420D02*
X9432969Y9692800D01*
X9432969Y9692800D02*
X9337731Y9645181D01*
X9337731Y9645181D02*
X8956779Y9645181D01*
X8956779Y9645181D02*
X8956779Y10645181D01*
X8956779Y10645181D02*
X9290112Y10645181D01*
X9290112Y10645181D02*
X9385350Y10597562D01*
X9385350Y10597562D02*
X9432969Y10549943D01*
X9432969Y10549943D02*
X9480588Y10454705D01*
X9480588Y10454705D02*
X9480588Y10359467D01*
X9480588Y10359467D02*
X9432969Y10264229D01*
X9432969Y10264229D02*
X9385350Y10216610D01*
X9385350Y10216610D02*
X9290112Y10168991D01*
X9290112Y10168991D02*
X8956779Y10168991D01*
X10147255Y10645181D02*
X10242493Y10645181D01*
X10242493Y10645181D02*
X10337731Y10597562D01*
X10337731Y10597562D02*
X10385350Y10549943D01*
X10385350Y10549943D02*
X10432969Y10454705D01*
X10432969Y10454705D02*
X10480588Y10264229D01*
X10480588Y10264229D02*
X10480588Y10026134D01*
X10480588Y10026134D02*
X10432969Y9835658D01*
X10432969Y9835658D02*
X10385350Y9740420D01*
X10385350Y9740420D02*
X10337731Y9692800D01*
X10337731Y9692800D02*
X10242493Y9645181D01*
X10242493Y9645181D02*
X10147255Y9645181D01*
X10147255Y9645181D02*
X10052017Y9692800D01*
X10052017Y9692800D02*
X10004398Y9740420D01*
X10004398Y9740420D02*
X9956779Y9835658D01*
X9956779Y9835658D02*
X9909160Y10026134D01*
X9909160Y10026134D02*
X9909160Y10264229D01*
X9909160Y10264229D02*
X9956779Y10454705D01*
X9956779Y10454705D02*
X10004398Y10549943D01*
X10004398Y10549943D02*
X10052017Y10597562D01*
X10052017Y10597562D02*
X10147255Y10645181D01*
X8480588Y8057562D02*
X8385350Y8105181D01*
X8385350Y8105181D02*
X8242493Y8105181D01*
X8242493Y8105181D02*
X8099636Y8057562D01*
X8099636Y8057562D02*
X8004398Y7962324D01*
X8004398Y7962324D02*
X7956779Y7867086D01*
X7956779Y7867086D02*
X7909160Y7676610D01*
X7909160Y7676610D02*
X7909160Y7533753D01*
X7909160Y7533753D02*
X7956779Y7343277D01*
X7956779Y7343277D02*
X8004398Y7248039D01*
X8004398Y7248039D02*
X8099636Y7152800D01*
X8099636Y7152800D02*
X8242493Y7105181D01*
X8242493Y7105181D02*
X8337731Y7105181D01*
X8337731Y7105181D02*
X8480588Y7152800D01*
X8480588Y7152800D02*
X8528207Y7200420D01*
X8528207Y7200420D02*
X8528207Y7533753D01*
X8528207Y7533753D02*
X8337731Y7533753D01*
X8956779Y7105181D02*
X8956779Y8105181D01*
X8956779Y8105181D02*
X9528207Y7105181D01*
X9528207Y7105181D02*
X9528207Y8105181D01*
X10004398Y7105181D02*
X10004398Y8105181D01*
X10004398Y8105181D02*
X10242493Y8105181D01*
X10242493Y8105181D02*
X10385350Y8057562D01*
X10385350Y8057562D02*
X10480588Y7962324D01*
X10480588Y7962324D02*
X10528207Y7867086D01*
X10528207Y7867086D02*
X10575826Y7676610D01*
X10575826Y7676610D02*
X10575826Y7533753D01*
X10575826Y7533753D02*
X10528207Y7343277D01*
X10528207Y7343277D02*
X10480588Y7248039D01*
X10480588Y7248039D02*
X10385350Y7152800D01*
X10385350Y7152800D02*
X10242493Y7105181D01*
X10242493Y7105181D02*
X10004398Y7105181D01*
X7991722Y61505181D02*
X8563150Y61505181D01*
X8277436Y60505181D02*
X8277436Y61505181D01*
X8801246Y61505181D02*
X9467912Y60505181D01*
X9467912Y61505181D02*
X8801246Y60505181D01*
X43656779Y27365181D02*
X43656779Y28365181D01*
X43656779Y28365181D02*
X44228207Y27365181D01*
X44228207Y27365181D02*
X44228207Y28365181D01*
X45275826Y27460420D02*
X45228207Y27412800D01*
X45228207Y27412800D02*
X45085350Y27365181D01*
X45085350Y27365181D02*
X44990112Y27365181D01*
X44990112Y27365181D02*
X44847255Y27412800D01*
X44847255Y27412800D02*
X44752017Y27508039D01*
X44752017Y27508039D02*
X44704398Y27603277D01*
X44704398Y27603277D02*
X44656779Y27793753D01*
X44656779Y27793753D02*
X44656779Y27936610D01*
X44656779Y27936610D02*
X44704398Y28127086D01*
X44704398Y28127086D02*
X44752017Y28222324D01*
X44752017Y28222324D02*
X44847255Y28317562D01*
X44847255Y28317562D02*
X44990112Y28365181D01*
X44990112Y28365181D02*
X45085350Y28365181D01*
X45085350Y28365181D02*
X45228207Y28317562D01*
X45228207Y28317562D02*
X45275826Y28269943D01*
X43656779Y24965181D02*
X43656779Y25965181D01*
X43656779Y25965181D02*
X44228207Y24965181D01*
X44228207Y24965181D02*
X44228207Y25965181D01*
X45275826Y25060420D02*
X45228207Y25012800D01*
X45228207Y25012800D02*
X45085350Y24965181D01*
X45085350Y24965181D02*
X44990112Y24965181D01*
X44990112Y24965181D02*
X44847255Y25012800D01*
X44847255Y25012800D02*
X44752017Y25108039D01*
X44752017Y25108039D02*
X44704398Y25203277D01*
X44704398Y25203277D02*
X44656779Y25393753D01*
X44656779Y25393753D02*
X44656779Y25536610D01*
X44656779Y25536610D02*
X44704398Y25727086D01*
X44704398Y25727086D02*
X44752017Y25822324D01*
X44752017Y25822324D02*
X44847255Y25917562D01*
X44847255Y25917562D02*
X44990112Y25965181D01*
X44990112Y25965181D02*
X45085350Y25965181D01*
X45085350Y25965181D02*
X45228207Y25917562D01*
X45228207Y25917562D02*
X45275826Y25869943D01*
X43656779Y22365181D02*
X43656779Y23365181D01*
X43656779Y23365181D02*
X44228207Y22365181D01*
X44228207Y22365181D02*
X44228207Y23365181D01*
X45275826Y22460420D02*
X45228207Y22412800D01*
X45228207Y22412800D02*
X45085350Y22365181D01*
X45085350Y22365181D02*
X44990112Y22365181D01*
X44990112Y22365181D02*
X44847255Y22412800D01*
X44847255Y22412800D02*
X44752017Y22508039D01*
X44752017Y22508039D02*
X44704398Y22603277D01*
X44704398Y22603277D02*
X44656779Y22793753D01*
X44656779Y22793753D02*
X44656779Y22936610D01*
X44656779Y22936610D02*
X44704398Y23127086D01*
X44704398Y23127086D02*
X44752017Y23222324D01*
X44752017Y23222324D02*
X44847255Y23317562D01*
X44847255Y23317562D02*
X44990112Y23365181D01*
X44990112Y23365181D02*
X45085350Y23365181D01*
X45085350Y23365181D02*
X45228207Y23317562D01*
X45228207Y23317562D02*
X45275826Y23269943D01*
X43656779Y19965181D02*
X43656779Y20965181D01*
X43656779Y20965181D02*
X44228207Y19965181D01*
X44228207Y19965181D02*
X44228207Y20965181D01*
X45275826Y20060420D02*
X45228207Y20012800D01*
X45228207Y20012800D02*
X45085350Y19965181D01*
X45085350Y19965181D02*
X44990112Y19965181D01*
X44990112Y19965181D02*
X44847255Y20012800D01*
X44847255Y20012800D02*
X44752017Y20108039D01*
X44752017Y20108039D02*
X44704398Y20203277D01*
X44704398Y20203277D02*
X44656779Y20393753D01*
X44656779Y20393753D02*
X44656779Y20536610D01*
X44656779Y20536610D02*
X44704398Y20727086D01*
X44704398Y20727086D02*
X44752017Y20822324D01*
X44752017Y20822324D02*
X44847255Y20917562D01*
X44847255Y20917562D02*
X44990112Y20965181D01*
X44990112Y20965181D02*
X45085350Y20965181D01*
X45085350Y20965181D02*
X45228207Y20917562D01*
X45228207Y20917562D02*
X45275826Y20869943D01*
X43656779Y17265181D02*
X43656779Y18265181D01*
X43656779Y18265181D02*
X44228207Y17265181D01*
X44228207Y17265181D02*
X44228207Y18265181D01*
X45275826Y17360420D02*
X45228207Y17312800D01*
X45228207Y17312800D02*
X45085350Y17265181D01*
X45085350Y17265181D02*
X44990112Y17265181D01*
X44990112Y17265181D02*
X44847255Y17312800D01*
X44847255Y17312800D02*
X44752017Y17408039D01*
X44752017Y17408039D02*
X44704398Y17503277D01*
X44704398Y17503277D02*
X44656779Y17693753D01*
X44656779Y17693753D02*
X44656779Y17836610D01*
X44656779Y17836610D02*
X44704398Y18027086D01*
X44704398Y18027086D02*
X44752017Y18122324D01*
X44752017Y18122324D02*
X44847255Y18217562D01*
X44847255Y18217562D02*
X44990112Y18265181D01*
X44990112Y18265181D02*
X45085350Y18265181D01*
X45085350Y18265181D02*
X45228207Y18217562D01*
X45228207Y18217562D02*
X45275826Y18169943D01*
X43656779Y14565181D02*
X43656779Y15565181D01*
X43656779Y15565181D02*
X44228207Y14565181D01*
X44228207Y14565181D02*
X44228207Y15565181D01*
X45275826Y14660420D02*
X45228207Y14612800D01*
X45228207Y14612800D02*
X45085350Y14565181D01*
X45085350Y14565181D02*
X44990112Y14565181D01*
X44990112Y14565181D02*
X44847255Y14612800D01*
X44847255Y14612800D02*
X44752017Y14708039D01*
X44752017Y14708039D02*
X44704398Y14803277D01*
X44704398Y14803277D02*
X44656779Y14993753D01*
X44656779Y14993753D02*
X44656779Y15136610D01*
X44656779Y15136610D02*
X44704398Y15327086D01*
X44704398Y15327086D02*
X44752017Y15422324D01*
X44752017Y15422324D02*
X44847255Y15517562D01*
X44847255Y15517562D02*
X44990112Y15565181D01*
X44990112Y15565181D02*
X45085350Y15565181D01*
X45085350Y15565181D02*
X45228207Y15517562D01*
X45228207Y15517562D02*
X45275826Y15469943D01*
X43656779Y12065181D02*
X43656779Y13065181D01*
X43656779Y13065181D02*
X44228207Y12065181D01*
X44228207Y12065181D02*
X44228207Y13065181D01*
X45275826Y12160420D02*
X45228207Y12112800D01*
X45228207Y12112800D02*
X45085350Y12065181D01*
X45085350Y12065181D02*
X44990112Y12065181D01*
X44990112Y12065181D02*
X44847255Y12112800D01*
X44847255Y12112800D02*
X44752017Y12208039D01*
X44752017Y12208039D02*
X44704398Y12303277D01*
X44704398Y12303277D02*
X44656779Y12493753D01*
X44656779Y12493753D02*
X44656779Y12636610D01*
X44656779Y12636610D02*
X44704398Y12827086D01*
X44704398Y12827086D02*
X44752017Y12922324D01*
X44752017Y12922324D02*
X44847255Y13017562D01*
X44847255Y13017562D02*
X44990112Y13065181D01*
X44990112Y13065181D02*
X45085350Y13065181D01*
X45085350Y13065181D02*
X45228207Y13017562D01*
X45228207Y13017562D02*
X45275826Y12969943D01*
X7823696Y33505181D02*
X8395124Y33505181D01*
X8109410Y32505181D02*
X8109410Y33505181D01*
X8680839Y32790896D02*
X9157029Y32790896D01*
X8585601Y32505181D02*
X8918934Y33505181D01*
X8918934Y33505181D02*
X9252267Y32505181D01*
X10109410Y33457562D02*
X10014172Y33505181D01*
X10014172Y33505181D02*
X9871315Y33505181D01*
X9871315Y33505181D02*
X9728458Y33457562D01*
X9728458Y33457562D02*
X9633220Y33362324D01*
X9633220Y33362324D02*
X9585601Y33267086D01*
X9585601Y33267086D02*
X9537982Y33076610D01*
X9537982Y33076610D02*
X9537982Y32933753D01*
X9537982Y32933753D02*
X9585601Y32743277D01*
X9585601Y32743277D02*
X9633220Y32648039D01*
X9633220Y32648039D02*
X9728458Y32552800D01*
X9728458Y32552800D02*
X9871315Y32505181D01*
X9871315Y32505181D02*
X9966553Y32505181D01*
X9966553Y32505181D02*
X10109410Y32552800D01*
X10109410Y32552800D02*
X10157029Y32600420D01*
X10157029Y32600420D02*
X10157029Y32933753D01*
X10157029Y32933753D02*
X9966553Y32933753D01*
X10347506Y32409943D02*
X11109410Y32409943D01*
X11871315Y32505181D02*
X11299887Y32505181D01*
X11585601Y32505181D02*
X11585601Y33505181D01*
X11585601Y33505181D02*
X11490363Y33362324D01*
X11490363Y33362324D02*
X11395125Y33267086D01*
X11395125Y33267086D02*
X11299887Y33219467D01*
X12157030Y33505181D02*
X12490363Y32505181D01*
X12490363Y32505181D02*
X12823696Y33505181D01*
X13299887Y33076610D02*
X13204649Y33124229D01*
X13204649Y33124229D02*
X13157030Y33171848D01*
X13157030Y33171848D02*
X13109411Y33267086D01*
X13109411Y33267086D02*
X13109411Y33314705D01*
X13109411Y33314705D02*
X13157030Y33409943D01*
X13157030Y33409943D02*
X13204649Y33457562D01*
X13204649Y33457562D02*
X13299887Y33505181D01*
X13299887Y33505181D02*
X13490363Y33505181D01*
X13490363Y33505181D02*
X13585601Y33457562D01*
X13585601Y33457562D02*
X13633220Y33409943D01*
X13633220Y33409943D02*
X13680839Y33314705D01*
X13680839Y33314705D02*
X13680839Y33267086D01*
X13680839Y33267086D02*
X13633220Y33171848D01*
X13633220Y33171848D02*
X13585601Y33124229D01*
X13585601Y33124229D02*
X13490363Y33076610D01*
X13490363Y33076610D02*
X13299887Y33076610D01*
X13299887Y33076610D02*
X13204649Y33028991D01*
X13204649Y33028991D02*
X13157030Y32981372D01*
X13157030Y32981372D02*
X13109411Y32886134D01*
X13109411Y32886134D02*
X13109411Y32695658D01*
X13109411Y32695658D02*
X13157030Y32600420D01*
X13157030Y32600420D02*
X13204649Y32552800D01*
X13204649Y32552800D02*
X13299887Y32505181D01*
X13299887Y32505181D02*
X13490363Y32505181D01*
X13490363Y32505181D02*
X13585601Y32552800D01*
X13585601Y32552800D02*
X13633220Y32600420D01*
X13633220Y32600420D02*
X13680839Y32695658D01*
X13680839Y32695658D02*
X13680839Y32886134D01*
X13680839Y32886134D02*
X13633220Y32981372D01*
X13633220Y32981372D02*
X13585601Y33028991D01*
X13585601Y33028991D02*
X13490363Y33076610D01*
X42907030Y45205181D02*
X42907030Y46205181D01*
X42907030Y46205181D02*
X43287982Y46205181D01*
X43287982Y46205181D02*
X43383220Y46157562D01*
X43383220Y46157562D02*
X43430839Y46109943D01*
X43430839Y46109943D02*
X43478458Y46014705D01*
X43478458Y46014705D02*
X43478458Y45871848D01*
X43478458Y45871848D02*
X43430839Y45776610D01*
X43430839Y45776610D02*
X43383220Y45728991D01*
X43383220Y45728991D02*
X43287982Y45681372D01*
X43287982Y45681372D02*
X42907030Y45681372D01*
X44240363Y45728991D02*
X44383220Y45681372D01*
X44383220Y45681372D02*
X44430839Y45633753D01*
X44430839Y45633753D02*
X44478458Y45538515D01*
X44478458Y45538515D02*
X44478458Y45395658D01*
X44478458Y45395658D02*
X44430839Y45300420D01*
X44430839Y45300420D02*
X44383220Y45252800D01*
X44383220Y45252800D02*
X44287982Y45205181D01*
X44287982Y45205181D02*
X43907030Y45205181D01*
X43907030Y45205181D02*
X43907030Y46205181D01*
X43907030Y46205181D02*
X44240363Y46205181D01*
X44240363Y46205181D02*
X44335601Y46157562D01*
X44335601Y46157562D02*
X44383220Y46109943D01*
X44383220Y46109943D02*
X44430839Y46014705D01*
X44430839Y46014705D02*
X44430839Y45919467D01*
X44430839Y45919467D02*
X44383220Y45824229D01*
X44383220Y45824229D02*
X44335601Y45776610D01*
X44335601Y45776610D02*
X44240363Y45728991D01*
X44240363Y45728991D02*
X43907030Y45728991D01*
X44811792Y46205181D02*
X45430839Y46205181D01*
X45430839Y46205181D02*
X45097506Y45824229D01*
X45097506Y45824229D02*
X45240363Y45824229D01*
X45240363Y45824229D02*
X45335601Y45776610D01*
X45335601Y45776610D02*
X45383220Y45728991D01*
X45383220Y45728991D02*
X45430839Y45633753D01*
X45430839Y45633753D02*
X45430839Y45395658D01*
X45430839Y45395658D02*
X45383220Y45300420D01*
X45383220Y45300420D02*
X45335601Y45252800D01*
X45335601Y45252800D02*
X45240363Y45205181D01*
X45240363Y45205181D02*
X44954649Y45205181D01*
X44954649Y45205181D02*
X44859411Y45252800D01*
X44859411Y45252800D02*
X44811792Y45300420D01*
X42097506Y42665181D02*
X42097506Y43665181D01*
X42097506Y43665181D02*
X42478458Y43665181D01*
X42478458Y43665181D02*
X42573696Y43617562D01*
X42573696Y43617562D02*
X42621315Y43569943D01*
X42621315Y43569943D02*
X42668934Y43474705D01*
X42668934Y43474705D02*
X42668934Y43331848D01*
X42668934Y43331848D02*
X42621315Y43236610D01*
X42621315Y43236610D02*
X42573696Y43188991D01*
X42573696Y43188991D02*
X42478458Y43141372D01*
X42478458Y43141372D02*
X42097506Y43141372D01*
X43049887Y42950896D02*
X43526077Y42950896D01*
X42954649Y42665181D02*
X43287982Y43665181D01*
X43287982Y43665181D02*
X43621315Y42665181D01*
X44478458Y42665181D02*
X43907030Y42665181D01*
X44192744Y42665181D02*
X44192744Y43665181D01*
X44192744Y43665181D02*
X44097506Y43522324D01*
X44097506Y43522324D02*
X44002268Y43427086D01*
X44002268Y43427086D02*
X43907030Y43379467D01*
X45383220Y43665181D02*
X44907030Y43665181D01*
X44907030Y43665181D02*
X44859411Y43188991D01*
X44859411Y43188991D02*
X44907030Y43236610D01*
X44907030Y43236610D02*
X45002268Y43284229D01*
X45002268Y43284229D02*
X45240363Y43284229D01*
X45240363Y43284229D02*
X45335601Y43236610D01*
X45335601Y43236610D02*
X45383220Y43188991D01*
X45383220Y43188991D02*
X45430839Y43093753D01*
X45430839Y43093753D02*
X45430839Y42855658D01*
X45430839Y42855658D02*
X45383220Y42760420D01*
X45383220Y42760420D02*
X45335601Y42712800D01*
X45335601Y42712800D02*
X45240363Y42665181D01*
X45240363Y42665181D02*
X45002268Y42665181D01*
X45002268Y42665181D02*
X44907030Y42712800D01*
X44907030Y42712800D02*
X44859411Y42760420D01*
X42097506Y40125181D02*
X42097506Y41125181D01*
X42097506Y41125181D02*
X42478458Y41125181D01*
X42478458Y41125181D02*
X42573696Y41077562D01*
X42573696Y41077562D02*
X42621315Y41029943D01*
X42621315Y41029943D02*
X42668934Y40934705D01*
X42668934Y40934705D02*
X42668934Y40791848D01*
X42668934Y40791848D02*
X42621315Y40696610D01*
X42621315Y40696610D02*
X42573696Y40648991D01*
X42573696Y40648991D02*
X42478458Y40601372D01*
X42478458Y40601372D02*
X42097506Y40601372D01*
X43049887Y40410896D02*
X43526077Y40410896D01*
X42954649Y40125181D02*
X43287982Y41125181D01*
X43287982Y41125181D02*
X43621315Y40125181D01*
X44478458Y40125181D02*
X43907030Y40125181D01*
X44192744Y40125181D02*
X44192744Y41125181D01*
X44192744Y41125181D02*
X44097506Y40982324D01*
X44097506Y40982324D02*
X44002268Y40887086D01*
X44002268Y40887086D02*
X43907030Y40839467D01*
X44859411Y41029943D02*
X44907030Y41077562D01*
X44907030Y41077562D02*
X45002268Y41125181D01*
X45002268Y41125181D02*
X45240363Y41125181D01*
X45240363Y41125181D02*
X45335601Y41077562D01*
X45335601Y41077562D02*
X45383220Y41029943D01*
X45383220Y41029943D02*
X45430839Y40934705D01*
X45430839Y40934705D02*
X45430839Y40839467D01*
X45430839Y40839467D02*
X45383220Y40696610D01*
X45383220Y40696610D02*
X44811792Y40125181D01*
X44811792Y40125181D02*
X45430839Y40125181D01*
X42097506Y37585181D02*
X42097506Y38585181D01*
X42097506Y38585181D02*
X42478458Y38585181D01*
X42478458Y38585181D02*
X42573696Y38537562D01*
X42573696Y38537562D02*
X42621315Y38489943D01*
X42621315Y38489943D02*
X42668934Y38394705D01*
X42668934Y38394705D02*
X42668934Y38251848D01*
X42668934Y38251848D02*
X42621315Y38156610D01*
X42621315Y38156610D02*
X42573696Y38108991D01*
X42573696Y38108991D02*
X42478458Y38061372D01*
X42478458Y38061372D02*
X42097506Y38061372D01*
X43049887Y37870896D02*
X43526077Y37870896D01*
X42954649Y37585181D02*
X43287982Y38585181D01*
X43287982Y38585181D02*
X43621315Y37585181D01*
X44478458Y37585181D02*
X43907030Y37585181D01*
X44192744Y37585181D02*
X44192744Y38585181D01*
X44192744Y38585181D02*
X44097506Y38442324D01*
X44097506Y38442324D02*
X44002268Y38347086D01*
X44002268Y38347086D02*
X43907030Y38299467D01*
X45430839Y37585181D02*
X44859411Y37585181D01*
X45145125Y37585181D02*
X45145125Y38585181D01*
X45145125Y38585181D02*
X45049887Y38442324D01*
X45049887Y38442324D02*
X44954649Y38347086D01*
X44954649Y38347086D02*
X44859411Y38299467D01*
X42097506Y35045181D02*
X42097506Y36045181D01*
X42097506Y36045181D02*
X42478458Y36045181D01*
X42478458Y36045181D02*
X42573696Y35997562D01*
X42573696Y35997562D02*
X42621315Y35949943D01*
X42621315Y35949943D02*
X42668934Y35854705D01*
X42668934Y35854705D02*
X42668934Y35711848D01*
X42668934Y35711848D02*
X42621315Y35616610D01*
X42621315Y35616610D02*
X42573696Y35568991D01*
X42573696Y35568991D02*
X42478458Y35521372D01*
X42478458Y35521372D02*
X42097506Y35521372D01*
X43049887Y35330896D02*
X43526077Y35330896D01*
X42954649Y35045181D02*
X43287982Y36045181D01*
X43287982Y36045181D02*
X43621315Y35045181D01*
X44478458Y35045181D02*
X43907030Y35045181D01*
X44192744Y35045181D02*
X44192744Y36045181D01*
X44192744Y36045181D02*
X44097506Y35902324D01*
X44097506Y35902324D02*
X44002268Y35807086D01*
X44002268Y35807086D02*
X43907030Y35759467D01*
X45097506Y36045181D02*
X45192744Y36045181D01*
X45192744Y36045181D02*
X45287982Y35997562D01*
X45287982Y35997562D02*
X45335601Y35949943D01*
X45335601Y35949943D02*
X45383220Y35854705D01*
X45383220Y35854705D02*
X45430839Y35664229D01*
X45430839Y35664229D02*
X45430839Y35426134D01*
X45430839Y35426134D02*
X45383220Y35235658D01*
X45383220Y35235658D02*
X45335601Y35140420D01*
X45335601Y35140420D02*
X45287982Y35092800D01*
X45287982Y35092800D02*
X45192744Y35045181D01*
X45192744Y35045181D02*
X45097506Y35045181D01*
X45097506Y35045181D02*
X45002268Y35092800D01*
X45002268Y35092800D02*
X44954649Y35140420D01*
X44954649Y35140420D02*
X44907030Y35235658D01*
X44907030Y35235658D02*
X44859411Y35426134D01*
X44859411Y35426134D02*
X44859411Y35664229D01*
X44859411Y35664229D02*
X44907030Y35854705D01*
X44907030Y35854705D02*
X44954649Y35949943D01*
X44954649Y35949943D02*
X45002268Y35997562D01*
X45002268Y35997562D02*
X45097506Y36045181D01*
X43049887Y32505181D02*
X43049887Y33505181D01*
X43049887Y33505181D02*
X43430839Y33505181D01*
X43430839Y33505181D02*
X43526077Y33457562D01*
X43526077Y33457562D02*
X43573696Y33409943D01*
X43573696Y33409943D02*
X43621315Y33314705D01*
X43621315Y33314705D02*
X43621315Y33171848D01*
X43621315Y33171848D02*
X43573696Y33076610D01*
X43573696Y33076610D02*
X43526077Y33028991D01*
X43526077Y33028991D02*
X43430839Y32981372D01*
X43430839Y32981372D02*
X43049887Y32981372D01*
X44002268Y32790896D02*
X44478458Y32790896D01*
X43907030Y32505181D02*
X44240363Y33505181D01*
X44240363Y33505181D02*
X44573696Y32505181D01*
X44954649Y32505181D02*
X45145125Y32505181D01*
X45145125Y32505181D02*
X45240363Y32552800D01*
X45240363Y32552800D02*
X45287982Y32600420D01*
X45287982Y32600420D02*
X45383220Y32743277D01*
X45383220Y32743277D02*
X45430839Y32933753D01*
X45430839Y32933753D02*
X45430839Y33314705D01*
X45430839Y33314705D02*
X45383220Y33409943D01*
X45383220Y33409943D02*
X45335601Y33457562D01*
X45335601Y33457562D02*
X45240363Y33505181D01*
X45240363Y33505181D02*
X45049887Y33505181D01*
X45049887Y33505181D02*
X44954649Y33457562D01*
X44954649Y33457562D02*
X44907030Y33409943D01*
X44907030Y33409943D02*
X44859411Y33314705D01*
X44859411Y33314705D02*
X44859411Y33076610D01*
X44859411Y33076610D02*
X44907030Y32981372D01*
X44907030Y32981372D02*
X44954649Y32933753D01*
X44954649Y32933753D02*
X45049887Y32886134D01*
X45049887Y32886134D02*
X45240363Y32886134D01*
X45240363Y32886134D02*
X45335601Y32933753D01*
X45335601Y32933753D02*
X45383220Y32981372D01*
X45383220Y32981372D02*
X45430839Y33076610D01*
X43049887Y29965181D02*
X43049887Y30965181D01*
X43049887Y30965181D02*
X43430839Y30965181D01*
X43430839Y30965181D02*
X43526077Y30917562D01*
X43526077Y30917562D02*
X43573696Y30869943D01*
X43573696Y30869943D02*
X43621315Y30774705D01*
X43621315Y30774705D02*
X43621315Y30631848D01*
X43621315Y30631848D02*
X43573696Y30536610D01*
X43573696Y30536610D02*
X43526077Y30488991D01*
X43526077Y30488991D02*
X43430839Y30441372D01*
X43430839Y30441372D02*
X43049887Y30441372D01*
X44002268Y30250896D02*
X44478458Y30250896D01*
X43907030Y29965181D02*
X44240363Y30965181D01*
X44240363Y30965181D02*
X44573696Y29965181D01*
X45049887Y30536610D02*
X44954649Y30584229D01*
X44954649Y30584229D02*
X44907030Y30631848D01*
X44907030Y30631848D02*
X44859411Y30727086D01*
X44859411Y30727086D02*
X44859411Y30774705D01*
X44859411Y30774705D02*
X44907030Y30869943D01*
X44907030Y30869943D02*
X44954649Y30917562D01*
X44954649Y30917562D02*
X45049887Y30965181D01*
X45049887Y30965181D02*
X45240363Y30965181D01*
X45240363Y30965181D02*
X45335601Y30917562D01*
X45335601Y30917562D02*
X45383220Y30869943D01*
X45383220Y30869943D02*
X45430839Y30774705D01*
X45430839Y30774705D02*
X45430839Y30727086D01*
X45430839Y30727086D02*
X45383220Y30631848D01*
X45383220Y30631848D02*
X45335601Y30584229D01*
X45335601Y30584229D02*
X45240363Y30536610D01*
X45240363Y30536610D02*
X45049887Y30536610D01*
X45049887Y30536610D02*
X44954649Y30488991D01*
X44954649Y30488991D02*
X44907030Y30441372D01*
X44907030Y30441372D02*
X44859411Y30346134D01*
X44859411Y30346134D02*
X44859411Y30155658D01*
X44859411Y30155658D02*
X44907030Y30060420D01*
X44907030Y30060420D02*
X44954649Y30012800D01*
X44954649Y30012800D02*
X45049887Y29965181D01*
X45049887Y29965181D02*
X45240363Y29965181D01*
X45240363Y29965181D02*
X45335601Y30012800D01*
X45335601Y30012800D02*
X45383220Y30060420D01*
X45383220Y30060420D02*
X45430839Y30155658D01*
X45430839Y30155658D02*
X45430839Y30346134D01*
X45430839Y30346134D02*
X45383220Y30441372D01*
X45383220Y30441372D02*
X45335601Y30488991D01*
X45335601Y30488991D02*
X45240363Y30536610D01*
X42907030Y9645181D02*
X42907030Y10645181D01*
X42907030Y10645181D02*
X43287982Y10645181D01*
X43287982Y10645181D02*
X43383220Y10597562D01*
X43383220Y10597562D02*
X43430839Y10549943D01*
X43430839Y10549943D02*
X43478458Y10454705D01*
X43478458Y10454705D02*
X43478458Y10311848D01*
X43478458Y10311848D02*
X43430839Y10216610D01*
X43430839Y10216610D02*
X43383220Y10168991D01*
X43383220Y10168991D02*
X43287982Y10121372D01*
X43287982Y10121372D02*
X42907030Y10121372D01*
X44240363Y10168991D02*
X44383220Y10121372D01*
X44383220Y10121372D02*
X44430839Y10073753D01*
X44430839Y10073753D02*
X44478458Y9978515D01*
X44478458Y9978515D02*
X44478458Y9835658D01*
X44478458Y9835658D02*
X44430839Y9740420D01*
X44430839Y9740420D02*
X44383220Y9692800D01*
X44383220Y9692800D02*
X44287982Y9645181D01*
X44287982Y9645181D02*
X43907030Y9645181D01*
X43907030Y9645181D02*
X43907030Y10645181D01*
X43907030Y10645181D02*
X44240363Y10645181D01*
X44240363Y10645181D02*
X44335601Y10597562D01*
X44335601Y10597562D02*
X44383220Y10549943D01*
X44383220Y10549943D02*
X44430839Y10454705D01*
X44430839Y10454705D02*
X44430839Y10359467D01*
X44430839Y10359467D02*
X44383220Y10264229D01*
X44383220Y10264229D02*
X44335601Y10216610D01*
X44335601Y10216610D02*
X44240363Y10168991D01*
X44240363Y10168991D02*
X43907030Y10168991D01*
X45430839Y9645181D02*
X44859411Y9645181D01*
X45145125Y9645181D02*
X45145125Y10645181D01*
X45145125Y10645181D02*
X45049887Y10502324D01*
X45049887Y10502324D02*
X44954649Y10407086D01*
X44954649Y10407086D02*
X44859411Y10359467D01*
X43335601Y8057562D02*
X43240363Y8105181D01*
X43240363Y8105181D02*
X43097506Y8105181D01*
X43097506Y8105181D02*
X42954649Y8057562D01*
X42954649Y8057562D02*
X42859411Y7962324D01*
X42859411Y7962324D02*
X42811792Y7867086D01*
X42811792Y7867086D02*
X42764173Y7676610D01*
X42764173Y7676610D02*
X42764173Y7533753D01*
X42764173Y7533753D02*
X42811792Y7343277D01*
X42811792Y7343277D02*
X42859411Y7248039D01*
X42859411Y7248039D02*
X42954649Y7152800D01*
X42954649Y7152800D02*
X43097506Y7105181D01*
X43097506Y7105181D02*
X43192744Y7105181D01*
X43192744Y7105181D02*
X43335601Y7152800D01*
X43335601Y7152800D02*
X43383220Y7200420D01*
X43383220Y7200420D02*
X43383220Y7533753D01*
X43383220Y7533753D02*
X43192744Y7533753D01*
X43811792Y7105181D02*
X43811792Y8105181D01*
X43811792Y8105181D02*
X44383220Y7105181D01*
X44383220Y7105181D02*
X44383220Y8105181D01*
X44859411Y7105181D02*
X44859411Y8105181D01*
X44859411Y8105181D02*
X45097506Y8105181D01*
X45097506Y8105181D02*
X45240363Y8057562D01*
X45240363Y8057562D02*
X45335601Y7962324D01*
X45335601Y7962324D02*
X45383220Y7867086D01*
X45383220Y7867086D02*
X45430839Y7676610D01*
X45430839Y7676610D02*
X45430839Y7533753D01*
X45430839Y7533753D02*
X45383220Y7343277D01*
X45383220Y7343277D02*
X45335601Y7248039D01*
X45335601Y7248039D02*
X45240363Y7152800D01*
X45240363Y7152800D02*
X45097506Y7105181D01*
X45097506Y7105181D02*
X44859411Y7105181D01*
X43818153Y47906781D02*
X43246725Y47906781D01*
X43532439Y47906781D02*
X43532439Y48906781D01*
X43532439Y48906781D02*
X43437201Y48763924D01*
X43437201Y48763924D02*
X43341963Y48668686D01*
X43341963Y48668686D02*
X43246725Y48621067D01*
X44151487Y48573448D02*
X44389582Y47906781D01*
X44389582Y47906781D02*
X44627677Y48573448D01*
X45151487Y48478210D02*
X45056249Y48525829D01*
X45056249Y48525829D02*
X45008630Y48573448D01*
X45008630Y48573448D02*
X44961011Y48668686D01*
X44961011Y48668686D02*
X44961011Y48716305D01*
X44961011Y48716305D02*
X45008630Y48811543D01*
X45008630Y48811543D02*
X45056249Y48859162D01*
X45056249Y48859162D02*
X45151487Y48906781D01*
X45151487Y48906781D02*
X45341963Y48906781D01*
X45341963Y48906781D02*
X45437201Y48859162D01*
X45437201Y48859162D02*
X45484820Y48811543D01*
X45484820Y48811543D02*
X45532439Y48716305D01*
X45532439Y48716305D02*
X45532439Y48668686D01*
X45532439Y48668686D02*
X45484820Y48573448D01*
X45484820Y48573448D02*
X45437201Y48525829D01*
X45437201Y48525829D02*
X45341963Y48478210D01*
X45341963Y48478210D02*
X45151487Y48478210D01*
X45151487Y48478210D02*
X45056249Y48430591D01*
X45056249Y48430591D02*
X45008630Y48382972D01*
X45008630Y48382972D02*
X44961011Y48287734D01*
X44961011Y48287734D02*
X44961011Y48097258D01*
X44961011Y48097258D02*
X45008630Y48002020D01*
X45008630Y48002020D02*
X45056249Y47954400D01*
X45056249Y47954400D02*
X45151487Y47906781D01*
X45151487Y47906781D02*
X45341963Y47906781D01*
X45341963Y47906781D02*
X45437201Y47954400D01*
X45437201Y47954400D02*
X45484820Y48002020D01*
X45484820Y48002020D02*
X45532439Y48097258D01*
X45532439Y48097258D02*
X45532439Y48287734D01*
X45532439Y48287734D02*
X45484820Y48382972D01*
X45484820Y48382972D02*
X45437201Y48430591D01*
X45437201Y48430591D02*
X45341963Y48478210D01*
D11*
X7685714Y62247781D02*
X7685714Y63247781D01*
X7685714Y63247781D02*
X7923809Y63247781D01*
X7923809Y63247781D02*
X8066666Y63200162D01*
X8066666Y63200162D02*
X8161904Y63104924D01*
X8161904Y63104924D02*
X8209523Y63009686D01*
X8209523Y63009686D02*
X8257142Y62819210D01*
X8257142Y62819210D02*
X8257142Y62676353D01*
X8257142Y62676353D02*
X8209523Y62485877D01*
X8209523Y62485877D02*
X8161904Y62390639D01*
X8161904Y62390639D02*
X8066666Y62295400D01*
X8066666Y62295400D02*
X7923809Y62247781D01*
X7923809Y62247781D02*
X7685714Y62247781D01*
X9019047Y62771591D02*
X8685714Y62771591D01*
X8685714Y62247781D02*
X8685714Y63247781D01*
X8685714Y63247781D02*
X9161904Y63247781D01*
X9542857Y63247781D02*
X9542857Y62438258D01*
X9542857Y62438258D02*
X9590476Y62343020D01*
X9590476Y62343020D02*
X9638095Y62295400D01*
X9638095Y62295400D02*
X9733333Y62247781D01*
X9733333Y62247781D02*
X9923809Y62247781D01*
X9923809Y62247781D02*
X10019047Y62295400D01*
X10019047Y62295400D02*
X10066666Y62343020D01*
X10066666Y62343020D02*
X10114285Y62438258D01*
X10114285Y62438258D02*
X10114285Y63247781D01*
D12*
X5506372Y2875986D02*
X5720658Y2804558D01*
X5720658Y2804558D02*
X5792087Y2733129D01*
X5792087Y2733129D02*
X5863515Y2590272D01*
X5863515Y2590272D02*
X5863515Y2375986D01*
X5863515Y2375986D02*
X5792087Y2233129D01*
X5792087Y2233129D02*
X5720658Y2161700D01*
X5720658Y2161700D02*
X5577801Y2090272D01*
X5577801Y2090272D02*
X5006372Y2090272D01*
X5006372Y2090272D02*
X5006372Y3590272D01*
X5006372Y3590272D02*
X5506372Y3590272D01*
X5506372Y3590272D02*
X5649230Y3518843D01*
X5649230Y3518843D02*
X5720658Y3447415D01*
X5720658Y3447415D02*
X5792087Y3304558D01*
X5792087Y3304558D02*
X5792087Y3161700D01*
X5792087Y3161700D02*
X5720658Y3018843D01*
X5720658Y3018843D02*
X5649230Y2947415D01*
X5649230Y2947415D02*
X5506372Y2875986D01*
X5506372Y2875986D02*
X5006372Y2875986D01*
X6506372Y2090272D02*
X6506372Y3090272D01*
X6506372Y3590272D02*
X6434944Y3518843D01*
X6434944Y3518843D02*
X6506372Y3447415D01*
X6506372Y3447415D02*
X6577801Y3518843D01*
X6577801Y3518843D02*
X6506372Y3590272D01*
X6506372Y3590272D02*
X6506372Y3447415D01*
X7006373Y3090272D02*
X7577801Y3090272D01*
X7220658Y3590272D02*
X7220658Y2304558D01*
X7220658Y2304558D02*
X7292087Y2161700D01*
X7292087Y2161700D02*
X7434944Y2090272D01*
X7434944Y2090272D02*
X7577801Y2090272D01*
X7863516Y3590272D02*
X8720659Y3590272D01*
X8292087Y2090272D02*
X8292087Y3590272D01*
X9863516Y2090272D02*
X9863516Y2875986D01*
X9863516Y2875986D02*
X9792087Y3018843D01*
X9792087Y3018843D02*
X9649230Y3090272D01*
X9649230Y3090272D02*
X9363516Y3090272D01*
X9363516Y3090272D02*
X9220658Y3018843D01*
X9863516Y2161700D02*
X9720658Y2090272D01*
X9720658Y2090272D02*
X9363516Y2090272D01*
X9363516Y2090272D02*
X9220658Y2161700D01*
X9220658Y2161700D02*
X9149230Y2304558D01*
X9149230Y2304558D02*
X9149230Y2447415D01*
X9149230Y2447415D02*
X9220658Y2590272D01*
X9220658Y2590272D02*
X9363516Y2661700D01*
X9363516Y2661700D02*
X9720658Y2661700D01*
X9720658Y2661700D02*
X9863516Y2733129D01*
X11220659Y3090272D02*
X11220659Y1875986D01*
X11220659Y1875986D02*
X11149230Y1733129D01*
X11149230Y1733129D02*
X11077801Y1661700D01*
X11077801Y1661700D02*
X10934944Y1590272D01*
X10934944Y1590272D02*
X10720659Y1590272D01*
X10720659Y1590272D02*
X10577801Y1661700D01*
X11220659Y2161700D02*
X11077801Y2090272D01*
X11077801Y2090272D02*
X10792087Y2090272D01*
X10792087Y2090272D02*
X10649230Y2161700D01*
X10649230Y2161700D02*
X10577801Y2233129D01*
X10577801Y2233129D02*
X10506373Y2375986D01*
X10506373Y2375986D02*
X10506373Y2804558D01*
X10506373Y2804558D02*
X10577801Y2947415D01*
X10577801Y2947415D02*
X10649230Y3018843D01*
X10649230Y3018843D02*
X10792087Y3090272D01*
X10792087Y3090272D02*
X11077801Y3090272D01*
X11077801Y3090272D02*
X11220659Y3018843D01*
X13577801Y2875986D02*
X13792087Y2804558D01*
X13792087Y2804558D02*
X13863516Y2733129D01*
X13863516Y2733129D02*
X13934944Y2590272D01*
X13934944Y2590272D02*
X13934944Y2375986D01*
X13934944Y2375986D02*
X13863516Y2233129D01*
X13863516Y2233129D02*
X13792087Y2161700D01*
X13792087Y2161700D02*
X13649230Y2090272D01*
X13649230Y2090272D02*
X13077801Y2090272D01*
X13077801Y2090272D02*
X13077801Y3590272D01*
X13077801Y3590272D02*
X13577801Y3590272D01*
X13577801Y3590272D02*
X13720659Y3518843D01*
X13720659Y3518843D02*
X13792087Y3447415D01*
X13792087Y3447415D02*
X13863516Y3304558D01*
X13863516Y3304558D02*
X13863516Y3161700D01*
X13863516Y3161700D02*
X13792087Y3018843D01*
X13792087Y3018843D02*
X13720659Y2947415D01*
X13720659Y2947415D02*
X13577801Y2875986D01*
X13577801Y2875986D02*
X13077801Y2875986D01*
X14577801Y2090272D02*
X14577801Y3090272D01*
X14577801Y2804558D02*
X14649230Y2947415D01*
X14649230Y2947415D02*
X14720659Y3018843D01*
X14720659Y3018843D02*
X14863516Y3090272D01*
X14863516Y3090272D02*
X15006373Y3090272D01*
X16077801Y2161700D02*
X15934944Y2090272D01*
X15934944Y2090272D02*
X15649230Y2090272D01*
X15649230Y2090272D02*
X15506372Y2161700D01*
X15506372Y2161700D02*
X15434944Y2304558D01*
X15434944Y2304558D02*
X15434944Y2875986D01*
X15434944Y2875986D02*
X15506372Y3018843D01*
X15506372Y3018843D02*
X15649230Y3090272D01*
X15649230Y3090272D02*
X15934944Y3090272D01*
X15934944Y3090272D02*
X16077801Y3018843D01*
X16077801Y3018843D02*
X16149230Y2875986D01*
X16149230Y2875986D02*
X16149230Y2733129D01*
X16149230Y2733129D02*
X15434944Y2590272D01*
X17434944Y2090272D02*
X17434944Y2875986D01*
X17434944Y2875986D02*
X17363515Y3018843D01*
X17363515Y3018843D02*
X17220658Y3090272D01*
X17220658Y3090272D02*
X16934944Y3090272D01*
X16934944Y3090272D02*
X16792086Y3018843D01*
X17434944Y2161700D02*
X17292086Y2090272D01*
X17292086Y2090272D02*
X16934944Y2090272D01*
X16934944Y2090272D02*
X16792086Y2161700D01*
X16792086Y2161700D02*
X16720658Y2304558D01*
X16720658Y2304558D02*
X16720658Y2447415D01*
X16720658Y2447415D02*
X16792086Y2590272D01*
X16792086Y2590272D02*
X16934944Y2661700D01*
X16934944Y2661700D02*
X17292086Y2661700D01*
X17292086Y2661700D02*
X17434944Y2733129D01*
X18149229Y2090272D02*
X18149229Y3590272D01*
X18292087Y2661700D02*
X18720658Y2090272D01*
X18720658Y3090272D02*
X18149229Y2518843D01*
X19577801Y2090272D02*
X19434944Y2161700D01*
X19434944Y2161700D02*
X19363515Y2233129D01*
X19363515Y2233129D02*
X19292087Y2375986D01*
X19292087Y2375986D02*
X19292087Y2804558D01*
X19292087Y2804558D02*
X19363515Y2947415D01*
X19363515Y2947415D02*
X19434944Y3018843D01*
X19434944Y3018843D02*
X19577801Y3090272D01*
X19577801Y3090272D02*
X19792087Y3090272D01*
X19792087Y3090272D02*
X19934944Y3018843D01*
X19934944Y3018843D02*
X20006373Y2947415D01*
X20006373Y2947415D02*
X20077801Y2804558D01*
X20077801Y2804558D02*
X20077801Y2375986D01*
X20077801Y2375986D02*
X20006373Y2233129D01*
X20006373Y2233129D02*
X19934944Y2161700D01*
X19934944Y2161700D02*
X19792087Y2090272D01*
X19792087Y2090272D02*
X19577801Y2090272D01*
X21363516Y3090272D02*
X21363516Y2090272D01*
X20720658Y3090272D02*
X20720658Y2304558D01*
X20720658Y2304558D02*
X20792087Y2161700D01*
X20792087Y2161700D02*
X20934944Y2090272D01*
X20934944Y2090272D02*
X21149230Y2090272D01*
X21149230Y2090272D02*
X21292087Y2161700D01*
X21292087Y2161700D02*
X21363516Y2233129D01*
X21863516Y3090272D02*
X22434944Y3090272D01*
X22077801Y3590272D02*
X22077801Y2304558D01*
X22077801Y2304558D02*
X22149230Y2161700D01*
X22149230Y2161700D02*
X22292087Y2090272D01*
X22292087Y2090272D02*
X22434944Y2090272D01*
X24792087Y2090272D02*
X24077801Y2090272D01*
X24077801Y2090272D02*
X24077801Y3590272D01*
X25934945Y3090272D02*
X25934945Y2090272D01*
X25577802Y3661700D02*
X25220659Y2590272D01*
X25220659Y2590272D02*
X26149230Y2590272D01*
X26577801Y3590272D02*
X27506373Y3590272D01*
X27506373Y3590272D02*
X27006373Y3018843D01*
X27006373Y3018843D02*
X27220658Y3018843D01*
X27220658Y3018843D02*
X27363516Y2947415D01*
X27363516Y2947415D02*
X27434944Y2875986D01*
X27434944Y2875986D02*
X27506373Y2733129D01*
X27506373Y2733129D02*
X27506373Y2375986D01*
X27506373Y2375986D02*
X27434944Y2233129D01*
X27434944Y2233129D02*
X27363516Y2161700D01*
X27363516Y2161700D02*
X27220658Y2090272D01*
X27220658Y2090272D02*
X26792087Y2090272D01*
X26792087Y2090272D02*
X26649230Y2161700D01*
X26649230Y2161700D02*
X26577801Y2233129D01*
X28077801Y3447415D02*
X28149229Y3518843D01*
X28149229Y3518843D02*
X28292087Y3590272D01*
X28292087Y3590272D02*
X28649229Y3590272D01*
X28649229Y3590272D02*
X28792087Y3518843D01*
X28792087Y3518843D02*
X28863515Y3447415D01*
X28863515Y3447415D02*
X28934944Y3304558D01*
X28934944Y3304558D02*
X28934944Y3161700D01*
X28934944Y3161700D02*
X28863515Y2947415D01*
X28863515Y2947415D02*
X28006372Y2090272D01*
X28006372Y2090272D02*
X28934944Y2090272D01*
X30649229Y3661700D02*
X29363515Y1733129D01*
X31149229Y3590272D02*
X31149229Y2375986D01*
X31149229Y2375986D02*
X31220658Y2233129D01*
X31220658Y2233129D02*
X31292087Y2161700D01*
X31292087Y2161700D02*
X31434944Y2090272D01*
X31434944Y2090272D02*
X31720658Y2090272D01*
X31720658Y2090272D02*
X31863515Y2161700D01*
X31863515Y2161700D02*
X31934944Y2233129D01*
X31934944Y2233129D02*
X32006372Y2375986D01*
X32006372Y2375986D02*
X32006372Y3590272D01*
X32577801Y3590272D02*
X33506373Y3590272D01*
X33506373Y3590272D02*
X33006373Y3018843D01*
X33006373Y3018843D02*
X33220658Y3018843D01*
X33220658Y3018843D02*
X33363516Y2947415D01*
X33363516Y2947415D02*
X33434944Y2875986D01*
X33434944Y2875986D02*
X33506373Y2733129D01*
X33506373Y2733129D02*
X33506373Y2375986D01*
X33506373Y2375986D02*
X33434944Y2233129D01*
X33434944Y2233129D02*
X33363516Y2161700D01*
X33363516Y2161700D02*
X33220658Y2090272D01*
X33220658Y2090272D02*
X32792087Y2090272D01*
X32792087Y2090272D02*
X32649230Y2161700D01*
X32649230Y2161700D02*
X32577801Y2233129D01*
X34006372Y3590272D02*
X35006372Y3590272D01*
X35006372Y3590272D02*
X34363515Y2090272D01*
X36292086Y3590272D02*
X35577800Y3590272D01*
X35577800Y3590272D02*
X35506372Y2875986D01*
X35506372Y2875986D02*
X35577800Y2947415D01*
X35577800Y2947415D02*
X35720658Y3018843D01*
X35720658Y3018843D02*
X36077800Y3018843D01*
X36077800Y3018843D02*
X36220658Y2947415D01*
X36220658Y2947415D02*
X36292086Y2875986D01*
X36292086Y2875986D02*
X36363515Y2733129D01*
X36363515Y2733129D02*
X36363515Y2375986D01*
X36363515Y2375986D02*
X36292086Y2233129D01*
X36292086Y2233129D02*
X36220658Y2161700D01*
X36220658Y2161700D02*
X36077800Y2090272D01*
X36077800Y2090272D02*
X35720658Y2090272D01*
X35720658Y2090272D02*
X35577800Y2161700D01*
X35577800Y2161700D02*
X35506372Y2233129D01*
X38934943Y2090272D02*
X38077800Y2090272D01*
X38506371Y2090272D02*
X38506371Y3590272D01*
X38506371Y3590272D02*
X38363514Y3375986D01*
X38363514Y3375986D02*
X38220657Y3233129D01*
X38220657Y3233129D02*
X38077800Y3161700D01*
X39577799Y2233129D02*
X39649228Y2161700D01*
X39649228Y2161700D02*
X39577799Y2090272D01*
X39577799Y2090272D02*
X39506371Y2161700D01*
X39506371Y2161700D02*
X39577799Y2233129D01*
X39577799Y2233129D02*
X39577799Y2090272D01*
X40506371Y2947415D02*
X40363514Y3018843D01*
X40363514Y3018843D02*
X40292085Y3090272D01*
X40292085Y3090272D02*
X40220657Y3233129D01*
X40220657Y3233129D02*
X40220657Y3304558D01*
X40220657Y3304558D02*
X40292085Y3447415D01*
X40292085Y3447415D02*
X40363514Y3518843D01*
X40363514Y3518843D02*
X40506371Y3590272D01*
X40506371Y3590272D02*
X40792085Y3590272D01*
X40792085Y3590272D02*
X40934943Y3518843D01*
X40934943Y3518843D02*
X41006371Y3447415D01*
X41006371Y3447415D02*
X41077800Y3304558D01*
X41077800Y3304558D02*
X41077800Y3233129D01*
X41077800Y3233129D02*
X41006371Y3090272D01*
X41006371Y3090272D02*
X40934943Y3018843D01*
X40934943Y3018843D02*
X40792085Y2947415D01*
X40792085Y2947415D02*
X40506371Y2947415D01*
X40506371Y2947415D02*
X40363514Y2875986D01*
X40363514Y2875986D02*
X40292085Y2804558D01*
X40292085Y2804558D02*
X40220657Y2661700D01*
X40220657Y2661700D02*
X40220657Y2375986D01*
X40220657Y2375986D02*
X40292085Y2233129D01*
X40292085Y2233129D02*
X40363514Y2161700D01*
X40363514Y2161700D02*
X40506371Y2090272D01*
X40506371Y2090272D02*
X40792085Y2090272D01*
X40792085Y2090272D02*
X40934943Y2161700D01*
X40934943Y2161700D02*
X41006371Y2233129D01*
X41006371Y2233129D02*
X41077800Y2375986D01*
X41077800Y2375986D02*
X41077800Y2661700D01*
X41077800Y2661700D02*
X41006371Y2804558D01*
X41006371Y2804558D02*
X40934943Y2875986D01*
X40934943Y2875986D02*
X40792085Y2947415D01*
X41506371Y3590272D02*
X42006371Y2090272D01*
X42006371Y2090272D02*
X42506371Y3590272D01*
X43934942Y3590272D02*
X44434942Y2090272D01*
X44434942Y2090272D02*
X44934942Y3590272D01*
X46220656Y2090272D02*
X45363513Y2090272D01*
X45792084Y2090272D02*
X45792084Y3590272D01*
X45792084Y3590272D02*
X45649227Y3375986D01*
X45649227Y3375986D02*
X45506370Y3233129D01*
X45506370Y3233129D02*
X45363513Y3161700D01*
D10*
X20638095Y32545181D02*
X20638095Y31735658D01*
X20638095Y31735658D02*
X20685714Y31640420D01*
X20685714Y31640420D02*
X20733333Y31592800D01*
X20733333Y31592800D02*
X20828571Y31545181D01*
X20828571Y31545181D02*
X21019047Y31545181D01*
X21019047Y31545181D02*
X21114285Y31592800D01*
X21114285Y31592800D02*
X21161904Y31640420D01*
X21161904Y31640420D02*
X21209523Y31735658D01*
X21209523Y31735658D02*
X21209523Y32545181D01*
X22114285Y32545181D02*
X21923809Y32545181D01*
X21923809Y32545181D02*
X21828571Y32497562D01*
X21828571Y32497562D02*
X21780952Y32449943D01*
X21780952Y32449943D02*
X21685714Y32307086D01*
X21685714Y32307086D02*
X21638095Y32116610D01*
X21638095Y32116610D02*
X21638095Y31735658D01*
X21638095Y31735658D02*
X21685714Y31640420D01*
X21685714Y31640420D02*
X21733333Y31592800D01*
X21733333Y31592800D02*
X21828571Y31545181D01*
X21828571Y31545181D02*
X22019047Y31545181D01*
X22019047Y31545181D02*
X22114285Y31592800D01*
X22114285Y31592800D02*
X22161904Y31640420D01*
X22161904Y31640420D02*
X22209523Y31735658D01*
X22209523Y31735658D02*
X22209523Y31973753D01*
X22209523Y31973753D02*
X22161904Y32068991D01*
X22161904Y32068991D02*
X22114285Y32116610D01*
X22114285Y32116610D02*
X22019047Y32164229D01*
X22019047Y32164229D02*
X21828571Y32164229D01*
X21828571Y32164229D02*
X21733333Y32116610D01*
X21733333Y32116610D02*
X21685714Y32068991D01*
X21685714Y32068991D02*
X21638095Y31973753D01*
X24689285Y72620181D02*
X24689285Y71905896D01*
X24689285Y71905896D02*
X24641666Y71763039D01*
X24641666Y71763039D02*
X24546428Y71667800D01*
X24546428Y71667800D02*
X24403571Y71620181D01*
X24403571Y71620181D02*
X24308333Y71620181D01*
X25689285Y71620181D02*
X25117857Y71620181D01*
X25403571Y71620181D02*
X25403571Y72620181D01*
X25403571Y72620181D02*
X25308333Y72477324D01*
X25308333Y72477324D02*
X25213095Y72382086D01*
X25213095Y72382086D02*
X25117857Y72334467D01*
X26308333Y72620181D02*
X26403571Y72620181D01*
X26403571Y72620181D02*
X26498809Y72572562D01*
X26498809Y72572562D02*
X26546428Y72524943D01*
X26546428Y72524943D02*
X26594047Y72429705D01*
X26594047Y72429705D02*
X26641666Y72239229D01*
X26641666Y72239229D02*
X26641666Y72001134D01*
X26641666Y72001134D02*
X26594047Y71810658D01*
X26594047Y71810658D02*
X26546428Y71715420D01*
X26546428Y71715420D02*
X26498809Y71667800D01*
X26498809Y71667800D02*
X26403571Y71620181D01*
X26403571Y71620181D02*
X26308333Y71620181D01*
X26308333Y71620181D02*
X26213095Y71667800D01*
X26213095Y71667800D02*
X26165476Y71715420D01*
X26165476Y71715420D02*
X26117857Y71810658D01*
X26117857Y71810658D02*
X26070238Y72001134D01*
X26070238Y72001134D02*
X26070238Y72239229D01*
X26070238Y72239229D02*
X26117857Y72429705D01*
X26117857Y72429705D02*
X26165476Y72524943D01*
X26165476Y72524943D02*
X26213095Y72572562D01*
X26213095Y72572562D02*
X26308333Y72620181D01*
X27498809Y72286848D02*
X27498809Y71620181D01*
X27260714Y72667800D02*
X27022619Y71953515D01*
X27022619Y71953515D02*
X27641666Y71953515D01*
X32715295Y61073381D02*
X32715295Y60263858D01*
X32715295Y60263858D02*
X32762914Y60168620D01*
X32762914Y60168620D02*
X32810533Y60121000D01*
X32810533Y60121000D02*
X32905771Y60073381D01*
X32905771Y60073381D02*
X33096247Y60073381D01*
X33096247Y60073381D02*
X33191485Y60121000D01*
X33191485Y60121000D02*
X33239104Y60168620D01*
X33239104Y60168620D02*
X33286723Y60263858D01*
X33286723Y60263858D02*
X33286723Y61073381D01*
X34239104Y61073381D02*
X33762914Y61073381D01*
X33762914Y61073381D02*
X33715295Y60597191D01*
X33715295Y60597191D02*
X33762914Y60644810D01*
X33762914Y60644810D02*
X33858152Y60692429D01*
X33858152Y60692429D02*
X34096247Y60692429D01*
X34096247Y60692429D02*
X34191485Y60644810D01*
X34191485Y60644810D02*
X34239104Y60597191D01*
X34239104Y60597191D02*
X34286723Y60501953D01*
X34286723Y60501953D02*
X34286723Y60263858D01*
X34286723Y60263858D02*
X34239104Y60168620D01*
X34239104Y60168620D02*
X34191485Y60121000D01*
X34191485Y60121000D02*
X34096247Y60073381D01*
X34096247Y60073381D02*
X33858152Y60073381D01*
X33858152Y60073381D02*
X33762914Y60121000D01*
X33762914Y60121000D02*
X33715295Y60168620D01*
X32486695Y21754181D02*
X32486695Y20944658D01*
X32486695Y20944658D02*
X32534314Y20849420D01*
X32534314Y20849420D02*
X32581933Y20801800D01*
X32581933Y20801800D02*
X32677171Y20754181D01*
X32677171Y20754181D02*
X32867647Y20754181D01*
X32867647Y20754181D02*
X32962885Y20801800D01*
X32962885Y20801800D02*
X33010504Y20849420D01*
X33010504Y20849420D02*
X33058123Y20944658D01*
X33058123Y20944658D02*
X33058123Y21754181D01*
X33439076Y21754181D02*
X34058123Y21754181D01*
X34058123Y21754181D02*
X33724790Y21373229D01*
X33724790Y21373229D02*
X33867647Y21373229D01*
X33867647Y21373229D02*
X33962885Y21325610D01*
X33962885Y21325610D02*
X34010504Y21277991D01*
X34010504Y21277991D02*
X34058123Y21182753D01*
X34058123Y21182753D02*
X34058123Y20944658D01*
X34058123Y20944658D02*
X34010504Y20849420D01*
X34010504Y20849420D02*
X33962885Y20801800D01*
X33962885Y20801800D02*
X33867647Y20754181D01*
X33867647Y20754181D02*
X33581933Y20754181D01*
X33581933Y20754181D02*
X33486695Y20801800D01*
X33486695Y20801800D02*
X33439076Y20849420D01*
%TO.C,J102*%
X13766800Y59664600D02*
X13766800Y58204100D01*
X13766800Y58204100D02*
X14592300Y58204100D01*
X13766800Y56045100D02*
X14592300Y56045100D01*
X13766800Y54584600D02*
X13766800Y56045100D01*
X14592300Y60299600D02*
X18021300Y60299600D01*
X14592300Y59664600D02*
X13766800Y59664600D01*
X14592300Y54584600D02*
X13766800Y54584600D01*
X14592300Y53949600D02*
X14592300Y60299600D01*
X18021300Y60299600D02*
X18021300Y57124600D01*
X18021300Y59664600D02*
X18846800Y59664600D01*
X18021300Y57124600D02*
X18021300Y53949600D01*
X18021300Y53949600D02*
X14592300Y53949600D01*
X18846800Y59664600D02*
X18846800Y54584600D01*
X18846800Y54584600D02*
X18021300Y54584600D01*
%TO.C,U105*%
D13*
X36904000Y49826600D02*
X36904000Y52326600D01*
X37354000Y52776600D02*
X36904000Y52326600D01*
X37354000Y49376600D02*
X36904000Y49826600D01*
X38654000Y53826600D02*
X40654000Y53826600D01*
X38654000Y48326600D02*
X40654000Y48326600D01*
X41954000Y52776600D02*
X42404000Y52326600D01*
X41954000Y49376600D02*
X42404000Y49826600D01*
X42404000Y49826600D02*
X42404000Y52326600D01*
%TO.C,U1*%
X35803500Y69839160D02*
X36803500Y69839160D01*
X35803500Y68019160D02*
X35803500Y69839160D01*
X35853500Y68019160D02*
X35803500Y68019160D01*
X37753500Y68019160D02*
X36973500Y68019160D01*
X37923500Y69839160D02*
X38923500Y69839160D01*
X38923500Y69839160D02*
X38923500Y68019160D01*
X38923500Y68019160D02*
X38873500Y68019160D01*
X36983500Y67479160D02*
X37313500Y67719160D01*
X37313500Y67239160D01*
X36983500Y67479160D01*
G36*
X37313500Y67239160D02*
G01*
X36983500Y67479160D01*
X37313500Y67719160D01*
X37313500Y67239160D01*
G37*
%TO.C,C1*%
X37334364Y72343600D02*
X37550036Y72343600D01*
X37334364Y71623600D02*
X37550036Y71623600D01*
%TO.C,C101*%
X34103364Y57052800D02*
X34319036Y57052800D01*
X34103364Y56332800D02*
X34319036Y56332800D01*
%TO.C,C104*%
X37550036Y66247600D02*
X37334364Y66247600D01*
X37550036Y65527600D02*
X37334364Y65527600D01*
%TO.C,C107*%
X27199764Y61523200D02*
X27415436Y61523200D01*
X27199764Y60803200D02*
X27415436Y60803200D01*
%TO.C,R104*%
X22145559Y54050200D02*
X22452841Y54050200D01*
X22145559Y53290200D02*
X22452841Y53290200D01*
%TO.C,R105*%
X35586400Y52625559D02*
X35586400Y52932841D01*
X36346400Y52625559D02*
X36346400Y52932841D01*
%TO.C,C3*%
X26665600Y28972564D02*
X26665600Y29188236D01*
X27385600Y28972564D02*
X27385600Y29188236D01*
%TO.C,C5*%
X25129436Y27030000D02*
X24913764Y27030000D01*
X25129436Y26310000D02*
X24913764Y26310000D01*
%TO.C,C6*%
X34361800Y23453036D02*
X34361800Y23237364D01*
X35081800Y23453036D02*
X35081800Y23237364D01*
%TO.C,C7*%
X21414600Y28321236D02*
X21414600Y28105564D01*
X22134600Y28321236D02*
X22134600Y28105564D01*
%TO.C,C9*%
X26117436Y25963200D02*
X25901764Y25963200D01*
X26117436Y25243200D02*
X25901764Y25243200D01*
%TO.C,J2*%
X7230600Y59805000D02*
X8610600Y59805000D01*
X7230600Y58425000D02*
X7230600Y59805000D01*
X7230600Y57155000D02*
X7230600Y54505000D01*
X7230600Y57155000D02*
X9990600Y57155000D01*
X7230600Y54505000D02*
X9990600Y54505000D01*
X9990600Y57155000D02*
X9990600Y54505000D01*
%TO.C,J3*%
X3750000Y49530000D02*
X5080000Y49530000D01*
X3750000Y48200000D02*
X3750000Y49530000D01*
X3750000Y46930000D02*
X3750000Y6230000D01*
X3750000Y46930000D02*
X6410000Y46930000D01*
X3750000Y6230000D02*
X6410000Y6230000D01*
X6410000Y46930000D02*
X6410000Y6230000D01*
%TO.C,Q1*%
X20625400Y51740100D02*
X20675400Y51740100D01*
X20625400Y50220100D02*
X20625400Y51740100D01*
X21625400Y50220100D02*
X20625400Y50220100D01*
X21795400Y51740100D02*
X22575400Y51740100D01*
X23695400Y51740100D02*
X23745400Y51740100D01*
X23745400Y51740100D02*
X23745400Y50220100D01*
X23745400Y50220100D02*
X22745400Y50220100D01*
X22565400Y52280100D02*
X22235400Y52040100D01*
X22235400Y52520100D01*
X22565400Y52280100D01*
G36*
X22565400Y52280100D02*
G01*
X22235400Y52040100D01*
X22235400Y52520100D01*
X22565400Y52280100D01*
G37*
%TO.C,U6*%
D10*
X24236800Y27495800D02*
X24736800Y27495800D01*
X24736800Y27495800D02*
X24736800Y27995800D01*
%TO.C,J4*%
D13*
X46930000Y49530000D02*
X48260000Y49530000D01*
X46930000Y48200000D02*
X46930000Y49530000D01*
X46930000Y46930000D02*
X46930000Y6230000D01*
X46930000Y46930000D02*
X49590000Y46930000D01*
X46930000Y6230000D02*
X49590000Y6230000D01*
X49590000Y46930000D02*
X49590000Y6230000D01*
%TO.C,D1*%
X33079400Y70061700D02*
X33079400Y67376700D01*
X34999400Y70061700D02*
X33079400Y70061700D01*
X34999400Y67376700D02*
X34999400Y70061700D01*
%TO.C,R1*%
X33681400Y70991759D02*
X33681400Y71299041D01*
X34441400Y70991759D02*
X34441400Y71299041D01*
%TO.C,J1*%
X45510000Y56760000D02*
X45510000Y55510000D01*
X45510000Y55510000D02*
X46760000Y55510000D01*
X45800000Y68420000D02*
X45800000Y55800000D01*
X45800000Y55800000D02*
X51770000Y55800000D01*
X45810000Y68410000D02*
X45810000Y66610000D01*
X45810000Y66610000D02*
X46560000Y66610000D01*
X45810000Y65110000D02*
X45810000Y59110000D01*
X45810000Y59110000D02*
X46560000Y59110000D01*
X45810000Y57610000D02*
X45810000Y55810000D01*
X45810000Y55810000D02*
X46560000Y55810000D01*
X46560000Y68410000D02*
X45810000Y68410000D01*
X46560000Y66610000D02*
X46560000Y68410000D01*
X46560000Y65110000D02*
X45810000Y65110000D01*
X46560000Y59110000D02*
X46560000Y65110000D01*
X46560000Y57610000D02*
X45810000Y57610000D01*
X46560000Y55810000D02*
X46560000Y57610000D01*
X48060000Y68410000D02*
X48060000Y67660000D01*
X48060000Y67660000D02*
X51010000Y67660000D01*
X48060000Y56560000D02*
X49400000Y56560000D01*
X48060000Y55810000D02*
X48060000Y56560000D01*
X51010000Y67660000D02*
X51010000Y62110000D01*
X51010000Y62110000D02*
X51010000Y57620000D01*
X51770000Y68420000D02*
X45800000Y68420000D01*
X51770000Y55800000D02*
X51770000Y68420000D01*
%TO.C,D105*%
X16486200Y69861700D02*
X16486200Y67576700D01*
X17956200Y69861700D02*
X16486200Y69861700D01*
X17956200Y67576700D02*
X17956200Y69861700D01*
%TO.C,C11*%
X34128764Y58297400D02*
X34344436Y58297400D01*
X34128764Y57577400D02*
X34344436Y57577400D01*
%TO.C,C2*%
X34126164Y56011400D02*
X34341836Y56011400D01*
X34126164Y55291400D02*
X34341836Y55291400D01*
%TO.C,R3*%
X21420000Y30343641D02*
X21420000Y30036359D01*
X22180000Y30343641D02*
X22180000Y30036359D01*
%TO.C,J104*%
X22065000Y73485000D02*
X22065000Y71535000D01*
X22065000Y73485000D02*
X29885000Y73485000D01*
X22065000Y69315000D02*
X22065000Y66085000D01*
X23865000Y64165000D02*
X22785000Y64165000D01*
X28085000Y64165000D02*
X28085000Y63735000D01*
X29165000Y64165000D02*
X28085000Y64165000D01*
X29885000Y73485000D02*
X29885000Y71535000D01*
X29885000Y69315000D02*
X29885000Y66085000D01*
%TO.C,C103*%
X26945000Y44837236D02*
X26945000Y44621564D01*
X27665000Y44837236D02*
X27665000Y44621564D01*
%TO.C,C108*%
X36368400Y44878036D02*
X36368400Y44662364D01*
X37088400Y44878036D02*
X37088400Y44662364D01*
%TO.C,R2*%
X28820000Y53343641D02*
X28820000Y53036359D01*
X29580000Y53343641D02*
X29580000Y53036359D01*
%TO.C,U8*%
X29685200Y47902100D02*
X29710200Y47902100D01*
X29685200Y46432100D02*
X29685200Y47902100D01*
X29710200Y46432100D02*
X29685200Y46432100D01*
X31880200Y47902100D02*
X31905200Y47902100D01*
X31905200Y47902100D02*
X31905200Y46432100D01*
X31905200Y46432100D02*
X31880200Y46432100D01*
X31885200Y48347100D02*
X32075200Y48487100D01*
X32075200Y48207100D01*
X31885200Y48347100D01*
G36*
X32075200Y48207100D02*
G01*
X31885200Y48347100D01*
X32075200Y48487100D01*
X32075200Y48207100D01*
G37*
%TO.C,C109*%
X31110600Y44758436D02*
X31110600Y44542764D01*
X31830600Y44758436D02*
X31830600Y44542764D01*
%TO.C,U5*%
X26750700Y60067400D02*
X27225700Y60067400D01*
X26750700Y59592400D02*
X26750700Y60067400D01*
X26750700Y54847400D02*
X26750700Y55322400D01*
X27225700Y54847400D02*
X26750700Y54847400D01*
X31495700Y60067400D02*
X31970700Y60067400D01*
X31970700Y60067400D02*
X31970700Y59592400D01*
X31970700Y55322400D02*
X31970700Y54847400D01*
X31970700Y54847400D02*
X31495700Y54847400D01*
X32500700Y55707400D02*
X32830700Y55947400D01*
X32830700Y55467400D01*
X32500700Y55707400D01*
G36*
X32830700Y55467400D02*
G01*
X32500700Y55707400D01*
X32830700Y55947400D01*
X32830700Y55467400D01*
G37*
%TO.C,C105*%
X39350836Y56290800D02*
X39135164Y56290800D01*
X39350836Y55570800D02*
X39135164Y55570800D01*
%TO.C,D4*%
X41155000Y65747000D02*
X41155000Y64047000D01*
X41155000Y65747000D02*
X43815000Y65747000D01*
X41155000Y64047000D02*
X43815000Y64047000D01*
%TO.C,U11*%
X38882043Y46371000D02*
X37882043Y46371000D01*
X38882043Y44891000D02*
X37882043Y44891000D01*
D14*
X39452221Y45181000D02*
G75*
G02*
X39311865Y45181000I-70178J0D01*
G01*
X39311865Y45181000D02*
G75*
G02*
X39452221Y45181000I70178J0D01*
G01*
%TO.C,U3*%
D13*
X28245000Y28355000D02*
X28720000Y28355000D01*
X28245000Y27880000D02*
X28245000Y28355000D01*
X28245000Y23135000D02*
X28245000Y23610000D01*
X28720000Y23135000D02*
X28245000Y23135000D01*
X32990000Y28355000D02*
X33465000Y28355000D01*
X33465000Y28355000D02*
X33465000Y27880000D01*
X33465000Y23610000D02*
X33465000Y23135000D01*
X33465000Y23135000D02*
X32990000Y23135000D01*
X27715000Y27495000D02*
X27385000Y27255000D01*
X27385000Y27735000D01*
X27715000Y27495000D01*
G36*
X27715000Y27495000D02*
G01*
X27385000Y27255000D01*
X27385000Y27735000D01*
X27715000Y27495000D01*
G37*
%TO.C,C106*%
X39695800Y45462364D02*
X39695800Y45678036D01*
X40415800Y45462364D02*
X40415800Y45678036D01*
%TO.C,R107*%
X15120000Y68543641D02*
X15120000Y68236359D01*
X15880000Y68543641D02*
X15880000Y68236359D01*
%TO.C,R106*%
X29820000Y44803641D02*
X29820000Y44496359D01*
X30580000Y44803641D02*
X30580000Y44496359D01*
%TO.C,U10*%
X37053000Y59464800D02*
X37103000Y59464800D01*
X37053000Y57644800D02*
X37053000Y59464800D01*
X37103000Y57644800D02*
X37053000Y57644800D01*
X39003000Y57644800D02*
X38223000Y57644800D01*
X40123000Y59464800D02*
X40173000Y59464800D01*
X40173000Y59464800D02*
X40173000Y57644800D01*
X40173000Y57644800D02*
X40123000Y57644800D01*
X40123000Y60004800D02*
X40453000Y60244800D01*
X40453000Y59764800D01*
X40123000Y60004800D01*
G36*
X40453000Y59764800D02*
G01*
X40123000Y60004800D01*
X40453000Y60244800D01*
X40453000Y59764800D01*
G37*
%TO.C,C110*%
X28040000Y47287836D02*
X28040000Y47072164D01*
X28760000Y47287836D02*
X28760000Y47072164D01*
%TO.C,U2*%
X40718500Y68496200D02*
X42188500Y68496200D01*
X40718500Y68471200D02*
X40718500Y68496200D01*
X40718500Y66276200D02*
X40718500Y66301200D01*
X42188500Y68496200D02*
X42188500Y68471200D01*
X42188500Y66301200D02*
X42188500Y66276200D01*
X42188500Y66276200D02*
X40718500Y66276200D01*
X42633500Y66296200D02*
X42773500Y66106200D01*
X42493500Y66106200D01*
X42633500Y66296200D01*
G36*
X42773500Y66106200D02*
G01*
X42493500Y66106200D01*
X42633500Y66296200D01*
X42773500Y66106200D01*
G37*
%TO.C,C102*%
X22296800Y60658836D02*
X22296800Y60443164D01*
X23016800Y60658836D02*
X23016800Y60443164D01*
%TO.C,U7*%
X25473400Y47939793D02*
X25498400Y47939793D01*
X25473400Y46469793D02*
X25473400Y47939793D01*
X25498400Y46469793D02*
X25473400Y46469793D01*
X27668400Y47939793D02*
X27693400Y47939793D01*
X27693400Y47939793D02*
X27693400Y46469793D01*
X27693400Y46469793D02*
X27668400Y46469793D01*
X27673400Y48384793D02*
X27863400Y48524793D01*
X27863400Y48244793D01*
X27673400Y48384793D01*
G36*
X27863400Y48244793D02*
G01*
X27673400Y48384793D01*
X27863400Y48524793D01*
X27863400Y48244793D01*
G37*
%TO.C,C8*%
X28710836Y29874800D02*
X28495164Y29874800D01*
X28710836Y29154800D02*
X28495164Y29154800D01*
%TO.C,R7*%
X43333400Y67537841D02*
X43333400Y67230559D01*
X44093400Y67537841D02*
X44093400Y67230559D01*
%TO.C,U4*%
X23525100Y61268000D02*
X23525100Y60218000D01*
X25505100Y61268000D02*
X25505100Y59968000D01*
X23525100Y59848000D02*
X23525100Y59568000D01*
X23245100Y59848000D01*
X23525100Y59848000D01*
G36*
X23525100Y59568000D02*
G01*
X23245100Y59848000D01*
X23525100Y59848000D01*
X23525100Y59568000D01*
G37*
%TO.C,C12*%
X39124836Y61701000D02*
X38909164Y61701000D01*
X39124836Y60981000D02*
X38909164Y60981000D01*
%TO.C,C111*%
X32240000Y47727836D02*
X32240000Y47512164D01*
X32960000Y47727836D02*
X32960000Y47512164D01*
%TD*%
%LPC*%
D15*
%TO.C,J102*%
X15671800Y59664600D03*
X16941800Y59664600D03*
X15671800Y58394600D03*
X16941800Y58394600D03*
X15671800Y57124600D03*
X16941800Y57124600D03*
X15671800Y55854600D03*
X16941800Y55854600D03*
X15671800Y54584600D03*
X16941800Y54584600D03*
%TD*%
D16*
%TO.C,U105*%
X37779000Y48076600D03*
X37779000Y54076600D03*
X41529000Y48076600D03*
X41529000Y54076600D03*
%TD*%
D17*
%TO.C,U1*%
X36413500Y67791660D03*
X38313500Y67791660D03*
X37363500Y70066660D03*
%TD*%
D18*
%TO.C,C1*%
X36962200Y71983600D03*
X37922200Y71983600D03*
%TD*%
%TO.C,C101*%
X33731200Y56692800D03*
X34691200Y56692800D03*
%TD*%
D19*
%TO.C,C104*%
X37922200Y65887600D03*
X36962200Y65887600D03*
%TD*%
D18*
%TO.C,C107*%
X26827600Y61163200D03*
X27787600Y61163200D03*
%TD*%
D20*
%TO.C,R104*%
X21789200Y53670200D03*
X22809200Y53670200D03*
%TD*%
D21*
%TO.C,R105*%
X35966400Y52269200D03*
X35966400Y53289200D03*
%TD*%
D22*
%TO.C,C3*%
X27025600Y28600400D03*
X27025600Y29560400D03*
%TD*%
D19*
%TO.C,C5*%
X25501600Y26670000D03*
X24541600Y26670000D03*
%TD*%
D23*
%TO.C,C6*%
X34721800Y23825200D03*
X34721800Y22865200D03*
%TD*%
%TO.C,C7*%
X21774600Y28693400D03*
X21774600Y27733400D03*
%TD*%
D19*
%TO.C,C9*%
X26489600Y25603200D03*
X25529600Y25603200D03*
%TD*%
D24*
%TO.C,J2*%
X8610600Y58425000D03*
D25*
X8610600Y55885000D03*
%TD*%
D24*
%TO.C,J3*%
X5207000Y48200000D03*
D26*
X4953000Y45660000D03*
X5207000Y43120000D03*
X4953000Y40580000D03*
X5207000Y38040000D03*
X4953000Y35500000D03*
X5207000Y32960000D03*
X4953000Y30420000D03*
X5207000Y27880000D03*
X4953000Y25340000D03*
X5207000Y22800000D03*
X4953000Y20260000D03*
X5207000Y17720000D03*
X4953000Y15180000D03*
X5207000Y12640000D03*
X4953000Y10100000D03*
X5207000Y7560000D03*
%TD*%
D27*
%TO.C,Q1*%
X23135400Y51917600D03*
X21235400Y51917600D03*
X22185400Y50042600D03*
%TD*%
D28*
%TO.C,U6*%
X24136800Y27945800D03*
X24136800Y28845800D03*
X24136800Y29745800D03*
X24136800Y30645800D03*
X22936800Y30645800D03*
X22936800Y29745800D03*
X22936800Y28845800D03*
X22936800Y27945800D03*
%TD*%
D24*
%TO.C,J4*%
X48387000Y48200000D03*
D26*
X48133000Y45660000D03*
X48387000Y43120000D03*
X48133000Y40580000D03*
X48387000Y38040000D03*
X48133000Y35500000D03*
X48387000Y32960000D03*
X48133000Y30420000D03*
X48387000Y27880000D03*
X48133000Y25340000D03*
X48387000Y22800000D03*
X48133000Y20260000D03*
X48387000Y17720000D03*
X48133000Y15180000D03*
X48387000Y12640000D03*
X48133000Y10100000D03*
X48387000Y7560000D03*
%TD*%
D29*
%TO.C,D1*%
X34039400Y69314200D03*
X34039400Y67439200D03*
%TD*%
D21*
%TO.C,R1*%
X34061400Y70635400D03*
X34061400Y71655400D03*
%TD*%
D30*
%TO.C,J1*%
X50260000Y56760000D03*
D31*
X48260000Y58360000D03*
D32*
X48260000Y60860000D03*
X48260000Y63360000D03*
X48260000Y65860000D03*
%TD*%
D33*
%TO.C,D105*%
X17221200Y69164200D03*
X17221200Y67589200D03*
%TD*%
D18*
%TO.C,C11*%
X33756600Y57937400D03*
X34716600Y57937400D03*
%TD*%
%TO.C,C2*%
X33754000Y55651400D03*
X34714000Y55651400D03*
%TD*%
D34*
%TO.C,R3*%
X21800000Y30700000D03*
X21800000Y29680000D03*
%TD*%
D35*
%TO.C,J104*%
X28175000Y67575000D03*
X23775000Y67575000D03*
D36*
X27575000Y64875000D03*
X26775000Y64875000D03*
X25975000Y64875000D03*
X25175000Y64875000D03*
X24375000Y64875000D03*
D37*
X30425000Y64975000D03*
X30425000Y70425000D03*
X21525000Y64975000D03*
X21525000Y70425000D03*
%TD*%
D23*
%TO.C,C103*%
X27305000Y45209400D03*
X27305000Y44249400D03*
%TD*%
%TO.C,C108*%
X36728400Y45250200D03*
X36728400Y44290200D03*
%TD*%
D34*
%TO.C,R2*%
X29200000Y53700000D03*
X29200000Y52680000D03*
%TD*%
D38*
%TO.C,U8*%
X31445200Y48004600D03*
X30795200Y48004600D03*
X30145200Y48004600D03*
X30145200Y46329600D03*
X30795200Y46329600D03*
X31445200Y46329600D03*
%TD*%
D23*
%TO.C,C109*%
X31470600Y45130600D03*
X31470600Y44170600D03*
%TD*%
D39*
%TO.C,U5*%
X31798200Y55707400D03*
X31798200Y56207400D03*
X31798200Y56707400D03*
X31798200Y57207400D03*
X31798200Y57707400D03*
X31798200Y58207400D03*
X31798200Y58707400D03*
X31798200Y59207400D03*
D40*
X31110700Y59894900D03*
X30610700Y59894900D03*
X30110700Y59894900D03*
X29610700Y59894900D03*
X29110700Y59894900D03*
X28610700Y59894900D03*
X28110700Y59894900D03*
X27610700Y59894900D03*
D39*
X26923200Y59207400D03*
X26923200Y58707400D03*
X26923200Y58207400D03*
X26923200Y57707400D03*
X26923200Y57207400D03*
X26923200Y56707400D03*
X26923200Y56207400D03*
X26923200Y55707400D03*
D40*
X27610700Y55019900D03*
X28110700Y55019900D03*
X28610700Y55019900D03*
X29110700Y55019900D03*
X29610700Y55019900D03*
X30110700Y55019900D03*
X30610700Y55019900D03*
X31110700Y55019900D03*
D41*
X29360700Y57457400D03*
%TD*%
D19*
%TO.C,C105*%
X39723000Y55930800D03*
X38763000Y55930800D03*
%TD*%
D42*
%TO.C,D4*%
X41715000Y64897000D03*
X43815000Y64897000D03*
%TD*%
D43*
%TO.C,U11*%
X38812043Y45306000D03*
D44*
X38812043Y45956000D03*
D45*
X37952043Y45306000D03*
D46*
X37952043Y45956000D03*
D47*
X38382043Y45631000D03*
%TD*%
D48*
%TO.C,U3*%
X28417500Y27495000D03*
X28417500Y26995000D03*
X28417500Y26495000D03*
X28417500Y25995000D03*
X28417500Y25495000D03*
X28417500Y24995000D03*
X28417500Y24495000D03*
X28417500Y23995000D03*
D49*
X29105000Y23307500D03*
X29605000Y23307500D03*
X30105000Y23307500D03*
X30605000Y23307500D03*
X31105000Y23307500D03*
X31605000Y23307500D03*
X32105000Y23307500D03*
X32605000Y23307500D03*
D48*
X33292500Y23995000D03*
X33292500Y24495000D03*
X33292500Y24995000D03*
X33292500Y25495000D03*
X33292500Y25995000D03*
X33292500Y26495000D03*
X33292500Y26995000D03*
X33292500Y27495000D03*
D49*
X32605000Y28182500D03*
X32105000Y28182500D03*
X31605000Y28182500D03*
X31105000Y28182500D03*
X30605000Y28182500D03*
X30105000Y28182500D03*
X29605000Y28182500D03*
X29105000Y28182500D03*
D41*
X30855000Y25745000D03*
%TD*%
D22*
%TO.C,C106*%
X40055800Y45090200D03*
X40055800Y46050200D03*
%TD*%
D34*
%TO.C,R107*%
X15500000Y68900000D03*
X15500000Y67880000D03*
%TD*%
%TO.C,R106*%
X30200000Y45160000D03*
X30200000Y44140000D03*
%TD*%
D50*
%TO.C,U10*%
X39563000Y59692300D03*
X38613000Y59692300D03*
X37663000Y59692300D03*
X37663000Y57417300D03*
X39563000Y57417300D03*
%TD*%
D23*
%TO.C,C110*%
X28400000Y47660000D03*
X28400000Y46700000D03*
%TD*%
D51*
%TO.C,U2*%
X42291000Y66736200D03*
X42291000Y67386200D03*
X42291000Y68036200D03*
X40616000Y68036200D03*
X40616000Y67386200D03*
X40616000Y66736200D03*
%TD*%
D23*
%TO.C,C102*%
X22656800Y61031000D03*
X22656800Y60071000D03*
%TD*%
D38*
%TO.C,U7*%
X27233400Y48042293D03*
X26583400Y48042293D03*
X25933400Y48042293D03*
X25933400Y46367293D03*
X26583400Y46367293D03*
X27233400Y46367293D03*
%TD*%
D19*
%TO.C,C8*%
X29083000Y29514800D03*
X28123000Y29514800D03*
%TD*%
D34*
%TO.C,R7*%
X43713400Y67894200D03*
X43713400Y66874200D03*
%TD*%
D52*
%TO.C,U4*%
X23977600Y59768000D03*
D53*
X24515100Y59693000D03*
D52*
X25052600Y59768000D03*
X25052600Y61468000D03*
D53*
X24515100Y61543000D03*
D52*
X23977600Y61468000D03*
%TD*%
D19*
%TO.C,C12*%
X39497000Y61341000D03*
X38537000Y61341000D03*
%TD*%
D23*
%TO.C,C111*%
X32600000Y48100000D03*
X32600000Y47140000D03*
%TD*%
%LPD*%
M02*
