%TF.GenerationSoftware,KiCad,Pcbnew,10.0.2*%
%TF.CreationDate,2026-06-09T14:50:08-04:00*%
%TF.ProjectId,tag-breakout-l432-u375-lipo-v1,7461672d-6272-4656-916b-6f75742d6c34,rev?*%
%TF.SameCoordinates,Original*%
%TF.FileFunction,Copper,L1,Top*%
%TF.FilePolarity,Positive*%
%FSLAX46Y46*%
G04 Gerber Fmt 4.6, Leading zero omitted, Abs format (unit mm)*
G04 Created by KiCad (PCBNEW 10.0.2) date 2026-06-09 14:50:08*
%MOMM*%
%LPD*%
G01*
G04 APERTURE LIST*
G04 Aperture macros list*
%AMRoundRect*
0 Rectangle with rounded corners*
0 $1 Rounding radius*
0 $2 $3 $4 $5 $6 $7 $8 $9 X,Y pos of 4 corners*
0 Add a 4 corners polygon primitive as box body*
4,1,4,$2,$3,$4,$5,$6,$7,$8,$9,$2,$3,0*
0 Add four circle primitives for the rounded corners*
1,1,$1+$1,$2,$3*
1,1,$1+$1,$4,$5*
1,1,$1+$1,$6,$7*
1,1,$1+$1,$8,$9*
0 Add four rect primitives between the rounded corners*
20,1,$1+$1,$2,$3,$4,$5,0*
20,1,$1+$1,$4,$5,$6,$7,0*
20,1,$1+$1,$6,$7,$8,$9,0*
20,1,$1+$1,$8,$9,$2,$3,0*%
%AMFreePoly0*
4,1,6,0.230000,0.054289,0.020711,-0.155000,-0.230000,-0.155000,-0.230000,0.155000,0.230000,0.155000,0.230000,0.054289,0.230000,0.054289,$1*%
%AMFreePoly1*
4,1,6,0.230000,-0.054289,0.230000,-0.155000,-0.230000,-0.155000,-0.230000,0.155000,0.020711,0.155000,0.230000,-0.054289,0.230000,-0.054289,$1*%
%AMFreePoly2*
4,1,6,0.230000,-0.155000,-0.230000,-0.155000,-0.230000,-0.054289,-0.020711,0.155000,0.230000,0.155000,0.230000,-0.155000,0.230000,-0.155000,$1*%
%AMFreePoly3*
4,1,6,0.230000,-0.155000,-0.020711,-0.155000,-0.230000,0.054289,-0.230000,0.155000,0.230000,0.155000,0.230000,-0.155000,0.230000,-0.155000,$1*%
G04 Aperture macros list end*
%TA.AperFunction,Conductor*%
%ADD10C,0.200000*%
%TD*%
%TA.AperFunction,ComponentPad*%
%ADD11C,1.016000*%
%TD*%
%TA.AperFunction,SMDPad,CuDef*%
%ADD12R,0.750000X1.000000*%
%TD*%
%TA.AperFunction,SMDPad,CuDef*%
%ADD13RoundRect,0.150000X0.150000X-0.512500X0.150000X0.512500X-0.150000X0.512500X-0.150000X-0.512500X0*%
%TD*%
%TA.AperFunction,SMDPad,CuDef*%
%ADD14RoundRect,0.140000X-0.140000X-0.170000X0.140000X-0.170000X0.140000X0.170000X-0.140000X0.170000X0*%
%TD*%
%TA.AperFunction,SMDPad,CuDef*%
%ADD15RoundRect,0.140000X0.140000X0.170000X-0.140000X0.170000X-0.140000X-0.170000X0.140000X-0.170000X0*%
%TD*%
%TA.AperFunction,SMDPad,CuDef*%
%ADD16RoundRect,0.135000X-0.135000X-0.185000X0.135000X-0.185000X0.135000X0.185000X-0.135000X0.185000X0*%
%TD*%
%TA.AperFunction,SMDPad,CuDef*%
%ADD17RoundRect,0.135000X0.185000X-0.135000X0.185000X0.135000X-0.185000X0.135000X-0.185000X-0.135000X0*%
%TD*%
%TA.AperFunction,SMDPad,CuDef*%
%ADD18RoundRect,0.140000X0.170000X-0.140000X0.170000X0.140000X-0.170000X0.140000X-0.170000X-0.140000X0*%
%TD*%
%TA.AperFunction,SMDPad,CuDef*%
%ADD19RoundRect,0.140000X-0.170000X0.140000X-0.170000X-0.140000X0.170000X-0.140000X0.170000X0.140000X0*%
%TD*%
%TA.AperFunction,ComponentPad*%
%ADD20R,1.700000X1.700000*%
%TD*%
%TA.AperFunction,ComponentPad*%
%ADD21C,1.700000*%
%TD*%
%TA.AperFunction,ComponentPad*%
%ADD22O,1.700000X1.700000*%
%TD*%
%TA.AperFunction,SMDPad,CuDef*%
%ADD23RoundRect,0.150000X-0.150000X0.587500X-0.150000X-0.587500X0.150000X-0.587500X0.150000X0.587500X0*%
%TD*%
%TA.AperFunction,SMDPad,CuDef*%
%ADD24R,0.800000X0.500000*%
%TD*%
%TA.AperFunction,SMDPad,CuDef*%
%ADD25RoundRect,0.243750X-0.456250X0.243750X-0.456250X-0.243750X0.456250X-0.243750X0.456250X0.243750X0*%
%TD*%
%TA.AperFunction,ComponentPad*%
%ADD26RoundRect,0.250000X0.725000X-0.600000X0.725000X0.600000X-0.725000X0.600000X-0.725000X-0.600000X0*%
%TD*%
%TA.AperFunction,ComponentPad*%
%ADD27O,1.950000X1.700000*%
%TD*%
%TA.AperFunction,SMDPad,CuDef*%
%ADD28RoundRect,0.218750X-0.256250X0.218750X-0.256250X-0.218750X0.256250X-0.218750X0.256250X0.218750X0*%
%TD*%
%TA.AperFunction,SMDPad,CuDef*%
%ADD29RoundRect,0.135000X-0.185000X0.135000X-0.185000X-0.135000X0.185000X-0.135000X0.185000X0.135000X0*%
%TD*%
%TA.AperFunction,SMDPad,CuDef*%
%ADD30RoundRect,0.125000X0.125000X0.875000X-0.125000X0.875000X-0.125000X-0.875000X0.125000X-0.875000X0*%
%TD*%
%TA.AperFunction,SMDPad,CuDef*%
%ADD31RoundRect,0.250000X0.750000X0.600000X-0.750000X0.600000X-0.750000X-0.600000X0.750000X-0.600000X0*%
%TD*%
%TA.AperFunction,SMDPad,CuDef*%
%ADD32RoundRect,0.087500X-0.087500X0.425000X-0.087500X-0.425000X0.087500X-0.425000X0.087500X0.425000X0*%
%TD*%
%TA.AperFunction,SMDPad,CuDef*%
%ADD33RoundRect,0.062500X0.375000X0.062500X-0.375000X0.062500X-0.375000X-0.062500X0.375000X-0.062500X0*%
%TD*%
%TA.AperFunction,SMDPad,CuDef*%
%ADD34RoundRect,0.062500X0.062500X0.375000X-0.062500X0.375000X-0.062500X-0.375000X0.062500X-0.375000X0*%
%TD*%
%TA.AperFunction,HeatsinkPad*%
%ADD35R,3.500000X3.500000*%
%TD*%
%TA.AperFunction,SMDPad,CuDef*%
%ADD36RoundRect,0.112500X-0.187500X-0.112500X0.187500X-0.112500X0.187500X0.112500X-0.187500X0.112500X0*%
%TD*%
%TA.AperFunction,SMDPad,CuDef*%
%ADD37FreePoly0,180.000000*%
%TD*%
%TA.AperFunction,SMDPad,CuDef*%
%ADD38FreePoly1,180.000000*%
%TD*%
%TA.AperFunction,SMDPad,CuDef*%
%ADD39FreePoly2,180.000000*%
%TD*%
%TA.AperFunction,SMDPad,CuDef*%
%ADD40FreePoly3,180.000000*%
%TD*%
%TA.AperFunction,SMDPad,CuDef*%
%ADD41RoundRect,0.145000X0.000000X0.205061X-0.205061X0.000000X0.000000X-0.205061X0.205061X0.000000X0*%
%TD*%
%TA.AperFunction,SMDPad,CuDef*%
%ADD42RoundRect,0.062500X-0.375000X-0.062500X0.375000X-0.062500X0.375000X0.062500X-0.375000X0.062500X0*%
%TD*%
%TA.AperFunction,SMDPad,CuDef*%
%ADD43RoundRect,0.062500X-0.062500X-0.375000X0.062500X-0.375000X0.062500X0.375000X-0.062500X0.375000X0*%
%TD*%
%TA.AperFunction,SMDPad,CuDef*%
%ADD44RoundRect,0.150000X-0.150000X0.512500X-0.150000X-0.512500X0.150000X-0.512500X0.150000X0.512500X0*%
%TD*%
%TA.AperFunction,SMDPad,CuDef*%
%ADD45RoundRect,0.087500X0.425000X0.087500X-0.425000X0.087500X-0.425000X-0.087500X0.425000X-0.087500X0*%
%TD*%
%TA.AperFunction,SMDPad,CuDef*%
%ADD46RoundRect,0.093750X0.093750X-0.156250X0.093750X0.156250X-0.093750X0.156250X-0.093750X-0.156250X0*%
%TD*%
%TA.AperFunction,SMDPad,CuDef*%
%ADD47RoundRect,0.075000X0.075000X-0.250000X0.075000X0.250000X-0.075000X0.250000X-0.075000X-0.250000X0*%
%TD*%
%TA.AperFunction,ViaPad*%
%ADD48C,0.660400*%
%TD*%
%TA.AperFunction,Conductor*%
%ADD49C,0.152400*%
%TD*%
%TA.AperFunction,Conductor*%
%ADD50C,0.304800*%
%TD*%
G04 APERTURE END LIST*
%TO.N,+3V3*%
D10*
X31600000Y48100000D02*
X32600000Y48100000D01*
%TD*%
D11*
%TO.P,J102,1,Pin_1_1*%
%TO.N,+3V3*%
X15671800Y59664600D03*
%TO.P,J102,2,Pin_2_2*%
%TO.N,/SWDIO*%
X16941800Y59664600D03*
%TO.P,J102,3,Pin_3_3*%
%TO.N,GND*%
X15671800Y58394600D03*
%TO.P,J102,4,Pin_4_4*%
%TO.N,/SCLK*%
X16941800Y58394600D03*
%TO.P,J102,5,Pin_5_5*%
%TO.N,GND*%
X15671800Y57124600D03*
%TO.P,J102,6,Pin_6_6*%
%TO.N,unconnected-(J102-Pin_6-Pad6)*%
X16941800Y57124600D03*
%TO.P,J102,7,Pin_7_7*%
%TO.N,unconnected-(J102-Pin_7-Pad7)*%
X15671800Y55854600D03*
%TO.P,J102,8,Pin_8_8*%
%TO.N,unconnected-(J102-Pin_8-Pad8)*%
X16941800Y55854600D03*
%TO.P,J102,9,Pin_9_9*%
%TO.N,GND*%
X15671800Y54584600D03*
%TO.P,J102,10,Pin_10_10*%
%TO.N,/NRST*%
X16941800Y54584600D03*
%TD*%
D12*
%TO.P,U105,1,A_1*%
%TO.N,/boot0*%
X37779000Y48076600D03*
X37779000Y54076600D03*
%TO.P,U105,2,B_2*%
%TO.N,+3V3*%
X41529000Y48076600D03*
X41529000Y54076600D03*
%TD*%
D13*
%TO.P,U1,1,GND_1*%
%TO.N,GND*%
X36413500Y67791660D03*
%TO.P,U1,2,VO_2*%
%TO.N,+3V3*%
X38313500Y67791660D03*
%TO.P,U1,3,VI_3*%
%TO.N,VUSB*%
X37363500Y70066660D03*
%TD*%
D14*
%TO.P,C1,1*%
%TO.N,VUSB*%
X36962200Y71983600D03*
%TO.P,C1,2*%
%TO.N,GND*%
X37922200Y71983600D03*
%TD*%
%TO.P,C101,1*%
%TO.N,/NRST*%
X33731200Y56692800D03*
%TO.P,C101,2*%
%TO.N,GND*%
X34691200Y56692800D03*
%TD*%
D15*
%TO.P,C104,1*%
%TO.N,+3V3*%
X37922200Y65887600D03*
%TO.P,C104,2*%
%TO.N,GND*%
X36962200Y65887600D03*
%TD*%
D14*
%TO.P,C107,1*%
%TO.N,+3V3*%
X26827600Y61163200D03*
%TO.P,C107,2*%
%TO.N,GND*%
X27787600Y61163200D03*
%TD*%
D16*
%TO.P,R104,1*%
%TO.N,Net-(U5-PA10)*%
X21789200Y53670200D03*
%TO.P,R104,2*%
%TO.N,TAG_RESET*%
X22809200Y53670200D03*
%TD*%
D17*
%TO.P,R105,1*%
%TO.N,GND*%
X35966400Y52269200D03*
%TO.P,R105,2*%
%TO.N,/boot0*%
X35966400Y53289200D03*
%TD*%
D18*
%TO.P,C3,1*%
%TO.N,TAG_1V8*%
X27025600Y28600400D03*
%TO.P,C3,2*%
%TO.N,GND*%
X27025600Y29560400D03*
%TD*%
D15*
%TO.P,C5,1*%
%TO.N,/stm32/NRST*%
X25501600Y26670000D03*
%TO.P,C5,2*%
%TO.N,GND*%
X24541600Y26670000D03*
%TD*%
D19*
%TO.P,C6,1*%
%TO.N,TAG_1V8*%
X34721800Y23825200D03*
%TO.P,C6,2*%
%TO.N,GND*%
X34721800Y22865200D03*
%TD*%
%TO.P,C7,1*%
%TO.N,TAG_1V8*%
X21774600Y28693400D03*
%TO.P,C7,2*%
%TO.N,GND*%
X21774600Y27733400D03*
%TD*%
D15*
%TO.P,C9,1*%
%TO.N,TAG_1V8*%
X26489600Y25603200D03*
%TO.P,C9,2*%
%TO.N,GND*%
X25529600Y25603200D03*
%TD*%
D20*
%TO.P,J2,1,Pin_1_1*%
%TO.N,/UART_TX*%
X8610600Y58425000D03*
D21*
%TO.P,J2,2,Pin_2_2*%
%TO.N,GND*%
X8610600Y55885000D03*
%TD*%
D20*
%TO.P,J3,1,Pin_1_1*%
%TO.N,/stm32/PB4*%
X5207000Y48200000D03*
D22*
%TO.P,J3,2,Pin_2_2*%
%TO.N,/stm32/PB5*%
X4953000Y45660000D03*
%TO.P,J3,3,Pin_3_3*%
%TO.N,/stm32/rtc_scl*%
X5207000Y43120000D03*
%TO.P,J3,4,Pin_4_4*%
%TO.N,/stm32/rtc_sda*%
X4953000Y40580000D03*
%TO.P,J3,5,Pin_5_5*%
%TO.N,/stm32/PB8*%
X5207000Y38040000D03*
%TO.P,J3,6,Pin_6_6*%
%TO.N,/stm32/PB9*%
X4953000Y35500000D03*
%TO.P,J3,7,Pin_7_7*%
%TO.N,TAG_1V8*%
X5207000Y32960000D03*
%TO.P,J3,8,Pin_8_8*%
%TO.N,/stm32/PA0*%
X4953000Y30420000D03*
%TO.P,J3,9,Pin_9_9*%
%TO.N,/stm32/PA1*%
X5207000Y27880000D03*
%TO.P,J3,10,Pin_10_10*%
%TO.N,/stm32/PA2*%
X4953000Y25340000D03*
%TO.P,J3,11,Pin_11_11*%
%TO.N,/stm32/PA3*%
X5207000Y22800000D03*
%TO.P,J3,12,Pin_12_12*%
%TO.N,/stm32/PA4*%
X4953000Y20260000D03*
%TO.P,J3,13,Pin_13_13*%
%TO.N,/stm32/PA5*%
X5207000Y17720000D03*
%TO.P,J3,14,Pin_14_14*%
%TO.N,/stm32/PA6*%
X4953000Y15180000D03*
%TO.P,J3,15,Pin_15_15*%
%TO.N,/stm32/PA7*%
X5207000Y12640000D03*
%TO.P,J3,16,Pin_16_16*%
%TO.N,/stm32/PB0*%
X4953000Y10100000D03*
%TO.P,J3,17,Pin_17_17*%
%TO.N,GND*%
X5207000Y7560000D03*
%TD*%
D23*
%TO.P,Q1,1,B_1*%
%TO.N,TAG_RESET*%
X23135400Y51917600D03*
%TO.P,Q1,2,E_2*%
%TO.N,GND*%
X21235400Y51917600D03*
%TO.P,Q1,3,C_3*%
%TO.N,/stm32/NRST*%
X22185400Y50042600D03*
%TD*%
D24*
%TO.P,U6,1,CLKOUT_1*%
%TO.N,/stm32/clkout*%
X24136800Y27945800D03*
%TO.P,U6,2,~{INT}_2*%
%TO.N,unconnected-(U6-~{INT}-Pad2)*%
X24136800Y28845800D03*
%TO.P,U6,3,SCL_3*%
%TO.N,/stm32/rtc_scl*%
X24136800Y29745800D03*
%TO.P,U6,4,SDA_4*%
%TO.N,/stm32/rtc_sda*%
X24136800Y30645800D03*
%TO.P,U6,5,GND_5*%
%TO.N,GND*%
X22936800Y30645800D03*
%TO.P,U6,6,VBACK_6*%
%TO.N,/stm32/VBACK*%
X22936800Y29745800D03*
%TO.P,U6,7,VDD_7*%
%TO.N,TAG_1V8*%
X22936800Y28845800D03*
%TO.P,U6,8,EVI_8*%
%TO.N,GND*%
X22936800Y27945800D03*
%TD*%
D20*
%TO.P,J4,1,Pin_1_1*%
%TO.N,TAG_1V8*%
X48387000Y48200000D03*
D22*
%TO.P,J4,2,Pin_2_2*%
%TO.N,/stm32/PB3*%
X48133000Y45660000D03*
%TO.P,J4,3,Pin_3_3*%
%TO.N,/stm32/PA15*%
X48387000Y43120000D03*
%TO.P,J4,4,Pin_4_4*%
%TO.N,/stm32/PA12*%
X48133000Y40580000D03*
%TO.P,J4,5,Pin_5_5*%
%TO.N,/stm32/PA11*%
X48387000Y38040000D03*
%TO.P,J4,6,Pin_6_6*%
%TO.N,/stm32/PA10*%
X48133000Y35500000D03*
%TO.P,J4,7,Pin_7_7*%
%TO.N,/stm32/PA9*%
X48387000Y32960000D03*
%TO.P,J4,8,Pin_8_8*%
%TO.N,/stm32/PA8*%
X48133000Y30420000D03*
%TO.P,J4,9,Pin_9_9*%
%TO.N,/stm32/PB15*%
X48387000Y27880000D03*
%TO.P,J4,10,Pin_10_10*%
%TO.N,/stm32/PB14*%
X48133000Y25340000D03*
%TO.P,J4,11,Pin_11_11*%
%TO.N,/stm32/PB13*%
X48387000Y22800000D03*
%TO.P,J4,12,Pin_12_12*%
%TO.N,/stm32/PB12*%
X48133000Y20260000D03*
%TO.P,J4,13,Pin_13_13*%
%TO.N,/stm32/PB11*%
X48387000Y17720000D03*
%TO.P,J4,14,Pin_14_14*%
%TO.N,/stm32/PB10*%
X48133000Y15180000D03*
%TO.P,J4,15,Pin_15_15*%
%TO.N,/stm32/PB2*%
X48387000Y12640000D03*
%TO.P,J4,16,Pin_16_16*%
%TO.N,/stm32/PB1*%
X48133000Y10100000D03*
%TO.P,J4,17,Pin_17_17*%
%TO.N,GND*%
X48387000Y7560000D03*
%TD*%
D25*
%TO.P,D1,1,K_1*%
%TO.N,Net-(D1-K)*%
X34039400Y69314200D03*
%TO.P,D1,2,A_2*%
%TO.N,/LED_GREEN*%
X34039400Y67439200D03*
%TD*%
D17*
%TO.P,R1,1*%
%TO.N,Net-(D1-K)*%
X34061400Y70635400D03*
%TO.P,R1,2*%
%TO.N,GND*%
X34061400Y71655400D03*
%TD*%
D26*
%TO.P,J1,1,Pin_1_1*%
%TO.N,PWR_IN_MIRROR*%
X48260000Y58360000D03*
D27*
%TO.P,J1,2,Pin_2_2*%
%TO.N,PWR_IN*%
X48260000Y60860000D03*
%TO.P,J1,3,Pin_3_3*%
%TO.N,unconnected-(J1-Pin_3-Pad3)*%
X48260000Y63360000D03*
%TO.P,J1,4,Pin_4_4*%
%TO.N,GND*%
X48260000Y65860000D03*
%TD*%
D28*
%TO.P,D105,1,K_1*%
%TO.N,Net-(D105-K)*%
X17221200Y69164200D03*
%TO.P,D105,2,A_2*%
%TO.N,VUSB*%
X17221200Y67589200D03*
%TD*%
D14*
%TO.P,C11,1*%
%TO.N,+3V3*%
X33756600Y57937400D03*
%TO.P,C11,2*%
%TO.N,GND*%
X34716600Y57937400D03*
%TD*%
%TO.P,C2,1*%
%TO.N,+3V3*%
X33754000Y55651400D03*
%TO.P,C2,2*%
%TO.N,GND*%
X34714000Y55651400D03*
%TD*%
D29*
%TO.P,R3,1*%
%TO.N,GND*%
X21800000Y30700000D03*
%TO.P,R3,2*%
%TO.N,/stm32/VBACK*%
X21800000Y29680000D03*
%TD*%
D30*
%TO.P,J104,1,VBUS_1*%
%TO.N,VUSB*%
X27575000Y64875000D03*
%TO.P,J104,2,D-_2*%
%TO.N,/DM*%
X26775000Y64875000D03*
%TO.P,J104,3,D+_3*%
%TO.N,/DP*%
X25975000Y64875000D03*
%TO.P,J104,4,ID_4*%
%TO.N,GND*%
X25175000Y64875000D03*
%TO.P,J104,5,GND_5*%
X24375000Y64875000D03*
D31*
%TO.P,J104,SH,Shield_SH*%
X30425000Y64975000D03*
X30425000Y70425000D03*
X21525000Y64975000D03*
X21525000Y70425000D03*
%TD*%
D19*
%TO.P,C103,1*%
%TO.N,+1V8*%
X27305000Y45209400D03*
%TO.P,C103,2*%
%TO.N,GND*%
X27305000Y44249400D03*
%TD*%
%TO.P,C108,1*%
%TO.N,TAG_3V3*%
X36728400Y45250200D03*
%TO.P,C108,2*%
%TO.N,GND*%
X36728400Y44290200D03*
%TD*%
D29*
%TO.P,R2,1*%
%TO.N,Net-(U5-PB5)*%
X29200000Y53700000D03*
%TO.P,R2,2*%
%TO.N,Net-(U5-PB4)*%
X29200000Y52680000D03*
%TD*%
D32*
%TO.P,U8,1,VCCA_1*%
%TO.N,+3V3*%
X31445200Y48004600D03*
%TO.P,U8,2,GND_2*%
%TO.N,GND*%
X30795200Y48004600D03*
%TO.P,U8,3,A_3*%
%TO.N,Net-(U5-PB4)*%
X30145200Y48004600D03*
%TO.P,U8,4,B_4*%
%TO.N,Net-(U8-B)*%
X30145200Y46329600D03*
%TO.P,U8,5,DIR_5*%
%TO.N,Net-(U5-PA15)*%
X30795200Y46329600D03*
%TO.P,U8,6,VCCB_6*%
%TO.N,+1V8*%
X31445200Y46329600D03*
%TD*%
D19*
%TO.P,C109,1*%
%TO.N,+1V8*%
X31470600Y45130600D03*
%TO.P,C109,2*%
%TO.N,GND*%
X31470600Y44170600D03*
%TD*%
D33*
%TO.P,U5,1,VDD_1*%
%TO.N,+3V3*%
X31798200Y55707400D03*
%TO.P,U5,2,PC14_2*%
%TO.N,unconnected-(U5-PC14-Pad2)*%
X31798200Y56207400D03*
%TO.P,U5,3,PC15_3*%
%TO.N,unconnected-(U5-PC15-Pad3)*%
X31798200Y56707400D03*
%TO.P,U5,4,~{NRST}_4*%
%TO.N,/NRST*%
X31798200Y57207400D03*
%TO.P,U5,5,VDDA/VREF+_5*%
%TO.N,+3V3*%
X31798200Y57707400D03*
%TO.P,U5,6,PA0_6*%
%TO.N,unconnected-(U5-PA0-Pad6)*%
X31798200Y58207400D03*
%TO.P,U5,7,PA1_7*%
%TO.N,/en1.8v*%
X31798200Y58707400D03*
%TO.P,U5,8,PA2_8*%
%TO.N,unconnected-(U5-PA2-Pad8)*%
X31798200Y59207400D03*
D34*
%TO.P,U5,9,PA3_9*%
%TO.N,/LED_GREEN*%
X31110700Y59894900D03*
%TO.P,U5,10,PA4_10*%
%TO.N,unconnected-(U5-PA4-Pad10)*%
X30610700Y59894900D03*
%TO.P,U5,11,PA5_11*%
%TO.N,unconnected-(U5-PA5-Pad11)*%
X30110700Y59894900D03*
%TO.P,U5,12,PA6_12*%
%TO.N,unconnected-(U5-PA6-Pad12)*%
X29610700Y59894900D03*
%TO.P,U5,13,PA7_13*%
%TO.N,unconnected-(U5-PA7-Pad13)*%
X29110700Y59894900D03*
%TO.P,U5,14,PB0_14*%
%TO.N,unconnected-(U5-PB0-Pad14)*%
X28610700Y59894900D03*
%TO.P,U5,15,PB1_15*%
%TO.N,unconnected-(U5-PB1-Pad15)*%
X28110700Y59894900D03*
%TO.P,U5,16,VSS_16*%
%TO.N,GND*%
X27610700Y59894900D03*
D33*
%TO.P,U5,17,VDD_17*%
%TO.N,+3V3*%
X26923200Y59207400D03*
%TO.P,U5,18,PA8_18*%
%TO.N,unconnected-(U5-PA8-Pad18)*%
X26923200Y58707400D03*
%TO.P,U5,19,PA9_19*%
%TO.N,/UART_TX*%
X26923200Y58207400D03*
%TO.P,U5,20,PA10_20*%
%TO.N,Net-(U5-PA10)*%
X26923200Y57707400D03*
%TO.P,U5,21,PA11_21*%
%TO.N,/USB_DM*%
X26923200Y57207400D03*
%TO.P,U5,22,PA12_22*%
%TO.N,/USB_DP*%
X26923200Y56707400D03*
%TO.P,U5,23,PA13_23*%
%TO.N,/SWDIO*%
X26923200Y56207400D03*
%TO.P,U5,24,PA14_24*%
%TO.N,/SCLK*%
X26923200Y55707400D03*
D34*
%TO.P,U5,25,PA15_25*%
%TO.N,Net-(U5-PA15)*%
X27610700Y55019900D03*
%TO.P,U5,26,PB3_26*%
%TO.N,Net-(U5-PB3)*%
X28110700Y55019900D03*
%TO.P,U5,27,PB4_27*%
%TO.N,Net-(U5-PB4)*%
X28610700Y55019900D03*
%TO.P,U5,28,PB5_28*%
%TO.N,Net-(U5-PB5)*%
X29110700Y55019900D03*
%TO.P,U5,29,PB6_29*%
%TO.N,unconnected-(U5-PB6-Pad29)*%
X29610700Y55019900D03*
%TO.P,U5,30,PB7_30*%
%TO.N,unconnected-(U5-PB7-Pad30)*%
X30110700Y55019900D03*
%TO.P,U5,31,BOOT0_31*%
%TO.N,/boot0*%
X30610700Y55019900D03*
%TO.P,U5,32,VSS_32*%
%TO.N,GND*%
X31110700Y55019900D03*
D35*
%TO.P,U5,33,GND_33*%
X29360700Y57457400D03*
%TD*%
D15*
%TO.P,C105,1*%
%TO.N,+1V8*%
X39723000Y55930800D03*
%TO.P,C105,2*%
%TO.N,GND*%
X38763000Y55930800D03*
%TD*%
D36*
%TO.P,D4,1,K_1*%
%TO.N,TAG_3V3*%
X41715000Y64897000D03*
%TO.P,D4,2,A_2*%
%TO.N,PWR_IN*%
X43815000Y64897000D03*
%TD*%
D37*
%TO.P,U11,1,OUT_1*%
%TO.N,TAG_1V8*%
X38812043Y45306000D03*
D38*
%TO.P,U11,2,GND_2*%
%TO.N,GND*%
X38812043Y45956000D03*
D39*
%TO.P,U11,3,EN_3*%
%TO.N,TAG_3V3*%
X37952043Y45956000D03*
D40*
%TO.P,U11,4,IN_4*%
X37952043Y45306000D03*
D41*
%TO.P,U11,5,Thermal_PAD_5*%
%TO.N,GND*%
X38382043Y45631000D03*
%TD*%
D42*
%TO.P,U3,1,VDD_1*%
%TO.N,TAG_1V8*%
X28417500Y27495000D03*
%TO.P,U3,2,PC14_2*%
%TO.N,/stm32/clkout*%
X28417500Y26995000D03*
%TO.P,U3,3,PC15_3*%
%TO.N,unconnected-(U3-PC15-Pad3)*%
X28417500Y26495000D03*
%TO.P,U3,4,~{NRST}_4*%
%TO.N,/stm32/NRST*%
X28417500Y25995000D03*
%TO.P,U3,5,VDDA/VREF+_5*%
%TO.N,TAG_1V8*%
X28417500Y25495000D03*
%TO.P,U3,6,PA0_6*%
%TO.N,/stm32/PA0*%
X28417500Y24995000D03*
%TO.P,U3,7,PA1_7*%
%TO.N,/stm32/PA1*%
X28417500Y24495000D03*
%TO.P,U3,8,PA2_8*%
%TO.N,/stm32/PA2*%
X28417500Y23995000D03*
D43*
%TO.P,U3,9,PA3_9*%
%TO.N,/stm32/PA3*%
X29105000Y23307500D03*
%TO.P,U3,10,PA4_10*%
%TO.N,/stm32/PA4*%
X29605000Y23307500D03*
%TO.P,U3,11,PA5_11*%
%TO.N,/stm32/PA5*%
X30105000Y23307500D03*
%TO.P,U3,12,PA6_12*%
%TO.N,/stm32/PA6*%
X30605000Y23307500D03*
%TO.P,U3,13,PA7_13*%
%TO.N,/stm32/PA7*%
X31105000Y23307500D03*
%TO.P,U3,14,PB0_14*%
%TO.N,/stm32/PB0*%
X31605000Y23307500D03*
%TO.P,U3,15,PB1_15*%
%TO.N,/stm32/PB1*%
X32105000Y23307500D03*
%TO.P,U3,16,VSS_16*%
%TO.N,GND*%
X32605000Y23307500D03*
D42*
%TO.P,U3,17,VDD_17*%
%TO.N,TAG_1V8*%
X33292500Y23995000D03*
%TO.P,U3,18,PA8_18*%
%TO.N,/stm32/PA8*%
X33292500Y24495000D03*
%TO.P,U3,19,PA9_19*%
%TO.N,/stm32/PA9*%
X33292500Y24995000D03*
%TO.P,U3,20,PA10_20*%
%TO.N,/stm32/PA10*%
X33292500Y25495000D03*
%TO.P,U3,21,PA11_21*%
%TO.N,/stm32/PA11*%
X33292500Y25995000D03*
%TO.P,U3,22,PA12_22*%
%TO.N,/stm32/PA12*%
X33292500Y26495000D03*
%TO.P,U3,23,PA13_23*%
%TO.N,TAG_SWDIO*%
X33292500Y26995000D03*
%TO.P,U3,24,PA14_24*%
%TO.N,TAG_SCK*%
X33292500Y27495000D03*
D43*
%TO.P,U3,25,PA15_25*%
%TO.N,/stm32/PA15*%
X32605000Y28182500D03*
%TO.P,U3,26,PB3_26*%
%TO.N,/stm32/PB3*%
X32105000Y28182500D03*
%TO.P,U3,27,PB4_27*%
%TO.N,/stm32/PB4*%
X31605000Y28182500D03*
%TO.P,U3,28,PB5_28*%
%TO.N,/stm32/PB5*%
X31105000Y28182500D03*
%TO.P,U3,29,PB6_29*%
%TO.N,/stm32/rtc_sda*%
X30605000Y28182500D03*
%TO.P,U3,30,BOOT0-PB7_30*%
%TO.N,/stm32/rtc_scl*%
X30105000Y28182500D03*
%TO.P,U3,31,VCAP_31*%
%TO.N,Net-(U3-VCAP)*%
X29605000Y28182500D03*
%TO.P,U3,32,VSS_32*%
%TO.N,GND*%
X29105000Y28182500D03*
D35*
%TO.P,U3,33,GND_33*%
X30855000Y25745000D03*
%TD*%
D18*
%TO.P,C106,1*%
%TO.N,TAG_1V8*%
X40055800Y45090200D03*
%TO.P,C106,2*%
%TO.N,GND*%
X40055800Y46050200D03*
%TD*%
D29*
%TO.P,R107,1*%
%TO.N,Net-(D105-K)*%
X15500000Y68900000D03*
%TO.P,R107,2*%
%TO.N,GND*%
X15500000Y67880000D03*
%TD*%
%TO.P,R106,1*%
%TO.N,Net-(U8-B)*%
X30200000Y45160000D03*
%TO.P,R106,2*%
%TO.N,TAG_SWDIO*%
X30200000Y44140000D03*
%TD*%
D44*
%TO.P,U10,1,VIN_1*%
%TO.N,+3V3*%
X39563000Y59692300D03*
%TO.P,U10,2,GND_2*%
%TO.N,GND*%
X38613000Y59692300D03*
%TO.P,U10,3,EN_3*%
%TO.N,/en1.8v*%
X37663000Y59692300D03*
%TO.P,U10,4,NC_4*%
%TO.N,unconnected-(U10-NC-Pad4)*%
X37663000Y57417300D03*
%TO.P,U10,5,VOUT_5*%
%TO.N,+1V8*%
X39563000Y57417300D03*
%TD*%
D19*
%TO.P,C110,1*%
%TO.N,+3V3*%
X28400000Y47660000D03*
%TO.P,C110,2*%
%TO.N,GND*%
X28400000Y46700000D03*
%TD*%
D45*
%TO.P,U2,1,OUT_1*%
%TO.N,TAG_3V3*%
X42291000Y66736200D03*
%TO.P,U2,2,GND_2*%
%TO.N,GND*%
X42291000Y67386200D03*
%TO.P,U2,3,~{ON}_3*%
%TO.N,PWR_IN_MIRROR*%
X42291000Y68036200D03*
%TO.P,U2,4,IN_4*%
%TO.N,+3V3*%
X40616000Y68036200D03*
%TO.P,U2,5,GND_5*%
%TO.N,GND*%
X40616000Y67386200D03*
%TO.P,U2,6,NC_6*%
%TO.N,unconnected-(U2-NC-Pad6)*%
X40616000Y66736200D03*
%TD*%
D19*
%TO.P,C102,1*%
%TO.N,VUSB*%
X22656800Y61031000D03*
%TO.P,C102,2*%
%TO.N,GND*%
X22656800Y60071000D03*
%TD*%
D32*
%TO.P,U7,1,VCCA_1*%
%TO.N,+3V3*%
X27233400Y48042293D03*
%TO.P,U7,2,GND_2*%
%TO.N,GND*%
X26583400Y48042293D03*
%TO.P,U7,3,A_3*%
%TO.N,Net-(U5-PB3)*%
X25933400Y48042293D03*
%TO.P,U7,4,B_4*%
%TO.N,TAG_SCK*%
X25933400Y46367293D03*
%TO.P,U7,5,DIR_5*%
%TO.N,+3V3*%
X26583400Y46367293D03*
%TO.P,U7,6,VCCB_6*%
%TO.N,+1V8*%
X27233400Y46367293D03*
%TD*%
D15*
%TO.P,C8,1*%
%TO.N,Net-(U3-VCAP)*%
X29083000Y29514800D03*
%TO.P,C8,2*%
%TO.N,GND*%
X28123000Y29514800D03*
%TD*%
D29*
%TO.P,R7,1*%
%TO.N,PWR_IN_MIRROR*%
X43713400Y67894200D03*
%TO.P,R7,2*%
%TO.N,GND*%
X43713400Y66874200D03*
%TD*%
D46*
%TO.P,U4,1,I/O1_1*%
%TO.N,/USB_DP*%
X23977600Y59768000D03*
D47*
%TO.P,U4,2,GND_2*%
%TO.N,GND*%
X24515100Y59693000D03*
D46*
%TO.P,U4,3,I/O2_3*%
%TO.N,/USB_DM*%
X25052600Y59768000D03*
%TO.P,U4,4,I/O2_4*%
%TO.N,/DM*%
X25052600Y61468000D03*
D47*
%TO.P,U4,5,VBUS_5*%
%TO.N,VUSB*%
X24515100Y61543000D03*
D46*
%TO.P,U4,6,I/O1_6*%
%TO.N,/DP*%
X23977600Y61468000D03*
%TD*%
D15*
%TO.P,C12,1*%
%TO.N,+3V3*%
X39497000Y61341000D03*
%TO.P,C12,2*%
%TO.N,GND*%
X38537000Y61341000D03*
%TD*%
D19*
%TO.P,C111,1*%
%TO.N,+3V3*%
X32600000Y48100000D03*
%TO.P,C111,2*%
%TO.N,GND*%
X32600000Y47140000D03*
%TD*%
D48*
%TO.N,+3V3*%
X32700000Y48900000D03*
X28400000Y48400000D03*
X40800000Y54100000D03*
X38587600Y65887600D03*
X40623400Y48076600D03*
X40792300Y59692300D03*
X33045400Y58140600D03*
X34137600Y54787800D03*
X26800000Y61900000D03*
%TO.N,GND*%
X26700000Y54500000D03*
X10100000Y57700000D03*
X38836600Y71526400D03*
X20800000Y35400000D03*
X22968400Y27271000D03*
X35356800Y56743600D03*
X35890200Y51638200D03*
X17000000Y53500000D03*
X25300000Y29500000D03*
X36398200Y65836800D03*
X39700200Y67360800D03*
X35700000Y33600000D03*
X24200000Y63200000D03*
X32080200Y44170600D03*
X28016200Y44272200D03*
X25100000Y63300000D03*
X15595600Y67106800D03*
X30759400Y49149000D03*
X37795200Y61341000D03*
X24866600Y25628600D03*
X27323835Y29543600D03*
X33300000Y34900000D03*
X35000000Y36150000D03*
X27900000Y50600000D03*
X29750000Y26850000D03*
X43713400Y66268600D03*
X18000000Y57800000D03*
X34112200Y72491600D03*
X39420800Y46431200D03*
X29438600Y58445400D03*
X28309050Y58509050D03*
X24600000Y36700000D03*
X35382200Y57937400D03*
X31950000Y24650000D03*
X29309050Y57509050D03*
X32300000Y33400000D03*
X29413200Y56718200D03*
X35280600Y55651400D03*
X21800000Y55100000D03*
X18000000Y59100000D03*
X28575000Y61137800D03*
X36652200Y43650000D03*
X19989800Y51943000D03*
X31100000Y26000000D03*
X24800000Y60600000D03*
X33400000Y23043600D03*
X20700000Y61200000D03*
X38203434Y55827366D03*
X36118800Y66675000D03*
X22943000Y31182600D03*
X26670000Y49276000D03*
X32400000Y46500000D03*
X28400000Y46100000D03*
%TO.N,/NRST*%
X32918400Y56819800D03*
%TO.N,Net-(U5-PA10)*%
X25800000Y57863800D03*
X22936200Y54856400D03*
%TO.N,TAG_1V8*%
X42500000Y45090200D03*
X27405000Y25651400D03*
X27500000Y27758200D03*
X21099200Y28693400D03*
X35433000Y23926800D03*
%TO.N,/stm32/NRST*%
X25746200Y36608200D03*
X25500000Y27500000D03*
%TO.N,/UART_TX*%
X20700000Y60300000D03*
X25848088Y58700000D03*
%TO.N,/stm32/rtc_scl*%
X22100000Y35000000D03*
X25200000Y30400000D03*
%TO.N,/stm32/PB3*%
X34600000Y34600000D03*
X32387078Y32503373D03*
%TO.N,/stm32/PA15*%
X34700000Y33700000D03*
X32600000Y31600000D03*
%TO.N,+1V8*%
X27990600Y45209400D03*
X32169400Y45130600D03*
%TO.N,Net-(U5-PB4)*%
X30145200Y49804800D03*
%TO.N,Net-(U5-PA15)*%
X28450000Y51900000D03*
X27454300Y54100000D03*
%TO.N,Net-(U5-PB3)*%
X25900000Y50100000D03*
%TD*%
%TO.N,+3V3*%
D49*
X32893000Y57707400D02*
X33526600Y57707400D01*
X34137600Y55267800D02*
X33754000Y55651400D01*
X41529000Y48076600D02*
X40623400Y48076600D01*
X32600000Y48800000D02*
X32700000Y48900000D01*
X26827600Y61163200D02*
X26827600Y61872400D01*
X37922200Y62915800D02*
X39497000Y61341000D01*
X38313500Y67791660D02*
X38313500Y66278900D01*
X32600000Y48100000D02*
X32600000Y48800000D01*
X38587600Y65887600D02*
X38600000Y65900000D01*
X39497000Y61341000D02*
X39497000Y59758300D01*
X38558040Y68036200D02*
X38313500Y67791660D01*
X40792300Y59692300D02*
X40800000Y59700000D01*
X27233400Y47329251D02*
X26583400Y46679251D01*
X33756600Y57937400D02*
X33248600Y57937400D01*
X28017707Y48042293D02*
X28400000Y47660000D01*
X26889937Y59240663D02*
X26923200Y59207400D01*
X31798200Y55707400D02*
X33698000Y55707400D01*
X26583400Y46679251D02*
X26583400Y46367293D01*
X40623400Y48076600D02*
X40600000Y48100000D01*
X33248600Y57937400D02*
X33045400Y58140600D01*
X33526600Y57707400D02*
X33756600Y57937400D01*
X41529000Y54076600D02*
X40823400Y54076600D01*
X31798200Y57707400D02*
X32893000Y57707400D01*
X27233400Y48042293D02*
X27233400Y47329251D01*
X40616000Y68036200D02*
X38558040Y68036200D01*
X33698000Y55707400D02*
X33754000Y55651400D01*
X26827600Y61163200D02*
X26827600Y59303000D01*
X39563000Y59692300D02*
X39563000Y59440222D01*
X27233400Y48042293D02*
X28017707Y48042293D01*
X37922200Y65887600D02*
X37922200Y62915800D01*
X39497000Y59758300D02*
X39563000Y59692300D01*
X40823400Y54076600D02*
X40800000Y54100000D01*
X34137600Y54787800D02*
X34137600Y55267800D01*
X39563000Y59692300D02*
X40792300Y59692300D01*
X38313500Y66278900D02*
X37922200Y65887600D01*
X28400000Y47660000D02*
X28400000Y48400000D01*
X26827600Y61872400D02*
X26800000Y61900000D01*
X37922200Y65887600D02*
X38587600Y65887600D01*
D50*
X38220160Y68122500D02*
X38213500Y68129160D01*
%TO.N,/SWDIO*%
D49*
X16941800Y59664600D02*
X20066000Y59664600D01*
X23523200Y56207400D02*
X26923200Y56207400D01*
X20066000Y59664600D02*
X23523200Y56207400D01*
%TO.N,GND*%
X27610700Y60986300D02*
X27610700Y59894900D01*
X26583400Y49189400D02*
X26670000Y49276000D01*
X34691200Y56692800D02*
X35306000Y56692800D01*
X38537000Y59768300D02*
X38613000Y59692300D01*
X29360700Y57457400D02*
X29360700Y56770700D01*
X30835600Y49225200D02*
X30759400Y49149000D01*
X43713400Y66874200D02*
X43713400Y66268600D01*
X24541600Y26670000D02*
X24541600Y25953600D01*
X27025600Y29560400D02*
X27108800Y29643600D01*
X27787600Y61163200D02*
X28549600Y61163200D01*
X22936800Y27302600D02*
X22968400Y27271000D01*
X39420800Y46431200D02*
X39674800Y46431200D01*
X39287243Y46431200D02*
X39420800Y46431200D01*
X39961600Y45956000D02*
X40055800Y46050200D01*
X31470600Y44170600D02*
X32080200Y44170600D01*
X24286499Y60246600D02*
X24515100Y60017999D01*
X25529600Y25603200D02*
X24892000Y25603200D01*
X34061400Y71655400D02*
X34061400Y72440800D01*
X21800000Y30700000D02*
X22882600Y30700000D01*
X35306000Y56692800D02*
X35356800Y56743600D01*
X22656800Y60071000D02*
X22832400Y60246600D01*
X27993400Y44249400D02*
X28016200Y44272200D01*
X40616000Y67386200D02*
X39725600Y67386200D01*
X32605000Y23307500D02*
X32605000Y23995000D01*
X42291000Y67386200D02*
X43201400Y67386200D01*
X25235000Y63435000D02*
X25100000Y63300000D01*
X20015200Y51917600D02*
X19989800Y51943000D01*
X22882600Y31122200D02*
X22943000Y31182600D01*
X29105000Y27495000D02*
X30855000Y25745000D01*
X22724400Y27733400D02*
X22936800Y27945800D01*
X28400000Y46700000D02*
X28400000Y46100000D01*
X25235000Y65364400D02*
X25235000Y63435000D01*
X29605000Y26995000D02*
X29750000Y26850000D01*
X32605000Y23307500D02*
X32868900Y23043600D01*
X31110700Y55707400D02*
X29360700Y57457400D01*
X32868900Y23043600D02*
X33400000Y23043600D01*
X38487043Y45631000D02*
X38812043Y45956000D01*
X32600000Y46700000D02*
X32400000Y46500000D01*
X31110700Y55019900D02*
X31110700Y55707400D01*
X24515100Y59693000D02*
X24515100Y60315100D01*
X39725600Y67386200D02*
X39700200Y67360800D01*
X24541600Y25953600D02*
X24866600Y25628600D01*
X32600000Y47140000D02*
X32600000Y46700000D01*
X34061400Y72440800D02*
X34112200Y72491600D01*
X24515100Y60315100D02*
X24800000Y60600000D01*
X22882600Y30700000D02*
X22936800Y30645800D01*
X43201400Y67386200D02*
X43713400Y66874200D01*
X35966400Y51714400D02*
X35890200Y51638200D01*
X29309050Y57509050D02*
X29360700Y57457400D01*
X38763000Y55930800D02*
X38306868Y55930800D01*
X15521200Y67866700D02*
X15521200Y67181200D01*
X38812043Y45956000D02*
X39961600Y45956000D01*
X32605000Y23995000D02*
X31950000Y24650000D01*
X22832400Y60246600D02*
X24286499Y60246600D01*
X15521200Y67181200D02*
X15595600Y67106800D01*
X28549600Y61163200D02*
X28575000Y61137800D01*
X38537000Y61341000D02*
X38537000Y59768300D01*
X38382043Y45631000D02*
X38487043Y45631000D01*
X22882600Y30700000D02*
X22882600Y31122200D01*
X38306868Y55930800D02*
X38203434Y55827366D01*
X29360700Y58367500D02*
X29438600Y58445400D01*
X26583400Y48042293D02*
X26583400Y49189400D01*
X36962200Y65887600D02*
X36347400Y65887600D01*
X37922200Y71983600D02*
X38379400Y71983600D01*
X36347400Y65887600D02*
X36398200Y65836800D01*
X27610700Y59207400D02*
X28309050Y58509050D01*
X21774600Y27733400D02*
X22724400Y27733400D01*
X28077400Y29560400D02*
X28123000Y29514800D01*
X21235400Y51917600D02*
X20015200Y51917600D01*
X27223835Y29643600D02*
X27323835Y29543600D01*
X28123000Y29514800D02*
X28123000Y29164500D01*
X38379400Y71983600D02*
X38836600Y71526400D01*
X27025600Y29560400D02*
X28077400Y29560400D01*
X38537000Y61341000D02*
X37795200Y61341000D01*
X29750000Y26850000D02*
X30855000Y25745000D01*
X36413500Y67791660D02*
X36413500Y66969700D01*
X39674800Y46431200D02*
X40055800Y46050200D01*
X28309050Y58509050D02*
X29309050Y57509050D01*
X27305000Y44249400D02*
X27993400Y44249400D01*
X33400000Y23043600D02*
X34543400Y23043600D01*
X24892000Y25603200D02*
X24866600Y25628600D01*
X29105000Y28182500D02*
X29105000Y27495000D01*
X30855000Y25755000D02*
X31100000Y26000000D01*
X36413500Y66969700D02*
X36118800Y66675000D01*
X36728400Y44290200D02*
X36728400Y43726200D01*
X27108800Y29643600D02*
X27223835Y29643600D01*
X24435000Y65364400D02*
X24435000Y63435000D01*
X24435000Y63435000D02*
X24200000Y63200000D01*
X27610700Y59894900D02*
X27610700Y59207400D01*
X25235000Y65364400D02*
X24435000Y65364400D01*
X38812043Y45956000D02*
X39287243Y46431200D01*
X34716600Y57937400D02*
X35382200Y57937400D01*
X22936800Y27945800D02*
X22936800Y27302600D01*
X30795200Y49113200D02*
X30759400Y49149000D01*
X34543400Y23043600D02*
X34721800Y22865200D01*
D50*
X36313500Y68129160D02*
X36313500Y67879160D01*
D49*
X30795200Y48004600D02*
X30795200Y49113200D01*
X30855000Y25745000D02*
X30855000Y25755000D01*
X27787600Y61163200D02*
X27610700Y60986300D01*
X35966400Y52269200D02*
X35966400Y51714400D01*
X29360700Y56770700D02*
X29413200Y56718200D01*
X28123000Y29164500D02*
X29105000Y28182500D01*
X29360700Y57457400D02*
X29360700Y58367500D01*
X34714000Y55651400D02*
X35280600Y55651400D01*
X42291000Y67386200D02*
X40616000Y67386200D01*
X31950000Y24650000D02*
X30855000Y25745000D01*
X24515100Y60017999D02*
X24515100Y59693000D01*
%TO.N,/SCLK*%
X22192600Y55707400D02*
X19505400Y58394600D01*
X26923200Y55707400D02*
X22192600Y55707400D01*
X19505400Y58394600D02*
X16941800Y58394600D01*
%TO.N,/NRST*%
X33216600Y57207400D02*
X33731200Y56692800D01*
X31798200Y57207400D02*
X33216600Y57207400D01*
X33731200Y56692800D02*
X33045400Y56692800D01*
X33045400Y56692800D02*
X32918400Y56819800D01*
%TO.N,/boot0*%
X37779000Y54076600D02*
X37779000Y48076600D01*
X30610700Y55019900D02*
X30610700Y54479300D01*
X36991600Y53289200D02*
X37779000Y54076600D01*
X31800800Y53289200D02*
X35966400Y53289200D01*
X35966400Y53289200D02*
X36991600Y53289200D01*
X30610700Y54479300D02*
X31800800Y53289200D01*
%TO.N,VUSB*%
X23164800Y61493400D02*
X23241000Y61417200D01*
D50*
X37198200Y70194460D02*
X37263500Y70129160D01*
D49*
X24101870Y60883800D02*
X24515100Y61297030D01*
X22656800Y61031000D02*
X22854800Y61031000D01*
X23241000Y61417200D02*
X23774400Y60883800D01*
X36962200Y71983600D02*
X36962200Y70467960D01*
X36962200Y70467960D02*
X37363500Y70066660D01*
X24515100Y61297030D02*
X24515100Y61543000D01*
D50*
X37251000Y70116660D02*
X37263500Y70129160D01*
X31031500Y68331500D02*
X35628340Y68331500D01*
X27575000Y65075000D02*
X27575000Y64875000D01*
X35628340Y68331500D02*
X37363500Y70066660D01*
D49*
X27575000Y65782200D02*
X27575000Y64875000D01*
X22854800Y61031000D02*
X23241000Y61417200D01*
X17221200Y67589200D02*
X18706800Y66103600D01*
X27253600Y66103600D02*
X27575000Y65782200D01*
X23774400Y60883800D02*
X24101870Y60883800D01*
X23164800Y66103600D02*
X27253600Y66103600D01*
X23164800Y66103600D02*
X23164800Y61493400D01*
D50*
X27575000Y64875000D02*
X31031500Y68331500D01*
D49*
X18706800Y66103600D02*
X23164800Y66103600D01*
%TO.N,Net-(U5-PA10)*%
X26923200Y57707400D02*
X25956400Y57707400D01*
X25956400Y57707400D02*
X25800000Y57863800D01*
X21789200Y53990199D02*
X22655401Y54856400D01*
X21789200Y53670200D02*
X21789200Y53990199D01*
X22655401Y54856400D02*
X22936200Y54856400D01*
%TO.N,TAG_RESET*%
X22809200Y53670200D02*
X22809200Y52243800D01*
X22809200Y52243800D02*
X23135400Y51917600D01*
%TO.N,TAG_1V8*%
X27025600Y28600400D02*
X27025600Y28232600D01*
X21774600Y28693400D02*
X21099200Y28693400D01*
X27500000Y27738900D02*
X27500000Y27758200D01*
X34552000Y23995000D02*
X34721800Y23825200D01*
X21099200Y28693400D02*
X21075600Y28717000D01*
X27561400Y25495000D02*
X27405000Y25651400D01*
X22784400Y28693400D02*
X22936800Y28845800D01*
X21774600Y28693400D02*
X22784400Y28693400D01*
X33292500Y23995000D02*
X34552000Y23995000D01*
X34721800Y23825200D02*
X35331400Y23825200D01*
X27456250Y27695150D02*
X27500000Y27738900D01*
X28417500Y25495000D02*
X27561400Y25495000D01*
X42500000Y45090200D02*
X40055800Y45090200D01*
X38812043Y45306000D02*
X39840000Y45306000D01*
X39840000Y45306000D02*
X40055800Y45090200D01*
X28154300Y27758200D02*
X28417500Y27495000D01*
X27400000Y25500000D02*
X27400000Y25646400D01*
X27500000Y27758200D02*
X28154300Y27758200D01*
X27400000Y25646400D02*
X27405000Y25651400D01*
X27025600Y28232600D02*
X27500000Y27758200D01*
X26489600Y25603200D02*
X27356800Y25603200D01*
X35331400Y23825200D02*
X35433000Y23926800D01*
X27356800Y25603200D02*
X27405000Y25651400D01*
%TO.N,/stm32/NRST*%
X22185400Y40169000D02*
X25746200Y36608200D01*
X22185400Y50042600D02*
X22185400Y40169000D01*
X28066590Y25995000D02*
X28417500Y25995000D01*
X25501600Y27498400D02*
X25500000Y27500000D01*
X27391590Y26670000D02*
X28066590Y25995000D01*
X25501600Y26670000D02*
X25501600Y27498400D01*
X25501600Y26670000D02*
X27391590Y26670000D01*
%TO.N,/UART_TX*%
X13300000Y61800000D02*
X19200000Y61800000D01*
X25848088Y58700000D02*
X26340688Y58207400D01*
X26340688Y58207400D02*
X26923200Y58207400D01*
X9925000Y58425000D02*
X13300000Y61800000D01*
X19200000Y61800000D02*
X20700000Y60300000D01*
X8610600Y58425000D02*
X9925000Y58425000D01*
%TO.N,/stm32/PB4*%
X11159342Y48200000D02*
X5080000Y48200000D01*
X31605000Y34384200D02*
X30149800Y35839400D01*
X30149800Y35839400D02*
X23519942Y35839400D01*
X31480000Y28307500D02*
X31480000Y31939342D01*
X31605000Y28182500D02*
X31480000Y28307500D01*
X23519942Y35839400D02*
X11159342Y48200000D01*
X31480000Y31939342D02*
X31605000Y32064342D01*
X31605000Y32064342D02*
X31605000Y34384200D01*
%TO.N,/stm32/PB5*%
X31105000Y33969800D02*
X29616400Y35458400D01*
X31105000Y28182500D02*
X31105000Y33969800D01*
X5080000Y45660000D02*
X13268290Y45660000D01*
X23469890Y35458400D02*
X22813786Y36114504D01*
X13268290Y45660000D02*
X22813786Y36114504D01*
X29616400Y35458400D02*
X23469890Y35458400D01*
%TO.N,/stm32/rtc_scl*%
X25200000Y30200000D02*
X24900000Y30200000D01*
X30105000Y29595000D02*
X29500000Y30200000D01*
X24900000Y30200000D02*
X24445800Y29745800D01*
X25200000Y30200000D02*
X25200000Y30400000D01*
X29500000Y30200000D02*
X25200000Y30200000D01*
X22100000Y35000000D02*
X18850000Y38250000D01*
X24445800Y29745800D02*
X24136800Y29745800D01*
X18850000Y38250000D02*
X9950000Y38250000D01*
X30105000Y28182500D02*
X30105000Y29595000D01*
X5080000Y43120000D02*
X9950000Y38250000D01*
%TO.N,/stm32/rtc_sda*%
X24689200Y31048200D02*
X29082852Y31048200D01*
X30605000Y29526052D02*
X30605000Y28182500D01*
X24136800Y30645800D02*
X24286800Y30645800D01*
X24136800Y30645800D02*
X24136800Y31763200D01*
X21190380Y34709620D02*
X10950380Y34709620D01*
X24286800Y30645800D02*
X24689200Y31048200D01*
X29082852Y31048200D02*
X30605000Y29526052D01*
X10950380Y34709620D02*
X5080000Y40580000D01*
X24136800Y31763200D02*
X21190380Y34709620D01*
%TO.N,/stm32/PA0*%
X4953000Y30420000D02*
X10378000Y24995000D01*
X10378000Y24995000D02*
X28417500Y24995000D01*
%TO.N,/stm32/PA1*%
X8592000Y24495000D02*
X5207000Y27880000D01*
X28417500Y24495000D02*
X8592000Y24495000D01*
%TO.N,/stm32/PA2*%
X4953000Y25340000D02*
X6298000Y23995000D01*
X6298000Y23995000D02*
X28417500Y23995000D01*
%TO.N,/stm32/PA3*%
X28597500Y22800000D02*
X29105000Y23307500D01*
X5207000Y22800000D02*
X28597500Y22800000D01*
%TO.N,/stm32/PA4*%
X4953000Y20260000D02*
X6511600Y21818600D01*
X29108400Y21818600D02*
X29605000Y22315200D01*
X29605000Y22315200D02*
X29605000Y23307500D01*
X6511600Y21818600D02*
X29108400Y21818600D01*
%TO.N,/stm32/PA5*%
X25830422Y17720000D02*
X30105000Y21994578D01*
X30105000Y21994578D02*
X30105000Y23307500D01*
X5080000Y17720000D02*
X25830422Y17720000D01*
%TO.N,/stm32/PA6*%
X29100000Y20237867D02*
X27038816Y18176684D01*
X5080000Y15180000D02*
X24042132Y15180000D01*
X24042132Y15180000D02*
X27038816Y18176684D01*
X30600000Y21900000D02*
X29100000Y20400000D01*
X30605000Y22870001D02*
X30600000Y22865001D01*
X30605000Y23307500D02*
X30605000Y22870001D01*
X30600000Y22865001D02*
X30600000Y21900000D01*
X29100000Y20400000D02*
X29100000Y20237867D01*
%TO.N,/stm32/PA7*%
X31105000Y23307500D02*
X31105000Y21811800D01*
X21933200Y12640000D02*
X26046600Y16753400D01*
X31105000Y21811800D02*
X29546600Y20253400D01*
X26046600Y16753400D02*
X29546600Y20253400D01*
X5080000Y12640000D02*
X21933200Y12640000D01*
%TO.N,/stm32/PB0*%
X20500000Y10100000D02*
X5080000Y10100000D01*
X31605000Y23307500D02*
X31605000Y21205000D01*
X31605000Y21205000D02*
X20500000Y10100000D01*
%TO.N,/stm32/clkout*%
X26849000Y26995000D02*
X28417500Y26995000D01*
X24136800Y27945800D02*
X24286800Y27945800D01*
X24689200Y28348200D02*
X25495800Y28348200D01*
X24286800Y27945800D02*
X24689200Y28348200D01*
X25495800Y28348200D02*
X26849000Y26995000D01*
%TO.N,/stm32/VBACK*%
X22936800Y29745800D02*
X21865800Y29745800D01*
X21865800Y29745800D02*
X21800000Y29680000D01*
%TO.N,/stm32/PB3*%
X31843600Y31328110D02*
X31843600Y31843600D01*
X43700000Y43700000D02*
X46300000Y43700000D01*
X46300000Y43700000D02*
X48260000Y45660000D01*
X32387078Y32387078D02*
X32387078Y32503373D01*
X32105000Y28182500D02*
X32105000Y31066710D01*
X31843600Y31843600D02*
X32387078Y32387078D01*
X32105000Y31066710D02*
X31843600Y31328110D01*
X34600000Y34600000D02*
X43700000Y43700000D01*
%TO.N,/stm32/PA15*%
X45539660Y43120000D02*
X48260000Y43120000D01*
X44100000Y43100000D02*
X44100000Y43120000D01*
X32600000Y31600000D02*
X32605000Y31595000D01*
X44100000Y43120000D02*
X45539660Y43120000D01*
X32524699Y31675301D02*
X32600000Y31600000D01*
X34700000Y33700000D02*
X44100000Y43100000D01*
X32605000Y31595000D02*
X32605000Y28182500D01*
%TO.N,/stm32/PA12*%
X41996360Y32104858D02*
X36391502Y26500000D01*
X41996360Y36856360D02*
X41996360Y32104858D01*
X36391502Y26500000D02*
X34512500Y26500000D01*
X48260000Y40580000D02*
X45720000Y40580000D01*
X34507500Y26495000D02*
X34512500Y26500000D01*
X33292500Y26495000D02*
X34507500Y26495000D01*
X45720000Y40580000D02*
X41996360Y36856360D01*
%TO.N,/stm32/PA11*%
X33292500Y25995000D02*
X34507500Y25995000D01*
X42301171Y31893944D02*
X36407227Y26000000D01*
X34507500Y25995000D02*
X34512500Y26000000D01*
X36407227Y26000000D02*
X34512500Y26000000D01*
X42301171Y34621171D02*
X42301171Y31893944D01*
X48260000Y38040000D02*
X45720000Y38040000D01*
X45720000Y38040000D02*
X42301171Y34621171D01*
%TO.N,/stm32/PA10*%
X45720000Y35500000D02*
X48260000Y35500000D01*
X33417499Y25370001D02*
X37070001Y25370001D01*
X42605982Y32385983D02*
X45356780Y35136780D01*
X33292500Y25495000D02*
X33417499Y25370001D01*
X45356780Y35136780D02*
X45720000Y35500000D01*
X42605982Y30905982D02*
X42605982Y32385983D01*
X37070001Y25370001D02*
X42605982Y30905982D01*
%TO.N,/stm32/PA9*%
X34507500Y24995000D02*
X34512500Y25000000D01*
X37760000Y25000000D02*
X45720000Y32960000D01*
X45720000Y32960000D02*
X48260000Y32960000D01*
X33292500Y24995000D02*
X34507500Y24995000D01*
X34512500Y25000000D02*
X37760000Y25000000D01*
%TO.N,/stm32/PA8*%
X34507500Y24495000D02*
X34512500Y24500000D01*
X34512500Y24500000D02*
X39800000Y24500000D01*
X45720000Y30420000D02*
X48260000Y30420000D01*
X39800000Y24500000D02*
X45720000Y30420000D01*
X33292500Y24495000D02*
X34507500Y24495000D01*
%TO.N,/stm32/PB1*%
X38497200Y19735800D02*
X33375600Y19735800D01*
X32105000Y21006400D02*
X32105000Y23307500D01*
X33375600Y19735800D02*
X32105000Y21006400D01*
X48133000Y10100000D02*
X38497200Y19735800D01*
%TO.N,Net-(D1-K)*%
X34061400Y70635400D02*
X34061400Y69186200D01*
X34061400Y69186200D02*
X34039400Y69164200D01*
%TO.N,/LED_GREEN*%
X34039400Y67589200D02*
X34039400Y64621000D01*
X34039400Y64621000D02*
X31110700Y61692300D01*
X31110700Y61692300D02*
X31110700Y59894900D01*
%TO.N,PWR_IN_MIRROR*%
X49463600Y61306771D02*
X49463600Y59563600D01*
X43713400Y67894200D02*
X47056400Y64551200D01*
X43571400Y68036200D02*
X43713400Y67894200D01*
X47056400Y64551200D02*
X47056400Y62913229D01*
X48831771Y61938600D02*
X49463600Y61306771D01*
X48031029Y61938600D02*
X48831771Y61938600D01*
X49463600Y59563600D02*
X48260000Y58360000D01*
X47056400Y62913229D02*
X48031029Y61938600D01*
X42291000Y68036200D02*
X43571400Y68036200D01*
%TO.N,PWR_IN*%
X43815000Y64897000D02*
X44223000Y64897000D01*
X44223000Y64897000D02*
X48260000Y60860000D01*
%TO.N,Net-(D105-K)*%
X16943700Y68886700D02*
X17221200Y69164200D01*
X15521200Y68886700D02*
X16943700Y68886700D01*
%TO.N,/DM*%
X26775000Y63190400D02*
X26775000Y64875000D01*
X25052600Y61468000D02*
X26775000Y63190400D01*
X26835000Y65364400D02*
X26835000Y64062000D01*
%TO.N,/DP*%
X25975000Y64875000D02*
X25975000Y63211400D01*
X25975000Y63211400D02*
X25044400Y62280800D01*
X26035000Y65364400D02*
X26035000Y64062000D01*
X23977600Y62001400D02*
X23977600Y61468000D01*
X25044400Y62280800D02*
X24257000Y62280800D01*
X23977600Y62001400D02*
X24257000Y62280800D01*
%TO.N,+1V8*%
X32169400Y45130600D02*
X32200000Y45100000D01*
X34500000Y46990000D02*
X34028800Y46990000D01*
X27233400Y46367293D02*
X27233400Y45281000D01*
X39563000Y56090800D02*
X39723000Y55930800D01*
X39723000Y55930800D02*
X39723000Y48688400D01*
X27990600Y45209400D02*
X28000000Y45200000D01*
X34028800Y46990000D02*
X32169400Y45130600D01*
X39563000Y57417300D02*
X39563000Y56090800D01*
X27305000Y45209400D02*
X27990600Y45209400D01*
X31445200Y46329600D02*
X31445200Y45156000D01*
X38024600Y46990000D02*
X34500000Y46990000D01*
X31445200Y45156000D02*
X31470600Y45130600D01*
X27233400Y45281000D02*
X27305000Y45209400D01*
X31470600Y45130600D02*
X32169400Y45130600D01*
X39723000Y48688400D02*
X38024600Y46990000D01*
%TO.N,TAG_3V3*%
X39692690Y47087600D02*
X39083643Y47087600D01*
X42014999Y64897000D02*
X42951400Y63960599D01*
X42291000Y66736200D02*
X41715000Y66160200D01*
X42951400Y47625000D02*
X42265600Y46939200D01*
X39083643Y47087600D02*
X37952043Y45956000D01*
X42265600Y46939200D02*
X39841090Y46939200D01*
X37896243Y45250200D02*
X37952043Y45306000D01*
X41715000Y64897000D02*
X42014999Y64897000D01*
X39841090Y46939200D02*
X39692690Y47087600D01*
X36728400Y45250200D02*
X37896243Y45250200D01*
X42951400Y63960599D02*
X42951400Y47625000D01*
X37952043Y45956000D02*
X37434200Y45956000D01*
X41715000Y66160200D02*
X41715000Y64897000D01*
X37434200Y45956000D02*
X36728400Y45250200D01*
%TO.N,Net-(U5-PB5)*%
X29110700Y55019900D02*
X29110700Y53789300D01*
X29110700Y53789300D02*
X29200000Y53700000D01*
%TO.N,Net-(U5-PB4)*%
X29200000Y50750000D02*
X30145200Y49804800D01*
X28610700Y55019900D02*
X28610700Y53269300D01*
X29200000Y52680000D02*
X29200000Y50750000D01*
X28610700Y53269300D02*
X29200000Y52680000D01*
X30145200Y48004600D02*
X30145200Y49804800D01*
%TO.N,Net-(U8-B)*%
X30145200Y46329600D02*
X30145200Y45191200D01*
%TO.N,Net-(U5-PA15)*%
X30795200Y46329600D02*
X30795200Y46842099D01*
X27610700Y54256400D02*
X27454300Y54100000D01*
X30054100Y47070700D02*
X29287400Y47837400D01*
X27610700Y55019900D02*
X27610700Y54256400D01*
X28550000Y50550000D02*
X28550000Y51800000D01*
X30795200Y46842099D02*
X30566599Y47070700D01*
X30566599Y47070700D02*
X30054100Y47070700D01*
X29287400Y47837400D02*
X29287400Y49812600D01*
X29287400Y49812600D02*
X28550000Y50550000D01*
X28550000Y51800000D02*
X28450000Y51900000D01*
%TO.N,/en1.8v*%
X34470100Y59692300D02*
X37663000Y59692300D01*
X31798200Y58707400D02*
X33485200Y58707400D01*
X33485200Y58707400D02*
X34470100Y59692300D01*
%TO.N,/USB_DM*%
X25345200Y57207400D02*
X25052600Y57500000D01*
X25052600Y59768000D02*
X25052600Y57500000D01*
X26923200Y57207400D02*
X25345200Y57207400D01*
%TO.N,/USB_DP*%
X23977600Y59768000D02*
X23977600Y57848058D01*
X23977600Y57848058D02*
X25118258Y56707400D01*
X26923200Y56707400D02*
X25118258Y56707400D01*
%TO.N,Net-(U5-PB3)*%
X25900000Y50600000D02*
X25900000Y50100000D01*
X28110700Y52810700D02*
X25900000Y50600000D01*
X25900000Y50100000D02*
X25900000Y49464400D01*
X25933400Y48042293D02*
X25933400Y49431000D01*
X28110700Y55019900D02*
X28110700Y52810700D01*
X25900000Y49464400D02*
X25933400Y49431000D01*
%TO.N,TAG_SWDIO*%
X33729999Y26995000D02*
X33292500Y26995000D01*
X30200600Y44115800D02*
X30200600Y39399400D01*
X30200600Y39399400D02*
X34000000Y35600000D01*
X34000000Y35600000D02*
X34000000Y27265001D01*
X34000000Y27265001D02*
X33729999Y26995000D01*
%TO.N,TAG_SCK*%
X25933400Y46367293D02*
X25933400Y41138800D01*
X33292500Y31835790D02*
X33292500Y27495000D01*
X33111300Y33988700D02*
X33300000Y33800000D01*
X33300000Y33800000D02*
X33300000Y31843290D01*
X33083500Y33988700D02*
X33111300Y33988700D01*
X33300000Y31843290D02*
X33292500Y31835790D01*
X25933400Y41138800D02*
X33083500Y33988700D01*
%TO.N,Net-(U3-VCAP)*%
X29605000Y28992800D02*
X29605000Y28487300D01*
X29083000Y29514800D02*
X29605000Y28992800D01*
%TD*%
%TA.AperFunction,Conductor*%
%TO.N,GND*%
G36*
X46843862Y29830944D02*
G01*
X46859314Y29831606D01*
X46877236Y29821145D01*
X46897147Y29815298D01*
X46908220Y29803058D01*
X46920629Y29795815D01*
X46941292Y29766505D01*
X46971106Y29707991D01*
X47096794Y29534996D01*
X47096796Y29534994D01*
X47096798Y29534991D01*
X47247990Y29383799D01*
X47247993Y29383797D01*
X47247996Y29383794D01*
X47420991Y29258106D01*
X47562005Y29186256D01*
X47613620Y29137509D01*
X47630686Y29068594D01*
X47607786Y29001393D01*
X47578864Y28972054D01*
X47501989Y28916201D01*
X47350798Y28765010D01*
X47350796Y28765007D01*
X47225108Y28592013D01*
X47128029Y28401485D01*
X47128026Y28401479D01*
X47061952Y28198122D01*
X47061951Y28198117D01*
X47061951Y28198116D01*
X47028500Y27986916D01*
X47028500Y27773084D01*
X47058037Y27586599D01*
X47061952Y27561879D01*
X47109477Y27415611D01*
X47128028Y27358517D01*
X47225106Y27167991D01*
X47350794Y26994996D01*
X47350796Y26994994D01*
X47350798Y26994991D01*
X47501990Y26843799D01*
X47501993Y26843797D01*
X47501996Y26843794D01*
X47565026Y26798000D01*
X47578863Y26787947D01*
X47622217Y26731725D01*
X47628292Y26660989D01*
X47595161Y26598197D01*
X47562006Y26573746D01*
X47503629Y26544000D01*
X47420987Y26501892D01*
X47247993Y26376204D01*
X47247990Y26376202D01*
X47096798Y26225010D01*
X47096796Y26225007D01*
X46971108Y26052013D01*
X46874029Y25861485D01*
X46874026Y25861479D01*
X46807952Y25658122D01*
X46807951Y25658117D01*
X46807951Y25658116D01*
X46774500Y25446916D01*
X46774500Y25233084D01*
X46796383Y25094924D01*
X46807952Y25021879D01*
X46874026Y24818522D01*
X46874028Y24818517D01*
X46928103Y24712389D01*
X46971108Y24627988D01*
X47002182Y24585219D01*
X47096794Y24454996D01*
X47096796Y24454994D01*
X47096798Y24454991D01*
X47247990Y24303799D01*
X47247993Y24303797D01*
X47247996Y24303794D01*
X47420991Y24178106D01*
X47562005Y24106256D01*
X47613620Y24057509D01*
X47630686Y23988594D01*
X47607786Y23921393D01*
X47578864Y23892054D01*
X47501989Y23836201D01*
X47350798Y23685010D01*
X47350796Y23685007D01*
X47225108Y23512013D01*
X47128029Y23321485D01*
X47128026Y23321479D01*
X47061952Y23118122D01*
X47061951Y23118117D01*
X47061951Y23118116D01*
X47028500Y22906916D01*
X47028500Y22693084D01*
X47055025Y22525615D01*
X47061952Y22481879D01*
X47115322Y22317622D01*
X47128028Y22278517D01*
X47225106Y22087991D01*
X47225108Y22087988D01*
X47256182Y22045219D01*
X47350794Y21914996D01*
X47350796Y21914994D01*
X47350798Y21914991D01*
X47501990Y21763799D01*
X47501993Y21763797D01*
X47501996Y21763794D01*
X47578863Y21707947D01*
X47622217Y21651725D01*
X47628292Y21580989D01*
X47595161Y21518197D01*
X47562006Y21493746D01*
X47435355Y21429214D01*
X47420987Y21421892D01*
X47247993Y21296204D01*
X47247990Y21296202D01*
X47096798Y21145010D01*
X47096796Y21145007D01*
X46971108Y20972013D01*
X46874029Y20781485D01*
X46874026Y20781479D01*
X46807952Y20578122D01*
X46807951Y20578117D01*
X46807951Y20578116D01*
X46774500Y20366916D01*
X46774500Y20153084D01*
X46807951Y19941884D01*
X46807952Y19941879D01*
X46874026Y19738522D01*
X46874028Y19738517D01*
X46971106Y19547991D01*
X47096794Y19374996D01*
X47096796Y19374994D01*
X47096798Y19374991D01*
X47247990Y19223799D01*
X47247993Y19223797D01*
X47247996Y19223794D01*
X47420991Y19098106D01*
X47562005Y19026256D01*
X47613620Y18977509D01*
X47630686Y18908594D01*
X47607786Y18841393D01*
X47578864Y18812054D01*
X47501989Y18756201D01*
X47350798Y18605010D01*
X47350796Y18605007D01*
X47225108Y18432013D01*
X47128029Y18241485D01*
X47128026Y18241479D01*
X47061952Y18038122D01*
X47061951Y18038117D01*
X47061951Y18038116D01*
X47028500Y17826916D01*
X47028500Y17613084D01*
X47061951Y17401884D01*
X47061952Y17401879D01*
X47128026Y17198522D01*
X47128028Y17198517D01*
X47225106Y17007991D01*
X47350794Y16834996D01*
X47350796Y16834994D01*
X47350798Y16834991D01*
X47501990Y16683799D01*
X47501993Y16683797D01*
X47501996Y16683794D01*
X47578863Y16627947D01*
X47622217Y16571725D01*
X47628292Y16500989D01*
X47595161Y16438197D01*
X47562006Y16413746D01*
X47435355Y16349214D01*
X47420987Y16341892D01*
X47247993Y16216204D01*
X47247990Y16216202D01*
X47096798Y16065010D01*
X47096796Y16065007D01*
X46971108Y15892013D01*
X46874029Y15701485D01*
X46874026Y15701479D01*
X46807952Y15498122D01*
X46807951Y15498117D01*
X46807951Y15498116D01*
X46774500Y15286916D01*
X46774500Y15073084D01*
X46807951Y14861884D01*
X46807952Y14861879D01*
X46874026Y14658522D01*
X46874028Y14658517D01*
X46971106Y14467991D01*
X47096794Y14294996D01*
X47096796Y14294994D01*
X47096798Y14294991D01*
X47247990Y14143799D01*
X47247993Y14143797D01*
X47247996Y14143794D01*
X47420991Y14018106D01*
X47562005Y13946256D01*
X47613620Y13897509D01*
X47630686Y13828594D01*
X47607786Y13761393D01*
X47578864Y13732054D01*
X47501989Y13676201D01*
X47350798Y13525010D01*
X47350796Y13525007D01*
X47225108Y13352013D01*
X47128029Y13161485D01*
X47128026Y13161479D01*
X47061952Y12958122D01*
X47061951Y12958117D01*
X47061951Y12958116D01*
X47028500Y12746916D01*
X47028500Y12533084D01*
X47056129Y12358640D01*
X47062251Y12319989D01*
X47053151Y12249577D01*
X47007429Y12195263D01*
X46939601Y12174291D01*
X46871202Y12193318D01*
X46848707Y12211183D01*
X38856220Y20203671D01*
X38856210Y20203679D01*
X38722886Y20280653D01*
X38574177Y20320500D01*
X38574175Y20320500D01*
X33669980Y20320500D01*
X33601859Y20340502D01*
X33580885Y20357405D01*
X32726605Y21211685D01*
X32692579Y21273997D01*
X32689700Y21300780D01*
X32689700Y22249501D01*
X32709702Y22317622D01*
X32763358Y22364115D01*
X32799255Y22374423D01*
X32816430Y22376684D01*
X32955208Y22434167D01*
X33074385Y22525615D01*
X33140057Y22611200D01*
X33910127Y22611200D01*
X33952370Y22465799D01*
X34035708Y22324882D01*
X34035714Y22324875D01*
X34151474Y22209115D01*
X34151481Y22209109D01*
X34292399Y22125771D01*
X34449629Y22080091D01*
X34449624Y22080091D01*
X34467799Y22078661D01*
X34467800Y22078661D01*
X34975800Y22078661D01*
X34993973Y22080091D01*
X35151200Y22125771D01*
X35292118Y22209109D01*
X35292125Y22209115D01*
X35407885Y22324875D01*
X35407891Y22324882D01*
X35491229Y22465799D01*
X35533473Y22611200D01*
X34975800Y22611200D01*
X34975800Y22078661D01*
X34467800Y22078661D01*
X34467800Y22611200D01*
X33910127Y22611200D01*
X33140057Y22611200D01*
X33165833Y22644792D01*
X33182373Y22684723D01*
X33223315Y22783570D01*
X33237999Y22895104D01*
X33238000Y22895113D01*
X33238000Y23235501D01*
X33258002Y23303622D01*
X33311658Y23350115D01*
X33363998Y23361501D01*
X33704924Y23361501D01*
X33800218Y23374046D01*
X33870365Y23363107D01*
X33923464Y23315979D01*
X33942654Y23247625D01*
X33937660Y23213971D01*
X33910127Y23119200D01*
X34200421Y23119200D01*
X34264560Y23101654D01*
X34292199Y23085308D01*
X34292203Y23085306D01*
X34449546Y23039594D01*
X34486306Y23036701D01*
X34486307Y23036700D01*
X34486316Y23036700D01*
X34957293Y23036700D01*
X34957293Y23036701D01*
X34994054Y23039594D01*
X35151397Y23085306D01*
X35163546Y23092492D01*
X35232361Y23109953D01*
X35252267Y23107620D01*
X35350395Y23088100D01*
X35350400Y23088100D01*
X35515604Y23088100D01*
X35515605Y23088100D01*
X35677640Y23120331D01*
X35830273Y23183554D01*
X35967640Y23275339D01*
X36084461Y23392160D01*
X36176246Y23529527D01*
X36239469Y23682160D01*
X36265670Y23813884D01*
X36298578Y23876791D01*
X36360273Y23911923D01*
X36389249Y23915300D01*
X39876975Y23915300D01*
X39876977Y23915300D01*
X40025686Y23955147D01*
X40159014Y24032124D01*
X40267876Y24140986D01*
X40327380Y24200490D01*
X40327393Y24200505D01*
X45925286Y29798395D01*
X45987598Y29832421D01*
X46014381Y29835300D01*
X46829026Y29835300D01*
X46843862Y29830944D01*
G37*
%TD.AperFunction*%
%TA.AperFunction,Conductor*%
G36*
X31893437Y27251198D02*
G01*
X31893439Y27251197D01*
X32005075Y27236500D01*
X32204924Y27236501D01*
X32205134Y27236529D01*
X32205196Y27236519D01*
X32209047Y27236771D01*
X32209103Y27235911D01*
X32275284Y27225607D01*
X32328394Y27178492D01*
X32347600Y27110142D01*
X32346535Y27095195D01*
X32346501Y27094941D01*
X32346500Y27094918D01*
X32346500Y26895077D01*
X32346501Y26895068D01*
X32361196Y26783443D01*
X32362759Y26777612D01*
X32362759Y26712392D01*
X32361197Y26706564D01*
X32346500Y26594927D01*
X32346500Y26395077D01*
X32346501Y26395068D01*
X32361196Y26283443D01*
X32362759Y26277612D01*
X32362759Y26212392D01*
X32361197Y26206564D01*
X32346500Y26094927D01*
X32346500Y25895077D01*
X32346501Y25895068D01*
X32361196Y25783443D01*
X32362759Y25777612D01*
X32362759Y25712392D01*
X32361197Y25706564D01*
X32346500Y25594927D01*
X32346500Y25395077D01*
X32346501Y25395068D01*
X32361196Y25283443D01*
X32362759Y25277612D01*
X32362759Y25212392D01*
X32361197Y25206564D01*
X32346500Y25094927D01*
X32346500Y24895077D01*
X32346501Y24895068D01*
X32361196Y24783443D01*
X32362759Y24777612D01*
X32362759Y24712392D01*
X32361197Y24706564D01*
X32346500Y24594927D01*
X32346500Y24395077D01*
X32346501Y24395073D01*
X32346532Y24394839D01*
X32346521Y24394770D01*
X32346771Y24390953D01*
X32345917Y24390898D01*
X32335594Y24324691D01*
X32288466Y24271591D01*
X32220113Y24252400D01*
X32205190Y24253466D01*
X32204945Y24253499D01*
X32204927Y24253500D01*
X32204925Y24253500D01*
X32204917Y24253500D01*
X32005076Y24253500D01*
X32005067Y24253499D01*
X31893437Y24238803D01*
X31887609Y24237241D01*
X31822389Y24237241D01*
X31816558Y24238804D01*
X31756870Y24246662D01*
X31704925Y24253500D01*
X31704921Y24253500D01*
X31505076Y24253500D01*
X31505067Y24253499D01*
X31393437Y24238803D01*
X31387609Y24237241D01*
X31322389Y24237241D01*
X31316558Y24238804D01*
X31256870Y24246662D01*
X31204925Y24253500D01*
X31204921Y24253500D01*
X31005076Y24253500D01*
X31005067Y24253499D01*
X30893437Y24238803D01*
X30887609Y24237241D01*
X30822389Y24237241D01*
X30816558Y24238804D01*
X30756870Y24246662D01*
X30704925Y24253500D01*
X30704921Y24253500D01*
X30505076Y24253500D01*
X30505067Y24253499D01*
X30393437Y24238803D01*
X30387609Y24237241D01*
X30322389Y24237241D01*
X30316558Y24238804D01*
X30256870Y24246662D01*
X30204925Y24253500D01*
X30204921Y24253500D01*
X30005076Y24253500D01*
X30005067Y24253499D01*
X29893437Y24238803D01*
X29887609Y24237241D01*
X29822389Y24237241D01*
X29816558Y24238804D01*
X29756870Y24246662D01*
X29704925Y24253500D01*
X29704921Y24253500D01*
X29505076Y24253500D01*
X29505064Y24253499D01*
X29504835Y24253468D01*
X29504766Y24253479D01*
X29500953Y24253229D01*
X29500897Y24254083D01*
X29434686Y24264408D01*
X29381588Y24311537D01*
X29362399Y24379891D01*
X29363467Y24394825D01*
X29363500Y24395075D01*
X29363499Y24594924D01*
X29348803Y24706561D01*
X29348801Y24706565D01*
X29347241Y24712389D01*
X29347242Y24777613D01*
X29348800Y24783433D01*
X29348803Y24783439D01*
X29363500Y24895075D01*
X29363499Y25094924D01*
X29348803Y25206561D01*
X29348801Y25206565D01*
X29347241Y25212389D01*
X29347242Y25277613D01*
X29348800Y25283433D01*
X29348803Y25283439D01*
X29363500Y25395075D01*
X29363499Y25594924D01*
X29348803Y25706561D01*
X29348801Y25706565D01*
X29347241Y25712389D01*
X29347242Y25777613D01*
X29348800Y25783433D01*
X29348803Y25783439D01*
X29363500Y25895075D01*
X29363499Y26094924D01*
X29348803Y26206561D01*
X29348801Y26206565D01*
X29347241Y26212389D01*
X29347242Y26277613D01*
X29348800Y26283433D01*
X29348803Y26283439D01*
X29363500Y26395075D01*
X29363499Y26594924D01*
X29363312Y26596342D01*
X29348803Y26706559D01*
X29348803Y26706561D01*
X29348801Y26706565D01*
X29347241Y26712389D01*
X29347242Y26777613D01*
X29348800Y26783433D01*
X29348803Y26783439D01*
X29363500Y26895075D01*
X29363499Y27094924D01*
X29363470Y27095141D01*
X29363480Y27095206D01*
X29363229Y27099047D01*
X29364087Y27099104D01*
X29374395Y27165288D01*
X29421512Y27218397D01*
X29489861Y27237601D01*
X29504829Y27236533D01*
X29505075Y27236500D01*
X29704924Y27236501D01*
X29705160Y27236532D01*
X29713280Y27237601D01*
X29816561Y27251197D01*
X29816569Y27251201D01*
X29822386Y27252758D01*
X29887610Y27252759D01*
X29893437Y27251198D01*
X29893439Y27251197D01*
X30005075Y27236500D01*
X30204924Y27236501D01*
X30205160Y27236532D01*
X30213280Y27237601D01*
X30316561Y27251197D01*
X30316569Y27251201D01*
X30322386Y27252758D01*
X30387610Y27252759D01*
X30393437Y27251198D01*
X30393439Y27251197D01*
X30505075Y27236500D01*
X30704924Y27236501D01*
X30705160Y27236532D01*
X30713280Y27237601D01*
X30816561Y27251197D01*
X30816569Y27251201D01*
X30822386Y27252758D01*
X30887610Y27252759D01*
X30893437Y27251198D01*
X30893439Y27251197D01*
X31005075Y27236500D01*
X31204924Y27236501D01*
X31205160Y27236532D01*
X31213280Y27237601D01*
X31316561Y27251197D01*
X31316569Y27251201D01*
X31322386Y27252758D01*
X31387610Y27252759D01*
X31393437Y27251198D01*
X31393439Y27251197D01*
X31505075Y27236500D01*
X31704924Y27236501D01*
X31705160Y27236532D01*
X31713280Y27237601D01*
X31816561Y27251197D01*
X31816569Y27251201D01*
X31822386Y27252758D01*
X31887610Y27252759D01*
X31893437Y27251198D01*
G37*
%TD.AperFunction*%
%TA.AperFunction,Conductor*%
G36*
X6774012Y38058644D02*
G01*
X6780595Y38052515D01*
X10482504Y34350606D01*
X10591366Y34241744D01*
X10724694Y34164767D01*
X10873403Y34124920D01*
X11027357Y34124920D01*
X20896000Y34124920D01*
X20964121Y34104918D01*
X20985095Y34088015D01*
X23454215Y31618895D01*
X23488241Y31556583D01*
X23483176Y31485768D01*
X23440629Y31428932D01*
X23374109Y31404121D01*
X23365120Y31403800D01*
X23186800Y31403800D01*
X23186800Y30771800D01*
X23166798Y30703679D01*
X23113142Y30657186D01*
X23060800Y30645800D01*
X22936800Y30645800D01*
X22936800Y30630300D01*
X22916798Y30562179D01*
X22863142Y30515686D01*
X22810800Y30504300D01*
X22488150Y30504300D01*
X22427603Y30497791D01*
X22427595Y30497789D01*
X22290596Y30446690D01*
X22282686Y30442370D01*
X22281751Y30444082D01*
X22225915Y30423257D01*
X22181777Y30427939D01*
X22086467Y30455629D01*
X22086464Y30455630D01*
X22049997Y30458500D01*
X21550012Y30458500D01*
X21513534Y30455630D01*
X21497611Y30451003D01*
X21462459Y30446000D01*
X20979985Y30446000D01*
X21020194Y30307601D01*
X21051521Y30254629D01*
X21068980Y30185813D01*
X21051522Y30126354D01*
X21019731Y30072597D01*
X20974370Y29916466D01*
X20974370Y29916465D01*
X20971500Y29879999D01*
X20971500Y29626536D01*
X20951498Y29558415D01*
X20897842Y29511922D01*
X20870086Y29502958D01*
X20854564Y29499871D01*
X20854560Y29499869D01*
X20701926Y29436646D01*
X20564558Y29344860D01*
X20564552Y29344855D01*
X20447745Y29228048D01*
X20447740Y29228042D01*
X20363554Y29102047D01*
X20355954Y29090673D01*
X20335749Y29041894D01*
X20292732Y28938043D01*
X20292731Y28938042D01*
X20260500Y28776008D01*
X20260500Y28610793D01*
X20281395Y28505750D01*
X20292731Y28448760D01*
X20355954Y28296127D01*
X20421443Y28198116D01*
X20447740Y28158759D01*
X20447745Y28158753D01*
X20564552Y28041946D01*
X20564558Y28041941D01*
X20564560Y28041939D01*
X20701927Y27950154D01*
X20854560Y27886931D01*
X21016595Y27854700D01*
X21016596Y27854700D01*
X21181804Y27854700D01*
X21181805Y27854700D01*
X21343840Y27886931D01*
X21397908Y27909328D01*
X21468493Y27916918D01*
X21481267Y27913919D01*
X21502346Y27907794D01*
X21539106Y27904901D01*
X21539107Y27904900D01*
X21539116Y27904900D01*
X22010093Y27904900D01*
X22010093Y27904901D01*
X22046854Y27907794D01*
X22204197Y27953506D01*
X22204199Y27953508D01*
X22204201Y27953508D01*
X22345226Y28036910D01*
X22345227Y28036911D01*
X22345229Y28036912D01*
X22361972Y28053655D01*
X22424283Y28087682D01*
X22464536Y28089840D01*
X22488162Y28087300D01*
X22810800Y28087300D01*
X22878921Y28067298D01*
X22925414Y28013642D01*
X22936800Y27961300D01*
X22936800Y27945800D01*
X23060800Y27945800D01*
X23128921Y27925798D01*
X23175414Y27872142D01*
X23186800Y27819800D01*
X23186800Y27187800D01*
X23385385Y27187800D01*
X23385397Y27187801D01*
X23445893Y27194306D01*
X23445898Y27194307D01*
X23492050Y27211521D01*
X23511456Y27212910D01*
X23529830Y27219311D01*
X23552295Y27215831D01*
X23562865Y27216587D01*
X23565537Y27215975D01*
X23572960Y27214191D01*
X23627599Y27193811D01*
X23682095Y27187953D01*
X23689995Y27186053D01*
X23714009Y27172255D01*
X23739601Y27161655D01*
X23744343Y27154825D01*
X23751553Y27150682D01*
X23764295Y27126091D01*
X23780093Y27103338D01*
X23780390Y27095028D01*
X23784216Y27087644D01*
X23781639Y27060064D01*
X23782629Y27032386D01*
X23781539Y27028392D01*
X23756490Y26942175D01*
X23755060Y26924001D01*
X23755061Y26924000D01*
X24415600Y26924000D01*
X24483721Y26903998D01*
X24530214Y26850342D01*
X24541600Y26798000D01*
X24541600Y26670000D01*
X24587100Y26670000D01*
X24655221Y26649998D01*
X24701714Y26596342D01*
X24713100Y26544000D01*
X24713100Y26434507D01*
X24715993Y26397749D01*
X24715993Y26397748D01*
X24716770Y26395075D01*
X24760370Y26245000D01*
X24761707Y26240401D01*
X24778053Y26212762D01*
X24795600Y26148622D01*
X24795600Y25857200D01*
X25232571Y25857200D01*
X25236768Y25857130D01*
X25251633Y25856635D01*
X25259346Y25854394D01*
X25296116Y25851500D01*
X25405697Y25851500D01*
X25407797Y25851430D01*
X25439590Y25840933D01*
X25471721Y25831498D01*
X25473146Y25829853D01*
X25475214Y25829170D01*
X25496291Y25803142D01*
X25518214Y25777842D01*
X25518740Y25775420D01*
X25519894Y25773996D01*
X25520755Y25766160D01*
X25529600Y25725500D01*
X25529600Y25705700D01*
X25509598Y25637579D01*
X25455942Y25591086D01*
X25403600Y25579700D01*
X10672381Y25579700D01*
X10604260Y25599702D01*
X10583286Y25616605D01*
X9783891Y26416000D01*
X23755061Y26416000D01*
X23756490Y26397827D01*
X23802170Y26240600D01*
X23885508Y26099682D01*
X23885514Y26099675D01*
X24001274Y25983915D01*
X24001281Y25983909D01*
X24142198Y25900571D01*
X24287600Y25858328D01*
X24287600Y26416000D01*
X23755061Y26416000D01*
X9783891Y26416000D01*
X8784280Y27415611D01*
X8720491Y27479400D01*
X20962927Y27479400D01*
X21005170Y27333999D01*
X21088508Y27193082D01*
X21088514Y27193075D01*
X21204274Y27077315D01*
X21204281Y27077309D01*
X21345199Y26993971D01*
X21502429Y26948291D01*
X21502424Y26948291D01*
X21520599Y26946861D01*
X21520600Y26946861D01*
X22028600Y26946861D01*
X22046773Y26948291D01*
X22204000Y26993971D01*
X22344918Y27077309D01*
X22418504Y27150895D01*
X22480816Y27184920D01*
X22507600Y27187800D01*
X22686800Y27187800D01*
X22686800Y27479400D01*
X22028600Y27479400D01*
X22028600Y26946861D01*
X21520600Y26946861D01*
X21520600Y27479400D01*
X20962927Y27479400D01*
X8720491Y27479400D01*
X6288493Y29911397D01*
X6254468Y29973709D01*
X6257754Y30039425D01*
X6278049Y30101884D01*
X6311500Y30313084D01*
X6311500Y30526916D01*
X6278049Y30738116D01*
X6211972Y30941483D01*
X6205594Y30954000D01*
X20979985Y30954000D01*
X21546000Y30954000D01*
X22054000Y30954000D01*
X22686800Y30954000D01*
X22686800Y31403800D01*
X22488202Y31403800D01*
X22427704Y31397295D01*
X22404153Y31388511D01*
X22333337Y31383448D01*
X22295984Y31398115D01*
X22242397Y31429807D01*
X22086391Y31475131D01*
X22054000Y31477681D01*
X22054000Y30954000D01*
X21546000Y30954000D01*
X21546000Y31477681D01*
X21513610Y31475131D01*
X21513607Y31475131D01*
X21357600Y31429806D01*
X21217771Y31347111D01*
X21217764Y31347106D01*
X21102894Y31232236D01*
X21102889Y31232229D01*
X21020194Y31092400D01*
X20979985Y30954000D01*
X6205594Y30954000D01*
X6114894Y31132009D01*
X5989206Y31305004D01*
X5989203Y31305007D01*
X5989201Y31305010D01*
X5838006Y31456205D01*
X5761136Y31512054D01*
X5717782Y31568277D01*
X5711707Y31639013D01*
X5744839Y31701804D01*
X5777989Y31726253D01*
X5919009Y31798106D01*
X6092004Y31923794D01*
X6243206Y32074996D01*
X6368894Y32247991D01*
X6465972Y32438517D01*
X6532049Y32641884D01*
X6565500Y32853084D01*
X6565500Y33066916D01*
X6532049Y33278116D01*
X6465972Y33481483D01*
X6368894Y33672009D01*
X6243206Y33845004D01*
X6243203Y33845007D01*
X6243201Y33845010D01*
X6092009Y33996202D01*
X6092006Y33996204D01*
X6092004Y33996206D01*
X5919009Y34121894D01*
X5777992Y34193746D01*
X5726379Y34242492D01*
X5709313Y34311407D01*
X5732214Y34378609D01*
X5761133Y34407945D01*
X5838004Y34463794D01*
X5989206Y34614996D01*
X6114894Y34787991D01*
X6211972Y34978517D01*
X6278049Y35181884D01*
X6311500Y35393084D01*
X6311500Y35606916D01*
X6278049Y35818116D01*
X6211972Y36021483D01*
X6114894Y36212009D01*
X5989206Y36385004D01*
X5989203Y36385007D01*
X5989201Y36385010D01*
X5838006Y36536205D01*
X5761136Y36592054D01*
X5717782Y36648277D01*
X5711707Y36719013D01*
X5744839Y36781804D01*
X5777989Y36806253D01*
X5919009Y36878106D01*
X6092004Y37003794D01*
X6243206Y37154996D01*
X6368894Y37327991D01*
X6465972Y37518517D01*
X6532049Y37721884D01*
X6565500Y37933084D01*
X6565500Y37963420D01*
X6585502Y38031541D01*
X6639158Y38078034D01*
X6709432Y38088138D01*
X6774012Y38058644D01*
G37*
%TD.AperFunction*%
%TA.AperFunction,Conductor*%
G36*
X47097862Y42530944D02*
G01*
X47113314Y42531606D01*
X47131236Y42521145D01*
X47151147Y42515298D01*
X47162220Y42503058D01*
X47174629Y42495815D01*
X47195292Y42466505D01*
X47225106Y42407991D01*
X47350794Y42234996D01*
X47350796Y42234994D01*
X47350798Y42234991D01*
X47501990Y42083799D01*
X47501993Y42083797D01*
X47501996Y42083794D01*
X47578863Y42027947D01*
X47622217Y41971725D01*
X47628292Y41900989D01*
X47595161Y41838197D01*
X47562006Y41813746D01*
X47435355Y41749214D01*
X47420987Y41741892D01*
X47247993Y41616204D01*
X47247990Y41616202D01*
X47096798Y41465010D01*
X47096796Y41465007D01*
X46971108Y41292013D01*
X46941293Y41233497D01*
X46892545Y41181882D01*
X46829026Y41164700D01*
X45643023Y41164700D01*
X45543883Y41138136D01*
X45494313Y41124853D01*
X45453839Y41101485D01*
X45453836Y41101483D01*
X45407410Y41074680D01*
X45360986Y41047877D01*
X45360978Y41047871D01*
X42246198Y37933088D01*
X41637346Y37324236D01*
X41582915Y37269806D01*
X41528485Y37215376D01*
X41528481Y37215371D01*
X41451507Y37082047D01*
X41451507Y37082046D01*
X41430541Y37003799D01*
X41411660Y36933336D01*
X41411660Y32399239D01*
X41391658Y32331118D01*
X41374755Y32310144D01*
X36186217Y27121605D01*
X36123905Y27087579D01*
X36097122Y27084700D01*
X34710700Y27084700D01*
X34642579Y27104702D01*
X34596086Y27158358D01*
X34584700Y27210700D01*
X34584700Y32735300D01*
X34604702Y32803421D01*
X34658358Y32849914D01*
X34710700Y32861300D01*
X34782604Y32861300D01*
X34782605Y32861300D01*
X34944640Y32893531D01*
X35097273Y32956754D01*
X35234640Y33048539D01*
X35351461Y33165360D01*
X35443246Y33302727D01*
X35506469Y33455360D01*
X35538700Y33617395D01*
X35538700Y33659620D01*
X35558702Y33727741D01*
X35575605Y33748715D01*
X44325286Y42498395D01*
X44387598Y42532421D01*
X44414381Y42535300D01*
X45462683Y42535300D01*
X47083026Y42535300D01*
X47097862Y42530944D01*
G37*
%TD.AperFunction*%
%TA.AperFunction,Conductor*%
G36*
X28011938Y29610914D02*
G01*
X28027497Y29611554D01*
X28060704Y29598009D01*
X28232204Y29497509D01*
X28280864Y29445811D01*
X28294500Y29388800D01*
X28294500Y29279307D01*
X28297393Y29242549D01*
X28297393Y29242548D01*
X28301608Y29228040D01*
X28341516Y29090675D01*
X28343107Y29085201D01*
X28359453Y29057562D01*
X28377000Y28993422D01*
X28377000Y28703128D01*
X28421652Y28669602D01*
X28424374Y28665955D01*
X28428512Y28664065D01*
X28445412Y28637768D01*
X28464118Y28612706D01*
X28465126Y28607092D01*
X28466896Y28604339D01*
X28472000Y28568841D01*
X28472000Y28442605D01*
X28451998Y28374484D01*
X28398342Y28327991D01*
X28328068Y28317887D01*
X28313389Y28320898D01*
X28286917Y28327991D01*
X28231277Y28342900D01*
X28231275Y28342900D01*
X28153592Y28342900D01*
X28085471Y28362902D01*
X28064497Y28379805D01*
X28034647Y28409655D01*
X28034643Y28409658D01*
X28034640Y28409661D01*
X27950041Y28466188D01*
X27900098Y28499559D01*
X27894924Y28505750D01*
X27887588Y28509100D01*
X27872487Y28532597D01*
X27854570Y28554036D01*
X27852586Y28563563D01*
X27849204Y28568826D01*
X27844100Y28604324D01*
X27844100Y28621474D01*
X27864102Y28689595D01*
X27869000Y28694864D01*
X27869000Y29260800D01*
X27624083Y29260800D01*
X27559944Y29278347D01*
X27455197Y29340294D01*
X27358785Y29368304D01*
X27298952Y29406516D01*
X27269274Y29471012D01*
X27279177Y29541315D01*
X27325517Y29595103D01*
X27393580Y29615299D01*
X27393940Y29615300D01*
X27997000Y29615300D01*
X28011938Y29610914D01*
G37*
%TD.AperFunction*%
%TA.AperFunction,Conductor*%
G36*
X26670453Y29611427D02*
G01*
X26684171Y29612393D01*
X26703853Y29601620D01*
X26725381Y29595298D01*
X26734385Y29584906D01*
X26746448Y29578303D01*
X26757180Y29558600D01*
X26771874Y29541642D01*
X26773831Y29528031D01*
X26780408Y29515956D01*
X26778784Y29493580D01*
X26781978Y29471368D01*
X26776265Y29458860D01*
X26775270Y29445145D01*
X26761804Y29427197D01*
X26752484Y29406788D01*
X26740916Y29399354D01*
X26732664Y29388354D01*
X26701170Y29371199D01*
X26696846Y29369592D01*
X26596003Y29340294D01*
X26558679Y29318221D01*
X26548131Y29314299D01*
X26504221Y29306400D01*
X26213927Y29306400D01*
X26256170Y29160999D01*
X26265614Y29145031D01*
X26283074Y29076215D01*
X26265617Y29016757D01*
X26255704Y28999995D01*
X26209994Y28842656D01*
X26209993Y28842652D01*
X26207100Y28805894D01*
X26207100Y28767981D01*
X26201425Y28748655D01*
X26200763Y28728526D01*
X26191628Y28715292D01*
X26187098Y28699860D01*
X26171876Y28686671D01*
X26160436Y28670094D01*
X26145595Y28663899D01*
X26133442Y28653367D01*
X26113505Y28650501D01*
X26094920Y28642741D01*
X26079086Y28645552D01*
X26063168Y28643263D01*
X26044846Y28651631D01*
X26025016Y28655151D01*
X26003909Y28670327D01*
X25998588Y28672757D01*
X25995500Y28675522D01*
X25993720Y28677170D01*
X25854814Y28816076D01*
X25837476Y28826086D01*
X25808779Y28842654D01*
X25721486Y28893053D01*
X25572777Y28932900D01*
X25572775Y28932900D01*
X25171300Y28932900D01*
X25170736Y28933066D01*
X25170172Y28932905D01*
X25136716Y28943055D01*
X25103179Y28952902D01*
X25102794Y28953346D01*
X25102233Y28953516D01*
X25079577Y28980140D01*
X25056686Y29006558D01*
X25056475Y29007289D01*
X25056222Y29007586D01*
X25055753Y29009788D01*
X25046427Y29042086D01*
X25045300Y29050456D01*
X25045300Y29144438D01*
X25038789Y29205001D01*
X25016411Y29264996D01*
X25014528Y29278986D01*
X25017846Y29300685D01*
X25016280Y29322582D01*
X25021346Y29339834D01*
X25038789Y29386599D01*
X25038790Y29386604D01*
X25045473Y29448768D01*
X25072642Y29514360D01*
X25130959Y29554852D01*
X25170751Y29561300D01*
X25282604Y29561300D01*
X25282605Y29561300D01*
X25444640Y29593531D01*
X25474041Y29605710D01*
X25522258Y29615300D01*
X26657260Y29615300D01*
X26670453Y29611427D01*
G37*
%TD.AperFunction*%
%TA.AperFunction,Conductor*%
G36*
X32398212Y33846644D02*
G01*
X32404795Y33840515D01*
X32678395Y33566915D01*
X32712421Y33504603D01*
X32715300Y33477820D01*
X32715300Y33446748D01*
X32695298Y33378627D01*
X32641642Y33332134D01*
X32571368Y33322030D01*
X32564726Y33323168D01*
X32530328Y33330010D01*
X32469685Y33342073D01*
X32469683Y33342073D01*
X32315700Y33342073D01*
X32247579Y33362075D01*
X32201086Y33415731D01*
X32189700Y33468073D01*
X32189700Y33751420D01*
X32209702Y33819541D01*
X32263358Y33866034D01*
X32333632Y33876138D01*
X32398212Y33846644D01*
G37*
%TD.AperFunction*%
%TA.AperFunction,Conductor*%
G36*
X29387715Y46536037D02*
G01*
X29441503Y46489698D01*
X29461699Y46421634D01*
X29461700Y46421275D01*
X29461700Y45865532D01*
X29466366Y45830094D01*
X29474683Y45766913D01*
X29477040Y45749014D01*
X29477041Y45749007D01*
X29477189Y45748651D01*
X29477223Y45748328D01*
X29479178Y45741034D01*
X29478040Y45740730D01*
X29484775Y45678061D01*
X29469232Y45636301D01*
X29419732Y45552600D01*
X29374370Y45396466D01*
X29374370Y45396465D01*
X29371500Y45359999D01*
X29371500Y44960013D01*
X29374370Y44923536D01*
X29419732Y44767401D01*
X29451231Y44714138D01*
X29468690Y44645321D01*
X29451231Y44585862D01*
X29419732Y44532600D01*
X29374370Y44376466D01*
X29374370Y44376465D01*
X29371500Y44339999D01*
X29371500Y43940013D01*
X29374370Y43903536D01*
X29419732Y43747400D01*
X29502492Y43607461D01*
X29502494Y43607459D01*
X29578996Y43530957D01*
X29613020Y43468647D01*
X29615900Y43441863D01*
X29615900Y39322425D01*
X29615899Y39322425D01*
X29632078Y39262047D01*
X29655747Y39173714D01*
X29712043Y39076206D01*
X29712046Y39076201D01*
X29732724Y39040385D01*
X33378395Y35394715D01*
X33412421Y35332403D01*
X33415300Y35305620D01*
X33415300Y34787981D01*
X33395298Y34719860D01*
X33341642Y34673367D01*
X33271368Y34663263D01*
X33206788Y34692757D01*
X33200205Y34698886D01*
X26555005Y41344086D01*
X26520979Y41406398D01*
X26518100Y41433181D01*
X26518100Y43505699D01*
X26538102Y43573820D01*
X26591758Y43620313D01*
X26662032Y43630417D01*
X26726612Y43600923D01*
X26733195Y43594794D01*
X26734674Y43593315D01*
X26734681Y43593309D01*
X26875599Y43509971D01*
X27032829Y43464291D01*
X27032824Y43464291D01*
X27050999Y43462861D01*
X27051000Y43462861D01*
X27559000Y43462861D01*
X27577173Y43464291D01*
X27734400Y43509971D01*
X27875318Y43593309D01*
X27875325Y43593315D01*
X27991085Y43709075D01*
X27991091Y43709082D01*
X28074429Y43849999D01*
X28116673Y43995400D01*
X27559000Y43995400D01*
X27559000Y43462861D01*
X27051000Y43462861D01*
X27051000Y44123400D01*
X27071002Y44191521D01*
X27124658Y44238014D01*
X27177000Y44249400D01*
X27305000Y44249400D01*
X27305000Y44294900D01*
X27306234Y44299104D01*
X27305286Y44303379D01*
X27316147Y44332866D01*
X27325002Y44363021D01*
X27328312Y44365890D01*
X27329826Y44369999D01*
X27354905Y44388933D01*
X27378658Y44409514D01*
X27383983Y44410885D01*
X27386489Y44412776D01*
X27403140Y44415816D01*
X27421502Y44420541D01*
X27426251Y44420900D01*
X27540484Y44420900D01*
X27577254Y44423794D01*
X27616900Y44435313D01*
X27629972Y44436301D01*
X27652387Y44431521D01*
X27675312Y44431455D01*
X27687675Y44427074D01*
X27745960Y44402931D01*
X27907995Y44370700D01*
X27907996Y44370700D01*
X28073204Y44370700D01*
X28073205Y44370700D01*
X28235240Y44402931D01*
X28387873Y44466154D01*
X28525240Y44557939D01*
X28642061Y44674760D01*
X28733846Y44812127D01*
X28797069Y44964760D01*
X28829300Y45126795D01*
X28829300Y45292005D01*
X28797069Y45454040D01*
X28733846Y45606673D01*
X28646912Y45736779D01*
X28625698Y45804531D01*
X28644481Y45872998D01*
X28697299Y45920441D01*
X28716525Y45927777D01*
X28829400Y45960571D01*
X28970318Y46043909D01*
X28970325Y46043915D01*
X29086085Y46159675D01*
X29086091Y46159682D01*
X29169429Y46300600D01*
X29214703Y46456428D01*
X29252916Y46516264D01*
X29317413Y46545941D01*
X29387715Y46536037D01*
G37*
%TD.AperFunction*%
%TA.AperFunction,Conductor*%
G36*
X6492696Y40875783D02*
G01*
X6515192Y40857918D01*
X9482124Y37890986D01*
X9590986Y37782124D01*
X9724314Y37705147D01*
X9873023Y37665300D01*
X18555620Y37665300D01*
X18623741Y37645298D01*
X18644715Y37628395D01*
X20763695Y35509415D01*
X20797721Y35447103D01*
X20792656Y35376288D01*
X20750109Y35319452D01*
X20683589Y35294641D01*
X20674600Y35294320D01*
X11244760Y35294320D01*
X11176639Y35314322D01*
X11155665Y35331225D01*
X6316192Y40170698D01*
X6282166Y40233010D01*
X6280838Y40279495D01*
X6311500Y40473084D01*
X6311500Y40686916D01*
X6301648Y40749116D01*
X6310747Y40819522D01*
X6356469Y40873837D01*
X6424297Y40894810D01*
X6492696Y40875783D01*
G37*
%TD.AperFunction*%
%TA.AperFunction,Conductor*%
G36*
X26339962Y55113109D02*
G01*
X26399139Y55088597D01*
X26510775Y55073900D01*
X26851200Y55073901D01*
X26860025Y55071310D01*
X26869132Y55072619D01*
X26893558Y55061464D01*
X26919320Y55053899D01*
X26925344Y55046947D01*
X26933712Y55043125D01*
X26948228Y55020538D01*
X26965813Y55000244D01*
X26968137Y54989559D01*
X26972096Y54983399D01*
X26977200Y54947901D01*
X26977200Y54857258D01*
X26957198Y54789137D01*
X26924268Y54755612D01*
X26924449Y54755392D01*
X26922403Y54753714D01*
X26921211Y54752499D01*
X26919667Y54751468D01*
X26919656Y54751459D01*
X26802845Y54634648D01*
X26802840Y54634642D01*
X26730917Y54527000D01*
X26711054Y54497273D01*
X26695253Y54459127D01*
X26647832Y54344643D01*
X26647831Y54344642D01*
X26615600Y54182608D01*
X26615600Y54017393D01*
X26634936Y53920188D01*
X26647831Y53855360D01*
X26711054Y53702727D01*
X26801009Y53568100D01*
X26802840Y53565359D01*
X26802845Y53565353D01*
X26919652Y53448546D01*
X26919658Y53448541D01*
X26919660Y53448539D01*
X27057027Y53356754D01*
X27209660Y53293531D01*
X27371695Y53261300D01*
X27400000Y53261300D01*
X27408825Y53258709D01*
X27417932Y53260018D01*
X27442357Y53248863D01*
X27468121Y53241298D01*
X27474145Y53234345D01*
X27482512Y53230524D01*
X27497026Y53207939D01*
X27514614Y53187642D01*
X27516938Y53176956D01*
X27520896Y53170798D01*
X27526000Y53135300D01*
X27526000Y53105080D01*
X27505998Y53036959D01*
X27489095Y53015985D01*
X25540986Y51067876D01*
X25510017Y51036907D01*
X25432125Y50959016D01*
X25432121Y50959011D01*
X25355146Y50825685D01*
X25332977Y50742951D01*
X25300367Y50686469D01*
X25248538Y50634641D01*
X25156754Y50497274D01*
X25093532Y50344643D01*
X25093531Y50344642D01*
X25061300Y50182608D01*
X25061300Y50182605D01*
X25061300Y50017395D01*
X25093531Y49855360D01*
X25156754Y49702727D01*
X25248539Y49565360D01*
X25278395Y49535504D01*
X25312420Y49473194D01*
X25313583Y49467141D01*
X25315300Y49456849D01*
X25315300Y49387423D01*
X25345982Y49272916D01*
X25346983Y49266920D01*
X25346498Y49262911D01*
X25348700Y49246188D01*
X25348700Y48841139D01*
X25329305Y48775089D01*
X25329426Y48775019D01*
X25329140Y48774524D01*
X25328698Y48773018D01*
X25326309Y48769621D01*
X25325294Y48767864D01*
X25265239Y48622879D01*
X25249900Y48506362D01*
X25249900Y47578225D01*
X25265239Y47461708D01*
X25325294Y47316723D01*
X25325299Y47316715D01*
X25352323Y47281497D01*
X25377924Y47215277D01*
X25363659Y47145728D01*
X25352323Y47128089D01*
X25325299Y47092872D01*
X25325294Y47092864D01*
X25265239Y46947879D01*
X25249900Y46831362D01*
X25249900Y45903225D01*
X25265239Y45786708D01*
X25281003Y45748651D01*
X25310242Y45678061D01*
X25325296Y45641719D01*
X25329423Y45634571D01*
X25327238Y45633310D01*
X25348262Y45578951D01*
X25348700Y45568449D01*
X25348700Y41061825D01*
X25348699Y41061825D01*
X25388547Y40913114D01*
X25411032Y40874169D01*
X25465521Y40779790D01*
X25465529Y40779780D01*
X29606114Y36639195D01*
X29640140Y36576883D01*
X29635075Y36506068D01*
X29592528Y36449232D01*
X29526008Y36424421D01*
X29517019Y36424100D01*
X26710900Y36424100D01*
X26642779Y36444102D01*
X26596286Y36497758D01*
X26584900Y36550100D01*
X26584900Y36690804D01*
X26584899Y36690808D01*
X26579289Y36719013D01*
X26552669Y36852840D01*
X26489446Y37005473D01*
X26397661Y37142840D01*
X26397659Y37142842D01*
X26397654Y37142848D01*
X26280847Y37259655D01*
X26280841Y37259660D01*
X26184196Y37324236D01*
X26143473Y37351446D01*
X25990841Y37414669D01*
X25828807Y37446900D01*
X25828805Y37446900D01*
X25786581Y37446900D01*
X25718460Y37466902D01*
X25697486Y37483805D01*
X22807005Y40374286D01*
X22772979Y40436598D01*
X22770100Y40463381D01*
X22770100Y48906350D01*
X22790102Y48974471D01*
X22807000Y48995441D01*
X22859853Y49048293D01*
X22925444Y49159201D01*
X22944543Y49191495D01*
X22944543Y49191497D01*
X22944545Y49191499D01*
X22990962Y49351269D01*
X22993899Y49388589D01*
X22993900Y49388589D01*
X22993900Y50545600D01*
X23013902Y50613721D01*
X23067558Y50660214D01*
X23119900Y50671600D01*
X23351911Y50671600D01*
X23351911Y50671601D01*
X23389231Y50674538D01*
X23549001Y50720955D01*
X23549003Y50720957D01*
X23549005Y50720957D01*
X23620604Y50763301D01*
X23692207Y50805647D01*
X23809853Y50923293D01*
X23875884Y51034945D01*
X23894543Y51066495D01*
X23894543Y51066497D01*
X23894545Y51066499D01*
X23940962Y51226269D01*
X23943899Y51263589D01*
X23943900Y51263589D01*
X23943900Y52571611D01*
X23943899Y52571612D01*
X23940962Y52608929D01*
X23940962Y52608930D01*
X23934596Y52630842D01*
X23894545Y52768701D01*
X23894543Y52768703D01*
X23894543Y52768706D01*
X23809855Y52911904D01*
X23809850Y52911911D01*
X23692210Y53029551D01*
X23692206Y53029554D01*
X23596885Y53085927D01*
X23548433Y53137820D01*
X23535728Y53207670D01*
X23540024Y53229516D01*
X23584829Y53383734D01*
X23587700Y53420211D01*
X23587699Y53920188D01*
X23584829Y53956666D01*
X23539469Y54112796D01*
X23529475Y54129695D01*
X23512014Y54198510D01*
X23534529Y54265842D01*
X23548833Y54282932D01*
X23587655Y54321754D01*
X23587655Y54321755D01*
X23587661Y54321760D01*
X23679446Y54459127D01*
X23742669Y54611760D01*
X23774900Y54773795D01*
X23774900Y54939005D01*
X23768313Y54972119D01*
X23774640Y55042831D01*
X23818194Y55098899D01*
X23885146Y55122519D01*
X23891892Y55122700D01*
X26291744Y55122700D01*
X26339962Y55113109D01*
G37*
%TD.AperFunction*%
%TA.AperFunction,Conductor*%
G36*
X30227107Y54034003D02*
G01*
X30241417Y54021692D01*
X31441779Y52821329D01*
X31441784Y52821325D01*
X31441786Y52821323D01*
X31441787Y52821322D01*
X31441789Y52821321D01*
X31575110Y52744348D01*
X31575112Y52744348D01*
X31575115Y52744346D01*
X31723823Y52704500D01*
X31877777Y52704500D01*
X35031242Y52704500D01*
X35099363Y52684498D01*
X35145856Y52630842D01*
X35155960Y52560568D01*
X35152239Y52543346D01*
X35146386Y52523200D01*
X35628858Y52523200D01*
X35664010Y52518197D01*
X35675692Y52514804D01*
X35679934Y52513571D01*
X35716411Y52510700D01*
X36216388Y52510701D01*
X36252866Y52513571D01*
X36268789Y52518197D01*
X36303941Y52523200D01*
X36786414Y52523200D01*
X36780561Y52543346D01*
X36780763Y52614342D01*
X36819317Y52673959D01*
X36883981Y52703268D01*
X36901558Y52704500D01*
X37068300Y52704500D01*
X37136421Y52684498D01*
X37182914Y52630842D01*
X37194300Y52578500D01*
X37194300Y49117887D01*
X37174298Y49049766D01*
X37143809Y49017019D01*
X37040738Y48939862D01*
X36953112Y48822808D01*
X36953110Y48822803D01*
X36902011Y48685805D01*
X36902009Y48685797D01*
X36895500Y48625250D01*
X36895500Y47700700D01*
X36875498Y47632579D01*
X36821842Y47586086D01*
X36769500Y47574700D01*
X34576977Y47574700D01*
X34105777Y47574700D01*
X33951823Y47574700D01*
X33887337Y47557421D01*
X33803110Y47534853D01*
X33669789Y47457880D01*
X33669783Y47457875D01*
X33606051Y47394143D01*
X33605191Y47393674D01*
X33604709Y47392821D01*
X33574096Y47376695D01*
X33543738Y47360118D01*
X33542761Y47360188D01*
X33541896Y47359732D01*
X33507438Y47362715D01*
X33472923Y47365184D01*
X33472139Y47365771D01*
X33471163Y47365855D01*
X33443751Y47387022D01*
X33416087Y47407731D01*
X33415489Y47408845D01*
X33414970Y47409246D01*
X33411794Y47415735D01*
X33398255Y47440976D01*
X33349737Y47577246D01*
X33348391Y47601065D01*
X33342525Y47624184D01*
X33346349Y47637208D01*
X33345732Y47648130D01*
X33353685Y47662192D01*
X33359987Y47683652D01*
X33369894Y47700403D01*
X33415606Y47857746D01*
X33418499Y47894507D01*
X33418500Y47894507D01*
X33418500Y48305493D01*
X33418499Y48305494D01*
X33415606Y48342254D01*
X33407862Y48368909D01*
X33408065Y48439906D01*
X33424095Y48474065D01*
X33443243Y48502722D01*
X33443243Y48502724D01*
X33443246Y48502727D01*
X33506469Y48655360D01*
X33538700Y48817395D01*
X33538700Y48982605D01*
X33506469Y49144640D01*
X33443246Y49297273D01*
X33351461Y49434640D01*
X33351459Y49434642D01*
X33351454Y49434648D01*
X33234647Y49551455D01*
X33234641Y49551460D01*
X33233850Y49551989D01*
X33097273Y49643246D01*
X32944641Y49706469D01*
X32782607Y49738700D01*
X32782605Y49738700D01*
X32617395Y49738700D01*
X32617392Y49738700D01*
X32455358Y49706469D01*
X32455357Y49706468D01*
X32302725Y49643245D01*
X32165358Y49551460D01*
X32165352Y49551455D01*
X32048545Y49434648D01*
X32048540Y49434642D01*
X31956755Y49297275D01*
X31893532Y49144643D01*
X31893531Y49144642D01*
X31883165Y49092527D01*
X31850257Y49029617D01*
X31788562Y48994486D01*
X31717667Y48998287D01*
X31711371Y49000699D01*
X31688287Y49010260D01*
X31571768Y49025600D01*
X31571766Y49025600D01*
X31318634Y49025600D01*
X31318631Y49025600D01*
X31202112Y49010260D01*
X31202105Y49010258D01*
X31167762Y48996033D01*
X31097173Y48988444D01*
X31071329Y48996033D01*
X31038157Y49009773D01*
X30970199Y49018721D01*
X30938977Y48991339D01*
X30922211Y48983562D01*
X30908242Y48971457D01*
X30890673Y48968931D01*
X30874573Y48961462D01*
X30856263Y48963984D01*
X30837968Y48961353D01*
X30821822Y48968727D01*
X30804240Y48971148D01*
X30790198Y48983170D01*
X30773388Y48990847D01*
X30763793Y49005777D01*
X30750309Y49017321D01*
X30744995Y49035026D01*
X30735004Y49050573D01*
X30730104Y49084646D01*
X30729902Y49085322D01*
X30729900Y49086071D01*
X30729900Y49151209D01*
X30749902Y49219330D01*
X30766801Y49240301D01*
X30796661Y49270160D01*
X30888446Y49407527D01*
X30951669Y49560160D01*
X30983900Y49722195D01*
X30983900Y49887405D01*
X30951669Y50049440D01*
X30888446Y50202073D01*
X30796661Y50339440D01*
X30796659Y50339442D01*
X30796654Y50339448D01*
X30679847Y50456255D01*
X30679841Y50456260D01*
X30654754Y50473023D01*
X30542473Y50548046D01*
X30389841Y50611269D01*
X30227807Y50643500D01*
X30227805Y50643500D01*
X30185581Y50643500D01*
X30117460Y50663502D01*
X30096486Y50680405D01*
X29821605Y50955286D01*
X29787579Y51017598D01*
X29784700Y51044381D01*
X29784700Y51982463D01*
X29793485Y52012384D01*
X29794098Y52015200D01*
X35146385Y52015200D01*
X35186594Y51876801D01*
X35269289Y51736972D01*
X35269294Y51736965D01*
X35384164Y51622095D01*
X35384171Y51622090D01*
X35524000Y51539395D01*
X35680014Y51494068D01*
X35712399Y51491521D01*
X35712400Y51491521D01*
X36220400Y51491521D01*
X36252785Y51494068D01*
X36408799Y51539395D01*
X36548628Y51622090D01*
X36548635Y51622095D01*
X36663505Y51736965D01*
X36663510Y51736972D01*
X36746205Y51876801D01*
X36786415Y52015200D01*
X36220400Y52015200D01*
X36220400Y51491521D01*
X35712400Y51491521D01*
X35712400Y52015200D01*
X35146385Y52015200D01*
X29794098Y52015200D01*
X29800113Y52042849D01*
X29803926Y52047944D01*
X29804702Y52050584D01*
X29821600Y52071554D01*
X29897506Y52147459D01*
X29980269Y52287404D01*
X30025629Y52443534D01*
X30028500Y52480011D01*
X30028499Y52879988D01*
X30025629Y52916466D01*
X29980269Y53072596D01*
X29948767Y53125863D01*
X29931308Y53194675D01*
X29948766Y53254138D01*
X29980269Y53307404D01*
X30025629Y53463534D01*
X30028500Y53500011D01*
X30028499Y53899988D01*
X30026711Y53922711D01*
X30041305Y53992190D01*
X30091147Y54042750D01*
X30160411Y54058337D01*
X30227107Y54034003D01*
G37*
%TD.AperFunction*%
%TA.AperFunction,Conductor*%
G36*
X36779574Y59099987D02*
G01*
X36806315Y59096064D01*
X36813114Y59090139D01*
X36821766Y59087598D01*
X36839462Y59067175D01*
X36859837Y59049418D01*
X36865307Y59037349D01*
X36868259Y59033942D01*
X36874640Y59016758D01*
X36890085Y58963597D01*
X36903856Y58916195D01*
X36988544Y58772997D01*
X36988549Y58772990D01*
X37106193Y58655346D01*
X37107469Y58654356D01*
X37108212Y58653327D01*
X37111798Y58649741D01*
X37111219Y58649163D01*
X37149034Y58596798D01*
X37152881Y58525906D01*
X37117791Y58464187D01*
X37107469Y58455244D01*
X37106193Y58454255D01*
X36988549Y58336611D01*
X36988544Y58336604D01*
X36903856Y58193406D01*
X36857437Y58033630D01*
X36857437Y58033629D01*
X36854500Y57996312D01*
X36854500Y56838289D01*
X36857437Y56800972D01*
X36857437Y56800971D01*
X36903856Y56641195D01*
X36988544Y56497997D01*
X36988549Y56497990D01*
X37106189Y56380350D01*
X37106196Y56380345D01*
X37249394Y56295657D01*
X37249397Y56295657D01*
X37249399Y56295655D01*
X37409169Y56249238D01*
X37446488Y56246301D01*
X37446489Y56246300D01*
X37864497Y56246300D01*
X37932618Y56226298D01*
X37957021Y56205830D01*
X37976461Y56184800D01*
X38637000Y56184800D01*
X38705121Y56164798D01*
X38751614Y56111142D01*
X38763000Y56058800D01*
X38763000Y55930800D01*
X38808500Y55930800D01*
X38876621Y55910798D01*
X38923114Y55857142D01*
X38934500Y55804800D01*
X38934500Y55695307D01*
X38937393Y55658549D01*
X38937393Y55658548D01*
X38960250Y55579875D01*
X38976657Y55523400D01*
X38983107Y55501201D01*
X38999453Y55473562D01*
X39017000Y55409422D01*
X39017000Y55119128D01*
X39032631Y55107391D01*
X39048140Y55107347D01*
X39107757Y55068795D01*
X39137068Y55004131D01*
X39138300Y54986552D01*
X39138300Y48982781D01*
X39118298Y48914660D01*
X39101399Y48893691D01*
X38977330Y48769621D01*
X38859148Y48651439D01*
X38796836Y48617414D01*
X38726020Y48622479D01*
X38669185Y48665026D01*
X38651998Y48696502D01*
X38604889Y48822804D01*
X38604887Y48822808D01*
X38517261Y48939862D01*
X38414191Y49017019D01*
X38371644Y49073855D01*
X38363700Y49117887D01*
X38363700Y53035313D01*
X38383702Y53103434D01*
X38414191Y53136181D01*
X38517261Y53213339D01*
X38604887Y53330393D01*
X38604887Y53330394D01*
X38604889Y53330396D01*
X38648960Y53448555D01*
X38655988Y53467396D01*
X38655990Y53467404D01*
X38662499Y53527951D01*
X38662500Y53527968D01*
X38662500Y54625233D01*
X38662499Y54625250D01*
X38655990Y54685797D01*
X38655988Y54685805D01*
X38616700Y54791138D01*
X38604889Y54822804D01*
X38604888Y54822806D01*
X38604887Y54822808D01*
X38517259Y54939864D01*
X38514002Y54943121D01*
X38479976Y55005433D01*
X38485041Y55076248D01*
X38509000Y55108300D01*
X38509000Y55676800D01*
X37976461Y55676800D01*
X37977890Y55658627D01*
X38023570Y55501400D01*
X38106908Y55360482D01*
X38106914Y55360475D01*
X38167194Y55300195D01*
X38201220Y55237883D01*
X38196155Y55167068D01*
X38153608Y55110232D01*
X38087088Y55085421D01*
X38078099Y55085100D01*
X37355350Y55085100D01*
X37294803Y55078591D01*
X37294795Y55078589D01*
X37157797Y55027490D01*
X37157792Y55027488D01*
X37040738Y54939862D01*
X36953112Y54822808D01*
X36953110Y54822803D01*
X36902011Y54685805D01*
X36902009Y54685797D01*
X36895500Y54625250D01*
X36895500Y54072180D01*
X36886716Y54042265D01*
X36880088Y54011795D01*
X36876273Y54006700D01*
X36875498Y54004059D01*
X36858595Y53983085D01*
X36786315Y53910805D01*
X36724003Y53876779D01*
X36697220Y53873900D01*
X36663938Y53873900D01*
X36595817Y53893902D01*
X36574843Y53910805D01*
X36548946Y53936702D01*
X36548939Y53936708D01*
X36409000Y54019468D01*
X36252864Y54064830D01*
X36216398Y54067700D01*
X35716412Y54067700D01*
X35679935Y54064830D01*
X35523799Y54019468D01*
X35383860Y53936708D01*
X35383853Y53936702D01*
X35357957Y53910805D01*
X35295645Y53876779D01*
X35268862Y53873900D01*
X34694838Y53873900D01*
X34626717Y53893902D01*
X34580224Y53947558D01*
X34570120Y54017832D01*
X34599614Y54082412D01*
X34624836Y54104665D01*
X34672240Y54136339D01*
X34789061Y54253160D01*
X34880846Y54390527D01*
X34944069Y54543160D01*
X34976300Y54705195D01*
X34976300Y54747536D01*
X34996302Y54815657D01*
X35049958Y54862150D01*
X35067148Y54868533D01*
X35113399Y54881970D01*
X35113400Y54881971D01*
X35254318Y54965309D01*
X35254325Y54965315D01*
X35370085Y55081075D01*
X35370091Y55081082D01*
X35453429Y55222000D01*
X35499109Y55379227D01*
X35500539Y55397400D01*
X34840000Y55397400D01*
X34771879Y55417402D01*
X34725386Y55471058D01*
X34714000Y55523400D01*
X34714000Y55651400D01*
X34668500Y55651400D01*
X34600379Y55671402D01*
X34553886Y55725058D01*
X34542500Y55777400D01*
X34542500Y55886893D01*
X34542499Y55886894D01*
X34541042Y55905400D01*
X34968000Y55905400D01*
X35500539Y55905400D01*
X35500539Y55905401D01*
X35499109Y55923574D01*
X35453430Y56080799D01*
X35425966Y56127237D01*
X35408506Y56196053D01*
X35425969Y56255522D01*
X35430631Y56263405D01*
X35476309Y56420627D01*
X35477739Y56438800D01*
X34968000Y56438800D01*
X34968000Y55905400D01*
X34541042Y55905400D01*
X34541042Y55905401D01*
X34539606Y55923654D01*
X34493894Y56080997D01*
X34466546Y56127240D01*
X34449087Y56196052D01*
X34466551Y56255523D01*
X34471094Y56263203D01*
X34516806Y56420546D01*
X34519699Y56457307D01*
X34519700Y56457307D01*
X34519700Y56928293D01*
X34519699Y56928294D01*
X34518393Y56944883D01*
X34516806Y56965054D01*
X34509509Y56990172D01*
X34945200Y56990172D01*
X34945200Y56946800D01*
X35477739Y56946800D01*
X35477739Y56946801D01*
X35476309Y56964974D01*
X35430629Y57122201D01*
X35366982Y57229823D01*
X35349522Y57298639D01*
X35369885Y57359530D01*
X35368655Y57360257D01*
X35456029Y57508000D01*
X35501709Y57665227D01*
X35503139Y57683400D01*
X34970600Y57683400D01*
X34970600Y57064991D01*
X34961816Y57035076D01*
X34955188Y57004606D01*
X34951373Y56999511D01*
X34950598Y56996870D01*
X34945200Y56990172D01*
X34509509Y56990172D01*
X34471094Y57122397D01*
X34448734Y57160205D01*
X34444715Y57171316D01*
X34443491Y57191183D01*
X34437200Y57214180D01*
X34437200Y57373074D01*
X34454746Y57437212D01*
X34496494Y57507803D01*
X34542206Y57665146D01*
X34545099Y57701907D01*
X34545100Y57701907D01*
X34545100Y58172893D01*
X34545099Y58172894D01*
X34543642Y58191400D01*
X34970600Y58191400D01*
X35503139Y58191400D01*
X35503139Y58191401D01*
X35501709Y58209574D01*
X35456029Y58366801D01*
X35372691Y58507719D01*
X35372685Y58507726D01*
X35256925Y58623486D01*
X35256918Y58623492D01*
X35116000Y58706830D01*
X35116002Y58706830D01*
X34970600Y58749074D01*
X34970600Y58191400D01*
X34543642Y58191400D01*
X34543642Y58191401D01*
X34542206Y58209654D01*
X34496494Y58366997D01*
X34496492Y58367001D01*
X34480146Y58394642D01*
X34462600Y58458780D01*
X34462600Y58805720D01*
X34471383Y58835636D01*
X34478012Y58866105D01*
X34481826Y58871201D01*
X34482602Y58873841D01*
X34499505Y58894815D01*
X34502390Y58897702D01*
X34675386Y59070696D01*
X34737698Y59104721D01*
X34764481Y59107600D01*
X36753645Y59107600D01*
X36779574Y59099987D01*
G37*
%TD.AperFunction*%
%TA.AperFunction,Conductor*%
G36*
X27700420Y51469366D02*
G01*
X27757256Y51426819D01*
X27761147Y51421321D01*
X27798539Y51365360D01*
X27798540Y51365359D01*
X27798543Y51365355D01*
X27915350Y51248548D01*
X27915355Y51248544D01*
X27915360Y51248539D01*
X27915365Y51248536D01*
X27919231Y51245363D01*
X27959201Y51186687D01*
X27965300Y51147961D01*
X27965300Y50473025D01*
X27965299Y50473025D01*
X27969793Y50456255D01*
X28005147Y50324314D01*
X28073948Y50205147D01*
X28082124Y50190986D01*
X28665796Y49607314D01*
X28680739Y49579948D01*
X28697596Y49553718D01*
X28698502Y49547417D01*
X28699820Y49545003D01*
X28702700Y49518220D01*
X28702700Y49348452D01*
X28682698Y49280331D01*
X28629042Y49233838D01*
X28558768Y49223734D01*
X28552118Y49224873D01*
X28482607Y49238700D01*
X28482605Y49238700D01*
X28317395Y49238700D01*
X28317392Y49238700D01*
X28155358Y49206469D01*
X28155357Y49206468D01*
X28097301Y49182420D01*
X28006093Y49144640D01*
X28002725Y49143245D01*
X27865358Y49051460D01*
X27801638Y48987740D01*
X27739325Y48953715D01*
X27668510Y48958781D01*
X27635840Y48976873D01*
X27621472Y48987898D01*
X27605568Y48994486D01*
X27476485Y49047954D01*
X27359968Y49063293D01*
X27359966Y49063293D01*
X27106834Y49063293D01*
X27106831Y49063293D01*
X26990312Y49047953D01*
X26990305Y49047951D01*
X26955962Y49033726D01*
X26885373Y49026137D01*
X26859529Y49033726D01*
X26826357Y49047466D01*
X26758399Y49056414D01*
X26727177Y49029032D01*
X26662773Y48999155D01*
X26592440Y49008841D01*
X26538509Y49055014D01*
X26518102Y49123015D01*
X26518100Y49123764D01*
X26518100Y49479809D01*
X26538102Y49547930D01*
X26547993Y49560198D01*
X26547534Y49560575D01*
X26551465Y49565365D01*
X26643243Y49702723D01*
X26643244Y49702724D01*
X26643245Y49702726D01*
X26643246Y49702727D01*
X26706469Y49855360D01*
X26738700Y50017395D01*
X26738700Y50182605D01*
X26706469Y50344640D01*
X26706467Y50344644D01*
X26706465Y50344652D01*
X26669875Y50432986D01*
X26662285Y50503576D01*
X26694064Y50567063D01*
X26697160Y50570272D01*
X27567295Y51440407D01*
X27629605Y51474431D01*
X27700420Y51469366D01*
G37*
%TD.AperFunction*%
%TA.AperFunction,Conductor*%
G36*
X39602652Y67431498D02*
G01*
X39649145Y67377842D01*
X39659249Y67307568D01*
X39629755Y67242988D01*
X39629263Y67242422D01*
X39601881Y67211200D01*
X39610827Y67143243D01*
X39624567Y67110071D01*
X39632156Y67039481D01*
X39624567Y67013636D01*
X39610341Y66979292D01*
X39610340Y66979288D01*
X39595000Y66862769D01*
X39595000Y66609634D01*
X39610339Y66493115D01*
X39670394Y66348130D01*
X39670399Y66348122D01*
X39765927Y66223628D01*
X39885026Y66132240D01*
X39890428Y66128095D01*
X40035413Y66068040D01*
X40151934Y66052700D01*
X40151941Y66052700D01*
X41004300Y66052700D01*
X41072421Y66032698D01*
X41118914Y65979042D01*
X41130300Y65926700D01*
X41130300Y65542718D01*
X41110298Y65474597D01*
X41093395Y65453623D01*
X41032916Y65393145D01*
X41032913Y65393141D01*
X40953045Y65258092D01*
X40953044Y65258090D01*
X40953044Y65258089D01*
X40946669Y65236146D01*
X40909269Y65107416D01*
X40906500Y65072220D01*
X40906500Y64721781D01*
X40909269Y64686585D01*
X40909270Y64686582D01*
X40950687Y64544023D01*
X40953045Y64535909D01*
X41032913Y64400860D01*
X41032916Y64400856D01*
X41143855Y64289917D01*
X41143859Y64289914D01*
X41278911Y64210044D01*
X41429582Y64166270D01*
X41464780Y64163500D01*
X41869419Y64163500D01*
X41937540Y64143498D01*
X41958514Y64126595D01*
X42329795Y63755314D01*
X42363821Y63693002D01*
X42366700Y63666219D01*
X42366700Y55117139D01*
X42346698Y55049018D01*
X42293042Y55002525D01*
X42222768Y54992421D01*
X42165192Y55016270D01*
X42150207Y55027488D01*
X42150202Y55027490D01*
X42013204Y55078589D01*
X42013196Y55078591D01*
X41952649Y55085100D01*
X41952638Y55085100D01*
X41105362Y55085100D01*
X41105350Y55085100D01*
X41044803Y55078591D01*
X41044795Y55078589D01*
X40907797Y55027490D01*
X40907792Y55027488D01*
X40822760Y54963832D01*
X40756240Y54939021D01*
X40747251Y54938700D01*
X40717392Y54938700D01*
X40555358Y54906469D01*
X40555353Y54906467D01*
X40481918Y54876049D01*
X40448778Y54872487D01*
X40415768Y54867740D01*
X40413645Y54868710D01*
X40411328Y54868460D01*
X40381507Y54883388D01*
X40351188Y54897234D01*
X40349928Y54899195D01*
X40347841Y54900239D01*
X40330822Y54928924D01*
X40312804Y54956960D01*
X40312361Y54960039D01*
X40311614Y54961298D01*
X40307700Y54992458D01*
X40307700Y55236193D01*
X40327702Y55304314D01*
X40344601Y55325285D01*
X40379488Y55360171D01*
X40462894Y55501203D01*
X40508606Y55658546D01*
X40511499Y55695307D01*
X40511500Y55695307D01*
X40511500Y56166293D01*
X40511499Y56166294D01*
X40508606Y56203052D01*
X40508606Y56203053D01*
X40508606Y56203054D01*
X40462894Y56360397D01*
X40379488Y56501429D01*
X40356278Y56524639D01*
X40322254Y56586948D01*
X40324376Y56648882D01*
X40368562Y56800969D01*
X40371499Y56838289D01*
X40371500Y56838289D01*
X40371500Y57996311D01*
X40371499Y57996312D01*
X40368562Y58033629D01*
X40368562Y58033630D01*
X40355933Y58077100D01*
X40322145Y58193401D01*
X40322143Y58193403D01*
X40322143Y58193406D01*
X40237455Y58336604D01*
X40237450Y58336611D01*
X40119810Y58454251D01*
X40118536Y58455239D01*
X40117792Y58456269D01*
X40114202Y58459859D01*
X40114781Y58460439D01*
X40076968Y58512794D01*
X40073116Y58583686D01*
X40108202Y58645407D01*
X40118536Y58654361D01*
X40119805Y58655346D01*
X40119807Y58655347D01*
X40237453Y58772993D01*
X40296436Y58872729D01*
X40348328Y58921180D01*
X40418179Y58933885D01*
X40453108Y58924996D01*
X40547648Y58885835D01*
X40547656Y58885833D01*
X40547660Y58885831D01*
X40709695Y58853600D01*
X40709696Y58853600D01*
X40874904Y58853600D01*
X40874905Y58853600D01*
X41036940Y58885831D01*
X41189573Y58949054D01*
X41326940Y59040839D01*
X41443761Y59157660D01*
X41535546Y59295027D01*
X41598769Y59447660D01*
X41631000Y59609695D01*
X41631000Y59774905D01*
X41598769Y59936940D01*
X41535546Y60089573D01*
X41443761Y60226940D01*
X41443759Y60226942D01*
X41443754Y60226948D01*
X41326947Y60343755D01*
X41326941Y60343760D01*
X41311944Y60353781D01*
X41189573Y60435546D01*
X41036941Y60498769D01*
X40874907Y60531000D01*
X40874905Y60531000D01*
X40709695Y60531000D01*
X40709692Y60531000D01*
X40547658Y60498769D01*
X40547657Y60498768D01*
X40493683Y60476411D01*
X40467229Y60465453D01*
X40453108Y60459604D01*
X40423257Y60456395D01*
X40393817Y60450500D01*
X40388352Y60452643D01*
X40382518Y60452015D01*
X40355672Y60465453D01*
X40327718Y60476411D01*
X40322924Y60481845D01*
X40319031Y60483794D01*
X40302782Y60502187D01*
X40299387Y60506883D01*
X40237453Y60611607D01*
X40187683Y60661377D01*
X40181789Y60669529D01*
X40173159Y60693892D01*
X40160775Y60716572D01*
X40161506Y60726794D01*
X40158085Y60736452D01*
X40163996Y60761610D01*
X40165840Y60787387D01*
X40174134Y60804754D01*
X40174325Y60805566D01*
X40174691Y60805921D01*
X40175443Y60807494D01*
X40236892Y60911399D01*
X40236892Y60911401D01*
X40236894Y60911403D01*
X40282606Y61068746D01*
X40285499Y61105507D01*
X40285500Y61105507D01*
X40285500Y61576493D01*
X40285499Y61576494D01*
X40285255Y61579588D01*
X40282606Y61613254D01*
X40236894Y61770597D01*
X40153488Y61911629D01*
X40153486Y61911631D01*
X40153483Y61911635D01*
X40037634Y62027484D01*
X40037630Y62027487D01*
X40037629Y62027488D01*
X39940190Y62085113D01*
X39896599Y62110893D01*
X39896598Y62110894D01*
X39896597Y62110894D01*
X39780435Y62144642D01*
X39739252Y62156607D01*
X39702493Y62159500D01*
X39702484Y62159500D01*
X39557581Y62159500D01*
X39489460Y62179502D01*
X39468486Y62196405D01*
X38543805Y63121086D01*
X38509779Y63183398D01*
X38506900Y63210181D01*
X38506900Y64922900D01*
X38526902Y64991021D01*
X38580558Y65037514D01*
X38632900Y65048900D01*
X38670204Y65048900D01*
X38670205Y65048900D01*
X38832240Y65081131D01*
X38984873Y65144354D01*
X39122240Y65236139D01*
X39239061Y65352960D01*
X39330846Y65490327D01*
X39394069Y65642960D01*
X39426300Y65804995D01*
X39426300Y65970205D01*
X39394069Y66132240D01*
X39330846Y66284873D01*
X39239061Y66422240D01*
X39239059Y66422242D01*
X39239054Y66422248D01*
X39122247Y66539055D01*
X39122241Y66539060D01*
X39073727Y66571476D01*
X38984873Y66630846D01*
X38984871Y66630847D01*
X38979409Y66633767D01*
X38980762Y66636299D01*
X38935066Y66673282D01*
X38912786Y66740692D01*
X38930488Y66809447D01*
X38949618Y66834019D01*
X38987953Y66872353D01*
X39051194Y66979287D01*
X39072643Y67015555D01*
X39072643Y67015557D01*
X39072645Y67015559D01*
X39119062Y67175329D01*
X39121999Y67212649D01*
X39122000Y67212649D01*
X39122000Y67325500D01*
X39142002Y67393621D01*
X39195658Y67440114D01*
X39248000Y67451500D01*
X39534531Y67451500D01*
X39602652Y67431498D01*
G37*
%TD.AperFunction*%
%TA.AperFunction,Conductor*%
G36*
X30399137Y58963598D02*
G01*
X30399139Y58963597D01*
X30510775Y58948900D01*
X30710624Y58948901D01*
X30710834Y58948929D01*
X30710896Y58948919D01*
X30714747Y58949171D01*
X30714803Y58948311D01*
X30780984Y58938007D01*
X30834094Y58890892D01*
X30853300Y58822542D01*
X30852235Y58807595D01*
X30852201Y58807341D01*
X30852200Y58807318D01*
X30852200Y58607477D01*
X30852201Y58607468D01*
X30866896Y58495843D01*
X30868459Y58490012D01*
X30868459Y58424792D01*
X30866897Y58418964D01*
X30852200Y58307327D01*
X30852200Y58107477D01*
X30852201Y58107468D01*
X30866896Y57995843D01*
X30868459Y57990012D01*
X30868459Y57924792D01*
X30866897Y57918964D01*
X30852200Y57807327D01*
X30852200Y57607477D01*
X30852201Y57607468D01*
X30866896Y57495843D01*
X30868459Y57490012D01*
X30868459Y57424792D01*
X30866897Y57418964D01*
X30852200Y57307327D01*
X30852200Y57107477D01*
X30852201Y57107468D01*
X30866896Y56995843D01*
X30868459Y56990012D01*
X30868459Y56924792D01*
X30866897Y56918964D01*
X30852200Y56807327D01*
X30852200Y56607477D01*
X30852201Y56607468D01*
X30866896Y56495843D01*
X30868459Y56490012D01*
X30868459Y56424792D01*
X30866897Y56418964D01*
X30852200Y56307327D01*
X30852200Y56107477D01*
X30852201Y56107473D01*
X30852232Y56107239D01*
X30852221Y56107170D01*
X30852471Y56103353D01*
X30851617Y56103298D01*
X30841294Y56037091D01*
X30794166Y55983991D01*
X30725813Y55964800D01*
X30710890Y55965866D01*
X30710645Y55965899D01*
X30710627Y55965900D01*
X30710625Y55965900D01*
X30710617Y55965900D01*
X30510776Y55965900D01*
X30510767Y55965899D01*
X30399137Y55951203D01*
X30393309Y55949641D01*
X30328089Y55949641D01*
X30322258Y55951204D01*
X30262570Y55959062D01*
X30210625Y55965900D01*
X30210621Y55965900D01*
X30010776Y55965900D01*
X30010767Y55965899D01*
X29899137Y55951203D01*
X29893309Y55949641D01*
X29828089Y55949641D01*
X29822258Y55951204D01*
X29762570Y55959062D01*
X29710625Y55965900D01*
X29710621Y55965900D01*
X29510776Y55965900D01*
X29510767Y55965899D01*
X29399137Y55951203D01*
X29393309Y55949641D01*
X29328089Y55949641D01*
X29322258Y55951204D01*
X29262570Y55959062D01*
X29210625Y55965900D01*
X29210621Y55965900D01*
X29010776Y55965900D01*
X29010767Y55965899D01*
X28899137Y55951203D01*
X28893309Y55949641D01*
X28828089Y55949641D01*
X28822258Y55951204D01*
X28762570Y55959062D01*
X28710625Y55965900D01*
X28710621Y55965900D01*
X28510776Y55965900D01*
X28510767Y55965899D01*
X28399137Y55951203D01*
X28393309Y55949641D01*
X28328089Y55949641D01*
X28322258Y55951204D01*
X28262570Y55959062D01*
X28210625Y55965900D01*
X28210621Y55965900D01*
X28010776Y55965900D01*
X28010764Y55965899D01*
X28010535Y55965868D01*
X28010466Y55965879D01*
X28006653Y55965629D01*
X28006597Y55966483D01*
X27940386Y55976808D01*
X27887288Y56023937D01*
X27868099Y56092291D01*
X27869167Y56107225D01*
X27869200Y56107475D01*
X27869199Y56307324D01*
X27854503Y56418961D01*
X27854501Y56418965D01*
X27852941Y56424789D01*
X27852942Y56490013D01*
X27854500Y56495833D01*
X27854503Y56495839D01*
X27869200Y56607475D01*
X27869199Y56807324D01*
X27854503Y56918961D01*
X27854501Y56918965D01*
X27852941Y56924789D01*
X27852942Y56990013D01*
X27854500Y56995833D01*
X27854503Y56995839D01*
X27869200Y57107475D01*
X27869199Y57307324D01*
X27866372Y57328796D01*
X27854503Y57418959D01*
X27854503Y57418961D01*
X27854501Y57418965D01*
X27852941Y57424789D01*
X27852942Y57490013D01*
X27854500Y57495833D01*
X27854503Y57495839D01*
X27869200Y57607475D01*
X27869199Y57807324D01*
X27854503Y57918961D01*
X27854501Y57918965D01*
X27852941Y57924789D01*
X27852942Y57990013D01*
X27854500Y57995833D01*
X27854503Y57995839D01*
X27869200Y58107475D01*
X27869199Y58307324D01*
X27864272Y58344748D01*
X27854503Y58418959D01*
X27854503Y58418961D01*
X27854501Y58418965D01*
X27852941Y58424789D01*
X27852942Y58490013D01*
X27854500Y58495833D01*
X27854503Y58495839D01*
X27869200Y58607475D01*
X27869199Y58807324D01*
X27869170Y58807541D01*
X27869180Y58807606D01*
X27868929Y58811447D01*
X27869787Y58811504D01*
X27880095Y58877688D01*
X27927212Y58930797D01*
X27995561Y58950001D01*
X28010529Y58948933D01*
X28010775Y58948900D01*
X28210624Y58948901D01*
X28210860Y58948932D01*
X28218980Y58950001D01*
X28322261Y58963597D01*
X28322269Y58963601D01*
X28328086Y58965158D01*
X28393310Y58965159D01*
X28399137Y58963598D01*
X28399139Y58963597D01*
X28510775Y58948900D01*
X28710624Y58948901D01*
X28710860Y58948932D01*
X28718980Y58950001D01*
X28822261Y58963597D01*
X28822269Y58963601D01*
X28828086Y58965158D01*
X28893310Y58965159D01*
X28899137Y58963598D01*
X28899139Y58963597D01*
X29010775Y58948900D01*
X29210624Y58948901D01*
X29210860Y58948932D01*
X29218980Y58950001D01*
X29322261Y58963597D01*
X29322269Y58963601D01*
X29328086Y58965158D01*
X29393310Y58965159D01*
X29399137Y58963598D01*
X29399139Y58963597D01*
X29510775Y58948900D01*
X29710624Y58948901D01*
X29710860Y58948932D01*
X29718980Y58950001D01*
X29822261Y58963597D01*
X29822269Y58963601D01*
X29828086Y58965158D01*
X29893310Y58965159D01*
X29899137Y58963598D01*
X29899139Y58963597D01*
X30010775Y58948900D01*
X30210624Y58948901D01*
X30210860Y58948932D01*
X30218980Y58950001D01*
X30322261Y58963597D01*
X30322269Y58963601D01*
X30328086Y58965158D01*
X30393310Y58965159D01*
X30399137Y58963598D01*
G37*
%TD.AperFunction*%
%TA.AperFunction,Conductor*%
G36*
X35547622Y67650598D02*
G01*
X35594115Y67596942D01*
X35605501Y67544600D01*
X35605501Y67212704D01*
X35608434Y67175410D01*
X35654818Y67015760D01*
X35739448Y66872659D01*
X35739449Y66872657D01*
X35856996Y66755110D01*
X35856998Y66755109D01*
X36000098Y66670479D01*
X36159751Y66624095D01*
X36159750Y66624095D01*
X36192091Y66621550D01*
X36258433Y66596266D01*
X36300574Y66539129D01*
X36305135Y66468279D01*
X36290662Y66431799D01*
X36222769Y66316998D01*
X36177090Y66159774D01*
X36175660Y66141601D01*
X36175661Y66141600D01*
X36836200Y66141600D01*
X36904321Y66121598D01*
X36950814Y66067942D01*
X36962200Y66015600D01*
X36962200Y65887600D01*
X37007700Y65887600D01*
X37075821Y65867598D01*
X37122314Y65813942D01*
X37133700Y65761600D01*
X37133700Y65652107D01*
X37136593Y65615349D01*
X37136593Y65615348D01*
X37153037Y65558748D01*
X37179467Y65467774D01*
X37182307Y65458001D01*
X37198653Y65430362D01*
X37216200Y65366222D01*
X37216200Y65075928D01*
X37231831Y65064191D01*
X37247340Y65064147D01*
X37306957Y65025595D01*
X37336268Y64960931D01*
X37337500Y64943352D01*
X37337500Y62838825D01*
X37337499Y62838825D01*
X37377347Y62690114D01*
X37431646Y62596065D01*
X37454321Y62556790D01*
X37454323Y62556788D01*
X37454324Y62556786D01*
X37901255Y62109855D01*
X37935279Y62047544D01*
X37930215Y61976729D01*
X37901256Y61931667D01*
X37880908Y61911319D01*
X37797570Y61770401D01*
X37751890Y61613174D01*
X37750460Y61595001D01*
X37750461Y61595000D01*
X38363920Y61595000D01*
X38393835Y61586217D01*
X38424305Y61579588D01*
X38429400Y61575774D01*
X38432041Y61574998D01*
X38453015Y61558095D01*
X38500095Y61511015D01*
X38534121Y61448703D01*
X38537000Y61421920D01*
X38537000Y61341000D01*
X38582500Y61341000D01*
X38650621Y61320998D01*
X38697114Y61267342D01*
X38708500Y61215000D01*
X38708500Y61105507D01*
X38711393Y61068749D01*
X38711393Y61068748D01*
X38721140Y61035200D01*
X38752369Y60927707D01*
X38757107Y60911401D01*
X38840510Y60770374D01*
X38840561Y60770309D01*
X38840584Y60770250D01*
X38844547Y60763549D01*
X38843466Y60762910D01*
X38849167Y60748388D01*
X38861896Y60728582D01*
X38864757Y60708679D01*
X38866507Y60704223D01*
X38867000Y60693084D01*
X38867000Y60609645D01*
X38849454Y60545507D01*
X38803856Y60468405D01*
X38757437Y60308630D01*
X38757437Y60308629D01*
X38754500Y60271312D01*
X38754500Y59113289D01*
X38757437Y59075972D01*
X38757437Y59075971D01*
X38780646Y58996084D01*
X38803855Y58916199D01*
X38840875Y58853601D01*
X38849453Y58839098D01*
X38867000Y58774958D01*
X38867000Y58524808D01*
X38870683Y58522042D01*
X38913148Y58465146D01*
X38918112Y58394323D01*
X38891002Y58344734D01*
X38893405Y58342870D01*
X38888544Y58336604D01*
X38803856Y58193406D01*
X38757437Y58033630D01*
X38757437Y58033629D01*
X38754500Y57996312D01*
X38754500Y56874800D01*
X38751908Y56865975D01*
X38753218Y56856868D01*
X38742062Y56832443D01*
X38734498Y56806679D01*
X38727544Y56800655D01*
X38723724Y56792288D01*
X38701138Y56777774D01*
X38680842Y56760186D01*
X38670155Y56757862D01*
X38663998Y56753904D01*
X38628500Y56748800D01*
X38597500Y56748800D01*
X38529379Y56768802D01*
X38482886Y56822458D01*
X38471500Y56874800D01*
X38471500Y57996311D01*
X38471499Y57996312D01*
X38468562Y58033629D01*
X38468562Y58033630D01*
X38455933Y58077100D01*
X38422145Y58193401D01*
X38422143Y58193403D01*
X38422143Y58193406D01*
X38337455Y58336604D01*
X38332595Y58342870D01*
X38335015Y58344748D01*
X38307848Y58394499D01*
X38312913Y58465314D01*
X38355317Y58522043D01*
X38359000Y58524809D01*
X38359000Y58774958D01*
X38376547Y58839098D01*
X38422145Y58916199D01*
X38468562Y59075969D01*
X38471499Y59113289D01*
X38471500Y59113289D01*
X38471500Y60271311D01*
X38471499Y60271312D01*
X38471253Y60274432D01*
X38468562Y60308631D01*
X38422145Y60468401D01*
X38422143Y60468405D01*
X38422143Y60468406D01*
X38337455Y60611604D01*
X38337450Y60611611D01*
X38319905Y60629156D01*
X38285879Y60691468D01*
X38283000Y60718251D01*
X38283000Y61087000D01*
X37750461Y61087000D01*
X37751890Y61068829D01*
X37764783Y61024454D01*
X37764581Y60953457D01*
X37726027Y60893841D01*
X37661362Y60864532D01*
X37643786Y60863300D01*
X37446489Y60863300D01*
X37409171Y60860363D01*
X37409170Y60860363D01*
X37249394Y60813944D01*
X37106196Y60729256D01*
X37106189Y60729251D01*
X36988549Y60611611D01*
X36988544Y60611604D01*
X36903856Y60468406D01*
X36874642Y60367847D01*
X36836429Y60308012D01*
X36771933Y60278334D01*
X36753645Y60277000D01*
X34393123Y60277000D01*
X34293983Y60250436D01*
X34244413Y60237153D01*
X34189858Y60205655D01*
X34111089Y60160179D01*
X34111083Y60160174D01*
X33895910Y59945000D01*
X33279913Y59329004D01*
X33217603Y59294980D01*
X33190820Y59292100D01*
X32856703Y59292100D01*
X32788582Y59312102D01*
X32742089Y59365758D01*
X32731781Y59401655D01*
X32730035Y59414915D01*
X32729503Y59418961D01*
X32671967Y59557864D01*
X32580442Y59677142D01*
X32461164Y59768667D01*
X32322261Y59826203D01*
X32322259Y59826204D01*
X32210627Y59840900D01*
X32210625Y59840900D01*
X31870199Y59840900D01*
X31802078Y59860902D01*
X31755585Y59914558D01*
X31744199Y59966900D01*
X31744199Y60307325D01*
X31744198Y60307333D01*
X31739403Y60343755D01*
X31729503Y60418961D01*
X31704990Y60478139D01*
X31695400Y60526356D01*
X31695400Y61397920D01*
X31715402Y61466041D01*
X31732305Y61487015D01*
X33110791Y62865500D01*
X34507276Y64261985D01*
X34554338Y64343500D01*
X34584253Y64395314D01*
X34624100Y64544023D01*
X34624100Y65633600D01*
X36175661Y65633600D01*
X36177090Y65615427D01*
X36222770Y65458200D01*
X36306108Y65317282D01*
X36306114Y65317275D01*
X36421874Y65201515D01*
X36421881Y65201509D01*
X36562798Y65118171D01*
X36708200Y65075928D01*
X36708200Y65633600D01*
X36175661Y65633600D01*
X34624100Y65633600D01*
X34624100Y66354555D01*
X34644102Y66422676D01*
X34697758Y66469169D01*
X34710455Y66474156D01*
X34815729Y66509039D01*
X34965398Y66601356D01*
X35089744Y66725702D01*
X35182061Y66875371D01*
X35237374Y67042296D01*
X35247900Y67145325D01*
X35247899Y67544601D01*
X35250490Y67553426D01*
X35249181Y67562532D01*
X35260336Y67586959D01*
X35267901Y67612720D01*
X35274853Y67618745D01*
X35278675Y67627112D01*
X35301259Y67641627D01*
X35321556Y67659214D01*
X35332243Y67661539D01*
X35338401Y67665496D01*
X35373899Y67670600D01*
X35479501Y67670600D01*
X35547622Y67650598D01*
G37*
%TD.AperFunction*%
%TA.AperFunction,Conductor*%
G36*
X32773021Y67650598D02*
G01*
X32819514Y67596942D01*
X32830900Y67544600D01*
X32830900Y67145326D01*
X32839514Y67061008D01*
X32841426Y67042296D01*
X32883172Y66916313D01*
X32896739Y66875371D01*
X32989056Y66725702D01*
X32989061Y66725696D01*
X33113395Y66601362D01*
X33113401Y66601357D01*
X33113402Y66601356D01*
X33263071Y66509039D01*
X33368334Y66474159D01*
X33426704Y66433746D01*
X33453960Y66368190D01*
X33454700Y66354555D01*
X33454700Y64915381D01*
X33434698Y64847260D01*
X33417795Y64826286D01*
X32066700Y63475190D01*
X30751686Y62160176D01*
X30702404Y62110894D01*
X30642825Y62051316D01*
X30642821Y62051311D01*
X30565847Y61917987D01*
X30554966Y61877379D01*
X30526434Y61770894D01*
X30526000Y61769276D01*
X30526000Y60953404D01*
X30516589Y60921357D01*
X30508307Y60889018D01*
X30506639Y60887469D01*
X30505998Y60885283D01*
X30480755Y60863411D01*
X30456304Y60840684D01*
X30453557Y60839844D01*
X30452342Y60838790D01*
X30422266Y60829387D01*
X30419352Y60828864D01*
X30399139Y60826203D01*
X30395012Y60824494D01*
X30382966Y60822331D01*
X30361650Y60824641D01*
X30328089Y60824641D01*
X30322258Y60826204D01*
X30258175Y60834640D01*
X30210625Y60840900D01*
X30210621Y60840900D01*
X30010776Y60840900D01*
X30010767Y60840899D01*
X29899137Y60826203D01*
X29893309Y60824641D01*
X29828089Y60824641D01*
X29822258Y60826204D01*
X29758175Y60834640D01*
X29710625Y60840900D01*
X29710621Y60840900D01*
X29510776Y60840900D01*
X29510767Y60840899D01*
X29399137Y60826203D01*
X29393309Y60824641D01*
X29328089Y60824641D01*
X29322258Y60826204D01*
X29258175Y60834640D01*
X29210625Y60840900D01*
X29210621Y60840900D01*
X29010776Y60840900D01*
X29010767Y60840899D01*
X28899137Y60826203D01*
X28893309Y60824641D01*
X28885538Y60824096D01*
X28881283Y60822041D01*
X28866551Y60822762D01*
X28845428Y60821277D01*
X28829440Y60823230D01*
X28822261Y60826203D01*
X28710625Y60840900D01*
X28684726Y60840900D01*
X28677117Y60841829D01*
X28651273Y60852973D01*
X28624268Y60860902D01*
X28615152Y60868548D01*
X28611923Y60869940D01*
X28609887Y60872964D01*
X28599865Y60881370D01*
X28574139Y60909200D01*
X27913600Y60909200D01*
X27845479Y60929202D01*
X27798986Y60982858D01*
X27787600Y61035200D01*
X27787600Y61163200D01*
X27742100Y61163200D01*
X27673979Y61183202D01*
X27627486Y61236858D01*
X27616100Y61289200D01*
X27616100Y61398693D01*
X27616099Y61398694D01*
X27615597Y61405066D01*
X27614642Y61417200D01*
X28041600Y61417200D01*
X28574139Y61417200D01*
X28574139Y61417201D01*
X28572709Y61435374D01*
X28527029Y61592601D01*
X28443691Y61733519D01*
X28443685Y61733526D01*
X28327925Y61849286D01*
X28327918Y61849292D01*
X28187000Y61932630D01*
X28187002Y61932630D01*
X28041600Y61974874D01*
X28041600Y61417200D01*
X27614642Y61417200D01*
X27613206Y61435454D01*
X27585222Y61531777D01*
X27585425Y61602770D01*
X27589804Y61615130D01*
X27606469Y61655360D01*
X27638700Y61817395D01*
X27638700Y61982605D01*
X27606469Y62144640D01*
X27543246Y62297273D01*
X27451461Y62434640D01*
X27451459Y62434642D01*
X27451454Y62434648D01*
X27334647Y62551455D01*
X27334641Y62551460D01*
X27326673Y62556784D01*
X27239484Y62615042D01*
X27193957Y62669518D01*
X27185109Y62739961D01*
X27206401Y62792258D01*
X27212673Y62801184D01*
X27242876Y62831385D01*
X27281364Y62898050D01*
X27319853Y62964714D01*
X27359700Y63113423D01*
X27359700Y63240501D01*
X27379702Y63308622D01*
X27433358Y63355115D01*
X27485696Y63366501D01*
X27763978Y63366501D01*
X27799889Y63369326D01*
X27953593Y63413982D01*
X28091363Y63495458D01*
X28204542Y63608637D01*
X28286018Y63746407D01*
X28330674Y63900111D01*
X28333500Y63936021D01*
X28333499Y64324484D01*
X28917000Y64324484D01*
X28927605Y64220682D01*
X28927606Y64220679D01*
X28983342Y64052475D01*
X29076365Y63901661D01*
X29076370Y63901655D01*
X29201654Y63776371D01*
X29201660Y63776366D01*
X29352474Y63683343D01*
X29520678Y63627607D01*
X29520681Y63627606D01*
X29624483Y63617001D01*
X29624483Y63617000D01*
X30171000Y63617000D01*
X30679000Y63617000D01*
X31225517Y63617000D01*
X31225516Y63617001D01*
X31329318Y63627606D01*
X31329321Y63627607D01*
X31497525Y63683343D01*
X31648339Y63776366D01*
X31648345Y63776371D01*
X31773629Y63901655D01*
X31773634Y63901661D01*
X31866657Y64052475D01*
X31922393Y64220679D01*
X31922394Y64220682D01*
X31932999Y64324484D01*
X31933000Y64324484D01*
X31933000Y64721000D01*
X30679000Y64721000D01*
X30679000Y63617000D01*
X30171000Y63617000D01*
X30171000Y64721000D01*
X28917000Y64721000D01*
X28917000Y64324484D01*
X28333499Y64324484D01*
X28333499Y64646658D01*
X28342282Y64676573D01*
X28348911Y64707042D01*
X28352725Y64712138D01*
X28353501Y64714778D01*
X28370399Y64735747D01*
X28826750Y65192098D01*
X28889060Y65226121D01*
X28915843Y65229000D01*
X30171000Y65229000D01*
X30679000Y65229000D01*
X31933000Y65229000D01*
X31933000Y65625517D01*
X31922394Y65729319D01*
X31922393Y65729322D01*
X31866657Y65897526D01*
X31773634Y66048340D01*
X31773629Y66048346D01*
X31648345Y66173630D01*
X31648339Y66173635D01*
X31497525Y66266658D01*
X31329321Y66322394D01*
X31329318Y66322395D01*
X31225516Y66333000D01*
X30679000Y66333000D01*
X30679000Y65229000D01*
X30171000Y65229000D01*
X30171000Y66333001D01*
X30158422Y66345579D01*
X30124396Y66407891D01*
X30129461Y66478706D01*
X30158422Y66523769D01*
X31268348Y67633695D01*
X31330660Y67667721D01*
X31357443Y67670600D01*
X32704900Y67670600D01*
X32773021Y67650598D01*
G37*
%TD.AperFunction*%
%TA.AperFunction,Conductor*%
G36*
X24567121Y64854998D02*
G01*
X24613614Y64801342D01*
X24625000Y64749000D01*
X24625000Y63377144D01*
X24739846Y63410509D01*
X24754762Y63411031D01*
X24765834Y63415178D01*
X24792623Y63412356D01*
X24801609Y63412670D01*
X25026128Y63364159D01*
X25045963Y63353365D01*
X25067632Y63347003D01*
X25076540Y63336724D01*
X25088488Y63330221D01*
X25099339Y63310416D01*
X25114128Y63293350D01*
X25116064Y63279888D01*
X25122601Y63267957D01*
X25121021Y63245431D01*
X25124237Y63223077D01*
X25118586Y63210702D01*
X25117635Y63197134D01*
X25104128Y63179038D01*
X25094748Y63158495D01*
X25088614Y63151906D01*
X24839115Y62902405D01*
X24776803Y62868380D01*
X24750019Y62865500D01*
X24180023Y62865500D01*
X24031314Y62825653D01*
X24031312Y62825653D01*
X24031308Y62825651D01*
X23964650Y62787165D01*
X23964648Y62787164D01*
X23938498Y62772067D01*
X23869502Y62755330D01*
X23802411Y62778552D01*
X23758525Y62834360D01*
X23749500Y62881187D01*
X23749500Y63339682D01*
X23769502Y63407803D01*
X23823158Y63454296D01*
X23893432Y63464400D01*
X23939641Y63448135D01*
X23996606Y63414445D01*
X24124999Y63377143D01*
X24125000Y63377143D01*
X24125000Y64749000D01*
X24127591Y64757826D01*
X24126282Y64766932D01*
X24137437Y64791358D01*
X24145002Y64817121D01*
X24151955Y64823146D01*
X24155776Y64831512D01*
X24178361Y64846027D01*
X24198658Y64863614D01*
X24209344Y64865939D01*
X24215502Y64869896D01*
X24251000Y64875000D01*
X24499000Y64875000D01*
X24567121Y64854998D01*
G37*
%TD.AperFunction*%
%TA.AperFunction,Conductor*%
G36*
X43909521Y66854198D02*
G01*
X43956014Y66800542D01*
X43967400Y66748200D01*
X43967400Y66096521D01*
X43999785Y66099068D01*
X44155799Y66144395D01*
X44295628Y66227090D01*
X44295635Y66227095D01*
X44335529Y66266989D01*
X44397840Y66301015D01*
X44468656Y66295951D01*
X44513720Y66266990D01*
X46434795Y64345915D01*
X46468821Y64283603D01*
X46471700Y64256820D01*
X46471700Y63779381D01*
X46451698Y63711260D01*
X46398042Y63664767D01*
X46327768Y63654663D01*
X46263188Y63684157D01*
X46256605Y63690286D01*
X44582018Y65364873D01*
X44582009Y65364880D01*
X44565788Y65374245D01*
X44565784Y65374246D01*
X44462312Y65433986D01*
X44436220Y65454007D01*
X44386141Y65504086D01*
X44386140Y65504087D01*
X44251091Y65583955D01*
X44251090Y65583956D01*
X44251089Y65583956D01*
X44135765Y65617461D01*
X44100415Y65627731D01*
X44068506Y65630242D01*
X44065220Y65630500D01*
X43564780Y65630500D01*
X43561774Y65630264D01*
X43529584Y65627731D01*
X43378908Y65583955D01*
X43243859Y65504087D01*
X43243855Y65504084D01*
X43132916Y65393145D01*
X43132913Y65393141D01*
X43053045Y65258092D01*
X43053044Y65258090D01*
X43053044Y65258089D01*
X43046669Y65236146D01*
X43009269Y65107416D01*
X43006500Y65072220D01*
X43006500Y65036579D01*
X42986498Y64968458D01*
X42932842Y64921965D01*
X42862568Y64911861D01*
X42797988Y64941355D01*
X42791405Y64947484D01*
X42482647Y65256242D01*
X42470453Y65270393D01*
X42466598Y65275604D01*
X42397086Y65393141D01*
X42329980Y65460247D01*
X42324411Y65467774D01*
X42315284Y65492667D01*
X42302579Y65515935D01*
X42300846Y65532049D01*
X42299973Y65534432D01*
X42300390Y65536299D01*
X42299700Y65542718D01*
X42299700Y65865820D01*
X42319702Y65933941D01*
X42336605Y65954915D01*
X42397485Y66015795D01*
X42459797Y66049821D01*
X42486580Y66052700D01*
X42755059Y66052700D01*
X42755066Y66052700D01*
X42871587Y66068040D01*
X43016572Y66128095D01*
X43071759Y66170443D01*
X43137976Y66196043D01*
X43207525Y66181779D01*
X43212603Y66178932D01*
X43271001Y66144394D01*
X43427014Y66099068D01*
X43459399Y66096521D01*
X43459400Y66096521D01*
X43459400Y66748200D01*
X43479402Y66816321D01*
X43533058Y66862814D01*
X43585400Y66874200D01*
X43841400Y66874200D01*
X43909521Y66854198D01*
G37*
%TD.AperFunction*%
%TA.AperFunction,Conductor*%
G36*
X37595494Y68875658D02*
G01*
X37641987Y68822002D01*
X37652091Y68751728D01*
X37635826Y68705522D01*
X37616416Y68672700D01*
X37554356Y68567764D01*
X37507937Y68407990D01*
X37507937Y68407989D01*
X37505000Y68370672D01*
X37505000Y67212649D01*
X37507937Y67175332D01*
X37507937Y67175331D01*
X37554356Y67015555D01*
X37639045Y66872354D01*
X37640009Y66871112D01*
X37640460Y66869962D01*
X37643082Y66865529D01*
X37642366Y66865107D01*
X37650000Y66845664D01*
X37663320Y66821786D01*
X37662778Y66813115D01*
X37665954Y66805026D01*
X37660600Y66778217D01*
X37658897Y66750928D01*
X37653752Y66743925D01*
X37652051Y66735404D01*
X37633053Y66715745D01*
X37616867Y66693709D01*
X37606900Y66688682D01*
X37602715Y66684350D01*
X37585547Y66676237D01*
X37580631Y66674353D01*
X37522603Y66657494D01*
X37496718Y66642187D01*
X37486808Y66638387D01*
X37461569Y66636352D01*
X37437026Y66630126D01*
X37425679Y66633459D01*
X37416041Y66632681D01*
X37401052Y66640690D01*
X37377569Y66647586D01*
X37361601Y66657030D01*
X37204377Y66702708D01*
X37204369Y66702710D01*
X37198114Y66703202D01*
X37131774Y66728491D01*
X37089638Y66785631D01*
X37085082Y66856481D01*
X37099554Y66892952D01*
X37172180Y67015756D01*
X37218565Y67175411D01*
X37221500Y67212704D01*
X37221500Y67537660D01*
X36539500Y67537660D01*
X36471379Y67557662D01*
X36424886Y67611318D01*
X36413500Y67663660D01*
X36413500Y67919660D01*
X36433502Y67987781D01*
X36487158Y68034274D01*
X36539500Y68045660D01*
X37221499Y68045660D01*
X37221499Y68370617D01*
X37218565Y68407911D01*
X37172181Y68567561D01*
X37090592Y68705521D01*
X37073133Y68774337D01*
X37095650Y68841668D01*
X37150994Y68886138D01*
X37199046Y68895660D01*
X37527373Y68895660D01*
X37595494Y68875658D01*
G37*
%TD.AperFunction*%
%TA.AperFunction,Conductor*%
G36*
X50803801Y73524270D02*
G01*
X50832245Y73522550D01*
X51089466Y73506991D01*
X51104547Y73505160D01*
X51382305Y73454259D01*
X51397052Y73450624D01*
X51666660Y73366611D01*
X51680872Y73361220D01*
X51699685Y73352753D01*
X51938355Y73245336D01*
X51951827Y73238266D01*
X52193476Y73092185D01*
X52205998Y73083541D01*
X52428267Y72909405D01*
X52439656Y72899315D01*
X52639314Y72699657D01*
X52649404Y72688268D01*
X52823540Y72465999D01*
X52832184Y72453477D01*
X52978265Y72211828D01*
X52985335Y72198356D01*
X53101217Y71940878D01*
X53106613Y71926652D01*
X53173704Y71711349D01*
X53190619Y71657069D01*
X53194260Y71642295D01*
X53245157Y71364560D01*
X53246991Y71349456D01*
X53264270Y71063803D01*
X53264500Y71056195D01*
X53264500Y2483806D01*
X53264270Y2476198D01*
X53246991Y2190545D01*
X53245157Y2175441D01*
X53194260Y1897706D01*
X53190619Y1882932D01*
X53106613Y1613349D01*
X53101217Y1599123D01*
X52985335Y1341645D01*
X52978265Y1328173D01*
X52832184Y1086524D01*
X52823540Y1074002D01*
X52649404Y851733D01*
X52639314Y840344D01*
X52439656Y640686D01*
X52428267Y630596D01*
X52205998Y456460D01*
X52193476Y447816D01*
X51951827Y301735D01*
X51938355Y294665D01*
X51680877Y178783D01*
X51666651Y173387D01*
X51397068Y89381D01*
X51382294Y85740D01*
X51104559Y34843D01*
X51089455Y33009D01*
X50803802Y15730D01*
X50796194Y15500D01*
X2543806Y15500D01*
X2536198Y15730D01*
X2250544Y33009D01*
X2235440Y34843D01*
X1957705Y85740D01*
X1942935Y89380D01*
X1673348Y173387D01*
X1659122Y178783D01*
X1401644Y294665D01*
X1388172Y301735D01*
X1146523Y447816D01*
X1134001Y456460D01*
X911732Y630596D01*
X900343Y640686D01*
X700685Y840344D01*
X690595Y851733D01*
X516459Y1074002D01*
X507815Y1086524D01*
X361734Y1328173D01*
X354664Y1341645D01*
X238782Y1599123D01*
X233389Y1613340D01*
X149376Y1882948D01*
X145741Y1897695D01*
X94840Y2175453D01*
X93009Y2190534D01*
X75730Y2476199D01*
X75500Y2483806D01*
X75500Y45766916D01*
X3594500Y45766916D01*
X3594500Y45553084D01*
X3627951Y45341884D01*
X3627952Y45341879D01*
X3692763Y45142410D01*
X3694028Y45138517D01*
X3784981Y44960012D01*
X3791108Y44947988D01*
X3808875Y44923534D01*
X3916794Y44774996D01*
X3916796Y44774994D01*
X3916798Y44774991D01*
X4067990Y44623799D01*
X4067993Y44623797D01*
X4067996Y44623794D01*
X4240991Y44498106D01*
X4382005Y44426256D01*
X4433620Y44377509D01*
X4450686Y44308594D01*
X4427786Y44241393D01*
X4398864Y44212054D01*
X4321989Y44156201D01*
X4170798Y44005010D01*
X4170796Y44005007D01*
X4045108Y43832013D01*
X3948029Y43641485D01*
X3948026Y43641479D01*
X3881952Y43438122D01*
X3881951Y43438117D01*
X3881951Y43438116D01*
X3848500Y43226916D01*
X3848500Y43013084D01*
X3881951Y42801884D01*
X3881952Y42801879D01*
X3933389Y42643572D01*
X3948028Y42598517D01*
X4045106Y42407991D01*
X4170794Y42234996D01*
X4170796Y42234994D01*
X4170798Y42234991D01*
X4321990Y42083799D01*
X4321993Y42083797D01*
X4321996Y42083794D01*
X4398863Y42027947D01*
X4442217Y41971725D01*
X4448292Y41900989D01*
X4415161Y41838197D01*
X4382006Y41813746D01*
X4255355Y41749214D01*
X4240987Y41741892D01*
X4067993Y41616204D01*
X4067990Y41616202D01*
X3916798Y41465010D01*
X3916796Y41465007D01*
X3791108Y41292013D01*
X3694029Y41101485D01*
X3694028Y41101482D01*
X3627952Y40898122D01*
X3627951Y40898117D01*
X3627951Y40898116D01*
X3594500Y40686916D01*
X3594500Y40473084D01*
X3625160Y40279505D01*
X3627952Y40261879D01*
X3683141Y40092023D01*
X3694028Y40058517D01*
X3791106Y39867991D01*
X3916794Y39694996D01*
X3916796Y39694994D01*
X3916798Y39694991D01*
X4067990Y39543799D01*
X4067993Y39543797D01*
X4067996Y39543794D01*
X4240991Y39418106D01*
X4382005Y39346256D01*
X4433620Y39297509D01*
X4450686Y39228594D01*
X4427786Y39161393D01*
X4398864Y39132054D01*
X4321989Y39076201D01*
X4170798Y38925010D01*
X4170796Y38925007D01*
X4045108Y38752013D01*
X3948029Y38561485D01*
X3948028Y38561482D01*
X3881952Y38358122D01*
X3881951Y38358117D01*
X3881951Y38358116D01*
X3848500Y38146916D01*
X3848500Y37933084D01*
X3881951Y37721884D01*
X3881952Y37721879D01*
X3948026Y37518522D01*
X3948028Y37518517D01*
X4045106Y37327991D01*
X4170794Y37154996D01*
X4170796Y37154994D01*
X4170798Y37154991D01*
X4321990Y37003799D01*
X4321993Y37003797D01*
X4321996Y37003794D01*
X4398863Y36947947D01*
X4442217Y36891725D01*
X4448292Y36820989D01*
X4415161Y36758197D01*
X4382006Y36733746D01*
X4297738Y36690808D01*
X4240987Y36661892D01*
X4067993Y36536204D01*
X4067990Y36536202D01*
X3916798Y36385010D01*
X3916796Y36385007D01*
X3791108Y36212013D01*
X3694029Y36021485D01*
X3694026Y36021479D01*
X3627952Y35818122D01*
X3627951Y35818117D01*
X3627951Y35818116D01*
X3594500Y35606916D01*
X3594500Y35393084D01*
X3627951Y35181884D01*
X3627952Y35181879D01*
X3692168Y34984241D01*
X3694028Y34978517D01*
X3791106Y34787991D01*
X3791108Y34787988D01*
X3814813Y34755361D01*
X3916794Y34614996D01*
X3916796Y34614994D01*
X3916798Y34614991D01*
X4067990Y34463799D01*
X4067993Y34463797D01*
X4067996Y34463794D01*
X4240991Y34338106D01*
X4382005Y34266256D01*
X4433620Y34217509D01*
X4450686Y34148594D01*
X4427786Y34081393D01*
X4398864Y34052054D01*
X4321989Y33996201D01*
X4170798Y33845010D01*
X4170796Y33845007D01*
X4045108Y33672013D01*
X3948029Y33481485D01*
X3948026Y33481479D01*
X3881952Y33278122D01*
X3881951Y33278117D01*
X3881951Y33278116D01*
X3848500Y33066916D01*
X3848500Y32853084D01*
X3881951Y32641884D01*
X3881952Y32641879D01*
X3948026Y32438522D01*
X3948028Y32438517D01*
X4045106Y32247991D01*
X4170794Y32074996D01*
X4170796Y32074994D01*
X4170798Y32074991D01*
X4321990Y31923799D01*
X4321993Y31923797D01*
X4321996Y31923794D01*
X4398863Y31867947D01*
X4442217Y31811725D01*
X4448292Y31740989D01*
X4415161Y31678197D01*
X4382006Y31653746D01*
X4262892Y31593053D01*
X4240987Y31581892D01*
X4067993Y31456204D01*
X4067990Y31456202D01*
X3916798Y31305010D01*
X3916796Y31305007D01*
X3791108Y31132013D01*
X3694029Y30941485D01*
X3694028Y30941482D01*
X3627952Y30738122D01*
X3627951Y30738117D01*
X3627951Y30738116D01*
X3594500Y30526916D01*
X3594500Y30313084D01*
X3627951Y30101884D01*
X3627952Y30101879D01*
X3688196Y29916466D01*
X3694028Y29898517D01*
X3791106Y29707991D01*
X3916794Y29534996D01*
X3916796Y29534994D01*
X3916798Y29534991D01*
X4067990Y29383799D01*
X4067993Y29383797D01*
X4067996Y29383794D01*
X4240991Y29258106D01*
X4382005Y29186256D01*
X4433620Y29137509D01*
X4450686Y29068594D01*
X4427786Y29001393D01*
X4398864Y28972054D01*
X4321989Y28916201D01*
X4170798Y28765010D01*
X4170796Y28765007D01*
X4045108Y28592013D01*
X3948029Y28401485D01*
X3948026Y28401479D01*
X3881952Y28198122D01*
X3881951Y28198117D01*
X3881951Y28198116D01*
X3848500Y27986916D01*
X3848500Y27773084D01*
X3878037Y27586599D01*
X3881952Y27561879D01*
X3929477Y27415611D01*
X3948028Y27358517D01*
X4045106Y27167991D01*
X4170794Y26994996D01*
X4170796Y26994994D01*
X4170798Y26994991D01*
X4321990Y26843799D01*
X4321993Y26843797D01*
X4321996Y26843794D01*
X4385026Y26798000D01*
X4398863Y26787947D01*
X4442217Y26731725D01*
X4448292Y26660989D01*
X4415161Y26598197D01*
X4382006Y26573746D01*
X4323629Y26544000D01*
X4240987Y26501892D01*
X4067993Y26376204D01*
X4067990Y26376202D01*
X3916798Y26225010D01*
X3916796Y26225007D01*
X3791108Y26052013D01*
X3694029Y25861485D01*
X3694026Y25861479D01*
X3627952Y25658122D01*
X3627951Y25658117D01*
X3627951Y25658116D01*
X3594500Y25446916D01*
X3594500Y25233084D01*
X3616383Y25094924D01*
X3627952Y25021879D01*
X3694026Y24818522D01*
X3694028Y24818517D01*
X3748103Y24712389D01*
X3791108Y24627988D01*
X3822182Y24585219D01*
X3916794Y24454996D01*
X3916796Y24454994D01*
X3916798Y24454991D01*
X4067990Y24303799D01*
X4067993Y24303797D01*
X4067996Y24303794D01*
X4240991Y24178106D01*
X4382005Y24106256D01*
X4433620Y24057509D01*
X4450686Y23988594D01*
X4427786Y23921393D01*
X4398864Y23892054D01*
X4321989Y23836201D01*
X4170798Y23685010D01*
X4170796Y23685007D01*
X4045108Y23512013D01*
X3948029Y23321485D01*
X3948026Y23321479D01*
X3881952Y23118122D01*
X3881951Y23118117D01*
X3881951Y23118116D01*
X3848500Y22906916D01*
X3848500Y22693084D01*
X3875025Y22525615D01*
X3881952Y22481879D01*
X3935322Y22317622D01*
X3948028Y22278517D01*
X4045106Y22087991D01*
X4045108Y22087988D01*
X4076182Y22045219D01*
X4170794Y21914996D01*
X4170796Y21914994D01*
X4170798Y21914991D01*
X4321990Y21763799D01*
X4321993Y21763797D01*
X4321996Y21763794D01*
X4398863Y21707947D01*
X4442217Y21651725D01*
X4448292Y21580989D01*
X4415161Y21518197D01*
X4382006Y21493746D01*
X4255355Y21429214D01*
X4240987Y21421892D01*
X4067993Y21296204D01*
X4067990Y21296202D01*
X3916798Y21145010D01*
X3916796Y21145007D01*
X3791108Y20972013D01*
X3694029Y20781485D01*
X3694026Y20781479D01*
X3627952Y20578122D01*
X3627951Y20578117D01*
X3627951Y20578116D01*
X3594500Y20366916D01*
X3594500Y20153084D01*
X3627951Y19941884D01*
X3627952Y19941879D01*
X3694026Y19738522D01*
X3694028Y19738517D01*
X3791106Y19547991D01*
X3916794Y19374996D01*
X3916796Y19374994D01*
X3916798Y19374991D01*
X4067990Y19223799D01*
X4067993Y19223797D01*
X4067996Y19223794D01*
X4240991Y19098106D01*
X4382005Y19026256D01*
X4433620Y18977509D01*
X4450686Y18908594D01*
X4427786Y18841393D01*
X4398864Y18812054D01*
X4321989Y18756201D01*
X4170798Y18605010D01*
X4170796Y18605007D01*
X4045108Y18432013D01*
X3948029Y18241485D01*
X3948026Y18241479D01*
X3881952Y18038122D01*
X3881951Y18038117D01*
X3881951Y18038116D01*
X3848500Y17826916D01*
X3848500Y17613084D01*
X3881951Y17401884D01*
X3881952Y17401879D01*
X3948026Y17198522D01*
X3948028Y17198517D01*
X4045106Y17007991D01*
X4170794Y16834996D01*
X4170796Y16834994D01*
X4170798Y16834991D01*
X4321990Y16683799D01*
X4321993Y16683797D01*
X4321996Y16683794D01*
X4398863Y16627947D01*
X4442217Y16571725D01*
X4448292Y16500989D01*
X4415161Y16438197D01*
X4382006Y16413746D01*
X4255355Y16349214D01*
X4240987Y16341892D01*
X4067993Y16216204D01*
X4067990Y16216202D01*
X3916798Y16065010D01*
X3916796Y16065007D01*
X3791108Y15892013D01*
X3694029Y15701485D01*
X3694026Y15701479D01*
X3627952Y15498122D01*
X3627951Y15498117D01*
X3627951Y15498116D01*
X3594500Y15286916D01*
X3594500Y15073084D01*
X3627951Y14861884D01*
X3627952Y14861879D01*
X3694026Y14658522D01*
X3694028Y14658517D01*
X3791106Y14467991D01*
X3916794Y14294996D01*
X3916796Y14294994D01*
X3916798Y14294991D01*
X4067990Y14143799D01*
X4067993Y14143797D01*
X4067996Y14143794D01*
X4240991Y14018106D01*
X4382005Y13946256D01*
X4433620Y13897509D01*
X4450686Y13828594D01*
X4427786Y13761393D01*
X4398864Y13732054D01*
X4321989Y13676201D01*
X4170798Y13525010D01*
X4170796Y13525007D01*
X4045108Y13352013D01*
X3948029Y13161485D01*
X3948026Y13161479D01*
X3881952Y12958122D01*
X3881951Y12958117D01*
X3881951Y12958116D01*
X3848500Y12746916D01*
X3848500Y12533084D01*
X3881951Y12321884D01*
X3881952Y12321879D01*
X3917919Y12211183D01*
X3948028Y12118517D01*
X4045106Y11927991D01*
X4170794Y11754996D01*
X4170796Y11754994D01*
X4170798Y11754991D01*
X4321990Y11603799D01*
X4321993Y11603797D01*
X4321996Y11603794D01*
X4398863Y11547947D01*
X4442217Y11491725D01*
X4448292Y11420989D01*
X4415161Y11358197D01*
X4382006Y11333746D01*
X4255355Y11269214D01*
X4240987Y11261892D01*
X4067993Y11136204D01*
X4067990Y11136202D01*
X3916798Y10985010D01*
X3916796Y10985007D01*
X3791108Y10812013D01*
X3694029Y10621485D01*
X3694026Y10621479D01*
X3627952Y10418122D01*
X3627951Y10418117D01*
X3627951Y10418116D01*
X3594500Y10206916D01*
X3594500Y9993084D01*
X3625004Y9800490D01*
X3627952Y9781879D01*
X3694026Y9578522D01*
X3694028Y9578517D01*
X3791106Y9387991D01*
X3916794Y9214996D01*
X3916796Y9214994D01*
X3916798Y9214991D01*
X4067990Y9063799D01*
X4067993Y9063797D01*
X4067996Y9063794D01*
X4240991Y8938106D01*
X4382505Y8866001D01*
X4434120Y8817252D01*
X4451186Y8748337D01*
X4428285Y8681136D01*
X4399364Y8651799D01*
X4322323Y8595825D01*
X4322317Y8595820D01*
X4171177Y8444680D01*
X4045536Y8271751D01*
X3948493Y8081293D01*
X3948490Y8081287D01*
X3882440Y7878005D01*
X3872302Y7814000D01*
X4776297Y7814000D01*
X4741075Y7752993D01*
X4707000Y7625826D01*
X4707000Y7494174D01*
X4741075Y7367007D01*
X4776297Y7306000D01*
X3872302Y7306000D01*
X3882440Y7241996D01*
X3948490Y7038714D01*
X3948493Y7038708D01*
X4045536Y6848250D01*
X4171177Y6675321D01*
X4322320Y6524178D01*
X4495249Y6398537D01*
X4685707Y6301494D01*
X4685713Y6301491D01*
X4888998Y6235440D01*
X4953000Y6225304D01*
X4953000Y7129298D01*
X5014007Y7094075D01*
X5141174Y7060000D01*
X5272826Y7060000D01*
X5399993Y7094075D01*
X5461000Y7129298D01*
X5461000Y6225304D01*
X5525001Y6235440D01*
X5728286Y6301491D01*
X5728292Y6301494D01*
X5918750Y6398537D01*
X6091679Y6524178D01*
X6242822Y6675321D01*
X6368463Y6848250D01*
X6465506Y7038708D01*
X6465509Y7038714D01*
X6531559Y7241996D01*
X6541698Y7306000D01*
X5637703Y7306000D01*
X5672925Y7367007D01*
X5707000Y7494174D01*
X5707000Y7625826D01*
X5672925Y7752993D01*
X5637703Y7814000D01*
X6541697Y7814000D01*
X6531559Y7878005D01*
X6465509Y8081287D01*
X6465506Y8081293D01*
X6368463Y8271751D01*
X6242822Y8444680D01*
X6091679Y8595823D01*
X5918750Y8721464D01*
X5777540Y8793414D01*
X5725925Y8842162D01*
X5708859Y8911077D01*
X5731760Y8978279D01*
X5760679Y9007615D01*
X5838004Y9063794D01*
X5989206Y9214996D01*
X6114894Y9387991D01*
X6144707Y9446504D01*
X6193455Y9498118D01*
X6256974Y9515300D01*
X20576975Y9515300D01*
X20576977Y9515300D01*
X20725686Y9555147D01*
X20859014Y9632124D01*
X20967876Y9740986D01*
X21027380Y9800490D01*
X21027393Y9800505D01*
X31666606Y20439717D01*
X31728916Y20473741D01*
X31799731Y20468676D01*
X31844794Y20439715D01*
X33016579Y19267930D01*
X33016584Y19267926D01*
X33016586Y19267924D01*
X33149915Y19190946D01*
X33298623Y19151100D01*
X33452577Y19151100D01*
X38202820Y19151100D01*
X38270941Y19131098D01*
X38291915Y19114195D01*
X46797505Y10608605D01*
X46831531Y10546293D01*
X46828244Y10480577D01*
X46807952Y10418121D01*
X46807951Y10418118D01*
X46807951Y10418116D01*
X46774500Y10206916D01*
X46774500Y9993084D01*
X46805004Y9800490D01*
X46807952Y9781879D01*
X46874026Y9578522D01*
X46874028Y9578517D01*
X46971106Y9387991D01*
X47096794Y9214996D01*
X47096796Y9214994D01*
X47096798Y9214991D01*
X47247990Y9063799D01*
X47247993Y9063797D01*
X47247996Y9063794D01*
X47420991Y8938106D01*
X47562505Y8866001D01*
X47614120Y8817252D01*
X47631186Y8748337D01*
X47608285Y8681136D01*
X47579364Y8651799D01*
X47502323Y8595825D01*
X47502317Y8595820D01*
X47351177Y8444680D01*
X47225536Y8271751D01*
X47128493Y8081293D01*
X47128490Y8081287D01*
X47062440Y7878005D01*
X47052302Y7814000D01*
X47956297Y7814000D01*
X47921075Y7752993D01*
X47887000Y7625826D01*
X47887000Y7494174D01*
X47921075Y7367007D01*
X47956297Y7306000D01*
X47052302Y7306000D01*
X47062440Y7241996D01*
X47128490Y7038714D01*
X47128493Y7038708D01*
X47225536Y6848250D01*
X47351177Y6675321D01*
X47502320Y6524178D01*
X47675249Y6398537D01*
X47865707Y6301494D01*
X47865713Y6301491D01*
X48068998Y6235440D01*
X48133000Y6225304D01*
X48133000Y7129298D01*
X48194007Y7094075D01*
X48321174Y7060000D01*
X48452826Y7060000D01*
X48579993Y7094075D01*
X48641000Y7129298D01*
X48641000Y6225304D01*
X48705001Y6235440D01*
X48908286Y6301491D01*
X48908292Y6301494D01*
X49098750Y6398537D01*
X49271679Y6524178D01*
X49422822Y6675321D01*
X49548463Y6848250D01*
X49645506Y7038708D01*
X49645509Y7038714D01*
X49711559Y7241996D01*
X49721698Y7306000D01*
X48817703Y7306000D01*
X48852925Y7367007D01*
X48887000Y7494174D01*
X48887000Y7625826D01*
X48852925Y7752993D01*
X48817703Y7814000D01*
X49721697Y7814000D01*
X49711559Y7878005D01*
X49645509Y8081287D01*
X49645506Y8081293D01*
X49548463Y8271751D01*
X49422822Y8444680D01*
X49271679Y8595823D01*
X49098750Y8721464D01*
X48957540Y8793414D01*
X48905925Y8842162D01*
X48888859Y8911077D01*
X48911760Y8978279D01*
X48940679Y9007615D01*
X49018004Y9063794D01*
X49169206Y9214996D01*
X49294894Y9387991D01*
X49391972Y9578517D01*
X49458049Y9781884D01*
X49491500Y9993084D01*
X49491500Y10206916D01*
X49458049Y10418116D01*
X49391972Y10621483D01*
X49294894Y10812009D01*
X49169206Y10985004D01*
X49169203Y10985007D01*
X49169201Y10985010D01*
X49018006Y11136205D01*
X48941136Y11192054D01*
X48897782Y11248277D01*
X48891707Y11319013D01*
X48924839Y11381804D01*
X48957989Y11406253D01*
X49099009Y11478106D01*
X49272004Y11603794D01*
X49423206Y11754996D01*
X49548894Y11927991D01*
X49645972Y12118517D01*
X49712049Y12321884D01*
X49745500Y12533084D01*
X49745500Y12746916D01*
X49712049Y12958116D01*
X49645972Y13161483D01*
X49548894Y13352009D01*
X49423206Y13525004D01*
X49423203Y13525007D01*
X49423201Y13525010D01*
X49272009Y13676202D01*
X49272006Y13676204D01*
X49272004Y13676206D01*
X49099009Y13801894D01*
X48957992Y13873746D01*
X48906379Y13922492D01*
X48889313Y13991407D01*
X48912214Y14058609D01*
X48941133Y14087945D01*
X49018004Y14143794D01*
X49169206Y14294996D01*
X49294894Y14467991D01*
X49391972Y14658517D01*
X49458049Y14861884D01*
X49491500Y15073084D01*
X49491500Y15286916D01*
X49458049Y15498116D01*
X49391972Y15701483D01*
X49294894Y15892009D01*
X49169206Y16065004D01*
X49169203Y16065007D01*
X49169201Y16065010D01*
X49018006Y16216205D01*
X48941136Y16272054D01*
X48897782Y16328277D01*
X48891707Y16399013D01*
X48924839Y16461804D01*
X48957989Y16486253D01*
X49099009Y16558106D01*
X49272004Y16683794D01*
X49423206Y16834996D01*
X49548894Y17007991D01*
X49645972Y17198517D01*
X49712049Y17401884D01*
X49745500Y17613084D01*
X49745500Y17826916D01*
X49712049Y18038116D01*
X49645972Y18241483D01*
X49548894Y18432009D01*
X49423206Y18605004D01*
X49423203Y18605007D01*
X49423201Y18605010D01*
X49272009Y18756202D01*
X49272006Y18756204D01*
X49272004Y18756206D01*
X49099009Y18881894D01*
X48957992Y18953746D01*
X48906379Y19002492D01*
X48889313Y19071407D01*
X48912214Y19138609D01*
X48941133Y19167945D01*
X49018004Y19223794D01*
X49169206Y19374996D01*
X49294894Y19547991D01*
X49391972Y19738517D01*
X49458049Y19941884D01*
X49491500Y20153084D01*
X49491500Y20366916D01*
X49458049Y20578116D01*
X49391972Y20781483D01*
X49294894Y20972009D01*
X49169206Y21145004D01*
X49169203Y21145007D01*
X49169201Y21145010D01*
X49018006Y21296205D01*
X48941136Y21352054D01*
X48897782Y21408277D01*
X48891707Y21479013D01*
X48924839Y21541804D01*
X48957989Y21566253D01*
X49099009Y21638106D01*
X49272004Y21763794D01*
X49423206Y21914996D01*
X49548894Y22087991D01*
X49645972Y22278517D01*
X49712049Y22481884D01*
X49745500Y22693084D01*
X49745500Y22906916D01*
X49712049Y23118116D01*
X49645972Y23321483D01*
X49548894Y23512009D01*
X49423206Y23685004D01*
X49423203Y23685007D01*
X49423201Y23685010D01*
X49272009Y23836202D01*
X49272006Y23836204D01*
X49272004Y23836206D01*
X49141781Y23930818D01*
X49099012Y23961892D01*
X49099011Y23961893D01*
X49099009Y23961894D01*
X48957992Y24033746D01*
X48906379Y24082492D01*
X48889313Y24151407D01*
X48912214Y24218609D01*
X48941133Y24247945D01*
X49018004Y24303794D01*
X49169206Y24454996D01*
X49294894Y24627991D01*
X49391972Y24818517D01*
X49458049Y25021884D01*
X49491500Y25233084D01*
X49491500Y25446916D01*
X49458049Y25658116D01*
X49391972Y25861483D01*
X49294894Y26052009D01*
X49169206Y26225004D01*
X49169203Y26225007D01*
X49169201Y26225010D01*
X49018006Y26376205D01*
X48941136Y26432054D01*
X48897782Y26488277D01*
X48891707Y26559013D01*
X48924839Y26621804D01*
X48957989Y26646253D01*
X49099009Y26718106D01*
X49272004Y26843794D01*
X49423206Y26994996D01*
X49548894Y27167991D01*
X49645972Y27358517D01*
X49712049Y27561884D01*
X49745500Y27773084D01*
X49745500Y27986916D01*
X49712049Y28198116D01*
X49645972Y28401483D01*
X49548894Y28592009D01*
X49423206Y28765004D01*
X49423203Y28765007D01*
X49423201Y28765010D01*
X49272009Y28916202D01*
X49272006Y28916204D01*
X49272004Y28916206D01*
X49099009Y29041894D01*
X48957992Y29113746D01*
X48906379Y29162492D01*
X48889313Y29231407D01*
X48912214Y29298609D01*
X48941133Y29327945D01*
X49018004Y29383794D01*
X49169206Y29534996D01*
X49294894Y29707991D01*
X49391972Y29898517D01*
X49458049Y30101884D01*
X49491500Y30313084D01*
X49491500Y30526916D01*
X49458049Y30738116D01*
X49391972Y30941483D01*
X49294894Y31132009D01*
X49169206Y31305004D01*
X49169203Y31305007D01*
X49169201Y31305010D01*
X49018006Y31456205D01*
X48941136Y31512054D01*
X48897782Y31568277D01*
X48891707Y31639013D01*
X48924839Y31701804D01*
X48957989Y31726253D01*
X49099009Y31798106D01*
X49272004Y31923794D01*
X49423206Y32074996D01*
X49548894Y32247991D01*
X49645972Y32438517D01*
X49712049Y32641884D01*
X49745500Y32853084D01*
X49745500Y33066916D01*
X49712049Y33278116D01*
X49645972Y33481483D01*
X49548894Y33672009D01*
X49423206Y33845004D01*
X49423203Y33845007D01*
X49423201Y33845010D01*
X49272009Y33996202D01*
X49272006Y33996204D01*
X49272004Y33996206D01*
X49099009Y34121894D01*
X48957992Y34193746D01*
X48906379Y34242492D01*
X48889313Y34311407D01*
X48912214Y34378609D01*
X48941133Y34407945D01*
X49018004Y34463794D01*
X49169206Y34614996D01*
X49294894Y34787991D01*
X49391972Y34978517D01*
X49458049Y35181884D01*
X49491500Y35393084D01*
X49491500Y35606916D01*
X49458049Y35818116D01*
X49391972Y36021483D01*
X49294894Y36212009D01*
X49169206Y36385004D01*
X49169203Y36385007D01*
X49169201Y36385010D01*
X49018006Y36536205D01*
X48941136Y36592054D01*
X48897782Y36648277D01*
X48891707Y36719013D01*
X48924839Y36781804D01*
X48957989Y36806253D01*
X49099009Y36878106D01*
X49272004Y37003794D01*
X49423206Y37154996D01*
X49548894Y37327991D01*
X49645972Y37518517D01*
X49712049Y37721884D01*
X49745500Y37933084D01*
X49745500Y38146916D01*
X49712049Y38358116D01*
X49645972Y38561483D01*
X49548894Y38752009D01*
X49423206Y38925004D01*
X49423203Y38925007D01*
X49423201Y38925010D01*
X49272009Y39076202D01*
X49272004Y39076206D01*
X49099012Y39201892D01*
X49099011Y39201893D01*
X49099009Y39201894D01*
X48957992Y39273746D01*
X48906379Y39322492D01*
X48889313Y39391407D01*
X48912214Y39458609D01*
X48941133Y39487945D01*
X49018004Y39543794D01*
X49169206Y39694996D01*
X49294894Y39867991D01*
X49391972Y40058517D01*
X49458049Y40261884D01*
X49491500Y40473084D01*
X49491500Y40686916D01*
X49458049Y40898116D01*
X49391972Y41101483D01*
X49294894Y41292009D01*
X49169206Y41465004D01*
X49169203Y41465007D01*
X49169201Y41465010D01*
X49018006Y41616205D01*
X48941136Y41672054D01*
X48897782Y41728277D01*
X48891707Y41799013D01*
X48924839Y41861804D01*
X48957989Y41886253D01*
X49099009Y41958106D01*
X49272004Y42083794D01*
X49423206Y42234996D01*
X49548894Y42407991D01*
X49645972Y42598517D01*
X49712049Y42801884D01*
X49745500Y43013084D01*
X49745500Y43226916D01*
X49712049Y43438116D01*
X49645972Y43641483D01*
X49548894Y43832009D01*
X49423206Y44005004D01*
X49423203Y44005007D01*
X49423201Y44005010D01*
X49272009Y44156202D01*
X49272006Y44156204D01*
X49272004Y44156206D01*
X49099009Y44281894D01*
X48957992Y44353746D01*
X48906379Y44402492D01*
X48889313Y44471407D01*
X48912214Y44538609D01*
X48941133Y44567945D01*
X49018004Y44623794D01*
X49169206Y44774996D01*
X49294894Y44947991D01*
X49391972Y45138517D01*
X49458049Y45341884D01*
X49491500Y45553084D01*
X49491500Y45766916D01*
X49458049Y45978116D01*
X49391972Y46181483D01*
X49294894Y46372009D01*
X49169206Y46545004D01*
X49169203Y46545007D01*
X49169201Y46545010D01*
X49087806Y46626405D01*
X49053780Y46688717D01*
X49058845Y46759532D01*
X49101392Y46816368D01*
X49167912Y46841179D01*
X49176901Y46841500D01*
X49285632Y46841500D01*
X49285638Y46841500D01*
X49285645Y46841501D01*
X49285649Y46841501D01*
X49346196Y46848010D01*
X49346199Y46848011D01*
X49346201Y46848011D01*
X49483204Y46899111D01*
X49600261Y46986739D01*
X49612817Y47003512D01*
X49687887Y47103793D01*
X49687887Y47103794D01*
X49687889Y47103796D01*
X49738989Y47240799D01*
X49741698Y47265990D01*
X49745499Y47301351D01*
X49745500Y47301368D01*
X49745500Y49098633D01*
X49745499Y49098650D01*
X49738990Y49159197D01*
X49738988Y49159205D01*
X49687889Y49296203D01*
X49687887Y49296208D01*
X49600261Y49413262D01*
X49483207Y49500888D01*
X49483202Y49500890D01*
X49346204Y49551989D01*
X49346196Y49551991D01*
X49285649Y49558500D01*
X49285638Y49558500D01*
X47488362Y49558500D01*
X47488350Y49558500D01*
X47427803Y49551991D01*
X47427795Y49551989D01*
X47290797Y49500890D01*
X47290792Y49500888D01*
X47173738Y49413262D01*
X47086112Y49296208D01*
X47086110Y49296203D01*
X47035011Y49159205D01*
X47035009Y49159197D01*
X47028500Y49098650D01*
X47028500Y47301351D01*
X47035009Y47240804D01*
X47035011Y47240796D01*
X47086110Y47103798D01*
X47086112Y47103793D01*
X47173738Y46986739D01*
X47270497Y46914306D01*
X47313044Y46857470D01*
X47318108Y46786654D01*
X47284083Y46724342D01*
X47269054Y46711507D01*
X47250627Y46698118D01*
X47247989Y46696201D01*
X47096798Y46545010D01*
X47096796Y46545007D01*
X46971108Y46372013D01*
X46874029Y46181485D01*
X46874026Y46181479D01*
X46807952Y45978122D01*
X46807951Y45978117D01*
X46807951Y45978116D01*
X46774500Y45766916D01*
X46774500Y45553084D01*
X46807951Y45341884D01*
X46807952Y45341879D01*
X46859388Y45183574D01*
X46861415Y45112606D01*
X46828651Y45055543D01*
X46094715Y44321605D01*
X46032402Y44287580D01*
X46005619Y44284700D01*
X43623023Y44284700D01*
X43474314Y44244853D01*
X43474312Y44244853D01*
X43474308Y44244851D01*
X43407650Y44206365D01*
X43340988Y44167879D01*
X43340978Y44167871D01*
X34795100Y35621991D01*
X34732788Y35587965D01*
X34661973Y35593030D01*
X34605137Y35635577D01*
X34584299Y35678473D01*
X34544853Y35825686D01*
X34467876Y35959014D01*
X34359014Y36067876D01*
X30822205Y39604685D01*
X30788179Y39666997D01*
X30785300Y39693780D01*
X30785300Y43361608D01*
X30805302Y43429729D01*
X30858958Y43476222D01*
X30929232Y43486326D01*
X30975439Y43470061D01*
X31041199Y43431171D01*
X31198429Y43385491D01*
X31198424Y43385491D01*
X31216599Y43384061D01*
X31216600Y43384061D01*
X31724600Y43384061D01*
X31742773Y43385491D01*
X31900000Y43431171D01*
X32040918Y43514509D01*
X32040925Y43514515D01*
X32156685Y43630275D01*
X32156691Y43630282D01*
X32240029Y43771199D01*
X32282273Y43916600D01*
X31724600Y43916600D01*
X31724600Y43384061D01*
X31216600Y43384061D01*
X31216600Y44036200D01*
X35916727Y44036200D01*
X35958970Y43890799D01*
X36042308Y43749882D01*
X36042314Y43749875D01*
X36158074Y43634115D01*
X36158081Y43634109D01*
X36298999Y43550771D01*
X36456229Y43505091D01*
X36456224Y43505091D01*
X36474399Y43503661D01*
X36474400Y43503661D01*
X36982400Y43503661D01*
X37000573Y43505091D01*
X37157800Y43550771D01*
X37298718Y43634109D01*
X37298725Y43634115D01*
X37414485Y43749875D01*
X37414491Y43749882D01*
X37497829Y43890799D01*
X37540073Y44036200D01*
X36982400Y44036200D01*
X36982400Y43503661D01*
X36474400Y43503661D01*
X36474400Y44036200D01*
X35916727Y44036200D01*
X31216600Y44036200D01*
X31216600Y44044600D01*
X31236602Y44112721D01*
X31290258Y44159214D01*
X31342600Y44170600D01*
X31470600Y44170600D01*
X31470600Y44216100D01*
X31490602Y44284221D01*
X31544258Y44330714D01*
X31596600Y44342100D01*
X31706093Y44342100D01*
X31706093Y44342101D01*
X31742854Y44344994D01*
X31777672Y44355110D01*
X31848668Y44354909D01*
X31861046Y44350523D01*
X31924760Y44324131D01*
X32086795Y44291900D01*
X32086796Y44291900D01*
X32252004Y44291900D01*
X32252005Y44291900D01*
X32414040Y44324131D01*
X32566673Y44387354D01*
X32704040Y44479139D01*
X32820861Y44595960D01*
X32912646Y44733327D01*
X32975869Y44885960D01*
X33008100Y45047995D01*
X33008100Y45090220D01*
X33028102Y45158341D01*
X33045005Y45179315D01*
X34234086Y46368395D01*
X34296398Y46402421D01*
X34323181Y46405300D01*
X34423023Y46405300D01*
X36752420Y46405300D01*
X36774007Y46398962D01*
X36796452Y46397356D01*
X36807408Y46389155D01*
X36820541Y46385298D01*
X36835276Y46368293D01*
X36853288Y46354809D01*
X36858070Y46341987D01*
X36867034Y46331642D01*
X36870236Y46309370D01*
X36878099Y46288289D01*
X36875190Y46274917D01*
X36877138Y46261368D01*
X36867790Y46240902D01*
X36863008Y46218915D01*
X36849522Y46200902D01*
X36847644Y46196788D01*
X36841515Y46190205D01*
X36726915Y46075605D01*
X36664603Y46041579D01*
X36637820Y46038700D01*
X36492907Y46038700D01*
X36456148Y46035807D01*
X36456147Y46035807D01*
X36298800Y45990093D01*
X36157769Y45906687D01*
X36157765Y45906684D01*
X36041916Y45790835D01*
X36041913Y45790831D01*
X35958507Y45649800D01*
X35958506Y45649798D01*
X35958506Y45649797D01*
X35953716Y45633310D01*
X35912793Y45492453D01*
X35912793Y45492452D01*
X35909900Y45455694D01*
X35909900Y45044707D01*
X35912793Y45007949D01*
X35912793Y45007948D01*
X35958506Y44850603D01*
X35968416Y44833846D01*
X35985874Y44765030D01*
X35968417Y44705574D01*
X35958969Y44689599D01*
X35916727Y44544200D01*
X36207021Y44544200D01*
X36271160Y44526654D01*
X36298803Y44510306D01*
X36456146Y44464594D01*
X36492906Y44461701D01*
X36492907Y44461700D01*
X36492916Y44461700D01*
X36963893Y44461700D01*
X36963893Y44461701D01*
X37000654Y44464594D01*
X37157997Y44510306D01*
X37185640Y44526654D01*
X37249779Y44544200D01*
X37540074Y44544200D01*
X37551809Y44559831D01*
X37551853Y44575341D01*
X37590406Y44634958D01*
X37655070Y44664268D01*
X37672648Y44665500D01*
X37973218Y44665500D01*
X37973220Y44665500D01*
X38121929Y44705347D01*
X38213150Y44758014D01*
X38272352Y44774837D01*
X38512455Y44782074D01*
X38533810Y44776497D01*
X38555866Y44775741D01*
X38579244Y44765254D01*
X38586357Y44761147D01*
X38735066Y44721300D01*
X39195883Y44721300D01*
X39264004Y44701298D01*
X39304336Y44659439D01*
X39369310Y44549573D01*
X39369316Y44549566D01*
X39485165Y44433717D01*
X39485169Y44433714D01*
X39485171Y44433712D01*
X39626203Y44350306D01*
X39783546Y44304594D01*
X39820306Y44301701D01*
X39820307Y44301700D01*
X39820316Y44301700D01*
X40291293Y44301700D01*
X40291293Y44301701D01*
X40328054Y44304594D01*
X40485397Y44350306D01*
X40626429Y44433712D01*
X40661312Y44468596D01*
X40723622Y44502620D01*
X40750407Y44505500D01*
X41846408Y44505500D01*
X41914529Y44485498D01*
X41935503Y44468595D01*
X41965352Y44438746D01*
X41965358Y44438741D01*
X41965360Y44438739D01*
X42102727Y44346954D01*
X42255360Y44283731D01*
X42417395Y44251500D01*
X42417396Y44251500D01*
X42582604Y44251500D01*
X42582605Y44251500D01*
X42744640Y44283731D01*
X42897273Y44346954D01*
X43034640Y44438739D01*
X43151461Y44555560D01*
X43243246Y44692927D01*
X43306469Y44845560D01*
X43338700Y45007595D01*
X43338700Y45172805D01*
X43306469Y45334840D01*
X43243246Y45487473D01*
X43151461Y45624840D01*
X43151459Y45624842D01*
X43151454Y45624848D01*
X43034647Y45741655D01*
X43034641Y45741660D01*
X43031080Y45744040D01*
X42897273Y45833446D01*
X42744641Y45896669D01*
X42582607Y45928900D01*
X42582605Y45928900D01*
X42417395Y45928900D01*
X42417392Y45928900D01*
X42255358Y45896669D01*
X42255357Y45896668D01*
X42102725Y45833445D01*
X41965358Y45741660D01*
X41965352Y45741655D01*
X41935503Y45711805D01*
X41873191Y45677779D01*
X41846408Y45674900D01*
X41000048Y45674900D01*
X40931927Y45694902D01*
X40885434Y45748558D01*
X40881215Y45777898D01*
X40867473Y45796200D01*
X40577179Y45796200D01*
X40513040Y45813746D01*
X40485398Y45830094D01*
X40328052Y45875807D01*
X40291293Y45878700D01*
X40291284Y45878700D01*
X40181800Y45878700D01*
X40172974Y45881292D01*
X40163868Y45879982D01*
X40139442Y45891138D01*
X40113679Y45898702D01*
X40107654Y45905656D01*
X40099288Y45909476D01*
X40084773Y45932062D01*
X40067186Y45952358D01*
X40064861Y45963045D01*
X40060904Y45969202D01*
X40055800Y46004700D01*
X40055800Y46178200D01*
X40075802Y46246321D01*
X40129458Y46292814D01*
X40181800Y46304200D01*
X40867500Y46304200D01*
X40924335Y46346619D01*
X40968198Y46354500D01*
X42342575Y46354500D01*
X42342577Y46354500D01*
X42491286Y46394347D01*
X42624614Y46471324D01*
X42733476Y46580186D01*
X42793001Y46639711D01*
X42793003Y46639715D01*
X43419277Y47265986D01*
X43476549Y47365184D01*
X43496252Y47399311D01*
X43496252Y47399312D01*
X43496254Y47399315D01*
X43536100Y47548023D01*
X43536100Y47701977D01*
X43536100Y64037500D01*
X43556102Y64105621D01*
X43609758Y64152114D01*
X43662100Y64163500D01*
X44065218Y64163500D01*
X44065220Y64163500D01*
X44066996Y64163640D01*
X44067278Y64163581D01*
X44067700Y64163597D01*
X44067704Y64163492D01*
X44136476Y64149050D01*
X44165986Y64127124D01*
X46830160Y61462950D01*
X46864186Y61400638D01*
X46860898Y61334920D01*
X46809953Y61178125D01*
X46809952Y61178124D01*
X46806876Y61158702D01*
X46776500Y60966916D01*
X46776500Y60753084D01*
X46809951Y60541884D01*
X46809952Y60541879D01*
X46874324Y60343761D01*
X46876028Y60338517D01*
X46973106Y60147991D01*
X46973108Y60147988D01*
X47004182Y60105219D01*
X47098794Y59974996D01*
X47098796Y59974994D01*
X47098798Y59974991D01*
X47229104Y59844685D01*
X47263130Y59782373D01*
X47258065Y59711558D01*
X47215518Y59654722D01*
X47206156Y59648349D01*
X47061347Y59559030D01*
X47061341Y59559025D01*
X46935975Y59433659D01*
X46935970Y59433653D01*
X46842885Y59282738D01*
X46787113Y59114428D01*
X46787112Y59114421D01*
X46776500Y59010554D01*
X46776500Y57709456D01*
X46787112Y57605575D01*
X46842885Y57437262D01*
X46935970Y57286348D01*
X46935975Y57286342D01*
X47061341Y57160976D01*
X47061347Y57160971D01*
X47061348Y57160970D01*
X47212262Y57067885D01*
X47380574Y57012113D01*
X47484455Y57001500D01*
X49035544Y57001501D01*
X49139426Y57012113D01*
X49139429Y57012114D01*
X49139431Y57012114D01*
X49258973Y57051726D01*
X49329928Y57054167D01*
X49390938Y57017859D01*
X49422633Y56954330D01*
X49422185Y56907541D01*
X49409500Y56843773D01*
X49409500Y56676231D01*
X49416469Y56641195D01*
X49439654Y56524636D01*
X49442185Y56511915D01*
X49452360Y56487350D01*
X49506297Y56357137D01*
X49539581Y56307324D01*
X49599373Y56217839D01*
X49599378Y56217833D01*
X49717832Y56099379D01*
X49717838Y56099374D01*
X49857137Y56006297D01*
X50011918Y55942184D01*
X50176233Y55909500D01*
X50176234Y55909500D01*
X50343766Y55909500D01*
X50343767Y55909500D01*
X50508082Y55942184D01*
X50662863Y56006297D01*
X50802162Y56099374D01*
X50920626Y56217838D01*
X51013703Y56357137D01*
X51077816Y56511918D01*
X51110500Y56676233D01*
X51110500Y56843767D01*
X51077816Y57008082D01*
X51013703Y57162863D01*
X50920626Y57302162D01*
X50920621Y57302168D01*
X50802167Y57420622D01*
X50802161Y57420627D01*
X50699772Y57489041D01*
X50662863Y57513703D01*
X50548983Y57560874D01*
X50508085Y57577815D01*
X50508083Y57577816D01*
X50508082Y57577816D01*
X50425368Y57594269D01*
X50343769Y57610500D01*
X50343767Y57610500D01*
X50176233Y57610500D01*
X50176230Y57610500D01*
X50011912Y57577815D01*
X49912615Y57536684D01*
X49842025Y57529095D01*
X49778538Y57560874D01*
X49742311Y57621933D01*
X49739050Y57665902D01*
X49743500Y57709455D01*
X49743499Y58964420D01*
X49763501Y59032540D01*
X49780404Y59053515D01*
X49931476Y59204585D01*
X49978296Y59285681D01*
X49978297Y59285681D01*
X50008452Y59337912D01*
X50008453Y59337914D01*
X50048300Y59486623D01*
X50048300Y61383748D01*
X50008453Y61532457D01*
X49937495Y61655360D01*
X49931478Y61665782D01*
X49931474Y61665787D01*
X49909773Y61687488D01*
X49822614Y61774647D01*
X49360830Y62236431D01*
X49326804Y62298743D01*
X49331869Y62369558D01*
X49360828Y62414619D01*
X49421206Y62474996D01*
X49546894Y62647991D01*
X49643972Y62838517D01*
X49710049Y63041884D01*
X49743500Y63253084D01*
X49743500Y63466916D01*
X49710049Y63678116D01*
X49643972Y63881483D01*
X49546894Y64072009D01*
X49421206Y64245004D01*
X49421203Y64245007D01*
X49421201Y64245010D01*
X49270009Y64396202D01*
X49270006Y64396204D01*
X49270004Y64396206D01*
X49115618Y64508374D01*
X49072264Y64564596D01*
X49066189Y64635333D01*
X49099320Y64698124D01*
X49115618Y64712246D01*
X49269679Y64824179D01*
X49269682Y64824181D01*
X49420822Y64975321D01*
X49546463Y65148250D01*
X49643506Y65338708D01*
X49643509Y65338714D01*
X49709559Y65541996D01*
X49719698Y65606000D01*
X48661836Y65606000D01*
X48702630Y65676657D01*
X48735000Y65797465D01*
X48735000Y65922535D01*
X48702630Y66043343D01*
X48661836Y66114000D01*
X49719697Y66114000D01*
X49709559Y66178005D01*
X49643509Y66381287D01*
X49643506Y66381293D01*
X49546463Y66571751D01*
X49420822Y66744680D01*
X49269679Y66895823D01*
X49096750Y67021464D01*
X48906292Y67118507D01*
X48906286Y67118510D01*
X48703004Y67184560D01*
X48514000Y67214497D01*
X48514000Y66261837D01*
X48443343Y66302630D01*
X48322535Y66335000D01*
X48197465Y66335000D01*
X48076657Y66302630D01*
X48006000Y66261837D01*
X48006000Y67214497D01*
X47816995Y67184560D01*
X47613713Y67118510D01*
X47613707Y67118507D01*
X47423249Y67021464D01*
X47250320Y66895823D01*
X47099177Y66744680D01*
X46973536Y66571751D01*
X46876493Y66381293D01*
X46876490Y66381287D01*
X46810440Y66178005D01*
X46800302Y66114000D01*
X47858164Y66114000D01*
X47817370Y66043343D01*
X47785000Y65922535D01*
X47785000Y65797465D01*
X47817370Y65676657D01*
X47858164Y65606000D01*
X46880680Y65606000D01*
X46812559Y65626002D01*
X46791585Y65642905D01*
X44578804Y67855686D01*
X44544778Y67917998D01*
X44541899Y67944781D01*
X44541899Y68094188D01*
X44539029Y68130665D01*
X44538060Y68134000D01*
X44493669Y68286796D01*
X44493667Y68286798D01*
X44493667Y68286801D01*
X44410907Y68426740D01*
X44410901Y68426747D01*
X44295946Y68541702D01*
X44295939Y68541708D01*
X44156000Y68624468D01*
X43999864Y68669830D01*
X43963398Y68672700D01*
X43463412Y68672700D01*
X43426935Y68669830D01*
X43346429Y68646441D01*
X43275737Y68625903D01*
X43240589Y68620900D01*
X43089845Y68620900D01*
X43023795Y68640294D01*
X43023726Y68640174D01*
X43023231Y68640460D01*
X43021724Y68640902D01*
X43018326Y68643292D01*
X43016570Y68644306D01*
X42871585Y68704361D01*
X42755068Y68719700D01*
X42755066Y68719700D01*
X41826934Y68719700D01*
X41826931Y68719700D01*
X41710414Y68704361D01*
X41565429Y68644306D01*
X41565421Y68644301D01*
X41530204Y68617277D01*
X41463984Y68591676D01*
X41394435Y68605941D01*
X41376796Y68617277D01*
X41341578Y68644301D01*
X41341570Y68644306D01*
X41196585Y68704361D01*
X41080068Y68719700D01*
X41080066Y68719700D01*
X40151934Y68719700D01*
X40151931Y68719700D01*
X40035414Y68704361D01*
X39890429Y68644306D01*
X39883274Y68640174D01*
X39882012Y68642359D01*
X39827643Y68621337D01*
X39817155Y68620900D01*
X39113088Y68620900D01*
X39044967Y68640902D01*
X39004635Y68682760D01*
X38987953Y68710967D01*
X38987950Y68710971D01*
X38870310Y68828611D01*
X38870303Y68828616D01*
X38727105Y68913304D01*
X38567329Y68959723D01*
X38530011Y68962660D01*
X38530002Y68962660D01*
X38149627Y68962660D01*
X38081506Y68982662D01*
X38035013Y69036318D01*
X38024909Y69106592D01*
X38041174Y69152800D01*
X38122645Y69290559D01*
X38169062Y69450329D01*
X38171999Y69487649D01*
X38172000Y69487649D01*
X38172000Y70645671D01*
X38171999Y70645672D01*
X38169062Y70682989D01*
X38169062Y70682990D01*
X38169062Y70682991D01*
X38122645Y70842761D01*
X38122643Y70842763D01*
X38122643Y70842766D01*
X38043276Y70976968D01*
X38025816Y71045784D01*
X38048333Y71113115D01*
X38103677Y71157585D01*
X38141845Y71166719D01*
X38164376Y71168492D01*
X38164377Y71168493D01*
X38321601Y71214171D01*
X38462518Y71297509D01*
X38462525Y71297515D01*
X38578285Y71413275D01*
X38578291Y71413282D01*
X38661629Y71554200D01*
X38707309Y71711427D01*
X38708739Y71729600D01*
X38048200Y71729600D01*
X37980079Y71749602D01*
X37933586Y71803258D01*
X37922200Y71855600D01*
X37922200Y71983600D01*
X37876700Y71983600D01*
X37808579Y72003602D01*
X37762086Y72057258D01*
X37750700Y72109600D01*
X37750700Y72219093D01*
X37750699Y72219094D01*
X37749242Y72237600D01*
X38176200Y72237600D01*
X38708739Y72237600D01*
X38708739Y72237601D01*
X38707309Y72255774D01*
X38661629Y72413001D01*
X38578291Y72553919D01*
X38578285Y72553926D01*
X38462525Y72669686D01*
X38462518Y72669692D01*
X38321600Y72753030D01*
X38321602Y72753030D01*
X38176200Y72795274D01*
X38176200Y72237600D01*
X37749242Y72237600D01*
X37749242Y72237601D01*
X37747806Y72255854D01*
X37702094Y72413197D01*
X37702092Y72413201D01*
X37685746Y72440842D01*
X37668200Y72504980D01*
X37668200Y72795274D01*
X37522801Y72753031D01*
X37506826Y72743583D01*
X37438009Y72726126D01*
X37378554Y72743584D01*
X37361797Y72753494D01*
X37204452Y72799207D01*
X37167693Y72802100D01*
X37167684Y72802100D01*
X36756716Y72802100D01*
X36756707Y72802100D01*
X36719948Y72799207D01*
X36719947Y72799207D01*
X36562600Y72753493D01*
X36421569Y72670087D01*
X36421565Y72670084D01*
X36305716Y72554235D01*
X36305713Y72554231D01*
X36222307Y72413200D01*
X36176593Y72255853D01*
X36176593Y72255852D01*
X36173700Y72219094D01*
X36173700Y71748107D01*
X36176593Y71711349D01*
X36176593Y71711348D01*
X36176594Y71711346D01*
X36222306Y71554003D01*
X36305712Y71412971D01*
X36340595Y71378088D01*
X36374620Y71315778D01*
X36377500Y71288993D01*
X36377500Y70390985D01*
X36377499Y70390985D01*
X36401051Y70303089D01*
X36417347Y70242274D01*
X36423151Y70232222D01*
X36437494Y70207379D01*
X36454231Y70138384D01*
X36431010Y70071292D01*
X36417470Y70055285D01*
X35462995Y69100809D01*
X35400682Y69066784D01*
X35329867Y69071848D01*
X35273031Y69114395D01*
X35248220Y69180915D01*
X35247899Y69189885D01*
X35247899Y69608074D01*
X35237374Y69711104D01*
X35182061Y69878029D01*
X35089744Y70027698D01*
X35089743Y70027699D01*
X35089738Y70027705D01*
X34965404Y70152039D01*
X34965395Y70152046D01*
X34919706Y70180228D01*
X34872228Y70233014D01*
X34860826Y70303089D01*
X34864853Y70322607D01*
X34887029Y70398934D01*
X34889900Y70435411D01*
X34889899Y70835388D01*
X34887029Y70871866D01*
X34841669Y71027996D01*
X34809877Y71081754D01*
X34792418Y71150567D01*
X34809878Y71210032D01*
X34841207Y71263005D01*
X34881415Y71401400D01*
X34398942Y71401400D01*
X34363790Y71406403D01*
X34347868Y71411029D01*
X34347864Y71411030D01*
X34311398Y71413900D01*
X33811412Y71413900D01*
X33774934Y71411030D01*
X33759011Y71406403D01*
X33723859Y71401400D01*
X33241385Y71401400D01*
X33281594Y71263001D01*
X33312921Y71210029D01*
X33330380Y71141213D01*
X33312922Y71081754D01*
X33281131Y71027997D01*
X33235770Y70871866D01*
X33235770Y70871865D01*
X33232900Y70835399D01*
X33232900Y70435413D01*
X33235770Y70398936D01*
X33251256Y70345635D01*
X33251053Y70274638D01*
X33212499Y70215022D01*
X33196410Y70203245D01*
X33159095Y70180228D01*
X33113401Y70152044D01*
X33113395Y70152039D01*
X32989061Y70027705D01*
X32989056Y70027699D01*
X32896739Y69878030D01*
X32841425Y69711100D01*
X32830900Y69608084D01*
X32830900Y69608076D01*
X32830900Y69608075D01*
X32830900Y69351655D01*
X32830901Y69118400D01*
X32810899Y69050279D01*
X32757244Y69003786D01*
X32704901Y68992400D01*
X31713312Y68992400D01*
X31645191Y69012402D01*
X31598698Y69066058D01*
X31588594Y69136332D01*
X31618088Y69200912D01*
X31642616Y69221774D01*
X31642584Y69221815D01*
X31643746Y69222734D01*
X31647162Y69225639D01*
X31648337Y69226365D01*
X31648345Y69226371D01*
X31773629Y69351655D01*
X31773634Y69351661D01*
X31866657Y69502475D01*
X31922393Y69670679D01*
X31922394Y69670682D01*
X31932999Y69774484D01*
X31933000Y69774484D01*
X31933000Y70171000D01*
X30679000Y70171000D01*
X30679000Y69064543D01*
X30682373Y69058365D01*
X30692420Y69049794D01*
X30699061Y69027805D01*
X30710071Y69007642D01*
X30709128Y68994470D01*
X30712946Y68981830D01*
X30706644Y68959742D01*
X30705006Y68936827D01*
X30696644Y68924684D01*
X30693470Y68913557D01*
X30678182Y68897874D01*
X30670194Y68886273D01*
X30663908Y68880741D01*
X30610201Y68844855D01*
X30518145Y68752799D01*
X30518143Y68752797D01*
X30515302Y68749956D01*
X29134553Y67369208D01*
X29072241Y67335183D01*
X29001425Y67340248D01*
X28944590Y67382795D01*
X28919779Y67449315D01*
X28921879Y67482881D01*
X28925500Y67501082D01*
X28925500Y67648918D01*
X28896658Y67793913D01*
X28840084Y67930495D01*
X28757951Y68053416D01*
X28653416Y68157951D01*
X28530495Y68240084D01*
X28452480Y68272399D01*
X28393916Y68296657D01*
X28393913Y68296658D01*
X28248918Y68325500D01*
X28101082Y68325500D01*
X28028584Y68311079D01*
X27956086Y68296658D01*
X27956083Y68296657D01*
X27819504Y68240084D01*
X27696588Y68157954D01*
X27696581Y68157949D01*
X27592051Y68053419D01*
X27592046Y68053412D01*
X27509916Y67930496D01*
X27453343Y67793917D01*
X27453342Y67793914D01*
X27453342Y67793913D01*
X27424500Y67648918D01*
X27424500Y67501082D01*
X27445465Y67395688D01*
X27453342Y67356087D01*
X27453343Y67356084D01*
X27467465Y67321990D01*
X27509916Y67219505D01*
X27592049Y67096584D01*
X27696584Y66992049D01*
X27819505Y66909916D01*
X27956087Y66853342D01*
X28101082Y66824500D01*
X28101087Y66824500D01*
X28248913Y66824500D01*
X28248918Y66824500D01*
X28267114Y66828120D01*
X28337824Y66821795D01*
X28393893Y66778243D01*
X28417515Y66711291D01*
X28401191Y66642197D01*
X28380791Y66615447D01*
X28115557Y66350213D01*
X28053245Y66316187D01*
X27986549Y66319797D01*
X27973850Y66324038D01*
X27953593Y66336018D01*
X27833547Y66370896D01*
X27831165Y66371691D01*
X27818441Y66380545D01*
X27781984Y66402106D01*
X27612614Y66571476D01*
X27612612Y66571477D01*
X27612610Y66571479D01*
X27546522Y66609634D01*
X27479286Y66648453D01*
X27460913Y66653376D01*
X27330577Y66688300D01*
X27330575Y66688300D01*
X24214189Y66688300D01*
X24146068Y66708302D01*
X24099575Y66761958D01*
X24089471Y66832232D01*
X24118965Y66896812D01*
X24144188Y66919065D01*
X24253407Y66992043D01*
X24253406Y66992043D01*
X24253416Y66992049D01*
X24357951Y67096584D01*
X24440084Y67219505D01*
X24496658Y67356087D01*
X24525500Y67501082D01*
X24525500Y67648918D01*
X24496658Y67793913D01*
X24440084Y67930495D01*
X24357951Y68053416D01*
X24253416Y68157951D01*
X24130495Y68240084D01*
X24052480Y68272399D01*
X23993916Y68296657D01*
X23993913Y68296658D01*
X23848918Y68325500D01*
X23701082Y68325500D01*
X23628584Y68311079D01*
X23556086Y68296658D01*
X23556083Y68296657D01*
X23419504Y68240084D01*
X23296588Y68157954D01*
X23296581Y68157949D01*
X23192051Y68053419D01*
X23192046Y68053412D01*
X23109916Y67930496D01*
X23053343Y67793917D01*
X23053342Y67793914D01*
X23053342Y67793913D01*
X23024500Y67648918D01*
X23024500Y67501082D01*
X23045465Y67395688D01*
X23053342Y67356087D01*
X23053343Y67356084D01*
X23067465Y67321990D01*
X23109916Y67219505D01*
X23192049Y67096584D01*
X23296584Y66992049D01*
X23296587Y66992047D01*
X23296592Y66992043D01*
X23405812Y66919065D01*
X23451340Y66864589D01*
X23460189Y66794146D01*
X23429548Y66730101D01*
X23369146Y66692790D01*
X23335811Y66688300D01*
X19001182Y66688300D01*
X18933061Y66708302D01*
X18912087Y66725205D01*
X18241604Y67395688D01*
X18207578Y67458000D01*
X18204699Y67484783D01*
X18204699Y67856411D01*
X18201003Y67892591D01*
X18194524Y67956014D01*
X18141049Y68117392D01*
X18051800Y68262087D01*
X18026281Y68287606D01*
X17992257Y68349915D01*
X17997321Y68420731D01*
X18026281Y68465795D01*
X18051800Y68491313D01*
X18141049Y68636008D01*
X18194524Y68797386D01*
X18204700Y68896989D01*
X18204699Y69431410D01*
X18204583Y69432541D01*
X18197439Y69502475D01*
X18194524Y69531014D01*
X18141049Y69692392D01*
X18090414Y69774484D01*
X20017000Y69774484D01*
X20027605Y69670682D01*
X20027606Y69670679D01*
X20083342Y69502475D01*
X20176365Y69351661D01*
X20176370Y69351655D01*
X20301654Y69226371D01*
X20301660Y69226366D01*
X20452474Y69133343D01*
X20620678Y69077607D01*
X20620681Y69077606D01*
X20724483Y69067001D01*
X20724483Y69067000D01*
X21271000Y69067000D01*
X21779000Y69067000D01*
X22325517Y69067000D01*
X22325516Y69067001D01*
X22429318Y69077606D01*
X22429321Y69077607D01*
X22597525Y69133343D01*
X22748339Y69226366D01*
X22748345Y69226371D01*
X22873629Y69351655D01*
X22873634Y69351661D01*
X22966657Y69502475D01*
X23022393Y69670679D01*
X23022394Y69670682D01*
X23032999Y69774484D01*
X23033000Y69774484D01*
X28917000Y69774484D01*
X28927605Y69670682D01*
X28927606Y69670679D01*
X28983342Y69502475D01*
X29076365Y69351661D01*
X29076370Y69351655D01*
X29201654Y69226371D01*
X29201660Y69226366D01*
X29352474Y69133343D01*
X29520678Y69077607D01*
X29520681Y69077606D01*
X29624483Y69067001D01*
X29624483Y69067000D01*
X30171000Y69067000D01*
X30171000Y70171000D01*
X28917000Y70171000D01*
X28917000Y69774484D01*
X23033000Y69774484D01*
X23033000Y70171000D01*
X21779000Y70171000D01*
X21779000Y69067000D01*
X21271000Y69067000D01*
X21271000Y70171000D01*
X20017000Y70171000D01*
X20017000Y69774484D01*
X18090414Y69774484D01*
X18051800Y69837087D01*
X18051799Y69837088D01*
X18051794Y69837094D01*
X17931593Y69957295D01*
X17931587Y69957300D01*
X17786892Y70046549D01*
X17760528Y70055285D01*
X17625514Y70100024D01*
X17625511Y70100025D01*
X17625509Y70100025D01*
X17525919Y70110200D01*
X16916489Y70110200D01*
X16816890Y70100025D01*
X16816887Y70100025D01*
X16816886Y70100024D01*
X16736923Y70073528D01*
X16655507Y70046549D01*
X16510812Y69957300D01*
X16510806Y69957295D01*
X16390605Y69837094D01*
X16390600Y69837088D01*
X16301349Y69692389D01*
X16274460Y69611242D01*
X16234046Y69552870D01*
X16168490Y69525615D01*
X16098605Y69538128D01*
X16089564Y69543811D01*
X16089364Y69543471D01*
X15942600Y69630268D01*
X15786464Y69675630D01*
X15749998Y69678500D01*
X15250012Y69678500D01*
X15213535Y69675630D01*
X15057399Y69630268D01*
X14917460Y69547508D01*
X14917453Y69547502D01*
X14802498Y69432547D01*
X14802492Y69432540D01*
X14719732Y69292601D01*
X14674370Y69136466D01*
X14674370Y69136465D01*
X14671500Y69099999D01*
X14671500Y68700013D01*
X14674370Y68663536D01*
X14719732Y68507401D01*
X14751521Y68453648D01*
X14768980Y68384832D01*
X14751522Y68325374D01*
X14720194Y68272399D01*
X14679985Y68134000D01*
X15162458Y68134000D01*
X15169890Y68133781D01*
X15184017Y68132947D01*
X15213534Y68124371D01*
X15250011Y68121500D01*
X15377738Y68121501D01*
X15381432Y68121282D01*
X15411487Y68110494D01*
X15442120Y68101499D01*
X15444636Y68098595D01*
X15448254Y68097296D01*
X15467702Y68071976D01*
X15488613Y68047844D01*
X15489551Y68043531D01*
X15491501Y68040992D01*
X15492379Y68030530D01*
X15500000Y67995501D01*
X15500000Y67880000D01*
X15628000Y67880000D01*
X15696121Y67859998D01*
X15742614Y67806342D01*
X15754000Y67754000D01*
X15754000Y67102321D01*
X15786385Y67104868D01*
X15942397Y67150194D01*
X16083254Y67233497D01*
X16152070Y67250957D01*
X16219402Y67228441D01*
X16263871Y67173096D01*
X16266998Y67164677D01*
X16301349Y67061012D01*
X16301350Y67061010D01*
X16301351Y67061008D01*
X16343887Y66992047D01*
X16390600Y66916313D01*
X16390605Y66916307D01*
X16510806Y66796106D01*
X16510812Y66796101D01*
X16510813Y66796100D01*
X16655508Y66706851D01*
X16816886Y66653376D01*
X16916489Y66643200D01*
X17288118Y66643201D01*
X17356238Y66623199D01*
X17377208Y66606301D01*
X18347786Y65635723D01*
X18347787Y65635722D01*
X18347789Y65635721D01*
X18481110Y65558748D01*
X18481112Y65558748D01*
X18481115Y65558746D01*
X18629823Y65518900D01*
X19891000Y65518900D01*
X19959121Y65498898D01*
X20005614Y65445242D01*
X20017000Y65392900D01*
X20017000Y65229000D01*
X21399000Y65229000D01*
X21467121Y65208998D01*
X21513614Y65155342D01*
X21525000Y65103000D01*
X21525000Y64975000D01*
X21653000Y64975000D01*
X21721121Y64954998D01*
X21767614Y64901342D01*
X21779000Y64849000D01*
X21779000Y63617000D01*
X22325517Y63617000D01*
X22325516Y63617001D01*
X22436166Y63628305D01*
X22436338Y63626618D01*
X22498513Y63621969D01*
X22555211Y63579239D01*
X22579807Y63512639D01*
X22580100Y63504056D01*
X22580100Y61945500D01*
X22560098Y61877379D01*
X22506442Y61830886D01*
X22454100Y61819500D01*
X22421307Y61819500D01*
X22384548Y61816607D01*
X22384547Y61816607D01*
X22227200Y61770893D01*
X22086169Y61687487D01*
X22086165Y61687484D01*
X21970316Y61571635D01*
X21970313Y61571631D01*
X21886907Y61430600D01*
X21841193Y61273253D01*
X21841193Y61273252D01*
X21838300Y61236494D01*
X21838300Y60825507D01*
X21841193Y60788749D01*
X21841193Y60788748D01*
X21886906Y60631403D01*
X21896816Y60614646D01*
X21914274Y60545830D01*
X21896817Y60486374D01*
X21887369Y60470399D01*
X21845127Y60325000D01*
X22135421Y60325000D01*
X22199560Y60307454D01*
X22203200Y60305301D01*
X22227203Y60291106D01*
X22384546Y60245394D01*
X22421306Y60242501D01*
X22421307Y60242500D01*
X22530800Y60242500D01*
X22598921Y60222498D01*
X22645414Y60168842D01*
X22656800Y60116500D01*
X22656800Y60071000D01*
X22784800Y60071000D01*
X22852921Y60050998D01*
X22899414Y59997342D01*
X22910800Y59945000D01*
X22910800Y59284461D01*
X22928973Y59285891D01*
X23086198Y59331570D01*
X23171531Y59382036D01*
X23181089Y59384462D01*
X23188842Y59390558D01*
X23214940Y59393050D01*
X23240347Y59399496D01*
X23249699Y59396369D01*
X23259517Y59397306D01*
X23282817Y59385294D01*
X23307679Y59376980D01*
X23315538Y59368426D01*
X23322622Y59364773D01*
X23333585Y59348780D01*
X23344791Y59336582D01*
X23348916Y59329436D01*
X23357785Y59308026D01*
X23371890Y59289644D01*
X23376020Y59282491D01*
X23382519Y59255698D01*
X23392463Y59229979D01*
X23392900Y59219492D01*
X23392900Y57771083D01*
X23392899Y57771083D01*
X23427550Y57641766D01*
X23432747Y57622372D01*
X23500455Y57505098D01*
X23509724Y57489044D01*
X23991574Y57007194D01*
X24002355Y56987449D01*
X24017092Y56970442D01*
X24019040Y56956894D01*
X24025598Y56944883D01*
X24023993Y56922443D01*
X24027196Y56900168D01*
X24021510Y56887719D01*
X24020534Y56874068D01*
X24007049Y56856055D01*
X23997702Y56835588D01*
X23986189Y56828190D01*
X23977987Y56817232D01*
X23956903Y56809369D01*
X23937976Y56797204D01*
X23915705Y56794002D01*
X23911467Y56792421D01*
X23902478Y56792100D01*
X23817580Y56792100D01*
X23749459Y56812102D01*
X23728485Y56829005D01*
X21147966Y59409524D01*
X21113940Y59471836D01*
X21119005Y59542651D01*
X21161552Y59599487D01*
X21167030Y59603365D01*
X21234640Y59648539D01*
X21351461Y59765360D01*
X21385965Y59817000D01*
X21845127Y59817000D01*
X21887370Y59671599D01*
X21970708Y59530682D01*
X21970714Y59530675D01*
X22086474Y59414915D01*
X22086481Y59414909D01*
X22227399Y59331571D01*
X22384629Y59285891D01*
X22384624Y59285891D01*
X22402799Y59284461D01*
X22402800Y59284461D01*
X22402800Y59817000D01*
X21845127Y59817000D01*
X21385965Y59817000D01*
X21443246Y59902727D01*
X21506469Y60055360D01*
X21538700Y60217395D01*
X21538700Y60382605D01*
X21506469Y60544640D01*
X21443246Y60697273D01*
X21351461Y60834640D01*
X21351459Y60834642D01*
X21351454Y60834648D01*
X21234647Y60951455D01*
X21234641Y60951460D01*
X21231653Y60953457D01*
X21097273Y61043246D01*
X20944641Y61106469D01*
X20782607Y61138700D01*
X20782605Y61138700D01*
X20740381Y61138700D01*
X20672260Y61158702D01*
X20651286Y61175605D01*
X19559020Y62267871D01*
X19559010Y62267879D01*
X19498721Y62302686D01*
X19425686Y62344853D01*
X19425679Y62344855D01*
X19276977Y62384700D01*
X13376977Y62384700D01*
X13223023Y62384700D01*
X13143333Y62363348D01*
X13074317Y62344855D01*
X13074310Y62344852D01*
X12940989Y62267879D01*
X12940979Y62267871D01*
X10126955Y59453846D01*
X10064643Y59419820D01*
X9993828Y59424885D01*
X9936992Y59467432D01*
X9919806Y59498906D01*
X9911489Y59521204D01*
X9911487Y59521206D01*
X9911487Y59521208D01*
X9823861Y59638262D01*
X9706807Y59725888D01*
X9706802Y59725890D01*
X9569804Y59776989D01*
X9569796Y59776991D01*
X9509249Y59783500D01*
X9509238Y59783500D01*
X7711962Y59783500D01*
X7711950Y59783500D01*
X7651403Y59776991D01*
X7651395Y59776989D01*
X7514397Y59725890D01*
X7514392Y59725888D01*
X7397338Y59638262D01*
X7309712Y59521208D01*
X7309710Y59521203D01*
X7258611Y59384205D01*
X7258609Y59384197D01*
X7252100Y59323650D01*
X7252100Y57526351D01*
X7258609Y57465804D01*
X7258611Y57465796D01*
X7309710Y57328798D01*
X7309712Y57328793D01*
X7397338Y57211739D01*
X7514392Y57124113D01*
X7514394Y57124112D01*
X7514396Y57124111D01*
X7559001Y57107474D01*
X7651395Y57073012D01*
X7651403Y57073010D01*
X7711950Y57066501D01*
X7711955Y57066501D01*
X7711962Y57066500D01*
X7711968Y57066500D01*
X7736119Y57066500D01*
X7804240Y57046498D01*
X7825214Y57029595D01*
X8485651Y56369158D01*
X8417607Y56350925D01*
X8303593Y56285099D01*
X8210501Y56192007D01*
X8144675Y56077993D01*
X8126442Y56009949D01*
X7487222Y56649169D01*
X7487221Y56649169D01*
X7449134Y56596747D01*
X7352093Y56406293D01*
X7352090Y56406287D01*
X7286040Y56203004D01*
X7252600Y55991874D01*
X7252600Y55778127D01*
X7286040Y55566997D01*
X7352090Y55363714D01*
X7352093Y55363708D01*
X7449135Y55173252D01*
X7449136Y55173250D01*
X7487220Y55120833D01*
X7487221Y55120832D01*
X8126441Y55760053D01*
X8144675Y55692007D01*
X8210501Y55577993D01*
X8303593Y55484901D01*
X8417607Y55419075D01*
X8485651Y55400843D01*
X7846431Y54761622D01*
X7898849Y54723537D01*
X7898851Y54723536D01*
X8089307Y54626494D01*
X8089313Y54626491D01*
X8292596Y54560441D01*
X8503726Y54527000D01*
X8717474Y54527000D01*
X8928603Y54560441D01*
X9131886Y54626491D01*
X9131892Y54626494D01*
X9322350Y54723537D01*
X9374767Y54761622D01*
X9374767Y54761624D01*
X8735548Y55400843D01*
X8803593Y55419075D01*
X8917607Y55484901D01*
X9010699Y55577993D01*
X9076525Y55692007D01*
X9094757Y55760052D01*
X9733976Y55120833D01*
X9733978Y55120833D01*
X9772063Y55173250D01*
X9869106Y55363708D01*
X9869109Y55363714D01*
X9935159Y55566997D01*
X9968600Y55778127D01*
X9968600Y55991874D01*
X9935159Y56203004D01*
X9869109Y56406287D01*
X9869106Y56406293D01*
X9772064Y56596749D01*
X9772063Y56596751D01*
X9733978Y56649169D01*
X9094757Y56009949D01*
X9076525Y56077993D01*
X9010699Y56192007D01*
X8917607Y56285099D01*
X8803593Y56350925D01*
X8735547Y56369159D01*
X9395984Y57029595D01*
X9458297Y57063620D01*
X9485080Y57066500D01*
X9509232Y57066500D01*
X9509238Y57066500D01*
X9509245Y57066501D01*
X9509249Y57066501D01*
X9569796Y57073010D01*
X9569799Y57073011D01*
X9569801Y57073011D01*
X9706804Y57124111D01*
X9707458Y57124600D01*
X9823861Y57211739D01*
X9911487Y57328793D01*
X9911487Y57328794D01*
X9911489Y57328796D01*
X9962589Y57465799D01*
X9965089Y57489048D01*
X9969099Y57526351D01*
X9969100Y57526368D01*
X9969100Y57734808D01*
X9989102Y57802929D01*
X10042758Y57849422D01*
X10062482Y57856513D01*
X10150686Y57880147D01*
X10284014Y57957124D01*
X10392876Y58065986D01*
X13505285Y61178395D01*
X13567597Y61212421D01*
X13594380Y61215300D01*
X18905620Y61215300D01*
X18973741Y61195298D01*
X18994715Y61178395D01*
X19708715Y60464395D01*
X19742741Y60402083D01*
X19737676Y60331268D01*
X19695129Y60274432D01*
X19628609Y60249621D01*
X19619620Y60249300D01*
X17840998Y60249300D01*
X17772877Y60269302D01*
X17736231Y60305301D01*
X17734879Y60307324D01*
X17731367Y60312581D01*
X17589781Y60454167D01*
X17423293Y60565410D01*
X17269397Y60629156D01*
X17238305Y60642035D01*
X17238302Y60642036D01*
X17041919Y60681100D01*
X17041916Y60681100D01*
X16841684Y60681100D01*
X16841680Y60681100D01*
X16645297Y60642036D01*
X16645294Y60642035D01*
X16460308Y60565411D01*
X16376801Y60509614D01*
X16309048Y60488400D01*
X16240581Y60507184D01*
X16236799Y60509614D01*
X16188510Y60541879D01*
X16153293Y60565410D01*
X16046501Y60609645D01*
X15968305Y60642035D01*
X15968302Y60642036D01*
X15771919Y60681100D01*
X15771916Y60681100D01*
X15571684Y60681100D01*
X15571680Y60681100D01*
X15375297Y60642036D01*
X15375294Y60642035D01*
X15190307Y60565410D01*
X15023817Y60454166D01*
X15023811Y60454161D01*
X14882239Y60312589D01*
X14882234Y60312583D01*
X14770990Y60146093D01*
X14694365Y59961106D01*
X14694364Y59961103D01*
X14655300Y59764720D01*
X14655300Y59564481D01*
X14694364Y59368098D01*
X14694365Y59368095D01*
X14770989Y59183109D01*
X14827086Y59099152D01*
X14848300Y59031399D01*
X14829516Y58962932D01*
X14827086Y58959151D01*
X14771433Y58875859D01*
X14771432Y58875857D01*
X14694846Y58690962D01*
X14694844Y58690957D01*
X14655800Y58494670D01*
X14655800Y58294531D01*
X14694844Y58098244D01*
X14694846Y58098239D01*
X14771434Y57913340D01*
X14795423Y57877437D01*
X15354300Y58436312D01*
X15354300Y58352800D01*
X15375937Y58272049D01*
X15417737Y58199650D01*
X15476850Y58140537D01*
X15549249Y58098737D01*
X15630000Y58077100D01*
X15713600Y58077100D01*
X15794351Y58098737D01*
X15866750Y58140537D01*
X15925863Y58199650D01*
X15939474Y58223225D01*
X15964364Y58098098D01*
X15964365Y58098095D01*
X15973170Y58076838D01*
X15980759Y58006248D01*
X15948980Y57942761D01*
X15887921Y57906534D01*
X15816970Y57909068D01*
X15767666Y57939525D01*
X15671801Y58035390D01*
X15671799Y58035390D01*
X15396010Y57759601D01*
X15671799Y57483812D01*
X15767665Y57579677D01*
X15829977Y57613702D01*
X15900793Y57608638D01*
X15957629Y57566091D01*
X15982440Y57499571D01*
X15973171Y57442367D01*
X15964366Y57421110D01*
X15964364Y57421103D01*
X15939473Y57295976D01*
X15925863Y57319550D01*
X15866750Y57378663D01*
X15794351Y57420463D01*
X15713600Y57442100D01*
X15630000Y57442100D01*
X15549249Y57420463D01*
X15476850Y57378663D01*
X15417737Y57319550D01*
X15375937Y57247151D01*
X15354300Y57166400D01*
X15354300Y57082890D01*
X14795423Y57641766D01*
X14771433Y57605858D01*
X14694846Y57420962D01*
X14694844Y57420957D01*
X14655800Y57224670D01*
X14655800Y57024531D01*
X14694844Y56828244D01*
X14694846Y56828239D01*
X14771432Y56643344D01*
X14827085Y56560053D01*
X14848300Y56492300D01*
X14829517Y56423833D01*
X14827086Y56420051D01*
X14770991Y56336097D01*
X14694365Y56151106D01*
X14694364Y56151103D01*
X14655300Y55954720D01*
X14655300Y55754481D01*
X14694364Y55558098D01*
X14694365Y55558095D01*
X14721127Y55493486D01*
X14770990Y55373107D01*
X14779634Y55360171D01*
X14827086Y55289152D01*
X14848300Y55221399D01*
X14829516Y55152932D01*
X14827086Y55149151D01*
X14771433Y55065859D01*
X14771432Y55065857D01*
X14694846Y54880962D01*
X14694844Y54880957D01*
X14655800Y54684670D01*
X14655800Y54484531D01*
X14694844Y54288244D01*
X14694846Y54288239D01*
X14771432Y54103344D01*
X14795424Y54067437D01*
X15354300Y54626312D01*
X15354300Y54542800D01*
X15375937Y54462049D01*
X15417737Y54389650D01*
X15476850Y54330537D01*
X15549249Y54288737D01*
X15630000Y54267100D01*
X15713508Y54267100D01*
X15154634Y53708227D01*
X15154635Y53708226D01*
X15190540Y53684234D01*
X15375438Y53607647D01*
X15375443Y53607645D01*
X15571730Y53568601D01*
X15571734Y53568600D01*
X15771866Y53568600D01*
X15771869Y53568601D01*
X15968156Y53607645D01*
X15968161Y53607647D01*
X16153053Y53684231D01*
X16236347Y53739887D01*
X16304100Y53761102D01*
X16372567Y53742319D01*
X16376335Y53739898D01*
X16460307Y53683790D01*
X16645298Y53607164D01*
X16841684Y53568100D01*
X17041916Y53568100D01*
X17238302Y53607164D01*
X17423293Y53683790D01*
X17589781Y53795033D01*
X17731367Y53936619D01*
X17842610Y54103107D01*
X17919236Y54288098D01*
X17958300Y54484484D01*
X17958300Y54684716D01*
X17919236Y54881102D01*
X17842610Y55066093D01*
X17786812Y55149601D01*
X17765598Y55217350D01*
X17784381Y55285817D01*
X17786793Y55289571D01*
X17842610Y55373107D01*
X17919236Y55558098D01*
X17958300Y55754484D01*
X17958300Y55954716D01*
X17919236Y56151102D01*
X17842610Y56336093D01*
X17786812Y56419601D01*
X17765598Y56487350D01*
X17784381Y56555817D01*
X17786793Y56559571D01*
X17842610Y56643107D01*
X17919236Y56828098D01*
X17958300Y57024484D01*
X17958300Y57224716D01*
X17919236Y57421102D01*
X17842610Y57606093D01*
X17841685Y57607477D01*
X17837394Y57613900D01*
X17816180Y57681653D01*
X17834964Y57750119D01*
X17887782Y57797562D01*
X17942160Y57809900D01*
X19211020Y57809900D01*
X19279141Y57789898D01*
X19300115Y57772995D01*
X21833579Y55239529D01*
X21833583Y55239526D01*
X21833586Y55239523D01*
X21833589Y55239522D01*
X21833592Y55239519D01*
X21931050Y55183252D01*
X21980044Y55131870D01*
X21993481Y55062157D01*
X21967094Y54996245D01*
X21957146Y54985038D01*
X21456090Y54483982D01*
X21402156Y54452083D01*
X21399948Y54451441D01*
X21396603Y54450469D01*
X21396598Y54450467D01*
X21256660Y54367708D01*
X21256653Y54367702D01*
X21141698Y54252747D01*
X21141692Y54252740D01*
X21058932Y54112801D01*
X21013570Y53956666D01*
X21013570Y53956665D01*
X21010700Y53920199D01*
X21010700Y53420213D01*
X21013570Y53383735D01*
X21035830Y53307116D01*
X21035627Y53236120D01*
X20997072Y53176504D01*
X20949987Y53150967D01*
X20821998Y53113782D01*
X20678898Y53029152D01*
X20678896Y53029151D01*
X20561349Y52911604D01*
X20561348Y52911602D01*
X20476718Y52768502D01*
X20430334Y52608850D01*
X20427400Y52571557D01*
X20427400Y52171600D01*
X22053787Y52171600D01*
X22060039Y52175015D01*
X22088543Y52192019D01*
X22091028Y52191937D01*
X22093211Y52193128D01*
X22126331Y52190761D01*
X22159501Y52189655D01*
X22161546Y52188243D01*
X22164027Y52188065D01*
X22190609Y52168167D01*
X22217916Y52149304D01*
X22219216Y52146753D01*
X22220864Y52145519D01*
X22236290Y52118505D01*
X22239526Y52110745D01*
X22264347Y52018114D01*
X22294959Y51965093D01*
X22314074Y51931986D01*
X22317193Y51924506D01*
X22319480Y51903698D01*
X22326900Y51876009D01*
X22326900Y51414600D01*
X22306898Y51346479D01*
X22253242Y51299986D01*
X22200900Y51288600D01*
X22169400Y51288600D01*
X22101279Y51308602D01*
X22054786Y51362258D01*
X22043400Y51414600D01*
X22043400Y51663600D01*
X21489400Y51663600D01*
X21489400Y51034945D01*
X21471854Y50970807D01*
X21426256Y50893705D01*
X21379837Y50733930D01*
X21379837Y50733929D01*
X21376900Y50696612D01*
X21376900Y49388589D01*
X21379837Y49351272D01*
X21379837Y49351271D01*
X21426256Y49191495D01*
X21510944Y49048297D01*
X21510946Y49048294D01*
X21510947Y49048293D01*
X21563796Y48995444D01*
X21597820Y48933134D01*
X21600700Y48906350D01*
X21600700Y40092025D01*
X21600699Y40092025D01*
X21609678Y40058517D01*
X21637197Y39955815D01*
X21640547Y39943315D01*
X21640548Y39943311D01*
X21644124Y39937118D01*
X21644126Y39937115D01*
X21717521Y39809990D01*
X21717529Y39809980D01*
X24870595Y36656915D01*
X24885539Y36629547D01*
X24902396Y36603318D01*
X24903301Y36597020D01*
X24904621Y36594603D01*
X24907500Y36567820D01*
X24907500Y36550100D01*
X24887498Y36481979D01*
X24833842Y36435486D01*
X24781500Y36424100D01*
X23814322Y36424100D01*
X23746201Y36444102D01*
X23725227Y36461005D01*
X11518362Y48667871D01*
X11518352Y48667879D01*
X11440105Y48713054D01*
X11385028Y48744853D01*
X11236319Y48784700D01*
X11236317Y48784700D01*
X6691500Y48784700D01*
X6623379Y48804702D01*
X6576886Y48858358D01*
X6565500Y48910700D01*
X6565500Y49098633D01*
X6565499Y49098650D01*
X6558990Y49159197D01*
X6558988Y49159205D01*
X6507889Y49296203D01*
X6507887Y49296208D01*
X6420261Y49413262D01*
X6303207Y49500888D01*
X6303202Y49500890D01*
X6166204Y49551989D01*
X6166196Y49551991D01*
X6105649Y49558500D01*
X6105638Y49558500D01*
X4308362Y49558500D01*
X4308350Y49558500D01*
X4247803Y49551991D01*
X4247795Y49551989D01*
X4110797Y49500890D01*
X4110792Y49500888D01*
X3993738Y49413262D01*
X3906112Y49296208D01*
X3906110Y49296203D01*
X3855011Y49159205D01*
X3855009Y49159197D01*
X3848500Y49098650D01*
X3848500Y47301351D01*
X3855009Y47240804D01*
X3855011Y47240796D01*
X3906110Y47103798D01*
X3906112Y47103793D01*
X3993738Y46986739D01*
X4090497Y46914306D01*
X4133044Y46857470D01*
X4138108Y46786654D01*
X4104083Y46724342D01*
X4089054Y46711507D01*
X4070627Y46698118D01*
X4067989Y46696201D01*
X3916798Y46545010D01*
X3916796Y46545007D01*
X3791108Y46372013D01*
X3694029Y46181485D01*
X3694026Y46181479D01*
X3627952Y45978122D01*
X3627951Y45978117D01*
X3627951Y45978116D01*
X3594500Y45766916D01*
X75500Y45766916D01*
X75500Y51263644D01*
X20427401Y51263644D01*
X20430334Y51226350D01*
X20476718Y51066700D01*
X20561348Y50923599D01*
X20561349Y50923597D01*
X20678897Y50806049D01*
X20822000Y50721419D01*
X20981400Y50675109D01*
X20981400Y51663600D01*
X20427401Y51663600D01*
X20427401Y51263644D01*
X75500Y51263644D01*
X75500Y64324484D01*
X20017000Y64324484D01*
X20027605Y64220682D01*
X20027606Y64220679D01*
X20083342Y64052475D01*
X20176365Y63901661D01*
X20176370Y63901655D01*
X20301654Y63776371D01*
X20301660Y63776366D01*
X20452474Y63683343D01*
X20620678Y63627607D01*
X20620681Y63627606D01*
X20724483Y63617001D01*
X20724483Y63617000D01*
X21271000Y63617000D01*
X21271000Y64721000D01*
X20017000Y64721000D01*
X20017000Y64324484D01*
X75500Y64324484D01*
X75500Y67626000D01*
X14679985Y67626000D01*
X14720194Y67487601D01*
X14802889Y67347772D01*
X14802894Y67347765D01*
X14917764Y67232895D01*
X14917771Y67232890D01*
X15057600Y67150195D01*
X15213614Y67104868D01*
X15245999Y67102321D01*
X15246000Y67102321D01*
X15246000Y67626000D01*
X14679985Y67626000D01*
X75500Y67626000D01*
X75500Y71056195D01*
X75730Y71063801D01*
X76439Y71075517D01*
X20017000Y71075517D01*
X20017000Y70679000D01*
X21271000Y70679000D01*
X21779000Y70679000D01*
X23033000Y70679000D01*
X23033000Y71075517D01*
X28917000Y71075517D01*
X28917000Y70679000D01*
X30171000Y70679000D01*
X30679000Y70679000D01*
X31933000Y70679000D01*
X31933000Y71075517D01*
X31922394Y71179319D01*
X31922393Y71179322D01*
X31866657Y71347526D01*
X31773634Y71498340D01*
X31773629Y71498346D01*
X31648345Y71623630D01*
X31648339Y71623635D01*
X31497525Y71716658D01*
X31353177Y71764489D01*
X31353174Y71764491D01*
X31329330Y71772393D01*
X31329318Y71772395D01*
X31225516Y71783000D01*
X30679000Y71783000D01*
X30679000Y70679000D01*
X30171000Y70679000D01*
X30171000Y71783000D01*
X29624483Y71783000D01*
X29520681Y71772395D01*
X29520678Y71772394D01*
X29352474Y71716658D01*
X29201660Y71623635D01*
X29201654Y71623630D01*
X29076370Y71498346D01*
X29076365Y71498340D01*
X28983342Y71347526D01*
X28927606Y71179322D01*
X28927605Y71179319D01*
X28917000Y71075517D01*
X23033000Y71075517D01*
X23022394Y71179319D01*
X23022393Y71179322D01*
X22966657Y71347526D01*
X22873634Y71498340D01*
X22873629Y71498346D01*
X22748345Y71623630D01*
X22748339Y71623635D01*
X22597525Y71716658D01*
X22429321Y71772394D01*
X22429318Y71772395D01*
X22325516Y71783000D01*
X21779000Y71783000D01*
X21779000Y70679000D01*
X21271000Y70679000D01*
X21271000Y71783000D01*
X20724483Y71783000D01*
X20620681Y71772395D01*
X20620678Y71772394D01*
X20452474Y71716658D01*
X20301660Y71623635D01*
X20301654Y71623630D01*
X20176370Y71498346D01*
X20176365Y71498340D01*
X20083342Y71347526D01*
X20027606Y71179322D01*
X20027605Y71179319D01*
X20017000Y71075517D01*
X76439Y71075517D01*
X77092Y71086322D01*
X77092Y71086323D01*
X80978Y71150567D01*
X93009Y71349469D01*
X94840Y71364546D01*
X145742Y71642310D01*
X149375Y71657050D01*
X228010Y71909400D01*
X33241385Y71909400D01*
X33807400Y71909400D01*
X34315400Y71909400D01*
X34881415Y71909400D01*
X34841205Y72047800D01*
X34758510Y72187629D01*
X34758505Y72187636D01*
X34643635Y72302506D01*
X34643628Y72302511D01*
X34503799Y72385206D01*
X34347791Y72430531D01*
X34315400Y72433081D01*
X34315400Y71909400D01*
X33807400Y71909400D01*
X33807400Y72433081D01*
X33775010Y72430531D01*
X33775007Y72430531D01*
X33619000Y72385206D01*
X33479171Y72302511D01*
X33479164Y72302506D01*
X33364294Y72187636D01*
X33364289Y72187629D01*
X33281594Y72047800D01*
X33241385Y71909400D01*
X228010Y71909400D01*
X233391Y71926667D01*
X238778Y71940868D01*
X354665Y72198360D01*
X361734Y72211828D01*
X507820Y72453486D01*
X516452Y72465991D01*
X690602Y72688277D01*
X700677Y72699649D01*
X900351Y72899323D01*
X911723Y72909398D01*
X1134009Y73083548D01*
X1146514Y73092180D01*
X1388175Y73238268D01*
X1401640Y73245335D01*
X1659132Y73361222D01*
X1673333Y73366609D01*
X1942950Y73450625D01*
X1957690Y73454258D01*
X2235454Y73505160D01*
X2250531Y73506991D01*
X2509703Y73522668D01*
X2536199Y73524270D01*
X2543806Y73524500D01*
X2564531Y73524500D01*
X50775469Y73524500D01*
X50796194Y73524500D01*
X50803801Y73524270D01*
G37*
%TD.AperFunction*%
%TD*%
M02*
