%TF.GenerationSoftware,KiCad,Pcbnew,10.0.2*%
%TF.CreationDate,2026-07-14T17:02:02-04:00*%
%TF.ProjectId,IMUTagNandBreakout,494d5554-6167-44e6-916e-64427265616b,rev?*%
%TF.SameCoordinates,Original*%
%TF.FileFunction,Copper,L2,Inr*%
%TF.FilePolarity,Positive*%
%FSLAX46Y46*%
G04 Gerber Fmt 4.6, Leading zero omitted, Abs format (unit mm)*
G04 Created by KiCad (PCBNEW 10.0.2) date 2026-07-14 17:02:02*
%MOMM*%
%LPD*%
G01*
G04 APERTURE LIST*
%TA.AperFunction,ComponentPad*%
%ADD10R,1.700000X1.700000*%
%TD*%
%TA.AperFunction,ComponentPad*%
%ADD11O,1.700000X1.700000*%
%TD*%
%TA.AperFunction,ViaPad*%
%ADD12C,0.609600*%
%TD*%
G04 APERTURE END LIST*
D10*
%TO.N,unconnected-(J3-Pin_1-Pad1)*%
%TO.C,J3*%
X106553000Y-76200000D03*
D11*
%TO.N,/BMM_INT*%
X106807000Y-78740000D03*
%TO.N,/SCL*%
X106553000Y-81280000D03*
%TO.N,/SDA*%
X106807000Y-83820000D03*
%TO.N,unconnected-(J3-Pin_5-Pad5)*%
X106553000Y-86360000D03*
%TO.N,unconnected-(J3-Pin_6-Pad6)*%
X106807000Y-88900000D03*
%TO.N,+1V8*%
X106553000Y-91440000D03*
%TO.N,/WKUP1*%
X106807000Y-93980000D03*
%TO.N,unconnected-(J3-Pin_9-Pad9)*%
X106553000Y-96520000D03*
%TO.N,unconnected-(J3-Pin_10-Pad10)*%
X106807000Y-99060000D03*
%TO.N,unconnected-(J3-Pin_11-Pad11)*%
X106553000Y-101600000D03*
%TO.N,/AT25_nCS*%
X106807000Y-104140000D03*
%TO.N,/AT25_SCK*%
X106553000Y-106680000D03*
%TO.N,/AT25_MISO*%
X106807000Y-109220000D03*
%TO.N,/AT25_MOSI*%
X106553000Y-111760000D03*
%TO.N,unconnected-(J3-Pin_16-Pad16)*%
X106807000Y-114300000D03*
%TO.N,GND*%
X106553000Y-116840000D03*
%TD*%
D10*
%TO.N,+1V8*%
%TO.C,J4*%
X149733000Y-76200000D03*
D11*
%TO.N,/LPS_CK*%
X149987000Y-78740000D03*
%TO.N,unconnected-(J4-Pin_3-Pad3)*%
X149733000Y-81280000D03*
%TO.N,/LPS_MOSI*%
X149987000Y-83820000D03*
%TO.N,/LPS_MISO*%
X149733000Y-86360000D03*
%TO.N,/LPS_DRDY*%
X149987000Y-88900000D03*
%TO.N,/LPS_CS*%
X149733000Y-91440000D03*
%TO.N,/LSM_TRG*%
X149987000Y-93980000D03*
%TO.N,unconnected-(J4-Pin_9-Pad9)*%
X149733000Y-96520000D03*
%TO.N,unconnected-(J4-Pin_10-Pad10)*%
X149987000Y-99060000D03*
%TO.N,unconnected-(J4-Pin_11-Pad11)*%
X149733000Y-101600000D03*
%TO.N,unconnected-(J4-Pin_12-Pad12)*%
X149987000Y-104140000D03*
%TO.N,unconnected-(J4-Pin_13-Pad13)*%
X149733000Y-106680000D03*
%TO.N,unconnected-(J4-Pin_14-Pad14)*%
X149987000Y-109220000D03*
%TO.N,/NC*%
X149733000Y-111760000D03*
%TO.N,/LSM_CS*%
X149987000Y-114300000D03*
%TO.N,GND*%
X149733000Y-116840000D03*
%TD*%
D12*
%TO.N,GND*%
X133320200Y-86931200D03*
X131340000Y-91152000D03*
X126940000Y-79902000D03*
X128290000Y-105102000D03*
X129915000Y-92352000D03*
X122240000Y-81852000D03*
X130040000Y-105077000D03*
X133965000Y-80277000D03*
X127590000Y-95427000D03*
X132340000Y-80252000D03*
X128905000Y-100203000D03*
X129408600Y-84899200D03*
X131034200Y-85032800D03*
%TO.N,+1V8*%
X127265000Y-102752000D03*
X128040000Y-91152000D03*
X134140000Y-76727000D03*
X130940000Y-102752000D03*
X122040000Y-92052000D03*
X122240000Y-80552000D03*
X130990000Y-95452000D03*
X129365000Y-88602000D03*
X131040000Y-88577000D03*
X122415000Y-89152000D03*
X132415000Y-76777000D03*
%TO.N,/SDA*%
X116015000Y-87002000D03*
X122040000Y-90527000D03*
%TO.N,/LSM_TRG*%
X131364000Y-100453000D03*
%TO.N,/SCL*%
X122015000Y-86677000D03*
X115990000Y-85177000D03*
%TO.N,/WKUP1*%
X120390000Y-99177000D03*
%TO.N,/LPS_MOSI*%
X136615000Y-86927000D03*
X137715000Y-84252000D03*
%TO.N,/LPS_MISO*%
X143240000Y-86352000D03*
%TO.N,/BMM_INT*%
X121840000Y-93327000D03*
%TO.N,/AT25_MISO*%
X121267614Y-98596984D03*
X118540000Y-97727000D03*
%TO.N,/LPS_CK*%
X133640000Y-88652000D03*
%TO.N,/AT25_SCK*%
X110690000Y-106702000D03*
X122190000Y-97202000D03*
X120440000Y-97152000D03*
%TD*%
%TA.AperFunction,Conductor*%
%TO.N,+1V8*%
G36*
X151134853Y-72465882D02*
G01*
X151164568Y-72468220D01*
X151307136Y-72479440D01*
X151326346Y-72482483D01*
X151489638Y-72521686D01*
X151508135Y-72527696D01*
X151663280Y-72591959D01*
X151680606Y-72600787D01*
X151734330Y-72633709D01*
X151823787Y-72688529D01*
X151839529Y-72699966D01*
X151967218Y-72809023D01*
X151980976Y-72822781D01*
X152090033Y-72950470D01*
X152101470Y-72966212D01*
X152189209Y-73109387D01*
X152198043Y-73126725D01*
X152262301Y-73281860D01*
X152268314Y-73300365D01*
X152307515Y-73463648D01*
X152310559Y-73482866D01*
X152324118Y-73655146D01*
X152324500Y-73664875D01*
X152324500Y-119375124D01*
X152324118Y-119384852D01*
X152324118Y-119384853D01*
X152310559Y-119557133D01*
X152307515Y-119576351D01*
X152268314Y-119739634D01*
X152262301Y-119758139D01*
X152198043Y-119913274D01*
X152189209Y-119930612D01*
X152101470Y-120073787D01*
X152090033Y-120089529D01*
X151980976Y-120217218D01*
X151967218Y-120230976D01*
X151839529Y-120340033D01*
X151823787Y-120351470D01*
X151680612Y-120439209D01*
X151663274Y-120448043D01*
X151508139Y-120512301D01*
X151489634Y-120518314D01*
X151326351Y-120557515D01*
X151307133Y-120560559D01*
X151134854Y-120574118D01*
X151125125Y-120574500D01*
X105414875Y-120574500D01*
X105405146Y-120574118D01*
X105232866Y-120560559D01*
X105213648Y-120557515D01*
X105050365Y-120518314D01*
X105031860Y-120512301D01*
X104876725Y-120448043D01*
X104859387Y-120439209D01*
X104716212Y-120351470D01*
X104700470Y-120340033D01*
X104572781Y-120230976D01*
X104559023Y-120217218D01*
X104449966Y-120089529D01*
X104438529Y-120073787D01*
X104402664Y-120015262D01*
X104350787Y-119930606D01*
X104341959Y-119913280D01*
X104277696Y-119758135D01*
X104271685Y-119739634D01*
X104232484Y-119576351D01*
X104229440Y-119557132D01*
X104215882Y-119384852D01*
X104215500Y-119375124D01*
X104215500Y-75301345D01*
X105194500Y-75301345D01*
X105194500Y-77098654D01*
X105201011Y-77159202D01*
X105201011Y-77159204D01*
X105250575Y-77292086D01*
X105252111Y-77296204D01*
X105339739Y-77413261D01*
X105456796Y-77500889D01*
X105571297Y-77543596D01*
X105588463Y-77549999D01*
X105593799Y-77551989D01*
X105621050Y-77554918D01*
X105654345Y-77558499D01*
X105654362Y-77558500D01*
X105767928Y-77558500D01*
X105834967Y-77578185D01*
X105880722Y-77630989D01*
X105890666Y-77700147D01*
X105861641Y-77763703D01*
X105855609Y-77770181D01*
X105770796Y-77854993D01*
X105645106Y-78027990D01*
X105548027Y-78218516D01*
X105548026Y-78218519D01*
X105481951Y-78421882D01*
X105448500Y-78633084D01*
X105448500Y-78846915D01*
X105481951Y-79058117D01*
X105548026Y-79261480D01*
X105548027Y-79261483D01*
X105610223Y-79383548D01*
X105645106Y-79452009D01*
X105770794Y-79625004D01*
X105921996Y-79776206D01*
X106001503Y-79833971D01*
X106044168Y-79889301D01*
X106050147Y-79958915D01*
X106017541Y-80020710D01*
X105984912Y-80044774D01*
X105840990Y-80118106D01*
X105667993Y-80243796D01*
X105516796Y-80394993D01*
X105391106Y-80567990D01*
X105294027Y-80758516D01*
X105294026Y-80758519D01*
X105227951Y-80961882D01*
X105194500Y-81173084D01*
X105194500Y-81386915D01*
X105227951Y-81598117D01*
X105294026Y-81801480D01*
X105294027Y-81801483D01*
X105360582Y-81932103D01*
X105391106Y-81992009D01*
X105516794Y-82165004D01*
X105667996Y-82316206D01*
X105840991Y-82441894D01*
X105984913Y-82515226D01*
X106035708Y-82563199D01*
X106052503Y-82631020D01*
X106029966Y-82697155D01*
X106001504Y-82726027D01*
X105921996Y-82783793D01*
X105770796Y-82934993D01*
X105645106Y-83107990D01*
X105548027Y-83298516D01*
X105548026Y-83298519D01*
X105481951Y-83501882D01*
X105448500Y-83713084D01*
X105448500Y-83926915D01*
X105481951Y-84138117D01*
X105548026Y-84341480D01*
X105548027Y-84341483D01*
X105636107Y-84514348D01*
X105645106Y-84532009D01*
X105770794Y-84705004D01*
X105921996Y-84856206D01*
X106001503Y-84913971D01*
X106044168Y-84969301D01*
X106050147Y-85038915D01*
X106017541Y-85100710D01*
X105984912Y-85124774D01*
X105840990Y-85198106D01*
X105667993Y-85323796D01*
X105516796Y-85474993D01*
X105391106Y-85647990D01*
X105294027Y-85838516D01*
X105294026Y-85838519D01*
X105227951Y-86041882D01*
X105194500Y-86253084D01*
X105194500Y-86466915D01*
X105227951Y-86678117D01*
X105294026Y-86881480D01*
X105294027Y-86881483D01*
X105386127Y-87062237D01*
X105391106Y-87072009D01*
X105516794Y-87245004D01*
X105667996Y-87396206D01*
X105840991Y-87521894D01*
X105984913Y-87595226D01*
X106035708Y-87643199D01*
X106052503Y-87711020D01*
X106029966Y-87777155D01*
X106001504Y-87806027D01*
X105921996Y-87863793D01*
X105770796Y-88014993D01*
X105645106Y-88187990D01*
X105548027Y-88378516D01*
X105548026Y-88378519D01*
X105481951Y-88581882D01*
X105458158Y-88732105D01*
X105448500Y-88793084D01*
X105448500Y-89006916D01*
X105453303Y-89037239D01*
X105481951Y-89218117D01*
X105548026Y-89421480D01*
X105548027Y-89421483D01*
X105645106Y-89612009D01*
X105770794Y-89785004D01*
X105921996Y-89936206D01*
X106009221Y-89999579D01*
X106051887Y-90054907D01*
X106057866Y-90124521D01*
X106025261Y-90186316D01*
X105992632Y-90210380D01*
X105845444Y-90285377D01*
X105673540Y-90410272D01*
X105673535Y-90410276D01*
X105523276Y-90560535D01*
X105523272Y-90560540D01*
X105398379Y-90732442D01*
X105301904Y-90921782D01*
X105236242Y-91123870D01*
X105236242Y-91123873D01*
X105225769Y-91190000D01*
X106119988Y-91190000D01*
X106087075Y-91247007D01*
X106053000Y-91374174D01*
X106053000Y-91505826D01*
X106087075Y-91632993D01*
X106119988Y-91690000D01*
X105225769Y-91690000D01*
X105236242Y-91756126D01*
X105236242Y-91756129D01*
X105301904Y-91958217D01*
X105398379Y-92147557D01*
X105523272Y-92319459D01*
X105523276Y-92319464D01*
X105673535Y-92469723D01*
X105673540Y-92469727D01*
X105845442Y-92594620D01*
X105992631Y-92669618D01*
X106043427Y-92717593D01*
X106060222Y-92785414D01*
X106037684Y-92851549D01*
X106009222Y-92880421D01*
X105921993Y-92943796D01*
X105770796Y-93094993D01*
X105645106Y-93267990D01*
X105548027Y-93458516D01*
X105548026Y-93458519D01*
X105481951Y-93661882D01*
X105448500Y-93873084D01*
X105448500Y-94086915D01*
X105481951Y-94298117D01*
X105548026Y-94501480D01*
X105548027Y-94501483D01*
X105621131Y-94644955D01*
X105645106Y-94692009D01*
X105770794Y-94865004D01*
X105921996Y-95016206D01*
X106001503Y-95073971D01*
X106044168Y-95129301D01*
X106050147Y-95198915D01*
X106017541Y-95260710D01*
X105984912Y-95284774D01*
X105840990Y-95358106D01*
X105667993Y-95483796D01*
X105516796Y-95634993D01*
X105391106Y-95807990D01*
X105294027Y-95998516D01*
X105294026Y-95998519D01*
X105227951Y-96201882D01*
X105221866Y-96240300D01*
X105194500Y-96413084D01*
X105194500Y-96626916D01*
X105195551Y-96633552D01*
X105227951Y-96838117D01*
X105294026Y-97041480D01*
X105294027Y-97041483D01*
X105379152Y-97208548D01*
X105391106Y-97232009D01*
X105516794Y-97405004D01*
X105667996Y-97556206D01*
X105840991Y-97681894D01*
X105984913Y-97755226D01*
X106035708Y-97803199D01*
X106052503Y-97871020D01*
X106029966Y-97937155D01*
X106001504Y-97966027D01*
X105921996Y-98023793D01*
X105770796Y-98174993D01*
X105645106Y-98347990D01*
X105548027Y-98538516D01*
X105548026Y-98538519D01*
X105481951Y-98741882D01*
X105448500Y-98953084D01*
X105448500Y-99166915D01*
X105481951Y-99378117D01*
X105548026Y-99581480D01*
X105548027Y-99581483D01*
X105624853Y-99732260D01*
X105645106Y-99772009D01*
X105770794Y-99945004D01*
X105921996Y-100096206D01*
X106001503Y-100153971D01*
X106044168Y-100209301D01*
X106050147Y-100278915D01*
X106017541Y-100340710D01*
X105984912Y-100364774D01*
X105840990Y-100438106D01*
X105667993Y-100563796D01*
X105516796Y-100714993D01*
X105391106Y-100887990D01*
X105294027Y-101078516D01*
X105294026Y-101078519D01*
X105227951Y-101281882D01*
X105194500Y-101493084D01*
X105194500Y-101706915D01*
X105227951Y-101918117D01*
X105294026Y-102121480D01*
X105294027Y-102121483D01*
X105391106Y-102312009D01*
X105516794Y-102485004D01*
X105667996Y-102636206D01*
X105840991Y-102761894D01*
X105984913Y-102835226D01*
X106035708Y-102883199D01*
X106052503Y-102951020D01*
X106029966Y-103017155D01*
X106001504Y-103046027D01*
X105921996Y-103103793D01*
X105770796Y-103254993D01*
X105645106Y-103427990D01*
X105548027Y-103618516D01*
X105548026Y-103618519D01*
X105481951Y-103821882D01*
X105481951Y-103821884D01*
X105448500Y-104033084D01*
X105448500Y-104246916D01*
X105465225Y-104352516D01*
X105481951Y-104458117D01*
X105548026Y-104661480D01*
X105548027Y-104661483D01*
X105622763Y-104808158D01*
X105645106Y-104852009D01*
X105770794Y-105025004D01*
X105921996Y-105176206D01*
X106001503Y-105233971D01*
X106044168Y-105289301D01*
X106050147Y-105358915D01*
X106017541Y-105420710D01*
X105984912Y-105444774D01*
X105840990Y-105518106D01*
X105667993Y-105643796D01*
X105516796Y-105794993D01*
X105391106Y-105967990D01*
X105294027Y-106158516D01*
X105294026Y-106158519D01*
X105227951Y-106361882D01*
X105194500Y-106573084D01*
X105194500Y-106786915D01*
X105227951Y-106998117D01*
X105294026Y-107201480D01*
X105294027Y-107201483D01*
X105361410Y-107333728D01*
X105391106Y-107392009D01*
X105516794Y-107565004D01*
X105667996Y-107716206D01*
X105840991Y-107841894D01*
X105984913Y-107915226D01*
X106035708Y-107963199D01*
X106052503Y-108031020D01*
X106029966Y-108097155D01*
X106001504Y-108126027D01*
X105921996Y-108183793D01*
X105770796Y-108334993D01*
X105645106Y-108507990D01*
X105548027Y-108698516D01*
X105548026Y-108698519D01*
X105481951Y-108901882D01*
X105448500Y-109113084D01*
X105448500Y-109326915D01*
X105481951Y-109538117D01*
X105548026Y-109741480D01*
X105548027Y-109741483D01*
X105645106Y-109932009D01*
X105770794Y-110105004D01*
X105921996Y-110256206D01*
X106001503Y-110313971D01*
X106044168Y-110369301D01*
X106050147Y-110438915D01*
X106017541Y-110500710D01*
X105984912Y-110524774D01*
X105840990Y-110598106D01*
X105667993Y-110723796D01*
X105516796Y-110874993D01*
X105391106Y-111047990D01*
X105294027Y-111238516D01*
X105294026Y-111238519D01*
X105227951Y-111441882D01*
X105194500Y-111653084D01*
X105194500Y-111866915D01*
X105227951Y-112078117D01*
X105294026Y-112281480D01*
X105294027Y-112281483D01*
X105391106Y-112472009D01*
X105516794Y-112645004D01*
X105667996Y-112796206D01*
X105840991Y-112921894D01*
X105984913Y-112995226D01*
X106035708Y-113043199D01*
X106052503Y-113111020D01*
X106029966Y-113177155D01*
X106001504Y-113206027D01*
X105921996Y-113263793D01*
X105770796Y-113414993D01*
X105645106Y-113587990D01*
X105548027Y-113778516D01*
X105548026Y-113778519D01*
X105481951Y-113981882D01*
X105448500Y-114193084D01*
X105448500Y-114406915D01*
X105481951Y-114618117D01*
X105548026Y-114821480D01*
X105548027Y-114821483D01*
X105645106Y-115012009D01*
X105770794Y-115185004D01*
X105921996Y-115336206D01*
X106001503Y-115393971D01*
X106044168Y-115449301D01*
X106050147Y-115518915D01*
X106017541Y-115580710D01*
X105984912Y-115604774D01*
X105840990Y-115678106D01*
X105667993Y-115803796D01*
X105516796Y-115954993D01*
X105391106Y-116127990D01*
X105294027Y-116318516D01*
X105294026Y-116318519D01*
X105227951Y-116521882D01*
X105194500Y-116733084D01*
X105194500Y-116946915D01*
X105227951Y-117158117D01*
X105294026Y-117361480D01*
X105294027Y-117361483D01*
X105391106Y-117552009D01*
X105516794Y-117725004D01*
X105667996Y-117876206D01*
X105840991Y-118001894D01*
X105934438Y-118049507D01*
X106031516Y-118098972D01*
X106031519Y-118098973D01*
X106133200Y-118132010D01*
X106234884Y-118165049D01*
X106446084Y-118198500D01*
X106446085Y-118198500D01*
X106659915Y-118198500D01*
X106659916Y-118198500D01*
X106871116Y-118165049D01*
X107074483Y-118098972D01*
X107265009Y-118001894D01*
X107438004Y-117876206D01*
X107589206Y-117725004D01*
X107714894Y-117552009D01*
X107811972Y-117361483D01*
X107878049Y-117158116D01*
X107911500Y-116946916D01*
X107911500Y-116733084D01*
X107878049Y-116521884D01*
X107811972Y-116318517D01*
X107811972Y-116318516D01*
X107714893Y-116127990D01*
X107589206Y-115954996D01*
X107438004Y-115803794D01*
X107358496Y-115746028D01*
X107315831Y-115690697D01*
X107309852Y-115621084D01*
X107342458Y-115559289D01*
X107375085Y-115535226D01*
X107519009Y-115461894D01*
X107692004Y-115336206D01*
X107843206Y-115185004D01*
X107968894Y-115012009D01*
X108065972Y-114821483D01*
X108132049Y-114618116D01*
X108165500Y-114406916D01*
X108165500Y-114193084D01*
X108132049Y-113981884D01*
X108065972Y-113778517D01*
X108065972Y-113778516D01*
X107968893Y-113587990D01*
X107843206Y-113414996D01*
X107692004Y-113263794D01*
X107519009Y-113138106D01*
X107375086Y-113064773D01*
X107324291Y-113016799D01*
X107307496Y-112948978D01*
X107330033Y-112882843D01*
X107358497Y-112853971D01*
X107438004Y-112796206D01*
X107589206Y-112645004D01*
X107714894Y-112472009D01*
X107811972Y-112281483D01*
X107878049Y-112078116D01*
X107911500Y-111866916D01*
X107911500Y-111653084D01*
X107878049Y-111441884D01*
X107811972Y-111238517D01*
X107811972Y-111238516D01*
X107714893Y-111047990D01*
X107589206Y-110874996D01*
X107438004Y-110723794D01*
X107358496Y-110666028D01*
X107315831Y-110610697D01*
X107309852Y-110541084D01*
X107342458Y-110479289D01*
X107375085Y-110455226D01*
X107519009Y-110381894D01*
X107692004Y-110256206D01*
X107843206Y-110105004D01*
X107968894Y-109932009D01*
X108065972Y-109741483D01*
X108132049Y-109538116D01*
X108165500Y-109326916D01*
X108165500Y-109113084D01*
X108132049Y-108901884D01*
X108065972Y-108698517D01*
X108065972Y-108698516D01*
X107968893Y-108507990D01*
X107843206Y-108334996D01*
X107692004Y-108183794D01*
X107519009Y-108058106D01*
X107375086Y-107984773D01*
X107324291Y-107936799D01*
X107307496Y-107868978D01*
X107330033Y-107802843D01*
X107358497Y-107773971D01*
X107438004Y-107716206D01*
X107589206Y-107565004D01*
X107714894Y-107392009D01*
X107811972Y-107201483D01*
X107878049Y-106998116D01*
X107911500Y-106786916D01*
X107911500Y-106621894D01*
X109876700Y-106621894D01*
X109876700Y-106782104D01*
X109907953Y-106939225D01*
X109907956Y-106939235D01*
X109969260Y-107087237D01*
X109969261Y-107087239D01*
X110058268Y-107220447D01*
X110058271Y-107220451D01*
X110171548Y-107333728D01*
X110171552Y-107333731D01*
X110304758Y-107422737D01*
X110304759Y-107422737D01*
X110304760Y-107422738D01*
X110304762Y-107422739D01*
X110452764Y-107484043D01*
X110452769Y-107484045D01*
X110452773Y-107484045D01*
X110452774Y-107484046D01*
X110609894Y-107515300D01*
X110609897Y-107515300D01*
X110770105Y-107515300D01*
X110875813Y-107494272D01*
X110927231Y-107484045D01*
X111075242Y-107422737D01*
X111208448Y-107333731D01*
X111321731Y-107220448D01*
X111410737Y-107087242D01*
X111472045Y-106939231D01*
X111503300Y-106782103D01*
X111503300Y-106621897D01*
X111503300Y-106621894D01*
X111472046Y-106464774D01*
X111472045Y-106464773D01*
X111472045Y-106464769D01*
X111410737Y-106316758D01*
X111321731Y-106183552D01*
X111321728Y-106183548D01*
X111208451Y-106070271D01*
X111208447Y-106070268D01*
X111075239Y-105981261D01*
X111075237Y-105981260D01*
X110927235Y-105919956D01*
X110927225Y-105919953D01*
X110770105Y-105888700D01*
X110770103Y-105888700D01*
X110609897Y-105888700D01*
X110609895Y-105888700D01*
X110452774Y-105919953D01*
X110452764Y-105919956D01*
X110304762Y-105981260D01*
X110304760Y-105981261D01*
X110171552Y-106070268D01*
X110171548Y-106070271D01*
X110058271Y-106183548D01*
X110058268Y-106183552D01*
X109969261Y-106316760D01*
X109969260Y-106316762D01*
X109907956Y-106464764D01*
X109907953Y-106464774D01*
X109876700Y-106621894D01*
X107911500Y-106621894D01*
X107911500Y-106573084D01*
X107878049Y-106361884D01*
X107845010Y-106260200D01*
X107811973Y-106158519D01*
X107811972Y-106158516D01*
X107721655Y-105981261D01*
X107714894Y-105967991D01*
X107589206Y-105794996D01*
X107438004Y-105643794D01*
X107387835Y-105607344D01*
X107358496Y-105586028D01*
X107315831Y-105530697D01*
X107309852Y-105461084D01*
X107342458Y-105399289D01*
X107375085Y-105375226D01*
X107519009Y-105301894D01*
X107683885Y-105182105D01*
X127476699Y-105182105D01*
X127507953Y-105339225D01*
X127507956Y-105339235D01*
X127569260Y-105487237D01*
X127569261Y-105487239D01*
X127658268Y-105620447D01*
X127658271Y-105620451D01*
X127771548Y-105733728D01*
X127771552Y-105733731D01*
X127904758Y-105822737D01*
X127904759Y-105822737D01*
X127904760Y-105822738D01*
X127904762Y-105822739D01*
X128052764Y-105884043D01*
X128052769Y-105884045D01*
X128052773Y-105884045D01*
X128052774Y-105884046D01*
X128209894Y-105915300D01*
X128209897Y-105915300D01*
X128370105Y-105915300D01*
X128495785Y-105890300D01*
X128527231Y-105884045D01*
X128675242Y-105822737D01*
X128808448Y-105733731D01*
X128921731Y-105620448D01*
X129010737Y-105487242D01*
X129055618Y-105378889D01*
X129099456Y-105324489D01*
X129165750Y-105302424D01*
X129233449Y-105319703D01*
X129281060Y-105370839D01*
X129284738Y-105378892D01*
X129319261Y-105462239D01*
X129408268Y-105595447D01*
X129408271Y-105595451D01*
X129521548Y-105708728D01*
X129521552Y-105708731D01*
X129654758Y-105797737D01*
X129654759Y-105797737D01*
X129654760Y-105797738D01*
X129654762Y-105797739D01*
X129715118Y-105822739D01*
X129802769Y-105859045D01*
X129802773Y-105859045D01*
X129802774Y-105859046D01*
X129959894Y-105890300D01*
X129959897Y-105890300D01*
X130120105Y-105890300D01*
X130225813Y-105869272D01*
X130277231Y-105859045D01*
X130425242Y-105797737D01*
X130558448Y-105708731D01*
X130671731Y-105595448D01*
X130760737Y-105462242D01*
X130822045Y-105314231D01*
X130853300Y-105157103D01*
X130853300Y-104996897D01*
X130853300Y-104996894D01*
X130822046Y-104839774D01*
X130822045Y-104839773D01*
X130822045Y-104839769D01*
X130771093Y-104716760D01*
X130760739Y-104691762D01*
X130760738Y-104691760D01*
X130740507Y-104661483D01*
X130671731Y-104558552D01*
X130671728Y-104558548D01*
X130558451Y-104445271D01*
X130558447Y-104445268D01*
X130425239Y-104356261D01*
X130425237Y-104356260D01*
X130277235Y-104294956D01*
X130277225Y-104294953D01*
X130120105Y-104263700D01*
X130120103Y-104263700D01*
X129959897Y-104263700D01*
X129959895Y-104263700D01*
X129802774Y-104294953D01*
X129802764Y-104294956D01*
X129654762Y-104356260D01*
X129654760Y-104356261D01*
X129521552Y-104445268D01*
X129521548Y-104445271D01*
X129408271Y-104558548D01*
X129408268Y-104558552D01*
X129319261Y-104691760D01*
X129274383Y-104800107D01*
X129230542Y-104854510D01*
X129164248Y-104876575D01*
X129096548Y-104859296D01*
X129048938Y-104808158D01*
X129045261Y-104800106D01*
X129010739Y-104716762D01*
X129010738Y-104716760D01*
X128994033Y-104691760D01*
X128921731Y-104583552D01*
X128921728Y-104583548D01*
X128808451Y-104470271D01*
X128808447Y-104470268D01*
X128675239Y-104381261D01*
X128675237Y-104381260D01*
X128527235Y-104319956D01*
X128527225Y-104319953D01*
X128370105Y-104288700D01*
X128370103Y-104288700D01*
X128209897Y-104288700D01*
X128209895Y-104288700D01*
X128052774Y-104319953D01*
X128052764Y-104319956D01*
X127904762Y-104381260D01*
X127904760Y-104381261D01*
X127771552Y-104470268D01*
X127771548Y-104470271D01*
X127658271Y-104583548D01*
X127658268Y-104583552D01*
X127569261Y-104716760D01*
X127569260Y-104716762D01*
X127507956Y-104864764D01*
X127507953Y-104864774D01*
X127476700Y-105021894D01*
X127476700Y-105021897D01*
X127476700Y-105182103D01*
X127476700Y-105182105D01*
X127476699Y-105182105D01*
X107683885Y-105182105D01*
X107692004Y-105176206D01*
X107843206Y-105025004D01*
X107968894Y-104852009D01*
X108065972Y-104661483D01*
X108132049Y-104458116D01*
X108165500Y-104246916D01*
X108165500Y-104033084D01*
X108132049Y-103821884D01*
X108065972Y-103618517D01*
X108065972Y-103618516D01*
X107968893Y-103427990D01*
X107843206Y-103254996D01*
X107692004Y-103103794D01*
X107519009Y-102978106D01*
X107375086Y-102904773D01*
X107324291Y-102856799D01*
X107307496Y-102788978D01*
X107330033Y-102722843D01*
X107358497Y-102693971D01*
X107438004Y-102636206D01*
X107589206Y-102485004D01*
X107714894Y-102312009D01*
X107811972Y-102121483D01*
X107878049Y-101918116D01*
X107911500Y-101706916D01*
X107911500Y-101493084D01*
X107878049Y-101281884D01*
X107811972Y-101078517D01*
X107811972Y-101078516D01*
X107757419Y-100971451D01*
X107714894Y-100887991D01*
X107589206Y-100714996D01*
X107438004Y-100563794D01*
X107358496Y-100506028D01*
X107315831Y-100450697D01*
X107309852Y-100381084D01*
X107342458Y-100319289D01*
X107375085Y-100295226D01*
X107398874Y-100283105D01*
X128091699Y-100283105D01*
X128122953Y-100440225D01*
X128122956Y-100440235D01*
X128184260Y-100588237D01*
X128184261Y-100588239D01*
X128273268Y-100721447D01*
X128273271Y-100721451D01*
X128386548Y-100834728D01*
X128386552Y-100834731D01*
X128519758Y-100923737D01*
X128519759Y-100923737D01*
X128519760Y-100923738D01*
X128519762Y-100923739D01*
X128634940Y-100971447D01*
X128667769Y-100985045D01*
X128667773Y-100985045D01*
X128667774Y-100985046D01*
X128824894Y-101016300D01*
X128824897Y-101016300D01*
X128985105Y-101016300D01*
X129090813Y-100995272D01*
X129142231Y-100985045D01*
X129290242Y-100923737D01*
X129423448Y-100834731D01*
X129536731Y-100721448D01*
X129625737Y-100588242D01*
X129648575Y-100533105D01*
X130550699Y-100533105D01*
X130581953Y-100690225D01*
X130581956Y-100690235D01*
X130643260Y-100838237D01*
X130643261Y-100838239D01*
X130732268Y-100971447D01*
X130732271Y-100971451D01*
X130845548Y-101084728D01*
X130845552Y-101084731D01*
X130978758Y-101173737D01*
X130978759Y-101173737D01*
X130978760Y-101173738D01*
X130978762Y-101173739D01*
X131126764Y-101235043D01*
X131126769Y-101235045D01*
X131126773Y-101235045D01*
X131126774Y-101235046D01*
X131283894Y-101266300D01*
X131283897Y-101266300D01*
X131444105Y-101266300D01*
X131549813Y-101245272D01*
X131601231Y-101235045D01*
X131749242Y-101173737D01*
X131882448Y-101084731D01*
X131995731Y-100971448D01*
X132084737Y-100838242D01*
X132146045Y-100690231D01*
X132177300Y-100533103D01*
X132177300Y-100372897D01*
X132177300Y-100372894D01*
X132146046Y-100215774D01*
X132146045Y-100215773D01*
X132146045Y-100215769D01*
X132143366Y-100209301D01*
X132084739Y-100067762D01*
X132084738Y-100067760D01*
X131995731Y-99934552D01*
X131995728Y-99934548D01*
X131882451Y-99821271D01*
X131882447Y-99821268D01*
X131749239Y-99732261D01*
X131749237Y-99732260D01*
X131601235Y-99670956D01*
X131601225Y-99670953D01*
X131444105Y-99639700D01*
X131444103Y-99639700D01*
X131283897Y-99639700D01*
X131283895Y-99639700D01*
X131126774Y-99670953D01*
X131126764Y-99670956D01*
X130978762Y-99732260D01*
X130978760Y-99732261D01*
X130845552Y-99821268D01*
X130845548Y-99821271D01*
X130732271Y-99934548D01*
X130732268Y-99934552D01*
X130643261Y-100067760D01*
X130643260Y-100067762D01*
X130581956Y-100215764D01*
X130581953Y-100215774D01*
X130550700Y-100372894D01*
X130550700Y-100372897D01*
X130550700Y-100533103D01*
X130550700Y-100533105D01*
X130550699Y-100533105D01*
X129648575Y-100533105D01*
X129687045Y-100440231D01*
X129700439Y-100372894D01*
X129706463Y-100342613D01*
X129718300Y-100283105D01*
X129718300Y-100122894D01*
X129687046Y-99965774D01*
X129687045Y-99965773D01*
X129687045Y-99965769D01*
X129627192Y-99821271D01*
X129625739Y-99817762D01*
X129625738Y-99817760D01*
X129544011Y-99695448D01*
X129536731Y-99684552D01*
X129536728Y-99684548D01*
X129423451Y-99571271D01*
X129423447Y-99571268D01*
X129290239Y-99482261D01*
X129290237Y-99482260D01*
X129142235Y-99420956D01*
X129142225Y-99420953D01*
X128985105Y-99389700D01*
X128985103Y-99389700D01*
X128824897Y-99389700D01*
X128824895Y-99389700D01*
X128667774Y-99420953D01*
X128667764Y-99420956D01*
X128519762Y-99482260D01*
X128519760Y-99482261D01*
X128386552Y-99571268D01*
X128386548Y-99571271D01*
X128273271Y-99684548D01*
X128273268Y-99684552D01*
X128184261Y-99817760D01*
X128184260Y-99817762D01*
X128122956Y-99965764D01*
X128122953Y-99965774D01*
X128091700Y-100122894D01*
X128091700Y-100122897D01*
X128091700Y-100283103D01*
X128091700Y-100283105D01*
X128091699Y-100283105D01*
X107398874Y-100283105D01*
X107519009Y-100221894D01*
X107692004Y-100096206D01*
X107843206Y-99945004D01*
X107968894Y-99772009D01*
X108065972Y-99581483D01*
X108132049Y-99378116D01*
X108151215Y-99257105D01*
X119576699Y-99257105D01*
X119607953Y-99414225D01*
X119607956Y-99414235D01*
X119669260Y-99562237D01*
X119669261Y-99562239D01*
X119758268Y-99695447D01*
X119758271Y-99695451D01*
X119871548Y-99808728D01*
X119871552Y-99808731D01*
X120004758Y-99897737D01*
X120004759Y-99897737D01*
X120004760Y-99897738D01*
X120004762Y-99897739D01*
X120152764Y-99959043D01*
X120152769Y-99959045D01*
X120152773Y-99959045D01*
X120152774Y-99959046D01*
X120309894Y-99990300D01*
X120309897Y-99990300D01*
X120470105Y-99990300D01*
X120593427Y-99965769D01*
X120627231Y-99959045D01*
X120775242Y-99897737D01*
X120908448Y-99808731D01*
X121021731Y-99695448D01*
X121110737Y-99562242D01*
X121141973Y-99486832D01*
X121185814Y-99432428D01*
X121252108Y-99410363D01*
X121256534Y-99410284D01*
X121347719Y-99410284D01*
X121453427Y-99389256D01*
X121504845Y-99379029D01*
X121652856Y-99317721D01*
X121786062Y-99228715D01*
X121899345Y-99115432D01*
X121988351Y-98982226D01*
X122049659Y-98834215D01*
X122068025Y-98741884D01*
X122080914Y-98677089D01*
X122080914Y-98516878D01*
X122049660Y-98359758D01*
X122049659Y-98359757D01*
X122049659Y-98359753D01*
X122049236Y-98358731D01*
X121988353Y-98211746D01*
X121988352Y-98211744D01*
X121984659Y-98206217D01*
X121963781Y-98139539D01*
X121982266Y-98072159D01*
X122034245Y-98025469D01*
X122103215Y-98014293D01*
X122108709Y-98015183D01*
X122109895Y-98015300D01*
X122109897Y-98015300D01*
X122270105Y-98015300D01*
X122404090Y-97988648D01*
X122427231Y-97984045D01*
X122575242Y-97922737D01*
X122708448Y-97833731D01*
X122821731Y-97720448D01*
X122910737Y-97587242D01*
X122972045Y-97439231D01*
X122991433Y-97341762D01*
X123003300Y-97282105D01*
X123003300Y-97121894D01*
X122972046Y-96964774D01*
X122972045Y-96964773D01*
X122972045Y-96964769D01*
X122962618Y-96942010D01*
X122910739Y-96816762D01*
X122910738Y-96816760D01*
X122877330Y-96766762D01*
X122821731Y-96683552D01*
X122821728Y-96683548D01*
X122708451Y-96570271D01*
X122708447Y-96570268D01*
X122575239Y-96481261D01*
X122575237Y-96481260D01*
X122427235Y-96419956D01*
X122427225Y-96419953D01*
X122270105Y-96388700D01*
X122270103Y-96388700D01*
X122109897Y-96388700D01*
X122109895Y-96388700D01*
X121952774Y-96419953D01*
X121952764Y-96419956D01*
X121804762Y-96481260D01*
X121804760Y-96481261D01*
X121671552Y-96570268D01*
X121671548Y-96570271D01*
X121558271Y-96683548D01*
X121558268Y-96683552D01*
X121469261Y-96816760D01*
X121439916Y-96887607D01*
X121396075Y-96942010D01*
X121329781Y-96964075D01*
X121262081Y-96946796D01*
X121214471Y-96895658D01*
X121210794Y-96887606D01*
X121160739Y-96766762D01*
X121160738Y-96766760D01*
X121071731Y-96633552D01*
X121071728Y-96633548D01*
X120958451Y-96520271D01*
X120958447Y-96520268D01*
X120825239Y-96431261D01*
X120825237Y-96431260D01*
X120677235Y-96369956D01*
X120677225Y-96369953D01*
X120520105Y-96338700D01*
X120520103Y-96338700D01*
X120359897Y-96338700D01*
X120359895Y-96338700D01*
X120202774Y-96369953D01*
X120202764Y-96369956D01*
X120054762Y-96431260D01*
X120054760Y-96431261D01*
X119921552Y-96520268D01*
X119921548Y-96520271D01*
X119808271Y-96633548D01*
X119808268Y-96633552D01*
X119719261Y-96766760D01*
X119719260Y-96766762D01*
X119657956Y-96914764D01*
X119657953Y-96914774D01*
X119626700Y-97071894D01*
X119626700Y-97071897D01*
X119626700Y-97232103D01*
X119626700Y-97232105D01*
X119626699Y-97232105D01*
X119657953Y-97389225D01*
X119657956Y-97389235D01*
X119719260Y-97537237D01*
X119719261Y-97537239D01*
X119808268Y-97670447D01*
X119808271Y-97670451D01*
X119921548Y-97783728D01*
X119921552Y-97783731D01*
X120054758Y-97872737D01*
X120054759Y-97872737D01*
X120054760Y-97872738D01*
X120054762Y-97872739D01*
X120116004Y-97898106D01*
X120202769Y-97934045D01*
X120202773Y-97934045D01*
X120202774Y-97934046D01*
X120359894Y-97965300D01*
X120479557Y-97965300D01*
X120482789Y-97966249D01*
X120486067Y-97965471D01*
X120516082Y-97976025D01*
X120546596Y-97984985D01*
X120548801Y-97987529D01*
X120551981Y-97988648D01*
X120571526Y-98013756D01*
X120592351Y-98037789D01*
X120592830Y-98041123D01*
X120594900Y-98043782D01*
X120597767Y-98075459D01*
X120602295Y-98106947D01*
X120600985Y-98111008D01*
X120601199Y-98113367D01*
X120596783Y-98124042D01*
X120589491Y-98146662D01*
X120586385Y-98152614D01*
X120546877Y-98211742D01*
X120513547Y-98292205D01*
X120511014Y-98297062D01*
X120490426Y-98318442D01*
X120471800Y-98341556D01*
X120466456Y-98343334D01*
X120462550Y-98347391D01*
X120433671Y-98354246D01*
X120405506Y-98363621D01*
X120401080Y-98363700D01*
X120309895Y-98363700D01*
X120152774Y-98394953D01*
X120152764Y-98394956D01*
X120004762Y-98456260D01*
X120004760Y-98456261D01*
X119871552Y-98545268D01*
X119871548Y-98545271D01*
X119758271Y-98658548D01*
X119758268Y-98658552D01*
X119669261Y-98791760D01*
X119669260Y-98791762D01*
X119607956Y-98939764D01*
X119607953Y-98939774D01*
X119576700Y-99096894D01*
X119576700Y-99096897D01*
X119576700Y-99257103D01*
X119576700Y-99257105D01*
X119576699Y-99257105D01*
X108151215Y-99257105D01*
X108165500Y-99166916D01*
X108165500Y-98953084D01*
X108132049Y-98741884D01*
X108099010Y-98640200D01*
X108065973Y-98538519D01*
X108065972Y-98538516D01*
X107976898Y-98363700D01*
X107968894Y-98347991D01*
X107843206Y-98174996D01*
X107692004Y-98023794D01*
X107519009Y-97898106D01*
X107375086Y-97824773D01*
X107373929Y-97823680D01*
X107372372Y-97823348D01*
X107356004Y-97807105D01*
X117726699Y-97807105D01*
X117757953Y-97964225D01*
X117757956Y-97964235D01*
X117819260Y-98112237D01*
X117819261Y-98112239D01*
X117908268Y-98245447D01*
X117908271Y-98245451D01*
X118021548Y-98358728D01*
X118021552Y-98358731D01*
X118154758Y-98447737D01*
X118154759Y-98447737D01*
X118154760Y-98447738D01*
X118154762Y-98447739D01*
X118302764Y-98509043D01*
X118302769Y-98509045D01*
X118302773Y-98509045D01*
X118302774Y-98509046D01*
X118459894Y-98540300D01*
X118459897Y-98540300D01*
X118620105Y-98540300D01*
X118737852Y-98516878D01*
X118777231Y-98509045D01*
X118925242Y-98447737D01*
X119058448Y-98358731D01*
X119171731Y-98245448D01*
X119260737Y-98112242D01*
X119322045Y-97964231D01*
X119340244Y-97872738D01*
X119353300Y-97807105D01*
X119353300Y-97646894D01*
X119322046Y-97489774D01*
X119322045Y-97489773D01*
X119322045Y-97489769D01*
X119286935Y-97405006D01*
X119260739Y-97341762D01*
X119260738Y-97341760D01*
X119220876Y-97282103D01*
X119171731Y-97208552D01*
X119171728Y-97208548D01*
X119058451Y-97095271D01*
X119058447Y-97095268D01*
X118925239Y-97006261D01*
X118925237Y-97006260D01*
X118777235Y-96944956D01*
X118777225Y-96944953D01*
X118620105Y-96913700D01*
X118620103Y-96913700D01*
X118459897Y-96913700D01*
X118459895Y-96913700D01*
X118302774Y-96944953D01*
X118302764Y-96944956D01*
X118154762Y-97006260D01*
X118154760Y-97006261D01*
X118021552Y-97095268D01*
X118021548Y-97095271D01*
X117908271Y-97208548D01*
X117908268Y-97208552D01*
X117819261Y-97341760D01*
X117819260Y-97341762D01*
X117757956Y-97489764D01*
X117757953Y-97489774D01*
X117726700Y-97646894D01*
X117726700Y-97646897D01*
X117726700Y-97807103D01*
X117726700Y-97807105D01*
X117726699Y-97807105D01*
X107356004Y-97807105D01*
X107348626Y-97799783D01*
X107324291Y-97776799D01*
X107323908Y-97775252D01*
X107322778Y-97774131D01*
X107315539Y-97741460D01*
X107307496Y-97708978D01*
X107308009Y-97707471D01*
X107307665Y-97705916D01*
X107319232Y-97674538D01*
X107330033Y-97642843D01*
X107331459Y-97641369D01*
X107331832Y-97640359D01*
X107346304Y-97626036D01*
X107356693Y-97615307D01*
X107357591Y-97614628D01*
X107438004Y-97556206D01*
X107589206Y-97405004D01*
X107714894Y-97232009D01*
X107811972Y-97041483D01*
X107878049Y-96838116D01*
X107911500Y-96626916D01*
X107911500Y-96413084D01*
X107878049Y-96201884D01*
X107845010Y-96100200D01*
X107811973Y-95998519D01*
X107811972Y-95998516D01*
X107714893Y-95807990D01*
X107610446Y-95664231D01*
X107589206Y-95634996D01*
X107461315Y-95507105D01*
X126776699Y-95507105D01*
X126807953Y-95664225D01*
X126807956Y-95664235D01*
X126869260Y-95812237D01*
X126869261Y-95812239D01*
X126958268Y-95945447D01*
X126958271Y-95945451D01*
X127071548Y-96058728D01*
X127071552Y-96058731D01*
X127204758Y-96147737D01*
X127204759Y-96147737D01*
X127204760Y-96147738D01*
X127204762Y-96147739D01*
X127335476Y-96201882D01*
X127352769Y-96209045D01*
X127352773Y-96209045D01*
X127352774Y-96209046D01*
X127509894Y-96240300D01*
X127509897Y-96240300D01*
X127670105Y-96240300D01*
X127775813Y-96219272D01*
X127827231Y-96209045D01*
X127975242Y-96147737D01*
X128108448Y-96058731D01*
X128221731Y-95945448D01*
X128310737Y-95812242D01*
X128372045Y-95664231D01*
X128403300Y-95507103D01*
X128403300Y-95346897D01*
X128403300Y-95346894D01*
X128372046Y-95189774D01*
X128372045Y-95189773D01*
X128372045Y-95189769D01*
X128352215Y-95141894D01*
X128310739Y-95041762D01*
X128310738Y-95041760D01*
X128293663Y-95016206D01*
X128221731Y-94908552D01*
X128221728Y-94908548D01*
X128108451Y-94795271D01*
X128108447Y-94795268D01*
X127975239Y-94706261D01*
X127975237Y-94706260D01*
X127827235Y-94644956D01*
X127827225Y-94644953D01*
X127670105Y-94613700D01*
X127670103Y-94613700D01*
X127509897Y-94613700D01*
X127509895Y-94613700D01*
X127352774Y-94644953D01*
X127352764Y-94644956D01*
X127204762Y-94706260D01*
X127204760Y-94706261D01*
X127071552Y-94795268D01*
X127071548Y-94795271D01*
X126958271Y-94908548D01*
X126958268Y-94908552D01*
X126869261Y-95041760D01*
X126869260Y-95041762D01*
X126807956Y-95189764D01*
X126807953Y-95189774D01*
X126776700Y-95346894D01*
X126776700Y-95346897D01*
X126776700Y-95507103D01*
X126776700Y-95507105D01*
X126776699Y-95507105D01*
X107461315Y-95507105D01*
X107438004Y-95483794D01*
X107379272Y-95441122D01*
X107358496Y-95426027D01*
X107315830Y-95370697D01*
X107309852Y-95301083D01*
X107342459Y-95239289D01*
X107375085Y-95215226D01*
X107519009Y-95141894D01*
X107692004Y-95016206D01*
X107843206Y-94865004D01*
X107968894Y-94692009D01*
X108065972Y-94501483D01*
X108132049Y-94298116D01*
X108165500Y-94086916D01*
X108165500Y-93873084D01*
X108132049Y-93661884D01*
X108065972Y-93458517D01*
X108065972Y-93458516D01*
X108039777Y-93407105D01*
X121026699Y-93407105D01*
X121057953Y-93564225D01*
X121057956Y-93564235D01*
X121119260Y-93712237D01*
X121119261Y-93712239D01*
X121208268Y-93845447D01*
X121208271Y-93845451D01*
X121321548Y-93958728D01*
X121321552Y-93958731D01*
X121454758Y-94047737D01*
X121454759Y-94047737D01*
X121454760Y-94047738D01*
X121454762Y-94047739D01*
X121602764Y-94109043D01*
X121602769Y-94109045D01*
X121602773Y-94109045D01*
X121602774Y-94109046D01*
X121759894Y-94140300D01*
X121759897Y-94140300D01*
X121920105Y-94140300D01*
X122025813Y-94119272D01*
X122077231Y-94109045D01*
X122225242Y-94047737D01*
X122358448Y-93958731D01*
X122471731Y-93845448D01*
X122560737Y-93712242D01*
X122622045Y-93564231D01*
X122653300Y-93407103D01*
X122653300Y-93246897D01*
X122653300Y-93246894D01*
X122622046Y-93089774D01*
X122622045Y-93089773D01*
X122622045Y-93089769D01*
X122578123Y-92983731D01*
X122560739Y-92941762D01*
X122560738Y-92941760D01*
X122519752Y-92880421D01*
X122471731Y-92808552D01*
X122471728Y-92808548D01*
X122358451Y-92695271D01*
X122358447Y-92695268D01*
X122252754Y-92624646D01*
X122225242Y-92606263D01*
X122225240Y-92606262D01*
X122225237Y-92606260D01*
X122094241Y-92552000D01*
X128265000Y-92552000D01*
X128265000Y-92577008D01*
X128314999Y-94601999D01*
X128314999Y-94601998D01*
X128315000Y-94602000D01*
X130465000Y-94577000D01*
X130659330Y-94058786D01*
X130701298Y-94002930D01*
X130766806Y-93978628D01*
X130777323Y-93978343D01*
X135456828Y-94050335D01*
X135523555Y-94071048D01*
X135568492Y-94124550D01*
X135578018Y-94159399D01*
X135665000Y-94877000D01*
X137290000Y-94977000D01*
X137261542Y-94109046D01*
X137190000Y-91927000D01*
X135715000Y-91876999D01*
X135653017Y-92393517D01*
X135625485Y-92457734D01*
X135567605Y-92496871D01*
X135530741Y-92502740D01*
X130853141Y-92534453D01*
X130785969Y-92515224D01*
X130739857Y-92462731D01*
X130728300Y-92410456D01*
X130728300Y-92271894D01*
X130697046Y-92114774D01*
X130697045Y-92114773D01*
X130697045Y-92114769D01*
X130635737Y-91966758D01*
X130546731Y-91833552D01*
X130467924Y-91754745D01*
X130467919Y-91754739D01*
X130433451Y-91720271D01*
X130433447Y-91720268D01*
X130300239Y-91631261D01*
X130300237Y-91631260D01*
X130152235Y-91569956D01*
X130152225Y-91569953D01*
X129995105Y-91538700D01*
X129995103Y-91538700D01*
X129834897Y-91538700D01*
X129834895Y-91538700D01*
X129677774Y-91569953D01*
X129677764Y-91569956D01*
X129529762Y-91631260D01*
X129529760Y-91631261D01*
X129396552Y-91720268D01*
X129396548Y-91720271D01*
X129283271Y-91833548D01*
X129283268Y-91833552D01*
X129194261Y-91966760D01*
X129194260Y-91966762D01*
X129132956Y-92114764D01*
X129132953Y-92114774D01*
X129101700Y-92271894D01*
X129101700Y-92423164D01*
X129082015Y-92490203D01*
X129029211Y-92535958D01*
X128978541Y-92547161D01*
X128265001Y-92551999D01*
X128265000Y-92552000D01*
X122094241Y-92552000D01*
X122077235Y-92544956D01*
X122077225Y-92544953D01*
X121920105Y-92513700D01*
X121920103Y-92513700D01*
X121759897Y-92513700D01*
X121759895Y-92513700D01*
X121602774Y-92544953D01*
X121602764Y-92544956D01*
X121454762Y-92606260D01*
X121454760Y-92606261D01*
X121321552Y-92695268D01*
X121321548Y-92695271D01*
X121208271Y-92808548D01*
X121208268Y-92808552D01*
X121119261Y-92941760D01*
X121119260Y-92941762D01*
X121057956Y-93089764D01*
X121057953Y-93089774D01*
X121026700Y-93246894D01*
X121026700Y-93246897D01*
X121026700Y-93407103D01*
X121026700Y-93407105D01*
X121026699Y-93407105D01*
X108039777Y-93407105D01*
X107983726Y-93297100D01*
X107983725Y-93297098D01*
X107968895Y-93267992D01*
X107937472Y-93224742D01*
X107843206Y-93094996D01*
X107692004Y-92943794D01*
X107591052Y-92870448D01*
X107519007Y-92818104D01*
X107366586Y-92740441D01*
X107315791Y-92692467D01*
X107298996Y-92624646D01*
X107321534Y-92558511D01*
X107349998Y-92529638D01*
X107432462Y-92469725D01*
X107582723Y-92319464D01*
X107582727Y-92319459D01*
X107707620Y-92147557D01*
X107804095Y-91958217D01*
X107869757Y-91756129D01*
X107869757Y-91756126D01*
X107880231Y-91690000D01*
X106986012Y-91690000D01*
X107018925Y-91632993D01*
X107053000Y-91505826D01*
X107053000Y-91374174D01*
X107018925Y-91247007D01*
X106986012Y-91190000D01*
X107880231Y-91190000D01*
X107869757Y-91123873D01*
X107869757Y-91123870D01*
X107804095Y-90921782D01*
X107707620Y-90732442D01*
X107616558Y-90607105D01*
X121226699Y-90607105D01*
X121257953Y-90764225D01*
X121257956Y-90764235D01*
X121319260Y-90912237D01*
X121319261Y-90912239D01*
X121408268Y-91045447D01*
X121408271Y-91045451D01*
X121521548Y-91158728D01*
X121521552Y-91158731D01*
X121654758Y-91247737D01*
X121654759Y-91247737D01*
X121654760Y-91247738D01*
X121654762Y-91247739D01*
X121802764Y-91309043D01*
X121802769Y-91309045D01*
X121802773Y-91309045D01*
X121802774Y-91309046D01*
X121959894Y-91340300D01*
X121959897Y-91340300D01*
X122120105Y-91340300D01*
X122225813Y-91319272D01*
X122277231Y-91309045D01*
X122425242Y-91247737D01*
X122448637Y-91232105D01*
X130526699Y-91232105D01*
X130557953Y-91389225D01*
X130557956Y-91389235D01*
X130619260Y-91537237D01*
X130619263Y-91537242D01*
X130708269Y-91670448D01*
X130787073Y-91749252D01*
X130787079Y-91749259D01*
X130821548Y-91783728D01*
X130821552Y-91783731D01*
X130954758Y-91872737D01*
X130954759Y-91872737D01*
X130954760Y-91872738D01*
X130954762Y-91872739D01*
X131085761Y-91927000D01*
X131102769Y-91934045D01*
X131102773Y-91934045D01*
X131102774Y-91934046D01*
X131259894Y-91965300D01*
X131259897Y-91965300D01*
X131420105Y-91965300D01*
X131547293Y-91940000D01*
X131577231Y-91934045D01*
X131725242Y-91872737D01*
X131858448Y-91783731D01*
X131971731Y-91670448D01*
X132060737Y-91537242D01*
X132122045Y-91389231D01*
X132150190Y-91247738D01*
X132153300Y-91232105D01*
X132153300Y-91071894D01*
X132122046Y-90914774D01*
X132122045Y-90914773D01*
X132122045Y-90914769D01*
X132060737Y-90766758D01*
X131971731Y-90633552D01*
X131971728Y-90633548D01*
X131858451Y-90520271D01*
X131858447Y-90520268D01*
X131725239Y-90431261D01*
X131725237Y-90431260D01*
X131577235Y-90369956D01*
X131577225Y-90369953D01*
X131420105Y-90338700D01*
X131420103Y-90338700D01*
X131259897Y-90338700D01*
X131259895Y-90338700D01*
X131102774Y-90369953D01*
X131102764Y-90369956D01*
X130954762Y-90431260D01*
X130954760Y-90431261D01*
X130821552Y-90520268D01*
X130821548Y-90520271D01*
X130708271Y-90633548D01*
X130708268Y-90633552D01*
X130619261Y-90766760D01*
X130619260Y-90766762D01*
X130557956Y-90914764D01*
X130557953Y-90914774D01*
X130526700Y-91071894D01*
X130526700Y-91071897D01*
X130526700Y-91232103D01*
X130526700Y-91232105D01*
X130526699Y-91232105D01*
X122448637Y-91232105D01*
X122558448Y-91158731D01*
X122671731Y-91045448D01*
X122760737Y-90912242D01*
X122822045Y-90764231D01*
X122853300Y-90607103D01*
X122853300Y-90446897D01*
X122853300Y-90446894D01*
X122822046Y-90289774D01*
X122822045Y-90289773D01*
X122822045Y-90289769D01*
X122786839Y-90204774D01*
X122760739Y-90141762D01*
X122760738Y-90141760D01*
X122756371Y-90135225D01*
X122671731Y-90008552D01*
X122671728Y-90008548D01*
X122558451Y-89895271D01*
X122558447Y-89895268D01*
X122425239Y-89806261D01*
X122425237Y-89806260D01*
X122277235Y-89744956D01*
X122277225Y-89744953D01*
X122120105Y-89713700D01*
X122120103Y-89713700D01*
X121959897Y-89713700D01*
X121959895Y-89713700D01*
X121802774Y-89744953D01*
X121802764Y-89744956D01*
X121654762Y-89806260D01*
X121654760Y-89806261D01*
X121521552Y-89895268D01*
X121521548Y-89895271D01*
X121408271Y-90008548D01*
X121408268Y-90008552D01*
X121319261Y-90141760D01*
X121319260Y-90141762D01*
X121257956Y-90289764D01*
X121257953Y-90289774D01*
X121226700Y-90446894D01*
X121226700Y-90446897D01*
X121226700Y-90607103D01*
X121226700Y-90607105D01*
X121226699Y-90607105D01*
X107616558Y-90607105D01*
X107582727Y-90560540D01*
X107582723Y-90560535D01*
X107432464Y-90410276D01*
X107432459Y-90410272D01*
X107349997Y-90350360D01*
X107307331Y-90295030D01*
X107301352Y-90225417D01*
X107333957Y-90163622D01*
X107366587Y-90139557D01*
X107375089Y-90135225D01*
X107519009Y-90061894D01*
X107692004Y-89936206D01*
X107843206Y-89785004D01*
X107968894Y-89612009D01*
X108065972Y-89421483D01*
X108132049Y-89218116D01*
X108165500Y-89006916D01*
X108165500Y-88793084D01*
X108132049Y-88581884D01*
X108099010Y-88480200D01*
X108065973Y-88378519D01*
X108065972Y-88378516D01*
X107968893Y-88187990D01*
X107843206Y-88014996D01*
X107692004Y-87863794D01*
X107519009Y-87738106D01*
X107375086Y-87664773D01*
X107324291Y-87616799D01*
X107307496Y-87548978D01*
X107330033Y-87482843D01*
X107358497Y-87453971D01*
X107364447Y-87449648D01*
X107438004Y-87396206D01*
X107589206Y-87245004D01*
X107714894Y-87072009D01*
X107811972Y-86881483D01*
X107878049Y-86678116D01*
X107911500Y-86466916D01*
X107911500Y-86253084D01*
X107878049Y-86041884D01*
X107831214Y-85897738D01*
X107811973Y-85838519D01*
X107811972Y-85838516D01*
X107762507Y-85741438D01*
X107714894Y-85647991D01*
X107589206Y-85474996D01*
X107438004Y-85323794D01*
X107364011Y-85270035D01*
X107358496Y-85266028D01*
X107356815Y-85263848D01*
X107354267Y-85262814D01*
X107350242Y-85257105D01*
X115176699Y-85257105D01*
X115207953Y-85414225D01*
X115207956Y-85414235D01*
X115269260Y-85562237D01*
X115269261Y-85562239D01*
X115358268Y-85695447D01*
X115358271Y-85695451D01*
X115471548Y-85808728D01*
X115471552Y-85808731D01*
X115604758Y-85897737D01*
X115604759Y-85897737D01*
X115604760Y-85897738D01*
X115604762Y-85897739D01*
X115752764Y-85959043D01*
X115752769Y-85959045D01*
X115789918Y-85966434D01*
X115809697Y-85970369D01*
X115871608Y-86002753D01*
X115906182Y-86063469D01*
X115902443Y-86133239D01*
X115861577Y-86189911D01*
X115809699Y-86213603D01*
X115777773Y-86219953D01*
X115777764Y-86219956D01*
X115629762Y-86281260D01*
X115629760Y-86281261D01*
X115496552Y-86370268D01*
X115496548Y-86370271D01*
X115383271Y-86483548D01*
X115383268Y-86483552D01*
X115294261Y-86616760D01*
X115294260Y-86616762D01*
X115232956Y-86764764D01*
X115232953Y-86764774D01*
X115201700Y-86921894D01*
X115201700Y-86921897D01*
X115201700Y-87082103D01*
X115201700Y-87082105D01*
X115201699Y-87082105D01*
X115232953Y-87239225D01*
X115232956Y-87239235D01*
X115294260Y-87387237D01*
X115294261Y-87387239D01*
X115383268Y-87520447D01*
X115383271Y-87520451D01*
X115496548Y-87633728D01*
X115496552Y-87633731D01*
X115629758Y-87722737D01*
X115629759Y-87722737D01*
X115629760Y-87722738D01*
X115629762Y-87722739D01*
X115761135Y-87777155D01*
X115777769Y-87784045D01*
X115777773Y-87784045D01*
X115777774Y-87784046D01*
X115934894Y-87815300D01*
X115934897Y-87815300D01*
X116095105Y-87815300D01*
X116200813Y-87794272D01*
X116252231Y-87784045D01*
X116400242Y-87722737D01*
X116533448Y-87633731D01*
X116646731Y-87520448D01*
X116735737Y-87387242D01*
X116797045Y-87239231D01*
X116817968Y-87134045D01*
X116828300Y-87082105D01*
X116828300Y-86921894D01*
X116797046Y-86764774D01*
X116797045Y-86764773D01*
X116797045Y-86764769D01*
X116793871Y-86757107D01*
X116793870Y-86757105D01*
X121201699Y-86757105D01*
X121232953Y-86914225D01*
X121232956Y-86914235D01*
X121294260Y-87062237D01*
X121294261Y-87062239D01*
X121383268Y-87195447D01*
X121383271Y-87195451D01*
X121496548Y-87308728D01*
X121496552Y-87308731D01*
X121629758Y-87397737D01*
X121629759Y-87397737D01*
X121629760Y-87397738D01*
X121629762Y-87397739D01*
X121755090Y-87449651D01*
X121777769Y-87459045D01*
X121777773Y-87459045D01*
X121777774Y-87459046D01*
X121934894Y-87490300D01*
X121934897Y-87490300D01*
X122095105Y-87490300D01*
X122200813Y-87469272D01*
X122252231Y-87459045D01*
X122400242Y-87397737D01*
X122533448Y-87308731D01*
X122646731Y-87195448D01*
X122735737Y-87062242D01*
X122756836Y-87011305D01*
X132506899Y-87011305D01*
X132538153Y-87168425D01*
X132538156Y-87168435D01*
X132599460Y-87316437D01*
X132599461Y-87316439D01*
X132688468Y-87449647D01*
X132688471Y-87449651D01*
X132801748Y-87562928D01*
X132801752Y-87562931D01*
X132934958Y-87651937D01*
X132934959Y-87651937D01*
X132934960Y-87651938D01*
X132934962Y-87651939D01*
X133077597Y-87711020D01*
X133082969Y-87713245D01*
X133173174Y-87731188D01*
X133235085Y-87763572D01*
X133269659Y-87824288D01*
X133265920Y-87894057D01*
X133225054Y-87950730D01*
X133217875Y-87955907D01*
X133121548Y-88020271D01*
X133008271Y-88133548D01*
X133008268Y-88133552D01*
X132919261Y-88266760D01*
X132919260Y-88266762D01*
X132857956Y-88414764D01*
X132857953Y-88414774D01*
X132826700Y-88571894D01*
X132826700Y-88571897D01*
X132826700Y-88732103D01*
X132826700Y-88732105D01*
X132826699Y-88732105D01*
X132857953Y-88889225D01*
X132857956Y-88889235D01*
X132919260Y-89037237D01*
X132919261Y-89037239D01*
X133008268Y-89170447D01*
X133008271Y-89170451D01*
X133121548Y-89283728D01*
X133121552Y-89283731D01*
X133254758Y-89372737D01*
X133254759Y-89372737D01*
X133254760Y-89372738D01*
X133254762Y-89372739D01*
X133402764Y-89434043D01*
X133402769Y-89434045D01*
X133402773Y-89434045D01*
X133402774Y-89434046D01*
X133559894Y-89465300D01*
X133559897Y-89465300D01*
X133720105Y-89465300D01*
X133825813Y-89444272D01*
X133877231Y-89434045D01*
X134025242Y-89372737D01*
X134158448Y-89283731D01*
X134271731Y-89170448D01*
X134360737Y-89037242D01*
X134422045Y-88889231D01*
X134453300Y-88732103D01*
X134453300Y-88571897D01*
X134453300Y-88571894D01*
X134422046Y-88414774D01*
X134422045Y-88414773D01*
X134422045Y-88414769D01*
X134360737Y-88266758D01*
X134271731Y-88133552D01*
X134271728Y-88133548D01*
X134158451Y-88020271D01*
X134158447Y-88020268D01*
X134025239Y-87931261D01*
X134025237Y-87931260D01*
X133877235Y-87869956D01*
X133877225Y-87869953D01*
X133787024Y-87852011D01*
X133725113Y-87819626D01*
X133690539Y-87758910D01*
X133694279Y-87689141D01*
X133735146Y-87632469D01*
X133742317Y-87627297D01*
X133838648Y-87562931D01*
X133951931Y-87449648D01*
X134040937Y-87316442D01*
X134102245Y-87168431D01*
X134112472Y-87117013D01*
X134133500Y-87011305D01*
X134133500Y-87007105D01*
X135801699Y-87007105D01*
X135832953Y-87164225D01*
X135832956Y-87164235D01*
X135894260Y-87312237D01*
X135894261Y-87312239D01*
X135983268Y-87445447D01*
X135983271Y-87445451D01*
X136096548Y-87558728D01*
X136096552Y-87558731D01*
X136229758Y-87647737D01*
X136229759Y-87647737D01*
X136229760Y-87647738D01*
X136229762Y-87647739D01*
X136302706Y-87677953D01*
X136377769Y-87709045D01*
X136377773Y-87709045D01*
X136377774Y-87709046D01*
X136534894Y-87740300D01*
X136534897Y-87740300D01*
X136695105Y-87740300D01*
X136831126Y-87713243D01*
X136852231Y-87709045D01*
X137000242Y-87647737D01*
X137133448Y-87558731D01*
X137246731Y-87445448D01*
X137335737Y-87312242D01*
X137397045Y-87164231D01*
X137413381Y-87082105D01*
X137428300Y-87007105D01*
X137428300Y-86846894D01*
X137397046Y-86689774D01*
X137397045Y-86689773D01*
X137397045Y-86689769D01*
X137366803Y-86616758D01*
X137335739Y-86541762D01*
X137335738Y-86541760D01*
X137262469Y-86432105D01*
X142426699Y-86432105D01*
X142457953Y-86589225D01*
X142457956Y-86589235D01*
X142519260Y-86737237D01*
X142519261Y-86737239D01*
X142608268Y-86870447D01*
X142608271Y-86870451D01*
X142721548Y-86983728D01*
X142721552Y-86983731D01*
X142854758Y-87072737D01*
X142854759Y-87072737D01*
X142854760Y-87072738D01*
X142854762Y-87072739D01*
X142877374Y-87082105D01*
X143002769Y-87134045D01*
X143002773Y-87134045D01*
X143002774Y-87134046D01*
X143159894Y-87165300D01*
X143159897Y-87165300D01*
X143320105Y-87165300D01*
X143425813Y-87144272D01*
X143477231Y-87134045D01*
X143625242Y-87072737D01*
X143758448Y-86983731D01*
X143871731Y-86870448D01*
X143960737Y-86737242D01*
X144022045Y-86589231D01*
X144046375Y-86466916D01*
X144053300Y-86432105D01*
X144053300Y-86271894D01*
X144022046Y-86114774D01*
X144022045Y-86114773D01*
X144022045Y-86114769D01*
X143991855Y-86041884D01*
X143960739Y-85966762D01*
X143960738Y-85966760D01*
X143955582Y-85959044D01*
X143871731Y-85833552D01*
X143871728Y-85833548D01*
X143758451Y-85720271D01*
X143758447Y-85720268D01*
X143625239Y-85631261D01*
X143625237Y-85631260D01*
X143477235Y-85569956D01*
X143477225Y-85569953D01*
X143320105Y-85538700D01*
X143320103Y-85538700D01*
X143159897Y-85538700D01*
X143159895Y-85538700D01*
X143002774Y-85569953D01*
X143002764Y-85569956D01*
X142854762Y-85631260D01*
X142854760Y-85631261D01*
X142721552Y-85720268D01*
X142721548Y-85720271D01*
X142608271Y-85833548D01*
X142608268Y-85833552D01*
X142519261Y-85966760D01*
X142519260Y-85966762D01*
X142457956Y-86114764D01*
X142457953Y-86114774D01*
X142426700Y-86271894D01*
X142426700Y-86271897D01*
X142426700Y-86432103D01*
X142426700Y-86432105D01*
X142426699Y-86432105D01*
X137262469Y-86432105D01*
X137246731Y-86408552D01*
X137246728Y-86408548D01*
X137133451Y-86295271D01*
X137133447Y-86295268D01*
X137000239Y-86206261D01*
X137000237Y-86206260D01*
X136852235Y-86144956D01*
X136852225Y-86144953D01*
X136695105Y-86113700D01*
X136695103Y-86113700D01*
X136534897Y-86113700D01*
X136534895Y-86113700D01*
X136377774Y-86144953D01*
X136377764Y-86144956D01*
X136229762Y-86206260D01*
X136229760Y-86206261D01*
X136096552Y-86295268D01*
X136096548Y-86295271D01*
X135983271Y-86408548D01*
X135983268Y-86408552D01*
X135894261Y-86541760D01*
X135894260Y-86541762D01*
X135832956Y-86689764D01*
X135832953Y-86689774D01*
X135801700Y-86846894D01*
X135801700Y-86846897D01*
X135801700Y-87007103D01*
X135801700Y-87007105D01*
X135801699Y-87007105D01*
X134133500Y-87007105D01*
X134133500Y-86851101D01*
X134133500Y-86851097D01*
X134102245Y-86693969D01*
X134095679Y-86678117D01*
X134040939Y-86545962D01*
X134040938Y-86545960D01*
X134038130Y-86541758D01*
X133951931Y-86412752D01*
X133951928Y-86412748D01*
X133838651Y-86299471D01*
X133838647Y-86299468D01*
X133705439Y-86210461D01*
X133705437Y-86210460D01*
X133557435Y-86149156D01*
X133557425Y-86149153D01*
X133400305Y-86117900D01*
X133400303Y-86117900D01*
X133240097Y-86117900D01*
X133240095Y-86117900D01*
X133082974Y-86149153D01*
X133082964Y-86149156D01*
X132934962Y-86210460D01*
X132934960Y-86210461D01*
X132801752Y-86299468D01*
X132801748Y-86299471D01*
X132688471Y-86412748D01*
X132688468Y-86412752D01*
X132599461Y-86545960D01*
X132599460Y-86545962D01*
X132538156Y-86693964D01*
X132538153Y-86693974D01*
X132506900Y-86851094D01*
X132506900Y-86851097D01*
X132506900Y-87011303D01*
X132506900Y-87011305D01*
X132506899Y-87011305D01*
X122756836Y-87011305D01*
X122797045Y-86914231D01*
X122803560Y-86881480D01*
X122815628Y-86820813D01*
X122815628Y-86820812D01*
X122828299Y-86757107D01*
X122828300Y-86757105D01*
X122828300Y-86596894D01*
X122797046Y-86439774D01*
X122797045Y-86439773D01*
X122797045Y-86439769D01*
X122797043Y-86439764D01*
X122735739Y-86291762D01*
X122735738Y-86291760D01*
X122709895Y-86253084D01*
X122646731Y-86158552D01*
X122646728Y-86158548D01*
X122533451Y-86045271D01*
X122533447Y-86045268D01*
X122400239Y-85956261D01*
X122400237Y-85956260D01*
X122252235Y-85894956D01*
X122252225Y-85894953D01*
X122095105Y-85863700D01*
X122095103Y-85863700D01*
X121934897Y-85863700D01*
X121934895Y-85863700D01*
X121777774Y-85894953D01*
X121777764Y-85894956D01*
X121629762Y-85956260D01*
X121629760Y-85956261D01*
X121496552Y-86045268D01*
X121496548Y-86045271D01*
X121383271Y-86158548D01*
X121383268Y-86158552D01*
X121294261Y-86291760D01*
X121294260Y-86291762D01*
X121232956Y-86439764D01*
X121232953Y-86439774D01*
X121201700Y-86596894D01*
X121201700Y-86596897D01*
X121201700Y-86757103D01*
X121201700Y-86757105D01*
X121201699Y-86757105D01*
X116793870Y-86757105D01*
X116744659Y-86638297D01*
X116744643Y-86638259D01*
X116735737Y-86616758D01*
X116646731Y-86483552D01*
X116646728Y-86483548D01*
X116533451Y-86370271D01*
X116533447Y-86370268D01*
X116400239Y-86281261D01*
X116400237Y-86281260D01*
X116252235Y-86219956D01*
X116252225Y-86219953D01*
X116195301Y-86208630D01*
X116133390Y-86176244D01*
X116098816Y-86115528D01*
X116102557Y-86045759D01*
X116143424Y-85989087D01*
X116195301Y-85965396D01*
X116227231Y-85959045D01*
X116375242Y-85897737D01*
X116508448Y-85808731D01*
X116621731Y-85695448D01*
X116710737Y-85562242D01*
X116772045Y-85414231D01*
X116792073Y-85313544D01*
X116803300Y-85257105D01*
X116803300Y-85096894D01*
X116779909Y-84979305D01*
X128595299Y-84979305D01*
X128626553Y-85136425D01*
X128626556Y-85136435D01*
X128687860Y-85284437D01*
X128687861Y-85284439D01*
X128776868Y-85417647D01*
X128776871Y-85417651D01*
X128890148Y-85530928D01*
X128890152Y-85530931D01*
X129023358Y-85619937D01*
X129023359Y-85619937D01*
X129023360Y-85619938D01*
X129023362Y-85619939D01*
X129171364Y-85681243D01*
X129171369Y-85681245D01*
X129171373Y-85681245D01*
X129171374Y-85681246D01*
X129328494Y-85712500D01*
X129328497Y-85712500D01*
X129488705Y-85712500D01*
X129594413Y-85691472D01*
X129645831Y-85681245D01*
X129793842Y-85619937D01*
X129927048Y-85530931D01*
X130040331Y-85417648D01*
X130079954Y-85358348D01*
X130133563Y-85313544D01*
X130202888Y-85304835D01*
X130265916Y-85334989D01*
X130297615Y-85379785D01*
X130313459Y-85418035D01*
X130313461Y-85418039D01*
X130402468Y-85551247D01*
X130402471Y-85551251D01*
X130515748Y-85664528D01*
X130515752Y-85664531D01*
X130648958Y-85753537D01*
X130648959Y-85753537D01*
X130648960Y-85753538D01*
X130648962Y-85753539D01*
X130782201Y-85808728D01*
X130796969Y-85814845D01*
X130796973Y-85814845D01*
X130796974Y-85814846D01*
X130954094Y-85846100D01*
X130954097Y-85846100D01*
X131114305Y-85846100D01*
X131220013Y-85825072D01*
X131271431Y-85814845D01*
X131419442Y-85753537D01*
X131552648Y-85664531D01*
X131665931Y-85551248D01*
X131754937Y-85418042D01*
X131816245Y-85270031D01*
X131830552Y-85198106D01*
X131847500Y-85112905D01*
X131847500Y-84952694D01*
X131816246Y-84795574D01*
X131816245Y-84795573D01*
X131816245Y-84795569D01*
X131814667Y-84791760D01*
X131754939Y-84647562D01*
X131754938Y-84647560D01*
X131748040Y-84637237D01*
X131665931Y-84514352D01*
X131665928Y-84514348D01*
X131552651Y-84401071D01*
X131552647Y-84401068D01*
X131449437Y-84332105D01*
X136901699Y-84332105D01*
X136932953Y-84489225D01*
X136932956Y-84489235D01*
X136994260Y-84637237D01*
X136994261Y-84637239D01*
X137083268Y-84770447D01*
X137083271Y-84770451D01*
X137196548Y-84883728D01*
X137196552Y-84883731D01*
X137329758Y-84972737D01*
X137329759Y-84972737D01*
X137329760Y-84972738D01*
X137329762Y-84972739D01*
X137477764Y-85034043D01*
X137477769Y-85034045D01*
X137477773Y-85034045D01*
X137477774Y-85034046D01*
X137634894Y-85065300D01*
X137634897Y-85065300D01*
X137795105Y-85065300D01*
X137900813Y-85044272D01*
X137952231Y-85034045D01*
X138100242Y-84972737D01*
X138233448Y-84883731D01*
X138346731Y-84770448D01*
X138435737Y-84637242D01*
X138497045Y-84489231D01*
X138522015Y-84363700D01*
X138528300Y-84332105D01*
X138528300Y-84171894D01*
X138497046Y-84014774D01*
X138497045Y-84014773D01*
X138497045Y-84014769D01*
X138435737Y-83866758D01*
X138346731Y-83733552D01*
X138346728Y-83733548D01*
X138233451Y-83620271D01*
X138233447Y-83620268D01*
X138100239Y-83531261D01*
X138100237Y-83531260D01*
X137952235Y-83469956D01*
X137952225Y-83469953D01*
X137795105Y-83438700D01*
X137795103Y-83438700D01*
X137634897Y-83438700D01*
X137634895Y-83438700D01*
X137477774Y-83469953D01*
X137477764Y-83469956D01*
X137329762Y-83531260D01*
X137329760Y-83531261D01*
X137196552Y-83620268D01*
X137196548Y-83620271D01*
X137083271Y-83733548D01*
X137083268Y-83733552D01*
X136994261Y-83866760D01*
X136994260Y-83866762D01*
X136932956Y-84014764D01*
X136932953Y-84014774D01*
X136901700Y-84171894D01*
X136901700Y-84171897D01*
X136901700Y-84332103D01*
X136901700Y-84332105D01*
X136901699Y-84332105D01*
X131449437Y-84332105D01*
X131419439Y-84312061D01*
X131419437Y-84312060D01*
X131342919Y-84280366D01*
X131342918Y-84280366D01*
X131271431Y-84250755D01*
X131271425Y-84250753D01*
X131114305Y-84219500D01*
X131114303Y-84219500D01*
X130954097Y-84219500D01*
X130954095Y-84219500D01*
X130796974Y-84250753D01*
X130796964Y-84250756D01*
X130648962Y-84312060D01*
X130648960Y-84312061D01*
X130515752Y-84401068D01*
X130515748Y-84401071D01*
X130402471Y-84514348D01*
X130402468Y-84514352D01*
X130362846Y-84573651D01*
X130309234Y-84618456D01*
X130239909Y-84627163D01*
X130176881Y-84597008D01*
X130145183Y-84552213D01*
X130129338Y-84513960D01*
X130112817Y-84489235D01*
X130040331Y-84380752D01*
X130040328Y-84380748D01*
X129927051Y-84267471D01*
X129927047Y-84267468D01*
X129793839Y-84178461D01*
X129793837Y-84178460D01*
X129645835Y-84117156D01*
X129645825Y-84117153D01*
X129488705Y-84085900D01*
X129488703Y-84085900D01*
X129328497Y-84085900D01*
X129328495Y-84085900D01*
X129171374Y-84117153D01*
X129171364Y-84117156D01*
X129023362Y-84178460D01*
X129023360Y-84178461D01*
X128890152Y-84267468D01*
X128890148Y-84267471D01*
X128776871Y-84380748D01*
X128776868Y-84380752D01*
X128687861Y-84513960D01*
X128687860Y-84513962D01*
X128626556Y-84661964D01*
X128626553Y-84661974D01*
X128595300Y-84819094D01*
X128595300Y-84819097D01*
X128595300Y-84979303D01*
X128595300Y-84979305D01*
X128595299Y-84979305D01*
X116779909Y-84979305D01*
X116772046Y-84939774D01*
X116772045Y-84939773D01*
X116772045Y-84939769D01*
X116712316Y-84795569D01*
X116710739Y-84791762D01*
X116710738Y-84791760D01*
X116621731Y-84658552D01*
X116621728Y-84658548D01*
X116508451Y-84545271D01*
X116508447Y-84545268D01*
X116375239Y-84456261D01*
X116375237Y-84456260D01*
X116227235Y-84394956D01*
X116227225Y-84394953D01*
X116070105Y-84363700D01*
X116070103Y-84363700D01*
X115909897Y-84363700D01*
X115909895Y-84363700D01*
X115752774Y-84394953D01*
X115752764Y-84394956D01*
X115604762Y-84456260D01*
X115604760Y-84456261D01*
X115471552Y-84545268D01*
X115471548Y-84545271D01*
X115358271Y-84658548D01*
X115358268Y-84658552D01*
X115269261Y-84791760D01*
X115269260Y-84791762D01*
X115207956Y-84939764D01*
X115207953Y-84939774D01*
X115176700Y-85096894D01*
X115176700Y-85096897D01*
X115176700Y-85257103D01*
X115176700Y-85257105D01*
X115176699Y-85257105D01*
X107350242Y-85257105D01*
X107335605Y-85236341D01*
X107315831Y-85210697D01*
X107315595Y-85207957D01*
X107314010Y-85205708D01*
X107312622Y-85173344D01*
X107309852Y-85141084D01*
X107311135Y-85138650D01*
X107311018Y-85135902D01*
X107327343Y-85107934D01*
X107342458Y-85079289D01*
X107345278Y-85077208D01*
X107346241Y-85075560D01*
X107375085Y-85055226D01*
X107519009Y-84981894D01*
X107692004Y-84856206D01*
X107843206Y-84705004D01*
X107968894Y-84532009D01*
X108065972Y-84341483D01*
X108132049Y-84138116D01*
X108165500Y-83926916D01*
X108165500Y-83713084D01*
X108132049Y-83501884D01*
X108065972Y-83298517D01*
X108065972Y-83298516D01*
X107968893Y-83107990D01*
X107843206Y-82934996D01*
X107692004Y-82783794D01*
X107519009Y-82658106D01*
X107375086Y-82584773D01*
X107324291Y-82536799D01*
X107307496Y-82468978D01*
X107330033Y-82402843D01*
X107358497Y-82373971D01*
X107363346Y-82370448D01*
X107438004Y-82316206D01*
X107589206Y-82165004D01*
X107714894Y-81992009D01*
X107745417Y-81932105D01*
X121426699Y-81932105D01*
X121457953Y-82089225D01*
X121457956Y-82089235D01*
X121519260Y-82237237D01*
X121519261Y-82237239D01*
X121608268Y-82370447D01*
X121608271Y-82370451D01*
X121721548Y-82483728D01*
X121721552Y-82483731D01*
X121854758Y-82572737D01*
X121854759Y-82572737D01*
X121854760Y-82572738D01*
X121854762Y-82572739D01*
X121995466Y-82631020D01*
X122002769Y-82634045D01*
X122002773Y-82634045D01*
X122002774Y-82634046D01*
X122159894Y-82665300D01*
X122159897Y-82665300D01*
X122320105Y-82665300D01*
X122425813Y-82644272D01*
X122477231Y-82634045D01*
X122625242Y-82572737D01*
X122758448Y-82483731D01*
X122871731Y-82370448D01*
X122960737Y-82237242D01*
X123022045Y-82089231D01*
X123053300Y-81932103D01*
X123053300Y-81771897D01*
X123053300Y-81771894D01*
X123022046Y-81614774D01*
X123022045Y-81614773D01*
X123022045Y-81614769D01*
X122960737Y-81466758D01*
X122871731Y-81333552D01*
X122871728Y-81333548D01*
X122758451Y-81220271D01*
X122758447Y-81220268D01*
X122687831Y-81173084D01*
X148374500Y-81173084D01*
X148374500Y-81386915D01*
X148407951Y-81598117D01*
X148474026Y-81801480D01*
X148474027Y-81801483D01*
X148540582Y-81932103D01*
X148571106Y-81992009D01*
X148696794Y-82165004D01*
X148847996Y-82316206D01*
X149020991Y-82441894D01*
X149164913Y-82515226D01*
X149215708Y-82563199D01*
X149232503Y-82631020D01*
X149209966Y-82697155D01*
X149181504Y-82726027D01*
X149101996Y-82783793D01*
X148950796Y-82934993D01*
X148825106Y-83107990D01*
X148728027Y-83298516D01*
X148728026Y-83298519D01*
X148661951Y-83501882D01*
X148628500Y-83713084D01*
X148628500Y-83926915D01*
X148661951Y-84138117D01*
X148728026Y-84341480D01*
X148728027Y-84341483D01*
X148816107Y-84514348D01*
X148825106Y-84532009D01*
X148950794Y-84705004D01*
X149101996Y-84856206D01*
X149181503Y-84913971D01*
X149224168Y-84969301D01*
X149230147Y-85038915D01*
X149197541Y-85100710D01*
X149164912Y-85124774D01*
X149020990Y-85198106D01*
X148847993Y-85323796D01*
X148696796Y-85474993D01*
X148571106Y-85647990D01*
X148474027Y-85838516D01*
X148474026Y-85838519D01*
X148407951Y-86041882D01*
X148374500Y-86253084D01*
X148374500Y-86466915D01*
X148407951Y-86678117D01*
X148474026Y-86881480D01*
X148474027Y-86881483D01*
X148566127Y-87062237D01*
X148571106Y-87072009D01*
X148696794Y-87245004D01*
X148847996Y-87396206D01*
X149020991Y-87521894D01*
X149164913Y-87595226D01*
X149215708Y-87643199D01*
X149232503Y-87711020D01*
X149209966Y-87777155D01*
X149181504Y-87806027D01*
X149101996Y-87863793D01*
X148950796Y-88014993D01*
X148825106Y-88187990D01*
X148728027Y-88378516D01*
X148728026Y-88378519D01*
X148661951Y-88581882D01*
X148638158Y-88732105D01*
X148628500Y-88793084D01*
X148628500Y-89006916D01*
X148633303Y-89037239D01*
X148661951Y-89218117D01*
X148728026Y-89421480D01*
X148728027Y-89421483D01*
X148825106Y-89612009D01*
X148950794Y-89785004D01*
X149101996Y-89936206D01*
X149181503Y-89993971D01*
X149224168Y-90049301D01*
X149230147Y-90118915D01*
X149197541Y-90180710D01*
X149164912Y-90204774D01*
X149020990Y-90278106D01*
X148847993Y-90403796D01*
X148696796Y-90554993D01*
X148571106Y-90727990D01*
X148474027Y-90918516D01*
X148474026Y-90918519D01*
X148407951Y-91121882D01*
X148374500Y-91333084D01*
X148374500Y-91546915D01*
X148407951Y-91758117D01*
X148474026Y-91961480D01*
X148474027Y-91961483D01*
X148552131Y-92114769D01*
X148571106Y-92152009D01*
X148696794Y-92325004D01*
X148847996Y-92476206D01*
X149020991Y-92601894D01*
X149164913Y-92675226D01*
X149215708Y-92723199D01*
X149232503Y-92791020D01*
X149209966Y-92857155D01*
X149181504Y-92886027D01*
X149101996Y-92943793D01*
X148950796Y-93094993D01*
X148825106Y-93267990D01*
X148728027Y-93458516D01*
X148728026Y-93458519D01*
X148661951Y-93661882D01*
X148628500Y-93873084D01*
X148628500Y-94086915D01*
X148661951Y-94298117D01*
X148728026Y-94501480D01*
X148728027Y-94501483D01*
X148801131Y-94644955D01*
X148825106Y-94692009D01*
X148950794Y-94865004D01*
X149101996Y-95016206D01*
X149181503Y-95073971D01*
X149224168Y-95129301D01*
X149230147Y-95198915D01*
X149197541Y-95260710D01*
X149164912Y-95284774D01*
X149020990Y-95358106D01*
X148847993Y-95483796D01*
X148696796Y-95634993D01*
X148571106Y-95807990D01*
X148474027Y-95998516D01*
X148474026Y-95998519D01*
X148407951Y-96201882D01*
X148401866Y-96240300D01*
X148374500Y-96413084D01*
X148374500Y-96626916D01*
X148375551Y-96633552D01*
X148407951Y-96838117D01*
X148474026Y-97041480D01*
X148474027Y-97041483D01*
X148559152Y-97208548D01*
X148571106Y-97232009D01*
X148696794Y-97405004D01*
X148847996Y-97556206D01*
X149020991Y-97681894D01*
X149164913Y-97755226D01*
X149215708Y-97803199D01*
X149232503Y-97871020D01*
X149209966Y-97937155D01*
X149181504Y-97966027D01*
X149101996Y-98023793D01*
X148950796Y-98174993D01*
X148825106Y-98347990D01*
X148728027Y-98538516D01*
X148728026Y-98538519D01*
X148661951Y-98741882D01*
X148628500Y-98953084D01*
X148628500Y-99166915D01*
X148661951Y-99378117D01*
X148728026Y-99581480D01*
X148728027Y-99581483D01*
X148804853Y-99732260D01*
X148825106Y-99772009D01*
X148950794Y-99945004D01*
X149101996Y-100096206D01*
X149181503Y-100153971D01*
X149224168Y-100209301D01*
X149230147Y-100278915D01*
X149197541Y-100340710D01*
X149164912Y-100364774D01*
X149020990Y-100438106D01*
X148847993Y-100563796D01*
X148696796Y-100714993D01*
X148571106Y-100887990D01*
X148474027Y-101078516D01*
X148474026Y-101078519D01*
X148407951Y-101281882D01*
X148374500Y-101493084D01*
X148374500Y-101706915D01*
X148407951Y-101918117D01*
X148474026Y-102121480D01*
X148474027Y-102121483D01*
X148571106Y-102312009D01*
X148696794Y-102485004D01*
X148847996Y-102636206D01*
X149020991Y-102761894D01*
X149164913Y-102835226D01*
X149215708Y-102883199D01*
X149232503Y-102951020D01*
X149209966Y-103017155D01*
X149181504Y-103046027D01*
X149101996Y-103103793D01*
X148950796Y-103254993D01*
X148825106Y-103427990D01*
X148728027Y-103618516D01*
X148728026Y-103618519D01*
X148661951Y-103821882D01*
X148661951Y-103821884D01*
X148628500Y-104033084D01*
X148628500Y-104246916D01*
X148645225Y-104352516D01*
X148661951Y-104458117D01*
X148728026Y-104661480D01*
X148728027Y-104661483D01*
X148802763Y-104808158D01*
X148825106Y-104852009D01*
X148950794Y-105025004D01*
X149101996Y-105176206D01*
X149181503Y-105233971D01*
X149224168Y-105289301D01*
X149230147Y-105358915D01*
X149197541Y-105420710D01*
X149164912Y-105444774D01*
X149020990Y-105518106D01*
X148847993Y-105643796D01*
X148696796Y-105794993D01*
X148571106Y-105967990D01*
X148474027Y-106158516D01*
X148474026Y-106158519D01*
X148407951Y-106361882D01*
X148374500Y-106573084D01*
X148374500Y-106786915D01*
X148407951Y-106998117D01*
X148474026Y-107201480D01*
X148474027Y-107201483D01*
X148541410Y-107333728D01*
X148571106Y-107392009D01*
X148696794Y-107565004D01*
X148847996Y-107716206D01*
X149020991Y-107841894D01*
X149164913Y-107915226D01*
X149215708Y-107963199D01*
X149232503Y-108031020D01*
X149209966Y-108097155D01*
X149181504Y-108126027D01*
X149101996Y-108183793D01*
X148950796Y-108334993D01*
X148825106Y-108507990D01*
X148728027Y-108698516D01*
X148728026Y-108698519D01*
X148661951Y-108901882D01*
X148628500Y-109113084D01*
X148628500Y-109326915D01*
X148661951Y-109538117D01*
X148728026Y-109741480D01*
X148728027Y-109741483D01*
X148825106Y-109932009D01*
X148950794Y-110105004D01*
X149101996Y-110256206D01*
X149181503Y-110313971D01*
X149224168Y-110369301D01*
X149230147Y-110438915D01*
X149197541Y-110500710D01*
X149164912Y-110524774D01*
X149020990Y-110598106D01*
X148847993Y-110723796D01*
X148696796Y-110874993D01*
X148571106Y-111047990D01*
X148474027Y-111238516D01*
X148474026Y-111238519D01*
X148407951Y-111441882D01*
X148374500Y-111653084D01*
X148374500Y-111866915D01*
X148407951Y-112078117D01*
X148474026Y-112281480D01*
X148474027Y-112281483D01*
X148571106Y-112472009D01*
X148696794Y-112645004D01*
X148847996Y-112796206D01*
X149020991Y-112921894D01*
X149164913Y-112995226D01*
X149215708Y-113043199D01*
X149232503Y-113111020D01*
X149209966Y-113177155D01*
X149181504Y-113206027D01*
X149101996Y-113263793D01*
X148950796Y-113414993D01*
X148825106Y-113587990D01*
X148728027Y-113778516D01*
X148728026Y-113778519D01*
X148661951Y-113981882D01*
X148628500Y-114193084D01*
X148628500Y-114406915D01*
X148661951Y-114618117D01*
X148728026Y-114821480D01*
X148728027Y-114821483D01*
X148825106Y-115012009D01*
X148950794Y-115185004D01*
X149101996Y-115336206D01*
X149181503Y-115393971D01*
X149224168Y-115449301D01*
X149230147Y-115518915D01*
X149197541Y-115580710D01*
X149164912Y-115604774D01*
X149020990Y-115678106D01*
X148847993Y-115803796D01*
X148696796Y-115954993D01*
X148571106Y-116127990D01*
X148474027Y-116318516D01*
X148474026Y-116318519D01*
X148407951Y-116521882D01*
X148374500Y-116733084D01*
X148374500Y-116946915D01*
X148407951Y-117158117D01*
X148474026Y-117361480D01*
X148474027Y-117361483D01*
X148571106Y-117552009D01*
X148696794Y-117725004D01*
X148847996Y-117876206D01*
X149020991Y-118001894D01*
X149114438Y-118049507D01*
X149211516Y-118098972D01*
X149211519Y-118098973D01*
X149313200Y-118132010D01*
X149414884Y-118165049D01*
X149626084Y-118198500D01*
X149626085Y-118198500D01*
X149839915Y-118198500D01*
X149839916Y-118198500D01*
X150051116Y-118165049D01*
X150254483Y-118098972D01*
X150445009Y-118001894D01*
X150618004Y-117876206D01*
X150769206Y-117725004D01*
X150894894Y-117552009D01*
X150991972Y-117361483D01*
X151058049Y-117158116D01*
X151091500Y-116946916D01*
X151091500Y-116733084D01*
X151058049Y-116521884D01*
X150991972Y-116318517D01*
X150991972Y-116318516D01*
X150894893Y-116127990D01*
X150769206Y-115954996D01*
X150618004Y-115803794D01*
X150538496Y-115746028D01*
X150495831Y-115690697D01*
X150489852Y-115621084D01*
X150522458Y-115559289D01*
X150555085Y-115535226D01*
X150699009Y-115461894D01*
X150872004Y-115336206D01*
X151023206Y-115185004D01*
X151148894Y-115012009D01*
X151245972Y-114821483D01*
X151312049Y-114618116D01*
X151345500Y-114406916D01*
X151345500Y-114193084D01*
X151312049Y-113981884D01*
X151245972Y-113778517D01*
X151245972Y-113778516D01*
X151148893Y-113587990D01*
X151023206Y-113414996D01*
X150872004Y-113263794D01*
X150699009Y-113138106D01*
X150555086Y-113064773D01*
X150504291Y-113016799D01*
X150487496Y-112948978D01*
X150510033Y-112882843D01*
X150538497Y-112853971D01*
X150618004Y-112796206D01*
X150769206Y-112645004D01*
X150894894Y-112472009D01*
X150991972Y-112281483D01*
X151058049Y-112078116D01*
X151091500Y-111866916D01*
X151091500Y-111653084D01*
X151058049Y-111441884D01*
X150991972Y-111238517D01*
X150991972Y-111238516D01*
X150894893Y-111047990D01*
X150769206Y-110874996D01*
X150618004Y-110723794D01*
X150538496Y-110666028D01*
X150495831Y-110610697D01*
X150489852Y-110541084D01*
X150522458Y-110479289D01*
X150555085Y-110455226D01*
X150699009Y-110381894D01*
X150872004Y-110256206D01*
X151023206Y-110105004D01*
X151148894Y-109932009D01*
X151245972Y-109741483D01*
X151312049Y-109538116D01*
X151345500Y-109326916D01*
X151345500Y-109113084D01*
X151312049Y-108901884D01*
X151245972Y-108698517D01*
X151245972Y-108698516D01*
X151148893Y-108507990D01*
X151023206Y-108334996D01*
X150872004Y-108183794D01*
X150699009Y-108058106D01*
X150555086Y-107984773D01*
X150504291Y-107936799D01*
X150487496Y-107868978D01*
X150510033Y-107802843D01*
X150538497Y-107773971D01*
X150618004Y-107716206D01*
X150769206Y-107565004D01*
X150894894Y-107392009D01*
X150991972Y-107201483D01*
X151058049Y-106998116D01*
X151091500Y-106786916D01*
X151091500Y-106573084D01*
X151058049Y-106361884D01*
X151025010Y-106260200D01*
X150991973Y-106158519D01*
X150991972Y-106158516D01*
X150901655Y-105981261D01*
X150894894Y-105967991D01*
X150769206Y-105794996D01*
X150618004Y-105643794D01*
X150567835Y-105607344D01*
X150538496Y-105586028D01*
X150495831Y-105530697D01*
X150489852Y-105461084D01*
X150522458Y-105399289D01*
X150555085Y-105375226D01*
X150699009Y-105301894D01*
X150872004Y-105176206D01*
X151023206Y-105025004D01*
X151148894Y-104852009D01*
X151245972Y-104661483D01*
X151312049Y-104458116D01*
X151345500Y-104246916D01*
X151345500Y-104033084D01*
X151312049Y-103821884D01*
X151245972Y-103618517D01*
X151245972Y-103618516D01*
X151148893Y-103427990D01*
X151023206Y-103254996D01*
X150872004Y-103103794D01*
X150699009Y-102978106D01*
X150555086Y-102904773D01*
X150504291Y-102856799D01*
X150487496Y-102788978D01*
X150510033Y-102722843D01*
X150538497Y-102693971D01*
X150618004Y-102636206D01*
X150769206Y-102485004D01*
X150894894Y-102312009D01*
X150991972Y-102121483D01*
X151058049Y-101918116D01*
X151091500Y-101706916D01*
X151091500Y-101493084D01*
X151058049Y-101281884D01*
X150991972Y-101078517D01*
X150991972Y-101078516D01*
X150937419Y-100971451D01*
X150894894Y-100887991D01*
X150769206Y-100714996D01*
X150618004Y-100563794D01*
X150538496Y-100506028D01*
X150495831Y-100450697D01*
X150489852Y-100381084D01*
X150522458Y-100319289D01*
X150555085Y-100295226D01*
X150699009Y-100221894D01*
X150872004Y-100096206D01*
X151023206Y-99945004D01*
X151148894Y-99772009D01*
X151245972Y-99581483D01*
X151312049Y-99378116D01*
X151345500Y-99166916D01*
X151345500Y-98953084D01*
X151312049Y-98741884D01*
X151279010Y-98640200D01*
X151245973Y-98538519D01*
X151245972Y-98538516D01*
X151156898Y-98363700D01*
X151148894Y-98347991D01*
X151023206Y-98174996D01*
X150872004Y-98023794D01*
X150699009Y-97898106D01*
X150555086Y-97824773D01*
X150504291Y-97776799D01*
X150487496Y-97708978D01*
X150510033Y-97642843D01*
X150538497Y-97613971D01*
X150618004Y-97556206D01*
X150769206Y-97405004D01*
X150894894Y-97232009D01*
X150991972Y-97041483D01*
X151058049Y-96838116D01*
X151091500Y-96626916D01*
X151091500Y-96413084D01*
X151058049Y-96201884D01*
X151025010Y-96100200D01*
X150991973Y-95998519D01*
X150991972Y-95998516D01*
X150894893Y-95807990D01*
X150790446Y-95664231D01*
X150769206Y-95634996D01*
X150618004Y-95483794D01*
X150538496Y-95426028D01*
X150495831Y-95370697D01*
X150489852Y-95301084D01*
X150522458Y-95239289D01*
X150555085Y-95215226D01*
X150699009Y-95141894D01*
X150872004Y-95016206D01*
X151023206Y-94865004D01*
X151148894Y-94692009D01*
X151245972Y-94501483D01*
X151312049Y-94298116D01*
X151345500Y-94086916D01*
X151345500Y-93873084D01*
X151312049Y-93661884D01*
X151245972Y-93458517D01*
X151245972Y-93458516D01*
X151196507Y-93361438D01*
X151148894Y-93267991D01*
X151023206Y-93094996D01*
X150872004Y-92943794D01*
X150699009Y-92818106D01*
X150555086Y-92744773D01*
X150504291Y-92696799D01*
X150487496Y-92628978D01*
X150510033Y-92562843D01*
X150538497Y-92533971D01*
X150564300Y-92515224D01*
X150618004Y-92476206D01*
X150769206Y-92325004D01*
X150894894Y-92152009D01*
X150991972Y-91961483D01*
X151058049Y-91758116D01*
X151091500Y-91546916D01*
X151091500Y-91333084D01*
X151058049Y-91121884D01*
X150991972Y-90918517D01*
X150991972Y-90918516D01*
X150913356Y-90764225D01*
X150894894Y-90727991D01*
X150769206Y-90554996D01*
X150618004Y-90403794D01*
X150538496Y-90346028D01*
X150495831Y-90290697D01*
X150489852Y-90221084D01*
X150522458Y-90159289D01*
X150555085Y-90135226D01*
X150699009Y-90061894D01*
X150872004Y-89936206D01*
X151023206Y-89785004D01*
X151148894Y-89612009D01*
X151245972Y-89421483D01*
X151312049Y-89218116D01*
X151345500Y-89006916D01*
X151345500Y-88793084D01*
X151312049Y-88581884D01*
X151279010Y-88480200D01*
X151245973Y-88378519D01*
X151245972Y-88378516D01*
X151148893Y-88187990D01*
X151023206Y-88014996D01*
X150872004Y-87863794D01*
X150699009Y-87738106D01*
X150555086Y-87664773D01*
X150504291Y-87616799D01*
X150487496Y-87548978D01*
X150510033Y-87482843D01*
X150538497Y-87453971D01*
X150544447Y-87449648D01*
X150618004Y-87396206D01*
X150769206Y-87245004D01*
X150894894Y-87072009D01*
X150991972Y-86881483D01*
X151058049Y-86678116D01*
X151091500Y-86466916D01*
X151091500Y-86253084D01*
X151058049Y-86041884D01*
X151011214Y-85897738D01*
X150991973Y-85838519D01*
X150991972Y-85838516D01*
X150942507Y-85741438D01*
X150894894Y-85647991D01*
X150769206Y-85474996D01*
X150618004Y-85323794D01*
X150544011Y-85270035D01*
X150538496Y-85266028D01*
X150495831Y-85210697D01*
X150489852Y-85141084D01*
X150522458Y-85079289D01*
X150555085Y-85055226D01*
X150699009Y-84981894D01*
X150872004Y-84856206D01*
X151023206Y-84705004D01*
X151148894Y-84532009D01*
X151245972Y-84341483D01*
X151312049Y-84138116D01*
X151345500Y-83926916D01*
X151345500Y-83713084D01*
X151312049Y-83501884D01*
X151245972Y-83298517D01*
X151245972Y-83298516D01*
X151148893Y-83107990D01*
X151023206Y-82934996D01*
X150872004Y-82783794D01*
X150699009Y-82658106D01*
X150555086Y-82584773D01*
X150504291Y-82536799D01*
X150487496Y-82468978D01*
X150510033Y-82402843D01*
X150538497Y-82373971D01*
X150543346Y-82370448D01*
X150618004Y-82316206D01*
X150769206Y-82165004D01*
X150894894Y-81992009D01*
X150991972Y-81801483D01*
X151058049Y-81598116D01*
X151091500Y-81386916D01*
X151091500Y-81173084D01*
X151058049Y-80961884D01*
X151025010Y-80860200D01*
X150991973Y-80758519D01*
X150991972Y-80758516D01*
X150930177Y-80637237D01*
X150894894Y-80567991D01*
X150769206Y-80394996D01*
X150618004Y-80243794D01*
X150538496Y-80186028D01*
X150495831Y-80130697D01*
X150489852Y-80061084D01*
X150522458Y-79999289D01*
X150555085Y-79975226D01*
X150699009Y-79901894D01*
X150872004Y-79776206D01*
X151023206Y-79625004D01*
X151148894Y-79452009D01*
X151245972Y-79261483D01*
X151312049Y-79058116D01*
X151345500Y-78846916D01*
X151345500Y-78633084D01*
X151312049Y-78421884D01*
X151245972Y-78218517D01*
X151245972Y-78218516D01*
X151148893Y-78027990D01*
X151023206Y-77854996D01*
X150872004Y-77703794D01*
X150841558Y-77681673D01*
X150798894Y-77626345D01*
X150792915Y-77556732D01*
X150825521Y-77494937D01*
X150840134Y-77482091D01*
X150940187Y-77407190D01*
X150940190Y-77407187D01*
X151026350Y-77292093D01*
X151026354Y-77292086D01*
X151076596Y-77157379D01*
X151076598Y-77157372D01*
X151082999Y-77097844D01*
X151083000Y-77097827D01*
X151083000Y-76450000D01*
X150166012Y-76450000D01*
X150198925Y-76392993D01*
X150233000Y-76265826D01*
X150233000Y-76134174D01*
X150198925Y-76007007D01*
X150166012Y-75950000D01*
X151083000Y-75950000D01*
X151083000Y-75302172D01*
X151082999Y-75302155D01*
X151076598Y-75242627D01*
X151076596Y-75242620D01*
X151026354Y-75107913D01*
X151026350Y-75107906D01*
X150940190Y-74992812D01*
X150940187Y-74992809D01*
X150825093Y-74906649D01*
X150825086Y-74906645D01*
X150690379Y-74856403D01*
X150690372Y-74856401D01*
X150630844Y-74850000D01*
X149983000Y-74850000D01*
X149983000Y-75766988D01*
X149925993Y-75734075D01*
X149798826Y-75700000D01*
X149667174Y-75700000D01*
X149540007Y-75734075D01*
X149483000Y-75766988D01*
X149483000Y-74850000D01*
X148835155Y-74850000D01*
X148775627Y-74856401D01*
X148775620Y-74856403D01*
X148640913Y-74906645D01*
X148640906Y-74906649D01*
X148525812Y-74992809D01*
X148525809Y-74992812D01*
X148439649Y-75107906D01*
X148439645Y-75107913D01*
X148389403Y-75242620D01*
X148389401Y-75242627D01*
X148383000Y-75302155D01*
X148383000Y-75950000D01*
X149299988Y-75950000D01*
X149267075Y-76007007D01*
X149233000Y-76134174D01*
X149233000Y-76265826D01*
X149267075Y-76392993D01*
X149299988Y-76450000D01*
X148383000Y-76450000D01*
X148383000Y-77097844D01*
X148389401Y-77157372D01*
X148389403Y-77157379D01*
X148439645Y-77292086D01*
X148439649Y-77292093D01*
X148525809Y-77407187D01*
X148525812Y-77407190D01*
X148640906Y-77493350D01*
X148640913Y-77493354D01*
X148775620Y-77543596D01*
X148775627Y-77543598D01*
X148835155Y-77549999D01*
X148835172Y-77550000D01*
X148956428Y-77550000D01*
X149023467Y-77569685D01*
X149069222Y-77622489D01*
X149079166Y-77691647D01*
X149050141Y-77755203D01*
X149044109Y-77761681D01*
X148950796Y-77854993D01*
X148825106Y-78027990D01*
X148728027Y-78218516D01*
X148728026Y-78218519D01*
X148661951Y-78421882D01*
X148628500Y-78633084D01*
X148628500Y-78846915D01*
X148661951Y-79058117D01*
X148728026Y-79261480D01*
X148728027Y-79261483D01*
X148790223Y-79383548D01*
X148825106Y-79452009D01*
X148950794Y-79625004D01*
X149101996Y-79776206D01*
X149181503Y-79833971D01*
X149224168Y-79889301D01*
X149230147Y-79958915D01*
X149197541Y-80020710D01*
X149164912Y-80044774D01*
X149020990Y-80118106D01*
X148847993Y-80243796D01*
X148696796Y-80394993D01*
X148571106Y-80567990D01*
X148474027Y-80758516D01*
X148474026Y-80758519D01*
X148407951Y-80961882D01*
X148374500Y-81173084D01*
X122687831Y-81173084D01*
X122625239Y-81131261D01*
X122625237Y-81131260D01*
X122477235Y-81069956D01*
X122477225Y-81069953D01*
X122320105Y-81038700D01*
X122320103Y-81038700D01*
X122159897Y-81038700D01*
X122159895Y-81038700D01*
X122002774Y-81069953D01*
X122002764Y-81069956D01*
X121854762Y-81131260D01*
X121854760Y-81131261D01*
X121721552Y-81220268D01*
X121721548Y-81220271D01*
X121608271Y-81333548D01*
X121608268Y-81333552D01*
X121519261Y-81466760D01*
X121519260Y-81466762D01*
X121457956Y-81614764D01*
X121457953Y-81614774D01*
X121426700Y-81771894D01*
X121426700Y-81771897D01*
X121426700Y-81932103D01*
X121426700Y-81932105D01*
X121426699Y-81932105D01*
X107745417Y-81932105D01*
X107811972Y-81801483D01*
X107821586Y-81771894D01*
X107836015Y-81727487D01*
X107836015Y-81727486D01*
X107878048Y-81598119D01*
X107878047Y-81598119D01*
X107878049Y-81598116D01*
X107911500Y-81386916D01*
X107911500Y-81173084D01*
X107878049Y-80961884D01*
X107845010Y-80860200D01*
X107811973Y-80758519D01*
X107811972Y-80758516D01*
X107750177Y-80637237D01*
X107714894Y-80567991D01*
X107589206Y-80394996D01*
X107438004Y-80243794D01*
X107358496Y-80186028D01*
X107315831Y-80130697D01*
X107309852Y-80061084D01*
X107342458Y-79999289D01*
X107365758Y-79982105D01*
X126126699Y-79982105D01*
X126157953Y-80139225D01*
X126157956Y-80139235D01*
X126219260Y-80287237D01*
X126219261Y-80287239D01*
X126308268Y-80420447D01*
X126308271Y-80420451D01*
X126421548Y-80533728D01*
X126421552Y-80533731D01*
X126554758Y-80622737D01*
X126554759Y-80622737D01*
X126554760Y-80622738D01*
X126554762Y-80622739D01*
X126660921Y-80666711D01*
X126702769Y-80684045D01*
X126702773Y-80684045D01*
X126702774Y-80684046D01*
X126859894Y-80715300D01*
X126859897Y-80715300D01*
X127020105Y-80715300D01*
X127125813Y-80694272D01*
X127177231Y-80684045D01*
X127325242Y-80622737D01*
X127458448Y-80533731D01*
X127571731Y-80420448D01*
X127630760Y-80332105D01*
X131526699Y-80332105D01*
X131557953Y-80489225D01*
X131557956Y-80489235D01*
X131619260Y-80637237D01*
X131619261Y-80637239D01*
X131708268Y-80770447D01*
X131708271Y-80770451D01*
X131821548Y-80883728D01*
X131821552Y-80883731D01*
X131954758Y-80972737D01*
X131954759Y-80972737D01*
X131954760Y-80972738D01*
X131954762Y-80972739D01*
X132015118Y-80997739D01*
X132102769Y-81034045D01*
X132102773Y-81034045D01*
X132102774Y-81034046D01*
X132259894Y-81065300D01*
X132259897Y-81065300D01*
X132420105Y-81065300D01*
X132525813Y-81044272D01*
X132577231Y-81034045D01*
X132725242Y-80972737D01*
X132858448Y-80883731D01*
X132971731Y-80770448D01*
X133041047Y-80666708D01*
X133094656Y-80621907D01*
X133163981Y-80613199D01*
X133227009Y-80643353D01*
X133247249Y-80666711D01*
X133333268Y-80795447D01*
X133333271Y-80795451D01*
X133446548Y-80908728D01*
X133446552Y-80908731D01*
X133579758Y-80997737D01*
X133579759Y-80997737D01*
X133579760Y-80997738D01*
X133579762Y-80997739D01*
X133727764Y-81059043D01*
X133727769Y-81059045D01*
X133727773Y-81059045D01*
X133727774Y-81059046D01*
X133884894Y-81090300D01*
X133884897Y-81090300D01*
X134045105Y-81090300D01*
X134170785Y-81065300D01*
X134202231Y-81059045D01*
X134209304Y-81056115D01*
X134215254Y-81053651D01*
X134350237Y-80997739D01*
X134350236Y-80997739D01*
X134350242Y-80997737D01*
X134483448Y-80908731D01*
X134596731Y-80795448D01*
X134685737Y-80662242D01*
X134747045Y-80514231D01*
X134778300Y-80357103D01*
X134778300Y-80196897D01*
X134778300Y-80196894D01*
X134747046Y-80039774D01*
X134747045Y-80039773D01*
X134747045Y-80039769D01*
X134730278Y-79999289D01*
X134685739Y-79891762D01*
X134685738Y-79891760D01*
X134669033Y-79866760D01*
X134596731Y-79758552D01*
X134596728Y-79758548D01*
X134483451Y-79645271D01*
X134483447Y-79645268D01*
X134350239Y-79556261D01*
X134350237Y-79556260D01*
X134202235Y-79494956D01*
X134202225Y-79494953D01*
X134045105Y-79463700D01*
X134045103Y-79463700D01*
X133884897Y-79463700D01*
X133884895Y-79463700D01*
X133727774Y-79494953D01*
X133727764Y-79494956D01*
X133579762Y-79556260D01*
X133579760Y-79556261D01*
X133446552Y-79645268D01*
X133446548Y-79645271D01*
X133333271Y-79758548D01*
X133333268Y-79758552D01*
X133263954Y-79862288D01*
X133210342Y-79907093D01*
X133141017Y-79915800D01*
X133077989Y-79885645D01*
X133057750Y-79862288D01*
X133030761Y-79821897D01*
X132971731Y-79733552D01*
X132971728Y-79733548D01*
X132858451Y-79620271D01*
X132858447Y-79620268D01*
X132725239Y-79531261D01*
X132725237Y-79531260D01*
X132577235Y-79469956D01*
X132577225Y-79469953D01*
X132420105Y-79438700D01*
X132420103Y-79438700D01*
X132259897Y-79438700D01*
X132259895Y-79438700D01*
X132102774Y-79469953D01*
X132102764Y-79469956D01*
X131954762Y-79531260D01*
X131954760Y-79531261D01*
X131821552Y-79620268D01*
X131821548Y-79620271D01*
X131708271Y-79733548D01*
X131708268Y-79733552D01*
X131619261Y-79866760D01*
X131619260Y-79866762D01*
X131557956Y-80014764D01*
X131557953Y-80014774D01*
X131526700Y-80171894D01*
X131526700Y-80171897D01*
X131526700Y-80332103D01*
X131526700Y-80332105D01*
X131526699Y-80332105D01*
X127630760Y-80332105D01*
X127660737Y-80287242D01*
X127722045Y-80139231D01*
X127753300Y-79982103D01*
X127753300Y-79821897D01*
X127753300Y-79821894D01*
X127722046Y-79664774D01*
X127722045Y-79664773D01*
X127722045Y-79664769D01*
X127713968Y-79645269D01*
X127660739Y-79516762D01*
X127660738Y-79516760D01*
X127646168Y-79494955D01*
X127571731Y-79383552D01*
X127571728Y-79383548D01*
X127458451Y-79270271D01*
X127458447Y-79270268D01*
X127325239Y-79181261D01*
X127325237Y-79181260D01*
X127177235Y-79119956D01*
X127177225Y-79119953D01*
X127020105Y-79088700D01*
X127020103Y-79088700D01*
X126859897Y-79088700D01*
X126859895Y-79088700D01*
X126702774Y-79119953D01*
X126702764Y-79119956D01*
X126554762Y-79181260D01*
X126554760Y-79181261D01*
X126421552Y-79270268D01*
X126421548Y-79270271D01*
X126308271Y-79383548D01*
X126308268Y-79383552D01*
X126219261Y-79516760D01*
X126219260Y-79516762D01*
X126157956Y-79664764D01*
X126157953Y-79664774D01*
X126126700Y-79821894D01*
X126126700Y-79821897D01*
X126126700Y-79982103D01*
X126126700Y-79982105D01*
X126126699Y-79982105D01*
X107365758Y-79982105D01*
X107375085Y-79975226D01*
X107519009Y-79901894D01*
X107692004Y-79776206D01*
X107843206Y-79625004D01*
X107968894Y-79452009D01*
X108065972Y-79261483D01*
X108132049Y-79058116D01*
X108165500Y-78846916D01*
X108165500Y-78633084D01*
X108132049Y-78421884D01*
X108065972Y-78218517D01*
X108065972Y-78218516D01*
X107968893Y-78027990D01*
X107843206Y-77854996D01*
X107692004Y-77703794D01*
X107668757Y-77686904D01*
X107626091Y-77631574D01*
X107620112Y-77561961D01*
X107652718Y-77500166D01*
X107667331Y-77487319D01*
X107675735Y-77481028D01*
X107766261Y-77413261D01*
X107853889Y-77296204D01*
X107904989Y-77159201D01*
X107908591Y-77125692D01*
X107911499Y-77098654D01*
X107911500Y-77098637D01*
X107911500Y-75301362D01*
X107911499Y-75301345D01*
X107908157Y-75270270D01*
X107904989Y-75240799D01*
X107853889Y-75103796D01*
X107766261Y-74986739D01*
X107649204Y-74899111D01*
X107512203Y-74848011D01*
X107451654Y-74841500D01*
X107451638Y-74841500D01*
X105654362Y-74841500D01*
X105654345Y-74841500D01*
X105593797Y-74848011D01*
X105593795Y-74848011D01*
X105456795Y-74899111D01*
X105339739Y-74986739D01*
X105252111Y-75103795D01*
X105201011Y-75240795D01*
X105201011Y-75240797D01*
X105194500Y-75301345D01*
X104215500Y-75301345D01*
X104215500Y-73664875D01*
X104215882Y-73655147D01*
X104229440Y-73482867D01*
X104229440Y-73482866D01*
X104232482Y-73463655D01*
X104271687Y-73300357D01*
X104277695Y-73281868D01*
X104341961Y-73126713D01*
X104350784Y-73109398D01*
X104438530Y-72966209D01*
X104449966Y-72950470D01*
X104559027Y-72822776D01*
X104572776Y-72809027D01*
X104700472Y-72699964D01*
X104716212Y-72688529D01*
X104859398Y-72600784D01*
X104876713Y-72591961D01*
X105031868Y-72527695D01*
X105050357Y-72521687D01*
X105213655Y-72482482D01*
X105232861Y-72479440D01*
X105380383Y-72467830D01*
X105405147Y-72465882D01*
X105414875Y-72465500D01*
X105434531Y-72465500D01*
X151105469Y-72465500D01*
X151125125Y-72465500D01*
X151134853Y-72465882D01*
G37*
%TD.AperFunction*%
%TD*%
M02*
