%TF.GenerationSoftware,KiCad,Pcbnew,10.0.2*%
%TF.CreationDate,2026-07-14T17:02:02-04:00*%
%TF.ProjectId,IMUTagNandBreakout,494d5554-6167-44e6-916e-64427265616b,rev?*%
%TF.SameCoordinates,Original*%
%TF.FileFunction,Copper,L3,Inr*%
%TF.FilePolarity,Positive*%
%FSLAX46Y46*%
G04 Gerber Fmt 4.6, Leading zero omitted, Abs format (unit mm)*
G04 Created by KiCad (PCBNEW 10.0.2) date 2026-07-14 17:02:02*
%MOMM*%
%LPD*%
G01*
G04 APERTURE LIST*
%TA.AperFunction,ComponentPad*%
%ADD10R,1.700000X1.700000*%
%TD*%
%TA.AperFunction,ComponentPad*%
%ADD11O,1.700000X1.700000*%
%TD*%
%TA.AperFunction,ViaPad*%
%ADD12C,0.609600*%
%TD*%
G04 APERTURE END LIST*
D10*
%TO.N,unconnected-(J3-Pin_1-Pad1)*%
%TO.C,J3*%
X106553000Y-76200000D03*
D11*
%TO.N,/BMM_INT*%
X106807000Y-78740000D03*
%TO.N,/SCL*%
X106553000Y-81280000D03*
%TO.N,/SDA*%
X106807000Y-83820000D03*
%TO.N,unconnected-(J3-Pin_5-Pad5)*%
X106553000Y-86360000D03*
%TO.N,unconnected-(J3-Pin_6-Pad6)*%
X106807000Y-88900000D03*
%TO.N,+1V8*%
X106553000Y-91440000D03*
%TO.N,/WKUP1*%
X106807000Y-93980000D03*
%TO.N,unconnected-(J3-Pin_9-Pad9)*%
X106553000Y-96520000D03*
%TO.N,unconnected-(J3-Pin_10-Pad10)*%
X106807000Y-99060000D03*
%TO.N,unconnected-(J3-Pin_11-Pad11)*%
X106553000Y-101600000D03*
%TO.N,/AT25_nCS*%
X106807000Y-104140000D03*
%TO.N,/AT25_SCK*%
X106553000Y-106680000D03*
%TO.N,/AT25_MISO*%
X106807000Y-109220000D03*
%TO.N,/AT25_MOSI*%
X106553000Y-111760000D03*
%TO.N,unconnected-(J3-Pin_16-Pad16)*%
X106807000Y-114300000D03*
%TO.N,GND*%
X106553000Y-116840000D03*
%TD*%
D10*
%TO.N,+1V8*%
%TO.C,J4*%
X149733000Y-76200000D03*
D11*
%TO.N,/LPS_CK*%
X149987000Y-78740000D03*
%TO.N,unconnected-(J4-Pin_3-Pad3)*%
X149733000Y-81280000D03*
%TO.N,/LPS_MOSI*%
X149987000Y-83820000D03*
%TO.N,/LPS_MISO*%
X149733000Y-86360000D03*
%TO.N,/LPS_DRDY*%
X149987000Y-88900000D03*
%TO.N,/LPS_CS*%
X149733000Y-91440000D03*
%TO.N,/LSM_TRG*%
X149987000Y-93980000D03*
%TO.N,unconnected-(J4-Pin_9-Pad9)*%
X149733000Y-96520000D03*
%TO.N,unconnected-(J4-Pin_10-Pad10)*%
X149987000Y-99060000D03*
%TO.N,unconnected-(J4-Pin_11-Pad11)*%
X149733000Y-101600000D03*
%TO.N,unconnected-(J4-Pin_12-Pad12)*%
X149987000Y-104140000D03*
%TO.N,unconnected-(J4-Pin_13-Pad13)*%
X149733000Y-106680000D03*
%TO.N,unconnected-(J4-Pin_14-Pad14)*%
X149987000Y-109220000D03*
%TO.N,/NC*%
X149733000Y-111760000D03*
%TO.N,/LSM_CS*%
X149987000Y-114300000D03*
%TO.N,GND*%
X149733000Y-116840000D03*
%TD*%
D12*
%TO.N,GND*%
X133320200Y-86931200D03*
X131340000Y-91152000D03*
X126940000Y-79902000D03*
X128290000Y-105102000D03*
X129915000Y-92352000D03*
X122240000Y-81852000D03*
X130040000Y-105077000D03*
X133965000Y-80277000D03*
X127590000Y-95427000D03*
X132340000Y-80252000D03*
X128905000Y-100203000D03*
X129408600Y-84899200D03*
X131034200Y-85032800D03*
%TO.N,+1V8*%
X127265000Y-102752000D03*
X128040000Y-91152000D03*
X134140000Y-76727000D03*
X130940000Y-102752000D03*
X122040000Y-92052000D03*
X122240000Y-80552000D03*
X130990000Y-95452000D03*
X129365000Y-88602000D03*
X131040000Y-88577000D03*
X122415000Y-89152000D03*
X132415000Y-76777000D03*
%TO.N,/SDA*%
X116015000Y-87002000D03*
X122040000Y-90527000D03*
%TO.N,/LSM_TRG*%
X131364000Y-100453000D03*
%TO.N,/SCL*%
X122015000Y-86677000D03*
X115990000Y-85177000D03*
%TO.N,/WKUP1*%
X120390000Y-99177000D03*
%TO.N,/LPS_MOSI*%
X136615000Y-86927000D03*
X137715000Y-84252000D03*
%TO.N,/LPS_MISO*%
X143240000Y-86352000D03*
%TO.N,/BMM_INT*%
X121840000Y-93327000D03*
%TO.N,/AT25_MISO*%
X121267614Y-98596984D03*
X118540000Y-97727000D03*
%TO.N,/LPS_CK*%
X133640000Y-88652000D03*
%TO.N,/AT25_SCK*%
X110690000Y-106702000D03*
X122190000Y-97202000D03*
X120440000Y-97152000D03*
%TD*%
%TA.AperFunction,Conductor*%
%TO.N,GND*%
G36*
X151134853Y-72465882D02*
G01*
X151164568Y-72468220D01*
X151307136Y-72479440D01*
X151326346Y-72482483D01*
X151489638Y-72521686D01*
X151508135Y-72527696D01*
X151663280Y-72591959D01*
X151680606Y-72600787D01*
X151734330Y-72633709D01*
X151823787Y-72688529D01*
X151839529Y-72699966D01*
X151967218Y-72809023D01*
X151980976Y-72822781D01*
X152090033Y-72950470D01*
X152101470Y-72966212D01*
X152189209Y-73109387D01*
X152198043Y-73126725D01*
X152262301Y-73281860D01*
X152268314Y-73300365D01*
X152307515Y-73463648D01*
X152310559Y-73482866D01*
X152324118Y-73655146D01*
X152324500Y-73664875D01*
X152324500Y-119375124D01*
X152324118Y-119384852D01*
X152324118Y-119384853D01*
X152310559Y-119557133D01*
X152307515Y-119576351D01*
X152268314Y-119739634D01*
X152262301Y-119758139D01*
X152198043Y-119913274D01*
X152189209Y-119930612D01*
X152101470Y-120073787D01*
X152090033Y-120089529D01*
X151980976Y-120217218D01*
X151967218Y-120230976D01*
X151839529Y-120340033D01*
X151823787Y-120351470D01*
X151680612Y-120439209D01*
X151663274Y-120448043D01*
X151508139Y-120512301D01*
X151489634Y-120518314D01*
X151326351Y-120557515D01*
X151307133Y-120560559D01*
X151134854Y-120574118D01*
X151125125Y-120574500D01*
X105414875Y-120574500D01*
X105405146Y-120574118D01*
X105232866Y-120560559D01*
X105213648Y-120557515D01*
X105050365Y-120518314D01*
X105031860Y-120512301D01*
X104876725Y-120448043D01*
X104859387Y-120439209D01*
X104716212Y-120351470D01*
X104700470Y-120340033D01*
X104572781Y-120230976D01*
X104559023Y-120217218D01*
X104449966Y-120089529D01*
X104438529Y-120073787D01*
X104402664Y-120015262D01*
X104350787Y-119930606D01*
X104341959Y-119913280D01*
X104277696Y-119758135D01*
X104271685Y-119739634D01*
X104232484Y-119576351D01*
X104229440Y-119557132D01*
X104215882Y-119384852D01*
X104215500Y-119375124D01*
X104215500Y-75301345D01*
X105194500Y-75301345D01*
X105194500Y-77098654D01*
X105201011Y-77159202D01*
X105201011Y-77159204D01*
X105233181Y-77245451D01*
X105252111Y-77296204D01*
X105339739Y-77413261D01*
X105456796Y-77500889D01*
X105593799Y-77551989D01*
X105621050Y-77554918D01*
X105654345Y-77558499D01*
X105654362Y-77558500D01*
X105767928Y-77558500D01*
X105834967Y-77578185D01*
X105880722Y-77630989D01*
X105890666Y-77700147D01*
X105861641Y-77763703D01*
X105855609Y-77770181D01*
X105770796Y-77854993D01*
X105645106Y-78027990D01*
X105548027Y-78218516D01*
X105548026Y-78218519D01*
X105481951Y-78421882D01*
X105448500Y-78633084D01*
X105448500Y-78846915D01*
X105481951Y-79058117D01*
X105548026Y-79261480D01*
X105548027Y-79261483D01*
X105645106Y-79452009D01*
X105770794Y-79625004D01*
X105921996Y-79776206D01*
X105997773Y-79831261D01*
X106001503Y-79833971D01*
X106044168Y-79889301D01*
X106050147Y-79958915D01*
X106017541Y-80020710D01*
X105984912Y-80044774D01*
X105840990Y-80118106D01*
X105667993Y-80243796D01*
X105516796Y-80394993D01*
X105391106Y-80567990D01*
X105294027Y-80758516D01*
X105294026Y-80758519D01*
X105227951Y-80961882D01*
X105194500Y-81173084D01*
X105194500Y-81386915D01*
X105227951Y-81598117D01*
X105294026Y-81801480D01*
X105294027Y-81801483D01*
X105391106Y-81992009D01*
X105516794Y-82165004D01*
X105667996Y-82316206D01*
X105840991Y-82441894D01*
X105984913Y-82515226D01*
X106035708Y-82563199D01*
X106052503Y-82631020D01*
X106029966Y-82697155D01*
X106001504Y-82726027D01*
X105921996Y-82783793D01*
X105770796Y-82934993D01*
X105645106Y-83107990D01*
X105548027Y-83298516D01*
X105548026Y-83298519D01*
X105481951Y-83501882D01*
X105448500Y-83713084D01*
X105448500Y-83926915D01*
X105481951Y-84138117D01*
X105548026Y-84341480D01*
X105548027Y-84341483D01*
X105645106Y-84532009D01*
X105770794Y-84705004D01*
X105921996Y-84856206D01*
X106001503Y-84913971D01*
X106044168Y-84969301D01*
X106050147Y-85038915D01*
X106017541Y-85100710D01*
X105984912Y-85124774D01*
X105840990Y-85198106D01*
X105667993Y-85323796D01*
X105516796Y-85474993D01*
X105391106Y-85647990D01*
X105294027Y-85838516D01*
X105294026Y-85838519D01*
X105227951Y-86041882D01*
X105194500Y-86253084D01*
X105194500Y-86466915D01*
X105227951Y-86678117D01*
X105294026Y-86881480D01*
X105294027Y-86881483D01*
X105386127Y-87062237D01*
X105391106Y-87072009D01*
X105516794Y-87245004D01*
X105667996Y-87396206D01*
X105840991Y-87521894D01*
X105984913Y-87595226D01*
X106035708Y-87643199D01*
X106052503Y-87711020D01*
X106029966Y-87777155D01*
X106001504Y-87806027D01*
X105921996Y-87863793D01*
X105770796Y-88014993D01*
X105645106Y-88187990D01*
X105548027Y-88378516D01*
X105548026Y-88378519D01*
X105481951Y-88581882D01*
X105458158Y-88732105D01*
X105448500Y-88793084D01*
X105448500Y-89006916D01*
X105453303Y-89037239D01*
X105481951Y-89218117D01*
X105548026Y-89421480D01*
X105548027Y-89421483D01*
X105607010Y-89537242D01*
X105645106Y-89612009D01*
X105770794Y-89785004D01*
X105921996Y-89936206D01*
X106001503Y-89993971D01*
X106044168Y-90049301D01*
X106050147Y-90118915D01*
X106017541Y-90180710D01*
X105984912Y-90204774D01*
X105840990Y-90278106D01*
X105667993Y-90403796D01*
X105516796Y-90554993D01*
X105391106Y-90727990D01*
X105294027Y-90918516D01*
X105294026Y-90918519D01*
X105227951Y-91121882D01*
X105194500Y-91333084D01*
X105194500Y-91546915D01*
X105227951Y-91758117D01*
X105294026Y-91961480D01*
X105294027Y-91961483D01*
X105380963Y-92132103D01*
X105391106Y-92152009D01*
X105516794Y-92325004D01*
X105667996Y-92476206D01*
X105840991Y-92601894D01*
X105984913Y-92675226D01*
X106035708Y-92723199D01*
X106052503Y-92791020D01*
X106029966Y-92857155D01*
X106001504Y-92886027D01*
X105921996Y-92943793D01*
X105770796Y-93094993D01*
X105645106Y-93267990D01*
X105548027Y-93458516D01*
X105548026Y-93458519D01*
X105481951Y-93661882D01*
X105448500Y-93873084D01*
X105448500Y-94086915D01*
X105481951Y-94298117D01*
X105548026Y-94501480D01*
X105548027Y-94501483D01*
X105633869Y-94669955D01*
X105645106Y-94692009D01*
X105770794Y-94865004D01*
X105921996Y-95016206D01*
X106001503Y-95073971D01*
X106044168Y-95129301D01*
X106050147Y-95198915D01*
X106017541Y-95260710D01*
X105984912Y-95284774D01*
X105840990Y-95358106D01*
X105667993Y-95483796D01*
X105516796Y-95634993D01*
X105391106Y-95807990D01*
X105294027Y-95998516D01*
X105294026Y-95998519D01*
X105227951Y-96201882D01*
X105227951Y-96201884D01*
X105194500Y-96413084D01*
X105194500Y-96626916D01*
X105195551Y-96633552D01*
X105227951Y-96838117D01*
X105294026Y-97041480D01*
X105294027Y-97041483D01*
X105379152Y-97208548D01*
X105391106Y-97232009D01*
X105516794Y-97405004D01*
X105667996Y-97556206D01*
X105840991Y-97681894D01*
X105984913Y-97755226D01*
X106035708Y-97803199D01*
X106052503Y-97871020D01*
X106029966Y-97937155D01*
X106001504Y-97966027D01*
X105921996Y-98023793D01*
X105770796Y-98174993D01*
X105645106Y-98347990D01*
X105548027Y-98538516D01*
X105548026Y-98538519D01*
X105481951Y-98741882D01*
X105448500Y-98953084D01*
X105448500Y-99166915D01*
X105481951Y-99378117D01*
X105548026Y-99581480D01*
X105548027Y-99581483D01*
X105624853Y-99732260D01*
X105645106Y-99772009D01*
X105770794Y-99945004D01*
X105921996Y-100096206D01*
X106001503Y-100153971D01*
X106044168Y-100209301D01*
X106050147Y-100278915D01*
X106017541Y-100340710D01*
X105984912Y-100364774D01*
X105840990Y-100438106D01*
X105667993Y-100563796D01*
X105516796Y-100714993D01*
X105391106Y-100887990D01*
X105294027Y-101078516D01*
X105294026Y-101078519D01*
X105227951Y-101281882D01*
X105194500Y-101493084D01*
X105194500Y-101706915D01*
X105227951Y-101918117D01*
X105294026Y-102121480D01*
X105294027Y-102121483D01*
X105351128Y-102233548D01*
X105391106Y-102312009D01*
X105516794Y-102485004D01*
X105667996Y-102636206D01*
X105840991Y-102761894D01*
X105984913Y-102835226D01*
X106035708Y-102883199D01*
X106052503Y-102951020D01*
X106029966Y-103017155D01*
X106001504Y-103046027D01*
X105921996Y-103103793D01*
X105770796Y-103254993D01*
X105645106Y-103427990D01*
X105548027Y-103618516D01*
X105548026Y-103618519D01*
X105481951Y-103821882D01*
X105448500Y-104033084D01*
X105448500Y-104246915D01*
X105481951Y-104458117D01*
X105548026Y-104661480D01*
X105548027Y-104661483D01*
X105645106Y-104852009D01*
X105770794Y-105025004D01*
X105921996Y-105176206D01*
X106001503Y-105233971D01*
X106044168Y-105289301D01*
X106050147Y-105358915D01*
X106017541Y-105420710D01*
X105984912Y-105444774D01*
X105840990Y-105518106D01*
X105667993Y-105643796D01*
X105516796Y-105794993D01*
X105391106Y-105967990D01*
X105294027Y-106158516D01*
X105294026Y-106158519D01*
X105227951Y-106361882D01*
X105194500Y-106573084D01*
X105194500Y-106786915D01*
X105227951Y-106998117D01*
X105294026Y-107201480D01*
X105294027Y-107201483D01*
X105361410Y-107333728D01*
X105391106Y-107392009D01*
X105516794Y-107565004D01*
X105667996Y-107716206D01*
X105840991Y-107841894D01*
X105984913Y-107915226D01*
X106035708Y-107963199D01*
X106052503Y-108031020D01*
X106029966Y-108097155D01*
X106001504Y-108126027D01*
X105921996Y-108183793D01*
X105770796Y-108334993D01*
X105645106Y-108507990D01*
X105548027Y-108698516D01*
X105548026Y-108698519D01*
X105481951Y-108901882D01*
X105448500Y-109113084D01*
X105448500Y-109326915D01*
X105481951Y-109538117D01*
X105548026Y-109741480D01*
X105548027Y-109741483D01*
X105645106Y-109932009D01*
X105770794Y-110105004D01*
X105921996Y-110256206D01*
X106001503Y-110313971D01*
X106044168Y-110369301D01*
X106050147Y-110438915D01*
X106017541Y-110500710D01*
X105984912Y-110524774D01*
X105840990Y-110598106D01*
X105667993Y-110723796D01*
X105516796Y-110874993D01*
X105391106Y-111047990D01*
X105294027Y-111238516D01*
X105294026Y-111238519D01*
X105227951Y-111441882D01*
X105194500Y-111653084D01*
X105194500Y-111866915D01*
X105227951Y-112078117D01*
X105294026Y-112281480D01*
X105294027Y-112281483D01*
X105391106Y-112472009D01*
X105516794Y-112645004D01*
X105667996Y-112796206D01*
X105840991Y-112921894D01*
X105984913Y-112995226D01*
X106035708Y-113043199D01*
X106052503Y-113111020D01*
X106029966Y-113177155D01*
X106001504Y-113206027D01*
X105921996Y-113263793D01*
X105770796Y-113414993D01*
X105645106Y-113587990D01*
X105548027Y-113778516D01*
X105548026Y-113778519D01*
X105481951Y-113981882D01*
X105448500Y-114193084D01*
X105448500Y-114406915D01*
X105481951Y-114618117D01*
X105548026Y-114821480D01*
X105548027Y-114821483D01*
X105645106Y-115012009D01*
X105770794Y-115185004D01*
X105921996Y-115336206D01*
X106009221Y-115399579D01*
X106051887Y-115454907D01*
X106057866Y-115524521D01*
X106025261Y-115586316D01*
X105992632Y-115610380D01*
X105845444Y-115685377D01*
X105673540Y-115810272D01*
X105673535Y-115810276D01*
X105523276Y-115960535D01*
X105523272Y-115960540D01*
X105398379Y-116132442D01*
X105301904Y-116321782D01*
X105236242Y-116523870D01*
X105236242Y-116523873D01*
X105225769Y-116590000D01*
X106119988Y-116590000D01*
X106087075Y-116647007D01*
X106053000Y-116774174D01*
X106053000Y-116905826D01*
X106087075Y-117032993D01*
X106119988Y-117090000D01*
X105225769Y-117090000D01*
X105236242Y-117156126D01*
X105236242Y-117156129D01*
X105301904Y-117358217D01*
X105398379Y-117547557D01*
X105523272Y-117719459D01*
X105523276Y-117719464D01*
X105673535Y-117869723D01*
X105673540Y-117869727D01*
X105845442Y-117994620D01*
X106034782Y-118091095D01*
X106236871Y-118156757D01*
X106303000Y-118167231D01*
X106303000Y-117273012D01*
X106360007Y-117305925D01*
X106487174Y-117340000D01*
X106618826Y-117340000D01*
X106745993Y-117305925D01*
X106803000Y-117273012D01*
X106803000Y-118167230D01*
X106869126Y-118156757D01*
X106869129Y-118156757D01*
X107071217Y-118091095D01*
X107260557Y-117994620D01*
X107432459Y-117869727D01*
X107432464Y-117869723D01*
X107582723Y-117719464D01*
X107582727Y-117719459D01*
X107707620Y-117547557D01*
X107804095Y-117358217D01*
X107869757Y-117156129D01*
X107869757Y-117156126D01*
X107880231Y-117090000D01*
X106986012Y-117090000D01*
X107018925Y-117032993D01*
X107053000Y-116905826D01*
X107053000Y-116774174D01*
X107018925Y-116647007D01*
X106986012Y-116590000D01*
X107880231Y-116590000D01*
X107869757Y-116523873D01*
X107869757Y-116523870D01*
X107804095Y-116321782D01*
X107707620Y-116132442D01*
X107582727Y-115960540D01*
X107582723Y-115960535D01*
X107432464Y-115810276D01*
X107432459Y-115810272D01*
X107349997Y-115750360D01*
X107307331Y-115695030D01*
X107301352Y-115625417D01*
X107333957Y-115563622D01*
X107366587Y-115539557D01*
X107519009Y-115461894D01*
X107692004Y-115336206D01*
X107843206Y-115185004D01*
X107968894Y-115012009D01*
X108065972Y-114821483D01*
X108132049Y-114618116D01*
X108165500Y-114406916D01*
X108165500Y-114193084D01*
X108132049Y-113981884D01*
X108065972Y-113778517D01*
X108065972Y-113778516D01*
X107968893Y-113587990D01*
X107843206Y-113414996D01*
X107692004Y-113263794D01*
X107519009Y-113138106D01*
X107375086Y-113064773D01*
X107324291Y-113016799D01*
X107307496Y-112948978D01*
X107330033Y-112882843D01*
X107358497Y-112853971D01*
X107438004Y-112796206D01*
X107589206Y-112645004D01*
X107714894Y-112472009D01*
X107811972Y-112281483D01*
X107878049Y-112078116D01*
X107911500Y-111866916D01*
X107911500Y-111653084D01*
X107878049Y-111441884D01*
X107811972Y-111238517D01*
X107811972Y-111238516D01*
X107714893Y-111047990D01*
X107589206Y-110874996D01*
X107438004Y-110723794D01*
X107358496Y-110666028D01*
X107315831Y-110610697D01*
X107309852Y-110541084D01*
X107342458Y-110479289D01*
X107375085Y-110455226D01*
X107519009Y-110381894D01*
X107692004Y-110256206D01*
X107843206Y-110105004D01*
X107968894Y-109932009D01*
X108065972Y-109741483D01*
X108132049Y-109538116D01*
X108165500Y-109326916D01*
X108165500Y-109113084D01*
X108132049Y-108901884D01*
X108065972Y-108698517D01*
X108065972Y-108698516D01*
X107968893Y-108507990D01*
X107843206Y-108334996D01*
X107692004Y-108183794D01*
X107519009Y-108058106D01*
X107375086Y-107984773D01*
X107324291Y-107936799D01*
X107307496Y-107868978D01*
X107330033Y-107802843D01*
X107358497Y-107773971D01*
X107438004Y-107716206D01*
X107589206Y-107565004D01*
X107714894Y-107392009D01*
X107811972Y-107201483D01*
X107878049Y-106998116D01*
X107911500Y-106786916D01*
X107911500Y-106621894D01*
X109876700Y-106621894D01*
X109876700Y-106782104D01*
X109907953Y-106939225D01*
X109907956Y-106939235D01*
X109969260Y-107087237D01*
X109969261Y-107087239D01*
X110058268Y-107220447D01*
X110058271Y-107220451D01*
X110171548Y-107333728D01*
X110171552Y-107333731D01*
X110304758Y-107422737D01*
X110304759Y-107422737D01*
X110304760Y-107422738D01*
X110304762Y-107422739D01*
X110452764Y-107484043D01*
X110452769Y-107484045D01*
X110452773Y-107484045D01*
X110452774Y-107484046D01*
X110609894Y-107515300D01*
X110609897Y-107515300D01*
X110770105Y-107515300D01*
X110875813Y-107494272D01*
X110927231Y-107484045D01*
X111075242Y-107422737D01*
X111208448Y-107333731D01*
X111321731Y-107220448D01*
X111410737Y-107087242D01*
X111472045Y-106939231D01*
X111503300Y-106782103D01*
X111503300Y-106621897D01*
X111503300Y-106621894D01*
X111472046Y-106464774D01*
X111472045Y-106464773D01*
X111472045Y-106464769D01*
X111410737Y-106316758D01*
X111321731Y-106183552D01*
X111321728Y-106183548D01*
X111208451Y-106070271D01*
X111208447Y-106070268D01*
X111075239Y-105981261D01*
X111075237Y-105981260D01*
X110927235Y-105919956D01*
X110927225Y-105919953D01*
X110770105Y-105888700D01*
X110770103Y-105888700D01*
X110609897Y-105888700D01*
X110609895Y-105888700D01*
X110452774Y-105919953D01*
X110452764Y-105919956D01*
X110304762Y-105981260D01*
X110304760Y-105981261D01*
X110171552Y-106070268D01*
X110171548Y-106070271D01*
X110058271Y-106183548D01*
X110058268Y-106183552D01*
X109969261Y-106316760D01*
X109969260Y-106316762D01*
X109907956Y-106464764D01*
X109907953Y-106464774D01*
X109876700Y-106621894D01*
X107911500Y-106621894D01*
X107911500Y-106573084D01*
X107878049Y-106361884D01*
X107845010Y-106260200D01*
X107811973Y-106158519D01*
X107811972Y-106158516D01*
X107721655Y-105981261D01*
X107714894Y-105967991D01*
X107589206Y-105794996D01*
X107438004Y-105643794D01*
X107358496Y-105586028D01*
X107315831Y-105530697D01*
X107309852Y-105461084D01*
X107342458Y-105399289D01*
X107375085Y-105375226D01*
X107519009Y-105301894D01*
X107692004Y-105176206D01*
X107843206Y-105025004D01*
X107968894Y-104852009D01*
X108065972Y-104661483D01*
X108132049Y-104458116D01*
X108165500Y-104246916D01*
X108165500Y-104033084D01*
X108132049Y-103821884D01*
X108065972Y-103618517D01*
X108065972Y-103618516D01*
X107968893Y-103427990D01*
X107936735Y-103383728D01*
X107843206Y-103254996D01*
X107692004Y-103103794D01*
X107519009Y-102978106D01*
X107375086Y-102904773D01*
X107350956Y-102881983D01*
X107326172Y-102859915D01*
X107325664Y-102858096D01*
X107324291Y-102856799D01*
X107318175Y-102832105D01*
X126451699Y-102832105D01*
X126482953Y-102989225D01*
X126482956Y-102989235D01*
X126544260Y-103137237D01*
X126544261Y-103137239D01*
X126633268Y-103270447D01*
X126633271Y-103270451D01*
X126746548Y-103383728D01*
X126746552Y-103383731D01*
X126879758Y-103472737D01*
X126879759Y-103472737D01*
X126879760Y-103472738D01*
X126879762Y-103472739D01*
X127027764Y-103534043D01*
X127027769Y-103534045D01*
X127027773Y-103534045D01*
X127027774Y-103534046D01*
X127184894Y-103565300D01*
X127184897Y-103565300D01*
X127345105Y-103565300D01*
X127450813Y-103544272D01*
X127502231Y-103534045D01*
X127650242Y-103472737D01*
X127783448Y-103383731D01*
X127896731Y-103270448D01*
X127985737Y-103137242D01*
X128047045Y-102989231D01*
X128072768Y-102859915D01*
X128078300Y-102832105D01*
X130126699Y-102832105D01*
X130157953Y-102989225D01*
X130157956Y-102989235D01*
X130219260Y-103137237D01*
X130219261Y-103137239D01*
X130308268Y-103270447D01*
X130308271Y-103270451D01*
X130421548Y-103383728D01*
X130421552Y-103383731D01*
X130554758Y-103472737D01*
X130554759Y-103472737D01*
X130554760Y-103472738D01*
X130554762Y-103472739D01*
X130702764Y-103534043D01*
X130702769Y-103534045D01*
X130702773Y-103534045D01*
X130702774Y-103534046D01*
X130859894Y-103565300D01*
X130859897Y-103565300D01*
X131020105Y-103565300D01*
X131125813Y-103544272D01*
X131177231Y-103534045D01*
X131325242Y-103472737D01*
X131458448Y-103383731D01*
X131571731Y-103270448D01*
X131660737Y-103137242D01*
X131722045Y-102989231D01*
X131747768Y-102859915D01*
X131753300Y-102832105D01*
X131753300Y-102671894D01*
X131722046Y-102514774D01*
X131722045Y-102514773D01*
X131722045Y-102514769D01*
X131660737Y-102366758D01*
X131571731Y-102233552D01*
X131571728Y-102233548D01*
X131458451Y-102120271D01*
X131458447Y-102120268D01*
X131325239Y-102031261D01*
X131325237Y-102031260D01*
X131177235Y-101969956D01*
X131177225Y-101969953D01*
X131020105Y-101938700D01*
X131020103Y-101938700D01*
X130859897Y-101938700D01*
X130859895Y-101938700D01*
X130702774Y-101969953D01*
X130702764Y-101969956D01*
X130554762Y-102031260D01*
X130554760Y-102031261D01*
X130421552Y-102120268D01*
X130421548Y-102120271D01*
X130308271Y-102233548D01*
X130308268Y-102233552D01*
X130219261Y-102366760D01*
X130219260Y-102366762D01*
X130157956Y-102514764D01*
X130157953Y-102514774D01*
X130126700Y-102671894D01*
X130126700Y-102671897D01*
X130126700Y-102832103D01*
X130126700Y-102832105D01*
X130126699Y-102832105D01*
X128078300Y-102832105D01*
X128078300Y-102671894D01*
X128047046Y-102514774D01*
X128047045Y-102514773D01*
X128047045Y-102514769D01*
X127985737Y-102366758D01*
X127896731Y-102233552D01*
X127896728Y-102233548D01*
X127783451Y-102120271D01*
X127783447Y-102120268D01*
X127650239Y-102031261D01*
X127650237Y-102031260D01*
X127502235Y-101969956D01*
X127502225Y-101969953D01*
X127345105Y-101938700D01*
X127345103Y-101938700D01*
X127184897Y-101938700D01*
X127184895Y-101938700D01*
X127027774Y-101969953D01*
X127027764Y-101969956D01*
X126879762Y-102031260D01*
X126879760Y-102031261D01*
X126746552Y-102120268D01*
X126746548Y-102120271D01*
X126633271Y-102233548D01*
X126633268Y-102233552D01*
X126544261Y-102366760D01*
X126544260Y-102366762D01*
X126482956Y-102514764D01*
X126482953Y-102514774D01*
X126451700Y-102671894D01*
X126451700Y-102671897D01*
X126451700Y-102832103D01*
X126451700Y-102832105D01*
X126451699Y-102832105D01*
X107318175Y-102832105D01*
X107316313Y-102824586D01*
X107307393Y-102792616D01*
X107307949Y-102790810D01*
X107307496Y-102788978D01*
X107318204Y-102757554D01*
X107327981Y-102725848D01*
X107329577Y-102724180D01*
X107330033Y-102722843D01*
X107351451Y-102699489D01*
X107354869Y-102696606D01*
X107438004Y-102636206D01*
X107589206Y-102485004D01*
X107714894Y-102312009D01*
X107811972Y-102121483D01*
X107878049Y-101918116D01*
X107911500Y-101706916D01*
X107911500Y-101493084D01*
X107878049Y-101281884D01*
X107811972Y-101078517D01*
X107811972Y-101078516D01*
X107757419Y-100971451D01*
X107714894Y-100887991D01*
X107589206Y-100714996D01*
X107438004Y-100563794D01*
X107395764Y-100533105D01*
X130550699Y-100533105D01*
X130581953Y-100690225D01*
X130581956Y-100690235D01*
X130643260Y-100838237D01*
X130643261Y-100838239D01*
X130732268Y-100971447D01*
X130732271Y-100971451D01*
X130845548Y-101084728D01*
X130845552Y-101084731D01*
X130978758Y-101173737D01*
X130978759Y-101173737D01*
X130978760Y-101173738D01*
X130978762Y-101173739D01*
X131126764Y-101235043D01*
X131126769Y-101235045D01*
X131126773Y-101235045D01*
X131126774Y-101235046D01*
X131283894Y-101266300D01*
X131283897Y-101266300D01*
X131444105Y-101266300D01*
X131549813Y-101245272D01*
X131601231Y-101235045D01*
X131749242Y-101173737D01*
X131882448Y-101084731D01*
X131995731Y-100971448D01*
X132084737Y-100838242D01*
X132146045Y-100690231D01*
X132177300Y-100533103D01*
X132177300Y-100372897D01*
X132177300Y-100372894D01*
X132146046Y-100215774D01*
X132146045Y-100215773D01*
X132146045Y-100215769D01*
X132143366Y-100209301D01*
X132084739Y-100067762D01*
X132084738Y-100067760D01*
X131995731Y-99934552D01*
X131995728Y-99934548D01*
X131882451Y-99821271D01*
X131882447Y-99821268D01*
X131749239Y-99732261D01*
X131749237Y-99732260D01*
X131601235Y-99670956D01*
X131601225Y-99670953D01*
X131444105Y-99639700D01*
X131444103Y-99639700D01*
X131283897Y-99639700D01*
X131283895Y-99639700D01*
X131126774Y-99670953D01*
X131126764Y-99670956D01*
X130978762Y-99732260D01*
X130978760Y-99732261D01*
X130845552Y-99821268D01*
X130845548Y-99821271D01*
X130732271Y-99934548D01*
X130732268Y-99934552D01*
X130643261Y-100067760D01*
X130643260Y-100067762D01*
X130581956Y-100215764D01*
X130581953Y-100215774D01*
X130550700Y-100372894D01*
X130550700Y-100372897D01*
X130550700Y-100533103D01*
X130550700Y-100533105D01*
X130550699Y-100533105D01*
X107395764Y-100533105D01*
X107358496Y-100506028D01*
X107356815Y-100503848D01*
X107354267Y-100502814D01*
X107335605Y-100476341D01*
X107315831Y-100450697D01*
X107315595Y-100447957D01*
X107314010Y-100445708D01*
X107312622Y-100413344D01*
X107309852Y-100381084D01*
X107311135Y-100378650D01*
X107311018Y-100375902D01*
X107327343Y-100347934D01*
X107342458Y-100319289D01*
X107345278Y-100317208D01*
X107346241Y-100315560D01*
X107375085Y-100295226D01*
X107519009Y-100221894D01*
X107692004Y-100096206D01*
X107843206Y-99945004D01*
X107968894Y-99772009D01*
X108065972Y-99581483D01*
X108132049Y-99378116D01*
X108151215Y-99257105D01*
X119576699Y-99257105D01*
X119607953Y-99414225D01*
X119607956Y-99414235D01*
X119669260Y-99562237D01*
X119669261Y-99562239D01*
X119758268Y-99695447D01*
X119758271Y-99695451D01*
X119871548Y-99808728D01*
X119871552Y-99808731D01*
X120004758Y-99897737D01*
X120004759Y-99897737D01*
X120004760Y-99897738D01*
X120004762Y-99897739D01*
X120152764Y-99959043D01*
X120152769Y-99959045D01*
X120152773Y-99959045D01*
X120152774Y-99959046D01*
X120309894Y-99990300D01*
X120309897Y-99990300D01*
X120470105Y-99990300D01*
X120575813Y-99969272D01*
X120627231Y-99959045D01*
X120775242Y-99897737D01*
X120908448Y-99808731D01*
X121021731Y-99695448D01*
X121110737Y-99562242D01*
X121141973Y-99486832D01*
X121185814Y-99432428D01*
X121252108Y-99410363D01*
X121256534Y-99410284D01*
X121347719Y-99410284D01*
X121453427Y-99389256D01*
X121504845Y-99379029D01*
X121652856Y-99317721D01*
X121786062Y-99228715D01*
X121899345Y-99115432D01*
X121988351Y-98982226D01*
X122049659Y-98834215D01*
X122068025Y-98741884D01*
X122080914Y-98677089D01*
X122080914Y-98516878D01*
X122049660Y-98359758D01*
X122049659Y-98359757D01*
X122049659Y-98359753D01*
X122049236Y-98358731D01*
X121988353Y-98211746D01*
X121988352Y-98211744D01*
X121984659Y-98206217D01*
X121963781Y-98139539D01*
X121982266Y-98072159D01*
X122034245Y-98025469D01*
X122103215Y-98014293D01*
X122108709Y-98015183D01*
X122109895Y-98015300D01*
X122109897Y-98015300D01*
X122270105Y-98015300D01*
X122404090Y-97988648D01*
X122427231Y-97984045D01*
X122575242Y-97922737D01*
X122708448Y-97833731D01*
X122821731Y-97720448D01*
X122910737Y-97587242D01*
X122972045Y-97439231D01*
X122991433Y-97341762D01*
X123003300Y-97282105D01*
X123003300Y-97121894D01*
X122972046Y-96964774D01*
X122972045Y-96964773D01*
X122972045Y-96964769D01*
X122962618Y-96942010D01*
X122910739Y-96816762D01*
X122910738Y-96816760D01*
X122877330Y-96766762D01*
X122821731Y-96683552D01*
X122821728Y-96683548D01*
X122708451Y-96570271D01*
X122708447Y-96570268D01*
X122575239Y-96481261D01*
X122575237Y-96481260D01*
X122427235Y-96419956D01*
X122427225Y-96419953D01*
X122270105Y-96388700D01*
X122270103Y-96388700D01*
X122109897Y-96388700D01*
X122109895Y-96388700D01*
X121952774Y-96419953D01*
X121952764Y-96419956D01*
X121804762Y-96481260D01*
X121804760Y-96481261D01*
X121671552Y-96570268D01*
X121671548Y-96570271D01*
X121558271Y-96683548D01*
X121558268Y-96683552D01*
X121469261Y-96816760D01*
X121439916Y-96887607D01*
X121396075Y-96942010D01*
X121329781Y-96964075D01*
X121262081Y-96946796D01*
X121214471Y-96895658D01*
X121210794Y-96887606D01*
X121160739Y-96766762D01*
X121160738Y-96766760D01*
X121071731Y-96633552D01*
X121071728Y-96633548D01*
X120958451Y-96520271D01*
X120958447Y-96520268D01*
X120825239Y-96431261D01*
X120825237Y-96431260D01*
X120677235Y-96369956D01*
X120677225Y-96369953D01*
X120520105Y-96338700D01*
X120520103Y-96338700D01*
X120359897Y-96338700D01*
X120359895Y-96338700D01*
X120202774Y-96369953D01*
X120202764Y-96369956D01*
X120054762Y-96431260D01*
X120054760Y-96431261D01*
X119921552Y-96520268D01*
X119921548Y-96520271D01*
X119808271Y-96633548D01*
X119808268Y-96633552D01*
X119719261Y-96766760D01*
X119719260Y-96766762D01*
X119657956Y-96914764D01*
X119657953Y-96914774D01*
X119626700Y-97071894D01*
X119626700Y-97071897D01*
X119626700Y-97232103D01*
X119626700Y-97232105D01*
X119626699Y-97232105D01*
X119657953Y-97389225D01*
X119657956Y-97389235D01*
X119719260Y-97537237D01*
X119719261Y-97537239D01*
X119808268Y-97670447D01*
X119808271Y-97670451D01*
X119921548Y-97783728D01*
X119921552Y-97783731D01*
X120054758Y-97872737D01*
X120054759Y-97872737D01*
X120054760Y-97872738D01*
X120054762Y-97872739D01*
X120116004Y-97898106D01*
X120202769Y-97934045D01*
X120202773Y-97934045D01*
X120202774Y-97934046D01*
X120359894Y-97965300D01*
X120479557Y-97965300D01*
X120482789Y-97966249D01*
X120486067Y-97965471D01*
X120516082Y-97976025D01*
X120546596Y-97984985D01*
X120548801Y-97987529D01*
X120551981Y-97988648D01*
X120571526Y-98013756D01*
X120592351Y-98037789D01*
X120592830Y-98041123D01*
X120594900Y-98043782D01*
X120597767Y-98075459D01*
X120602295Y-98106947D01*
X120600985Y-98111008D01*
X120601199Y-98113367D01*
X120596783Y-98124042D01*
X120589491Y-98146662D01*
X120586385Y-98152614D01*
X120546877Y-98211742D01*
X120513547Y-98292205D01*
X120511014Y-98297062D01*
X120490426Y-98318442D01*
X120471800Y-98341556D01*
X120466456Y-98343334D01*
X120462550Y-98347391D01*
X120433671Y-98354246D01*
X120405506Y-98363621D01*
X120401080Y-98363700D01*
X120309895Y-98363700D01*
X120152774Y-98394953D01*
X120152764Y-98394956D01*
X120004762Y-98456260D01*
X120004760Y-98456261D01*
X119871552Y-98545268D01*
X119871548Y-98545271D01*
X119758271Y-98658548D01*
X119758268Y-98658552D01*
X119669261Y-98791760D01*
X119669260Y-98791762D01*
X119607956Y-98939764D01*
X119607953Y-98939774D01*
X119576700Y-99096894D01*
X119576700Y-99096897D01*
X119576700Y-99257103D01*
X119576700Y-99257105D01*
X119576699Y-99257105D01*
X108151215Y-99257105D01*
X108165500Y-99166916D01*
X108165500Y-98953084D01*
X108132049Y-98741884D01*
X108099010Y-98640200D01*
X108065973Y-98538519D01*
X108065972Y-98538516D01*
X107976898Y-98363700D01*
X107968894Y-98347991D01*
X107843206Y-98174996D01*
X107692004Y-98023794D01*
X107519009Y-97898106D01*
X107375086Y-97824773D01*
X107373929Y-97823680D01*
X107372372Y-97823348D01*
X107356004Y-97807105D01*
X117726699Y-97807105D01*
X117757953Y-97964225D01*
X117757956Y-97964235D01*
X117819260Y-98112237D01*
X117819261Y-98112239D01*
X117908268Y-98245447D01*
X117908271Y-98245451D01*
X118021548Y-98358728D01*
X118021552Y-98358731D01*
X118154758Y-98447737D01*
X118154759Y-98447737D01*
X118154760Y-98447738D01*
X118154762Y-98447739D01*
X118302764Y-98509043D01*
X118302769Y-98509045D01*
X118302773Y-98509045D01*
X118302774Y-98509046D01*
X118459894Y-98540300D01*
X118459897Y-98540300D01*
X118620105Y-98540300D01*
X118737852Y-98516878D01*
X118777231Y-98509045D01*
X118925242Y-98447737D01*
X119058448Y-98358731D01*
X119171731Y-98245448D01*
X119260737Y-98112242D01*
X119322045Y-97964231D01*
X119340244Y-97872738D01*
X119353300Y-97807105D01*
X119353300Y-97646894D01*
X119322046Y-97489774D01*
X119322045Y-97489773D01*
X119322045Y-97489769D01*
X119286935Y-97405006D01*
X119260739Y-97341762D01*
X119260738Y-97341760D01*
X119220876Y-97282103D01*
X119171731Y-97208552D01*
X119171728Y-97208548D01*
X119058451Y-97095271D01*
X119058447Y-97095268D01*
X118925239Y-97006261D01*
X118925237Y-97006260D01*
X118777235Y-96944956D01*
X118777225Y-96944953D01*
X118620105Y-96913700D01*
X118620103Y-96913700D01*
X118459897Y-96913700D01*
X118459895Y-96913700D01*
X118302774Y-96944953D01*
X118302764Y-96944956D01*
X118154762Y-97006260D01*
X118154760Y-97006261D01*
X118021552Y-97095268D01*
X118021548Y-97095271D01*
X117908271Y-97208548D01*
X117908268Y-97208552D01*
X117819261Y-97341760D01*
X117819260Y-97341762D01*
X117757956Y-97489764D01*
X117757953Y-97489774D01*
X117726700Y-97646894D01*
X117726700Y-97646897D01*
X117726700Y-97807103D01*
X117726700Y-97807105D01*
X117726699Y-97807105D01*
X107356004Y-97807105D01*
X107348626Y-97799783D01*
X107324291Y-97776799D01*
X107323908Y-97775252D01*
X107322778Y-97774131D01*
X107315539Y-97741460D01*
X107307496Y-97708978D01*
X107308009Y-97707471D01*
X107307665Y-97705916D01*
X107319232Y-97674538D01*
X107330033Y-97642843D01*
X107331459Y-97641369D01*
X107331832Y-97640359D01*
X107346304Y-97626036D01*
X107356693Y-97615307D01*
X107357591Y-97614628D01*
X107438004Y-97556206D01*
X107589206Y-97405004D01*
X107714894Y-97232009D01*
X107811972Y-97041483D01*
X107878049Y-96838116D01*
X107911500Y-96626916D01*
X107911500Y-96413084D01*
X107878049Y-96201884D01*
X107811972Y-95998517D01*
X107811972Y-95998516D01*
X107729798Y-95837242D01*
X107714894Y-95807991D01*
X107589206Y-95634996D01*
X107438004Y-95483794D01*
X107358496Y-95426028D01*
X107315831Y-95370697D01*
X107309852Y-95301084D01*
X107342458Y-95239289D01*
X107375085Y-95215226D01*
X107519009Y-95141894D01*
X107692004Y-95016206D01*
X107843206Y-94865004D01*
X107925309Y-94751999D01*
X127614999Y-94751999D01*
X127615000Y-94752000D01*
X130235363Y-94771701D01*
X130302250Y-94791889D01*
X130347606Y-94845035D01*
X130357030Y-94914266D01*
X130337531Y-94964587D01*
X130269260Y-95066762D01*
X130207956Y-95214764D01*
X130207953Y-95214774D01*
X130176700Y-95371894D01*
X130176700Y-95371897D01*
X130176700Y-95532103D01*
X130176700Y-95532105D01*
X130176699Y-95532105D01*
X130207953Y-95689225D01*
X130207956Y-95689235D01*
X130269260Y-95837237D01*
X130269261Y-95837239D01*
X130358268Y-95970447D01*
X130358271Y-95970451D01*
X130471548Y-96083728D01*
X130471552Y-96083731D01*
X130604758Y-96172737D01*
X130604759Y-96172737D01*
X130604760Y-96172738D01*
X130604762Y-96172739D01*
X130675120Y-96201882D01*
X130752769Y-96234045D01*
X130752773Y-96234045D01*
X130752774Y-96234046D01*
X130909894Y-96265300D01*
X130909897Y-96265300D01*
X131070105Y-96265300D01*
X131175813Y-96244272D01*
X131227231Y-96234045D01*
X131375242Y-96172737D01*
X131508448Y-96083731D01*
X131621731Y-95970448D01*
X131710737Y-95837242D01*
X131772045Y-95689231D01*
X131803300Y-95532103D01*
X131803300Y-95371897D01*
X131803300Y-95371894D01*
X131772046Y-95214774D01*
X131772045Y-95214773D01*
X131772045Y-95214769D01*
X131710737Y-95066758D01*
X131637529Y-94957196D01*
X131616652Y-94890520D01*
X131635136Y-94823139D01*
X131687115Y-94776449D01*
X131738660Y-94764322D01*
X132848616Y-94746704D01*
X132859995Y-94747047D01*
X137495718Y-95101277D01*
X137515000Y-91677000D01*
X137514999Y-91677000D01*
X132952162Y-92599541D01*
X132927588Y-92602000D01*
X127789999Y-92602000D01*
X127614999Y-94751999D01*
X107925309Y-94751999D01*
X107929156Y-94746704D01*
X107946424Y-94722937D01*
X107946424Y-94722936D01*
X107968894Y-94692009D01*
X108065972Y-94501483D01*
X108132049Y-94298116D01*
X108165500Y-94086916D01*
X108165500Y-93873084D01*
X108132049Y-93661884D01*
X108065972Y-93458517D01*
X108065972Y-93458516D01*
X108039777Y-93407105D01*
X121026699Y-93407105D01*
X121057953Y-93564225D01*
X121057956Y-93564235D01*
X121119260Y-93712237D01*
X121119261Y-93712239D01*
X121208268Y-93845447D01*
X121208271Y-93845451D01*
X121321548Y-93958728D01*
X121321552Y-93958731D01*
X121454758Y-94047737D01*
X121454759Y-94047737D01*
X121454760Y-94047738D01*
X121454762Y-94047739D01*
X121602764Y-94109043D01*
X121602769Y-94109045D01*
X121602773Y-94109045D01*
X121602774Y-94109046D01*
X121759894Y-94140300D01*
X121759897Y-94140300D01*
X121920105Y-94140300D01*
X122025813Y-94119272D01*
X122077231Y-94109045D01*
X122225242Y-94047737D01*
X122358448Y-93958731D01*
X122471731Y-93845448D01*
X122560737Y-93712242D01*
X122622045Y-93564231D01*
X122653300Y-93407103D01*
X122653300Y-93246897D01*
X122653300Y-93246894D01*
X122622046Y-93089774D01*
X122622045Y-93089773D01*
X122622045Y-93089769D01*
X122622043Y-93089764D01*
X122560739Y-92941762D01*
X122560738Y-92941760D01*
X122509728Y-92865418D01*
X122488850Y-92798740D01*
X122507335Y-92731360D01*
X122543943Y-92693423D01*
X122558445Y-92683733D01*
X122558444Y-92683733D01*
X122558448Y-92683731D01*
X122671731Y-92570448D01*
X122760737Y-92437242D01*
X122822045Y-92289231D01*
X122832272Y-92237813D01*
X122853300Y-92132105D01*
X122853300Y-91971894D01*
X122822046Y-91814774D01*
X122822045Y-91814773D01*
X122822045Y-91814769D01*
X122809189Y-91783731D01*
X122760739Y-91666762D01*
X122760738Y-91666760D01*
X122671731Y-91533552D01*
X122671728Y-91533548D01*
X122558451Y-91420271D01*
X122558447Y-91420268D01*
X122517042Y-91392602D01*
X122472237Y-91338990D01*
X122463530Y-91269665D01*
X122481500Y-91232105D01*
X127226699Y-91232105D01*
X127257953Y-91389225D01*
X127257956Y-91389235D01*
X127319260Y-91537237D01*
X127319261Y-91537239D01*
X127408268Y-91670447D01*
X127408271Y-91670451D01*
X127521548Y-91783728D01*
X127521552Y-91783731D01*
X127654758Y-91872737D01*
X127654759Y-91872737D01*
X127654760Y-91872738D01*
X127654762Y-91872739D01*
X127802764Y-91934043D01*
X127802769Y-91934045D01*
X127802773Y-91934045D01*
X127802774Y-91934046D01*
X127959894Y-91965300D01*
X127959897Y-91965300D01*
X128120105Y-91965300D01*
X128225813Y-91944272D01*
X128277231Y-91934045D01*
X128425242Y-91872737D01*
X128558448Y-91783731D01*
X128671731Y-91670448D01*
X128760737Y-91537242D01*
X128822045Y-91389231D01*
X128833576Y-91331263D01*
X128853300Y-91232105D01*
X128853300Y-91071894D01*
X128822046Y-90914774D01*
X128822045Y-90914773D01*
X128822045Y-90914769D01*
X128760737Y-90766758D01*
X128671731Y-90633552D01*
X128671728Y-90633548D01*
X128558451Y-90520271D01*
X128558447Y-90520268D01*
X128425239Y-90431261D01*
X128425237Y-90431260D01*
X128277235Y-90369956D01*
X128277225Y-90369953D01*
X128120105Y-90338700D01*
X128120103Y-90338700D01*
X127959897Y-90338700D01*
X127959895Y-90338700D01*
X127802774Y-90369953D01*
X127802764Y-90369956D01*
X127654762Y-90431260D01*
X127654760Y-90431261D01*
X127521552Y-90520268D01*
X127521548Y-90520271D01*
X127408271Y-90633548D01*
X127408268Y-90633552D01*
X127319261Y-90766760D01*
X127319260Y-90766762D01*
X127257956Y-90914764D01*
X127257953Y-90914774D01*
X127226700Y-91071894D01*
X127226700Y-91071897D01*
X127226700Y-91232103D01*
X127226700Y-91232105D01*
X127226699Y-91232105D01*
X122481500Y-91232105D01*
X122493684Y-91206637D01*
X122517042Y-91186398D01*
X122526941Y-91179783D01*
X122558448Y-91158731D01*
X122671731Y-91045448D01*
X122760737Y-90912242D01*
X122822045Y-90764231D01*
X122853300Y-90607103D01*
X122853300Y-90446897D01*
X122853300Y-90446894D01*
X122822046Y-90289774D01*
X122822045Y-90289773D01*
X122822045Y-90289769D01*
X122777003Y-90181028D01*
X122760739Y-90141762D01*
X122760738Y-90141761D01*
X122760737Y-90141758D01*
X122712454Y-90069498D01*
X122691577Y-90002823D01*
X122710061Y-89935443D01*
X122762040Y-89888752D01*
X122768084Y-89886057D01*
X122800242Y-89872737D01*
X122933448Y-89783731D01*
X123046731Y-89670448D01*
X123135737Y-89537242D01*
X123197045Y-89389231D01*
X123215244Y-89297738D01*
X123228300Y-89232105D01*
X123228300Y-89071894D01*
X123197046Y-88914774D01*
X123197045Y-88914773D01*
X123197045Y-88914769D01*
X123187929Y-88892760D01*
X123135739Y-88766762D01*
X123135738Y-88766760D01*
X123079173Y-88682105D01*
X128551699Y-88682105D01*
X128582953Y-88839225D01*
X128582956Y-88839235D01*
X128644260Y-88987237D01*
X128644261Y-88987239D01*
X128733268Y-89120447D01*
X128733271Y-89120451D01*
X128846548Y-89233728D01*
X128846552Y-89233731D01*
X128979758Y-89322737D01*
X128979759Y-89322737D01*
X128979760Y-89322738D01*
X128979762Y-89322739D01*
X129100469Y-89372737D01*
X129127769Y-89384045D01*
X129127773Y-89384045D01*
X129127774Y-89384046D01*
X129284894Y-89415300D01*
X129284897Y-89415300D01*
X129445105Y-89415300D01*
X129576159Y-89389231D01*
X129602231Y-89384045D01*
X129750242Y-89322737D01*
X129883448Y-89233731D01*
X129996731Y-89120448D01*
X130085737Y-88987242D01*
X130093197Y-88969232D01*
X130137036Y-88914827D01*
X130203329Y-88892760D01*
X130271029Y-88910037D01*
X130317115Y-88958223D01*
X130319263Y-88962242D01*
X130408268Y-89095447D01*
X130408271Y-89095451D01*
X130521548Y-89208728D01*
X130521552Y-89208731D01*
X130654758Y-89297737D01*
X130654759Y-89297737D01*
X130654760Y-89297738D01*
X130654762Y-89297739D01*
X130715118Y-89322739D01*
X130802769Y-89359045D01*
X130802773Y-89359045D01*
X130802774Y-89359046D01*
X130959894Y-89390300D01*
X130959897Y-89390300D01*
X131120105Y-89390300D01*
X131225813Y-89369272D01*
X131277231Y-89359045D01*
X131425242Y-89297737D01*
X131558448Y-89208731D01*
X131671731Y-89095448D01*
X131760737Y-88962242D01*
X131822045Y-88814231D01*
X131838381Y-88732105D01*
X132826699Y-88732105D01*
X132857953Y-88889225D01*
X132857956Y-88889235D01*
X132919260Y-89037237D01*
X132919261Y-89037239D01*
X133008268Y-89170447D01*
X133008271Y-89170451D01*
X133121548Y-89283728D01*
X133121552Y-89283731D01*
X133254758Y-89372737D01*
X133254759Y-89372737D01*
X133254760Y-89372738D01*
X133254762Y-89372739D01*
X133402764Y-89434043D01*
X133402769Y-89434045D01*
X133402773Y-89434045D01*
X133402774Y-89434046D01*
X133559894Y-89465300D01*
X133559897Y-89465300D01*
X133720105Y-89465300D01*
X133825813Y-89444272D01*
X133877231Y-89434045D01*
X134025242Y-89372737D01*
X134158448Y-89283731D01*
X134271731Y-89170448D01*
X134360737Y-89037242D01*
X134422045Y-88889231D01*
X134453300Y-88732103D01*
X134453300Y-88571897D01*
X134453300Y-88571894D01*
X134422046Y-88414774D01*
X134422045Y-88414773D01*
X134422045Y-88414769D01*
X134403483Y-88369956D01*
X134360739Y-88266762D01*
X134360738Y-88266760D01*
X134359011Y-88264176D01*
X134271731Y-88133552D01*
X134271728Y-88133548D01*
X134158451Y-88020271D01*
X134158447Y-88020268D01*
X134025239Y-87931261D01*
X134025237Y-87931260D01*
X133877235Y-87869956D01*
X133877225Y-87869953D01*
X133720105Y-87838700D01*
X133720103Y-87838700D01*
X133559897Y-87838700D01*
X133559895Y-87838700D01*
X133402774Y-87869953D01*
X133402764Y-87869956D01*
X133254762Y-87931260D01*
X133254760Y-87931261D01*
X133121552Y-88020268D01*
X133121548Y-88020271D01*
X133008271Y-88133548D01*
X133008268Y-88133552D01*
X132919261Y-88266760D01*
X132919260Y-88266762D01*
X132857956Y-88414764D01*
X132857953Y-88414774D01*
X132826700Y-88571894D01*
X132826700Y-88571897D01*
X132826700Y-88732103D01*
X132826700Y-88732105D01*
X132826699Y-88732105D01*
X131838381Y-88732105D01*
X131853300Y-88657105D01*
X131853300Y-88496894D01*
X131822046Y-88339774D01*
X131822045Y-88339773D01*
X131822045Y-88339769D01*
X131791803Y-88266758D01*
X131760739Y-88191762D01*
X131760738Y-88191760D01*
X131671731Y-88058552D01*
X131671728Y-88058548D01*
X131558451Y-87945271D01*
X131558447Y-87945268D01*
X131425239Y-87856261D01*
X131425237Y-87856260D01*
X131277235Y-87794956D01*
X131277225Y-87794953D01*
X131120105Y-87763700D01*
X131120103Y-87763700D01*
X130959897Y-87763700D01*
X130959895Y-87763700D01*
X130802774Y-87794953D01*
X130802764Y-87794956D01*
X130654762Y-87856260D01*
X130654760Y-87856261D01*
X130521552Y-87945268D01*
X130521548Y-87945271D01*
X130408271Y-88058548D01*
X130408268Y-88058552D01*
X130319261Y-88191760D01*
X130319260Y-88191761D01*
X130311800Y-88209773D01*
X130267958Y-88264176D01*
X130201663Y-88286239D01*
X130133964Y-88268958D01*
X130087882Y-88220772D01*
X130085740Y-88216765D01*
X130085737Y-88216758D01*
X129996731Y-88083552D01*
X129996728Y-88083548D01*
X129883451Y-87970271D01*
X129883447Y-87970268D01*
X129750239Y-87881261D01*
X129750237Y-87881260D01*
X129602235Y-87819956D01*
X129602225Y-87819953D01*
X129445105Y-87788700D01*
X129445103Y-87788700D01*
X129284897Y-87788700D01*
X129284895Y-87788700D01*
X129127774Y-87819953D01*
X129127764Y-87819956D01*
X128979762Y-87881260D01*
X128979760Y-87881261D01*
X128846552Y-87970268D01*
X128846548Y-87970271D01*
X128733271Y-88083548D01*
X128733268Y-88083552D01*
X128644261Y-88216760D01*
X128644260Y-88216762D01*
X128582956Y-88364764D01*
X128582953Y-88364774D01*
X128551700Y-88521894D01*
X128551700Y-88521897D01*
X128551700Y-88682103D01*
X128551700Y-88682105D01*
X128551699Y-88682105D01*
X123079173Y-88682105D01*
X123046731Y-88633552D01*
X123046728Y-88633548D01*
X122933451Y-88520271D01*
X122933447Y-88520268D01*
X122800239Y-88431261D01*
X122800237Y-88431260D01*
X122652235Y-88369956D01*
X122652225Y-88369953D01*
X122495105Y-88338700D01*
X122495103Y-88338700D01*
X122334897Y-88338700D01*
X122334895Y-88338700D01*
X122177774Y-88369953D01*
X122177764Y-88369956D01*
X122029762Y-88431260D01*
X122029760Y-88431261D01*
X121896552Y-88520268D01*
X121896548Y-88520271D01*
X121783271Y-88633548D01*
X121783268Y-88633552D01*
X121694261Y-88766760D01*
X121694260Y-88766762D01*
X121632956Y-88914764D01*
X121632953Y-88914774D01*
X121601700Y-89071894D01*
X121601700Y-89071897D01*
X121601700Y-89232103D01*
X121601700Y-89232105D01*
X121601699Y-89232105D01*
X121632953Y-89389225D01*
X121632956Y-89389235D01*
X121694260Y-89537237D01*
X121694261Y-89537239D01*
X121742544Y-89609499D01*
X121763422Y-89676177D01*
X121744937Y-89743557D01*
X121692959Y-89790247D01*
X121686895Y-89792951D01*
X121654760Y-89806261D01*
X121521552Y-89895268D01*
X121521548Y-89895271D01*
X121408271Y-90008548D01*
X121408268Y-90008552D01*
X121319261Y-90141760D01*
X121319260Y-90141762D01*
X121257956Y-90289764D01*
X121257953Y-90289774D01*
X121226700Y-90446894D01*
X121226700Y-90446897D01*
X121226700Y-90607103D01*
X121226700Y-90607105D01*
X121226699Y-90607105D01*
X121257953Y-90764225D01*
X121257956Y-90764235D01*
X121319260Y-90912237D01*
X121319261Y-90912239D01*
X121408268Y-91045447D01*
X121408271Y-91045451D01*
X121521548Y-91158728D01*
X121521552Y-91158731D01*
X121562958Y-91186398D01*
X121607763Y-91240010D01*
X121616470Y-91309335D01*
X121586316Y-91372363D01*
X121562958Y-91392602D01*
X121521552Y-91420268D01*
X121521548Y-91420271D01*
X121408271Y-91533548D01*
X121408268Y-91533552D01*
X121319261Y-91666760D01*
X121319260Y-91666762D01*
X121257956Y-91814764D01*
X121257953Y-91814774D01*
X121226700Y-91971894D01*
X121226700Y-91971897D01*
X121226700Y-92132103D01*
X121226700Y-92132105D01*
X121226699Y-92132105D01*
X121257953Y-92289225D01*
X121257956Y-92289235D01*
X121319260Y-92437237D01*
X121319264Y-92437244D01*
X121370271Y-92513582D01*
X121391149Y-92580259D01*
X121372664Y-92647639D01*
X121336066Y-92685570D01*
X121321552Y-92695269D01*
X121321545Y-92695275D01*
X121208271Y-92808548D01*
X121208268Y-92808552D01*
X121119261Y-92941760D01*
X121119260Y-92941762D01*
X121057956Y-93089764D01*
X121057953Y-93089774D01*
X121026700Y-93246894D01*
X121026700Y-93246897D01*
X121026700Y-93407103D01*
X121026700Y-93407105D01*
X121026699Y-93407105D01*
X108039777Y-93407105D01*
X107983726Y-93297100D01*
X107983725Y-93297098D01*
X107968895Y-93267992D01*
X107937472Y-93224742D01*
X107843206Y-93094996D01*
X107692004Y-92943794D01*
X107519009Y-92818106D01*
X107375086Y-92744773D01*
X107324291Y-92696799D01*
X107307496Y-92628978D01*
X107330033Y-92562843D01*
X107358497Y-92533971D01*
X107386560Y-92513582D01*
X107438004Y-92476206D01*
X107589206Y-92325004D01*
X107714894Y-92152009D01*
X107811972Y-91961483D01*
X107878049Y-91758116D01*
X107911500Y-91546916D01*
X107911500Y-91333084D01*
X107878049Y-91121884D01*
X107811972Y-90918517D01*
X107811972Y-90918516D01*
X107714893Y-90727990D01*
X107627065Y-90607105D01*
X107589206Y-90554996D01*
X107438004Y-90403794D01*
X107358496Y-90346028D01*
X107315831Y-90290697D01*
X107309852Y-90221084D01*
X107342458Y-90159289D01*
X107375085Y-90135226D01*
X107519009Y-90061894D01*
X107692004Y-89936206D01*
X107843206Y-89785004D01*
X107968894Y-89612009D01*
X108065972Y-89421483D01*
X108132049Y-89218116D01*
X108165500Y-89006916D01*
X108165500Y-88793084D01*
X108132049Y-88581884D01*
X108083109Y-88431260D01*
X108065973Y-88378519D01*
X108065972Y-88378516D01*
X108007712Y-88264176D01*
X107968894Y-88187991D01*
X107843206Y-88014996D01*
X107692004Y-87863794D01*
X107519009Y-87738106D01*
X107375086Y-87664773D01*
X107324291Y-87616799D01*
X107307496Y-87548978D01*
X107330033Y-87482843D01*
X107358497Y-87453971D01*
X107370229Y-87445447D01*
X107438004Y-87396206D01*
X107589206Y-87245004D01*
X107714894Y-87072009D01*
X107811972Y-86881483D01*
X107878049Y-86678116D01*
X107911500Y-86466916D01*
X107911500Y-86253084D01*
X107878049Y-86041884D01*
X107831214Y-85897738D01*
X107811973Y-85838519D01*
X107811972Y-85838516D01*
X107762507Y-85741438D01*
X107714894Y-85647991D01*
X107589206Y-85474996D01*
X107438004Y-85323794D01*
X107358496Y-85266028D01*
X107356815Y-85263848D01*
X107354267Y-85262814D01*
X107350242Y-85257105D01*
X115176699Y-85257105D01*
X115207953Y-85414225D01*
X115207956Y-85414235D01*
X115269260Y-85562237D01*
X115269261Y-85562239D01*
X115358268Y-85695447D01*
X115358271Y-85695451D01*
X115471548Y-85808728D01*
X115471552Y-85808731D01*
X115604758Y-85897737D01*
X115604759Y-85897737D01*
X115604760Y-85897738D01*
X115604762Y-85897739D01*
X115752764Y-85959043D01*
X115752769Y-85959045D01*
X115789918Y-85966434D01*
X115809697Y-85970369D01*
X115871608Y-86002753D01*
X115906182Y-86063469D01*
X115902443Y-86133239D01*
X115861577Y-86189911D01*
X115809699Y-86213603D01*
X115777773Y-86219953D01*
X115777764Y-86219956D01*
X115629762Y-86281260D01*
X115629760Y-86281261D01*
X115496552Y-86370268D01*
X115496548Y-86370271D01*
X115383271Y-86483548D01*
X115383268Y-86483552D01*
X115294261Y-86616760D01*
X115294260Y-86616762D01*
X115232956Y-86764764D01*
X115232953Y-86764774D01*
X115201700Y-86921894D01*
X115201700Y-86921897D01*
X115201700Y-87082103D01*
X115201700Y-87082105D01*
X115201699Y-87082105D01*
X115232953Y-87239225D01*
X115232956Y-87239235D01*
X115294260Y-87387237D01*
X115294261Y-87387239D01*
X115383268Y-87520447D01*
X115383271Y-87520451D01*
X115496548Y-87633728D01*
X115496552Y-87633731D01*
X115629758Y-87722737D01*
X115629759Y-87722737D01*
X115629760Y-87722738D01*
X115629762Y-87722739D01*
X115761135Y-87777155D01*
X115777769Y-87784045D01*
X115777773Y-87784045D01*
X115777774Y-87784046D01*
X115934894Y-87815300D01*
X115934897Y-87815300D01*
X116095105Y-87815300D01*
X116200813Y-87794272D01*
X116252231Y-87784045D01*
X116400242Y-87722737D01*
X116533448Y-87633731D01*
X116646731Y-87520448D01*
X116735737Y-87387242D01*
X116797045Y-87239231D01*
X116817968Y-87134045D01*
X116828300Y-87082105D01*
X116828300Y-86921894D01*
X116797046Y-86764774D01*
X116797045Y-86764773D01*
X116797045Y-86764769D01*
X116797043Y-86764764D01*
X116793871Y-86757105D01*
X121201699Y-86757105D01*
X121232953Y-86914225D01*
X121232956Y-86914235D01*
X121294260Y-87062237D01*
X121294261Y-87062239D01*
X121383268Y-87195447D01*
X121383271Y-87195451D01*
X121496548Y-87308728D01*
X121496552Y-87308731D01*
X121629758Y-87397737D01*
X121629759Y-87397737D01*
X121629760Y-87397738D01*
X121629762Y-87397739D01*
X121744940Y-87445447D01*
X121777769Y-87459045D01*
X121777773Y-87459045D01*
X121777774Y-87459046D01*
X121934894Y-87490300D01*
X121934897Y-87490300D01*
X122095105Y-87490300D01*
X122200813Y-87469272D01*
X122252231Y-87459045D01*
X122400242Y-87397737D01*
X122533448Y-87308731D01*
X122646731Y-87195448D01*
X122735737Y-87062242D01*
X122758575Y-87007105D01*
X135801699Y-87007105D01*
X135832953Y-87164225D01*
X135832956Y-87164235D01*
X135894260Y-87312237D01*
X135894261Y-87312239D01*
X135983268Y-87445447D01*
X135983271Y-87445451D01*
X136096548Y-87558728D01*
X136096552Y-87558731D01*
X136229758Y-87647737D01*
X136229759Y-87647737D01*
X136229760Y-87647738D01*
X136229762Y-87647739D01*
X136302706Y-87677953D01*
X136377769Y-87709045D01*
X136377773Y-87709045D01*
X136377774Y-87709046D01*
X136534894Y-87740300D01*
X136534897Y-87740300D01*
X136695105Y-87740300D01*
X136800813Y-87719272D01*
X136852231Y-87709045D01*
X137000242Y-87647737D01*
X137133448Y-87558731D01*
X137246731Y-87445448D01*
X137335737Y-87312242D01*
X137397045Y-87164231D01*
X137413381Y-87082105D01*
X137428300Y-87007105D01*
X137428300Y-86846894D01*
X137397046Y-86689774D01*
X137397045Y-86689773D01*
X137397045Y-86689769D01*
X137366803Y-86616758D01*
X137335739Y-86541762D01*
X137335738Y-86541760D01*
X137262469Y-86432105D01*
X142426699Y-86432105D01*
X142457953Y-86589225D01*
X142457956Y-86589235D01*
X142519260Y-86737237D01*
X142519261Y-86737239D01*
X142608268Y-86870447D01*
X142608271Y-86870451D01*
X142721548Y-86983728D01*
X142721552Y-86983731D01*
X142854758Y-87072737D01*
X142854759Y-87072737D01*
X142854760Y-87072738D01*
X142854762Y-87072739D01*
X142877374Y-87082105D01*
X143002769Y-87134045D01*
X143002773Y-87134045D01*
X143002774Y-87134046D01*
X143159894Y-87165300D01*
X143159897Y-87165300D01*
X143320105Y-87165300D01*
X143425813Y-87144272D01*
X143477231Y-87134045D01*
X143625242Y-87072737D01*
X143758448Y-86983731D01*
X143871731Y-86870448D01*
X143960737Y-86737242D01*
X144022045Y-86589231D01*
X144046375Y-86466916D01*
X144053300Y-86432105D01*
X144053300Y-86271894D01*
X144022046Y-86114774D01*
X144022045Y-86114773D01*
X144022045Y-86114769D01*
X143991855Y-86041884D01*
X143960739Y-85966762D01*
X143960738Y-85966760D01*
X143955582Y-85959044D01*
X143871731Y-85833552D01*
X143871728Y-85833548D01*
X143758451Y-85720271D01*
X143758447Y-85720268D01*
X143625239Y-85631261D01*
X143625237Y-85631260D01*
X143477235Y-85569956D01*
X143477225Y-85569953D01*
X143320105Y-85538700D01*
X143320103Y-85538700D01*
X143159897Y-85538700D01*
X143159895Y-85538700D01*
X143002774Y-85569953D01*
X143002764Y-85569956D01*
X142854762Y-85631260D01*
X142854760Y-85631261D01*
X142721552Y-85720268D01*
X142721548Y-85720271D01*
X142608271Y-85833548D01*
X142608268Y-85833552D01*
X142519261Y-85966760D01*
X142519260Y-85966762D01*
X142457956Y-86114764D01*
X142457953Y-86114774D01*
X142426700Y-86271894D01*
X142426700Y-86271897D01*
X142426700Y-86432103D01*
X142426700Y-86432105D01*
X142426699Y-86432105D01*
X137262469Y-86432105D01*
X137246731Y-86408552D01*
X137246728Y-86408548D01*
X137133451Y-86295271D01*
X137133447Y-86295268D01*
X137000239Y-86206261D01*
X137000237Y-86206260D01*
X136852235Y-86144956D01*
X136852225Y-86144953D01*
X136695105Y-86113700D01*
X136695103Y-86113700D01*
X136534897Y-86113700D01*
X136534895Y-86113700D01*
X136377774Y-86144953D01*
X136377764Y-86144956D01*
X136229762Y-86206260D01*
X136229760Y-86206261D01*
X136096552Y-86295268D01*
X136096548Y-86295271D01*
X135983271Y-86408548D01*
X135983268Y-86408552D01*
X135894261Y-86541760D01*
X135894260Y-86541762D01*
X135832956Y-86689764D01*
X135832953Y-86689774D01*
X135801700Y-86846894D01*
X135801700Y-86846897D01*
X135801700Y-87007103D01*
X135801700Y-87007105D01*
X135801699Y-87007105D01*
X122758575Y-87007105D01*
X122797045Y-86914231D01*
X122803560Y-86881480D01*
X122816463Y-86816613D01*
X122828300Y-86757105D01*
X122828300Y-86596894D01*
X122797046Y-86439774D01*
X122797045Y-86439773D01*
X122797045Y-86439769D01*
X122797043Y-86439764D01*
X122735739Y-86291762D01*
X122735738Y-86291760D01*
X122709895Y-86253084D01*
X122646731Y-86158552D01*
X122646728Y-86158548D01*
X122533451Y-86045271D01*
X122533447Y-86045268D01*
X122400239Y-85956261D01*
X122400237Y-85956260D01*
X122252235Y-85894956D01*
X122252225Y-85894953D01*
X122095105Y-85863700D01*
X122095103Y-85863700D01*
X121934897Y-85863700D01*
X121934895Y-85863700D01*
X121777774Y-85894953D01*
X121777764Y-85894956D01*
X121629762Y-85956260D01*
X121629760Y-85956261D01*
X121496552Y-86045268D01*
X121496548Y-86045271D01*
X121383271Y-86158548D01*
X121383268Y-86158552D01*
X121294261Y-86291760D01*
X121294260Y-86291762D01*
X121232956Y-86439764D01*
X121232953Y-86439774D01*
X121201700Y-86596894D01*
X121201700Y-86596897D01*
X121201700Y-86757103D01*
X121201700Y-86757105D01*
X121201699Y-86757105D01*
X116793871Y-86757105D01*
X116744659Y-86638297D01*
X116744643Y-86638259D01*
X116735737Y-86616758D01*
X116646731Y-86483552D01*
X116646728Y-86483548D01*
X116533451Y-86370271D01*
X116533447Y-86370268D01*
X116400239Y-86281261D01*
X116400237Y-86281260D01*
X116252235Y-86219956D01*
X116252225Y-86219953D01*
X116195301Y-86208630D01*
X116133390Y-86176244D01*
X116098816Y-86115528D01*
X116102557Y-86045759D01*
X116143424Y-85989087D01*
X116195301Y-85965396D01*
X116227231Y-85959045D01*
X116375242Y-85897737D01*
X116508448Y-85808731D01*
X116621731Y-85695448D01*
X116710737Y-85562242D01*
X116772045Y-85414231D01*
X116801525Y-85266028D01*
X116803300Y-85257105D01*
X116803300Y-85096894D01*
X116772046Y-84939774D01*
X116772045Y-84939773D01*
X116772045Y-84939769D01*
X116761359Y-84913971D01*
X116710739Y-84791762D01*
X116710738Y-84791760D01*
X116621731Y-84658552D01*
X116621728Y-84658548D01*
X116508451Y-84545271D01*
X116508447Y-84545268D01*
X116375239Y-84456261D01*
X116375237Y-84456260D01*
X116227235Y-84394956D01*
X116227225Y-84394953D01*
X116070105Y-84363700D01*
X116070103Y-84363700D01*
X115909897Y-84363700D01*
X115909895Y-84363700D01*
X115752774Y-84394953D01*
X115752764Y-84394956D01*
X115604762Y-84456260D01*
X115604760Y-84456261D01*
X115471552Y-84545268D01*
X115471548Y-84545271D01*
X115358271Y-84658548D01*
X115358268Y-84658552D01*
X115269261Y-84791760D01*
X115269260Y-84791762D01*
X115207956Y-84939764D01*
X115207953Y-84939774D01*
X115176700Y-85096894D01*
X115176700Y-85096897D01*
X115176700Y-85257103D01*
X115176700Y-85257105D01*
X115176699Y-85257105D01*
X107350242Y-85257105D01*
X107335605Y-85236341D01*
X107315831Y-85210697D01*
X107315595Y-85207957D01*
X107314010Y-85205708D01*
X107312622Y-85173344D01*
X107309852Y-85141084D01*
X107311135Y-85138650D01*
X107311018Y-85135902D01*
X107327343Y-85107934D01*
X107342458Y-85079289D01*
X107345278Y-85077208D01*
X107346241Y-85075560D01*
X107375085Y-85055226D01*
X107519009Y-84981894D01*
X107692004Y-84856206D01*
X107843206Y-84705004D01*
X107968894Y-84532009D01*
X108065972Y-84341483D01*
X108069019Y-84332105D01*
X136901699Y-84332105D01*
X136932953Y-84489225D01*
X136932956Y-84489235D01*
X136994260Y-84637237D01*
X136994261Y-84637239D01*
X137083268Y-84770447D01*
X137083271Y-84770451D01*
X137196548Y-84883728D01*
X137196552Y-84883731D01*
X137329758Y-84972737D01*
X137329759Y-84972737D01*
X137329760Y-84972738D01*
X137329762Y-84972739D01*
X137351867Y-84981895D01*
X137477769Y-85034045D01*
X137477773Y-85034045D01*
X137477774Y-85034046D01*
X137634894Y-85065300D01*
X137634897Y-85065300D01*
X137795105Y-85065300D01*
X137900813Y-85044272D01*
X137952231Y-85034045D01*
X138100242Y-84972737D01*
X138233448Y-84883731D01*
X138346731Y-84770448D01*
X138435737Y-84637242D01*
X138497045Y-84489231D01*
X138522015Y-84363700D01*
X138528300Y-84332105D01*
X138528300Y-84171894D01*
X138497046Y-84014774D01*
X138497045Y-84014773D01*
X138497045Y-84014769D01*
X138435737Y-83866758D01*
X138346731Y-83733552D01*
X138346728Y-83733548D01*
X138233451Y-83620271D01*
X138233447Y-83620268D01*
X138100239Y-83531261D01*
X138100237Y-83531260D01*
X137952235Y-83469956D01*
X137952225Y-83469953D01*
X137795105Y-83438700D01*
X137795103Y-83438700D01*
X137634897Y-83438700D01*
X137634895Y-83438700D01*
X137477774Y-83469953D01*
X137477764Y-83469956D01*
X137329762Y-83531260D01*
X137329760Y-83531261D01*
X137196552Y-83620268D01*
X137196548Y-83620271D01*
X137083271Y-83733548D01*
X137083268Y-83733552D01*
X136994261Y-83866760D01*
X136994260Y-83866762D01*
X136932956Y-84014764D01*
X136932953Y-84014774D01*
X136901700Y-84171894D01*
X136901700Y-84171897D01*
X136901700Y-84332103D01*
X136901700Y-84332105D01*
X136901699Y-84332105D01*
X108069019Y-84332105D01*
X108132049Y-84138116D01*
X108165500Y-83926916D01*
X108165500Y-83713084D01*
X108132049Y-83501884D01*
X108065972Y-83298517D01*
X108065972Y-83298516D01*
X107968893Y-83107990D01*
X107843206Y-82934996D01*
X107692004Y-82783794D01*
X107519009Y-82658106D01*
X107375086Y-82584773D01*
X107324291Y-82536799D01*
X107307496Y-82468978D01*
X107330033Y-82402843D01*
X107358497Y-82373971D01*
X107438004Y-82316206D01*
X107589206Y-82165004D01*
X107714894Y-81992009D01*
X107811972Y-81801483D01*
X107878049Y-81598116D01*
X107911500Y-81386916D01*
X107911500Y-81173084D01*
X107878049Y-80961884D01*
X107821953Y-80789235D01*
X107811973Y-80758519D01*
X107811972Y-80758516D01*
X107747562Y-80632105D01*
X121426699Y-80632105D01*
X121457953Y-80789225D01*
X121457956Y-80789235D01*
X121519260Y-80937237D01*
X121519261Y-80937239D01*
X121608268Y-81070447D01*
X121608271Y-81070451D01*
X121721548Y-81183728D01*
X121721552Y-81183731D01*
X121854758Y-81272737D01*
X121854759Y-81272737D01*
X121854760Y-81272738D01*
X121854762Y-81272739D01*
X122002764Y-81334043D01*
X122002769Y-81334045D01*
X122002773Y-81334045D01*
X122002774Y-81334046D01*
X122159894Y-81365300D01*
X122159897Y-81365300D01*
X122320105Y-81365300D01*
X122425813Y-81344272D01*
X122477231Y-81334045D01*
X122625242Y-81272737D01*
X122758448Y-81183731D01*
X122871731Y-81070448D01*
X122960737Y-80937242D01*
X123022045Y-80789231D01*
X123053300Y-80632103D01*
X123053300Y-80471897D01*
X123053300Y-80471894D01*
X123022046Y-80314774D01*
X123022045Y-80314773D01*
X123022045Y-80314769D01*
X122960737Y-80166758D01*
X122871731Y-80033552D01*
X122871728Y-80033548D01*
X122758451Y-79920271D01*
X122758447Y-79920268D01*
X122625239Y-79831261D01*
X122625237Y-79831260D01*
X122477235Y-79769956D01*
X122477225Y-79769953D01*
X122320105Y-79738700D01*
X122320103Y-79738700D01*
X122159897Y-79738700D01*
X122159895Y-79738700D01*
X122002774Y-79769953D01*
X122002764Y-79769956D01*
X121854762Y-79831260D01*
X121854760Y-79831261D01*
X121721552Y-79920268D01*
X121721548Y-79920271D01*
X121608271Y-80033548D01*
X121608268Y-80033552D01*
X121519261Y-80166760D01*
X121519260Y-80166762D01*
X121457956Y-80314764D01*
X121457953Y-80314774D01*
X121426700Y-80471894D01*
X121426700Y-80471897D01*
X121426700Y-80632103D01*
X121426700Y-80632105D01*
X121426699Y-80632105D01*
X107747562Y-80632105D01*
X107714893Y-80567990D01*
X107693606Y-80538691D01*
X107693605Y-80538689D01*
X107589208Y-80394999D01*
X107589203Y-80394993D01*
X107438005Y-80243795D01*
X107358496Y-80186028D01*
X107315831Y-80130697D01*
X107309852Y-80061084D01*
X107342458Y-79999289D01*
X107375085Y-79975226D01*
X107519009Y-79901894D01*
X107692004Y-79776206D01*
X107843206Y-79625004D01*
X107968894Y-79452009D01*
X108065972Y-79261483D01*
X108132049Y-79058116D01*
X108165500Y-78846916D01*
X108165500Y-78633084D01*
X108132049Y-78421884D01*
X108065972Y-78218517D01*
X108065972Y-78218516D01*
X107968893Y-78027990D01*
X107843206Y-77854996D01*
X107692004Y-77703794D01*
X107668757Y-77686904D01*
X107626091Y-77631574D01*
X107620112Y-77561961D01*
X107652718Y-77500166D01*
X107667331Y-77487319D01*
X107766261Y-77413261D01*
X107853889Y-77296204D01*
X107904989Y-77159201D01*
X107908591Y-77125692D01*
X107911499Y-77098654D01*
X107911500Y-77098637D01*
X107911500Y-76857105D01*
X131601699Y-76857105D01*
X131632953Y-77014225D01*
X131632956Y-77014235D01*
X131694260Y-77162237D01*
X131694261Y-77162239D01*
X131783268Y-77295447D01*
X131783271Y-77295451D01*
X131896548Y-77408728D01*
X131896552Y-77408731D01*
X132029758Y-77497737D01*
X132029759Y-77497737D01*
X132029760Y-77497738D01*
X132029762Y-77497739D01*
X132057060Y-77509046D01*
X132177769Y-77559045D01*
X132177773Y-77559045D01*
X132177774Y-77559046D01*
X132334894Y-77590300D01*
X132334897Y-77590300D01*
X132495105Y-77590300D01*
X132637571Y-77561961D01*
X132652231Y-77559045D01*
X132800242Y-77497737D01*
X132933448Y-77408731D01*
X133046731Y-77295448D01*
X133135737Y-77162242D01*
X133173294Y-77071570D01*
X133217134Y-77017167D01*
X133283428Y-76995102D01*
X133351128Y-77012381D01*
X133398739Y-77063518D01*
X133402416Y-77071570D01*
X133419261Y-77112240D01*
X133508268Y-77245447D01*
X133508271Y-77245451D01*
X133621548Y-77358728D01*
X133621552Y-77358731D01*
X133754758Y-77447737D01*
X133754759Y-77447737D01*
X133754760Y-77447738D01*
X133754762Y-77447739D01*
X133902764Y-77509043D01*
X133902769Y-77509045D01*
X133902773Y-77509045D01*
X133902774Y-77509046D01*
X134059894Y-77540300D01*
X134059897Y-77540300D01*
X134220105Y-77540300D01*
X134325813Y-77519272D01*
X134377231Y-77509045D01*
X134525242Y-77447737D01*
X134658448Y-77358731D01*
X134771731Y-77245448D01*
X134860737Y-77112242D01*
X134922045Y-76964231D01*
X134953300Y-76807103D01*
X134953300Y-76646897D01*
X134953300Y-76646894D01*
X134922046Y-76489774D01*
X134922045Y-76489773D01*
X134922045Y-76489769D01*
X134898293Y-76432427D01*
X134860739Y-76341762D01*
X134860738Y-76341760D01*
X134771731Y-76208552D01*
X134771728Y-76208548D01*
X134658451Y-76095271D01*
X134658447Y-76095268D01*
X134525239Y-76006261D01*
X134525237Y-76006260D01*
X134377235Y-75944956D01*
X134377225Y-75944953D01*
X134220105Y-75913700D01*
X134220103Y-75913700D01*
X134059897Y-75913700D01*
X134059895Y-75913700D01*
X133902774Y-75944953D01*
X133902764Y-75944956D01*
X133754762Y-76006260D01*
X133754760Y-76006261D01*
X133621552Y-76095268D01*
X133621548Y-76095271D01*
X133508271Y-76208548D01*
X133508268Y-76208552D01*
X133419261Y-76341760D01*
X133381705Y-76432429D01*
X133337863Y-76486833D01*
X133271569Y-76508897D01*
X133203870Y-76491617D01*
X133156260Y-76440480D01*
X133152583Y-76432429D01*
X133135737Y-76391758D01*
X133046731Y-76258552D01*
X133046728Y-76258548D01*
X132933451Y-76145271D01*
X132933447Y-76145268D01*
X132800239Y-76056261D01*
X132800237Y-76056260D01*
X132652235Y-75994956D01*
X132652225Y-75994953D01*
X132495105Y-75963700D01*
X132495103Y-75963700D01*
X132334897Y-75963700D01*
X132334895Y-75963700D01*
X132177774Y-75994953D01*
X132177764Y-75994956D01*
X132029762Y-76056260D01*
X132029760Y-76056261D01*
X131896552Y-76145268D01*
X131896548Y-76145271D01*
X131783271Y-76258548D01*
X131783268Y-76258552D01*
X131694261Y-76391760D01*
X131694260Y-76391762D01*
X131632956Y-76539764D01*
X131632953Y-76539774D01*
X131601700Y-76696894D01*
X131601700Y-76696897D01*
X131601700Y-76857103D01*
X131601700Y-76857105D01*
X131601699Y-76857105D01*
X107911500Y-76857105D01*
X107911500Y-75301362D01*
X107911499Y-75301345D01*
X148374500Y-75301345D01*
X148374500Y-77098654D01*
X148381011Y-77159202D01*
X148381011Y-77159204D01*
X148413181Y-77245451D01*
X148432111Y-77296204D01*
X148519739Y-77413261D01*
X148636796Y-77500889D01*
X148773799Y-77551989D01*
X148801050Y-77554918D01*
X148834345Y-77558499D01*
X148834362Y-77558500D01*
X148947928Y-77558500D01*
X149014967Y-77578185D01*
X149060722Y-77630989D01*
X149070666Y-77700147D01*
X149041641Y-77763703D01*
X149035609Y-77770181D01*
X148950796Y-77854993D01*
X148825106Y-78027990D01*
X148728027Y-78218516D01*
X148728026Y-78218519D01*
X148661951Y-78421882D01*
X148628500Y-78633084D01*
X148628500Y-78846915D01*
X148661951Y-79058117D01*
X148728026Y-79261480D01*
X148728027Y-79261483D01*
X148825106Y-79452009D01*
X148950794Y-79625004D01*
X149101996Y-79776206D01*
X149177773Y-79831261D01*
X149181503Y-79833971D01*
X149224168Y-79889301D01*
X149230147Y-79958915D01*
X149197541Y-80020710D01*
X149164912Y-80044774D01*
X149020990Y-80118106D01*
X148847993Y-80243796D01*
X148696796Y-80394993D01*
X148571106Y-80567990D01*
X148474027Y-80758516D01*
X148474026Y-80758519D01*
X148407951Y-80961882D01*
X148374500Y-81173084D01*
X148374500Y-81386915D01*
X148407951Y-81598117D01*
X148474026Y-81801480D01*
X148474027Y-81801483D01*
X148571106Y-81992009D01*
X148696794Y-82165004D01*
X148847996Y-82316206D01*
X149020991Y-82441894D01*
X149164913Y-82515226D01*
X149215708Y-82563199D01*
X149232503Y-82631020D01*
X149209966Y-82697155D01*
X149181504Y-82726027D01*
X149101996Y-82783793D01*
X148950796Y-82934993D01*
X148825106Y-83107990D01*
X148728027Y-83298516D01*
X148728026Y-83298519D01*
X148661951Y-83501882D01*
X148628500Y-83713084D01*
X148628500Y-83926915D01*
X148661951Y-84138117D01*
X148728026Y-84341480D01*
X148728027Y-84341483D01*
X148825106Y-84532009D01*
X148950794Y-84705004D01*
X149101996Y-84856206D01*
X149181503Y-84913971D01*
X149224168Y-84969301D01*
X149230147Y-85038915D01*
X149197541Y-85100710D01*
X149164912Y-85124774D01*
X149020990Y-85198106D01*
X148847993Y-85323796D01*
X148696796Y-85474993D01*
X148571106Y-85647990D01*
X148474027Y-85838516D01*
X148474026Y-85838519D01*
X148407951Y-86041882D01*
X148374500Y-86253084D01*
X148374500Y-86466915D01*
X148407951Y-86678117D01*
X148474026Y-86881480D01*
X148474027Y-86881483D01*
X148566127Y-87062237D01*
X148571106Y-87072009D01*
X148696794Y-87245004D01*
X148847996Y-87396206D01*
X149020991Y-87521894D01*
X149164913Y-87595226D01*
X149215708Y-87643199D01*
X149232503Y-87711020D01*
X149209966Y-87777155D01*
X149181504Y-87806027D01*
X149101996Y-87863793D01*
X148950796Y-88014993D01*
X148825106Y-88187990D01*
X148728027Y-88378516D01*
X148728026Y-88378519D01*
X148661951Y-88581882D01*
X148638158Y-88732105D01*
X148628500Y-88793084D01*
X148628500Y-89006916D01*
X148633303Y-89037239D01*
X148661951Y-89218117D01*
X148728026Y-89421480D01*
X148728027Y-89421483D01*
X148787010Y-89537242D01*
X148825106Y-89612009D01*
X148950794Y-89785004D01*
X149101996Y-89936206D01*
X149181503Y-89993971D01*
X149224168Y-90049301D01*
X149230147Y-90118915D01*
X149197541Y-90180710D01*
X149164912Y-90204774D01*
X149020990Y-90278106D01*
X148847993Y-90403796D01*
X148696796Y-90554993D01*
X148571106Y-90727990D01*
X148474027Y-90918516D01*
X148474026Y-90918519D01*
X148407951Y-91121882D01*
X148374500Y-91333084D01*
X148374500Y-91546915D01*
X148407951Y-91758117D01*
X148474026Y-91961480D01*
X148474027Y-91961483D01*
X148560963Y-92132103D01*
X148571106Y-92152009D01*
X148696794Y-92325004D01*
X148847996Y-92476206D01*
X149020991Y-92601894D01*
X149164913Y-92675226D01*
X149215708Y-92723199D01*
X149232503Y-92791020D01*
X149209966Y-92857155D01*
X149181504Y-92886027D01*
X149101996Y-92943793D01*
X148950796Y-93094993D01*
X148825106Y-93267990D01*
X148728027Y-93458516D01*
X148728026Y-93458519D01*
X148661951Y-93661882D01*
X148628500Y-93873084D01*
X148628500Y-94086915D01*
X148661951Y-94298117D01*
X148728026Y-94501480D01*
X148728027Y-94501483D01*
X148813869Y-94669955D01*
X148825106Y-94692009D01*
X148950794Y-94865004D01*
X149101996Y-95016206D01*
X149181503Y-95073971D01*
X149224168Y-95129301D01*
X149230147Y-95198915D01*
X149197541Y-95260710D01*
X149164912Y-95284774D01*
X149020990Y-95358106D01*
X148847993Y-95483796D01*
X148696796Y-95634993D01*
X148571106Y-95807990D01*
X148474027Y-95998516D01*
X148474026Y-95998519D01*
X148407951Y-96201882D01*
X148407951Y-96201884D01*
X148374500Y-96413084D01*
X148374500Y-96626916D01*
X148375551Y-96633552D01*
X148407951Y-96838117D01*
X148474026Y-97041480D01*
X148474027Y-97041483D01*
X148559152Y-97208548D01*
X148571106Y-97232009D01*
X148696794Y-97405004D01*
X148847996Y-97556206D01*
X149020991Y-97681894D01*
X149164913Y-97755226D01*
X149215708Y-97803199D01*
X149232503Y-97871020D01*
X149209966Y-97937155D01*
X149181504Y-97966027D01*
X149101996Y-98023793D01*
X148950796Y-98174993D01*
X148825106Y-98347990D01*
X148728027Y-98538516D01*
X148728026Y-98538519D01*
X148661951Y-98741882D01*
X148628500Y-98953084D01*
X148628500Y-99166915D01*
X148661951Y-99378117D01*
X148728026Y-99581480D01*
X148728027Y-99581483D01*
X148804853Y-99732260D01*
X148825106Y-99772009D01*
X148950794Y-99945004D01*
X149101996Y-100096206D01*
X149181503Y-100153971D01*
X149224168Y-100209301D01*
X149230147Y-100278915D01*
X149197541Y-100340710D01*
X149164912Y-100364774D01*
X149020990Y-100438106D01*
X148847993Y-100563796D01*
X148696796Y-100714993D01*
X148571106Y-100887990D01*
X148474027Y-101078516D01*
X148474026Y-101078519D01*
X148407951Y-101281882D01*
X148374500Y-101493084D01*
X148374500Y-101706915D01*
X148407951Y-101918117D01*
X148474026Y-102121480D01*
X148474027Y-102121483D01*
X148531128Y-102233548D01*
X148571106Y-102312009D01*
X148696794Y-102485004D01*
X148847996Y-102636206D01*
X149020991Y-102761894D01*
X149164913Y-102835226D01*
X149215708Y-102883199D01*
X149232503Y-102951020D01*
X149209966Y-103017155D01*
X149181504Y-103046027D01*
X149101996Y-103103793D01*
X148950796Y-103254993D01*
X148825106Y-103427990D01*
X148728027Y-103618516D01*
X148728026Y-103618519D01*
X148661951Y-103821882D01*
X148628500Y-104033084D01*
X148628500Y-104246915D01*
X148661951Y-104458117D01*
X148728026Y-104661480D01*
X148728027Y-104661483D01*
X148825106Y-104852009D01*
X148950794Y-105025004D01*
X149101996Y-105176206D01*
X149181503Y-105233971D01*
X149224168Y-105289301D01*
X149230147Y-105358915D01*
X149197541Y-105420710D01*
X149164912Y-105444774D01*
X149020990Y-105518106D01*
X148847993Y-105643796D01*
X148696796Y-105794993D01*
X148571106Y-105967990D01*
X148474027Y-106158516D01*
X148474026Y-106158519D01*
X148407951Y-106361882D01*
X148374500Y-106573084D01*
X148374500Y-106786915D01*
X148407951Y-106998117D01*
X148474026Y-107201480D01*
X148474027Y-107201483D01*
X148541410Y-107333728D01*
X148571106Y-107392009D01*
X148696794Y-107565004D01*
X148847996Y-107716206D01*
X149020991Y-107841894D01*
X149164913Y-107915226D01*
X149215708Y-107963199D01*
X149232503Y-108031020D01*
X149209966Y-108097155D01*
X149181504Y-108126027D01*
X149101996Y-108183793D01*
X148950796Y-108334993D01*
X148825106Y-108507990D01*
X148728027Y-108698516D01*
X148728026Y-108698519D01*
X148661951Y-108901882D01*
X148628500Y-109113084D01*
X148628500Y-109326915D01*
X148661951Y-109538117D01*
X148728026Y-109741480D01*
X148728027Y-109741483D01*
X148825106Y-109932009D01*
X148950794Y-110105004D01*
X149101996Y-110256206D01*
X149181503Y-110313971D01*
X149224168Y-110369301D01*
X149230147Y-110438915D01*
X149197541Y-110500710D01*
X149164912Y-110524774D01*
X149020990Y-110598106D01*
X148847993Y-110723796D01*
X148696796Y-110874993D01*
X148571106Y-111047990D01*
X148474027Y-111238516D01*
X148474026Y-111238519D01*
X148407951Y-111441882D01*
X148374500Y-111653084D01*
X148374500Y-111866915D01*
X148407951Y-112078117D01*
X148474026Y-112281480D01*
X148474027Y-112281483D01*
X148571106Y-112472009D01*
X148696794Y-112645004D01*
X148847996Y-112796206D01*
X149020991Y-112921894D01*
X149164913Y-112995226D01*
X149215708Y-113043199D01*
X149232503Y-113111020D01*
X149209966Y-113177155D01*
X149181504Y-113206027D01*
X149101996Y-113263793D01*
X148950796Y-113414993D01*
X148825106Y-113587990D01*
X148728027Y-113778516D01*
X148728026Y-113778519D01*
X148661951Y-113981882D01*
X148628500Y-114193084D01*
X148628500Y-114406915D01*
X148661951Y-114618117D01*
X148728026Y-114821480D01*
X148728027Y-114821483D01*
X148825106Y-115012009D01*
X148950794Y-115185004D01*
X149101996Y-115336206D01*
X149189221Y-115399579D01*
X149231887Y-115454907D01*
X149237866Y-115524521D01*
X149205261Y-115586316D01*
X149172632Y-115610380D01*
X149025444Y-115685377D01*
X148853540Y-115810272D01*
X148853535Y-115810276D01*
X148703276Y-115960535D01*
X148703272Y-115960540D01*
X148578379Y-116132442D01*
X148481904Y-116321782D01*
X148416242Y-116523870D01*
X148416242Y-116523873D01*
X148405769Y-116590000D01*
X149299988Y-116590000D01*
X149267075Y-116647007D01*
X149233000Y-116774174D01*
X149233000Y-116905826D01*
X149267075Y-117032993D01*
X149299988Y-117090000D01*
X148405769Y-117090000D01*
X148416242Y-117156126D01*
X148416242Y-117156129D01*
X148481904Y-117358217D01*
X148578379Y-117547557D01*
X148703272Y-117719459D01*
X148703276Y-117719464D01*
X148853535Y-117869723D01*
X148853540Y-117869727D01*
X149025442Y-117994620D01*
X149214782Y-118091095D01*
X149416871Y-118156757D01*
X149483000Y-118167231D01*
X149483000Y-117273012D01*
X149540007Y-117305925D01*
X149667174Y-117340000D01*
X149798826Y-117340000D01*
X149925993Y-117305925D01*
X149983000Y-117273012D01*
X149983000Y-118167230D01*
X150049126Y-118156757D01*
X150049129Y-118156757D01*
X150251217Y-118091095D01*
X150440557Y-117994620D01*
X150612459Y-117869727D01*
X150612464Y-117869723D01*
X150762723Y-117719464D01*
X150762727Y-117719459D01*
X150887620Y-117547557D01*
X150984095Y-117358217D01*
X151049757Y-117156129D01*
X151049757Y-117156126D01*
X151060231Y-117090000D01*
X150166012Y-117090000D01*
X150198925Y-117032993D01*
X150233000Y-116905826D01*
X150233000Y-116774174D01*
X150198925Y-116647007D01*
X150166012Y-116590000D01*
X151060231Y-116590000D01*
X151049757Y-116523873D01*
X151049757Y-116523870D01*
X150984095Y-116321782D01*
X150887620Y-116132442D01*
X150762727Y-115960540D01*
X150762723Y-115960535D01*
X150612464Y-115810276D01*
X150612459Y-115810272D01*
X150529997Y-115750360D01*
X150487331Y-115695030D01*
X150481352Y-115625417D01*
X150513957Y-115563622D01*
X150546587Y-115539557D01*
X150699009Y-115461894D01*
X150872004Y-115336206D01*
X151023206Y-115185004D01*
X151148894Y-115012009D01*
X151245972Y-114821483D01*
X151312049Y-114618116D01*
X151345500Y-114406916D01*
X151345500Y-114193084D01*
X151312049Y-113981884D01*
X151245972Y-113778517D01*
X151245972Y-113778516D01*
X151148893Y-113587990D01*
X151023206Y-113414996D01*
X150872004Y-113263794D01*
X150699009Y-113138106D01*
X150555086Y-113064773D01*
X150504291Y-113016799D01*
X150487496Y-112948978D01*
X150510033Y-112882843D01*
X150538497Y-112853971D01*
X150618004Y-112796206D01*
X150769206Y-112645004D01*
X150894894Y-112472009D01*
X150991972Y-112281483D01*
X151058049Y-112078116D01*
X151091500Y-111866916D01*
X151091500Y-111653084D01*
X151058049Y-111441884D01*
X150991972Y-111238517D01*
X150991972Y-111238516D01*
X150894893Y-111047990D01*
X150769206Y-110874996D01*
X150618004Y-110723794D01*
X150538496Y-110666028D01*
X150495831Y-110610697D01*
X150489852Y-110541084D01*
X150522458Y-110479289D01*
X150555085Y-110455226D01*
X150699009Y-110381894D01*
X150872004Y-110256206D01*
X151023206Y-110105004D01*
X151148894Y-109932009D01*
X151245972Y-109741483D01*
X151312049Y-109538116D01*
X151345500Y-109326916D01*
X151345500Y-109113084D01*
X151312049Y-108901884D01*
X151245972Y-108698517D01*
X151245972Y-108698516D01*
X151148893Y-108507990D01*
X151023206Y-108334996D01*
X150872004Y-108183794D01*
X150699009Y-108058106D01*
X150555086Y-107984773D01*
X150504291Y-107936799D01*
X150487496Y-107868978D01*
X150510033Y-107802843D01*
X150538497Y-107773971D01*
X150618004Y-107716206D01*
X150769206Y-107565004D01*
X150894894Y-107392009D01*
X150991972Y-107201483D01*
X151058049Y-106998116D01*
X151091500Y-106786916D01*
X151091500Y-106573084D01*
X151058049Y-106361884D01*
X151025010Y-106260200D01*
X150991973Y-106158519D01*
X150991972Y-106158516D01*
X150901655Y-105981261D01*
X150894894Y-105967991D01*
X150769206Y-105794996D01*
X150618004Y-105643794D01*
X150538496Y-105586028D01*
X150495831Y-105530697D01*
X150489852Y-105461084D01*
X150522458Y-105399289D01*
X150555085Y-105375226D01*
X150699009Y-105301894D01*
X150872004Y-105176206D01*
X151023206Y-105025004D01*
X151148894Y-104852009D01*
X151245972Y-104661483D01*
X151312049Y-104458116D01*
X151345500Y-104246916D01*
X151345500Y-104033084D01*
X151312049Y-103821884D01*
X151245972Y-103618517D01*
X151245972Y-103618516D01*
X151148893Y-103427990D01*
X151116735Y-103383728D01*
X151023206Y-103254996D01*
X150872004Y-103103794D01*
X150699009Y-102978106D01*
X150555086Y-102904773D01*
X150504291Y-102856799D01*
X150487496Y-102788978D01*
X150510033Y-102722843D01*
X150538497Y-102693971D01*
X150568879Y-102671897D01*
X150618004Y-102636206D01*
X150769206Y-102485004D01*
X150894894Y-102312009D01*
X150991972Y-102121483D01*
X151058049Y-101918116D01*
X151091500Y-101706916D01*
X151091500Y-101493084D01*
X151058049Y-101281884D01*
X150991972Y-101078517D01*
X150991972Y-101078516D01*
X150937419Y-100971451D01*
X150894894Y-100887991D01*
X150769206Y-100714996D01*
X150618004Y-100563794D01*
X150538496Y-100506028D01*
X150495831Y-100450697D01*
X150489852Y-100381084D01*
X150522458Y-100319289D01*
X150555085Y-100295226D01*
X150699009Y-100221894D01*
X150872004Y-100096206D01*
X151023206Y-99945004D01*
X151148894Y-99772009D01*
X151245972Y-99581483D01*
X151312049Y-99378116D01*
X151345500Y-99166916D01*
X151345500Y-98953084D01*
X151312049Y-98741884D01*
X151279010Y-98640200D01*
X151245973Y-98538519D01*
X151245972Y-98538516D01*
X151156898Y-98363700D01*
X151148894Y-98347991D01*
X151023206Y-98174996D01*
X150872004Y-98023794D01*
X150699009Y-97898106D01*
X150555086Y-97824773D01*
X150504291Y-97776799D01*
X150487496Y-97708978D01*
X150510033Y-97642843D01*
X150538497Y-97613971D01*
X150618004Y-97556206D01*
X150769206Y-97405004D01*
X150894894Y-97232009D01*
X150991972Y-97041483D01*
X151058049Y-96838116D01*
X151091500Y-96626916D01*
X151091500Y-96413084D01*
X151058049Y-96201884D01*
X150991972Y-95998517D01*
X150991972Y-95998516D01*
X150909798Y-95837242D01*
X150894894Y-95807991D01*
X150769206Y-95634996D01*
X150618004Y-95483794D01*
X150538496Y-95426028D01*
X150495831Y-95370697D01*
X150489852Y-95301084D01*
X150522458Y-95239289D01*
X150555085Y-95215226D01*
X150699009Y-95141894D01*
X150872004Y-95016206D01*
X151023206Y-94865004D01*
X151148894Y-94692009D01*
X151245972Y-94501483D01*
X151312049Y-94298116D01*
X151345500Y-94086916D01*
X151345500Y-93873084D01*
X151312049Y-93661884D01*
X151245972Y-93458517D01*
X151245972Y-93458516D01*
X151196507Y-93361438D01*
X151148894Y-93267991D01*
X151023206Y-93094996D01*
X150872004Y-92943794D01*
X150699009Y-92818106D01*
X150555086Y-92744773D01*
X150504291Y-92696799D01*
X150487496Y-92628978D01*
X150510033Y-92562843D01*
X150538497Y-92533971D01*
X150566560Y-92513582D01*
X150618004Y-92476206D01*
X150769206Y-92325004D01*
X150894894Y-92152009D01*
X150991972Y-91961483D01*
X151058049Y-91758116D01*
X151091500Y-91546916D01*
X151091500Y-91333084D01*
X151058049Y-91121884D01*
X150991972Y-90918517D01*
X150991972Y-90918516D01*
X150894893Y-90727990D01*
X150807065Y-90607105D01*
X150769206Y-90554996D01*
X150618004Y-90403794D01*
X150538496Y-90346028D01*
X150495831Y-90290697D01*
X150489852Y-90221084D01*
X150522458Y-90159289D01*
X150555085Y-90135226D01*
X150699009Y-90061894D01*
X150872004Y-89936206D01*
X151023206Y-89785004D01*
X151148894Y-89612009D01*
X151245972Y-89421483D01*
X151312049Y-89218116D01*
X151345500Y-89006916D01*
X151345500Y-88793084D01*
X151312049Y-88581884D01*
X151263109Y-88431260D01*
X151245973Y-88378519D01*
X151245972Y-88378516D01*
X151187712Y-88264176D01*
X151148894Y-88187991D01*
X151023206Y-88014996D01*
X150872004Y-87863794D01*
X150699009Y-87738106D01*
X150555086Y-87664773D01*
X150504291Y-87616799D01*
X150487496Y-87548978D01*
X150510033Y-87482843D01*
X150538497Y-87453971D01*
X150550229Y-87445447D01*
X150618004Y-87396206D01*
X150769206Y-87245004D01*
X150894894Y-87072009D01*
X150991972Y-86881483D01*
X151058049Y-86678116D01*
X151091500Y-86466916D01*
X151091500Y-86253084D01*
X151058049Y-86041884D01*
X151011214Y-85897738D01*
X150991973Y-85838519D01*
X150991972Y-85838516D01*
X150942507Y-85741438D01*
X150894894Y-85647991D01*
X150769206Y-85474996D01*
X150618004Y-85323794D01*
X150538496Y-85266028D01*
X150495831Y-85210697D01*
X150489852Y-85141084D01*
X150522458Y-85079289D01*
X150555085Y-85055226D01*
X150699009Y-84981894D01*
X150872004Y-84856206D01*
X151023206Y-84705004D01*
X151148894Y-84532009D01*
X151245972Y-84341483D01*
X151312049Y-84138116D01*
X151345500Y-83926916D01*
X151345500Y-83713084D01*
X151312049Y-83501884D01*
X151245972Y-83298517D01*
X151245972Y-83298516D01*
X151148893Y-83107990D01*
X151023206Y-82934996D01*
X150872004Y-82783794D01*
X150699009Y-82658106D01*
X150555086Y-82584773D01*
X150504291Y-82536799D01*
X150487496Y-82468978D01*
X150510033Y-82402843D01*
X150538497Y-82373971D01*
X150618004Y-82316206D01*
X150769206Y-82165004D01*
X150894894Y-81992009D01*
X150991972Y-81801483D01*
X151058049Y-81598116D01*
X151091500Y-81386916D01*
X151091500Y-81173084D01*
X151058049Y-80961884D01*
X151001953Y-80789235D01*
X150991973Y-80758519D01*
X150991972Y-80758516D01*
X150894893Y-80567990D01*
X150873605Y-80538689D01*
X150769206Y-80394996D01*
X150618004Y-80243794D01*
X150538496Y-80186028D01*
X150495831Y-80130697D01*
X150489852Y-80061084D01*
X150522458Y-79999289D01*
X150555085Y-79975226D01*
X150699009Y-79901894D01*
X150872004Y-79776206D01*
X151023206Y-79625004D01*
X151148894Y-79452009D01*
X151245972Y-79261483D01*
X151312049Y-79058116D01*
X151345500Y-78846916D01*
X151345500Y-78633084D01*
X151312049Y-78421884D01*
X151245972Y-78218517D01*
X151245972Y-78218516D01*
X151148893Y-78027990D01*
X151023206Y-77854996D01*
X150872004Y-77703794D01*
X150848757Y-77686904D01*
X150806091Y-77631574D01*
X150800112Y-77561961D01*
X150832718Y-77500166D01*
X150847331Y-77487319D01*
X150946261Y-77413261D01*
X151033889Y-77296204D01*
X151084989Y-77159201D01*
X151088591Y-77125692D01*
X151091499Y-77098654D01*
X151091500Y-77098637D01*
X151091500Y-75301362D01*
X151091499Y-75301345D01*
X151088157Y-75270270D01*
X151084989Y-75240799D01*
X151033889Y-75103796D01*
X150946261Y-74986739D01*
X150829204Y-74899111D01*
X150692203Y-74848011D01*
X150631654Y-74841500D01*
X150631638Y-74841500D01*
X148834362Y-74841500D01*
X148834345Y-74841500D01*
X148773797Y-74848011D01*
X148773795Y-74848011D01*
X148636795Y-74899111D01*
X148519739Y-74986739D01*
X148432111Y-75103795D01*
X148381011Y-75240795D01*
X148381011Y-75240797D01*
X148374500Y-75301345D01*
X107911499Y-75301345D01*
X107908157Y-75270270D01*
X107904989Y-75240799D01*
X107853889Y-75103796D01*
X107766261Y-74986739D01*
X107649204Y-74899111D01*
X107512203Y-74848011D01*
X107451654Y-74841500D01*
X107451638Y-74841500D01*
X105654362Y-74841500D01*
X105654345Y-74841500D01*
X105593797Y-74848011D01*
X105593795Y-74848011D01*
X105456795Y-74899111D01*
X105339739Y-74986739D01*
X105252111Y-75103795D01*
X105201011Y-75240795D01*
X105201011Y-75240797D01*
X105194500Y-75301345D01*
X104215500Y-75301345D01*
X104215500Y-73664875D01*
X104215882Y-73655147D01*
X104229440Y-73482867D01*
X104229440Y-73482866D01*
X104232482Y-73463655D01*
X104271687Y-73300357D01*
X104277695Y-73281868D01*
X104341961Y-73126713D01*
X104350784Y-73109398D01*
X104438530Y-72966209D01*
X104449966Y-72950470D01*
X104559027Y-72822776D01*
X104572776Y-72809027D01*
X104700472Y-72699964D01*
X104716212Y-72688529D01*
X104859398Y-72600784D01*
X104876713Y-72591961D01*
X105031868Y-72527695D01*
X105050357Y-72521687D01*
X105213655Y-72482482D01*
X105232861Y-72479440D01*
X105380383Y-72467830D01*
X105405147Y-72465882D01*
X105414875Y-72465500D01*
X105434531Y-72465500D01*
X151105469Y-72465500D01*
X151125125Y-72465500D01*
X151134853Y-72465882D01*
G37*
%TD.AperFunction*%
%TD*%
M02*
