%TF.GenerationSoftware,KiCad,Pcbnew,10.0.2*%
%TF.CreationDate,2026-07-14T17:02:02-04:00*%
%TF.ProjectId,IMUTagNandBreakout,494d5554-6167-44e6-916e-64427265616b,rev?*%
%TF.SameCoordinates,Original*%
%TF.FileFunction,Soldermask,Top*%
%TF.FilePolarity,Negative*%
%FSLAX46Y46*%
G04 Gerber Fmt 4.6, Leading zero omitted, Abs format (unit mm)*
G04 Created by KiCad (PCBNEW 10.0.2) date 2026-07-14 17:02:02*
%MOMM*%
%LPD*%
G01*
G04 APERTURE LIST*
G04 Aperture macros list*
%AMRoundRect*
0 Rectangle with rounded corners*
0 $1 Rounding radius*
0 $2 $3 $4 $5 $6 $7 $8 $9 X,Y pos of 4 corners*
0 Add a 4 corners polygon primitive as box body*
4,1,4,$2,$3,$4,$5,$6,$7,$8,$9,$2,$3,0*
0 Add four circle primitives for the rounded corners*
1,1,$1+$1,$2,$3*
1,1,$1+$1,$4,$5*
1,1,$1+$1,$6,$7*
1,1,$1+$1,$8,$9*
0 Add four rect primitives between the rounded corners*
20,1,$1+$1,$2,$3,$4,$5,0*
20,1,$1+$1,$4,$5,$6,$7,0*
20,1,$1+$1,$6,$7,$8,$9,0*
20,1,$1+$1,$8,$9,$2,$3,0*%
G04 Aperture macros list end*
%ADD10C,0.228600*%
%ADD11RoundRect,0.225000X-0.250000X0.225000X-0.250000X-0.225000X0.250000X-0.225000X0.250000X0.225000X0*%
%ADD12RoundRect,0.225000X0.225000X0.250000X-0.225000X0.250000X-0.225000X-0.250000X0.225000X-0.250000X0*%
%ADD13RoundRect,0.225000X-0.225000X-0.250000X0.225000X-0.250000X0.225000X0.250000X-0.225000X0.250000X0*%
%ADD14RoundRect,0.225000X0.250000X-0.225000X0.250000X0.225000X-0.250000X0.225000X-0.250000X-0.225000X0*%
%ADD15RoundRect,0.200000X-0.200000X-0.275000X0.200000X-0.275000X0.200000X0.275000X-0.200000X0.275000X0*%
%ADD16RoundRect,0.087500X0.087500X-0.125000X0.087500X0.125000X-0.087500X0.125000X-0.087500X-0.125000X0*%
%ADD17RoundRect,0.087500X0.125000X-0.087500X0.125000X0.087500X-0.125000X0.087500X-0.125000X-0.087500X0*%
%ADD18R,0.533400X0.304800*%
%ADD19R,0.304800X0.533400*%
%ADD20RoundRect,0.125000X-0.200000X-0.125000X0.200000X-0.125000X0.200000X0.125000X-0.200000X0.125000X0*%
%ADD21R,3.400000X4.300000*%
%ADD22R,1.700000X1.700000*%
%ADD23O,1.700000X1.700000*%
G04 APERTURE END LIST*
D10*
%TO.C,U2*%
X128939900Y-93977100D03*
X128939900Y-93577050D03*
X128939900Y-93177000D03*
X129339950Y-93977100D03*
X129339950Y-93577050D03*
X129339950Y-93177000D03*
X129740000Y-93977100D03*
X129740000Y-93577050D03*
X129740000Y-93177000D03*
%TD*%
D11*
%TO.C,C10*%
X134090000Y-77777000D03*
X134090000Y-79327000D03*
%TD*%
D12*
%TO.C,C12*%
X130140000Y-95427000D03*
X128590000Y-95427000D03*
%TD*%
D13*
%TO.C,C13*%
X128990000Y-91152000D03*
X130540000Y-91152000D03*
%TD*%
D11*
%TO.C,C9*%
X128219200Y-102767800D03*
X128219200Y-104317800D03*
%TD*%
D14*
%TO.C,C4*%
X136465000Y-94202000D03*
X136465000Y-92652000D03*
%TD*%
D15*
%TO.C,R4*%
X123190000Y-89177000D03*
X124840000Y-89177000D03*
%TD*%
D14*
%TO.C,C2*%
X129383200Y-87655400D03*
X129383200Y-86105400D03*
%TD*%
D15*
%TO.C,R3*%
X123240000Y-92227000D03*
X124890000Y-92227000D03*
%TD*%
D16*
%TO.C,U5*%
X133095600Y-87693700D03*
X133595600Y-87693700D03*
D17*
X134108100Y-87431200D03*
X134108100Y-86931200D03*
X134108100Y-86431200D03*
D16*
X133595600Y-86168700D03*
X133095600Y-86168700D03*
D17*
X132583100Y-86431200D03*
X132583100Y-86931200D03*
X132583100Y-87431200D03*
%TD*%
D11*
%TO.C,C11*%
X132415000Y-77777000D03*
X132415000Y-79327000D03*
%TD*%
D18*
%TO.C,U4*%
X127698500Y-99452999D03*
X127698500Y-99953000D03*
X127698500Y-100453000D03*
X127698500Y-100953001D03*
D19*
X128379601Y-101130100D03*
X128879600Y-101130100D03*
X129379599Y-101130100D03*
D18*
X130060700Y-100953001D03*
X130060700Y-100453000D03*
X130060700Y-99953000D03*
X130060700Y-99452999D03*
D19*
X129379599Y-99275900D03*
X128879600Y-99275900D03*
X128379601Y-99275900D03*
%TD*%
D11*
%TO.C,C1*%
X130022600Y-102743000D03*
X130022600Y-104293000D03*
%TD*%
D14*
%TO.C,C7*%
X131034200Y-87655400D03*
X131034200Y-86105400D03*
%TD*%
D20*
%TO.C,U6*%
X123190000Y-77997000D03*
X123190000Y-79267000D03*
X123190000Y-80537000D03*
X123190000Y-81807000D03*
X130690000Y-81807000D03*
X130690000Y-80537000D03*
X130690000Y-79267000D03*
X130690000Y-77997000D03*
D21*
X126940000Y-79902000D03*
%TD*%
D22*
%TO.C,J3*%
X106553000Y-76200000D03*
D23*
X106807000Y-78740000D03*
X106553000Y-81280000D03*
X106807000Y-83820000D03*
X106553000Y-86360000D03*
X106807000Y-88900000D03*
X106553000Y-91440000D03*
X106807000Y-93980000D03*
X106553000Y-96520000D03*
X106807000Y-99060000D03*
X106553000Y-101600000D03*
X106807000Y-104140000D03*
X106553000Y-106680000D03*
X106807000Y-109220000D03*
X106553000Y-111760000D03*
X106807000Y-114300000D03*
X106553000Y-116840000D03*
%TD*%
D22*
%TO.C,J4*%
X149733000Y-76200000D03*
D23*
X149987000Y-78740000D03*
X149733000Y-81280000D03*
X149987000Y-83820000D03*
X149733000Y-86360000D03*
X149987000Y-88900000D03*
X149733000Y-91440000D03*
X149987000Y-93980000D03*
X149733000Y-96520000D03*
X149987000Y-99060000D03*
X149733000Y-101600000D03*
X149987000Y-104140000D03*
X149733000Y-106680000D03*
X149987000Y-109220000D03*
X149733000Y-111760000D03*
X149987000Y-114300000D03*
X149733000Y-116840000D03*
%TD*%
M02*
