M48
; DRILL file KiCad 10.0.2 date 2026-07-14T17:02:02
; FORMAT={-:-/ absolute / inch / decimal}
; #@! TF.CreationDate,2026-07-14T17:02:02-04:00
; #@! TF.GenerationSoftware,Kicad,Pcbnew,10.0.2
; #@! TF.FileFunction,Plated,1,4,PTH
FMAT,2
INCH
; #@! TA.AperFunction,Plated,PTH,ViaDrill
T1C0.0118
; #@! TA.AperFunction,Plated,PTH,ComponentDrill
T2C0.0394
%
G90
G05
T1
X4.3579Y-4.2009
X4.5665Y-3.3534
X4.5675Y-3.4253
X4.6669Y-3.8475
X4.7398Y-3.9046
X4.7417Y-3.8249
X4.7743Y-3.8818
X4.7969Y-3.6743
X4.8037Y-3.4125
X4.8047Y-3.5641
X4.8047Y-3.6241
X4.8106Y-3.8269
X4.8126Y-3.1713
X4.8126Y-3.2225
X4.8195Y-3.5099
X4.9976Y-3.1457
X5.0104Y-4.0454
X5.0232Y-3.757
X5.0409Y-3.5887
X5.0508Y-4.1379
X5.075Y-3.945
X5.0931Y-3.4883
X5.0948Y-3.3425
X5.1148Y-3.6359
X5.1197Y-4.1369
X5.1551Y-4.0454
X5.1571Y-3.758
X5.1588Y-3.3477
X5.1591Y-3.4873
X5.1709Y-3.5887
X5.1718Y-3.9548
X5.2102Y-3.1595
X5.2132Y-3.0227
X5.2488Y-3.4225
X5.2614Y-3.4902
X5.2742Y-3.1605
X5.2811Y-3.0207
X5.3785Y-3.4223
X5.4219Y-3.317
X5.6394Y-3.3997
T2
X4.195Y-3.0
X4.195Y-3.2
X4.195Y-3.4
X4.195Y-3.6
X4.195Y-3.8
X4.195Y-4.0
X4.195Y-4.2
X4.195Y-4.4
X4.195Y-4.6
X4.205Y-3.1
X4.205Y-3.3
X4.205Y-3.5
X4.205Y-3.7
X4.205Y-3.9
X4.205Y-4.1
X4.205Y-4.3
X4.205Y-4.5
X5.895Y-3.0
X5.895Y-3.2
X5.895Y-3.4
X5.895Y-3.6
X5.895Y-3.8
X5.895Y-4.0
X5.895Y-4.2
X5.895Y-4.4
X5.895Y-4.6
X5.905Y-3.1
X5.905Y-3.3
X5.905Y-3.5
X5.905Y-3.7
X5.905Y-3.9
X5.905Y-4.1
X5.905Y-4.3
X5.905Y-4.5
M30
