M48
; DRILL file KiCad 10.0.2 date 2026-07-21T08:03:38
; FORMAT={-:-/ absolute / inch / decimal}
; #@! TF.CreationDate,2026-07-21T08:03:38-04:00
; #@! TF.GenerationSoftware,Kicad,Pcbnew,10.0.2
; #@! TF.FileFunction,Plated,1,4,PTH
FMAT,2
INCH
; #@! TA.AperFunction,Plated,PTH,ViaDrill
T1C0.0120
; #@! TA.AperFunction,Plated,PTH,ComponentDrill
T2C0.0250
; #@! TA.AperFunction,Plated,PTH,ComponentDrill
T3C0.0374
; #@! TA.AperFunction,Plated,PTH,ComponentDrill
T4C0.0394
%
G90
G05
T1
X0.1801Y2.2205
X0.1811Y2.3691
X0.4094Y2.2333
X0.4104Y2.1398
X0.614Y2.642
X0.6693Y2.1063
X0.7087Y2.3268
X0.7087Y2.2756
X0.787Y2.045
X0.815Y2.4094
X0.815Y2.374
X0.8189Y1.3937
X0.8307Y1.1297
X0.8583Y2.1693
X0.8701Y1.378
X0.903Y2.1597
X0.9033Y1.2277
X0.9043Y1.0737
X0.9528Y2.4882
X0.9685Y1.4449
X0.9764Y2.3858
X0.979Y1.009
X0.9882Y2.4921
X0.9921Y1.1969
X0.9961Y1.1614
X1.0039Y1.0827
X1.0136Y1.4413
X1.0157Y2.2781
X1.0176Y2.311
X1.0197Y1.9724
X1.05Y1.94
X1.0551Y2.437
X1.0757Y1.1631
X1.0789Y1.0099
X1.0809Y2.1299
X1.0827Y1.0928
X1.0984Y1.9921
X1.102Y1.7799
X1.103Y1.743
X1.1145Y2.3035
X1.1181Y1.9055
X1.1181Y1.815
X1.1201Y2.0433
X1.125Y2.407
X1.1526Y1.9291
X1.1539Y2.2641
X1.1575Y1.1476
X1.158Y2.233
X1.159Y2.301
X1.1713Y1.0571
X1.1868Y1.9608
X1.1919Y1.6201
X1.1959Y2.1309
X1.211Y1.935
X1.2244Y1.0236
X1.2579Y0.9705
X1.263Y1.739
X1.2665Y1.7768
X1.2717Y1.315
X1.2751Y1.2797
X1.2756Y1.8307
X1.2835Y1.2441
X1.2874Y1.9252
X1.296Y2.237
X1.301Y2.289
X1.3107Y1.19
X1.311Y1.374
X1.315Y0.9072
X1.343Y2.854
X1.344Y2.157
X1.3583Y1.7126
X1.3622Y1.3622
X1.3661Y1.3268
X1.378Y1.4232
X1.389Y2.191
X1.392Y2.234
X1.393Y2.281
X1.395Y0.942
X1.4055Y1.3228
X1.422Y2.625
X1.433Y2.592
X1.4566Y2.1319
X1.4727Y1.9148
X1.5192Y2.594
X1.529Y2.816
X1.5354Y1.812
X1.5746Y2.067
X1.5866Y1.7126
T2
X0.617Y2.349
X0.617Y2.299
X0.617Y2.249
X0.617Y2.199
X0.617Y2.149
X0.667Y2.349
X0.667Y2.299
X0.667Y2.249
X0.667Y2.199
X0.667Y2.149
T3
X1.9Y2.5929
X1.9Y2.4945
X1.9Y2.3961
X1.9Y2.2976
T4
X0.195Y1.7976
X0.195Y1.5976
X0.195Y1.3976
X0.195Y1.1976
X0.195Y0.9976
X0.195Y0.7976
X0.195Y0.5976
X0.195Y0.3976
X0.205Y1.8976
X0.205Y1.6976
X0.205Y1.4976
X0.205Y1.2976
X0.205Y1.0976
X0.205Y0.8976
X0.205Y0.6976
X0.205Y0.4976
X0.205Y0.2976
X0.2648Y2.7205
X0.3648Y2.7205
X1.895Y1.7976
X1.895Y1.5976
X1.895Y1.3976
X1.895Y1.1976
X1.895Y0.9976
X1.895Y0.7976
X1.895Y0.5976
X1.895Y0.3976
X1.905Y1.8976
X1.905Y1.6976
X1.905Y1.4976
X1.905Y1.2976
X1.905Y1.0976
X1.905Y0.8976
X1.905Y0.6976
X1.905Y0.4976
X1.905Y0.2976
M30
