%TF.GenerationSoftware,KiCad,Pcbnew,10.0.2*%
%TF.CreationDate,2026-07-21T08:03:38-04:00*%
%TF.ProjectId,tag-breakout-l432-1v8-v1,7461672d-6272-4656-916b-6f75742d6c34,rev?*%
%TF.SameCoordinates,Original*%
%TF.FileFunction,Copper,L3,Inr*%
%TF.FilePolarity,Positive*%
%FSLAX46Y46*%
G04 Gerber Fmt 4.6, Leading zero omitted, Abs format (unit mm)*
G04 Created by KiCad (PCBNEW 10.0.2) date 2026-07-21 08:03:38*
%MOMM*%
%LPD*%
G01*
G04 APERTURE LIST*
G04 Aperture macros list*
%AMRoundRect*
0 Rectangle with rounded corners*
0 $1 Rounding radius*
0 $2 $3 $4 $5 $6 $7 $8 $9 X,Y pos of 4 corners*
0 Add a 4 corners polygon primitive as box body*
4,1,4,$2,$3,$4,$5,$6,$7,$8,$9,$2,$3,0*
0 Add four circle primitives for the rounded corners*
1,1,$1+$1,$2,$3*
1,1,$1+$1,$4,$5*
1,1,$1+$1,$6,$7*
1,1,$1+$1,$8,$9*
0 Add four rect primitives between the rounded corners*
20,1,$1+$1,$2,$3,$4,$5,0*
20,1,$1+$1,$4,$5,$6,$7,0*
20,1,$1+$1,$6,$7,$8,$9,0*
20,1,$1+$1,$8,$9,$2,$3,0*%
G04 Aperture macros list end*
%TA.AperFunction,ComponentPad*%
%ADD10C,1.016000*%
%TD*%
%TA.AperFunction,ComponentPad*%
%ADD11R,1.700000X1.700000*%
%TD*%
%TA.AperFunction,ComponentPad*%
%ADD12C,1.700000*%
%TD*%
%TA.AperFunction,ComponentPad*%
%ADD13O,1.700000X1.700000*%
%TD*%
%TA.AperFunction,ComponentPad*%
%ADD14RoundRect,0.250000X0.725000X-0.600000X0.725000X0.600000X-0.725000X0.600000X-0.725000X-0.600000X0*%
%TD*%
%TA.AperFunction,ComponentPad*%
%ADD15O,1.950000X1.700000*%
%TD*%
%TA.AperFunction,ViaPad*%
%ADD16C,0.660400*%
%TD*%
G04 APERTURE END LIST*
D10*
%TO.N,+3V3*%
%TO.C,J102*%
X15671800Y59664600D03*
%TO.N,/SWDIO*%
X16941800Y59664600D03*
%TO.N,GND*%
X15671800Y58394600D03*
%TO.N,/SCLK*%
X16941800Y58394600D03*
%TO.N,GND*%
X15671800Y57124600D03*
%TO.N,unconnected-(J102-Pin_6-Pad6)*%
X16941800Y57124600D03*
%TO.N,unconnected-(J102-Pin_7-Pad7)*%
X15671800Y55854600D03*
%TO.N,unconnected-(J102-Pin_8-Pad8)*%
X16941800Y55854600D03*
%TO.N,GND*%
X15671800Y54584600D03*
%TO.N,/NRST*%
X16941800Y54584600D03*
%TD*%
D11*
%TO.N,/UART_TX*%
%TO.C,J2*%
X9265000Y69100000D03*
D12*
%TO.N,GND*%
X6725000Y69100000D03*
%TD*%
D11*
%TO.N,/stm32/PB4*%
%TO.C,J3*%
X5207000Y48200000D03*
D13*
%TO.N,/stm32/PB5*%
X4953000Y45660000D03*
%TO.N,/stm32/rtc_scl*%
X5207000Y43120000D03*
%TO.N,/stm32/rtc_sda*%
X4953000Y40580000D03*
%TO.N,GND*%
X5207000Y38040000D03*
X4953000Y35500000D03*
%TO.N,TAG_1V8*%
X5207000Y32960000D03*
%TO.N,/stm32/PA0*%
X4953000Y30420000D03*
%TO.N,/stm32/PA1*%
X5207000Y27880000D03*
%TO.N,/stm32/PA2*%
X4953000Y25340000D03*
%TO.N,/stm32/PA3*%
X5207000Y22800000D03*
%TO.N,/stm32/PA4*%
X4953000Y20260000D03*
%TO.N,/stm32/PA5*%
X5207000Y17720000D03*
%TO.N,/stm32/PA6*%
X4953000Y15180000D03*
%TO.N,/stm32/PA7*%
X5207000Y12640000D03*
%TO.N,/stm32/PB0*%
X4953000Y10100000D03*
%TO.N,GND*%
X5207000Y7560000D03*
%TD*%
D11*
%TO.N,TAG_1V8*%
%TO.C,J4*%
X48387000Y48200000D03*
D13*
%TO.N,/stm32/PB3*%
X48133000Y45660000D03*
%TO.N,/stm32/PA15*%
X48387000Y43120000D03*
%TO.N,/stm32/PA12*%
X48133000Y40580000D03*
%TO.N,/stm32/PA11*%
X48387000Y38040000D03*
%TO.N,/stm32/PA10*%
X48133000Y35500000D03*
%TO.N,/stm32/PA9*%
X48387000Y32960000D03*
%TO.N,/stm32/PA8*%
X48133000Y30420000D03*
%TO.N,GND*%
X48387000Y27880000D03*
X48133000Y25340000D03*
X48387000Y22800000D03*
X48133000Y20260000D03*
X48387000Y17720000D03*
X48133000Y15180000D03*
X48387000Y12640000D03*
%TO.N,/stm32/PB1*%
X48133000Y10100000D03*
%TO.N,GND*%
X48387000Y7560000D03*
%TD*%
D14*
%TO.N,PWR_IN_MIRROR*%
%TO.C,J1*%
X48260000Y58360000D03*
D15*
%TO.N,PWR_IN*%
X48260000Y60860000D03*
%TO.N,AUX_PWR*%
X48260000Y63360000D03*
%TO.N,GND*%
X48260000Y65860000D03*
%TD*%
D16*
%TO.N,+3V3*%
X32700000Y48900000D03*
X28400000Y48400000D03*
X4600000Y60175000D03*
X38587600Y65887600D03*
X39995300Y52501300D03*
X4575000Y56400000D03*
X33045400Y58140600D03*
X34137600Y54787800D03*
X26800000Y61900000D03*
%TO.N,GND*%
X38836600Y71526400D03*
X20800000Y35400000D03*
X22968400Y27271000D03*
X35356800Y56743600D03*
X17000000Y53500000D03*
X25300000Y29500000D03*
X36398200Y65836800D03*
X35700000Y33600000D03*
X34500000Y43500000D03*
X24200000Y63200000D03*
X32080200Y44170600D03*
X28016200Y44272200D03*
X25100000Y63300000D03*
X15595600Y67106800D03*
X30759400Y49149000D03*
X36998200Y54150000D03*
X24866600Y25628600D03*
X27323835Y29543600D03*
X33300000Y34900000D03*
X35000000Y36150000D03*
X27900000Y50600000D03*
X29750000Y26850000D03*
X18000000Y57800000D03*
X34112200Y72491600D03*
X29438600Y58445400D03*
X28309050Y58509050D03*
X24600000Y36700000D03*
X35382200Y57937400D03*
X31950000Y24650000D03*
X29309050Y57509050D03*
X32300000Y33400000D03*
X29413200Y56718200D03*
X35280600Y55651400D03*
X10400000Y56725000D03*
X21800000Y55100000D03*
X18000000Y59100000D03*
X28575000Y61137800D03*
X19989800Y51943000D03*
X31100000Y26000000D03*
X24800000Y60600000D03*
X33400000Y23043600D03*
X20700000Y61200000D03*
X29400000Y29150000D03*
X37406434Y48636366D03*
X36118800Y66675000D03*
X22943000Y31182600D03*
X26670000Y49276000D03*
X32400000Y46500000D03*
X40300000Y43500000D03*
X28400000Y46100000D03*
%TO.N,/NRST*%
X32918400Y56819800D03*
%TO.N,/boot0*%
X10425000Y54350000D03*
X30375000Y54125000D03*
%TO.N,Net-(U5-PA10)*%
X25800000Y57863800D03*
X22936200Y54856400D03*
%TO.N,TAG_1V8*%
X27405000Y25651400D03*
X27500000Y27758200D03*
X39000000Y46025000D03*
X21099200Y28693400D03*
X35433000Y23926800D03*
%TO.N,/stm32/NRST*%
X25746200Y36608200D03*
X25500000Y27500000D03*
%TO.N,/UART_TX*%
X20700000Y60300000D03*
X25848088Y58700000D03*
%TO.N,/stm32/rtc_scl*%
X22100000Y35000000D03*
X25200000Y30400000D03*
%TO.N,/stm32/PB3*%
X34600000Y34600000D03*
X32387078Y32503373D03*
%TO.N,/stm32/PA15*%
X34700000Y33700000D03*
X32600000Y31600000D03*
%TO.N,+1V8*%
X27990600Y45209400D03*
X32169400Y45130600D03*
%TO.N,Net-(U5-PB4)*%
X30145200Y49804800D03*
%TO.N,Net-(U5-PA15)*%
X28450000Y51900000D03*
X29275000Y49000000D03*
X27454300Y54100000D03*
%TO.N,Net-(U5-PB3)*%
X25900000Y50100000D03*
%TO.N,TAG_SWDIO*%
X30275000Y41150000D03*
%TO.N,TAG_SCK*%
X33292500Y30225000D03*
%TD*%
%TA.AperFunction,Conductor*%
%TO.N,+3V3*%
G36*
X53205951Y69153132D02*
G01*
X53252501Y69101027D01*
X53264500Y69047813D01*
X53264500Y52034740D01*
X53244815Y51967701D01*
X53192011Y51921946D01*
X53139352Y51910745D01*
X46072838Y51976159D01*
X39731985Y47223972D01*
X39666535Y47199519D01*
X39660035Y47199222D01*
X24321759Y46900424D01*
X24279399Y46907010D01*
X14709009Y50163601D01*
X25416900Y50163601D01*
X25416900Y50036400D01*
X25449822Y49913529D01*
X25457023Y49901057D01*
X25513424Y49803369D01*
X25603369Y49713424D01*
X25713530Y49649822D01*
X25836399Y49616900D01*
X25836401Y49616900D01*
X25963598Y49616900D01*
X25963601Y49616900D01*
X26083032Y49648901D01*
X26152878Y49647238D01*
X26210741Y49608076D01*
X26238245Y49543847D01*
X26226659Y49474945D01*
X26222511Y49467130D01*
X26219824Y49462478D01*
X26219823Y49462474D01*
X26219822Y49462470D01*
X26186900Y49339601D01*
X26186900Y49212399D01*
X26193847Y49186472D01*
X26219822Y49089529D01*
X26233952Y49065056D01*
X26283424Y48979369D01*
X26373369Y48889424D01*
X26483530Y48825822D01*
X26606399Y48792900D01*
X26606401Y48792900D01*
X26733599Y48792900D01*
X26733601Y48792900D01*
X26856470Y48825822D01*
X26966631Y48889424D01*
X27056576Y48979369D01*
X27105208Y49063601D01*
X28791900Y49063601D01*
X28791900Y48936400D01*
X28824822Y48813529D01*
X28854327Y48762427D01*
X28888424Y48703369D01*
X28978369Y48613424D01*
X29088530Y48549822D01*
X29211399Y48516900D01*
X29211401Y48516900D01*
X29338599Y48516900D01*
X29338601Y48516900D01*
X29461470Y48549822D01*
X29571631Y48613424D01*
X29661576Y48703369D01*
X29725178Y48813530D01*
X29758100Y48936399D01*
X29758100Y49063601D01*
X29725178Y49186470D01*
X29720814Y49194028D01*
X29694165Y49240186D01*
X29677691Y49308085D01*
X29700543Y49374113D01*
X29755463Y49417304D01*
X29825017Y49423946D01*
X29863549Y49409575D01*
X29958730Y49354622D01*
X30081599Y49321700D01*
X30081601Y49321700D01*
X30152300Y49321700D01*
X30219339Y49302015D01*
X30265094Y49249211D01*
X30276300Y49197700D01*
X30276300Y49085400D01*
X30309222Y48962529D01*
X30324308Y48936400D01*
X30372824Y48852369D01*
X30462769Y48762424D01*
X30572930Y48698822D01*
X30695799Y48665900D01*
X30695801Y48665900D01*
X30822999Y48665900D01*
X30823001Y48665900D01*
X30945870Y48698822D01*
X30947853Y48699967D01*
X36923334Y48699967D01*
X36923334Y48572765D01*
X36938302Y48516901D01*
X36956256Y48449895D01*
X36988057Y48394816D01*
X37019858Y48339735D01*
X37109803Y48249790D01*
X37219964Y48186188D01*
X37342833Y48153266D01*
X37342835Y48153266D01*
X37470033Y48153266D01*
X37470035Y48153266D01*
X37592904Y48186188D01*
X37703065Y48249790D01*
X37793010Y48339735D01*
X37856612Y48449896D01*
X37889534Y48572765D01*
X37889534Y48699967D01*
X37856612Y48822836D01*
X37854887Y48825823D01*
X37818167Y48889424D01*
X37793010Y48932997D01*
X37703065Y49022942D01*
X37630122Y49065056D01*
X37592905Y49086544D01*
X37528417Y49103823D01*
X37470035Y49119466D01*
X37342833Y49119466D01*
X37219962Y49086544D01*
X37109803Y49022942D01*
X37109800Y49022940D01*
X37019860Y48933000D01*
X37019858Y48932997D01*
X36956256Y48822838D01*
X36940070Y48762427D01*
X36923334Y48699967D01*
X30947853Y48699967D01*
X31056031Y48762424D01*
X31145976Y48852369D01*
X31209578Y48962530D01*
X31242500Y49085399D01*
X31242500Y49212601D01*
X31209578Y49335470D01*
X31145976Y49445631D01*
X31056031Y49535576D01*
X31000950Y49567377D01*
X30945871Y49599178D01*
X30879729Y49616900D01*
X30823001Y49632100D01*
X30752300Y49632100D01*
X30685261Y49651785D01*
X30639506Y49704589D01*
X30628300Y49756100D01*
X30628300Y49868399D01*
X30628300Y49868401D01*
X30595378Y49991270D01*
X30531776Y50101431D01*
X30441831Y50191376D01*
X30386750Y50223177D01*
X30331671Y50254978D01*
X30270235Y50271439D01*
X30208801Y50287900D01*
X30081599Y50287900D01*
X29958728Y50254978D01*
X29848569Y50191376D01*
X29848566Y50191374D01*
X29758626Y50101434D01*
X29758624Y50101431D01*
X29695022Y49991272D01*
X29670850Y49901057D01*
X29662100Y49868401D01*
X29662100Y49741199D01*
X29678561Y49679765D01*
X29695022Y49618329D01*
X29726035Y49564615D01*
X29742508Y49496715D01*
X29719656Y49430688D01*
X29664735Y49387497D01*
X29595182Y49380855D01*
X29556648Y49395227D01*
X29461473Y49450177D01*
X29461470Y49450178D01*
X29338601Y49483100D01*
X29211399Y49483100D01*
X29088528Y49450178D01*
X28978369Y49386576D01*
X28978366Y49386574D01*
X28888426Y49296634D01*
X28888424Y49296631D01*
X28824822Y49186472D01*
X28791900Y49063601D01*
X27105208Y49063601D01*
X27120178Y49089530D01*
X27153100Y49212399D01*
X27153100Y49339601D01*
X27120178Y49462470D01*
X27120173Y49462478D01*
X27093793Y49508169D01*
X27056576Y49572631D01*
X26966631Y49662576D01*
X26893863Y49704589D01*
X26856471Y49726178D01*
X26744797Y49756100D01*
X26733601Y49759100D01*
X26606399Y49759100D01*
X26606397Y49759100D01*
X26486969Y49727100D01*
X26417120Y49728763D01*
X26359257Y49767926D01*
X26331754Y49832155D01*
X26343341Y49901057D01*
X26347494Y49908882D01*
X26350177Y49913529D01*
X26350178Y49913530D01*
X26383100Y50036399D01*
X26383100Y50163601D01*
X26350178Y50286470D01*
X26349352Y50287900D01*
X26340421Y50303370D01*
X26286576Y50396631D01*
X26196631Y50486576D01*
X26110336Y50536399D01*
X26086471Y50550178D01*
X26083797Y50550894D01*
X25963601Y50583100D01*
X25836399Y50583100D01*
X25713528Y50550178D01*
X25603369Y50486576D01*
X25603366Y50486574D01*
X25513426Y50396634D01*
X25513424Y50396631D01*
X25449822Y50286472D01*
X25416900Y50163601D01*
X14709009Y50163601D01*
X13239621Y50663601D01*
X27416900Y50663601D01*
X27416900Y50536400D01*
X27449822Y50413529D01*
X27481623Y50358450D01*
X27513424Y50303369D01*
X27603369Y50213424D01*
X27713530Y50149822D01*
X27836399Y50116900D01*
X27836401Y50116900D01*
X27963599Y50116900D01*
X27963601Y50116900D01*
X28086470Y50149822D01*
X28196631Y50213424D01*
X28286576Y50303369D01*
X28350178Y50413530D01*
X28383100Y50536399D01*
X28383100Y50663601D01*
X28350178Y50786470D01*
X28286576Y50896631D01*
X28196631Y50986576D01*
X28141550Y51018377D01*
X28086471Y51050178D01*
X28025035Y51066639D01*
X27963601Y51083100D01*
X27836399Y51083100D01*
X27713528Y51050178D01*
X27603369Y50986576D01*
X27603366Y50986574D01*
X27513426Y50896634D01*
X27513424Y50896631D01*
X27449822Y50786472D01*
X27416900Y50663601D01*
X13239621Y50663601D01*
X9900000Y51800000D01*
X9726471Y51804777D01*
X6601871Y51890775D01*
X2393575Y52006601D01*
X19506700Y52006601D01*
X19506700Y51879400D01*
X19539622Y51756529D01*
X19564448Y51713530D01*
X19603224Y51646369D01*
X19693169Y51556424D01*
X19803330Y51492822D01*
X19926199Y51459900D01*
X19926201Y51459900D01*
X20053399Y51459900D01*
X20053401Y51459900D01*
X20176270Y51492822D01*
X20286431Y51556424D01*
X20376376Y51646369D01*
X20439978Y51756530D01*
X20472900Y51879399D01*
X20472900Y51963601D01*
X27966900Y51963601D01*
X27966900Y51836400D01*
X27999822Y51713529D01*
X28031623Y51658450D01*
X28063424Y51603369D01*
X28153369Y51513424D01*
X28263530Y51449822D01*
X28386399Y51416900D01*
X28386401Y51416900D01*
X28513599Y51416900D01*
X28513601Y51416900D01*
X28636470Y51449822D01*
X28746631Y51513424D01*
X28836576Y51603369D01*
X28900178Y51713530D01*
X28933100Y51836399D01*
X28933100Y51963601D01*
X28900178Y52086470D01*
X28836576Y52196631D01*
X28746631Y52286576D01*
X28672157Y52329574D01*
X28636471Y52350178D01*
X28575035Y52366639D01*
X28513601Y52383100D01*
X28386399Y52383100D01*
X28263528Y52350178D01*
X28153369Y52286576D01*
X28153366Y52286574D01*
X28063426Y52196634D01*
X28063424Y52196631D01*
X27999822Y52086472D01*
X27966900Y51963601D01*
X20472900Y51963601D01*
X20472900Y52006601D01*
X20439978Y52129470D01*
X20376376Y52239631D01*
X20286431Y52329576D01*
X20231350Y52361377D01*
X20176271Y52393178D01*
X20114835Y52409639D01*
X20053401Y52426100D01*
X19926199Y52426100D01*
X19803328Y52393178D01*
X19693169Y52329576D01*
X19693166Y52329574D01*
X19603226Y52239634D01*
X19603224Y52239631D01*
X19539622Y52129472D01*
X19506700Y52006601D01*
X2393575Y52006601D01*
X196088Y52067083D01*
X129616Y52088604D01*
X85331Y52142647D01*
X75500Y52191036D01*
X75500Y54413601D01*
X9941900Y54413601D01*
X9941900Y54286399D01*
X9955442Y54235857D01*
X9974822Y54163529D01*
X10006623Y54108450D01*
X10038424Y54053369D01*
X10128369Y53963424D01*
X10238530Y53899822D01*
X10361399Y53866900D01*
X10361401Y53866900D01*
X10488599Y53866900D01*
X10488601Y53866900D01*
X10611470Y53899822D01*
X10721631Y53963424D01*
X10811576Y54053369D01*
X10875178Y54163530D01*
X10908100Y54286399D01*
X10908100Y54413601D01*
X10875178Y54536470D01*
X10811576Y54646631D01*
X10721631Y54736576D01*
X10666550Y54768377D01*
X10611471Y54800178D01*
X10550035Y54816639D01*
X10488601Y54833100D01*
X10361399Y54833100D01*
X10238528Y54800178D01*
X10128369Y54736576D01*
X10128366Y54736574D01*
X10038426Y54646634D01*
X10038424Y54646631D01*
X9974822Y54536472D01*
X9950751Y54446634D01*
X9941900Y54413601D01*
X75500Y54413601D01*
X75500Y56788601D01*
X9916900Y56788601D01*
X9916900Y56661399D01*
X9930339Y56611244D01*
X9949822Y56538529D01*
X9966621Y56509433D01*
X10013424Y56428369D01*
X10103369Y56338424D01*
X10181314Y56293422D01*
X10211664Y56275899D01*
X10213530Y56274822D01*
X10336399Y56241900D01*
X10336401Y56241900D01*
X10463599Y56241900D01*
X10463601Y56241900D01*
X10586470Y56274822D01*
X10696631Y56338424D01*
X10786576Y56428369D01*
X10850178Y56538530D01*
X10883100Y56661399D01*
X10883100Y56788601D01*
X10850178Y56911470D01*
X10786576Y57021631D01*
X10696631Y57111576D01*
X10631160Y57149376D01*
X10586471Y57175178D01*
X10517052Y57193778D01*
X10463601Y57208100D01*
X10336399Y57208100D01*
X10213528Y57175178D01*
X10103369Y57111576D01*
X10103366Y57111574D01*
X10013426Y57021634D01*
X10013424Y57021631D01*
X9949822Y56911472D01*
X9931681Y56843767D01*
X9916900Y56788601D01*
X75500Y56788601D01*
X75500Y58459698D01*
X15010900Y58459698D01*
X15010900Y58329503D01*
X15036296Y58201831D01*
X15036299Y58201819D01*
X15086114Y58081553D01*
X15086121Y58081540D01*
X15158444Y57973302D01*
X15158447Y57973298D01*
X15250497Y57881248D01*
X15250503Y57881243D01*
X15278252Y57862701D01*
X15323057Y57809088D01*
X15331763Y57739763D01*
X15301607Y57676736D01*
X15278252Y57656499D01*
X15250503Y57637958D01*
X15250497Y57637953D01*
X15158447Y57545903D01*
X15158444Y57545899D01*
X15086121Y57437661D01*
X15086114Y57437648D01*
X15036299Y57317382D01*
X15036296Y57317370D01*
X15010900Y57189698D01*
X15010900Y57059503D01*
X15036296Y56931831D01*
X15036299Y56931819D01*
X15086114Y56811553D01*
X15086121Y56811540D01*
X15158444Y56703302D01*
X15158447Y56703298D01*
X15250497Y56611248D01*
X15250503Y56611243D01*
X15278252Y56592701D01*
X15323057Y56539088D01*
X15331763Y56469763D01*
X15301607Y56406736D01*
X15278252Y56386499D01*
X15250503Y56367958D01*
X15250497Y56367953D01*
X15158447Y56275903D01*
X15158444Y56275899D01*
X15086121Y56167661D01*
X15086114Y56167648D01*
X15036299Y56047382D01*
X15036296Y56047370D01*
X15010900Y55919698D01*
X15010900Y55789503D01*
X15036296Y55661831D01*
X15036299Y55661819D01*
X15086114Y55541553D01*
X15086121Y55541540D01*
X15158444Y55433302D01*
X15158447Y55433298D01*
X15250497Y55341248D01*
X15250503Y55341243D01*
X15278252Y55322701D01*
X15323057Y55269088D01*
X15331763Y55199763D01*
X15301607Y55136736D01*
X15278252Y55116499D01*
X15250503Y55097958D01*
X15250497Y55097953D01*
X15158447Y55005903D01*
X15158444Y55005899D01*
X15086121Y54897661D01*
X15086114Y54897648D01*
X15036299Y54777382D01*
X15036296Y54777370D01*
X15010900Y54649698D01*
X15010900Y54519503D01*
X15036296Y54391831D01*
X15036299Y54391819D01*
X15086114Y54271553D01*
X15086121Y54271540D01*
X15158444Y54163302D01*
X15158447Y54163298D01*
X15250497Y54071248D01*
X15250501Y54071245D01*
X15358739Y53998922D01*
X15358752Y53998915D01*
X15479018Y53949100D01*
X15479023Y53949098D01*
X15599483Y53925137D01*
X15606702Y53923701D01*
X15606705Y53923700D01*
X15606707Y53923700D01*
X15736895Y53923700D01*
X15736896Y53923701D01*
X15864577Y53949098D01*
X15984854Y53998918D01*
X16093099Y54071245D01*
X16185155Y54163301D01*
X16203697Y54191051D01*
X16257309Y54235857D01*
X16326633Y54244566D01*
X16389661Y54214412D01*
X16409903Y54191051D01*
X16428443Y54163303D01*
X16428447Y54163298D01*
X16520497Y54071248D01*
X16520501Y54071245D01*
X16615192Y54007974D01*
X16659997Y53954362D01*
X16668704Y53885037D01*
X16638550Y53822009D01*
X16633986Y53817194D01*
X16613424Y53796632D01*
X16613424Y53796631D01*
X16549822Y53686472D01*
X16516900Y53563601D01*
X16516900Y53436400D01*
X16549822Y53313529D01*
X16581623Y53258450D01*
X16613424Y53203369D01*
X16703369Y53113424D01*
X16813530Y53049822D01*
X16936399Y53016900D01*
X16936401Y53016900D01*
X17063599Y53016900D01*
X17063601Y53016900D01*
X17186470Y53049822D01*
X17296631Y53113424D01*
X17386576Y53203369D01*
X17450178Y53313530D01*
X17483100Y53436399D01*
X17483100Y53563601D01*
X17450178Y53686470D01*
X17386576Y53796631D01*
X17319393Y53863814D01*
X17285908Y53925137D01*
X17290892Y53994829D01*
X17332764Y54050762D01*
X17338185Y54054598D01*
X17348366Y54061401D01*
X17363099Y54071245D01*
X17455155Y54163301D01*
X17455355Y54163601D01*
X26971200Y54163601D01*
X26971200Y54036399D01*
X26987661Y53974965D01*
X27004122Y53913529D01*
X27031043Y53866901D01*
X27067724Y53803369D01*
X27157669Y53713424D01*
X27267830Y53649822D01*
X27390699Y53616900D01*
X27390701Y53616900D01*
X27517899Y53616900D01*
X27517901Y53616900D01*
X27640770Y53649822D01*
X27750931Y53713424D01*
X27840876Y53803369D01*
X27904478Y53913530D01*
X27937400Y54036399D01*
X27937400Y54163601D01*
X27930701Y54188601D01*
X29891900Y54188601D01*
X29891900Y54061399D01*
X29894052Y54053369D01*
X29924822Y53938529D01*
X29933384Y53923700D01*
X29988424Y53828369D01*
X30078369Y53738424D01*
X30188530Y53674822D01*
X30311399Y53641900D01*
X30311401Y53641900D01*
X30438599Y53641900D01*
X30438601Y53641900D01*
X30561470Y53674822D01*
X30671631Y53738424D01*
X30761576Y53828369D01*
X30825178Y53938530D01*
X30858100Y54061399D01*
X30858100Y54188601D01*
X30851401Y54213601D01*
X36515100Y54213601D01*
X36515100Y54086399D01*
X36519161Y54071244D01*
X36548022Y53963529D01*
X36556353Y53949100D01*
X36611624Y53853369D01*
X36701569Y53763424D01*
X36811730Y53699822D01*
X36934599Y53666900D01*
X36934601Y53666900D01*
X37061799Y53666900D01*
X37061801Y53666900D01*
X37184670Y53699822D01*
X37294831Y53763424D01*
X37384776Y53853369D01*
X37448378Y53963530D01*
X37481300Y54086399D01*
X37481300Y54213601D01*
X37448378Y54336470D01*
X37384776Y54446631D01*
X37294831Y54536576D01*
X37214250Y54583100D01*
X37184671Y54600178D01*
X37122258Y54616901D01*
X37061801Y54633100D01*
X36934599Y54633100D01*
X36811728Y54600178D01*
X36701569Y54536576D01*
X36701566Y54536574D01*
X36611626Y54446634D01*
X36611624Y54446631D01*
X36548022Y54336472D01*
X36530628Y54271553D01*
X36515100Y54213601D01*
X30851401Y54213601D01*
X30835875Y54271546D01*
X30825178Y54311470D01*
X30761576Y54421631D01*
X30671631Y54511576D01*
X30604771Y54550178D01*
X30561471Y54575178D01*
X30500035Y54591639D01*
X30438601Y54608100D01*
X30311399Y54608100D01*
X30188528Y54575178D01*
X30078369Y54511576D01*
X30078366Y54511574D01*
X29988426Y54421634D01*
X29988424Y54421631D01*
X29924822Y54311472D01*
X29898598Y54213599D01*
X29891900Y54188601D01*
X27930701Y54188601D01*
X27908478Y54271540D01*
X27904478Y54286470D01*
X27840876Y54396631D01*
X27750931Y54486576D01*
X27664513Y54536470D01*
X27640771Y54550178D01*
X27579335Y54566639D01*
X27517901Y54583100D01*
X27390699Y54583100D01*
X27267828Y54550178D01*
X27157669Y54486576D01*
X27157666Y54486574D01*
X27067726Y54396634D01*
X27067724Y54396631D01*
X27004122Y54286472D01*
X26977898Y54188599D01*
X26971200Y54163601D01*
X17455355Y54163601D01*
X17488763Y54213599D01*
X17506818Y54240619D01*
X17527478Y54271540D01*
X17527478Y54271541D01*
X17527482Y54271546D01*
X17577302Y54391823D01*
X17602700Y54519507D01*
X17602700Y54649693D01*
X17602700Y54649696D01*
X17602699Y54649698D01*
X17577303Y54777370D01*
X17577302Y54777377D01*
X17567858Y54800178D01*
X17527485Y54897648D01*
X17527478Y54897661D01*
X17455155Y55005899D01*
X17455152Y55005903D01*
X17382084Y55078971D01*
X17382079Y55078975D01*
X17363099Y55097955D01*
X17331179Y55119283D01*
X17327256Y55122390D01*
X17309859Y55146997D01*
X17295982Y55163601D01*
X21316900Y55163601D01*
X21316900Y55036400D01*
X21349822Y54913529D01*
X21378287Y54864228D01*
X21413424Y54803369D01*
X21503369Y54713424D01*
X21613530Y54649822D01*
X21736399Y54616900D01*
X21736401Y54616900D01*
X21863599Y54616900D01*
X21863601Y54616900D01*
X21986470Y54649822D01*
X22096631Y54713424D01*
X22186576Y54803369D01*
X22221713Y54864229D01*
X22272280Y54912444D01*
X22340887Y54925667D01*
X22405752Y54899699D01*
X22446280Y54842784D01*
X22453100Y54802228D01*
X22453100Y54792799D01*
X22457231Y54777382D01*
X22486022Y54669929D01*
X22507286Y54633100D01*
X22549624Y54559769D01*
X22639569Y54469824D01*
X22749730Y54406222D01*
X22872599Y54373300D01*
X22872601Y54373300D01*
X22999799Y54373300D01*
X22999801Y54373300D01*
X23122670Y54406222D01*
X23232831Y54469824D01*
X23322776Y54559769D01*
X23386378Y54669930D01*
X23419300Y54792799D01*
X23419300Y54920001D01*
X23386378Y55042870D01*
X23385750Y55043957D01*
X23357913Y55092172D01*
X23322776Y55153031D01*
X23232831Y55242976D01*
X23157498Y55286470D01*
X23122671Y55306578D01*
X23061235Y55323039D01*
X22999801Y55339500D01*
X22872599Y55339500D01*
X22749728Y55306578D01*
X22639569Y55242976D01*
X22639566Y55242974D01*
X22549626Y55153034D01*
X22549624Y55153031D01*
X22517825Y55097953D01*
X22514487Y55092172D01*
X22463919Y55043957D01*
X22395312Y55030735D01*
X22330448Y55056703D01*
X22289920Y55113617D01*
X22283100Y55154173D01*
X22283100Y55163599D01*
X22283100Y55163601D01*
X22250178Y55286470D01*
X22186576Y55396631D01*
X22096631Y55486576D01*
X22041550Y55518377D01*
X21986471Y55550178D01*
X21925035Y55566639D01*
X21863601Y55583100D01*
X21736399Y55583100D01*
X21613528Y55550178D01*
X21503369Y55486576D01*
X21503366Y55486574D01*
X21413426Y55396634D01*
X21413424Y55396631D01*
X21349822Y55286472D01*
X21316900Y55163601D01*
X17295982Y55163601D01*
X17290543Y55170109D01*
X17289899Y55175228D01*
X17286921Y55179441D01*
X17285589Y55209540D01*
X17281834Y55239433D01*
X17284061Y55244088D01*
X17283833Y55249243D01*
X17298986Y55275285D01*
X17311988Y55302461D01*
X17317659Y55307375D01*
X17318973Y55309633D01*
X17322124Y55311245D01*
X17335349Y55322703D01*
X17363096Y55341243D01*
X17363099Y55341245D01*
X17455155Y55433301D01*
X17527482Y55541546D01*
X17531058Y55550178D01*
X17577300Y55661819D01*
X17577302Y55661823D01*
X17581787Y55684373D01*
X17587880Y55715001D01*
X34797500Y55715001D01*
X34797500Y55587800D01*
X34830422Y55464929D01*
X34848683Y55433301D01*
X34894024Y55354769D01*
X34983969Y55264824D01*
X35094130Y55201222D01*
X35216999Y55168300D01*
X35217001Y55168300D01*
X35344199Y55168300D01*
X35344201Y55168300D01*
X35467070Y55201222D01*
X35577231Y55264824D01*
X35667176Y55354769D01*
X35730778Y55464930D01*
X35763700Y55587799D01*
X35763700Y55715001D01*
X35730778Y55837870D01*
X35667176Y55948031D01*
X35577231Y56037976D01*
X35577228Y56037978D01*
X35577224Y56037981D01*
X35523183Y56069182D01*
X35474968Y56119749D01*
X35461746Y56188356D01*
X35487714Y56253221D01*
X35537744Y56291134D01*
X35543265Y56293421D01*
X35543270Y56293422D01*
X35653431Y56357024D01*
X35743376Y56446969D01*
X35806978Y56557130D01*
X35839900Y56679999D01*
X35839900Y56807201D01*
X35830101Y56843772D01*
X49409500Y56843772D01*
X49409500Y56676229D01*
X49442182Y56511926D01*
X49442184Y56511918D01*
X49506295Y56357140D01*
X49506296Y56357138D01*
X49506297Y56357137D01*
X49506372Y56357025D01*
X49599373Y56217838D01*
X49717837Y56099374D01*
X49763023Y56069182D01*
X49857137Y56006297D01*
X50011918Y55942184D01*
X50176228Y55909501D01*
X50176232Y55909500D01*
X50176233Y55909500D01*
X50343768Y55909500D01*
X50343769Y55909501D01*
X50508082Y55942184D01*
X50662863Y56006297D01*
X50802162Y56099374D01*
X50920626Y56217838D01*
X51013703Y56357137D01*
X51077816Y56511918D01*
X51110500Y56676233D01*
X51110500Y56843767D01*
X51077816Y57008082D01*
X51027243Y57130176D01*
X51013704Y57162861D01*
X50920626Y57302163D01*
X50802162Y57420627D01*
X50662860Y57513705D01*
X50508082Y57577816D01*
X50508074Y57577818D01*
X50343771Y57610500D01*
X50343767Y57610500D01*
X50176233Y57610500D01*
X50176228Y57610500D01*
X50011925Y57577818D01*
X50011917Y57577816D01*
X49857139Y57513705D01*
X49717837Y57420627D01*
X49599373Y57302163D01*
X49506295Y57162861D01*
X49442184Y57008083D01*
X49442182Y57008075D01*
X49409500Y56843772D01*
X35830101Y56843772D01*
X35806978Y56930070D01*
X35743376Y57040231D01*
X35653431Y57130176D01*
X35543270Y57193778D01*
X35504511Y57204164D01*
X35469410Y57213569D01*
X35469407Y57213570D01*
X35420401Y57226700D01*
X35293199Y57226700D01*
X35266073Y57219432D01*
X35170328Y57193778D01*
X35060169Y57130176D01*
X35060166Y57130174D01*
X34970226Y57040234D01*
X34970224Y57040231D01*
X34906622Y56930072D01*
X34876531Y56817767D01*
X34873700Y56807201D01*
X34873700Y56679999D01*
X34878684Y56661399D01*
X34906622Y56557129D01*
X34932721Y56511926D01*
X34970224Y56446969D01*
X35060169Y56357024D01*
X35114216Y56325820D01*
X35162431Y56275252D01*
X35175653Y56206645D01*
X35149685Y56141781D01*
X35099666Y56103871D01*
X35094130Y56101579D01*
X34983969Y56037976D01*
X34983966Y56037974D01*
X34894026Y55948034D01*
X34894024Y55948031D01*
X34830422Y55837872D01*
X34797500Y55715001D01*
X17587880Y55715001D01*
X17594309Y55747320D01*
X17594309Y55747321D01*
X17602699Y55789503D01*
X17602700Y55789505D01*
X17602700Y55919696D01*
X17602699Y55919698D01*
X17597063Y55948034D01*
X17577302Y56047377D01*
X17568270Y56069182D01*
X17527485Y56167648D01*
X17527478Y56167661D01*
X17455155Y56275899D01*
X17455152Y56275903D01*
X17363102Y56367953D01*
X17363097Y56367957D01*
X17335349Y56386497D01*
X17290543Y56440109D01*
X17281834Y56509433D01*
X17311988Y56572461D01*
X17335349Y56592703D01*
X17363096Y56611243D01*
X17363099Y56611245D01*
X17455155Y56703301D01*
X17527482Y56811546D01*
X17577302Y56931823D01*
X17602700Y57059507D01*
X17602700Y57189693D01*
X17602700Y57189696D01*
X17602699Y57189698D01*
X17592754Y57239698D01*
X17598981Y57309289D01*
X17641844Y57364467D01*
X17707734Y57387711D01*
X17775731Y57371643D01*
X17776373Y57371275D01*
X17813527Y57349823D01*
X17813529Y57349823D01*
X17813530Y57349822D01*
X17936399Y57316900D01*
X17936401Y57316900D01*
X18063599Y57316900D01*
X18063601Y57316900D01*
X18186470Y57349822D01*
X18296631Y57413424D01*
X18386576Y57503369D01*
X18450178Y57613530D01*
X18483100Y57736399D01*
X18483100Y57863601D01*
X18466005Y57927401D01*
X25316900Y57927401D01*
X25316900Y57800200D01*
X25349822Y57677329D01*
X25381623Y57622250D01*
X25413424Y57567169D01*
X25503369Y57477224D01*
X25613530Y57413622D01*
X25736399Y57380700D01*
X25736401Y57380700D01*
X25863599Y57380700D01*
X25863601Y57380700D01*
X25986470Y57413622D01*
X26096631Y57477224D01*
X26186576Y57567169D01*
X26250178Y57677330D01*
X26283100Y57800199D01*
X26283100Y57927401D01*
X26250178Y58050270D01*
X26186576Y58160431D01*
X26186571Y58160436D01*
X26176829Y58170179D01*
X26143346Y58231503D01*
X26148333Y58301194D01*
X26176828Y58345534D01*
X26234664Y58403369D01*
X26298266Y58513530D01*
X26314107Y58572651D01*
X27825950Y58572651D01*
X27825950Y58445450D01*
X27858872Y58322579D01*
X27881666Y58283100D01*
X27922474Y58212419D01*
X28012419Y58122474D01*
X28122580Y58058872D01*
X28245449Y58025950D01*
X28245451Y58025950D01*
X28372649Y58025950D01*
X28372651Y58025950D01*
X28495520Y58058872D01*
X28605681Y58122474D01*
X28695626Y58212419D01*
X28754441Y58314290D01*
X28805007Y58362504D01*
X28873614Y58375727D01*
X28938479Y58349759D01*
X28979007Y58292844D01*
X28981601Y58284384D01*
X28988421Y58258931D01*
X29004257Y58231503D01*
X29052024Y58148769D01*
X29052026Y58148767D01*
X29083745Y58117048D01*
X29117230Y58055725D01*
X29112246Y57986033D01*
X29070374Y57930100D01*
X29058065Y57921981D01*
X29012425Y57895631D01*
X29012416Y57895624D01*
X28922476Y57805684D01*
X28922474Y57805681D01*
X28858872Y57695522D01*
X28842373Y57633945D01*
X28825950Y57572651D01*
X28825950Y57445449D01*
X28830093Y57429986D01*
X28858872Y57322579D01*
X28870660Y57302162D01*
X28922474Y57212419D01*
X28922476Y57212417D01*
X28993544Y57141349D01*
X29027029Y57080026D01*
X29022045Y57010334D01*
X29013250Y56991668D01*
X28963023Y56904674D01*
X28963022Y56904670D01*
X28930100Y56781801D01*
X28930100Y56654599D01*
X28941717Y56611244D01*
X28963022Y56531729D01*
X28975895Y56509433D01*
X29026624Y56421569D01*
X29116569Y56331624D01*
X29226730Y56268022D01*
X29349599Y56235100D01*
X29349601Y56235100D01*
X29476799Y56235100D01*
X29476801Y56235100D01*
X29599670Y56268022D01*
X29709831Y56331624D01*
X29799776Y56421569D01*
X29863378Y56531730D01*
X29896300Y56654599D01*
X29896300Y56781801D01*
X29869077Y56883401D01*
X32435300Y56883401D01*
X32435300Y56756200D01*
X32468222Y56633329D01*
X32480971Y56611248D01*
X32531824Y56523169D01*
X32621769Y56433224D01*
X32731930Y56369622D01*
X32854799Y56336700D01*
X32854801Y56336700D01*
X32981999Y56336700D01*
X32982001Y56336700D01*
X33104870Y56369622D01*
X33215031Y56433224D01*
X33304976Y56523169D01*
X33368578Y56633330D01*
X33401500Y56756199D01*
X33401500Y56883401D01*
X33368578Y57006270D01*
X33304976Y57116431D01*
X33215031Y57206376D01*
X33157316Y57239698D01*
X33104871Y57269978D01*
X33043435Y57286439D01*
X32982001Y57302900D01*
X32854799Y57302900D01*
X32731928Y57269978D01*
X32621769Y57206376D01*
X32621766Y57206374D01*
X32531826Y57116434D01*
X32531824Y57116431D01*
X32468222Y57006272D01*
X32435300Y56883401D01*
X29869077Y56883401D01*
X29863378Y56904670D01*
X29799776Y57014831D01*
X29728705Y57085902D01*
X29695220Y57147225D01*
X29700204Y57216917D01*
X29708995Y57235576D01*
X29759228Y57322580D01*
X29792150Y57445449D01*
X29792150Y57572651D01*
X29759228Y57695520D01*
X29695626Y57805681D01*
X29663904Y57837403D01*
X29630419Y57898726D01*
X29635403Y57968418D01*
X29659795Y58001001D01*
X34899100Y58001001D01*
X34899100Y57873799D01*
X34901833Y57863599D01*
X34932022Y57750929D01*
X34945092Y57728292D01*
X34995624Y57640769D01*
X35085569Y57550824D01*
X35195730Y57487222D01*
X35318599Y57454300D01*
X35445801Y57454300D01*
X35568670Y57487222D01*
X35678831Y57550824D01*
X35768776Y57640769D01*
X35832378Y57750930D01*
X35865300Y57873799D01*
X35865300Y58001001D01*
X35832378Y58123870D01*
X35768776Y58234031D01*
X35678831Y58323976D01*
X35612099Y58362504D01*
X35568671Y58387578D01*
X35507235Y58404039D01*
X35445801Y58420500D01*
X35318599Y58420500D01*
X35195728Y58387578D01*
X35085569Y58323976D01*
X35085566Y58323974D01*
X34995626Y58234034D01*
X34995624Y58234031D01*
X34932022Y58123872D01*
X34914593Y58058824D01*
X34899100Y58001001D01*
X29659795Y58001001D01*
X29677275Y58024351D01*
X29689569Y58032462D01*
X29735231Y58058824D01*
X29825176Y58148769D01*
X29888778Y58258930D01*
X29921700Y58381799D01*
X29921700Y58509001D01*
X29888778Y58631870D01*
X29825176Y58742031D01*
X29735231Y58831976D01*
X29635557Y58889524D01*
X29625071Y58895578D01*
X29558071Y58913530D01*
X29502201Y58928500D01*
X29374999Y58928500D01*
X29252128Y58895578D01*
X29141969Y58831976D01*
X29141966Y58831974D01*
X29052026Y58742034D01*
X29052024Y58742031D01*
X28993209Y58640162D01*
X28942641Y58591947D01*
X28874034Y58578725D01*
X28809169Y58604693D01*
X28768641Y58661608D01*
X28766047Y58670069D01*
X28764681Y58675168D01*
X28759228Y58695520D01*
X28695626Y58805681D01*
X28605681Y58895626D01*
X28548742Y58928500D01*
X28495521Y58959228D01*
X28416944Y58980282D01*
X28374278Y58991714D01*
X47132100Y58991714D01*
X47132100Y57728287D01*
X47147041Y57633950D01*
X47147042Y57633947D01*
X47147043Y57633945D01*
X47191905Y57545899D01*
X47204985Y57520228D01*
X47204988Y57520224D01*
X47295223Y57429989D01*
X47295227Y57429986D01*
X47295229Y57429984D01*
X47408945Y57372043D01*
X47408947Y57372043D01*
X47408949Y57372042D01*
X47503287Y57357100D01*
X47503292Y57357100D01*
X49016713Y57357100D01*
X49111050Y57372042D01*
X49111050Y57372043D01*
X49111055Y57372043D01*
X49224771Y57429984D01*
X49315016Y57520229D01*
X49372957Y57633945D01*
X49373592Y57637955D01*
X49387900Y57728287D01*
X49387900Y58991714D01*
X49372958Y59086051D01*
X49372957Y59086053D01*
X49372957Y59086055D01*
X49315016Y59199771D01*
X49315014Y59199773D01*
X49315011Y59199777D01*
X49224776Y59290012D01*
X49224772Y59290015D01*
X49224771Y59290016D01*
X49111055Y59347957D01*
X49111053Y59347958D01*
X49111050Y59347959D01*
X49016713Y59362900D01*
X49016708Y59362900D01*
X47503292Y59362900D01*
X47503287Y59362900D01*
X47408949Y59347959D01*
X47295227Y59290015D01*
X47295223Y59290012D01*
X47204988Y59199777D01*
X47204985Y59199773D01*
X47147041Y59086051D01*
X47132100Y58991714D01*
X28374278Y58991714D01*
X28372651Y58992150D01*
X28245449Y58992150D01*
X28122578Y58959228D01*
X28012419Y58895626D01*
X28012416Y58895624D01*
X27922476Y58805684D01*
X27922474Y58805681D01*
X27858872Y58695522D01*
X27825950Y58572651D01*
X26314107Y58572651D01*
X26331188Y58636399D01*
X26331188Y58763601D01*
X26298266Y58886470D01*
X26293007Y58895578D01*
X26289743Y58901232D01*
X26234664Y58996631D01*
X26144719Y59086576D01*
X26089638Y59118377D01*
X26034559Y59150178D01*
X25973123Y59166639D01*
X25911689Y59183100D01*
X25784487Y59183100D01*
X25661616Y59150178D01*
X25551457Y59086576D01*
X25551454Y59086574D01*
X25461514Y58996634D01*
X25461512Y58996631D01*
X25397910Y58886472D01*
X25375643Y58803367D01*
X25364988Y58763601D01*
X25364988Y58636399D01*
X25376899Y58591947D01*
X25397910Y58513529D01*
X25428990Y58459698D01*
X25461512Y58403369D01*
X25461516Y58403365D01*
X25471258Y58393622D01*
X25504741Y58332298D01*
X25499754Y58262607D01*
X25471256Y58218263D01*
X25413424Y58160431D01*
X25349822Y58050272D01*
X25316900Y57927401D01*
X18466005Y57927401D01*
X18450178Y57986470D01*
X18386576Y58096631D01*
X18296631Y58186576D01*
X18225820Y58227459D01*
X18186471Y58250178D01*
X18111786Y58270189D01*
X18063601Y58283100D01*
X17936399Y58283100D01*
X17813526Y58250177D01*
X17788700Y58235843D01*
X17788044Y58235684D01*
X17787572Y58235199D01*
X17754138Y58227459D01*
X17720800Y58219370D01*
X17720160Y58219592D01*
X17719503Y58219439D01*
X17687176Y58231008D01*
X17654773Y58242223D01*
X17654356Y58242753D01*
X17653719Y58242981D01*
X17632780Y58270189D01*
X17611582Y58297144D01*
X17611380Y58297996D01*
X17611106Y58298352D01*
X17610391Y58302166D01*
X17603145Y58332737D01*
X17602700Y58337977D01*
X17602700Y58459693D01*
X17584660Y58550385D01*
X17584074Y58557288D01*
X17589717Y58585005D01*
X17592239Y58613181D01*
X17596597Y58618792D01*
X17598015Y58625752D01*
X17617748Y58646020D01*
X17635102Y58668358D01*
X17641800Y58670722D01*
X17646757Y58675812D01*
X17674319Y58682194D01*
X17700991Y58691603D01*
X17707904Y58689970D01*
X17714826Y58691572D01*
X17741459Y58682041D01*
X17768988Y58675536D01*
X17769601Y58675185D01*
X17813530Y58649822D01*
X17936399Y58616900D01*
X17936401Y58616900D01*
X18063599Y58616900D01*
X18063601Y58616900D01*
X18186470Y58649822D01*
X18296631Y58713424D01*
X18386576Y58803369D01*
X18450178Y58913530D01*
X18483100Y59036399D01*
X18483100Y59163601D01*
X18450178Y59286470D01*
X18386576Y59396631D01*
X18296631Y59486576D01*
X18200550Y59542049D01*
X18186471Y59550178D01*
X18125035Y59566639D01*
X18063601Y59583100D01*
X17936399Y59583100D01*
X17813526Y59550177D01*
X17788700Y59535843D01*
X17720800Y59519370D01*
X17654773Y59542223D01*
X17611582Y59597144D01*
X17602700Y59643230D01*
X17602700Y59729696D01*
X17602699Y59729698D01*
X17585353Y59816901D01*
X17577302Y59857377D01*
X17576402Y59859550D01*
X17527485Y59977648D01*
X17527478Y59977661D01*
X17455155Y60085899D01*
X17455152Y60085903D01*
X17363102Y60177953D01*
X17363098Y60177956D01*
X17254860Y60250279D01*
X17254847Y60250286D01*
X17134581Y60300101D01*
X17134569Y60300104D01*
X17006896Y60325500D01*
X17006893Y60325500D01*
X16876707Y60325500D01*
X16876704Y60325500D01*
X16749030Y60300104D01*
X16749018Y60300101D01*
X16628752Y60250286D01*
X16628739Y60250279D01*
X16520502Y60177957D01*
X16428443Y60085897D01*
X16398565Y60041182D01*
X16383145Y60022394D01*
X15989300Y59628547D01*
X15989300Y59706400D01*
X15967663Y59787151D01*
X15925863Y59859550D01*
X15866750Y59918663D01*
X15794351Y59960463D01*
X15713600Y59982100D01*
X15630000Y59982100D01*
X15549249Y59960463D01*
X15476850Y59918663D01*
X15417737Y59859550D01*
X15375937Y59787151D01*
X15354300Y59706400D01*
X15354300Y59622800D01*
X15375937Y59542049D01*
X15417737Y59469650D01*
X15476850Y59410537D01*
X15549249Y59368737D01*
X15630000Y59347100D01*
X15707853Y59347100D01*
X15314006Y58953255D01*
X15295218Y58937835D01*
X15250503Y58907957D01*
X15158443Y58815898D01*
X15086121Y58707661D01*
X15086114Y58707648D01*
X15036299Y58587382D01*
X15036296Y58587370D01*
X15010900Y58459698D01*
X75500Y58459698D01*
X75500Y59763884D01*
X14663800Y59763884D01*
X14663800Y59565317D01*
X14702535Y59370585D01*
X14702537Y59370577D01*
X14778519Y59187138D01*
X14803459Y59149814D01*
X15318246Y59664600D01*
X15318246Y59664601D01*
X14803459Y60179388D01*
X14803457Y60179388D01*
X14778522Y60142070D01*
X14702537Y59958624D01*
X14702535Y59958616D01*
X14663800Y59763884D01*
X75500Y59763884D01*
X75500Y60532943D01*
X15157012Y60532943D01*
X15157012Y60532941D01*
X15671800Y60018154D01*
X15671801Y60018154D01*
X16186586Y60532941D01*
X16149262Y60557881D01*
X15965823Y60633863D01*
X15965815Y60633865D01*
X15771082Y60672600D01*
X15572518Y60672600D01*
X15377784Y60633865D01*
X15377776Y60633863D01*
X15194330Y60557878D01*
X15157012Y60532943D01*
X75500Y60532943D01*
X75500Y61263601D01*
X20216900Y61263601D01*
X20216900Y61136400D01*
X20249822Y61013529D01*
X20259387Y60996963D01*
X20313424Y60903369D01*
X20313426Y60903367D01*
X20379112Y60837681D01*
X20412597Y60776358D01*
X20407613Y60706666D01*
X20379112Y60662319D01*
X20313426Y60596634D01*
X20313424Y60596631D01*
X20249822Y60486472D01*
X20216900Y60363601D01*
X20216900Y60236400D01*
X20249822Y60113529D01*
X20281623Y60058450D01*
X20313424Y60003369D01*
X20403369Y59913424D01*
X20496681Y59859550D01*
X20500922Y59857101D01*
X20513530Y59849822D01*
X20636399Y59816900D01*
X20636401Y59816900D01*
X20763599Y59816900D01*
X20763601Y59816900D01*
X20886470Y59849822D01*
X20996631Y59913424D01*
X21086576Y60003369D01*
X21150178Y60113530D01*
X21183100Y60236399D01*
X21183100Y60363601D01*
X21150178Y60486470D01*
X21086576Y60596631D01*
X21020425Y60662782D01*
X21019992Y60663224D01*
X21019791Y60663601D01*
X24316900Y60663601D01*
X24316900Y60536400D01*
X24349822Y60413529D01*
X24366323Y60384949D01*
X24413424Y60303369D01*
X24503369Y60213424D01*
X24613530Y60149822D01*
X24736399Y60116900D01*
X24736401Y60116900D01*
X24863599Y60116900D01*
X24863601Y60116900D01*
X24986470Y60149822D01*
X25096631Y60213424D01*
X25186576Y60303369D01*
X25250178Y60413530D01*
X25283100Y60536399D01*
X25283100Y60663601D01*
X25250178Y60786470D01*
X25186576Y60896631D01*
X25096631Y60986576D01*
X25041550Y61018377D01*
X24986471Y61050178D01*
X24925035Y61066639D01*
X24863601Y61083100D01*
X24736399Y61083100D01*
X24613528Y61050178D01*
X24503369Y60986576D01*
X24503366Y60986574D01*
X24413426Y60896634D01*
X24413424Y60896631D01*
X24349822Y60786472D01*
X24316900Y60663601D01*
X21019791Y60663601D01*
X21003846Y60693528D01*
X20987403Y60723642D01*
X20987450Y60724303D01*
X20987139Y60724887D01*
X20989937Y60759083D01*
X20992387Y60793334D01*
X20992792Y60793965D01*
X20992838Y60794524D01*
X20994803Y60797095D01*
X21020888Y60837681D01*
X21024377Y60841170D01*
X21086576Y60903369D01*
X21150178Y61013530D01*
X21183100Y61136399D01*
X21183100Y61201401D01*
X28091900Y61201401D01*
X28091900Y61074200D01*
X28124822Y60951329D01*
X28152514Y60903367D01*
X28188424Y60841169D01*
X28278369Y60751224D01*
X28388530Y60687622D01*
X28511399Y60654700D01*
X28511401Y60654700D01*
X28638599Y60654700D01*
X28638601Y60654700D01*
X28761470Y60687622D01*
X28871631Y60751224D01*
X28961576Y60841169D01*
X29025178Y60951330D01*
X29027175Y60958782D01*
X47132100Y60958782D01*
X47132100Y60761219D01*
X47170638Y60567473D01*
X47170641Y60567464D01*
X47246237Y60384957D01*
X47246243Y60384946D01*
X47355997Y60220686D01*
X47495685Y60080998D01*
X47495688Y60080996D01*
X47659949Y59971241D01*
X47659955Y59971239D01*
X47659956Y59971238D01*
X47690409Y59958624D01*
X47842465Y59895641D01*
X47842467Y59895641D01*
X47842472Y59895639D01*
X48036218Y59857101D01*
X48036221Y59857100D01*
X48036223Y59857100D01*
X48483779Y59857100D01*
X48483780Y59857101D01*
X48548363Y59869947D01*
X48677527Y59895639D01*
X48677530Y59895641D01*
X48677535Y59895641D01*
X48860051Y59971241D01*
X49024312Y60080996D01*
X49164004Y60220688D01*
X49273759Y60384949D01*
X49349359Y60567465D01*
X49355161Y60596631D01*
X49380672Y60724887D01*
X49387900Y60761223D01*
X49387900Y60958777D01*
X49387900Y60958780D01*
X49387899Y60958782D01*
X49349361Y61152528D01*
X49349358Y61152537D01*
X49273762Y61335044D01*
X49273761Y61335045D01*
X49273759Y61335051D01*
X49164004Y61499312D01*
X49164002Y61499315D01*
X49024314Y61639003D01*
X48860054Y61748757D01*
X48860053Y61748758D01*
X48860051Y61748759D01*
X48860048Y61748761D01*
X48860043Y61748763D01*
X48677536Y61824359D01*
X48677527Y61824362D01*
X48483780Y61862900D01*
X48483777Y61862900D01*
X48036223Y61862900D01*
X48036220Y61862900D01*
X47842472Y61824362D01*
X47842463Y61824359D01*
X47659956Y61748763D01*
X47659945Y61748757D01*
X47495685Y61639003D01*
X47355997Y61499315D01*
X47246243Y61335055D01*
X47246237Y61335044D01*
X47170641Y61152537D01*
X47170638Y61152528D01*
X47132100Y60958782D01*
X29027175Y60958782D01*
X29058100Y61074199D01*
X29058100Y61201401D01*
X29025178Y61324270D01*
X28961576Y61434431D01*
X28871631Y61524376D01*
X28816550Y61556177D01*
X28761471Y61587978D01*
X28700035Y61604439D01*
X28638601Y61620900D01*
X28511399Y61620900D01*
X28388528Y61587978D01*
X28278369Y61524376D01*
X28278366Y61524374D01*
X28188426Y61434434D01*
X28188424Y61434431D01*
X28124822Y61324272D01*
X28091900Y61201401D01*
X21183100Y61201401D01*
X21183100Y61263601D01*
X21150178Y61386470D01*
X21086576Y61496631D01*
X20996631Y61586576D01*
X20905824Y61639004D01*
X20886471Y61650178D01*
X20825035Y61666639D01*
X20763601Y61683100D01*
X20636399Y61683100D01*
X20513528Y61650178D01*
X20403369Y61586576D01*
X20403366Y61586574D01*
X20313426Y61496634D01*
X20313424Y61496631D01*
X20249822Y61386472D01*
X20216900Y61263601D01*
X75500Y61263601D01*
X75500Y63385028D01*
X95185Y63452067D01*
X147989Y63497822D01*
X197144Y63509006D01*
X14770484Y63785332D01*
X14773590Y63785350D01*
X23746252Y63728023D01*
X23813162Y63707912D01*
X23858578Y63654817D01*
X23868080Y63585596D01*
X23838649Y63522227D01*
X23833140Y63516347D01*
X23813424Y63496631D01*
X23749822Y63386472D01*
X23716900Y63263601D01*
X23716900Y63136400D01*
X23749822Y63013529D01*
X23775719Y62968675D01*
X23813424Y62903369D01*
X23903369Y62813424D01*
X24013530Y62749822D01*
X24136399Y62716900D01*
X24136401Y62716900D01*
X24263599Y62716900D01*
X24263601Y62716900D01*
X24386470Y62749822D01*
X24496631Y62813424D01*
X24586576Y62903369D01*
X24588807Y62907235D01*
X24639370Y62955449D01*
X24707977Y62968675D01*
X24772843Y62942710D01*
X24783876Y62932917D01*
X24803369Y62913424D01*
X24913530Y62849822D01*
X25036399Y62816900D01*
X25036401Y62816900D01*
X25163599Y62816900D01*
X25163601Y62816900D01*
X25286470Y62849822D01*
X25396631Y62913424D01*
X25486576Y63003369D01*
X25550178Y63113530D01*
X25583100Y63236399D01*
X25583100Y63363601D01*
X25557597Y63458782D01*
X47132100Y63458782D01*
X47132100Y63261219D01*
X47170638Y63067473D01*
X47170641Y63067464D01*
X47246237Y62884957D01*
X47246243Y62884946D01*
X47355997Y62720686D01*
X47495685Y62580998D01*
X47495688Y62580996D01*
X47659949Y62471241D01*
X47842465Y62395641D01*
X47842467Y62395641D01*
X47842472Y62395639D01*
X48036218Y62357101D01*
X48036221Y62357100D01*
X48036223Y62357100D01*
X48483779Y62357100D01*
X48483780Y62357101D01*
X48548363Y62369947D01*
X48677527Y62395639D01*
X48677530Y62395641D01*
X48677535Y62395641D01*
X48860051Y62471241D01*
X49024312Y62580996D01*
X49164004Y62720688D01*
X49273759Y62884949D01*
X49349359Y63067465D01*
X49387900Y63261223D01*
X49387900Y63458777D01*
X49387900Y63458780D01*
X49387899Y63458782D01*
X49349361Y63652528D01*
X49349358Y63652537D01*
X49344882Y63663342D01*
X49273759Y63835051D01*
X49164004Y63999312D01*
X49164002Y63999315D01*
X49024314Y64139003D01*
X48860054Y64248757D01*
X48860053Y64248758D01*
X48860051Y64248759D01*
X48860048Y64248761D01*
X48860043Y64248763D01*
X48677536Y64324359D01*
X48677527Y64324362D01*
X48483780Y64362900D01*
X48483777Y64362900D01*
X48036223Y64362900D01*
X48036220Y64362900D01*
X47842472Y64324362D01*
X47842463Y64324359D01*
X47659956Y64248763D01*
X47659945Y64248757D01*
X47495685Y64139003D01*
X47355997Y63999315D01*
X47246243Y63835055D01*
X47246237Y63835044D01*
X47170641Y63652537D01*
X47170638Y63652528D01*
X47132100Y63458782D01*
X25557597Y63458782D01*
X25550178Y63486470D01*
X25520843Y63537279D01*
X25517649Y63545103D01*
X25514916Y63571792D01*
X25508590Y63597871D01*
X25511412Y63606027D01*
X25510534Y63614609D01*
X25522664Y63638538D01*
X25531442Y63663898D01*
X25538225Y63669233D01*
X25542127Y63676928D01*
X25565270Y63690501D01*
X25586363Y63707088D01*
X25596984Y63709101D01*
X25602397Y63712274D01*
X25611729Y63711894D01*
X25633235Y63715967D01*
X33830416Y63663595D01*
X33870054Y63663341D01*
X33870054Y63663342D01*
X33870055Y63663341D01*
X34651073Y66738601D01*
X35635700Y66738601D01*
X35635700Y66611400D01*
X35668622Y66488529D01*
X35689971Y66451552D01*
X35732224Y66378369D01*
X35822169Y66288424D01*
X35923987Y66229639D01*
X35972202Y66179071D01*
X35985424Y66110464D01*
X35969373Y66060252D01*
X35948023Y66023274D01*
X35948022Y66023270D01*
X35915100Y65900401D01*
X35915100Y65773199D01*
X35918310Y65761219D01*
X35948022Y65650329D01*
X35979823Y65595250D01*
X36011624Y65540169D01*
X36101569Y65450224D01*
X36211730Y65386622D01*
X36334599Y65353700D01*
X36334601Y65353700D01*
X36461799Y65353700D01*
X36461801Y65353700D01*
X36584670Y65386622D01*
X36694831Y65450224D01*
X36784776Y65540169D01*
X36848378Y65650330D01*
X36881300Y65773199D01*
X36881300Y65900401D01*
X36865657Y65958782D01*
X47132100Y65958782D01*
X47132100Y65761219D01*
X47170638Y65567473D01*
X47170641Y65567464D01*
X47246237Y65384957D01*
X47246243Y65384946D01*
X47355997Y65220686D01*
X47495685Y65080998D01*
X47495688Y65080996D01*
X47659949Y64971241D01*
X47842465Y64895641D01*
X47842467Y64895641D01*
X47842472Y64895639D01*
X48036218Y64857101D01*
X48036221Y64857100D01*
X48036223Y64857100D01*
X48483779Y64857100D01*
X48483780Y64857101D01*
X48548363Y64869947D01*
X48677527Y64895639D01*
X48677530Y64895641D01*
X48677535Y64895641D01*
X48860051Y64971241D01*
X49024312Y65080996D01*
X49164004Y65220688D01*
X49273759Y65384949D01*
X49349359Y65567465D01*
X49387900Y65761223D01*
X49387900Y65958777D01*
X49387900Y65958780D01*
X49387899Y65958782D01*
X49349361Y66152528D01*
X49349358Y66152537D01*
X49338367Y66179071D01*
X49273759Y66335051D01*
X49164004Y66499312D01*
X49164002Y66499315D01*
X49024314Y66639003D01*
X48860054Y66748757D01*
X48860053Y66748758D01*
X48860051Y66748759D01*
X48860048Y66748761D01*
X48860043Y66748763D01*
X48677536Y66824359D01*
X48677527Y66824362D01*
X48483780Y66862900D01*
X48483777Y66862900D01*
X48036223Y66862900D01*
X48036220Y66862900D01*
X47842472Y66824362D01*
X47842463Y66824359D01*
X47659956Y66748763D01*
X47659945Y66748757D01*
X47495685Y66639003D01*
X47355997Y66499315D01*
X47246243Y66335055D01*
X47246237Y66335044D01*
X47170641Y66152537D01*
X47170638Y66152528D01*
X47132100Y65958782D01*
X36865657Y65958782D01*
X36848378Y66023270D01*
X36784776Y66133431D01*
X36694831Y66223376D01*
X36627450Y66262279D01*
X36593012Y66282162D01*
X36544797Y66332730D01*
X36531575Y66401337D01*
X36547627Y66451550D01*
X36568978Y66488530D01*
X36601900Y66611399D01*
X36601900Y66738601D01*
X36568978Y66861470D01*
X36568152Y66862900D01*
X36541007Y66909916D01*
X36505376Y66971631D01*
X36415431Y67061576D01*
X36354796Y67096584D01*
X36305271Y67125178D01*
X36243835Y67141639D01*
X36182401Y67158100D01*
X36055199Y67158100D01*
X35932328Y67125178D01*
X35822169Y67061576D01*
X35822166Y67061574D01*
X35732226Y66971634D01*
X35732224Y66971631D01*
X35668622Y66861472D01*
X35635700Y66738601D01*
X34651073Y66738601D01*
X35176629Y68807979D01*
X35212209Y68868107D01*
X35274651Y68899457D01*
X35294926Y68901439D01*
X53138625Y69171798D01*
X53205951Y69153132D01*
G37*
%TD.AperFunction*%
%TD*%
%TA.AperFunction,Conductor*%
%TO.N,TAG_1V8*%
G36*
X53156463Y51462830D02*
G01*
X53171503Y51458571D01*
X53186585Y51449084D01*
X53203718Y51444236D01*
X53230618Y51421387D01*
X53231608Y51420267D01*
X53259738Y51365087D01*
X53259779Y51364903D01*
X53261538Y51357004D01*
X53264500Y51330062D01*
X53264500Y2485637D01*
X53264443Y2481883D01*
X53264329Y2478119D01*
X53264160Y2474386D01*
X53247209Y2194164D01*
X53246530Y2186695D01*
X53245628Y2179271D01*
X53244502Y2171875D01*
X53194910Y1901259D01*
X53193336Y1893927D01*
X53191547Y1886671D01*
X53189537Y1879465D01*
X53107694Y1616822D01*
X53105252Y1609744D01*
X53102602Y1602756D01*
X53099735Y1595833D01*
X52986819Y1344945D01*
X52983546Y1338223D01*
X52980072Y1331602D01*
X52976386Y1325065D01*
X52834060Y1089628D01*
X52829991Y1083335D01*
X52825745Y1077184D01*
X52821308Y1071154D01*
X52651639Y854588D01*
X52646848Y848839D01*
X52641883Y843234D01*
X52636744Y837775D01*
X52442225Y643256D01*
X52436766Y638117D01*
X52431161Y633152D01*
X52425412Y628361D01*
X52208846Y458692D01*
X52202816Y454255D01*
X52196665Y450009D01*
X52190372Y445940D01*
X51954935Y303614D01*
X51948398Y299928D01*
X51941777Y296454D01*
X51935055Y293181D01*
X51684167Y180265D01*
X51677244Y177398D01*
X51670256Y174748D01*
X51663178Y172306D01*
X51400535Y90463D01*
X51393332Y88454D01*
X51386063Y86662D01*
X51378741Y85090D01*
X51108125Y35498D01*
X51100729Y34372D01*
X51093305Y33470D01*
X51085836Y32791D01*
X50805614Y15840D01*
X50801881Y15671D01*
X50798117Y15557D01*
X50794363Y15500D01*
X2545637Y15500D01*
X2541884Y15557D01*
X2538119Y15671D01*
X2534385Y15840D01*
X2254162Y32791D01*
X2246693Y33470D01*
X2239269Y34372D01*
X2231873Y35498D01*
X1961257Y85090D01*
X1953942Y86661D01*
X1946658Y88457D01*
X1939463Y90463D01*
X1676820Y172306D01*
X1669742Y174748D01*
X1662754Y177398D01*
X1655831Y180265D01*
X1404943Y293181D01*
X1398221Y296454D01*
X1391600Y299928D01*
X1385063Y303614D01*
X1149626Y445940D01*
X1143333Y450009D01*
X1137182Y454255D01*
X1131152Y458692D01*
X914586Y628361D01*
X908837Y633152D01*
X903232Y638117D01*
X897773Y643256D01*
X703254Y837775D01*
X698122Y843226D01*
X693157Y848830D01*
X688359Y854587D01*
X688358Y854588D01*
X518685Y1071161D01*
X514252Y1077186D01*
X510008Y1083334D01*
X505938Y1089629D01*
X363612Y1325067D01*
X359933Y1331589D01*
X356460Y1338206D01*
X353180Y1344942D01*
X240265Y1595829D01*
X237398Y1602751D01*
X234743Y1609752D01*
X232301Y1616831D01*
X150461Y1879465D01*
X148460Y1886637D01*
X146653Y1893969D01*
X145092Y1901240D01*
X95495Y2171879D01*
X94372Y2179253D01*
X93464Y2186731D01*
X92791Y2194136D01*
X75837Y2474425D01*
X75669Y2478152D01*
X75556Y2481916D01*
X75500Y2485637D01*
X75500Y7658787D01*
X4204100Y7658787D01*
X4204100Y7461215D01*
X4242634Y7267485D01*
X4242636Y7267478D01*
X4242644Y7267455D01*
X4318231Y7084969D01*
X4318238Y7084954D01*
X4318242Y7084948D01*
X4318244Y7084943D01*
X4427998Y6920684D01*
X4567679Y6781003D01*
X4567683Y6781000D01*
X4567685Y6780998D01*
X4567688Y6780996D01*
X4567692Y6780993D01*
X4567691Y6780993D01*
X4567754Y6780941D01*
X4567791Y6780927D01*
X4731949Y6671241D01*
X4914465Y6595641D01*
X4914466Y6595641D01*
X4914467Y6595641D01*
X4914472Y6595639D01*
X5100594Y6558618D01*
X5103317Y6557896D01*
X5108220Y6557100D01*
X5305779Y6557100D01*
X5309902Y6557100D01*
X5317757Y6559483D01*
X5349685Y6565835D01*
X5370363Y6569947D01*
X5499527Y6595639D01*
X5499527Y6595640D01*
X5499531Y6595640D01*
X5499533Y6595641D01*
X5499535Y6595641D01*
X5682051Y6671241D01*
X5846312Y6780996D01*
X5986004Y6920688D01*
X6095759Y7084949D01*
X6171359Y7267465D01*
X6209900Y7461223D01*
X6209900Y7658777D01*
X6209900Y7658780D01*
X6209899Y7658782D01*
X6209898Y7658787D01*
X47384100Y7658787D01*
X47384100Y7461215D01*
X47422634Y7267485D01*
X47422636Y7267478D01*
X47422644Y7267455D01*
X47498231Y7084969D01*
X47498238Y7084954D01*
X47498242Y7084948D01*
X47498244Y7084943D01*
X47607998Y6920684D01*
X47747679Y6781003D01*
X47747683Y6781000D01*
X47747685Y6780998D01*
X47747688Y6780996D01*
X47747692Y6780993D01*
X47747691Y6780993D01*
X47747754Y6780941D01*
X47747791Y6780927D01*
X47911949Y6671241D01*
X48094465Y6595641D01*
X48094466Y6595641D01*
X48094467Y6595641D01*
X48094472Y6595639D01*
X48280594Y6558618D01*
X48283317Y6557896D01*
X48288220Y6557100D01*
X48485779Y6557100D01*
X48489902Y6557100D01*
X48497757Y6559483D01*
X48529685Y6565835D01*
X48550363Y6569947D01*
X48679527Y6595639D01*
X48679527Y6595640D01*
X48679531Y6595640D01*
X48679533Y6595641D01*
X48679535Y6595641D01*
X48862051Y6671241D01*
X49026312Y6780996D01*
X49166004Y6920688D01*
X49275759Y7084949D01*
X49351359Y7267465D01*
X49389900Y7461223D01*
X49389900Y7658777D01*
X49389900Y7658780D01*
X49389900Y7658961D01*
X49389474Y7660917D01*
X49351361Y7852528D01*
X49351358Y7852537D01*
X49275762Y8035044D01*
X49275761Y8035045D01*
X49275759Y8035051D01*
X49166073Y8199208D01*
X49166063Y8199240D01*
X49166007Y8199309D01*
X49166007Y8199308D01*
X49166004Y8199312D01*
X49166002Y8199315D01*
X49165999Y8199318D01*
X49165997Y8199321D01*
X49026316Y8339002D01*
X48866421Y8445839D01*
X48866422Y8445839D01*
X48862054Y8448757D01*
X48862053Y8448758D01*
X48862051Y8448759D01*
X48862048Y8448761D01*
X48862043Y8448763D01*
X48860412Y8449439D01*
X48860408Y8449441D01*
X48679545Y8524356D01*
X48679522Y8524364D01*
X48679515Y8524366D01*
X48485784Y8562900D01*
X48485780Y8562900D01*
X48485777Y8562900D01*
X48288223Y8562900D01*
X48288220Y8562900D01*
X48288215Y8562900D01*
X48094483Y8524365D01*
X48094476Y8524364D01*
X48094453Y8524356D01*
X47911967Y8448769D01*
X47911952Y8448762D01*
X47911946Y8448758D01*
X47911941Y8448756D01*
X47747682Y8339002D01*
X47607998Y8199318D01*
X47498244Y8035059D01*
X47498242Y8035054D01*
X47498238Y8035048D01*
X47498231Y8035033D01*
X47422644Y7852547D01*
X47422636Y7852524D01*
X47422634Y7852517D01*
X47384100Y7658787D01*
X6209898Y7658787D01*
X6171361Y7852528D01*
X6171358Y7852537D01*
X6095762Y8035044D01*
X6095761Y8035045D01*
X6095759Y8035051D01*
X5986073Y8199208D01*
X5986063Y8199240D01*
X5986007Y8199309D01*
X5986007Y8199308D01*
X5986004Y8199312D01*
X5986002Y8199315D01*
X5985999Y8199318D01*
X5985997Y8199321D01*
X5846316Y8339002D01*
X5686421Y8445839D01*
X5686422Y8445839D01*
X5682054Y8448757D01*
X5682053Y8448758D01*
X5682051Y8448759D01*
X5682048Y8448761D01*
X5682043Y8448763D01*
X5680412Y8449439D01*
X5680408Y8449441D01*
X5499545Y8524356D01*
X5499522Y8524364D01*
X5499515Y8524366D01*
X5305784Y8562900D01*
X5305780Y8562900D01*
X5305777Y8562900D01*
X5108223Y8562900D01*
X5108220Y8562900D01*
X5108215Y8562900D01*
X4914483Y8524365D01*
X4914476Y8524364D01*
X4914453Y8524356D01*
X4731967Y8448769D01*
X4731952Y8448762D01*
X4731946Y8448758D01*
X4731941Y8448756D01*
X4567682Y8339002D01*
X4427998Y8199318D01*
X4318244Y8035059D01*
X4318242Y8035054D01*
X4318238Y8035048D01*
X4318231Y8035033D01*
X4242644Y7852547D01*
X4242636Y7852524D01*
X4242634Y7852517D01*
X4204100Y7658787D01*
X75500Y7658787D01*
X75500Y10198787D01*
X3950100Y10198787D01*
X3950100Y10001215D01*
X3988634Y9807485D01*
X3988636Y9807478D01*
X3988644Y9807455D01*
X4064231Y9624969D01*
X4064238Y9624954D01*
X4064242Y9624948D01*
X4064244Y9624943D01*
X4173998Y9460684D01*
X4313679Y9321003D01*
X4313683Y9321000D01*
X4313685Y9320998D01*
X4313688Y9320996D01*
X4313692Y9320993D01*
X4313691Y9320993D01*
X4313754Y9320941D01*
X4313791Y9320927D01*
X4477949Y9211241D01*
X4660465Y9135641D01*
X4660466Y9135641D01*
X4660467Y9135641D01*
X4660472Y9135639D01*
X4846594Y9098618D01*
X4849317Y9097896D01*
X4854220Y9097100D01*
X5051779Y9097100D01*
X5055902Y9097100D01*
X5063757Y9099483D01*
X5095685Y9105835D01*
X5116363Y9109947D01*
X5245527Y9135639D01*
X5245527Y9135640D01*
X5245531Y9135640D01*
X5245533Y9135641D01*
X5245535Y9135641D01*
X5428051Y9211241D01*
X5592312Y9320996D01*
X5732004Y9460688D01*
X5841759Y9624949D01*
X5917359Y9807465D01*
X5955900Y10001223D01*
X5955900Y10198777D01*
X5955900Y10198780D01*
X5955899Y10198782D01*
X5955898Y10198787D01*
X47130100Y10198787D01*
X47130100Y10001215D01*
X47168634Y9807485D01*
X47168636Y9807478D01*
X47168644Y9807455D01*
X47244231Y9624969D01*
X47244238Y9624954D01*
X47244242Y9624948D01*
X47244244Y9624943D01*
X47353998Y9460684D01*
X47493679Y9321003D01*
X47493683Y9321000D01*
X47493685Y9320998D01*
X47493688Y9320996D01*
X47493692Y9320993D01*
X47493691Y9320993D01*
X47493754Y9320941D01*
X47493791Y9320927D01*
X47657949Y9211241D01*
X47840465Y9135641D01*
X47840466Y9135641D01*
X47840467Y9135641D01*
X47840472Y9135639D01*
X48026594Y9098618D01*
X48029317Y9097896D01*
X48034220Y9097100D01*
X48231779Y9097100D01*
X48235902Y9097100D01*
X48243757Y9099483D01*
X48275685Y9105835D01*
X48296363Y9109947D01*
X48425527Y9135639D01*
X48425527Y9135640D01*
X48425531Y9135640D01*
X48425533Y9135641D01*
X48425535Y9135641D01*
X48608051Y9211241D01*
X48772312Y9320996D01*
X48912004Y9460688D01*
X49021759Y9624949D01*
X49097359Y9807465D01*
X49135900Y10001223D01*
X49135900Y10198777D01*
X49135900Y10198780D01*
X49135900Y10198961D01*
X49135474Y10200917D01*
X49097361Y10392528D01*
X49097358Y10392537D01*
X49021762Y10575044D01*
X49021761Y10575045D01*
X49021759Y10575051D01*
X48912073Y10739208D01*
X48912063Y10739240D01*
X48912007Y10739309D01*
X48912007Y10739308D01*
X48912004Y10739312D01*
X48912002Y10739315D01*
X48911999Y10739318D01*
X48911997Y10739321D01*
X48772316Y10879002D01*
X48612421Y10985839D01*
X48612422Y10985839D01*
X48608054Y10988757D01*
X48608053Y10988758D01*
X48608051Y10988759D01*
X48608048Y10988761D01*
X48608043Y10988763D01*
X48606412Y10989439D01*
X48606408Y10989441D01*
X48425545Y11064356D01*
X48425522Y11064364D01*
X48425515Y11064366D01*
X48231784Y11102900D01*
X48231780Y11102900D01*
X48231777Y11102900D01*
X48034223Y11102900D01*
X48034220Y11102900D01*
X48034215Y11102900D01*
X47840483Y11064365D01*
X47840476Y11064364D01*
X47840453Y11064356D01*
X47657967Y10988769D01*
X47657952Y10988762D01*
X47657946Y10988758D01*
X47657941Y10988756D01*
X47493682Y10879002D01*
X47353998Y10739318D01*
X47244244Y10575059D01*
X47244242Y10575054D01*
X47244238Y10575048D01*
X47244231Y10575033D01*
X47168644Y10392547D01*
X47168636Y10392524D01*
X47168634Y10392517D01*
X47130100Y10198787D01*
X5955898Y10198787D01*
X5917361Y10392528D01*
X5917358Y10392537D01*
X5841762Y10575044D01*
X5841761Y10575045D01*
X5841759Y10575051D01*
X5732073Y10739208D01*
X5732063Y10739240D01*
X5732007Y10739309D01*
X5732007Y10739308D01*
X5732004Y10739312D01*
X5732002Y10739315D01*
X5731999Y10739318D01*
X5731997Y10739321D01*
X5592316Y10879002D01*
X5432421Y10985839D01*
X5432422Y10985839D01*
X5428054Y10988757D01*
X5428053Y10988758D01*
X5428051Y10988759D01*
X5428048Y10988761D01*
X5428043Y10988763D01*
X5426412Y10989439D01*
X5426408Y10989441D01*
X5245545Y11064356D01*
X5245522Y11064364D01*
X5245515Y11064366D01*
X5051784Y11102900D01*
X5051780Y11102900D01*
X5051777Y11102900D01*
X4854223Y11102900D01*
X4854220Y11102900D01*
X4854215Y11102900D01*
X4660483Y11064365D01*
X4660476Y11064364D01*
X4660453Y11064356D01*
X4477967Y10988769D01*
X4477952Y10988762D01*
X4477946Y10988758D01*
X4477941Y10988756D01*
X4313682Y10879002D01*
X4173998Y10739318D01*
X4064244Y10575059D01*
X4064242Y10575054D01*
X4064238Y10575048D01*
X4064231Y10575033D01*
X3988644Y10392547D01*
X3988636Y10392524D01*
X3988634Y10392517D01*
X3950100Y10198787D01*
X75500Y10198787D01*
X75500Y12738787D01*
X4204100Y12738787D01*
X4204100Y12541215D01*
X4242634Y12347485D01*
X4242636Y12347478D01*
X4242644Y12347455D01*
X4318231Y12164969D01*
X4318238Y12164954D01*
X4318242Y12164948D01*
X4318244Y12164943D01*
X4427998Y12000684D01*
X4567679Y11861003D01*
X4567683Y11861000D01*
X4567685Y11860998D01*
X4567688Y11860996D01*
X4567692Y11860993D01*
X4567691Y11860993D01*
X4567754Y11860941D01*
X4567791Y11860927D01*
X4731949Y11751241D01*
X4914465Y11675641D01*
X4914466Y11675641D01*
X4914467Y11675641D01*
X4914472Y11675639D01*
X5100594Y11638618D01*
X5103317Y11637896D01*
X5108220Y11637100D01*
X5305779Y11637100D01*
X5309902Y11637100D01*
X5317757Y11639483D01*
X5349685Y11645835D01*
X5370363Y11649947D01*
X5499527Y11675639D01*
X5499527Y11675640D01*
X5499531Y11675640D01*
X5499533Y11675641D01*
X5499535Y11675641D01*
X5682051Y11751241D01*
X5846312Y11860996D01*
X5986004Y12000688D01*
X6095759Y12164949D01*
X6171359Y12347465D01*
X6209900Y12541223D01*
X6209900Y12738777D01*
X6209900Y12738780D01*
X6209899Y12738782D01*
X6209898Y12738787D01*
X47384100Y12738787D01*
X47384100Y12541215D01*
X47422634Y12347485D01*
X47422636Y12347478D01*
X47422644Y12347455D01*
X47498231Y12164969D01*
X47498238Y12164954D01*
X47498242Y12164948D01*
X47498244Y12164943D01*
X47607998Y12000684D01*
X47747679Y11861003D01*
X47747683Y11861000D01*
X47747685Y11860998D01*
X47747688Y11860996D01*
X47747692Y11860993D01*
X47747691Y11860993D01*
X47747754Y11860941D01*
X47747791Y11860927D01*
X47911949Y11751241D01*
X48094465Y11675641D01*
X48094466Y11675641D01*
X48094467Y11675641D01*
X48094472Y11675639D01*
X48280594Y11638618D01*
X48283317Y11637896D01*
X48288220Y11637100D01*
X48485779Y11637100D01*
X48489902Y11637100D01*
X48497757Y11639483D01*
X48529685Y11645835D01*
X48550363Y11649947D01*
X48679527Y11675639D01*
X48679527Y11675640D01*
X48679531Y11675640D01*
X48679533Y11675641D01*
X48679535Y11675641D01*
X48862051Y11751241D01*
X49026312Y11860996D01*
X49166004Y12000688D01*
X49275759Y12164949D01*
X49351359Y12347465D01*
X49389900Y12541223D01*
X49389900Y12738777D01*
X49389900Y12738780D01*
X49389900Y12738961D01*
X49389474Y12740917D01*
X49351361Y12932528D01*
X49351358Y12932537D01*
X49275762Y13115044D01*
X49275761Y13115045D01*
X49275759Y13115051D01*
X49166073Y13279208D01*
X49166063Y13279240D01*
X49166007Y13279309D01*
X49166007Y13279308D01*
X49166004Y13279312D01*
X49166002Y13279315D01*
X49165999Y13279318D01*
X49165997Y13279321D01*
X49026316Y13419002D01*
X48866421Y13525839D01*
X48866422Y13525839D01*
X48862054Y13528757D01*
X48862053Y13528758D01*
X48862051Y13528759D01*
X48862048Y13528761D01*
X48862043Y13528763D01*
X48860412Y13529439D01*
X48860408Y13529441D01*
X48679545Y13604356D01*
X48679522Y13604364D01*
X48679515Y13604366D01*
X48485784Y13642900D01*
X48485780Y13642900D01*
X48485777Y13642900D01*
X48288223Y13642900D01*
X48288220Y13642900D01*
X48288215Y13642900D01*
X48094483Y13604365D01*
X48094476Y13604364D01*
X48094453Y13604356D01*
X47911967Y13528769D01*
X47911952Y13528762D01*
X47911946Y13528758D01*
X47911941Y13528756D01*
X47747682Y13419002D01*
X47607998Y13279318D01*
X47498244Y13115059D01*
X47498242Y13115054D01*
X47498238Y13115048D01*
X47498231Y13115033D01*
X47422644Y12932547D01*
X47422636Y12932524D01*
X47422634Y12932517D01*
X47384100Y12738787D01*
X6209898Y12738787D01*
X6171361Y12932528D01*
X6171358Y12932537D01*
X6095762Y13115044D01*
X6095761Y13115045D01*
X6095759Y13115051D01*
X5986073Y13279208D01*
X5986063Y13279240D01*
X5986007Y13279309D01*
X5986007Y13279308D01*
X5986004Y13279312D01*
X5986002Y13279315D01*
X5985999Y13279318D01*
X5985997Y13279321D01*
X5846316Y13419002D01*
X5686421Y13525839D01*
X5686422Y13525839D01*
X5682054Y13528757D01*
X5682053Y13528758D01*
X5682051Y13528759D01*
X5682048Y13528761D01*
X5682043Y13528763D01*
X5680412Y13529439D01*
X5680408Y13529441D01*
X5499545Y13604356D01*
X5499522Y13604364D01*
X5499515Y13604366D01*
X5305784Y13642900D01*
X5305780Y13642900D01*
X5305777Y13642900D01*
X5108223Y13642900D01*
X5108220Y13642900D01*
X5108215Y13642900D01*
X4914483Y13604365D01*
X4914476Y13604364D01*
X4914453Y13604356D01*
X4731967Y13528769D01*
X4731952Y13528762D01*
X4731946Y13528758D01*
X4731941Y13528756D01*
X4567682Y13419002D01*
X4427998Y13279318D01*
X4318244Y13115059D01*
X4318242Y13115054D01*
X4318238Y13115048D01*
X4318231Y13115033D01*
X4242644Y12932547D01*
X4242636Y12932524D01*
X4242634Y12932517D01*
X4204100Y12738787D01*
X75500Y12738787D01*
X75500Y15278787D01*
X3950100Y15278787D01*
X3950100Y15081215D01*
X3988634Y14887485D01*
X3988636Y14887478D01*
X3988644Y14887455D01*
X4064231Y14704969D01*
X4064238Y14704954D01*
X4064242Y14704948D01*
X4064244Y14704943D01*
X4173998Y14540684D01*
X4313679Y14401003D01*
X4313683Y14401000D01*
X4313685Y14400998D01*
X4313688Y14400996D01*
X4313692Y14400993D01*
X4313691Y14400993D01*
X4313754Y14400941D01*
X4313791Y14400927D01*
X4477949Y14291241D01*
X4660465Y14215641D01*
X4660466Y14215641D01*
X4660467Y14215641D01*
X4660472Y14215639D01*
X4846594Y14178618D01*
X4849317Y14177896D01*
X4854220Y14177100D01*
X5051779Y14177100D01*
X5055902Y14177100D01*
X5063757Y14179483D01*
X5095685Y14185835D01*
X5116363Y14189947D01*
X5245527Y14215639D01*
X5245527Y14215640D01*
X5245531Y14215640D01*
X5245533Y14215641D01*
X5245535Y14215641D01*
X5428051Y14291241D01*
X5592312Y14400996D01*
X5732004Y14540688D01*
X5841759Y14704949D01*
X5917359Y14887465D01*
X5955900Y15081223D01*
X5955900Y15278777D01*
X5955900Y15278780D01*
X5955899Y15278782D01*
X5955898Y15278787D01*
X47130100Y15278787D01*
X47130100Y15081215D01*
X47168634Y14887485D01*
X47168636Y14887478D01*
X47168644Y14887455D01*
X47244231Y14704969D01*
X47244238Y14704954D01*
X47244242Y14704948D01*
X47244244Y14704943D01*
X47353998Y14540684D01*
X47493679Y14401003D01*
X47493683Y14401000D01*
X47493685Y14400998D01*
X47493688Y14400996D01*
X47493692Y14400993D01*
X47493691Y14400993D01*
X47493754Y14400941D01*
X47493791Y14400927D01*
X47657949Y14291241D01*
X47840465Y14215641D01*
X47840466Y14215641D01*
X47840467Y14215641D01*
X47840472Y14215639D01*
X48026594Y14178618D01*
X48029317Y14177896D01*
X48034220Y14177100D01*
X48231779Y14177100D01*
X48235902Y14177100D01*
X48243757Y14179483D01*
X48275685Y14185835D01*
X48296363Y14189947D01*
X48425527Y14215639D01*
X48425527Y14215640D01*
X48425531Y14215640D01*
X48425533Y14215641D01*
X48425535Y14215641D01*
X48608051Y14291241D01*
X48772312Y14400996D01*
X48912004Y14540688D01*
X49021759Y14704949D01*
X49097359Y14887465D01*
X49135900Y15081223D01*
X49135900Y15278777D01*
X49135900Y15278780D01*
X49135900Y15278961D01*
X49135474Y15280917D01*
X49097361Y15472528D01*
X49097358Y15472537D01*
X49021762Y15655044D01*
X49021761Y15655045D01*
X49021759Y15655051D01*
X48912073Y15819208D01*
X48912063Y15819240D01*
X48912007Y15819309D01*
X48912007Y15819308D01*
X48912004Y15819312D01*
X48912002Y15819315D01*
X48911999Y15819318D01*
X48911997Y15819321D01*
X48772316Y15959002D01*
X48612421Y16065839D01*
X48612422Y16065839D01*
X48608054Y16068757D01*
X48608053Y16068758D01*
X48608051Y16068759D01*
X48608048Y16068761D01*
X48608043Y16068763D01*
X48606412Y16069439D01*
X48606408Y16069441D01*
X48425545Y16144356D01*
X48425522Y16144364D01*
X48425515Y16144366D01*
X48231784Y16182900D01*
X48231780Y16182900D01*
X48231777Y16182900D01*
X48034223Y16182900D01*
X48034220Y16182900D01*
X48034215Y16182900D01*
X47840483Y16144365D01*
X47840476Y16144364D01*
X47840453Y16144356D01*
X47657967Y16068769D01*
X47657952Y16068762D01*
X47657946Y16068758D01*
X47657941Y16068756D01*
X47493682Y15959002D01*
X47353998Y15819318D01*
X47244244Y15655059D01*
X47244242Y15655054D01*
X47244238Y15655048D01*
X47244231Y15655033D01*
X47168644Y15472547D01*
X47168636Y15472524D01*
X47168634Y15472517D01*
X47130100Y15278787D01*
X5955898Y15278787D01*
X5917361Y15472528D01*
X5917358Y15472537D01*
X5841762Y15655044D01*
X5841761Y15655045D01*
X5841759Y15655051D01*
X5732073Y15819208D01*
X5732063Y15819240D01*
X5732007Y15819309D01*
X5732007Y15819308D01*
X5732004Y15819312D01*
X5732002Y15819315D01*
X5731999Y15819318D01*
X5731997Y15819321D01*
X5592316Y15959002D01*
X5432421Y16065839D01*
X5432422Y16065839D01*
X5428054Y16068757D01*
X5428053Y16068758D01*
X5428051Y16068759D01*
X5428048Y16068761D01*
X5428043Y16068763D01*
X5426412Y16069439D01*
X5426408Y16069441D01*
X5245545Y16144356D01*
X5245522Y16144364D01*
X5245515Y16144366D01*
X5051784Y16182900D01*
X5051780Y16182900D01*
X5051777Y16182900D01*
X4854223Y16182900D01*
X4854220Y16182900D01*
X4854215Y16182900D01*
X4660483Y16144365D01*
X4660476Y16144364D01*
X4660453Y16144356D01*
X4477967Y16068769D01*
X4477952Y16068762D01*
X4477946Y16068758D01*
X4477941Y16068756D01*
X4313682Y15959002D01*
X4173998Y15819318D01*
X4064244Y15655059D01*
X4064242Y15655054D01*
X4064238Y15655048D01*
X4064231Y15655033D01*
X3988644Y15472547D01*
X3988636Y15472524D01*
X3988634Y15472517D01*
X3950100Y15278787D01*
X75500Y15278787D01*
X75500Y17818787D01*
X4204100Y17818787D01*
X4204100Y17621215D01*
X4242634Y17427485D01*
X4242636Y17427478D01*
X4242644Y17427455D01*
X4318231Y17244969D01*
X4318238Y17244954D01*
X4318242Y17244948D01*
X4318244Y17244943D01*
X4427998Y17080684D01*
X4567679Y16941003D01*
X4567683Y16941000D01*
X4567685Y16940998D01*
X4567688Y16940996D01*
X4567692Y16940993D01*
X4567691Y16940993D01*
X4567754Y16940941D01*
X4567791Y16940927D01*
X4731949Y16831241D01*
X4914465Y16755641D01*
X4914466Y16755641D01*
X4914467Y16755641D01*
X4914472Y16755639D01*
X5100594Y16718618D01*
X5103317Y16717896D01*
X5108220Y16717100D01*
X5305779Y16717100D01*
X5309902Y16717100D01*
X5317757Y16719483D01*
X5349685Y16725835D01*
X5370363Y16729947D01*
X5499527Y16755639D01*
X5499527Y16755640D01*
X5499531Y16755640D01*
X5499533Y16755641D01*
X5499535Y16755641D01*
X5682051Y16831241D01*
X5846312Y16940996D01*
X5986004Y17080688D01*
X6095759Y17244949D01*
X6171359Y17427465D01*
X6209900Y17621223D01*
X6209900Y17818777D01*
X6209900Y17818780D01*
X6209899Y17818782D01*
X6209898Y17818787D01*
X47384100Y17818787D01*
X47384100Y17621215D01*
X47422634Y17427485D01*
X47422636Y17427478D01*
X47422644Y17427455D01*
X47498231Y17244969D01*
X47498238Y17244954D01*
X47498242Y17244948D01*
X47498244Y17244943D01*
X47607998Y17080684D01*
X47747679Y16941003D01*
X47747683Y16941000D01*
X47747685Y16940998D01*
X47747688Y16940996D01*
X47747692Y16940993D01*
X47747691Y16940993D01*
X47747754Y16940941D01*
X47747791Y16940927D01*
X47911949Y16831241D01*
X48094465Y16755641D01*
X48094466Y16755641D01*
X48094467Y16755641D01*
X48094472Y16755639D01*
X48280594Y16718618D01*
X48283317Y16717896D01*
X48288220Y16717100D01*
X48485779Y16717100D01*
X48489902Y16717100D01*
X48497757Y16719483D01*
X48529685Y16725835D01*
X48550363Y16729947D01*
X48679527Y16755639D01*
X48679527Y16755640D01*
X48679531Y16755640D01*
X48679533Y16755641D01*
X48679535Y16755641D01*
X48862051Y16831241D01*
X49026312Y16940996D01*
X49166004Y17080688D01*
X49275759Y17244949D01*
X49351359Y17427465D01*
X49389900Y17621223D01*
X49389900Y17818777D01*
X49389900Y17818780D01*
X49389900Y17818961D01*
X49389474Y17820917D01*
X49351361Y18012528D01*
X49351358Y18012537D01*
X49275762Y18195044D01*
X49275761Y18195045D01*
X49275759Y18195051D01*
X49166073Y18359208D01*
X49166063Y18359240D01*
X49166007Y18359309D01*
X49166007Y18359308D01*
X49166004Y18359312D01*
X49166002Y18359315D01*
X49165999Y18359318D01*
X49165997Y18359321D01*
X49026316Y18499002D01*
X48866421Y18605839D01*
X48866422Y18605839D01*
X48862054Y18608757D01*
X48862053Y18608758D01*
X48862051Y18608759D01*
X48862048Y18608761D01*
X48862043Y18608763D01*
X48860412Y18609439D01*
X48860408Y18609441D01*
X48679545Y18684356D01*
X48679522Y18684364D01*
X48679515Y18684366D01*
X48485784Y18722900D01*
X48485780Y18722900D01*
X48485777Y18722900D01*
X48288223Y18722900D01*
X48288220Y18722900D01*
X48288215Y18722900D01*
X48094483Y18684365D01*
X48094476Y18684364D01*
X48094453Y18684356D01*
X47911967Y18608769D01*
X47911952Y18608762D01*
X47911946Y18608758D01*
X47911941Y18608756D01*
X47747682Y18499002D01*
X47607998Y18359318D01*
X47498244Y18195059D01*
X47498242Y18195054D01*
X47498238Y18195048D01*
X47498231Y18195033D01*
X47422644Y18012547D01*
X47422636Y18012524D01*
X47422634Y18012517D01*
X47384100Y17818787D01*
X6209898Y17818787D01*
X6171361Y18012528D01*
X6171358Y18012537D01*
X6095762Y18195044D01*
X6095761Y18195045D01*
X6095759Y18195051D01*
X5986073Y18359208D01*
X5986063Y18359240D01*
X5986007Y18359309D01*
X5986007Y18359308D01*
X5986004Y18359312D01*
X5986002Y18359315D01*
X5985999Y18359318D01*
X5985997Y18359321D01*
X5846316Y18499002D01*
X5686421Y18605839D01*
X5686422Y18605839D01*
X5682054Y18608757D01*
X5682053Y18608758D01*
X5682051Y18608759D01*
X5682048Y18608761D01*
X5682043Y18608763D01*
X5680412Y18609439D01*
X5680408Y18609441D01*
X5499545Y18684356D01*
X5499522Y18684364D01*
X5499515Y18684366D01*
X5305784Y18722900D01*
X5305780Y18722900D01*
X5305777Y18722900D01*
X5108223Y18722900D01*
X5108220Y18722900D01*
X5108215Y18722900D01*
X4914483Y18684365D01*
X4914476Y18684364D01*
X4914453Y18684356D01*
X4731967Y18608769D01*
X4731952Y18608762D01*
X4731946Y18608758D01*
X4731941Y18608756D01*
X4567682Y18499002D01*
X4427998Y18359318D01*
X4318244Y18195059D01*
X4318242Y18195054D01*
X4318238Y18195048D01*
X4318231Y18195033D01*
X4242644Y18012547D01*
X4242636Y18012524D01*
X4242634Y18012517D01*
X4204100Y17818787D01*
X75500Y17818787D01*
X75500Y20358787D01*
X3950100Y20358787D01*
X3950100Y20161215D01*
X3988634Y19967485D01*
X3988636Y19967478D01*
X3988644Y19967455D01*
X4064231Y19784969D01*
X4064238Y19784954D01*
X4064242Y19784948D01*
X4064244Y19784943D01*
X4173998Y19620684D01*
X4313679Y19481003D01*
X4313683Y19481000D01*
X4313685Y19480998D01*
X4313688Y19480996D01*
X4313692Y19480993D01*
X4313691Y19480993D01*
X4313754Y19480941D01*
X4313791Y19480927D01*
X4477949Y19371241D01*
X4660465Y19295641D01*
X4660466Y19295641D01*
X4660467Y19295641D01*
X4660472Y19295639D01*
X4846594Y19258618D01*
X4849317Y19257896D01*
X4854220Y19257100D01*
X5051779Y19257100D01*
X5055902Y19257100D01*
X5063757Y19259483D01*
X5095685Y19265835D01*
X5116363Y19269947D01*
X5245527Y19295639D01*
X5245527Y19295640D01*
X5245531Y19295640D01*
X5245533Y19295641D01*
X5245535Y19295641D01*
X5428051Y19371241D01*
X5592312Y19480996D01*
X5732004Y19620688D01*
X5841759Y19784949D01*
X5917359Y19967465D01*
X5955900Y20161223D01*
X5955900Y20358777D01*
X5955900Y20358780D01*
X5955899Y20358782D01*
X5955898Y20358787D01*
X47130100Y20358787D01*
X47130100Y20161215D01*
X47168634Y19967485D01*
X47168636Y19967478D01*
X47168644Y19967455D01*
X47244231Y19784969D01*
X47244238Y19784954D01*
X47244242Y19784948D01*
X47244244Y19784943D01*
X47353998Y19620684D01*
X47493679Y19481003D01*
X47493683Y19481000D01*
X47493685Y19480998D01*
X47493688Y19480996D01*
X47493692Y19480993D01*
X47493691Y19480993D01*
X47493754Y19480941D01*
X47493791Y19480927D01*
X47657949Y19371241D01*
X47840465Y19295641D01*
X47840466Y19295641D01*
X47840467Y19295641D01*
X47840472Y19295639D01*
X48026594Y19258618D01*
X48029317Y19257896D01*
X48034220Y19257100D01*
X48231779Y19257100D01*
X48235902Y19257100D01*
X48243757Y19259483D01*
X48275685Y19265835D01*
X48296363Y19269947D01*
X48425527Y19295639D01*
X48425527Y19295640D01*
X48425531Y19295640D01*
X48425533Y19295641D01*
X48425535Y19295641D01*
X48608051Y19371241D01*
X48772312Y19480996D01*
X48912004Y19620688D01*
X49021759Y19784949D01*
X49097359Y19967465D01*
X49135900Y20161223D01*
X49135900Y20358777D01*
X49135900Y20358780D01*
X49135900Y20358961D01*
X49135474Y20360917D01*
X49097361Y20552528D01*
X49097358Y20552537D01*
X49021762Y20735044D01*
X49021761Y20735045D01*
X49021759Y20735051D01*
X48912073Y20899208D01*
X48912063Y20899240D01*
X48912007Y20899309D01*
X48912007Y20899308D01*
X48912004Y20899312D01*
X48912002Y20899315D01*
X48911999Y20899318D01*
X48911997Y20899321D01*
X48772316Y21039002D01*
X48612421Y21145839D01*
X48612422Y21145839D01*
X48608054Y21148757D01*
X48608053Y21148758D01*
X48608051Y21148759D01*
X48608048Y21148761D01*
X48608043Y21148763D01*
X48606412Y21149439D01*
X48606408Y21149441D01*
X48425545Y21224356D01*
X48425522Y21224364D01*
X48425515Y21224366D01*
X48231784Y21262900D01*
X48231780Y21262900D01*
X48231777Y21262900D01*
X48034223Y21262900D01*
X48034220Y21262900D01*
X48034215Y21262900D01*
X47840483Y21224365D01*
X47840476Y21224364D01*
X47840453Y21224356D01*
X47657967Y21148769D01*
X47657952Y21148762D01*
X47657946Y21148758D01*
X47657941Y21148756D01*
X47493682Y21039002D01*
X47353998Y20899318D01*
X47244244Y20735059D01*
X47244242Y20735054D01*
X47244238Y20735048D01*
X47244231Y20735033D01*
X47168644Y20552547D01*
X47168636Y20552524D01*
X47168634Y20552517D01*
X47130100Y20358787D01*
X5955898Y20358787D01*
X5917361Y20552528D01*
X5917358Y20552537D01*
X5841762Y20735044D01*
X5841761Y20735045D01*
X5841759Y20735051D01*
X5732073Y20899208D01*
X5732063Y20899240D01*
X5732007Y20899309D01*
X5732007Y20899308D01*
X5732004Y20899312D01*
X5732002Y20899315D01*
X5731999Y20899318D01*
X5731997Y20899321D01*
X5592316Y21039002D01*
X5432421Y21145839D01*
X5432422Y21145839D01*
X5428054Y21148757D01*
X5428053Y21148758D01*
X5428051Y21148759D01*
X5428048Y21148761D01*
X5428043Y21148763D01*
X5426412Y21149439D01*
X5426408Y21149441D01*
X5245545Y21224356D01*
X5245522Y21224364D01*
X5245515Y21224366D01*
X5051784Y21262900D01*
X5051780Y21262900D01*
X5051777Y21262900D01*
X4854223Y21262900D01*
X4854220Y21262900D01*
X4854215Y21262900D01*
X4660483Y21224365D01*
X4660476Y21224364D01*
X4660453Y21224356D01*
X4477967Y21148769D01*
X4477952Y21148762D01*
X4477946Y21148758D01*
X4477941Y21148756D01*
X4313682Y21039002D01*
X4173998Y20899318D01*
X4064244Y20735059D01*
X4064242Y20735054D01*
X4064238Y20735048D01*
X4064231Y20735033D01*
X3988644Y20552547D01*
X3988636Y20552524D01*
X3988634Y20552517D01*
X3950100Y20358787D01*
X75500Y20358787D01*
X75500Y22898787D01*
X4204100Y22898787D01*
X4204100Y22701215D01*
X4242634Y22507485D01*
X4242636Y22507478D01*
X4242644Y22507455D01*
X4318231Y22324969D01*
X4318238Y22324954D01*
X4318242Y22324948D01*
X4318244Y22324943D01*
X4427998Y22160684D01*
X4567679Y22021003D01*
X4567683Y22021000D01*
X4567685Y22020998D01*
X4567688Y22020996D01*
X4567692Y22020993D01*
X4567691Y22020993D01*
X4567754Y22020941D01*
X4567791Y22020927D01*
X4731949Y21911241D01*
X4914465Y21835641D01*
X4914466Y21835641D01*
X4914467Y21835641D01*
X4914472Y21835639D01*
X5100594Y21798618D01*
X5103317Y21797896D01*
X5108220Y21797100D01*
X5305779Y21797100D01*
X5309902Y21797100D01*
X5317757Y21799483D01*
X5349685Y21805835D01*
X5370363Y21809947D01*
X5499527Y21835639D01*
X5499527Y21835640D01*
X5499531Y21835640D01*
X5499533Y21835641D01*
X5499535Y21835641D01*
X5682051Y21911241D01*
X5846312Y22020996D01*
X5986004Y22160688D01*
X6095759Y22324949D01*
X6171359Y22507465D01*
X6181909Y22560500D01*
X6209474Y22699086D01*
X6209900Y22701042D01*
X6209900Y22898964D01*
X6209464Y22900969D01*
X6193744Y22980000D01*
X6172011Y23089260D01*
X6171607Y23091629D01*
X6171359Y23092534D01*
X6165283Y23107203D01*
X32916900Y23107203D01*
X32916900Y22979999D01*
X32949822Y22857128D01*
X32949822Y22857127D01*
X32981623Y22802049D01*
X32981624Y22802049D01*
X33013424Y22746969D01*
X33103369Y22657024D01*
X33213530Y22593422D01*
X33336399Y22560500D01*
X33336401Y22560500D01*
X33463599Y22560500D01*
X33463601Y22560500D01*
X33586470Y22593422D01*
X33696631Y22657024D01*
X33786576Y22746969D01*
X33850178Y22857130D01*
X33861340Y22898787D01*
X47384100Y22898787D01*
X47384100Y22701215D01*
X47422634Y22507485D01*
X47422636Y22507478D01*
X47422644Y22507455D01*
X47498231Y22324969D01*
X47498238Y22324954D01*
X47498242Y22324948D01*
X47498244Y22324943D01*
X47607998Y22160684D01*
X47747679Y22021003D01*
X47747683Y22021000D01*
X47747685Y22020998D01*
X47747688Y22020996D01*
X47747692Y22020993D01*
X47747691Y22020993D01*
X47747754Y22020941D01*
X47747791Y22020927D01*
X47911949Y21911241D01*
X48094465Y21835641D01*
X48094466Y21835641D01*
X48094467Y21835641D01*
X48094472Y21835639D01*
X48280594Y21798618D01*
X48283317Y21797896D01*
X48288220Y21797100D01*
X48485779Y21797100D01*
X48489902Y21797100D01*
X48497757Y21799483D01*
X48529685Y21805835D01*
X48550363Y21809947D01*
X48679527Y21835639D01*
X48679527Y21835640D01*
X48679531Y21835640D01*
X48679533Y21835641D01*
X48679535Y21835641D01*
X48862051Y21911241D01*
X49026312Y22020996D01*
X49166004Y22160688D01*
X49275759Y22324949D01*
X49351359Y22507465D01*
X49361909Y22560500D01*
X49389474Y22699086D01*
X49389900Y22701042D01*
X49389900Y22898961D01*
X49389474Y22900917D01*
X49351361Y23092528D01*
X49351358Y23092537D01*
X49275762Y23275044D01*
X49275761Y23275045D01*
X49275759Y23275051D01*
X49166073Y23439208D01*
X49166063Y23439240D01*
X49166007Y23439309D01*
X49166007Y23439308D01*
X49166004Y23439312D01*
X49166002Y23439315D01*
X49165999Y23439318D01*
X49165997Y23439321D01*
X49026316Y23579002D01*
X48866421Y23685839D01*
X48866422Y23685839D01*
X48862054Y23688757D01*
X48862053Y23688758D01*
X48862051Y23688759D01*
X48862048Y23688761D01*
X48862043Y23688763D01*
X48860412Y23689439D01*
X48860408Y23689441D01*
X48679545Y23764356D01*
X48679522Y23764364D01*
X48679515Y23764366D01*
X48485784Y23802900D01*
X48485780Y23802900D01*
X48485777Y23802900D01*
X48288223Y23802900D01*
X48288220Y23802900D01*
X48288215Y23802900D01*
X48094483Y23764365D01*
X48094476Y23764364D01*
X48094453Y23764356D01*
X47911967Y23688769D01*
X47911952Y23688762D01*
X47911946Y23688758D01*
X47911941Y23688756D01*
X47747682Y23579002D01*
X47607998Y23439318D01*
X47498244Y23275059D01*
X47498242Y23275054D01*
X47498238Y23275048D01*
X47498231Y23275033D01*
X47422644Y23092547D01*
X47422636Y23092524D01*
X47422634Y23092517D01*
X47384100Y22898787D01*
X33861340Y22898787D01*
X33883100Y22979999D01*
X33883100Y23107201D01*
X33850178Y23230070D01*
X33786576Y23340231D01*
X33696631Y23430176D01*
X33641550Y23461977D01*
X33586471Y23493778D01*
X33525035Y23510239D01*
X33517186Y23512342D01*
X33517184Y23512343D01*
X33486638Y23520528D01*
X33463601Y23526700D01*
X33463600Y23526700D01*
X33336397Y23526700D01*
X33213526Y23493778D01*
X33103366Y23430175D01*
X33103365Y23430174D01*
X33103360Y23430170D01*
X33013430Y23340240D01*
X33013426Y23340235D01*
X33013425Y23340234D01*
X32949822Y23230074D01*
X32916900Y23107203D01*
X6165283Y23107203D01*
X6095762Y23275044D01*
X6095759Y23275050D01*
X6095759Y23275051D01*
X5986073Y23439208D01*
X5986063Y23439240D01*
X5986007Y23439309D01*
X5986007Y23439308D01*
X5986004Y23439312D01*
X5986002Y23439315D01*
X5985999Y23439318D01*
X5985997Y23439321D01*
X5846316Y23579002D01*
X5686421Y23685839D01*
X5686422Y23685839D01*
X5682054Y23688757D01*
X5682053Y23688758D01*
X5682051Y23688759D01*
X5682048Y23688761D01*
X5682043Y23688763D01*
X5680412Y23689439D01*
X5680408Y23689441D01*
X5499545Y23764356D01*
X5499522Y23764364D01*
X5499515Y23764366D01*
X5305784Y23802900D01*
X5305780Y23802900D01*
X5305777Y23802900D01*
X5108223Y23802900D01*
X5108220Y23802900D01*
X5108215Y23802900D01*
X4914483Y23764365D01*
X4914476Y23764364D01*
X4914453Y23764356D01*
X4731967Y23688769D01*
X4731952Y23688762D01*
X4731946Y23688758D01*
X4731941Y23688756D01*
X4567682Y23579002D01*
X4427998Y23439318D01*
X4318244Y23275059D01*
X4318242Y23275054D01*
X4318238Y23275048D01*
X4318231Y23275033D01*
X4242644Y23092547D01*
X4242636Y23092524D01*
X4242634Y23092517D01*
X4204100Y22898787D01*
X75500Y22898787D01*
X75500Y25438787D01*
X3950100Y25438787D01*
X3950100Y25241215D01*
X3988634Y25047485D01*
X3988636Y25047478D01*
X3988644Y25047455D01*
X4064231Y24864969D01*
X4064238Y24864954D01*
X4064242Y24864948D01*
X4064244Y24864943D01*
X4173998Y24700684D01*
X4313679Y24561003D01*
X4313683Y24561000D01*
X4313685Y24560998D01*
X4313688Y24560996D01*
X4313692Y24560993D01*
X4313691Y24560993D01*
X4313754Y24560941D01*
X4313791Y24560927D01*
X4477949Y24451241D01*
X4660465Y24375641D01*
X4660466Y24375641D01*
X4660467Y24375641D01*
X4660472Y24375639D01*
X4846594Y24338618D01*
X4849317Y24337896D01*
X4854220Y24337100D01*
X5051779Y24337100D01*
X5055902Y24337100D01*
X5063757Y24339483D01*
X5095685Y24345835D01*
X5116363Y24349947D01*
X5245527Y24375639D01*
X5245527Y24375640D01*
X5245531Y24375640D01*
X5245533Y24375641D01*
X5245535Y24375641D01*
X5428051Y24451241D01*
X5592312Y24560996D01*
X5732004Y24700688D01*
X5740633Y24713603D01*
X31466900Y24713603D01*
X31466900Y24586399D01*
X31499822Y24463528D01*
X31499822Y24463527D01*
X31531623Y24408449D01*
X31531624Y24408449D01*
X31563424Y24353369D01*
X31653369Y24263424D01*
X31763530Y24199822D01*
X31886399Y24166900D01*
X31886401Y24166900D01*
X32013599Y24166900D01*
X32013601Y24166900D01*
X32136470Y24199822D01*
X32246631Y24263424D01*
X32336576Y24353369D01*
X32400178Y24463530D01*
X32433100Y24586399D01*
X32433100Y24713601D01*
X32400178Y24836470D01*
X32336576Y24946631D01*
X32246631Y25036576D01*
X32191550Y25068377D01*
X32136471Y25100178D01*
X32075035Y25116639D01*
X32067186Y25118742D01*
X32067184Y25118743D01*
X32036638Y25126928D01*
X32013601Y25133100D01*
X32013600Y25133100D01*
X31886397Y25133100D01*
X31763526Y25100178D01*
X31653366Y25036575D01*
X31653365Y25036574D01*
X31653360Y25036570D01*
X31563430Y24946640D01*
X31563426Y24946635D01*
X31563425Y24946634D01*
X31499822Y24836474D01*
X31466900Y24713603D01*
X5740633Y24713603D01*
X5841759Y24864949D01*
X5917359Y25047465D01*
X5927845Y25100178D01*
X5931538Y25118743D01*
X5955470Y25239060D01*
X5955900Y25241039D01*
X5955900Y25438964D01*
X5955464Y25440969D01*
X5953834Y25449164D01*
X5930792Y25565001D01*
X24383499Y25565001D01*
X24383500Y25564999D01*
X24387566Y25549824D01*
X24387567Y25549823D01*
X24387568Y25549818D01*
X24416419Y25442135D01*
X24416421Y25442131D01*
X24416422Y25442129D01*
X24448223Y25387050D01*
X24480024Y25331969D01*
X24569969Y25242024D01*
X24680130Y25178422D01*
X24802999Y25145500D01*
X24803001Y25145500D01*
X24930199Y25145500D01*
X24930201Y25145500D01*
X25053070Y25178422D01*
X25163231Y25242024D01*
X25253176Y25331969D01*
X25314848Y25438787D01*
X47130100Y25438787D01*
X47130100Y25241215D01*
X47168634Y25047485D01*
X47168636Y25047478D01*
X47168644Y25047455D01*
X47244231Y24864969D01*
X47244238Y24864954D01*
X47244242Y24864948D01*
X47244244Y24864943D01*
X47353998Y24700684D01*
X47493679Y24561003D01*
X47493683Y24561000D01*
X47493685Y24560998D01*
X47493688Y24560996D01*
X47493692Y24560993D01*
X47493691Y24560993D01*
X47493754Y24560941D01*
X47493791Y24560927D01*
X47657949Y24451241D01*
X47840465Y24375641D01*
X47840466Y24375641D01*
X47840467Y24375641D01*
X47840472Y24375639D01*
X48026594Y24338618D01*
X48029317Y24337896D01*
X48034220Y24337100D01*
X48231779Y24337100D01*
X48235902Y24337100D01*
X48243757Y24339483D01*
X48275685Y24345835D01*
X48296363Y24349947D01*
X48425527Y24375639D01*
X48425527Y24375640D01*
X48425531Y24375640D01*
X48425533Y24375641D01*
X48425535Y24375641D01*
X48608051Y24451241D01*
X48772312Y24560996D01*
X48912004Y24700688D01*
X49021759Y24864949D01*
X49097359Y25047465D01*
X49107845Y25100178D01*
X49111538Y25118743D01*
X49135470Y25239060D01*
X49135900Y25241039D01*
X49135900Y25438961D01*
X49135474Y25440917D01*
X49097361Y25632528D01*
X49097358Y25632537D01*
X49072645Y25692199D01*
X49072644Y25692201D01*
X49049690Y25747619D01*
X49027228Y25801848D01*
X49023442Y25810989D01*
X49022137Y25814485D01*
X49021756Y25815055D01*
X48912073Y25979208D01*
X48912063Y25979240D01*
X48912007Y25979309D01*
X48912007Y25979308D01*
X48912004Y25979312D01*
X48912002Y25979315D01*
X48911999Y25979318D01*
X48911997Y25979321D01*
X48772316Y26119002D01*
X48612421Y26225839D01*
X48612422Y26225839D01*
X48608054Y26228757D01*
X48608053Y26228758D01*
X48608051Y26228759D01*
X48608048Y26228761D01*
X48608043Y26228763D01*
X48606412Y26229439D01*
X48606408Y26229441D01*
X48425545Y26304356D01*
X48425522Y26304364D01*
X48425515Y26304366D01*
X48231784Y26342900D01*
X48231780Y26342900D01*
X48231777Y26342900D01*
X48034223Y26342900D01*
X48034220Y26342900D01*
X48034215Y26342900D01*
X47840483Y26304365D01*
X47840476Y26304364D01*
X47840453Y26304356D01*
X47657967Y26228769D01*
X47657952Y26228762D01*
X47657946Y26228758D01*
X47657941Y26228756D01*
X47493682Y26119002D01*
X47353998Y25979318D01*
X47244244Y25815059D01*
X47244242Y25815054D01*
X47244238Y25815048D01*
X47244231Y25815033D01*
X47168644Y25632547D01*
X47168636Y25632524D01*
X47168634Y25632517D01*
X47130100Y25438787D01*
X25314848Y25438787D01*
X25316778Y25442130D01*
X25349700Y25564999D01*
X25349700Y25692201D01*
X25316778Y25815070D01*
X25253176Y25925231D01*
X25163231Y26015176D01*
X25079361Y26063599D01*
X25079358Y26063601D01*
X30616900Y26063601D01*
X30616900Y25936399D01*
X30633361Y25874965D01*
X30636122Y25864658D01*
X30636123Y25864654D01*
X30649819Y25813536D01*
X30649821Y25813533D01*
X30649822Y25813529D01*
X30681623Y25758450D01*
X30713424Y25703369D01*
X30803369Y25613424D01*
X30887241Y25565000D01*
X30887243Y25564998D01*
X30913511Y25549832D01*
X30913524Y25549825D01*
X30913526Y25549824D01*
X30913530Y25549822D01*
X31036399Y25516900D01*
X31036401Y25516900D01*
X31163599Y25516900D01*
X31163601Y25516900D01*
X31286470Y25549822D01*
X31286471Y25549824D01*
X31286473Y25549824D01*
X31286475Y25549825D01*
X31286477Y25549825D01*
X31290304Y25552036D01*
X31290793Y25552317D01*
X31301800Y25558674D01*
X31312757Y25564999D01*
X31396631Y25613424D01*
X31486576Y25703369D01*
X31550178Y25813530D01*
X31583100Y25936399D01*
X31583100Y26063601D01*
X31550178Y26186470D01*
X31486576Y26296631D01*
X31396631Y26386576D01*
X31341550Y26418377D01*
X31286471Y26450178D01*
X31225035Y26466639D01*
X31217186Y26468742D01*
X31217184Y26468743D01*
X31186638Y26476928D01*
X31163601Y26483100D01*
X31163600Y26483100D01*
X31036397Y26483100D01*
X30913526Y26450178D01*
X30803366Y26386575D01*
X30803365Y26386574D01*
X30803360Y26386570D01*
X30713430Y26296640D01*
X30713426Y26296635D01*
X30713425Y26296634D01*
X30649821Y26186472D01*
X30629788Y26111701D01*
X30629788Y26111700D01*
X30617827Y26067063D01*
X30617827Y26067062D01*
X30616900Y26063601D01*
X25079358Y26063601D01*
X25074484Y26066415D01*
X25074481Y26066417D01*
X25063500Y26072757D01*
X25053071Y26078778D01*
X25053067Y26078780D01*
X25053060Y26078782D01*
X24991636Y26095239D01*
X24991635Y26095240D01*
X24991635Y26095239D01*
X24930201Y26111700D01*
X24930200Y26111700D01*
X24802997Y26111700D01*
X24680126Y26078778D01*
X24569966Y26015175D01*
X24569965Y26015174D01*
X24569960Y26015170D01*
X24480030Y25925240D01*
X24480026Y25925235D01*
X24480025Y25925234D01*
X24416422Y25815074D01*
X24416420Y25815067D01*
X24416013Y25813547D01*
X24416009Y25813531D01*
X24383500Y25692203D01*
X24383500Y25565001D01*
X24383499Y25565001D01*
X5930792Y25565001D01*
X5917729Y25630674D01*
X5917201Y25633565D01*
X5915031Y25638155D01*
X5908933Y25652878D01*
X5847227Y25801848D01*
X5847227Y25801849D01*
X5845851Y25805170D01*
X5843439Y25810994D01*
X5842136Y25814487D01*
X5829588Y25833265D01*
X5732073Y25979208D01*
X5732063Y25979240D01*
X5732007Y25979309D01*
X5732007Y25979308D01*
X5732004Y25979312D01*
X5732002Y25979315D01*
X5731999Y25979318D01*
X5731997Y25979321D01*
X5592316Y26119002D01*
X5432421Y26225839D01*
X5432422Y26225839D01*
X5428054Y26228757D01*
X5428053Y26228758D01*
X5428051Y26228759D01*
X5428048Y26228761D01*
X5428043Y26228763D01*
X5426412Y26229439D01*
X5426408Y26229441D01*
X5245545Y26304356D01*
X5245522Y26304364D01*
X5245515Y26304366D01*
X5051784Y26342900D01*
X5051780Y26342900D01*
X5051777Y26342900D01*
X4854223Y26342900D01*
X4854220Y26342900D01*
X4854215Y26342900D01*
X4660483Y26304365D01*
X4660476Y26304364D01*
X4660453Y26304356D01*
X4477967Y26228769D01*
X4477952Y26228762D01*
X4477946Y26228758D01*
X4477941Y26228756D01*
X4313682Y26119002D01*
X4173998Y25979318D01*
X4064244Y25815059D01*
X4064242Y25815054D01*
X4064238Y25815048D01*
X4064231Y25815033D01*
X3988644Y25632547D01*
X3988636Y25632524D01*
X3988634Y25632517D01*
X3950100Y25438787D01*
X75500Y25438787D01*
X75500Y27978787D01*
X4204100Y27978787D01*
X4204100Y27781215D01*
X4242634Y27587485D01*
X4242636Y27587478D01*
X4242644Y27587455D01*
X4318231Y27404969D01*
X4318238Y27404954D01*
X4318242Y27404948D01*
X4318244Y27404943D01*
X4427998Y27240684D01*
X4567679Y27101003D01*
X4567683Y27101000D01*
X4567685Y27100998D01*
X4567688Y27100996D01*
X4567692Y27100993D01*
X4567691Y27100993D01*
X4567743Y27100951D01*
X4567786Y27100931D01*
X4731949Y26991241D01*
X4731955Y26991239D01*
X4731956Y26991238D01*
X4731959Y26991237D01*
X4732523Y26990860D01*
X4736014Y26989557D01*
X4772682Y26974369D01*
X4914465Y26915641D01*
X4914466Y26915641D01*
X4914467Y26915641D01*
X4914472Y26915639D01*
X5100594Y26878618D01*
X5103317Y26877896D01*
X5108220Y26877100D01*
X5305779Y26877100D01*
X5309902Y26877100D01*
X5317757Y26879483D01*
X5349685Y26885835D01*
X5370363Y26889947D01*
X5499527Y26915639D01*
X5499527Y26915640D01*
X5499531Y26915640D01*
X5499533Y26915641D01*
X5499535Y26915641D01*
X5682051Y26991241D01*
X5846312Y27100996D01*
X5986004Y27240688D01*
X6048754Y27334601D01*
X22485300Y27334601D01*
X22485300Y27207399D01*
X22501582Y27146634D01*
X22504350Y27136302D01*
X22504351Y27136296D01*
X22518219Y27084537D01*
X22518222Y27084530D01*
X22518222Y27084529D01*
X22545970Y27036470D01*
X22581824Y26974369D01*
X22671769Y26884424D01*
X22781930Y26820822D01*
X22904799Y26787900D01*
X22904801Y26787900D01*
X23031999Y26787900D01*
X23032001Y26787900D01*
X23154870Y26820822D01*
X23265031Y26884424D01*
X23294210Y26913603D01*
X29266900Y26913603D01*
X29266900Y26786399D01*
X29299822Y26663528D01*
X29299822Y26663527D01*
X29331623Y26608449D01*
X29331624Y26608449D01*
X29363424Y26553369D01*
X29453369Y26463424D01*
X29563530Y26399822D01*
X29686399Y26366900D01*
X29686401Y26366900D01*
X29813599Y26366900D01*
X29813601Y26366900D01*
X29936470Y26399822D01*
X30046631Y26463424D01*
X30136576Y26553369D01*
X30200178Y26663530D01*
X30233100Y26786399D01*
X30233100Y26913601D01*
X30200178Y27036470D01*
X30136576Y27146631D01*
X30046631Y27236576D01*
X29991550Y27268377D01*
X29936471Y27300178D01*
X29875035Y27316639D01*
X29867186Y27318742D01*
X29867184Y27318743D01*
X29836638Y27326928D01*
X29813601Y27333100D01*
X29813600Y27333100D01*
X29686397Y27333100D01*
X29563526Y27300178D01*
X29453366Y27236575D01*
X29453365Y27236574D01*
X29453360Y27236570D01*
X29363430Y27146640D01*
X29363426Y27146635D01*
X29363425Y27146634D01*
X29299822Y27036474D01*
X29266900Y26913603D01*
X23294210Y26913603D01*
X23354976Y26974369D01*
X23418578Y27084530D01*
X23451500Y27207399D01*
X23451500Y27334601D01*
X23418578Y27457470D01*
X23357302Y27563603D01*
X25016900Y27563603D01*
X25016900Y27436399D01*
X25049822Y27313528D01*
X25049822Y27313527D01*
X25081623Y27258449D01*
X25081624Y27258449D01*
X25113424Y27203369D01*
X25203369Y27113424D01*
X25313530Y27049822D01*
X25436399Y27016900D01*
X25436401Y27016900D01*
X25563599Y27016900D01*
X25563601Y27016900D01*
X25686470Y27049822D01*
X25796631Y27113424D01*
X25886576Y27203369D01*
X25950178Y27313530D01*
X25983100Y27436399D01*
X25983100Y27563601D01*
X25950178Y27686470D01*
X25886576Y27796631D01*
X25796631Y27886576D01*
X25741550Y27918377D01*
X25686471Y27950178D01*
X25625035Y27966639D01*
X25625034Y27966640D01*
X25625033Y27966640D01*
X25579735Y27978777D01*
X25579698Y27978787D01*
X47384100Y27978787D01*
X47384100Y27781215D01*
X47422634Y27587485D01*
X47422636Y27587478D01*
X47422644Y27587455D01*
X47498231Y27404969D01*
X47498238Y27404954D01*
X47498242Y27404948D01*
X47498244Y27404943D01*
X47607998Y27240684D01*
X47747679Y27101003D01*
X47747683Y27101000D01*
X47747685Y27100998D01*
X47747688Y27100996D01*
X47747692Y27100993D01*
X47747691Y27100993D01*
X47747743Y27100951D01*
X47747786Y27100931D01*
X47911949Y26991241D01*
X47911955Y26991239D01*
X47911956Y26991238D01*
X47911959Y26991237D01*
X47912523Y26990860D01*
X47916014Y26989557D01*
X47952682Y26974369D01*
X48094465Y26915641D01*
X48094466Y26915641D01*
X48094467Y26915641D01*
X48094472Y26915639D01*
X48280594Y26878618D01*
X48283317Y26877896D01*
X48288220Y26877100D01*
X48485779Y26877100D01*
X48489902Y26877100D01*
X48497757Y26879483D01*
X48529685Y26885835D01*
X48550363Y26889947D01*
X48679527Y26915639D01*
X48679527Y26915640D01*
X48679531Y26915640D01*
X48679533Y26915641D01*
X48679535Y26915641D01*
X48862051Y26991241D01*
X49026312Y27100996D01*
X49166004Y27240688D01*
X49275759Y27404949D01*
X49351359Y27587465D01*
X49389900Y27781223D01*
X49389900Y27978777D01*
X49389900Y27978780D01*
X49389900Y27978961D01*
X49389474Y27980917D01*
X49351361Y28172528D01*
X49351358Y28172537D01*
X49275762Y28355044D01*
X49275761Y28355045D01*
X49275759Y28355051D01*
X49166073Y28519208D01*
X49166063Y28519240D01*
X49166007Y28519309D01*
X49166007Y28519308D01*
X49166004Y28519312D01*
X49166002Y28519315D01*
X49165999Y28519318D01*
X49165997Y28519321D01*
X49026316Y28659002D01*
X48866421Y28765839D01*
X48866422Y28765839D01*
X48862054Y28768757D01*
X48862053Y28768758D01*
X48862051Y28768759D01*
X48862048Y28768761D01*
X48862043Y28768763D01*
X48860412Y28769439D01*
X48860408Y28769441D01*
X48679545Y28844356D01*
X48679522Y28844364D01*
X48679515Y28844366D01*
X48485784Y28882900D01*
X48485780Y28882900D01*
X48485777Y28882900D01*
X48288223Y28882900D01*
X48288220Y28882900D01*
X48288215Y28882900D01*
X48094483Y28844365D01*
X48094476Y28844364D01*
X48094453Y28844356D01*
X47911967Y28768769D01*
X47911952Y28768762D01*
X47911946Y28768758D01*
X47911941Y28768756D01*
X47747682Y28659002D01*
X47607998Y28519318D01*
X47498244Y28355059D01*
X47498242Y28355054D01*
X47498238Y28355048D01*
X47498231Y28355033D01*
X47422644Y28172547D01*
X47422636Y28172524D01*
X47422634Y28172517D01*
X47384100Y27978787D01*
X25579698Y27978787D01*
X25563601Y27983100D01*
X25563600Y27983100D01*
X25436397Y27983100D01*
X25313526Y27950178D01*
X25203366Y27886575D01*
X25203365Y27886574D01*
X25203360Y27886570D01*
X25113430Y27796640D01*
X25113426Y27796635D01*
X25113425Y27796634D01*
X25049822Y27686474D01*
X25016900Y27563603D01*
X23357302Y27563603D01*
X23354976Y27567631D01*
X23265031Y27657576D01*
X23209950Y27689377D01*
X23154871Y27721178D01*
X23093435Y27737639D01*
X23085586Y27739742D01*
X23085584Y27739743D01*
X23055038Y27747928D01*
X23032001Y27754100D01*
X23032000Y27754100D01*
X22904797Y27754100D01*
X22781926Y27721178D01*
X22671766Y27657575D01*
X22671765Y27657574D01*
X22671760Y27657570D01*
X22581830Y27567640D01*
X22581826Y27567635D01*
X22581825Y27567634D01*
X22518222Y27457474D01*
X22504148Y27404946D01*
X22485300Y27334601D01*
X6048754Y27334601D01*
X6095759Y27404949D01*
X6171359Y27587465D01*
X6209900Y27781223D01*
X6209900Y27978777D01*
X6209900Y27978780D01*
X6209900Y27978961D01*
X6209474Y27980917D01*
X6171361Y28172528D01*
X6171358Y28172537D01*
X6095762Y28355044D01*
X6095761Y28355045D01*
X6095759Y28355051D01*
X5986073Y28519208D01*
X5986063Y28519240D01*
X5986007Y28519309D01*
X5986007Y28519308D01*
X5986004Y28519312D01*
X5986002Y28519315D01*
X5985999Y28519318D01*
X5985997Y28519321D01*
X5846316Y28659002D01*
X5686421Y28765839D01*
X5686422Y28765839D01*
X5682054Y28768757D01*
X5682053Y28768758D01*
X5682051Y28768759D01*
X5682048Y28768761D01*
X5682043Y28768763D01*
X5680412Y28769439D01*
X5680408Y28769441D01*
X5499545Y28844356D01*
X5499522Y28844364D01*
X5499515Y28844366D01*
X5305784Y28882900D01*
X5305780Y28882900D01*
X5305777Y28882900D01*
X5108223Y28882900D01*
X5108220Y28882900D01*
X5108215Y28882900D01*
X4914483Y28844365D01*
X4914476Y28844364D01*
X4914453Y28844356D01*
X4731967Y28768769D01*
X4731952Y28768762D01*
X4731946Y28768758D01*
X4731941Y28768756D01*
X4567682Y28659002D01*
X4427998Y28519318D01*
X4318244Y28355059D01*
X4318242Y28355054D01*
X4318238Y28355048D01*
X4318231Y28355033D01*
X4242644Y28172547D01*
X4242636Y28172524D01*
X4242634Y28172517D01*
X4204100Y27978787D01*
X75500Y27978787D01*
X75500Y30518787D01*
X3950100Y30518787D01*
X3950100Y30321215D01*
X3988634Y30127485D01*
X3988636Y30127478D01*
X3988641Y30127464D01*
X3988644Y30127455D01*
X4064231Y29944969D01*
X4064238Y29944954D01*
X4064242Y29944948D01*
X4064244Y29944943D01*
X4173998Y29780684D01*
X4313679Y29641003D01*
X4313683Y29641000D01*
X4313685Y29640998D01*
X4313688Y29640996D01*
X4313692Y29640993D01*
X4313691Y29640993D01*
X4313754Y29640941D01*
X4313791Y29640927D01*
X4477949Y29531241D01*
X4660465Y29455641D01*
X4660466Y29455641D01*
X4660467Y29455641D01*
X4660472Y29455639D01*
X4846594Y29418618D01*
X4849317Y29417896D01*
X4854220Y29417100D01*
X5051779Y29417100D01*
X5055902Y29417100D01*
X5063757Y29419483D01*
X5095685Y29425835D01*
X5116363Y29429947D01*
X5245527Y29455639D01*
X5245527Y29455640D01*
X5245531Y29455640D01*
X5245533Y29455641D01*
X5245535Y29455641D01*
X5428051Y29531241D01*
X5592312Y29640996D01*
X5732004Y29780688D01*
X5841759Y29944949D01*
X5917359Y30127465D01*
X5924110Y30161401D01*
X5955899Y30321219D01*
X5955900Y30321221D01*
X5955900Y30463601D01*
X24716900Y30463601D01*
X24716900Y30456989D01*
X24716900Y30336396D01*
X24729706Y30288601D01*
X24729707Y30288601D01*
X24749822Y30213527D01*
X24774468Y30170841D01*
X24774469Y30170839D01*
X24779920Y30161399D01*
X24813424Y30103369D01*
X24903369Y30013424D01*
X24907235Y30011192D01*
X24919156Y29998690D01*
X24919160Y29998685D01*
X24929114Y29988246D01*
X24961131Y29926144D01*
X24954490Y29856591D01*
X24954489Y29856587D01*
X24951329Y29848694D01*
X24923893Y29807101D01*
X24913424Y29796633D01*
X24849824Y29686478D01*
X24849822Y29686474D01*
X24816900Y29563603D01*
X24816900Y29436399D01*
X24849822Y29313529D01*
X24867028Y29283728D01*
X24867027Y29283728D01*
X24888251Y29246969D01*
X24913424Y29203369D01*
X25003369Y29113424D01*
X25113530Y29049822D01*
X25236399Y29016900D01*
X25236401Y29016900D01*
X25363599Y29016900D01*
X25363601Y29016900D01*
X25486470Y29049822D01*
X25596631Y29113424D01*
X25686576Y29203369D01*
X25750178Y29313530D01*
X25783100Y29436399D01*
X25783100Y29563601D01*
X25771417Y29607203D01*
X26840735Y29607203D01*
X26840735Y29479999D01*
X26873657Y29357129D01*
X26885581Y29336476D01*
X26885583Y29336473D01*
X26885584Y29336472D01*
X26937259Y29246969D01*
X27027204Y29157024D01*
X27137365Y29093422D01*
X27260234Y29060500D01*
X27260236Y29060500D01*
X27387434Y29060500D01*
X27387436Y29060500D01*
X27510305Y29093422D01*
X27620466Y29157024D01*
X27677043Y29213601D01*
X28916900Y29213601D01*
X28916900Y29206450D01*
X28916900Y29086397D01*
X28926700Y29049823D01*
X28949823Y28963527D01*
X28981623Y28908449D01*
X28981624Y28908449D01*
X29013424Y28853369D01*
X29103369Y28763424D01*
X29213530Y28699822D01*
X29336399Y28666900D01*
X29336401Y28666900D01*
X29463599Y28666900D01*
X29463601Y28666900D01*
X29586470Y28699822D01*
X29696631Y28763424D01*
X29786576Y28853369D01*
X29850178Y28963530D01*
X29883100Y29086399D01*
X29883100Y29213601D01*
X29850178Y29336470D01*
X29786576Y29446631D01*
X29696631Y29536576D01*
X29641550Y29568377D01*
X29586471Y29600178D01*
X29525035Y29616639D01*
X29517186Y29618742D01*
X29517184Y29618743D01*
X29486638Y29626928D01*
X29463601Y29633100D01*
X29463600Y29633100D01*
X29336397Y29633100D01*
X29213526Y29600178D01*
X29103366Y29536575D01*
X29103365Y29536574D01*
X29103360Y29536570D01*
X29013430Y29446640D01*
X29013426Y29446635D01*
X29013425Y29446634D01*
X28949820Y29336471D01*
X28943952Y29314567D01*
X28943939Y29314520D01*
X28943675Y29313530D01*
X28916900Y29213601D01*
X27677043Y29213601D01*
X27710411Y29246969D01*
X27774013Y29357130D01*
X27806935Y29479999D01*
X27806935Y29607201D01*
X27774013Y29730070D01*
X27710411Y29840231D01*
X27620466Y29930176D01*
X27618938Y29931058D01*
X27562482Y29963655D01*
X27562473Y29963659D01*
X27554318Y29968367D01*
X27510306Y29993778D01*
X27436987Y30013423D01*
X27430379Y30015194D01*
X27430373Y30015196D01*
X27387437Y30026700D01*
X27387436Y30026700D01*
X27260234Y30026700D01*
X27260232Y30026700D01*
X27137361Y29993778D01*
X27027201Y29930175D01*
X27027200Y29930174D01*
X27027195Y29930170D01*
X26937265Y29840240D01*
X26937261Y29840235D01*
X26937260Y29840234D01*
X26873657Y29730074D01*
X26840735Y29607203D01*
X25771417Y29607203D01*
X25750178Y29686470D01*
X25750173Y29686478D01*
X25686576Y29796631D01*
X25596633Y29886574D01*
X25594554Y29888278D01*
X25583426Y29898602D01*
X25570879Y29911761D01*
X25538866Y29973862D01*
X25545509Y30043413D01*
X25548673Y30051315D01*
X25576107Y30092901D01*
X25586576Y30103369D01*
X25650178Y30213530D01*
X25670293Y30288601D01*
X32809400Y30288601D01*
X32809400Y30161399D01*
X32818493Y30127464D01*
X32842322Y30038529D01*
X32868160Y29993778D01*
X32873163Y29985113D01*
X32873164Y29985110D01*
X32887301Y29960625D01*
X32905924Y29928369D01*
X32995869Y29838424D01*
X33106030Y29774822D01*
X33228899Y29741900D01*
X33228901Y29741900D01*
X33356099Y29741900D01*
X33356101Y29741900D01*
X33478970Y29774822D01*
X33589131Y29838424D01*
X33679076Y29928369D01*
X33742678Y30038530D01*
X33775600Y30161399D01*
X33775600Y30288601D01*
X33742678Y30411470D01*
X33680718Y30518787D01*
X47130100Y30518787D01*
X47130100Y30321215D01*
X47168634Y30127485D01*
X47168636Y30127478D01*
X47168641Y30127464D01*
X47168644Y30127455D01*
X47244231Y29944969D01*
X47244238Y29944954D01*
X47244242Y29944948D01*
X47244244Y29944943D01*
X47353998Y29780684D01*
X47493679Y29641003D01*
X47493683Y29641000D01*
X47493685Y29640998D01*
X47493688Y29640996D01*
X47493692Y29640993D01*
X47493691Y29640993D01*
X47493754Y29640941D01*
X47493791Y29640927D01*
X47657949Y29531241D01*
X47840465Y29455641D01*
X47840466Y29455641D01*
X47840467Y29455641D01*
X47840472Y29455639D01*
X48026594Y29418618D01*
X48029317Y29417896D01*
X48034220Y29417100D01*
X48231779Y29417100D01*
X48235902Y29417100D01*
X48243757Y29419483D01*
X48275685Y29425835D01*
X48296363Y29429947D01*
X48425527Y29455639D01*
X48425527Y29455640D01*
X48425531Y29455640D01*
X48425533Y29455641D01*
X48425535Y29455641D01*
X48608051Y29531241D01*
X48772312Y29640996D01*
X48912004Y29780688D01*
X49021759Y29944949D01*
X49097359Y30127465D01*
X49104110Y30161401D01*
X49135474Y30319086D01*
X49135900Y30321042D01*
X49135900Y30518844D01*
X49135793Y30519311D01*
X49097361Y30712528D01*
X49097358Y30712537D01*
X49089121Y30732422D01*
X49025521Y30885969D01*
X49023439Y30890996D01*
X49022136Y30894487D01*
X48991024Y30941049D01*
X48912073Y31059208D01*
X48912063Y31059240D01*
X48912007Y31059309D01*
X48912007Y31059308D01*
X48912002Y31059315D01*
X48911997Y31059321D01*
X48772316Y31199002D01*
X48612421Y31305839D01*
X48612422Y31305839D01*
X48608054Y31308757D01*
X48608053Y31308758D01*
X48608051Y31308759D01*
X48608048Y31308761D01*
X48608043Y31308763D01*
X48606412Y31309439D01*
X48606408Y31309441D01*
X48425545Y31384356D01*
X48425522Y31384364D01*
X48425515Y31384366D01*
X48231784Y31422900D01*
X48231780Y31422900D01*
X48231777Y31422900D01*
X48034223Y31422900D01*
X48034220Y31422900D01*
X48034215Y31422900D01*
X47840483Y31384365D01*
X47840476Y31384364D01*
X47840453Y31384356D01*
X47657967Y31308769D01*
X47657952Y31308762D01*
X47657946Y31308758D01*
X47657941Y31308756D01*
X47493682Y31199002D01*
X47353998Y31059318D01*
X47244244Y30895059D01*
X47244242Y30895054D01*
X47244238Y30895048D01*
X47244231Y30895033D01*
X47168644Y30712547D01*
X47168636Y30712524D01*
X47168634Y30712517D01*
X47130100Y30518787D01*
X33680718Y30518787D01*
X33679076Y30521631D01*
X33589131Y30611576D01*
X33534050Y30643377D01*
X33478971Y30675178D01*
X33417535Y30691639D01*
X33409686Y30693742D01*
X33409684Y30693743D01*
X33379138Y30701928D01*
X33356101Y30708100D01*
X33356100Y30708100D01*
X33228897Y30708100D01*
X33106026Y30675178D01*
X32995866Y30611575D01*
X32995865Y30611574D01*
X32995860Y30611570D01*
X32905930Y30521640D01*
X32905926Y30521635D01*
X32905925Y30521634D01*
X32842321Y30411472D01*
X32822674Y30338145D01*
X32822666Y30338112D01*
X32822208Y30336402D01*
X32809400Y30288601D01*
X25670293Y30288601D01*
X25683100Y30336399D01*
X25683100Y30463601D01*
X25650178Y30586470D01*
X25586576Y30696631D01*
X25496631Y30786576D01*
X25441550Y30818377D01*
X25386471Y30850178D01*
X25325035Y30866639D01*
X25317186Y30868742D01*
X25317184Y30868743D01*
X25286638Y30876928D01*
X25263601Y30883100D01*
X25263600Y30883100D01*
X25136397Y30883100D01*
X25013526Y30850178D01*
X24903366Y30786575D01*
X24903365Y30786574D01*
X24903360Y30786570D01*
X24813430Y30696640D01*
X24813426Y30696635D01*
X24813425Y30696634D01*
X24749820Y30586471D01*
X24732853Y30523145D01*
X24732838Y30523084D01*
X24732449Y30521631D01*
X24716900Y30463601D01*
X5955900Y30463601D01*
X5955900Y30518780D01*
X5955900Y30518961D01*
X5955474Y30520917D01*
X5917361Y30712528D01*
X5917358Y30712537D01*
X5909121Y30732422D01*
X5905100Y30742129D01*
X5845521Y30885969D01*
X5843439Y30890996D01*
X5842136Y30894487D01*
X5811024Y30941049D01*
X5732004Y31059312D01*
X5732002Y31059315D01*
X5624091Y31167226D01*
X5624055Y31167263D01*
X5592316Y31199002D01*
X5521677Y31246201D01*
X22459900Y31246201D01*
X22459900Y31239503D01*
X22459900Y31118998D01*
X22475892Y31059315D01*
X22492823Y30996127D01*
X22524623Y30941049D01*
X22524624Y30941049D01*
X22556424Y30885969D01*
X22646369Y30796024D01*
X22756530Y30732422D01*
X22879399Y30699500D01*
X22879401Y30699500D01*
X23006599Y30699500D01*
X23006601Y30699500D01*
X23129470Y30732422D01*
X23239631Y30796024D01*
X23329576Y30885969D01*
X23393178Y30996130D01*
X23426100Y31118999D01*
X23426100Y31246201D01*
X23393178Y31369070D01*
X23329576Y31479231D01*
X23239631Y31569176D01*
X23184550Y31600977D01*
X23129471Y31632778D01*
X23068035Y31649239D01*
X23060186Y31651342D01*
X23060184Y31651343D01*
X23029638Y31659528D01*
X23006601Y31665700D01*
X23006600Y31665700D01*
X22879397Y31665700D01*
X22756526Y31632778D01*
X22646366Y31569175D01*
X22646365Y31569174D01*
X22646360Y31569170D01*
X22556430Y31479240D01*
X22556426Y31479235D01*
X22556425Y31479234D01*
X22492821Y31369072D01*
X22477051Y31310215D01*
X22477041Y31310174D01*
X22476663Y31308763D01*
X22459900Y31246201D01*
X5521677Y31246201D01*
X5432421Y31305839D01*
X5432422Y31305839D01*
X5428054Y31308757D01*
X5428053Y31308758D01*
X5428051Y31308759D01*
X5428048Y31308761D01*
X5428043Y31308763D01*
X5426412Y31309439D01*
X5426408Y31309441D01*
X5245545Y31384356D01*
X5245522Y31384364D01*
X5245515Y31384366D01*
X5051784Y31422900D01*
X5051780Y31422900D01*
X5051777Y31422900D01*
X5011881Y31422900D01*
X4944842Y31442585D01*
X4916245Y31475587D01*
X4905370Y31465095D01*
X4893989Y31447381D01*
X4879822Y31440447D01*
X4870243Y31431205D01*
X4836958Y31419467D01*
X4835659Y31419208D01*
X4824962Y31417081D01*
X4824874Y31417065D01*
X4660485Y31384364D01*
X4660461Y31384359D01*
X4477966Y31308769D01*
X4477952Y31308762D01*
X4477946Y31308758D01*
X4477941Y31308756D01*
X4313682Y31199002D01*
X4173998Y31059318D01*
X4064244Y30895059D01*
X4064242Y30895054D01*
X4064238Y30895048D01*
X4064231Y30895033D01*
X3988644Y30712547D01*
X3988636Y30712524D01*
X3988634Y30712517D01*
X3950100Y30518787D01*
X75500Y30518787D01*
X75500Y33210000D01*
X3879769Y33210000D01*
X4594750Y33210000D01*
X4661789Y33190315D01*
X4707544Y33137511D01*
X4717488Y33068353D01*
X4714524Y33053905D01*
X4707000Y33025829D01*
X4707000Y32894172D01*
X4714524Y32866095D01*
X4712863Y32796245D01*
X4673701Y32738382D01*
X4609473Y32710877D01*
X4594750Y32710000D01*
X3879769Y32710000D01*
X3886504Y32667473D01*
X3888715Y32653517D01*
X3888716Y32653508D01*
X3890242Y32643868D01*
X3946577Y32470488D01*
X3955904Y32441783D01*
X4052379Y32252443D01*
X4177272Y32080541D01*
X4177276Y32080536D01*
X4177281Y32080530D01*
X4327528Y31930283D01*
X4327532Y31930280D01*
X4327535Y31930277D01*
X4327540Y31930273D01*
X4367669Y31901118D01*
X4499440Y31805381D01*
X4688778Y31708906D01*
X4688789Y31708902D01*
X4825232Y31664570D01*
X4830414Y31663825D01*
X4843670Y31657773D01*
X4858189Y31656472D01*
X4874818Y31643552D01*
X4893972Y31634806D01*
X4901853Y31622546D01*
X4912021Y31614645D01*
X4918168Y31628103D01*
X4922950Y31633314D01*
X4956999Y31668355D01*
X4957000Y31668355D01*
X4957000Y32347750D01*
X4976685Y32414789D01*
X5029489Y32460544D01*
X5098647Y32470488D01*
X5113093Y32467525D01*
X5141174Y32460000D01*
X5272825Y32460000D01*
X5272826Y32460000D01*
X5300905Y32467524D01*
X5370755Y32465863D01*
X5428618Y32426701D01*
X5456123Y32362473D01*
X5457000Y32347750D01*
X5457000Y31632771D01*
X5457000Y31632770D01*
X5513486Y31641717D01*
X5513492Y31641717D01*
X5523126Y31643243D01*
X5523129Y31643243D01*
X5725217Y31708905D01*
X5914557Y31805380D01*
X6086459Y31930273D01*
X6086464Y31930277D01*
X6236723Y32080536D01*
X6236727Y32080541D01*
X6361620Y32252443D01*
X6458095Y32441783D01*
X6523757Y32643871D01*
X6523757Y32643874D01*
X6534231Y32710000D01*
X6534230Y32710000D01*
X5819250Y32710000D01*
X5752211Y32729685D01*
X5706456Y32782489D01*
X5696512Y32851647D01*
X5699476Y32866095D01*
X5707000Y32894174D01*
X5707000Y33025826D01*
X5699476Y33053906D01*
X5701137Y33123755D01*
X5740299Y33181618D01*
X5804527Y33209123D01*
X5819250Y33210000D01*
X6534231Y33210000D01*
X6523757Y33276127D01*
X6523757Y33276130D01*
X6472654Y33433410D01*
X6472653Y33433412D01*
X6462844Y33463603D01*
X31816900Y33463603D01*
X31816900Y33336399D01*
X31849307Y33215447D01*
X31849308Y33215445D01*
X31849822Y33213529D01*
X31849883Y33213424D01*
X31913424Y33103369D01*
X31980700Y33036093D01*
X31986322Y33028419D01*
X31986470Y33028008D01*
X32018676Y32994318D01*
X32050772Y32932257D01*
X32044220Y32862695D01*
X32044220Y32862694D01*
X32041085Y32854834D01*
X32013589Y32813092D01*
X32000502Y32800006D01*
X31936902Y32689851D01*
X31936900Y32689847D01*
X31903978Y32566976D01*
X31903978Y32439772D01*
X31936900Y32316901D01*
X31936900Y32316900D01*
X31968701Y32261822D01*
X31968702Y32261822D01*
X32000502Y32206742D01*
X32090447Y32116797D01*
X32155187Y32079419D01*
X32182929Y32057603D01*
X32193717Y32046289D01*
X32225733Y31984187D01*
X32225737Y31984167D01*
X32226079Y31982391D01*
X32222431Y31921196D01*
X32220076Y31913827D01*
X32209348Y31889573D01*
X32149823Y31786476D01*
X32116900Y31663601D01*
X32116900Y31536399D01*
X32149822Y31413528D01*
X32166661Y31384364D01*
X32166662Y31384361D01*
X32175491Y31369070D01*
X32213424Y31303369D01*
X32303369Y31213424D01*
X32413530Y31149822D01*
X32536399Y31116900D01*
X32536401Y31116900D01*
X32663599Y31116900D01*
X32663601Y31116900D01*
X32786470Y31149822D01*
X32896631Y31213424D01*
X32986576Y31303369D01*
X33050178Y31413530D01*
X33083100Y31536399D01*
X33083100Y31663601D01*
X33050178Y31786470D01*
X32986576Y31896631D01*
X32896631Y31986576D01*
X32895934Y31987079D01*
X32893423Y31988429D01*
X32831891Y32023954D01*
X32804147Y32045772D01*
X32793359Y32057086D01*
X32761344Y32119186D01*
X32761000Y32120972D01*
X32764647Y32182187D01*
X32767005Y32189562D01*
X32777730Y32213802D01*
X32837253Y32316898D01*
X32837254Y32316900D01*
X32837253Y32316900D01*
X32837256Y32316903D01*
X32870178Y32439772D01*
X32870178Y32566974D01*
X32837256Y32689843D01*
X32837251Y32689851D01*
X32814253Y32729685D01*
X32773654Y32800004D01*
X32713097Y32860561D01*
X32709494Y32864319D01*
X32679135Y32897342D01*
X32679335Y32897602D01*
X32667522Y32909973D01*
X32666748Y32910815D01*
X32651807Y32941137D01*
X32636291Y32971181D01*
X32636406Y32972396D01*
X32635867Y32973490D01*
X32639690Y33007066D01*
X32642880Y33040736D01*
X32646032Y33048623D01*
X32652732Y33058787D01*
X47384100Y33058787D01*
X47384100Y32861215D01*
X47422634Y32667485D01*
X47422636Y32667478D01*
X47422644Y32667455D01*
X47498231Y32484969D01*
X47498238Y32484954D01*
X47498242Y32484948D01*
X47498244Y32484943D01*
X47607998Y32320684D01*
X47747679Y32181003D01*
X47747683Y32181000D01*
X47747685Y32180998D01*
X47747688Y32180996D01*
X47747692Y32180993D01*
X47747691Y32180993D01*
X47747754Y32180941D01*
X47747791Y32180927D01*
X47911949Y32071241D01*
X48094465Y31995641D01*
X48094466Y31995641D01*
X48094467Y31995641D01*
X48094472Y31995639D01*
X48280594Y31958618D01*
X48283317Y31957896D01*
X48288220Y31957100D01*
X48485779Y31957100D01*
X48489902Y31957100D01*
X48497757Y31959483D01*
X48529685Y31965835D01*
X48550363Y31969947D01*
X48679527Y31995639D01*
X48679527Y31995640D01*
X48679531Y31995640D01*
X48679533Y31995641D01*
X48679535Y31995641D01*
X48862051Y32071241D01*
X49026312Y32180996D01*
X49166004Y32320688D01*
X49275759Y32484949D01*
X49351359Y32667465D01*
X49355811Y32689843D01*
X49389474Y32859086D01*
X49389900Y32861042D01*
X49389900Y33058860D01*
X49389747Y33059543D01*
X49351361Y33252528D01*
X49351358Y33252537D01*
X49345364Y33267007D01*
X49330303Y33303367D01*
X49279539Y33425925D01*
X49277438Y33430997D01*
X49276136Y33434487D01*
X49263005Y33454139D01*
X49166073Y33599208D01*
X49166063Y33599240D01*
X49166007Y33599309D01*
X49166007Y33599308D01*
X49166004Y33599312D01*
X49166002Y33599315D01*
X49165999Y33599318D01*
X49165997Y33599321D01*
X49026316Y33739002D01*
X48900495Y33823072D01*
X48862054Y33848757D01*
X48862053Y33848758D01*
X48862051Y33848759D01*
X48862048Y33848761D01*
X48862043Y33848763D01*
X48860412Y33849439D01*
X48860408Y33849441D01*
X48679545Y33924356D01*
X48679522Y33924364D01*
X48679515Y33924366D01*
X48485784Y33962900D01*
X48485780Y33962900D01*
X48485777Y33962900D01*
X48288223Y33962900D01*
X48288220Y33962900D01*
X48288215Y33962900D01*
X48094483Y33924365D01*
X48094476Y33924364D01*
X48094453Y33924356D01*
X47911967Y33848769D01*
X47911952Y33848762D01*
X47911948Y33848759D01*
X47911941Y33848756D01*
X47747682Y33739002D01*
X47607998Y33599318D01*
X47498244Y33435059D01*
X47498242Y33435054D01*
X47498238Y33435048D01*
X47498231Y33435033D01*
X47422644Y33252547D01*
X47422640Y33252534D01*
X47422634Y33252517D01*
X47384100Y33058787D01*
X32652732Y33058787D01*
X32673499Y33090293D01*
X32686576Y33103369D01*
X32750178Y33213530D01*
X32783100Y33336399D01*
X32783100Y33463601D01*
X32750178Y33586470D01*
X32686576Y33696631D01*
X32596631Y33786576D01*
X32541550Y33818377D01*
X32486471Y33850178D01*
X32393137Y33875186D01*
X32393137Y33875187D01*
X32363602Y33883100D01*
X32363601Y33883100D01*
X32236399Y33883100D01*
X32236397Y33883100D01*
X32113526Y33850178D01*
X32003366Y33786575D01*
X32003365Y33786574D01*
X32003360Y33786570D01*
X31913430Y33696640D01*
X31913426Y33696635D01*
X31913425Y33696634D01*
X31849822Y33586474D01*
X31816900Y33463603D01*
X6462844Y33463603D01*
X6458096Y33478216D01*
X6458093Y33478222D01*
X6458094Y33478222D01*
X6361619Y33667560D01*
X6275153Y33786570D01*
X6236727Y33839460D01*
X6236723Y33839465D01*
X6236720Y33839468D01*
X6236717Y33839472D01*
X6086470Y33989719D01*
X6086465Y33989723D01*
X6086464Y33989724D01*
X6086459Y33989728D01*
X5953151Y34086581D01*
X5914560Y34114619D01*
X5914559Y34114620D01*
X5914557Y34114621D01*
X5725215Y34211097D01*
X5725211Y34211099D01*
X5725206Y34211101D01*
X5523126Y34276759D01*
X5523127Y34276759D01*
X5457000Y34287233D01*
X5457000Y33572251D01*
X5437315Y33505212D01*
X5384511Y33459457D01*
X5315353Y33449513D01*
X5300908Y33452476D01*
X5272828Y33460000D01*
X5272826Y33460000D01*
X5141174Y33460000D01*
X5141171Y33460000D01*
X5113092Y33452476D01*
X5043242Y33454139D01*
X4985380Y33493302D01*
X4957877Y33557531D01*
X4957000Y33572251D01*
X4957000Y34293917D01*
X4956999Y34293919D01*
X4950934Y34303210D01*
X4945785Y34320292D01*
X4936037Y34335231D01*
X4935913Y34353047D01*
X4930771Y34370107D01*
X4935675Y34387262D01*
X4935551Y34405099D01*
X4945078Y34420154D01*
X4949976Y34437285D01*
X4963374Y34449064D01*
X4972915Y34464139D01*
X5002435Y34483402D01*
X5002450Y34483416D01*
X5005308Y34484745D01*
X5007003Y34485533D01*
X5046752Y34494326D01*
X5063748Y34499482D01*
X5133858Y34513427D01*
X5245527Y34535639D01*
X5245530Y34535641D01*
X5245535Y34535641D01*
X5247749Y34536558D01*
X5256697Y34540259D01*
X5256739Y34540283D01*
X5428051Y34611241D01*
X5592312Y34720996D01*
X5732004Y34860688D01*
X5841759Y35024949D01*
X5917359Y35207465D01*
X5918566Y35213529D01*
X5952986Y35386574D01*
X5955900Y35401223D01*
X5955900Y35463603D01*
X20316900Y35463603D01*
X20316900Y35463601D01*
X20316900Y35336400D01*
X20349822Y35213529D01*
X20365444Y35186472D01*
X20413424Y35103369D01*
X20503369Y35013424D01*
X20613530Y34949822D01*
X20736399Y34916900D01*
X20736401Y34916900D01*
X20863599Y34916900D01*
X20863601Y34916900D01*
X20986470Y34949822D01*
X21096631Y35013424D01*
X21146808Y35063601D01*
X21616900Y35063601D01*
X21616900Y34936399D01*
X21622125Y34916900D01*
X21649822Y34813529D01*
X21665444Y34786472D01*
X21713424Y34703369D01*
X21803369Y34613424D01*
X21913530Y34549822D01*
X22036399Y34516900D01*
X22036401Y34516900D01*
X22163599Y34516900D01*
X22163601Y34516900D01*
X22286470Y34549822D01*
X22396631Y34613424D01*
X22486576Y34703369D01*
X22550178Y34813530D01*
X22583100Y34936399D01*
X22583100Y34963603D01*
X32816900Y34963603D01*
X32816900Y34963601D01*
X32816900Y34836400D01*
X32849822Y34713529D01*
X32878649Y34663601D01*
X32913424Y34603369D01*
X33003369Y34513424D01*
X33113530Y34449822D01*
X33236399Y34416900D01*
X33236401Y34416900D01*
X33363599Y34416900D01*
X33363601Y34416900D01*
X33486470Y34449822D01*
X33596631Y34513424D01*
X33686576Y34603369D01*
X33721351Y34663601D01*
X34116900Y34663601D01*
X34116900Y34536399D01*
X34127430Y34497101D01*
X34130495Y34485659D01*
X34130496Y34485656D01*
X34149819Y34413538D01*
X34149821Y34413532D01*
X34149822Y34413529D01*
X34181623Y34358450D01*
X34213424Y34303369D01*
X34213426Y34303367D01*
X34304839Y34211954D01*
X34316474Y34201502D01*
X34329114Y34188246D01*
X34361131Y34126144D01*
X34354490Y34056591D01*
X34354489Y34056587D01*
X34351329Y34048694D01*
X34323893Y34007101D01*
X34313424Y33996633D01*
X34249823Y33886476D01*
X34249822Y33886472D01*
X34239719Y33848761D01*
X34239718Y33848759D01*
X34239717Y33848757D01*
X34216900Y33763601D01*
X34216900Y33636397D01*
X34226837Y33599312D01*
X34249822Y33513529D01*
X34270211Y33478216D01*
X34270212Y33478214D01*
X34284112Y33454139D01*
X34313424Y33403369D01*
X34403369Y33313424D01*
X34467964Y33276130D01*
X34497883Y33258856D01*
X34508830Y33252535D01*
X34513528Y33249823D01*
X34513530Y33249822D01*
X34636399Y33216900D01*
X34636401Y33216900D01*
X34763599Y33216900D01*
X34763601Y33216900D01*
X34886470Y33249822D01*
X34996631Y33313424D01*
X35066917Y33383711D01*
X35095167Y33404860D01*
X35107350Y33411512D01*
X35175621Y33426362D01*
X35241085Y33401944D01*
X35247891Y33396849D01*
X35280965Y33359586D01*
X35294353Y33336399D01*
X35307617Y33313427D01*
X35313424Y33303369D01*
X35403369Y33213424D01*
X35513530Y33149822D01*
X35636399Y33116900D01*
X35636401Y33116900D01*
X35763599Y33116900D01*
X35763601Y33116900D01*
X35886470Y33149822D01*
X35996631Y33213424D01*
X36086576Y33303369D01*
X36150178Y33413530D01*
X36183100Y33536399D01*
X36183100Y33663601D01*
X36150178Y33786470D01*
X36150117Y33786575D01*
X36131756Y33818378D01*
X36086576Y33896631D01*
X35996631Y33986576D01*
X35926350Y34027153D01*
X35886471Y34050178D01*
X35825035Y34066639D01*
X35818156Y34068483D01*
X35818154Y34068483D01*
X35791132Y34075723D01*
X35763601Y34083100D01*
X35763600Y34083100D01*
X35636397Y34083100D01*
X35513526Y34050178D01*
X35513522Y34050176D01*
X35403367Y33986576D01*
X35333086Y33916294D01*
X35333084Y33916293D01*
X35333084Y33916292D01*
X35329366Y33913509D01*
X35304830Y33895142D01*
X35292649Y33888491D01*
X35224375Y33873640D01*
X35158920Y33898052D01*
X35152113Y33903147D01*
X35119030Y33940419D01*
X35086576Y33996631D01*
X34996631Y34086576D01*
X34996628Y34086578D01*
X34996624Y34086581D01*
X34996625Y34086581D01*
X34994554Y34088278D01*
X34983426Y34098602D01*
X34970879Y34111761D01*
X34938866Y34173862D01*
X34945509Y34243413D01*
X34948673Y34251315D01*
X34976107Y34292901D01*
X34986576Y34303369D01*
X35050178Y34413530D01*
X35083100Y34536399D01*
X35083100Y34663601D01*
X35050178Y34786470D01*
X34986576Y34896631D01*
X34896631Y34986576D01*
X34893975Y34988110D01*
X34830154Y35024958D01*
X34830154Y35024957D01*
X34786468Y35050180D01*
X34725036Y35066639D01*
X34725035Y35066640D01*
X34725035Y35066639D01*
X34663601Y35083100D01*
X34663600Y35083100D01*
X34536397Y35083100D01*
X34413526Y35050178D01*
X34303366Y34986575D01*
X34303365Y34986574D01*
X34303360Y34986570D01*
X34213430Y34896640D01*
X34213426Y34896635D01*
X34213425Y34896634D01*
X34149821Y34786472D01*
X34127555Y34703368D01*
X34117606Y34666240D01*
X34117606Y34666237D01*
X34116900Y34663601D01*
X33721351Y34663601D01*
X33750178Y34713530D01*
X33783100Y34836399D01*
X33783100Y34963601D01*
X33750178Y35086470D01*
X33686576Y35196631D01*
X33596631Y35286576D01*
X33510336Y35336399D01*
X33486471Y35350178D01*
X33425035Y35366639D01*
X33363601Y35383100D01*
X33363600Y35383100D01*
X33236397Y35383100D01*
X33113526Y35350178D01*
X33003371Y35286577D01*
X33003365Y35286574D01*
X33003360Y35286570D01*
X32913430Y35196640D01*
X32913426Y35196635D01*
X32913425Y35196634D01*
X32849822Y35086474D01*
X32816900Y34963603D01*
X22583100Y34963603D01*
X22583100Y35063601D01*
X22550178Y35186470D01*
X22544311Y35196631D01*
X22492382Y35286574D01*
X22486576Y35296631D01*
X22396631Y35386576D01*
X22341550Y35418377D01*
X22286471Y35450178D01*
X22225035Y35466639D01*
X22217186Y35468742D01*
X22217184Y35468743D01*
X22186638Y35476928D01*
X22163601Y35483100D01*
X22163600Y35483100D01*
X22036397Y35483100D01*
X21913526Y35450178D01*
X21803371Y35386577D01*
X21803365Y35386574D01*
X21803360Y35386570D01*
X21713430Y35296640D01*
X21713426Y35296635D01*
X21713425Y35296634D01*
X21649821Y35186472D01*
X21628073Y35105303D01*
X21628068Y35105282D01*
X21627555Y35103367D01*
X21616900Y35063601D01*
X21146808Y35063601D01*
X21186576Y35103369D01*
X21250178Y35213530D01*
X21283100Y35336399D01*
X21283100Y35463601D01*
X21250178Y35586470D01*
X21243072Y35598777D01*
X21243066Y35598787D01*
X47130100Y35598787D01*
X47130100Y35401215D01*
X47168634Y35207485D01*
X47168636Y35207478D01*
X47168644Y35207455D01*
X47244231Y35024969D01*
X47244236Y35024958D01*
X47244242Y35024948D01*
X47244244Y35024943D01*
X47353998Y34860684D01*
X47493679Y34721003D01*
X47493683Y34721000D01*
X47493685Y34720998D01*
X47493688Y34720996D01*
X47493692Y34720993D01*
X47493691Y34720993D01*
X47493743Y34720951D01*
X47493786Y34720931D01*
X47657949Y34611241D01*
X47657955Y34611239D01*
X47657956Y34611238D01*
X47657959Y34611237D01*
X47658523Y34610860D01*
X47662011Y34609558D01*
X47687142Y34599149D01*
X47725381Y34583310D01*
X47840465Y34535641D01*
X47840466Y34535641D01*
X47840467Y34535641D01*
X47840472Y34535639D01*
X48026594Y34498618D01*
X48029317Y34497896D01*
X48034220Y34497100D01*
X48231779Y34497100D01*
X48235900Y34497100D01*
X48243743Y34499481D01*
X48313858Y34513427D01*
X48425527Y34535639D01*
X48425529Y34535641D01*
X48425531Y34535641D01*
X48425535Y34535641D01*
X48427730Y34536551D01*
X48427749Y34536558D01*
X48436697Y34540259D01*
X48436739Y34540283D01*
X48608051Y34611241D01*
X48772312Y34720996D01*
X48912004Y34860688D01*
X49021759Y35024949D01*
X49097359Y35207465D01*
X49098566Y35213529D01*
X49132986Y35386574D01*
X49135900Y35401223D01*
X49135900Y35598777D01*
X49135900Y35598780D01*
X49135900Y35598961D01*
X49135474Y35600917D01*
X49097361Y35792528D01*
X49097358Y35792537D01*
X49072160Y35853370D01*
X49065792Y35868743D01*
X49021762Y35975044D01*
X49021760Y35975048D01*
X49021759Y35975051D01*
X48912073Y36139208D01*
X48912063Y36139240D01*
X48912007Y36139309D01*
X48912007Y36139308D01*
X48912004Y36139312D01*
X48912002Y36139315D01*
X48911999Y36139318D01*
X48911997Y36139321D01*
X48772316Y36279002D01*
X48612421Y36385839D01*
X48612422Y36385839D01*
X48608054Y36388757D01*
X48608053Y36388758D01*
X48608051Y36388759D01*
X48608048Y36388761D01*
X48608043Y36388763D01*
X48606412Y36389439D01*
X48606408Y36389441D01*
X48425545Y36464356D01*
X48425522Y36464364D01*
X48425515Y36464366D01*
X48231784Y36502900D01*
X48231780Y36502900D01*
X48231777Y36502900D01*
X48034223Y36502900D01*
X48034220Y36502900D01*
X48034215Y36502900D01*
X47840483Y36464365D01*
X47840476Y36464364D01*
X47840453Y36464356D01*
X47657967Y36388769D01*
X47657952Y36388762D01*
X47657946Y36388758D01*
X47657941Y36388756D01*
X47493682Y36279002D01*
X47353998Y36139318D01*
X47244244Y35975059D01*
X47244242Y35975054D01*
X47244238Y35975048D01*
X47244231Y35975033D01*
X47168644Y35792547D01*
X47168636Y35792524D01*
X47168634Y35792517D01*
X47130100Y35598787D01*
X21243066Y35598787D01*
X21203741Y35666900D01*
X21186576Y35696631D01*
X21096631Y35786576D01*
X21041550Y35818377D01*
X20986471Y35850178D01*
X20925035Y35866639D01*
X20917186Y35868742D01*
X20917184Y35868743D01*
X20886638Y35876928D01*
X20863601Y35883100D01*
X20863600Y35883100D01*
X20736397Y35883100D01*
X20613526Y35850178D01*
X20503366Y35786575D01*
X20503365Y35786574D01*
X20503360Y35786570D01*
X20413430Y35696640D01*
X20413426Y35696635D01*
X20413425Y35696634D01*
X20349822Y35586474D01*
X20316900Y35463603D01*
X5955900Y35463603D01*
X5955900Y35598777D01*
X5955900Y35598780D01*
X5955900Y35598961D01*
X5955474Y35600917D01*
X5917361Y35792528D01*
X5917358Y35792537D01*
X5892160Y35853370D01*
X5885792Y35868743D01*
X5841762Y35975044D01*
X5841760Y35975048D01*
X5841759Y35975051D01*
X5732073Y36139208D01*
X5732063Y36139240D01*
X5732007Y36139309D01*
X5732007Y36139308D01*
X5732004Y36139312D01*
X5732002Y36139315D01*
X5731999Y36139318D01*
X5731997Y36139321D01*
X5592316Y36279002D01*
X5432421Y36385839D01*
X5432422Y36385839D01*
X5428054Y36388757D01*
X5428053Y36388758D01*
X5428051Y36388759D01*
X5428048Y36388761D01*
X5428043Y36388763D01*
X5426412Y36389439D01*
X5426408Y36389441D01*
X5245545Y36464356D01*
X5245522Y36464364D01*
X5245515Y36464366D01*
X5051784Y36502900D01*
X5051780Y36502900D01*
X5051777Y36502900D01*
X4854223Y36502900D01*
X4854220Y36502900D01*
X4854215Y36502900D01*
X4660483Y36464365D01*
X4660476Y36464364D01*
X4660453Y36464356D01*
X4477967Y36388769D01*
X4477952Y36388762D01*
X4477946Y36388758D01*
X4477941Y36388756D01*
X4313682Y36279002D01*
X4173998Y36139318D01*
X4064244Y35975059D01*
X4064242Y35975054D01*
X4064238Y35975048D01*
X4064231Y35975033D01*
X3988644Y35792547D01*
X3988636Y35792524D01*
X3988634Y35792517D01*
X3950100Y35598787D01*
X3950100Y35401215D01*
X3988634Y35207485D01*
X3988636Y35207478D01*
X3988644Y35207455D01*
X4064231Y35024969D01*
X4064236Y35024958D01*
X4064242Y35024948D01*
X4064244Y35024943D01*
X4173998Y34860684D01*
X4313679Y34721003D01*
X4313683Y34721000D01*
X4313685Y34720998D01*
X4313688Y34720996D01*
X4313692Y34720993D01*
X4313691Y34720993D01*
X4313743Y34720951D01*
X4313786Y34720931D01*
X4477949Y34611241D01*
X4477955Y34611239D01*
X4477956Y34611238D01*
X4477959Y34611237D01*
X4478523Y34610860D01*
X4482011Y34609558D01*
X4507142Y34599149D01*
X4545381Y34583310D01*
X4660465Y34535641D01*
X4660468Y34535641D01*
X4660472Y34535639D01*
X4814042Y34505092D01*
X4829493Y34497146D01*
X4845793Y34494138D01*
X4847323Y34493351D01*
X4857346Y34488108D01*
X4869077Y34476788D01*
X4874704Y34473894D01*
X4881955Y34467089D01*
X4885661Y34460786D01*
X4907625Y34439592D01*
X4914010Y34412570D01*
X4917368Y34406859D01*
X4917079Y34399584D01*
X4923693Y34371595D01*
X4914982Y34346750D01*
X4914597Y34337044D01*
X4908553Y34328414D01*
X4900729Y34306096D01*
X4900621Y34305945D01*
X4880499Y34288351D01*
X4874520Y34279811D01*
X4867398Y34276895D01*
X4857802Y34268503D01*
X4855138Y34267092D01*
X4835416Y34258740D01*
X4688790Y34211100D01*
X4688782Y34211097D01*
X4688782Y34211096D01*
X4669953Y34201502D01*
X4499438Y34114619D01*
X4327557Y33989741D01*
X4327528Y33989719D01*
X4177281Y33839472D01*
X4177259Y33839443D01*
X4052381Y33667562D01*
X3955903Y33478216D01*
X3890242Y33276134D01*
X3888716Y33266493D01*
X3879769Y33210000D01*
X75500Y33210000D01*
X75500Y36763603D01*
X24116900Y36763603D01*
X24116900Y36763601D01*
X24116900Y36636400D01*
X24149822Y36513530D01*
X24149823Y36513527D01*
X24165655Y36486106D01*
X24165654Y36486106D01*
X24211515Y36406674D01*
X24213424Y36403369D01*
X24303369Y36313424D01*
X24413530Y36249822D01*
X24536399Y36216900D01*
X24536401Y36216900D01*
X24663599Y36216900D01*
X24663601Y36216900D01*
X24786470Y36249822D01*
X24896631Y36313424D01*
X24986576Y36403369D01*
X25042697Y36500575D01*
X25064507Y36528310D01*
X25072697Y36536119D01*
X25134796Y36568135D01*
X25204350Y36561496D01*
X25259273Y36518308D01*
X25259282Y36518294D01*
X25263731Y36512045D01*
X25282491Y36472224D01*
X25296021Y36421731D01*
X25315059Y36388757D01*
X25359624Y36311569D01*
X25449569Y36221624D01*
X25559730Y36158022D01*
X25682599Y36125100D01*
X25682601Y36125100D01*
X25809799Y36125100D01*
X25809801Y36125100D01*
X25932670Y36158022D01*
X26028938Y36213603D01*
X34516900Y36213603D01*
X34516900Y36086399D01*
X34549822Y35963528D01*
X34549822Y35963527D01*
X34581623Y35908449D01*
X34581624Y35908449D01*
X34613424Y35853369D01*
X34703369Y35763424D01*
X34791985Y35712261D01*
X34813526Y35699824D01*
X34813530Y35699822D01*
X34936399Y35666900D01*
X34936401Y35666900D01*
X35063599Y35666900D01*
X35063601Y35666900D01*
X35186470Y35699822D01*
X35296631Y35763424D01*
X35386576Y35853369D01*
X35450178Y35963530D01*
X35483100Y36086399D01*
X35483100Y36213601D01*
X35450178Y36336470D01*
X35386576Y36446631D01*
X35296631Y36536576D01*
X35282733Y36544600D01*
X35233789Y36572859D01*
X35233785Y36572861D01*
X35225836Y36577450D01*
X35186471Y36600178D01*
X35125035Y36616639D01*
X35118196Y36618472D01*
X35118195Y36618472D01*
X35091911Y36625515D01*
X35063601Y36633100D01*
X35063600Y36633100D01*
X34936397Y36633100D01*
X34813526Y36600178D01*
X34703366Y36536575D01*
X34703365Y36536574D01*
X34703360Y36536570D01*
X34613430Y36446640D01*
X34613426Y36446635D01*
X34613425Y36446634D01*
X34549822Y36336474D01*
X34516900Y36213603D01*
X26028938Y36213603D01*
X26042831Y36221624D01*
X26132776Y36311569D01*
X26196378Y36421730D01*
X26229300Y36544599D01*
X26229300Y36671801D01*
X26196378Y36794670D01*
X26195526Y36796145D01*
X26172525Y36835984D01*
X26132776Y36904831D01*
X26042831Y36994776D01*
X25987750Y37026577D01*
X25932671Y37058378D01*
X25868239Y37075642D01*
X25868239Y37075643D01*
X25809802Y37091300D01*
X25809801Y37091300D01*
X25682599Y37091300D01*
X25682597Y37091300D01*
X25559726Y37058378D01*
X25449566Y36994775D01*
X25449565Y36994774D01*
X25359622Y36904830D01*
X25359609Y36904810D01*
X25303501Y36807632D01*
X25303501Y36807629D01*
X25303498Y36807626D01*
X25303498Y36807625D01*
X25289555Y36789894D01*
X25281685Y36779887D01*
X25273501Y36772084D01*
X25211401Y36740066D01*
X25141847Y36746705D01*
X25086925Y36789894D01*
X25086923Y36789896D01*
X25085291Y36792188D01*
X25082471Y36796148D01*
X25063705Y36835981D01*
X25050178Y36886470D01*
X24986576Y36996631D01*
X24896631Y37086576D01*
X24841550Y37118377D01*
X24786471Y37150178D01*
X24725035Y37166639D01*
X24717186Y37168742D01*
X24717184Y37168743D01*
X24686638Y37176928D01*
X24663601Y37183100D01*
X24663600Y37183100D01*
X24536397Y37183100D01*
X24413526Y37150178D01*
X24303366Y37086575D01*
X24303365Y37086574D01*
X24303360Y37086570D01*
X24213430Y36996640D01*
X24213426Y36996635D01*
X24213425Y36996634D01*
X24149822Y36886474D01*
X24116900Y36763603D01*
X75500Y36763603D01*
X75500Y38138787D01*
X4204100Y38138787D01*
X4204100Y37941215D01*
X4242634Y37747485D01*
X4242636Y37747478D01*
X4242644Y37747455D01*
X4318231Y37564969D01*
X4318238Y37564954D01*
X4318242Y37564948D01*
X4318244Y37564943D01*
X4427998Y37400684D01*
X4567679Y37261003D01*
X4567683Y37261000D01*
X4567685Y37260998D01*
X4567688Y37260996D01*
X4567692Y37260993D01*
X4567691Y37260993D01*
X4567754Y37260941D01*
X4567791Y37260927D01*
X4731949Y37151241D01*
X4914465Y37075641D01*
X4914466Y37075641D01*
X4914467Y37075641D01*
X4914472Y37075639D01*
X5100594Y37038618D01*
X5103317Y37037896D01*
X5108220Y37037100D01*
X5305779Y37037100D01*
X5309902Y37037100D01*
X5317757Y37039483D01*
X5349685Y37045835D01*
X5370363Y37049947D01*
X5499527Y37075639D01*
X5499527Y37075640D01*
X5499531Y37075640D01*
X5499533Y37075641D01*
X5499535Y37075641D01*
X5682051Y37151241D01*
X5846312Y37260996D01*
X5986004Y37400688D01*
X6095759Y37564949D01*
X6171359Y37747465D01*
X6209900Y37941223D01*
X6209900Y38138777D01*
X6209900Y38138780D01*
X6209899Y38138782D01*
X6209898Y38138787D01*
X47384100Y38138787D01*
X47384100Y37941215D01*
X47422634Y37747485D01*
X47422636Y37747478D01*
X47422644Y37747455D01*
X47498231Y37564969D01*
X47498238Y37564954D01*
X47498242Y37564948D01*
X47498244Y37564943D01*
X47607998Y37400684D01*
X47747679Y37261003D01*
X47747683Y37261000D01*
X47747685Y37260998D01*
X47747688Y37260996D01*
X47747692Y37260993D01*
X47747691Y37260993D01*
X47747754Y37260941D01*
X47747791Y37260927D01*
X47911949Y37151241D01*
X48094465Y37075641D01*
X48094466Y37075641D01*
X48094467Y37075641D01*
X48094472Y37075639D01*
X48280594Y37038618D01*
X48283317Y37037896D01*
X48288220Y37037100D01*
X48485779Y37037100D01*
X48489902Y37037100D01*
X48497757Y37039483D01*
X48529685Y37045835D01*
X48550363Y37049947D01*
X48679527Y37075639D01*
X48679527Y37075640D01*
X48679531Y37075640D01*
X48679533Y37075641D01*
X48679535Y37075641D01*
X48862051Y37151241D01*
X49026312Y37260996D01*
X49166004Y37400688D01*
X49275759Y37564949D01*
X49351359Y37747465D01*
X49389900Y37941223D01*
X49389900Y38138777D01*
X49389900Y38138780D01*
X49389900Y38138961D01*
X49389474Y38140917D01*
X49351361Y38332528D01*
X49351358Y38332537D01*
X49275762Y38515044D01*
X49275761Y38515045D01*
X49275759Y38515051D01*
X49166073Y38679208D01*
X49166063Y38679240D01*
X49166007Y38679309D01*
X49166007Y38679308D01*
X49166004Y38679312D01*
X49166002Y38679315D01*
X49165999Y38679318D01*
X49165997Y38679321D01*
X49026316Y38819002D01*
X48866421Y38925839D01*
X48866422Y38925839D01*
X48862054Y38928757D01*
X48862053Y38928758D01*
X48862051Y38928759D01*
X48862048Y38928761D01*
X48862043Y38928763D01*
X48860412Y38929439D01*
X48860408Y38929441D01*
X48679545Y39004356D01*
X48679522Y39004364D01*
X48679515Y39004366D01*
X48485784Y39042900D01*
X48485780Y39042900D01*
X48485777Y39042900D01*
X48288223Y39042900D01*
X48288220Y39042900D01*
X48288215Y39042900D01*
X48094483Y39004365D01*
X48094476Y39004364D01*
X48094453Y39004356D01*
X47911967Y38928769D01*
X47911952Y38928762D01*
X47911946Y38928758D01*
X47911941Y38928756D01*
X47747682Y38819002D01*
X47607998Y38679318D01*
X47498244Y38515059D01*
X47498242Y38515054D01*
X47498238Y38515048D01*
X47498231Y38515033D01*
X47422644Y38332547D01*
X47422636Y38332524D01*
X47422634Y38332517D01*
X47384100Y38138787D01*
X6209898Y38138787D01*
X6171361Y38332528D01*
X6171358Y38332537D01*
X6095762Y38515044D01*
X6095761Y38515045D01*
X6095759Y38515051D01*
X5986073Y38679208D01*
X5986063Y38679240D01*
X5986007Y38679309D01*
X5986007Y38679308D01*
X5986004Y38679312D01*
X5986002Y38679315D01*
X5985999Y38679318D01*
X5985997Y38679321D01*
X5846316Y38819002D01*
X5686421Y38925839D01*
X5686422Y38925839D01*
X5682054Y38928757D01*
X5682053Y38928758D01*
X5682051Y38928759D01*
X5682048Y38928761D01*
X5682043Y38928763D01*
X5680412Y38929439D01*
X5680408Y38929441D01*
X5499545Y39004356D01*
X5499522Y39004364D01*
X5499515Y39004366D01*
X5305784Y39042900D01*
X5305780Y39042900D01*
X5305777Y39042900D01*
X5108223Y39042900D01*
X5108220Y39042900D01*
X5108215Y39042900D01*
X4914483Y39004365D01*
X4914476Y39004364D01*
X4914453Y39004356D01*
X4731967Y38928769D01*
X4731952Y38928762D01*
X4731946Y38928758D01*
X4731941Y38928756D01*
X4567682Y38819002D01*
X4427998Y38679318D01*
X4318244Y38515059D01*
X4318242Y38515054D01*
X4318238Y38515048D01*
X4318231Y38515033D01*
X4242644Y38332547D01*
X4242636Y38332524D01*
X4242634Y38332517D01*
X4204100Y38138787D01*
X75500Y38138787D01*
X75500Y40678787D01*
X3950100Y40678787D01*
X3950100Y40481215D01*
X3988634Y40287485D01*
X3988636Y40287478D01*
X3988644Y40287455D01*
X4064231Y40104969D01*
X4064238Y40104954D01*
X4064242Y40104948D01*
X4064244Y40104943D01*
X4173998Y39940684D01*
X4313679Y39801003D01*
X4313683Y39801000D01*
X4313685Y39800998D01*
X4313688Y39800996D01*
X4313692Y39800993D01*
X4313691Y39800993D01*
X4313754Y39800941D01*
X4313791Y39800927D01*
X4477949Y39691241D01*
X4660465Y39615641D01*
X4660466Y39615641D01*
X4660467Y39615641D01*
X4660472Y39615639D01*
X4846594Y39578618D01*
X4849317Y39577896D01*
X4854220Y39577100D01*
X5051779Y39577100D01*
X5055902Y39577100D01*
X5063757Y39579483D01*
X5095685Y39585835D01*
X5116363Y39589947D01*
X5245527Y39615639D01*
X5245527Y39615640D01*
X5245531Y39615640D01*
X5245533Y39615641D01*
X5245535Y39615641D01*
X5428051Y39691241D01*
X5592312Y39800996D01*
X5732004Y39940688D01*
X5841759Y40104949D01*
X5917359Y40287465D01*
X5955900Y40481223D01*
X5955900Y40678777D01*
X5955900Y40678780D01*
X5955900Y40678961D01*
X5955474Y40680917D01*
X5917361Y40872528D01*
X5917358Y40872537D01*
X5902483Y40908450D01*
X5843439Y41050996D01*
X5843437Y41051000D01*
X5841762Y41055044D01*
X5841761Y41055045D01*
X5841759Y41055051D01*
X5820813Y41086399D01*
X5776422Y41152836D01*
X5776420Y41152838D01*
X5735820Y41213601D01*
X29791900Y41213601D01*
X29791900Y41086399D01*
X29808361Y41024965D01*
X29811122Y41014658D01*
X29811123Y41014654D01*
X29824819Y40963536D01*
X29824821Y40963533D01*
X29824822Y40963529D01*
X29856623Y40908450D01*
X29888424Y40853369D01*
X29978369Y40763424D01*
X30088530Y40699822D01*
X30211399Y40666900D01*
X30211401Y40666900D01*
X30338599Y40666900D01*
X30338601Y40666900D01*
X30382965Y40678787D01*
X47130100Y40678787D01*
X47130100Y40481215D01*
X47168634Y40287485D01*
X47168636Y40287478D01*
X47168644Y40287455D01*
X47244231Y40104969D01*
X47244238Y40104954D01*
X47244242Y40104948D01*
X47244244Y40104943D01*
X47353998Y39940684D01*
X47493679Y39801003D01*
X47493683Y39801000D01*
X47493685Y39800998D01*
X47493688Y39800996D01*
X47493692Y39800993D01*
X47493691Y39800993D01*
X47493754Y39800941D01*
X47493791Y39800927D01*
X47657949Y39691241D01*
X47840465Y39615641D01*
X47840466Y39615641D01*
X47840467Y39615641D01*
X47840472Y39615639D01*
X48026594Y39578618D01*
X48029317Y39577896D01*
X48034220Y39577100D01*
X48231779Y39577100D01*
X48235902Y39577100D01*
X48243757Y39579483D01*
X48275685Y39585835D01*
X48296363Y39589947D01*
X48425527Y39615639D01*
X48425527Y39615640D01*
X48425531Y39615640D01*
X48425533Y39615641D01*
X48425535Y39615641D01*
X48608051Y39691241D01*
X48772312Y39800996D01*
X48912004Y39940688D01*
X49021759Y40104949D01*
X49097359Y40287465D01*
X49135900Y40481223D01*
X49135900Y40678777D01*
X49135900Y40678780D01*
X49135900Y40678961D01*
X49135474Y40680917D01*
X49097361Y40872528D01*
X49097358Y40872537D01*
X49082483Y40908450D01*
X49023442Y41050989D01*
X49023439Y41050995D01*
X49023437Y41051000D01*
X49021762Y41055044D01*
X49021761Y41055045D01*
X49021759Y41055051D01*
X48912073Y41219208D01*
X48912063Y41219240D01*
X48912007Y41219309D01*
X48912007Y41219308D01*
X48912003Y41219314D01*
X48911997Y41219321D01*
X48772316Y41359002D01*
X48612421Y41465839D01*
X48612422Y41465839D01*
X48608054Y41468757D01*
X48608053Y41468758D01*
X48608051Y41468759D01*
X48608048Y41468761D01*
X48608043Y41468763D01*
X48606412Y41469439D01*
X48606408Y41469441D01*
X48425545Y41544356D01*
X48425522Y41544364D01*
X48425515Y41544366D01*
X48231784Y41582900D01*
X48231780Y41582900D01*
X48231777Y41582900D01*
X48034223Y41582900D01*
X48034220Y41582900D01*
X48034215Y41582900D01*
X47840483Y41544365D01*
X47840476Y41544364D01*
X47840453Y41544356D01*
X47657967Y41468769D01*
X47657952Y41468762D01*
X47657946Y41468758D01*
X47657941Y41468756D01*
X47493682Y41359002D01*
X47353998Y41219318D01*
X47244244Y41055059D01*
X47244242Y41055054D01*
X47244238Y41055048D01*
X47244231Y41055033D01*
X47168644Y40872547D01*
X47168636Y40872524D01*
X47168634Y40872517D01*
X47130100Y40678787D01*
X30382965Y40678787D01*
X30461470Y40699822D01*
X30571631Y40763424D01*
X30661576Y40853369D01*
X30725178Y40963530D01*
X30758100Y41086399D01*
X30758100Y41213601D01*
X30725178Y41336470D01*
X30661576Y41446631D01*
X30571631Y41536576D01*
X30516550Y41568377D01*
X30461471Y41600178D01*
X30400035Y41616639D01*
X30392186Y41618742D01*
X30392184Y41618743D01*
X30361638Y41626928D01*
X30338601Y41633100D01*
X30338600Y41633100D01*
X30211397Y41633100D01*
X30088526Y41600178D01*
X29978366Y41536575D01*
X29978365Y41536574D01*
X29978360Y41536570D01*
X29888430Y41446640D01*
X29888426Y41446635D01*
X29888425Y41446634D01*
X29824823Y41336475D01*
X29824822Y41336473D01*
X29824822Y41336472D01*
X29818664Y41313491D01*
X29793431Y41219318D01*
X29793431Y41219315D01*
X29791900Y41213601D01*
X5735820Y41213601D01*
X5732002Y41219315D01*
X5732000Y41219318D01*
X5592316Y41359002D01*
X5432421Y41465839D01*
X5432422Y41465839D01*
X5428054Y41468757D01*
X5428053Y41468758D01*
X5428051Y41468759D01*
X5428048Y41468761D01*
X5428043Y41468763D01*
X5426412Y41469439D01*
X5426408Y41469441D01*
X5245545Y41544356D01*
X5245522Y41544364D01*
X5245515Y41544366D01*
X5051784Y41582900D01*
X5051780Y41582900D01*
X5051777Y41582900D01*
X4854223Y41582900D01*
X4854220Y41582900D01*
X4854215Y41582900D01*
X4660483Y41544365D01*
X4660476Y41544364D01*
X4660453Y41544356D01*
X4477967Y41468769D01*
X4477952Y41468762D01*
X4477946Y41468758D01*
X4477941Y41468756D01*
X4313682Y41359002D01*
X4173998Y41219318D01*
X4064244Y41055059D01*
X4064242Y41055054D01*
X4064238Y41055048D01*
X4064231Y41055033D01*
X3988644Y40872547D01*
X3988636Y40872524D01*
X3988634Y40872517D01*
X3950100Y40678787D01*
X75500Y40678787D01*
X75500Y43218787D01*
X4204100Y43218787D01*
X4204100Y43021215D01*
X4242634Y42827485D01*
X4242636Y42827478D01*
X4242644Y42827455D01*
X4318231Y42644969D01*
X4318238Y42644954D01*
X4318242Y42644948D01*
X4318244Y42644943D01*
X4427998Y42480684D01*
X4567679Y42341003D01*
X4567683Y42341000D01*
X4567685Y42340998D01*
X4567688Y42340996D01*
X4567692Y42340993D01*
X4567691Y42340993D01*
X4567754Y42340941D01*
X4567791Y42340927D01*
X4731949Y42231241D01*
X4914465Y42155641D01*
X4914466Y42155641D01*
X4914467Y42155641D01*
X4914472Y42155639D01*
X5100594Y42118618D01*
X5103317Y42117896D01*
X5108220Y42117100D01*
X5305779Y42117100D01*
X5309902Y42117100D01*
X5317757Y42119483D01*
X5349685Y42125835D01*
X5370363Y42129947D01*
X5499527Y42155639D01*
X5499527Y42155640D01*
X5499531Y42155640D01*
X5499533Y42155641D01*
X5499535Y42155641D01*
X5682051Y42231241D01*
X5846312Y42340996D01*
X5986004Y42480688D01*
X6095759Y42644949D01*
X6171359Y42827465D01*
X6209900Y43021223D01*
X6209900Y43218777D01*
X6209900Y43218780D01*
X6209900Y43218961D01*
X6209474Y43220917D01*
X6171361Y43412528D01*
X6171358Y43412537D01*
X6108785Y43563603D01*
X34016900Y43563603D01*
X34016900Y43436399D01*
X34049822Y43313528D01*
X34065213Y43286872D01*
X34065214Y43286869D01*
X34091824Y43240781D01*
X34113424Y43203369D01*
X34203369Y43113424D01*
X34313530Y43049822D01*
X34436399Y43016900D01*
X34436401Y43016900D01*
X34563599Y43016900D01*
X34563601Y43016900D01*
X34686470Y43049822D01*
X34796631Y43113424D01*
X34886576Y43203369D01*
X34950178Y43313530D01*
X34983100Y43436399D01*
X34983100Y43563601D01*
X34983099Y43563603D01*
X39816900Y43563603D01*
X39816900Y43436399D01*
X39849822Y43313528D01*
X39865213Y43286872D01*
X39865214Y43286869D01*
X39891824Y43240781D01*
X39913424Y43203369D01*
X40003369Y43113424D01*
X40113530Y43049822D01*
X40236399Y43016900D01*
X40236401Y43016900D01*
X40363599Y43016900D01*
X40363601Y43016900D01*
X40486470Y43049822D01*
X40596631Y43113424D01*
X40686576Y43203369D01*
X40695477Y43218787D01*
X47384100Y43218787D01*
X47384100Y43021215D01*
X47422634Y42827485D01*
X47422636Y42827478D01*
X47422644Y42827455D01*
X47498231Y42644969D01*
X47498238Y42644954D01*
X47498242Y42644948D01*
X47498244Y42644943D01*
X47607998Y42480684D01*
X47747679Y42341003D01*
X47747683Y42341000D01*
X47747685Y42340998D01*
X47747688Y42340996D01*
X47747692Y42340993D01*
X47747691Y42340993D01*
X47747754Y42340941D01*
X47747791Y42340927D01*
X47911949Y42231241D01*
X48094465Y42155641D01*
X48094466Y42155641D01*
X48094467Y42155641D01*
X48094472Y42155639D01*
X48280594Y42118618D01*
X48283317Y42117896D01*
X48288220Y42117100D01*
X48485779Y42117100D01*
X48489902Y42117100D01*
X48497757Y42119483D01*
X48529685Y42125835D01*
X48550363Y42129947D01*
X48679527Y42155639D01*
X48679527Y42155640D01*
X48679531Y42155640D01*
X48679533Y42155641D01*
X48679535Y42155641D01*
X48862051Y42231241D01*
X49026312Y42340996D01*
X49166004Y42480688D01*
X49275759Y42644949D01*
X49351359Y42827465D01*
X49389900Y43021223D01*
X49389900Y43218777D01*
X49389900Y43218780D01*
X49389900Y43218961D01*
X49389474Y43220917D01*
X49351361Y43412528D01*
X49351358Y43412537D01*
X49275762Y43595044D01*
X49275761Y43595045D01*
X49275759Y43595051D01*
X49166073Y43759208D01*
X49166063Y43759240D01*
X49166007Y43759309D01*
X49166007Y43759308D01*
X49166004Y43759312D01*
X49166002Y43759315D01*
X49165999Y43759318D01*
X49165997Y43759321D01*
X49026316Y43899002D01*
X48866421Y44005839D01*
X48866422Y44005839D01*
X48862054Y44008757D01*
X48862053Y44008758D01*
X48862051Y44008759D01*
X48862048Y44008761D01*
X48862043Y44008763D01*
X48860412Y44009439D01*
X48860408Y44009441D01*
X48679545Y44084356D01*
X48679522Y44084364D01*
X48679515Y44084366D01*
X48485784Y44122900D01*
X48485780Y44122900D01*
X48485777Y44122900D01*
X48288223Y44122900D01*
X48288220Y44122900D01*
X48288215Y44122900D01*
X48094483Y44084365D01*
X48094476Y44084364D01*
X48094453Y44084356D01*
X47911967Y44008769D01*
X47911952Y44008762D01*
X47911946Y44008758D01*
X47911941Y44008756D01*
X47747682Y43899002D01*
X47607998Y43759318D01*
X47498244Y43595059D01*
X47498242Y43595054D01*
X47498238Y43595048D01*
X47498231Y43595033D01*
X47422644Y43412547D01*
X47422636Y43412524D01*
X47422634Y43412517D01*
X47384100Y43218787D01*
X40695477Y43218787D01*
X40696737Y43220969D01*
X40708173Y43240776D01*
X40708175Y43240780D01*
X40708175Y43240781D01*
X40734789Y43286874D01*
X40734791Y43286877D01*
X40742015Y43299390D01*
X40742016Y43299392D01*
X40750177Y43313529D01*
X40750178Y43313530D01*
X40783100Y43436399D01*
X40783100Y43563601D01*
X40750178Y43686470D01*
X40686576Y43796631D01*
X40596631Y43886576D01*
X40541550Y43918377D01*
X40486471Y43950178D01*
X40391715Y43975567D01*
X40391715Y43975568D01*
X40363602Y43983100D01*
X40363601Y43983100D01*
X40236399Y43983100D01*
X40236397Y43983100D01*
X40113526Y43950178D01*
X40003366Y43886575D01*
X40003365Y43886574D01*
X40003360Y43886570D01*
X39913430Y43796640D01*
X39913426Y43796635D01*
X39913425Y43796634D01*
X39849822Y43686474D01*
X39816900Y43563603D01*
X34983099Y43563603D01*
X34950178Y43686470D01*
X34886576Y43796631D01*
X34796631Y43886576D01*
X34741550Y43918377D01*
X34686471Y43950178D01*
X34591715Y43975567D01*
X34591715Y43975568D01*
X34563602Y43983100D01*
X34563601Y43983100D01*
X34436399Y43983100D01*
X34436397Y43983100D01*
X34313526Y43950178D01*
X34203366Y43886575D01*
X34203365Y43886574D01*
X34203360Y43886570D01*
X34113430Y43796640D01*
X34113426Y43796635D01*
X34113425Y43796634D01*
X34049822Y43686474D01*
X34016900Y43563603D01*
X6108785Y43563603D01*
X6095762Y43595044D01*
X6095761Y43595045D01*
X6095759Y43595051D01*
X5986073Y43759208D01*
X5986063Y43759240D01*
X5986007Y43759309D01*
X5986007Y43759308D01*
X5986004Y43759312D01*
X5986002Y43759315D01*
X5985999Y43759318D01*
X5985997Y43759321D01*
X5846316Y43899002D01*
X5686421Y44005839D01*
X5686422Y44005839D01*
X5682054Y44008757D01*
X5682053Y44008758D01*
X5682051Y44008759D01*
X5682048Y44008761D01*
X5682043Y44008763D01*
X5680412Y44009439D01*
X5680408Y44009441D01*
X5499545Y44084356D01*
X5499522Y44084364D01*
X5499515Y44084366D01*
X5305784Y44122900D01*
X5305780Y44122900D01*
X5305777Y44122900D01*
X5108223Y44122900D01*
X5108220Y44122900D01*
X5108215Y44122900D01*
X4914483Y44084365D01*
X4914476Y44084364D01*
X4914453Y44084356D01*
X4731967Y44008769D01*
X4731952Y44008762D01*
X4731946Y44008758D01*
X4731941Y44008756D01*
X4567682Y43899002D01*
X4427998Y43759318D01*
X4318244Y43595059D01*
X4318242Y43595054D01*
X4318238Y43595048D01*
X4318231Y43595033D01*
X4242644Y43412547D01*
X4242636Y43412524D01*
X4242634Y43412517D01*
X4204100Y43218787D01*
X75500Y43218787D01*
X75500Y45758787D01*
X3950100Y45758787D01*
X3950100Y45561215D01*
X3988634Y45367485D01*
X3988636Y45367478D01*
X3988644Y45367455D01*
X4064231Y45184969D01*
X4064238Y45184954D01*
X4064242Y45184948D01*
X4064244Y45184943D01*
X4173998Y45020684D01*
X4313679Y44881003D01*
X4313683Y44881000D01*
X4313685Y44880998D01*
X4313688Y44880996D01*
X4313692Y44880993D01*
X4313691Y44880993D01*
X4313754Y44880941D01*
X4313791Y44880927D01*
X4477949Y44771241D01*
X4660465Y44695641D01*
X4660466Y44695641D01*
X4660467Y44695641D01*
X4660472Y44695639D01*
X4846594Y44658618D01*
X4849317Y44657896D01*
X4854220Y44657100D01*
X5051779Y44657100D01*
X5055902Y44657100D01*
X5063757Y44659483D01*
X5104282Y44667544D01*
X5116363Y44669947D01*
X5245527Y44695639D01*
X5245527Y44695640D01*
X5245531Y44695640D01*
X5245533Y44695641D01*
X5245535Y44695641D01*
X5428051Y44771241D01*
X5592312Y44880996D01*
X5732004Y45020688D01*
X5841759Y45184949D01*
X5917359Y45367465D01*
X5932194Y45442042D01*
X5955899Y45561219D01*
X5955900Y45561221D01*
X5955900Y45758961D01*
X5955474Y45760917D01*
X5917361Y45952528D01*
X5917358Y45952537D01*
X5917354Y45952547D01*
X5843442Y46130989D01*
X5843439Y46130995D01*
X5841762Y46135044D01*
X5841761Y46135045D01*
X5841759Y46135051D01*
X5732073Y46299208D01*
X5732063Y46299240D01*
X5732007Y46299309D01*
X5732007Y46299308D01*
X5732004Y46299312D01*
X5732002Y46299315D01*
X5731999Y46299318D01*
X5731997Y46299321D01*
X5592316Y46439002D01*
X5432421Y46545839D01*
X5432422Y46545839D01*
X5428054Y46548757D01*
X5428053Y46548758D01*
X5428051Y46548759D01*
X5428048Y46548761D01*
X5428043Y46548763D01*
X5426412Y46549439D01*
X5426408Y46549441D01*
X5245545Y46624356D01*
X5245522Y46624364D01*
X5245515Y46624366D01*
X5051784Y46662900D01*
X5051780Y46662900D01*
X5051777Y46662900D01*
X4854223Y46662900D01*
X4854220Y46662900D01*
X4854215Y46662900D01*
X4660483Y46624365D01*
X4660476Y46624364D01*
X4660453Y46624356D01*
X4477967Y46548769D01*
X4477952Y46548762D01*
X4477946Y46548758D01*
X4477941Y46548756D01*
X4313682Y46439002D01*
X4173998Y46299318D01*
X4064244Y46135059D01*
X4064242Y46135054D01*
X4064238Y46135048D01*
X4064231Y46135033D01*
X3988644Y45952547D01*
X3988636Y45952524D01*
X3988634Y45952517D01*
X3950100Y45758787D01*
X75500Y45758787D01*
X75500Y49065059D01*
X4204100Y49065059D01*
X4204100Y47334948D01*
X4212971Y47290344D01*
X4212972Y47290342D01*
X4212973Y47290339D01*
X4244858Y47242621D01*
X4246766Y47239766D01*
X4297342Y47205972D01*
X4297343Y47205972D01*
X4297345Y47205971D01*
X4297355Y47205969D01*
X4303175Y47204203D01*
X4303177Y47204202D01*
X4303183Y47204200D01*
X4303213Y47204191D01*
X4309314Y47203590D01*
X4314983Y47202463D01*
X4319642Y47201536D01*
X4341943Y47197100D01*
X6072056Y47197101D01*
X6116658Y47205972D01*
X6167234Y47239766D01*
X6201028Y47290342D01*
X6209900Y47334943D01*
X6209899Y49065056D01*
X6203374Y49097862D01*
X6201028Y49109660D01*
X6194246Y49119809D01*
X6194245Y49119810D01*
X6169146Y49157372D01*
X6167234Y49160234D01*
X6167233Y49160235D01*
X6129261Y49185607D01*
X6129255Y49185611D01*
X6116659Y49194027D01*
X6116658Y49194028D01*
X6116657Y49194029D01*
X6116656Y49194029D01*
X6116654Y49194030D01*
X6114570Y49194445D01*
X6112596Y49195632D01*
X6104684Y49196411D01*
X6072059Y49202900D01*
X6072058Y49202900D01*
X4341946Y49202900D01*
X4341945Y49202900D01*
X4329205Y49200366D01*
X4297339Y49194028D01*
X4297337Y49194027D01*
X4246765Y49160235D01*
X4212970Y49109657D01*
X4204100Y49065059D01*
X75500Y49065059D01*
X75500Y51029843D01*
X80523Y51064779D01*
X84927Y51079777D01*
X122650Y51138510D01*
X123581Y51139317D01*
X179537Y51167039D01*
X188093Y51168821D01*
X215567Y51171408D01*
X9872595Y51000486D01*
X9890677Y50998835D01*
X9905393Y50996394D01*
X9908448Y50995887D01*
X9926098Y50991612D01*
X23900000Y46500000D01*
X27854241Y46525028D01*
X27889197Y46520227D01*
X27902538Y46516401D01*
X27961553Y46479000D01*
X27990975Y46415660D01*
X27991186Y46414258D01*
X27985877Y46355624D01*
X27984135Y46350538D01*
X27974213Y46328720D01*
X27949824Y46286478D01*
X27949794Y46286403D01*
X27949550Y46285458D01*
X27916900Y46163603D01*
X27916900Y46163601D01*
X27916900Y46036399D01*
X27939371Y45952535D01*
X27949822Y45913529D01*
X27949824Y45913525D01*
X27967564Y45882798D01*
X27978552Y45855353D01*
X27980681Y45850035D01*
X27983953Y45836549D01*
X27980630Y45766758D01*
X27940103Y45709843D01*
X27940096Y45709837D01*
X27933413Y45704582D01*
X27888861Y45682282D01*
X27876692Y45679022D01*
X27854168Y45672987D01*
X27827751Y45665908D01*
X27827747Y45665907D01*
X27804130Y45659578D01*
X27804128Y45659578D01*
X27804128Y45659577D01*
X27782956Y45647354D01*
X27782948Y45647350D01*
X27693973Y45595980D01*
X27693969Y45595978D01*
X27693960Y45595970D01*
X27604030Y45506040D01*
X27604026Y45506035D01*
X27604025Y45506034D01*
X27540422Y45395874D01*
X27507500Y45273003D01*
X27507500Y45145799D01*
X27540422Y45022928D01*
X27540422Y45022927D01*
X27567292Y44976390D01*
X27572223Y44967850D01*
X27604024Y44912769D01*
X27604026Y44912767D01*
X27683780Y44833013D01*
X27687814Y44828048D01*
X27688231Y44827053D01*
X27691729Y44822966D01*
X27707956Y44800736D01*
X27731583Y44734982D01*
X27716272Y44667544D01*
X27709747Y44655764D01*
X27688958Y44628166D01*
X27629622Y44568830D01*
X27566024Y44458678D01*
X27566022Y44458674D01*
X27533100Y44335803D01*
X27533100Y44208599D01*
X27566022Y44085728D01*
X27566022Y44085727D01*
X27597823Y44030649D01*
X27597824Y44030649D01*
X27629624Y43975569D01*
X27719569Y43885624D01*
X27829730Y43822022D01*
X27952599Y43789100D01*
X27952601Y43789100D01*
X28079799Y43789100D01*
X28079801Y43789100D01*
X28202670Y43822022D01*
X28312831Y43885624D01*
X28402776Y43975569D01*
X28466378Y44085730D01*
X28499300Y44208599D01*
X28499300Y44234201D01*
X31597100Y44234201D01*
X31597100Y44106999D01*
X31603166Y44084359D01*
X31606510Y44071876D01*
X31606511Y44071875D01*
X31630022Y43984128D01*
X31649624Y43950178D01*
X31649623Y43950178D01*
X31693619Y43873976D01*
X31693622Y43873972D01*
X31693624Y43873969D01*
X31783569Y43784024D01*
X31893730Y43720422D01*
X32016599Y43687500D01*
X32016601Y43687500D01*
X32143799Y43687500D01*
X32143801Y43687500D01*
X32266670Y43720422D01*
X32376831Y43784024D01*
X32466776Y43873969D01*
X32530378Y43984130D01*
X32563300Y44106999D01*
X32563300Y44234201D01*
X32530378Y44357070D01*
X32466776Y44467231D01*
X32417896Y44516111D01*
X32396750Y44544358D01*
X32390095Y44556546D01*
X32375244Y44624816D01*
X32399658Y44690277D01*
X32404763Y44697097D01*
X32442023Y44730164D01*
X32466031Y44744024D01*
X32555976Y44833969D01*
X32619578Y44944130D01*
X32652500Y45066999D01*
X32652500Y45194201D01*
X32619578Y45317070D01*
X32555976Y45427231D01*
X32466031Y45517176D01*
X32466029Y45517177D01*
X32466027Y45517179D01*
X32398069Y45556414D01*
X32398070Y45556414D01*
X32389747Y45561219D01*
X32355871Y45580778D01*
X32294435Y45597239D01*
X32288021Y45598958D01*
X32288015Y45598960D01*
X32246985Y45609954D01*
X32233001Y45613700D01*
X32233000Y45613700D01*
X32105797Y45613700D01*
X31982926Y45580778D01*
X31872766Y45517175D01*
X31872765Y45517174D01*
X31872760Y45517170D01*
X31782830Y45427240D01*
X31782826Y45427235D01*
X31782825Y45427234D01*
X31719222Y45317074D01*
X31686300Y45194203D01*
X31686300Y45066999D01*
X31719222Y44944128D01*
X31719222Y44944127D01*
X31737328Y44912769D01*
X31751023Y44889050D01*
X31782824Y44833969D01*
X31782826Y44833967D01*
X31837253Y44779540D01*
X31842061Y44773331D01*
X31843768Y44768973D01*
X31852850Y44756841D01*
X31859502Y44744659D01*
X31867262Y44708984D01*
X31867541Y44708273D01*
X31867481Y44707978D01*
X31874354Y44676386D01*
X31849938Y44610921D01*
X31849935Y44610917D01*
X31844839Y44604110D01*
X31807577Y44571039D01*
X31783583Y44557186D01*
X31783563Y44557173D01*
X31693630Y44467240D01*
X31693626Y44467235D01*
X31693625Y44467234D01*
X31630022Y44357074D01*
X31624322Y44335799D01*
X31597100Y44234201D01*
X28499300Y44234201D01*
X28499300Y44335801D01*
X28466378Y44458670D01*
X28466373Y44458678D01*
X28425937Y44528715D01*
X28402776Y44568831D01*
X28327526Y44644081D01*
X28315045Y44658663D01*
X28298833Y44680877D01*
X28275213Y44746633D01*
X28290523Y44814058D01*
X28297051Y44825842D01*
X28317832Y44853427D01*
X28377176Y44912769D01*
X28440778Y45022930D01*
X28473700Y45145799D01*
X28473700Y45273001D01*
X28440778Y45395870D01*
X28440777Y45395872D01*
X28440777Y45395873D01*
X28425208Y45422837D01*
X28421714Y45428888D01*
X28420509Y45431196D01*
X28419834Y45434599D01*
X28409918Y45459360D01*
X28406644Y45472856D01*
X28407729Y45495650D01*
X28406920Y45499732D01*
X28408061Y45502629D01*
X28409967Y45542643D01*
X28450488Y45599553D01*
X28457179Y45604815D01*
X28501735Y45627119D01*
X28586470Y45649822D01*
X28696631Y45713424D01*
X28786576Y45803369D01*
X28850178Y45913530D01*
X28883100Y46036399D01*
X28883100Y46163601D01*
X28850178Y46286470D01*
X28824841Y46330353D01*
X28811727Y46363110D01*
X28808454Y46376599D01*
X28811775Y46446389D01*
X28852293Y46503298D01*
X28853745Y46504440D01*
X28906545Y46528656D01*
X28911111Y46529552D01*
X28934162Y46531863D01*
X31774607Y46549841D01*
X31809562Y46545038D01*
X31824588Y46540729D01*
X31883596Y46503332D01*
X31886520Y46500000D01*
X31887486Y46498900D01*
X31913365Y46451705D01*
X31913510Y46451206D01*
X31915802Y46440324D01*
X31916107Y46440384D01*
X31916898Y46436406D01*
X31949822Y46313529D01*
X31965443Y46286474D01*
X31965444Y46286472D01*
X32013421Y46203373D01*
X32013423Y46203371D01*
X32013424Y46203369D01*
X32103369Y46113424D01*
X32213530Y46049822D01*
X32336399Y46016900D01*
X32336401Y46016900D01*
X32463599Y46016900D01*
X32463601Y46016900D01*
X32586470Y46049822D01*
X32696631Y46113424D01*
X32786576Y46203369D01*
X32850178Y46313530D01*
X32874289Y46403516D01*
X32875067Y46406288D01*
X32886196Y46444192D01*
X32886198Y46444191D01*
X32892527Y46465747D01*
X32899532Y46476645D01*
X32930295Y46524515D01*
X32931825Y46525841D01*
X32986276Y46553211D01*
X32993483Y46554803D01*
X33019433Y46557719D01*
X39700000Y46600000D01*
X42729376Y48872033D01*
X43030471Y49097854D01*
X47037000Y49097854D01*
X47037000Y49097845D01*
X47037000Y48450000D01*
X47774750Y48450000D01*
X47841789Y48430315D01*
X47887544Y48377511D01*
X47897488Y48308353D01*
X47894524Y48293905D01*
X47887000Y48265829D01*
X47887000Y48134172D01*
X47894524Y48106095D01*
X47892863Y48036245D01*
X47853701Y47978382D01*
X47789473Y47950877D01*
X47774750Y47950000D01*
X47037000Y47950000D01*
X47037000Y47302148D01*
X47043400Y47242630D01*
X47043402Y47242623D01*
X47093646Y47107912D01*
X47093648Y47107909D01*
X47179807Y46992815D01*
X47179809Y46992813D01*
X47179812Y46992810D01*
X47294906Y46906650D01*
X47294913Y46906646D01*
X47429620Y46856404D01*
X47429627Y46856402D01*
X47436468Y46855667D01*
X47489138Y46850002D01*
X47489155Y46850001D01*
X47489172Y46850000D01*
X47743991Y46850000D01*
X47746053Y46849395D01*
X47748137Y46849931D01*
X47778918Y46844979D01*
X47787550Y46842445D01*
X47802554Y46832804D01*
X47811030Y46830315D01*
X47822690Y46819866D01*
X47846331Y46804675D01*
X47875360Y46741121D01*
X47865421Y46671962D01*
X47825147Y46622886D01*
X47820992Y46619890D01*
X47813698Y46615823D01*
X47811982Y46613971D01*
X47808999Y46613203D01*
X47795920Y46605909D01*
X47657958Y46548765D01*
X47657954Y46548763D01*
X47657946Y46548758D01*
X47657941Y46548756D01*
X47493682Y46439002D01*
X47353998Y46299318D01*
X47244244Y46135059D01*
X47244242Y46135054D01*
X47244238Y46135048D01*
X47244231Y46135033D01*
X47168644Y45952547D01*
X47168636Y45952524D01*
X47168634Y45952517D01*
X47130100Y45758787D01*
X47130100Y45561215D01*
X47168634Y45367485D01*
X47168636Y45367478D01*
X47168644Y45367455D01*
X47244231Y45184969D01*
X47244238Y45184954D01*
X47244242Y45184948D01*
X47244244Y45184943D01*
X47353998Y45020684D01*
X47493679Y44881003D01*
X47493683Y44881000D01*
X47493685Y44880998D01*
X47493688Y44880996D01*
X47493692Y44880993D01*
X47493691Y44880993D01*
X47493754Y44880941D01*
X47493791Y44880927D01*
X47657949Y44771241D01*
X47840465Y44695641D01*
X47840466Y44695641D01*
X47840467Y44695641D01*
X47840472Y44695639D01*
X48026594Y44658618D01*
X48029317Y44657896D01*
X48034220Y44657100D01*
X48231779Y44657100D01*
X48235902Y44657100D01*
X48243757Y44659483D01*
X48284282Y44667544D01*
X48296363Y44669947D01*
X48425527Y44695639D01*
X48425527Y44695640D01*
X48425531Y44695640D01*
X48425533Y44695641D01*
X48425535Y44695641D01*
X48608051Y44771241D01*
X48772312Y44880996D01*
X48912004Y45020688D01*
X49021759Y45184949D01*
X49097359Y45367465D01*
X49112194Y45442042D01*
X49135899Y45561219D01*
X49135900Y45561221D01*
X49135900Y45758961D01*
X49135474Y45760917D01*
X49097361Y45952528D01*
X49097358Y45952537D01*
X49097354Y45952547D01*
X49023442Y46130989D01*
X49023439Y46130995D01*
X49021762Y46135044D01*
X49021761Y46135045D01*
X49021759Y46135051D01*
X48912073Y46299208D01*
X48912063Y46299240D01*
X48912007Y46299309D01*
X48912007Y46299308D01*
X48912004Y46299312D01*
X48912002Y46299315D01*
X48911999Y46299318D01*
X48911997Y46299321D01*
X48772316Y46439002D01*
X48612421Y46545839D01*
X48612422Y46545839D01*
X48608054Y46548757D01*
X48608053Y46548758D01*
X48608051Y46548759D01*
X48608048Y46548761D01*
X48608043Y46548763D01*
X48606412Y46549439D01*
X48606408Y46549441D01*
X48425545Y46624356D01*
X48425524Y46624363D01*
X48364854Y46636431D01*
X48249606Y46659355D01*
X48227356Y46665998D01*
X48207524Y46674010D01*
X48152739Y46717373D01*
X48130095Y46783471D01*
X48134033Y46820455D01*
X48137000Y46831762D01*
X48137000Y47587750D01*
X48156685Y47654789D01*
X48209489Y47700544D01*
X48278647Y47710488D01*
X48293093Y47707525D01*
X48321174Y47700000D01*
X48452825Y47700000D01*
X48452826Y47700000D01*
X48480905Y47707524D01*
X48550755Y47705863D01*
X48608618Y47666701D01*
X48636123Y47602473D01*
X48637000Y47587750D01*
X48637000Y46850000D01*
X49284828Y46850000D01*
X49284836Y46850000D01*
X49284847Y46850001D01*
X49320560Y46853842D01*
X49344372Y46856402D01*
X49344379Y46856404D01*
X49479086Y46906646D01*
X49479093Y46906650D01*
X49594187Y46992810D01*
X49594190Y46992813D01*
X49680350Y47107907D01*
X49680354Y47107914D01*
X49730596Y47242621D01*
X49730598Y47242628D01*
X49732069Y47256311D01*
X49736998Y47302140D01*
X49737000Y47302173D01*
X49737000Y47950000D01*
X48999250Y47950000D01*
X48932211Y47969685D01*
X48886456Y48022489D01*
X48876512Y48091647D01*
X48879476Y48106095D01*
X48886999Y48134172D01*
X48887000Y48134175D01*
X48887000Y48265825D01*
X48886999Y48265829D01*
X48879476Y48293905D01*
X48881137Y48363755D01*
X48920299Y48421618D01*
X48984527Y48449123D01*
X48999250Y48450000D01*
X49737000Y48450000D01*
X49737000Y49097828D01*
X49736998Y49097862D01*
X49730598Y49157372D01*
X49730596Y49157379D01*
X49730596Y49157380D01*
X49680354Y49292087D01*
X49680350Y49292094D01*
X49594190Y49407188D01*
X49594187Y49407191D01*
X49594185Y49407193D01*
X49536317Y49450513D01*
X49479093Y49493351D01*
X49479088Y49493354D01*
X49479089Y49493354D01*
X49344377Y49543598D01*
X49344370Y49543600D01*
X49284852Y49550000D01*
X49284844Y49550000D01*
X48637000Y49550000D01*
X48637000Y48812251D01*
X48617315Y48745212D01*
X48564511Y48699457D01*
X48495353Y48689513D01*
X48480908Y48692476D01*
X48452828Y48700000D01*
X48452826Y48700000D01*
X48321174Y48700000D01*
X48321171Y48700000D01*
X48293092Y48692476D01*
X48223242Y48694139D01*
X48165380Y48733302D01*
X48137877Y48797531D01*
X48137000Y48812251D01*
X48137000Y49550000D01*
X47489155Y49550000D01*
X47489146Y49550000D01*
X47429628Y49543600D01*
X47429621Y49543598D01*
X47294910Y49493354D01*
X47294907Y49493352D01*
X47179813Y49407193D01*
X47179807Y49407187D01*
X47093648Y49292093D01*
X47093646Y49292090D01*
X47043402Y49157379D01*
X47043400Y49157372D01*
X47037000Y49097854D01*
X43030471Y49097854D01*
X43167154Y49200366D01*
X45752418Y51139315D01*
X46053203Y51364904D01*
X46084160Y51381845D01*
X46113141Y51392683D01*
X46155381Y51400533D01*
X53121487Y51467516D01*
X53156463Y51462830D01*
G37*
%TD.AperFunction*%
%TD*%
M02*
