M48
; DRILL file KiCad 10.0.2 date 2026-06-15T11:04:02
; FORMAT={-:-/ absolute / inch / decimal}
; #@! TF.CreationDate,2026-06-15T11:04:02-04:00
; #@! TF.GenerationSoftware,Kicad,Pcbnew,10.0.2
; #@! TF.FileFunction,Plated,1,4,PTH
FMAT,2
INCH
; #@! TA.AperFunction,Plated,PTH,ViaDrill
T1C0.0118
; #@! TA.AperFunction,Plated,PTH,ComponentDrill
T2C0.0394
%
G90
G05
T1
X4.4268Y-3.9519
X4.4504Y-4.0975
X4.5525Y-3.8925
X4.645Y-3.83
X4.6476Y-3.7974
X4.685Y-3.965
X4.6866Y-3.7944
X4.7063Y-4.003
X4.7654Y-3.0424
X4.8835Y-3.0503
X4.8835Y-3.1408
X4.89Y-3.78
X4.905Y-3.94
X4.91Y-3.895
X4.915Y-3.0463
X4.915Y-3.5306
X4.9189Y-3.1369
X4.919Y-3.388
X4.9622Y-4.1408
X4.9819Y-3.3967
X4.983Y-3.5334
X4.99Y-3.8818
X4.9937Y-3.7432
X5.005Y-3.8322
X5.0134Y-4.0463
X5.0173Y-2.9952
X5.0331Y-3.112
X5.0488Y-4.1448
X5.051Y-3.857
X5.055Y-3.4
X5.073Y-3.468
X5.075Y-3.945
X5.0803Y-3.3692
X5.085Y-3.8698
X5.11Y-3.845
X5.1197Y-4.1448
X5.132Y-3.468
X5.1394Y-3.3495
X5.1433Y-2.9952
X5.1433Y-3.1054
X5.1577Y-4.045
X5.158Y-3.7246
X5.18Y-3.885
X5.1906Y-3.8298
X5.1945Y-3.4204
X5.1984Y-3.3286
X5.205Y-4.065
X5.2181Y-3.881
X5.22Y-3.445
X5.2417Y-4.0621
X5.2575Y-3.3246
X5.2811Y-3.5227
X5.2929Y-2.9912
X5.295Y-3.49
X5.3126Y-3.3062
X5.3165Y-3.1015
X5.3874Y-3.4833
X5.4346Y-3.4952
X5.4386Y-3.3456
X5.4543Y-3.4322
X5.5685Y-3.5739
X5.6591Y-3.0975
X5.7457Y-3.566
X5.7496Y-3.444
X5.7693Y-3.3456
T2
X4.195Y-3.0
X4.195Y-3.2
X4.195Y-3.4
X4.195Y-3.6
X4.195Y-3.8
X4.195Y-4.0
X4.195Y-4.2
X4.195Y-4.4
X4.195Y-4.6
X4.205Y-3.1
X4.205Y-3.3
X4.205Y-3.5
X4.205Y-3.7
X4.205Y-3.9
X4.205Y-4.1
X4.205Y-4.3
X4.205Y-4.5
X5.895Y-3.0
X5.895Y-3.2
X5.895Y-3.4
X5.895Y-3.6
X5.895Y-3.8
X5.895Y-4.0
X5.895Y-4.2
X5.895Y-4.4
X5.895Y-4.6
X5.905Y-3.1
X5.905Y-3.3
X5.905Y-3.5
X5.905Y-3.7
X5.905Y-3.9
X5.905Y-4.1
X5.905Y-4.3
X5.905Y-4.5
M30
