%TF.GenerationSoftware,KiCad,Pcbnew,10.0.2*%
%TF.CreationDate,2026-06-15T11:04:02-04:00*%
%TF.ProjectId,IMUBreakout-v2,494d5542-7265-4616-9b6f-75742d76322e,rev?*%
%TF.SameCoordinates,Original*%
%TF.FileFunction,Paste,Top*%
%TF.FilePolarity,Positive*%
%FSLAX46Y46*%
G04 Gerber Fmt 4.6, Leading zero omitted, Abs format (unit mm)*
G04 Created by KiCad (PCBNEW 10.0.2) date 2026-06-15 11:04:02*
%MOMM*%
%LPD*%
G01*
G04 APERTURE LIST*
G04 Aperture macros list*
%AMRoundRect*
0 Rectangle with rounded corners*
0 $1 Rounding radius*
0 $2 $3 $4 $5 $6 $7 $8 $9 X,Y pos of 4 corners*
0 Add a 4 corners polygon primitive as box body*
4,1,4,$2,$3,$4,$5,$6,$7,$8,$9,$2,$3,0*
0 Add four circle primitives for the rounded corners*
1,1,$1+$1,$2,$3*
1,1,$1+$1,$4,$5*
1,1,$1+$1,$6,$7*
1,1,$1+$1,$8,$9*
0 Add four rect primitives between the rounded corners*
20,1,$1+$1,$2,$3,$4,$5,0*
20,1,$1+$1,$4,$5,$6,$7,0*
20,1,$1+$1,$6,$7,$8,$9,0*
20,1,$1+$1,$8,$9,$2,$3,0*%
G04 Aperture macros list end*
%ADD10RoundRect,0.225000X0.225000X0.250000X-0.225000X0.250000X-0.225000X-0.250000X0.225000X-0.250000X0*%
%ADD11C,0.228600*%
%ADD12RoundRect,0.225000X-0.250000X0.225000X-0.250000X-0.225000X0.250000X-0.225000X0.250000X0.225000X0*%
%ADD13RoundRect,0.225000X0.250000X-0.225000X0.250000X0.225000X-0.250000X0.225000X-0.250000X-0.225000X0*%
%ADD14RoundRect,0.087500X0.087500X-0.125000X0.087500X0.125000X-0.087500X0.125000X-0.087500X-0.125000X0*%
%ADD15RoundRect,0.087500X0.125000X-0.087500X0.125000X0.087500X-0.125000X0.087500X-0.125000X-0.087500X0*%
%ADD16RoundRect,0.225000X-0.225000X-0.250000X0.225000X-0.250000X0.225000X0.250000X-0.225000X0.250000X0*%
%ADD17RoundRect,0.087500X-0.225000X-0.087500X0.225000X-0.087500X0.225000X0.087500X-0.225000X0.087500X0*%
%ADD18RoundRect,0.087500X-0.087500X-0.225000X0.087500X-0.225000X0.087500X0.225000X-0.087500X0.225000X0*%
%ADD19C,0.350000*%
G04 APERTURE END LIST*
D10*
%TO.C,C10*%
X129840000Y-76077000D03*
X128290000Y-76077000D03*
%TD*%
D11*
%TO.C,U3*%
X129479600Y-96993000D03*
X129079600Y-96993000D03*
X128679600Y-96993000D03*
X128279600Y-96993000D03*
X129479600Y-96593000D03*
X128279600Y-96593000D03*
X129479600Y-96193000D03*
X128279600Y-96193000D03*
X129479600Y-95793000D03*
X129079600Y-95793000D03*
X128279600Y-95793000D03*
%TD*%
D12*
%TO.C,C9*%
X128219200Y-102767800D03*
X128219200Y-104317800D03*
%TD*%
D13*
%TO.C,C2*%
X124917200Y-88811400D03*
X124917200Y-87261400D03*
%TD*%
D14*
%TO.C,U5*%
X128629600Y-88849700D03*
X129129600Y-88849700D03*
D15*
X129642100Y-88587200D03*
X129642100Y-88087200D03*
X129642100Y-87587200D03*
D14*
X129129600Y-87324700D03*
X128629600Y-87324700D03*
D15*
X128117100Y-87587200D03*
X128117100Y-88087200D03*
X128117100Y-88587200D03*
%TD*%
D13*
%TO.C,C8*%
X131013200Y-97066400D03*
X131013200Y-95516400D03*
%TD*%
D16*
%TO.C,C3*%
X131890000Y-76077000D03*
X133440000Y-76077000D03*
%TD*%
D10*
%TO.C,C6*%
X126784400Y-95986600D03*
X125234400Y-95986600D03*
%TD*%
D17*
%TO.C,U4*%
X127717100Y-99453000D03*
X127717100Y-99953000D03*
X127717100Y-100453000D03*
X127717100Y-100953000D03*
D18*
X128379600Y-101115500D03*
X128879600Y-101115500D03*
X129379600Y-101115500D03*
D17*
X130042100Y-100953000D03*
X130042100Y-100453000D03*
X130042100Y-99953000D03*
X130042100Y-99453000D03*
D18*
X129379600Y-99290500D03*
X128879600Y-99290500D03*
X128379600Y-99290500D03*
%TD*%
D19*
%TO.C,U2*%
X129940000Y-77977000D03*
X129940000Y-78777000D03*
X129940000Y-79277000D03*
X129940000Y-80077000D03*
X129440000Y-77977000D03*
X129440000Y-78777000D03*
X129440000Y-79277000D03*
X129440000Y-80077000D03*
X128940000Y-77977000D03*
X128940000Y-78777000D03*
X128940000Y-79277000D03*
X128940000Y-80077000D03*
X128440000Y-77977000D03*
X128440000Y-78777000D03*
X128440000Y-79277000D03*
X128440000Y-80077000D03*
%TD*%
D12*
%TO.C,C1*%
X130022600Y-102743000D03*
X130022600Y-104293000D03*
%TD*%
%TO.C,C4*%
X126140000Y-102727000D03*
X126140000Y-104277000D03*
%TD*%
D13*
%TO.C,C7*%
X126568200Y-88811400D03*
X126568200Y-87261400D03*
%TD*%
M02*
