%TF.GenerationSoftware,KiCad,Pcbnew,10.0.2*%
%TF.CreationDate,2026-08-16T15:37:26-04:00*%
%TF.ProjectId,IMUTagNandBMP581-breakout,494d5554-6167-44e6-916e-64424d503538,rev?*%
%TF.SameCoordinates,Original*%
%TF.FileFunction,Copper,L2,Inr*%
%TF.FilePolarity,Positive*%
%FSLAX46Y46*%
G04 Gerber Fmt 4.6, Leading zero omitted, Abs format (unit mm)*
G04 Created by KiCad (PCBNEW 10.0.2) date 2026-08-16 15:37:26*
%MOMM*%
%LPD*%
G01*
G04 APERTURE LIST*
%TA.AperFunction,ComponentPad*%
%ADD10R,1.700000X1.700000*%
%TD*%
%TA.AperFunction,ComponentPad*%
%ADD11O,1.700000X1.700000*%
%TD*%
%TA.AperFunction,ViaPad*%
%ADD12C,0.609600*%
%TD*%
G04 APERTURE END LIST*
D10*
%TO.N,/LSM_TRG*%
%TO.C,J3*%
X106553000Y-76200000D03*
D11*
%TO.N,/BMM_INT*%
X106807000Y-78740000D03*
%TO.N,/SCL*%
X106553000Y-81280000D03*
%TO.N,/SDA*%
X106807000Y-83820000D03*
%TO.N,unconnected-(J3-Pin_5-Pad5)*%
X106553000Y-86360000D03*
%TO.N,unconnected-(J3-Pin_6-Pad6)*%
X106807000Y-88900000D03*
%TO.N,+1V8*%
X106553000Y-91440000D03*
%TO.N,/WKUP1*%
X106807000Y-93980000D03*
%TO.N,unconnected-(J3-Pin_9-Pad9)*%
X106553000Y-96520000D03*
%TO.N,unconnected-(J3-Pin_10-Pad10)*%
X106807000Y-99060000D03*
%TO.N,unconnected-(J3-Pin_11-Pad11)*%
X106553000Y-101600000D03*
%TO.N,/AT25_nCS*%
X106807000Y-104140000D03*
%TO.N,/AT25_SCK*%
X106553000Y-106680000D03*
%TO.N,/AT25_MISO*%
X106807000Y-109220000D03*
%TO.N,/AT25_MOSI*%
X106553000Y-111760000D03*
%TO.N,unconnected-(J3-Pin_16-Pad16)*%
X106807000Y-114300000D03*
%TO.N,GND*%
X106553000Y-116840000D03*
%TD*%
D10*
%TO.N,+1V8*%
%TO.C,J4*%
X149733000Y-76200000D03*
D11*
%TO.N,/LPS_CK*%
X149987000Y-78740000D03*
%TO.N,unconnected-(J4-Pin_3-Pad3)*%
X149733000Y-81280000D03*
%TO.N,/LPS_MOSI*%
X149987000Y-83820000D03*
%TO.N,/LPS_MISO*%
X149733000Y-86360000D03*
%TO.N,/LPS_CS*%
X149987000Y-88900000D03*
%TO.N,/LPS_DRDY*%
X149733000Y-91440000D03*
%TO.N,/FLASH_PWR*%
X149987000Y-93980000D03*
%TO.N,unconnected-(J4-Pin_9-Pad9)*%
X149733000Y-96520000D03*
%TO.N,unconnected-(J4-Pin_10-Pad10)*%
X149987000Y-99060000D03*
%TO.N,unconnected-(J4-Pin_11-Pad11)*%
X149733000Y-101600000D03*
%TO.N,unconnected-(J4-Pin_12-Pad12)*%
X149987000Y-104140000D03*
%TO.N,unconnected-(J4-Pin_13-Pad13)*%
X149733000Y-106680000D03*
%TO.N,unconnected-(J4-Pin_14-Pad14)*%
X149987000Y-109220000D03*
%TO.N,/NC*%
X149733000Y-111760000D03*
%TO.N,/LSM_CS*%
X149987000Y-114300000D03*
%TO.N,GND*%
X149733000Y-116840000D03*
%TD*%
D12*
%TO.N,/BMM_INT*%
X121840000Y-93327000D03*
%TO.N,/SDA*%
X116015000Y-87002000D03*
X122040000Y-90527000D03*
%TO.N,/SCL*%
X122015000Y-86677000D03*
X115990000Y-85177000D03*
%TO.N,GND*%
X138040000Y-82967000D03*
X135890000Y-82157000D03*
X133670000Y-94827000D03*
X126940000Y-79902000D03*
X131021900Y-108807000D03*
X132470000Y-93402000D03*
X122240000Y-81852000D03*
X132771900Y-108782000D03*
X133975000Y-83047000D03*
X129395000Y-91077000D03*
X132350000Y-83022000D03*
X131636900Y-103908000D03*
X139800000Y-82947000D03*
X129408600Y-84899200D03*
X133420000Y-86717000D03*
X131034200Y-85032800D03*
%TO.N,+1V8*%
X129996900Y-106457000D03*
X133670000Y-91527000D03*
X139760000Y-79507000D03*
X133671900Y-106457000D03*
X122040000Y-92052000D03*
X129370000Y-94477000D03*
X129365000Y-88602000D03*
X131040000Y-88577000D03*
X138050000Y-79487000D03*
X122415000Y-89152000D03*
%TO.N,/LPS_CK*%
X133640000Y-88652000D03*
%TO.N,/LPS_MOSI*%
X136615000Y-86927000D03*
X137715000Y-84252000D03*
%TO.N,/LPS_MISO*%
X143240000Y-86352000D03*
%TO.N,/LPS_DRDY*%
X135390000Y-84987000D03*
X136010000Y-85837000D03*
%TO.N,/AT25_MISO*%
X118540000Y-97727000D03*
X121590000Y-98237000D03*
%TO.N,/WKUP1*%
X121050000Y-99197000D03*
%TO.N,/LSM_TRG*%
X134095900Y-104158000D03*
%TO.N,/AT25_SCK*%
X110690000Y-106702000D03*
X120215000Y-96537000D03*
X122240000Y-96637000D03*
%TO.N,/FLASH_PWR*%
X140820000Y-87217000D03*
X136590000Y-82647000D03*
%TD*%
%TA.AperFunction,Conductor*%
%TO.N,+1V8*%
G36*
X151134853Y-72465882D02*
G01*
X151164568Y-72468220D01*
X151307136Y-72479440D01*
X151326346Y-72482483D01*
X151489638Y-72521686D01*
X151508135Y-72527696D01*
X151663280Y-72591959D01*
X151680606Y-72600787D01*
X151734330Y-72633709D01*
X151823787Y-72688529D01*
X151839529Y-72699966D01*
X151967218Y-72809023D01*
X151980976Y-72822781D01*
X152090033Y-72950470D01*
X152101470Y-72966212D01*
X152189209Y-73109387D01*
X152198043Y-73126725D01*
X152262301Y-73281860D01*
X152268314Y-73300365D01*
X152307515Y-73463648D01*
X152310559Y-73482866D01*
X152324118Y-73655146D01*
X152324500Y-73664875D01*
X152324500Y-119375124D01*
X152324118Y-119384852D01*
X152324118Y-119384853D01*
X152310559Y-119557133D01*
X152307515Y-119576351D01*
X152268314Y-119739634D01*
X152262301Y-119758139D01*
X152198043Y-119913274D01*
X152189209Y-119930612D01*
X152101470Y-120073787D01*
X152090033Y-120089529D01*
X151980976Y-120217218D01*
X151967218Y-120230976D01*
X151839529Y-120340033D01*
X151823787Y-120351470D01*
X151680612Y-120439209D01*
X151663274Y-120448043D01*
X151508139Y-120512301D01*
X151489634Y-120518314D01*
X151326351Y-120557515D01*
X151307133Y-120560559D01*
X151134854Y-120574118D01*
X151125125Y-120574500D01*
X105414875Y-120574500D01*
X105405146Y-120574118D01*
X105232866Y-120560559D01*
X105213648Y-120557515D01*
X105050365Y-120518314D01*
X105031860Y-120512301D01*
X104876725Y-120448043D01*
X104859387Y-120439209D01*
X104716212Y-120351470D01*
X104700470Y-120340033D01*
X104572781Y-120230976D01*
X104559023Y-120217218D01*
X104449966Y-120089529D01*
X104438529Y-120073787D01*
X104402664Y-120015262D01*
X104350787Y-119930606D01*
X104341959Y-119913280D01*
X104277696Y-119758135D01*
X104271685Y-119739634D01*
X104232484Y-119576351D01*
X104229440Y-119557132D01*
X104215882Y-119384852D01*
X104215500Y-119375124D01*
X104215500Y-75301345D01*
X105194500Y-75301345D01*
X105194500Y-77098654D01*
X105201011Y-77159202D01*
X105201011Y-77159204D01*
X105250575Y-77292086D01*
X105252111Y-77296204D01*
X105339739Y-77413261D01*
X105456796Y-77500889D01*
X105571297Y-77543596D01*
X105588463Y-77549999D01*
X105593799Y-77551989D01*
X105621050Y-77554918D01*
X105654345Y-77558499D01*
X105654362Y-77558500D01*
X105767928Y-77558500D01*
X105834967Y-77578185D01*
X105880722Y-77630989D01*
X105890666Y-77700147D01*
X105861641Y-77763703D01*
X105855609Y-77770181D01*
X105770796Y-77854993D01*
X105645106Y-78027990D01*
X105548027Y-78218516D01*
X105548026Y-78218519D01*
X105481951Y-78421882D01*
X105448500Y-78633084D01*
X105448500Y-78846915D01*
X105481951Y-79058117D01*
X105548026Y-79261480D01*
X105548027Y-79261483D01*
X105610223Y-79383548D01*
X105645106Y-79452009D01*
X105770794Y-79625004D01*
X105921996Y-79776206D01*
X106001503Y-79833971D01*
X106044168Y-79889301D01*
X106050147Y-79958915D01*
X106017541Y-80020710D01*
X105984912Y-80044774D01*
X105840990Y-80118106D01*
X105667993Y-80243796D01*
X105516796Y-80394993D01*
X105391106Y-80567990D01*
X105294027Y-80758516D01*
X105294026Y-80758519D01*
X105227951Y-80961882D01*
X105194500Y-81173084D01*
X105194500Y-81386915D01*
X105227951Y-81598117D01*
X105294026Y-81801480D01*
X105294027Y-81801483D01*
X105360582Y-81932103D01*
X105391106Y-81992009D01*
X105516794Y-82165004D01*
X105667996Y-82316206D01*
X105840991Y-82441894D01*
X105984913Y-82515226D01*
X106035708Y-82563199D01*
X106052503Y-82631020D01*
X106029966Y-82697155D01*
X106001504Y-82726027D01*
X105921996Y-82783793D01*
X105770796Y-82934993D01*
X105645106Y-83107990D01*
X105548027Y-83298516D01*
X105548026Y-83298519D01*
X105481951Y-83501882D01*
X105448500Y-83713084D01*
X105448500Y-83926915D01*
X105481951Y-84138117D01*
X105548026Y-84341480D01*
X105548027Y-84341483D01*
X105636107Y-84514348D01*
X105645106Y-84532009D01*
X105770794Y-84705004D01*
X105921996Y-84856206D01*
X106001503Y-84913971D01*
X106044168Y-84969301D01*
X106050147Y-85038915D01*
X106017541Y-85100710D01*
X105984912Y-85124774D01*
X105840990Y-85198106D01*
X105667993Y-85323796D01*
X105516796Y-85474993D01*
X105391106Y-85647990D01*
X105294027Y-85838516D01*
X105294026Y-85838519D01*
X105227951Y-86041882D01*
X105216408Y-86114764D01*
X105194500Y-86253084D01*
X105194500Y-86466916D01*
X105196535Y-86479764D01*
X105227951Y-86678117D01*
X105294026Y-86881480D01*
X105294027Y-86881483D01*
X105386127Y-87062237D01*
X105391106Y-87072009D01*
X105516794Y-87245004D01*
X105667996Y-87396206D01*
X105840991Y-87521894D01*
X105984913Y-87595226D01*
X106035708Y-87643199D01*
X106052503Y-87711020D01*
X106029966Y-87777155D01*
X106001504Y-87806027D01*
X105921996Y-87863793D01*
X105770796Y-88014993D01*
X105645106Y-88187990D01*
X105548027Y-88378516D01*
X105548026Y-88378519D01*
X105481951Y-88581882D01*
X105458158Y-88732105D01*
X105448500Y-88793084D01*
X105448500Y-89006916D01*
X105453303Y-89037239D01*
X105481951Y-89218117D01*
X105548026Y-89421480D01*
X105548027Y-89421483D01*
X105645106Y-89612009D01*
X105770794Y-89785004D01*
X105921996Y-89936206D01*
X106009221Y-89999579D01*
X106051887Y-90054907D01*
X106057866Y-90124521D01*
X106025261Y-90186316D01*
X105992632Y-90210380D01*
X105845444Y-90285377D01*
X105673540Y-90410272D01*
X105673535Y-90410276D01*
X105523276Y-90560535D01*
X105523272Y-90560540D01*
X105398379Y-90732442D01*
X105301904Y-90921782D01*
X105236242Y-91123870D01*
X105236242Y-91123873D01*
X105225769Y-91190000D01*
X106119988Y-91190000D01*
X106087075Y-91247007D01*
X106053000Y-91374174D01*
X106053000Y-91505826D01*
X106087075Y-91632993D01*
X106119988Y-91690000D01*
X105225769Y-91690000D01*
X105236242Y-91756126D01*
X105236242Y-91756129D01*
X105301904Y-91958217D01*
X105398379Y-92147557D01*
X105523272Y-92319459D01*
X105523276Y-92319464D01*
X105673535Y-92469723D01*
X105673540Y-92469727D01*
X105845442Y-92594620D01*
X105992631Y-92669618D01*
X106043427Y-92717593D01*
X106060222Y-92785414D01*
X106037684Y-92851549D01*
X106009222Y-92880419D01*
X106001506Y-92886027D01*
X105921993Y-92943796D01*
X105770796Y-93094993D01*
X105645106Y-93267990D01*
X105548027Y-93458516D01*
X105548026Y-93458519D01*
X105481951Y-93661882D01*
X105448500Y-93873084D01*
X105448500Y-94086915D01*
X105481951Y-94298117D01*
X105548026Y-94501480D01*
X105548027Y-94501483D01*
X105645106Y-94692009D01*
X105770794Y-94865004D01*
X105921996Y-95016206D01*
X106001503Y-95073971D01*
X106044168Y-95129301D01*
X106050147Y-95198915D01*
X106017541Y-95260710D01*
X105984912Y-95284774D01*
X105840990Y-95358106D01*
X105667993Y-95483796D01*
X105516796Y-95634993D01*
X105391106Y-95807990D01*
X105294027Y-95998516D01*
X105294026Y-95998519D01*
X105227951Y-96201882D01*
X105194500Y-96413084D01*
X105194500Y-96626915D01*
X105227951Y-96838117D01*
X105294026Y-97041480D01*
X105294027Y-97041483D01*
X105391106Y-97232009D01*
X105516794Y-97405004D01*
X105667996Y-97556206D01*
X105840991Y-97681894D01*
X105984913Y-97755226D01*
X106035708Y-97803199D01*
X106052503Y-97871020D01*
X106029966Y-97937155D01*
X106001504Y-97966027D01*
X105921996Y-98023793D01*
X105770796Y-98174993D01*
X105645106Y-98347990D01*
X105548027Y-98538516D01*
X105548026Y-98538519D01*
X105481951Y-98741882D01*
X105470883Y-98811762D01*
X105448500Y-98953084D01*
X105448500Y-99166916D01*
X105465225Y-99272516D01*
X105481951Y-99378117D01*
X105548026Y-99581480D01*
X105548027Y-99581483D01*
X105616288Y-99715451D01*
X105645106Y-99772009D01*
X105770794Y-99945004D01*
X105921996Y-100096206D01*
X106001503Y-100153971D01*
X106044168Y-100209301D01*
X106050147Y-100278915D01*
X106017541Y-100340710D01*
X105984912Y-100364774D01*
X105840990Y-100438106D01*
X105667993Y-100563796D01*
X105516796Y-100714993D01*
X105391106Y-100887990D01*
X105294027Y-101078516D01*
X105294026Y-101078519D01*
X105227951Y-101281882D01*
X105194500Y-101493084D01*
X105194500Y-101706915D01*
X105227951Y-101918117D01*
X105294026Y-102121480D01*
X105294027Y-102121483D01*
X105391106Y-102312009D01*
X105516794Y-102485004D01*
X105667996Y-102636206D01*
X105840991Y-102761894D01*
X105984913Y-102835226D01*
X106035708Y-102883199D01*
X106052503Y-102951020D01*
X106029966Y-103017155D01*
X106001504Y-103046027D01*
X105921996Y-103103793D01*
X105770796Y-103254993D01*
X105645106Y-103427990D01*
X105548027Y-103618516D01*
X105548026Y-103618519D01*
X105481951Y-103821882D01*
X105448500Y-104033084D01*
X105448500Y-104246915D01*
X105481951Y-104458117D01*
X105548026Y-104661480D01*
X105548027Y-104661483D01*
X105645106Y-104852009D01*
X105770794Y-105025004D01*
X105921996Y-105176206D01*
X106001503Y-105233971D01*
X106044168Y-105289301D01*
X106050147Y-105358915D01*
X106017541Y-105420710D01*
X105984912Y-105444774D01*
X105840990Y-105518106D01*
X105667993Y-105643796D01*
X105516796Y-105794993D01*
X105391106Y-105967990D01*
X105294027Y-106158516D01*
X105294026Y-106158519D01*
X105227951Y-106361882D01*
X105194500Y-106573084D01*
X105194500Y-106786915D01*
X105227951Y-106998117D01*
X105294026Y-107201480D01*
X105294027Y-107201483D01*
X105361410Y-107333728D01*
X105391106Y-107392009D01*
X105516794Y-107565004D01*
X105667996Y-107716206D01*
X105840991Y-107841894D01*
X105984913Y-107915226D01*
X106035708Y-107963199D01*
X106052503Y-108031020D01*
X106029966Y-108097155D01*
X106001504Y-108126027D01*
X105921996Y-108183793D01*
X105770796Y-108334993D01*
X105645106Y-108507990D01*
X105548027Y-108698516D01*
X105548026Y-108698519D01*
X105481951Y-108901882D01*
X105448500Y-109113084D01*
X105448500Y-109326915D01*
X105481951Y-109538117D01*
X105548026Y-109741480D01*
X105548027Y-109741483D01*
X105645106Y-109932009D01*
X105770794Y-110105004D01*
X105921996Y-110256206D01*
X106001503Y-110313971D01*
X106044168Y-110369301D01*
X106050147Y-110438915D01*
X106017541Y-110500710D01*
X105984912Y-110524774D01*
X105840990Y-110598106D01*
X105667993Y-110723796D01*
X105516796Y-110874993D01*
X105391106Y-111047990D01*
X105294027Y-111238516D01*
X105294026Y-111238519D01*
X105227951Y-111441882D01*
X105194500Y-111653084D01*
X105194500Y-111866915D01*
X105227951Y-112078117D01*
X105294026Y-112281480D01*
X105294027Y-112281483D01*
X105391106Y-112472009D01*
X105516794Y-112645004D01*
X105667996Y-112796206D01*
X105840991Y-112921894D01*
X105984913Y-112995226D01*
X106035708Y-113043199D01*
X106052503Y-113111020D01*
X106029966Y-113177155D01*
X106001504Y-113206027D01*
X105921996Y-113263793D01*
X105770796Y-113414993D01*
X105645106Y-113587990D01*
X105548027Y-113778516D01*
X105548026Y-113778519D01*
X105481951Y-113981882D01*
X105448500Y-114193084D01*
X105448500Y-114406915D01*
X105481951Y-114618117D01*
X105548026Y-114821480D01*
X105548027Y-114821483D01*
X105645106Y-115012009D01*
X105770794Y-115185004D01*
X105921996Y-115336206D01*
X106001503Y-115393971D01*
X106044168Y-115449301D01*
X106050147Y-115518915D01*
X106017541Y-115580710D01*
X105984912Y-115604774D01*
X105840990Y-115678106D01*
X105667993Y-115803796D01*
X105516796Y-115954993D01*
X105391106Y-116127990D01*
X105294027Y-116318516D01*
X105294026Y-116318519D01*
X105227951Y-116521882D01*
X105194500Y-116733084D01*
X105194500Y-116946915D01*
X105227951Y-117158117D01*
X105294026Y-117361480D01*
X105294027Y-117361483D01*
X105391106Y-117552009D01*
X105516794Y-117725004D01*
X105667996Y-117876206D01*
X105840991Y-118001894D01*
X105934438Y-118049507D01*
X106031516Y-118098972D01*
X106031519Y-118098973D01*
X106133200Y-118132010D01*
X106234884Y-118165049D01*
X106446084Y-118198500D01*
X106446085Y-118198500D01*
X106659915Y-118198500D01*
X106659916Y-118198500D01*
X106871116Y-118165049D01*
X107074483Y-118098972D01*
X107265009Y-118001894D01*
X107438004Y-117876206D01*
X107589206Y-117725004D01*
X107714894Y-117552009D01*
X107811972Y-117361483D01*
X107878049Y-117158116D01*
X107911500Y-116946916D01*
X107911500Y-116733084D01*
X107878049Y-116521884D01*
X107811972Y-116318517D01*
X107811972Y-116318516D01*
X107714893Y-116127990D01*
X107589206Y-115954996D01*
X107438004Y-115803794D01*
X107358496Y-115746028D01*
X107315831Y-115690697D01*
X107309852Y-115621084D01*
X107342458Y-115559289D01*
X107375085Y-115535226D01*
X107519009Y-115461894D01*
X107692004Y-115336206D01*
X107843206Y-115185004D01*
X107968894Y-115012009D01*
X108065972Y-114821483D01*
X108132049Y-114618116D01*
X108165500Y-114406916D01*
X108165500Y-114193084D01*
X108132049Y-113981884D01*
X108065972Y-113778517D01*
X108065972Y-113778516D01*
X107968893Y-113587990D01*
X107843206Y-113414996D01*
X107692004Y-113263794D01*
X107519009Y-113138106D01*
X107375086Y-113064773D01*
X107324291Y-113016799D01*
X107307496Y-112948978D01*
X107330033Y-112882843D01*
X107358497Y-112853971D01*
X107438004Y-112796206D01*
X107589206Y-112645004D01*
X107714894Y-112472009D01*
X107811972Y-112281483D01*
X107878049Y-112078116D01*
X107911500Y-111866916D01*
X107911500Y-111653084D01*
X107878049Y-111441884D01*
X107811972Y-111238517D01*
X107811972Y-111238516D01*
X107714893Y-111047990D01*
X107589206Y-110874996D01*
X107438004Y-110723794D01*
X107358496Y-110666028D01*
X107315831Y-110610697D01*
X107309852Y-110541084D01*
X107342458Y-110479289D01*
X107375085Y-110455226D01*
X107519009Y-110381894D01*
X107692004Y-110256206D01*
X107843206Y-110105004D01*
X107968894Y-109932009D01*
X108065972Y-109741483D01*
X108132049Y-109538116D01*
X108165500Y-109326916D01*
X108165500Y-109113084D01*
X108132049Y-108901884D01*
X108127247Y-108887105D01*
X130208599Y-108887105D01*
X130239853Y-109044225D01*
X130239856Y-109044235D01*
X130301160Y-109192237D01*
X130301161Y-109192239D01*
X130390168Y-109325447D01*
X130390171Y-109325451D01*
X130503448Y-109438728D01*
X130503452Y-109438731D01*
X130636658Y-109527737D01*
X130636659Y-109527737D01*
X130636660Y-109527738D01*
X130636662Y-109527739D01*
X130784664Y-109589043D01*
X130784669Y-109589045D01*
X130784673Y-109589045D01*
X130784674Y-109589046D01*
X130941794Y-109620300D01*
X130941797Y-109620300D01*
X131102005Y-109620300D01*
X131227685Y-109595300D01*
X131259131Y-109589045D01*
X131407142Y-109527737D01*
X131540348Y-109438731D01*
X131653631Y-109325448D01*
X131742637Y-109192242D01*
X131787518Y-109083889D01*
X131831356Y-109029489D01*
X131897650Y-109007424D01*
X131965349Y-109024703D01*
X132012960Y-109075839D01*
X132016638Y-109083892D01*
X132051161Y-109167239D01*
X132140168Y-109300447D01*
X132140171Y-109300451D01*
X132253448Y-109413728D01*
X132253452Y-109413731D01*
X132386658Y-109502737D01*
X132386659Y-109502737D01*
X132386660Y-109502738D01*
X132386662Y-109502739D01*
X132472073Y-109538117D01*
X132534669Y-109564045D01*
X132534673Y-109564045D01*
X132534674Y-109564046D01*
X132691794Y-109595300D01*
X132691797Y-109595300D01*
X132852005Y-109595300D01*
X132957713Y-109574272D01*
X133009131Y-109564045D01*
X133157142Y-109502737D01*
X133290348Y-109413731D01*
X133403631Y-109300448D01*
X133492637Y-109167242D01*
X133553945Y-109019231D01*
X133577287Y-108901884D01*
X133585200Y-108862105D01*
X133585200Y-108701894D01*
X133553946Y-108544774D01*
X133553945Y-108544773D01*
X133553945Y-108544769D01*
X133502993Y-108421760D01*
X133492639Y-108396762D01*
X133492638Y-108396760D01*
X133451368Y-108334996D01*
X133403631Y-108263552D01*
X133403628Y-108263548D01*
X133290351Y-108150271D01*
X133290347Y-108150268D01*
X133157139Y-108061261D01*
X133157137Y-108061260D01*
X133009135Y-107999956D01*
X133009125Y-107999953D01*
X132852005Y-107968700D01*
X132852003Y-107968700D01*
X132691797Y-107968700D01*
X132691795Y-107968700D01*
X132534674Y-107999953D01*
X132534664Y-107999956D01*
X132386662Y-108061260D01*
X132386660Y-108061261D01*
X132253452Y-108150268D01*
X132253448Y-108150271D01*
X132140171Y-108263548D01*
X132140168Y-108263552D01*
X132051161Y-108396760D01*
X132006283Y-108505107D01*
X131962442Y-108559510D01*
X131896148Y-108581575D01*
X131828448Y-108564296D01*
X131780838Y-108513158D01*
X131777161Y-108505106D01*
X131742639Y-108421762D01*
X131742638Y-108421760D01*
X131725933Y-108396760D01*
X131653631Y-108288552D01*
X131653628Y-108288548D01*
X131540351Y-108175271D01*
X131540347Y-108175268D01*
X131407139Y-108086261D01*
X131407137Y-108086260D01*
X131259135Y-108024956D01*
X131259125Y-108024953D01*
X131102005Y-107993700D01*
X131102003Y-107993700D01*
X130941797Y-107993700D01*
X130941795Y-107993700D01*
X130784674Y-108024953D01*
X130784664Y-108024956D01*
X130636662Y-108086260D01*
X130636660Y-108086261D01*
X130503452Y-108175268D01*
X130503448Y-108175271D01*
X130390171Y-108288548D01*
X130390168Y-108288552D01*
X130301161Y-108421760D01*
X130301160Y-108421762D01*
X130239856Y-108569764D01*
X130239853Y-108569774D01*
X130208600Y-108726894D01*
X130208600Y-108726897D01*
X130208600Y-108887103D01*
X130208600Y-108887105D01*
X130208599Y-108887105D01*
X108127247Y-108887105D01*
X108075192Y-108726894D01*
X108065974Y-108698522D01*
X108065972Y-108698516D01*
X108000374Y-108569774D01*
X107968894Y-108507991D01*
X107843206Y-108334996D01*
X107692004Y-108183794D01*
X107519009Y-108058106D01*
X107375086Y-107984773D01*
X107324291Y-107936799D01*
X107307496Y-107868978D01*
X107330033Y-107802843D01*
X107358497Y-107773971D01*
X107438004Y-107716206D01*
X107589206Y-107565004D01*
X107714894Y-107392009D01*
X107811972Y-107201483D01*
X107878049Y-106998116D01*
X107911500Y-106786916D01*
X107911500Y-106621894D01*
X109876700Y-106621894D01*
X109876700Y-106782104D01*
X109907953Y-106939225D01*
X109907956Y-106939235D01*
X109969260Y-107087237D01*
X109969261Y-107087239D01*
X110058268Y-107220447D01*
X110058271Y-107220451D01*
X110171548Y-107333728D01*
X110171552Y-107333731D01*
X110304758Y-107422737D01*
X110304759Y-107422737D01*
X110304760Y-107422738D01*
X110304762Y-107422739D01*
X110452764Y-107484043D01*
X110452769Y-107484045D01*
X110452773Y-107484045D01*
X110452774Y-107484046D01*
X110609894Y-107515300D01*
X110609897Y-107515300D01*
X110770105Y-107515300D01*
X110875813Y-107494272D01*
X110927231Y-107484045D01*
X111075242Y-107422737D01*
X111208448Y-107333731D01*
X111321731Y-107220448D01*
X111410737Y-107087242D01*
X111472045Y-106939231D01*
X111503300Y-106782103D01*
X111503300Y-106621897D01*
X111503300Y-106621894D01*
X111472046Y-106464774D01*
X111472045Y-106464773D01*
X111472045Y-106464769D01*
X111410737Y-106316758D01*
X111321731Y-106183552D01*
X111321728Y-106183548D01*
X111208451Y-106070271D01*
X111208447Y-106070268D01*
X111075239Y-105981261D01*
X111075237Y-105981260D01*
X110927235Y-105919956D01*
X110927225Y-105919953D01*
X110770105Y-105888700D01*
X110770103Y-105888700D01*
X110609897Y-105888700D01*
X110609895Y-105888700D01*
X110452774Y-105919953D01*
X110452764Y-105919956D01*
X110304762Y-105981260D01*
X110304760Y-105981261D01*
X110171552Y-106070268D01*
X110171548Y-106070271D01*
X110058271Y-106183548D01*
X110058268Y-106183552D01*
X109969261Y-106316760D01*
X109969260Y-106316762D01*
X109907956Y-106464764D01*
X109907953Y-106464774D01*
X109876700Y-106621894D01*
X107911500Y-106621894D01*
X107911500Y-106573084D01*
X107878049Y-106361884D01*
X107845010Y-106260200D01*
X107811973Y-106158519D01*
X107811972Y-106158516D01*
X107721655Y-105981261D01*
X107714894Y-105967991D01*
X107589206Y-105794996D01*
X107438004Y-105643794D01*
X107358496Y-105586028D01*
X107315831Y-105530697D01*
X107309852Y-105461084D01*
X107342458Y-105399289D01*
X107375085Y-105375226D01*
X107519009Y-105301894D01*
X107692004Y-105176206D01*
X107843206Y-105025004D01*
X107968894Y-104852009D01*
X108065972Y-104661483D01*
X108132049Y-104458116D01*
X108165500Y-104246916D01*
X108165500Y-104033084D01*
X108158376Y-103988105D01*
X130823599Y-103988105D01*
X130854853Y-104145225D01*
X130854856Y-104145235D01*
X130916160Y-104293237D01*
X130916161Y-104293239D01*
X131005168Y-104426447D01*
X131005171Y-104426451D01*
X131118448Y-104539728D01*
X131118452Y-104539731D01*
X131251658Y-104628737D01*
X131251659Y-104628737D01*
X131251660Y-104628738D01*
X131251662Y-104628739D01*
X131330714Y-104661483D01*
X131399669Y-104690045D01*
X131399673Y-104690045D01*
X131399674Y-104690046D01*
X131556794Y-104721300D01*
X131556797Y-104721300D01*
X131717005Y-104721300D01*
X131822713Y-104700272D01*
X131874131Y-104690045D01*
X132022142Y-104628737D01*
X132155348Y-104539731D01*
X132268631Y-104426448D01*
X132357637Y-104293242D01*
X132380475Y-104238105D01*
X133282599Y-104238105D01*
X133313853Y-104395225D01*
X133313856Y-104395235D01*
X133375160Y-104543237D01*
X133375161Y-104543239D01*
X133464168Y-104676447D01*
X133464171Y-104676451D01*
X133577448Y-104789728D01*
X133577452Y-104789731D01*
X133710658Y-104878737D01*
X133710659Y-104878737D01*
X133710660Y-104878738D01*
X133710662Y-104878739D01*
X133858664Y-104940043D01*
X133858669Y-104940045D01*
X133858673Y-104940045D01*
X133858674Y-104940046D01*
X134015794Y-104971300D01*
X134015797Y-104971300D01*
X134176005Y-104971300D01*
X134281713Y-104950272D01*
X134333131Y-104940045D01*
X134481142Y-104878737D01*
X134614348Y-104789731D01*
X134727631Y-104676448D01*
X134816637Y-104543242D01*
X134877945Y-104395231D01*
X134907447Y-104246916D01*
X134909200Y-104238105D01*
X134909200Y-104077894D01*
X134877946Y-103920774D01*
X134877945Y-103920773D01*
X134877945Y-103920769D01*
X134844988Y-103841203D01*
X134816639Y-103772762D01*
X134816638Y-103772760D01*
X134727631Y-103639552D01*
X134727628Y-103639548D01*
X134614351Y-103526271D01*
X134614347Y-103526268D01*
X134481139Y-103437261D01*
X134481137Y-103437260D01*
X134333135Y-103375956D01*
X134333125Y-103375953D01*
X134176005Y-103344700D01*
X134176003Y-103344700D01*
X134015797Y-103344700D01*
X134015795Y-103344700D01*
X133858674Y-103375953D01*
X133858664Y-103375956D01*
X133710662Y-103437260D01*
X133710660Y-103437261D01*
X133577452Y-103526268D01*
X133577448Y-103526271D01*
X133464171Y-103639548D01*
X133464168Y-103639552D01*
X133375161Y-103772760D01*
X133375160Y-103772762D01*
X133313856Y-103920764D01*
X133313853Y-103920774D01*
X133282600Y-104077894D01*
X133282600Y-104077897D01*
X133282600Y-104238103D01*
X133282600Y-104238105D01*
X133282599Y-104238105D01*
X132380475Y-104238105D01*
X132418945Y-104145231D01*
X132450200Y-103988103D01*
X132450200Y-103827897D01*
X132450200Y-103827894D01*
X132418946Y-103670774D01*
X132418945Y-103670773D01*
X132418945Y-103670769D01*
X132406013Y-103639548D01*
X132357639Y-103522762D01*
X132357638Y-103522760D01*
X132268631Y-103389552D01*
X132268628Y-103389548D01*
X132155351Y-103276271D01*
X132155347Y-103276268D01*
X132022139Y-103187261D01*
X132022137Y-103187260D01*
X131874135Y-103125956D01*
X131874125Y-103125953D01*
X131717005Y-103094700D01*
X131717003Y-103094700D01*
X131556797Y-103094700D01*
X131556795Y-103094700D01*
X131399674Y-103125953D01*
X131399664Y-103125956D01*
X131251662Y-103187260D01*
X131251660Y-103187261D01*
X131118452Y-103276268D01*
X131118448Y-103276271D01*
X131005171Y-103389548D01*
X131005168Y-103389552D01*
X130916161Y-103522760D01*
X130916160Y-103522762D01*
X130854856Y-103670764D01*
X130854853Y-103670774D01*
X130823600Y-103827894D01*
X130823600Y-103827897D01*
X130823600Y-103988103D01*
X130823600Y-103988105D01*
X130823599Y-103988105D01*
X108158376Y-103988105D01*
X108132049Y-103821884D01*
X108082951Y-103670774D01*
X108065973Y-103618519D01*
X108065972Y-103618516D01*
X107973617Y-103437261D01*
X107968894Y-103427991D01*
X107843206Y-103254996D01*
X107692004Y-103103794D01*
X107519009Y-102978106D01*
X107375086Y-102904773D01*
X107324291Y-102856799D01*
X107307496Y-102788978D01*
X107330033Y-102722843D01*
X107358497Y-102693971D01*
X107438004Y-102636206D01*
X107589206Y-102485004D01*
X107714894Y-102312009D01*
X107811972Y-102121483D01*
X107878049Y-101918116D01*
X107911500Y-101706916D01*
X107911500Y-101493084D01*
X107878049Y-101281884D01*
X107811972Y-101078517D01*
X107811972Y-101078516D01*
X107759388Y-100975315D01*
X107714893Y-100887990D01*
X107703218Y-100871920D01*
X129859067Y-100871920D01*
X132909067Y-100771920D01*
X132959067Y-99296920D01*
X132442549Y-99234937D01*
X132378332Y-99207405D01*
X132339195Y-99149525D01*
X132333326Y-99112661D01*
X132333277Y-99105475D01*
X132304814Y-94907105D01*
X132856699Y-94907105D01*
X132887953Y-95064225D01*
X132887956Y-95064235D01*
X132949260Y-95212237D01*
X132949261Y-95212239D01*
X133038268Y-95345447D01*
X133038271Y-95345451D01*
X133151548Y-95458728D01*
X133151552Y-95458731D01*
X133284758Y-95547737D01*
X133284759Y-95547737D01*
X133284760Y-95547738D01*
X133284762Y-95547739D01*
X133432764Y-95609043D01*
X133432769Y-95609045D01*
X133432773Y-95609045D01*
X133432774Y-95609046D01*
X133589894Y-95640300D01*
X133589897Y-95640300D01*
X133750105Y-95640300D01*
X133855813Y-95619272D01*
X133907231Y-95609045D01*
X134055242Y-95547737D01*
X134188448Y-95458731D01*
X134301731Y-95345448D01*
X134390737Y-95212242D01*
X134452045Y-95064231D01*
X134483300Y-94907103D01*
X134483300Y-94746897D01*
X134483300Y-94746894D01*
X134452046Y-94589774D01*
X134452045Y-94589773D01*
X134452045Y-94589769D01*
X134390737Y-94441758D01*
X134301731Y-94308552D01*
X134301728Y-94308548D01*
X134188451Y-94195271D01*
X134188447Y-94195268D01*
X134055239Y-94106261D01*
X134055237Y-94106260D01*
X133907235Y-94044956D01*
X133907225Y-94044953D01*
X133750105Y-94013700D01*
X133750103Y-94013700D01*
X133589897Y-94013700D01*
X133589895Y-94013700D01*
X133432774Y-94044953D01*
X133432764Y-94044956D01*
X133284762Y-94106260D01*
X133225633Y-94145768D01*
X133225625Y-94145774D01*
X133151552Y-94195269D01*
X133072757Y-94274063D01*
X133072739Y-94274079D01*
X133038272Y-94308547D01*
X133038268Y-94308552D01*
X132949261Y-94441760D01*
X132949260Y-94441762D01*
X132887956Y-94589764D01*
X132887953Y-94589774D01*
X132856700Y-94746894D01*
X132856700Y-94746897D01*
X132856700Y-94907103D01*
X132856700Y-94907105D01*
X132856699Y-94907105D01*
X132304814Y-94907105D01*
X132300970Y-94340140D01*
X132320199Y-94272969D01*
X132372692Y-94226857D01*
X132424967Y-94215300D01*
X132550105Y-94215300D01*
X132655813Y-94194272D01*
X132707231Y-94184045D01*
X132855242Y-94122737D01*
X132988448Y-94033731D01*
X133101731Y-93920448D01*
X133190737Y-93787242D01*
X133252045Y-93639231D01*
X133283300Y-93482103D01*
X133283300Y-93321897D01*
X133283300Y-93321894D01*
X133252046Y-93164774D01*
X133252045Y-93164773D01*
X133252045Y-93164769D01*
X133190737Y-93016758D01*
X133101731Y-92883552D01*
X133101728Y-92883548D01*
X132988451Y-92770271D01*
X132988447Y-92770268D01*
X132855239Y-92681261D01*
X132855237Y-92681260D01*
X132707235Y-92619956D01*
X132707225Y-92619953D01*
X132550105Y-92588700D01*
X132550103Y-92588700D01*
X132412258Y-92588700D01*
X132345219Y-92569015D01*
X132299464Y-92516211D01*
X132288261Y-92465541D01*
X132284067Y-91846921D01*
X132284067Y-91846920D01*
X132284066Y-91846920D01*
X132259058Y-91846920D01*
X130234067Y-91896919D01*
X130234067Y-91896920D01*
X130259067Y-94046920D01*
X130777278Y-94241249D01*
X130833137Y-94283218D01*
X130857438Y-94348726D01*
X130857723Y-94359260D01*
X130785731Y-99038746D01*
X130765018Y-99105475D01*
X130711516Y-99150412D01*
X130676667Y-99159938D01*
X130165317Y-99221920D01*
X129959067Y-99246920D01*
X129859067Y-100871920D01*
X107703218Y-100871920D01*
X107589206Y-100714996D01*
X107438004Y-100563794D01*
X107358496Y-100506028D01*
X107315831Y-100450697D01*
X107309852Y-100381084D01*
X107342458Y-100319289D01*
X107375085Y-100295226D01*
X107519009Y-100221894D01*
X107692004Y-100096206D01*
X107843206Y-99945004D01*
X107968894Y-99772009D01*
X108065972Y-99581483D01*
X108132049Y-99378116D01*
X108148048Y-99277105D01*
X120236699Y-99277105D01*
X120267953Y-99434225D01*
X120267956Y-99434235D01*
X120329260Y-99582237D01*
X120329261Y-99582239D01*
X120418268Y-99715447D01*
X120418271Y-99715451D01*
X120531548Y-99828728D01*
X120531552Y-99828731D01*
X120664758Y-99917737D01*
X120664759Y-99917737D01*
X120664760Y-99917738D01*
X120664762Y-99917739D01*
X120730591Y-99945006D01*
X120812769Y-99979045D01*
X120812773Y-99979045D01*
X120812774Y-99979046D01*
X120969894Y-100010300D01*
X120969897Y-100010300D01*
X121130105Y-100010300D01*
X121235813Y-99989272D01*
X121287231Y-99979045D01*
X121435242Y-99917737D01*
X121568448Y-99828731D01*
X121681731Y-99715448D01*
X121770737Y-99582242D01*
X121832045Y-99434231D01*
X121863300Y-99277103D01*
X121863300Y-99116897D01*
X121862426Y-99112504D01*
X121868649Y-99042914D01*
X121911509Y-98987734D01*
X121936584Y-98973748D01*
X121975242Y-98957737D01*
X122108448Y-98868731D01*
X122221731Y-98755448D01*
X122310737Y-98622242D01*
X122372045Y-98474231D01*
X122403300Y-98317103D01*
X122403300Y-98156897D01*
X122403300Y-98156894D01*
X122372046Y-97999774D01*
X122372045Y-97999773D01*
X122372045Y-97999769D01*
X122358069Y-97966027D01*
X122310739Y-97851762D01*
X122310738Y-97851760D01*
X122301512Y-97837953D01*
X122221731Y-97718552D01*
X122221728Y-97718548D01*
X122165161Y-97661981D01*
X122131676Y-97600658D01*
X122136660Y-97530966D01*
X122178532Y-97475033D01*
X122243996Y-97450616D01*
X122252842Y-97450300D01*
X122320105Y-97450300D01*
X122425813Y-97429272D01*
X122477231Y-97419045D01*
X122625242Y-97357737D01*
X122758448Y-97268731D01*
X122871731Y-97155448D01*
X122960737Y-97022242D01*
X123022045Y-96874231D01*
X123041936Y-96774235D01*
X123053300Y-96717105D01*
X123053300Y-96556894D01*
X123022046Y-96399774D01*
X123022045Y-96399773D01*
X123022045Y-96399769D01*
X122960737Y-96251758D01*
X122871731Y-96118552D01*
X122871728Y-96118548D01*
X122758451Y-96005271D01*
X122758447Y-96005268D01*
X122625239Y-95916261D01*
X122625237Y-95916260D01*
X122477235Y-95854956D01*
X122477225Y-95854953D01*
X122320105Y-95823700D01*
X122320103Y-95823700D01*
X122159897Y-95823700D01*
X122159895Y-95823700D01*
X122002774Y-95854953D01*
X122002764Y-95854956D01*
X121854762Y-95916260D01*
X121854760Y-95916261D01*
X121721552Y-96005268D01*
X121721548Y-96005271D01*
X121608271Y-96118548D01*
X121608268Y-96118552D01*
X121519261Y-96251760D01*
X121519260Y-96251762D01*
X121457956Y-96399764D01*
X121457953Y-96399774D01*
X121426700Y-96556894D01*
X121426700Y-96556897D01*
X121426700Y-96717103D01*
X121426700Y-96717105D01*
X121426699Y-96717105D01*
X121457953Y-96874225D01*
X121457956Y-96874235D01*
X121519260Y-97022237D01*
X121519261Y-97022239D01*
X121608268Y-97155447D01*
X121608271Y-97155451D01*
X121664839Y-97212019D01*
X121698324Y-97273342D01*
X121693340Y-97343034D01*
X121651468Y-97398967D01*
X121586004Y-97423384D01*
X121577158Y-97423700D01*
X121509895Y-97423700D01*
X121352774Y-97454953D01*
X121352764Y-97454956D01*
X121204762Y-97516260D01*
X121204760Y-97516261D01*
X121071552Y-97605268D01*
X121071548Y-97605271D01*
X120958271Y-97718548D01*
X120958268Y-97718552D01*
X120869261Y-97851760D01*
X120869260Y-97851762D01*
X120807956Y-97999764D01*
X120807953Y-97999774D01*
X120776700Y-98156894D01*
X120776700Y-98156897D01*
X120776700Y-98317103D01*
X120776700Y-98317105D01*
X120776699Y-98317105D01*
X120777574Y-98321499D01*
X120771347Y-98391091D01*
X120728485Y-98446268D01*
X120703411Y-98460251D01*
X120664764Y-98476259D01*
X120664760Y-98476261D01*
X120531552Y-98565268D01*
X120531548Y-98565271D01*
X120418271Y-98678548D01*
X120418268Y-98678552D01*
X120329261Y-98811760D01*
X120329260Y-98811762D01*
X120267956Y-98959764D01*
X120267953Y-98959774D01*
X120236700Y-99116894D01*
X120236700Y-99116897D01*
X120236700Y-99277103D01*
X120236700Y-99277105D01*
X120236699Y-99277105D01*
X108148048Y-99277105D01*
X108165500Y-99166916D01*
X108165500Y-98953084D01*
X108132049Y-98741884D01*
X108074664Y-98565268D01*
X108065973Y-98538519D01*
X108065972Y-98538516D01*
X108006251Y-98421309D01*
X107968894Y-98347991D01*
X107843206Y-98174996D01*
X107692004Y-98023794D01*
X107519009Y-97898106D01*
X107375086Y-97824773D01*
X107373929Y-97823680D01*
X107372372Y-97823348D01*
X107356004Y-97807105D01*
X117726699Y-97807105D01*
X117757953Y-97964225D01*
X117757956Y-97964235D01*
X117819260Y-98112237D01*
X117819261Y-98112239D01*
X117908268Y-98245447D01*
X117908271Y-98245451D01*
X118021548Y-98358728D01*
X118021552Y-98358731D01*
X118154758Y-98447737D01*
X118154759Y-98447737D01*
X118154760Y-98447738D01*
X118154762Y-98447739D01*
X118223616Y-98476259D01*
X118302769Y-98509045D01*
X118302773Y-98509045D01*
X118302774Y-98509046D01*
X118459894Y-98540300D01*
X118459897Y-98540300D01*
X118620105Y-98540300D01*
X118725813Y-98519272D01*
X118777231Y-98509045D01*
X118925242Y-98447737D01*
X119058448Y-98358731D01*
X119171731Y-98245448D01*
X119260737Y-98112242D01*
X119322045Y-97964231D01*
X119344417Y-97851760D01*
X119353300Y-97807105D01*
X119353300Y-97646894D01*
X119322046Y-97489774D01*
X119322045Y-97489773D01*
X119322045Y-97489769D01*
X119305827Y-97450616D01*
X119260739Y-97341762D01*
X119260738Y-97341760D01*
X119245560Y-97319045D01*
X119171731Y-97208552D01*
X119171728Y-97208548D01*
X119058451Y-97095271D01*
X119058447Y-97095268D01*
X118925239Y-97006261D01*
X118925237Y-97006260D01*
X118777235Y-96944956D01*
X118777225Y-96944953D01*
X118620105Y-96913700D01*
X118620103Y-96913700D01*
X118459897Y-96913700D01*
X118459895Y-96913700D01*
X118302774Y-96944953D01*
X118302764Y-96944956D01*
X118154762Y-97006260D01*
X118154760Y-97006261D01*
X118021552Y-97095268D01*
X118021548Y-97095271D01*
X117908271Y-97208548D01*
X117908268Y-97208552D01*
X117819261Y-97341760D01*
X117819260Y-97341762D01*
X117757956Y-97489764D01*
X117757953Y-97489774D01*
X117726700Y-97646894D01*
X117726700Y-97646897D01*
X117726700Y-97807103D01*
X117726700Y-97807105D01*
X117726699Y-97807105D01*
X107356004Y-97807105D01*
X107348626Y-97799783D01*
X107324291Y-97776799D01*
X107323908Y-97775252D01*
X107322778Y-97774131D01*
X107315539Y-97741460D01*
X107307496Y-97708978D01*
X107308009Y-97707471D01*
X107307665Y-97705916D01*
X107319232Y-97674538D01*
X107330033Y-97642843D01*
X107331459Y-97641369D01*
X107331832Y-97640359D01*
X107346304Y-97626036D01*
X107356693Y-97615307D01*
X107357591Y-97614628D01*
X107438004Y-97556206D01*
X107589206Y-97405004D01*
X107714894Y-97232009D01*
X107811972Y-97041483D01*
X107878049Y-96838116D01*
X107911500Y-96626916D01*
X107911500Y-96617105D01*
X119401699Y-96617105D01*
X119432953Y-96774225D01*
X119432956Y-96774235D01*
X119494260Y-96922237D01*
X119494261Y-96922239D01*
X119583268Y-97055447D01*
X119583271Y-97055451D01*
X119696548Y-97168728D01*
X119696552Y-97168731D01*
X119829758Y-97257737D01*
X119829759Y-97257737D01*
X119829760Y-97257738D01*
X119829762Y-97257739D01*
X119977764Y-97319043D01*
X119977769Y-97319045D01*
X119977773Y-97319045D01*
X119977774Y-97319046D01*
X120134894Y-97350300D01*
X120134897Y-97350300D01*
X120295105Y-97350300D01*
X120400813Y-97329272D01*
X120452231Y-97319045D01*
X120600242Y-97257737D01*
X120733448Y-97168731D01*
X120846731Y-97055448D01*
X120935737Y-96922242D01*
X120997045Y-96774231D01*
X121026348Y-96626916D01*
X121028300Y-96617105D01*
X121028300Y-96456894D01*
X120997046Y-96299774D01*
X120997045Y-96299773D01*
X120997045Y-96299769D01*
X120935737Y-96151758D01*
X120846731Y-96018552D01*
X120846728Y-96018548D01*
X120733451Y-95905271D01*
X120733447Y-95905268D01*
X120600239Y-95816261D01*
X120600237Y-95816260D01*
X120452235Y-95754956D01*
X120452225Y-95754953D01*
X120295105Y-95723700D01*
X120295103Y-95723700D01*
X120134897Y-95723700D01*
X120134895Y-95723700D01*
X119977774Y-95754953D01*
X119977764Y-95754956D01*
X119829762Y-95816260D01*
X119829760Y-95816261D01*
X119696552Y-95905268D01*
X119696548Y-95905271D01*
X119583271Y-96018548D01*
X119583268Y-96018552D01*
X119494261Y-96151760D01*
X119494260Y-96151762D01*
X119432956Y-96299764D01*
X119432953Y-96299774D01*
X119401700Y-96456894D01*
X119401700Y-96456897D01*
X119401700Y-96617103D01*
X119401700Y-96617105D01*
X119401699Y-96617105D01*
X107911500Y-96617105D01*
X107911500Y-96413084D01*
X107878049Y-96201884D01*
X107818482Y-96018552D01*
X107811973Y-95998519D01*
X107811972Y-95998516D01*
X107722898Y-95823700D01*
X107714894Y-95807991D01*
X107589206Y-95634996D01*
X107438004Y-95483794D01*
X107358496Y-95426028D01*
X107315831Y-95370697D01*
X107309852Y-95301084D01*
X107342458Y-95239289D01*
X107375085Y-95215226D01*
X107519009Y-95141894D01*
X107692004Y-95016206D01*
X107843206Y-94865004D01*
X107968894Y-94692009D01*
X108065972Y-94501483D01*
X108132049Y-94298116D01*
X108165500Y-94086916D01*
X108165500Y-93873084D01*
X108132049Y-93661884D01*
X108073636Y-93482105D01*
X108065973Y-93458519D01*
X108065972Y-93458516D01*
X108039777Y-93407105D01*
X121026699Y-93407105D01*
X121057953Y-93564225D01*
X121057956Y-93564235D01*
X121119260Y-93712237D01*
X121119261Y-93712239D01*
X121208268Y-93845447D01*
X121208271Y-93845451D01*
X121321548Y-93958728D01*
X121321552Y-93958731D01*
X121454758Y-94047737D01*
X121454759Y-94047737D01*
X121454760Y-94047738D01*
X121454762Y-94047739D01*
X121602764Y-94109043D01*
X121602769Y-94109045D01*
X121602773Y-94109045D01*
X121602774Y-94109046D01*
X121759894Y-94140300D01*
X121759897Y-94140300D01*
X121920105Y-94140300D01*
X122025813Y-94119272D01*
X122077231Y-94109045D01*
X122225242Y-94047737D01*
X122358448Y-93958731D01*
X122471731Y-93845448D01*
X122560737Y-93712242D01*
X122622045Y-93564231D01*
X122638381Y-93482105D01*
X122653300Y-93407105D01*
X122653300Y-93246894D01*
X122622046Y-93089774D01*
X122622045Y-93089773D01*
X122622045Y-93089769D01*
X122591803Y-93016758D01*
X122560739Y-92941762D01*
X122560738Y-92941760D01*
X122519752Y-92880421D01*
X122471731Y-92808552D01*
X122471728Y-92808548D01*
X122358451Y-92695271D01*
X122358447Y-92695268D01*
X122225239Y-92606261D01*
X122225237Y-92606260D01*
X122077235Y-92544956D01*
X122077225Y-92544953D01*
X121920105Y-92513700D01*
X121920103Y-92513700D01*
X121759897Y-92513700D01*
X121759895Y-92513700D01*
X121602774Y-92544953D01*
X121602764Y-92544956D01*
X121454762Y-92606260D01*
X121454760Y-92606261D01*
X121321552Y-92695268D01*
X121321548Y-92695271D01*
X121208271Y-92808548D01*
X121208268Y-92808552D01*
X121119261Y-92941760D01*
X121119260Y-92941762D01*
X121057956Y-93089764D01*
X121057953Y-93089774D01*
X121026700Y-93246894D01*
X121026700Y-93246897D01*
X121026700Y-93407103D01*
X121026700Y-93407105D01*
X121026699Y-93407105D01*
X108039777Y-93407105D01*
X107983726Y-93297100D01*
X107983725Y-93297098D01*
X107968895Y-93267992D01*
X107937472Y-93224742D01*
X107843206Y-93094996D01*
X107692004Y-92943794D01*
X107604778Y-92880421D01*
X107519007Y-92818104D01*
X107366586Y-92740441D01*
X107315791Y-92692467D01*
X107298996Y-92624646D01*
X107321534Y-92558511D01*
X107349998Y-92529638D01*
X107432462Y-92469725D01*
X107582723Y-92319464D01*
X107582727Y-92319459D01*
X107707620Y-92147557D01*
X107804095Y-91958217D01*
X107869757Y-91756129D01*
X107869757Y-91756126D01*
X107880231Y-91690000D01*
X106986012Y-91690000D01*
X107018925Y-91632993D01*
X107053000Y-91505826D01*
X107053000Y-91374174D01*
X107018925Y-91247007D01*
X106986012Y-91190000D01*
X107880231Y-91190000D01*
X107869757Y-91123873D01*
X107869757Y-91123870D01*
X107804095Y-90921782D01*
X107707620Y-90732442D01*
X107616558Y-90607105D01*
X121226699Y-90607105D01*
X121257953Y-90764225D01*
X121257956Y-90764235D01*
X121319260Y-90912237D01*
X121319261Y-90912239D01*
X121408268Y-91045447D01*
X121408271Y-91045451D01*
X121521548Y-91158728D01*
X121521552Y-91158731D01*
X121654758Y-91247737D01*
X121654759Y-91247737D01*
X121654760Y-91247738D01*
X121654762Y-91247739D01*
X121802764Y-91309043D01*
X121802769Y-91309045D01*
X121802773Y-91309045D01*
X121802774Y-91309046D01*
X121959894Y-91340300D01*
X121959897Y-91340300D01*
X122120105Y-91340300D01*
X122251159Y-91314231D01*
X122277231Y-91309045D01*
X122425242Y-91247737D01*
X122558448Y-91158731D01*
X122560074Y-91157105D01*
X128581699Y-91157105D01*
X128612953Y-91314225D01*
X128612956Y-91314235D01*
X128674260Y-91462237D01*
X128674261Y-91462239D01*
X128763268Y-91595447D01*
X128763271Y-91595451D01*
X128876548Y-91708728D01*
X128876552Y-91708731D01*
X129009758Y-91797737D01*
X129009759Y-91797737D01*
X129009760Y-91797738D01*
X129009762Y-91797739D01*
X129128499Y-91846921D01*
X129157769Y-91859045D01*
X129157773Y-91859045D01*
X129157774Y-91859046D01*
X129314894Y-91890300D01*
X129314897Y-91890300D01*
X129475105Y-91890300D01*
X129580813Y-91869272D01*
X129632231Y-91859045D01*
X129780242Y-91797737D01*
X129913448Y-91708731D01*
X130026731Y-91595448D01*
X130115737Y-91462242D01*
X130177045Y-91314231D01*
X130190417Y-91247007D01*
X130208300Y-91157105D01*
X130208300Y-90996894D01*
X130177046Y-90839774D01*
X130177045Y-90839773D01*
X130177045Y-90839769D01*
X130115737Y-90691758D01*
X130026731Y-90558552D01*
X130026728Y-90558548D01*
X129913451Y-90445271D01*
X129913447Y-90445268D01*
X129780239Y-90356261D01*
X129780237Y-90356260D01*
X129632235Y-90294956D01*
X129632225Y-90294953D01*
X129475105Y-90263700D01*
X129475103Y-90263700D01*
X129314897Y-90263700D01*
X129314895Y-90263700D01*
X129157774Y-90294953D01*
X129157764Y-90294956D01*
X129009762Y-90356260D01*
X129009760Y-90356261D01*
X128876552Y-90445268D01*
X128876548Y-90445271D01*
X128763271Y-90558548D01*
X128763268Y-90558552D01*
X128674261Y-90691760D01*
X128674260Y-90691762D01*
X128612956Y-90839764D01*
X128612953Y-90839774D01*
X128581700Y-90996894D01*
X128581700Y-90996897D01*
X128581700Y-91157103D01*
X128581700Y-91157105D01*
X128581699Y-91157105D01*
X122560074Y-91157105D01*
X122671731Y-91045448D01*
X122760737Y-90912242D01*
X122822045Y-90764231D01*
X122853300Y-90607103D01*
X122853300Y-90446897D01*
X122853300Y-90446894D01*
X122822046Y-90289774D01*
X122822045Y-90289773D01*
X122822045Y-90289769D01*
X122786839Y-90204774D01*
X122760739Y-90141762D01*
X122760738Y-90141760D01*
X122756371Y-90135225D01*
X122671731Y-90008552D01*
X122671728Y-90008548D01*
X122558451Y-89895271D01*
X122558447Y-89895268D01*
X122425239Y-89806261D01*
X122425237Y-89806260D01*
X122277235Y-89744956D01*
X122277225Y-89744953D01*
X122120105Y-89713700D01*
X122120103Y-89713700D01*
X121959897Y-89713700D01*
X121959895Y-89713700D01*
X121802774Y-89744953D01*
X121802764Y-89744956D01*
X121654762Y-89806260D01*
X121654760Y-89806261D01*
X121521552Y-89895268D01*
X121521548Y-89895271D01*
X121408271Y-90008548D01*
X121408268Y-90008552D01*
X121319261Y-90141760D01*
X121319260Y-90141762D01*
X121257956Y-90289764D01*
X121257953Y-90289774D01*
X121226700Y-90446894D01*
X121226700Y-90446897D01*
X121226700Y-90607103D01*
X121226700Y-90607105D01*
X121226699Y-90607105D01*
X107616558Y-90607105D01*
X107582727Y-90560540D01*
X107582723Y-90560535D01*
X107432464Y-90410276D01*
X107432459Y-90410272D01*
X107349997Y-90350360D01*
X107307331Y-90295030D01*
X107301352Y-90225417D01*
X107333957Y-90163622D01*
X107366587Y-90139557D01*
X107375089Y-90135225D01*
X107519009Y-90061894D01*
X107692004Y-89936206D01*
X107843206Y-89785004D01*
X107968894Y-89612009D01*
X108065972Y-89421483D01*
X108132049Y-89218116D01*
X108165500Y-89006916D01*
X108165500Y-88793084D01*
X108155842Y-88732105D01*
X132826699Y-88732105D01*
X132857953Y-88889225D01*
X132857956Y-88889235D01*
X132919260Y-89037237D01*
X132919261Y-89037239D01*
X133008268Y-89170447D01*
X133008271Y-89170451D01*
X133121548Y-89283728D01*
X133121552Y-89283731D01*
X133254758Y-89372737D01*
X133254759Y-89372737D01*
X133254760Y-89372738D01*
X133254762Y-89372739D01*
X133402764Y-89434043D01*
X133402769Y-89434045D01*
X133402773Y-89434045D01*
X133402774Y-89434046D01*
X133559894Y-89465300D01*
X133559897Y-89465300D01*
X133720105Y-89465300D01*
X133825813Y-89444272D01*
X133877231Y-89434045D01*
X134025242Y-89372737D01*
X134158448Y-89283731D01*
X134271731Y-89170448D01*
X134360737Y-89037242D01*
X134422045Y-88889231D01*
X134453300Y-88732103D01*
X134453300Y-88571897D01*
X134453300Y-88571894D01*
X134422046Y-88414774D01*
X134422045Y-88414773D01*
X134422045Y-88414769D01*
X134360737Y-88266758D01*
X134271731Y-88133552D01*
X134271728Y-88133548D01*
X134158451Y-88020271D01*
X134158447Y-88020268D01*
X134025239Y-87931261D01*
X134025237Y-87931260D01*
X133877235Y-87869956D01*
X133877225Y-87869953D01*
X133720105Y-87838700D01*
X133720103Y-87838700D01*
X133559897Y-87838700D01*
X133559895Y-87838700D01*
X133402774Y-87869953D01*
X133402764Y-87869956D01*
X133254762Y-87931260D01*
X133254760Y-87931261D01*
X133121552Y-88020268D01*
X133121548Y-88020271D01*
X133008271Y-88133548D01*
X133008268Y-88133552D01*
X132919261Y-88266760D01*
X132919260Y-88266762D01*
X132857956Y-88414764D01*
X132857953Y-88414774D01*
X132826700Y-88571894D01*
X132826700Y-88571897D01*
X132826700Y-88732103D01*
X132826700Y-88732105D01*
X132826699Y-88732105D01*
X108155842Y-88732105D01*
X108132575Y-88585203D01*
X108132375Y-88583947D01*
X108132049Y-88581884D01*
X108127603Y-88568200D01*
X108065973Y-88378519D01*
X108065972Y-88378516D01*
X107968893Y-88187990D01*
X107843206Y-88014996D01*
X107692004Y-87863794D01*
X107519009Y-87738106D01*
X107375086Y-87664773D01*
X107324291Y-87616799D01*
X107307496Y-87548978D01*
X107330033Y-87482843D01*
X107358497Y-87453971D01*
X107370229Y-87445447D01*
X107438004Y-87396206D01*
X107589206Y-87245004D01*
X107714894Y-87072009D01*
X107811972Y-86881483D01*
X107878049Y-86678116D01*
X107911500Y-86466916D01*
X107911500Y-86253084D01*
X107878049Y-86041884D01*
X107845010Y-85940200D01*
X107811973Y-85838519D01*
X107811972Y-85838516D01*
X107762507Y-85741438D01*
X107714894Y-85647991D01*
X107589206Y-85474996D01*
X107438004Y-85323794D01*
X107364011Y-85270035D01*
X107358496Y-85266028D01*
X107356815Y-85263848D01*
X107354267Y-85262814D01*
X107350242Y-85257105D01*
X115176699Y-85257105D01*
X115207953Y-85414225D01*
X115207956Y-85414235D01*
X115269260Y-85562237D01*
X115269261Y-85562239D01*
X115358268Y-85695447D01*
X115358271Y-85695451D01*
X115471548Y-85808728D01*
X115471552Y-85808731D01*
X115604758Y-85897737D01*
X115604759Y-85897737D01*
X115604760Y-85897738D01*
X115604762Y-85897739D01*
X115752764Y-85959043D01*
X115752769Y-85959045D01*
X115789918Y-85966434D01*
X115809697Y-85970369D01*
X115871608Y-86002753D01*
X115906182Y-86063469D01*
X115902443Y-86133239D01*
X115861577Y-86189911D01*
X115809699Y-86213603D01*
X115777773Y-86219953D01*
X115777764Y-86219956D01*
X115629762Y-86281260D01*
X115629760Y-86281261D01*
X115496552Y-86370268D01*
X115496548Y-86370271D01*
X115383271Y-86483548D01*
X115383268Y-86483552D01*
X115294261Y-86616760D01*
X115294260Y-86616762D01*
X115232956Y-86764764D01*
X115232953Y-86764774D01*
X115201700Y-86921894D01*
X115201700Y-86921897D01*
X115201700Y-87082103D01*
X115201700Y-87082105D01*
X115201699Y-87082105D01*
X115232953Y-87239225D01*
X115232956Y-87239235D01*
X115294260Y-87387237D01*
X115294261Y-87387239D01*
X115383268Y-87520447D01*
X115383271Y-87520451D01*
X115496548Y-87633728D01*
X115496552Y-87633731D01*
X115629758Y-87722737D01*
X115629759Y-87722737D01*
X115629760Y-87722738D01*
X115629762Y-87722739D01*
X115761135Y-87777155D01*
X115777769Y-87784045D01*
X115777773Y-87784045D01*
X115777774Y-87784046D01*
X115934894Y-87815300D01*
X115934897Y-87815300D01*
X116095105Y-87815300D01*
X116200813Y-87794272D01*
X116252231Y-87784045D01*
X116400242Y-87722737D01*
X116533448Y-87633731D01*
X116646731Y-87520448D01*
X116735737Y-87387242D01*
X116797045Y-87239231D01*
X116817968Y-87134045D01*
X116828300Y-87082105D01*
X116828300Y-86921894D01*
X116797046Y-86764774D01*
X116797045Y-86764773D01*
X116797045Y-86764769D01*
X116797043Y-86764764D01*
X116793871Y-86757105D01*
X121201699Y-86757105D01*
X121232953Y-86914225D01*
X121232956Y-86914235D01*
X121294260Y-87062237D01*
X121294261Y-87062239D01*
X121383268Y-87195447D01*
X121383271Y-87195451D01*
X121496548Y-87308728D01*
X121496552Y-87308731D01*
X121629758Y-87397737D01*
X121629759Y-87397737D01*
X121629760Y-87397738D01*
X121629762Y-87397739D01*
X121777764Y-87459043D01*
X121777769Y-87459045D01*
X121777773Y-87459045D01*
X121777774Y-87459046D01*
X121934894Y-87490300D01*
X121934897Y-87490300D01*
X122095105Y-87490300D01*
X122200813Y-87469272D01*
X122252231Y-87459045D01*
X122400242Y-87397737D01*
X122533448Y-87308731D01*
X122646731Y-87195448D01*
X122735737Y-87062242D01*
X122797045Y-86914231D01*
X122820343Y-86797105D01*
X132606699Y-86797105D01*
X132637953Y-86954225D01*
X132637956Y-86954235D01*
X132699260Y-87102237D01*
X132699261Y-87102239D01*
X132788268Y-87235447D01*
X132788271Y-87235451D01*
X132901548Y-87348728D01*
X132901552Y-87348731D01*
X133034758Y-87437737D01*
X133034759Y-87437737D01*
X133034760Y-87437738D01*
X133034762Y-87437739D01*
X133182764Y-87499043D01*
X133182769Y-87499045D01*
X133182773Y-87499045D01*
X133182774Y-87499046D01*
X133339894Y-87530300D01*
X133339897Y-87530300D01*
X133500105Y-87530300D01*
X133605813Y-87509272D01*
X133657231Y-87499045D01*
X133805242Y-87437737D01*
X133938448Y-87348731D01*
X134051731Y-87235448D01*
X134140737Y-87102242D01*
X134202045Y-86954231D01*
X134233300Y-86797103D01*
X134233300Y-86636897D01*
X134233300Y-86636894D01*
X134202046Y-86479774D01*
X134202045Y-86479773D01*
X134202045Y-86479769D01*
X134185477Y-86439769D01*
X134140739Y-86331762D01*
X134140738Y-86331760D01*
X134116355Y-86295269D01*
X134051731Y-86198552D01*
X134051728Y-86198548D01*
X133938451Y-86085271D01*
X133938447Y-86085268D01*
X133805239Y-85996261D01*
X133805237Y-85996260D01*
X133657235Y-85934956D01*
X133657225Y-85934953D01*
X133500105Y-85903700D01*
X133500103Y-85903700D01*
X133339897Y-85903700D01*
X133339895Y-85903700D01*
X133182774Y-85934953D01*
X133182764Y-85934956D01*
X133034762Y-85996260D01*
X133034760Y-85996261D01*
X132901552Y-86085268D01*
X132901548Y-86085271D01*
X132788271Y-86198548D01*
X132788268Y-86198552D01*
X132699261Y-86331760D01*
X132699260Y-86331762D01*
X132637956Y-86479764D01*
X132637953Y-86479774D01*
X132606700Y-86636894D01*
X132606700Y-86636897D01*
X132606700Y-86797103D01*
X132606700Y-86797105D01*
X132606699Y-86797105D01*
X122820343Y-86797105D01*
X122828300Y-86757105D01*
X122828300Y-86596894D01*
X122797046Y-86439774D01*
X122797045Y-86439773D01*
X122797045Y-86439769D01*
X122795050Y-86434953D01*
X122735739Y-86291762D01*
X122735738Y-86291760D01*
X122709895Y-86253084D01*
X122646731Y-86158552D01*
X122646728Y-86158548D01*
X122533451Y-86045271D01*
X122533447Y-86045268D01*
X122400239Y-85956261D01*
X122400237Y-85956260D01*
X122252235Y-85894956D01*
X122252225Y-85894953D01*
X122095105Y-85863700D01*
X122095103Y-85863700D01*
X121934897Y-85863700D01*
X121934895Y-85863700D01*
X121777774Y-85894953D01*
X121777764Y-85894956D01*
X121629762Y-85956260D01*
X121629760Y-85956261D01*
X121496552Y-86045268D01*
X121496548Y-86045271D01*
X121383271Y-86158548D01*
X121383268Y-86158552D01*
X121294261Y-86291760D01*
X121294260Y-86291762D01*
X121232956Y-86439764D01*
X121232953Y-86439774D01*
X121201700Y-86596894D01*
X121201700Y-86596897D01*
X121201700Y-86757103D01*
X121201700Y-86757105D01*
X121201699Y-86757105D01*
X116793871Y-86757105D01*
X116744659Y-86638297D01*
X116744643Y-86638259D01*
X116735737Y-86616758D01*
X116646731Y-86483552D01*
X116646728Y-86483548D01*
X116533451Y-86370271D01*
X116533447Y-86370268D01*
X116400239Y-86281261D01*
X116400237Y-86281260D01*
X116252235Y-86219956D01*
X116252225Y-86219953D01*
X116195301Y-86208630D01*
X116133390Y-86176244D01*
X116098816Y-86115528D01*
X116102557Y-86045759D01*
X116143424Y-85989087D01*
X116195301Y-85965396D01*
X116227231Y-85959045D01*
X116375242Y-85897737D01*
X116508448Y-85808731D01*
X116621731Y-85695448D01*
X116710737Y-85562242D01*
X116772045Y-85414231D01*
X116792073Y-85313544D01*
X116803300Y-85257105D01*
X116803300Y-85096894D01*
X116779909Y-84979305D01*
X128595299Y-84979305D01*
X128626553Y-85136425D01*
X128626556Y-85136435D01*
X128687860Y-85284437D01*
X128687861Y-85284439D01*
X128776868Y-85417647D01*
X128776871Y-85417651D01*
X128890148Y-85530928D01*
X128890152Y-85530931D01*
X129023358Y-85619937D01*
X129023359Y-85619937D01*
X129023360Y-85619938D01*
X129023362Y-85619939D01*
X129171364Y-85681243D01*
X129171369Y-85681245D01*
X129171373Y-85681245D01*
X129171374Y-85681246D01*
X129328494Y-85712500D01*
X129328497Y-85712500D01*
X129488705Y-85712500D01*
X129594413Y-85691472D01*
X129645831Y-85681245D01*
X129793842Y-85619937D01*
X129927048Y-85530931D01*
X130040331Y-85417648D01*
X130079954Y-85358348D01*
X130133563Y-85313544D01*
X130202888Y-85304835D01*
X130265916Y-85334989D01*
X130297615Y-85379785D01*
X130313459Y-85418035D01*
X130313461Y-85418039D01*
X130402468Y-85551247D01*
X130402471Y-85551251D01*
X130515748Y-85664528D01*
X130515752Y-85664531D01*
X130648958Y-85753537D01*
X130648959Y-85753537D01*
X130648960Y-85753538D01*
X130648962Y-85753539D01*
X130782201Y-85808728D01*
X130796969Y-85814845D01*
X130796973Y-85814845D01*
X130796974Y-85814846D01*
X130954094Y-85846100D01*
X130954097Y-85846100D01*
X131114305Y-85846100D01*
X131220013Y-85825072D01*
X131271431Y-85814845D01*
X131419442Y-85753537D01*
X131552648Y-85664531D01*
X131665931Y-85551248D01*
X131754937Y-85418042D01*
X131816245Y-85270031D01*
X131830552Y-85198106D01*
X131847500Y-85112905D01*
X131847500Y-85067105D01*
X134576699Y-85067105D01*
X134607953Y-85224225D01*
X134607956Y-85224235D01*
X134669260Y-85372237D01*
X134669261Y-85372239D01*
X134758268Y-85505447D01*
X134758271Y-85505451D01*
X134871548Y-85618728D01*
X134871552Y-85618731D01*
X135004758Y-85707737D01*
X135120156Y-85755536D01*
X135174555Y-85799374D01*
X135196621Y-85865668D01*
X135196700Y-85870095D01*
X135196700Y-85917103D01*
X135196700Y-85917105D01*
X135196699Y-85917105D01*
X135227953Y-86074225D01*
X135227956Y-86074235D01*
X135289260Y-86222237D01*
X135289261Y-86222239D01*
X135378268Y-86355447D01*
X135378271Y-86355451D01*
X135491548Y-86468728D01*
X135491552Y-86468731D01*
X135624759Y-86557738D01*
X135747352Y-86608517D01*
X135801755Y-86652358D01*
X135823820Y-86718652D01*
X135821516Y-86747269D01*
X135801700Y-86846892D01*
X135801700Y-86846897D01*
X135801700Y-87007103D01*
X135801700Y-87007105D01*
X135801699Y-87007105D01*
X135832953Y-87164225D01*
X135832956Y-87164235D01*
X135894260Y-87312237D01*
X135894261Y-87312239D01*
X135983268Y-87445447D01*
X135983271Y-87445451D01*
X136096548Y-87558728D01*
X136096552Y-87558731D01*
X136229758Y-87647737D01*
X136229759Y-87647737D01*
X136229760Y-87647738D01*
X136229762Y-87647739D01*
X136302706Y-87677953D01*
X136377769Y-87709045D01*
X136377773Y-87709045D01*
X136377774Y-87709046D01*
X136534894Y-87740300D01*
X136534897Y-87740300D01*
X136695105Y-87740300D01*
X136800813Y-87719272D01*
X136852231Y-87709045D01*
X137000242Y-87647737D01*
X137133448Y-87558731D01*
X137246731Y-87445448D01*
X137335737Y-87312242D01*
X137342007Y-87297105D01*
X140006699Y-87297105D01*
X140037953Y-87454225D01*
X140037956Y-87454235D01*
X140099260Y-87602237D01*
X140099261Y-87602239D01*
X140188268Y-87735447D01*
X140188271Y-87735451D01*
X140301548Y-87848728D01*
X140301552Y-87848731D01*
X140434758Y-87937737D01*
X140434759Y-87937737D01*
X140434760Y-87937738D01*
X140434762Y-87937739D01*
X140582764Y-87999043D01*
X140582769Y-87999045D01*
X140582773Y-87999045D01*
X140582774Y-87999046D01*
X140739894Y-88030300D01*
X140739897Y-88030300D01*
X140900105Y-88030300D01*
X141005813Y-88009272D01*
X141057231Y-87999045D01*
X141205242Y-87937737D01*
X141338448Y-87848731D01*
X141451731Y-87735448D01*
X141540737Y-87602242D01*
X141602045Y-87454231D01*
X141615371Y-87387237D01*
X141633300Y-87297105D01*
X141633300Y-87136894D01*
X141602046Y-86979774D01*
X141602045Y-86979773D01*
X141602045Y-86979769D01*
X141602043Y-86979764D01*
X141540739Y-86831762D01*
X141540738Y-86831760D01*
X141451731Y-86698552D01*
X141451728Y-86698548D01*
X141338451Y-86585271D01*
X141338447Y-86585268D01*
X141205239Y-86496261D01*
X141205237Y-86496260D01*
X141057235Y-86434956D01*
X141057225Y-86434953D01*
X141042907Y-86432105D01*
X142426699Y-86432105D01*
X142457953Y-86589225D01*
X142457956Y-86589235D01*
X142519260Y-86737237D01*
X142519261Y-86737239D01*
X142608268Y-86870447D01*
X142608271Y-86870451D01*
X142721548Y-86983728D01*
X142721552Y-86983731D01*
X142854758Y-87072737D01*
X142854759Y-87072737D01*
X142854760Y-87072738D01*
X142854762Y-87072739D01*
X143002764Y-87134043D01*
X143002769Y-87134045D01*
X143002773Y-87134045D01*
X143002774Y-87134046D01*
X143159894Y-87165300D01*
X143159897Y-87165300D01*
X143320105Y-87165300D01*
X143425813Y-87144272D01*
X143477231Y-87134045D01*
X143625242Y-87072737D01*
X143758448Y-86983731D01*
X143871731Y-86870448D01*
X143960737Y-86737242D01*
X144022045Y-86589231D01*
X144046375Y-86466916D01*
X144053300Y-86432105D01*
X144053300Y-86271894D01*
X144022046Y-86114774D01*
X144022045Y-86114773D01*
X144022045Y-86114769D01*
X143991855Y-86041884D01*
X143960739Y-85966762D01*
X143960738Y-85966760D01*
X143955582Y-85959044D01*
X143871731Y-85833552D01*
X143871728Y-85833548D01*
X143758451Y-85720271D01*
X143758447Y-85720268D01*
X143625239Y-85631261D01*
X143625237Y-85631260D01*
X143477235Y-85569956D01*
X143477225Y-85569953D01*
X143320105Y-85538700D01*
X143320103Y-85538700D01*
X143159897Y-85538700D01*
X143159895Y-85538700D01*
X143002774Y-85569953D01*
X143002764Y-85569956D01*
X142854762Y-85631260D01*
X142854760Y-85631261D01*
X142721552Y-85720268D01*
X142721548Y-85720271D01*
X142608271Y-85833548D01*
X142608268Y-85833552D01*
X142519261Y-85966760D01*
X142519260Y-85966762D01*
X142457956Y-86114764D01*
X142457953Y-86114774D01*
X142426700Y-86271894D01*
X142426700Y-86271897D01*
X142426700Y-86432103D01*
X142426700Y-86432105D01*
X142426699Y-86432105D01*
X141042907Y-86432105D01*
X140900105Y-86403700D01*
X140900103Y-86403700D01*
X140739897Y-86403700D01*
X140739895Y-86403700D01*
X140582774Y-86434953D01*
X140582764Y-86434956D01*
X140434762Y-86496260D01*
X140434760Y-86496261D01*
X140301552Y-86585268D01*
X140301548Y-86585271D01*
X140188271Y-86698548D01*
X140188268Y-86698552D01*
X140099261Y-86831760D01*
X140099260Y-86831762D01*
X140037956Y-86979764D01*
X140037953Y-86979774D01*
X140006700Y-87136894D01*
X140006700Y-87136897D01*
X140006700Y-87297103D01*
X140006700Y-87297105D01*
X140006699Y-87297105D01*
X137342007Y-87297105D01*
X137397045Y-87164231D01*
X137415244Y-87072738D01*
X137428300Y-87007105D01*
X137428300Y-86846894D01*
X137397046Y-86689774D01*
X137397045Y-86689773D01*
X137397045Y-86689769D01*
X137366803Y-86616758D01*
X137335739Y-86541762D01*
X137335738Y-86541760D01*
X137305336Y-86496261D01*
X137246731Y-86408552D01*
X137246728Y-86408548D01*
X137133451Y-86295271D01*
X137133447Y-86295268D01*
X137000239Y-86206261D01*
X136877647Y-86155482D01*
X136823244Y-86111641D01*
X136801179Y-86045347D01*
X136803483Y-86016729D01*
X136823300Y-85917105D01*
X136823300Y-85756894D01*
X136792046Y-85599774D01*
X136792045Y-85599773D01*
X136792045Y-85599769D01*
X136771947Y-85551247D01*
X136730739Y-85451762D01*
X136730738Y-85451760D01*
X136708208Y-85418042D01*
X136641731Y-85318552D01*
X136641728Y-85318548D01*
X136528451Y-85205271D01*
X136528447Y-85205268D01*
X136395239Y-85116261D01*
X136395237Y-85116260D01*
X136279848Y-85068465D01*
X136225444Y-85024624D01*
X136203379Y-84958330D01*
X136203300Y-84953904D01*
X136203300Y-84906894D01*
X136172046Y-84749774D01*
X136172045Y-84749773D01*
X136172045Y-84749769D01*
X136110737Y-84601758D01*
X136021731Y-84468552D01*
X136021728Y-84468548D01*
X135908451Y-84355271D01*
X135908447Y-84355268D01*
X135775239Y-84266261D01*
X135775237Y-84266260D01*
X135627235Y-84204956D01*
X135627225Y-84204953D01*
X135470105Y-84173700D01*
X135470103Y-84173700D01*
X135309897Y-84173700D01*
X135309895Y-84173700D01*
X135152774Y-84204953D01*
X135152764Y-84204956D01*
X135004762Y-84266260D01*
X135004760Y-84266261D01*
X134871552Y-84355268D01*
X134871548Y-84355271D01*
X134758271Y-84468548D01*
X134758268Y-84468552D01*
X134669261Y-84601760D01*
X134669260Y-84601762D01*
X134607956Y-84749764D01*
X134607953Y-84749774D01*
X134576700Y-84906894D01*
X134576700Y-84906897D01*
X134576700Y-85067103D01*
X134576700Y-85067105D01*
X134576699Y-85067105D01*
X131847500Y-85067105D01*
X131847500Y-84952697D01*
X131841990Y-84924995D01*
X131841990Y-84924992D01*
X131816246Y-84795574D01*
X131816245Y-84795573D01*
X131816245Y-84795569D01*
X131814667Y-84791760D01*
X131754939Y-84647562D01*
X131754938Y-84647560D01*
X131748040Y-84637237D01*
X131665931Y-84514352D01*
X131665928Y-84514348D01*
X131552651Y-84401071D01*
X131552647Y-84401068D01*
X131419439Y-84312061D01*
X131419437Y-84312060D01*
X131271435Y-84250756D01*
X131271425Y-84250753D01*
X131114305Y-84219500D01*
X131114303Y-84219500D01*
X130954097Y-84219500D01*
X130954095Y-84219500D01*
X130796974Y-84250753D01*
X130796964Y-84250756D01*
X130648962Y-84312060D01*
X130648960Y-84312061D01*
X130515752Y-84401068D01*
X130515748Y-84401071D01*
X130402471Y-84514348D01*
X130402468Y-84514352D01*
X130362846Y-84573651D01*
X130309234Y-84618456D01*
X130239909Y-84627163D01*
X130176881Y-84597008D01*
X130145183Y-84552213D01*
X130129338Y-84513960D01*
X130112817Y-84489235D01*
X130040331Y-84380752D01*
X130040328Y-84380748D01*
X129927051Y-84267471D01*
X129927047Y-84267468D01*
X129793839Y-84178461D01*
X129793837Y-84178460D01*
X129645835Y-84117156D01*
X129645825Y-84117153D01*
X129488705Y-84085900D01*
X129488703Y-84085900D01*
X129328497Y-84085900D01*
X129328495Y-84085900D01*
X129171374Y-84117153D01*
X129171364Y-84117156D01*
X129023362Y-84178460D01*
X129023360Y-84178461D01*
X128890152Y-84267468D01*
X128890148Y-84267471D01*
X128776871Y-84380748D01*
X128776868Y-84380752D01*
X128687861Y-84513960D01*
X128687860Y-84513962D01*
X128626556Y-84661964D01*
X128626553Y-84661974D01*
X128595300Y-84819094D01*
X128595300Y-84819097D01*
X128595300Y-84979303D01*
X128595300Y-84979305D01*
X128595299Y-84979305D01*
X116779909Y-84979305D01*
X116772046Y-84939774D01*
X116772045Y-84939773D01*
X116772045Y-84939769D01*
X116712316Y-84795569D01*
X116710739Y-84791762D01*
X116710738Y-84791760D01*
X116682680Y-84749769D01*
X116621731Y-84658552D01*
X116621728Y-84658548D01*
X116508451Y-84545271D01*
X116508447Y-84545268D01*
X116375239Y-84456261D01*
X116375237Y-84456260D01*
X116227235Y-84394956D01*
X116227225Y-84394953D01*
X116070105Y-84363700D01*
X116070103Y-84363700D01*
X115909897Y-84363700D01*
X115909895Y-84363700D01*
X115752774Y-84394953D01*
X115752764Y-84394956D01*
X115604762Y-84456260D01*
X115604760Y-84456261D01*
X115471552Y-84545268D01*
X115471548Y-84545271D01*
X115358271Y-84658548D01*
X115358268Y-84658552D01*
X115269261Y-84791760D01*
X115269260Y-84791762D01*
X115207956Y-84939764D01*
X115207953Y-84939774D01*
X115176700Y-85096894D01*
X115176700Y-85096897D01*
X115176700Y-85257103D01*
X115176700Y-85257105D01*
X115176699Y-85257105D01*
X107350242Y-85257105D01*
X107335605Y-85236341D01*
X107315831Y-85210697D01*
X107315595Y-85207957D01*
X107314010Y-85205708D01*
X107312622Y-85173344D01*
X107309852Y-85141084D01*
X107311135Y-85138650D01*
X107311018Y-85135902D01*
X107327343Y-85107934D01*
X107342458Y-85079289D01*
X107345278Y-85077208D01*
X107346241Y-85075560D01*
X107375085Y-85055226D01*
X107519009Y-84981894D01*
X107692004Y-84856206D01*
X107843206Y-84705004D01*
X107968894Y-84532009D01*
X108065972Y-84341483D01*
X108132049Y-84138116D01*
X108165500Y-83926916D01*
X108165500Y-83713084D01*
X108132049Y-83501884D01*
X108095162Y-83388356D01*
X108065973Y-83298519D01*
X108065972Y-83298516D01*
X107994300Y-83157853D01*
X107968894Y-83107991D01*
X107964618Y-83102105D01*
X131536699Y-83102105D01*
X131567953Y-83259225D01*
X131567956Y-83259235D01*
X131629260Y-83407237D01*
X131629261Y-83407239D01*
X131718268Y-83540447D01*
X131718271Y-83540451D01*
X131831548Y-83653728D01*
X131831552Y-83653731D01*
X131964758Y-83742737D01*
X131964759Y-83742737D01*
X131964760Y-83742738D01*
X131964762Y-83742739D01*
X132112764Y-83804043D01*
X132112769Y-83804045D01*
X132112773Y-83804045D01*
X132112774Y-83804046D01*
X132269894Y-83835300D01*
X132269897Y-83835300D01*
X132430105Y-83835300D01*
X132535813Y-83814272D01*
X132587231Y-83804045D01*
X132735242Y-83742737D01*
X132868448Y-83653731D01*
X132981731Y-83540448D01*
X133051047Y-83436708D01*
X133104656Y-83391907D01*
X133173981Y-83383199D01*
X133237009Y-83413353D01*
X133257249Y-83436711D01*
X133343268Y-83565447D01*
X133343271Y-83565451D01*
X133456548Y-83678728D01*
X133456552Y-83678731D01*
X133589758Y-83767737D01*
X133589759Y-83767737D01*
X133589760Y-83767738D01*
X133589762Y-83767739D01*
X133737764Y-83829043D01*
X133737769Y-83829045D01*
X133737773Y-83829045D01*
X133737774Y-83829046D01*
X133894894Y-83860300D01*
X133894897Y-83860300D01*
X134055105Y-83860300D01*
X134180785Y-83835300D01*
X134212231Y-83829045D01*
X134360242Y-83767737D01*
X134493448Y-83678731D01*
X134606731Y-83565448D01*
X134695737Y-83432242D01*
X134757045Y-83284231D01*
X134776936Y-83184235D01*
X134788300Y-83127105D01*
X134788300Y-82966894D01*
X134757046Y-82809774D01*
X134757045Y-82809773D01*
X134757045Y-82809769D01*
X134746286Y-82783794D01*
X134695739Y-82661762D01*
X134695738Y-82661760D01*
X134693296Y-82658106D01*
X134606731Y-82528552D01*
X134606728Y-82528548D01*
X134493451Y-82415271D01*
X134493447Y-82415268D01*
X134360239Y-82326261D01*
X134360237Y-82326260D01*
X134212235Y-82264956D01*
X134212225Y-82264953D01*
X134072223Y-82237105D01*
X135076699Y-82237105D01*
X135107953Y-82394225D01*
X135107956Y-82394235D01*
X135169260Y-82542237D01*
X135169261Y-82542239D01*
X135258268Y-82675447D01*
X135258271Y-82675451D01*
X135371548Y-82788728D01*
X135371552Y-82788731D01*
X135504758Y-82877737D01*
X135504759Y-82877737D01*
X135504760Y-82877738D01*
X135504762Y-82877739D01*
X135642994Y-82934996D01*
X135652769Y-82939045D01*
X135652773Y-82939045D01*
X135652774Y-82939046D01*
X135781757Y-82964703D01*
X135843667Y-82997088D01*
X135866921Y-83027862D01*
X135869262Y-83032242D01*
X135958268Y-83165447D01*
X135958271Y-83165451D01*
X136071548Y-83278728D01*
X136071552Y-83278731D01*
X136204758Y-83367737D01*
X136204759Y-83367737D01*
X136204760Y-83367738D01*
X136204762Y-83367739D01*
X136314885Y-83413353D01*
X136352769Y-83429045D01*
X136352773Y-83429045D01*
X136352774Y-83429046D01*
X136509894Y-83460300D01*
X136509897Y-83460300D01*
X136670105Y-83460300D01*
X136788692Y-83436711D01*
X136827231Y-83429045D01*
X136975242Y-83367737D01*
X137108448Y-83278731D01*
X137108452Y-83278726D01*
X137113158Y-83274866D01*
X137114851Y-83276929D01*
X137128465Y-83269480D01*
X137150324Y-83253471D01*
X137158659Y-83252962D01*
X137165986Y-83248954D01*
X137193019Y-83250865D01*
X137220064Y-83249215D01*
X137227350Y-83253292D01*
X137235682Y-83253882D01*
X137257388Y-83270104D01*
X137281034Y-83283338D01*
X137286825Y-83292104D01*
X137291649Y-83295709D01*
X137301889Y-83311812D01*
X137304712Y-83317113D01*
X137319263Y-83352242D01*
X137339744Y-83382894D01*
X137342653Y-83388356D01*
X137348521Y-83416758D01*
X137357186Y-83444431D01*
X137355505Y-83450557D01*
X137356791Y-83456781D01*
X137346373Y-83483843D01*
X137338701Y-83511811D01*
X137333554Y-83517144D01*
X137331691Y-83521986D01*
X137322114Y-83529000D01*
X137302097Y-83549745D01*
X137196552Y-83620268D01*
X137196548Y-83620271D01*
X137083271Y-83733548D01*
X137083268Y-83733552D01*
X136994261Y-83866760D01*
X136994260Y-83866762D01*
X136932956Y-84014764D01*
X136932953Y-84014774D01*
X136901700Y-84171894D01*
X136901700Y-84171897D01*
X136901700Y-84332103D01*
X136901700Y-84332105D01*
X136901699Y-84332105D01*
X136932953Y-84489225D01*
X136932956Y-84489235D01*
X136994260Y-84637237D01*
X136994261Y-84637239D01*
X137083268Y-84770447D01*
X137083271Y-84770451D01*
X137196548Y-84883728D01*
X137196552Y-84883731D01*
X137329758Y-84972737D01*
X137329759Y-84972737D01*
X137329760Y-84972738D01*
X137329762Y-84972739D01*
X137477764Y-85034043D01*
X137477769Y-85034045D01*
X137477773Y-85034045D01*
X137477774Y-85034046D01*
X137634894Y-85065300D01*
X137634897Y-85065300D01*
X137795105Y-85065300D01*
X137900813Y-85044272D01*
X137952231Y-85034045D01*
X138100242Y-84972737D01*
X138233448Y-84883731D01*
X138346731Y-84770448D01*
X138435737Y-84637242D01*
X138497045Y-84489231D01*
X138523692Y-84355268D01*
X138528300Y-84332105D01*
X138528300Y-84171894D01*
X138497046Y-84014774D01*
X138497045Y-84014773D01*
X138497045Y-84014769D01*
X138497043Y-84014764D01*
X138435740Y-83866764D01*
X138435738Y-83866761D01*
X138435737Y-83866758D01*
X138418689Y-83841245D01*
X138397813Y-83774572D01*
X138416297Y-83707191D01*
X138452902Y-83669255D01*
X138476135Y-83653731D01*
X138558448Y-83598731D01*
X138671731Y-83485448D01*
X138760737Y-83352242D01*
X138809581Y-83234322D01*
X138853422Y-83179918D01*
X138919716Y-83157853D01*
X138987415Y-83175132D01*
X139035026Y-83226269D01*
X139038703Y-83234322D01*
X139079260Y-83332237D01*
X139079261Y-83332239D01*
X139168268Y-83465447D01*
X139168271Y-83465451D01*
X139281548Y-83578728D01*
X139281552Y-83578731D01*
X139414758Y-83667737D01*
X139414759Y-83667737D01*
X139414760Y-83667738D01*
X139414762Y-83667739D01*
X139550954Y-83724151D01*
X139562769Y-83729045D01*
X139562773Y-83729045D01*
X139562774Y-83729046D01*
X139719894Y-83760300D01*
X139719897Y-83760300D01*
X139880105Y-83760300D01*
X139985813Y-83739272D01*
X140037231Y-83729045D01*
X140185242Y-83667737D01*
X140318448Y-83578731D01*
X140431731Y-83465448D01*
X140520737Y-83332242D01*
X140582045Y-83184231D01*
X140597210Y-83107991D01*
X140613300Y-83027105D01*
X140613300Y-82866894D01*
X140582046Y-82709774D01*
X140582045Y-82709773D01*
X140582045Y-82709769D01*
X140567829Y-82675448D01*
X140520739Y-82561762D01*
X140520738Y-82561760D01*
X140507696Y-82542242D01*
X140431731Y-82428552D01*
X140431728Y-82428548D01*
X140318451Y-82315271D01*
X140318447Y-82315268D01*
X140185239Y-82226261D01*
X140185237Y-82226260D01*
X140037235Y-82164956D01*
X140037225Y-82164953D01*
X139880105Y-82133700D01*
X139880103Y-82133700D01*
X139719897Y-82133700D01*
X139719895Y-82133700D01*
X139562774Y-82164953D01*
X139562764Y-82164956D01*
X139414762Y-82226260D01*
X139414760Y-82226261D01*
X139281552Y-82315268D01*
X139281548Y-82315271D01*
X139168271Y-82428548D01*
X139168268Y-82428552D01*
X139079261Y-82561760D01*
X139030418Y-82679678D01*
X138986576Y-82734082D01*
X138920282Y-82756146D01*
X138852583Y-82738866D01*
X138804973Y-82687729D01*
X138801298Y-82679683D01*
X138767445Y-82597953D01*
X138760739Y-82581762D01*
X138760738Y-82581760D01*
X138754710Y-82572739D01*
X138671731Y-82448552D01*
X138671728Y-82448548D01*
X138558451Y-82335271D01*
X138558447Y-82335268D01*
X138425239Y-82246261D01*
X138425237Y-82246260D01*
X138277235Y-82184956D01*
X138277225Y-82184953D01*
X138120105Y-82153700D01*
X138120103Y-82153700D01*
X137959897Y-82153700D01*
X137959895Y-82153700D01*
X137802774Y-82184953D01*
X137802764Y-82184956D01*
X137654762Y-82246260D01*
X137654760Y-82246261D01*
X137521552Y-82335268D01*
X137516842Y-82339134D01*
X137515172Y-82337099D01*
X137463817Y-82365087D01*
X137394130Y-82360047D01*
X137338230Y-82318130D01*
X137322996Y-82291353D01*
X137310738Y-82261760D01*
X137300383Y-82246263D01*
X137221731Y-82128552D01*
X137221728Y-82128548D01*
X137108451Y-82015271D01*
X137108447Y-82015268D01*
X136975239Y-81926261D01*
X136975237Y-81926260D01*
X136827235Y-81864956D01*
X136827225Y-81864953D01*
X136698242Y-81839296D01*
X136636331Y-81806911D01*
X136613076Y-81776133D01*
X136610736Y-81771756D01*
X136521731Y-81638552D01*
X136521728Y-81638548D01*
X136408451Y-81525271D01*
X136408447Y-81525268D01*
X136275239Y-81436261D01*
X136275237Y-81436260D01*
X136127235Y-81374956D01*
X136127225Y-81374953D01*
X135970105Y-81343700D01*
X135970103Y-81343700D01*
X135809897Y-81343700D01*
X135809895Y-81343700D01*
X135652774Y-81374953D01*
X135652764Y-81374956D01*
X135504762Y-81436260D01*
X135504760Y-81436261D01*
X135371552Y-81525268D01*
X135371548Y-81525271D01*
X135258271Y-81638548D01*
X135258268Y-81638552D01*
X135169261Y-81771760D01*
X135169260Y-81771762D01*
X135107956Y-81919764D01*
X135107953Y-81919774D01*
X135076700Y-82076894D01*
X135076700Y-82076897D01*
X135076700Y-82237103D01*
X135076700Y-82237105D01*
X135076699Y-82237105D01*
X134072223Y-82237105D01*
X134055105Y-82233700D01*
X134055103Y-82233700D01*
X133894897Y-82233700D01*
X133894895Y-82233700D01*
X133737774Y-82264953D01*
X133737764Y-82264956D01*
X133589762Y-82326260D01*
X133589760Y-82326261D01*
X133456552Y-82415268D01*
X133456548Y-82415271D01*
X133343271Y-82528548D01*
X133343268Y-82528552D01*
X133273954Y-82632288D01*
X133220342Y-82677093D01*
X133151017Y-82685800D01*
X133087989Y-82655645D01*
X133067750Y-82632288D01*
X133033989Y-82581762D01*
X132981731Y-82503552D01*
X132981728Y-82503548D01*
X132868451Y-82390271D01*
X132868447Y-82390268D01*
X132735239Y-82301261D01*
X132735237Y-82301260D01*
X132587235Y-82239956D01*
X132587225Y-82239953D01*
X132430105Y-82208700D01*
X132430103Y-82208700D01*
X132269897Y-82208700D01*
X132269895Y-82208700D01*
X132112774Y-82239953D01*
X132112764Y-82239956D01*
X131964762Y-82301260D01*
X131964760Y-82301261D01*
X131831552Y-82390268D01*
X131831548Y-82390271D01*
X131718271Y-82503548D01*
X131718268Y-82503552D01*
X131629261Y-82636760D01*
X131629260Y-82636762D01*
X131567956Y-82784764D01*
X131567953Y-82784774D01*
X131536700Y-82941894D01*
X131536700Y-82941897D01*
X131536700Y-83102103D01*
X131536700Y-83102105D01*
X131536699Y-83102105D01*
X107964618Y-83102105D01*
X107843206Y-82934996D01*
X107692004Y-82783794D01*
X107519009Y-82658106D01*
X107375086Y-82584773D01*
X107324291Y-82536799D01*
X107307496Y-82468978D01*
X107330033Y-82402843D01*
X107358497Y-82373971D01*
X107363346Y-82370448D01*
X107438004Y-82316206D01*
X107589206Y-82165004D01*
X107714894Y-81992009D01*
X107745417Y-81932105D01*
X121426699Y-81932105D01*
X121457953Y-82089225D01*
X121457956Y-82089235D01*
X121519260Y-82237237D01*
X121519261Y-82237239D01*
X121608268Y-82370447D01*
X121608271Y-82370451D01*
X121721548Y-82483728D01*
X121721552Y-82483731D01*
X121854758Y-82572737D01*
X121854759Y-82572737D01*
X121854760Y-82572738D01*
X121854762Y-82572739D01*
X121995466Y-82631020D01*
X122002769Y-82634045D01*
X122002773Y-82634045D01*
X122002774Y-82634046D01*
X122159894Y-82665300D01*
X122159897Y-82665300D01*
X122320105Y-82665300D01*
X122425813Y-82644272D01*
X122477231Y-82634045D01*
X122625242Y-82572737D01*
X122758448Y-82483731D01*
X122871731Y-82370448D01*
X122960737Y-82237242D01*
X123022045Y-82089231D01*
X123024499Y-82076894D01*
X123030523Y-82046613D01*
X123030523Y-82046612D01*
X123053299Y-81932107D01*
X123053300Y-81932105D01*
X123053300Y-81771894D01*
X123022046Y-81614774D01*
X123022045Y-81614773D01*
X123022045Y-81614769D01*
X122960737Y-81466758D01*
X122871731Y-81333552D01*
X122871728Y-81333548D01*
X122758451Y-81220271D01*
X122758447Y-81220268D01*
X122687831Y-81173084D01*
X148374500Y-81173084D01*
X148374500Y-81386915D01*
X148407951Y-81598117D01*
X148474026Y-81801480D01*
X148474027Y-81801483D01*
X148540582Y-81932103D01*
X148571106Y-81992009D01*
X148696794Y-82165004D01*
X148847996Y-82316206D01*
X149020991Y-82441894D01*
X149164913Y-82515226D01*
X149215708Y-82563199D01*
X149232503Y-82631020D01*
X149209966Y-82697155D01*
X149181504Y-82726027D01*
X149101996Y-82783793D01*
X148950796Y-82934993D01*
X148825106Y-83107990D01*
X148728027Y-83298516D01*
X148728026Y-83298519D01*
X148661951Y-83501882D01*
X148628500Y-83713084D01*
X148628500Y-83926915D01*
X148661951Y-84138117D01*
X148728026Y-84341480D01*
X148728027Y-84341483D01*
X148816107Y-84514348D01*
X148825106Y-84532009D01*
X148950794Y-84705004D01*
X149101996Y-84856206D01*
X149181503Y-84913971D01*
X149224168Y-84969301D01*
X149230147Y-85038915D01*
X149197541Y-85100710D01*
X149164912Y-85124774D01*
X149020990Y-85198106D01*
X148847993Y-85323796D01*
X148696796Y-85474993D01*
X148571106Y-85647990D01*
X148474027Y-85838516D01*
X148474026Y-85838519D01*
X148407951Y-86041882D01*
X148396408Y-86114764D01*
X148374500Y-86253084D01*
X148374500Y-86466916D01*
X148376535Y-86479764D01*
X148407951Y-86678117D01*
X148474026Y-86881480D01*
X148474027Y-86881483D01*
X148566127Y-87062237D01*
X148571106Y-87072009D01*
X148696794Y-87245004D01*
X148847996Y-87396206D01*
X149020991Y-87521894D01*
X149164913Y-87595226D01*
X149215708Y-87643199D01*
X149232503Y-87711020D01*
X149209966Y-87777155D01*
X149181504Y-87806027D01*
X149101996Y-87863793D01*
X148950796Y-88014993D01*
X148825106Y-88187990D01*
X148728027Y-88378516D01*
X148728026Y-88378519D01*
X148661951Y-88581882D01*
X148638158Y-88732105D01*
X148628500Y-88793084D01*
X148628500Y-89006916D01*
X148633303Y-89037239D01*
X148661951Y-89218117D01*
X148728026Y-89421480D01*
X148728027Y-89421483D01*
X148825106Y-89612009D01*
X148950794Y-89785004D01*
X149101996Y-89936206D01*
X149181503Y-89993971D01*
X149224168Y-90049301D01*
X149230147Y-90118915D01*
X149197541Y-90180710D01*
X149164912Y-90204774D01*
X149020990Y-90278106D01*
X148847993Y-90403796D01*
X148696796Y-90554993D01*
X148571106Y-90727990D01*
X148474027Y-90918516D01*
X148474026Y-90918519D01*
X148407951Y-91121882D01*
X148374500Y-91333084D01*
X148374500Y-91546915D01*
X148407951Y-91758117D01*
X148474026Y-91961480D01*
X148474027Y-91961483D01*
X148568838Y-92147557D01*
X148571106Y-92152009D01*
X148696794Y-92325004D01*
X148847996Y-92476206D01*
X149020991Y-92601894D01*
X149164913Y-92675226D01*
X149215708Y-92723199D01*
X149232503Y-92791020D01*
X149209966Y-92857155D01*
X149181504Y-92886027D01*
X149101996Y-92943793D01*
X148950796Y-93094993D01*
X148825106Y-93267990D01*
X148728027Y-93458516D01*
X148728026Y-93458519D01*
X148661951Y-93661882D01*
X148628500Y-93873084D01*
X148628500Y-94086915D01*
X148661951Y-94298117D01*
X148728026Y-94501480D01*
X148728027Y-94501483D01*
X148825106Y-94692009D01*
X148950794Y-94865004D01*
X149101996Y-95016206D01*
X149181503Y-95073971D01*
X149224168Y-95129301D01*
X149230147Y-95198915D01*
X149197541Y-95260710D01*
X149164912Y-95284774D01*
X149020990Y-95358106D01*
X148847993Y-95483796D01*
X148696796Y-95634993D01*
X148571106Y-95807990D01*
X148474027Y-95998516D01*
X148474026Y-95998519D01*
X148407951Y-96201882D01*
X148374500Y-96413084D01*
X148374500Y-96626915D01*
X148407951Y-96838117D01*
X148474026Y-97041480D01*
X148474027Y-97041483D01*
X148571106Y-97232009D01*
X148696794Y-97405004D01*
X148847996Y-97556206D01*
X149020991Y-97681894D01*
X149164913Y-97755226D01*
X149215708Y-97803199D01*
X149232503Y-97871020D01*
X149209966Y-97937155D01*
X149181504Y-97966027D01*
X149101996Y-98023793D01*
X148950796Y-98174993D01*
X148825106Y-98347990D01*
X148728027Y-98538516D01*
X148728026Y-98538519D01*
X148661951Y-98741882D01*
X148650883Y-98811762D01*
X148628500Y-98953084D01*
X148628500Y-99166916D01*
X148645225Y-99272516D01*
X148661951Y-99378117D01*
X148728026Y-99581480D01*
X148728027Y-99581483D01*
X148796288Y-99715451D01*
X148825106Y-99772009D01*
X148950794Y-99945004D01*
X149101996Y-100096206D01*
X149181503Y-100153971D01*
X149224168Y-100209301D01*
X149230147Y-100278915D01*
X149197541Y-100340710D01*
X149164912Y-100364774D01*
X149020990Y-100438106D01*
X148847993Y-100563796D01*
X148696796Y-100714993D01*
X148571106Y-100887990D01*
X148474027Y-101078516D01*
X148474026Y-101078519D01*
X148407951Y-101281882D01*
X148374500Y-101493084D01*
X148374500Y-101706915D01*
X148407951Y-101918117D01*
X148474026Y-102121480D01*
X148474027Y-102121483D01*
X148571106Y-102312009D01*
X148696794Y-102485004D01*
X148847996Y-102636206D01*
X149020991Y-102761894D01*
X149164913Y-102835226D01*
X149215708Y-102883199D01*
X149232503Y-102951020D01*
X149209966Y-103017155D01*
X149181504Y-103046027D01*
X149101996Y-103103793D01*
X148950796Y-103254993D01*
X148825106Y-103427990D01*
X148728027Y-103618516D01*
X148728026Y-103618519D01*
X148661951Y-103821882D01*
X148628500Y-104033084D01*
X148628500Y-104246915D01*
X148661951Y-104458117D01*
X148728026Y-104661480D01*
X148728027Y-104661483D01*
X148825106Y-104852009D01*
X148950794Y-105025004D01*
X149101996Y-105176206D01*
X149181503Y-105233971D01*
X149224168Y-105289301D01*
X149230147Y-105358915D01*
X149197541Y-105420710D01*
X149164912Y-105444774D01*
X149020990Y-105518106D01*
X148847993Y-105643796D01*
X148696796Y-105794993D01*
X148571106Y-105967990D01*
X148474027Y-106158516D01*
X148474026Y-106158519D01*
X148407951Y-106361882D01*
X148374500Y-106573084D01*
X148374500Y-106786915D01*
X148407951Y-106998117D01*
X148474026Y-107201480D01*
X148474027Y-107201483D01*
X148541410Y-107333728D01*
X148571106Y-107392009D01*
X148696794Y-107565004D01*
X148847996Y-107716206D01*
X149020991Y-107841894D01*
X149164913Y-107915226D01*
X149215708Y-107963199D01*
X149232503Y-108031020D01*
X149209966Y-108097155D01*
X149181504Y-108126027D01*
X149101996Y-108183793D01*
X148950796Y-108334993D01*
X148825106Y-108507990D01*
X148728027Y-108698516D01*
X148728026Y-108698519D01*
X148661951Y-108901882D01*
X148628500Y-109113084D01*
X148628500Y-109326915D01*
X148661951Y-109538117D01*
X148728026Y-109741480D01*
X148728027Y-109741483D01*
X148825106Y-109932009D01*
X148950794Y-110105004D01*
X149101996Y-110256206D01*
X149181503Y-110313971D01*
X149224168Y-110369301D01*
X149230147Y-110438915D01*
X149197541Y-110500710D01*
X149164912Y-110524774D01*
X149020990Y-110598106D01*
X148847993Y-110723796D01*
X148696796Y-110874993D01*
X148571106Y-111047990D01*
X148474027Y-111238516D01*
X148474026Y-111238519D01*
X148407951Y-111441882D01*
X148374500Y-111653084D01*
X148374500Y-111866915D01*
X148407951Y-112078117D01*
X148474026Y-112281480D01*
X148474027Y-112281483D01*
X148571106Y-112472009D01*
X148696794Y-112645004D01*
X148847996Y-112796206D01*
X149020991Y-112921894D01*
X149164913Y-112995226D01*
X149215708Y-113043199D01*
X149232503Y-113111020D01*
X149209966Y-113177155D01*
X149181504Y-113206027D01*
X149101996Y-113263793D01*
X148950796Y-113414993D01*
X148825106Y-113587990D01*
X148728027Y-113778516D01*
X148728026Y-113778519D01*
X148661951Y-113981882D01*
X148628500Y-114193084D01*
X148628500Y-114406915D01*
X148661951Y-114618117D01*
X148728026Y-114821480D01*
X148728027Y-114821483D01*
X148825106Y-115012009D01*
X148950794Y-115185004D01*
X149101996Y-115336206D01*
X149181503Y-115393971D01*
X149224168Y-115449301D01*
X149230147Y-115518915D01*
X149197541Y-115580710D01*
X149164912Y-115604774D01*
X149020990Y-115678106D01*
X148847993Y-115803796D01*
X148696796Y-115954993D01*
X148571106Y-116127990D01*
X148474027Y-116318516D01*
X148474026Y-116318519D01*
X148407951Y-116521882D01*
X148374500Y-116733084D01*
X148374500Y-116946915D01*
X148407951Y-117158117D01*
X148474026Y-117361480D01*
X148474027Y-117361483D01*
X148571106Y-117552009D01*
X148696794Y-117725004D01*
X148847996Y-117876206D01*
X149020991Y-118001894D01*
X149114438Y-118049507D01*
X149211516Y-118098972D01*
X149211519Y-118098973D01*
X149313200Y-118132010D01*
X149414884Y-118165049D01*
X149626084Y-118198500D01*
X149626085Y-118198500D01*
X149839915Y-118198500D01*
X149839916Y-118198500D01*
X150051116Y-118165049D01*
X150254483Y-118098972D01*
X150445009Y-118001894D01*
X150618004Y-117876206D01*
X150769206Y-117725004D01*
X150894894Y-117552009D01*
X150991972Y-117361483D01*
X151058049Y-117158116D01*
X151091500Y-116946916D01*
X151091500Y-116733084D01*
X151058049Y-116521884D01*
X150991972Y-116318517D01*
X150991972Y-116318516D01*
X150894893Y-116127990D01*
X150769206Y-115954996D01*
X150618004Y-115803794D01*
X150538496Y-115746028D01*
X150495831Y-115690697D01*
X150489852Y-115621084D01*
X150522458Y-115559289D01*
X150555085Y-115535226D01*
X150699009Y-115461894D01*
X150872004Y-115336206D01*
X151023206Y-115185004D01*
X151148894Y-115012009D01*
X151245972Y-114821483D01*
X151312049Y-114618116D01*
X151345500Y-114406916D01*
X151345500Y-114193084D01*
X151312049Y-113981884D01*
X151245972Y-113778517D01*
X151245972Y-113778516D01*
X151148893Y-113587990D01*
X151023206Y-113414996D01*
X150872004Y-113263794D01*
X150699009Y-113138106D01*
X150555086Y-113064773D01*
X150504291Y-113016799D01*
X150487496Y-112948978D01*
X150510033Y-112882843D01*
X150538497Y-112853971D01*
X150618004Y-112796206D01*
X150769206Y-112645004D01*
X150894894Y-112472009D01*
X150991972Y-112281483D01*
X151058049Y-112078116D01*
X151091500Y-111866916D01*
X151091500Y-111653084D01*
X151058049Y-111441884D01*
X150991972Y-111238517D01*
X150991972Y-111238516D01*
X150894893Y-111047990D01*
X150769206Y-110874996D01*
X150618004Y-110723794D01*
X150538496Y-110666028D01*
X150495831Y-110610697D01*
X150489852Y-110541084D01*
X150522458Y-110479289D01*
X150555085Y-110455226D01*
X150699009Y-110381894D01*
X150872004Y-110256206D01*
X151023206Y-110105004D01*
X151148894Y-109932009D01*
X151245972Y-109741483D01*
X151312049Y-109538116D01*
X151345500Y-109326916D01*
X151345500Y-109113084D01*
X151312049Y-108901884D01*
X151255192Y-108726894D01*
X151245973Y-108698519D01*
X151245972Y-108698516D01*
X151180374Y-108569774D01*
X151148894Y-108507991D01*
X151023206Y-108334996D01*
X150872004Y-108183794D01*
X150699009Y-108058106D01*
X150555086Y-107984773D01*
X150504291Y-107936799D01*
X150487496Y-107868978D01*
X150510033Y-107802843D01*
X150538497Y-107773971D01*
X150618004Y-107716206D01*
X150769206Y-107565004D01*
X150894894Y-107392009D01*
X150991972Y-107201483D01*
X151058049Y-106998116D01*
X151091500Y-106786916D01*
X151091500Y-106573084D01*
X151058049Y-106361884D01*
X151025010Y-106260200D01*
X150991973Y-106158519D01*
X150991972Y-106158516D01*
X150901655Y-105981261D01*
X150894894Y-105967991D01*
X150769206Y-105794996D01*
X150618004Y-105643794D01*
X150538496Y-105586028D01*
X150495831Y-105530697D01*
X150489852Y-105461084D01*
X150522458Y-105399289D01*
X150555085Y-105375226D01*
X150699009Y-105301894D01*
X150872004Y-105176206D01*
X151023206Y-105025004D01*
X151148894Y-104852009D01*
X151245972Y-104661483D01*
X151312049Y-104458116D01*
X151345500Y-104246916D01*
X151345500Y-104033084D01*
X151312049Y-103821884D01*
X151262951Y-103670774D01*
X151245973Y-103618519D01*
X151245972Y-103618516D01*
X151153617Y-103437261D01*
X151148894Y-103427991D01*
X151023206Y-103254996D01*
X150872004Y-103103794D01*
X150699009Y-102978106D01*
X150555086Y-102904773D01*
X150504291Y-102856799D01*
X150487496Y-102788978D01*
X150510033Y-102722843D01*
X150538497Y-102693971D01*
X150618004Y-102636206D01*
X150769206Y-102485004D01*
X150894894Y-102312009D01*
X150991972Y-102121483D01*
X151058049Y-101918116D01*
X151091500Y-101706916D01*
X151091500Y-101493084D01*
X151058049Y-101281884D01*
X150991972Y-101078517D01*
X150991972Y-101078516D01*
X150894893Y-100887990D01*
X150769206Y-100714996D01*
X150618004Y-100563794D01*
X150538496Y-100506028D01*
X150495831Y-100450697D01*
X150489852Y-100381084D01*
X150522458Y-100319289D01*
X150555085Y-100295226D01*
X150699009Y-100221894D01*
X150872004Y-100096206D01*
X151023206Y-99945004D01*
X151148894Y-99772009D01*
X151245972Y-99581483D01*
X151312049Y-99378116D01*
X151345500Y-99166916D01*
X151345500Y-98953084D01*
X151312049Y-98741884D01*
X151254664Y-98565268D01*
X151245973Y-98538519D01*
X151245972Y-98538516D01*
X151186251Y-98421309D01*
X151148894Y-98347991D01*
X151023206Y-98174996D01*
X150872004Y-98023794D01*
X150699009Y-97898106D01*
X150555086Y-97824773D01*
X150504291Y-97776799D01*
X150487496Y-97708978D01*
X150510033Y-97642843D01*
X150538497Y-97613971D01*
X150618004Y-97556206D01*
X150769206Y-97405004D01*
X150894894Y-97232009D01*
X150991972Y-97041483D01*
X151058049Y-96838116D01*
X151091500Y-96626916D01*
X151091500Y-96413084D01*
X151058049Y-96201884D01*
X150998482Y-96018552D01*
X150991973Y-95998519D01*
X150991972Y-95998516D01*
X150902898Y-95823700D01*
X150894894Y-95807991D01*
X150769206Y-95634996D01*
X150618004Y-95483794D01*
X150538496Y-95426028D01*
X150495831Y-95370697D01*
X150489852Y-95301084D01*
X150522458Y-95239289D01*
X150555085Y-95215226D01*
X150699009Y-95141894D01*
X150872004Y-95016206D01*
X151023206Y-94865004D01*
X151148894Y-94692009D01*
X151245972Y-94501483D01*
X151312049Y-94298116D01*
X151345500Y-94086916D01*
X151345500Y-93873084D01*
X151312049Y-93661884D01*
X151253636Y-93482105D01*
X151245973Y-93458519D01*
X151245972Y-93458516D01*
X151196507Y-93361438D01*
X151148894Y-93267991D01*
X151023206Y-93094996D01*
X150872004Y-92943794D01*
X150699009Y-92818106D01*
X150555086Y-92744773D01*
X150504291Y-92696799D01*
X150487496Y-92628978D01*
X150510033Y-92562843D01*
X150538497Y-92533971D01*
X150544461Y-92529638D01*
X150618004Y-92476206D01*
X150769206Y-92325004D01*
X150894894Y-92152009D01*
X150991972Y-91961483D01*
X151058049Y-91758116D01*
X151091500Y-91546916D01*
X151091500Y-91333084D01*
X151058049Y-91121884D01*
X150991972Y-90918517D01*
X150991972Y-90918516D01*
X150913356Y-90764225D01*
X150894894Y-90727991D01*
X150769206Y-90554996D01*
X150618004Y-90403794D01*
X150538496Y-90346028D01*
X150495831Y-90290697D01*
X150489852Y-90221084D01*
X150522458Y-90159289D01*
X150555085Y-90135226D01*
X150699009Y-90061894D01*
X150872004Y-89936206D01*
X151023206Y-89785004D01*
X151148894Y-89612009D01*
X151245972Y-89421483D01*
X151312049Y-89218116D01*
X151345500Y-89006916D01*
X151345500Y-88793084D01*
X151312049Y-88581884D01*
X151279010Y-88480200D01*
X151245973Y-88378519D01*
X151245972Y-88378516D01*
X151148893Y-88187990D01*
X151023206Y-88014996D01*
X150872004Y-87863794D01*
X150699009Y-87738106D01*
X150555086Y-87664773D01*
X150504291Y-87616799D01*
X150487496Y-87548978D01*
X150510033Y-87482843D01*
X150538497Y-87453971D01*
X150550229Y-87445447D01*
X150618004Y-87396206D01*
X150769206Y-87245004D01*
X150894894Y-87072009D01*
X150991972Y-86881483D01*
X151058049Y-86678116D01*
X151091500Y-86466916D01*
X151091500Y-86253084D01*
X151058049Y-86041884D01*
X151025010Y-85940200D01*
X150991973Y-85838519D01*
X150991972Y-85838516D01*
X150942507Y-85741438D01*
X150894894Y-85647991D01*
X150769206Y-85474996D01*
X150618004Y-85323794D01*
X150544011Y-85270035D01*
X150538496Y-85266028D01*
X150495831Y-85210697D01*
X150489852Y-85141084D01*
X150522458Y-85079289D01*
X150555085Y-85055226D01*
X150699009Y-84981894D01*
X150872004Y-84856206D01*
X151023206Y-84705004D01*
X151148894Y-84532009D01*
X151245972Y-84341483D01*
X151312049Y-84138116D01*
X151345500Y-83926916D01*
X151345500Y-83713084D01*
X151312049Y-83501884D01*
X151275162Y-83388356D01*
X151245973Y-83298519D01*
X151245972Y-83298516D01*
X151174300Y-83157853D01*
X151148894Y-83107991D01*
X151023206Y-82934996D01*
X150872004Y-82783794D01*
X150699009Y-82658106D01*
X150555086Y-82584773D01*
X150504291Y-82536799D01*
X150487496Y-82468978D01*
X150510033Y-82402843D01*
X150538497Y-82373971D01*
X150543346Y-82370448D01*
X150618004Y-82316206D01*
X150769206Y-82165004D01*
X150894894Y-81992009D01*
X150991972Y-81801483D01*
X151058049Y-81598116D01*
X151091500Y-81386916D01*
X151091500Y-81173084D01*
X151058049Y-80961884D01*
X150991972Y-80758517D01*
X150991972Y-80758516D01*
X150942507Y-80661438D01*
X150894894Y-80567991D01*
X150769206Y-80394996D01*
X150618004Y-80243794D01*
X150538496Y-80186028D01*
X150495831Y-80130697D01*
X150489852Y-80061084D01*
X150522458Y-79999289D01*
X150555085Y-79975226D01*
X150699009Y-79901894D01*
X150872004Y-79776206D01*
X151023206Y-79625004D01*
X151148894Y-79452009D01*
X151245972Y-79261483D01*
X151312049Y-79058116D01*
X151345500Y-78846916D01*
X151345500Y-78633084D01*
X151312049Y-78421884D01*
X151245972Y-78218517D01*
X151245972Y-78218516D01*
X151148893Y-78027990D01*
X151023206Y-77854996D01*
X150872004Y-77703794D01*
X150841558Y-77681673D01*
X150798894Y-77626345D01*
X150792915Y-77556732D01*
X150825521Y-77494937D01*
X150840134Y-77482091D01*
X150940187Y-77407190D01*
X150940190Y-77407187D01*
X151026350Y-77292093D01*
X151026354Y-77292086D01*
X151076596Y-77157379D01*
X151076598Y-77157372D01*
X151082999Y-77097844D01*
X151083000Y-77097827D01*
X151083000Y-76450000D01*
X150166012Y-76450000D01*
X150198925Y-76392993D01*
X150233000Y-76265826D01*
X150233000Y-76134174D01*
X150198925Y-76007007D01*
X150166012Y-75950000D01*
X151083000Y-75950000D01*
X151083000Y-75302172D01*
X151082999Y-75302155D01*
X151076598Y-75242627D01*
X151076596Y-75242620D01*
X151026354Y-75107913D01*
X151026350Y-75107906D01*
X150940190Y-74992812D01*
X150940187Y-74992809D01*
X150825093Y-74906649D01*
X150825086Y-74906645D01*
X150690379Y-74856403D01*
X150690372Y-74856401D01*
X150630844Y-74850000D01*
X149983000Y-74850000D01*
X149983000Y-75766988D01*
X149925993Y-75734075D01*
X149798826Y-75700000D01*
X149667174Y-75700000D01*
X149540007Y-75734075D01*
X149483000Y-75766988D01*
X149483000Y-74850000D01*
X148835155Y-74850000D01*
X148775627Y-74856401D01*
X148775620Y-74856403D01*
X148640913Y-74906645D01*
X148640906Y-74906649D01*
X148525812Y-74992809D01*
X148525809Y-74992812D01*
X148439649Y-75107906D01*
X148439645Y-75107913D01*
X148389403Y-75242620D01*
X148389401Y-75242627D01*
X148383000Y-75302155D01*
X148383000Y-75950000D01*
X149299988Y-75950000D01*
X149267075Y-76007007D01*
X149233000Y-76134174D01*
X149233000Y-76265826D01*
X149267075Y-76392993D01*
X149299988Y-76450000D01*
X148383000Y-76450000D01*
X148383000Y-77097844D01*
X148389401Y-77157372D01*
X148389403Y-77157379D01*
X148439645Y-77292086D01*
X148439649Y-77292093D01*
X148525809Y-77407187D01*
X148525812Y-77407190D01*
X148640906Y-77493350D01*
X148640913Y-77493354D01*
X148775620Y-77543596D01*
X148775627Y-77543598D01*
X148835155Y-77549999D01*
X148835172Y-77550000D01*
X148956428Y-77550000D01*
X149023467Y-77569685D01*
X149069222Y-77622489D01*
X149079166Y-77691647D01*
X149050141Y-77755203D01*
X149044109Y-77761681D01*
X148950796Y-77854993D01*
X148825106Y-78027990D01*
X148728027Y-78218516D01*
X148728026Y-78218519D01*
X148661951Y-78421882D01*
X148628500Y-78633084D01*
X148628500Y-78846915D01*
X148661951Y-79058117D01*
X148728026Y-79261480D01*
X148728027Y-79261483D01*
X148790223Y-79383548D01*
X148825106Y-79452009D01*
X148950794Y-79625004D01*
X149101996Y-79776206D01*
X149181503Y-79833971D01*
X149224168Y-79889301D01*
X149230147Y-79958915D01*
X149197541Y-80020710D01*
X149164912Y-80044774D01*
X149020990Y-80118106D01*
X148847993Y-80243796D01*
X148696796Y-80394993D01*
X148571106Y-80567990D01*
X148474027Y-80758516D01*
X148474026Y-80758519D01*
X148407951Y-80961882D01*
X148374500Y-81173084D01*
X122687831Y-81173084D01*
X122625239Y-81131261D01*
X122625237Y-81131260D01*
X122477235Y-81069956D01*
X122477225Y-81069953D01*
X122320105Y-81038700D01*
X122320103Y-81038700D01*
X122159897Y-81038700D01*
X122159895Y-81038700D01*
X122002774Y-81069953D01*
X122002764Y-81069956D01*
X121854762Y-81131260D01*
X121854760Y-81131261D01*
X121721552Y-81220268D01*
X121721548Y-81220271D01*
X121608271Y-81333548D01*
X121608268Y-81333552D01*
X121519261Y-81466760D01*
X121519260Y-81466762D01*
X121457956Y-81614764D01*
X121457953Y-81614774D01*
X121426700Y-81771894D01*
X121426700Y-81771897D01*
X121426700Y-81932103D01*
X121426700Y-81932105D01*
X121426699Y-81932105D01*
X107745417Y-81932105D01*
X107811972Y-81801483D01*
X107821629Y-81771762D01*
X107836015Y-81727487D01*
X107836015Y-81727486D01*
X107878048Y-81598119D01*
X107878047Y-81598119D01*
X107878049Y-81598116D01*
X107911500Y-81386916D01*
X107911500Y-81173084D01*
X107878049Y-80961884D01*
X107811972Y-80758517D01*
X107811972Y-80758516D01*
X107762507Y-80661438D01*
X107714894Y-80567991D01*
X107589206Y-80394996D01*
X107438004Y-80243794D01*
X107358496Y-80186028D01*
X107315831Y-80130697D01*
X107309852Y-80061084D01*
X107342458Y-79999289D01*
X107365758Y-79982105D01*
X126126699Y-79982105D01*
X126157953Y-80139225D01*
X126157956Y-80139235D01*
X126219260Y-80287237D01*
X126219261Y-80287239D01*
X126308268Y-80420447D01*
X126308271Y-80420451D01*
X126421548Y-80533728D01*
X126421552Y-80533731D01*
X126554758Y-80622737D01*
X126554759Y-80622737D01*
X126554760Y-80622738D01*
X126554762Y-80622739D01*
X126702764Y-80684043D01*
X126702769Y-80684045D01*
X126702773Y-80684045D01*
X126702774Y-80684046D01*
X126859894Y-80715300D01*
X126859897Y-80715300D01*
X127020105Y-80715300D01*
X127125813Y-80694272D01*
X127177231Y-80684045D01*
X127325242Y-80622737D01*
X127458448Y-80533731D01*
X127571731Y-80420448D01*
X127660737Y-80287242D01*
X127722045Y-80139231D01*
X127740834Y-80044774D01*
X127753300Y-79982105D01*
X127753300Y-79821894D01*
X127722046Y-79664774D01*
X127722045Y-79664773D01*
X127722045Y-79664769D01*
X127660737Y-79516758D01*
X127571731Y-79383552D01*
X127571728Y-79383548D01*
X127458451Y-79270271D01*
X127458447Y-79270268D01*
X127325239Y-79181261D01*
X127325237Y-79181260D01*
X127177235Y-79119956D01*
X127177225Y-79119953D01*
X127020105Y-79088700D01*
X127020103Y-79088700D01*
X126859897Y-79088700D01*
X126859895Y-79088700D01*
X126702774Y-79119953D01*
X126702764Y-79119956D01*
X126554762Y-79181260D01*
X126554760Y-79181261D01*
X126421552Y-79270268D01*
X126421548Y-79270271D01*
X126308271Y-79383548D01*
X126308268Y-79383552D01*
X126219261Y-79516760D01*
X126219260Y-79516762D01*
X126157956Y-79664764D01*
X126157953Y-79664774D01*
X126126700Y-79821894D01*
X126126700Y-79821897D01*
X126126700Y-79982103D01*
X126126700Y-79982105D01*
X126126699Y-79982105D01*
X107365758Y-79982105D01*
X107375085Y-79975226D01*
X107519009Y-79901894D01*
X107692004Y-79776206D01*
X107843206Y-79625004D01*
X107968894Y-79452009D01*
X108065972Y-79261483D01*
X108132049Y-79058116D01*
X108165500Y-78846916D01*
X108165500Y-78633084D01*
X108132049Y-78421884D01*
X108065972Y-78218517D01*
X108065972Y-78218516D01*
X107968893Y-78027990D01*
X107843206Y-77854996D01*
X107692004Y-77703794D01*
X107668757Y-77686904D01*
X107626091Y-77631574D01*
X107620112Y-77561961D01*
X107652718Y-77500166D01*
X107667331Y-77487319D01*
X107675735Y-77481028D01*
X107766261Y-77413261D01*
X107853889Y-77296204D01*
X107904989Y-77159201D01*
X107908591Y-77125692D01*
X107911499Y-77098654D01*
X107911500Y-77098637D01*
X107911500Y-75301362D01*
X107911499Y-75301345D01*
X107908157Y-75270270D01*
X107904989Y-75240799D01*
X107853889Y-75103796D01*
X107766261Y-74986739D01*
X107649204Y-74899111D01*
X107512203Y-74848011D01*
X107451654Y-74841500D01*
X107451638Y-74841500D01*
X105654362Y-74841500D01*
X105654345Y-74841500D01*
X105593797Y-74848011D01*
X105593795Y-74848011D01*
X105456795Y-74899111D01*
X105339739Y-74986739D01*
X105252111Y-75103795D01*
X105201011Y-75240795D01*
X105201011Y-75240797D01*
X105194500Y-75301345D01*
X104215500Y-75301345D01*
X104215500Y-73664875D01*
X104215882Y-73655147D01*
X104229440Y-73482867D01*
X104229440Y-73482866D01*
X104232482Y-73463655D01*
X104271687Y-73300357D01*
X104277695Y-73281868D01*
X104341961Y-73126713D01*
X104350784Y-73109398D01*
X104438530Y-72966209D01*
X104449966Y-72950470D01*
X104559027Y-72822776D01*
X104572776Y-72809027D01*
X104700472Y-72699964D01*
X104716212Y-72688529D01*
X104859398Y-72600784D01*
X104876713Y-72591961D01*
X105031868Y-72527695D01*
X105050357Y-72521687D01*
X105213655Y-72482482D01*
X105232861Y-72479440D01*
X105380383Y-72467830D01*
X105405147Y-72465882D01*
X105414875Y-72465500D01*
X105434531Y-72465500D01*
X151105469Y-72465500D01*
X151125125Y-72465500D01*
X151134853Y-72465882D01*
G37*
%TD.AperFunction*%
%TD*%
M02*
