%TF.GenerationSoftware,KiCad,Pcbnew,10.0.2*%
%TF.CreationDate,2026-05-11T15:37:58-04:00*%
%TF.ProjectId,TorporTagBreakout,546f7270-6f72-4546-9167-427265616b6f,rev?*%
%TF.SameCoordinates,Original*%
%TF.FileFunction,Legend,Bot*%
%TF.FilePolarity,Positive*%
%FSLAX46Y46*%
G04 Gerber Fmt 4.6, Leading zero omitted, Abs format (unit mm)*
G04 Created by KiCad (PCBNEW 10.0.2) date 2026-05-11 15:37:58*
%MOMM*%
%LPD*%
G01*
G04 APERTURE LIST*
%ADD10C,0.300000*%
%ADD11C,0.150000*%
%ADD12C,0.120000*%
%ADD13R,1.700000X1.700000*%
%ADD14O,1.700000X1.700000*%
G04 APERTURE END LIST*
D10*
X142567855Y-117994757D02*
X142710713Y-117923328D01*
X142710713Y-117923328D02*
X142924998Y-117923328D01*
X142924998Y-117923328D02*
X143139284Y-117994757D01*
X143139284Y-117994757D02*
X143282141Y-118137614D01*
X143282141Y-118137614D02*
X143353570Y-118280471D01*
X143353570Y-118280471D02*
X143424998Y-118566185D01*
X143424998Y-118566185D02*
X143424998Y-118780471D01*
X143424998Y-118780471D02*
X143353570Y-119066185D01*
X143353570Y-119066185D02*
X143282141Y-119209042D01*
X143282141Y-119209042D02*
X143139284Y-119351900D01*
X143139284Y-119351900D02*
X142924998Y-119423328D01*
X142924998Y-119423328D02*
X142782141Y-119423328D01*
X142782141Y-119423328D02*
X142567855Y-119351900D01*
X142567855Y-119351900D02*
X142496427Y-119280471D01*
X142496427Y-119280471D02*
X142496427Y-118780471D01*
X142496427Y-118780471D02*
X142782141Y-118780471D01*
X141282141Y-119351900D02*
X141424998Y-119423328D01*
X141424998Y-119423328D02*
X141710713Y-119423328D01*
X141710713Y-119423328D02*
X141853570Y-119351900D01*
X141853570Y-119351900D02*
X141924998Y-119209042D01*
X141924998Y-119209042D02*
X141924998Y-118637614D01*
X141924998Y-118637614D02*
X141853570Y-118494757D01*
X141853570Y-118494757D02*
X141710713Y-118423328D01*
X141710713Y-118423328D02*
X141424998Y-118423328D01*
X141424998Y-118423328D02*
X141282141Y-118494757D01*
X141282141Y-118494757D02*
X141210713Y-118637614D01*
X141210713Y-118637614D02*
X141210713Y-118780471D01*
X141210713Y-118780471D02*
X141924998Y-118923328D01*
X140353570Y-119423328D02*
X140496427Y-119351900D01*
X140496427Y-119351900D02*
X140567856Y-119280471D01*
X140567856Y-119280471D02*
X140639284Y-119137614D01*
X140639284Y-119137614D02*
X140639284Y-118709042D01*
X140639284Y-118709042D02*
X140567856Y-118566185D01*
X140567856Y-118566185D02*
X140496427Y-118494757D01*
X140496427Y-118494757D02*
X140353570Y-118423328D01*
X140353570Y-118423328D02*
X140139284Y-118423328D01*
X140139284Y-118423328D02*
X139996427Y-118494757D01*
X139996427Y-118494757D02*
X139924999Y-118566185D01*
X139924999Y-118566185D02*
X139853570Y-118709042D01*
X139853570Y-118709042D02*
X139853570Y-119137614D01*
X139853570Y-119137614D02*
X139924999Y-119280471D01*
X139924999Y-119280471D02*
X139996427Y-119351900D01*
X139996427Y-119351900D02*
X140139284Y-119423328D01*
X140139284Y-119423328D02*
X140353570Y-119423328D01*
X139424998Y-118423328D02*
X138853570Y-118423328D01*
X139210713Y-119423328D02*
X139210713Y-118137614D01*
X139210713Y-118137614D02*
X139139284Y-117994757D01*
X139139284Y-117994757D02*
X138996427Y-117923328D01*
X138996427Y-117923328D02*
X138853570Y-117923328D01*
X138567855Y-118423328D02*
X137996427Y-118423328D01*
X138353570Y-119423328D02*
X138353570Y-118137614D01*
X138353570Y-118137614D02*
X138282141Y-117994757D01*
X138282141Y-117994757D02*
X138139284Y-117923328D01*
X138139284Y-117923328D02*
X137996427Y-117923328D01*
X137496427Y-119423328D02*
X137496427Y-118423328D01*
X137496427Y-118709042D02*
X137424998Y-118566185D01*
X137424998Y-118566185D02*
X137353570Y-118494757D01*
X137353570Y-118494757D02*
X137210712Y-118423328D01*
X137210712Y-118423328D02*
X137067855Y-118423328D01*
X135996427Y-119351900D02*
X136139284Y-119423328D01*
X136139284Y-119423328D02*
X136424999Y-119423328D01*
X136424999Y-119423328D02*
X136567856Y-119351900D01*
X136567856Y-119351900D02*
X136639284Y-119209042D01*
X136639284Y-119209042D02*
X136639284Y-118637614D01*
X136639284Y-118637614D02*
X136567856Y-118494757D01*
X136567856Y-118494757D02*
X136424999Y-118423328D01*
X136424999Y-118423328D02*
X136139284Y-118423328D01*
X136139284Y-118423328D02*
X135996427Y-118494757D01*
X135996427Y-118494757D02*
X135924999Y-118637614D01*
X135924999Y-118637614D02*
X135924999Y-118780471D01*
X135924999Y-118780471D02*
X136639284Y-118923328D01*
X135424999Y-118423328D02*
X135067856Y-119423328D01*
X134710713Y-118423328D02*
X135067856Y-119423328D01*
X135067856Y-119423328D02*
X135210713Y-119780471D01*
X135210713Y-119780471D02*
X135282142Y-119851900D01*
X135282142Y-119851900D02*
X135424999Y-119923328D01*
X132496428Y-118637614D02*
X132282142Y-118709042D01*
X132282142Y-118709042D02*
X132210713Y-118780471D01*
X132210713Y-118780471D02*
X132139285Y-118923328D01*
X132139285Y-118923328D02*
X132139285Y-119137614D01*
X132139285Y-119137614D02*
X132210713Y-119280471D01*
X132210713Y-119280471D02*
X132282142Y-119351900D01*
X132282142Y-119351900D02*
X132424999Y-119423328D01*
X132424999Y-119423328D02*
X132996428Y-119423328D01*
X132996428Y-119423328D02*
X132996428Y-117923328D01*
X132996428Y-117923328D02*
X132496428Y-117923328D01*
X132496428Y-117923328D02*
X132353571Y-117994757D01*
X132353571Y-117994757D02*
X132282142Y-118066185D01*
X132282142Y-118066185D02*
X132210713Y-118209042D01*
X132210713Y-118209042D02*
X132210713Y-118351900D01*
X132210713Y-118351900D02*
X132282142Y-118494757D01*
X132282142Y-118494757D02*
X132353571Y-118566185D01*
X132353571Y-118566185D02*
X132496428Y-118637614D01*
X132496428Y-118637614D02*
X132996428Y-118637614D01*
X131496428Y-119423328D02*
X131496428Y-118423328D01*
X131496428Y-118709042D02*
X131424999Y-118566185D01*
X131424999Y-118566185D02*
X131353571Y-118494757D01*
X131353571Y-118494757D02*
X131210713Y-118423328D01*
X131210713Y-118423328D02*
X131067856Y-118423328D01*
X130353571Y-119423328D02*
X130496428Y-119351900D01*
X130496428Y-119351900D02*
X130567857Y-119280471D01*
X130567857Y-119280471D02*
X130639285Y-119137614D01*
X130639285Y-119137614D02*
X130639285Y-118709042D01*
X130639285Y-118709042D02*
X130567857Y-118566185D01*
X130567857Y-118566185D02*
X130496428Y-118494757D01*
X130496428Y-118494757D02*
X130353571Y-118423328D01*
X130353571Y-118423328D02*
X130139285Y-118423328D01*
X130139285Y-118423328D02*
X129996428Y-118494757D01*
X129996428Y-118494757D02*
X129925000Y-118566185D01*
X129925000Y-118566185D02*
X129853571Y-118709042D01*
X129853571Y-118709042D02*
X129853571Y-119137614D01*
X129853571Y-119137614D02*
X129925000Y-119280471D01*
X129925000Y-119280471D02*
X129996428Y-119351900D01*
X129996428Y-119351900D02*
X130139285Y-119423328D01*
X130139285Y-119423328D02*
X130353571Y-119423328D01*
X129353571Y-118423328D02*
X129067857Y-119423328D01*
X129067857Y-119423328D02*
X128782142Y-118709042D01*
X128782142Y-118709042D02*
X128496428Y-119423328D01*
X128496428Y-119423328D02*
X128210714Y-118423328D01*
X127639285Y-118423328D02*
X127639285Y-119423328D01*
X127639285Y-118566185D02*
X127567856Y-118494757D01*
X127567856Y-118494757D02*
X127424999Y-118423328D01*
X127424999Y-118423328D02*
X127210713Y-118423328D01*
X127210713Y-118423328D02*
X127067856Y-118494757D01*
X127067856Y-118494757D02*
X126996428Y-118637614D01*
X126996428Y-118637614D02*
X126996428Y-119423328D01*
X124424999Y-117923328D02*
X125139285Y-117923328D01*
X125139285Y-117923328D02*
X125210713Y-118637614D01*
X125210713Y-118637614D02*
X125139285Y-118566185D01*
X125139285Y-118566185D02*
X124996428Y-118494757D01*
X124996428Y-118494757D02*
X124639285Y-118494757D01*
X124639285Y-118494757D02*
X124496428Y-118566185D01*
X124496428Y-118566185D02*
X124424999Y-118637614D01*
X124424999Y-118637614D02*
X124353570Y-118780471D01*
X124353570Y-118780471D02*
X124353570Y-119137614D01*
X124353570Y-119137614D02*
X124424999Y-119280471D01*
X124424999Y-119280471D02*
X124496428Y-119351900D01*
X124496428Y-119351900D02*
X124639285Y-119423328D01*
X124639285Y-119423328D02*
X124996428Y-119423328D01*
X124996428Y-119423328D02*
X125139285Y-119351900D01*
X125139285Y-119351900D02*
X125210713Y-119280471D01*
X122639285Y-117851900D02*
X123924999Y-119780471D01*
X122282142Y-117923328D02*
X121282142Y-117923328D01*
X121282142Y-117923328D02*
X121924999Y-119423328D01*
X119639285Y-117851900D02*
X120924999Y-119780471D01*
X119210713Y-118066185D02*
X119139285Y-117994757D01*
X119139285Y-117994757D02*
X118996428Y-117923328D01*
X118996428Y-117923328D02*
X118639285Y-117923328D01*
X118639285Y-117923328D02*
X118496428Y-117994757D01*
X118496428Y-117994757D02*
X118424999Y-118066185D01*
X118424999Y-118066185D02*
X118353570Y-118209042D01*
X118353570Y-118209042D02*
X118353570Y-118351900D01*
X118353570Y-118351900D02*
X118424999Y-118566185D01*
X118424999Y-118566185D02*
X119282142Y-119423328D01*
X119282142Y-119423328D02*
X118353570Y-119423328D01*
X117067857Y-117923328D02*
X117353571Y-117923328D01*
X117353571Y-117923328D02*
X117496428Y-117994757D01*
X117496428Y-117994757D02*
X117567857Y-118066185D01*
X117567857Y-118066185D02*
X117710714Y-118280471D01*
X117710714Y-118280471D02*
X117782142Y-118566185D01*
X117782142Y-118566185D02*
X117782142Y-119137614D01*
X117782142Y-119137614D02*
X117710714Y-119280471D01*
X117710714Y-119280471D02*
X117639285Y-119351900D01*
X117639285Y-119351900D02*
X117496428Y-119423328D01*
X117496428Y-119423328D02*
X117210714Y-119423328D01*
X117210714Y-119423328D02*
X117067857Y-119351900D01*
X117067857Y-119351900D02*
X116996428Y-119280471D01*
X116996428Y-119280471D02*
X116924999Y-119137614D01*
X116924999Y-119137614D02*
X116924999Y-118780471D01*
X116924999Y-118780471D02*
X116996428Y-118637614D01*
X116996428Y-118637614D02*
X117067857Y-118566185D01*
X117067857Y-118566185D02*
X117210714Y-118494757D01*
X117210714Y-118494757D02*
X117496428Y-118494757D01*
X117496428Y-118494757D02*
X117639285Y-118566185D01*
X117639285Y-118566185D02*
X117710714Y-118637614D01*
X117710714Y-118637614D02*
X117782142Y-118780471D01*
D11*
X107013333Y-73324819D02*
X107013333Y-74039104D01*
X107013333Y-74039104D02*
X107060952Y-74181961D01*
X107060952Y-74181961D02*
X107156190Y-74277200D01*
X107156190Y-74277200D02*
X107299047Y-74324819D01*
X107299047Y-74324819D02*
X107394285Y-74324819D01*
X106632380Y-73324819D02*
X106013333Y-73324819D01*
X106013333Y-73324819D02*
X106346666Y-73705771D01*
X106346666Y-73705771D02*
X106203809Y-73705771D01*
X106203809Y-73705771D02*
X106108571Y-73753390D01*
X106108571Y-73753390D02*
X106060952Y-73801009D01*
X106060952Y-73801009D02*
X106013333Y-73896247D01*
X106013333Y-73896247D02*
X106013333Y-74134342D01*
X106013333Y-74134342D02*
X106060952Y-74229580D01*
X106060952Y-74229580D02*
X106108571Y-74277200D01*
X106108571Y-74277200D02*
X106203809Y-74324819D01*
X106203809Y-74324819D02*
X106489523Y-74324819D01*
X106489523Y-74324819D02*
X106584761Y-74277200D01*
X106584761Y-74277200D02*
X106632380Y-74229580D01*
X150193333Y-73324819D02*
X150193333Y-74039104D01*
X150193333Y-74039104D02*
X150240952Y-74181961D01*
X150240952Y-74181961D02*
X150336190Y-74277200D01*
X150336190Y-74277200D02*
X150479047Y-74324819D01*
X150479047Y-74324819D02*
X150574285Y-74324819D01*
X149288571Y-73658152D02*
X149288571Y-74324819D01*
X149526666Y-73277200D02*
X149764761Y-73991485D01*
X149764761Y-73991485D02*
X149145714Y-73991485D01*
%TO.C,J3*%
D12*
X105350000Y-77470000D02*
X105350000Y-118170000D01*
X108010000Y-74870000D02*
X106680000Y-74870000D01*
X108010000Y-76200000D02*
X108010000Y-74870000D01*
X108010000Y-77470000D02*
X105350000Y-77470000D01*
X108010000Y-77470000D02*
X108010000Y-118170000D01*
X108010000Y-118170000D02*
X105350000Y-118170000D01*
%TO.C,J4*%
X148530000Y-77470000D02*
X148530000Y-118170000D01*
X151190000Y-74870000D02*
X149860000Y-74870000D01*
X151190000Y-76200000D02*
X151190000Y-74870000D01*
X151190000Y-77470000D02*
X148530000Y-77470000D01*
X151190000Y-77470000D02*
X151190000Y-118170000D01*
X151190000Y-118170000D02*
X148530000Y-118170000D01*
%TD*%
%LPC*%
D13*
%TO.C,J3*%
X106553000Y-76200000D03*
D14*
X106807000Y-78740000D03*
X106553000Y-81280000D03*
X106807000Y-83820000D03*
X106553000Y-86360000D03*
X106807000Y-88900000D03*
X106553000Y-91440000D03*
X106807000Y-93980000D03*
X106553000Y-96520000D03*
X106807000Y-99060000D03*
X106553000Y-101600000D03*
X106807000Y-104140000D03*
X106553000Y-106680000D03*
X106807000Y-109220000D03*
X106553000Y-111760000D03*
X106807000Y-114300000D03*
X106553000Y-116840000D03*
%TD*%
D13*
%TO.C,J4*%
X149733000Y-76200000D03*
D14*
X149987000Y-78740000D03*
X149733000Y-81280000D03*
X149987000Y-83820000D03*
X149733000Y-86360000D03*
X149987000Y-88900000D03*
X149733000Y-91440000D03*
X149987000Y-93980000D03*
X149733000Y-96520000D03*
X149987000Y-99060000D03*
X149733000Y-101600000D03*
X149987000Y-104140000D03*
X149733000Y-106680000D03*
X149987000Y-109220000D03*
X149733000Y-111760000D03*
X149987000Y-114300000D03*
X149733000Y-116840000D03*
%TD*%
%LPD*%
M02*
