M48
; DRILL file KiCad 10.0.2 date 2026-05-11T15:37:58
; FORMAT={-:-/ absolute / inch / decimal}
; #@! TF.CreationDate,2026-05-11T15:37:58-04:00
; #@! TF.GenerationSoftware,Kicad,Pcbnew,10.0.2
; #@! TF.FileFunction,Plated,1,2,PTH
FMAT,2
INCH
; #@! TA.AperFunction,Plated,PTH,ViaDrill
T1C0.0118
; #@! TA.AperFunction,Plated,PTH,ComponentDrill
T2C0.0394
%
G90
G05
T1
X4.272Y-4.337
X4.286Y-3.138
X4.298Y-4.444
X4.301Y-3.777
X4.305Y-3.851
X4.322Y-3.134
X4.327Y-4.262
X4.328Y-3.566
X4.333Y-3.77
X4.333Y-3.828
X4.337Y-4.134
X4.352Y-4.096
X4.359Y-4.232
X4.36Y-3.026
X4.36Y-3.563
X4.376Y-3.131
X4.376Y-4.4402
X4.398Y-3.046
X4.403Y-3.759
X4.411Y-3.853
X4.411Y-4.095
X4.416Y-4.139
X4.435Y-4.239
X4.438Y-3.561
X4.442Y-3.136
X4.45Y-3.048
X4.464Y-3.761
X4.472Y-4.4402
X4.476Y-4.264
X4.488Y-4.091
X4.494Y-4.024
X4.499Y-3.049
X4.501Y-3.554
X4.503Y-3.731
X4.518Y-3.136
X4.528Y-3.763
X4.528Y-4.137
X4.547Y-4.088
X4.549Y-4.235
X4.55Y-3.717
X4.554Y-3.048
X4.567Y-3.136
X4.584Y-3.566
X4.588Y-4.266
X4.599Y-4.4402
X4.603Y-4.134
X4.61Y-4.098
X4.623Y-3.044
X4.626Y-3.714
X4.633Y-3.761
X4.665Y-3.563
X4.671Y-3.133
X4.676Y-4.256
X4.687Y-4.1
X4.687Y-4.137
X4.689Y-4.4402
X4.696Y-3.714
X4.708Y-3.051
X4.708Y-3.759
X4.718Y-3.561
X4.735Y-4.027
X4.748Y-3.714
X4.752Y-4.098
X4.754Y-3.139
X4.767Y-4.135
X4.776Y-4.254
X4.777Y-3.863
X4.777Y-4.439
X4.786Y-3.051
X4.792Y-3.122
X4.796Y-3.563
X4.8Y-4.076
X4.805Y-4.465
X4.806Y-3.717
X4.809Y-3.763
X4.815Y-3.934
X4.815Y-4.016
X4.835Y-3.048
X4.835Y-4.1
X4.84Y-3.761
X4.842Y-3.734
X4.843Y-3.957
X4.843Y-4.447
X4.847Y-4.008
X4.848Y-3.129
X4.853Y-4.129
X4.859Y-4.24
X4.887Y-3.558
X4.901Y-3.126
X4.906Y-4.437
X4.911Y-3.717
X4.92Y-4.374
X4.943Y-3.558
X4.943Y-4.2752
X4.953Y-3.117
X4.962Y-3.062
X4.974Y-3.139
X4.989Y-3.532
X4.997Y-4.105
X4.999Y-3.247
X5.001Y-3.72
X5.014Y-3.5
X5.018Y-3.446
X5.02Y-4.172
X5.024Y-4.313
X5.025Y-3.27
X5.025Y-3.321
X5.0298Y-3.1478
X5.033Y-3.4
X5.045Y-3.993
X5.047Y-4.085
X5.077Y-4.068
X5.084Y-3.556
X5.099Y-3.292
X5.099Y-3.715
X5.103Y-3.254
X5.104Y-3.332
X5.104Y-3.522
X5.108Y-3.387
X5.108Y-3.434
X5.109Y-4.042
X5.114Y-3.48
X5.118Y-3.902
X5.121Y-3.558
X5.128Y-3.039
X5.131Y-4.013
X5.135Y-3.142
X5.148Y-3.978
X5.162Y-4.375
X5.167Y-3.729
X5.173Y-3.869
X5.191Y-3.183
X5.191Y-3.558
X5.206Y-3.805
X5.208Y-3.761
X5.214Y-3.961
X5.22Y-4.27
X5.224Y-3.041
X5.224Y-3.554
X5.226Y-3.795
X5.258Y-3.177
X5.267Y-4.435
X5.282Y-3.556
X5.309Y-3.044
X5.331Y-3.178
X5.357Y-3.344
X5.387Y-3.039
X5.394Y-3.183
X5.477Y-3.178
X5.48Y-3.039
X5.502Y-3.59
X5.546Y-4.022
X5.58Y-3.182
X5.594Y-3.036
X5.616Y-3.459
X5.623Y-3.175
X5.695Y-3.033
X5.702Y-3.182
X5.7654Y-3.1724
X5.782Y-3.031
X5.804Y-3.052
X5.805Y-3.168
T2
X4.195Y-3.0
X4.195Y-3.2
X4.195Y-3.4
X4.195Y-3.6
X4.195Y-3.8
X4.195Y-4.0
X4.195Y-4.2
X4.195Y-4.4
X4.195Y-4.6
X4.205Y-3.1
X4.205Y-3.3
X4.205Y-3.5
X4.205Y-3.7
X4.205Y-3.9
X4.205Y-4.1
X4.205Y-4.3
X4.205Y-4.5
X5.895Y-3.0
X5.895Y-3.2
X5.895Y-3.4
X5.895Y-3.6
X5.895Y-3.8
X5.895Y-4.0
X5.895Y-4.2
X5.895Y-4.4
X5.895Y-4.6
X5.905Y-3.1
X5.905Y-3.3
X5.905Y-3.5
X5.905Y-3.7
X5.905Y-3.9
X5.905Y-4.1
X5.905Y-4.3
X5.905Y-4.5
M30
