%TF.GenerationSoftware,KiCad,Pcbnew,10.0.2*%
%TF.CreationDate,2026-05-11T16:14:15-04:00*%
%TF.ProjectId,TorporTagBreakout,546f7270-6f72-4546-9167-427265616b6f,rev?*%
%TF.SameCoordinates,Original*%
%TF.FileFunction,Copper,L2,Bot*%
%TF.FilePolarity,Positive*%
%FSLAX46Y46*%
G04 Gerber Fmt 4.6, Leading zero omitted, Abs format (unit mm)*
G04 Created by KiCad (PCBNEW 10.0.2) date 2026-05-11 16:14:15*
%MOMM*%
%LPD*%
G01*
G04 APERTURE LIST*
%TA.AperFunction,ComponentPad*%
%ADD10R,1.700000X1.700000*%
%TD*%
%TA.AperFunction,ComponentPad*%
%ADD11O,1.700000X1.700000*%
%TD*%
%TA.AperFunction,ViaPad*%
%ADD12C,0.609600*%
%TD*%
%TA.AperFunction,Conductor*%
%ADD13C,0.152400*%
%TD*%
G04 APERTURE END LIST*
D10*
%TO.P,J3,1,Pin_1_1*%
%TO.N,/AT25_MISO*%
X106553000Y-76200000D03*
D11*
%TO.P,J3,2,Pin_2_2*%
%TO.N,/AT25_MOSI*%
X106807000Y-78740000D03*
%TO.P,J3,3,Pin_3_3*%
%TO.N,unconnected-(J3-Pin_3-Pad3)*%
X106553000Y-81280000D03*
%TO.P,J3,4,Pin_4_4*%
%TO.N,unconnected-(J3-Pin_4-Pad4)*%
X106807000Y-83820000D03*
%TO.P,J3,5,Pin_5_5*%
%TO.N,unconnected-(J3-Pin_5-Pad5)*%
X106553000Y-86360000D03*
%TO.P,J3,6,Pin_6_6*%
%TO.N,unconnected-(J3-Pin_6-Pad6)*%
X106807000Y-88900000D03*
%TO.P,J3,7,Pin_7_7*%
%TO.N,+3.3V*%
X106553000Y-91440000D03*
%TO.P,J3,8,Pin_8_8*%
%TO.N,/WKUP1*%
X106807000Y-93980000D03*
%TO.P,J3,9,Pin_9_9*%
%TO.N,/tmp119_sda*%
X106553000Y-96520000D03*
%TO.P,J3,10,Pin_10_10*%
%TO.N,/tmp119_scl*%
X106807000Y-99060000D03*
%TO.P,J3,11,Pin_11_11*%
%TO.N,/tmp119_rdy*%
X106553000Y-101600000D03*
%TO.P,J3,12,Pin_12_12*%
%TO.N,/ACCEL_nCS*%
X106807000Y-104140000D03*
%TO.P,J3,13,Pin_13_13*%
%TO.N,/ACCEL_SCK*%
X106553000Y-106680000D03*
%TO.P,J3,14,Pin_14_14*%
%TO.N,/ACCEL_MISO*%
X106807000Y-109220000D03*
%TO.P,J3,15,Pin_15_15*%
%TO.N,/ACCEL_MOSI*%
X106553000Y-111760000D03*
%TO.P,J3,16,Pin_16_16*%
%TO.N,/tmp119_pwr*%
X106807000Y-114300000D03*
%TO.P,J3,17,Pin_17_17*%
%TO.N,GND*%
X106553000Y-116840000D03*
%TD*%
D10*
%TO.P,J4,1,Pin_1_1*%
%TO.N,+3.3V*%
X149733000Y-76200000D03*
D11*
%TO.P,J4,2,Pin_2_2*%
%TO.N,/AT25_SCK*%
X149987000Y-78740000D03*
%TO.P,J4,3,Pin_3_3*%
%TO.N,/AT25_nCS*%
X149733000Y-81280000D03*
%TO.P,J4,4,Pin_4_4*%
%TO.N,unconnected-(J4-Pin_4-Pad4)*%
X149987000Y-83820000D03*
%TO.P,J4,5,Pin_5_5*%
%TO.N,unconnected-(J4-Pin_5-Pad5)*%
X149733000Y-86360000D03*
%TO.P,J4,6,Pin_6_6*%
%TO.N,unconnected-(J4-Pin_6-Pad6)*%
X149987000Y-88900000D03*
%TO.P,J4,7,Pin_7_7*%
%TO.N,unconnected-(J4-Pin_7-Pad7)*%
X149733000Y-91440000D03*
%TO.P,J4,8,Pin_8_8*%
%TO.N,/LED1*%
X149987000Y-93980000D03*
%TO.P,J4,9,Pin_9_9*%
%TO.N,unconnected-(J4-Pin_9-Pad9)*%
X149733000Y-96520000D03*
%TO.P,J4,10,Pin_10_10*%
%TO.N,unconnected-(J4-Pin_10-Pad10)*%
X149987000Y-99060000D03*
%TO.P,J4,11,Pin_11_11*%
%TO.N,unconnected-(J4-Pin_11-Pad11)*%
X149733000Y-101600000D03*
%TO.P,J4,12,Pin_12_12*%
%TO.N,unconnected-(J4-Pin_12-Pad12)*%
X149987000Y-104140000D03*
%TO.P,J4,13,Pin_13_13*%
%TO.N,unconnected-(J4-Pin_13-Pad13)*%
X149733000Y-106680000D03*
%TO.P,J4,14,Pin_14_14*%
%TO.N,unconnected-(J4-Pin_14-Pad14)*%
X149987000Y-109220000D03*
%TO.P,J4,15,Pin_15_15*%
%TO.N,/NC*%
X149733000Y-111760000D03*
%TO.P,J4,16,Pin_16_16*%
%TO.N,/LED2*%
X149987000Y-114300000D03*
%TO.P,J4,17,Pin_17_17*%
%TO.N,GND*%
X149733000Y-116840000D03*
%TD*%
D12*
%TO.N,+3.3V*%
X147447000Y-80467200D03*
X147421600Y-77520800D03*
%TO.N,/tmp119_pwr*%
X123113800Y-101803200D03*
X123012200Y-100507800D03*
X122047000Y-113411000D03*
X121920000Y-103530400D03*
%TO.N,GND*%
X128193800Y-103759000D03*
X115493800Y-103835200D03*
X122148600Y-95580200D03*
X115011200Y-95580200D03*
X108864400Y-79705200D03*
X133553200Y-80695800D03*
X127757405Y-79954604D03*
X129768600Y-102666800D03*
X110159800Y-105003600D03*
X120269000Y-102285800D03*
X116001800Y-79654400D03*
X111150400Y-79527400D03*
X132232400Y-96647000D03*
X110718600Y-107492800D03*
X119278400Y-94335600D03*
X115544600Y-107569000D03*
X131241800Y-94716600D03*
X125552200Y-90373200D03*
X112039400Y-97866200D03*
X120700800Y-104089200D03*
X122301000Y-102006400D03*
X112826800Y-79654400D03*
X120599200Y-94335600D03*
X122301000Y-99923600D03*
X127457200Y-87528400D03*
X111150400Y-112780000D03*
X129895600Y-88392000D03*
X137007600Y-80848200D03*
X124485400Y-79400400D03*
X109245400Y-95935800D03*
X116433600Y-90576400D03*
X142087600Y-77114400D03*
X123266200Y-104876600D03*
X139750800Y-91186000D03*
X119583200Y-95478600D03*
X134162800Y-90322400D03*
X113588800Y-112780000D03*
X119049800Y-104140000D03*
X109905800Y-108254800D03*
X127355600Y-88900000D03*
X121335800Y-98120200D03*
X115011200Y-105079800D03*
X114325400Y-90271600D03*
X127635000Y-84353400D03*
X136067800Y-84937600D03*
X124129800Y-90373200D03*
X112039400Y-104013000D03*
X131851400Y-80848200D03*
X118770400Y-108102400D03*
X112166400Y-105130600D03*
X129514600Y-94361000D03*
X112649000Y-107670600D03*
X136829800Y-77190600D03*
X110744000Y-90500200D03*
X130073400Y-90373200D03*
X122936000Y-95529400D03*
X129997200Y-99110800D03*
X133781800Y-112649000D03*
X114757200Y-79654400D03*
X116814600Y-112780000D03*
X132689600Y-77241400D03*
X122072400Y-94411800D03*
X109169200Y-112877600D03*
X144830800Y-80822800D03*
X128143000Y-101422200D03*
X129743200Y-87223600D03*
X110744000Y-76860400D03*
X129616200Y-82651600D03*
X111709200Y-77368400D03*
X146862800Y-76987400D03*
X122809000Y-77419200D03*
X141732000Y-80822800D03*
X132435600Y-100609400D03*
X130251200Y-77190600D03*
X127838200Y-86360000D03*
X119100600Y-112780000D03*
X146442015Y-80579815D03*
X114147600Y-102209600D03*
X119837200Y-90449400D03*
X110540800Y-104038400D03*
X113995200Y-103911400D03*
X135407400Y-80721200D03*
X121081800Y-105029000D03*
X121564400Y-77495400D03*
X129641600Y-84632800D03*
X117424200Y-77317600D03*
X121335800Y-112750600D03*
X117094000Y-104089200D03*
X114376200Y-94767400D03*
X124612400Y-112699800D03*
X109347000Y-97815400D03*
X119049800Y-105079800D03*
X112725200Y-90449400D03*
X140868400Y-102158800D03*
X128955800Y-103327200D03*
X122986800Y-94843600D03*
X121716800Y-79298800D03*
X117500400Y-94335600D03*
X132689600Y-90271600D03*
X116916200Y-105003600D03*
X134848600Y-77317600D03*
X118491000Y-90500200D03*
X131851400Y-90373200D03*
X142646400Y-87858600D03*
X111836200Y-95478600D03*
X115671600Y-77419200D03*
X129514600Y-83616800D03*
X114274600Y-77444600D03*
X126720600Y-89712800D03*
X113690400Y-108305600D03*
X132588000Y-108458000D03*
X144653000Y-77038200D03*
X132740400Y-96393000D03*
X129641600Y-89458800D03*
X130327400Y-101930200D03*
X122809000Y-104140000D03*
X139115800Y-80721200D03*
X139192000Y-77190600D03*
X124739400Y-94411800D03*
X113030000Y-77419200D03*
X115570000Y-94411800D03*
X118643400Y-79578200D03*
X119583200Y-77495400D03*
X117678200Y-95529400D03*
X131114800Y-111125000D03*
X127025400Y-94488000D03*
X131394200Y-98272600D03*
X121310400Y-108051600D03*
X123139200Y-79476600D03*
X132283200Y-95529400D03*
X130759200Y-101041200D03*
X121818400Y-90500200D03*
X120751600Y-79730600D03*
X129743200Y-86029800D03*
X126923800Y-104267000D03*
X123418600Y-107696000D03*
X109778800Y-79603600D03*
X142824200Y-80645000D03*
X126974600Y-82473800D03*
X113385600Y-95529400D03*
X123012200Y-112953800D03*
X127635000Y-83058000D03*
X109931200Y-90576400D03*
X116535200Y-108356400D03*
X129133600Y-90322400D03*
%TO.N,/tmp119_scl*%
X110058200Y-97231200D03*
X110058200Y-95758000D03*
%TO.N,/AT25_nCS*%
X130429000Y-79806800D03*
X126339600Y-79730600D03*
%TO.N,/AT25_MOSI*%
X126034800Y-77774800D03*
X125806200Y-79171800D03*
%TO.N,/ACCEL_MOSI*%
X125552200Y-108589000D03*
X124968000Y-111099600D03*
%TO.N,/ACCEL_nCS*%
X127609600Y-109550200D03*
X127508000Y-105968800D03*
%TO.N,/WKUP1*%
X108508800Y-110159800D03*
%TD*%
%TO.N,+3.3V*%
D13*
X147421600Y-80441800D02*
X147447000Y-80467200D01*
X147421600Y-77520800D02*
X147421600Y-80441800D01*
%TO.N,/tmp119_pwr*%
X121920000Y-103530400D02*
X122275600Y-103886000D01*
X123012200Y-100507800D02*
X123012200Y-101701600D01*
X123012200Y-101701600D02*
X123113800Y-101803200D01*
X122275600Y-113182400D02*
X122047000Y-113411000D01*
X122275600Y-103886000D02*
X122275600Y-113182400D01*
%TO.N,/tmp119_scl*%
X110058200Y-97028000D02*
X109905800Y-97180400D01*
X109956600Y-97231200D02*
X110058200Y-97231200D01*
X109905800Y-97180400D02*
X109956600Y-97231200D01*
X110058200Y-95758000D02*
X110058200Y-97028000D01*
%TO.N,/AT25_nCS*%
X126339600Y-79730600D02*
X126695200Y-79375000D01*
X129997200Y-79375000D02*
X130429000Y-79806800D01*
X126695200Y-79375000D02*
X129997200Y-79375000D01*
%TO.N,/AT25_MOSI*%
X126034800Y-78943200D02*
X125806200Y-79171800D01*
X126034800Y-77774800D02*
X126034800Y-78943200D01*
%TO.N,/ACCEL_MOSI*%
X124917200Y-109953574D02*
X125552200Y-109318574D01*
X124917200Y-111048800D02*
X124917200Y-109953574D01*
X124968000Y-111099600D02*
X124917200Y-111048800D01*
X125552200Y-109318574D02*
X125552200Y-108589000D01*
%TO.N,/ACCEL_nCS*%
X127508000Y-105968800D02*
X127508000Y-109448600D01*
X127508000Y-109448600D02*
X127609600Y-109550200D01*
%TO.N,/WKUP1*%
X106807000Y-93980000D02*
X108508800Y-95681800D01*
X108508800Y-95681800D02*
X108508800Y-110236000D01*
X108508800Y-110236000D02*
X108508800Y-110159800D01*
%TD*%
%TA.AperFunction,Conductor*%
%TO.N,GND*%
G36*
X109247848Y-96067747D02*
G01*
X109259291Y-96068156D01*
X109279564Y-96082232D01*
X109302012Y-96092484D01*
X109309715Y-96103166D01*
X109317609Y-96108647D01*
X109335908Y-96139489D01*
X109337463Y-96143242D01*
X109426469Y-96276448D01*
X109436593Y-96286572D01*
X109470620Y-96348882D01*
X109473500Y-96375669D01*
X109473500Y-96613530D01*
X109453498Y-96681651D01*
X109436595Y-96702625D01*
X109426473Y-96712746D01*
X109426468Y-96712752D01*
X109337462Y-96845958D01*
X109337460Y-96845962D01*
X109335907Y-96849713D01*
X109334567Y-96851375D01*
X109334544Y-96851419D01*
X109334535Y-96851414D01*
X109291357Y-96904993D01*
X109223993Y-96927411D01*
X109155202Y-96909850D01*
X109106826Y-96857887D01*
X109093500Y-96801491D01*
X109093500Y-96187708D01*
X109096725Y-96176721D01*
X109095502Y-96165336D01*
X109106549Y-96143266D01*
X109113502Y-96119587D01*
X109122155Y-96112088D01*
X109127281Y-96101849D01*
X109148506Y-96089255D01*
X109167158Y-96073094D01*
X109178493Y-96071464D01*
X109188340Y-96065622D01*
X109213000Y-96066502D01*
X109237432Y-96062990D01*
X109247848Y-96067747D01*
G37*
%TD.AperFunction*%
%TA.AperFunction,Conductor*%
G36*
X151134930Y-72465888D02*
G01*
X151306975Y-72479428D01*
X151326503Y-72482521D01*
X151407991Y-72502084D01*
X151489480Y-72521648D01*
X151508283Y-72527758D01*
X151663128Y-72591896D01*
X151680744Y-72600871D01*
X151823661Y-72688451D01*
X151839651Y-72700070D01*
X151967098Y-72808922D01*
X151981077Y-72822901D01*
X152089929Y-72950348D01*
X152101552Y-72966344D01*
X152189127Y-73109254D01*
X152198103Y-73126871D01*
X152262241Y-73281716D01*
X152268351Y-73300520D01*
X152307478Y-73463496D01*
X152310571Y-73483024D01*
X152324112Y-73655069D01*
X152324500Y-73664955D01*
X152324500Y-119375044D01*
X152324112Y-119384930D01*
X152310571Y-119556975D01*
X152307478Y-119576503D01*
X152268351Y-119739479D01*
X152262241Y-119758283D01*
X152198103Y-119913128D01*
X152189127Y-119930745D01*
X152101552Y-120073655D01*
X152089929Y-120089651D01*
X151981077Y-120217098D01*
X151967098Y-120231077D01*
X151839651Y-120339929D01*
X151823655Y-120351552D01*
X151680745Y-120439127D01*
X151663128Y-120448103D01*
X151508283Y-120512241D01*
X151489479Y-120518351D01*
X151326503Y-120557478D01*
X151306975Y-120560571D01*
X151134930Y-120574112D01*
X151125044Y-120574500D01*
X105414956Y-120574500D01*
X105405070Y-120574112D01*
X105233024Y-120560571D01*
X105213496Y-120557478D01*
X105050520Y-120518351D01*
X105031716Y-120512241D01*
X104876871Y-120448103D01*
X104859254Y-120439127D01*
X104787799Y-120395339D01*
X104716340Y-120351549D01*
X104700348Y-120339929D01*
X104572901Y-120231077D01*
X104558922Y-120217098D01*
X104450070Y-120089651D01*
X104438451Y-120073661D01*
X104350871Y-119930744D01*
X104341896Y-119913128D01*
X104277758Y-119758283D01*
X104271648Y-119739479D01*
X104232521Y-119576503D01*
X104229428Y-119556975D01*
X104215888Y-119384930D01*
X104215500Y-119375044D01*
X104215500Y-75301350D01*
X105194500Y-75301350D01*
X105194500Y-77098649D01*
X105201009Y-77159196D01*
X105201011Y-77159204D01*
X105252110Y-77296202D01*
X105252112Y-77296207D01*
X105339738Y-77413261D01*
X105456792Y-77500887D01*
X105456794Y-77500888D01*
X105456796Y-77500889D01*
X105515875Y-77522924D01*
X105593795Y-77551988D01*
X105593803Y-77551990D01*
X105654350Y-77558499D01*
X105654355Y-77558499D01*
X105654362Y-77558500D01*
X105763099Y-77558500D01*
X105831220Y-77578502D01*
X105877713Y-77632158D01*
X105887817Y-77702432D01*
X105858323Y-77767012D01*
X105852194Y-77773595D01*
X105770798Y-77854990D01*
X105770796Y-77854993D01*
X105645108Y-78027987D01*
X105548029Y-78218515D01*
X105548026Y-78218521D01*
X105481952Y-78421878D01*
X105481951Y-78421883D01*
X105481951Y-78421884D01*
X105448500Y-78633084D01*
X105448500Y-78846916D01*
X105481951Y-79058116D01*
X105481952Y-79058121D01*
X105519952Y-79175073D01*
X105548028Y-79261483D01*
X105645106Y-79452009D01*
X105770794Y-79625004D01*
X105770796Y-79625006D01*
X105770798Y-79625009D01*
X105921990Y-79776201D01*
X105921993Y-79776203D01*
X105921996Y-79776206D01*
X105959599Y-79803526D01*
X105998863Y-79832053D01*
X106042217Y-79888275D01*
X106048292Y-79959011D01*
X106015161Y-80021803D01*
X105982006Y-80046254D01*
X105855355Y-80110786D01*
X105840987Y-80118108D01*
X105667993Y-80243796D01*
X105667990Y-80243798D01*
X105516798Y-80394990D01*
X105516796Y-80394993D01*
X105391108Y-80567987D01*
X105294029Y-80758515D01*
X105294026Y-80758521D01*
X105227952Y-80961878D01*
X105227951Y-80961883D01*
X105227951Y-80961884D01*
X105194500Y-81173084D01*
X105194500Y-81386916D01*
X105227951Y-81598116D01*
X105227952Y-81598121D01*
X105294026Y-81801478D01*
X105294028Y-81801483D01*
X105391106Y-81992009D01*
X105516794Y-82165004D01*
X105516796Y-82165006D01*
X105516798Y-82165009D01*
X105667990Y-82316201D01*
X105667993Y-82316203D01*
X105667996Y-82316206D01*
X105840991Y-82441894D01*
X105982005Y-82513744D01*
X106033620Y-82562491D01*
X106050686Y-82631406D01*
X106027786Y-82698607D01*
X105998864Y-82727946D01*
X105921989Y-82783799D01*
X105770798Y-82934990D01*
X105770796Y-82934993D01*
X105645108Y-83107987D01*
X105548029Y-83298515D01*
X105548026Y-83298521D01*
X105481952Y-83501878D01*
X105481951Y-83501883D01*
X105481951Y-83501884D01*
X105448500Y-83713084D01*
X105448500Y-83926916D01*
X105481951Y-84138116D01*
X105481952Y-84138121D01*
X105548026Y-84341478D01*
X105548028Y-84341483D01*
X105645106Y-84532009D01*
X105770794Y-84705004D01*
X105770796Y-84705006D01*
X105770798Y-84705009D01*
X105921990Y-84856201D01*
X105921993Y-84856203D01*
X105921996Y-84856206D01*
X105998863Y-84912053D01*
X106042217Y-84968275D01*
X106048292Y-85039011D01*
X106015161Y-85101803D01*
X105982006Y-85126254D01*
X105855355Y-85190786D01*
X105840987Y-85198108D01*
X105667993Y-85323796D01*
X105667990Y-85323798D01*
X105516798Y-85474990D01*
X105516796Y-85474993D01*
X105391108Y-85647987D01*
X105294029Y-85838515D01*
X105294026Y-85838521D01*
X105227952Y-86041878D01*
X105227951Y-86041883D01*
X105227951Y-86041884D01*
X105194500Y-86253084D01*
X105194500Y-86466916D01*
X105227951Y-86678116D01*
X105227952Y-86678121D01*
X105294026Y-86881478D01*
X105294028Y-86881483D01*
X105391106Y-87072009D01*
X105516794Y-87245004D01*
X105516796Y-87245006D01*
X105516798Y-87245009D01*
X105667990Y-87396201D01*
X105667993Y-87396203D01*
X105667996Y-87396206D01*
X105840991Y-87521894D01*
X105982005Y-87593744D01*
X106033620Y-87642491D01*
X106050686Y-87711406D01*
X106027786Y-87778607D01*
X105998864Y-87807946D01*
X105921989Y-87863799D01*
X105770798Y-88014990D01*
X105770796Y-88014993D01*
X105645108Y-88187987D01*
X105548029Y-88378515D01*
X105548026Y-88378521D01*
X105481952Y-88581878D01*
X105481951Y-88581883D01*
X105481951Y-88581884D01*
X105448500Y-88793084D01*
X105448500Y-89006916D01*
X105481951Y-89218116D01*
X105481952Y-89218121D01*
X105548026Y-89421478D01*
X105548028Y-89421483D01*
X105645106Y-89612009D01*
X105770794Y-89785004D01*
X105770796Y-89785006D01*
X105770798Y-89785009D01*
X105921990Y-89936201D01*
X105921993Y-89936203D01*
X105921996Y-89936206D01*
X105998863Y-89992053D01*
X106042217Y-90048275D01*
X106048292Y-90119011D01*
X106015161Y-90181803D01*
X105982006Y-90206254D01*
X105855355Y-90270786D01*
X105840987Y-90278108D01*
X105667993Y-90403796D01*
X105667990Y-90403798D01*
X105516798Y-90554990D01*
X105516796Y-90554993D01*
X105391108Y-90727987D01*
X105294029Y-90918515D01*
X105294026Y-90918521D01*
X105227952Y-91121878D01*
X105227951Y-91121883D01*
X105227951Y-91121884D01*
X105194500Y-91333084D01*
X105194500Y-91546916D01*
X105227951Y-91758116D01*
X105227952Y-91758121D01*
X105294026Y-91961478D01*
X105294028Y-91961483D01*
X105391106Y-92152009D01*
X105516794Y-92325004D01*
X105516796Y-92325006D01*
X105516798Y-92325009D01*
X105667990Y-92476201D01*
X105667993Y-92476203D01*
X105667996Y-92476206D01*
X105840991Y-92601894D01*
X105982005Y-92673744D01*
X106033620Y-92722491D01*
X106050686Y-92791406D01*
X106027786Y-92858607D01*
X105998864Y-92887946D01*
X105921989Y-92943799D01*
X105770798Y-93094990D01*
X105770796Y-93094993D01*
X105645108Y-93267987D01*
X105548029Y-93458515D01*
X105548026Y-93458521D01*
X105481952Y-93661878D01*
X105481951Y-93661883D01*
X105481951Y-93661884D01*
X105448500Y-93873084D01*
X105448500Y-94086916D01*
X105481951Y-94298116D01*
X105481952Y-94298121D01*
X105526103Y-94434005D01*
X105548028Y-94501483D01*
X105645106Y-94692009D01*
X105770794Y-94865004D01*
X105770796Y-94865006D01*
X105770798Y-94865009D01*
X105921990Y-95016201D01*
X105921993Y-95016203D01*
X105921996Y-95016206D01*
X105950979Y-95037263D01*
X105998863Y-95072053D01*
X106042217Y-95128275D01*
X106048292Y-95199011D01*
X106015161Y-95261803D01*
X105982006Y-95286254D01*
X105855355Y-95350786D01*
X105840987Y-95358108D01*
X105667993Y-95483796D01*
X105667990Y-95483798D01*
X105516798Y-95634990D01*
X105516796Y-95634993D01*
X105391108Y-95807987D01*
X105294029Y-95998515D01*
X105294026Y-95998521D01*
X105227952Y-96201878D01*
X105227951Y-96201883D01*
X105227951Y-96201884D01*
X105194500Y-96413084D01*
X105194500Y-96626916D01*
X105222150Y-96801491D01*
X105227952Y-96838121D01*
X105278590Y-96993969D01*
X105294028Y-97041483D01*
X105391106Y-97232009D01*
X105391108Y-97232012D01*
X105422182Y-97274781D01*
X105516794Y-97405004D01*
X105516796Y-97405006D01*
X105516798Y-97405009D01*
X105667990Y-97556201D01*
X105667993Y-97556203D01*
X105667996Y-97556206D01*
X105840991Y-97681894D01*
X105982005Y-97753744D01*
X106033620Y-97802491D01*
X106050686Y-97871406D01*
X106027786Y-97938607D01*
X105998864Y-97967946D01*
X105921989Y-98023799D01*
X105770798Y-98174990D01*
X105770796Y-98174993D01*
X105645108Y-98347987D01*
X105548029Y-98538515D01*
X105548026Y-98538521D01*
X105481952Y-98741878D01*
X105481951Y-98741883D01*
X105481951Y-98741884D01*
X105448500Y-98953084D01*
X105448500Y-99166916D01*
X105481951Y-99378116D01*
X105481952Y-99378121D01*
X105548026Y-99581478D01*
X105548028Y-99581483D01*
X105645106Y-99772009D01*
X105770794Y-99945004D01*
X105770796Y-99945006D01*
X105770798Y-99945009D01*
X105921990Y-100096201D01*
X105921993Y-100096203D01*
X105921996Y-100096206D01*
X105998863Y-100152053D01*
X106042217Y-100208275D01*
X106048292Y-100279011D01*
X106015161Y-100341803D01*
X105982006Y-100366254D01*
X105861428Y-100427693D01*
X105840987Y-100438108D01*
X105667993Y-100563796D01*
X105667990Y-100563798D01*
X105516798Y-100714990D01*
X105516796Y-100714993D01*
X105391108Y-100887987D01*
X105294029Y-101078515D01*
X105294026Y-101078521D01*
X105227952Y-101281878D01*
X105227951Y-101281883D01*
X105227951Y-101281884D01*
X105194500Y-101493084D01*
X105194500Y-101706916D01*
X105197063Y-101723096D01*
X105227952Y-101918121D01*
X105294026Y-102121478D01*
X105294028Y-102121483D01*
X105391106Y-102312009D01*
X105391108Y-102312012D01*
X105422182Y-102354781D01*
X105516794Y-102485004D01*
X105516796Y-102485006D01*
X105516798Y-102485009D01*
X105667990Y-102636201D01*
X105667993Y-102636203D01*
X105667996Y-102636206D01*
X105840991Y-102761894D01*
X105982005Y-102833744D01*
X106033620Y-102882491D01*
X106050686Y-102951406D01*
X106027786Y-103018607D01*
X105998864Y-103047946D01*
X105921989Y-103103799D01*
X105770798Y-103254990D01*
X105770796Y-103254993D01*
X105645108Y-103427987D01*
X105548029Y-103618515D01*
X105548026Y-103618521D01*
X105481952Y-103821878D01*
X105481951Y-103821883D01*
X105481951Y-103821884D01*
X105448500Y-104033084D01*
X105448500Y-104246916D01*
X105472747Y-104400003D01*
X105481952Y-104458121D01*
X105548026Y-104661478D01*
X105548028Y-104661483D01*
X105645106Y-104852009D01*
X105770794Y-105025004D01*
X105770796Y-105025006D01*
X105770798Y-105025009D01*
X105921990Y-105176201D01*
X105921993Y-105176203D01*
X105921996Y-105176206D01*
X105998863Y-105232053D01*
X106042217Y-105288275D01*
X106048292Y-105359011D01*
X106015161Y-105421803D01*
X105982006Y-105446254D01*
X105855355Y-105510786D01*
X105840987Y-105518108D01*
X105667993Y-105643796D01*
X105667990Y-105643798D01*
X105516798Y-105794990D01*
X105516796Y-105794993D01*
X105391108Y-105967987D01*
X105294029Y-106158515D01*
X105294026Y-106158521D01*
X105227952Y-106361878D01*
X105227951Y-106361883D01*
X105227951Y-106361884D01*
X105194500Y-106573084D01*
X105194500Y-106786916D01*
X105227951Y-106998116D01*
X105227952Y-106998121D01*
X105294026Y-107201478D01*
X105294028Y-107201483D01*
X105391106Y-107392009D01*
X105391108Y-107392012D01*
X105422182Y-107434781D01*
X105516794Y-107565004D01*
X105516796Y-107565006D01*
X105516798Y-107565009D01*
X105667990Y-107716201D01*
X105667993Y-107716203D01*
X105667996Y-107716206D01*
X105840991Y-107841894D01*
X105982005Y-107913744D01*
X106033620Y-107962491D01*
X106050686Y-108031406D01*
X106027786Y-108098607D01*
X105998864Y-108127946D01*
X105921989Y-108183799D01*
X105770798Y-108334990D01*
X105770796Y-108334993D01*
X105645108Y-108507987D01*
X105548029Y-108698515D01*
X105548026Y-108698521D01*
X105481952Y-108901878D01*
X105481951Y-108901883D01*
X105481951Y-108901884D01*
X105448500Y-109113084D01*
X105448500Y-109326916D01*
X105459371Y-109395551D01*
X105481952Y-109538121D01*
X105548026Y-109741478D01*
X105548028Y-109741483D01*
X105645106Y-109932009D01*
X105770794Y-110105004D01*
X105770796Y-110105006D01*
X105770798Y-110105009D01*
X105921990Y-110256201D01*
X105921993Y-110256203D01*
X105921996Y-110256206D01*
X105942272Y-110270937D01*
X105998863Y-110312053D01*
X106042217Y-110368275D01*
X106048292Y-110439011D01*
X106015161Y-110501803D01*
X105982006Y-110526254D01*
X105945137Y-110545041D01*
X105840987Y-110598108D01*
X105667993Y-110723796D01*
X105667990Y-110723798D01*
X105516798Y-110874990D01*
X105516796Y-110874993D01*
X105391108Y-111047987D01*
X105294029Y-111238515D01*
X105294026Y-111238521D01*
X105227952Y-111441878D01*
X105227951Y-111441883D01*
X105227951Y-111441884D01*
X105194500Y-111653084D01*
X105194500Y-111866916D01*
X105227951Y-112078116D01*
X105227952Y-112078121D01*
X105294026Y-112281478D01*
X105294028Y-112281483D01*
X105391106Y-112472009D01*
X105516794Y-112645004D01*
X105516796Y-112645006D01*
X105516798Y-112645009D01*
X105667990Y-112796201D01*
X105667993Y-112796203D01*
X105667996Y-112796206D01*
X105840991Y-112921894D01*
X105982005Y-112993744D01*
X106033620Y-113042491D01*
X106050686Y-113111406D01*
X106027786Y-113178607D01*
X105998864Y-113207946D01*
X105921989Y-113263799D01*
X105770798Y-113414990D01*
X105770796Y-113414993D01*
X105645108Y-113587987D01*
X105548029Y-113778515D01*
X105548026Y-113778521D01*
X105481952Y-113981878D01*
X105481951Y-113981883D01*
X105481951Y-113981884D01*
X105448500Y-114193084D01*
X105448500Y-114406916D01*
X105481951Y-114618116D01*
X105481952Y-114618121D01*
X105548026Y-114821478D01*
X105548028Y-114821483D01*
X105645106Y-115012009D01*
X105770794Y-115185004D01*
X105770796Y-115185006D01*
X105770798Y-115185009D01*
X105921990Y-115336201D01*
X105921993Y-115336203D01*
X105921996Y-115336206D01*
X105990499Y-115385976D01*
X105999317Y-115392383D01*
X106042671Y-115448605D01*
X106048746Y-115519342D01*
X106015614Y-115582133D01*
X105982459Y-115606586D01*
X105841250Y-115678535D01*
X105668320Y-115804177D01*
X105517177Y-115955320D01*
X105391536Y-116128249D01*
X105294493Y-116318707D01*
X105294490Y-116318713D01*
X105228440Y-116521995D01*
X105218302Y-116586000D01*
X106122297Y-116586000D01*
X106087075Y-116647007D01*
X106053000Y-116774174D01*
X106053000Y-116905826D01*
X106087075Y-117032993D01*
X106122297Y-117094000D01*
X105218302Y-117094000D01*
X105228440Y-117158004D01*
X105294490Y-117361286D01*
X105294493Y-117361292D01*
X105391536Y-117551750D01*
X105517177Y-117724679D01*
X105668320Y-117875822D01*
X105841249Y-118001463D01*
X106031707Y-118098506D01*
X106031713Y-118098509D01*
X106234998Y-118164560D01*
X106299000Y-118174696D01*
X106299000Y-117270702D01*
X106360007Y-117305925D01*
X106487174Y-117340000D01*
X106618826Y-117340000D01*
X106745993Y-117305925D01*
X106807000Y-117270702D01*
X106807000Y-118174696D01*
X106871001Y-118164560D01*
X107074286Y-118098509D01*
X107074292Y-118098506D01*
X107264750Y-118001463D01*
X107437679Y-117875822D01*
X107588822Y-117724679D01*
X107714463Y-117551750D01*
X107811506Y-117361292D01*
X107811509Y-117361286D01*
X107877559Y-117158004D01*
X107887698Y-117094000D01*
X106983703Y-117094000D01*
X107018925Y-117032993D01*
X107053000Y-116905826D01*
X107053000Y-116774174D01*
X107018925Y-116647007D01*
X106983703Y-116586000D01*
X107887697Y-116586000D01*
X107877559Y-116521995D01*
X107811509Y-116318713D01*
X107811506Y-116318707D01*
X107714463Y-116128249D01*
X107588822Y-115955320D01*
X107437679Y-115804177D01*
X107360636Y-115748202D01*
X107317282Y-115691979D01*
X107311207Y-115621243D01*
X107344339Y-115558451D01*
X107377491Y-115534000D01*
X107519009Y-115461894D01*
X107692004Y-115336206D01*
X107843206Y-115185004D01*
X107968894Y-115012009D01*
X108065972Y-114821483D01*
X108132049Y-114618116D01*
X108165500Y-114406916D01*
X108165500Y-114193084D01*
X108132049Y-113981884D01*
X108065972Y-113778517D01*
X107968894Y-113587991D01*
X107843206Y-113414996D01*
X107843203Y-113414993D01*
X107843201Y-113414990D01*
X107692009Y-113263798D01*
X107692006Y-113263796D01*
X107692004Y-113263794D01*
X107519009Y-113138106D01*
X107377992Y-113066254D01*
X107326379Y-113017508D01*
X107309313Y-112948593D01*
X107332214Y-112881391D01*
X107361133Y-112852055D01*
X107438004Y-112796206D01*
X107589206Y-112645004D01*
X107714894Y-112472009D01*
X107811972Y-112281483D01*
X107878049Y-112078116D01*
X107911500Y-111866916D01*
X107911500Y-111653084D01*
X107878049Y-111441884D01*
X107811972Y-111238517D01*
X107714894Y-111047991D01*
X107589206Y-110874996D01*
X107589203Y-110874993D01*
X107589201Y-110874990D01*
X107438006Y-110723795D01*
X107361136Y-110667946D01*
X107360663Y-110667333D01*
X107359938Y-110667065D01*
X107339026Y-110639273D01*
X107317782Y-110611723D01*
X107317715Y-110610951D01*
X107317251Y-110610334D01*
X107314685Y-110575662D01*
X107311707Y-110540987D01*
X107312068Y-110540302D01*
X107312011Y-110539531D01*
X107328608Y-110508955D01*
X107344839Y-110478196D01*
X107345635Y-110477589D01*
X107345882Y-110477135D01*
X107353872Y-110471314D01*
X107374538Y-110455572D01*
X107376205Y-110454656D01*
X107519009Y-110381894D01*
X107551009Y-110358644D01*
X107557974Y-110354819D01*
X107585194Y-110348827D01*
X107611438Y-110339463D01*
X107619362Y-110341305D01*
X107627311Y-110339556D01*
X107653448Y-110349231D01*
X107680590Y-110355542D01*
X107686261Y-110361377D01*
X107693892Y-110364202D01*
X107710645Y-110386467D01*
X107730071Y-110406455D01*
X107735042Y-110417038D01*
X107788063Y-110545042D01*
X107823521Y-110598108D01*
X107877068Y-110678247D01*
X107877073Y-110678253D01*
X107990346Y-110791526D01*
X107990352Y-110791531D01*
X108123558Y-110880537D01*
X108271569Y-110941845D01*
X108428697Y-110973100D01*
X108588903Y-110973100D01*
X108746031Y-110941845D01*
X108894042Y-110880537D01*
X109027248Y-110791531D01*
X109140531Y-110678248D01*
X109229537Y-110545042D01*
X109290845Y-110397031D01*
X109322100Y-110239903D01*
X109322100Y-110079697D01*
X109290845Y-109922569D01*
X109229537Y-109774558D01*
X109140531Y-109641352D01*
X109140526Y-109641346D01*
X109130405Y-109631225D01*
X109096379Y-109568913D01*
X109093500Y-109542130D01*
X109093500Y-103450293D01*
X121106700Y-103450293D01*
X121106700Y-103610506D01*
X121116607Y-103660308D01*
X121137955Y-103767631D01*
X121199263Y-103915642D01*
X121258734Y-104004647D01*
X121288268Y-104048847D01*
X121288273Y-104048853D01*
X121401546Y-104162126D01*
X121401552Y-104162131D01*
X121534758Y-104251137D01*
X121613117Y-104283594D01*
X121668399Y-104328142D01*
X121690820Y-104395505D01*
X121690900Y-104400003D01*
X121690900Y-112603442D01*
X121670898Y-112671563D01*
X121634903Y-112708207D01*
X121528548Y-112779271D01*
X121415273Y-112892546D01*
X121415268Y-112892552D01*
X121326263Y-113025758D01*
X121264956Y-113173765D01*
X121264955Y-113173768D01*
X121233700Y-113330893D01*
X121233700Y-113491106D01*
X121252972Y-113587991D01*
X121264955Y-113648231D01*
X121326263Y-113796242D01*
X121385734Y-113885247D01*
X121415268Y-113929447D01*
X121415273Y-113929453D01*
X121528546Y-114042726D01*
X121528552Y-114042731D01*
X121661758Y-114131737D01*
X121809769Y-114193045D01*
X121966897Y-114224300D01*
X122127103Y-114224300D01*
X122284231Y-114193045D01*
X122432242Y-114131737D01*
X122565448Y-114042731D01*
X122678731Y-113929448D01*
X122767737Y-113796242D01*
X122829045Y-113648231D01*
X122860300Y-113491103D01*
X122860300Y-113330897D01*
X122857867Y-113318667D01*
X122859540Y-113267604D01*
X122859222Y-113267563D01*
X122859647Y-113264330D01*
X122859741Y-113261460D01*
X122860300Y-113259377D01*
X122860300Y-111019493D01*
X124154700Y-111019493D01*
X124154700Y-111179706D01*
X124185955Y-111336831D01*
X124247263Y-111484842D01*
X124306734Y-111573847D01*
X124336268Y-111618047D01*
X124336273Y-111618053D01*
X124449546Y-111731326D01*
X124449552Y-111731331D01*
X124582758Y-111820337D01*
X124730769Y-111881645D01*
X124887897Y-111912900D01*
X125048103Y-111912900D01*
X125205231Y-111881645D01*
X125353242Y-111820337D01*
X125486448Y-111731331D01*
X125599731Y-111618048D01*
X125688737Y-111484842D01*
X125750045Y-111336831D01*
X125781300Y-111179703D01*
X125781300Y-111019497D01*
X125750045Y-110862369D01*
X125688737Y-110714358D01*
X125599731Y-110581152D01*
X125599726Y-110581146D01*
X125538805Y-110520225D01*
X125523860Y-110492856D01*
X125507004Y-110466628D01*
X125506098Y-110460329D01*
X125504779Y-110457913D01*
X125501900Y-110431130D01*
X125501900Y-110247955D01*
X125521902Y-110179834D01*
X125538805Y-110158859D01*
X125629017Y-110068647D01*
X126020077Y-109677588D01*
X126097054Y-109544259D01*
X126136900Y-109395551D01*
X126136900Y-109241597D01*
X126136900Y-109206669D01*
X126156902Y-109138548D01*
X126173803Y-109117575D01*
X126183931Y-109107448D01*
X126272937Y-108974242D01*
X126334245Y-108826231D01*
X126365500Y-108669103D01*
X126365500Y-108508897D01*
X126334245Y-108351769D01*
X126272937Y-108203758D01*
X126183931Y-108070552D01*
X126183926Y-108070546D01*
X126070653Y-107957273D01*
X126070647Y-107957268D01*
X125988001Y-107902046D01*
X125937442Y-107868263D01*
X125844107Y-107829602D01*
X125789434Y-107806956D01*
X125789431Y-107806955D01*
X125632306Y-107775700D01*
X125632303Y-107775700D01*
X125472097Y-107775700D01*
X125472093Y-107775700D01*
X125314968Y-107806955D01*
X125314965Y-107806956D01*
X125166958Y-107868263D01*
X125033752Y-107957268D01*
X125033746Y-107957273D01*
X124920473Y-108070546D01*
X124920468Y-108070552D01*
X124831463Y-108203758D01*
X124770156Y-108351765D01*
X124770155Y-108351768D01*
X124738900Y-108508893D01*
X124738900Y-108669106D01*
X124770155Y-108826231D01*
X124770156Y-108826234D01*
X124831463Y-108974242D01*
X124831465Y-108974246D01*
X124869414Y-109031041D01*
X124890629Y-109098793D01*
X124871846Y-109167260D01*
X124853745Y-109190137D01*
X124558186Y-109485698D01*
X124558185Y-109485698D01*
X124449329Y-109594553D01*
X124449321Y-109594563D01*
X124372347Y-109727887D01*
X124332500Y-109876598D01*
X124332500Y-110548570D01*
X124312498Y-110616691D01*
X124311265Y-110618572D01*
X124247263Y-110714357D01*
X124185956Y-110862365D01*
X124185955Y-110862368D01*
X124154700Y-111019493D01*
X122860300Y-111019493D01*
X122860300Y-105888693D01*
X126694700Y-105888693D01*
X126694700Y-106048906D01*
X126725955Y-106206031D01*
X126787263Y-106354042D01*
X126876269Y-106487248D01*
X126886393Y-106497372D01*
X126920420Y-106559682D01*
X126923300Y-106586469D01*
X126923300Y-109075198D01*
X126903298Y-109143319D01*
X126902065Y-109145200D01*
X126888863Y-109164958D01*
X126827556Y-109312965D01*
X126827555Y-109312968D01*
X126796300Y-109470093D01*
X126796300Y-109630306D01*
X126805706Y-109677590D01*
X126827555Y-109787431D01*
X126888863Y-109935442D01*
X126948334Y-110024447D01*
X126977868Y-110068647D01*
X126977873Y-110068653D01*
X127091146Y-110181926D01*
X127091152Y-110181931D01*
X127224358Y-110270937D01*
X127372369Y-110332245D01*
X127529497Y-110363500D01*
X127689703Y-110363500D01*
X127846831Y-110332245D01*
X127994842Y-110270937D01*
X128128048Y-110181931D01*
X128241331Y-110068648D01*
X128330337Y-109935442D01*
X128391645Y-109787431D01*
X128422900Y-109630303D01*
X128422900Y-109470097D01*
X128391645Y-109312969D01*
X128330337Y-109164958D01*
X128241331Y-109031752D01*
X128241326Y-109031746D01*
X128129605Y-108920025D01*
X128095579Y-108857713D01*
X128092700Y-108830930D01*
X128092700Y-106586469D01*
X128112702Y-106518348D01*
X128129603Y-106497375D01*
X128139731Y-106487248D01*
X128228737Y-106354042D01*
X128290045Y-106206031D01*
X128321300Y-106048903D01*
X128321300Y-105888697D01*
X128290045Y-105731569D01*
X128228737Y-105583558D01*
X128139731Y-105450352D01*
X128139726Y-105450346D01*
X128026453Y-105337073D01*
X128026447Y-105337068D01*
X127953423Y-105288275D01*
X127893242Y-105248063D01*
X127799907Y-105209402D01*
X127745234Y-105186756D01*
X127745231Y-105186755D01*
X127588106Y-105155500D01*
X127588103Y-105155500D01*
X127427897Y-105155500D01*
X127427893Y-105155500D01*
X127270768Y-105186755D01*
X127270765Y-105186756D01*
X127122758Y-105248063D01*
X126989552Y-105337068D01*
X126989546Y-105337073D01*
X126876273Y-105450346D01*
X126876268Y-105450352D01*
X126787263Y-105583558D01*
X126725956Y-105731565D01*
X126725955Y-105731568D01*
X126694700Y-105888693D01*
X122860300Y-105888693D01*
X122860300Y-103809023D01*
X122820453Y-103660314D01*
X122820450Y-103660308D01*
X122781964Y-103593649D01*
X122781963Y-103593647D01*
X122750180Y-103538595D01*
X122733300Y-103475597D01*
X122733300Y-103450296D01*
X122733299Y-103450293D01*
X122716599Y-103366337D01*
X122702045Y-103293169D01*
X122640737Y-103145158D01*
X122551731Y-103011952D01*
X122551726Y-103011946D01*
X122438453Y-102898673D01*
X122438447Y-102898668D01*
X122394247Y-102869134D01*
X122305242Y-102809663D01*
X122189915Y-102761893D01*
X122157234Y-102748356D01*
X122157231Y-102748355D01*
X122000106Y-102717100D01*
X122000103Y-102717100D01*
X121839897Y-102717100D01*
X121839893Y-102717100D01*
X121682768Y-102748355D01*
X121682765Y-102748356D01*
X121534758Y-102809663D01*
X121401552Y-102898668D01*
X121401546Y-102898673D01*
X121288273Y-103011946D01*
X121288268Y-103011952D01*
X121199263Y-103145158D01*
X121137956Y-103293165D01*
X121137955Y-103293168D01*
X121106700Y-103450293D01*
X109093500Y-103450293D01*
X109093500Y-100427693D01*
X122198900Y-100427693D01*
X122198900Y-100587906D01*
X122230155Y-100745031D01*
X122291463Y-100893042D01*
X122380469Y-101026248D01*
X122390593Y-101036372D01*
X122405540Y-101063743D01*
X122422396Y-101089971D01*
X122423301Y-101096267D01*
X122424620Y-101098682D01*
X122427500Y-101125469D01*
X122427500Y-101328198D01*
X122407498Y-101396319D01*
X122406265Y-101398200D01*
X122393063Y-101417958D01*
X122331756Y-101565965D01*
X122331755Y-101565968D01*
X122300500Y-101723093D01*
X122300500Y-101883306D01*
X122331755Y-102040431D01*
X122393063Y-102188442D01*
X122452534Y-102277447D01*
X122482068Y-102321647D01*
X122482073Y-102321653D01*
X122595346Y-102434926D01*
X122595352Y-102434931D01*
X122728558Y-102523937D01*
X122876569Y-102585245D01*
X123033697Y-102616500D01*
X123193903Y-102616500D01*
X123351031Y-102585245D01*
X123499042Y-102523937D01*
X123632248Y-102434931D01*
X123745531Y-102321648D01*
X123834537Y-102188442D01*
X123895845Y-102040431D01*
X123927100Y-101883303D01*
X123927100Y-101723097D01*
X123895845Y-101565969D01*
X123834537Y-101417958D01*
X123745531Y-101284752D01*
X123745526Y-101284746D01*
X123653957Y-101193177D01*
X123619931Y-101130865D01*
X123624996Y-101060050D01*
X123641212Y-101031876D01*
X123640492Y-101031395D01*
X123647578Y-101020789D01*
X123732937Y-100893042D01*
X123794245Y-100745031D01*
X123825500Y-100587903D01*
X123825500Y-100427697D01*
X123794245Y-100270569D01*
X123732937Y-100122558D01*
X123643931Y-99989352D01*
X123643926Y-99989346D01*
X123530653Y-99876073D01*
X123530647Y-99876068D01*
X123467182Y-99833662D01*
X123397442Y-99787063D01*
X123304107Y-99748402D01*
X123249434Y-99725756D01*
X123249431Y-99725755D01*
X123092306Y-99694500D01*
X123092303Y-99694500D01*
X122932097Y-99694500D01*
X122932093Y-99694500D01*
X122774968Y-99725755D01*
X122774965Y-99725756D01*
X122626958Y-99787063D01*
X122493752Y-99876068D01*
X122493746Y-99876073D01*
X122380473Y-99989346D01*
X122380468Y-99989352D01*
X122291463Y-100122558D01*
X122230156Y-100270565D01*
X122230155Y-100270568D01*
X122198900Y-100427693D01*
X109093500Y-100427693D01*
X109093500Y-97660908D01*
X109113502Y-97592787D01*
X109167158Y-97546294D01*
X109237432Y-97536190D01*
X109302012Y-97565684D01*
X109335908Y-97612689D01*
X109337463Y-97616442D01*
X109381196Y-97681893D01*
X109426468Y-97749647D01*
X109426473Y-97749653D01*
X109539746Y-97862926D01*
X109539752Y-97862931D01*
X109672958Y-97951937D01*
X109820969Y-98013245D01*
X109978097Y-98044500D01*
X110138303Y-98044500D01*
X110295431Y-98013245D01*
X110443442Y-97951937D01*
X110576648Y-97862931D01*
X110689931Y-97749648D01*
X110778937Y-97616442D01*
X110840245Y-97468431D01*
X110871500Y-97311303D01*
X110871500Y-97151097D01*
X110840245Y-96993969D01*
X110778937Y-96845958D01*
X110689931Y-96712752D01*
X110689926Y-96712746D01*
X110679805Y-96702625D01*
X110664860Y-96675256D01*
X110648004Y-96649028D01*
X110647098Y-96642729D01*
X110645779Y-96640313D01*
X110642900Y-96613530D01*
X110642900Y-96375669D01*
X110662902Y-96307548D01*
X110679803Y-96286575D01*
X110689931Y-96276448D01*
X110778937Y-96143242D01*
X110840245Y-95995231D01*
X110871500Y-95838103D01*
X110871500Y-95677897D01*
X110840245Y-95520769D01*
X110778937Y-95372758D01*
X110689931Y-95239552D01*
X110689926Y-95239546D01*
X110576653Y-95126273D01*
X110576647Y-95126268D01*
X110532447Y-95096734D01*
X110443442Y-95037263D01*
X110350107Y-94998602D01*
X110295434Y-94975956D01*
X110295431Y-94975955D01*
X110138306Y-94944700D01*
X110138303Y-94944700D01*
X109978097Y-94944700D01*
X109978093Y-94944700D01*
X109820968Y-94975955D01*
X109820965Y-94975956D01*
X109672958Y-95037263D01*
X109539752Y-95126268D01*
X109539746Y-95126273D01*
X109426473Y-95239546D01*
X109426468Y-95239552D01*
X109337464Y-95372756D01*
X109293616Y-95478614D01*
X109249067Y-95533894D01*
X109181704Y-95556315D01*
X109112913Y-95538757D01*
X109064534Y-95486794D01*
X109055501Y-95463007D01*
X109053653Y-95456113D01*
X108976679Y-95322789D01*
X108976674Y-95322783D01*
X108598591Y-94944700D01*
X108142491Y-94488600D01*
X108108468Y-94426290D01*
X108111755Y-94360571D01*
X108132049Y-94298116D01*
X108165500Y-94086916D01*
X108165500Y-93873084D01*
X108132049Y-93661884D01*
X108065972Y-93458517D01*
X107968894Y-93267991D01*
X107843206Y-93094996D01*
X107843203Y-93094993D01*
X107843201Y-93094990D01*
X107692009Y-92943798D01*
X107692006Y-92943796D01*
X107692004Y-92943794D01*
X107519009Y-92818106D01*
X107377992Y-92746254D01*
X107326379Y-92697508D01*
X107309313Y-92628593D01*
X107332214Y-92561391D01*
X107361133Y-92532055D01*
X107438004Y-92476206D01*
X107589206Y-92325004D01*
X107714894Y-92152009D01*
X107811972Y-91961483D01*
X107878049Y-91758116D01*
X107911500Y-91546916D01*
X107911500Y-91333084D01*
X107878049Y-91121884D01*
X107811972Y-90918517D01*
X107714894Y-90727991D01*
X107589206Y-90554996D01*
X107589203Y-90554993D01*
X107589201Y-90554990D01*
X107438006Y-90403795D01*
X107361136Y-90347946D01*
X107317782Y-90291723D01*
X107311707Y-90220987D01*
X107344839Y-90158196D01*
X107377989Y-90133747D01*
X107519009Y-90061894D01*
X107692004Y-89936206D01*
X107843206Y-89785004D01*
X107968894Y-89612009D01*
X108065972Y-89421483D01*
X108132049Y-89218116D01*
X108165500Y-89006916D01*
X108165500Y-88793084D01*
X108132049Y-88581884D01*
X108065972Y-88378517D01*
X107968894Y-88187991D01*
X107843206Y-88014996D01*
X107843203Y-88014993D01*
X107843201Y-88014990D01*
X107692009Y-87863798D01*
X107692006Y-87863796D01*
X107692004Y-87863794D01*
X107519009Y-87738106D01*
X107377992Y-87666254D01*
X107326379Y-87617508D01*
X107309313Y-87548593D01*
X107332214Y-87481391D01*
X107361133Y-87452055D01*
X107438004Y-87396206D01*
X107589206Y-87245004D01*
X107714894Y-87072009D01*
X107811972Y-86881483D01*
X107878049Y-86678116D01*
X107911500Y-86466916D01*
X107911500Y-86253084D01*
X107878049Y-86041884D01*
X107811972Y-85838517D01*
X107714894Y-85647991D01*
X107589206Y-85474996D01*
X107589203Y-85474993D01*
X107589201Y-85474990D01*
X107438006Y-85323795D01*
X107361136Y-85267946D01*
X107317782Y-85211723D01*
X107311707Y-85140987D01*
X107344839Y-85078196D01*
X107377989Y-85053747D01*
X107519009Y-84981894D01*
X107692004Y-84856206D01*
X107843206Y-84705004D01*
X107968894Y-84532009D01*
X108065972Y-84341483D01*
X108132049Y-84138116D01*
X108165500Y-83926916D01*
X108165500Y-83713084D01*
X108132049Y-83501884D01*
X108065972Y-83298517D01*
X107968894Y-83107991D01*
X107843206Y-82934996D01*
X107843203Y-82934993D01*
X107843201Y-82934990D01*
X107692009Y-82783798D01*
X107692006Y-82783796D01*
X107692004Y-82783794D01*
X107519009Y-82658106D01*
X107377992Y-82586254D01*
X107326379Y-82537508D01*
X107309313Y-82468593D01*
X107332214Y-82401391D01*
X107361133Y-82372055D01*
X107438004Y-82316206D01*
X107589206Y-82165004D01*
X107714894Y-81992009D01*
X107811972Y-81801483D01*
X107878049Y-81598116D01*
X107911500Y-81386916D01*
X107911500Y-81173084D01*
X107878049Y-80961884D01*
X107811972Y-80758517D01*
X107714894Y-80567991D01*
X107589206Y-80394996D01*
X107589203Y-80394993D01*
X107589201Y-80394990D01*
X107438006Y-80243795D01*
X107361136Y-80187946D01*
X107317782Y-80131723D01*
X107311707Y-80060987D01*
X107344839Y-79998196D01*
X107377989Y-79973747D01*
X107519009Y-79901894D01*
X107692004Y-79776206D01*
X107843206Y-79625004D01*
X107968894Y-79452009D01*
X108065972Y-79261483D01*
X108121139Y-79091693D01*
X124992900Y-79091693D01*
X124992900Y-79251906D01*
X125000149Y-79288346D01*
X125024155Y-79409031D01*
X125085463Y-79557042D01*
X125144934Y-79646047D01*
X125174468Y-79690247D01*
X125174473Y-79690253D01*
X125287746Y-79803526D01*
X125287752Y-79803531D01*
X125420956Y-79892536D01*
X125420957Y-79892536D01*
X125420958Y-79892537D01*
X125499980Y-79925268D01*
X125555259Y-79969814D01*
X125568170Y-79993458D01*
X125618863Y-80115842D01*
X125667042Y-80187946D01*
X125707868Y-80249047D01*
X125707873Y-80249053D01*
X125821146Y-80362326D01*
X125821152Y-80362331D01*
X125954358Y-80451337D01*
X126102369Y-80512645D01*
X126259497Y-80543900D01*
X126419703Y-80543900D01*
X126576831Y-80512645D01*
X126724842Y-80451337D01*
X126858048Y-80362331D01*
X126971331Y-80249048D01*
X127060337Y-80115842D01*
X127092794Y-80037482D01*
X127137342Y-79982201D01*
X127204705Y-79959780D01*
X127209203Y-79959700D01*
X129527925Y-79959700D01*
X129596046Y-79979702D01*
X129642539Y-80033358D01*
X129644436Y-80038374D01*
X129644586Y-80038312D01*
X129646955Y-80044031D01*
X129708263Y-80192042D01*
X129746357Y-80249053D01*
X129797268Y-80325247D01*
X129797273Y-80325253D01*
X129910546Y-80438526D01*
X129910552Y-80438531D01*
X130043758Y-80527537D01*
X130191769Y-80588845D01*
X130348897Y-80620100D01*
X130509103Y-80620100D01*
X130666231Y-80588845D01*
X130814242Y-80527537D01*
X130947448Y-80438531D01*
X131060731Y-80325248D01*
X131149737Y-80192042D01*
X131211045Y-80044031D01*
X131242300Y-79886903D01*
X131242300Y-79726697D01*
X131211045Y-79569569D01*
X131149737Y-79421558D01*
X131060731Y-79288352D01*
X131060726Y-79288346D01*
X130947453Y-79175073D01*
X130947447Y-79175068D01*
X130903247Y-79145534D01*
X130814242Y-79086063D01*
X130720907Y-79047402D01*
X130666234Y-79024756D01*
X130666231Y-79024755D01*
X130509106Y-78993500D01*
X130509103Y-78993500D01*
X130494780Y-78993500D01*
X130426659Y-78973498D01*
X130419719Y-78968702D01*
X130412258Y-78963168D01*
X130356214Y-78907124D01*
X130274390Y-78859883D01*
X130268133Y-78856270D01*
X130268131Y-78856269D01*
X130222886Y-78830147D01*
X130074177Y-78790300D01*
X130074175Y-78790300D01*
X126745500Y-78790300D01*
X126677379Y-78770298D01*
X126630886Y-78716642D01*
X126619500Y-78664300D01*
X126619500Y-78392469D01*
X126639502Y-78324348D01*
X126656403Y-78303375D01*
X126666531Y-78293248D01*
X126755537Y-78160042D01*
X126816845Y-78012031D01*
X126848100Y-77854903D01*
X126848100Y-77694697D01*
X126816845Y-77537569D01*
X126776718Y-77440693D01*
X146608300Y-77440693D01*
X146608300Y-77600906D01*
X146628766Y-77703794D01*
X146639555Y-77758031D01*
X146700863Y-77906042D01*
X146789869Y-78039248D01*
X146799993Y-78049372D01*
X146834020Y-78111682D01*
X146836900Y-78138469D01*
X146836900Y-79878157D01*
X146816898Y-79946278D01*
X146815665Y-79948159D01*
X146726263Y-80081958D01*
X146664956Y-80229965D01*
X146664955Y-80229968D01*
X146633700Y-80387093D01*
X146633700Y-80547306D01*
X146641963Y-80588844D01*
X146664955Y-80704431D01*
X146726263Y-80852442D01*
X146785734Y-80941447D01*
X146815268Y-80985647D01*
X146815273Y-80985653D01*
X146928546Y-81098926D01*
X146928552Y-81098931D01*
X147061758Y-81187937D01*
X147209769Y-81249245D01*
X147366897Y-81280500D01*
X147527103Y-81280500D01*
X147684231Y-81249245D01*
X147832242Y-81187937D01*
X147965448Y-81098931D01*
X148078731Y-80985648D01*
X148167737Y-80852442D01*
X148229045Y-80704431D01*
X148260300Y-80547303D01*
X148260300Y-80387097D01*
X148229045Y-80229969D01*
X148167737Y-80081958D01*
X148078731Y-79948752D01*
X148078726Y-79948746D01*
X148043205Y-79913225D01*
X148009179Y-79850913D01*
X148006300Y-79824130D01*
X148006300Y-78138469D01*
X148026302Y-78070348D01*
X148043203Y-78049375D01*
X148053331Y-78039248D01*
X148142337Y-77906042D01*
X148203645Y-77758031D01*
X148234900Y-77600903D01*
X148234900Y-77440697D01*
X148232728Y-77429777D01*
X148239055Y-77359064D01*
X148282609Y-77302996D01*
X148349561Y-77279376D01*
X148418655Y-77295702D01*
X148457175Y-77329686D01*
X148519738Y-77413261D01*
X148636792Y-77500887D01*
X148636794Y-77500888D01*
X148636796Y-77500889D01*
X148695875Y-77522924D01*
X148773795Y-77551988D01*
X148773803Y-77551990D01*
X148834350Y-77558499D01*
X148834355Y-77558499D01*
X148834362Y-77558500D01*
X148943099Y-77558500D01*
X149011220Y-77578502D01*
X149057713Y-77632158D01*
X149067817Y-77702432D01*
X149038323Y-77767012D01*
X149032194Y-77773595D01*
X148950798Y-77854990D01*
X148950796Y-77854993D01*
X148825108Y-78027987D01*
X148728029Y-78218515D01*
X148728026Y-78218521D01*
X148661952Y-78421878D01*
X148661951Y-78421883D01*
X148661951Y-78421884D01*
X148628500Y-78633084D01*
X148628500Y-78846916D01*
X148661951Y-79058116D01*
X148661952Y-79058121D01*
X148699952Y-79175073D01*
X148728028Y-79261483D01*
X148825106Y-79452009D01*
X148950794Y-79625004D01*
X148950796Y-79625006D01*
X148950798Y-79625009D01*
X149101990Y-79776201D01*
X149101993Y-79776203D01*
X149101996Y-79776206D01*
X149139599Y-79803526D01*
X149178863Y-79832053D01*
X149222217Y-79888275D01*
X149228292Y-79959011D01*
X149195161Y-80021803D01*
X149162006Y-80046254D01*
X149035355Y-80110786D01*
X149020987Y-80118108D01*
X148847993Y-80243796D01*
X148847990Y-80243798D01*
X148696798Y-80394990D01*
X148696796Y-80394993D01*
X148571108Y-80567987D01*
X148474029Y-80758515D01*
X148474022Y-80758531D01*
X148455994Y-80814017D01*
X148407953Y-80961875D01*
X148407952Y-80961876D01*
X148407951Y-80961884D01*
X148374500Y-81173084D01*
X148374500Y-81386916D01*
X148407951Y-81598116D01*
X148407952Y-81598121D01*
X148474026Y-81801478D01*
X148474028Y-81801483D01*
X148571106Y-81992009D01*
X148696794Y-82165004D01*
X148696796Y-82165006D01*
X148696798Y-82165009D01*
X148847990Y-82316201D01*
X148847993Y-82316203D01*
X148847996Y-82316206D01*
X149020991Y-82441894D01*
X149162005Y-82513744D01*
X149213620Y-82562491D01*
X149230686Y-82631406D01*
X149207786Y-82698607D01*
X149178864Y-82727946D01*
X149101989Y-82783799D01*
X148950798Y-82934990D01*
X148950796Y-82934993D01*
X148825108Y-83107987D01*
X148728029Y-83298515D01*
X148728026Y-83298521D01*
X148661952Y-83501878D01*
X148661951Y-83501883D01*
X148661951Y-83501884D01*
X148628500Y-83713084D01*
X148628500Y-83926916D01*
X148661951Y-84138116D01*
X148661952Y-84138121D01*
X148728026Y-84341478D01*
X148728028Y-84341483D01*
X148825106Y-84532009D01*
X148950794Y-84705004D01*
X148950796Y-84705006D01*
X148950798Y-84705009D01*
X149101990Y-84856201D01*
X149101993Y-84856203D01*
X149101996Y-84856206D01*
X149178863Y-84912053D01*
X149222217Y-84968275D01*
X149228292Y-85039011D01*
X149195161Y-85101803D01*
X149162006Y-85126254D01*
X149035355Y-85190786D01*
X149020987Y-85198108D01*
X148847993Y-85323796D01*
X148847990Y-85323798D01*
X148696798Y-85474990D01*
X148696796Y-85474993D01*
X148571108Y-85647987D01*
X148474029Y-85838515D01*
X148474026Y-85838521D01*
X148407952Y-86041878D01*
X148407951Y-86041883D01*
X148407951Y-86041884D01*
X148374500Y-86253084D01*
X148374500Y-86466916D01*
X148407951Y-86678116D01*
X148407952Y-86678121D01*
X148474026Y-86881478D01*
X148474028Y-86881483D01*
X148571106Y-87072009D01*
X148696794Y-87245004D01*
X148696796Y-87245006D01*
X148696798Y-87245009D01*
X148847990Y-87396201D01*
X148847993Y-87396203D01*
X148847996Y-87396206D01*
X149020991Y-87521894D01*
X149162005Y-87593744D01*
X149213620Y-87642491D01*
X149230686Y-87711406D01*
X149207786Y-87778607D01*
X149178864Y-87807946D01*
X149101989Y-87863799D01*
X148950798Y-88014990D01*
X148950796Y-88014993D01*
X148825108Y-88187987D01*
X148728029Y-88378515D01*
X148728026Y-88378521D01*
X148661952Y-88581878D01*
X148661951Y-88581883D01*
X148661951Y-88581884D01*
X148628500Y-88793084D01*
X148628500Y-89006916D01*
X148661951Y-89218116D01*
X148661952Y-89218121D01*
X148728026Y-89421478D01*
X148728028Y-89421483D01*
X148825106Y-89612009D01*
X148950794Y-89785004D01*
X148950796Y-89785006D01*
X148950798Y-89785009D01*
X149101990Y-89936201D01*
X149101993Y-89936203D01*
X149101996Y-89936206D01*
X149178863Y-89992053D01*
X149222217Y-90048275D01*
X149228292Y-90119011D01*
X149195161Y-90181803D01*
X149162006Y-90206254D01*
X149035355Y-90270786D01*
X149020987Y-90278108D01*
X148847993Y-90403796D01*
X148847990Y-90403798D01*
X148696798Y-90554990D01*
X148696796Y-90554993D01*
X148571108Y-90727987D01*
X148474029Y-90918515D01*
X148474026Y-90918521D01*
X148407952Y-91121878D01*
X148407951Y-91121883D01*
X148407951Y-91121884D01*
X148374500Y-91333084D01*
X148374500Y-91546916D01*
X148407951Y-91758116D01*
X148407952Y-91758121D01*
X148474026Y-91961478D01*
X148474028Y-91961483D01*
X148571106Y-92152009D01*
X148696794Y-92325004D01*
X148696796Y-92325006D01*
X148696798Y-92325009D01*
X148847990Y-92476201D01*
X148847993Y-92476203D01*
X148847996Y-92476206D01*
X149020991Y-92601894D01*
X149162005Y-92673744D01*
X149213620Y-92722491D01*
X149230686Y-92791406D01*
X149207786Y-92858607D01*
X149178864Y-92887946D01*
X149101989Y-92943799D01*
X148950798Y-93094990D01*
X148950796Y-93094993D01*
X148825108Y-93267987D01*
X148728029Y-93458515D01*
X148728026Y-93458521D01*
X148661952Y-93661878D01*
X148661951Y-93661883D01*
X148661951Y-93661884D01*
X148628500Y-93873084D01*
X148628500Y-94086916D01*
X148661951Y-94298116D01*
X148661952Y-94298121D01*
X148706103Y-94434005D01*
X148728028Y-94501483D01*
X148825106Y-94692009D01*
X148950794Y-94865004D01*
X148950796Y-94865006D01*
X148950798Y-94865009D01*
X149101990Y-95016201D01*
X149101993Y-95016203D01*
X149101996Y-95016206D01*
X149130979Y-95037263D01*
X149178863Y-95072053D01*
X149222217Y-95128275D01*
X149228292Y-95199011D01*
X149195161Y-95261803D01*
X149162006Y-95286254D01*
X149035355Y-95350786D01*
X149020987Y-95358108D01*
X148847993Y-95483796D01*
X148847990Y-95483798D01*
X148696798Y-95634990D01*
X148696796Y-95634993D01*
X148571108Y-95807987D01*
X148474029Y-95998515D01*
X148474026Y-95998521D01*
X148407952Y-96201878D01*
X148407951Y-96201883D01*
X148407951Y-96201884D01*
X148374500Y-96413084D01*
X148374500Y-96626916D01*
X148402150Y-96801491D01*
X148407952Y-96838121D01*
X148458590Y-96993969D01*
X148474028Y-97041483D01*
X148571106Y-97232009D01*
X148571108Y-97232012D01*
X148602182Y-97274781D01*
X148696794Y-97405004D01*
X148696796Y-97405006D01*
X148696798Y-97405009D01*
X148847990Y-97556201D01*
X148847993Y-97556203D01*
X148847996Y-97556206D01*
X149020991Y-97681894D01*
X149162005Y-97753744D01*
X149213620Y-97802491D01*
X149230686Y-97871406D01*
X149207786Y-97938607D01*
X149178864Y-97967946D01*
X149101989Y-98023799D01*
X148950798Y-98174990D01*
X148950796Y-98174993D01*
X148825108Y-98347987D01*
X148728029Y-98538515D01*
X148728026Y-98538521D01*
X148661952Y-98741878D01*
X148661951Y-98741883D01*
X148661951Y-98741884D01*
X148628500Y-98953084D01*
X148628500Y-99166916D01*
X148661951Y-99378116D01*
X148661952Y-99378121D01*
X148728026Y-99581478D01*
X148728028Y-99581483D01*
X148825106Y-99772009D01*
X148950794Y-99945004D01*
X148950796Y-99945006D01*
X148950798Y-99945009D01*
X149101990Y-100096201D01*
X149101993Y-100096203D01*
X149101996Y-100096206D01*
X149178863Y-100152053D01*
X149222217Y-100208275D01*
X149228292Y-100279011D01*
X149195161Y-100341803D01*
X149162006Y-100366254D01*
X149041428Y-100427693D01*
X149020987Y-100438108D01*
X148847993Y-100563796D01*
X148847990Y-100563798D01*
X148696798Y-100714990D01*
X148696796Y-100714993D01*
X148571108Y-100887987D01*
X148474029Y-101078515D01*
X148474026Y-101078521D01*
X148407952Y-101281878D01*
X148407951Y-101281883D01*
X148407951Y-101281884D01*
X148374500Y-101493084D01*
X148374500Y-101706916D01*
X148377063Y-101723096D01*
X148407952Y-101918121D01*
X148474026Y-102121478D01*
X148474028Y-102121483D01*
X148571106Y-102312009D01*
X148571108Y-102312012D01*
X148602182Y-102354781D01*
X148696794Y-102485004D01*
X148696796Y-102485006D01*
X148696798Y-102485009D01*
X148847990Y-102636201D01*
X148847993Y-102636203D01*
X148847996Y-102636206D01*
X149020991Y-102761894D01*
X149162005Y-102833744D01*
X149213620Y-102882491D01*
X149230686Y-102951406D01*
X149207786Y-103018607D01*
X149178864Y-103047946D01*
X149101989Y-103103799D01*
X148950798Y-103254990D01*
X148950796Y-103254993D01*
X148825108Y-103427987D01*
X148728029Y-103618515D01*
X148728026Y-103618521D01*
X148661952Y-103821878D01*
X148661951Y-103821883D01*
X148661951Y-103821884D01*
X148628500Y-104033084D01*
X148628500Y-104246916D01*
X148652747Y-104400003D01*
X148661952Y-104458121D01*
X148728026Y-104661478D01*
X148728028Y-104661483D01*
X148825106Y-104852009D01*
X148950794Y-105025004D01*
X148950796Y-105025006D01*
X148950798Y-105025009D01*
X149101990Y-105176201D01*
X149101993Y-105176203D01*
X149101996Y-105176206D01*
X149178863Y-105232053D01*
X149222217Y-105288275D01*
X149228292Y-105359011D01*
X149195161Y-105421803D01*
X149162006Y-105446254D01*
X149035355Y-105510786D01*
X149020987Y-105518108D01*
X148847993Y-105643796D01*
X148847990Y-105643798D01*
X148696798Y-105794990D01*
X148696796Y-105794993D01*
X148571108Y-105967987D01*
X148474029Y-106158515D01*
X148474026Y-106158521D01*
X148407952Y-106361878D01*
X148407951Y-106361883D01*
X148407951Y-106361884D01*
X148374500Y-106573084D01*
X148374500Y-106786916D01*
X148407951Y-106998116D01*
X148407952Y-106998121D01*
X148474026Y-107201478D01*
X148474028Y-107201483D01*
X148571106Y-107392009D01*
X148571108Y-107392012D01*
X148602182Y-107434781D01*
X148696794Y-107565004D01*
X148696796Y-107565006D01*
X148696798Y-107565009D01*
X148847990Y-107716201D01*
X148847993Y-107716203D01*
X148847996Y-107716206D01*
X149020991Y-107841894D01*
X149162005Y-107913744D01*
X149213620Y-107962491D01*
X149230686Y-108031406D01*
X149207786Y-108098607D01*
X149178864Y-108127946D01*
X149101989Y-108183799D01*
X148950798Y-108334990D01*
X148950796Y-108334993D01*
X148825108Y-108507987D01*
X148728029Y-108698515D01*
X148728026Y-108698521D01*
X148661952Y-108901878D01*
X148661951Y-108901883D01*
X148661951Y-108901884D01*
X148628500Y-109113084D01*
X148628500Y-109326916D01*
X148639371Y-109395551D01*
X148661952Y-109538121D01*
X148728026Y-109741478D01*
X148728028Y-109741483D01*
X148825106Y-109932009D01*
X148950794Y-110105004D01*
X148950796Y-110105006D01*
X148950798Y-110105009D01*
X149101990Y-110256201D01*
X149101993Y-110256203D01*
X149101996Y-110256206D01*
X149122272Y-110270937D01*
X149178863Y-110312053D01*
X149222217Y-110368275D01*
X149228292Y-110439011D01*
X149195161Y-110501803D01*
X149162006Y-110526254D01*
X149125137Y-110545041D01*
X149020987Y-110598108D01*
X148847993Y-110723796D01*
X148847990Y-110723798D01*
X148696798Y-110874990D01*
X148696796Y-110874993D01*
X148571108Y-111047987D01*
X148474029Y-111238515D01*
X148474026Y-111238521D01*
X148407952Y-111441878D01*
X148407951Y-111441883D01*
X148407951Y-111441884D01*
X148374500Y-111653084D01*
X148374500Y-111866916D01*
X148407951Y-112078116D01*
X148407952Y-112078121D01*
X148474026Y-112281478D01*
X148474028Y-112281483D01*
X148571106Y-112472009D01*
X148696794Y-112645004D01*
X148696796Y-112645006D01*
X148696798Y-112645009D01*
X148847990Y-112796201D01*
X148847993Y-112796203D01*
X148847996Y-112796206D01*
X149020991Y-112921894D01*
X149162005Y-112993744D01*
X149213620Y-113042491D01*
X149230686Y-113111406D01*
X149207786Y-113178607D01*
X149178864Y-113207946D01*
X149101989Y-113263799D01*
X148950798Y-113414990D01*
X148950796Y-113414993D01*
X148825108Y-113587987D01*
X148728029Y-113778515D01*
X148728026Y-113778521D01*
X148661952Y-113981878D01*
X148661951Y-113981883D01*
X148661951Y-113981884D01*
X148628500Y-114193084D01*
X148628500Y-114406916D01*
X148661951Y-114618116D01*
X148661952Y-114618121D01*
X148728026Y-114821478D01*
X148728028Y-114821483D01*
X148825106Y-115012009D01*
X148950794Y-115185004D01*
X148950796Y-115185006D01*
X148950798Y-115185009D01*
X149101990Y-115336201D01*
X149101993Y-115336203D01*
X149101996Y-115336206D01*
X149170499Y-115385976D01*
X149179317Y-115392383D01*
X149222671Y-115448605D01*
X149228746Y-115519342D01*
X149195614Y-115582133D01*
X149162459Y-115606586D01*
X149021250Y-115678535D01*
X148848320Y-115804177D01*
X148697177Y-115955320D01*
X148571536Y-116128249D01*
X148474493Y-116318707D01*
X148474490Y-116318713D01*
X148408440Y-116521995D01*
X148398302Y-116586000D01*
X149302297Y-116586000D01*
X149267075Y-116647007D01*
X149233000Y-116774174D01*
X149233000Y-116905826D01*
X149267075Y-117032993D01*
X149302297Y-117094000D01*
X148398302Y-117094000D01*
X148408440Y-117158004D01*
X148474490Y-117361286D01*
X148474493Y-117361292D01*
X148571536Y-117551750D01*
X148697177Y-117724679D01*
X148848320Y-117875822D01*
X149021249Y-118001463D01*
X149211707Y-118098506D01*
X149211713Y-118098509D01*
X149414998Y-118164560D01*
X149479000Y-118174696D01*
X149479000Y-117270702D01*
X149540007Y-117305925D01*
X149667174Y-117340000D01*
X149798826Y-117340000D01*
X149925993Y-117305925D01*
X149987000Y-117270702D01*
X149987000Y-118174696D01*
X150051001Y-118164560D01*
X150254286Y-118098509D01*
X150254292Y-118098506D01*
X150444750Y-118001463D01*
X150617679Y-117875822D01*
X150768822Y-117724679D01*
X150894463Y-117551750D01*
X150991506Y-117361292D01*
X150991509Y-117361286D01*
X151057559Y-117158004D01*
X151067698Y-117094000D01*
X150163703Y-117094000D01*
X150198925Y-117032993D01*
X150233000Y-116905826D01*
X150233000Y-116774174D01*
X150198925Y-116647007D01*
X150163703Y-116586000D01*
X151067697Y-116586000D01*
X151057559Y-116521995D01*
X150991509Y-116318713D01*
X150991506Y-116318707D01*
X150894463Y-116128249D01*
X150768822Y-115955320D01*
X150617679Y-115804177D01*
X150540636Y-115748202D01*
X150497282Y-115691979D01*
X150491207Y-115621243D01*
X150524339Y-115558451D01*
X150557491Y-115534000D01*
X150699009Y-115461894D01*
X150872004Y-115336206D01*
X151023206Y-115185004D01*
X151148894Y-115012009D01*
X151245972Y-114821483D01*
X151312049Y-114618116D01*
X151345500Y-114406916D01*
X151345500Y-114193084D01*
X151312049Y-113981884D01*
X151245972Y-113778517D01*
X151148894Y-113587991D01*
X151023206Y-113414996D01*
X151023203Y-113414993D01*
X151023201Y-113414990D01*
X150872009Y-113263798D01*
X150872006Y-113263796D01*
X150872004Y-113263794D01*
X150699009Y-113138106D01*
X150557992Y-113066254D01*
X150506379Y-113017508D01*
X150489313Y-112948593D01*
X150512214Y-112881391D01*
X150541133Y-112852055D01*
X150618004Y-112796206D01*
X150769206Y-112645004D01*
X150894894Y-112472009D01*
X150991972Y-112281483D01*
X151058049Y-112078116D01*
X151091500Y-111866916D01*
X151091500Y-111653084D01*
X151058049Y-111441884D01*
X150991972Y-111238517D01*
X150894894Y-111047991D01*
X150769206Y-110874996D01*
X150769203Y-110874993D01*
X150769201Y-110874990D01*
X150618006Y-110723795D01*
X150541136Y-110667946D01*
X150497782Y-110611723D01*
X150491707Y-110540987D01*
X150524839Y-110478196D01*
X150557989Y-110453747D01*
X150699009Y-110381894D01*
X150872004Y-110256206D01*
X151023206Y-110105004D01*
X151148894Y-109932009D01*
X151245972Y-109741483D01*
X151312049Y-109538116D01*
X151345500Y-109326916D01*
X151345500Y-109113084D01*
X151312049Y-108901884D01*
X151245972Y-108698517D01*
X151148894Y-108507991D01*
X151023206Y-108334996D01*
X151023203Y-108334993D01*
X151023201Y-108334990D01*
X150872009Y-108183798D01*
X150872006Y-108183796D01*
X150872004Y-108183794D01*
X150741781Y-108089182D01*
X150699012Y-108058108D01*
X150699011Y-108058107D01*
X150699009Y-108058106D01*
X150557992Y-107986254D01*
X150506379Y-107937508D01*
X150489313Y-107868593D01*
X150512214Y-107801391D01*
X150541133Y-107772055D01*
X150618004Y-107716206D01*
X150769206Y-107565004D01*
X150894894Y-107392009D01*
X150991972Y-107201483D01*
X151058049Y-106998116D01*
X151091500Y-106786916D01*
X151091500Y-106573084D01*
X151058049Y-106361884D01*
X150991972Y-106158517D01*
X150894894Y-105967991D01*
X150769206Y-105794996D01*
X150769203Y-105794993D01*
X150769201Y-105794990D01*
X150618006Y-105643795D01*
X150541136Y-105587946D01*
X150497782Y-105531723D01*
X150491707Y-105460987D01*
X150524839Y-105398196D01*
X150557989Y-105373747D01*
X150699009Y-105301894D01*
X150872004Y-105176206D01*
X151023206Y-105025004D01*
X151148894Y-104852009D01*
X151245972Y-104661483D01*
X151312049Y-104458116D01*
X151345500Y-104246916D01*
X151345500Y-104033084D01*
X151312049Y-103821884D01*
X151245972Y-103618517D01*
X151148894Y-103427991D01*
X151023206Y-103254996D01*
X151023203Y-103254993D01*
X151023201Y-103254990D01*
X150872009Y-103103798D01*
X150872006Y-103103796D01*
X150872004Y-103103794D01*
X150699009Y-102978106D01*
X150557992Y-102906254D01*
X150506379Y-102857508D01*
X150489313Y-102788593D01*
X150512214Y-102721391D01*
X150541133Y-102692055D01*
X150618004Y-102636206D01*
X150769206Y-102485004D01*
X150894894Y-102312009D01*
X150991972Y-102121483D01*
X151058049Y-101918116D01*
X151091500Y-101706916D01*
X151091500Y-101493084D01*
X151058049Y-101281884D01*
X150991972Y-101078517D01*
X150894894Y-100887991D01*
X150769206Y-100714996D01*
X150769203Y-100714993D01*
X150769201Y-100714990D01*
X150618006Y-100563795D01*
X150541136Y-100507946D01*
X150497782Y-100451723D01*
X150491707Y-100380987D01*
X150524839Y-100318196D01*
X150557989Y-100293747D01*
X150699009Y-100221894D01*
X150872004Y-100096206D01*
X151023206Y-99945004D01*
X151148894Y-99772009D01*
X151245972Y-99581483D01*
X151312049Y-99378116D01*
X151345500Y-99166916D01*
X151345500Y-98953084D01*
X151312049Y-98741884D01*
X151245972Y-98538517D01*
X151148894Y-98347991D01*
X151023206Y-98174996D01*
X151023203Y-98174993D01*
X151023201Y-98174990D01*
X150872009Y-98023798D01*
X150872006Y-98023796D01*
X150872004Y-98023794D01*
X150699009Y-97898106D01*
X150557992Y-97826254D01*
X150506379Y-97777508D01*
X150489313Y-97708593D01*
X150512214Y-97641391D01*
X150541133Y-97612055D01*
X150618004Y-97556206D01*
X150769206Y-97405004D01*
X150894894Y-97232009D01*
X150991972Y-97041483D01*
X151058049Y-96838116D01*
X151091500Y-96626916D01*
X151091500Y-96413084D01*
X151058049Y-96201884D01*
X150991972Y-95998517D01*
X150894894Y-95807991D01*
X150769206Y-95634996D01*
X150769203Y-95634993D01*
X150769201Y-95634990D01*
X150618006Y-95483795D01*
X150541136Y-95427946D01*
X150497782Y-95371723D01*
X150491707Y-95300987D01*
X150524839Y-95238196D01*
X150557989Y-95213747D01*
X150699009Y-95141894D01*
X150872004Y-95016206D01*
X151023206Y-94865004D01*
X151148894Y-94692009D01*
X151245972Y-94501483D01*
X151312049Y-94298116D01*
X151345500Y-94086916D01*
X151345500Y-93873084D01*
X151312049Y-93661884D01*
X151245972Y-93458517D01*
X151148894Y-93267991D01*
X151023206Y-93094996D01*
X151023203Y-93094993D01*
X151023201Y-93094990D01*
X150872009Y-92943798D01*
X150872006Y-92943796D01*
X150872004Y-92943794D01*
X150699009Y-92818106D01*
X150557992Y-92746254D01*
X150506379Y-92697508D01*
X150489313Y-92628593D01*
X150512214Y-92561391D01*
X150541133Y-92532055D01*
X150618004Y-92476206D01*
X150769206Y-92325004D01*
X150894894Y-92152009D01*
X150991972Y-91961483D01*
X151058049Y-91758116D01*
X151091500Y-91546916D01*
X151091500Y-91333084D01*
X151058049Y-91121884D01*
X150991972Y-90918517D01*
X150894894Y-90727991D01*
X150769206Y-90554996D01*
X150769203Y-90554993D01*
X150769201Y-90554990D01*
X150618006Y-90403795D01*
X150541136Y-90347946D01*
X150497782Y-90291723D01*
X150491707Y-90220987D01*
X150524839Y-90158196D01*
X150557989Y-90133747D01*
X150699009Y-90061894D01*
X150872004Y-89936206D01*
X151023206Y-89785004D01*
X151148894Y-89612009D01*
X151245972Y-89421483D01*
X151312049Y-89218116D01*
X151345500Y-89006916D01*
X151345500Y-88793084D01*
X151312049Y-88581884D01*
X151245972Y-88378517D01*
X151148894Y-88187991D01*
X151023206Y-88014996D01*
X151023203Y-88014993D01*
X151023201Y-88014990D01*
X150872009Y-87863798D01*
X150872006Y-87863796D01*
X150872004Y-87863794D01*
X150699009Y-87738106D01*
X150557992Y-87666254D01*
X150506379Y-87617508D01*
X150489313Y-87548593D01*
X150512214Y-87481391D01*
X150541133Y-87452055D01*
X150618004Y-87396206D01*
X150769206Y-87245004D01*
X150894894Y-87072009D01*
X150991972Y-86881483D01*
X151058049Y-86678116D01*
X151091500Y-86466916D01*
X151091500Y-86253084D01*
X151058049Y-86041884D01*
X150991972Y-85838517D01*
X150894894Y-85647991D01*
X150769206Y-85474996D01*
X150769203Y-85474993D01*
X150769201Y-85474990D01*
X150618006Y-85323795D01*
X150541136Y-85267946D01*
X150497782Y-85211723D01*
X150491707Y-85140987D01*
X150524839Y-85078196D01*
X150557989Y-85053747D01*
X150699009Y-84981894D01*
X150872004Y-84856206D01*
X151023206Y-84705004D01*
X151148894Y-84532009D01*
X151245972Y-84341483D01*
X151312049Y-84138116D01*
X151345500Y-83926916D01*
X151345500Y-83713084D01*
X151312049Y-83501884D01*
X151245972Y-83298517D01*
X151148894Y-83107991D01*
X151023206Y-82934996D01*
X151023203Y-82934993D01*
X151023201Y-82934990D01*
X150872009Y-82783798D01*
X150872006Y-82783796D01*
X150872004Y-82783794D01*
X150699009Y-82658106D01*
X150557992Y-82586254D01*
X150506379Y-82537508D01*
X150489313Y-82468593D01*
X150512214Y-82401391D01*
X150541133Y-82372055D01*
X150618004Y-82316206D01*
X150769206Y-82165004D01*
X150894894Y-81992009D01*
X150991972Y-81801483D01*
X151058049Y-81598116D01*
X151091500Y-81386916D01*
X151091500Y-81173084D01*
X151058049Y-80961884D01*
X150991972Y-80758517D01*
X150894894Y-80567991D01*
X150769206Y-80394996D01*
X150769203Y-80394993D01*
X150769201Y-80394990D01*
X150618006Y-80243795D01*
X150541136Y-80187946D01*
X150497782Y-80131723D01*
X150491707Y-80060987D01*
X150524839Y-79998196D01*
X150557989Y-79973747D01*
X150699009Y-79901894D01*
X150872004Y-79776206D01*
X151023206Y-79625004D01*
X151148894Y-79452009D01*
X151245972Y-79261483D01*
X151312049Y-79058116D01*
X151345500Y-78846916D01*
X151345500Y-78633084D01*
X151312049Y-78421884D01*
X151245972Y-78218517D01*
X151148894Y-78027991D01*
X151023206Y-77854996D01*
X151023203Y-77854993D01*
X151023201Y-77854990D01*
X150872009Y-77703798D01*
X150872005Y-77703795D01*
X150872004Y-77703794D01*
X150850949Y-77688497D01*
X150807597Y-77632277D01*
X150801520Y-77561541D01*
X150834651Y-77498749D01*
X150849502Y-77485694D01*
X150946261Y-77413261D01*
X151033887Y-77296207D01*
X151033887Y-77296206D01*
X151033889Y-77296204D01*
X151084989Y-77159201D01*
X151086724Y-77143069D01*
X151091499Y-77098649D01*
X151091500Y-77098632D01*
X151091500Y-75301367D01*
X151091499Y-75301350D01*
X151084990Y-75240803D01*
X151084988Y-75240795D01*
X151033889Y-75103797D01*
X151033887Y-75103792D01*
X150946261Y-74986738D01*
X150829207Y-74899112D01*
X150829202Y-74899110D01*
X150692204Y-74848011D01*
X150692196Y-74848009D01*
X150631649Y-74841500D01*
X150631638Y-74841500D01*
X148834362Y-74841500D01*
X148834350Y-74841500D01*
X148773803Y-74848009D01*
X148773795Y-74848011D01*
X148636797Y-74899110D01*
X148636792Y-74899112D01*
X148519738Y-74986738D01*
X148432112Y-75103792D01*
X148432110Y-75103797D01*
X148381011Y-75240795D01*
X148381009Y-75240803D01*
X148374500Y-75301350D01*
X148374500Y-77067648D01*
X148354498Y-77135769D01*
X148300842Y-77182262D01*
X148230568Y-77192366D01*
X148165988Y-77162872D01*
X148143735Y-77137650D01*
X148053331Y-77002352D01*
X148053326Y-77002346D01*
X147940053Y-76889073D01*
X147940047Y-76889068D01*
X147895847Y-76859534D01*
X147806842Y-76800063D01*
X147713507Y-76761402D01*
X147658834Y-76738756D01*
X147658831Y-76738755D01*
X147501706Y-76707500D01*
X147501703Y-76707500D01*
X147341497Y-76707500D01*
X147341493Y-76707500D01*
X147184368Y-76738755D01*
X147184365Y-76738756D01*
X147036358Y-76800063D01*
X146903152Y-76889068D01*
X146903146Y-76889073D01*
X146789873Y-77002346D01*
X146789868Y-77002352D01*
X146700863Y-77135558D01*
X146639556Y-77283565D01*
X146639555Y-77283568D01*
X146608300Y-77440693D01*
X126776718Y-77440693D01*
X126755537Y-77389558D01*
X126666531Y-77256352D01*
X126666526Y-77256346D01*
X126553253Y-77143073D01*
X126553247Y-77143068D01*
X126486744Y-77098632D01*
X126420042Y-77054063D01*
X126326707Y-77015402D01*
X126272034Y-76992756D01*
X126272031Y-76992755D01*
X126114906Y-76961500D01*
X126114903Y-76961500D01*
X125954697Y-76961500D01*
X125954693Y-76961500D01*
X125797568Y-76992755D01*
X125797565Y-76992756D01*
X125649558Y-77054063D01*
X125516352Y-77143068D01*
X125516346Y-77143073D01*
X125403073Y-77256346D01*
X125403068Y-77256352D01*
X125314063Y-77389558D01*
X125252756Y-77537565D01*
X125252755Y-77537568D01*
X125221500Y-77694693D01*
X125221500Y-77854906D01*
X125252755Y-78012031D01*
X125252756Y-78012034D01*
X125268221Y-78049370D01*
X125314063Y-78160042D01*
X125353134Y-78218515D01*
X125403066Y-78293244D01*
X125404853Y-78295421D01*
X125405432Y-78296785D01*
X125406508Y-78298395D01*
X125406202Y-78298598D01*
X125432611Y-78360766D01*
X125420634Y-78430745D01*
X125377462Y-78480126D01*
X125287748Y-78540071D01*
X125174473Y-78653346D01*
X125174468Y-78653352D01*
X125085463Y-78786558D01*
X125024156Y-78934565D01*
X125024155Y-78934568D01*
X124992900Y-79091693D01*
X108121139Y-79091693D01*
X108132049Y-79058116D01*
X108165500Y-78846916D01*
X108165500Y-78633084D01*
X108132049Y-78421884D01*
X108065972Y-78218517D01*
X107968894Y-78027991D01*
X107843206Y-77854996D01*
X107843203Y-77854993D01*
X107843201Y-77854990D01*
X107692009Y-77703798D01*
X107692005Y-77703795D01*
X107692004Y-77703794D01*
X107670949Y-77688497D01*
X107627597Y-77632277D01*
X107621520Y-77561541D01*
X107654651Y-77498749D01*
X107669502Y-77485694D01*
X107766261Y-77413261D01*
X107853887Y-77296207D01*
X107853887Y-77296206D01*
X107853889Y-77296204D01*
X107904989Y-77159201D01*
X107906724Y-77143069D01*
X107911499Y-77098649D01*
X107911500Y-77098632D01*
X107911500Y-75301367D01*
X107911499Y-75301350D01*
X107904990Y-75240803D01*
X107904988Y-75240795D01*
X107853889Y-75103797D01*
X107853887Y-75103792D01*
X107766261Y-74986738D01*
X107649207Y-74899112D01*
X107649202Y-74899110D01*
X107512204Y-74848011D01*
X107512196Y-74848009D01*
X107451649Y-74841500D01*
X107451638Y-74841500D01*
X105654362Y-74841500D01*
X105654350Y-74841500D01*
X105593803Y-74848009D01*
X105593795Y-74848011D01*
X105456797Y-74899110D01*
X105456792Y-74899112D01*
X105339738Y-74986738D01*
X105252112Y-75103792D01*
X105252110Y-75103797D01*
X105201011Y-75240795D01*
X105201009Y-75240803D01*
X105194500Y-75301350D01*
X104215500Y-75301350D01*
X104215500Y-73664955D01*
X104215888Y-73655069D01*
X104229428Y-73483024D01*
X104232521Y-73463496D01*
X104271648Y-73300520D01*
X104277758Y-73281716D01*
X104341899Y-73126864D01*
X104350868Y-73109260D01*
X104438455Y-72966332D01*
X104450067Y-72950352D01*
X104492486Y-72900685D01*
X104558922Y-72822901D01*
X104572901Y-72808922D01*
X104650685Y-72742486D01*
X104700352Y-72700067D01*
X104716332Y-72688455D01*
X104859260Y-72600868D01*
X104876864Y-72591899D01*
X105031720Y-72527756D01*
X105050515Y-72521649D01*
X105213497Y-72482520D01*
X105233023Y-72479428D01*
X105405070Y-72465888D01*
X105414956Y-72465500D01*
X105434531Y-72465500D01*
X151105469Y-72465500D01*
X151125044Y-72465500D01*
X151134930Y-72465888D01*
G37*
%TD.AperFunction*%
%TD*%
M02*
