%TF.GenerationSoftware,KiCad,Pcbnew,10.0.2*%
%TF.CreationDate,2026-08-16T15:37:26-04:00*%
%TF.ProjectId,IMUTagNandBMP581-breakout,494d5554-6167-44e6-916e-64424d503538,rev?*%
%TF.SameCoordinates,Original*%
%TF.FileFunction,Soldermask,Top*%
%TF.FilePolarity,Negative*%
%FSLAX46Y46*%
G04 Gerber Fmt 4.6, Leading zero omitted, Abs format (unit mm)*
G04 Created by KiCad (PCBNEW 10.0.2) date 2026-08-16 15:37:26*
%MOMM*%
%LPD*%
G01*
G04 APERTURE LIST*
G04 Aperture macros list*
%AMRoundRect*
0 Rectangle with rounded corners*
0 $1 Rounding radius*
0 $2 $3 $4 $5 $6 $7 $8 $9 X,Y pos of 4 corners*
0 Add a 4 corners polygon primitive as box body*
4,1,4,$2,$3,$4,$5,$6,$7,$8,$9,$2,$3,0*
0 Add four circle primitives for the rounded corners*
1,1,$1+$1,$2,$3*
1,1,$1+$1,$4,$5*
1,1,$1+$1,$6,$7*
1,1,$1+$1,$8,$9*
0 Add four rect primitives between the rounded corners*
20,1,$1+$1,$2,$3,$4,$5,0*
20,1,$1+$1,$4,$5,$6,$7,0*
20,1,$1+$1,$6,$7,$8,$9,0*
20,1,$1+$1,$8,$9,$2,$3,0*%
G04 Aperture macros list end*
%ADD10C,0.140000*%
%ADD11C,0.228600*%
%ADD12RoundRect,0.225000X-0.250000X0.225000X-0.250000X-0.225000X0.250000X-0.225000X0.250000X0.225000X0*%
%ADD13RoundRect,0.225000X0.250000X-0.225000X0.250000X0.225000X-0.250000X0.225000X-0.250000X-0.225000X0*%
%ADD14RoundRect,0.225000X-0.225000X-0.250000X0.225000X-0.250000X0.225000X0.250000X-0.225000X0.250000X0*%
%ADD15RoundRect,0.200000X-0.200000X-0.275000X0.200000X-0.275000X0.200000X0.275000X-0.200000X0.275000X0*%
%ADD16R,0.254000X0.279400*%
%ADD17R,0.254000X0.254000*%
%ADD18C,2.000000*%
%ADD19R,0.533400X0.304800*%
%ADD20R,0.304800X0.533400*%
%ADD21RoundRect,0.125000X-0.200000X-0.125000X0.200000X-0.125000X0.200000X0.125000X-0.200000X0.125000X0*%
%ADD22R,3.400000X4.300000*%
%ADD23R,1.700000X1.700000*%
%ADD24O,1.700000X1.700000*%
G04 APERTURE END LIST*
%TO.C,U1*%
D10*
X135950000Y-81317000D02*
G75*
G02*
X135810000Y-81317000I-70000J0D01*
G01*
X135810000Y-81317000D02*
G75*
G02*
X135950000Y-81317000I70000J0D01*
G01*
X135950000Y-81717000D02*
G75*
G02*
X135810000Y-81717000I-70000J0D01*
G01*
X135810000Y-81717000D02*
G75*
G02*
X135950000Y-81717000I70000J0D01*
G01*
X136350000Y-81317000D02*
G75*
G02*
X136210000Y-81317000I-70000J0D01*
G01*
X136210000Y-81317000D02*
G75*
G02*
X136350000Y-81317000I70000J0D01*
G01*
X136350000Y-81717000D02*
G75*
G02*
X136210000Y-81717000I-70000J0D01*
G01*
X136210000Y-81717000D02*
G75*
G02*
X136350000Y-81717000I70000J0D01*
G01*
%TD*%
D11*
%TO.C,U2*%
X130844900Y-92426900D03*
X131244950Y-92426900D03*
X131645000Y-92426900D03*
X130844900Y-92826950D03*
X131244950Y-92826950D03*
X131645000Y-92826950D03*
X130844900Y-93227000D03*
X131244950Y-93227000D03*
X131645000Y-93227000D03*
%TD*%
D12*
%TO.C,C10*%
X134100000Y-80547000D03*
X134100000Y-82097000D03*
%TD*%
D13*
%TO.C,C12*%
X129395000Y-93627000D03*
X129395000Y-92077000D03*
%TD*%
D12*
%TO.C,C13*%
X133670000Y-92477000D03*
X133670000Y-94027000D03*
%TD*%
%TO.C,C9*%
X130951100Y-106472800D03*
X130951100Y-108022800D03*
%TD*%
D14*
%TO.C,C4*%
X130620000Y-99952000D03*
X132170000Y-99952000D03*
%TD*%
D15*
%TO.C,R4*%
X123190000Y-89177000D03*
X124840000Y-89177000D03*
%TD*%
D12*
%TO.C,C14*%
X138060000Y-80502000D03*
X138060000Y-82052000D03*
%TD*%
%TO.C,C507*%
X139830000Y-80492000D03*
X139830000Y-82042000D03*
%TD*%
D13*
%TO.C,C2*%
X129383200Y-87655400D03*
X129383200Y-86105400D03*
%TD*%
D15*
%TO.C,R3*%
X123240000Y-92227000D03*
X124890000Y-92227000D03*
%TD*%
D16*
%TO.C,U3*%
X133183001Y-87497300D03*
X133683001Y-87497300D03*
D17*
X134206002Y-87236998D03*
X134206002Y-86736999D03*
X134206002Y-86237000D03*
D16*
X133683001Y-85976698D03*
X133183001Y-85976698D03*
D17*
X132660000Y-86237000D03*
X132660000Y-86736999D03*
X132660000Y-87236998D03*
%TD*%
D12*
%TO.C,C11*%
X132425000Y-80547000D03*
X132425000Y-82097000D03*
%TD*%
D18*
%TO.C,TP1*%
X135115000Y-77732000D03*
%TD*%
D19*
%TO.C,U4*%
X130430400Y-103157999D03*
X130430400Y-103658000D03*
X130430400Y-104158000D03*
X130430400Y-104658001D03*
D20*
X131111501Y-104835100D03*
X131611500Y-104835100D03*
X132111499Y-104835100D03*
D19*
X132792600Y-104658001D03*
X132792600Y-104158000D03*
X132792600Y-103658000D03*
X132792600Y-103157999D03*
D20*
X132111499Y-102980900D03*
X131611500Y-102980900D03*
X131111501Y-102980900D03*
%TD*%
D12*
%TO.C,C1*%
X132754500Y-106448000D03*
X132754500Y-107998000D03*
%TD*%
D13*
%TO.C,C7*%
X131034200Y-87655400D03*
X131034200Y-86105400D03*
%TD*%
D21*
%TO.C,U6*%
X123190000Y-77997000D03*
X123190000Y-79267000D03*
X123190000Y-80537000D03*
X123190000Y-81807000D03*
X130690000Y-81807000D03*
X130690000Y-80537000D03*
X130690000Y-79267000D03*
X130690000Y-77997000D03*
D22*
X126940000Y-79902000D03*
%TD*%
D23*
%TO.C,J3*%
X106553000Y-76200000D03*
D24*
X106807000Y-78740000D03*
X106553000Y-81280000D03*
X106807000Y-83820000D03*
X106553000Y-86360000D03*
X106807000Y-88900000D03*
X106553000Y-91440000D03*
X106807000Y-93980000D03*
X106553000Y-96520000D03*
X106807000Y-99060000D03*
X106553000Y-101600000D03*
X106807000Y-104140000D03*
X106553000Y-106680000D03*
X106807000Y-109220000D03*
X106553000Y-111760000D03*
X106807000Y-114300000D03*
X106553000Y-116840000D03*
%TD*%
D23*
%TO.C,J4*%
X149733000Y-76200000D03*
D24*
X149987000Y-78740000D03*
X149733000Y-81280000D03*
X149987000Y-83820000D03*
X149733000Y-86360000D03*
X149987000Y-88900000D03*
X149733000Y-91440000D03*
X149987000Y-93980000D03*
X149733000Y-96520000D03*
X149987000Y-99060000D03*
X149733000Y-101600000D03*
X149987000Y-104140000D03*
X149733000Y-106680000D03*
X149987000Y-109220000D03*
X149733000Y-111760000D03*
X149987000Y-114300000D03*
X149733000Y-116840000D03*
%TD*%
M02*
