%TF.GenerationSoftware,KiCad,Pcbnew,10.0.2*%
%TF.CreationDate,2026-08-14T14:33:40-04:00*%
%TF.ProjectId,IMUTagNandBMP581-breakout,494d5554-6167-44e6-916e-64424d503538,rev?*%
%TF.SameCoordinates,Original*%
%TF.FileFunction,Copper,L4,Bot*%
%TF.FilePolarity,Positive*%
%FSLAX46Y46*%
G04 Gerber Fmt 4.6, Leading zero omitted, Abs format (unit mm)*
G04 Created by KiCad (PCBNEW 10.0.2) date 2026-08-14 14:33:40*
%MOMM*%
%LPD*%
G01*
G04 APERTURE LIST*
%TA.AperFunction,ComponentPad*%
%ADD10R,1.700000X1.700000*%
%TD*%
%TA.AperFunction,ComponentPad*%
%ADD11O,1.700000X1.700000*%
%TD*%
%TA.AperFunction,ViaPad*%
%ADD12C,0.609600*%
%TD*%
%TA.AperFunction,Conductor*%
%ADD13C,0.152400*%
%TD*%
G04 APERTURE END LIST*
D10*
%TO.P,J3,1,Pin_1_1*%
%TO.N,/LSM_TRG*%
X106553000Y-76200000D03*
D11*
%TO.P,J3,2,Pin_2_2*%
%TO.N,/BMM_INT*%
X106807000Y-78740000D03*
%TO.P,J3,3,Pin_3_3*%
%TO.N,/SCL*%
X106553000Y-81280000D03*
%TO.P,J3,4,Pin_4_4*%
%TO.N,/SDA*%
X106807000Y-83820000D03*
%TO.P,J3,5,Pin_5_5*%
%TO.N,unconnected-(J3-Pin_5-Pad5)*%
X106553000Y-86360000D03*
%TO.P,J3,6,Pin_6_6*%
%TO.N,unconnected-(J3-Pin_6-Pad6)*%
X106807000Y-88900000D03*
%TO.P,J3,7,Pin_7_7*%
%TO.N,+1V8*%
X106553000Y-91440000D03*
%TO.P,J3,8,Pin_8_8*%
%TO.N,/WKUP1*%
X106807000Y-93980000D03*
%TO.P,J3,9,Pin_9_9*%
%TO.N,unconnected-(J3-Pin_9-Pad9)*%
X106553000Y-96520000D03*
%TO.P,J3,10,Pin_10_10*%
%TO.N,unconnected-(J3-Pin_10-Pad10)*%
X106807000Y-99060000D03*
%TO.P,J3,11,Pin_11_11*%
%TO.N,unconnected-(J3-Pin_11-Pad11)*%
X106553000Y-101600000D03*
%TO.P,J3,12,Pin_12_12*%
%TO.N,/AT25_nCS*%
X106807000Y-104140000D03*
%TO.P,J3,13,Pin_13_13*%
%TO.N,/AT25_SCK*%
X106553000Y-106680000D03*
%TO.P,J3,14,Pin_14_14*%
%TO.N,/AT25_MISO*%
X106807000Y-109220000D03*
%TO.P,J3,15,Pin_15_15*%
%TO.N,/AT25_MOSI*%
X106553000Y-111760000D03*
%TO.P,J3,16,Pin_16_16*%
%TO.N,unconnected-(J3-Pin_16-Pad16)*%
X106807000Y-114300000D03*
%TO.P,J3,17,Pin_17_17*%
%TO.N,GND*%
X106553000Y-116840000D03*
%TD*%
D10*
%TO.P,J4,1,Pin_1_1*%
%TO.N,+1V8*%
X149733000Y-76200000D03*
D11*
%TO.P,J4,2,Pin_2_2*%
%TO.N,/LPS_CK*%
X149987000Y-78740000D03*
%TO.P,J4,3,Pin_3_3*%
%TO.N,unconnected-(J4-Pin_3-Pad3)*%
X149733000Y-81280000D03*
%TO.P,J4,4,Pin_4_4*%
%TO.N,/LPS_MOSI*%
X149987000Y-83820000D03*
%TO.P,J4,5,Pin_5_5*%
%TO.N,/LPS_MISO*%
X149733000Y-86360000D03*
%TO.P,J4,6,Pin_6_6*%
%TO.N,/LPS_CS*%
X149987000Y-88900000D03*
%TO.P,J4,7,Pin_7_7*%
%TO.N,/LPS_DRDY*%
X149733000Y-91440000D03*
%TO.P,J4,8,Pin_8_8*%
%TO.N,/FLASH_PWR*%
X149987000Y-93980000D03*
%TO.P,J4,9,Pin_9_9*%
%TO.N,unconnected-(J4-Pin_9-Pad9)*%
X149733000Y-96520000D03*
%TO.P,J4,10,Pin_10_10*%
%TO.N,unconnected-(J4-Pin_10-Pad10)*%
X149987000Y-99060000D03*
%TO.P,J4,11,Pin_11_11*%
%TO.N,unconnected-(J4-Pin_11-Pad11)*%
X149733000Y-101600000D03*
%TO.P,J4,12,Pin_12_12*%
%TO.N,unconnected-(J4-Pin_12-Pad12)*%
X149987000Y-104140000D03*
%TO.P,J4,13,Pin_13_13*%
%TO.N,unconnected-(J4-Pin_13-Pad13)*%
X149733000Y-106680000D03*
%TO.P,J4,14,Pin_14_14*%
%TO.N,unconnected-(J4-Pin_14-Pad14)*%
X149987000Y-109220000D03*
%TO.P,J4,15,Pin_15_15*%
%TO.N,/NC*%
X149733000Y-111760000D03*
%TO.P,J4,16,Pin_16_16*%
%TO.N,/LSM_CS*%
X149987000Y-114300000D03*
%TO.P,J4,17,Pin_17_17*%
%TO.N,GND*%
X149733000Y-116840000D03*
%TD*%
D12*
%TO.N,/BMM_INT*%
X121840000Y-93327000D03*
%TO.N,/SDA*%
X116015000Y-87002000D03*
X122040000Y-90527000D03*
%TO.N,/SCL*%
X122015000Y-86677000D03*
X115990000Y-85177000D03*
%TO.N,GND*%
X138040000Y-82967000D03*
X135890000Y-82157000D03*
X133670000Y-94827000D03*
X126940000Y-79902000D03*
X131021900Y-108807000D03*
X132470000Y-93402000D03*
X122240000Y-81852000D03*
X132771900Y-108782000D03*
X133975000Y-83047000D03*
X129395000Y-91077000D03*
X132350000Y-83022000D03*
X131636900Y-103908000D03*
X139800000Y-82947000D03*
X129408600Y-84899200D03*
X133420000Y-86717000D03*
X131034200Y-85032800D03*
%TO.N,+1V8*%
X129996900Y-106457000D03*
X133670000Y-91527000D03*
X139760000Y-79507000D03*
X133671900Y-106457000D03*
X122040000Y-92052000D03*
X129370000Y-94477000D03*
X129365000Y-88602000D03*
X131040000Y-88577000D03*
X138050000Y-79487000D03*
X122415000Y-89152000D03*
%TO.N,/LPS_CK*%
X133640000Y-88652000D03*
%TO.N,/LPS_MOSI*%
X136615000Y-86927000D03*
X137715000Y-84252000D03*
%TO.N,/LPS_MISO*%
X143240000Y-86352000D03*
%TO.N,/LPS_DRDY*%
X135390000Y-84987000D03*
X136010000Y-85837000D03*
%TO.N,/AT25_MISO*%
X118540000Y-97727000D03*
X121590000Y-98237000D03*
%TO.N,/WKUP1*%
X121050000Y-99197000D03*
%TO.N,/LSM_TRG*%
X134095900Y-104158000D03*
%TO.N,/AT25_SCK*%
X110690000Y-106702000D03*
X120215000Y-96537000D03*
X122240000Y-96637000D03*
%TO.N,/FLASH_PWR*%
X140820000Y-87217000D03*
X136590000Y-82647000D03*
%TD*%
%TO.N,/BMM_INT*%
D13*
X114317000Y-89479000D02*
X115917000Y-91079000D01*
X121840000Y-93327000D02*
X120490000Y-91977000D01*
X116815000Y-91977000D02*
X115917000Y-91079000D01*
X120490000Y-91977000D02*
X116815000Y-91977000D01*
X106807000Y-78740000D02*
X114317000Y-86250000D01*
X114317000Y-86250000D02*
X114317000Y-89479000D01*
%TO.N,/SDA*%
X116015000Y-87002000D02*
X119540000Y-90527000D01*
X119540000Y-90527000D02*
X122040000Y-90527000D01*
%TO.N,/SCL*%
X115990000Y-85177000D02*
X120515000Y-85177000D01*
X120515000Y-85177000D02*
X122015000Y-86677000D01*
%TO.N,/LPS_CK*%
X140075000Y-88652000D02*
X133640000Y-88652000D01*
X149987000Y-78740000D02*
X140075000Y-88652000D01*
%TO.N,/LPS_MOSI*%
X137715000Y-84252000D02*
X136615000Y-85352000D01*
X136615000Y-85352000D02*
X136615000Y-86927000D01*
%TO.N,/LPS_MISO*%
X149733000Y-86360000D02*
X143248000Y-86360000D01*
X143248000Y-86360000D02*
X143240000Y-86352000D01*
%TO.N,/LPS_DRDY*%
X135390000Y-84987000D02*
X135390000Y-85217000D01*
X135390000Y-85217000D02*
X136010000Y-85837000D01*
%TO.N,/AT25_MISO*%
X121080000Y-97727000D02*
X121590000Y-98237000D01*
X118540000Y-97727000D02*
X121080000Y-97727000D01*
%TO.N,/WKUP1*%
X112004000Y-99177000D02*
X121030000Y-99177000D01*
X106807000Y-93980000D02*
X112004000Y-99177000D01*
X121030000Y-99177000D02*
X121050000Y-99197000D01*
%TO.N,/LSM_TRG*%
X116750000Y-83787000D02*
X109163000Y-76200000D01*
X126150000Y-97327000D02*
X126150000Y-88387000D01*
X121550000Y-83787000D02*
X116750000Y-83787000D01*
X134095900Y-104158000D02*
X132981000Y-104158000D01*
X109163000Y-76200000D02*
X106553000Y-76200000D01*
X126150000Y-88387000D02*
X121550000Y-83787000D01*
X132981000Y-104158000D02*
X126150000Y-97327000D01*
%TO.N,/AT25_SCK*%
X120215000Y-96537000D02*
X122140000Y-96537000D01*
X110668000Y-106680000D02*
X106553000Y-106680000D01*
X110690000Y-106702000D02*
X110668000Y-106680000D01*
X122140000Y-96537000D02*
X122240000Y-96637000D01*
%TO.N,/FLASH_PWR*%
X140820000Y-86427000D02*
X140820000Y-87217000D01*
X136590000Y-82647000D02*
X137520000Y-83577000D01*
X137520000Y-83577000D02*
X137970000Y-83577000D01*
X137970000Y-83577000D02*
X140820000Y-86427000D01*
%TD*%
M02*
