%TF.GenerationSoftware,KiCad,Pcbnew,10.0.2*%
%TF.CreationDate,2026-08-14T14:33:40-04:00*%
%TF.ProjectId,IMUTagNandBMP581-breakout,494d5554-6167-44e6-916e-64424d503538,rev?*%
%TF.SameCoordinates,Original*%
%TF.FileFunction,Paste,Top*%
%TF.FilePolarity,Positive*%
%FSLAX46Y46*%
G04 Gerber Fmt 4.6, Leading zero omitted, Abs format (unit mm)*
G04 Created by KiCad (PCBNEW 10.0.2) date 2026-08-14 14:33:40*
%MOMM*%
%LPD*%
G01*
G04 APERTURE LIST*
G04 Aperture macros list*
%AMRoundRect*
0 Rectangle with rounded corners*
0 $1 Rounding radius*
0 $2 $3 $4 $5 $6 $7 $8 $9 X,Y pos of 4 corners*
0 Add a 4 corners polygon primitive as box body*
4,1,4,$2,$3,$4,$5,$6,$7,$8,$9,$2,$3,0*
0 Add four circle primitives for the rounded corners*
1,1,$1+$1,$2,$3*
1,1,$1+$1,$4,$5*
1,1,$1+$1,$6,$7*
1,1,$1+$1,$8,$9*
0 Add four rect primitives between the rounded corners*
20,1,$1+$1,$2,$3,$4,$5,0*
20,1,$1+$1,$4,$5,$6,$7,0*
20,1,$1+$1,$6,$7,$8,$9,0*
20,1,$1+$1,$8,$9,$2,$3,0*%
G04 Aperture macros list end*
%ADD10C,0.010000*%
%ADD11C,0.228600*%
%ADD12RoundRect,0.225000X-0.250000X0.225000X-0.250000X-0.225000X0.250000X-0.225000X0.250000X0.225000X0*%
%ADD13RoundRect,0.225000X0.250000X-0.225000X0.250000X0.225000X-0.250000X0.225000X-0.250000X-0.225000X0*%
%ADD14RoundRect,0.225000X-0.225000X-0.250000X0.225000X-0.250000X0.225000X0.250000X-0.225000X0.250000X0*%
%ADD15RoundRect,0.200000X-0.200000X-0.275000X0.200000X-0.275000X0.200000X0.275000X-0.200000X0.275000X0*%
%ADD16R,0.254000X0.279400*%
%ADD17R,0.254000X0.254000*%
%ADD18R,0.533400X0.304800*%
%ADD19R,0.304800X0.533400*%
%ADD20RoundRect,0.250000X-0.435000X-0.615000X0.435000X-0.615000X0.435000X0.615000X-0.435000X0.615000X0*%
%ADD21RoundRect,0.125000X-0.200000X-0.125000X0.200000X-0.125000X0.200000X0.125000X-0.200000X0.125000X0*%
G04 APERTURE END LIST*
D10*
%TO.C,U1*%
X135805000Y-81192000D02*
X135955000Y-81192000D01*
X135958000Y-81192000D01*
X135960000Y-81192000D01*
X135963000Y-81193000D01*
X135965000Y-81193000D01*
X135968000Y-81194000D01*
X135970000Y-81194000D01*
X135973000Y-81195000D01*
X135975000Y-81196000D01*
X135978000Y-81197000D01*
X135980000Y-81199000D01*
X135982000Y-81200000D01*
X135984000Y-81202000D01*
X135986000Y-81203000D01*
X135988000Y-81205000D01*
X135990000Y-81207000D01*
X135992000Y-81209000D01*
X135994000Y-81211000D01*
X135995000Y-81213000D01*
X135997000Y-81215000D01*
X135998000Y-81217000D01*
X136000000Y-81219000D01*
X136001000Y-81222000D01*
X136002000Y-81224000D01*
X136003000Y-81227000D01*
X136003000Y-81229000D01*
X136004000Y-81232000D01*
X136004000Y-81234000D01*
X136005000Y-81237000D01*
X136005000Y-81239000D01*
X136005000Y-81242000D01*
X136005000Y-81392000D01*
X136005000Y-81395000D01*
X136005000Y-81397000D01*
X136004000Y-81400000D01*
X136004000Y-81402000D01*
X136003000Y-81405000D01*
X136003000Y-81407000D01*
X136002000Y-81410000D01*
X136001000Y-81412000D01*
X136000000Y-81415000D01*
X135998000Y-81417000D01*
X135997000Y-81419000D01*
X135995000Y-81421000D01*
X135994000Y-81423000D01*
X135992000Y-81425000D01*
X135990000Y-81427000D01*
X135988000Y-81429000D01*
X135986000Y-81431000D01*
X135984000Y-81432000D01*
X135982000Y-81434000D01*
X135980000Y-81435000D01*
X135978000Y-81437000D01*
X135975000Y-81438000D01*
X135973000Y-81439000D01*
X135970000Y-81440000D01*
X135968000Y-81440000D01*
X135965000Y-81441000D01*
X135963000Y-81441000D01*
X135960000Y-81442000D01*
X135958000Y-81442000D01*
X135955000Y-81442000D01*
X135805000Y-81442000D01*
X135802000Y-81442000D01*
X135800000Y-81442000D01*
X135797000Y-81441000D01*
X135795000Y-81441000D01*
X135792000Y-81440000D01*
X135790000Y-81440000D01*
X135787000Y-81439000D01*
X135785000Y-81438000D01*
X135782000Y-81437000D01*
X135780000Y-81435000D01*
X135778000Y-81434000D01*
X135776000Y-81432000D01*
X135774000Y-81431000D01*
X135772000Y-81429000D01*
X135770000Y-81427000D01*
X135768000Y-81425000D01*
X135766000Y-81423000D01*
X135765000Y-81421000D01*
X135763000Y-81419000D01*
X135762000Y-81417000D01*
X135760000Y-81415000D01*
X135759000Y-81412000D01*
X135758000Y-81410000D01*
X135757000Y-81407000D01*
X135757000Y-81405000D01*
X135756000Y-81402000D01*
X135756000Y-81400000D01*
X135755000Y-81397000D01*
X135755000Y-81395000D01*
X135755000Y-81392000D01*
X135755000Y-81242000D01*
X135755000Y-81239000D01*
X135755000Y-81237000D01*
X135756000Y-81234000D01*
X135756000Y-81232000D01*
X135757000Y-81229000D01*
X135757000Y-81227000D01*
X135758000Y-81224000D01*
X135759000Y-81222000D01*
X135760000Y-81219000D01*
X135762000Y-81217000D01*
X135763000Y-81215000D01*
X135765000Y-81213000D01*
X135766000Y-81211000D01*
X135768000Y-81209000D01*
X135770000Y-81207000D01*
X135772000Y-81205000D01*
X135774000Y-81203000D01*
X135776000Y-81202000D01*
X135778000Y-81200000D01*
X135780000Y-81199000D01*
X135782000Y-81197000D01*
X135785000Y-81196000D01*
X135787000Y-81195000D01*
X135790000Y-81194000D01*
X135792000Y-81194000D01*
X135795000Y-81193000D01*
X135797000Y-81193000D01*
X135800000Y-81192000D01*
X135802000Y-81192000D01*
X135805000Y-81192000D01*
G36*
X135963000Y-81193000D02*
G01*
X135965000Y-81193000D01*
X135968000Y-81194000D01*
X135970000Y-81194000D01*
X135973000Y-81195000D01*
X135975000Y-81196000D01*
X135978000Y-81197000D01*
X135980000Y-81199000D01*
X135982000Y-81200000D01*
X135984000Y-81202000D01*
X135986000Y-81203000D01*
X135988000Y-81205000D01*
X135990000Y-81207000D01*
X135992000Y-81209000D01*
X135994000Y-81211000D01*
X135995000Y-81213000D01*
X135997000Y-81215000D01*
X135998000Y-81217000D01*
X136000000Y-81219000D01*
X136001000Y-81222000D01*
X136002000Y-81224000D01*
X136003000Y-81227000D01*
X136003000Y-81229000D01*
X136004000Y-81232000D01*
X136004000Y-81234000D01*
X136005000Y-81237000D01*
X136005000Y-81239000D01*
X136005000Y-81242000D01*
X136005000Y-81392000D01*
X136005000Y-81395000D01*
X136005000Y-81397000D01*
X136004000Y-81400000D01*
X136004000Y-81402000D01*
X136003000Y-81405000D01*
X136003000Y-81407000D01*
X136002000Y-81410000D01*
X136001000Y-81412000D01*
X136000000Y-81415000D01*
X135998000Y-81417000D01*
X135997000Y-81419000D01*
X135995000Y-81421000D01*
X135994000Y-81423000D01*
X135992000Y-81425000D01*
X135990000Y-81427000D01*
X135988000Y-81429000D01*
X135986000Y-81431000D01*
X135984000Y-81432000D01*
X135982000Y-81434000D01*
X135980000Y-81435000D01*
X135978000Y-81437000D01*
X135975000Y-81438000D01*
X135973000Y-81439000D01*
X135970000Y-81440000D01*
X135968000Y-81440000D01*
X135965000Y-81441000D01*
X135963000Y-81441000D01*
X135960000Y-81442000D01*
X135958000Y-81442000D01*
X135955000Y-81442000D01*
X135805000Y-81442000D01*
X135802000Y-81442000D01*
X135800000Y-81442000D01*
X135797000Y-81441000D01*
X135795000Y-81441000D01*
X135792000Y-81440000D01*
X135790000Y-81440000D01*
X135787000Y-81439000D01*
X135785000Y-81438000D01*
X135782000Y-81437000D01*
X135780000Y-81435000D01*
X135778000Y-81434000D01*
X135776000Y-81432000D01*
X135774000Y-81431000D01*
X135772000Y-81429000D01*
X135770000Y-81427000D01*
X135768000Y-81425000D01*
X135766000Y-81423000D01*
X135765000Y-81421000D01*
X135763000Y-81419000D01*
X135762000Y-81417000D01*
X135760000Y-81415000D01*
X135759000Y-81412000D01*
X135758000Y-81410000D01*
X135757000Y-81407000D01*
X135757000Y-81405000D01*
X135756000Y-81402000D01*
X135756000Y-81400000D01*
X135755000Y-81397000D01*
X135755000Y-81395000D01*
X135755000Y-81392000D01*
X135755000Y-81242000D01*
X135755000Y-81239000D01*
X135755000Y-81237000D01*
X135756000Y-81234000D01*
X135756000Y-81232000D01*
X135757000Y-81229000D01*
X135757000Y-81227000D01*
X135758000Y-81224000D01*
X135759000Y-81222000D01*
X135760000Y-81219000D01*
X135762000Y-81217000D01*
X135763000Y-81215000D01*
X135765000Y-81213000D01*
X135766000Y-81211000D01*
X135768000Y-81209000D01*
X135770000Y-81207000D01*
X135772000Y-81205000D01*
X135774000Y-81203000D01*
X135776000Y-81202000D01*
X135778000Y-81200000D01*
X135780000Y-81199000D01*
X135782000Y-81197000D01*
X135785000Y-81196000D01*
X135787000Y-81195000D01*
X135790000Y-81194000D01*
X135792000Y-81194000D01*
X135795000Y-81193000D01*
X135797000Y-81193000D01*
X135800000Y-81192000D01*
X135802000Y-81192000D01*
X135805000Y-81192000D01*
X135955000Y-81192000D01*
X135958000Y-81192000D01*
X135960000Y-81192000D01*
X135963000Y-81193000D01*
G37*
X135805000Y-81592000D02*
X135955000Y-81592000D01*
X135958000Y-81592000D01*
X135960000Y-81592000D01*
X135963000Y-81593000D01*
X135965000Y-81593000D01*
X135968000Y-81594000D01*
X135970000Y-81594000D01*
X135973000Y-81595000D01*
X135975000Y-81596000D01*
X135978000Y-81597000D01*
X135980000Y-81599000D01*
X135982000Y-81600000D01*
X135984000Y-81602000D01*
X135986000Y-81603000D01*
X135988000Y-81605000D01*
X135990000Y-81607000D01*
X135992000Y-81609000D01*
X135994000Y-81611000D01*
X135995000Y-81613000D01*
X135997000Y-81615000D01*
X135998000Y-81617000D01*
X136000000Y-81619000D01*
X136001000Y-81622000D01*
X136002000Y-81624000D01*
X136003000Y-81627000D01*
X136003000Y-81629000D01*
X136004000Y-81632000D01*
X136004000Y-81634000D01*
X136005000Y-81637000D01*
X136005000Y-81639000D01*
X136005000Y-81642000D01*
X136005000Y-81792000D01*
X136005000Y-81795000D01*
X136005000Y-81797000D01*
X136004000Y-81800000D01*
X136004000Y-81802000D01*
X136003000Y-81805000D01*
X136003000Y-81807000D01*
X136002000Y-81810000D01*
X136001000Y-81812000D01*
X136000000Y-81815000D01*
X135998000Y-81817000D01*
X135997000Y-81819000D01*
X135995000Y-81821000D01*
X135994000Y-81823000D01*
X135992000Y-81825000D01*
X135990000Y-81827000D01*
X135988000Y-81829000D01*
X135986000Y-81831000D01*
X135984000Y-81832000D01*
X135982000Y-81834000D01*
X135980000Y-81835000D01*
X135978000Y-81837000D01*
X135975000Y-81838000D01*
X135973000Y-81839000D01*
X135970000Y-81840000D01*
X135968000Y-81840000D01*
X135965000Y-81841000D01*
X135963000Y-81841000D01*
X135960000Y-81842000D01*
X135958000Y-81842000D01*
X135955000Y-81842000D01*
X135805000Y-81842000D01*
X135802000Y-81842000D01*
X135800000Y-81842000D01*
X135797000Y-81841000D01*
X135795000Y-81841000D01*
X135792000Y-81840000D01*
X135790000Y-81840000D01*
X135787000Y-81839000D01*
X135785000Y-81838000D01*
X135782000Y-81837000D01*
X135780000Y-81835000D01*
X135778000Y-81834000D01*
X135776000Y-81832000D01*
X135774000Y-81831000D01*
X135772000Y-81829000D01*
X135770000Y-81827000D01*
X135768000Y-81825000D01*
X135766000Y-81823000D01*
X135765000Y-81821000D01*
X135763000Y-81819000D01*
X135762000Y-81817000D01*
X135760000Y-81815000D01*
X135759000Y-81812000D01*
X135758000Y-81810000D01*
X135757000Y-81807000D01*
X135757000Y-81805000D01*
X135756000Y-81802000D01*
X135756000Y-81800000D01*
X135755000Y-81797000D01*
X135755000Y-81795000D01*
X135755000Y-81792000D01*
X135755000Y-81642000D01*
X135755000Y-81639000D01*
X135755000Y-81637000D01*
X135756000Y-81634000D01*
X135756000Y-81632000D01*
X135757000Y-81629000D01*
X135757000Y-81627000D01*
X135758000Y-81624000D01*
X135759000Y-81622000D01*
X135760000Y-81619000D01*
X135762000Y-81617000D01*
X135763000Y-81615000D01*
X135765000Y-81613000D01*
X135766000Y-81611000D01*
X135768000Y-81609000D01*
X135770000Y-81607000D01*
X135772000Y-81605000D01*
X135774000Y-81603000D01*
X135776000Y-81602000D01*
X135778000Y-81600000D01*
X135780000Y-81599000D01*
X135782000Y-81597000D01*
X135785000Y-81596000D01*
X135787000Y-81595000D01*
X135790000Y-81594000D01*
X135792000Y-81594000D01*
X135795000Y-81593000D01*
X135797000Y-81593000D01*
X135800000Y-81592000D01*
X135802000Y-81592000D01*
X135805000Y-81592000D01*
G36*
X135963000Y-81593000D02*
G01*
X135965000Y-81593000D01*
X135968000Y-81594000D01*
X135970000Y-81594000D01*
X135973000Y-81595000D01*
X135975000Y-81596000D01*
X135978000Y-81597000D01*
X135980000Y-81599000D01*
X135982000Y-81600000D01*
X135984000Y-81602000D01*
X135986000Y-81603000D01*
X135988000Y-81605000D01*
X135990000Y-81607000D01*
X135992000Y-81609000D01*
X135994000Y-81611000D01*
X135995000Y-81613000D01*
X135997000Y-81615000D01*
X135998000Y-81617000D01*
X136000000Y-81619000D01*
X136001000Y-81622000D01*
X136002000Y-81624000D01*
X136003000Y-81627000D01*
X136003000Y-81629000D01*
X136004000Y-81632000D01*
X136004000Y-81634000D01*
X136005000Y-81637000D01*
X136005000Y-81639000D01*
X136005000Y-81642000D01*
X136005000Y-81792000D01*
X136005000Y-81795000D01*
X136005000Y-81797000D01*
X136004000Y-81800000D01*
X136004000Y-81802000D01*
X136003000Y-81805000D01*
X136003000Y-81807000D01*
X136002000Y-81810000D01*
X136001000Y-81812000D01*
X136000000Y-81815000D01*
X135998000Y-81817000D01*
X135997000Y-81819000D01*
X135995000Y-81821000D01*
X135994000Y-81823000D01*
X135992000Y-81825000D01*
X135990000Y-81827000D01*
X135988000Y-81829000D01*
X135986000Y-81831000D01*
X135984000Y-81832000D01*
X135982000Y-81834000D01*
X135980000Y-81835000D01*
X135978000Y-81837000D01*
X135975000Y-81838000D01*
X135973000Y-81839000D01*
X135970000Y-81840000D01*
X135968000Y-81840000D01*
X135965000Y-81841000D01*
X135963000Y-81841000D01*
X135960000Y-81842000D01*
X135958000Y-81842000D01*
X135955000Y-81842000D01*
X135805000Y-81842000D01*
X135802000Y-81842000D01*
X135800000Y-81842000D01*
X135797000Y-81841000D01*
X135795000Y-81841000D01*
X135792000Y-81840000D01*
X135790000Y-81840000D01*
X135787000Y-81839000D01*
X135785000Y-81838000D01*
X135782000Y-81837000D01*
X135780000Y-81835000D01*
X135778000Y-81834000D01*
X135776000Y-81832000D01*
X135774000Y-81831000D01*
X135772000Y-81829000D01*
X135770000Y-81827000D01*
X135768000Y-81825000D01*
X135766000Y-81823000D01*
X135765000Y-81821000D01*
X135763000Y-81819000D01*
X135762000Y-81817000D01*
X135760000Y-81815000D01*
X135759000Y-81812000D01*
X135758000Y-81810000D01*
X135757000Y-81807000D01*
X135757000Y-81805000D01*
X135756000Y-81802000D01*
X135756000Y-81800000D01*
X135755000Y-81797000D01*
X135755000Y-81795000D01*
X135755000Y-81792000D01*
X135755000Y-81642000D01*
X135755000Y-81639000D01*
X135755000Y-81637000D01*
X135756000Y-81634000D01*
X135756000Y-81632000D01*
X135757000Y-81629000D01*
X135757000Y-81627000D01*
X135758000Y-81624000D01*
X135759000Y-81622000D01*
X135760000Y-81619000D01*
X135762000Y-81617000D01*
X135763000Y-81615000D01*
X135765000Y-81613000D01*
X135766000Y-81611000D01*
X135768000Y-81609000D01*
X135770000Y-81607000D01*
X135772000Y-81605000D01*
X135774000Y-81603000D01*
X135776000Y-81602000D01*
X135778000Y-81600000D01*
X135780000Y-81599000D01*
X135782000Y-81597000D01*
X135785000Y-81596000D01*
X135787000Y-81595000D01*
X135790000Y-81594000D01*
X135792000Y-81594000D01*
X135795000Y-81593000D01*
X135797000Y-81593000D01*
X135800000Y-81592000D01*
X135802000Y-81592000D01*
X135805000Y-81592000D01*
X135955000Y-81592000D01*
X135958000Y-81592000D01*
X135960000Y-81592000D01*
X135963000Y-81593000D01*
G37*
X136205000Y-81192000D02*
X136355000Y-81192000D01*
X136358000Y-81192000D01*
X136360000Y-81192000D01*
X136363000Y-81193000D01*
X136365000Y-81193000D01*
X136368000Y-81194000D01*
X136370000Y-81194000D01*
X136373000Y-81195000D01*
X136375000Y-81196000D01*
X136378000Y-81197000D01*
X136380000Y-81199000D01*
X136382000Y-81200000D01*
X136384000Y-81202000D01*
X136386000Y-81203000D01*
X136388000Y-81205000D01*
X136390000Y-81207000D01*
X136392000Y-81209000D01*
X136394000Y-81211000D01*
X136395000Y-81213000D01*
X136397000Y-81215000D01*
X136398000Y-81217000D01*
X136400000Y-81219000D01*
X136401000Y-81222000D01*
X136402000Y-81224000D01*
X136403000Y-81227000D01*
X136403000Y-81229000D01*
X136404000Y-81232000D01*
X136404000Y-81234000D01*
X136405000Y-81237000D01*
X136405000Y-81239000D01*
X136405000Y-81242000D01*
X136405000Y-81392000D01*
X136405000Y-81395000D01*
X136405000Y-81397000D01*
X136404000Y-81400000D01*
X136404000Y-81402000D01*
X136403000Y-81405000D01*
X136403000Y-81407000D01*
X136402000Y-81410000D01*
X136401000Y-81412000D01*
X136400000Y-81415000D01*
X136398000Y-81417000D01*
X136397000Y-81419000D01*
X136395000Y-81421000D01*
X136394000Y-81423000D01*
X136392000Y-81425000D01*
X136390000Y-81427000D01*
X136388000Y-81429000D01*
X136386000Y-81431000D01*
X136384000Y-81432000D01*
X136382000Y-81434000D01*
X136380000Y-81435000D01*
X136378000Y-81437000D01*
X136375000Y-81438000D01*
X136373000Y-81439000D01*
X136370000Y-81440000D01*
X136368000Y-81440000D01*
X136365000Y-81441000D01*
X136363000Y-81441000D01*
X136360000Y-81442000D01*
X136358000Y-81442000D01*
X136355000Y-81442000D01*
X136205000Y-81442000D01*
X136202000Y-81442000D01*
X136200000Y-81442000D01*
X136197000Y-81441000D01*
X136195000Y-81441000D01*
X136192000Y-81440000D01*
X136190000Y-81440000D01*
X136187000Y-81439000D01*
X136185000Y-81438000D01*
X136182000Y-81437000D01*
X136180000Y-81435000D01*
X136178000Y-81434000D01*
X136176000Y-81432000D01*
X136174000Y-81431000D01*
X136172000Y-81429000D01*
X136170000Y-81427000D01*
X136168000Y-81425000D01*
X136166000Y-81423000D01*
X136165000Y-81421000D01*
X136163000Y-81419000D01*
X136162000Y-81417000D01*
X136160000Y-81415000D01*
X136159000Y-81412000D01*
X136158000Y-81410000D01*
X136157000Y-81407000D01*
X136157000Y-81405000D01*
X136156000Y-81402000D01*
X136156000Y-81400000D01*
X136155000Y-81397000D01*
X136155000Y-81395000D01*
X136155000Y-81392000D01*
X136155000Y-81242000D01*
X136155000Y-81239000D01*
X136155000Y-81237000D01*
X136156000Y-81234000D01*
X136156000Y-81232000D01*
X136157000Y-81229000D01*
X136157000Y-81227000D01*
X136158000Y-81224000D01*
X136159000Y-81222000D01*
X136160000Y-81219000D01*
X136162000Y-81217000D01*
X136163000Y-81215000D01*
X136165000Y-81213000D01*
X136166000Y-81211000D01*
X136168000Y-81209000D01*
X136170000Y-81207000D01*
X136172000Y-81205000D01*
X136174000Y-81203000D01*
X136176000Y-81202000D01*
X136178000Y-81200000D01*
X136180000Y-81199000D01*
X136182000Y-81197000D01*
X136185000Y-81196000D01*
X136187000Y-81195000D01*
X136190000Y-81194000D01*
X136192000Y-81194000D01*
X136195000Y-81193000D01*
X136197000Y-81193000D01*
X136200000Y-81192000D01*
X136202000Y-81192000D01*
X136205000Y-81192000D01*
G36*
X136363000Y-81193000D02*
G01*
X136365000Y-81193000D01*
X136368000Y-81194000D01*
X136370000Y-81194000D01*
X136373000Y-81195000D01*
X136375000Y-81196000D01*
X136378000Y-81197000D01*
X136380000Y-81199000D01*
X136382000Y-81200000D01*
X136384000Y-81202000D01*
X136386000Y-81203000D01*
X136388000Y-81205000D01*
X136390000Y-81207000D01*
X136392000Y-81209000D01*
X136394000Y-81211000D01*
X136395000Y-81213000D01*
X136397000Y-81215000D01*
X136398000Y-81217000D01*
X136400000Y-81219000D01*
X136401000Y-81222000D01*
X136402000Y-81224000D01*
X136403000Y-81227000D01*
X136403000Y-81229000D01*
X136404000Y-81232000D01*
X136404000Y-81234000D01*
X136405000Y-81237000D01*
X136405000Y-81239000D01*
X136405000Y-81242000D01*
X136405000Y-81392000D01*
X136405000Y-81395000D01*
X136405000Y-81397000D01*
X136404000Y-81400000D01*
X136404000Y-81402000D01*
X136403000Y-81405000D01*
X136403000Y-81407000D01*
X136402000Y-81410000D01*
X136401000Y-81412000D01*
X136400000Y-81415000D01*
X136398000Y-81417000D01*
X136397000Y-81419000D01*
X136395000Y-81421000D01*
X136394000Y-81423000D01*
X136392000Y-81425000D01*
X136390000Y-81427000D01*
X136388000Y-81429000D01*
X136386000Y-81431000D01*
X136384000Y-81432000D01*
X136382000Y-81434000D01*
X136380000Y-81435000D01*
X136378000Y-81437000D01*
X136375000Y-81438000D01*
X136373000Y-81439000D01*
X136370000Y-81440000D01*
X136368000Y-81440000D01*
X136365000Y-81441000D01*
X136363000Y-81441000D01*
X136360000Y-81442000D01*
X136358000Y-81442000D01*
X136355000Y-81442000D01*
X136205000Y-81442000D01*
X136202000Y-81442000D01*
X136200000Y-81442000D01*
X136197000Y-81441000D01*
X136195000Y-81441000D01*
X136192000Y-81440000D01*
X136190000Y-81440000D01*
X136187000Y-81439000D01*
X136185000Y-81438000D01*
X136182000Y-81437000D01*
X136180000Y-81435000D01*
X136178000Y-81434000D01*
X136176000Y-81432000D01*
X136174000Y-81431000D01*
X136172000Y-81429000D01*
X136170000Y-81427000D01*
X136168000Y-81425000D01*
X136166000Y-81423000D01*
X136165000Y-81421000D01*
X136163000Y-81419000D01*
X136162000Y-81417000D01*
X136160000Y-81415000D01*
X136159000Y-81412000D01*
X136158000Y-81410000D01*
X136157000Y-81407000D01*
X136157000Y-81405000D01*
X136156000Y-81402000D01*
X136156000Y-81400000D01*
X136155000Y-81397000D01*
X136155000Y-81395000D01*
X136155000Y-81392000D01*
X136155000Y-81242000D01*
X136155000Y-81239000D01*
X136155000Y-81237000D01*
X136156000Y-81234000D01*
X136156000Y-81232000D01*
X136157000Y-81229000D01*
X136157000Y-81227000D01*
X136158000Y-81224000D01*
X136159000Y-81222000D01*
X136160000Y-81219000D01*
X136162000Y-81217000D01*
X136163000Y-81215000D01*
X136165000Y-81213000D01*
X136166000Y-81211000D01*
X136168000Y-81209000D01*
X136170000Y-81207000D01*
X136172000Y-81205000D01*
X136174000Y-81203000D01*
X136176000Y-81202000D01*
X136178000Y-81200000D01*
X136180000Y-81199000D01*
X136182000Y-81197000D01*
X136185000Y-81196000D01*
X136187000Y-81195000D01*
X136190000Y-81194000D01*
X136192000Y-81194000D01*
X136195000Y-81193000D01*
X136197000Y-81193000D01*
X136200000Y-81192000D01*
X136202000Y-81192000D01*
X136205000Y-81192000D01*
X136355000Y-81192000D01*
X136358000Y-81192000D01*
X136360000Y-81192000D01*
X136363000Y-81193000D01*
G37*
X136205000Y-81592000D02*
X136355000Y-81592000D01*
X136358000Y-81592000D01*
X136360000Y-81592000D01*
X136363000Y-81593000D01*
X136365000Y-81593000D01*
X136368000Y-81594000D01*
X136370000Y-81594000D01*
X136373000Y-81595000D01*
X136375000Y-81596000D01*
X136378000Y-81597000D01*
X136380000Y-81599000D01*
X136382000Y-81600000D01*
X136384000Y-81602000D01*
X136386000Y-81603000D01*
X136388000Y-81605000D01*
X136390000Y-81607000D01*
X136392000Y-81609000D01*
X136394000Y-81611000D01*
X136395000Y-81613000D01*
X136397000Y-81615000D01*
X136398000Y-81617000D01*
X136400000Y-81619000D01*
X136401000Y-81622000D01*
X136402000Y-81624000D01*
X136403000Y-81627000D01*
X136403000Y-81629000D01*
X136404000Y-81632000D01*
X136404000Y-81634000D01*
X136405000Y-81637000D01*
X136405000Y-81639000D01*
X136405000Y-81642000D01*
X136405000Y-81792000D01*
X136405000Y-81795000D01*
X136405000Y-81797000D01*
X136404000Y-81800000D01*
X136404000Y-81802000D01*
X136403000Y-81805000D01*
X136403000Y-81807000D01*
X136402000Y-81810000D01*
X136401000Y-81812000D01*
X136400000Y-81815000D01*
X136398000Y-81817000D01*
X136397000Y-81819000D01*
X136395000Y-81821000D01*
X136394000Y-81823000D01*
X136392000Y-81825000D01*
X136390000Y-81827000D01*
X136388000Y-81829000D01*
X136386000Y-81831000D01*
X136384000Y-81832000D01*
X136382000Y-81834000D01*
X136380000Y-81835000D01*
X136378000Y-81837000D01*
X136375000Y-81838000D01*
X136373000Y-81839000D01*
X136370000Y-81840000D01*
X136368000Y-81840000D01*
X136365000Y-81841000D01*
X136363000Y-81841000D01*
X136360000Y-81842000D01*
X136358000Y-81842000D01*
X136355000Y-81842000D01*
X136205000Y-81842000D01*
X136202000Y-81842000D01*
X136200000Y-81842000D01*
X136197000Y-81841000D01*
X136195000Y-81841000D01*
X136192000Y-81840000D01*
X136190000Y-81840000D01*
X136187000Y-81839000D01*
X136185000Y-81838000D01*
X136182000Y-81837000D01*
X136180000Y-81835000D01*
X136178000Y-81834000D01*
X136176000Y-81832000D01*
X136174000Y-81831000D01*
X136172000Y-81829000D01*
X136170000Y-81827000D01*
X136168000Y-81825000D01*
X136166000Y-81823000D01*
X136165000Y-81821000D01*
X136163000Y-81819000D01*
X136162000Y-81817000D01*
X136160000Y-81815000D01*
X136159000Y-81812000D01*
X136158000Y-81810000D01*
X136157000Y-81807000D01*
X136157000Y-81805000D01*
X136156000Y-81802000D01*
X136156000Y-81800000D01*
X136155000Y-81797000D01*
X136155000Y-81795000D01*
X136155000Y-81792000D01*
X136155000Y-81642000D01*
X136155000Y-81639000D01*
X136155000Y-81637000D01*
X136156000Y-81634000D01*
X136156000Y-81632000D01*
X136157000Y-81629000D01*
X136157000Y-81627000D01*
X136158000Y-81624000D01*
X136159000Y-81622000D01*
X136160000Y-81619000D01*
X136162000Y-81617000D01*
X136163000Y-81615000D01*
X136165000Y-81613000D01*
X136166000Y-81611000D01*
X136168000Y-81609000D01*
X136170000Y-81607000D01*
X136172000Y-81605000D01*
X136174000Y-81603000D01*
X136176000Y-81602000D01*
X136178000Y-81600000D01*
X136180000Y-81599000D01*
X136182000Y-81597000D01*
X136185000Y-81596000D01*
X136187000Y-81595000D01*
X136190000Y-81594000D01*
X136192000Y-81594000D01*
X136195000Y-81593000D01*
X136197000Y-81593000D01*
X136200000Y-81592000D01*
X136202000Y-81592000D01*
X136205000Y-81592000D01*
G36*
X136363000Y-81593000D02*
G01*
X136365000Y-81593000D01*
X136368000Y-81594000D01*
X136370000Y-81594000D01*
X136373000Y-81595000D01*
X136375000Y-81596000D01*
X136378000Y-81597000D01*
X136380000Y-81599000D01*
X136382000Y-81600000D01*
X136384000Y-81602000D01*
X136386000Y-81603000D01*
X136388000Y-81605000D01*
X136390000Y-81607000D01*
X136392000Y-81609000D01*
X136394000Y-81611000D01*
X136395000Y-81613000D01*
X136397000Y-81615000D01*
X136398000Y-81617000D01*
X136400000Y-81619000D01*
X136401000Y-81622000D01*
X136402000Y-81624000D01*
X136403000Y-81627000D01*
X136403000Y-81629000D01*
X136404000Y-81632000D01*
X136404000Y-81634000D01*
X136405000Y-81637000D01*
X136405000Y-81639000D01*
X136405000Y-81642000D01*
X136405000Y-81792000D01*
X136405000Y-81795000D01*
X136405000Y-81797000D01*
X136404000Y-81800000D01*
X136404000Y-81802000D01*
X136403000Y-81805000D01*
X136403000Y-81807000D01*
X136402000Y-81810000D01*
X136401000Y-81812000D01*
X136400000Y-81815000D01*
X136398000Y-81817000D01*
X136397000Y-81819000D01*
X136395000Y-81821000D01*
X136394000Y-81823000D01*
X136392000Y-81825000D01*
X136390000Y-81827000D01*
X136388000Y-81829000D01*
X136386000Y-81831000D01*
X136384000Y-81832000D01*
X136382000Y-81834000D01*
X136380000Y-81835000D01*
X136378000Y-81837000D01*
X136375000Y-81838000D01*
X136373000Y-81839000D01*
X136370000Y-81840000D01*
X136368000Y-81840000D01*
X136365000Y-81841000D01*
X136363000Y-81841000D01*
X136360000Y-81842000D01*
X136358000Y-81842000D01*
X136355000Y-81842000D01*
X136205000Y-81842000D01*
X136202000Y-81842000D01*
X136200000Y-81842000D01*
X136197000Y-81841000D01*
X136195000Y-81841000D01*
X136192000Y-81840000D01*
X136190000Y-81840000D01*
X136187000Y-81839000D01*
X136185000Y-81838000D01*
X136182000Y-81837000D01*
X136180000Y-81835000D01*
X136178000Y-81834000D01*
X136176000Y-81832000D01*
X136174000Y-81831000D01*
X136172000Y-81829000D01*
X136170000Y-81827000D01*
X136168000Y-81825000D01*
X136166000Y-81823000D01*
X136165000Y-81821000D01*
X136163000Y-81819000D01*
X136162000Y-81817000D01*
X136160000Y-81815000D01*
X136159000Y-81812000D01*
X136158000Y-81810000D01*
X136157000Y-81807000D01*
X136157000Y-81805000D01*
X136156000Y-81802000D01*
X136156000Y-81800000D01*
X136155000Y-81797000D01*
X136155000Y-81795000D01*
X136155000Y-81792000D01*
X136155000Y-81642000D01*
X136155000Y-81639000D01*
X136155000Y-81637000D01*
X136156000Y-81634000D01*
X136156000Y-81632000D01*
X136157000Y-81629000D01*
X136157000Y-81627000D01*
X136158000Y-81624000D01*
X136159000Y-81622000D01*
X136160000Y-81619000D01*
X136162000Y-81617000D01*
X136163000Y-81615000D01*
X136165000Y-81613000D01*
X136166000Y-81611000D01*
X136168000Y-81609000D01*
X136170000Y-81607000D01*
X136172000Y-81605000D01*
X136174000Y-81603000D01*
X136176000Y-81602000D01*
X136178000Y-81600000D01*
X136180000Y-81599000D01*
X136182000Y-81597000D01*
X136185000Y-81596000D01*
X136187000Y-81595000D01*
X136190000Y-81594000D01*
X136192000Y-81594000D01*
X136195000Y-81593000D01*
X136197000Y-81593000D01*
X136200000Y-81592000D01*
X136202000Y-81592000D01*
X136205000Y-81592000D01*
X136355000Y-81592000D01*
X136358000Y-81592000D01*
X136360000Y-81592000D01*
X136363000Y-81593000D01*
G37*
%TD*%
D11*
%TO.C,U2*%
X130844900Y-92426900D03*
X131244950Y-92426900D03*
X131645000Y-92426900D03*
X130844900Y-92826950D03*
X131244950Y-92826950D03*
X131645000Y-92826950D03*
X130844900Y-93227000D03*
X131244950Y-93227000D03*
X131645000Y-93227000D03*
%TD*%
D12*
%TO.C,C10*%
X134100000Y-80547000D03*
X134100000Y-82097000D03*
%TD*%
D13*
%TO.C,C12*%
X129395000Y-93627000D03*
X129395000Y-92077000D03*
%TD*%
D12*
%TO.C,C13*%
X133670000Y-92477000D03*
X133670000Y-94027000D03*
%TD*%
%TO.C,C9*%
X130951100Y-106472800D03*
X130951100Y-108022800D03*
%TD*%
D14*
%TO.C,C4*%
X130620000Y-99952000D03*
X132170000Y-99952000D03*
%TD*%
D15*
%TO.C,R4*%
X123190000Y-89177000D03*
X124840000Y-89177000D03*
%TD*%
D12*
%TO.C,C14*%
X138060000Y-80502000D03*
X138060000Y-82052000D03*
%TD*%
%TO.C,C507*%
X139830000Y-80492000D03*
X139830000Y-82042000D03*
%TD*%
D13*
%TO.C,C2*%
X129383200Y-87655400D03*
X129383200Y-86105400D03*
%TD*%
D15*
%TO.C,R3*%
X123240000Y-92227000D03*
X124890000Y-92227000D03*
%TD*%
D16*
%TO.C,U3*%
X133183001Y-87497300D03*
X133683001Y-87497300D03*
D17*
X134206002Y-87236998D03*
X134206002Y-86736999D03*
X134206002Y-86237000D03*
D16*
X133683001Y-85976698D03*
X133183001Y-85976698D03*
D17*
X132660000Y-86237000D03*
X132660000Y-86736999D03*
X132660000Y-87236998D03*
%TD*%
D12*
%TO.C,C11*%
X132425000Y-80547000D03*
X132425000Y-82097000D03*
%TD*%
D18*
%TO.C,U4*%
X130430400Y-103157999D03*
X130430400Y-103658000D03*
X130430400Y-104158000D03*
X130430400Y-104658001D03*
D19*
X131111501Y-104835100D03*
X131611500Y-104835100D03*
X132111499Y-104835100D03*
D18*
X132792600Y-104658001D03*
X132792600Y-104158000D03*
X132792600Y-103658000D03*
X132792600Y-103157999D03*
D19*
X132111499Y-102980900D03*
X131611500Y-102980900D03*
X131111501Y-102980900D03*
%TD*%
D12*
%TO.C,C1*%
X132754500Y-106448000D03*
X132754500Y-107998000D03*
%TD*%
D13*
%TO.C,C7*%
X131034200Y-87655400D03*
X131034200Y-86105400D03*
%TD*%
D20*
%TO.C,U6*%
X126090000Y-78827000D03*
X126090000Y-80977000D03*
X127790000Y-78827000D03*
X127790000Y-80977000D03*
D21*
X123190000Y-77997000D03*
X123190000Y-79267000D03*
X123190000Y-80537000D03*
X123190000Y-81807000D03*
X130690000Y-81807000D03*
X130690000Y-80537000D03*
X130690000Y-79267000D03*
X130690000Y-77997000D03*
%TD*%
M02*
