%TF.GenerationSoftware,KiCad,Pcbnew,10.0.2*%
%TF.CreationDate,2026-08-14T14:33:40-04:00*%
%TF.ProjectId,IMUTagNandBMP581-breakout,494d5554-6167-44e6-916e-64424d503538,rev?*%
%TF.SameCoordinates,Original*%
%TF.FileFunction,Legend,Bot*%
%TF.FilePolarity,Positive*%
%FSLAX46Y46*%
G04 Gerber Fmt 4.6, Leading zero omitted, Abs format (unit mm)*
G04 Created by KiCad (PCBNEW 10.0.2) date 2026-08-14 14:33:40*
%MOMM*%
%LPD*%
G01*
G04 APERTURE LIST*
%ADD10C,0.150000*%
%ADD11C,0.300000*%
%ADD12C,0.120000*%
%ADD13R,1.700000X1.700000*%
%ADD14O,1.700000X1.700000*%
G04 APERTURE END LIST*
D10*
X111703220Y-96981819D02*
X111703220Y-95981819D01*
X111703220Y-95981819D02*
X111322268Y-95981819D01*
X111322268Y-95981819D02*
X111227030Y-96029438D01*
X111227030Y-96029438D02*
X111179411Y-96077057D01*
X111179411Y-96077057D02*
X111131792Y-96172295D01*
X111131792Y-96172295D02*
X111131792Y-96315152D01*
X111131792Y-96315152D02*
X111179411Y-96410390D01*
X111179411Y-96410390D02*
X111227030Y-96458009D01*
X111227030Y-96458009D02*
X111322268Y-96505628D01*
X111322268Y-96505628D02*
X111703220Y-96505628D01*
X110750839Y-96696104D02*
X110274649Y-96696104D01*
X110846077Y-96981819D02*
X110512744Y-95981819D01*
X110512744Y-95981819D02*
X110179411Y-96981819D01*
X109322268Y-96981819D02*
X109893696Y-96981819D01*
X109607982Y-96981819D02*
X109607982Y-95981819D01*
X109607982Y-95981819D02*
X109703220Y-96124676D01*
X109703220Y-96124676D02*
X109798458Y-96219914D01*
X109798458Y-96219914D02*
X109893696Y-96267533D01*
X111753220Y-99481819D02*
X111753220Y-98481819D01*
X111753220Y-98481819D02*
X111372268Y-98481819D01*
X111372268Y-98481819D02*
X111277030Y-98529438D01*
X111277030Y-98529438D02*
X111229411Y-98577057D01*
X111229411Y-98577057D02*
X111181792Y-98672295D01*
X111181792Y-98672295D02*
X111181792Y-98815152D01*
X111181792Y-98815152D02*
X111229411Y-98910390D01*
X111229411Y-98910390D02*
X111277030Y-98958009D01*
X111277030Y-98958009D02*
X111372268Y-99005628D01*
X111372268Y-99005628D02*
X111753220Y-99005628D01*
X110800839Y-99196104D02*
X110324649Y-99196104D01*
X110896077Y-99481819D02*
X110562744Y-98481819D01*
X110562744Y-98481819D02*
X110229411Y-99481819D01*
X109943696Y-98577057D02*
X109896077Y-98529438D01*
X109896077Y-98529438D02*
X109800839Y-98481819D01*
X109800839Y-98481819D02*
X109562744Y-98481819D01*
X109562744Y-98481819D02*
X109467506Y-98529438D01*
X109467506Y-98529438D02*
X109419887Y-98577057D01*
X109419887Y-98577057D02*
X109372268Y-98672295D01*
X109372268Y-98672295D02*
X109372268Y-98767533D01*
X109372268Y-98767533D02*
X109419887Y-98910390D01*
X109419887Y-98910390D02*
X109991315Y-99481819D01*
X109991315Y-99481819D02*
X109372268Y-99481819D01*
X111753220Y-102031819D02*
X111753220Y-101031819D01*
X111753220Y-101031819D02*
X111372268Y-101031819D01*
X111372268Y-101031819D02*
X111277030Y-101079438D01*
X111277030Y-101079438D02*
X111229411Y-101127057D01*
X111229411Y-101127057D02*
X111181792Y-101222295D01*
X111181792Y-101222295D02*
X111181792Y-101365152D01*
X111181792Y-101365152D02*
X111229411Y-101460390D01*
X111229411Y-101460390D02*
X111277030Y-101508009D01*
X111277030Y-101508009D02*
X111372268Y-101555628D01*
X111372268Y-101555628D02*
X111753220Y-101555628D01*
X110800839Y-101746104D02*
X110324649Y-101746104D01*
X110896077Y-102031819D02*
X110562744Y-101031819D01*
X110562744Y-101031819D02*
X110229411Y-102031819D01*
X109991315Y-101031819D02*
X109372268Y-101031819D01*
X109372268Y-101031819D02*
X109705601Y-101412771D01*
X109705601Y-101412771D02*
X109562744Y-101412771D01*
X109562744Y-101412771D02*
X109467506Y-101460390D01*
X109467506Y-101460390D02*
X109419887Y-101508009D01*
X109419887Y-101508009D02*
X109372268Y-101603247D01*
X109372268Y-101603247D02*
X109372268Y-101841342D01*
X109372268Y-101841342D02*
X109419887Y-101936580D01*
X109419887Y-101936580D02*
X109467506Y-101984200D01*
X109467506Y-101984200D02*
X109562744Y-102031819D01*
X109562744Y-102031819D02*
X109848458Y-102031819D01*
X109848458Y-102031819D02*
X109943696Y-101984200D01*
X109943696Y-101984200D02*
X109991315Y-101936580D01*
X111853220Y-114811819D02*
X111853220Y-113811819D01*
X111853220Y-113811819D02*
X111472268Y-113811819D01*
X111472268Y-113811819D02*
X111377030Y-113859438D01*
X111377030Y-113859438D02*
X111329411Y-113907057D01*
X111329411Y-113907057D02*
X111281792Y-114002295D01*
X111281792Y-114002295D02*
X111281792Y-114145152D01*
X111281792Y-114145152D02*
X111329411Y-114240390D01*
X111329411Y-114240390D02*
X111377030Y-114288009D01*
X111377030Y-114288009D02*
X111472268Y-114335628D01*
X111472268Y-114335628D02*
X111853220Y-114335628D01*
X110519887Y-114288009D02*
X110377030Y-114335628D01*
X110377030Y-114335628D02*
X110329411Y-114383247D01*
X110329411Y-114383247D02*
X110281792Y-114478485D01*
X110281792Y-114478485D02*
X110281792Y-114621342D01*
X110281792Y-114621342D02*
X110329411Y-114716580D01*
X110329411Y-114716580D02*
X110377030Y-114764200D01*
X110377030Y-114764200D02*
X110472268Y-114811819D01*
X110472268Y-114811819D02*
X110853220Y-114811819D01*
X110853220Y-114811819D02*
X110853220Y-113811819D01*
X110853220Y-113811819D02*
X110519887Y-113811819D01*
X110519887Y-113811819D02*
X110424649Y-113859438D01*
X110424649Y-113859438D02*
X110377030Y-113907057D01*
X110377030Y-113907057D02*
X110329411Y-114002295D01*
X110329411Y-114002295D02*
X110329411Y-114097533D01*
X110329411Y-114097533D02*
X110377030Y-114192771D01*
X110377030Y-114192771D02*
X110424649Y-114240390D01*
X110424649Y-114240390D02*
X110519887Y-114288009D01*
X110519887Y-114288009D02*
X110853220Y-114288009D01*
X109662744Y-113811819D02*
X109567506Y-113811819D01*
X109567506Y-113811819D02*
X109472268Y-113859438D01*
X109472268Y-113859438D02*
X109424649Y-113907057D01*
X109424649Y-113907057D02*
X109377030Y-114002295D01*
X109377030Y-114002295D02*
X109329411Y-114192771D01*
X109329411Y-114192771D02*
X109329411Y-114430866D01*
X109329411Y-114430866D02*
X109377030Y-114621342D01*
X109377030Y-114621342D02*
X109424649Y-114716580D01*
X109424649Y-114716580D02*
X109472268Y-114764200D01*
X109472268Y-114764200D02*
X109567506Y-114811819D01*
X109567506Y-114811819D02*
X109662744Y-114811819D01*
X109662744Y-114811819D02*
X109757982Y-114764200D01*
X109757982Y-114764200D02*
X109805601Y-114716580D01*
X109805601Y-114716580D02*
X109853220Y-114621342D01*
X109853220Y-114621342D02*
X109900839Y-114430866D01*
X109900839Y-114430866D02*
X109900839Y-114192771D01*
X109900839Y-114192771D02*
X109853220Y-114002295D01*
X109853220Y-114002295D02*
X109805601Y-113907057D01*
X109805601Y-113907057D02*
X109757982Y-113859438D01*
X109757982Y-113859438D02*
X109662744Y-113811819D01*
X115376077Y-90894819D02*
X114804649Y-90894819D01*
X115090363Y-91894819D02*
X115090363Y-90894819D01*
X114518934Y-91609104D02*
X114042744Y-91609104D01*
X114614172Y-91894819D02*
X114280839Y-90894819D01*
X114280839Y-90894819D02*
X113947506Y-91894819D01*
X113090363Y-90942438D02*
X113185601Y-90894819D01*
X113185601Y-90894819D02*
X113328458Y-90894819D01*
X113328458Y-90894819D02*
X113471315Y-90942438D01*
X113471315Y-90942438D02*
X113566553Y-91037676D01*
X113566553Y-91037676D02*
X113614172Y-91132914D01*
X113614172Y-91132914D02*
X113661791Y-91323390D01*
X113661791Y-91323390D02*
X113661791Y-91466247D01*
X113661791Y-91466247D02*
X113614172Y-91656723D01*
X113614172Y-91656723D02*
X113566553Y-91751961D01*
X113566553Y-91751961D02*
X113471315Y-91847200D01*
X113471315Y-91847200D02*
X113328458Y-91894819D01*
X113328458Y-91894819D02*
X113233220Y-91894819D01*
X113233220Y-91894819D02*
X113090363Y-91847200D01*
X113090363Y-91847200D02*
X113042744Y-91799580D01*
X113042744Y-91799580D02*
X113042744Y-91466247D01*
X113042744Y-91466247D02*
X113233220Y-91466247D01*
X112852268Y-91990057D02*
X112090363Y-91990057D01*
X111328458Y-91894819D02*
X111899886Y-91894819D01*
X111614172Y-91894819D02*
X111614172Y-90894819D01*
X111614172Y-90894819D02*
X111709410Y-91037676D01*
X111709410Y-91037676D02*
X111804648Y-91132914D01*
X111804648Y-91132914D02*
X111899886Y-91180533D01*
X111042743Y-90894819D02*
X110709410Y-91894819D01*
X110709410Y-91894819D02*
X110376077Y-90894819D01*
X109899886Y-91323390D02*
X109995124Y-91275771D01*
X109995124Y-91275771D02*
X110042743Y-91228152D01*
X110042743Y-91228152D02*
X110090362Y-91132914D01*
X110090362Y-91132914D02*
X110090362Y-91085295D01*
X110090362Y-91085295D02*
X110042743Y-90990057D01*
X110042743Y-90990057D02*
X109995124Y-90942438D01*
X109995124Y-90942438D02*
X109899886Y-90894819D01*
X109899886Y-90894819D02*
X109709410Y-90894819D01*
X109709410Y-90894819D02*
X109614172Y-90942438D01*
X109614172Y-90942438D02*
X109566553Y-90990057D01*
X109566553Y-90990057D02*
X109518934Y-91085295D01*
X109518934Y-91085295D02*
X109518934Y-91132914D01*
X109518934Y-91132914D02*
X109566553Y-91228152D01*
X109566553Y-91228152D02*
X109614172Y-91275771D01*
X109614172Y-91275771D02*
X109709410Y-91323390D01*
X109709410Y-91323390D02*
X109899886Y-91323390D01*
X109899886Y-91323390D02*
X109995124Y-91371009D01*
X109995124Y-91371009D02*
X110042743Y-91418628D01*
X110042743Y-91418628D02*
X110090362Y-91513866D01*
X110090362Y-91513866D02*
X110090362Y-91704342D01*
X110090362Y-91704342D02*
X110042743Y-91799580D01*
X110042743Y-91799580D02*
X109995124Y-91847200D01*
X109995124Y-91847200D02*
X109899886Y-91894819D01*
X109899886Y-91894819D02*
X109709410Y-91894819D01*
X109709410Y-91894819D02*
X109614172Y-91847200D01*
X109614172Y-91847200D02*
X109566553Y-91799580D01*
X109566553Y-91799580D02*
X109518934Y-91704342D01*
X109518934Y-91704342D02*
X109518934Y-91513866D01*
X109518934Y-91513866D02*
X109566553Y-91418628D01*
X109566553Y-91418628D02*
X109614172Y-91371009D01*
X109614172Y-91371009D02*
X109709410Y-91323390D01*
X117519220Y-94561819D02*
X117519220Y-93561819D01*
X117519220Y-93561819D02*
X117138268Y-93561819D01*
X117138268Y-93561819D02*
X117043030Y-93609438D01*
X117043030Y-93609438D02*
X116995411Y-93657057D01*
X116995411Y-93657057D02*
X116947792Y-93752295D01*
X116947792Y-93752295D02*
X116947792Y-93895152D01*
X116947792Y-93895152D02*
X116995411Y-93990390D01*
X116995411Y-93990390D02*
X117043030Y-94038009D01*
X117043030Y-94038009D02*
X117138268Y-94085628D01*
X117138268Y-94085628D02*
X117519220Y-94085628D01*
X116566839Y-94276104D02*
X116090649Y-94276104D01*
X116662077Y-94561819D02*
X116328744Y-93561819D01*
X116328744Y-93561819D02*
X115995411Y-94561819D01*
X115471601Y-93561819D02*
X115376363Y-93561819D01*
X115376363Y-93561819D02*
X115281125Y-93609438D01*
X115281125Y-93609438D02*
X115233506Y-93657057D01*
X115233506Y-93657057D02*
X115185887Y-93752295D01*
X115185887Y-93752295D02*
X115138268Y-93942771D01*
X115138268Y-93942771D02*
X115138268Y-94180866D01*
X115138268Y-94180866D02*
X115185887Y-94371342D01*
X115185887Y-94371342D02*
X115233506Y-94466580D01*
X115233506Y-94466580D02*
X115281125Y-94514200D01*
X115281125Y-94514200D02*
X115376363Y-94561819D01*
X115376363Y-94561819D02*
X115471601Y-94561819D01*
X115471601Y-94561819D02*
X115566839Y-94514200D01*
X115566839Y-94514200D02*
X115614458Y-94466580D01*
X115614458Y-94466580D02*
X115662077Y-94371342D01*
X115662077Y-94371342D02*
X115709696Y-94180866D01*
X115709696Y-94180866D02*
X115709696Y-93942771D01*
X115709696Y-93942771D02*
X115662077Y-93752295D01*
X115662077Y-93752295D02*
X115614458Y-93657057D01*
X115614458Y-93657057D02*
X115566839Y-93609438D01*
X115566839Y-93609438D02*
X115471601Y-93561819D01*
X114043029Y-93561819D02*
X113804934Y-94561819D01*
X113804934Y-94561819D02*
X113614458Y-93847533D01*
X113614458Y-93847533D02*
X113423982Y-94561819D01*
X113423982Y-94561819D02*
X113185887Y-93561819D01*
X112804934Y-94561819D02*
X112804934Y-93561819D01*
X112233506Y-94561819D02*
X112662077Y-93990390D01*
X112233506Y-93561819D02*
X112804934Y-94133247D01*
X111804934Y-93561819D02*
X111804934Y-94371342D01*
X111804934Y-94371342D02*
X111757315Y-94466580D01*
X111757315Y-94466580D02*
X111709696Y-94514200D01*
X111709696Y-94514200D02*
X111614458Y-94561819D01*
X111614458Y-94561819D02*
X111423982Y-94561819D01*
X111423982Y-94561819D02*
X111328744Y-94514200D01*
X111328744Y-94514200D02*
X111281125Y-94466580D01*
X111281125Y-94466580D02*
X111233506Y-94371342D01*
X111233506Y-94371342D02*
X111233506Y-93561819D01*
X110757315Y-94561819D02*
X110757315Y-93561819D01*
X110757315Y-93561819D02*
X110376363Y-93561819D01*
X110376363Y-93561819D02*
X110281125Y-93609438D01*
X110281125Y-93609438D02*
X110233506Y-93657057D01*
X110233506Y-93657057D02*
X110185887Y-93752295D01*
X110185887Y-93752295D02*
X110185887Y-93895152D01*
X110185887Y-93895152D02*
X110233506Y-93990390D01*
X110233506Y-93990390D02*
X110281125Y-94038009D01*
X110281125Y-94038009D02*
X110376363Y-94085628D01*
X110376363Y-94085628D02*
X110757315Y-94085628D01*
X109233506Y-94561819D02*
X109804934Y-94561819D01*
X109519220Y-94561819D02*
X109519220Y-93561819D01*
X109519220Y-93561819D02*
X109614458Y-93704676D01*
X109614458Y-93704676D02*
X109709696Y-93799914D01*
X109709696Y-93799914D02*
X109804934Y-93847533D01*
X119043220Y-79067819D02*
X119043220Y-78067819D01*
X119043220Y-78067819D02*
X118662268Y-78067819D01*
X118662268Y-78067819D02*
X118567030Y-78115438D01*
X118567030Y-78115438D02*
X118519411Y-78163057D01*
X118519411Y-78163057D02*
X118471792Y-78258295D01*
X118471792Y-78258295D02*
X118471792Y-78401152D01*
X118471792Y-78401152D02*
X118519411Y-78496390D01*
X118519411Y-78496390D02*
X118567030Y-78544009D01*
X118567030Y-78544009D02*
X118662268Y-78591628D01*
X118662268Y-78591628D02*
X119043220Y-78591628D01*
X117709887Y-78544009D02*
X117567030Y-78591628D01*
X117567030Y-78591628D02*
X117519411Y-78639247D01*
X117519411Y-78639247D02*
X117471792Y-78734485D01*
X117471792Y-78734485D02*
X117471792Y-78877342D01*
X117471792Y-78877342D02*
X117519411Y-78972580D01*
X117519411Y-78972580D02*
X117567030Y-79020200D01*
X117567030Y-79020200D02*
X117662268Y-79067819D01*
X117662268Y-79067819D02*
X118043220Y-79067819D01*
X118043220Y-79067819D02*
X118043220Y-78067819D01*
X118043220Y-78067819D02*
X117709887Y-78067819D01*
X117709887Y-78067819D02*
X117614649Y-78115438D01*
X117614649Y-78115438D02*
X117567030Y-78163057D01*
X117567030Y-78163057D02*
X117519411Y-78258295D01*
X117519411Y-78258295D02*
X117519411Y-78353533D01*
X117519411Y-78353533D02*
X117567030Y-78448771D01*
X117567030Y-78448771D02*
X117614649Y-78496390D01*
X117614649Y-78496390D02*
X117709887Y-78544009D01*
X117709887Y-78544009D02*
X118043220Y-78544009D01*
X116567030Y-78067819D02*
X117043220Y-78067819D01*
X117043220Y-78067819D02*
X117090839Y-78544009D01*
X117090839Y-78544009D02*
X117043220Y-78496390D01*
X117043220Y-78496390D02*
X116947982Y-78448771D01*
X116947982Y-78448771D02*
X116709887Y-78448771D01*
X116709887Y-78448771D02*
X116614649Y-78496390D01*
X116614649Y-78496390D02*
X116567030Y-78544009D01*
X116567030Y-78544009D02*
X116519411Y-78639247D01*
X116519411Y-78639247D02*
X116519411Y-78877342D01*
X116519411Y-78877342D02*
X116567030Y-78972580D01*
X116567030Y-78972580D02*
X116614649Y-79020200D01*
X116614649Y-79020200D02*
X116709887Y-79067819D01*
X116709887Y-79067819D02*
X116947982Y-79067819D01*
X116947982Y-79067819D02*
X117043220Y-79020200D01*
X117043220Y-79020200D02*
X117090839Y-78972580D01*
X114995601Y-78544009D02*
X114852744Y-78591628D01*
X114852744Y-78591628D02*
X114805125Y-78639247D01*
X114805125Y-78639247D02*
X114757506Y-78734485D01*
X114757506Y-78734485D02*
X114757506Y-78877342D01*
X114757506Y-78877342D02*
X114805125Y-78972580D01*
X114805125Y-78972580D02*
X114852744Y-79020200D01*
X114852744Y-79020200D02*
X114947982Y-79067819D01*
X114947982Y-79067819D02*
X115328934Y-79067819D01*
X115328934Y-79067819D02*
X115328934Y-78067819D01*
X115328934Y-78067819D02*
X114995601Y-78067819D01*
X114995601Y-78067819D02*
X114900363Y-78115438D01*
X114900363Y-78115438D02*
X114852744Y-78163057D01*
X114852744Y-78163057D02*
X114805125Y-78258295D01*
X114805125Y-78258295D02*
X114805125Y-78353533D01*
X114805125Y-78353533D02*
X114852744Y-78448771D01*
X114852744Y-78448771D02*
X114900363Y-78496390D01*
X114900363Y-78496390D02*
X114995601Y-78544009D01*
X114995601Y-78544009D02*
X115328934Y-78544009D01*
X114328934Y-79067819D02*
X114328934Y-78067819D01*
X114328934Y-78067819D02*
X113995601Y-78782104D01*
X113995601Y-78782104D02*
X113662268Y-78067819D01*
X113662268Y-78067819D02*
X113662268Y-79067819D01*
X113186077Y-79067819D02*
X113186077Y-78067819D01*
X113186077Y-78067819D02*
X112852744Y-78782104D01*
X112852744Y-78782104D02*
X112519411Y-78067819D01*
X112519411Y-78067819D02*
X112519411Y-79067819D01*
X112281316Y-79163057D02*
X111519411Y-79163057D01*
X111281315Y-79067819D02*
X111281315Y-78067819D01*
X110805125Y-79067819D02*
X110805125Y-78067819D01*
X110805125Y-78067819D02*
X110233697Y-79067819D01*
X110233697Y-79067819D02*
X110233697Y-78067819D01*
X109900363Y-78067819D02*
X109328935Y-78067819D01*
X109614649Y-79067819D02*
X109614649Y-78067819D01*
X119503220Y-104631819D02*
X119503220Y-103631819D01*
X119503220Y-103631819D02*
X119122268Y-103631819D01*
X119122268Y-103631819D02*
X119027030Y-103679438D01*
X119027030Y-103679438D02*
X118979411Y-103727057D01*
X118979411Y-103727057D02*
X118931792Y-103822295D01*
X118931792Y-103822295D02*
X118931792Y-103965152D01*
X118931792Y-103965152D02*
X118979411Y-104060390D01*
X118979411Y-104060390D02*
X119027030Y-104108009D01*
X119027030Y-104108009D02*
X119122268Y-104155628D01*
X119122268Y-104155628D02*
X119503220Y-104155628D01*
X118550839Y-104346104D02*
X118074649Y-104346104D01*
X118646077Y-104631819D02*
X118312744Y-103631819D01*
X118312744Y-103631819D02*
X117979411Y-104631819D01*
X117217506Y-103965152D02*
X117217506Y-104631819D01*
X117455601Y-103584200D02*
X117693696Y-104298485D01*
X117693696Y-104298485D02*
X117074649Y-104298485D01*
X115979410Y-104346104D02*
X115503220Y-104346104D01*
X116074648Y-104631819D02*
X115741315Y-103631819D01*
X115741315Y-103631819D02*
X115407982Y-104631819D01*
X115217505Y-103631819D02*
X114646077Y-103631819D01*
X114931791Y-104631819D02*
X114931791Y-103631819D01*
X114360362Y-103727057D02*
X114312743Y-103679438D01*
X114312743Y-103679438D02*
X114217505Y-103631819D01*
X114217505Y-103631819D02*
X113979410Y-103631819D01*
X113979410Y-103631819D02*
X113884172Y-103679438D01*
X113884172Y-103679438D02*
X113836553Y-103727057D01*
X113836553Y-103727057D02*
X113788934Y-103822295D01*
X113788934Y-103822295D02*
X113788934Y-103917533D01*
X113788934Y-103917533D02*
X113836553Y-104060390D01*
X113836553Y-104060390D02*
X114407981Y-104631819D01*
X114407981Y-104631819D02*
X113788934Y-104631819D01*
X112884172Y-103631819D02*
X113360362Y-103631819D01*
X113360362Y-103631819D02*
X113407981Y-104108009D01*
X113407981Y-104108009D02*
X113360362Y-104060390D01*
X113360362Y-104060390D02*
X113265124Y-104012771D01*
X113265124Y-104012771D02*
X113027029Y-104012771D01*
X113027029Y-104012771D02*
X112931791Y-104060390D01*
X112931791Y-104060390D02*
X112884172Y-104108009D01*
X112884172Y-104108009D02*
X112836553Y-104203247D01*
X112836553Y-104203247D02*
X112836553Y-104441342D01*
X112836553Y-104441342D02*
X112884172Y-104536580D01*
X112884172Y-104536580D02*
X112931791Y-104584200D01*
X112931791Y-104584200D02*
X113027029Y-104631819D01*
X113027029Y-104631819D02*
X113265124Y-104631819D01*
X113265124Y-104631819D02*
X113360362Y-104584200D01*
X113360362Y-104584200D02*
X113407981Y-104536580D01*
X112646077Y-104727057D02*
X111884172Y-104727057D01*
X111646076Y-103965152D02*
X111646076Y-104631819D01*
X111646076Y-104060390D02*
X111598457Y-104012771D01*
X111598457Y-104012771D02*
X111503219Y-103965152D01*
X111503219Y-103965152D02*
X111360362Y-103965152D01*
X111360362Y-103965152D02*
X111265124Y-104012771D01*
X111265124Y-104012771D02*
X111217505Y-104108009D01*
X111217505Y-104108009D02*
X111217505Y-104631819D01*
X110169886Y-104536580D02*
X110217505Y-104584200D01*
X110217505Y-104584200D02*
X110360362Y-104631819D01*
X110360362Y-104631819D02*
X110455600Y-104631819D01*
X110455600Y-104631819D02*
X110598457Y-104584200D01*
X110598457Y-104584200D02*
X110693695Y-104488961D01*
X110693695Y-104488961D02*
X110741314Y-104393723D01*
X110741314Y-104393723D02*
X110788933Y-104203247D01*
X110788933Y-104203247D02*
X110788933Y-104060390D01*
X110788933Y-104060390D02*
X110741314Y-103869914D01*
X110741314Y-103869914D02*
X110693695Y-103774676D01*
X110693695Y-103774676D02*
X110598457Y-103679438D01*
X110598457Y-103679438D02*
X110455600Y-103631819D01*
X110455600Y-103631819D02*
X110360362Y-103631819D01*
X110360362Y-103631819D02*
X110217505Y-103679438D01*
X110217505Y-103679438D02*
X110169886Y-103727057D01*
X109788933Y-104584200D02*
X109646076Y-104631819D01*
X109646076Y-104631819D02*
X109407981Y-104631819D01*
X109407981Y-104631819D02*
X109312743Y-104584200D01*
X109312743Y-104584200D02*
X109265124Y-104536580D01*
X109265124Y-104536580D02*
X109217505Y-104441342D01*
X109217505Y-104441342D02*
X109217505Y-104346104D01*
X109217505Y-104346104D02*
X109265124Y-104250866D01*
X109265124Y-104250866D02*
X109312743Y-104203247D01*
X109312743Y-104203247D02*
X109407981Y-104155628D01*
X109407981Y-104155628D02*
X109598457Y-104108009D01*
X109598457Y-104108009D02*
X109693695Y-104060390D01*
X109693695Y-104060390D02*
X109741314Y-104012771D01*
X109741314Y-104012771D02*
X109788933Y-103917533D01*
X109788933Y-103917533D02*
X109788933Y-103822295D01*
X109788933Y-103822295D02*
X109741314Y-103727057D01*
X109741314Y-103727057D02*
X109693695Y-103679438D01*
X109693695Y-103679438D02*
X109598457Y-103631819D01*
X109598457Y-103631819D02*
X109360362Y-103631819D01*
X109360362Y-103631819D02*
X109217505Y-103679438D01*
X119551220Y-112087819D02*
X119551220Y-111087819D01*
X119551220Y-111087819D02*
X119170268Y-111087819D01*
X119170268Y-111087819D02*
X119075030Y-111135438D01*
X119075030Y-111135438D02*
X119027411Y-111183057D01*
X119027411Y-111183057D02*
X118979792Y-111278295D01*
X118979792Y-111278295D02*
X118979792Y-111421152D01*
X118979792Y-111421152D02*
X119027411Y-111516390D01*
X119027411Y-111516390D02*
X119075030Y-111564009D01*
X119075030Y-111564009D02*
X119170268Y-111611628D01*
X119170268Y-111611628D02*
X119551220Y-111611628D01*
X118598839Y-111802104D02*
X118122649Y-111802104D01*
X118694077Y-112087819D02*
X118360744Y-111087819D01*
X118360744Y-111087819D02*
X118027411Y-112087819D01*
X117789315Y-111087819D02*
X117122649Y-111087819D01*
X117122649Y-111087819D02*
X117551220Y-112087819D01*
X115503601Y-112087819D02*
X115979791Y-112087819D01*
X115979791Y-112087819D02*
X115979791Y-111087819D01*
X115217886Y-112040200D02*
X115075029Y-112087819D01*
X115075029Y-112087819D02*
X114836934Y-112087819D01*
X114836934Y-112087819D02*
X114741696Y-112040200D01*
X114741696Y-112040200D02*
X114694077Y-111992580D01*
X114694077Y-111992580D02*
X114646458Y-111897342D01*
X114646458Y-111897342D02*
X114646458Y-111802104D01*
X114646458Y-111802104D02*
X114694077Y-111706866D01*
X114694077Y-111706866D02*
X114741696Y-111659247D01*
X114741696Y-111659247D02*
X114836934Y-111611628D01*
X114836934Y-111611628D02*
X115027410Y-111564009D01*
X115027410Y-111564009D02*
X115122648Y-111516390D01*
X115122648Y-111516390D02*
X115170267Y-111468771D01*
X115170267Y-111468771D02*
X115217886Y-111373533D01*
X115217886Y-111373533D02*
X115217886Y-111278295D01*
X115217886Y-111278295D02*
X115170267Y-111183057D01*
X115170267Y-111183057D02*
X115122648Y-111135438D01*
X115122648Y-111135438D02*
X115027410Y-111087819D01*
X115027410Y-111087819D02*
X114789315Y-111087819D01*
X114789315Y-111087819D02*
X114646458Y-111135438D01*
X114217886Y-112087819D02*
X114217886Y-111087819D01*
X114217886Y-111087819D02*
X113884553Y-111802104D01*
X113884553Y-111802104D02*
X113551220Y-111087819D01*
X113551220Y-111087819D02*
X113551220Y-112087819D01*
X113313125Y-112183057D02*
X112551220Y-112183057D01*
X112313124Y-112087819D02*
X112313124Y-111087819D01*
X112313124Y-111087819D02*
X111979791Y-111802104D01*
X111979791Y-111802104D02*
X111646458Y-111087819D01*
X111646458Y-111087819D02*
X111646458Y-112087819D01*
X110979791Y-111087819D02*
X110789315Y-111087819D01*
X110789315Y-111087819D02*
X110694077Y-111135438D01*
X110694077Y-111135438D02*
X110598839Y-111230676D01*
X110598839Y-111230676D02*
X110551220Y-111421152D01*
X110551220Y-111421152D02*
X110551220Y-111754485D01*
X110551220Y-111754485D02*
X110598839Y-111944961D01*
X110598839Y-111944961D02*
X110694077Y-112040200D01*
X110694077Y-112040200D02*
X110789315Y-112087819D01*
X110789315Y-112087819D02*
X110979791Y-112087819D01*
X110979791Y-112087819D02*
X111075029Y-112040200D01*
X111075029Y-112040200D02*
X111170267Y-111944961D01*
X111170267Y-111944961D02*
X111217886Y-111754485D01*
X111217886Y-111754485D02*
X111217886Y-111421152D01*
X111217886Y-111421152D02*
X111170267Y-111230676D01*
X111170267Y-111230676D02*
X111075029Y-111135438D01*
X111075029Y-111135438D02*
X110979791Y-111087819D01*
X110170267Y-112040200D02*
X110027410Y-112087819D01*
X110027410Y-112087819D02*
X109789315Y-112087819D01*
X109789315Y-112087819D02*
X109694077Y-112040200D01*
X109694077Y-112040200D02*
X109646458Y-111992580D01*
X109646458Y-111992580D02*
X109598839Y-111897342D01*
X109598839Y-111897342D02*
X109598839Y-111802104D01*
X109598839Y-111802104D02*
X109646458Y-111706866D01*
X109646458Y-111706866D02*
X109694077Y-111659247D01*
X109694077Y-111659247D02*
X109789315Y-111611628D01*
X109789315Y-111611628D02*
X109979791Y-111564009D01*
X109979791Y-111564009D02*
X110075029Y-111516390D01*
X110075029Y-111516390D02*
X110122648Y-111468771D01*
X110122648Y-111468771D02*
X110170267Y-111373533D01*
X110170267Y-111373533D02*
X110170267Y-111278295D01*
X110170267Y-111278295D02*
X110122648Y-111183057D01*
X110122648Y-111183057D02*
X110075029Y-111135438D01*
X110075029Y-111135438D02*
X109979791Y-111087819D01*
X109979791Y-111087819D02*
X109741696Y-111087819D01*
X109741696Y-111087819D02*
X109598839Y-111135438D01*
X109170267Y-112087819D02*
X109170267Y-111087819D01*
X119553220Y-107131819D02*
X119553220Y-106131819D01*
X119553220Y-106131819D02*
X119172268Y-106131819D01*
X119172268Y-106131819D02*
X119077030Y-106179438D01*
X119077030Y-106179438D02*
X119029411Y-106227057D01*
X119029411Y-106227057D02*
X118981792Y-106322295D01*
X118981792Y-106322295D02*
X118981792Y-106465152D01*
X118981792Y-106465152D02*
X119029411Y-106560390D01*
X119029411Y-106560390D02*
X119077030Y-106608009D01*
X119077030Y-106608009D02*
X119172268Y-106655628D01*
X119172268Y-106655628D02*
X119553220Y-106655628D01*
X118600839Y-106846104D02*
X118124649Y-106846104D01*
X118696077Y-107131819D02*
X118362744Y-106131819D01*
X118362744Y-106131819D02*
X118029411Y-107131819D01*
X117219887Y-106131819D02*
X117696077Y-106131819D01*
X117696077Y-106131819D02*
X117743696Y-106608009D01*
X117743696Y-106608009D02*
X117696077Y-106560390D01*
X117696077Y-106560390D02*
X117600839Y-106512771D01*
X117600839Y-106512771D02*
X117362744Y-106512771D01*
X117362744Y-106512771D02*
X117267506Y-106560390D01*
X117267506Y-106560390D02*
X117219887Y-106608009D01*
X117219887Y-106608009D02*
X117172268Y-106703247D01*
X117172268Y-106703247D02*
X117172268Y-106941342D01*
X117172268Y-106941342D02*
X117219887Y-107036580D01*
X117219887Y-107036580D02*
X117267506Y-107084200D01*
X117267506Y-107084200D02*
X117362744Y-107131819D01*
X117362744Y-107131819D02*
X117600839Y-107131819D01*
X117600839Y-107131819D02*
X117696077Y-107084200D01*
X117696077Y-107084200D02*
X117743696Y-107036580D01*
X116029410Y-106846104D02*
X115553220Y-106846104D01*
X116124648Y-107131819D02*
X115791315Y-106131819D01*
X115791315Y-106131819D02*
X115457982Y-107131819D01*
X115267505Y-106131819D02*
X114696077Y-106131819D01*
X114981791Y-107131819D02*
X114981791Y-106131819D01*
X114410362Y-106227057D02*
X114362743Y-106179438D01*
X114362743Y-106179438D02*
X114267505Y-106131819D01*
X114267505Y-106131819D02*
X114029410Y-106131819D01*
X114029410Y-106131819D02*
X113934172Y-106179438D01*
X113934172Y-106179438D02*
X113886553Y-106227057D01*
X113886553Y-106227057D02*
X113838934Y-106322295D01*
X113838934Y-106322295D02*
X113838934Y-106417533D01*
X113838934Y-106417533D02*
X113886553Y-106560390D01*
X113886553Y-106560390D02*
X114457981Y-107131819D01*
X114457981Y-107131819D02*
X113838934Y-107131819D01*
X112934172Y-106131819D02*
X113410362Y-106131819D01*
X113410362Y-106131819D02*
X113457981Y-106608009D01*
X113457981Y-106608009D02*
X113410362Y-106560390D01*
X113410362Y-106560390D02*
X113315124Y-106512771D01*
X113315124Y-106512771D02*
X113077029Y-106512771D01*
X113077029Y-106512771D02*
X112981791Y-106560390D01*
X112981791Y-106560390D02*
X112934172Y-106608009D01*
X112934172Y-106608009D02*
X112886553Y-106703247D01*
X112886553Y-106703247D02*
X112886553Y-106941342D01*
X112886553Y-106941342D02*
X112934172Y-107036580D01*
X112934172Y-107036580D02*
X112981791Y-107084200D01*
X112981791Y-107084200D02*
X113077029Y-107131819D01*
X113077029Y-107131819D02*
X113315124Y-107131819D01*
X113315124Y-107131819D02*
X113410362Y-107084200D01*
X113410362Y-107084200D02*
X113457981Y-107036580D01*
X112696077Y-107227057D02*
X111934172Y-107227057D01*
X111743695Y-107084200D02*
X111600838Y-107131819D01*
X111600838Y-107131819D02*
X111362743Y-107131819D01*
X111362743Y-107131819D02*
X111267505Y-107084200D01*
X111267505Y-107084200D02*
X111219886Y-107036580D01*
X111219886Y-107036580D02*
X111172267Y-106941342D01*
X111172267Y-106941342D02*
X111172267Y-106846104D01*
X111172267Y-106846104D02*
X111219886Y-106750866D01*
X111219886Y-106750866D02*
X111267505Y-106703247D01*
X111267505Y-106703247D02*
X111362743Y-106655628D01*
X111362743Y-106655628D02*
X111553219Y-106608009D01*
X111553219Y-106608009D02*
X111648457Y-106560390D01*
X111648457Y-106560390D02*
X111696076Y-106512771D01*
X111696076Y-106512771D02*
X111743695Y-106417533D01*
X111743695Y-106417533D02*
X111743695Y-106322295D01*
X111743695Y-106322295D02*
X111696076Y-106227057D01*
X111696076Y-106227057D02*
X111648457Y-106179438D01*
X111648457Y-106179438D02*
X111553219Y-106131819D01*
X111553219Y-106131819D02*
X111315124Y-106131819D01*
X111315124Y-106131819D02*
X111172267Y-106179438D01*
X110172267Y-107036580D02*
X110219886Y-107084200D01*
X110219886Y-107084200D02*
X110362743Y-107131819D01*
X110362743Y-107131819D02*
X110457981Y-107131819D01*
X110457981Y-107131819D02*
X110600838Y-107084200D01*
X110600838Y-107084200D02*
X110696076Y-106988961D01*
X110696076Y-106988961D02*
X110743695Y-106893723D01*
X110743695Y-106893723D02*
X110791314Y-106703247D01*
X110791314Y-106703247D02*
X110791314Y-106560390D01*
X110791314Y-106560390D02*
X110743695Y-106369914D01*
X110743695Y-106369914D02*
X110696076Y-106274676D01*
X110696076Y-106274676D02*
X110600838Y-106179438D01*
X110600838Y-106179438D02*
X110457981Y-106131819D01*
X110457981Y-106131819D02*
X110362743Y-106131819D01*
X110362743Y-106131819D02*
X110219886Y-106179438D01*
X110219886Y-106179438D02*
X110172267Y-106227057D01*
X109743695Y-107131819D02*
X109743695Y-106131819D01*
X109172267Y-107131819D02*
X109600838Y-106560390D01*
X109172267Y-106131819D02*
X109743695Y-106703247D01*
X119678220Y-109674819D02*
X119678220Y-108674819D01*
X119678220Y-108674819D02*
X119297268Y-108674819D01*
X119297268Y-108674819D02*
X119202030Y-108722438D01*
X119202030Y-108722438D02*
X119154411Y-108770057D01*
X119154411Y-108770057D02*
X119106792Y-108865295D01*
X119106792Y-108865295D02*
X119106792Y-109008152D01*
X119106792Y-109008152D02*
X119154411Y-109103390D01*
X119154411Y-109103390D02*
X119202030Y-109151009D01*
X119202030Y-109151009D02*
X119297268Y-109198628D01*
X119297268Y-109198628D02*
X119678220Y-109198628D01*
X118725839Y-109389104D02*
X118249649Y-109389104D01*
X118821077Y-109674819D02*
X118487744Y-108674819D01*
X118487744Y-108674819D02*
X118154411Y-109674819D01*
X117392506Y-108674819D02*
X117582982Y-108674819D01*
X117582982Y-108674819D02*
X117678220Y-108722438D01*
X117678220Y-108722438D02*
X117725839Y-108770057D01*
X117725839Y-108770057D02*
X117821077Y-108912914D01*
X117821077Y-108912914D02*
X117868696Y-109103390D01*
X117868696Y-109103390D02*
X117868696Y-109484342D01*
X117868696Y-109484342D02*
X117821077Y-109579580D01*
X117821077Y-109579580D02*
X117773458Y-109627200D01*
X117773458Y-109627200D02*
X117678220Y-109674819D01*
X117678220Y-109674819D02*
X117487744Y-109674819D01*
X117487744Y-109674819D02*
X117392506Y-109627200D01*
X117392506Y-109627200D02*
X117344887Y-109579580D01*
X117344887Y-109579580D02*
X117297268Y-109484342D01*
X117297268Y-109484342D02*
X117297268Y-109246247D01*
X117297268Y-109246247D02*
X117344887Y-109151009D01*
X117344887Y-109151009D02*
X117392506Y-109103390D01*
X117392506Y-109103390D02*
X117487744Y-109055771D01*
X117487744Y-109055771D02*
X117678220Y-109055771D01*
X117678220Y-109055771D02*
X117773458Y-109103390D01*
X117773458Y-109103390D02*
X117821077Y-109151009D01*
X117821077Y-109151009D02*
X117868696Y-109246247D01*
X115630601Y-109674819D02*
X116106791Y-109674819D01*
X116106791Y-109674819D02*
X116106791Y-108674819D01*
X115344886Y-109627200D02*
X115202029Y-109674819D01*
X115202029Y-109674819D02*
X114963934Y-109674819D01*
X114963934Y-109674819D02*
X114868696Y-109627200D01*
X114868696Y-109627200D02*
X114821077Y-109579580D01*
X114821077Y-109579580D02*
X114773458Y-109484342D01*
X114773458Y-109484342D02*
X114773458Y-109389104D01*
X114773458Y-109389104D02*
X114821077Y-109293866D01*
X114821077Y-109293866D02*
X114868696Y-109246247D01*
X114868696Y-109246247D02*
X114963934Y-109198628D01*
X114963934Y-109198628D02*
X115154410Y-109151009D01*
X115154410Y-109151009D02*
X115249648Y-109103390D01*
X115249648Y-109103390D02*
X115297267Y-109055771D01*
X115297267Y-109055771D02*
X115344886Y-108960533D01*
X115344886Y-108960533D02*
X115344886Y-108865295D01*
X115344886Y-108865295D02*
X115297267Y-108770057D01*
X115297267Y-108770057D02*
X115249648Y-108722438D01*
X115249648Y-108722438D02*
X115154410Y-108674819D01*
X115154410Y-108674819D02*
X114916315Y-108674819D01*
X114916315Y-108674819D02*
X114773458Y-108722438D01*
X114344886Y-109674819D02*
X114344886Y-108674819D01*
X114344886Y-108674819D02*
X114011553Y-109389104D01*
X114011553Y-109389104D02*
X113678220Y-108674819D01*
X113678220Y-108674819D02*
X113678220Y-109674819D01*
X113440125Y-109770057D02*
X112678220Y-109770057D01*
X112440124Y-109674819D02*
X112440124Y-108674819D01*
X112440124Y-108674819D02*
X112106791Y-109389104D01*
X112106791Y-109389104D02*
X111773458Y-108674819D01*
X111773458Y-108674819D02*
X111773458Y-109674819D01*
X111297267Y-109674819D02*
X111297267Y-108674819D01*
X110868696Y-109627200D02*
X110725839Y-109674819D01*
X110725839Y-109674819D02*
X110487744Y-109674819D01*
X110487744Y-109674819D02*
X110392506Y-109627200D01*
X110392506Y-109627200D02*
X110344887Y-109579580D01*
X110344887Y-109579580D02*
X110297268Y-109484342D01*
X110297268Y-109484342D02*
X110297268Y-109389104D01*
X110297268Y-109389104D02*
X110344887Y-109293866D01*
X110344887Y-109293866D02*
X110392506Y-109246247D01*
X110392506Y-109246247D02*
X110487744Y-109198628D01*
X110487744Y-109198628D02*
X110678220Y-109151009D01*
X110678220Y-109151009D02*
X110773458Y-109103390D01*
X110773458Y-109103390D02*
X110821077Y-109055771D01*
X110821077Y-109055771D02*
X110868696Y-108960533D01*
X110868696Y-108960533D02*
X110868696Y-108865295D01*
X110868696Y-108865295D02*
X110821077Y-108770057D01*
X110821077Y-108770057D02*
X110773458Y-108722438D01*
X110773458Y-108722438D02*
X110678220Y-108674819D01*
X110678220Y-108674819D02*
X110440125Y-108674819D01*
X110440125Y-108674819D02*
X110297268Y-108722438D01*
X109678220Y-108674819D02*
X109487744Y-108674819D01*
X109487744Y-108674819D02*
X109392506Y-108722438D01*
X109392506Y-108722438D02*
X109297268Y-108817676D01*
X109297268Y-108817676D02*
X109249649Y-109008152D01*
X109249649Y-109008152D02*
X109249649Y-109341485D01*
X109249649Y-109341485D02*
X109297268Y-109531961D01*
X109297268Y-109531961D02*
X109392506Y-109627200D01*
X109392506Y-109627200D02*
X109487744Y-109674819D01*
X109487744Y-109674819D02*
X109678220Y-109674819D01*
X109678220Y-109674819D02*
X109773458Y-109627200D01*
X109773458Y-109627200D02*
X109868696Y-109531961D01*
X109868696Y-109531961D02*
X109916315Y-109341485D01*
X109916315Y-109341485D02*
X109916315Y-109008152D01*
X109916315Y-109008152D02*
X109868696Y-108817676D01*
X109868696Y-108817676D02*
X109773458Y-108722438D01*
X109773458Y-108722438D02*
X109678220Y-108674819D01*
X146743220Y-114871819D02*
X146743220Y-113871819D01*
X146743220Y-113871819D02*
X146362268Y-113871819D01*
X146362268Y-113871819D02*
X146267030Y-113919438D01*
X146267030Y-113919438D02*
X146219411Y-113967057D01*
X146219411Y-113967057D02*
X146171792Y-114062295D01*
X146171792Y-114062295D02*
X146171792Y-114205152D01*
X146171792Y-114205152D02*
X146219411Y-114300390D01*
X146219411Y-114300390D02*
X146267030Y-114348009D01*
X146267030Y-114348009D02*
X146362268Y-114395628D01*
X146362268Y-114395628D02*
X146743220Y-114395628D01*
X145409887Y-114348009D02*
X145267030Y-114395628D01*
X145267030Y-114395628D02*
X145219411Y-114443247D01*
X145219411Y-114443247D02*
X145171792Y-114538485D01*
X145171792Y-114538485D02*
X145171792Y-114681342D01*
X145171792Y-114681342D02*
X145219411Y-114776580D01*
X145219411Y-114776580D02*
X145267030Y-114824200D01*
X145267030Y-114824200D02*
X145362268Y-114871819D01*
X145362268Y-114871819D02*
X145743220Y-114871819D01*
X145743220Y-114871819D02*
X145743220Y-113871819D01*
X145743220Y-113871819D02*
X145409887Y-113871819D01*
X145409887Y-113871819D02*
X145314649Y-113919438D01*
X145314649Y-113919438D02*
X145267030Y-113967057D01*
X145267030Y-113967057D02*
X145219411Y-114062295D01*
X145219411Y-114062295D02*
X145219411Y-114157533D01*
X145219411Y-114157533D02*
X145267030Y-114252771D01*
X145267030Y-114252771D02*
X145314649Y-114300390D01*
X145314649Y-114300390D02*
X145409887Y-114348009D01*
X145409887Y-114348009D02*
X145743220Y-114348009D01*
X144219411Y-114871819D02*
X144790839Y-114871819D01*
X144505125Y-114871819D02*
X144505125Y-113871819D01*
X144505125Y-113871819D02*
X144600363Y-114014676D01*
X144600363Y-114014676D02*
X144695601Y-114109914D01*
X144695601Y-114109914D02*
X144790839Y-114157533D01*
X146713411Y-116088438D02*
X146808649Y-116040819D01*
X146808649Y-116040819D02*
X146951506Y-116040819D01*
X146951506Y-116040819D02*
X147094363Y-116088438D01*
X147094363Y-116088438D02*
X147189601Y-116183676D01*
X147189601Y-116183676D02*
X147237220Y-116278914D01*
X147237220Y-116278914D02*
X147284839Y-116469390D01*
X147284839Y-116469390D02*
X147284839Y-116612247D01*
X147284839Y-116612247D02*
X147237220Y-116802723D01*
X147237220Y-116802723D02*
X147189601Y-116897961D01*
X147189601Y-116897961D02*
X147094363Y-116993200D01*
X147094363Y-116993200D02*
X146951506Y-117040819D01*
X146951506Y-117040819D02*
X146856268Y-117040819D01*
X146856268Y-117040819D02*
X146713411Y-116993200D01*
X146713411Y-116993200D02*
X146665792Y-116945580D01*
X146665792Y-116945580D02*
X146665792Y-116612247D01*
X146665792Y-116612247D02*
X146856268Y-116612247D01*
X146237220Y-117040819D02*
X146237220Y-116040819D01*
X146237220Y-116040819D02*
X145665792Y-117040819D01*
X145665792Y-117040819D02*
X145665792Y-116040819D01*
X145189601Y-117040819D02*
X145189601Y-116040819D01*
X145189601Y-116040819D02*
X144951506Y-116040819D01*
X144951506Y-116040819D02*
X144808649Y-116088438D01*
X144808649Y-116088438D02*
X144713411Y-116183676D01*
X144713411Y-116183676D02*
X144665792Y-116278914D01*
X144665792Y-116278914D02*
X144618173Y-116469390D01*
X144618173Y-116469390D02*
X144618173Y-116612247D01*
X144618173Y-116612247D02*
X144665792Y-116802723D01*
X144665792Y-116802723D02*
X144713411Y-116897961D01*
X144713411Y-116897961D02*
X144808649Y-116993200D01*
X144808649Y-116993200D02*
X144951506Y-117040819D01*
X144951506Y-117040819D02*
X145189601Y-117040819D01*
X142925630Y-74393419D02*
X143401820Y-74393419D01*
X143401820Y-74393419D02*
X143401820Y-73393419D01*
X142592296Y-74393419D02*
X142592296Y-73393419D01*
X142592296Y-73393419D02*
X142211344Y-73393419D01*
X142211344Y-73393419D02*
X142116106Y-73441038D01*
X142116106Y-73441038D02*
X142068487Y-73488657D01*
X142068487Y-73488657D02*
X142020868Y-73583895D01*
X142020868Y-73583895D02*
X142020868Y-73726752D01*
X142020868Y-73726752D02*
X142068487Y-73821990D01*
X142068487Y-73821990D02*
X142116106Y-73869609D01*
X142116106Y-73869609D02*
X142211344Y-73917228D01*
X142211344Y-73917228D02*
X142592296Y-73917228D01*
X141639915Y-74345800D02*
X141497058Y-74393419D01*
X141497058Y-74393419D02*
X141258963Y-74393419D01*
X141258963Y-74393419D02*
X141163725Y-74345800D01*
X141163725Y-74345800D02*
X141116106Y-74298180D01*
X141116106Y-74298180D02*
X141068487Y-74202942D01*
X141068487Y-74202942D02*
X141068487Y-74107704D01*
X141068487Y-74107704D02*
X141116106Y-74012466D01*
X141116106Y-74012466D02*
X141163725Y-73964847D01*
X141163725Y-73964847D02*
X141258963Y-73917228D01*
X141258963Y-73917228D02*
X141449439Y-73869609D01*
X141449439Y-73869609D02*
X141544677Y-73821990D01*
X141544677Y-73821990D02*
X141592296Y-73774371D01*
X141592296Y-73774371D02*
X141639915Y-73679133D01*
X141639915Y-73679133D02*
X141639915Y-73583895D01*
X141639915Y-73583895D02*
X141592296Y-73488657D01*
X141592296Y-73488657D02*
X141544677Y-73441038D01*
X141544677Y-73441038D02*
X141449439Y-73393419D01*
X141449439Y-73393419D02*
X141211344Y-73393419D01*
X141211344Y-73393419D02*
X141068487Y-73441038D01*
X140687534Y-73488657D02*
X140639915Y-73441038D01*
X140639915Y-73441038D02*
X140544677Y-73393419D01*
X140544677Y-73393419D02*
X140306582Y-73393419D01*
X140306582Y-73393419D02*
X140211344Y-73441038D01*
X140211344Y-73441038D02*
X140163725Y-73488657D01*
X140163725Y-73488657D02*
X140116106Y-73583895D01*
X140116106Y-73583895D02*
X140116106Y-73679133D01*
X140116106Y-73679133D02*
X140163725Y-73821990D01*
X140163725Y-73821990D02*
X140735153Y-74393419D01*
X140735153Y-74393419D02*
X140116106Y-74393419D01*
X139735153Y-73488657D02*
X139687534Y-73441038D01*
X139687534Y-73441038D02*
X139592296Y-73393419D01*
X139592296Y-73393419D02*
X139354201Y-73393419D01*
X139354201Y-73393419D02*
X139258963Y-73441038D01*
X139258963Y-73441038D02*
X139211344Y-73488657D01*
X139211344Y-73488657D02*
X139163725Y-73583895D01*
X139163725Y-73583895D02*
X139163725Y-73679133D01*
X139163725Y-73679133D02*
X139211344Y-73821990D01*
X139211344Y-73821990D02*
X139782772Y-74393419D01*
X139782772Y-74393419D02*
X139163725Y-74393419D01*
X138735153Y-74393419D02*
X138735153Y-73393419D01*
X138735153Y-73869609D02*
X138163725Y-73869609D01*
X138163725Y-74393419D02*
X138163725Y-73393419D01*
X137687534Y-74393419D02*
X137687534Y-73393419D01*
X137687534Y-73869609D02*
X137116106Y-73869609D01*
X137116106Y-74393419D02*
X137116106Y-73393419D01*
X135878010Y-74393419D02*
X135878010Y-73393419D01*
X135878010Y-73774371D02*
X135782772Y-73726752D01*
X135782772Y-73726752D02*
X135592296Y-73726752D01*
X135592296Y-73726752D02*
X135497058Y-73774371D01*
X135497058Y-73774371D02*
X135449439Y-73821990D01*
X135449439Y-73821990D02*
X135401820Y-73917228D01*
X135401820Y-73917228D02*
X135401820Y-74202942D01*
X135401820Y-74202942D02*
X135449439Y-74298180D01*
X135449439Y-74298180D02*
X135497058Y-74345800D01*
X135497058Y-74345800D02*
X135592296Y-74393419D01*
X135592296Y-74393419D02*
X135782772Y-74393419D01*
X135782772Y-74393419D02*
X135878010Y-74345800D01*
X134592296Y-74345800D02*
X134687534Y-74393419D01*
X134687534Y-74393419D02*
X134878010Y-74393419D01*
X134878010Y-74393419D02*
X134973248Y-74345800D01*
X134973248Y-74345800D02*
X135020867Y-74250561D01*
X135020867Y-74250561D02*
X135020867Y-73869609D01*
X135020867Y-73869609D02*
X134973248Y-73774371D01*
X134973248Y-73774371D02*
X134878010Y-73726752D01*
X134878010Y-73726752D02*
X134687534Y-73726752D01*
X134687534Y-73726752D02*
X134592296Y-73774371D01*
X134592296Y-73774371D02*
X134544677Y-73869609D01*
X134544677Y-73869609D02*
X134544677Y-73964847D01*
X134544677Y-73964847D02*
X135020867Y-74060085D01*
X133687534Y-74345800D02*
X133782772Y-74393419D01*
X133782772Y-74393419D02*
X133973248Y-74393419D01*
X133973248Y-74393419D02*
X134068486Y-74345800D01*
X134068486Y-74345800D02*
X134116105Y-74298180D01*
X134116105Y-74298180D02*
X134163724Y-74202942D01*
X134163724Y-74202942D02*
X134163724Y-73917228D01*
X134163724Y-73917228D02*
X134116105Y-73821990D01*
X134116105Y-73821990D02*
X134068486Y-73774371D01*
X134068486Y-73774371D02*
X133973248Y-73726752D01*
X133973248Y-73726752D02*
X133782772Y-73726752D01*
X133782772Y-73726752D02*
X133687534Y-73774371D01*
X132830391Y-74393419D02*
X132830391Y-73869609D01*
X132830391Y-73869609D02*
X132878010Y-73774371D01*
X132878010Y-73774371D02*
X132973248Y-73726752D01*
X132973248Y-73726752D02*
X133163724Y-73726752D01*
X133163724Y-73726752D02*
X133258962Y-73774371D01*
X132830391Y-74345800D02*
X132925629Y-74393419D01*
X132925629Y-74393419D02*
X133163724Y-74393419D01*
X133163724Y-74393419D02*
X133258962Y-74345800D01*
X133258962Y-74345800D02*
X133306581Y-74250561D01*
X133306581Y-74250561D02*
X133306581Y-74155323D01*
X133306581Y-74155323D02*
X133258962Y-74060085D01*
X133258962Y-74060085D02*
X133163724Y-74012466D01*
X133163724Y-74012466D02*
X132925629Y-74012466D01*
X132925629Y-74012466D02*
X132830391Y-73964847D01*
X131925629Y-73726752D02*
X131925629Y-74393419D01*
X132354200Y-73726752D02*
X132354200Y-74250561D01*
X132354200Y-74250561D02*
X132306581Y-74345800D01*
X132306581Y-74345800D02*
X132211343Y-74393419D01*
X132211343Y-74393419D02*
X132068486Y-74393419D01*
X132068486Y-74393419D02*
X131973248Y-74345800D01*
X131973248Y-74345800D02*
X131925629Y-74298180D01*
X131497057Y-74345800D02*
X131401819Y-74393419D01*
X131401819Y-74393419D02*
X131211343Y-74393419D01*
X131211343Y-74393419D02*
X131116105Y-74345800D01*
X131116105Y-74345800D02*
X131068486Y-74250561D01*
X131068486Y-74250561D02*
X131068486Y-74202942D01*
X131068486Y-74202942D02*
X131116105Y-74107704D01*
X131116105Y-74107704D02*
X131211343Y-74060085D01*
X131211343Y-74060085D02*
X131354200Y-74060085D01*
X131354200Y-74060085D02*
X131449438Y-74012466D01*
X131449438Y-74012466D02*
X131497057Y-73917228D01*
X131497057Y-73917228D02*
X131497057Y-73869609D01*
X131497057Y-73869609D02*
X131449438Y-73774371D01*
X131449438Y-73774371D02*
X131354200Y-73726752D01*
X131354200Y-73726752D02*
X131211343Y-73726752D01*
X131211343Y-73726752D02*
X131116105Y-73774371D01*
X130258962Y-74345800D02*
X130354200Y-74393419D01*
X130354200Y-74393419D02*
X130544676Y-74393419D01*
X130544676Y-74393419D02*
X130639914Y-74345800D01*
X130639914Y-74345800D02*
X130687533Y-74250561D01*
X130687533Y-74250561D02*
X130687533Y-73869609D01*
X130687533Y-73869609D02*
X130639914Y-73774371D01*
X130639914Y-73774371D02*
X130544676Y-73726752D01*
X130544676Y-73726752D02*
X130354200Y-73726752D01*
X130354200Y-73726752D02*
X130258962Y-73774371D01*
X130258962Y-73774371D02*
X130211343Y-73869609D01*
X130211343Y-73869609D02*
X130211343Y-73964847D01*
X130211343Y-73964847D02*
X130687533Y-74060085D01*
X128544676Y-74393419D02*
X129020866Y-74393419D01*
X129020866Y-74393419D02*
X129020866Y-73393419D01*
X128211342Y-74393419D02*
X128211342Y-73393419D01*
X128211342Y-73393419D02*
X127830390Y-73393419D01*
X127830390Y-73393419D02*
X127735152Y-73441038D01*
X127735152Y-73441038D02*
X127687533Y-73488657D01*
X127687533Y-73488657D02*
X127639914Y-73583895D01*
X127639914Y-73583895D02*
X127639914Y-73726752D01*
X127639914Y-73726752D02*
X127687533Y-73821990D01*
X127687533Y-73821990D02*
X127735152Y-73869609D01*
X127735152Y-73869609D02*
X127830390Y-73917228D01*
X127830390Y-73917228D02*
X128211342Y-73917228D01*
X127258961Y-74345800D02*
X127116104Y-74393419D01*
X127116104Y-74393419D02*
X126878009Y-74393419D01*
X126878009Y-74393419D02*
X126782771Y-74345800D01*
X126782771Y-74345800D02*
X126735152Y-74298180D01*
X126735152Y-74298180D02*
X126687533Y-74202942D01*
X126687533Y-74202942D02*
X126687533Y-74107704D01*
X126687533Y-74107704D02*
X126735152Y-74012466D01*
X126735152Y-74012466D02*
X126782771Y-73964847D01*
X126782771Y-73964847D02*
X126878009Y-73917228D01*
X126878009Y-73917228D02*
X127068485Y-73869609D01*
X127068485Y-73869609D02*
X127163723Y-73821990D01*
X127163723Y-73821990D02*
X127211342Y-73774371D01*
X127211342Y-73774371D02*
X127258961Y-73679133D01*
X127258961Y-73679133D02*
X127258961Y-73583895D01*
X127258961Y-73583895D02*
X127211342Y-73488657D01*
X127211342Y-73488657D02*
X127163723Y-73441038D01*
X127163723Y-73441038D02*
X127068485Y-73393419D01*
X127068485Y-73393419D02*
X126830390Y-73393419D01*
X126830390Y-73393419D02*
X126687533Y-73441038D01*
X126306580Y-73488657D02*
X126258961Y-73441038D01*
X126258961Y-73441038D02*
X126163723Y-73393419D01*
X126163723Y-73393419D02*
X125925628Y-73393419D01*
X125925628Y-73393419D02*
X125830390Y-73441038D01*
X125830390Y-73441038D02*
X125782771Y-73488657D01*
X125782771Y-73488657D02*
X125735152Y-73583895D01*
X125735152Y-73583895D02*
X125735152Y-73679133D01*
X125735152Y-73679133D02*
X125782771Y-73821990D01*
X125782771Y-73821990D02*
X126354199Y-74393419D01*
X126354199Y-74393419D02*
X125735152Y-74393419D01*
X125354199Y-73488657D02*
X125306580Y-73441038D01*
X125306580Y-73441038D02*
X125211342Y-73393419D01*
X125211342Y-73393419D02*
X124973247Y-73393419D01*
X124973247Y-73393419D02*
X124878009Y-73441038D01*
X124878009Y-73441038D02*
X124830390Y-73488657D01*
X124830390Y-73488657D02*
X124782771Y-73583895D01*
X124782771Y-73583895D02*
X124782771Y-73679133D01*
X124782771Y-73679133D02*
X124830390Y-73821990D01*
X124830390Y-73821990D02*
X125401818Y-74393419D01*
X125401818Y-74393419D02*
X124782771Y-74393419D01*
X124354199Y-74393419D02*
X124354199Y-73393419D01*
X124354199Y-73393419D02*
X124116104Y-73393419D01*
X124116104Y-73393419D02*
X123973247Y-73441038D01*
X123973247Y-73441038D02*
X123878009Y-73536276D01*
X123878009Y-73536276D02*
X123830390Y-73631514D01*
X123830390Y-73631514D02*
X123782771Y-73821990D01*
X123782771Y-73821990D02*
X123782771Y-73964847D01*
X123782771Y-73964847D02*
X123830390Y-74155323D01*
X123830390Y-74155323D02*
X123878009Y-74250561D01*
X123878009Y-74250561D02*
X123973247Y-74345800D01*
X123973247Y-74345800D02*
X124116104Y-74393419D01*
X124116104Y-74393419D02*
X124354199Y-74393419D01*
X123497056Y-73393419D02*
X123163723Y-74393419D01*
X123163723Y-74393419D02*
X122830390Y-73393419D01*
X121735151Y-73726752D02*
X121735151Y-74393419D01*
X121735151Y-73821990D02*
X121687532Y-73774371D01*
X121687532Y-73774371D02*
X121592294Y-73726752D01*
X121592294Y-73726752D02*
X121449437Y-73726752D01*
X121449437Y-73726752D02*
X121354199Y-73774371D01*
X121354199Y-73774371D02*
X121306580Y-73869609D01*
X121306580Y-73869609D02*
X121306580Y-74393419D01*
X120687532Y-74393419D02*
X120782770Y-74345800D01*
X120782770Y-74345800D02*
X120830389Y-74298180D01*
X120830389Y-74298180D02*
X120878008Y-74202942D01*
X120878008Y-74202942D02*
X120878008Y-73917228D01*
X120878008Y-73917228D02*
X120830389Y-73821990D01*
X120830389Y-73821990D02*
X120782770Y-73774371D01*
X120782770Y-73774371D02*
X120687532Y-73726752D01*
X120687532Y-73726752D02*
X120544675Y-73726752D01*
X120544675Y-73726752D02*
X120449437Y-73774371D01*
X120449437Y-73774371D02*
X120401818Y-73821990D01*
X120401818Y-73821990D02*
X120354199Y-73917228D01*
X120354199Y-73917228D02*
X120354199Y-74202942D01*
X120354199Y-74202942D02*
X120401818Y-74298180D01*
X120401818Y-74298180D02*
X120449437Y-74345800D01*
X120449437Y-74345800D02*
X120544675Y-74393419D01*
X120544675Y-74393419D02*
X120687532Y-74393419D01*
X120068484Y-73726752D02*
X119687532Y-73726752D01*
X119925627Y-73393419D02*
X119925627Y-74250561D01*
X119925627Y-74250561D02*
X119878008Y-74345800D01*
X119878008Y-74345800D02*
X119782770Y-74393419D01*
X119782770Y-74393419D02*
X119687532Y-74393419D01*
X118163722Y-74393419D02*
X118163722Y-73869609D01*
X118163722Y-73869609D02*
X118211341Y-73774371D01*
X118211341Y-73774371D02*
X118306579Y-73726752D01*
X118306579Y-73726752D02*
X118497055Y-73726752D01*
X118497055Y-73726752D02*
X118592293Y-73774371D01*
X118163722Y-74345800D02*
X118258960Y-74393419D01*
X118258960Y-74393419D02*
X118497055Y-74393419D01*
X118497055Y-74393419D02*
X118592293Y-74345800D01*
X118592293Y-74345800D02*
X118639912Y-74250561D01*
X118639912Y-74250561D02*
X118639912Y-74155323D01*
X118639912Y-74155323D02*
X118592293Y-74060085D01*
X118592293Y-74060085D02*
X118497055Y-74012466D01*
X118497055Y-74012466D02*
X118258960Y-74012466D01*
X118258960Y-74012466D02*
X118163722Y-73964847D01*
X117782769Y-73726752D02*
X117544674Y-74393419D01*
X117544674Y-74393419D02*
X117306579Y-73726752D01*
X116497055Y-74393419D02*
X116497055Y-73869609D01*
X116497055Y-73869609D02*
X116544674Y-73774371D01*
X116544674Y-73774371D02*
X116639912Y-73726752D01*
X116639912Y-73726752D02*
X116830388Y-73726752D01*
X116830388Y-73726752D02*
X116925626Y-73774371D01*
X116497055Y-74345800D02*
X116592293Y-74393419D01*
X116592293Y-74393419D02*
X116830388Y-74393419D01*
X116830388Y-74393419D02*
X116925626Y-74345800D01*
X116925626Y-74345800D02*
X116973245Y-74250561D01*
X116973245Y-74250561D02*
X116973245Y-74155323D01*
X116973245Y-74155323D02*
X116925626Y-74060085D01*
X116925626Y-74060085D02*
X116830388Y-74012466D01*
X116830388Y-74012466D02*
X116592293Y-74012466D01*
X116592293Y-74012466D02*
X116497055Y-73964847D01*
X116020864Y-74393419D02*
X116020864Y-73726752D01*
X116020864Y-73393419D02*
X116068483Y-73441038D01*
X116068483Y-73441038D02*
X116020864Y-73488657D01*
X116020864Y-73488657D02*
X115973245Y-73441038D01*
X115973245Y-73441038D02*
X116020864Y-73393419D01*
X116020864Y-73393419D02*
X116020864Y-73488657D01*
X115401817Y-74393419D02*
X115497055Y-74345800D01*
X115497055Y-74345800D02*
X115544674Y-74250561D01*
X115544674Y-74250561D02*
X115544674Y-73393419D01*
X114592293Y-74393419D02*
X114592293Y-73869609D01*
X114592293Y-73869609D02*
X114639912Y-73774371D01*
X114639912Y-73774371D02*
X114735150Y-73726752D01*
X114735150Y-73726752D02*
X114925626Y-73726752D01*
X114925626Y-73726752D02*
X115020864Y-73774371D01*
X114592293Y-74345800D02*
X114687531Y-74393419D01*
X114687531Y-74393419D02*
X114925626Y-74393419D01*
X114925626Y-74393419D02*
X115020864Y-74345800D01*
X115020864Y-74345800D02*
X115068483Y-74250561D01*
X115068483Y-74250561D02*
X115068483Y-74155323D01*
X115068483Y-74155323D02*
X115020864Y-74060085D01*
X115020864Y-74060085D02*
X114925626Y-74012466D01*
X114925626Y-74012466D02*
X114687531Y-74012466D01*
X114687531Y-74012466D02*
X114592293Y-73964847D01*
X114116102Y-74393419D02*
X114116102Y-73393419D01*
X114116102Y-73774371D02*
X114020864Y-73726752D01*
X114020864Y-73726752D02*
X113830388Y-73726752D01*
X113830388Y-73726752D02*
X113735150Y-73774371D01*
X113735150Y-73774371D02*
X113687531Y-73821990D01*
X113687531Y-73821990D02*
X113639912Y-73917228D01*
X113639912Y-73917228D02*
X113639912Y-74202942D01*
X113639912Y-74202942D02*
X113687531Y-74298180D01*
X113687531Y-74298180D02*
X113735150Y-74345800D01*
X113735150Y-74345800D02*
X113830388Y-74393419D01*
X113830388Y-74393419D02*
X114020864Y-74393419D01*
X114020864Y-74393419D02*
X114116102Y-74345800D01*
X113068483Y-74393419D02*
X113163721Y-74345800D01*
X113163721Y-74345800D02*
X113211340Y-74250561D01*
X113211340Y-74250561D02*
X113211340Y-73393419D01*
X112306578Y-74345800D02*
X112401816Y-74393419D01*
X112401816Y-74393419D02*
X112592292Y-74393419D01*
X112592292Y-74393419D02*
X112687530Y-74345800D01*
X112687530Y-74345800D02*
X112735149Y-74250561D01*
X112735149Y-74250561D02*
X112735149Y-73869609D01*
X112735149Y-73869609D02*
X112687530Y-73774371D01*
X112687530Y-73774371D02*
X112592292Y-73726752D01*
X112592292Y-73726752D02*
X112401816Y-73726752D01*
X112401816Y-73726752D02*
X112306578Y-73774371D01*
X112306578Y-73774371D02*
X112258959Y-73869609D01*
X112258959Y-73869609D02*
X112258959Y-73964847D01*
X112258959Y-73964847D02*
X112735149Y-74060085D01*
X111890112Y-81687200D02*
X111747255Y-81734819D01*
X111747255Y-81734819D02*
X111509160Y-81734819D01*
X111509160Y-81734819D02*
X111413922Y-81687200D01*
X111413922Y-81687200D02*
X111366303Y-81639580D01*
X111366303Y-81639580D02*
X111318684Y-81544342D01*
X111318684Y-81544342D02*
X111318684Y-81449104D01*
X111318684Y-81449104D02*
X111366303Y-81353866D01*
X111366303Y-81353866D02*
X111413922Y-81306247D01*
X111413922Y-81306247D02*
X111509160Y-81258628D01*
X111509160Y-81258628D02*
X111699636Y-81211009D01*
X111699636Y-81211009D02*
X111794874Y-81163390D01*
X111794874Y-81163390D02*
X111842493Y-81115771D01*
X111842493Y-81115771D02*
X111890112Y-81020533D01*
X111890112Y-81020533D02*
X111890112Y-80925295D01*
X111890112Y-80925295D02*
X111842493Y-80830057D01*
X111842493Y-80830057D02*
X111794874Y-80782438D01*
X111794874Y-80782438D02*
X111699636Y-80734819D01*
X111699636Y-80734819D02*
X111461541Y-80734819D01*
X111461541Y-80734819D02*
X111318684Y-80782438D01*
X110318684Y-81639580D02*
X110366303Y-81687200D01*
X110366303Y-81687200D02*
X110509160Y-81734819D01*
X110509160Y-81734819D02*
X110604398Y-81734819D01*
X110604398Y-81734819D02*
X110747255Y-81687200D01*
X110747255Y-81687200D02*
X110842493Y-81591961D01*
X110842493Y-81591961D02*
X110890112Y-81496723D01*
X110890112Y-81496723D02*
X110937731Y-81306247D01*
X110937731Y-81306247D02*
X110937731Y-81163390D01*
X110937731Y-81163390D02*
X110890112Y-80972914D01*
X110890112Y-80972914D02*
X110842493Y-80877676D01*
X110842493Y-80877676D02*
X110747255Y-80782438D01*
X110747255Y-80782438D02*
X110604398Y-80734819D01*
X110604398Y-80734819D02*
X110509160Y-80734819D01*
X110509160Y-80734819D02*
X110366303Y-80782438D01*
X110366303Y-80782438D02*
X110318684Y-80830057D01*
X109413922Y-81734819D02*
X109890112Y-81734819D01*
X109890112Y-81734819D02*
X109890112Y-80734819D01*
X111937731Y-84227200D02*
X111794874Y-84274819D01*
X111794874Y-84274819D02*
X111556779Y-84274819D01*
X111556779Y-84274819D02*
X111461541Y-84227200D01*
X111461541Y-84227200D02*
X111413922Y-84179580D01*
X111413922Y-84179580D02*
X111366303Y-84084342D01*
X111366303Y-84084342D02*
X111366303Y-83989104D01*
X111366303Y-83989104D02*
X111413922Y-83893866D01*
X111413922Y-83893866D02*
X111461541Y-83846247D01*
X111461541Y-83846247D02*
X111556779Y-83798628D01*
X111556779Y-83798628D02*
X111747255Y-83751009D01*
X111747255Y-83751009D02*
X111842493Y-83703390D01*
X111842493Y-83703390D02*
X111890112Y-83655771D01*
X111890112Y-83655771D02*
X111937731Y-83560533D01*
X111937731Y-83560533D02*
X111937731Y-83465295D01*
X111937731Y-83465295D02*
X111890112Y-83370057D01*
X111890112Y-83370057D02*
X111842493Y-83322438D01*
X111842493Y-83322438D02*
X111747255Y-83274819D01*
X111747255Y-83274819D02*
X111509160Y-83274819D01*
X111509160Y-83274819D02*
X111366303Y-83322438D01*
X110937731Y-84274819D02*
X110937731Y-83274819D01*
X110937731Y-83274819D02*
X110699636Y-83274819D01*
X110699636Y-83274819D02*
X110556779Y-83322438D01*
X110556779Y-83322438D02*
X110461541Y-83417676D01*
X110461541Y-83417676D02*
X110413922Y-83512914D01*
X110413922Y-83512914D02*
X110366303Y-83703390D01*
X110366303Y-83703390D02*
X110366303Y-83846247D01*
X110366303Y-83846247D02*
X110413922Y-84036723D01*
X110413922Y-84036723D02*
X110461541Y-84131961D01*
X110461541Y-84131961D02*
X110556779Y-84227200D01*
X110556779Y-84227200D02*
X110699636Y-84274819D01*
X110699636Y-84274819D02*
X110937731Y-84274819D01*
X109985350Y-83989104D02*
X109509160Y-83989104D01*
X110080588Y-84274819D02*
X109747255Y-83274819D01*
X109747255Y-83274819D02*
X109413922Y-84274819D01*
X111128207Y-86814819D02*
X111128207Y-85814819D01*
X111128207Y-85814819D02*
X110556779Y-86814819D01*
X110556779Y-86814819D02*
X110556779Y-85814819D01*
X109509160Y-86719580D02*
X109556779Y-86767200D01*
X109556779Y-86767200D02*
X109699636Y-86814819D01*
X109699636Y-86814819D02*
X109794874Y-86814819D01*
X109794874Y-86814819D02*
X109937731Y-86767200D01*
X109937731Y-86767200D02*
X110032969Y-86671961D01*
X110032969Y-86671961D02*
X110080588Y-86576723D01*
X110080588Y-86576723D02*
X110128207Y-86386247D01*
X110128207Y-86386247D02*
X110128207Y-86243390D01*
X110128207Y-86243390D02*
X110080588Y-86052914D01*
X110080588Y-86052914D02*
X110032969Y-85957676D01*
X110032969Y-85957676D02*
X109937731Y-85862438D01*
X109937731Y-85862438D02*
X109794874Y-85814819D01*
X109794874Y-85814819D02*
X109699636Y-85814819D01*
X109699636Y-85814819D02*
X109556779Y-85862438D01*
X109556779Y-85862438D02*
X109509160Y-85910057D01*
X111128207Y-89354819D02*
X111128207Y-88354819D01*
X111128207Y-88354819D02*
X110556779Y-89354819D01*
X110556779Y-89354819D02*
X110556779Y-88354819D01*
X109509160Y-89259580D02*
X109556779Y-89307200D01*
X109556779Y-89307200D02*
X109699636Y-89354819D01*
X109699636Y-89354819D02*
X109794874Y-89354819D01*
X109794874Y-89354819D02*
X109937731Y-89307200D01*
X109937731Y-89307200D02*
X110032969Y-89211961D01*
X110032969Y-89211961D02*
X110080588Y-89116723D01*
X110080588Y-89116723D02*
X110128207Y-88926247D01*
X110128207Y-88926247D02*
X110128207Y-88783390D01*
X110128207Y-88783390D02*
X110080588Y-88592914D01*
X110080588Y-88592914D02*
X110032969Y-88497676D01*
X110032969Y-88497676D02*
X109937731Y-88402438D01*
X109937731Y-88402438D02*
X109794874Y-88354819D01*
X109794874Y-88354819D02*
X109699636Y-88354819D01*
X109699636Y-88354819D02*
X109556779Y-88402438D01*
X109556779Y-88402438D02*
X109509160Y-88450057D01*
X111604398Y-116342438D02*
X111699636Y-116294819D01*
X111699636Y-116294819D02*
X111842493Y-116294819D01*
X111842493Y-116294819D02*
X111985350Y-116342438D01*
X111985350Y-116342438D02*
X112080588Y-116437676D01*
X112080588Y-116437676D02*
X112128207Y-116532914D01*
X112128207Y-116532914D02*
X112175826Y-116723390D01*
X112175826Y-116723390D02*
X112175826Y-116866247D01*
X112175826Y-116866247D02*
X112128207Y-117056723D01*
X112128207Y-117056723D02*
X112080588Y-117151961D01*
X112080588Y-117151961D02*
X111985350Y-117247200D01*
X111985350Y-117247200D02*
X111842493Y-117294819D01*
X111842493Y-117294819D02*
X111747255Y-117294819D01*
X111747255Y-117294819D02*
X111604398Y-117247200D01*
X111604398Y-117247200D02*
X111556779Y-117199580D01*
X111556779Y-117199580D02*
X111556779Y-116866247D01*
X111556779Y-116866247D02*
X111747255Y-116866247D01*
X111128207Y-117294819D02*
X111128207Y-116294819D01*
X111128207Y-116294819D02*
X110556779Y-117294819D01*
X110556779Y-117294819D02*
X110556779Y-116294819D01*
X110080588Y-117294819D02*
X110080588Y-116294819D01*
X110080588Y-116294819D02*
X109842493Y-116294819D01*
X109842493Y-116294819D02*
X109699636Y-116342438D01*
X109699636Y-116342438D02*
X109604398Y-116437676D01*
X109604398Y-116437676D02*
X109556779Y-116532914D01*
X109556779Y-116532914D02*
X109509160Y-116723390D01*
X109509160Y-116723390D02*
X109509160Y-116866247D01*
X109509160Y-116866247D02*
X109556779Y-117056723D01*
X109556779Y-117056723D02*
X109604398Y-117151961D01*
X109604398Y-117151961D02*
X109699636Y-117247200D01*
X109699636Y-117247200D02*
X109842493Y-117294819D01*
X109842493Y-117294819D02*
X110080588Y-117294819D01*
X144774399Y-89281819D02*
X145250589Y-89281819D01*
X145250589Y-89281819D02*
X145250589Y-88281819D01*
X144441065Y-89281819D02*
X144441065Y-88281819D01*
X144441065Y-88281819D02*
X144060113Y-88281819D01*
X144060113Y-88281819D02*
X143964875Y-88329438D01*
X143964875Y-88329438D02*
X143917256Y-88377057D01*
X143917256Y-88377057D02*
X143869637Y-88472295D01*
X143869637Y-88472295D02*
X143869637Y-88615152D01*
X143869637Y-88615152D02*
X143917256Y-88710390D01*
X143917256Y-88710390D02*
X143964875Y-88758009D01*
X143964875Y-88758009D02*
X144060113Y-88805628D01*
X144060113Y-88805628D02*
X144441065Y-88805628D01*
X143488684Y-89234200D02*
X143345827Y-89281819D01*
X143345827Y-89281819D02*
X143107732Y-89281819D01*
X143107732Y-89281819D02*
X143012494Y-89234200D01*
X143012494Y-89234200D02*
X142964875Y-89186580D01*
X142964875Y-89186580D02*
X142917256Y-89091342D01*
X142917256Y-89091342D02*
X142917256Y-88996104D01*
X142917256Y-88996104D02*
X142964875Y-88900866D01*
X142964875Y-88900866D02*
X143012494Y-88853247D01*
X143012494Y-88853247D02*
X143107732Y-88805628D01*
X143107732Y-88805628D02*
X143298208Y-88758009D01*
X143298208Y-88758009D02*
X143393446Y-88710390D01*
X143393446Y-88710390D02*
X143441065Y-88662771D01*
X143441065Y-88662771D02*
X143488684Y-88567533D01*
X143488684Y-88567533D02*
X143488684Y-88472295D01*
X143488684Y-88472295D02*
X143441065Y-88377057D01*
X143441065Y-88377057D02*
X143393446Y-88329438D01*
X143393446Y-88329438D02*
X143298208Y-88281819D01*
X143298208Y-88281819D02*
X143060113Y-88281819D01*
X143060113Y-88281819D02*
X142917256Y-88329438D01*
X142726780Y-89377057D02*
X141964875Y-89377057D01*
X141155351Y-89186580D02*
X141202970Y-89234200D01*
X141202970Y-89234200D02*
X141345827Y-89281819D01*
X141345827Y-89281819D02*
X141441065Y-89281819D01*
X141441065Y-89281819D02*
X141583922Y-89234200D01*
X141583922Y-89234200D02*
X141679160Y-89138961D01*
X141679160Y-89138961D02*
X141726779Y-89043723D01*
X141726779Y-89043723D02*
X141774398Y-88853247D01*
X141774398Y-88853247D02*
X141774398Y-88710390D01*
X141774398Y-88710390D02*
X141726779Y-88519914D01*
X141726779Y-88519914D02*
X141679160Y-88424676D01*
X141679160Y-88424676D02*
X141583922Y-88329438D01*
X141583922Y-88329438D02*
X141441065Y-88281819D01*
X141441065Y-88281819D02*
X141345827Y-88281819D01*
X141345827Y-88281819D02*
X141202970Y-88329438D01*
X141202970Y-88329438D02*
X141155351Y-88377057D01*
X140774398Y-89234200D02*
X140631541Y-89281819D01*
X140631541Y-89281819D02*
X140393446Y-89281819D01*
X140393446Y-89281819D02*
X140298208Y-89234200D01*
X140298208Y-89234200D02*
X140250589Y-89186580D01*
X140250589Y-89186580D02*
X140202970Y-89091342D01*
X140202970Y-89091342D02*
X140202970Y-88996104D01*
X140202970Y-88996104D02*
X140250589Y-88900866D01*
X140250589Y-88900866D02*
X140298208Y-88853247D01*
X140298208Y-88853247D02*
X140393446Y-88805628D01*
X140393446Y-88805628D02*
X140583922Y-88758009D01*
X140583922Y-88758009D02*
X140679160Y-88710390D01*
X140679160Y-88710390D02*
X140726779Y-88662771D01*
X140726779Y-88662771D02*
X140774398Y-88567533D01*
X140774398Y-88567533D02*
X140774398Y-88472295D01*
X140774398Y-88472295D02*
X140726779Y-88377057D01*
X140726779Y-88377057D02*
X140679160Y-88329438D01*
X140679160Y-88329438D02*
X140583922Y-88281819D01*
X140583922Y-88281819D02*
X140345827Y-88281819D01*
X140345827Y-88281819D02*
X140202970Y-88329438D01*
X139012493Y-89281819D02*
X139012493Y-88281819D01*
X139012493Y-88281819D02*
X138631541Y-88281819D01*
X138631541Y-88281819D02*
X138536303Y-88329438D01*
X138536303Y-88329438D02*
X138488684Y-88377057D01*
X138488684Y-88377057D02*
X138441065Y-88472295D01*
X138441065Y-88472295D02*
X138441065Y-88615152D01*
X138441065Y-88615152D02*
X138488684Y-88710390D01*
X138488684Y-88710390D02*
X138536303Y-88758009D01*
X138536303Y-88758009D02*
X138631541Y-88805628D01*
X138631541Y-88805628D02*
X139012493Y-88805628D01*
X138060112Y-88996104D02*
X137583922Y-88996104D01*
X138155350Y-89281819D02*
X137822017Y-88281819D01*
X137822017Y-88281819D02*
X137488684Y-89281819D01*
X136631541Y-89281819D02*
X137202969Y-89281819D01*
X136917255Y-89281819D02*
X136917255Y-88281819D01*
X136917255Y-88281819D02*
X137012493Y-88424676D01*
X137012493Y-88424676D02*
X137107731Y-88519914D01*
X137107731Y-88519914D02*
X137202969Y-88567533D01*
X136012493Y-88281819D02*
X135917255Y-88281819D01*
X135917255Y-88281819D02*
X135822017Y-88329438D01*
X135822017Y-88329438D02*
X135774398Y-88377057D01*
X135774398Y-88377057D02*
X135726779Y-88472295D01*
X135726779Y-88472295D02*
X135679160Y-88662771D01*
X135679160Y-88662771D02*
X135679160Y-88900866D01*
X135679160Y-88900866D02*
X135726779Y-89091342D01*
X135726779Y-89091342D02*
X135774398Y-89186580D01*
X135774398Y-89186580D02*
X135822017Y-89234200D01*
X135822017Y-89234200D02*
X135917255Y-89281819D01*
X135917255Y-89281819D02*
X136012493Y-89281819D01*
X136012493Y-89281819D02*
X136107731Y-89234200D01*
X136107731Y-89234200D02*
X136155350Y-89186580D01*
X136155350Y-89186580D02*
X136202969Y-89091342D01*
X136202969Y-89091342D02*
X136250588Y-88900866D01*
X136250588Y-88900866D02*
X136250588Y-88662771D01*
X136250588Y-88662771D02*
X136202969Y-88472295D01*
X136202969Y-88472295D02*
X136155350Y-88377057D01*
X136155350Y-88377057D02*
X136107731Y-88329438D01*
X136107731Y-88329438D02*
X136012493Y-88281819D01*
X146941065Y-84401819D02*
X147417255Y-84401819D01*
X147417255Y-84401819D02*
X147417255Y-83401819D01*
X146607731Y-84401819D02*
X146607731Y-83401819D01*
X146607731Y-83401819D02*
X146226779Y-83401819D01*
X146226779Y-83401819D02*
X146131541Y-83449438D01*
X146131541Y-83449438D02*
X146083922Y-83497057D01*
X146083922Y-83497057D02*
X146036303Y-83592295D01*
X146036303Y-83592295D02*
X146036303Y-83735152D01*
X146036303Y-83735152D02*
X146083922Y-83830390D01*
X146083922Y-83830390D02*
X146131541Y-83878009D01*
X146131541Y-83878009D02*
X146226779Y-83925628D01*
X146226779Y-83925628D02*
X146607731Y-83925628D01*
X145655350Y-84354200D02*
X145512493Y-84401819D01*
X145512493Y-84401819D02*
X145274398Y-84401819D01*
X145274398Y-84401819D02*
X145179160Y-84354200D01*
X145179160Y-84354200D02*
X145131541Y-84306580D01*
X145131541Y-84306580D02*
X145083922Y-84211342D01*
X145083922Y-84211342D02*
X145083922Y-84116104D01*
X145083922Y-84116104D02*
X145131541Y-84020866D01*
X145131541Y-84020866D02*
X145179160Y-83973247D01*
X145179160Y-83973247D02*
X145274398Y-83925628D01*
X145274398Y-83925628D02*
X145464874Y-83878009D01*
X145464874Y-83878009D02*
X145560112Y-83830390D01*
X145560112Y-83830390D02*
X145607731Y-83782771D01*
X145607731Y-83782771D02*
X145655350Y-83687533D01*
X145655350Y-83687533D02*
X145655350Y-83592295D01*
X145655350Y-83592295D02*
X145607731Y-83497057D01*
X145607731Y-83497057D02*
X145560112Y-83449438D01*
X145560112Y-83449438D02*
X145464874Y-83401819D01*
X145464874Y-83401819D02*
X145226779Y-83401819D01*
X145226779Y-83401819D02*
X145083922Y-83449438D01*
X144893446Y-84497057D02*
X144131541Y-84497057D01*
X143893445Y-84401819D02*
X143893445Y-83401819D01*
X143893445Y-83401819D02*
X143560112Y-84116104D01*
X143560112Y-84116104D02*
X143226779Y-83401819D01*
X143226779Y-83401819D02*
X143226779Y-84401819D01*
X142560112Y-83401819D02*
X142369636Y-83401819D01*
X142369636Y-83401819D02*
X142274398Y-83449438D01*
X142274398Y-83449438D02*
X142179160Y-83544676D01*
X142179160Y-83544676D02*
X142131541Y-83735152D01*
X142131541Y-83735152D02*
X142131541Y-84068485D01*
X142131541Y-84068485D02*
X142179160Y-84258961D01*
X142179160Y-84258961D02*
X142274398Y-84354200D01*
X142274398Y-84354200D02*
X142369636Y-84401819D01*
X142369636Y-84401819D02*
X142560112Y-84401819D01*
X142560112Y-84401819D02*
X142655350Y-84354200D01*
X142655350Y-84354200D02*
X142750588Y-84258961D01*
X142750588Y-84258961D02*
X142798207Y-84068485D01*
X142798207Y-84068485D02*
X142798207Y-83735152D01*
X142798207Y-83735152D02*
X142750588Y-83544676D01*
X142750588Y-83544676D02*
X142655350Y-83449438D01*
X142655350Y-83449438D02*
X142560112Y-83401819D01*
X141750588Y-84354200D02*
X141607731Y-84401819D01*
X141607731Y-84401819D02*
X141369636Y-84401819D01*
X141369636Y-84401819D02*
X141274398Y-84354200D01*
X141274398Y-84354200D02*
X141226779Y-84306580D01*
X141226779Y-84306580D02*
X141179160Y-84211342D01*
X141179160Y-84211342D02*
X141179160Y-84116104D01*
X141179160Y-84116104D02*
X141226779Y-84020866D01*
X141226779Y-84020866D02*
X141274398Y-83973247D01*
X141274398Y-83973247D02*
X141369636Y-83925628D01*
X141369636Y-83925628D02*
X141560112Y-83878009D01*
X141560112Y-83878009D02*
X141655350Y-83830390D01*
X141655350Y-83830390D02*
X141702969Y-83782771D01*
X141702969Y-83782771D02*
X141750588Y-83687533D01*
X141750588Y-83687533D02*
X141750588Y-83592295D01*
X141750588Y-83592295D02*
X141702969Y-83497057D01*
X141702969Y-83497057D02*
X141655350Y-83449438D01*
X141655350Y-83449438D02*
X141560112Y-83401819D01*
X141560112Y-83401819D02*
X141322017Y-83401819D01*
X141322017Y-83401819D02*
X141179160Y-83449438D01*
X140750588Y-84401819D02*
X140750588Y-83401819D01*
X139512493Y-84401819D02*
X139512493Y-83401819D01*
X139512493Y-83401819D02*
X139131541Y-83401819D01*
X139131541Y-83401819D02*
X139036303Y-83449438D01*
X139036303Y-83449438D02*
X138988684Y-83497057D01*
X138988684Y-83497057D02*
X138941065Y-83592295D01*
X138941065Y-83592295D02*
X138941065Y-83735152D01*
X138941065Y-83735152D02*
X138988684Y-83830390D01*
X138988684Y-83830390D02*
X139036303Y-83878009D01*
X139036303Y-83878009D02*
X139131541Y-83925628D01*
X139131541Y-83925628D02*
X139512493Y-83925628D01*
X138560112Y-84116104D02*
X138083922Y-84116104D01*
X138655350Y-84401819D02*
X138322017Y-83401819D01*
X138322017Y-83401819D02*
X137988684Y-84401819D01*
X137131541Y-84401819D02*
X137702969Y-84401819D01*
X137417255Y-84401819D02*
X137417255Y-83401819D01*
X137417255Y-83401819D02*
X137512493Y-83544676D01*
X137512493Y-83544676D02*
X137607731Y-83639914D01*
X137607731Y-83639914D02*
X137702969Y-83687533D01*
X136750588Y-83497057D02*
X136702969Y-83449438D01*
X136702969Y-83449438D02*
X136607731Y-83401819D01*
X136607731Y-83401819D02*
X136369636Y-83401819D01*
X136369636Y-83401819D02*
X136274398Y-83449438D01*
X136274398Y-83449438D02*
X136226779Y-83497057D01*
X136226779Y-83497057D02*
X136179160Y-83592295D01*
X136179160Y-83592295D02*
X136179160Y-83687533D01*
X136179160Y-83687533D02*
X136226779Y-83830390D01*
X136226779Y-83830390D02*
X136798207Y-84401819D01*
X136798207Y-84401819D02*
X136179160Y-84401819D01*
X146941065Y-86814819D02*
X147417255Y-86814819D01*
X147417255Y-86814819D02*
X147417255Y-85814819D01*
X146607731Y-86814819D02*
X146607731Y-85814819D01*
X146607731Y-85814819D02*
X146226779Y-85814819D01*
X146226779Y-85814819D02*
X146131541Y-85862438D01*
X146131541Y-85862438D02*
X146083922Y-85910057D01*
X146083922Y-85910057D02*
X146036303Y-86005295D01*
X146036303Y-86005295D02*
X146036303Y-86148152D01*
X146036303Y-86148152D02*
X146083922Y-86243390D01*
X146083922Y-86243390D02*
X146131541Y-86291009D01*
X146131541Y-86291009D02*
X146226779Y-86338628D01*
X146226779Y-86338628D02*
X146607731Y-86338628D01*
X145655350Y-86767200D02*
X145512493Y-86814819D01*
X145512493Y-86814819D02*
X145274398Y-86814819D01*
X145274398Y-86814819D02*
X145179160Y-86767200D01*
X145179160Y-86767200D02*
X145131541Y-86719580D01*
X145131541Y-86719580D02*
X145083922Y-86624342D01*
X145083922Y-86624342D02*
X145083922Y-86529104D01*
X145083922Y-86529104D02*
X145131541Y-86433866D01*
X145131541Y-86433866D02*
X145179160Y-86386247D01*
X145179160Y-86386247D02*
X145274398Y-86338628D01*
X145274398Y-86338628D02*
X145464874Y-86291009D01*
X145464874Y-86291009D02*
X145560112Y-86243390D01*
X145560112Y-86243390D02*
X145607731Y-86195771D01*
X145607731Y-86195771D02*
X145655350Y-86100533D01*
X145655350Y-86100533D02*
X145655350Y-86005295D01*
X145655350Y-86005295D02*
X145607731Y-85910057D01*
X145607731Y-85910057D02*
X145560112Y-85862438D01*
X145560112Y-85862438D02*
X145464874Y-85814819D01*
X145464874Y-85814819D02*
X145226779Y-85814819D01*
X145226779Y-85814819D02*
X145083922Y-85862438D01*
X144893446Y-86910057D02*
X144131541Y-86910057D01*
X143893445Y-86814819D02*
X143893445Y-85814819D01*
X143893445Y-85814819D02*
X143560112Y-86529104D01*
X143560112Y-86529104D02*
X143226779Y-85814819D01*
X143226779Y-85814819D02*
X143226779Y-86814819D01*
X142750588Y-86814819D02*
X142750588Y-85814819D01*
X142322017Y-86767200D02*
X142179160Y-86814819D01*
X142179160Y-86814819D02*
X141941065Y-86814819D01*
X141941065Y-86814819D02*
X141845827Y-86767200D01*
X141845827Y-86767200D02*
X141798208Y-86719580D01*
X141798208Y-86719580D02*
X141750589Y-86624342D01*
X141750589Y-86624342D02*
X141750589Y-86529104D01*
X141750589Y-86529104D02*
X141798208Y-86433866D01*
X141798208Y-86433866D02*
X141845827Y-86386247D01*
X141845827Y-86386247D02*
X141941065Y-86338628D01*
X141941065Y-86338628D02*
X142131541Y-86291009D01*
X142131541Y-86291009D02*
X142226779Y-86243390D01*
X142226779Y-86243390D02*
X142274398Y-86195771D01*
X142274398Y-86195771D02*
X142322017Y-86100533D01*
X142322017Y-86100533D02*
X142322017Y-86005295D01*
X142322017Y-86005295D02*
X142274398Y-85910057D01*
X142274398Y-85910057D02*
X142226779Y-85862438D01*
X142226779Y-85862438D02*
X142131541Y-85814819D01*
X142131541Y-85814819D02*
X141893446Y-85814819D01*
X141893446Y-85814819D02*
X141750589Y-85862438D01*
X141131541Y-85814819D02*
X140941065Y-85814819D01*
X140941065Y-85814819D02*
X140845827Y-85862438D01*
X140845827Y-85862438D02*
X140750589Y-85957676D01*
X140750589Y-85957676D02*
X140702970Y-86148152D01*
X140702970Y-86148152D02*
X140702970Y-86481485D01*
X140702970Y-86481485D02*
X140750589Y-86671961D01*
X140750589Y-86671961D02*
X140845827Y-86767200D01*
X140845827Y-86767200D02*
X140941065Y-86814819D01*
X140941065Y-86814819D02*
X141131541Y-86814819D01*
X141131541Y-86814819D02*
X141226779Y-86767200D01*
X141226779Y-86767200D02*
X141322017Y-86671961D01*
X141322017Y-86671961D02*
X141369636Y-86481485D01*
X141369636Y-86481485D02*
X141369636Y-86148152D01*
X141369636Y-86148152D02*
X141322017Y-85957676D01*
X141322017Y-85957676D02*
X141226779Y-85862438D01*
X141226779Y-85862438D02*
X141131541Y-85814819D01*
X139512493Y-86814819D02*
X139512493Y-85814819D01*
X139512493Y-85814819D02*
X139131541Y-85814819D01*
X139131541Y-85814819D02*
X139036303Y-85862438D01*
X139036303Y-85862438D02*
X138988684Y-85910057D01*
X138988684Y-85910057D02*
X138941065Y-86005295D01*
X138941065Y-86005295D02*
X138941065Y-86148152D01*
X138941065Y-86148152D02*
X138988684Y-86243390D01*
X138988684Y-86243390D02*
X139036303Y-86291009D01*
X139036303Y-86291009D02*
X139131541Y-86338628D01*
X139131541Y-86338628D02*
X139512493Y-86338628D01*
X138560112Y-86529104D02*
X138083922Y-86529104D01*
X138655350Y-86814819D02*
X138322017Y-85814819D01*
X138322017Y-85814819D02*
X137988684Y-86814819D01*
X137131541Y-86814819D02*
X137702969Y-86814819D01*
X137417255Y-86814819D02*
X137417255Y-85814819D01*
X137417255Y-85814819D02*
X137512493Y-85957676D01*
X137512493Y-85957676D02*
X137607731Y-86052914D01*
X137607731Y-86052914D02*
X137702969Y-86100533D01*
X136179160Y-86814819D02*
X136750588Y-86814819D01*
X136464874Y-86814819D02*
X136464874Y-85814819D01*
X136464874Y-85814819D02*
X136560112Y-85957676D01*
X136560112Y-85957676D02*
X136655350Y-86052914D01*
X136655350Y-86052914D02*
X136750588Y-86100533D01*
X147799637Y-94118009D02*
X148132970Y-94118009D01*
X148132970Y-94641819D02*
X148132970Y-93641819D01*
X148132970Y-93641819D02*
X147656780Y-93641819D01*
X146799637Y-94641819D02*
X147275827Y-94641819D01*
X147275827Y-94641819D02*
X147275827Y-93641819D01*
X146513922Y-94356104D02*
X146037732Y-94356104D01*
X146609160Y-94641819D02*
X146275827Y-93641819D01*
X146275827Y-93641819D02*
X145942494Y-94641819D01*
X145656779Y-94594200D02*
X145513922Y-94641819D01*
X145513922Y-94641819D02*
X145275827Y-94641819D01*
X145275827Y-94641819D02*
X145180589Y-94594200D01*
X145180589Y-94594200D02*
X145132970Y-94546580D01*
X145132970Y-94546580D02*
X145085351Y-94451342D01*
X145085351Y-94451342D02*
X145085351Y-94356104D01*
X145085351Y-94356104D02*
X145132970Y-94260866D01*
X145132970Y-94260866D02*
X145180589Y-94213247D01*
X145180589Y-94213247D02*
X145275827Y-94165628D01*
X145275827Y-94165628D02*
X145466303Y-94118009D01*
X145466303Y-94118009D02*
X145561541Y-94070390D01*
X145561541Y-94070390D02*
X145609160Y-94022771D01*
X145609160Y-94022771D02*
X145656779Y-93927533D01*
X145656779Y-93927533D02*
X145656779Y-93832295D01*
X145656779Y-93832295D02*
X145609160Y-93737057D01*
X145609160Y-93737057D02*
X145561541Y-93689438D01*
X145561541Y-93689438D02*
X145466303Y-93641819D01*
X145466303Y-93641819D02*
X145228208Y-93641819D01*
X145228208Y-93641819D02*
X145085351Y-93689438D01*
X144656779Y-94641819D02*
X144656779Y-93641819D01*
X144656779Y-94118009D02*
X144085351Y-94118009D01*
X144085351Y-94641819D02*
X144085351Y-93641819D01*
X143847256Y-94737057D02*
X143085351Y-94737057D01*
X142656779Y-93641819D02*
X142466303Y-93641819D01*
X142466303Y-93641819D02*
X142371065Y-93689438D01*
X142371065Y-93689438D02*
X142275827Y-93784676D01*
X142275827Y-93784676D02*
X142228208Y-93975152D01*
X142228208Y-93975152D02*
X142228208Y-94308485D01*
X142228208Y-94308485D02*
X142275827Y-94498961D01*
X142275827Y-94498961D02*
X142371065Y-94594200D01*
X142371065Y-94594200D02*
X142466303Y-94641819D01*
X142466303Y-94641819D02*
X142656779Y-94641819D01*
X142656779Y-94641819D02*
X142752017Y-94594200D01*
X142752017Y-94594200D02*
X142847255Y-94498961D01*
X142847255Y-94498961D02*
X142894874Y-94308485D01*
X142894874Y-94308485D02*
X142894874Y-93975152D01*
X142894874Y-93975152D02*
X142847255Y-93784676D01*
X142847255Y-93784676D02*
X142752017Y-93689438D01*
X142752017Y-93689438D02*
X142656779Y-93641819D01*
X141799636Y-94641819D02*
X141799636Y-93641819D01*
X141799636Y-93641819D02*
X141228208Y-94641819D01*
X141228208Y-94641819D02*
X141228208Y-93641819D01*
X139990112Y-94641819D02*
X139990112Y-93641819D01*
X139990112Y-93641819D02*
X139609160Y-93641819D01*
X139609160Y-93641819D02*
X139513922Y-93689438D01*
X139513922Y-93689438D02*
X139466303Y-93737057D01*
X139466303Y-93737057D02*
X139418684Y-93832295D01*
X139418684Y-93832295D02*
X139418684Y-93975152D01*
X139418684Y-93975152D02*
X139466303Y-94070390D01*
X139466303Y-94070390D02*
X139513922Y-94118009D01*
X139513922Y-94118009D02*
X139609160Y-94165628D01*
X139609160Y-94165628D02*
X139990112Y-94165628D01*
X139037731Y-94356104D02*
X138561541Y-94356104D01*
X139132969Y-94641819D02*
X138799636Y-93641819D01*
X138799636Y-93641819D02*
X138466303Y-94641819D01*
X137990112Y-94070390D02*
X138085350Y-94022771D01*
X138085350Y-94022771D02*
X138132969Y-93975152D01*
X138132969Y-93975152D02*
X138180588Y-93879914D01*
X138180588Y-93879914D02*
X138180588Y-93832295D01*
X138180588Y-93832295D02*
X138132969Y-93737057D01*
X138132969Y-93737057D02*
X138085350Y-93689438D01*
X138085350Y-93689438D02*
X137990112Y-93641819D01*
X137990112Y-93641819D02*
X137799636Y-93641819D01*
X137799636Y-93641819D02*
X137704398Y-93689438D01*
X137704398Y-93689438D02*
X137656779Y-93737057D01*
X137656779Y-93737057D02*
X137609160Y-93832295D01*
X137609160Y-93832295D02*
X137609160Y-93879914D01*
X137609160Y-93879914D02*
X137656779Y-93975152D01*
X137656779Y-93975152D02*
X137704398Y-94022771D01*
X137704398Y-94022771D02*
X137799636Y-94070390D01*
X137799636Y-94070390D02*
X137990112Y-94070390D01*
X137990112Y-94070390D02*
X138085350Y-94118009D01*
X138085350Y-94118009D02*
X138132969Y-94165628D01*
X138132969Y-94165628D02*
X138180588Y-94260866D01*
X138180588Y-94260866D02*
X138180588Y-94451342D01*
X138180588Y-94451342D02*
X138132969Y-94546580D01*
X138132969Y-94546580D02*
X138085350Y-94594200D01*
X138085350Y-94594200D02*
X137990112Y-94641819D01*
X137990112Y-94641819D02*
X137799636Y-94641819D01*
X137799636Y-94641819D02*
X137704398Y-94594200D01*
X137704398Y-94594200D02*
X137656779Y-94546580D01*
X137656779Y-94546580D02*
X137609160Y-94451342D01*
X137609160Y-94451342D02*
X137609160Y-94260866D01*
X137609160Y-94260866D02*
X137656779Y-94165628D01*
X137656779Y-94165628D02*
X137704398Y-94118009D01*
X137704398Y-94118009D02*
X137799636Y-94070390D01*
X147877780Y-91894819D02*
X148353970Y-91894819D01*
X148353970Y-91894819D02*
X148353970Y-90894819D01*
X147544446Y-91894819D02*
X147544446Y-90894819D01*
X147544446Y-90894819D02*
X147163494Y-90894819D01*
X147163494Y-90894819D02*
X147068256Y-90942438D01*
X147068256Y-90942438D02*
X147020637Y-90990057D01*
X147020637Y-90990057D02*
X146973018Y-91085295D01*
X146973018Y-91085295D02*
X146973018Y-91228152D01*
X146973018Y-91228152D02*
X147020637Y-91323390D01*
X147020637Y-91323390D02*
X147068256Y-91371009D01*
X147068256Y-91371009D02*
X147163494Y-91418628D01*
X147163494Y-91418628D02*
X147544446Y-91418628D01*
X146592065Y-91847200D02*
X146449208Y-91894819D01*
X146449208Y-91894819D02*
X146211113Y-91894819D01*
X146211113Y-91894819D02*
X146115875Y-91847200D01*
X146115875Y-91847200D02*
X146068256Y-91799580D01*
X146068256Y-91799580D02*
X146020637Y-91704342D01*
X146020637Y-91704342D02*
X146020637Y-91609104D01*
X146020637Y-91609104D02*
X146068256Y-91513866D01*
X146068256Y-91513866D02*
X146115875Y-91466247D01*
X146115875Y-91466247D02*
X146211113Y-91418628D01*
X146211113Y-91418628D02*
X146401589Y-91371009D01*
X146401589Y-91371009D02*
X146496827Y-91323390D01*
X146496827Y-91323390D02*
X146544446Y-91275771D01*
X146544446Y-91275771D02*
X146592065Y-91180533D01*
X146592065Y-91180533D02*
X146592065Y-91085295D01*
X146592065Y-91085295D02*
X146544446Y-90990057D01*
X146544446Y-90990057D02*
X146496827Y-90942438D01*
X146496827Y-90942438D02*
X146401589Y-90894819D01*
X146401589Y-90894819D02*
X146163494Y-90894819D01*
X146163494Y-90894819D02*
X146020637Y-90942438D01*
X145830161Y-91990057D02*
X145068256Y-91990057D01*
X144830160Y-91894819D02*
X144830160Y-90894819D01*
X144830160Y-90894819D02*
X144592065Y-90894819D01*
X144592065Y-90894819D02*
X144449208Y-90942438D01*
X144449208Y-90942438D02*
X144353970Y-91037676D01*
X144353970Y-91037676D02*
X144306351Y-91132914D01*
X144306351Y-91132914D02*
X144258732Y-91323390D01*
X144258732Y-91323390D02*
X144258732Y-91466247D01*
X144258732Y-91466247D02*
X144306351Y-91656723D01*
X144306351Y-91656723D02*
X144353970Y-91751961D01*
X144353970Y-91751961D02*
X144449208Y-91847200D01*
X144449208Y-91847200D02*
X144592065Y-91894819D01*
X144592065Y-91894819D02*
X144830160Y-91894819D01*
X143258732Y-91894819D02*
X143592065Y-91418628D01*
X143830160Y-91894819D02*
X143830160Y-90894819D01*
X143830160Y-90894819D02*
X143449208Y-90894819D01*
X143449208Y-90894819D02*
X143353970Y-90942438D01*
X143353970Y-90942438D02*
X143306351Y-90990057D01*
X143306351Y-90990057D02*
X143258732Y-91085295D01*
X143258732Y-91085295D02*
X143258732Y-91228152D01*
X143258732Y-91228152D02*
X143306351Y-91323390D01*
X143306351Y-91323390D02*
X143353970Y-91371009D01*
X143353970Y-91371009D02*
X143449208Y-91418628D01*
X143449208Y-91418628D02*
X143830160Y-91418628D01*
X142830160Y-91894819D02*
X142830160Y-90894819D01*
X142830160Y-90894819D02*
X142592065Y-90894819D01*
X142592065Y-90894819D02*
X142449208Y-90942438D01*
X142449208Y-90942438D02*
X142353970Y-91037676D01*
X142353970Y-91037676D02*
X142306351Y-91132914D01*
X142306351Y-91132914D02*
X142258732Y-91323390D01*
X142258732Y-91323390D02*
X142258732Y-91466247D01*
X142258732Y-91466247D02*
X142306351Y-91656723D01*
X142306351Y-91656723D02*
X142353970Y-91751961D01*
X142353970Y-91751961D02*
X142449208Y-91847200D01*
X142449208Y-91847200D02*
X142592065Y-91894819D01*
X142592065Y-91894819D02*
X142830160Y-91894819D01*
X141639684Y-91418628D02*
X141639684Y-91894819D01*
X141973017Y-90894819D02*
X141639684Y-91418628D01*
X141639684Y-91418628D02*
X141306351Y-90894819D01*
X140211112Y-91894819D02*
X140211112Y-90894819D01*
X140211112Y-90894819D02*
X139830160Y-90894819D01*
X139830160Y-90894819D02*
X139734922Y-90942438D01*
X139734922Y-90942438D02*
X139687303Y-90990057D01*
X139687303Y-90990057D02*
X139639684Y-91085295D01*
X139639684Y-91085295D02*
X139639684Y-91228152D01*
X139639684Y-91228152D02*
X139687303Y-91323390D01*
X139687303Y-91323390D02*
X139734922Y-91371009D01*
X139734922Y-91371009D02*
X139830160Y-91418628D01*
X139830160Y-91418628D02*
X140211112Y-91418628D01*
X139258731Y-91609104D02*
X138782541Y-91609104D01*
X139353969Y-91894819D02*
X139020636Y-90894819D01*
X139020636Y-90894819D02*
X138687303Y-91894819D01*
X138306350Y-91894819D02*
X138115874Y-91894819D01*
X138115874Y-91894819D02*
X138020636Y-91847200D01*
X138020636Y-91847200D02*
X137973017Y-91799580D01*
X137973017Y-91799580D02*
X137877779Y-91656723D01*
X137877779Y-91656723D02*
X137830160Y-91466247D01*
X137830160Y-91466247D02*
X137830160Y-91085295D01*
X137830160Y-91085295D02*
X137877779Y-90990057D01*
X137877779Y-90990057D02*
X137925398Y-90942438D01*
X137925398Y-90942438D02*
X138020636Y-90894819D01*
X138020636Y-90894819D02*
X138211112Y-90894819D01*
X138211112Y-90894819D02*
X138306350Y-90942438D01*
X138306350Y-90942438D02*
X138353969Y-90990057D01*
X138353969Y-90990057D02*
X138401588Y-91085295D01*
X138401588Y-91085295D02*
X138401588Y-91323390D01*
X138401588Y-91323390D02*
X138353969Y-91418628D01*
X138353969Y-91418628D02*
X138306350Y-91466247D01*
X138306350Y-91466247D02*
X138211112Y-91513866D01*
X138211112Y-91513866D02*
X138020636Y-91513866D01*
X138020636Y-91513866D02*
X137925398Y-91466247D01*
X137925398Y-91466247D02*
X137877779Y-91418628D01*
X137877779Y-91418628D02*
X137830160Y-91323390D01*
X146417494Y-79194819D02*
X146893684Y-79194819D01*
X146893684Y-79194819D02*
X146893684Y-78194819D01*
X146084160Y-79194819D02*
X146084160Y-78194819D01*
X146084160Y-78194819D02*
X145703208Y-78194819D01*
X145703208Y-78194819D02*
X145607970Y-78242438D01*
X145607970Y-78242438D02*
X145560351Y-78290057D01*
X145560351Y-78290057D02*
X145512732Y-78385295D01*
X145512732Y-78385295D02*
X145512732Y-78528152D01*
X145512732Y-78528152D02*
X145560351Y-78623390D01*
X145560351Y-78623390D02*
X145607970Y-78671009D01*
X145607970Y-78671009D02*
X145703208Y-78718628D01*
X145703208Y-78718628D02*
X146084160Y-78718628D01*
X145131779Y-79147200D02*
X144988922Y-79194819D01*
X144988922Y-79194819D02*
X144750827Y-79194819D01*
X144750827Y-79194819D02*
X144655589Y-79147200D01*
X144655589Y-79147200D02*
X144607970Y-79099580D01*
X144607970Y-79099580D02*
X144560351Y-79004342D01*
X144560351Y-79004342D02*
X144560351Y-78909104D01*
X144560351Y-78909104D02*
X144607970Y-78813866D01*
X144607970Y-78813866D02*
X144655589Y-78766247D01*
X144655589Y-78766247D02*
X144750827Y-78718628D01*
X144750827Y-78718628D02*
X144941303Y-78671009D01*
X144941303Y-78671009D02*
X145036541Y-78623390D01*
X145036541Y-78623390D02*
X145084160Y-78575771D01*
X145084160Y-78575771D02*
X145131779Y-78480533D01*
X145131779Y-78480533D02*
X145131779Y-78385295D01*
X145131779Y-78385295D02*
X145084160Y-78290057D01*
X145084160Y-78290057D02*
X145036541Y-78242438D01*
X145036541Y-78242438D02*
X144941303Y-78194819D01*
X144941303Y-78194819D02*
X144703208Y-78194819D01*
X144703208Y-78194819D02*
X144560351Y-78242438D01*
X144369875Y-79290057D02*
X143607970Y-79290057D01*
X142798446Y-79099580D02*
X142846065Y-79147200D01*
X142846065Y-79147200D02*
X142988922Y-79194819D01*
X142988922Y-79194819D02*
X143084160Y-79194819D01*
X143084160Y-79194819D02*
X143227017Y-79147200D01*
X143227017Y-79147200D02*
X143322255Y-79051961D01*
X143322255Y-79051961D02*
X143369874Y-78956723D01*
X143369874Y-78956723D02*
X143417493Y-78766247D01*
X143417493Y-78766247D02*
X143417493Y-78623390D01*
X143417493Y-78623390D02*
X143369874Y-78432914D01*
X143369874Y-78432914D02*
X143322255Y-78337676D01*
X143322255Y-78337676D02*
X143227017Y-78242438D01*
X143227017Y-78242438D02*
X143084160Y-78194819D01*
X143084160Y-78194819D02*
X142988922Y-78194819D01*
X142988922Y-78194819D02*
X142846065Y-78242438D01*
X142846065Y-78242438D02*
X142798446Y-78290057D01*
X142369874Y-79194819D02*
X142369874Y-78194819D01*
X141798446Y-79194819D02*
X142227017Y-78623390D01*
X141798446Y-78194819D02*
X142369874Y-78766247D01*
X140607969Y-79194819D02*
X140607969Y-78194819D01*
X140607969Y-78194819D02*
X140227017Y-78194819D01*
X140227017Y-78194819D02*
X140131779Y-78242438D01*
X140131779Y-78242438D02*
X140084160Y-78290057D01*
X140084160Y-78290057D02*
X140036541Y-78385295D01*
X140036541Y-78385295D02*
X140036541Y-78528152D01*
X140036541Y-78528152D02*
X140084160Y-78623390D01*
X140084160Y-78623390D02*
X140131779Y-78671009D01*
X140131779Y-78671009D02*
X140227017Y-78718628D01*
X140227017Y-78718628D02*
X140607969Y-78718628D01*
X139274636Y-78671009D02*
X139131779Y-78718628D01*
X139131779Y-78718628D02*
X139084160Y-78766247D01*
X139084160Y-78766247D02*
X139036541Y-78861485D01*
X139036541Y-78861485D02*
X139036541Y-79004342D01*
X139036541Y-79004342D02*
X139084160Y-79099580D01*
X139084160Y-79099580D02*
X139131779Y-79147200D01*
X139131779Y-79147200D02*
X139227017Y-79194819D01*
X139227017Y-79194819D02*
X139607969Y-79194819D01*
X139607969Y-79194819D02*
X139607969Y-78194819D01*
X139607969Y-78194819D02*
X139274636Y-78194819D01*
X139274636Y-78194819D02*
X139179398Y-78242438D01*
X139179398Y-78242438D02*
X139131779Y-78290057D01*
X139131779Y-78290057D02*
X139084160Y-78385295D01*
X139084160Y-78385295D02*
X139084160Y-78480533D01*
X139084160Y-78480533D02*
X139131779Y-78575771D01*
X139131779Y-78575771D02*
X139179398Y-78623390D01*
X139179398Y-78623390D02*
X139274636Y-78671009D01*
X139274636Y-78671009D02*
X139607969Y-78671009D01*
X138703207Y-78194819D02*
X138084160Y-78194819D01*
X138084160Y-78194819D02*
X138417493Y-78575771D01*
X138417493Y-78575771D02*
X138274636Y-78575771D01*
X138274636Y-78575771D02*
X138179398Y-78623390D01*
X138179398Y-78623390D02*
X138131779Y-78671009D01*
X138131779Y-78671009D02*
X138084160Y-78766247D01*
X138084160Y-78766247D02*
X138084160Y-79004342D01*
X138084160Y-79004342D02*
X138131779Y-79099580D01*
X138131779Y-79099580D02*
X138179398Y-79147200D01*
X138179398Y-79147200D02*
X138274636Y-79194819D01*
X138274636Y-79194819D02*
X138560350Y-79194819D01*
X138560350Y-79194819D02*
X138655588Y-79147200D01*
X138655588Y-79147200D02*
X138703207Y-79099580D01*
X147243303Y-75654819D02*
X146671875Y-75654819D01*
X146957589Y-76654819D02*
X146957589Y-75654819D01*
X146386160Y-76369104D02*
X145909970Y-76369104D01*
X146481398Y-76654819D02*
X146148065Y-75654819D01*
X146148065Y-75654819D02*
X145814732Y-76654819D01*
X144957589Y-75702438D02*
X145052827Y-75654819D01*
X145052827Y-75654819D02*
X145195684Y-75654819D01*
X145195684Y-75654819D02*
X145338541Y-75702438D01*
X145338541Y-75702438D02*
X145433779Y-75797676D01*
X145433779Y-75797676D02*
X145481398Y-75892914D01*
X145481398Y-75892914D02*
X145529017Y-76083390D01*
X145529017Y-76083390D02*
X145529017Y-76226247D01*
X145529017Y-76226247D02*
X145481398Y-76416723D01*
X145481398Y-76416723D02*
X145433779Y-76511961D01*
X145433779Y-76511961D02*
X145338541Y-76607200D01*
X145338541Y-76607200D02*
X145195684Y-76654819D01*
X145195684Y-76654819D02*
X145100446Y-76654819D01*
X145100446Y-76654819D02*
X144957589Y-76607200D01*
X144957589Y-76607200D02*
X144909970Y-76559580D01*
X144909970Y-76559580D02*
X144909970Y-76226247D01*
X144909970Y-76226247D02*
X145100446Y-76226247D01*
X144719494Y-76750057D02*
X143957589Y-76750057D01*
X143195684Y-76654819D02*
X143767112Y-76654819D01*
X143481398Y-76654819D02*
X143481398Y-75654819D01*
X143481398Y-75654819D02*
X143576636Y-75797676D01*
X143576636Y-75797676D02*
X143671874Y-75892914D01*
X143671874Y-75892914D02*
X143767112Y-75940533D01*
X142909969Y-75654819D02*
X142576636Y-76654819D01*
X142576636Y-76654819D02*
X142243303Y-75654819D01*
X141767112Y-76083390D02*
X141862350Y-76035771D01*
X141862350Y-76035771D02*
X141909969Y-75988152D01*
X141909969Y-75988152D02*
X141957588Y-75892914D01*
X141957588Y-75892914D02*
X141957588Y-75845295D01*
X141957588Y-75845295D02*
X141909969Y-75750057D01*
X141909969Y-75750057D02*
X141862350Y-75702438D01*
X141862350Y-75702438D02*
X141767112Y-75654819D01*
X141767112Y-75654819D02*
X141576636Y-75654819D01*
X141576636Y-75654819D02*
X141481398Y-75702438D01*
X141481398Y-75702438D02*
X141433779Y-75750057D01*
X141433779Y-75750057D02*
X141386160Y-75845295D01*
X141386160Y-75845295D02*
X141386160Y-75892914D01*
X141386160Y-75892914D02*
X141433779Y-75988152D01*
X141433779Y-75988152D02*
X141481398Y-76035771D01*
X141481398Y-76035771D02*
X141576636Y-76083390D01*
X141576636Y-76083390D02*
X141767112Y-76083390D01*
X141767112Y-76083390D02*
X141862350Y-76131009D01*
X141862350Y-76131009D02*
X141909969Y-76178628D01*
X141909969Y-76178628D02*
X141957588Y-76273866D01*
X141957588Y-76273866D02*
X141957588Y-76464342D01*
X141957588Y-76464342D02*
X141909969Y-76559580D01*
X141909969Y-76559580D02*
X141862350Y-76607200D01*
X141862350Y-76607200D02*
X141767112Y-76654819D01*
X141767112Y-76654819D02*
X141576636Y-76654819D01*
X141576636Y-76654819D02*
X141481398Y-76607200D01*
X141481398Y-76607200D02*
X141433779Y-76559580D01*
X141433779Y-76559580D02*
X141386160Y-76464342D01*
X141386160Y-76464342D02*
X141386160Y-76273866D01*
X141386160Y-76273866D02*
X141433779Y-76178628D01*
X141433779Y-76178628D02*
X141481398Y-76131009D01*
X141481398Y-76131009D02*
X141576636Y-76083390D01*
X147062493Y-81681819D02*
X147062493Y-80681819D01*
X147062493Y-80681819D02*
X146681541Y-80681819D01*
X146681541Y-80681819D02*
X146586303Y-80729438D01*
X146586303Y-80729438D02*
X146538684Y-80777057D01*
X146538684Y-80777057D02*
X146491065Y-80872295D01*
X146491065Y-80872295D02*
X146491065Y-81015152D01*
X146491065Y-81015152D02*
X146538684Y-81110390D01*
X146538684Y-81110390D02*
X146586303Y-81158009D01*
X146586303Y-81158009D02*
X146681541Y-81205628D01*
X146681541Y-81205628D02*
X147062493Y-81205628D01*
X146110112Y-81396104D02*
X145633922Y-81396104D01*
X146205350Y-81681819D02*
X145872017Y-80681819D01*
X145872017Y-80681819D02*
X145538684Y-81681819D01*
X144681541Y-81681819D02*
X145252969Y-81681819D01*
X144967255Y-81681819D02*
X144967255Y-80681819D01*
X144967255Y-80681819D02*
X145062493Y-80824676D01*
X145062493Y-80824676D02*
X145157731Y-80919914D01*
X145157731Y-80919914D02*
X145252969Y-80967533D01*
X143776779Y-80681819D02*
X144252969Y-80681819D01*
X144252969Y-80681819D02*
X144300588Y-81158009D01*
X144300588Y-81158009D02*
X144252969Y-81110390D01*
X144252969Y-81110390D02*
X144157731Y-81062771D01*
X144157731Y-81062771D02*
X143919636Y-81062771D01*
X143919636Y-81062771D02*
X143824398Y-81110390D01*
X143824398Y-81110390D02*
X143776779Y-81158009D01*
X143776779Y-81158009D02*
X143729160Y-81253247D01*
X143729160Y-81253247D02*
X143729160Y-81491342D01*
X143729160Y-81491342D02*
X143776779Y-81586580D01*
X143776779Y-81586580D02*
X143824398Y-81634200D01*
X143824398Y-81634200D02*
X143919636Y-81681819D01*
X143919636Y-81681819D02*
X144157731Y-81681819D01*
X144157731Y-81681819D02*
X144252969Y-81634200D01*
X144252969Y-81634200D02*
X144300588Y-81586580D01*
X147450207Y-96974819D02*
X147450207Y-95974819D01*
X147450207Y-95974819D02*
X146878779Y-96974819D01*
X146878779Y-96974819D02*
X146878779Y-95974819D01*
X145831160Y-96879580D02*
X145878779Y-96927200D01*
X145878779Y-96927200D02*
X146021636Y-96974819D01*
X146021636Y-96974819D02*
X146116874Y-96974819D01*
X146116874Y-96974819D02*
X146259731Y-96927200D01*
X146259731Y-96927200D02*
X146354969Y-96831961D01*
X146354969Y-96831961D02*
X146402588Y-96736723D01*
X146402588Y-96736723D02*
X146450207Y-96546247D01*
X146450207Y-96546247D02*
X146450207Y-96403390D01*
X146450207Y-96403390D02*
X146402588Y-96212914D01*
X146402588Y-96212914D02*
X146354969Y-96117676D01*
X146354969Y-96117676D02*
X146259731Y-96022438D01*
X146259731Y-96022438D02*
X146116874Y-95974819D01*
X146116874Y-95974819D02*
X146021636Y-95974819D01*
X146021636Y-95974819D02*
X145878779Y-96022438D01*
X145878779Y-96022438D02*
X145831160Y-96070057D01*
X147450207Y-99641819D02*
X147450207Y-98641819D01*
X147450207Y-98641819D02*
X146878779Y-99641819D01*
X146878779Y-99641819D02*
X146878779Y-98641819D01*
X145831160Y-99546580D02*
X145878779Y-99594200D01*
X145878779Y-99594200D02*
X146021636Y-99641819D01*
X146021636Y-99641819D02*
X146116874Y-99641819D01*
X146116874Y-99641819D02*
X146259731Y-99594200D01*
X146259731Y-99594200D02*
X146354969Y-99498961D01*
X146354969Y-99498961D02*
X146402588Y-99403723D01*
X146402588Y-99403723D02*
X146450207Y-99213247D01*
X146450207Y-99213247D02*
X146450207Y-99070390D01*
X146450207Y-99070390D02*
X146402588Y-98879914D01*
X146402588Y-98879914D02*
X146354969Y-98784676D01*
X146354969Y-98784676D02*
X146259731Y-98689438D01*
X146259731Y-98689438D02*
X146116874Y-98641819D01*
X146116874Y-98641819D02*
X146021636Y-98641819D01*
X146021636Y-98641819D02*
X145878779Y-98689438D01*
X145878779Y-98689438D02*
X145831160Y-98737057D01*
X147450207Y-102181819D02*
X147450207Y-101181819D01*
X147450207Y-101181819D02*
X146878779Y-102181819D01*
X146878779Y-102181819D02*
X146878779Y-101181819D01*
X145831160Y-102086580D02*
X145878779Y-102134200D01*
X145878779Y-102134200D02*
X146021636Y-102181819D01*
X146021636Y-102181819D02*
X146116874Y-102181819D01*
X146116874Y-102181819D02*
X146259731Y-102134200D01*
X146259731Y-102134200D02*
X146354969Y-102038961D01*
X146354969Y-102038961D02*
X146402588Y-101943723D01*
X146402588Y-101943723D02*
X146450207Y-101753247D01*
X146450207Y-101753247D02*
X146450207Y-101610390D01*
X146450207Y-101610390D02*
X146402588Y-101419914D01*
X146402588Y-101419914D02*
X146354969Y-101324676D01*
X146354969Y-101324676D02*
X146259731Y-101229438D01*
X146259731Y-101229438D02*
X146116874Y-101181819D01*
X146116874Y-101181819D02*
X146021636Y-101181819D01*
X146021636Y-101181819D02*
X145878779Y-101229438D01*
X145878779Y-101229438D02*
X145831160Y-101277057D01*
X147450207Y-104594819D02*
X147450207Y-103594819D01*
X147450207Y-103594819D02*
X146878779Y-104594819D01*
X146878779Y-104594819D02*
X146878779Y-103594819D01*
X145831160Y-104499580D02*
X145878779Y-104547200D01*
X145878779Y-104547200D02*
X146021636Y-104594819D01*
X146021636Y-104594819D02*
X146116874Y-104594819D01*
X146116874Y-104594819D02*
X146259731Y-104547200D01*
X146259731Y-104547200D02*
X146354969Y-104451961D01*
X146354969Y-104451961D02*
X146402588Y-104356723D01*
X146402588Y-104356723D02*
X146450207Y-104166247D01*
X146450207Y-104166247D02*
X146450207Y-104023390D01*
X146450207Y-104023390D02*
X146402588Y-103832914D01*
X146402588Y-103832914D02*
X146354969Y-103737676D01*
X146354969Y-103737676D02*
X146259731Y-103642438D01*
X146259731Y-103642438D02*
X146116874Y-103594819D01*
X146116874Y-103594819D02*
X146021636Y-103594819D01*
X146021636Y-103594819D02*
X145878779Y-103642438D01*
X145878779Y-103642438D02*
X145831160Y-103690057D01*
X147577207Y-109801819D02*
X147577207Y-108801819D01*
X147577207Y-108801819D02*
X147005779Y-109801819D01*
X147005779Y-109801819D02*
X147005779Y-108801819D01*
X145958160Y-109706580D02*
X146005779Y-109754200D01*
X146005779Y-109754200D02*
X146148636Y-109801819D01*
X146148636Y-109801819D02*
X146243874Y-109801819D01*
X146243874Y-109801819D02*
X146386731Y-109754200D01*
X146386731Y-109754200D02*
X146481969Y-109658961D01*
X146481969Y-109658961D02*
X146529588Y-109563723D01*
X146529588Y-109563723D02*
X146577207Y-109373247D01*
X146577207Y-109373247D02*
X146577207Y-109230390D01*
X146577207Y-109230390D02*
X146529588Y-109039914D01*
X146529588Y-109039914D02*
X146481969Y-108944676D01*
X146481969Y-108944676D02*
X146386731Y-108849438D01*
X146386731Y-108849438D02*
X146243874Y-108801819D01*
X146243874Y-108801819D02*
X146148636Y-108801819D01*
X146148636Y-108801819D02*
X146005779Y-108849438D01*
X146005779Y-108849438D02*
X145958160Y-108897057D01*
X147577207Y-112341819D02*
X147577207Y-111341819D01*
X147577207Y-111341819D02*
X147005779Y-112341819D01*
X147005779Y-112341819D02*
X147005779Y-111341819D01*
X145958160Y-112246580D02*
X146005779Y-112294200D01*
X146005779Y-112294200D02*
X146148636Y-112341819D01*
X146148636Y-112341819D02*
X146243874Y-112341819D01*
X146243874Y-112341819D02*
X146386731Y-112294200D01*
X146386731Y-112294200D02*
X146481969Y-112198961D01*
X146481969Y-112198961D02*
X146529588Y-112103723D01*
X146529588Y-112103723D02*
X146577207Y-111913247D01*
X146577207Y-111913247D02*
X146577207Y-111770390D01*
X146577207Y-111770390D02*
X146529588Y-111579914D01*
X146529588Y-111579914D02*
X146481969Y-111484676D01*
X146481969Y-111484676D02*
X146386731Y-111389438D01*
X146386731Y-111389438D02*
X146243874Y-111341819D01*
X146243874Y-111341819D02*
X146148636Y-111341819D01*
X146148636Y-111341819D02*
X146005779Y-111389438D01*
X146005779Y-111389438D02*
X145958160Y-111437057D01*
X147704207Y-107134819D02*
X147704207Y-106134819D01*
X147704207Y-106134819D02*
X147132779Y-107134819D01*
X147132779Y-107134819D02*
X147132779Y-106134819D01*
X146085160Y-107039580D02*
X146132779Y-107087200D01*
X146132779Y-107087200D02*
X146275636Y-107134819D01*
X146275636Y-107134819D02*
X146370874Y-107134819D01*
X146370874Y-107134819D02*
X146513731Y-107087200D01*
X146513731Y-107087200D02*
X146608969Y-106991961D01*
X146608969Y-106991961D02*
X146656588Y-106896723D01*
X146656588Y-106896723D02*
X146704207Y-106706247D01*
X146704207Y-106706247D02*
X146704207Y-106563390D01*
X146704207Y-106563390D02*
X146656588Y-106372914D01*
X146656588Y-106372914D02*
X146608969Y-106277676D01*
X146608969Y-106277676D02*
X146513731Y-106182438D01*
X146513731Y-106182438D02*
X146370874Y-106134819D01*
X146370874Y-106134819D02*
X146275636Y-106134819D01*
X146275636Y-106134819D02*
X146132779Y-106182438D01*
X146132779Y-106182438D02*
X146085160Y-106230057D01*
D11*
X142567855Y-117994757D02*
X142710713Y-117923328D01*
X142710713Y-117923328D02*
X142924998Y-117923328D01*
X142924998Y-117923328D02*
X143139284Y-117994757D01*
X143139284Y-117994757D02*
X143282141Y-118137614D01*
X143282141Y-118137614D02*
X143353570Y-118280471D01*
X143353570Y-118280471D02*
X143424998Y-118566185D01*
X143424998Y-118566185D02*
X143424998Y-118780471D01*
X143424998Y-118780471D02*
X143353570Y-119066185D01*
X143353570Y-119066185D02*
X143282141Y-119209042D01*
X143282141Y-119209042D02*
X143139284Y-119351900D01*
X143139284Y-119351900D02*
X142924998Y-119423328D01*
X142924998Y-119423328D02*
X142782141Y-119423328D01*
X142782141Y-119423328D02*
X142567855Y-119351900D01*
X142567855Y-119351900D02*
X142496427Y-119280471D01*
X142496427Y-119280471D02*
X142496427Y-118780471D01*
X142496427Y-118780471D02*
X142782141Y-118780471D01*
X141282141Y-119351900D02*
X141424998Y-119423328D01*
X141424998Y-119423328D02*
X141710713Y-119423328D01*
X141710713Y-119423328D02*
X141853570Y-119351900D01*
X141853570Y-119351900D02*
X141924998Y-119209042D01*
X141924998Y-119209042D02*
X141924998Y-118637614D01*
X141924998Y-118637614D02*
X141853570Y-118494757D01*
X141853570Y-118494757D02*
X141710713Y-118423328D01*
X141710713Y-118423328D02*
X141424998Y-118423328D01*
X141424998Y-118423328D02*
X141282141Y-118494757D01*
X141282141Y-118494757D02*
X141210713Y-118637614D01*
X141210713Y-118637614D02*
X141210713Y-118780471D01*
X141210713Y-118780471D02*
X141924998Y-118923328D01*
X140353570Y-119423328D02*
X140496427Y-119351900D01*
X140496427Y-119351900D02*
X140567856Y-119280471D01*
X140567856Y-119280471D02*
X140639284Y-119137614D01*
X140639284Y-119137614D02*
X140639284Y-118709042D01*
X140639284Y-118709042D02*
X140567856Y-118566185D01*
X140567856Y-118566185D02*
X140496427Y-118494757D01*
X140496427Y-118494757D02*
X140353570Y-118423328D01*
X140353570Y-118423328D02*
X140139284Y-118423328D01*
X140139284Y-118423328D02*
X139996427Y-118494757D01*
X139996427Y-118494757D02*
X139924999Y-118566185D01*
X139924999Y-118566185D02*
X139853570Y-118709042D01*
X139853570Y-118709042D02*
X139853570Y-119137614D01*
X139853570Y-119137614D02*
X139924999Y-119280471D01*
X139924999Y-119280471D02*
X139996427Y-119351900D01*
X139996427Y-119351900D02*
X140139284Y-119423328D01*
X140139284Y-119423328D02*
X140353570Y-119423328D01*
X139424998Y-118423328D02*
X138853570Y-118423328D01*
X139210713Y-119423328D02*
X139210713Y-118137614D01*
X139210713Y-118137614D02*
X139139284Y-117994757D01*
X139139284Y-117994757D02*
X138996427Y-117923328D01*
X138996427Y-117923328D02*
X138853570Y-117923328D01*
X138567855Y-118423328D02*
X137996427Y-118423328D01*
X138353570Y-119423328D02*
X138353570Y-118137614D01*
X138353570Y-118137614D02*
X138282141Y-117994757D01*
X138282141Y-117994757D02*
X138139284Y-117923328D01*
X138139284Y-117923328D02*
X137996427Y-117923328D01*
X137496427Y-119423328D02*
X137496427Y-118423328D01*
X137496427Y-118709042D02*
X137424998Y-118566185D01*
X137424998Y-118566185D02*
X137353570Y-118494757D01*
X137353570Y-118494757D02*
X137210712Y-118423328D01*
X137210712Y-118423328D02*
X137067855Y-118423328D01*
X135996427Y-119351900D02*
X136139284Y-119423328D01*
X136139284Y-119423328D02*
X136424999Y-119423328D01*
X136424999Y-119423328D02*
X136567856Y-119351900D01*
X136567856Y-119351900D02*
X136639284Y-119209042D01*
X136639284Y-119209042D02*
X136639284Y-118637614D01*
X136639284Y-118637614D02*
X136567856Y-118494757D01*
X136567856Y-118494757D02*
X136424999Y-118423328D01*
X136424999Y-118423328D02*
X136139284Y-118423328D01*
X136139284Y-118423328D02*
X135996427Y-118494757D01*
X135996427Y-118494757D02*
X135924999Y-118637614D01*
X135924999Y-118637614D02*
X135924999Y-118780471D01*
X135924999Y-118780471D02*
X136639284Y-118923328D01*
X135424999Y-118423328D02*
X135067856Y-119423328D01*
X134710713Y-118423328D02*
X135067856Y-119423328D01*
X135067856Y-119423328D02*
X135210713Y-119780471D01*
X135210713Y-119780471D02*
X135282142Y-119851900D01*
X135282142Y-119851900D02*
X135424999Y-119923328D01*
X132496428Y-118637614D02*
X132282142Y-118709042D01*
X132282142Y-118709042D02*
X132210713Y-118780471D01*
X132210713Y-118780471D02*
X132139285Y-118923328D01*
X132139285Y-118923328D02*
X132139285Y-119137614D01*
X132139285Y-119137614D02*
X132210713Y-119280471D01*
X132210713Y-119280471D02*
X132282142Y-119351900D01*
X132282142Y-119351900D02*
X132424999Y-119423328D01*
X132424999Y-119423328D02*
X132996428Y-119423328D01*
X132996428Y-119423328D02*
X132996428Y-117923328D01*
X132996428Y-117923328D02*
X132496428Y-117923328D01*
X132496428Y-117923328D02*
X132353571Y-117994757D01*
X132353571Y-117994757D02*
X132282142Y-118066185D01*
X132282142Y-118066185D02*
X132210713Y-118209042D01*
X132210713Y-118209042D02*
X132210713Y-118351900D01*
X132210713Y-118351900D02*
X132282142Y-118494757D01*
X132282142Y-118494757D02*
X132353571Y-118566185D01*
X132353571Y-118566185D02*
X132496428Y-118637614D01*
X132496428Y-118637614D02*
X132996428Y-118637614D01*
X131496428Y-119423328D02*
X131496428Y-118423328D01*
X131496428Y-118709042D02*
X131424999Y-118566185D01*
X131424999Y-118566185D02*
X131353571Y-118494757D01*
X131353571Y-118494757D02*
X131210713Y-118423328D01*
X131210713Y-118423328D02*
X131067856Y-118423328D01*
X130353571Y-119423328D02*
X130496428Y-119351900D01*
X130496428Y-119351900D02*
X130567857Y-119280471D01*
X130567857Y-119280471D02*
X130639285Y-119137614D01*
X130639285Y-119137614D02*
X130639285Y-118709042D01*
X130639285Y-118709042D02*
X130567857Y-118566185D01*
X130567857Y-118566185D02*
X130496428Y-118494757D01*
X130496428Y-118494757D02*
X130353571Y-118423328D01*
X130353571Y-118423328D02*
X130139285Y-118423328D01*
X130139285Y-118423328D02*
X129996428Y-118494757D01*
X129996428Y-118494757D02*
X129925000Y-118566185D01*
X129925000Y-118566185D02*
X129853571Y-118709042D01*
X129853571Y-118709042D02*
X129853571Y-119137614D01*
X129853571Y-119137614D02*
X129925000Y-119280471D01*
X129925000Y-119280471D02*
X129996428Y-119351900D01*
X129996428Y-119351900D02*
X130139285Y-119423328D01*
X130139285Y-119423328D02*
X130353571Y-119423328D01*
X129353571Y-118423328D02*
X129067857Y-119423328D01*
X129067857Y-119423328D02*
X128782142Y-118709042D01*
X128782142Y-118709042D02*
X128496428Y-119423328D01*
X128496428Y-119423328D02*
X128210714Y-118423328D01*
X127639285Y-118423328D02*
X127639285Y-119423328D01*
X127639285Y-118566185D02*
X127567856Y-118494757D01*
X127567856Y-118494757D02*
X127424999Y-118423328D01*
X127424999Y-118423328D02*
X127210713Y-118423328D01*
X127210713Y-118423328D02*
X127067856Y-118494757D01*
X127067856Y-118494757D02*
X126996428Y-118637614D01*
X126996428Y-118637614D02*
X126996428Y-119423328D01*
X124924999Y-118566185D02*
X125067856Y-118494757D01*
X125067856Y-118494757D02*
X125139285Y-118423328D01*
X125139285Y-118423328D02*
X125210713Y-118280471D01*
X125210713Y-118280471D02*
X125210713Y-118209042D01*
X125210713Y-118209042D02*
X125139285Y-118066185D01*
X125139285Y-118066185D02*
X125067856Y-117994757D01*
X125067856Y-117994757D02*
X124924999Y-117923328D01*
X124924999Y-117923328D02*
X124639285Y-117923328D01*
X124639285Y-117923328D02*
X124496428Y-117994757D01*
X124496428Y-117994757D02*
X124424999Y-118066185D01*
X124424999Y-118066185D02*
X124353570Y-118209042D01*
X124353570Y-118209042D02*
X124353570Y-118280471D01*
X124353570Y-118280471D02*
X124424999Y-118423328D01*
X124424999Y-118423328D02*
X124496428Y-118494757D01*
X124496428Y-118494757D02*
X124639285Y-118566185D01*
X124639285Y-118566185D02*
X124924999Y-118566185D01*
X124924999Y-118566185D02*
X125067856Y-118637614D01*
X125067856Y-118637614D02*
X125139285Y-118709042D01*
X125139285Y-118709042D02*
X125210713Y-118851900D01*
X125210713Y-118851900D02*
X125210713Y-119137614D01*
X125210713Y-119137614D02*
X125139285Y-119280471D01*
X125139285Y-119280471D02*
X125067856Y-119351900D01*
X125067856Y-119351900D02*
X124924999Y-119423328D01*
X124924999Y-119423328D02*
X124639285Y-119423328D01*
X124639285Y-119423328D02*
X124496428Y-119351900D01*
X124496428Y-119351900D02*
X124424999Y-119280471D01*
X124424999Y-119280471D02*
X124353570Y-119137614D01*
X124353570Y-119137614D02*
X124353570Y-118851900D01*
X124353570Y-118851900D02*
X124424999Y-118709042D01*
X124424999Y-118709042D02*
X124496428Y-118637614D01*
X124496428Y-118637614D02*
X124639285Y-118566185D01*
X122639285Y-117851900D02*
X123924999Y-119780471D01*
X122282142Y-117923328D02*
X121282142Y-117923328D01*
X121282142Y-117923328D02*
X121924999Y-119423328D01*
X119639285Y-117851900D02*
X120924999Y-119780471D01*
X119210713Y-118066185D02*
X119139285Y-117994757D01*
X119139285Y-117994757D02*
X118996428Y-117923328D01*
X118996428Y-117923328D02*
X118639285Y-117923328D01*
X118639285Y-117923328D02*
X118496428Y-117994757D01*
X118496428Y-117994757D02*
X118424999Y-118066185D01*
X118424999Y-118066185D02*
X118353570Y-118209042D01*
X118353570Y-118209042D02*
X118353570Y-118351900D01*
X118353570Y-118351900D02*
X118424999Y-118566185D01*
X118424999Y-118566185D02*
X119282142Y-119423328D01*
X119282142Y-119423328D02*
X118353570Y-119423328D01*
X117067857Y-117923328D02*
X117353571Y-117923328D01*
X117353571Y-117923328D02*
X117496428Y-117994757D01*
X117496428Y-117994757D02*
X117567857Y-118066185D01*
X117567857Y-118066185D02*
X117710714Y-118280471D01*
X117710714Y-118280471D02*
X117782142Y-118566185D01*
X117782142Y-118566185D02*
X117782142Y-119137614D01*
X117782142Y-119137614D02*
X117710714Y-119280471D01*
X117710714Y-119280471D02*
X117639285Y-119351900D01*
X117639285Y-119351900D02*
X117496428Y-119423328D01*
X117496428Y-119423328D02*
X117210714Y-119423328D01*
X117210714Y-119423328D02*
X117067857Y-119351900D01*
X117067857Y-119351900D02*
X116996428Y-119280471D01*
X116996428Y-119280471D02*
X116924999Y-119137614D01*
X116924999Y-119137614D02*
X116924999Y-118780471D01*
X116924999Y-118780471D02*
X116996428Y-118637614D01*
X116996428Y-118637614D02*
X117067857Y-118566185D01*
X117067857Y-118566185D02*
X117210714Y-118494757D01*
X117210714Y-118494757D02*
X117496428Y-118494757D01*
X117496428Y-118494757D02*
X117639285Y-118566185D01*
X117639285Y-118566185D02*
X117710714Y-118637614D01*
X117710714Y-118637614D02*
X117782142Y-118780471D01*
%TO.C,J3*%
D12*
X105350000Y-77470000D02*
X108010000Y-77470000D01*
X105350000Y-118170000D02*
X105350000Y-77470000D01*
X105350000Y-118170000D02*
X108010000Y-118170000D01*
X106680000Y-74870000D02*
X108010000Y-74870000D01*
X108010000Y-74870000D02*
X108010000Y-76200000D01*
X108010000Y-118170000D02*
X108010000Y-77470000D01*
%TO.C,J4*%
X148530000Y-77470000D02*
X151190000Y-77470000D01*
X148530000Y-118170000D02*
X148530000Y-77470000D01*
X148530000Y-118170000D02*
X151190000Y-118170000D01*
X149860000Y-74870000D02*
X151190000Y-74870000D01*
X151190000Y-74870000D02*
X151190000Y-76200000D01*
X151190000Y-118170000D02*
X151190000Y-77470000D01*
%TD*%
%LPC*%
D13*
%TO.C,J3*%
X106553000Y-76200000D03*
D14*
X106807000Y-78740000D03*
X106553000Y-81280000D03*
X106807000Y-83820000D03*
X106553000Y-86360000D03*
X106807000Y-88900000D03*
X106553000Y-91440000D03*
X106807000Y-93980000D03*
X106553000Y-96520000D03*
X106807000Y-99060000D03*
X106553000Y-101600000D03*
X106807000Y-104140000D03*
X106553000Y-106680000D03*
X106807000Y-109220000D03*
X106553000Y-111760000D03*
X106807000Y-114300000D03*
X106553000Y-116840000D03*
%TD*%
D13*
%TO.C,J4*%
X149733000Y-76200000D03*
D14*
X149987000Y-78740000D03*
X149733000Y-81280000D03*
X149987000Y-83820000D03*
X149733000Y-86360000D03*
X149987000Y-88900000D03*
X149733000Y-91440000D03*
X149987000Y-93980000D03*
X149733000Y-96520000D03*
X149987000Y-99060000D03*
X149733000Y-101600000D03*
X149987000Y-104140000D03*
X149733000Y-106680000D03*
X149987000Y-109220000D03*
X149733000Y-111760000D03*
X149987000Y-114300000D03*
X149733000Y-116840000D03*
%TD*%
%LPD*%
M02*
