%TF.GenerationSoftware,KiCad,Pcbnew,10.0.2*%
%TF.CreationDate,2026-07-08T13:36:47-04:00*%
%TF.ProjectId,js320-faceplate,6a733332-302d-4666-9163-65706c617465,rev?*%
%TF.SameCoordinates,Original*%
%TF.FileFunction,Legend,Top*%
%TF.FilePolarity,Positive*%
%FSLAX46Y46*%
G04 Gerber Fmt 4.6, Leading zero omitted, Abs format (unit mm)*
G04 Created by KiCad (PCBNEW 10.0.2) date 2026-07-08 13:36:47*
%MOMM*%
%LPD*%
G01*
G04 APERTURE LIST*
G04 Aperture macros list*
%AMRoundRect*
0 Rectangle with rounded corners*
0 $1 Rounding radius*
0 $2 $3 $4 $5 $6 $7 $8 $9 X,Y pos of 4 corners*
0 Add a 4 corners polygon primitive as box body*
4,1,4,$2,$3,$4,$5,$6,$7,$8,$9,$2,$3,0*
0 Add four circle primitives for the rounded corners*
1,1,$1+$1,$2,$3*
1,1,$1+$1,$4,$5*
1,1,$1+$1,$6,$7*
1,1,$1+$1,$8,$9*
0 Add four rect primitives between the rounded corners*
20,1,$1+$1,$2,$3,$4,$5,0*
20,1,$1+$1,$4,$5,$6,$7,0*
20,1,$1+$1,$6,$7,$8,$9,0*
20,1,$1+$1,$8,$9,$2,$3,0*%
G04 Aperture macros list end*
%ADD10C,0.150000*%
%ADD11C,0.120000*%
%ADD12C,0.152400*%
%ADD13C,0.127000*%
%ADD14C,0.200000*%
%ADD15C,1.200000*%
%ADD16RoundRect,0.250000X0.600000X0.725000X-0.600000X0.725000X-0.600000X-0.725000X0.600000X-0.725000X0*%
%ADD17O,1.700000X1.950000*%
%ADD18C,3.500000*%
%ADD19C,3.300000*%
%ADD20C,1.730000*%
%ADD21C,1.320800*%
%ADD22R,1.320800X1.320800*%
%ADD23RoundRect,0.102000X-0.750000X-1.900000X0.750000X-1.900000X0.750000X1.900000X-0.750000X1.900000X0*%
%ADD24RoundRect,0.102000X-1.500000X-0.650000X1.500000X-0.650000X1.500000X0.650000X-1.500000X0.650000X0*%
G04 APERTURE END LIST*
D10*
X105400000Y-72150000D02*
X106000000Y-72850000D01*
X110130000Y-72800000D02*
X110100000Y-72250000D01*
X114200000Y-72800000D02*
X114650000Y-72200000D01*
X103895237Y-70209875D02*
X103895237Y-69209875D01*
X103895237Y-69209875D02*
X104228570Y-69924160D01*
X104228570Y-69924160D02*
X104561903Y-69209875D01*
X104561903Y-69209875D02*
X104561903Y-70209875D01*
X105419046Y-70162256D02*
X105323808Y-70209875D01*
X105323808Y-70209875D02*
X105133332Y-70209875D01*
X105133332Y-70209875D02*
X105038094Y-70162256D01*
X105038094Y-70162256D02*
X104990475Y-70067017D01*
X104990475Y-70067017D02*
X104990475Y-69686065D01*
X104990475Y-69686065D02*
X105038094Y-69590827D01*
X105038094Y-69590827D02*
X105133332Y-69543208D01*
X105133332Y-69543208D02*
X105323808Y-69543208D01*
X105323808Y-69543208D02*
X105419046Y-69590827D01*
X105419046Y-69590827D02*
X105466665Y-69686065D01*
X105466665Y-69686065D02*
X105466665Y-69781303D01*
X105466665Y-69781303D02*
X104990475Y-69876541D01*
X106323808Y-70209875D02*
X106323808Y-69686065D01*
X106323808Y-69686065D02*
X106276189Y-69590827D01*
X106276189Y-69590827D02*
X106180951Y-69543208D01*
X106180951Y-69543208D02*
X105990475Y-69543208D01*
X105990475Y-69543208D02*
X105895237Y-69590827D01*
X106323808Y-70162256D02*
X106228570Y-70209875D01*
X106228570Y-70209875D02*
X105990475Y-70209875D01*
X105990475Y-70209875D02*
X105895237Y-70162256D01*
X105895237Y-70162256D02*
X105847618Y-70067017D01*
X105847618Y-70067017D02*
X105847618Y-69971779D01*
X105847618Y-69971779D02*
X105895237Y-69876541D01*
X105895237Y-69876541D02*
X105990475Y-69828922D01*
X105990475Y-69828922D02*
X106228570Y-69828922D01*
X106228570Y-69828922D02*
X106323808Y-69781303D01*
X106752380Y-70162256D02*
X106847618Y-70209875D01*
X106847618Y-70209875D02*
X107038094Y-70209875D01*
X107038094Y-70209875D02*
X107133332Y-70162256D01*
X107133332Y-70162256D02*
X107180951Y-70067017D01*
X107180951Y-70067017D02*
X107180951Y-70019398D01*
X107180951Y-70019398D02*
X107133332Y-69924160D01*
X107133332Y-69924160D02*
X107038094Y-69876541D01*
X107038094Y-69876541D02*
X106895237Y-69876541D01*
X106895237Y-69876541D02*
X106799999Y-69828922D01*
X106799999Y-69828922D02*
X106752380Y-69733684D01*
X106752380Y-69733684D02*
X106752380Y-69686065D01*
X106752380Y-69686065D02*
X106799999Y-69590827D01*
X106799999Y-69590827D02*
X106895237Y-69543208D01*
X106895237Y-69543208D02*
X107038094Y-69543208D01*
X107038094Y-69543208D02*
X107133332Y-69590827D01*
X108038094Y-69543208D02*
X108038094Y-70209875D01*
X107609523Y-69543208D02*
X107609523Y-70067017D01*
X107609523Y-70067017D02*
X107657142Y-70162256D01*
X107657142Y-70162256D02*
X107752380Y-70209875D01*
X107752380Y-70209875D02*
X107895237Y-70209875D01*
X107895237Y-70209875D02*
X107990475Y-70162256D01*
X107990475Y-70162256D02*
X108038094Y-70114636D01*
X108514285Y-70209875D02*
X108514285Y-69543208D01*
X108514285Y-69733684D02*
X108561904Y-69638446D01*
X108561904Y-69638446D02*
X108609523Y-69590827D01*
X108609523Y-69590827D02*
X108704761Y-69543208D01*
X108704761Y-69543208D02*
X108799999Y-69543208D01*
X109514285Y-70162256D02*
X109419047Y-70209875D01*
X109419047Y-70209875D02*
X109228571Y-70209875D01*
X109228571Y-70209875D02*
X109133333Y-70162256D01*
X109133333Y-70162256D02*
X109085714Y-70067017D01*
X109085714Y-70067017D02*
X109085714Y-69686065D01*
X109085714Y-69686065D02*
X109133333Y-69590827D01*
X109133333Y-69590827D02*
X109228571Y-69543208D01*
X109228571Y-69543208D02*
X109419047Y-69543208D01*
X109419047Y-69543208D02*
X109514285Y-69590827D01*
X109514285Y-69590827D02*
X109561904Y-69686065D01*
X109561904Y-69686065D02*
X109561904Y-69781303D01*
X109561904Y-69781303D02*
X109085714Y-69876541D01*
X110419047Y-70209875D02*
X110419047Y-69209875D01*
X110419047Y-70162256D02*
X110323809Y-70209875D01*
X110323809Y-70209875D02*
X110133333Y-70209875D01*
X110133333Y-70209875D02*
X110038095Y-70162256D01*
X110038095Y-70162256D02*
X109990476Y-70114636D01*
X109990476Y-70114636D02*
X109942857Y-70019398D01*
X109942857Y-70019398D02*
X109942857Y-69733684D01*
X109942857Y-69733684D02*
X109990476Y-69638446D01*
X109990476Y-69638446D02*
X110038095Y-69590827D01*
X110038095Y-69590827D02*
X110133333Y-69543208D01*
X110133333Y-69543208D02*
X110323809Y-69543208D01*
X110323809Y-69543208D02*
X110419047Y-69590827D01*
X111514286Y-69209875D02*
X111847619Y-70209875D01*
X111847619Y-70209875D02*
X112180952Y-69209875D01*
X112657143Y-70209875D02*
X112561905Y-70162256D01*
X112561905Y-70162256D02*
X112514286Y-70114636D01*
X112514286Y-70114636D02*
X112466667Y-70019398D01*
X112466667Y-70019398D02*
X112466667Y-69733684D01*
X112466667Y-69733684D02*
X112514286Y-69638446D01*
X112514286Y-69638446D02*
X112561905Y-69590827D01*
X112561905Y-69590827D02*
X112657143Y-69543208D01*
X112657143Y-69543208D02*
X112800000Y-69543208D01*
X112800000Y-69543208D02*
X112895238Y-69590827D01*
X112895238Y-69590827D02*
X112942857Y-69638446D01*
X112942857Y-69638446D02*
X112990476Y-69733684D01*
X112990476Y-69733684D02*
X112990476Y-70019398D01*
X112990476Y-70019398D02*
X112942857Y-70114636D01*
X112942857Y-70114636D02*
X112895238Y-70162256D01*
X112895238Y-70162256D02*
X112800000Y-70209875D01*
X112800000Y-70209875D02*
X112657143Y-70209875D01*
X113561905Y-70209875D02*
X113466667Y-70162256D01*
X113466667Y-70162256D02*
X113419048Y-70067017D01*
X113419048Y-70067017D02*
X113419048Y-69209875D01*
X113800001Y-69543208D02*
X114180953Y-69543208D01*
X113942858Y-69209875D02*
X113942858Y-70067017D01*
X113942858Y-70067017D02*
X113990477Y-70162256D01*
X113990477Y-70162256D02*
X114085715Y-70209875D01*
X114085715Y-70209875D02*
X114180953Y-70209875D01*
X114942858Y-70209875D02*
X114942858Y-69686065D01*
X114942858Y-69686065D02*
X114895239Y-69590827D01*
X114895239Y-69590827D02*
X114800001Y-69543208D01*
X114800001Y-69543208D02*
X114609525Y-69543208D01*
X114609525Y-69543208D02*
X114514287Y-69590827D01*
X114942858Y-70162256D02*
X114847620Y-70209875D01*
X114847620Y-70209875D02*
X114609525Y-70209875D01*
X114609525Y-70209875D02*
X114514287Y-70162256D01*
X114514287Y-70162256D02*
X114466668Y-70067017D01*
X114466668Y-70067017D02*
X114466668Y-69971779D01*
X114466668Y-69971779D02*
X114514287Y-69876541D01*
X114514287Y-69876541D02*
X114609525Y-69828922D01*
X114609525Y-69828922D02*
X114847620Y-69828922D01*
X114847620Y-69828922D02*
X114942858Y-69781303D01*
X115847620Y-69543208D02*
X115847620Y-70352732D01*
X115847620Y-70352732D02*
X115800001Y-70447970D01*
X115800001Y-70447970D02*
X115752382Y-70495589D01*
X115752382Y-70495589D02*
X115657144Y-70543208D01*
X115657144Y-70543208D02*
X115514287Y-70543208D01*
X115514287Y-70543208D02*
X115419049Y-70495589D01*
X115847620Y-70162256D02*
X115752382Y-70209875D01*
X115752382Y-70209875D02*
X115561906Y-70209875D01*
X115561906Y-70209875D02*
X115466668Y-70162256D01*
X115466668Y-70162256D02*
X115419049Y-70114636D01*
X115419049Y-70114636D02*
X115371430Y-70019398D01*
X115371430Y-70019398D02*
X115371430Y-69733684D01*
X115371430Y-69733684D02*
X115419049Y-69638446D01*
X115419049Y-69638446D02*
X115466668Y-69590827D01*
X115466668Y-69590827D02*
X115561906Y-69543208D01*
X115561906Y-69543208D02*
X115752382Y-69543208D01*
X115752382Y-69543208D02*
X115847620Y-69590827D01*
X116704763Y-70162256D02*
X116609525Y-70209875D01*
X116609525Y-70209875D02*
X116419049Y-70209875D01*
X116419049Y-70209875D02*
X116323811Y-70162256D01*
X116323811Y-70162256D02*
X116276192Y-70067017D01*
X116276192Y-70067017D02*
X116276192Y-69686065D01*
X116276192Y-69686065D02*
X116323811Y-69590827D01*
X116323811Y-69590827D02*
X116419049Y-69543208D01*
X116419049Y-69543208D02*
X116609525Y-69543208D01*
X116609525Y-69543208D02*
X116704763Y-69590827D01*
X116704763Y-69590827D02*
X116752382Y-69686065D01*
X116752382Y-69686065D02*
X116752382Y-69781303D01*
X116752382Y-69781303D02*
X116276192Y-69876541D01*
X103919047Y-71819819D02*
X103347619Y-71819819D01*
X103633333Y-71819819D02*
X103633333Y-70819819D01*
X103633333Y-70819819D02*
X103538095Y-70962676D01*
X103538095Y-70962676D02*
X103442857Y-71057914D01*
X103442857Y-71057914D02*
X103347619Y-71105533D01*
X104347619Y-71724580D02*
X104395238Y-71772200D01*
X104395238Y-71772200D02*
X104347619Y-71819819D01*
X104347619Y-71819819D02*
X104300000Y-71772200D01*
X104300000Y-71772200D02*
X104347619Y-71724580D01*
X104347619Y-71724580D02*
X104347619Y-71819819D01*
X104966666Y-71248390D02*
X104871428Y-71200771D01*
X104871428Y-71200771D02*
X104823809Y-71153152D01*
X104823809Y-71153152D02*
X104776190Y-71057914D01*
X104776190Y-71057914D02*
X104776190Y-71010295D01*
X104776190Y-71010295D02*
X104823809Y-70915057D01*
X104823809Y-70915057D02*
X104871428Y-70867438D01*
X104871428Y-70867438D02*
X104966666Y-70819819D01*
X104966666Y-70819819D02*
X105157142Y-70819819D01*
X105157142Y-70819819D02*
X105252380Y-70867438D01*
X105252380Y-70867438D02*
X105299999Y-70915057D01*
X105299999Y-70915057D02*
X105347618Y-71010295D01*
X105347618Y-71010295D02*
X105347618Y-71057914D01*
X105347618Y-71057914D02*
X105299999Y-71153152D01*
X105299999Y-71153152D02*
X105252380Y-71200771D01*
X105252380Y-71200771D02*
X105157142Y-71248390D01*
X105157142Y-71248390D02*
X104966666Y-71248390D01*
X104966666Y-71248390D02*
X104871428Y-71296009D01*
X104871428Y-71296009D02*
X104823809Y-71343628D01*
X104823809Y-71343628D02*
X104776190Y-71438866D01*
X104776190Y-71438866D02*
X104776190Y-71629342D01*
X104776190Y-71629342D02*
X104823809Y-71724580D01*
X104823809Y-71724580D02*
X104871428Y-71772200D01*
X104871428Y-71772200D02*
X104966666Y-71819819D01*
X104966666Y-71819819D02*
X105157142Y-71819819D01*
X105157142Y-71819819D02*
X105252380Y-71772200D01*
X105252380Y-71772200D02*
X105299999Y-71724580D01*
X105299999Y-71724580D02*
X105347618Y-71629342D01*
X105347618Y-71629342D02*
X105347618Y-71438866D01*
X105347618Y-71438866D02*
X105299999Y-71343628D01*
X105299999Y-71343628D02*
X105252380Y-71296009D01*
X105252380Y-71296009D02*
X105157142Y-71248390D01*
X105633333Y-70819819D02*
X105966666Y-71819819D01*
X105966666Y-71819819D02*
X106299999Y-70819819D01*
X108871429Y-70915057D02*
X108919048Y-70867438D01*
X108919048Y-70867438D02*
X109014286Y-70819819D01*
X109014286Y-70819819D02*
X109252381Y-70819819D01*
X109252381Y-70819819D02*
X109347619Y-70867438D01*
X109347619Y-70867438D02*
X109395238Y-70915057D01*
X109395238Y-70915057D02*
X109442857Y-71010295D01*
X109442857Y-71010295D02*
X109442857Y-71105533D01*
X109442857Y-71105533D02*
X109395238Y-71248390D01*
X109395238Y-71248390D02*
X108823810Y-71819819D01*
X108823810Y-71819819D02*
X109442857Y-71819819D01*
X109871429Y-71724580D02*
X109919048Y-71772200D01*
X109919048Y-71772200D02*
X109871429Y-71819819D01*
X109871429Y-71819819D02*
X109823810Y-71772200D01*
X109823810Y-71772200D02*
X109871429Y-71724580D01*
X109871429Y-71724580D02*
X109871429Y-71819819D01*
X110823809Y-70819819D02*
X110347619Y-70819819D01*
X110347619Y-70819819D02*
X110300000Y-71296009D01*
X110300000Y-71296009D02*
X110347619Y-71248390D01*
X110347619Y-71248390D02*
X110442857Y-71200771D01*
X110442857Y-71200771D02*
X110680952Y-71200771D01*
X110680952Y-71200771D02*
X110776190Y-71248390D01*
X110776190Y-71248390D02*
X110823809Y-71296009D01*
X110823809Y-71296009D02*
X110871428Y-71391247D01*
X110871428Y-71391247D02*
X110871428Y-71629342D01*
X110871428Y-71629342D02*
X110823809Y-71724580D01*
X110823809Y-71724580D02*
X110776190Y-71772200D01*
X110776190Y-71772200D02*
X110680952Y-71819819D01*
X110680952Y-71819819D02*
X110442857Y-71819819D01*
X110442857Y-71819819D02*
X110347619Y-71772200D01*
X110347619Y-71772200D02*
X110300000Y-71724580D01*
X111157143Y-70819819D02*
X111490476Y-71819819D01*
X111490476Y-71819819D02*
X111823809Y-70819819D01*
X114347620Y-70819819D02*
X114966667Y-70819819D01*
X114966667Y-70819819D02*
X114633334Y-71200771D01*
X114633334Y-71200771D02*
X114776191Y-71200771D01*
X114776191Y-71200771D02*
X114871429Y-71248390D01*
X114871429Y-71248390D02*
X114919048Y-71296009D01*
X114919048Y-71296009D02*
X114966667Y-71391247D01*
X114966667Y-71391247D02*
X114966667Y-71629342D01*
X114966667Y-71629342D02*
X114919048Y-71724580D01*
X114919048Y-71724580D02*
X114871429Y-71772200D01*
X114871429Y-71772200D02*
X114776191Y-71819819D01*
X114776191Y-71819819D02*
X114490477Y-71819819D01*
X114490477Y-71819819D02*
X114395239Y-71772200D01*
X114395239Y-71772200D02*
X114347620Y-71724580D01*
X115395239Y-71724580D02*
X115442858Y-71772200D01*
X115442858Y-71772200D02*
X115395239Y-71819819D01*
X115395239Y-71819819D02*
X115347620Y-71772200D01*
X115347620Y-71772200D02*
X115395239Y-71724580D01*
X115395239Y-71724580D02*
X115395239Y-71819819D01*
X115776191Y-70819819D02*
X116395238Y-70819819D01*
X116395238Y-70819819D02*
X116061905Y-71200771D01*
X116061905Y-71200771D02*
X116204762Y-71200771D01*
X116204762Y-71200771D02*
X116300000Y-71248390D01*
X116300000Y-71248390D02*
X116347619Y-71296009D01*
X116347619Y-71296009D02*
X116395238Y-71391247D01*
X116395238Y-71391247D02*
X116395238Y-71629342D01*
X116395238Y-71629342D02*
X116347619Y-71724580D01*
X116347619Y-71724580D02*
X116300000Y-71772200D01*
X116300000Y-71772200D02*
X116204762Y-71819819D01*
X116204762Y-71819819D02*
X115919048Y-71819819D01*
X115919048Y-71819819D02*
X115823810Y-71772200D01*
X115823810Y-71772200D02*
X115776191Y-71724580D01*
X116680953Y-70819819D02*
X117014286Y-71819819D01*
X117014286Y-71819819D02*
X117347619Y-70819819D01*
X133817438Y-78639411D02*
X133769819Y-78734649D01*
X133769819Y-78734649D02*
X133769819Y-78877506D01*
X133769819Y-78877506D02*
X133817438Y-79020363D01*
X133817438Y-79020363D02*
X133912676Y-79115601D01*
X133912676Y-79115601D02*
X134007914Y-79163220D01*
X134007914Y-79163220D02*
X134198390Y-79210839D01*
X134198390Y-79210839D02*
X134341247Y-79210839D01*
X134341247Y-79210839D02*
X134531723Y-79163220D01*
X134531723Y-79163220D02*
X134626961Y-79115601D01*
X134626961Y-79115601D02*
X134722200Y-79020363D01*
X134722200Y-79020363D02*
X134769819Y-78877506D01*
X134769819Y-78877506D02*
X134769819Y-78782268D01*
X134769819Y-78782268D02*
X134722200Y-78639411D01*
X134722200Y-78639411D02*
X134674580Y-78591792D01*
X134674580Y-78591792D02*
X134341247Y-78591792D01*
X134341247Y-78591792D02*
X134341247Y-78782268D01*
X134769819Y-78163220D02*
X133769819Y-78163220D01*
X133769819Y-78163220D02*
X134769819Y-77591792D01*
X134769819Y-77591792D02*
X133769819Y-77591792D01*
X134769819Y-77115601D02*
X133769819Y-77115601D01*
X133769819Y-77115601D02*
X133769819Y-76877506D01*
X133769819Y-76877506D02*
X133817438Y-76734649D01*
X133817438Y-76734649D02*
X133912676Y-76639411D01*
X133912676Y-76639411D02*
X134007914Y-76591792D01*
X134007914Y-76591792D02*
X134198390Y-76544173D01*
X134198390Y-76544173D02*
X134341247Y-76544173D01*
X134341247Y-76544173D02*
X134531723Y-76591792D01*
X134531723Y-76591792D02*
X134626961Y-76639411D01*
X134626961Y-76639411D02*
X134722200Y-76734649D01*
X134722200Y-76734649D02*
X134769819Y-76877506D01*
X134769819Y-76877506D02*
X134769819Y-77115601D01*
X136569819Y-79408458D02*
X136569819Y-78789411D01*
X136569819Y-78789411D02*
X136950771Y-79122744D01*
X136950771Y-79122744D02*
X136950771Y-78979887D01*
X136950771Y-78979887D02*
X136998390Y-78884649D01*
X136998390Y-78884649D02*
X137046009Y-78837030D01*
X137046009Y-78837030D02*
X137141247Y-78789411D01*
X137141247Y-78789411D02*
X137379342Y-78789411D01*
X137379342Y-78789411D02*
X137474580Y-78837030D01*
X137474580Y-78837030D02*
X137522200Y-78884649D01*
X137522200Y-78884649D02*
X137569819Y-78979887D01*
X137569819Y-78979887D02*
X137569819Y-79265601D01*
X137569819Y-79265601D02*
X137522200Y-79360839D01*
X137522200Y-79360839D02*
X137474580Y-79408458D01*
X137474580Y-78360839D02*
X137522200Y-78313220D01*
X137522200Y-78313220D02*
X137569819Y-78360839D01*
X137569819Y-78360839D02*
X137522200Y-78408458D01*
X137522200Y-78408458D02*
X137474580Y-78360839D01*
X137474580Y-78360839D02*
X137569819Y-78360839D01*
X136569819Y-77979887D02*
X136569819Y-77360840D01*
X136569819Y-77360840D02*
X136950771Y-77694173D01*
X136950771Y-77694173D02*
X136950771Y-77551316D01*
X136950771Y-77551316D02*
X136998390Y-77456078D01*
X136998390Y-77456078D02*
X137046009Y-77408459D01*
X137046009Y-77408459D02*
X137141247Y-77360840D01*
X137141247Y-77360840D02*
X137379342Y-77360840D01*
X137379342Y-77360840D02*
X137474580Y-77408459D01*
X137474580Y-77408459D02*
X137522200Y-77456078D01*
X137522200Y-77456078D02*
X137569819Y-77551316D01*
X137569819Y-77551316D02*
X137569819Y-77837030D01*
X137569819Y-77837030D02*
X137522200Y-77932268D01*
X137522200Y-77932268D02*
X137474580Y-77979887D01*
X136569819Y-77075125D02*
X137569819Y-76741792D01*
X137569819Y-76741792D02*
X136569819Y-76408459D01*
X138819819Y-79956077D02*
X139819819Y-79622744D01*
X139819819Y-79622744D02*
X138819819Y-79289411D01*
X139819819Y-78956077D02*
X139153152Y-78956077D01*
X139248390Y-78956077D02*
X139200771Y-78908458D01*
X139200771Y-78908458D02*
X139153152Y-78813220D01*
X139153152Y-78813220D02*
X139153152Y-78670363D01*
X139153152Y-78670363D02*
X139200771Y-78575125D01*
X139200771Y-78575125D02*
X139296009Y-78527506D01*
X139296009Y-78527506D02*
X139819819Y-78527506D01*
X139296009Y-78527506D02*
X139200771Y-78479887D01*
X139200771Y-78479887D02*
X139153152Y-78384649D01*
X139153152Y-78384649D02*
X139153152Y-78241792D01*
X139153152Y-78241792D02*
X139200771Y-78146553D01*
X139200771Y-78146553D02*
X139296009Y-78098934D01*
X139296009Y-78098934D02*
X139819819Y-78098934D01*
X139772200Y-77241792D02*
X139819819Y-77337030D01*
X139819819Y-77337030D02*
X139819819Y-77527506D01*
X139819819Y-77527506D02*
X139772200Y-77622744D01*
X139772200Y-77622744D02*
X139676961Y-77670363D01*
X139676961Y-77670363D02*
X139296009Y-77670363D01*
X139296009Y-77670363D02*
X139200771Y-77622744D01*
X139200771Y-77622744D02*
X139153152Y-77527506D01*
X139153152Y-77527506D02*
X139153152Y-77337030D01*
X139153152Y-77337030D02*
X139200771Y-77241792D01*
X139200771Y-77241792D02*
X139296009Y-77194173D01*
X139296009Y-77194173D02*
X139391247Y-77194173D01*
X139391247Y-77194173D02*
X139486485Y-77670363D01*
X139772200Y-76813220D02*
X139819819Y-76717982D01*
X139819819Y-76717982D02*
X139819819Y-76527506D01*
X139819819Y-76527506D02*
X139772200Y-76432268D01*
X139772200Y-76432268D02*
X139676961Y-76384649D01*
X139676961Y-76384649D02*
X139629342Y-76384649D01*
X139629342Y-76384649D02*
X139534104Y-76432268D01*
X139534104Y-76432268D02*
X139486485Y-76527506D01*
X139486485Y-76527506D02*
X139486485Y-76670363D01*
X139486485Y-76670363D02*
X139438866Y-76765601D01*
X139438866Y-76765601D02*
X139343628Y-76813220D01*
X139343628Y-76813220D02*
X139296009Y-76813220D01*
X139296009Y-76813220D02*
X139200771Y-76765601D01*
X139200771Y-76765601D02*
X139153152Y-76670363D01*
X139153152Y-76670363D02*
X139153152Y-76527506D01*
X139153152Y-76527506D02*
X139200771Y-76432268D01*
X141419819Y-81456077D02*
X142419819Y-81122744D01*
X142419819Y-81122744D02*
X141419819Y-80789411D01*
X142419819Y-80456077D02*
X141419819Y-80456077D01*
X141419819Y-80456077D02*
X142134104Y-80122744D01*
X142134104Y-80122744D02*
X141419819Y-79789411D01*
X141419819Y-79789411D02*
X142419819Y-79789411D01*
X142419819Y-79313220D02*
X141753152Y-79313220D01*
X141419819Y-79313220D02*
X141467438Y-79360839D01*
X141467438Y-79360839D02*
X141515057Y-79313220D01*
X141515057Y-79313220D02*
X141467438Y-79265601D01*
X141467438Y-79265601D02*
X141419819Y-79313220D01*
X141419819Y-79313220D02*
X141515057Y-79313220D01*
X142419819Y-78837030D02*
X141753152Y-78837030D01*
X141943628Y-78837030D02*
X141848390Y-78789411D01*
X141848390Y-78789411D02*
X141800771Y-78741792D01*
X141800771Y-78741792D02*
X141753152Y-78646554D01*
X141753152Y-78646554D02*
X141753152Y-78551316D01*
X142419819Y-78217982D02*
X141753152Y-78217982D01*
X141943628Y-78217982D02*
X141848390Y-78170363D01*
X141848390Y-78170363D02*
X141800771Y-78122744D01*
X141800771Y-78122744D02*
X141753152Y-78027506D01*
X141753152Y-78027506D02*
X141753152Y-77932268D01*
X142419819Y-77456077D02*
X142372200Y-77551315D01*
X142372200Y-77551315D02*
X142324580Y-77598934D01*
X142324580Y-77598934D02*
X142229342Y-77646553D01*
X142229342Y-77646553D02*
X141943628Y-77646553D01*
X141943628Y-77646553D02*
X141848390Y-77598934D01*
X141848390Y-77598934D02*
X141800771Y-77551315D01*
X141800771Y-77551315D02*
X141753152Y-77456077D01*
X141753152Y-77456077D02*
X141753152Y-77313220D01*
X141753152Y-77313220D02*
X141800771Y-77217982D01*
X141800771Y-77217982D02*
X141848390Y-77170363D01*
X141848390Y-77170363D02*
X141943628Y-77122744D01*
X141943628Y-77122744D02*
X142229342Y-77122744D01*
X142229342Y-77122744D02*
X142324580Y-77170363D01*
X142324580Y-77170363D02*
X142372200Y-77217982D01*
X142372200Y-77217982D02*
X142419819Y-77313220D01*
X142419819Y-77313220D02*
X142419819Y-77456077D01*
X142419819Y-76694172D02*
X141753152Y-76694172D01*
X141943628Y-76694172D02*
X141848390Y-76646553D01*
X141848390Y-76646553D02*
X141800771Y-76598934D01*
X141800771Y-76598934D02*
X141753152Y-76503696D01*
X141753152Y-76503696D02*
X141753152Y-76408458D01*
X126612969Y-87458628D02*
X127298684Y-87458628D01*
X126955826Y-88958628D02*
X126955826Y-87458628D01*
X128212970Y-88958628D02*
X128212970Y-88172914D01*
X128212970Y-88172914D02*
X128155827Y-88030057D01*
X128155827Y-88030057D02*
X128041541Y-87958628D01*
X128041541Y-87958628D02*
X127812970Y-87958628D01*
X127812970Y-87958628D02*
X127698684Y-88030057D01*
X128212970Y-88887200D02*
X128098684Y-88958628D01*
X128098684Y-88958628D02*
X127812970Y-88958628D01*
X127812970Y-88958628D02*
X127698684Y-88887200D01*
X127698684Y-88887200D02*
X127641541Y-88744342D01*
X127641541Y-88744342D02*
X127641541Y-88601485D01*
X127641541Y-88601485D02*
X127698684Y-88458628D01*
X127698684Y-88458628D02*
X127812970Y-88387200D01*
X127812970Y-88387200D02*
X128098684Y-88387200D01*
X128098684Y-88387200D02*
X128212970Y-88315771D01*
X129298684Y-87958628D02*
X129298684Y-89172914D01*
X129298684Y-89172914D02*
X129241541Y-89315771D01*
X129241541Y-89315771D02*
X129184398Y-89387200D01*
X129184398Y-89387200D02*
X129070112Y-89458628D01*
X129070112Y-89458628D02*
X128898684Y-89458628D01*
X128898684Y-89458628D02*
X128784398Y-89387200D01*
X129298684Y-88887200D02*
X129184398Y-88958628D01*
X129184398Y-88958628D02*
X128955826Y-88958628D01*
X128955826Y-88958628D02*
X128841541Y-88887200D01*
X128841541Y-88887200D02*
X128784398Y-88815771D01*
X128784398Y-88815771D02*
X128727255Y-88672914D01*
X128727255Y-88672914D02*
X128727255Y-88244342D01*
X128727255Y-88244342D02*
X128784398Y-88101485D01*
X128784398Y-88101485D02*
X128841541Y-88030057D01*
X128841541Y-88030057D02*
X128955826Y-87958628D01*
X128955826Y-87958628D02*
X129184398Y-87958628D01*
X129184398Y-87958628D02*
X129298684Y-88030057D01*
X131470112Y-88815771D02*
X131412969Y-88887200D01*
X131412969Y-88887200D02*
X131241541Y-88958628D01*
X131241541Y-88958628D02*
X131127255Y-88958628D01*
X131127255Y-88958628D02*
X130955826Y-88887200D01*
X130955826Y-88887200D02*
X130841541Y-88744342D01*
X130841541Y-88744342D02*
X130784398Y-88601485D01*
X130784398Y-88601485D02*
X130727255Y-88315771D01*
X130727255Y-88315771D02*
X130727255Y-88101485D01*
X130727255Y-88101485D02*
X130784398Y-87815771D01*
X130784398Y-87815771D02*
X130841541Y-87672914D01*
X130841541Y-87672914D02*
X130955826Y-87530057D01*
X130955826Y-87530057D02*
X131127255Y-87458628D01*
X131127255Y-87458628D02*
X131241541Y-87458628D01*
X131241541Y-87458628D02*
X131412969Y-87530057D01*
X131412969Y-87530057D02*
X131470112Y-87601485D01*
X132498684Y-87958628D02*
X132498684Y-88958628D01*
X131984398Y-87958628D02*
X131984398Y-88744342D01*
X131984398Y-88744342D02*
X132041541Y-88887200D01*
X132041541Y-88887200D02*
X132155826Y-88958628D01*
X132155826Y-88958628D02*
X132327255Y-88958628D01*
X132327255Y-88958628D02*
X132441541Y-88887200D01*
X132441541Y-88887200D02*
X132498684Y-88815771D01*
X133070112Y-88958628D02*
X133070112Y-87958628D01*
X133070112Y-88244342D02*
X133127255Y-88101485D01*
X133127255Y-88101485D02*
X133184398Y-88030057D01*
X133184398Y-88030057D02*
X133298683Y-87958628D01*
X133298683Y-87958628D02*
X133412969Y-87958628D01*
X133812969Y-88958628D02*
X133812969Y-87958628D01*
X133812969Y-88244342D02*
X133870112Y-88101485D01*
X133870112Y-88101485D02*
X133927255Y-88030057D01*
X133927255Y-88030057D02*
X134041540Y-87958628D01*
X134041540Y-87958628D02*
X134155826Y-87958628D01*
X135012969Y-88887200D02*
X134898683Y-88958628D01*
X134898683Y-88958628D02*
X134670112Y-88958628D01*
X134670112Y-88958628D02*
X134555826Y-88887200D01*
X134555826Y-88887200D02*
X134498683Y-88744342D01*
X134498683Y-88744342D02*
X134498683Y-88172914D01*
X134498683Y-88172914D02*
X134555826Y-88030057D01*
X134555826Y-88030057D02*
X134670112Y-87958628D01*
X134670112Y-87958628D02*
X134898683Y-87958628D01*
X134898683Y-87958628D02*
X135012969Y-88030057D01*
X135012969Y-88030057D02*
X135070112Y-88172914D01*
X135070112Y-88172914D02*
X135070112Y-88315771D01*
X135070112Y-88315771D02*
X134498683Y-88458628D01*
X135584397Y-87958628D02*
X135584397Y-88958628D01*
X135584397Y-88101485D02*
X135641540Y-88030057D01*
X135641540Y-88030057D02*
X135755825Y-87958628D01*
X135755825Y-87958628D02*
X135927254Y-87958628D01*
X135927254Y-87958628D02*
X136041540Y-88030057D01*
X136041540Y-88030057D02*
X136098683Y-88172914D01*
X136098683Y-88172914D02*
X136098683Y-88958628D01*
X136498682Y-87958628D02*
X136955825Y-87958628D01*
X136670111Y-87458628D02*
X136670111Y-88744342D01*
X136670111Y-88744342D02*
X136727254Y-88887200D01*
X136727254Y-88887200D02*
X136841539Y-88958628D01*
X136841539Y-88958628D02*
X136955825Y-88958628D01*
X138270111Y-88958628D02*
X138270111Y-87458628D01*
X138270111Y-87458628D02*
X138670111Y-88530057D01*
X138670111Y-88530057D02*
X139070111Y-87458628D01*
X139070111Y-87458628D02*
X139070111Y-88958628D01*
X140098683Y-88887200D02*
X139984397Y-88958628D01*
X139984397Y-88958628D02*
X139755826Y-88958628D01*
X139755826Y-88958628D02*
X139641540Y-88887200D01*
X139641540Y-88887200D02*
X139584397Y-88744342D01*
X139584397Y-88744342D02*
X139584397Y-88172914D01*
X139584397Y-88172914D02*
X139641540Y-88030057D01*
X139641540Y-88030057D02*
X139755826Y-87958628D01*
X139755826Y-87958628D02*
X139984397Y-87958628D01*
X139984397Y-87958628D02*
X140098683Y-88030057D01*
X140098683Y-88030057D02*
X140155826Y-88172914D01*
X140155826Y-88172914D02*
X140155826Y-88315771D01*
X140155826Y-88315771D02*
X139584397Y-88458628D01*
X141184397Y-88958628D02*
X141184397Y-88172914D01*
X141184397Y-88172914D02*
X141127254Y-88030057D01*
X141127254Y-88030057D02*
X141012968Y-87958628D01*
X141012968Y-87958628D02*
X140784397Y-87958628D01*
X140784397Y-87958628D02*
X140670111Y-88030057D01*
X141184397Y-88887200D02*
X141070111Y-88958628D01*
X141070111Y-88958628D02*
X140784397Y-88958628D01*
X140784397Y-88958628D02*
X140670111Y-88887200D01*
X140670111Y-88887200D02*
X140612968Y-88744342D01*
X140612968Y-88744342D02*
X140612968Y-88601485D01*
X140612968Y-88601485D02*
X140670111Y-88458628D01*
X140670111Y-88458628D02*
X140784397Y-88387200D01*
X140784397Y-88387200D02*
X141070111Y-88387200D01*
X141070111Y-88387200D02*
X141184397Y-88315771D01*
X141698682Y-88887200D02*
X141812968Y-88958628D01*
X141812968Y-88958628D02*
X142041539Y-88958628D01*
X142041539Y-88958628D02*
X142155825Y-88887200D01*
X142155825Y-88887200D02*
X142212968Y-88744342D01*
X142212968Y-88744342D02*
X142212968Y-88672914D01*
X142212968Y-88672914D02*
X142155825Y-88530057D01*
X142155825Y-88530057D02*
X142041539Y-88458628D01*
X142041539Y-88458628D02*
X141870111Y-88458628D01*
X141870111Y-88458628D02*
X141755825Y-88387200D01*
X141755825Y-88387200D02*
X141698682Y-88244342D01*
X141698682Y-88244342D02*
X141698682Y-88172914D01*
X141698682Y-88172914D02*
X141755825Y-88030057D01*
X141755825Y-88030057D02*
X141870111Y-87958628D01*
X141870111Y-87958628D02*
X142041539Y-87958628D01*
X142041539Y-87958628D02*
X142155825Y-88030057D01*
X143241540Y-87958628D02*
X143241540Y-88958628D01*
X142727254Y-87958628D02*
X142727254Y-88744342D01*
X142727254Y-88744342D02*
X142784397Y-88887200D01*
X142784397Y-88887200D02*
X142898682Y-88958628D01*
X142898682Y-88958628D02*
X143070111Y-88958628D01*
X143070111Y-88958628D02*
X143184397Y-88887200D01*
X143184397Y-88887200D02*
X143241540Y-88815771D01*
X143812968Y-88958628D02*
X143812968Y-87958628D01*
X143812968Y-88244342D02*
X143870111Y-88101485D01*
X143870111Y-88101485D02*
X143927254Y-88030057D01*
X143927254Y-88030057D02*
X144041539Y-87958628D01*
X144041539Y-87958628D02*
X144155825Y-87958628D01*
X145012968Y-88887200D02*
X144898682Y-88958628D01*
X144898682Y-88958628D02*
X144670111Y-88958628D01*
X144670111Y-88958628D02*
X144555825Y-88887200D01*
X144555825Y-88887200D02*
X144498682Y-88744342D01*
X144498682Y-88744342D02*
X144498682Y-88172914D01*
X144498682Y-88172914D02*
X144555825Y-88030057D01*
X144555825Y-88030057D02*
X144670111Y-87958628D01*
X144670111Y-87958628D02*
X144898682Y-87958628D01*
X144898682Y-87958628D02*
X145012968Y-88030057D01*
X145012968Y-88030057D02*
X145070111Y-88172914D01*
X145070111Y-88172914D02*
X145070111Y-88315771D01*
X145070111Y-88315771D02*
X144498682Y-88458628D01*
X145584396Y-88958628D02*
X145584396Y-87958628D01*
X145584396Y-88101485D02*
X145641539Y-88030057D01*
X145641539Y-88030057D02*
X145755824Y-87958628D01*
X145755824Y-87958628D02*
X145927253Y-87958628D01*
X145927253Y-87958628D02*
X146041539Y-88030057D01*
X146041539Y-88030057D02*
X146098682Y-88172914D01*
X146098682Y-88172914D02*
X146098682Y-88958628D01*
X146098682Y-88172914D02*
X146155824Y-88030057D01*
X146155824Y-88030057D02*
X146270110Y-87958628D01*
X146270110Y-87958628D02*
X146441539Y-87958628D01*
X146441539Y-87958628D02*
X146555824Y-88030057D01*
X146555824Y-88030057D02*
X146612967Y-88172914D01*
X146612967Y-88172914D02*
X146612967Y-88958628D01*
X147641539Y-88887200D02*
X147527253Y-88958628D01*
X147527253Y-88958628D02*
X147298682Y-88958628D01*
X147298682Y-88958628D02*
X147184396Y-88887200D01*
X147184396Y-88887200D02*
X147127253Y-88744342D01*
X147127253Y-88744342D02*
X147127253Y-88172914D01*
X147127253Y-88172914D02*
X147184396Y-88030057D01*
X147184396Y-88030057D02*
X147298682Y-87958628D01*
X147298682Y-87958628D02*
X147527253Y-87958628D01*
X147527253Y-87958628D02*
X147641539Y-88030057D01*
X147641539Y-88030057D02*
X147698682Y-88172914D01*
X147698682Y-88172914D02*
X147698682Y-88315771D01*
X147698682Y-88315771D02*
X147127253Y-88458628D01*
X148212967Y-87958628D02*
X148212967Y-88958628D01*
X148212967Y-88101485D02*
X148270110Y-88030057D01*
X148270110Y-88030057D02*
X148384395Y-87958628D01*
X148384395Y-87958628D02*
X148555824Y-87958628D01*
X148555824Y-87958628D02*
X148670110Y-88030057D01*
X148670110Y-88030057D02*
X148727253Y-88172914D01*
X148727253Y-88172914D02*
X148727253Y-88958628D01*
X149127252Y-87958628D02*
X149584395Y-87958628D01*
X149298681Y-87458628D02*
X149298681Y-88744342D01*
X149298681Y-88744342D02*
X149355824Y-88887200D01*
X149355824Y-88887200D02*
X149470109Y-88958628D01*
X149470109Y-88958628D02*
X149584395Y-88958628D01*
X150727252Y-87458628D02*
X151127252Y-88958628D01*
X151127252Y-88958628D02*
X151527252Y-87458628D01*
X152555823Y-88958628D02*
X151870109Y-88958628D01*
X152212966Y-88958628D02*
X152212966Y-87458628D01*
X152212966Y-87458628D02*
X152098680Y-87672914D01*
X152098680Y-87672914D02*
X151984395Y-87815771D01*
X151984395Y-87815771D02*
X151870109Y-87887200D01*
X172320112Y-83908628D02*
X171605826Y-83908628D01*
X171605826Y-83908628D02*
X171534398Y-84622914D01*
X171534398Y-84622914D02*
X171605826Y-84551485D01*
X171605826Y-84551485D02*
X171748684Y-84480057D01*
X171748684Y-84480057D02*
X172105826Y-84480057D01*
X172105826Y-84480057D02*
X172248684Y-84551485D01*
X172248684Y-84551485D02*
X172320112Y-84622914D01*
X172320112Y-84622914D02*
X172391541Y-84765771D01*
X172391541Y-84765771D02*
X172391541Y-85122914D01*
X172391541Y-85122914D02*
X172320112Y-85265771D01*
X172320112Y-85265771D02*
X172248684Y-85337200D01*
X172248684Y-85337200D02*
X172105826Y-85408628D01*
X172105826Y-85408628D02*
X171748684Y-85408628D01*
X171748684Y-85408628D02*
X171605826Y-85337200D01*
X171605826Y-85337200D02*
X171534398Y-85265771D01*
X172820112Y-83908628D02*
X173320112Y-85408628D01*
X173320112Y-85408628D02*
X173820112Y-83908628D01*
X103374819Y-74449999D02*
X103612914Y-74449999D01*
X103517676Y-74688094D02*
X103612914Y-74449999D01*
X103612914Y-74449999D02*
X103517676Y-74211904D01*
X103803390Y-74592856D02*
X103612914Y-74449999D01*
X103612914Y-74449999D02*
X103803390Y-74307142D01*
%TO.C,J3*%
D11*
X131750000Y-73400000D02*
X132500000Y-73400000D01*
X132500000Y-70450000D02*
X138050000Y-70450000D01*
X132500000Y-73400000D02*
X132500000Y-70450000D01*
X138050000Y-70450000D02*
X142540000Y-70450000D01*
X143400000Y-75950000D02*
X144650000Y-75950000D01*
X143600000Y-73400000D02*
X143600000Y-72060000D01*
X144350000Y-73400000D02*
X143600000Y-73400000D01*
X144650000Y-75950000D02*
X144650000Y-74700000D01*
X131750000Y-74900000D02*
X133550000Y-74900000D01*
X133550000Y-75650000D01*
X131750000Y-75650000D01*
X131750000Y-74900000D01*
X135050000Y-74900000D02*
X141050000Y-74900000D01*
X141050000Y-75650000D01*
X135050000Y-75650000D01*
X135050000Y-74900000D01*
X142550000Y-74900000D02*
X144350000Y-74900000D01*
X144350000Y-75650000D01*
X142550000Y-75650000D01*
X142550000Y-74900000D01*
X131740000Y-69690000D02*
X144360000Y-69690000D01*
X144360000Y-75660000D01*
X131740000Y-75660000D01*
X131740000Y-69690000D01*
%TO.C,SW1*%
D12*
X104859200Y-73129200D02*
X104859200Y-83390800D01*
X104859200Y-83390800D02*
X115120800Y-83390800D01*
X115120800Y-73129200D02*
X104859200Y-73129200D01*
X115120800Y-83390800D02*
X115120800Y-73129200D01*
%TO.C,J4*%
D13*
X167850000Y-71850000D02*
X176850000Y-71850000D01*
X167850000Y-74100000D02*
X167850000Y-71850000D01*
X167850000Y-82850000D02*
X167850000Y-78600000D01*
X176850000Y-71850000D02*
X176850000Y-82850000D01*
X176850000Y-82850000D02*
X167850000Y-82850000D01*
D14*
X167350000Y-76350000D02*
G75*
G02*
X167150000Y-76350000I-100000J0D01*
G01*
X167150000Y-76350000D02*
G75*
G02*
X167350000Y-76350000I100000J0D01*
G01*
%TD*%
%LPC*%
D15*
%TO.C,J3*%
X143400000Y-71200000D03*
D16*
X141800000Y-73200000D03*
D17*
X139300000Y-73200000D03*
X136800000Y-73200000D03*
X134300000Y-73200000D03*
%TD*%
D18*
%TO.C,J1*%
X94790000Y-79900000D03*
D19*
X119450000Y-79750000D03*
D20*
X137230000Y-81190000D03*
X139770000Y-81190000D03*
D18*
X182210000Y-79900000D03*
%TD*%
D21*
%TO.C,SW1*%
X106180000Y-74450000D03*
X113800000Y-82070000D03*
X111260000Y-74450000D03*
X108720000Y-82070000D03*
D22*
X113800000Y-74450000D03*
D21*
X106180000Y-82070000D03*
X108720000Y-74450000D03*
X111260000Y-82070000D03*
%TD*%
D23*
%TO.C,J4*%
X168850000Y-76350000D03*
D24*
X171100000Y-81650000D03*
X173600000Y-79150000D03*
%TD*%
%LPD*%
M02*
