%TF.GenerationSoftware,KiCad,Pcbnew,10.0.2*%
%TF.CreationDate,2026-07-15T09:00:36-04:00*%
%TF.ProjectId,js320-faceplate,6a733332-302d-4666-9163-65706c617465,rev?*%
%TF.SameCoordinates,Original*%
%TF.FileFunction,Copper,L1,Top*%
%TF.FilePolarity,Positive*%
%FSLAX46Y46*%
G04 Gerber Fmt 4.6, Leading zero omitted, Abs format (unit mm)*
G04 Created by KiCad (PCBNEW 10.0.2) date 2026-07-15 09:00:36*
%MOMM*%
%LPD*%
G01*
G04 APERTURE LIST*
G04 Aperture macros list*
%AMRoundRect*
0 Rectangle with rounded corners*
0 $1 Rounding radius*
0 $2 $3 $4 $5 $6 $7 $8 $9 X,Y pos of 4 corners*
0 Add a 4 corners polygon primitive as box body*
4,1,4,$2,$3,$4,$5,$6,$7,$8,$9,$2,$3,0*
0 Add four circle primitives for the rounded corners*
1,1,$1+$1,$2,$3*
1,1,$1+$1,$4,$5*
1,1,$1+$1,$6,$7*
1,1,$1+$1,$8,$9*
0 Add four rect primitives between the rounded corners*
20,1,$1+$1,$2,$3,$4,$5,0*
20,1,$1+$1,$4,$5,$6,$7,0*
20,1,$1+$1,$6,$7,$8,$9,0*
20,1,$1+$1,$8,$9,$2,$3,0*%
G04 Aperture macros list end*
%TA.AperFunction,ComponentPad*%
%ADD10RoundRect,0.250000X0.600000X0.725000X-0.600000X0.725000X-0.600000X-0.725000X0.600000X-0.725000X0*%
%TD*%
%TA.AperFunction,ComponentPad*%
%ADD11O,1.700000X1.950000*%
%TD*%
%TA.AperFunction,ComponentPad*%
%ADD12C,0.800000*%
%TD*%
%TA.AperFunction,ComponentPad*%
%ADD13C,1.320800*%
%TD*%
%TA.AperFunction,ComponentPad*%
%ADD14R,1.320800X1.320800*%
%TD*%
%TA.AperFunction,ComponentPad*%
%ADD15R,1.500000X3.800000*%
%TD*%
%TA.AperFunction,ComponentPad*%
%ADD16R,3.000000X1.300000*%
%TD*%
%TA.AperFunction,ViaPad*%
%ADD17C,0.660400*%
%TD*%
%TA.AperFunction,Conductor*%
%ADD18C,0.304800*%
%TD*%
G04 APERTURE END LIST*
D10*
%TO.P,J3,1,Pin_1_1*%
%TO.N,/Vprog*%
X141800000Y-73200000D03*
D11*
%TO.P,J3,2,Pin_2_2*%
%TO.N,/Vmeasure*%
X139300000Y-73200000D03*
%TO.P,J3,3,Pin_3_3*%
%TO.N,+3.3V*%
X136800000Y-73200000D03*
%TO.P,J3,4,Pin_4_4*%
%TO.N,GND*%
X134300000Y-73200000D03*
%TD*%
D12*
%TO.P,J1,7,SHIELD_7*%
%TO.N,GND*%
X92000000Y-77400000D03*
X92000000Y-82400000D03*
X94000000Y-72900000D03*
X94000000Y-86900000D03*
X98000000Y-69400000D03*
X98000000Y-90400000D03*
X103350000Y-68175000D03*
X103350000Y-91625000D03*
X108350000Y-68175000D03*
X108350000Y-91625000D03*
X113350000Y-68175000D03*
X113350000Y-91625000D03*
X118350000Y-68175000D03*
X118350000Y-91625000D03*
X123350000Y-68175000D03*
X123350000Y-91625000D03*
X128350000Y-68175000D03*
X128350000Y-91625000D03*
X133350000Y-68175000D03*
X133350000Y-91625000D03*
X138500000Y-68150000D03*
X138500000Y-91650000D03*
X143500000Y-68150000D03*
X143500000Y-91650000D03*
X148500000Y-68150000D03*
X148500000Y-91650000D03*
X153500000Y-68150000D03*
X153500000Y-91650000D03*
X158500000Y-68150000D03*
X158500000Y-91650000D03*
X163500000Y-68150000D03*
X163500000Y-91650000D03*
X168500000Y-68150000D03*
X168500000Y-91650000D03*
X173500000Y-68150000D03*
X173500000Y-91650000D03*
X179000000Y-69400000D03*
X179000000Y-90400000D03*
X183000000Y-72900000D03*
X183000000Y-86900000D03*
X185000000Y-77400000D03*
X185000000Y-82400000D03*
%TD*%
D13*
%TO.P,SW1,1,1_1*%
%TO.N,unconnected-(SW1-Pad1)*%
X106180000Y-74450000D03*
%TO.P,SW1,1B,1B_1B*%
%TO.N,Net-(R1-Pad1)*%
X113800000Y-82070000D03*
%TO.P,SW1,2,2_2*%
%TO.N,unconnected-(SW1-Pad2)*%
X111260000Y-74450000D03*
%TO.P,SW1,2B,2B_2B*%
%TO.N,Net-(R2-Pad1)*%
X108720000Y-82070000D03*
D14*
%TO.P,SW1,3,3_3*%
%TO.N,unconnected-(SW1-Pad3)*%
X113800000Y-74450000D03*
D13*
%TO.P,SW1,3B,3B_3B*%
%TO.N,Net-(R3-Pad1)*%
X106180000Y-82070000D03*
%TO.P,SW1,C,C_C*%
%TO.N,unconnected-(SW1-PadC)*%
X108720000Y-74450000D03*
%TO.P,SW1,CB,CB_CB*%
%TO.N,/sens*%
X111260000Y-82070000D03*
%TD*%
D15*
%TO.P,J4,A*%
%TO.N,/VINP*%
X168850000Y-76350000D03*
D16*
%TO.P,J4,B*%
%TO.N,GNDPWR*%
X171100000Y-81650000D03*
%TO.P,J4,C*%
%TO.N,unconnected-(J4-PadC)*%
X173600000Y-79150000D03*
%TD*%
D17*
%TO.N,GND*%
X146050000Y-72000000D03*
X154350000Y-78300000D03*
X151200000Y-79800000D03*
X124200000Y-80200000D03*
X131825000Y-78125000D03*
X155875000Y-78375000D03*
X153225000Y-78325000D03*
X126250000Y-85350000D03*
X132825000Y-78175000D03*
X147200000Y-73800000D03*
X112070000Y-77470000D03*
X104570000Y-77370000D03*
X129950000Y-78200000D03*
X125850000Y-82450000D03*
X156900000Y-78800000D03*
X155900000Y-79750000D03*
X110070000Y-77420000D03*
X152925000Y-80175000D03*
X152800000Y-79225000D03*
X128255000Y-82450000D03*
X131150000Y-78625000D03*
X135900000Y-86250000D03*
%TO.N,GNDPWR*%
X168425000Y-82600000D03*
X168550000Y-80775000D03*
X163400000Y-82050000D03*
X168550000Y-81950000D03*
X166950000Y-82700000D03*
X167150000Y-81900000D03*
X167075000Y-80800000D03*
X171150000Y-80600000D03*
X164150000Y-82625000D03*
X165550000Y-82550000D03*
X163850000Y-81400000D03*
%TD*%
%TO.N,/Vprog*%
D18*
X141800000Y-72450000D02*
X140525000Y-71175000D01*
X139800000Y-76200000D02*
X140250000Y-76200000D01*
X138100000Y-71600000D02*
X138525000Y-71175000D01*
X138525000Y-71175000D02*
X140525000Y-71175000D01*
X138100000Y-71600000D02*
X138100000Y-74500000D01*
X138100000Y-74500000D02*
X139800000Y-76200000D01*
X141800000Y-73200000D02*
X141800000Y-75000000D01*
X141800000Y-73200000D02*
X141800000Y-72450000D01*
X140300000Y-76150000D02*
X140650000Y-76150000D01*
X141800000Y-75000000D02*
X140650000Y-76150000D01*
X140250000Y-76200000D02*
X140300000Y-76150000D01*
%TD*%
%TA.AperFunction,Conductor*%
%TO.N,GND*%
G36*
X173040325Y-67630596D02*
G01*
X173042545Y-67631247D01*
X173102279Y-67669617D01*
X173131787Y-67734190D01*
X173121700Y-67804467D01*
X173075219Y-67858133D01*
X173012237Y-67878045D01*
X135900001Y-69399998D01*
X135899999Y-69400000D01*
X135634569Y-72205975D01*
X135634567Y-72205981D01*
X135634568Y-72205984D01*
X135631887Y-72217073D01*
X135626141Y-72240844D01*
X135621879Y-72251515D01*
X135578037Y-72307357D01*
X135510964Y-72330632D01*
X135441965Y-72313956D01*
X135437159Y-72311187D01*
X135398126Y-72276073D01*
X135335818Y-72190316D01*
X135335813Y-72190310D01*
X135184681Y-72039178D01*
X135103317Y-71980064D01*
X135011750Y-71913536D01*
X134821292Y-71816493D01*
X134821286Y-71816490D01*
X134799967Y-71809563D01*
X134618003Y-71750439D01*
X134554000Y-71740301D01*
X134554000Y-72612096D01*
X134533998Y-72680217D01*
X134480342Y-72726710D01*
X134410068Y-72736814D01*
X134395391Y-72733803D01*
X134362537Y-72725000D01*
X134362535Y-72725000D01*
X134237465Y-72725000D01*
X134237462Y-72725000D01*
X134204609Y-72733803D01*
X134133633Y-72732113D01*
X134074838Y-72692318D01*
X134046891Y-72627053D01*
X134046000Y-72612096D01*
X134046000Y-71740302D01*
X133982002Y-71750439D01*
X133981989Y-71750441D01*
X133778712Y-71816490D01*
X133692132Y-71860605D01*
X133588249Y-71913536D01*
X133588246Y-71913537D01*
X133588246Y-71913538D01*
X133415317Y-72039178D01*
X133264178Y-72190317D01*
X133161837Y-72331178D01*
X133138536Y-72363249D01*
X133107445Y-72424267D01*
X133041492Y-72553707D01*
X133041489Y-72553714D01*
X132975441Y-72756991D01*
X132975440Y-72756994D01*
X132975440Y-72756996D01*
X132945504Y-72946000D01*
X133712097Y-72946000D01*
X133780218Y-72966002D01*
X133826711Y-73019658D01*
X133836815Y-73089932D01*
X133833803Y-73104612D01*
X133825000Y-73137462D01*
X133825000Y-73262537D01*
X133833803Y-73295388D01*
X133832114Y-73366364D01*
X133792321Y-73425160D01*
X133727057Y-73453109D01*
X133712097Y-73454000D01*
X132945504Y-73454000D01*
X132972142Y-73622184D01*
X132975441Y-73643008D01*
X133041489Y-73846284D01*
X133041492Y-73846291D01*
X133069474Y-73901208D01*
X133138536Y-74036750D01*
X133142504Y-74042211D01*
X133264178Y-74209681D01*
X133415317Y-74360820D01*
X133431591Y-74372644D01*
X133588249Y-74486463D01*
X133778707Y-74583506D01*
X133778713Y-74583509D01*
X133981998Y-74649560D01*
X134046000Y-74659696D01*
X134046000Y-73787903D01*
X134066002Y-73719782D01*
X134119658Y-73673289D01*
X134189932Y-73663185D01*
X134204609Y-73666196D01*
X134237465Y-73675000D01*
X134362534Y-73675000D01*
X134362535Y-73675000D01*
X134395388Y-73666197D01*
X134466364Y-73667886D01*
X134525160Y-73707679D01*
X134553109Y-73772943D01*
X134554000Y-73787903D01*
X134554000Y-74659695D01*
X134554000Y-74659696D01*
X134618001Y-74649560D01*
X134821286Y-74583509D01*
X134821292Y-74583506D01*
X135011750Y-74486463D01*
X135184677Y-74360823D01*
X135196125Y-74349374D01*
X135224830Y-74327883D01*
X135224997Y-74327792D01*
X135234921Y-74322372D01*
X135304292Y-74307276D01*
X135370814Y-74332082D01*
X135413365Y-74388915D01*
X135413372Y-74388932D01*
X135414993Y-74393279D01*
X135422374Y-74449169D01*
X135200000Y-76800000D01*
X158150000Y-76800000D01*
X158321491Y-84190073D01*
X176300000Y-84300000D01*
X176249278Y-79768875D01*
X180209500Y-79768875D01*
X180209500Y-80031123D01*
X180243728Y-80291112D01*
X180243845Y-80291814D01*
X180244588Y-80294319D01*
X180256600Y-80339147D01*
X180311602Y-80544419D01*
X180331199Y-80591730D01*
X180412276Y-80787469D01*
X180414011Y-80790258D01*
X180543069Y-81013794D01*
X180543081Y-81013811D01*
X180614510Y-81106898D01*
X180702710Y-81221842D01*
X180702721Y-81221854D01*
X180702754Y-81221889D01*
X180888109Y-81407244D01*
X180888126Y-81407260D01*
X180888136Y-81407270D01*
X180888157Y-81407289D01*
X180945428Y-81451235D01*
X181078704Y-81553502D01*
X181096194Y-81566922D01*
X181096200Y-81566926D01*
X181096204Y-81566928D01*
X181096204Y-81566929D01*
X181319799Y-81696021D01*
X181319800Y-81696021D01*
X181323304Y-81698044D01*
X181323436Y-81698098D01*
X181565581Y-81798398D01*
X181818884Y-81866270D01*
X181818886Y-81866270D01*
X181818890Y-81866270D01*
X181818891Y-81866271D01*
X181843895Y-81869562D01*
X181843899Y-81869564D01*
X181843900Y-81869563D01*
X182078880Y-81900500D01*
X182078887Y-81900500D01*
X182341113Y-81900500D01*
X182341120Y-81900500D01*
X182601116Y-81866270D01*
X182854419Y-81798398D01*
X183096697Y-81698043D01*
X183323803Y-81566924D01*
X183531851Y-81407282D01*
X183717282Y-81221851D01*
X183876924Y-81013803D01*
X184008043Y-80786697D01*
X184108398Y-80544419D01*
X184176270Y-80291116D01*
X184210500Y-80031120D01*
X184210500Y-79768880D01*
X184176270Y-79508884D01*
X184108398Y-79255581D01*
X184008043Y-79013303D01*
X184008037Y-79013294D01*
X184008036Y-79013290D01*
X184006676Y-79010935D01*
X184006508Y-79010584D01*
X184006021Y-79009799D01*
X183876928Y-78786204D01*
X183876926Y-78786200D01*
X183876922Y-78786194D01*
X183717289Y-78578157D01*
X183717270Y-78578136D01*
X183717260Y-78578126D01*
X183717244Y-78578109D01*
X183531889Y-78392754D01*
X183531871Y-78392737D01*
X183531863Y-78392729D01*
X183531842Y-78392710D01*
X183434571Y-78318071D01*
X183323811Y-78233081D01*
X183323794Y-78233070D01*
X183323794Y-78233069D01*
X183096719Y-78101968D01*
X183096710Y-78101963D01*
X183096708Y-78101962D01*
X183096704Y-78101960D01*
X183096701Y-78101959D01*
X183096697Y-78101957D01*
X182854419Y-78001602D01*
X182721713Y-77966043D01*
X182604319Y-77934588D01*
X182601814Y-77933845D01*
X182601112Y-77933728D01*
X182341123Y-77899500D01*
X182341121Y-77899500D01*
X182341120Y-77899500D01*
X182078880Y-77899500D01*
X182078878Y-77899500D01*
X182078875Y-77899500D01*
X181818897Y-77933726D01*
X181565581Y-78001602D01*
X181323299Y-78101958D01*
X181323290Y-78101962D01*
X181323285Y-78101965D01*
X181096204Y-78233069D01*
X181096204Y-78233070D01*
X181096187Y-78233081D01*
X180888173Y-78392697D01*
X180888144Y-78392721D01*
X180888109Y-78392754D01*
X180702754Y-78578109D01*
X180702721Y-78578144D01*
X180702697Y-78578173D01*
X180543081Y-78786187D01*
X180543070Y-78786204D01*
X180543069Y-78786204D01*
X180412271Y-79012754D01*
X180412267Y-79012762D01*
X180411963Y-79013290D01*
X180411958Y-79013301D01*
X180411957Y-79013303D01*
X180360820Y-79136760D01*
X180360390Y-79137797D01*
X180311602Y-79255581D01*
X180243726Y-79508897D01*
X180209500Y-79768875D01*
X176249278Y-79768875D01*
X176150000Y-70900000D01*
X176149999Y-70899999D01*
X175566181Y-70816597D01*
X175463776Y-70801967D01*
X175460850Y-70801550D01*
X175460848Y-70801549D01*
X175460844Y-70801549D01*
X175460843Y-70801548D01*
X175450011Y-70800001D01*
X175450007Y-70800001D01*
X175450000Y-70800000D01*
X175450001Y-70800000D01*
X175438650Y-70798379D01*
X175438649Y-70798379D01*
X175438648Y-70798379D01*
X175432840Y-70800975D01*
X175428178Y-70804876D01*
X175418122Y-70819948D01*
X175387626Y-70838813D01*
X175377771Y-70843110D01*
X175329465Y-70853595D01*
X166350000Y-70999998D01*
X166350000Y-76557410D01*
X166349999Y-76557412D01*
X166350000Y-76557413D01*
X166344895Y-76592911D01*
X166340420Y-76608150D01*
X166302068Y-76667847D01*
X166300368Y-76669321D01*
X166245354Y-76697079D01*
X166238373Y-76698642D01*
X166212381Y-76701677D01*
X158150000Y-76800000D01*
X135200000Y-76800000D01*
X140550000Y-76750000D01*
X140547990Y-76649527D01*
X140552382Y-76613942D01*
X140556553Y-76598609D01*
X140566044Y-76583160D01*
X140566626Y-76581022D01*
X140568268Y-76579540D01*
X140593677Y-76538182D01*
X140594548Y-76537396D01*
X140651001Y-76508054D01*
X140659789Y-76506051D01*
X140687789Y-76502900D01*
X140696460Y-76502900D01*
X140786214Y-76478850D01*
X140866686Y-76432390D01*
X142082390Y-75216686D01*
X142128850Y-75136214D01*
X142152900Y-75046459D01*
X142152900Y-74953540D01*
X142152900Y-74519615D01*
X142158003Y-74484121D01*
X142162477Y-74468882D01*
X142200856Y-74409156D01*
X142202265Y-74407936D01*
X142257986Y-74380049D01*
X142265670Y-74378378D01*
X142292448Y-74375500D01*
X142454264Y-74375500D01*
X142454266Y-74375500D01*
X142484699Y-74372646D01*
X142612882Y-74327793D01*
X142631422Y-74314110D01*
X142640248Y-74307597D01*
X142662682Y-74291039D01*
X142722150Y-74247150D01*
X142802791Y-74137885D01*
X142802793Y-74137881D01*
X142836270Y-74042211D01*
X142847646Y-74009699D01*
X142850500Y-73979266D01*
X142850500Y-72420734D01*
X142847646Y-72390301D01*
X142802793Y-72262118D01*
X142802791Y-72262114D01*
X142794969Y-72251515D01*
X142722150Y-72152848D01*
X142612890Y-72072211D01*
X142612886Y-72072209D01*
X142612885Y-72072208D01*
X142612881Y-72072206D01*
X142612879Y-72072205D01*
X142612875Y-72072203D01*
X142484717Y-72027358D01*
X142484701Y-72027354D01*
X142484703Y-72027354D01*
X142461874Y-72025213D01*
X142454266Y-72024500D01*
X142454265Y-72024500D01*
X141943881Y-72024500D01*
X141943878Y-72024499D01*
X141943878Y-72024500D01*
X141908380Y-72019395D01*
X141882734Y-72011864D01*
X141829140Y-71980064D01*
X141052622Y-71203546D01*
X141052602Y-71203524D01*
X140965304Y-71116226D01*
X142549500Y-71116226D01*
X142549500Y-71283771D01*
X142564735Y-71360360D01*
X142582184Y-71448083D01*
X142582185Y-71448084D01*
X142646298Y-71602866D01*
X142653188Y-71613177D01*
X142653192Y-71613182D01*
X142739373Y-71742161D01*
X142739378Y-71742167D01*
X142739384Y-71742173D01*
X142739393Y-71742183D01*
X142857815Y-71860605D01*
X142857824Y-71860613D01*
X142857832Y-71860621D01*
X142857838Y-71860626D01*
X142997137Y-71953703D01*
X143151918Y-72017816D01*
X143316233Y-72050500D01*
X143316234Y-72050500D01*
X143483766Y-72050500D01*
X143483767Y-72050500D01*
X143648082Y-72017816D01*
X143802863Y-71953703D01*
X143942162Y-71860626D01*
X144060626Y-71742162D01*
X144153703Y-71602863D01*
X144217816Y-71448082D01*
X144250500Y-71283767D01*
X144250500Y-71116233D01*
X144217816Y-70951918D01*
X144153703Y-70797137D01*
X144060626Y-70657838D01*
X144060621Y-70657832D01*
X144060613Y-70657824D01*
X144060605Y-70657815D01*
X143942183Y-70539393D01*
X143942173Y-70539384D01*
X143942167Y-70539378D01*
X143942161Y-70539373D01*
X143941720Y-70539078D01*
X143881425Y-70498790D01*
X143881420Y-70498787D01*
X143802864Y-70446298D01*
X143802865Y-70446298D01*
X143802863Y-70446297D01*
X143693420Y-70400964D01*
X143652223Y-70383899D01*
X143648875Y-70382371D01*
X143639196Y-70380086D01*
X143635912Y-70379763D01*
X143565368Y-70365731D01*
X143538168Y-70360320D01*
X143483771Y-70349500D01*
X143483769Y-70349500D01*
X143483767Y-70349500D01*
X143316233Y-70349500D01*
X143316230Y-70349500D01*
X143316227Y-70349500D01*
X143193830Y-70373847D01*
X143193829Y-70373847D01*
X143154108Y-70381748D01*
X143152182Y-70382095D01*
X143151915Y-70382184D01*
X142997135Y-70446298D01*
X142857840Y-70539371D01*
X142857834Y-70539376D01*
X142857815Y-70539393D01*
X142739393Y-70657815D01*
X142739376Y-70657834D01*
X142739371Y-70657840D01*
X142646298Y-70797135D01*
X142582184Y-70951916D01*
X142549500Y-71116226D01*
X140965304Y-71116226D01*
X140741707Y-70892629D01*
X140741698Y-70892621D01*
X140741692Y-70892615D01*
X140741682Y-70892607D01*
X140741681Y-70892606D01*
X140741680Y-70892605D01*
X140661217Y-70846150D01*
X140661209Y-70846148D01*
X140649872Y-70843110D01*
X140571463Y-70822100D01*
X140571459Y-70822099D01*
X140563275Y-70821022D01*
X140563317Y-70820699D01*
X140537561Y-70816995D01*
X140522322Y-70812520D01*
X140462605Y-70774144D01*
X140462598Y-70774136D01*
X140462596Y-70774135D01*
X140462594Y-70774132D01*
X140460961Y-70772247D01*
X140433335Y-70717751D01*
X140431844Y-70711215D01*
X140428713Y-70685715D01*
X140428156Y-70657838D01*
X140402827Y-69391367D01*
X140402938Y-69390473D01*
X140407221Y-69355775D01*
X140411390Y-69340450D01*
X140448549Y-69279989D01*
X140450460Y-69278264D01*
X140504313Y-69249566D01*
X140510715Y-69247964D01*
X140536015Y-69244312D01*
X175551481Y-67780251D01*
X175562923Y-67780293D01*
X175574329Y-67780855D01*
X175585732Y-67781938D01*
X175700824Y-67798187D01*
X175704307Y-67798729D01*
X175707774Y-67799318D01*
X175711231Y-67799955D01*
X176376210Y-67932227D01*
X176379577Y-67932946D01*
X176383072Y-67933744D01*
X176386443Y-67934565D01*
X176859665Y-68056634D01*
X177042861Y-68103890D01*
X177046252Y-68104815D01*
X177046259Y-68104817D01*
X177049678Y-68105801D01*
X177053044Y-68106822D01*
X177699007Y-68312709D01*
X177702298Y-68313809D01*
X177705699Y-68315000D01*
X177708952Y-68316189D01*
X178342272Y-68557941D01*
X178345535Y-68559238D01*
X178348833Y-68560604D01*
X178352069Y-68561998D01*
X178970872Y-68838895D01*
X178974082Y-68840386D01*
X178977265Y-68841919D01*
X178980416Y-68843491D01*
X179582714Y-69154646D01*
X179585810Y-69156300D01*
X179588935Y-69158028D01*
X179591939Y-69159743D01*
X180175864Y-69504192D01*
X180178876Y-69506026D01*
X180181865Y-69507904D01*
X180184834Y-69509828D01*
X180748494Y-69886453D01*
X180751427Y-69888473D01*
X180754305Y-69890516D01*
X180757136Y-69892586D01*
X181196944Y-70223574D01*
X181298795Y-70300224D01*
X181301551Y-70302360D01*
X181304320Y-70304567D01*
X181307013Y-70306775D01*
X181722754Y-70657838D01*
X181825040Y-70744211D01*
X181827701Y-70746523D01*
X181829848Y-70748442D01*
X181830326Y-70748869D01*
X181832919Y-70751253D01*
X182218971Y-71116233D01*
X182325548Y-71216993D01*
X182328081Y-71219457D01*
X182330537Y-71221913D01*
X182333001Y-71224446D01*
X182798753Y-71717088D01*
X182801144Y-71719689D01*
X182803464Y-71722285D01*
X182805783Y-71724954D01*
X183167110Y-72152850D01*
X183167109Y-72152850D01*
X183243160Y-72242911D01*
X183245405Y-72245647D01*
X183247629Y-72248436D01*
X183249775Y-72251205D01*
X183257983Y-72262111D01*
X183639137Y-72768579D01*
X183657400Y-72792845D01*
X183659485Y-72795696D01*
X183661540Y-72798592D01*
X183663547Y-72801507D01*
X183792197Y-72994045D01*
X184040176Y-73365172D01*
X184042103Y-73368147D01*
X184042106Y-73368151D01*
X184043988Y-73371147D01*
X184045818Y-73374153D01*
X184205614Y-73645047D01*
X184390228Y-73958013D01*
X184391975Y-73961071D01*
X184393696Y-73964185D01*
X184395361Y-73967300D01*
X184706503Y-74569575D01*
X184708079Y-74572733D01*
X184709612Y-74575916D01*
X184711103Y-74579126D01*
X184987997Y-75197922D01*
X184989403Y-75201187D01*
X184990761Y-75204467D01*
X184992059Y-75207732D01*
X185233798Y-75841019D01*
X185235011Y-75844335D01*
X185236177Y-75847667D01*
X185237299Y-75851022D01*
X185443169Y-76496932D01*
X185444200Y-76500332D01*
X185445183Y-76503746D01*
X185446108Y-76507137D01*
X185615427Y-77163528D01*
X185616259Y-77166949D01*
X185617045Y-77170391D01*
X185617786Y-77173861D01*
X185750038Y-77838742D01*
X185750679Y-77842220D01*
X185751269Y-77845693D01*
X185751812Y-77849182D01*
X185846578Y-78520437D01*
X185847022Y-78523935D01*
X185847421Y-78527474D01*
X185847768Y-78531000D01*
X185904743Y-79206477D01*
X185904991Y-79210005D01*
X185905190Y-79213550D01*
X185905338Y-79217078D01*
X185924350Y-79894683D01*
X185924400Y-79898217D01*
X185924400Y-79901782D01*
X185924350Y-79905316D01*
X185905338Y-80582920D01*
X185905190Y-80586448D01*
X185904991Y-80589993D01*
X185904743Y-80593521D01*
X185847768Y-81268998D01*
X185847421Y-81272524D01*
X185847022Y-81276063D01*
X185846578Y-81279561D01*
X185751812Y-81950816D01*
X185751269Y-81954305D01*
X185750679Y-81957778D01*
X185750038Y-81961256D01*
X185617786Y-82626137D01*
X185617045Y-82629607D01*
X185616259Y-82633049D01*
X185615427Y-82636470D01*
X185446108Y-83292861D01*
X185445183Y-83296252D01*
X185444200Y-83299666D01*
X185443169Y-83303066D01*
X185237299Y-83948976D01*
X185236177Y-83952331D01*
X185235011Y-83955663D01*
X185233798Y-83958979D01*
X184992059Y-84592266D01*
X184990761Y-84595531D01*
X184989403Y-84598811D01*
X184987997Y-84602076D01*
X184711103Y-85220872D01*
X184709612Y-85224082D01*
X184708079Y-85227265D01*
X184706503Y-85230423D01*
X184395361Y-85832698D01*
X184393696Y-85835813D01*
X184391975Y-85838927D01*
X184390221Y-85841997D01*
X184045818Y-86425845D01*
X184043988Y-86428851D01*
X184042106Y-86431847D01*
X184040176Y-86434826D01*
X183663548Y-86998490D01*
X183661543Y-87001401D01*
X183659491Y-87004293D01*
X183657406Y-87007146D01*
X183249791Y-87548771D01*
X183247630Y-87551560D01*
X183245422Y-87554329D01*
X183243177Y-87557066D01*
X182805793Y-88075034D01*
X182803468Y-88077710D01*
X182801128Y-88080328D01*
X182798743Y-88082922D01*
X182333005Y-88575548D01*
X182330541Y-88578081D01*
X182328081Y-88580541D01*
X182325548Y-88583005D01*
X181832922Y-89048743D01*
X181830328Y-89051128D01*
X181827710Y-89053468D01*
X181825034Y-89055793D01*
X181307066Y-89493177D01*
X181304329Y-89495422D01*
X181301560Y-89497630D01*
X181298771Y-89499791D01*
X180757146Y-89907406D01*
X180754293Y-89909491D01*
X180751401Y-89911543D01*
X180748490Y-89913548D01*
X180184826Y-90290176D01*
X180181847Y-90292106D01*
X180178851Y-90293988D01*
X180175845Y-90295818D01*
X179591997Y-90640221D01*
X179588927Y-90641975D01*
X179585813Y-90643696D01*
X179582698Y-90645361D01*
X178980423Y-90956503D01*
X178977265Y-90958079D01*
X178974082Y-90959612D01*
X178970872Y-90961103D01*
X178352076Y-91237997D01*
X178348811Y-91239403D01*
X178345531Y-91240761D01*
X178342266Y-91242059D01*
X177708979Y-91483798D01*
X177705663Y-91485011D01*
X177702331Y-91486177D01*
X177698976Y-91487299D01*
X177053066Y-91693169D01*
X177049666Y-91694200D01*
X177046252Y-91695183D01*
X177042861Y-91696108D01*
X176386470Y-91865427D01*
X176383049Y-91866259D01*
X176379607Y-91867045D01*
X176376137Y-91867786D01*
X175711256Y-92000038D01*
X175707778Y-92000679D01*
X175704305Y-92001269D01*
X175700816Y-92001812D01*
X175029561Y-92096578D01*
X175026063Y-92097022D01*
X175022524Y-92097421D01*
X175018998Y-92097768D01*
X174343521Y-92154743D01*
X174339993Y-92154991D01*
X174336448Y-92155190D01*
X174332920Y-92155338D01*
X173652661Y-92174425D01*
X173650934Y-92174461D01*
X173649141Y-92174487D01*
X173647384Y-92174500D01*
X103352616Y-92174500D01*
X103350857Y-92174487D01*
X103349065Y-92174461D01*
X103347338Y-92174425D01*
X102667078Y-92155338D01*
X102663550Y-92155190D01*
X102660005Y-92154991D01*
X102656477Y-92154743D01*
X101981000Y-92097768D01*
X101977474Y-92097421D01*
X101973935Y-92097022D01*
X101970437Y-92096578D01*
X101299182Y-92001812D01*
X101295693Y-92001269D01*
X101292220Y-92000679D01*
X101288742Y-92000038D01*
X100623861Y-91867786D01*
X100620403Y-91867047D01*
X100616949Y-91866259D01*
X100613528Y-91865427D01*
X99957137Y-91696108D01*
X99953746Y-91695183D01*
X99950332Y-91694200D01*
X99946932Y-91693169D01*
X99301022Y-91487299D01*
X99297667Y-91486177D01*
X99294335Y-91485011D01*
X99291019Y-91483798D01*
X98657732Y-91242059D01*
X98654467Y-91240761D01*
X98651187Y-91239403D01*
X98647922Y-91237997D01*
X98029126Y-90961103D01*
X98025916Y-90959612D01*
X98022733Y-90958079D01*
X98019575Y-90956503D01*
X97417300Y-90645361D01*
X97414185Y-90643696D01*
X97411071Y-90641975D01*
X97408001Y-90640221D01*
X96824153Y-90295818D01*
X96821147Y-90293988D01*
X96818151Y-90292106D01*
X96815172Y-90290176D01*
X96251507Y-89913547D01*
X96248613Y-89911554D01*
X96245720Y-89909502D01*
X96242868Y-89907418D01*
X96034612Y-89750689D01*
X95701227Y-89499791D01*
X95698438Y-89497630D01*
X95695669Y-89495422D01*
X95692933Y-89493177D01*
X95579371Y-89397283D01*
X95579370Y-89397283D01*
X95174954Y-89055783D01*
X95172285Y-89053464D01*
X95169689Y-89051144D01*
X95167088Y-89048753D01*
X94674446Y-88583001D01*
X94671913Y-88580537D01*
X94669457Y-88578081D01*
X94666993Y-88575548D01*
X94538503Y-88439640D01*
X94201253Y-88082919D01*
X94198869Y-88080326D01*
X94196537Y-88077717D01*
X94194211Y-88075040D01*
X94194206Y-88075034D01*
X93756775Y-87557013D01*
X93754570Y-87554324D01*
X93752360Y-87551551D01*
X93750220Y-87548789D01*
X93750206Y-87548771D01*
X93619134Y-87374606D01*
X93342571Y-87007117D01*
X93340516Y-87004305D01*
X93338473Y-87001427D01*
X93336453Y-86998494D01*
X92959822Y-86434825D01*
X92957907Y-86431871D01*
X92957892Y-86431847D01*
X92955989Y-86428818D01*
X92954228Y-86425927D01*
X92830145Y-86215575D01*
X92609756Y-85841961D01*
X92608040Y-85838957D01*
X92606296Y-85835802D01*
X92604637Y-85832698D01*
X92293495Y-85230423D01*
X92291919Y-85227265D01*
X92290386Y-85224082D01*
X92288895Y-85220872D01*
X92012001Y-84602076D01*
X92010595Y-84598811D01*
X92009237Y-84595531D01*
X92007939Y-84592266D01*
X91896375Y-84299999D01*
X91766182Y-83958932D01*
X91765001Y-83955701D01*
X91763813Y-83952309D01*
X91762699Y-83948976D01*
X91556829Y-83303066D01*
X91555798Y-83299666D01*
X91554815Y-83296252D01*
X91553890Y-83292861D01*
X91510503Y-83124665D01*
X91460521Y-82930899D01*
X91384559Y-82636419D01*
X91383739Y-82633049D01*
X91382942Y-82629558D01*
X91382227Y-82626210D01*
X91254723Y-81985203D01*
X105319100Y-81985203D01*
X105319100Y-81992925D01*
X105319100Y-82154796D01*
X105339001Y-82254843D01*
X105339001Y-82254844D01*
X105352181Y-82321110D01*
X105352182Y-82321114D01*
X105352183Y-82321115D01*
X105417080Y-82477789D01*
X105511295Y-82618792D01*
X105631208Y-82738705D01*
X105772211Y-82832920D01*
X105928885Y-82897817D01*
X105928890Y-82897818D01*
X105928889Y-82897818D01*
X106072096Y-82926302D01*
X106072095Y-82926302D01*
X106075955Y-82927069D01*
X106095203Y-82930899D01*
X106095206Y-82930899D01*
X106095209Y-82930900D01*
X106095210Y-82930900D01*
X106264790Y-82930900D01*
X106264791Y-82930900D01*
X106431115Y-82897817D01*
X106587789Y-82832920D01*
X106728792Y-82738705D01*
X106848705Y-82618792D01*
X106942920Y-82477789D01*
X107007817Y-82321115D01*
X107040900Y-82154791D01*
X107040900Y-81985209D01*
X107040899Y-81985203D01*
X107859100Y-81985203D01*
X107859100Y-81992925D01*
X107859100Y-82154796D01*
X107879001Y-82254843D01*
X107879001Y-82254844D01*
X107892181Y-82321110D01*
X107892182Y-82321114D01*
X107892183Y-82321115D01*
X107957080Y-82477789D01*
X108051295Y-82618792D01*
X108171208Y-82738705D01*
X108312211Y-82832920D01*
X108468885Y-82897817D01*
X108468890Y-82897818D01*
X108468889Y-82897818D01*
X108612096Y-82926302D01*
X108612095Y-82926302D01*
X108615955Y-82927069D01*
X108635203Y-82930899D01*
X108635206Y-82930899D01*
X108635209Y-82930900D01*
X108635210Y-82930900D01*
X108804790Y-82930900D01*
X108804791Y-82930900D01*
X108971115Y-82897817D01*
X109127789Y-82832920D01*
X109268792Y-82738705D01*
X109388705Y-82618792D01*
X109482920Y-82477789D01*
X109547817Y-82321115D01*
X109580900Y-82154791D01*
X109580900Y-81985209D01*
X109580899Y-81985203D01*
X110399100Y-81985203D01*
X110399100Y-81992925D01*
X110399100Y-82154796D01*
X110419001Y-82254843D01*
X110419001Y-82254844D01*
X110432181Y-82321110D01*
X110432182Y-82321114D01*
X110432183Y-82321115D01*
X110497080Y-82477789D01*
X110591295Y-82618792D01*
X110711208Y-82738705D01*
X110852211Y-82832920D01*
X111008885Y-82897817D01*
X111008890Y-82897818D01*
X111008889Y-82897818D01*
X111152096Y-82926302D01*
X111152095Y-82926302D01*
X111155955Y-82927069D01*
X111175203Y-82930899D01*
X111175206Y-82930899D01*
X111175209Y-82930900D01*
X111175210Y-82930900D01*
X111344790Y-82930900D01*
X111344791Y-82930900D01*
X111511115Y-82897817D01*
X111667789Y-82832920D01*
X111808792Y-82738705D01*
X111928705Y-82618792D01*
X112022920Y-82477789D01*
X112087817Y-82321115D01*
X112120900Y-82154791D01*
X112120900Y-81985209D01*
X112120899Y-81985203D01*
X112939100Y-81985203D01*
X112939100Y-81992925D01*
X112939100Y-82154796D01*
X112959001Y-82254843D01*
X112959001Y-82254844D01*
X112972181Y-82321110D01*
X112972182Y-82321114D01*
X112972183Y-82321115D01*
X113037080Y-82477789D01*
X113131295Y-82618792D01*
X113251208Y-82738705D01*
X113392211Y-82832920D01*
X113548885Y-82897817D01*
X113548890Y-82897818D01*
X113548889Y-82897818D01*
X113692096Y-82926302D01*
X113692095Y-82926302D01*
X113695955Y-82927069D01*
X113715203Y-82930899D01*
X113715206Y-82930899D01*
X113715209Y-82930900D01*
X113715210Y-82930900D01*
X113884790Y-82930900D01*
X113884791Y-82930900D01*
X114051115Y-82897817D01*
X114207789Y-82832920D01*
X114348792Y-82738705D01*
X114468705Y-82618792D01*
X114562920Y-82477789D01*
X114627817Y-82321115D01*
X114660900Y-82154791D01*
X114660900Y-81985209D01*
X114627817Y-81818885D01*
X114562920Y-81662211D01*
X114468705Y-81521208D01*
X114348792Y-81401295D01*
X114207789Y-81307080D01*
X114051115Y-81242183D01*
X114003593Y-81232730D01*
X114003592Y-81232729D01*
X113884801Y-81209100D01*
X113884796Y-81209100D01*
X113884791Y-81209100D01*
X113715209Y-81209100D01*
X113715203Y-81209100D01*
X113715197Y-81209100D01*
X113572643Y-81237456D01*
X113572642Y-81237455D01*
X113548890Y-81242181D01*
X113548881Y-81242184D01*
X113462896Y-81277801D01*
X113462895Y-81277800D01*
X113392213Y-81307078D01*
X113392209Y-81307080D01*
X113251204Y-81401297D01*
X113251199Y-81401301D01*
X113131301Y-81521199D01*
X113131297Y-81521204D01*
X113044908Y-81650494D01*
X113044906Y-81650499D01*
X113037081Y-81662209D01*
X113037078Y-81662214D01*
X112990505Y-81774652D01*
X112980670Y-81798397D01*
X112972184Y-81818883D01*
X112972183Y-81818886D01*
X112939100Y-81985203D01*
X112120899Y-81985203D01*
X112087817Y-81818885D01*
X112022920Y-81662211D01*
X111928705Y-81521208D01*
X111808792Y-81401295D01*
X111667789Y-81307080D01*
X111511115Y-81242183D01*
X111463593Y-81232730D01*
X111463592Y-81232729D01*
X111344801Y-81209100D01*
X111344796Y-81209100D01*
X111344791Y-81209100D01*
X111175209Y-81209100D01*
X111175203Y-81209100D01*
X111175197Y-81209100D01*
X111032643Y-81237456D01*
X111032642Y-81237455D01*
X111008890Y-81242181D01*
X111008881Y-81242184D01*
X110922896Y-81277801D01*
X110922895Y-81277800D01*
X110852213Y-81307078D01*
X110852209Y-81307080D01*
X110711204Y-81401297D01*
X110711199Y-81401301D01*
X110591301Y-81521199D01*
X110591297Y-81521204D01*
X110504908Y-81650494D01*
X110504906Y-81650499D01*
X110497081Y-81662209D01*
X110497078Y-81662214D01*
X110450505Y-81774652D01*
X110440670Y-81798397D01*
X110432184Y-81818883D01*
X110432183Y-81818886D01*
X110399100Y-81985203D01*
X109580899Y-81985203D01*
X109547817Y-81818885D01*
X109482920Y-81662211D01*
X109388705Y-81521208D01*
X109268792Y-81401295D01*
X109127789Y-81307080D01*
X108971115Y-81242183D01*
X108923593Y-81232730D01*
X108923592Y-81232729D01*
X108804801Y-81209100D01*
X108804796Y-81209100D01*
X108804791Y-81209100D01*
X108635209Y-81209100D01*
X108635203Y-81209100D01*
X108635197Y-81209100D01*
X108492643Y-81237456D01*
X108492642Y-81237455D01*
X108468890Y-81242181D01*
X108468881Y-81242184D01*
X108382896Y-81277801D01*
X108382895Y-81277800D01*
X108312213Y-81307078D01*
X108312209Y-81307080D01*
X108171204Y-81401297D01*
X108171199Y-81401301D01*
X108051301Y-81521199D01*
X108051297Y-81521204D01*
X107964908Y-81650494D01*
X107964906Y-81650499D01*
X107957081Y-81662209D01*
X107957078Y-81662214D01*
X107910505Y-81774652D01*
X107900670Y-81798397D01*
X107892184Y-81818883D01*
X107892183Y-81818886D01*
X107859100Y-81985203D01*
X107040899Y-81985203D01*
X107007817Y-81818885D01*
X106942920Y-81662211D01*
X106848705Y-81521208D01*
X106728792Y-81401295D01*
X106587789Y-81307080D01*
X106431115Y-81242183D01*
X106383593Y-81232730D01*
X106383592Y-81232729D01*
X106264801Y-81209100D01*
X106264796Y-81209100D01*
X106264791Y-81209100D01*
X106095209Y-81209100D01*
X106095203Y-81209100D01*
X106095197Y-81209100D01*
X105952643Y-81237456D01*
X105952642Y-81237455D01*
X105928890Y-81242181D01*
X105928881Y-81242184D01*
X105842896Y-81277801D01*
X105842895Y-81277800D01*
X105772213Y-81307078D01*
X105772209Y-81307080D01*
X105631204Y-81401297D01*
X105631199Y-81401301D01*
X105511301Y-81521199D01*
X105511297Y-81521204D01*
X105424908Y-81650494D01*
X105424906Y-81650499D01*
X105417081Y-81662209D01*
X105417078Y-81662214D01*
X105370505Y-81774652D01*
X105360670Y-81798397D01*
X105352184Y-81818883D01*
X105352183Y-81818886D01*
X105319100Y-81985203D01*
X91254723Y-81985203D01*
X91249950Y-81961209D01*
X91249312Y-81957741D01*
X91248730Y-81954313D01*
X91248189Y-81950838D01*
X91243369Y-81916699D01*
X91243369Y-81916698D01*
X91170607Y-81401297D01*
X91153418Y-81279544D01*
X91152975Y-81276048D01*
X91152577Y-81272515D01*
X91152231Y-81269000D01*
X91149969Y-81242182D01*
X91130706Y-81013811D01*
X91095249Y-80593452D01*
X91095008Y-80590031D01*
X91094805Y-80586401D01*
X91094661Y-80582955D01*
X91091361Y-80465349D01*
X91075649Y-79905310D01*
X91075599Y-79901776D01*
X91075599Y-79898222D01*
X91075649Y-79894686D01*
X91076111Y-79878230D01*
X91079179Y-79768875D01*
X92789500Y-79768875D01*
X92789500Y-80031123D01*
X92823728Y-80291112D01*
X92823845Y-80291814D01*
X92824588Y-80294319D01*
X92836600Y-80339147D01*
X92891602Y-80544419D01*
X92911199Y-80591730D01*
X92992276Y-80787469D01*
X92994011Y-80790258D01*
X93123069Y-81013794D01*
X93123081Y-81013811D01*
X93194510Y-81106898D01*
X93282710Y-81221842D01*
X93282721Y-81221854D01*
X93282754Y-81221889D01*
X93468109Y-81407244D01*
X93468126Y-81407260D01*
X93468136Y-81407270D01*
X93468157Y-81407289D01*
X93525428Y-81451235D01*
X93658704Y-81553502D01*
X93676194Y-81566922D01*
X93676200Y-81566926D01*
X93676204Y-81566928D01*
X93676204Y-81566929D01*
X93899799Y-81696021D01*
X93899800Y-81696021D01*
X93903304Y-81698044D01*
X93903436Y-81698098D01*
X94145581Y-81798398D01*
X94398884Y-81866270D01*
X94398886Y-81866270D01*
X94398890Y-81866270D01*
X94398891Y-81866271D01*
X94423895Y-81869562D01*
X94423899Y-81869564D01*
X94423900Y-81869563D01*
X94658880Y-81900500D01*
X94658887Y-81900500D01*
X94921113Y-81900500D01*
X94921120Y-81900500D01*
X95181116Y-81866270D01*
X95434419Y-81798398D01*
X95676697Y-81698043D01*
X95903803Y-81566924D01*
X96111851Y-81407282D01*
X96297282Y-81221851D01*
X96456924Y-81013803D01*
X96588043Y-80786697D01*
X96688398Y-80544419D01*
X96756270Y-80291116D01*
X96790500Y-80031120D01*
X96790500Y-79768880D01*
X96771614Y-79625428D01*
X117549500Y-79625428D01*
X117549500Y-79874570D01*
X117582014Y-80121551D01*
X117582043Y-80121688D01*
X117582282Y-80122550D01*
X117646496Y-80362202D01*
X117646497Y-80362204D01*
X117646498Y-80362207D01*
X117740850Y-80589993D01*
X117742156Y-80593145D01*
X117743890Y-80595934D01*
X117866393Y-80808116D01*
X117866619Y-80808454D01*
X117867574Y-80809658D01*
X117867623Y-80809722D01*
X117867625Y-80809724D01*
X117867745Y-80809880D01*
X117868560Y-80810941D01*
X118018062Y-81005776D01*
X118018066Y-81005780D01*
X118018071Y-81005786D01*
X118018953Y-81006668D01*
X118018957Y-81006673D01*
X118194202Y-81181918D01*
X118194223Y-81181937D01*
X118194224Y-81181938D01*
X118387355Y-81330132D01*
X118391876Y-81333601D01*
X118391878Y-81333602D01*
X118604105Y-81456132D01*
X118606374Y-81457441D01*
X118607614Y-81458157D01*
X118607615Y-81458157D01*
X118607624Y-81458162D01*
X118607627Y-81458164D01*
X118837793Y-81553502D01*
X119078435Y-81617982D01*
X119078439Y-81617982D01*
X119078441Y-81617983D01*
X119134287Y-81625335D01*
X119325435Y-81650500D01*
X119325442Y-81650500D01*
X119574558Y-81650500D01*
X119574565Y-81650500D01*
X119819879Y-81618204D01*
X119821558Y-81617983D01*
X119821558Y-81617982D01*
X119821565Y-81617982D01*
X120062207Y-81553502D01*
X120292373Y-81458164D01*
X120508127Y-81333599D01*
X120705776Y-81181938D01*
X120785506Y-81102208D01*
X136114500Y-81102208D01*
X136114500Y-81277792D01*
X136135004Y-81407244D01*
X136141969Y-81451219D01*
X136141974Y-81451235D01*
X136196181Y-81618067D01*
X136196222Y-81618193D01*
X136196228Y-81618207D01*
X136260912Y-81745157D01*
X136275941Y-81774652D01*
X136379147Y-81916703D01*
X136503295Y-82040851D01*
X136503298Y-82040853D01*
X136576861Y-82094300D01*
X136645351Y-82144061D01*
X136801797Y-82223774D01*
X136968787Y-82278032D01*
X137142208Y-82305500D01*
X137142210Y-82305500D01*
X137317790Y-82305500D01*
X137317792Y-82305500D01*
X137491213Y-82278032D01*
X137658203Y-82223774D01*
X137814649Y-82144061D01*
X137956699Y-82040855D01*
X138080855Y-81916699D01*
X138184061Y-81774649D01*
X138263774Y-81618203D01*
X138318032Y-81451213D01*
X138345500Y-81277792D01*
X138345500Y-81102208D01*
X138654500Y-81102208D01*
X138654500Y-81277792D01*
X138675004Y-81407244D01*
X138681969Y-81451219D01*
X138681974Y-81451235D01*
X138736181Y-81618067D01*
X138736222Y-81618193D01*
X138736228Y-81618207D01*
X138800912Y-81745157D01*
X138815941Y-81774652D01*
X138919147Y-81916703D01*
X139043295Y-82040851D01*
X139043298Y-82040853D01*
X139116861Y-82094300D01*
X139185351Y-82144061D01*
X139341797Y-82223774D01*
X139508787Y-82278032D01*
X139682208Y-82305500D01*
X139682210Y-82305500D01*
X139857790Y-82305500D01*
X139857792Y-82305500D01*
X140031213Y-82278032D01*
X140198203Y-82223774D01*
X140354649Y-82144061D01*
X140496699Y-82040855D01*
X140620855Y-81916699D01*
X140724061Y-81774649D01*
X140803774Y-81618203D01*
X140858032Y-81451213D01*
X140885500Y-81277792D01*
X140885500Y-81102208D01*
X140858032Y-80928787D01*
X140803774Y-80761797D01*
X140724061Y-80605351D01*
X140622343Y-80465349D01*
X140621266Y-80463803D01*
X140620847Y-80463291D01*
X140496703Y-80339147D01*
X140430583Y-80291108D01*
X140354652Y-80235941D01*
X140354651Y-80235940D01*
X140354649Y-80235939D01*
X140348438Y-80232774D01*
X140348436Y-80232773D01*
X140198202Y-80156225D01*
X140044953Y-80106432D01*
X140044952Y-80106431D01*
X140031217Y-80101969D01*
X140031215Y-80101968D01*
X140031213Y-80101968D01*
X140016602Y-80099653D01*
X140016599Y-80099653D01*
X139939174Y-80087390D01*
X139857792Y-80074500D01*
X139857790Y-80074500D01*
X139682210Y-80074500D01*
X139682208Y-80074500D01*
X139630135Y-80082747D01*
X139521934Y-80099885D01*
X139521922Y-80099887D01*
X139508787Y-80101968D01*
X139508785Y-80101968D01*
X139508782Y-80101969D01*
X139502142Y-80104126D01*
X139502130Y-80104129D01*
X139374835Y-80145490D01*
X139341801Y-80156224D01*
X139341799Y-80156225D01*
X139341795Y-80156226D01*
X139185343Y-80235943D01*
X139043295Y-80339147D01*
X138919147Y-80463295D01*
X138815943Y-80605343D01*
X138736226Y-80761795D01*
X138736225Y-80761799D01*
X138684129Y-80922130D01*
X138684126Y-80922142D01*
X138681969Y-80928782D01*
X138681968Y-80928785D01*
X138681968Y-80928787D01*
X138679887Y-80941922D01*
X138679885Y-80941934D01*
X138669396Y-81008160D01*
X138654500Y-81102208D01*
X138345500Y-81102208D01*
X138318032Y-80928787D01*
X138263774Y-80761797D01*
X138184061Y-80605351D01*
X138082343Y-80465349D01*
X138081266Y-80463803D01*
X138080847Y-80463291D01*
X137956703Y-80339147D01*
X137890583Y-80291108D01*
X137814652Y-80235941D01*
X137814651Y-80235940D01*
X137814649Y-80235939D01*
X137808438Y-80232774D01*
X137808436Y-80232773D01*
X137658202Y-80156225D01*
X137504953Y-80106432D01*
X137504952Y-80106431D01*
X137491217Y-80101969D01*
X137491215Y-80101968D01*
X137491213Y-80101968D01*
X137476602Y-80099653D01*
X137476599Y-80099653D01*
X137399174Y-80087390D01*
X137317792Y-80074500D01*
X137317790Y-80074500D01*
X137142210Y-80074500D01*
X137142208Y-80074500D01*
X137090135Y-80082747D01*
X136981934Y-80099885D01*
X136981922Y-80099887D01*
X136968787Y-80101968D01*
X136968785Y-80101968D01*
X136968782Y-80101969D01*
X136962142Y-80104126D01*
X136962130Y-80104129D01*
X136834835Y-80145490D01*
X136801801Y-80156224D01*
X136801799Y-80156225D01*
X136801795Y-80156226D01*
X136645343Y-80235943D01*
X136503295Y-80339147D01*
X136379147Y-80463295D01*
X136275943Y-80605343D01*
X136196226Y-80761795D01*
X136196225Y-80761799D01*
X136196224Y-80761801D01*
X136180654Y-80809722D01*
X136142123Y-80928307D01*
X136141970Y-80928771D01*
X136140502Y-80937817D01*
X136140500Y-80938043D01*
X136140431Y-80938485D01*
X136114500Y-81102208D01*
X120785506Y-81102208D01*
X120786857Y-81100857D01*
X120879553Y-81008162D01*
X120881928Y-81005786D01*
X120881938Y-81005776D01*
X121033599Y-80808127D01*
X121158164Y-80592373D01*
X121253502Y-80362207D01*
X121317982Y-80121565D01*
X121320278Y-80104129D01*
X121329890Y-80031113D01*
X121350500Y-79874565D01*
X121350500Y-79625435D01*
X121317982Y-79378435D01*
X121253502Y-79137793D01*
X121158164Y-78907627D01*
X121158158Y-78907618D01*
X121158157Y-78907614D01*
X121156797Y-78905259D01*
X121156629Y-78904908D01*
X121156142Y-78904123D01*
X121033603Y-78691880D01*
X121033600Y-78691875D01*
X121033599Y-78691873D01*
X120881938Y-78494224D01*
X120881936Y-78494222D01*
X120881930Y-78494214D01*
X120705804Y-78318088D01*
X120705794Y-78318079D01*
X120705786Y-78318071D01*
X120705780Y-78318066D01*
X120705776Y-78318062D01*
X120705751Y-78318043D01*
X120509724Y-78167625D01*
X120508461Y-78166623D01*
X120508116Y-78166393D01*
X120292395Y-78041847D01*
X120292386Y-78041842D01*
X120292384Y-78041841D01*
X120292380Y-78041839D01*
X120292377Y-78041838D01*
X120292373Y-78041836D01*
X120062207Y-77946498D01*
X120062204Y-77946497D01*
X120062202Y-77946496D01*
X119822550Y-77882282D01*
X119821688Y-77882043D01*
X119821551Y-77882014D01*
X119574570Y-77849500D01*
X119574567Y-77849500D01*
X119574565Y-77849500D01*
X119325435Y-77849500D01*
X119325432Y-77849500D01*
X119325428Y-77849500D01*
X119078448Y-77882014D01*
X118885451Y-77933728D01*
X118885450Y-77933727D01*
X118837797Y-77946496D01*
X118704761Y-78001602D01*
X118607623Y-78041837D01*
X118607614Y-78041841D01*
X118607609Y-78041844D01*
X118391870Y-78166400D01*
X118194247Y-78318043D01*
X118194208Y-78318074D01*
X118018074Y-78494208D01*
X118018043Y-78494247D01*
X117866400Y-78691870D01*
X117741844Y-78907609D01*
X117741841Y-78907614D01*
X117741837Y-78907623D01*
X117646494Y-79137803D01*
X117646455Y-79137921D01*
X117646227Y-79138803D01*
X117582014Y-79378448D01*
X117549500Y-79625428D01*
X96771614Y-79625428D01*
X96756270Y-79508884D01*
X96688398Y-79255581D01*
X96588043Y-79013303D01*
X96588037Y-79013294D01*
X96588036Y-79013290D01*
X96586676Y-79010935D01*
X96586508Y-79010584D01*
X96586021Y-79009799D01*
X96456928Y-78786204D01*
X96456926Y-78786200D01*
X96456922Y-78786194D01*
X96297289Y-78578157D01*
X96297270Y-78578136D01*
X96297260Y-78578126D01*
X96297244Y-78578109D01*
X96111889Y-78392754D01*
X96111871Y-78392737D01*
X96111863Y-78392729D01*
X96111842Y-78392710D01*
X96014571Y-78318071D01*
X95903811Y-78233081D01*
X95903794Y-78233070D01*
X95903794Y-78233069D01*
X95676719Y-78101968D01*
X95676710Y-78101963D01*
X95676708Y-78101962D01*
X95676704Y-78101960D01*
X95676701Y-78101959D01*
X95676697Y-78101957D01*
X95434419Y-78001602D01*
X95301713Y-77966043D01*
X95184319Y-77934588D01*
X95181814Y-77933845D01*
X95181112Y-77933728D01*
X94921123Y-77899500D01*
X94921121Y-77899500D01*
X94921120Y-77899500D01*
X94658880Y-77899500D01*
X94658878Y-77899500D01*
X94658875Y-77899500D01*
X94398897Y-77933726D01*
X94145581Y-78001602D01*
X93903299Y-78101958D01*
X93903290Y-78101962D01*
X93903285Y-78101965D01*
X93676204Y-78233069D01*
X93676204Y-78233070D01*
X93676187Y-78233081D01*
X93468173Y-78392697D01*
X93468144Y-78392721D01*
X93468109Y-78392754D01*
X93282754Y-78578109D01*
X93282721Y-78578144D01*
X93282697Y-78578173D01*
X93123081Y-78786187D01*
X93123070Y-78786204D01*
X93123069Y-78786204D01*
X92992271Y-79012754D01*
X92992267Y-79012762D01*
X92991963Y-79013290D01*
X92991958Y-79013301D01*
X92991957Y-79013303D01*
X92940820Y-79136760D01*
X92940390Y-79137797D01*
X92891602Y-79255581D01*
X92823726Y-79508897D01*
X92789500Y-79768875D01*
X91079179Y-79768875D01*
X91079394Y-79761219D01*
X91094661Y-79217051D01*
X91094809Y-79213524D01*
X91095005Y-79210032D01*
X91095253Y-79206503D01*
X91120168Y-78911124D01*
X91152231Y-78530987D01*
X91152576Y-78527482D01*
X91152974Y-78523950D01*
X91153419Y-78520445D01*
X91153421Y-78520437D01*
X91248190Y-77849153D01*
X91248730Y-77845685D01*
X91249319Y-77842219D01*
X91249959Y-77838747D01*
X91382218Y-77173837D01*
X91382945Y-77170426D01*
X91383742Y-77166934D01*
X91384565Y-77163554D01*
X91504491Y-76698642D01*
X91553903Y-76507085D01*
X91554829Y-76503696D01*
X91555059Y-76502900D01*
X91555803Y-76500315D01*
X91556827Y-76496940D01*
X91562594Y-76478847D01*
X91618655Y-76302952D01*
X91762711Y-75850981D01*
X91763821Y-75847667D01*
X91765008Y-75844277D01*
X91766201Y-75841019D01*
X91859966Y-75595382D01*
X92007989Y-75207599D01*
X92009237Y-75204467D01*
X92010605Y-75201161D01*
X92011975Y-75197979D01*
X92288926Y-74579056D01*
X92290371Y-74575945D01*
X92291943Y-74572682D01*
X92293476Y-74569611D01*
X92311463Y-74534796D01*
X92399078Y-74365199D01*
X105319100Y-74365199D01*
X105319100Y-74365203D01*
X105319100Y-74534796D01*
X105328790Y-74583509D01*
X105352183Y-74701115D01*
X105417080Y-74857789D01*
X105511295Y-74998792D01*
X105631208Y-75118705D01*
X105772211Y-75212920D01*
X105928885Y-75277817D01*
X105928890Y-75277818D01*
X105928889Y-75277818D01*
X106072096Y-75306302D01*
X106072095Y-75306302D01*
X106075955Y-75307069D01*
X106095203Y-75310899D01*
X106095206Y-75310899D01*
X106095209Y-75310900D01*
X106095210Y-75310900D01*
X106264790Y-75310900D01*
X106264791Y-75310900D01*
X106431115Y-75277817D01*
X106587789Y-75212920D01*
X106728792Y-75118705D01*
X106848705Y-74998792D01*
X106942920Y-74857789D01*
X107007817Y-74701115D01*
X107032080Y-74579132D01*
X107040900Y-74534794D01*
X107040900Y-74368082D01*
X107040900Y-74365209D01*
X107040898Y-74365199D01*
X107859100Y-74365199D01*
X107859100Y-74365203D01*
X107859100Y-74534796D01*
X107868790Y-74583509D01*
X107892183Y-74701115D01*
X107957080Y-74857789D01*
X108051295Y-74998792D01*
X108171208Y-75118705D01*
X108312211Y-75212920D01*
X108468885Y-75277817D01*
X108468890Y-75277818D01*
X108468889Y-75277818D01*
X108612096Y-75306302D01*
X108612095Y-75306302D01*
X108615955Y-75307069D01*
X108635203Y-75310899D01*
X108635206Y-75310899D01*
X108635209Y-75310900D01*
X108635210Y-75310900D01*
X108804790Y-75310900D01*
X108804791Y-75310900D01*
X108971115Y-75277817D01*
X109127789Y-75212920D01*
X109268792Y-75118705D01*
X109388705Y-74998792D01*
X109482920Y-74857789D01*
X109547817Y-74701115D01*
X109572080Y-74579132D01*
X109580900Y-74534794D01*
X109580900Y-74368082D01*
X109580900Y-74365209D01*
X109580898Y-74365199D01*
X110399100Y-74365199D01*
X110399100Y-74365203D01*
X110399100Y-74534796D01*
X110408790Y-74583509D01*
X110432183Y-74701115D01*
X110497080Y-74857789D01*
X110591295Y-74998792D01*
X110711208Y-75118705D01*
X110852211Y-75212920D01*
X111008885Y-75277817D01*
X111008890Y-75277818D01*
X111008889Y-75277818D01*
X111152096Y-75306302D01*
X111152095Y-75306302D01*
X111155955Y-75307069D01*
X111175203Y-75310899D01*
X111175206Y-75310899D01*
X111175209Y-75310900D01*
X111175210Y-75310900D01*
X111344790Y-75310900D01*
X111344791Y-75310900D01*
X111511115Y-75277817D01*
X111667789Y-75212920D01*
X111808792Y-75118705D01*
X111928705Y-74998792D01*
X112022920Y-74857789D01*
X112087817Y-74701115D01*
X112112080Y-74579132D01*
X112120900Y-74534794D01*
X112120900Y-74365208D01*
X112120028Y-74360828D01*
X112120026Y-74360820D01*
X112116302Y-74342096D01*
X112114310Y-74332082D01*
X112087818Y-74198889D01*
X112087817Y-74198886D01*
X112087817Y-74198885D01*
X112022920Y-74042211D01*
X111928705Y-73901208D01*
X111808792Y-73781295D01*
X111791657Y-73769846D01*
X112939100Y-73769846D01*
X112939100Y-75130151D01*
X112940307Y-75136218D01*
X112950732Y-75188628D01*
X112950732Y-75188630D01*
X112963486Y-75207717D01*
X112995048Y-75254952D01*
X113061369Y-75299267D01*
X113119852Y-75310900D01*
X113119853Y-75310900D01*
X114480147Y-75310900D01*
X114480148Y-75310900D01*
X114538631Y-75299267D01*
X114604952Y-75254952D01*
X114649267Y-75188631D01*
X114660900Y-75130148D01*
X114660900Y-73769852D01*
X114649267Y-73711369D01*
X114604952Y-73645048D01*
X114604951Y-73645047D01*
X114538634Y-73600734D01*
X114538630Y-73600732D01*
X114480152Y-73589100D01*
X114480150Y-73589100D01*
X114480148Y-73589100D01*
X113119852Y-73589100D01*
X113119849Y-73589100D01*
X113119846Y-73589100D01*
X113061371Y-73600732D01*
X113061368Y-73600733D01*
X113061366Y-73600733D01*
X113061362Y-73600736D01*
X112995047Y-73645047D01*
X112950736Y-73711362D01*
X112950732Y-73711371D01*
X112939100Y-73769846D01*
X111791657Y-73769846D01*
X111667789Y-73687080D01*
X111511115Y-73622183D01*
X111463593Y-73612730D01*
X111463592Y-73612729D01*
X111344801Y-73589100D01*
X111344796Y-73589100D01*
X111344791Y-73589100D01*
X111175209Y-73589100D01*
X111175203Y-73589100D01*
X111175197Y-73589100D01*
X111032643Y-73617456D01*
X111032642Y-73617455D01*
X111008890Y-73622181D01*
X111008881Y-73622184D01*
X110881374Y-73675000D01*
X110852210Y-73687080D01*
X110852209Y-73687080D01*
X110711204Y-73781297D01*
X110711199Y-73781301D01*
X110591301Y-73901199D01*
X110591297Y-73901204D01*
X110518804Y-74009699D01*
X110497080Y-74042211D01*
X110433931Y-74194666D01*
X110432186Y-74198877D01*
X110432183Y-74198886D01*
X110399100Y-74365199D01*
X109580898Y-74365199D01*
X109580027Y-74360822D01*
X109576302Y-74342096D01*
X109574310Y-74332082D01*
X109547818Y-74198889D01*
X109547817Y-74198886D01*
X109547817Y-74198885D01*
X109482920Y-74042211D01*
X109388705Y-73901208D01*
X109268792Y-73781295D01*
X109127789Y-73687080D01*
X108971115Y-73622183D01*
X108923593Y-73612730D01*
X108923592Y-73612729D01*
X108804801Y-73589100D01*
X108804796Y-73589100D01*
X108804791Y-73589100D01*
X108635209Y-73589100D01*
X108635203Y-73589100D01*
X108635197Y-73589100D01*
X108492643Y-73617456D01*
X108492642Y-73617455D01*
X108468890Y-73622181D01*
X108468881Y-73622184D01*
X108341374Y-73675000D01*
X108312210Y-73687080D01*
X108312209Y-73687080D01*
X108171204Y-73781297D01*
X108171199Y-73781301D01*
X108051301Y-73901199D01*
X108051297Y-73901204D01*
X107978804Y-74009699D01*
X107957080Y-74042211D01*
X107893931Y-74194666D01*
X107892186Y-74198877D01*
X107892183Y-74198886D01*
X107859100Y-74365199D01*
X107040898Y-74365199D01*
X107040027Y-74360822D01*
X107036302Y-74342096D01*
X107034310Y-74332082D01*
X107007818Y-74198889D01*
X107007817Y-74198886D01*
X107007817Y-74198885D01*
X106942920Y-74042211D01*
X106848705Y-73901208D01*
X106728792Y-73781295D01*
X106587789Y-73687080D01*
X106431115Y-73622183D01*
X106383593Y-73612730D01*
X106383592Y-73612729D01*
X106264801Y-73589100D01*
X106264796Y-73589100D01*
X106264791Y-73589100D01*
X106095209Y-73589100D01*
X106095203Y-73589100D01*
X106095197Y-73589100D01*
X105952643Y-73617456D01*
X105952642Y-73617455D01*
X105928890Y-73622181D01*
X105928881Y-73622184D01*
X105801374Y-73675000D01*
X105772210Y-73687080D01*
X105772209Y-73687080D01*
X105631204Y-73781297D01*
X105631199Y-73781301D01*
X105511301Y-73901199D01*
X105511297Y-73901204D01*
X105438804Y-74009699D01*
X105417080Y-74042211D01*
X105353931Y-74194666D01*
X105352186Y-74198877D01*
X105352183Y-74198886D01*
X105319100Y-74365199D01*
X92399078Y-74365199D01*
X92604656Y-73967263D01*
X92606302Y-73964185D01*
X92608041Y-73961037D01*
X92609777Y-73958002D01*
X92609778Y-73958001D01*
X92954222Y-73374082D01*
X92956010Y-73371145D01*
X92957899Y-73368138D01*
X92959808Y-73365194D01*
X93006451Y-73295388D01*
X93336505Y-72801427D01*
X93338458Y-72798592D01*
X93340517Y-72795689D01*
X93342523Y-72792943D01*
X93750269Y-72251144D01*
X93752335Y-72248476D01*
X93754609Y-72245625D01*
X93756770Y-72242993D01*
X94194302Y-71724850D01*
X94196502Y-71722319D01*
X94198889Y-71719649D01*
X94201178Y-71717158D01*
X94667049Y-71224391D01*
X94669442Y-71221931D01*
X94671931Y-71219442D01*
X94674391Y-71217049D01*
X95167158Y-70751178D01*
X95169649Y-70748889D01*
X95172319Y-70746502D01*
X95174850Y-70744302D01*
X95692993Y-70306770D01*
X95695625Y-70304609D01*
X95698476Y-70302335D01*
X95701144Y-70300269D01*
X96242943Y-69892523D01*
X96245691Y-69890516D01*
X96248621Y-69888437D01*
X96251427Y-69886505D01*
X96815205Y-69509800D01*
X96818147Y-69507894D01*
X96821145Y-69506010D01*
X96824082Y-69504222D01*
X97408019Y-69159766D01*
X97411039Y-69158041D01*
X97414197Y-69156294D01*
X97417233Y-69154671D01*
X98019647Y-68843457D01*
X98022678Y-68841945D01*
X98025967Y-68840360D01*
X98029054Y-68838926D01*
X98647979Y-68561975D01*
X98651182Y-68560597D01*
X98654471Y-68559234D01*
X98657660Y-68557966D01*
X99291102Y-68316168D01*
X99294275Y-68315007D01*
X99297704Y-68313807D01*
X99300979Y-68312712D01*
X99946976Y-68106815D01*
X99950302Y-68105806D01*
X99953758Y-68104811D01*
X99957103Y-68103898D01*
X100613582Y-67934558D01*
X100616946Y-67933740D01*
X100620426Y-67932945D01*
X100623837Y-67932218D01*
X101288781Y-67799952D01*
X101292219Y-67799319D01*
X101295685Y-67798730D01*
X101299153Y-67798190D01*
X101970445Y-67703418D01*
X101973932Y-67702976D01*
X101975300Y-67702821D01*
X101977489Y-67702575D01*
X101980945Y-67702234D01*
X102656512Y-67645252D01*
X102660019Y-67645005D01*
X102663538Y-67644808D01*
X102667040Y-67644661D01*
X103347437Y-67625571D01*
X103348996Y-67625538D01*
X103350924Y-67625511D01*
X103352616Y-67625500D01*
X173004855Y-67625500D01*
X173040325Y-67630596D01*
G37*
%TD.AperFunction*%
%TD*%
%TA.AperFunction,Conductor*%
%TO.N,GNDPWR*%
G36*
X174992126Y-71720624D02*
G01*
X175038730Y-71772680D01*
X175050783Y-71825236D01*
X175090531Y-78174724D01*
X175071266Y-78241885D01*
X175018750Y-78287970D01*
X174966533Y-78299500D01*
X172080247Y-78299500D01*
X172021770Y-78311131D01*
X172021769Y-78311132D01*
X171955447Y-78355447D01*
X171911132Y-78421769D01*
X171911131Y-78421770D01*
X171899500Y-78480247D01*
X171899500Y-79819752D01*
X171911131Y-79878229D01*
X171911132Y-79878230D01*
X171955447Y-79944552D01*
X172021769Y-79988867D01*
X172021770Y-79988868D01*
X172080247Y-80000499D01*
X172080250Y-80000500D01*
X174978733Y-80000500D01*
X175045772Y-80020185D01*
X175091527Y-80072989D01*
X175102731Y-80123724D01*
X175122046Y-83209285D01*
X175102781Y-83276446D01*
X175050265Y-83322531D01*
X174998824Y-83334059D01*
X163057064Y-83408812D01*
X163055217Y-83408809D01*
X161775694Y-83397753D01*
X161708827Y-83377490D01*
X161663530Y-83324293D01*
X161652765Y-83273813D01*
X161652736Y-83209285D01*
X161651733Y-80952155D01*
X169100000Y-80952155D01*
X169100000Y-81400000D01*
X169934314Y-81400000D01*
X169929920Y-81404394D01*
X169877259Y-81495606D01*
X169850000Y-81597339D01*
X169850000Y-81702661D01*
X169877259Y-81804394D01*
X169929920Y-81895606D01*
X169934314Y-81900000D01*
X169100000Y-81900000D01*
X169100000Y-82347844D01*
X169106401Y-82407372D01*
X169106403Y-82407379D01*
X169156645Y-82542086D01*
X169156649Y-82542093D01*
X169242809Y-82657187D01*
X169242812Y-82657190D01*
X169357906Y-82743350D01*
X169357913Y-82743354D01*
X169492620Y-82793596D01*
X169492627Y-82793598D01*
X169552155Y-82799999D01*
X169552172Y-82800000D01*
X170850000Y-82800000D01*
X170850000Y-82050000D01*
X171350000Y-82050000D01*
X171350000Y-82800000D01*
X172647828Y-82800000D01*
X172647844Y-82799999D01*
X172707372Y-82793598D01*
X172707379Y-82793596D01*
X172842086Y-82743354D01*
X172842093Y-82743350D01*
X172957187Y-82657190D01*
X172957190Y-82657187D01*
X173043350Y-82542093D01*
X173043354Y-82542086D01*
X173093596Y-82407379D01*
X173093598Y-82407372D01*
X173099999Y-82347844D01*
X173100000Y-82347827D01*
X173100000Y-81900000D01*
X172265686Y-81900000D01*
X172270080Y-81895606D01*
X172322741Y-81804394D01*
X172350000Y-81702661D01*
X172350000Y-81597339D01*
X172322741Y-81495606D01*
X172270080Y-81404394D01*
X172265686Y-81400000D01*
X173100000Y-81400000D01*
X173100000Y-80952172D01*
X173099999Y-80952155D01*
X173093598Y-80892627D01*
X173093596Y-80892620D01*
X173043354Y-80757913D01*
X173043350Y-80757906D01*
X172957190Y-80642812D01*
X172957187Y-80642809D01*
X172842093Y-80556649D01*
X172842086Y-80556645D01*
X172707379Y-80506403D01*
X172707372Y-80506401D01*
X172647844Y-80500000D01*
X171350000Y-80500000D01*
X171350000Y-81250000D01*
X170850000Y-81250000D01*
X170850000Y-80500000D01*
X169552155Y-80500000D01*
X169492627Y-80506401D01*
X169492620Y-80506403D01*
X169357913Y-80556645D01*
X169357906Y-80556649D01*
X169242812Y-80642809D01*
X169242809Y-80642812D01*
X169156649Y-80757906D01*
X169156645Y-80757913D01*
X169106403Y-80892620D01*
X169106401Y-80892627D01*
X169100000Y-80952155D01*
X161651733Y-80952155D01*
X161650191Y-77480311D01*
X161669846Y-77413265D01*
X161722629Y-77367487D01*
X161772581Y-77356268D01*
X167072211Y-77287498D01*
X167035134Y-74430247D01*
X167899500Y-74430247D01*
X167899500Y-78269752D01*
X167911131Y-78328229D01*
X167911132Y-78328230D01*
X167955447Y-78394552D01*
X168021769Y-78438867D01*
X168021770Y-78438868D01*
X168080247Y-78450499D01*
X168080250Y-78450500D01*
X168080252Y-78450500D01*
X169619750Y-78450500D01*
X169619751Y-78450499D01*
X169634568Y-78447552D01*
X169678229Y-78438868D01*
X169678229Y-78438867D01*
X169678231Y-78438867D01*
X169744552Y-78394552D01*
X169788867Y-78328231D01*
X169788867Y-78328229D01*
X169788868Y-78328229D01*
X169800499Y-78269752D01*
X169800500Y-78269750D01*
X169800500Y-74430249D01*
X169800499Y-74430247D01*
X169788868Y-74371770D01*
X169788867Y-74371769D01*
X169744552Y-74305447D01*
X169678230Y-74261132D01*
X169678229Y-74261131D01*
X169619752Y-74249500D01*
X169619748Y-74249500D01*
X168080252Y-74249500D01*
X168080247Y-74249500D01*
X168021770Y-74261131D01*
X168021769Y-74261132D01*
X167955447Y-74305447D01*
X167911132Y-74371769D01*
X167911131Y-74371770D01*
X167899500Y-74430247D01*
X167035134Y-74430247D01*
X167003000Y-71953964D01*
X167021813Y-71886678D01*
X167074019Y-71840242D01*
X167124981Y-71828374D01*
X174924778Y-71702028D01*
X174992126Y-71720624D01*
G37*
%TD.AperFunction*%
%TD*%
M02*
