%TF.GenerationSoftware,KiCad,Pcbnew,9.0.7*%
%TF.CreationDate,2026-04-29T13:42:31-04:00*%
%TF.ProjectId,CompassTag,436f6d70-6173-4735-9461-672e6b696361,rev?*%
%TF.SameCoordinates,Original*%
%TF.FileFunction,Soldermask,Bot*%
%TF.FilePolarity,Negative*%
%FSLAX46Y46*%
G04 Gerber Fmt 4.6, Leading zero omitted, Abs format (unit mm)*
G04 Created by KiCad (PCBNEW 9.0.7) date 2026-04-29 13:42:31*
%MOMM*%
%LPD*%
G01*
G04 APERTURE LIST*
G04 Aperture macros list*
%AMRoundRect*
0 Rectangle with rounded corners*
0 $1 Rounding radius*
0 $2 $3 $4 $5 $6 $7 $8 $9 X,Y pos of 4 corners*
0 Add a 4 corners polygon primitive as box body*
4,1,4,$2,$3,$4,$5,$6,$7,$8,$9,$2,$3,0*
0 Add four circle primitives for the rounded corners*
1,1,$1+$1,$2,$3*
1,1,$1+$1,$4,$5*
1,1,$1+$1,$6,$7*
1,1,$1+$1,$8,$9*
0 Add four rect primitives between the rounded corners*
20,1,$1+$1,$2,$3,$4,$5,0*
20,1,$1+$1,$4,$5,$6,$7,0*
20,1,$1+$1,$6,$7,$8,$9,0*
20,1,$1+$1,$8,$9,$2,$3,0*%
G04 Aperture macros list end*
%ADD10C,1.100000*%
%ADD11C,0.762000*%
%ADD12RoundRect,0.140000X0.170000X-0.140000X0.170000X0.140000X-0.170000X0.140000X-0.170000X-0.140000X0*%
%ADD13RoundRect,0.147500X-0.147500X-0.172500X0.147500X-0.172500X0.147500X0.172500X-0.147500X0.172500X0*%
%ADD14RoundRect,0.062500X0.062500X-0.375000X0.062500X0.375000X-0.062500X0.375000X-0.062500X-0.375000X0*%
%ADD15RoundRect,0.062500X0.375000X-0.062500X0.375000X0.062500X-0.375000X0.062500X-0.375000X-0.062500X0*%
%ADD16R,3.450000X3.450000*%
%ADD17RoundRect,0.100000X0.130000X0.100000X-0.130000X0.100000X-0.130000X-0.100000X0.130000X-0.100000X0*%
%ADD18C,0.228600*%
%ADD19RoundRect,0.225000X0.250000X-0.225000X0.250000X0.225000X-0.250000X0.225000X-0.250000X-0.225000X0*%
G04 APERTURE END LIST*
D10*
%TO.C,J303*%
X1380000Y1329000D03*
%TD*%
%TO.C,J304*%
X1480000Y7809000D03*
%TD*%
%TO.C,J301*%
X15200000Y1309000D03*
%TD*%
%TO.C,J302*%
X15200000Y7809000D03*
%TD*%
D11*
%TO.C,J201*%
X14765000Y3230000D03*
X16035000Y3230000D03*
X14765000Y4500000D03*
X16035000Y4500000D03*
X14765000Y5770000D03*
X16035000Y5770000D03*
%TD*%
D12*
%TO.C,C404*%
X11930000Y3429000D03*
X11930000Y4389000D03*
%TD*%
D13*
%TO.C,D401*%
X11530000Y1700000D03*
X12500000Y1700000D03*
%TD*%
D14*
%TO.C,U302*%
X9200000Y2096042D03*
X8700000Y2096042D03*
X8200000Y2096042D03*
X7700000Y2096042D03*
X7200000Y2096042D03*
X6700000Y2096042D03*
X6200000Y2096042D03*
X5700000Y2096042D03*
D15*
X5012500Y2783542D03*
X5012500Y3283542D03*
X5012500Y3783542D03*
X5012500Y4283542D03*
X5012500Y4783542D03*
X5012500Y5283542D03*
X5012500Y5783542D03*
X5012500Y6283542D03*
D14*
X5700000Y6971042D03*
X6200000Y6971042D03*
X6700000Y6971042D03*
X7200000Y6971042D03*
X7700000Y6971042D03*
X8200000Y6971042D03*
X8700000Y6971042D03*
X9200000Y6971042D03*
D15*
X9887500Y6283542D03*
X9887500Y5783542D03*
X9887500Y5283542D03*
X9887500Y4783542D03*
X9887500Y4283542D03*
X9887500Y3783542D03*
X9887500Y3283542D03*
X9887500Y2783542D03*
D16*
X7450000Y4533542D03*
%TD*%
D17*
%TO.C,C5*%
X2845000Y5525000D03*
X2205000Y5525000D03*
%TD*%
D18*
%TO.C,U2*%
X1768400Y3031600D03*
X2168400Y3031600D03*
X2568400Y3031600D03*
X2968400Y3031600D03*
X1768400Y3431600D03*
X2968400Y3431600D03*
X1768400Y3831600D03*
X2968400Y3831600D03*
X1768400Y4231600D03*
X2168400Y4231600D03*
X2968400Y4231600D03*
%TD*%
D17*
%TO.C,C7*%
X2795000Y6325000D03*
X2155000Y6325000D03*
%TD*%
D19*
%TO.C,C6*%
X13130000Y3384000D03*
X13130000Y4934000D03*
%TD*%
M02*
