M48
; DRILL file {KiCad 9.0.7} date 2026-04-29T13:42:31-0400
; FORMAT={-:-/ absolute / inch / decimal}
; #@! TF.CreationDate,2026-04-29T13:42:31-04:00
; #@! TF.GenerationSoftware,Kicad,Pcbnew,9.0.7
; #@! TF.FileFunction,Plated,1,2,PTH
FMAT,2
INCH
; #@! TA.AperFunction,Plated,PTH,ViaDrill
T1C0.0100
%
G90
G05
T1
X0.0512Y0.1378
X0.0591Y0.2087
X0.122Y0.0984
X0.126Y0.2717
X0.1457Y0.1811
X0.1466Y0.152
X0.1541Y0.2299
X0.1575Y0.0827
X0.1732Y0.2559
X0.1811Y0.0315
X0.2087Y0.2874
X0.2177Y0.0449
X0.2402Y0.1299
X0.2421Y0.232
X0.2677Y0.0556
X0.2677Y0.0276
X0.2958Y0.0445
X0.3237Y0.0471
X0.326Y0.1249
X0.3504Y0.315
X0.3614Y0.0421
X0.4094Y0.2913
X0.4126Y0.2484
X0.4221Y0.143
X0.4224Y0.2033
X0.4283Y0.1801
X0.437Y0.2244
X0.437Y0.0433
X0.4382Y0.1244
X0.4638Y0.2523
X0.5031Y0.2425
X0.5118Y0.0709
X0.6575Y0.2283
X0.6575Y0.126
M30
