%TF.GenerationSoftware,KiCad,Pcbnew,9.0.7*%
%TF.CreationDate,2026-04-29T13:42:31-04:00*%
%TF.ProjectId,CompassTag,436f6d70-6173-4735-9461-672e6b696361,rev?*%
%TF.SameCoordinates,Original*%
%TF.FileFunction,Copper,L2,Bot*%
%TF.FilePolarity,Positive*%
%FSLAX46Y46*%
G04 Gerber Fmt 4.6, Leading zero omitted, Abs format (unit mm)*
G04 Created by KiCad (PCBNEW 9.0.7) date 2026-04-29 13:42:31*
%MOMM*%
%LPD*%
G01*
G04 APERTURE LIST*
G04 Aperture macros list*
%AMRoundRect*
0 Rectangle with rounded corners*
0 $1 Rounding radius*
0 $2 $3 $4 $5 $6 $7 $8 $9 X,Y pos of 4 corners*
0 Add a 4 corners polygon primitive as box body*
4,1,4,$2,$3,$4,$5,$6,$7,$8,$9,$2,$3,0*
0 Add four circle primitives for the rounded corners*
1,1,$1+$1,$2,$3*
1,1,$1+$1,$4,$5*
1,1,$1+$1,$6,$7*
1,1,$1+$1,$8,$9*
0 Add four rect primitives between the rounded corners*
20,1,$1+$1,$2,$3,$4,$5,0*
20,1,$1+$1,$4,$5,$6,$7,0*
20,1,$1+$1,$6,$7,$8,$9,0*
20,1,$1+$1,$8,$9,$2,$3,0*%
G04 Aperture macros list end*
%TA.AperFunction,SMDPad,CuDef*%
%ADD10C,0.762000*%
%TD*%
%TA.AperFunction,SMDPad,CuDef*%
%ADD11RoundRect,0.140000X0.170000X-0.140000X0.170000X0.140000X-0.170000X0.140000X-0.170000X-0.140000X0*%
%TD*%
%TA.AperFunction,SMDPad,CuDef*%
%ADD12RoundRect,0.147500X-0.147500X-0.172500X0.147500X-0.172500X0.147500X0.172500X-0.147500X0.172500X0*%
%TD*%
%TA.AperFunction,SMDPad,CuDef*%
%ADD13RoundRect,0.062500X0.062500X-0.375000X0.062500X0.375000X-0.062500X0.375000X-0.062500X-0.375000X0*%
%TD*%
%TA.AperFunction,SMDPad,CuDef*%
%ADD14RoundRect,0.062500X0.375000X-0.062500X0.375000X0.062500X-0.375000X0.062500X-0.375000X-0.062500X0*%
%TD*%
%TA.AperFunction,HeatsinkPad*%
%ADD15R,3.450000X3.450000*%
%TD*%
%TA.AperFunction,SMDPad,CuDef*%
%ADD16RoundRect,0.100000X0.130000X0.100000X-0.130000X0.100000X-0.130000X-0.100000X0.130000X-0.100000X0*%
%TD*%
%TA.AperFunction,SMDPad,CuDef*%
%ADD17C,0.228600*%
%TD*%
%TA.AperFunction,SMDPad,CuDef*%
%ADD18RoundRect,0.225000X0.250000X-0.225000X0.250000X0.225000X-0.250000X0.225000X-0.250000X-0.225000X0*%
%TD*%
%TA.AperFunction,ViaPad*%
%ADD19C,0.457200*%
%TD*%
%TA.AperFunction,Conductor*%
%ADD20C,0.101600*%
%TD*%
%TA.AperFunction,Conductor*%
%ADD21C,0.152400*%
%TD*%
G04 APERTURE END LIST*
D10*
%TO.P,J201,1,Pin_1*%
%TO.N,VIN*%
X14765000Y3230000D03*
%TO.P,J201,2,Pin_2*%
%TO.N,VBAT*%
X16035000Y3230000D03*
%TO.P,J201,3,Pin_3*%
%TO.N,SWDIO*%
X14765000Y4500000D03*
%TO.P,J201,4,Pin_4*%
%TO.N,SWCLK*%
X16035000Y4500000D03*
%TO.P,J201,5,Pin_5*%
%TO.N,RST*%
X14765000Y5770000D03*
%TO.P,J201,6,Pin_6*%
%TO.N,GND*%
X16035000Y5770000D03*
%TD*%
D11*
%TO.P,C404,1*%
%TO.N,VIN*%
X11930000Y3429000D03*
%TO.P,C404,2*%
%TO.N,GND*%
X11930000Y4389000D03*
%TD*%
D12*
%TO.P,D401,1,K*%
%TO.N,VIN*%
X11530000Y1700000D03*
%TO.P,D401,2,A*%
%TO.N,VBAT*%
X12500000Y1700000D03*
%TD*%
D13*
%TO.P,U302,1,VDD*%
%TO.N,VIN*%
X9200000Y2096042D03*
%TO.P,U302,2,PC14*%
%TO.N,/clkout*%
X8700000Y2096042D03*
%TO.P,U302,3,PC15*%
%TO.N,unconnected-(U302-PC15-Pad3)*%
X8200000Y2096042D03*
%TO.P,U302,4,~{NRST}*%
%TO.N,Net-(Q501-C)*%
X7700000Y2096042D03*
%TO.P,U302,5,VDDA/VREF+*%
%TO.N,VIN*%
X7200000Y2096042D03*
%TO.P,U302,6,PA0*%
%TO.N,/WKUP1*%
X6700000Y2096042D03*
%TO.P,U302,7,PA1*%
%TO.N,/ACCEL_CS*%
X6200000Y2096042D03*
%TO.P,U302,8,PA2*%
%TO.N,/USART2_TX*%
X5700000Y2096042D03*
D14*
%TO.P,U302,9,PA3*%
%TO.N,/USART2_RX*%
X5012500Y2783542D03*
%TO.P,U302,10,PA4*%
%TO.N,/USART2_CK*%
X5012500Y3283542D03*
%TO.P,U302,11,PA5*%
%TO.N,/AK_CK*%
X5012500Y3783542D03*
%TO.P,U302,12,PA6*%
%TO.N,/AK_MISO*%
X5012500Y4283542D03*
%TO.P,U302,13,PA7*%
%TO.N,/AK_MOSI*%
X5012500Y4783542D03*
%TO.P,U302,14,PB0*%
%TO.N,/AK_RSTN*%
X5012500Y5283542D03*
%TO.P,U302,15,PB1*%
%TO.N,/AK_CS*%
X5012500Y5783542D03*
%TO.P,U302,16,VSS*%
%TO.N,GND*%
X5012500Y6283542D03*
D13*
%TO.P,U302,17,VDD*%
%TO.N,VIN*%
X5700000Y6971042D03*
%TO.P,U302,18,PA8*%
%TO.N,unconnected-(U302-PA8-Pad18)*%
X6200000Y6971042D03*
%TO.P,U302,19,PA9*%
%TO.N,/AK_PWR*%
X6700000Y6971042D03*
%TO.P,U302,20,PA10*%
%TO.N,/AK_DRDY*%
X7200000Y6971042D03*
%TO.P,U302,21,PA11*%
%TO.N,unconnected-(U302-PA11-Pad21)*%
X7700000Y6971042D03*
%TO.P,U302,22,PA12*%
%TO.N,unconnected-(U302-PA12-Pad22)*%
X8200000Y6971042D03*
%TO.P,U302,23,PA13*%
%TO.N,SWDIO*%
X8700000Y6971042D03*
%TO.P,U302,24,PA14*%
%TO.N,SWCLK*%
X9200000Y6971042D03*
D14*
%TO.P,U302,25,PA15*%
%TO.N,/AT25_nCS*%
X9887500Y6283542D03*
%TO.P,U302,26,PB3*%
%TO.N,/AT25_SCK*%
X9887500Y5783542D03*
%TO.P,U302,27,PB4*%
%TO.N,/AT25_MISO*%
X9887500Y5283542D03*
%TO.P,U302,28,PB5*%
%TO.N,/AT25_MOSI*%
X9887500Y4783542D03*
%TO.P,U302,29,PB6*%
%TO.N,/SDA*%
X9887500Y4283542D03*
%TO.P,U302,30,PB7*%
%TO.N,/SCL*%
X9887500Y3783542D03*
%TO.P,U302,31,BOOT0*%
%TO.N,GND*%
X9887500Y3283542D03*
%TO.P,U302,32,VSS*%
X9887500Y2783542D03*
D15*
%TO.P,U302,33,GND*%
X7450000Y4533542D03*
%TD*%
D16*
%TO.P,C5,1*%
%TO.N,VIN*%
X2845000Y5525000D03*
%TO.P,C5,2*%
%TO.N,GND*%
X2205000Y5525000D03*
%TD*%
D17*
%TO.P,U2,A1,DRDY/TRG*%
%TO.N,/AK_DRDY*%
X1768400Y3031600D03*
%TO.P,U2,A2,CSB*%
%TO.N,/AK_CS*%
X2168400Y3031600D03*
%TO.P,U2,A3,SCL/SK*%
%TO.N,/AK_CK*%
X2568400Y3031600D03*
%TO.P,U2,A4,SDA/SI*%
%TO.N,/AK_MOSI*%
X2968400Y3031600D03*
%TO.P,U2,B1,VDD*%
%TO.N,+1V8*%
X1768400Y3431600D03*
%TO.P,U2,B4,SO*%
%TO.N,/AK_MISO*%
X2968400Y3431600D03*
%TO.P,U2,C1,VSS*%
%TO.N,GND*%
X1768400Y3831600D03*
%TO.P,U2,C4,VOD*%
%TO.N,VIN*%
X2968400Y3831600D03*
%TO.P,U2,D1,CAD0*%
%TO.N,GND*%
X1768400Y4231600D03*
%TO.P,U2,D2,CAD1*%
X2168400Y4231600D03*
%TO.P,U2,D4,RSTN*%
%TO.N,/AK_RSTN*%
X2968400Y4231600D03*
%TD*%
D16*
%TO.P,C7,1*%
%TO.N,VIN*%
X2795000Y6325000D03*
%TO.P,C7,2*%
%TO.N,GND*%
X2155000Y6325000D03*
%TD*%
D18*
%TO.P,C6,1*%
%TO.N,VIN*%
X13130000Y3384000D03*
%TO.P,C6,2*%
%TO.N,GND*%
X13130000Y4934000D03*
%TD*%
D19*
%TO.N,GND*%
X4400000Y6500000D03*
X1500000Y5300000D03*
X11130000Y3159000D03*
X12780000Y6159000D03*
X8280000Y3173542D03*
X16700000Y5800000D03*
X6150000Y5891771D03*
X6100000Y3300000D03*
%TO.N,VBAT*%
X13000000Y1800000D03*
X16700000Y3200000D03*
%TO.N,Net-(Q501-C)*%
X8221489Y1196211D03*
%TO.N,RST*%
X8900000Y8000000D03*
%TO.N,/clkout*%
X9179029Y1069293D03*
%TO.N,/SCL*%
X10721681Y3632197D03*
%TO.N,/SDA*%
X10880000Y4573542D03*
%TO.N,VIN*%
X5300000Y7300000D03*
X7513400Y1129742D03*
X11100000Y1100000D03*
X3700000Y4600000D03*
X3200000Y6900000D03*
X11780000Y6409000D03*
%TO.N,/AT25_MISO*%
X11100000Y5700000D03*
%TO.N,/AT25_nCS*%
X10480000Y6309000D03*
%TO.N,/AT25_MOSI*%
X10728701Y5164070D03*
%TO.N,/AT25_SCK*%
X10400000Y7400000D03*
%TO.N,/USART2_TX*%
X6800000Y700000D03*
%TO.N,/USART2_RX*%
X4600000Y800000D03*
%TO.N,/WKUP1*%
X6800000Y1411203D03*
%TO.N,/ACCEL_CS*%
X5530000Y1140656D03*
%TO.N,/USART2_CK*%
X4000000Y2100000D03*
%TO.N,/AK_PWR*%
X3915094Y5838511D03*
%TO.N,+1V8*%
X1300000Y3500000D03*
%TO.N,/AK_MOSI*%
X3100000Y2500000D03*
X3722912Y3861456D03*
%TD*%
D20*
%TO.N,GND*%
X1768400Y3831600D02*
X1768400Y4231600D01*
X1725000Y5525000D02*
X1500000Y5300000D01*
D21*
X16080000Y5859000D02*
X16050000Y5829000D01*
X11680000Y4389000D02*
X11680000Y4192318D01*
D20*
X2168400Y4231600D02*
X1768400Y4231600D01*
D21*
X8700000Y3283542D02*
X7450000Y4533542D01*
D20*
X2168400Y4231600D02*
X2168400Y4331600D01*
D21*
X5012500Y6283542D02*
X5700000Y6283542D01*
X9887500Y3283542D02*
X10012042Y3159000D01*
X9887500Y2783542D02*
X9887500Y3283542D01*
X16065000Y5800000D02*
X16035000Y5770000D01*
D20*
X4375000Y6525000D02*
X4400000Y6500000D01*
D21*
X6235000Y3318542D02*
X7450000Y4533542D01*
X16700000Y5800000D02*
X16065000Y5800000D01*
X12980000Y4934000D02*
X13163800Y5117800D01*
X12435000Y4389000D02*
X12980000Y4934000D01*
X11680000Y4389000D02*
X12435000Y4389000D01*
D20*
X12780000Y6109000D02*
X12980000Y5909000D01*
X2168400Y4331600D02*
X2205000Y4368200D01*
D21*
X9887500Y3283542D02*
X8700000Y3283542D01*
D20*
X2155000Y6325000D02*
X2155000Y5575000D01*
X2205000Y5525000D02*
X1725000Y5525000D01*
X12780000Y6159000D02*
X12780000Y6109000D01*
D21*
X10012042Y3159000D02*
X11130000Y3159000D01*
D20*
X2205000Y4368200D02*
X2205000Y5525000D01*
D21*
X4987958Y6259000D02*
X5012500Y6283542D01*
X5700000Y6283542D02*
X6091771Y5891771D01*
D20*
X12980000Y5909000D02*
X12980000Y4934000D01*
X4400000Y6500000D02*
X4796042Y6500000D01*
D21*
X16030000Y5849000D02*
X16050000Y5829000D01*
D20*
X2155000Y5575000D02*
X2205000Y5525000D01*
D21*
X6091771Y5891771D02*
X7450000Y4533542D01*
D20*
X4796042Y6500000D02*
X5012500Y6283542D01*
D21*
%TO.N,VBAT*%
X12500000Y1700000D02*
X12900000Y1700000D01*
X16065000Y3200000D02*
X16035000Y3230000D01*
X12900000Y1700000D02*
X13000000Y1800000D01*
X16700000Y3200000D02*
X16065000Y3200000D01*
D20*
%TO.N,SWDIO*%
X8852401Y7560942D02*
X9662916Y7560942D01*
X9662916Y7560942D02*
X10160974Y8059000D01*
X14133200Y5743168D02*
X14133200Y4751000D01*
X8700000Y7408541D02*
X8852401Y7560942D01*
X11817368Y8059000D02*
X14133200Y5743168D01*
X14133200Y4751000D02*
X14552600Y4331600D01*
X8700000Y6971042D02*
X8700000Y7408541D01*
X10160974Y8059000D02*
X11817368Y8059000D01*
%TO.N,SWCLK*%
X15501600Y3966600D02*
X14399800Y3966600D01*
X11693858Y7855800D02*
X13930000Y5619658D01*
X10245142Y7855800D02*
X11693858Y7855800D01*
X9360384Y6971042D02*
X10245142Y7855800D01*
X14399800Y3966600D02*
X13933200Y4433200D01*
X14380000Y3986400D02*
X14233200Y4133200D01*
X13930000Y4436400D02*
X13933200Y4433200D01*
X9200000Y6971042D02*
X9360384Y6971042D01*
X16035000Y4500000D02*
X15501600Y3966600D01*
X13930000Y5619658D02*
X13930000Y4436400D01*
X14399800Y3966600D02*
X14233200Y4133200D01*
X14233200Y4133200D02*
X13933200Y4433200D01*
X16050000Y4559000D02*
X15477400Y3986400D01*
%TO.N,Net-(Q501-C)*%
X8221489Y1196211D02*
X7700000Y1717700D01*
X7700000Y1717700D02*
X7700000Y2096042D01*
%TO.N,RST*%
X14450000Y6159000D02*
X14780000Y5829000D01*
X14180000Y6159000D02*
X14450000Y6159000D01*
X9670922Y8000000D02*
X9933122Y8262200D01*
X9933122Y8262200D02*
X10900000Y8262200D01*
X14180000Y6162200D02*
X14180000Y6159000D01*
X12080000Y8262200D02*
X14180000Y6162200D01*
X8900000Y8000000D02*
X9670922Y8000000D01*
X10900000Y8262200D02*
X12080000Y8262200D01*
%TO.N,/clkout*%
X8700000Y2096042D02*
X8700000Y1548322D01*
X8700000Y1548322D02*
X9179029Y1069293D01*
%TO.N,/SCL*%
X10570336Y3783542D02*
X10721681Y3632197D01*
X9887500Y3783542D02*
X10570336Y3783542D01*
%TO.N,/SDA*%
X10590000Y4283542D02*
X9887500Y4283542D01*
X10880000Y4573542D02*
X10590000Y4283542D01*
%TO.N,VIN*%
X5371042Y7300000D02*
X5700000Y6971042D01*
D21*
X11330000Y1330000D02*
X11100000Y1100000D01*
X11780000Y5449180D02*
X11484910Y5154090D01*
D20*
X3700000Y4563200D02*
X2968400Y3831600D01*
X2795000Y6325000D02*
X2795000Y6495000D01*
D21*
X9657042Y1639000D02*
X9200000Y2096042D01*
X7513400Y1345143D02*
X7513400Y1129742D01*
D20*
X3700000Y4600000D02*
X3700000Y4563200D01*
D21*
X11680000Y3429000D02*
X12935000Y3429000D01*
X14685000Y3384000D02*
X14780000Y3289000D01*
X11780000Y6409000D02*
X11780000Y5449180D01*
X11426000Y3933000D02*
X11426000Y5095179D01*
D20*
X5300000Y7300000D02*
X5371042Y7300000D01*
D21*
X11930000Y3429000D02*
X11426000Y3933000D01*
X11426000Y5095179D02*
X11484910Y5154090D01*
X11930000Y2100000D02*
X11530000Y1700000D01*
X7200000Y1658543D02*
X7513400Y1345143D01*
X13088800Y3275200D02*
X12980000Y3384000D01*
D20*
X2845000Y6275000D02*
X2795000Y6325000D01*
X9232600Y2063442D02*
X9200000Y2096042D01*
D21*
X11330000Y1639000D02*
X11330000Y1330000D01*
X11930000Y3429000D02*
X11930000Y2100000D01*
X11484910Y5154090D02*
X11730000Y5399179D01*
X7200000Y2096042D02*
X7200000Y1658543D01*
X11330000Y1639000D02*
X9657042Y1639000D01*
D20*
X2845000Y5525000D02*
X2845000Y6275000D01*
X2795000Y6495000D02*
X3200000Y6900000D01*
D21*
X12980000Y3384000D02*
X14685000Y3384000D01*
X12935000Y3429000D02*
X12980000Y3384000D01*
D20*
%TO.N,/AT25_MISO*%
X10477400Y5630296D02*
X10130646Y5283542D01*
X10130646Y5283542D02*
X9887500Y5283542D01*
X11030296Y5630296D02*
X10477400Y5630296D01*
X11100000Y5700000D02*
X11030296Y5630296D01*
X10154542Y5283542D02*
X9887500Y5283542D01*
%TO.N,/AT25_nCS*%
X9887500Y6283542D02*
X10454542Y6283542D01*
X10454542Y6283542D02*
X10480000Y6309000D01*
%TO.N,/AT25_MOSI*%
X10348173Y4783542D02*
X9887500Y4783542D01*
X10728701Y5164070D02*
X10348173Y4783542D01*
%TO.N,/AT25_SCK*%
X10400000Y7400000D02*
X10911800Y6888200D01*
X10911800Y6888200D02*
X10911800Y6800000D01*
X9887500Y5783542D02*
X9981158Y5877200D01*
X10911800Y6800000D02*
X10911800Y6130142D01*
X9981158Y5877200D02*
X10658858Y5877200D01*
X10658858Y5877200D02*
X10911800Y6130142D01*
%TO.N,/USART2_TX*%
X5700000Y2096042D02*
X5700000Y1979000D01*
X5000000Y1396042D02*
X5700000Y2096042D01*
X5000000Y1059998D02*
X5000000Y1396042D01*
X6800000Y700000D02*
X5359998Y700000D01*
X5359998Y700000D02*
X5000000Y1059998D01*
%TO.N,/AK_DRDY*%
X1250000Y5800000D02*
X868200Y5418200D01*
X3400000Y8050000D02*
X2050000Y6700000D01*
X7200000Y7450000D02*
X6600000Y8050000D01*
X1018400Y3031600D02*
X1768400Y3031600D01*
X2050000Y6700000D02*
X1250000Y6700000D01*
X1250000Y6700000D02*
X1250000Y5800000D01*
X6600000Y8050000D02*
X3400000Y8050000D01*
X868200Y3181800D02*
X1018400Y3031600D01*
X7200000Y6971042D02*
X7200000Y7450000D01*
X868200Y5418200D02*
X868200Y3181800D01*
%TO.N,/USART2_RX*%
X4600000Y2371042D02*
X4600000Y800000D01*
X5012500Y2783542D02*
X4883542Y2783542D01*
X5012500Y2783542D02*
X4600000Y2371042D01*
%TO.N,/WKUP1*%
X6700000Y1511203D02*
X6800000Y1411203D01*
X6700000Y2096042D02*
X6700000Y1511203D01*
%TO.N,/ACCEL_CS*%
X6200000Y2096042D02*
X6200000Y1810656D01*
X6200000Y1810656D02*
X5530000Y1140656D01*
X6180000Y2076042D02*
X6200000Y2096042D01*
%TO.N,/USART2_CK*%
X4952500Y3223542D02*
X5012500Y3283542D01*
X4575001Y3283542D02*
X4194671Y2903212D01*
X4194671Y2894671D02*
X4000000Y2700000D01*
X5012500Y3283542D02*
X4575001Y3283542D01*
X4000000Y2700000D02*
X4000000Y2100000D01*
X4194671Y2903212D02*
X4194671Y2894671D01*
%TO.N,/AK_PWR*%
X6376741Y7731800D02*
X4600000Y7731800D01*
X4600000Y7731800D02*
X3800000Y6931800D01*
X3800000Y5953605D02*
X3915094Y5838511D01*
X6700000Y6971042D02*
X6700000Y7408541D01*
X3800000Y6931800D02*
X3800000Y5953605D01*
X6700000Y7408541D02*
X6376741Y7731800D01*
%TO.N,+1V8*%
X1368400Y3431600D02*
X1300000Y3500000D01*
X1768400Y3431600D02*
X1368400Y3431600D01*
%TO.N,/AK_MISO*%
X3082700Y3317300D02*
X3789414Y3317300D01*
X3789414Y3317300D02*
X4472114Y4000000D01*
X5012500Y4283542D02*
X4683542Y4283542D01*
X2968400Y3431600D02*
X3082700Y3317300D01*
X4960558Y4231600D02*
X5012500Y4283542D01*
X4769354Y4283542D02*
X5012500Y4283542D01*
X4485812Y4000000D02*
X4769354Y4283542D01*
X4472114Y4000000D02*
X4485812Y4000000D01*
%TO.N,/AK_CK*%
X3700000Y2489342D02*
X3700000Y2908541D01*
X2568400Y2420942D02*
X2944671Y2044671D01*
X5007810Y3778852D02*
X5012500Y3783542D01*
X3700000Y2908541D02*
X4575001Y3783542D01*
X4964442Y3831600D02*
X5012500Y3783542D01*
X3255329Y2044671D02*
X3700000Y2489342D01*
X2568400Y3031600D02*
X2568400Y2420942D01*
X4575001Y3783542D02*
X5012500Y3783542D01*
X2944671Y2044671D02*
X3255329Y2044671D01*
%TO.N,/AK_RSTN*%
X4872209Y5143251D02*
X3413147Y5143251D01*
X2968400Y4698504D02*
X2968400Y4231600D01*
X3413147Y5143251D02*
X2968400Y4698504D01*
X5012500Y5283542D02*
X4872209Y5143251D01*
%TO.N,/AK_MOSI*%
X5012500Y4783542D02*
X4496174Y4783542D01*
X3722912Y4010280D02*
X3722912Y3861456D01*
X4496174Y4783542D02*
X3722912Y4010280D01*
X2968400Y3031600D02*
X2968400Y2631600D01*
X2968400Y2631600D02*
X3100000Y2500000D01*
%TO.N,/AK_CS*%
X2700000Y3563200D02*
X2700000Y4717472D01*
X3328979Y5346451D02*
X4137910Y5346451D01*
X2168400Y3031600D02*
X2700000Y3563200D01*
X4137910Y5346451D02*
X4575001Y5783542D01*
X2700000Y4717472D02*
X3328979Y5346451D01*
X4575001Y5783542D02*
X5012500Y5783542D01*
%TD*%
M02*
