%TF.GenerationSoftware,KiCad,Pcbnew,10.0.2*%
%TF.CreationDate,2026-05-11T20:18:59-04:00*%
%TF.ProjectId,CompassTag,436f6d70-6173-4735-9461-672e6b696361,rev?*%
%TF.SameCoordinates,Original*%
%TF.FileFunction,Legend,Top*%
%TF.FilePolarity,Positive*%
%FSLAX46Y46*%
G04 Gerber Fmt 4.6, Leading zero omitted, Abs format (unit mm)*
G04 Created by KiCad (PCBNEW 10.0.2) date 2026-05-11 20:18:59*
%MOMM*%
%LPD*%
G01*
G04 APERTURE LIST*
G04 Aperture macros list*
%AMRoundRect*
0 Rectangle with rounded corners*
0 $1 Rounding radius*
0 $2 $3 $4 $5 $6 $7 $8 $9 X,Y pos of 4 corners*
0 Add a 4 corners polygon primitive as box body*
4,1,4,$2,$3,$4,$5,$6,$7,$8,$9,$2,$3,0*
0 Add four circle primitives for the rounded corners*
1,1,$1+$1,$2,$3*
1,1,$1+$1,$4,$5*
1,1,$1+$1,$6,$7*
1,1,$1+$1,$8,$9*
0 Add four rect primitives between the rounded corners*
20,1,$1+$1,$2,$3,$4,$5,0*
20,1,$1+$1,$4,$5,$6,$7,0*
20,1,$1+$1,$6,$7,$8,$9,0*
20,1,$1+$1,$8,$9,$2,$3,0*%
%AMFreePoly0*
4,1,6,0.180000,0.075000,0.000000,-0.105000,-0.180000,-0.105000,-0.180000,0.105000,0.180000,0.105000,0.180000,0.075000,0.180000,0.075000,$1*%
%AMFreePoly1*
4,1,6,0.180000,-0.075000,0.180000,-0.105000,-0.180000,-0.105000,-0.180000,0.105000,0.000000,0.105000,0.180000,-0.075000,0.180000,-0.075000,$1*%
%AMFreePoly2*
4,1,6,0.180000,-0.105000,0.000000,-0.105000,-0.180000,0.075000,-0.180000,0.105000,0.180000,0.105000,0.180000,-0.105000,0.180000,-0.105000,$1*%
%AMFreePoly3*
4,1,6,0.180000,-0.105000,-0.180000,-0.105000,-0.180000,-0.075000,0.000000,0.105000,0.180000,0.105000,0.180000,-0.105000,0.180000,-0.105000,$1*%
G04 Aperture macros list end*
%ADD10C,0.150000*%
%ADD11C,0.100000*%
%ADD12C,0.120000*%
%ADD13C,0.140357*%
%ADD14C,1.100000*%
%ADD15R,2.000000X1.000000*%
%ADD16R,0.800000X0.500000*%
%ADD17RoundRect,0.100000X0.100000X-0.130000X0.100000X0.130000X-0.100000X0.130000X-0.100000X-0.130000X0*%
%ADD18C,0.310000*%
%ADD19RoundRect,0.100000X0.130000X0.100000X-0.130000X0.100000X-0.130000X-0.100000X0.130000X-0.100000X0*%
%ADD20RoundRect,0.050000X-0.075000X0.150000X-0.075000X-0.150000X0.075000X-0.150000X0.075000X0.150000X0*%
%ADD21RoundRect,0.050000X-0.300000X0.150000X-0.300000X-0.150000X0.300000X-0.150000X0.300000X0.150000X0*%
%ADD22FreePoly0,0.000000*%
%ADD23FreePoly1,0.000000*%
%ADD24FreePoly2,0.000000*%
%ADD25FreePoly3,0.000000*%
%ADD26RoundRect,0.120000X0.000000X-0.169706X0.169706X0.000000X0.000000X0.169706X-0.169706X0.000000X0*%
%ADD27R,0.279400X0.304800*%
%ADD28R,0.304800X0.279400*%
%ADD29RoundRect,0.100000X-0.130000X-0.100000X0.130000X-0.100000X0.130000X0.100000X-0.130000X0.100000X0*%
%ADD30RoundRect,0.140000X-0.140000X-0.170000X0.140000X-0.170000X0.140000X0.170000X-0.140000X0.170000X0*%
G04 APERTURE END LIST*
D10*
X4400000Y2000000D02*
X4400000Y1650000D01*
X4400000Y1650000D02*
X4800000Y1650000D01*
X7500000Y7450000D02*
G75*
G02*
X7400000Y7450000I-50000J0D01*
G01*
X7400000Y7450000D02*
G75*
G02*
X7500000Y7450000I50000J0D01*
G01*
X4308207Y905705D02*
X3851064Y905705D01*
X4079636Y905705D02*
X4079636Y1705705D01*
X4079636Y1705705D02*
X4003445Y1591420D01*
X4003445Y1591420D02*
X3927255Y1515229D01*
X3927255Y1515229D02*
X3851064Y1477134D01*
X12473866Y6019049D02*
X12473866Y6780953D01*
X12119048Y2426134D02*
X12880953Y2426134D01*
X12500000Y2045181D02*
X12500000Y2807086D01*
%TO.C,U501*%
X10440000Y1373542D02*
X10940000Y1373542D01*
X10940000Y1373542D02*
X10940000Y1873542D01*
%TO.C,U1*%
D11*
X7930000Y7473542D02*
X7930000Y5273542D01*
X7930000Y7473542D02*
X10130000Y7473542D01*
X7930000Y5273542D02*
X10530000Y5273542D01*
X10230000Y7573542D02*
X10230000Y7473542D01*
X10230000Y7573542D02*
X10630000Y7573542D01*
X10530000Y5273542D02*
X10530000Y7073542D01*
X10630000Y7573542D02*
X10455000Y7398542D01*
X10630000Y7173542D02*
X10530000Y7173542D01*
X10630000Y7173542D02*
X10630000Y7573542D01*
%TO.C,Q501*%
D12*
X6390000Y7160000D02*
X7610000Y7160000D01*
X6390000Y6000000D02*
X6390000Y7160000D01*
X7610000Y7160000D02*
X7610000Y6000000D01*
%TO.C,U4*%
X2009643Y6640000D02*
X3009643Y6640000D01*
X2009643Y5160000D02*
X3009643Y5160000D01*
D13*
X1579821Y6350000D02*
G75*
G02*
X1439465Y6350000I-70178J0D01*
G01*
X1439465Y6350000D02*
G75*
G02*
X1579821Y6350000I70178J0D01*
G01*
%TO.C,C4*%
D12*
X11702164Y7669000D02*
X11917836Y7669000D01*
X11702164Y6949000D02*
X11917836Y6949000D01*
%TD*%
%LPC*%
D14*
%TO.C,J303*%
X1380000Y1329000D03*
%TD*%
D15*
%TO.C,J401*%
X12800000Y3650000D03*
X12800000Y5350000D03*
%TD*%
D16*
%TO.C,U501*%
X10340000Y1823542D03*
X10340000Y2723542D03*
X10340000Y3623542D03*
X10340000Y4523542D03*
X9140000Y4523542D03*
X9140000Y3623542D03*
X9140000Y2723542D03*
X9140000Y1823542D03*
%TD*%
D17*
%TO.C,R1*%
X8140000Y3848542D03*
X8140000Y4488542D03*
%TD*%
%TO.C,C501*%
X11330000Y1639000D03*
X11330000Y2279000D03*
%TD*%
%TO.C,C503*%
X8180000Y1934000D03*
X8180000Y2574000D03*
%TD*%
D18*
%TO.C,U1*%
X9830000Y7073542D03*
X9830000Y5673542D03*
X9630000Y6723542D03*
X9630000Y6023542D03*
X9430000Y6373542D03*
X9230000Y6723542D03*
X9230000Y6023542D03*
X9030000Y6373542D03*
X8830000Y6723542D03*
X8830000Y6023542D03*
X8630000Y7073542D03*
X8630000Y5673542D03*
%TD*%
D19*
%TO.C,C502*%
X7075000Y5200000D03*
X6435000Y5200000D03*
%TD*%
D14*
%TO.C,J304*%
X1480000Y7809000D03*
%TD*%
%TO.C,J301*%
X15200000Y1309000D03*
%TD*%
%TO.C,J302*%
X15200000Y7809000D03*
%TD*%
D20*
%TO.C,Q501*%
X7225000Y6700000D03*
X6775000Y6700000D03*
D21*
X7000000Y6000000D03*
%TD*%
D19*
%TO.C,C1*%
X5520000Y5200000D03*
X4880000Y5200000D03*
%TD*%
%TO.C,C2*%
X5500000Y6800000D03*
X4860000Y6800000D03*
%TD*%
D22*
%TO.C,U4*%
X2079643Y6225000D03*
D23*
X2079643Y5575000D03*
D24*
X2939643Y6225000D03*
D25*
X2939643Y5575000D03*
D26*
X2509643Y5900000D03*
%TD*%
D27*
%TO.C,U3*%
X5100000Y2300000D03*
X5600001Y2300000D03*
X6100001Y2300000D03*
X6600002Y2300000D03*
D28*
X6650101Y2850100D03*
X6650101Y3350100D03*
D27*
X6600002Y3900200D03*
X6100001Y3900200D03*
X5600001Y3900200D03*
X5100000Y3900200D03*
D28*
X5049901Y3350100D03*
X5049901Y2850100D03*
%TD*%
D19*
%TO.C,C3*%
X5520000Y6000000D03*
X4880000Y6000000D03*
%TD*%
D29*
%TO.C,C8*%
X2155000Y3775000D03*
X2795000Y3775000D03*
%TD*%
%TO.C,C9*%
X2155000Y4625000D03*
X2795000Y4625000D03*
%TD*%
D30*
%TO.C,C4*%
X11330000Y7309000D03*
X12290000Y7309000D03*
%TD*%
%LPD*%
M02*
