%TF.GenerationSoftware,KiCad,Pcbnew,9.0.7*%
%TF.CreationDate,2026-04-29T13:42:31-04:00*%
%TF.ProjectId,CompassTag,436f6d70-6173-4735-9461-672e6b696361,rev?*%
%TF.SameCoordinates,Original*%
%TF.FileFunction,Copper,L1,Top*%
%TF.FilePolarity,Positive*%
%FSLAX46Y46*%
G04 Gerber Fmt 4.6, Leading zero omitted, Abs format (unit mm)*
G04 Created by KiCad (PCBNEW 9.0.7) date 2026-04-29 13:42:31*
%MOMM*%
%LPD*%
G01*
G04 APERTURE LIST*
G04 Aperture macros list*
%AMRoundRect*
0 Rectangle with rounded corners*
0 $1 Rounding radius*
0 $2 $3 $4 $5 $6 $7 $8 $9 X,Y pos of 4 corners*
0 Add a 4 corners polygon primitive as box body*
4,1,4,$2,$3,$4,$5,$6,$7,$8,$9,$2,$3,0*
0 Add four circle primitives for the rounded corners*
1,1,$1+$1,$2,$3*
1,1,$1+$1,$4,$5*
1,1,$1+$1,$6,$7*
1,1,$1+$1,$8,$9*
0 Add four rect primitives between the rounded corners*
20,1,$1+$1,$2,$3,$4,$5,0*
20,1,$1+$1,$4,$5,$6,$7,0*
20,1,$1+$1,$6,$7,$8,$9,0*
20,1,$1+$1,$8,$9,$2,$3,0*%
%AMFreePoly0*
4,1,6,0.230000,0.054289,0.020711,-0.155000,-0.230000,-0.155000,-0.230000,0.155000,0.230000,0.155000,0.230000,0.054289,0.230000,0.054289,$1*%
%AMFreePoly1*
4,1,6,0.230000,-0.054289,0.230000,-0.155000,-0.230000,-0.155000,-0.230000,0.155000,0.020711,0.155000,0.230000,-0.054289,0.230000,-0.054289,$1*%
%AMFreePoly2*
4,1,6,0.230000,-0.155000,-0.230000,-0.155000,-0.230000,-0.054289,-0.020711,0.155000,0.230000,0.155000,0.230000,-0.155000,0.230000,-0.155000,$1*%
%AMFreePoly3*
4,1,6,0.230000,-0.155000,-0.020711,-0.155000,-0.230000,0.054289,-0.230000,0.155000,0.230000,0.155000,0.230000,-0.155000,0.230000,-0.155000,$1*%
G04 Aperture macros list end*
%TA.AperFunction,SMDPad,CuDef*%
%ADD10R,2.000000X1.000000*%
%TD*%
%TA.AperFunction,SMDPad,CuDef*%
%ADD11R,0.800000X0.500000*%
%TD*%
%TA.AperFunction,SMDPad,CuDef*%
%ADD12RoundRect,0.100000X0.100000X-0.130000X0.100000X0.130000X-0.100000X0.130000X-0.100000X-0.130000X0*%
%TD*%
%TA.AperFunction,SMDPad,CuDef*%
%ADD13C,0.250000*%
%TD*%
%TA.AperFunction,SMDPad,CuDef*%
%ADD14RoundRect,0.100000X0.130000X0.100000X-0.130000X0.100000X-0.130000X-0.100000X0.130000X-0.100000X0*%
%TD*%
%TA.AperFunction,SMDPad,CuDef*%
%ADD15RoundRect,0.050000X-0.075000X0.150000X-0.075000X-0.150000X0.075000X-0.150000X0.075000X0.150000X0*%
%TD*%
%TA.AperFunction,SMDPad,CuDef*%
%ADD16RoundRect,0.050000X-0.300000X0.150000X-0.300000X-0.150000X0.300000X-0.150000X0.300000X0.150000X0*%
%TD*%
%TA.AperFunction,SMDPad,CuDef*%
%ADD17FreePoly0,0.000000*%
%TD*%
%TA.AperFunction,SMDPad,CuDef*%
%ADD18FreePoly1,0.000000*%
%TD*%
%TA.AperFunction,SMDPad,CuDef*%
%ADD19FreePoly2,0.000000*%
%TD*%
%TA.AperFunction,SMDPad,CuDef*%
%ADD20FreePoly3,0.000000*%
%TD*%
%TA.AperFunction,SMDPad,CuDef*%
%ADD21RoundRect,0.145000X0.000000X-0.205061X0.205061X0.000000X0.000000X0.205061X-0.205061X0.000000X0*%
%TD*%
%TA.AperFunction,SMDPad,CuDef*%
%ADD22R,0.279400X0.304800*%
%TD*%
%TA.AperFunction,SMDPad,CuDef*%
%ADD23R,0.304800X0.279400*%
%TD*%
%TA.AperFunction,SMDPad,CuDef*%
%ADD24RoundRect,0.100000X-0.130000X-0.100000X0.130000X-0.100000X0.130000X0.100000X-0.130000X0.100000X0*%
%TD*%
%TA.AperFunction,SMDPad,CuDef*%
%ADD25RoundRect,0.140000X-0.140000X-0.170000X0.140000X-0.170000X0.140000X0.170000X-0.140000X0.170000X0*%
%TD*%
%TA.AperFunction,ViaPad*%
%ADD26C,0.457200*%
%TD*%
%TA.AperFunction,Conductor*%
%ADD27C,0.101600*%
%TD*%
%TA.AperFunction,Conductor*%
%ADD28C,0.152400*%
%TD*%
%TA.AperFunction,Conductor*%
%ADD29C,0.127000*%
%TD*%
G04 APERTURE END LIST*
D10*
%TO.P,J401,1,Pin_1*%
%TO.N,VBAT*%
X12800000Y3650000D03*
%TO.P,J401,2,Pin_2*%
%TO.N,GND*%
X12800000Y5350000D03*
%TD*%
D11*
%TO.P,U501,1,CLKOUT*%
%TO.N,/clkout*%
X10340000Y1823542D03*
%TO.P,U501,2,~{INT}*%
%TO.N,unconnected-(U501-~{INT}-Pad2)*%
X10340000Y2723542D03*
%TO.P,U501,3,SCL*%
%TO.N,/SCL*%
X10340000Y3623542D03*
%TO.P,U501,4,SDA*%
%TO.N,/SDA*%
X10340000Y4523542D03*
%TO.P,U501,5,GND*%
%TO.N,GND*%
X9140000Y4523542D03*
%TO.P,U501,6,VBACK*%
%TO.N,Net-(U501-VBACK)*%
X9140000Y3623542D03*
%TO.P,U501,7,VDD*%
%TO.N,VIN*%
X9140000Y2723542D03*
%TO.P,U501,8,EVI*%
%TO.N,GND*%
X9140000Y1823542D03*
%TD*%
D12*
%TO.P,R1,1*%
%TO.N,Net-(U501-VBACK)*%
X8140000Y3848542D03*
%TO.P,R1,2*%
%TO.N,GND*%
X8140000Y4488542D03*
%TD*%
%TO.P,C501,1*%
%TO.N,VIN*%
X11330000Y1639000D03*
%TO.P,C501,2*%
%TO.N,GND*%
X11330000Y2279000D03*
%TD*%
%TO.P,C503,1*%
%TO.N,VIN*%
X8180000Y1934000D03*
%TO.P,C503,2*%
%TO.N,GND*%
X8180000Y2574000D03*
%TD*%
D13*
%TO.P,U1,A1,NC*%
%TO.N,unconnected-(U1-NC-PadA1)*%
X9830000Y7073542D03*
%TO.P,U1,A5,NC*%
%TO.N,unconnected-(U1-NC-PadA5)*%
X9830000Y5673542D03*
%TO.P,U1,B2,VCC*%
%TO.N,VIN*%
X9630000Y6723542D03*
%TO.P,U1,B4,nCS*%
%TO.N,/AT25_nCS*%
X9630000Y6023542D03*
%TO.P,U1,C3,GND*%
%TO.N,GND*%
X9430000Y6373542D03*
%TO.P,U1,D2,~{RESET}*%
%TO.N,VIN*%
X9230000Y6723542D03*
%TO.P,U1,D4,SO*%
%TO.N,/AT25_MISO*%
X9230000Y6023542D03*
%TO.P,U1,E3,SI*%
%TO.N,/AT25_MOSI*%
X9030000Y6373542D03*
%TO.P,U1,F2,SCK*%
%TO.N,/AT25_SCK*%
X8830000Y6723542D03*
%TO.P,U1,F4,nWP*%
%TO.N,unconnected-(U1-nWP-PadF4)*%
X8830000Y6023542D03*
%TO.P,U1,G1,NC*%
%TO.N,unconnected-(U1-NC-PadG1)*%
X8630000Y7073542D03*
%TO.P,U1,G5,NC*%
%TO.N,unconnected-(U1-NC-PadG5)*%
X8630000Y5673542D03*
%TD*%
D14*
%TO.P,C502,1*%
%TO.N,Net-(Q501-C)*%
X7075000Y5200000D03*
%TO.P,C502,2*%
%TO.N,GND*%
X6435000Y5200000D03*
%TD*%
D15*
%TO.P,Q501,1,B*%
%TO.N,RST*%
X7225000Y6700000D03*
%TO.P,Q501,2,E*%
%TO.N,GND*%
X6775000Y6700000D03*
D16*
%TO.P,Q501,3,C*%
%TO.N,Net-(Q501-C)*%
X7000000Y6000000D03*
%TD*%
D14*
%TO.P,C1,1*%
%TO.N,VIN*%
X5520000Y5200000D03*
%TO.P,C1,2*%
%TO.N,GND*%
X4880000Y5200000D03*
%TD*%
%TO.P,C2,1*%
%TO.N,VIN*%
X5500000Y6800000D03*
%TO.P,C2,2*%
%TO.N,GND*%
X4860000Y6800000D03*
%TD*%
D17*
%TO.P,U4,1,OUT*%
%TO.N,+1V8*%
X2079643Y6225000D03*
D18*
%TO.P,U4,2,GND*%
%TO.N,GND*%
X2079643Y5575000D03*
D19*
%TO.P,U4,3,EN*%
%TO.N,/AK_PWR*%
X2939643Y5575000D03*
D20*
%TO.P,U4,4,IN*%
%TO.N,VIN*%
X2939643Y6225000D03*
D21*
%TO.P,U4,5,Pad*%
%TO.N,GND*%
X2509643Y5900000D03*
%TD*%
D22*
%TO.P,U3,1,SCL/SPC*%
%TO.N,/USART2_CK*%
X5100000Y2300000D03*
%TO.P,U3,2,CS*%
%TO.N,/ACCEL_CS*%
X5600001Y2300000D03*
%TO.P,U3,3,SDO/SA0*%
%TO.N,/USART2_RX*%
X6100001Y2300000D03*
%TO.P,U3,4,SDA/SDI/SDO*%
%TO.N,/USART2_TX*%
X6600002Y2300000D03*
D23*
%TO.P,U3,5,NC*%
%TO.N,/WKUP1*%
X6650101Y2850100D03*
%TO.P,U3,6,GND*%
%TO.N,GND*%
X6650101Y3350100D03*
D22*
%TO.P,U3,7,RES*%
X6600002Y3900200D03*
%TO.P,U3,8,GND*%
X6100001Y3900200D03*
%TO.P,U3,9,VDD*%
%TO.N,VIN*%
X5600001Y3900200D03*
%TO.P,U3,10,VDD_IO*%
X5100000Y3900200D03*
D23*
%TO.P,U3,11,INT2*%
%TO.N,unconnected-(U3-INT2-Pad11)*%
X5049901Y3350100D03*
%TO.P,U3,12,INT1*%
%TO.N,/WKUP1*%
X5049901Y2850100D03*
%TD*%
D14*
%TO.P,C3,1*%
%TO.N,VIN*%
X5520000Y6000000D03*
%TO.P,C3,2*%
%TO.N,GND*%
X4880000Y6000000D03*
%TD*%
D24*
%TO.P,C8,1*%
%TO.N,+1V8*%
X2155000Y3775000D03*
%TO.P,C8,2*%
%TO.N,GND*%
X2795000Y3775000D03*
%TD*%
%TO.P,C9,1*%
%TO.N,+1V8*%
X2155000Y4625000D03*
%TO.P,C9,2*%
%TO.N,GND*%
X2795000Y4625000D03*
%TD*%
D25*
%TO.P,C4,1*%
%TO.N,VIN*%
X11330000Y7309000D03*
%TO.P,C4,2*%
%TO.N,GND*%
X12290000Y7309000D03*
%TD*%
D26*
%TO.N,GND*%
X4400000Y6500000D03*
X1500000Y5300000D03*
X11130000Y3159000D03*
X12780000Y6159000D03*
X8280000Y3173542D03*
X16700000Y5800000D03*
X6150000Y5891771D03*
X6100000Y3300000D03*
%TO.N,VBAT*%
X13000000Y1800000D03*
X16700000Y3200000D03*
%TO.N,Net-(Q501-C)*%
X8221489Y1196211D03*
%TO.N,RST*%
X8900000Y8000000D03*
%TO.N,/clkout*%
X9179029Y1069293D03*
%TO.N,/SCL*%
X10721681Y3632197D03*
%TO.N,/SDA*%
X10880000Y4573542D03*
%TO.N,VIN*%
X5300000Y7300000D03*
X7513400Y1129742D03*
X11100000Y1100000D03*
X3700000Y4600000D03*
X3200000Y6900000D03*
X11780000Y6409000D03*
%TO.N,/AT25_MISO*%
X11100000Y5700000D03*
%TO.N,/AT25_nCS*%
X10480000Y6309000D03*
%TO.N,/AT25_MOSI*%
X10728701Y5164070D03*
%TO.N,/AT25_SCK*%
X10400000Y7400000D03*
%TO.N,/USART2_TX*%
X6800000Y700000D03*
%TO.N,/USART2_RX*%
X4600000Y800000D03*
%TO.N,/WKUP1*%
X6800000Y1411203D03*
%TO.N,/ACCEL_CS*%
X5530000Y1140656D03*
%TO.N,/USART2_CK*%
X4000000Y2100000D03*
%TO.N,/AK_PWR*%
X3915094Y5838511D03*
%TO.N,+1V8*%
X1300000Y3500000D03*
%TO.N,/AK_MOSI*%
X3100000Y2500000D03*
X3722912Y3861456D03*
%TD*%
D27*
%TO.N,GND*%
X6100001Y3900200D02*
X6600002Y3900200D01*
X11130000Y3159000D02*
X8294542Y3159000D01*
X4880000Y6000000D02*
X4880000Y6780000D01*
X8294542Y3159000D02*
X8280000Y3173542D01*
D28*
X11330000Y2279000D02*
X11330000Y2959000D01*
D27*
X6150100Y3350100D02*
X6100000Y3300000D01*
X9692400Y2375942D02*
X9692400Y3971142D01*
X2079643Y5575000D02*
X2795000Y4859643D01*
D28*
X15071000Y5800000D02*
X16700000Y5800000D01*
D27*
X4400000Y6500000D02*
X4400000Y6435357D01*
X8140000Y4488542D02*
X9075000Y4488542D01*
X9599545Y4063997D02*
X11091021Y4063997D01*
X4880000Y5200000D02*
X4880000Y6000000D01*
X4860000Y6800000D02*
X4700000Y6800000D01*
D28*
X11330000Y2959000D02*
X11130000Y3159000D01*
D27*
X10813542Y6740800D02*
X12145342Y5409000D01*
X6100001Y3300001D02*
X6100000Y3300000D01*
X1775000Y5575000D02*
X1500000Y5300000D01*
D28*
X14680000Y5409000D02*
X15071000Y5800000D01*
D27*
X9140000Y4523542D02*
X9599545Y4063997D01*
X8150000Y3043542D02*
X8280000Y3173542D01*
X6650101Y3350100D02*
X6150100Y3350100D01*
X6091771Y5543229D02*
X6435000Y5200000D01*
X8160000Y3053542D02*
X8280000Y3173542D01*
X3822241Y6500000D02*
X4400000Y6500000D01*
X8280000Y3173542D02*
X8174171Y3173542D01*
D28*
X12362038Y5409000D02*
X11346019Y4392981D01*
X12795000Y5409000D02*
X12795000Y5564000D01*
D27*
X2079643Y5575000D02*
X1775000Y5575000D01*
X2509643Y5900000D02*
X2404643Y5900000D01*
X2920000Y3900000D02*
X2795000Y3775000D01*
D28*
X12795000Y5409000D02*
X14680000Y5409000D01*
D27*
X2795000Y4625000D02*
X2795000Y3775000D01*
X4700000Y6800000D02*
X4400000Y6500000D01*
D28*
X11180000Y3209000D02*
X11130000Y3159000D01*
D27*
X6091771Y5891771D02*
X6091771Y5543229D01*
D28*
X11196018Y3959000D02*
X11196018Y3325018D01*
X12795000Y5409000D02*
X11900000Y5409000D01*
D27*
X8280000Y3173542D02*
X10931476Y3173542D01*
X12795000Y5409000D02*
X12795000Y6144000D01*
D28*
X11196018Y4242981D02*
X11196018Y3959000D01*
X11180000Y3309000D02*
X11180000Y3209000D01*
X11196018Y3325018D02*
X11180000Y3309000D01*
D27*
X2795000Y4859643D02*
X2795000Y4625000D01*
X9020000Y1843542D02*
X9140000Y1723542D01*
X9140000Y1823542D02*
X9692400Y2375942D01*
X12790000Y5639000D02*
X12640000Y5489000D01*
X2509643Y5900000D02*
X3222241Y5900000D01*
X9933884Y6373542D02*
X10301142Y6740800D01*
D28*
X12290000Y7309000D02*
X12290000Y5914000D01*
D27*
X12145342Y5409000D02*
X12795000Y5409000D01*
X6091771Y6016771D02*
X6775000Y6700000D01*
X11956000Y5489000D02*
X12840000Y5489000D01*
D28*
X12795000Y5409000D02*
X12362038Y5409000D01*
D27*
X4880000Y6780000D02*
X4860000Y6800000D01*
X3222241Y5900000D02*
X3822241Y6500000D01*
D28*
X11346019Y4392981D02*
X11196018Y4242981D01*
D27*
X2404643Y5900000D02*
X2079643Y5575000D01*
X9692400Y3971142D02*
X9140000Y4523542D01*
X12795000Y6144000D02*
X12780000Y6159000D01*
X8160000Y2483542D02*
X8160000Y3053542D01*
X6100001Y3900200D02*
X6100001Y3300001D01*
D28*
X12290000Y5914000D02*
X12795000Y5409000D01*
D27*
X9430000Y6373542D02*
X9933884Y6373542D01*
X10301142Y6740800D02*
X10813542Y6740800D01*
X11091021Y4063997D02*
X11196018Y3959000D01*
%TO.N,VBAT*%
X12840000Y3789000D02*
X12655000Y3789000D01*
D28*
X12500000Y3350000D02*
X12800000Y3650000D01*
X16250000Y3650000D02*
X16700000Y3200000D01*
X12800000Y3650000D02*
X16250000Y3650000D01*
X12800000Y2000000D02*
X13000000Y1800000D01*
D27*
X12985000Y3589000D02*
X12825000Y3749000D01*
D28*
X12800000Y3650000D02*
X12800000Y2000000D01*
X12955000Y3549000D02*
X12795000Y3709000D01*
D27*
X12690000Y3739000D02*
X12640000Y3789000D01*
%TO.N,Net-(Q501-C)*%
X7075000Y5200000D02*
X7787600Y4487400D01*
X7000000Y6000000D02*
X7000000Y5275000D01*
X7803411Y1703411D02*
X8221489Y1285333D01*
X7787600Y4487400D02*
X7787600Y1719222D01*
X7787600Y1719222D02*
X7803411Y1703411D01*
X8221489Y1285333D02*
X8221489Y1196211D01*
%TO.N,RST*%
X8500000Y7400000D02*
X8900000Y7800000D01*
X7225000Y6700000D02*
X7925000Y7400000D01*
X8900000Y7800000D02*
X8900000Y8000000D01*
X8700000Y8000000D02*
X8900000Y8000000D01*
X7925000Y7400000D02*
X8500000Y7400000D01*
%TO.N,/clkout*%
X10300252Y1723542D02*
X9646003Y1069293D01*
X10340000Y1723542D02*
X10300252Y1723542D01*
X9646003Y1069293D02*
X9179029Y1069293D01*
%TO.N,/SCL*%
X10713026Y3623542D02*
X10721681Y3632197D01*
X10340000Y3623542D02*
X10713026Y3623542D01*
%TO.N,/SDA*%
X10340000Y4523542D02*
X10830000Y4523542D01*
X10830000Y4523542D02*
X10880000Y4573542D01*
D28*
%TO.N,VIN*%
X11530000Y1700000D02*
X11530000Y1530000D01*
X11100000Y1100000D02*
X10100000Y1100000D01*
D27*
X10965000Y6944000D02*
X11330000Y7309000D01*
D29*
X5800000Y4400000D02*
X5520000Y4680000D01*
D27*
X10216974Y6944000D02*
X10965000Y6944000D01*
X5500000Y6800000D02*
X5500000Y7100000D01*
D28*
X11330000Y6859000D02*
X11780000Y6409000D01*
D27*
X9630000Y6723542D02*
X9996516Y6723542D01*
D29*
X6861251Y4261251D02*
X7200000Y3922502D01*
D27*
X5520000Y6000000D02*
X5520000Y5200000D01*
D28*
X11330000Y7309000D02*
X11330000Y6859000D01*
X8726542Y701800D02*
X7941342Y701800D01*
D27*
X3200000Y6900000D02*
X3200000Y6485357D01*
D28*
X8828342Y600000D02*
X8726542Y701800D01*
D27*
X8587600Y1440758D02*
X8701142Y1327216D01*
D28*
X7941342Y701800D02*
X7513400Y1129742D01*
D29*
X6861251Y4261251D02*
X6722502Y4400000D01*
D27*
X5600001Y4240199D02*
X5600001Y3900200D01*
D28*
X10100000Y1100000D02*
X9600000Y600000D01*
D27*
X5520000Y5200000D02*
X4920000Y4600000D01*
D29*
X7200000Y1800000D02*
X7513400Y1486600D01*
D27*
X8260000Y1843542D02*
X9140000Y2723542D01*
X5500000Y6020000D02*
X5520000Y6000000D01*
X8160000Y1843542D02*
X8260000Y1843542D01*
X5520000Y5200000D02*
X5520000Y4320200D01*
X9140000Y2623542D02*
X9290000Y2623542D01*
X8180000Y1934000D02*
X8379999Y1934000D01*
X5520000Y5200000D02*
X5520000Y4980000D01*
X8587600Y1726399D02*
X8587600Y1440758D01*
D29*
X7200000Y3922502D02*
X7200000Y1800000D01*
D27*
X2939643Y6225000D02*
X4014643Y7300000D01*
X9230000Y6723542D02*
X9630000Y6723542D01*
X8379999Y1934000D02*
X8587600Y1726399D01*
X3200000Y6485357D02*
X2939643Y6225000D01*
D28*
X9600000Y600000D02*
X8828342Y600000D01*
D27*
X8090000Y1843542D02*
X8089171Y1843542D01*
D29*
X7513400Y1486600D02*
X7513400Y1129742D01*
D27*
X5500000Y6800000D02*
X5500000Y6020000D01*
X5520000Y4320200D02*
X5600001Y4240199D01*
D29*
X6722502Y4400000D02*
X5800000Y4400000D01*
D27*
X5520000Y4320200D02*
X5100000Y3900200D01*
X5500000Y7100000D02*
X5300000Y7300000D01*
X4014643Y7300000D02*
X5300000Y7300000D01*
X8701142Y1327216D02*
X8701142Y727200D01*
D28*
X11530000Y1530000D02*
X11100000Y1100000D01*
D29*
X5520000Y4680000D02*
X5520000Y5200000D01*
D27*
X4920000Y4600000D02*
X3700000Y4600000D01*
X9996516Y6723542D02*
X10216974Y6944000D01*
%TO.N,Net-(U501-VBACK)*%
X8815000Y3848542D02*
X9140000Y3523542D01*
X8140000Y3848542D02*
X8815000Y3848542D01*
%TO.N,/AT25_MISO*%
X10580000Y5709000D02*
X10880000Y5709000D01*
X10130000Y5259000D02*
X10580000Y5709000D01*
X9230000Y6023542D02*
X9230000Y5846766D01*
X11091000Y5709000D02*
X11100000Y5700000D01*
X10880000Y5709000D02*
X11091000Y5709000D01*
X9817766Y5259000D02*
X10130000Y5259000D01*
X9230000Y5846766D02*
X9817766Y5259000D01*
%TO.N,/AT25_nCS*%
X9630000Y6023542D02*
X10194542Y6023542D01*
X9630000Y6023542D02*
X9630000Y6109000D01*
X10194542Y6023542D02*
X10480000Y6309000D01*
%TO.N,/AT25_MOSI*%
X8787697Y6373542D02*
X8352600Y5938445D01*
X9030000Y6373542D02*
X8787697Y6373542D01*
X8930000Y4959000D02*
X10630000Y4959000D01*
X8352600Y5536400D02*
X8930000Y4959000D01*
X8352600Y5938445D02*
X8352600Y5536400D01*
X10630000Y4959000D02*
X10630000Y5065369D01*
X10630000Y5065369D02*
X10728701Y5164070D01*
%TO.N,/AT25_SCK*%
X9472729Y7366271D02*
X9506458Y7400000D01*
X9506458Y7400000D02*
X10400000Y7400000D01*
X8830000Y6723542D02*
X9447729Y7341271D01*
X9447729Y7341271D02*
X9472729Y7366271D01*
%TO.N,/USART2_TX*%
X6368200Y1733746D02*
X6368200Y1200000D01*
X6579058Y1944603D02*
X6467227Y1832773D01*
X6634100Y934100D02*
X6634100Y865900D01*
X6467227Y1832773D02*
X6368200Y1733746D01*
X6634100Y865900D02*
X6800000Y700000D01*
X6368200Y1200000D02*
X6634100Y934100D01*
X6579058Y2184299D02*
X6579058Y1944603D01*
%TO.N,/USART2_RX*%
X6063400Y2263399D02*
X6063400Y1063398D01*
X5700002Y700000D02*
X5900001Y899999D01*
X6063400Y1063398D02*
X5900001Y899999D01*
X6100001Y2300000D02*
X6063400Y2263399D01*
X4600000Y800000D02*
X4700000Y700000D01*
X4700000Y700000D02*
X5700002Y700000D01*
%TO.N,/WKUP1*%
X6650101Y2850100D02*
X6892102Y2608099D01*
X6892102Y1503305D02*
X6800000Y1411203D01*
X6911203Y1411203D02*
X6800000Y1411203D01*
X5049901Y2850100D02*
X6650101Y2850100D01*
X6892102Y2608099D02*
X6892102Y1503305D01*
%TO.N,/ACCEL_CS*%
X5600001Y2300000D02*
X5600001Y1210657D01*
X5600001Y1210657D02*
X5530000Y1140656D01*
%TO.N,/USART2_CK*%
X4000000Y2100000D02*
X4100000Y2100000D01*
X4300000Y2300000D02*
X5100000Y2300000D01*
X4100000Y2100000D02*
X4300000Y2300000D01*
%TO.N,/AK_PWR*%
X3651583Y5575000D02*
X3915094Y5838511D01*
X2939643Y5575000D02*
X3651583Y5575000D01*
%TO.N,+1V8*%
X2079643Y6225000D02*
X1725000Y6225000D01*
X1068200Y5568200D02*
X1068200Y5121142D01*
X1575000Y3775000D02*
X1300000Y3500000D01*
X1564342Y4625000D02*
X2155000Y4625000D01*
X2155000Y3775000D02*
X1575000Y3775000D01*
X2130000Y4600000D02*
X2155000Y4625000D01*
X2155000Y3775000D02*
X2155000Y4625000D01*
X1068200Y5121142D02*
X1564342Y4625000D01*
X1725000Y6225000D02*
X1068200Y5568200D01*
%TO.N,/AK_MOSI*%
X3100000Y2500000D02*
X3722912Y3122912D01*
X3722912Y3122912D02*
X3722912Y3861456D01*
%TD*%
M02*
