%TF.GenerationSoftware,KiCad,Pcbnew,10.0.2*%
%TF.CreationDate,2026-05-23T18:30:53-04:00*%
%TF.ProjectId,tag-breakout-l432v2,7461672d-6272-4656-916b-6f75742d6c34,rev?*%
%TF.SameCoordinates,Original*%
%TF.FileFunction,Legend,Top*%
%TF.FilePolarity,Positive*%
%FSLAX46Y46*%
G04 Gerber Fmt 4.6, Leading zero omitted, Abs format (unit mm)*
G04 Created by KiCad (PCBNEW 10.0.2) date 2026-05-23 18:30:53*
%MOMM*%
%LPD*%
G01*
G04 APERTURE LIST*
G04 Aperture macros list*
%AMRoundRect*
0 Rectangle with rounded corners*
0 $1 Rounding radius*
0 $2 $3 $4 $5 $6 $7 $8 $9 X,Y pos of 4 corners*
0 Add a 4 corners polygon primitive as box body*
4,1,4,$2,$3,$4,$5,$6,$7,$8,$9,$2,$3,0*
0 Add four circle primitives for the rounded corners*
1,1,$1+$1,$2,$3*
1,1,$1+$1,$4,$5*
1,1,$1+$1,$6,$7*
1,1,$1+$1,$8,$9*
0 Add four rect primitives between the rounded corners*
20,1,$1+$1,$2,$3,$4,$5,0*
20,1,$1+$1,$4,$5,$6,$7,0*
20,1,$1+$1,$6,$7,$8,$9,0*
20,1,$1+$1,$8,$9,$2,$3,0*%
G04 Aperture macros list end*
%ADD10C,0.150000*%
%ADD11C,0.200000*%
%ADD12C,0.300000*%
%ADD13C,0.120000*%
%ADD14C,1.016000*%
%ADD15R,1.000000X0.750000*%
%ADD16RoundRect,0.150000X0.150000X-0.512500X0.150000X0.512500X-0.150000X0.512500X-0.150000X-0.512500X0*%
%ADD17RoundRect,0.225000X-0.250000X0.225000X-0.250000X-0.225000X0.250000X-0.225000X0.250000X0.225000X0*%
%ADD18RoundRect,0.225000X0.250000X-0.225000X0.250000X0.225000X-0.250000X0.225000X-0.250000X-0.225000X0*%
%ADD19RoundRect,0.200000X0.275000X-0.200000X0.275000X0.200000X-0.275000X0.200000X-0.275000X-0.200000X0*%
%ADD20RoundRect,0.200000X-0.275000X0.200000X-0.275000X-0.200000X0.275000X-0.200000X0.275000X0.200000X0*%
%ADD21RoundRect,0.225000X-0.225000X-0.250000X0.225000X-0.250000X0.225000X0.250000X-0.225000X0.250000X0*%
%ADD22RoundRect,0.225000X0.225000X0.250000X-0.225000X0.250000X-0.225000X-0.250000X0.225000X-0.250000X0*%
%ADD23R,1.700000X1.700000*%
%ADD24O,1.700000X1.700000*%
%ADD25RoundRect,0.150000X-0.150000X0.587500X-0.150000X-0.587500X0.150000X-0.587500X0.150000X0.587500X0*%
%ADD26R,0.800000X0.500000*%
%ADD27RoundRect,0.218750X-0.218750X-0.256250X0.218750X-0.256250X0.218750X0.256250X-0.218750X0.256250X0*%
%ADD28RoundRect,0.200000X-0.200000X-0.275000X0.200000X-0.275000X0.200000X0.275000X-0.200000X0.275000X0*%
%ADD29C,1.200000*%
%ADD30RoundRect,0.250000X0.725000X-0.600000X0.725000X0.600000X-0.725000X0.600000X-0.725000X-0.600000X0*%
%ADD31O,1.950000X1.700000*%
%ADD32RoundRect,0.218750X0.256250X-0.218750X0.256250X0.218750X-0.256250X0.218750X-0.256250X-0.218750X0*%
%ADD33RoundRect,0.125000X0.125000X-0.625000X0.125000X0.625000X-0.125000X0.625000X-0.125000X-0.625000X0*%
%ADD34RoundRect,0.125000X0.625000X-0.125000X0.625000X0.125000X-0.625000X0.125000X-0.625000X-0.125000X0*%
%ADD35RoundRect,0.225000X-0.225000X-0.375000X0.225000X-0.375000X0.225000X0.375000X-0.225000X0.375000X0*%
%ADD36RoundRect,0.225000X0.225000X0.375000X-0.225000X0.375000X-0.225000X-0.375000X0.225000X-0.375000X0*%
%ADD37R,0.760000X1.270000*%
%ADD38C,1.000000*%
%ADD39R,0.500000X2.000000*%
%ADD40R,2.000000X1.700000*%
%ADD41RoundRect,0.062500X-0.375000X-0.062500X0.375000X-0.062500X0.375000X0.062500X-0.375000X0.062500X0*%
%ADD42RoundRect,0.062500X-0.062500X-0.375000X0.062500X-0.375000X0.062500X0.375000X-0.062500X0.375000X0*%
%ADD43R,3.500000X3.500000*%
G04 APERTURE END LIST*
D10*
X7756779Y42665181D02*
X7756779Y43331848D01*
X7756779Y43141372D02*
X7804398Y43236610D01*
X7804398Y43236610D02*
X7852017Y43284229D01*
X7852017Y43284229D02*
X7947255Y43331848D01*
X7947255Y43331848D02*
X8042493Y43331848D01*
X8232970Y43331848D02*
X8613922Y43331848D01*
X8375827Y43665181D02*
X8375827Y42808039D01*
X8375827Y42808039D02*
X8423446Y42712800D01*
X8423446Y42712800D02*
X8518684Y42665181D01*
X8518684Y42665181D02*
X8613922Y42665181D01*
X9375827Y42712800D02*
X9280589Y42665181D01*
X9280589Y42665181D02*
X9090113Y42665181D01*
X9090113Y42665181D02*
X8994875Y42712800D01*
X8994875Y42712800D02*
X8947256Y42760420D01*
X8947256Y42760420D02*
X8899637Y42855658D01*
X8899637Y42855658D02*
X8899637Y43141372D01*
X8899637Y43141372D02*
X8947256Y43236610D01*
X8947256Y43236610D02*
X8994875Y43284229D01*
X8994875Y43284229D02*
X9090113Y43331848D01*
X9090113Y43331848D02*
X9280589Y43331848D01*
X9280589Y43331848D02*
X9375827Y43284229D01*
X9566304Y42569943D02*
X10328208Y42569943D01*
X10518685Y42712800D02*
X10613923Y42665181D01*
X10613923Y42665181D02*
X10804399Y42665181D01*
X10804399Y42665181D02*
X10899637Y42712800D01*
X10899637Y42712800D02*
X10947256Y42808039D01*
X10947256Y42808039D02*
X10947256Y42855658D01*
X10947256Y42855658D02*
X10899637Y42950896D01*
X10899637Y42950896D02*
X10804399Y42998515D01*
X10804399Y42998515D02*
X10661542Y42998515D01*
X10661542Y42998515D02*
X10566304Y43046134D01*
X10566304Y43046134D02*
X10518685Y43141372D01*
X10518685Y43141372D02*
X10518685Y43188991D01*
X10518685Y43188991D02*
X10566304Y43284229D01*
X10566304Y43284229D02*
X10661542Y43331848D01*
X10661542Y43331848D02*
X10804399Y43331848D01*
X10804399Y43331848D02*
X10899637Y43284229D01*
X11804399Y42712800D02*
X11709161Y42665181D01*
X11709161Y42665181D02*
X11518685Y42665181D01*
X11518685Y42665181D02*
X11423447Y42712800D01*
X11423447Y42712800D02*
X11375828Y42760420D01*
X11375828Y42760420D02*
X11328209Y42855658D01*
X11328209Y42855658D02*
X11328209Y43141372D01*
X11328209Y43141372D02*
X11375828Y43236610D01*
X11375828Y43236610D02*
X11423447Y43284229D01*
X11423447Y43284229D02*
X11518685Y43331848D01*
X11518685Y43331848D02*
X11709161Y43331848D01*
X11709161Y43331848D02*
X11804399Y43284229D01*
X12375828Y42665181D02*
X12280590Y42712800D01*
X12280590Y42712800D02*
X12232971Y42808039D01*
X12232971Y42808039D02*
X12232971Y43665181D01*
X7856779Y40125181D02*
X7856779Y40791848D01*
X7856779Y40601372D02*
X7904398Y40696610D01*
X7904398Y40696610D02*
X7952017Y40744229D01*
X7952017Y40744229D02*
X8047255Y40791848D01*
X8047255Y40791848D02*
X8142493Y40791848D01*
X8332970Y40791848D02*
X8713922Y40791848D01*
X8475827Y41125181D02*
X8475827Y40268039D01*
X8475827Y40268039D02*
X8523446Y40172800D01*
X8523446Y40172800D02*
X8618684Y40125181D01*
X8618684Y40125181D02*
X8713922Y40125181D01*
X9475827Y40172800D02*
X9380589Y40125181D01*
X9380589Y40125181D02*
X9190113Y40125181D01*
X9190113Y40125181D02*
X9094875Y40172800D01*
X9094875Y40172800D02*
X9047256Y40220420D01*
X9047256Y40220420D02*
X8999637Y40315658D01*
X8999637Y40315658D02*
X8999637Y40601372D01*
X8999637Y40601372D02*
X9047256Y40696610D01*
X9047256Y40696610D02*
X9094875Y40744229D01*
X9094875Y40744229D02*
X9190113Y40791848D01*
X9190113Y40791848D02*
X9380589Y40791848D01*
X9380589Y40791848D02*
X9475827Y40744229D01*
X9666304Y40029943D02*
X10428208Y40029943D01*
X10618685Y40172800D02*
X10713923Y40125181D01*
X10713923Y40125181D02*
X10904399Y40125181D01*
X10904399Y40125181D02*
X10999637Y40172800D01*
X10999637Y40172800D02*
X11047256Y40268039D01*
X11047256Y40268039D02*
X11047256Y40315658D01*
X11047256Y40315658D02*
X10999637Y40410896D01*
X10999637Y40410896D02*
X10904399Y40458515D01*
X10904399Y40458515D02*
X10761542Y40458515D01*
X10761542Y40458515D02*
X10666304Y40506134D01*
X10666304Y40506134D02*
X10618685Y40601372D01*
X10618685Y40601372D02*
X10618685Y40648991D01*
X10618685Y40648991D02*
X10666304Y40744229D01*
X10666304Y40744229D02*
X10761542Y40791848D01*
X10761542Y40791848D02*
X10904399Y40791848D01*
X10904399Y40791848D02*
X10999637Y40744229D01*
X11904399Y40125181D02*
X11904399Y41125181D01*
X11904399Y40172800D02*
X11809161Y40125181D01*
X11809161Y40125181D02*
X11618685Y40125181D01*
X11618685Y40125181D02*
X11523447Y40172800D01*
X11523447Y40172800D02*
X11475828Y40220420D01*
X11475828Y40220420D02*
X11428209Y40315658D01*
X11428209Y40315658D02*
X11428209Y40601372D01*
X11428209Y40601372D02*
X11475828Y40696610D01*
X11475828Y40696610D02*
X11523447Y40744229D01*
X11523447Y40744229D02*
X11618685Y40791848D01*
X11618685Y40791848D02*
X11809161Y40791848D01*
X11809161Y40791848D02*
X11904399Y40744229D01*
X12809161Y40125181D02*
X12809161Y40648991D01*
X12809161Y40648991D02*
X12761542Y40744229D01*
X12761542Y40744229D02*
X12666304Y40791848D01*
X12666304Y40791848D02*
X12475828Y40791848D01*
X12475828Y40791848D02*
X12380590Y40744229D01*
X12809161Y40172800D02*
X12713923Y40125181D01*
X12713923Y40125181D02*
X12475828Y40125181D01*
X12475828Y40125181D02*
X12380590Y40172800D01*
X12380590Y40172800D02*
X12332971Y40268039D01*
X12332971Y40268039D02*
X12332971Y40363277D01*
X12332971Y40363277D02*
X12380590Y40458515D01*
X12380590Y40458515D02*
X12475828Y40506134D01*
X12475828Y40506134D02*
X12713923Y40506134D01*
X12713923Y40506134D02*
X12809161Y40553753D01*
X7856779Y37465181D02*
X7856779Y38465181D01*
X7856779Y38465181D02*
X8428207Y37465181D01*
X8428207Y37465181D02*
X8428207Y38465181D01*
X9475826Y37560420D02*
X9428207Y37512800D01*
X9428207Y37512800D02*
X9285350Y37465181D01*
X9285350Y37465181D02*
X9190112Y37465181D01*
X9190112Y37465181D02*
X9047255Y37512800D01*
X9047255Y37512800D02*
X8952017Y37608039D01*
X8952017Y37608039D02*
X8904398Y37703277D01*
X8904398Y37703277D02*
X8856779Y37893753D01*
X8856779Y37893753D02*
X8856779Y38036610D01*
X8856779Y38036610D02*
X8904398Y38227086D01*
X8904398Y38227086D02*
X8952017Y38322324D01*
X8952017Y38322324D02*
X9047255Y38417562D01*
X9047255Y38417562D02*
X9190112Y38465181D01*
X9190112Y38465181D02*
X9285350Y38465181D01*
X9285350Y38465181D02*
X9428207Y38417562D01*
X9428207Y38417562D02*
X9475826Y38369943D01*
X7856779Y34965181D02*
X7856779Y35965181D01*
X7856779Y35965181D02*
X8428207Y34965181D01*
X8428207Y34965181D02*
X8428207Y35965181D01*
X9475826Y35060420D02*
X9428207Y35012800D01*
X9428207Y35012800D02*
X9285350Y34965181D01*
X9285350Y34965181D02*
X9190112Y34965181D01*
X9190112Y34965181D02*
X9047255Y35012800D01*
X9047255Y35012800D02*
X8952017Y35108039D01*
X8952017Y35108039D02*
X8904398Y35203277D01*
X8904398Y35203277D02*
X8856779Y35393753D01*
X8856779Y35393753D02*
X8856779Y35536610D01*
X8856779Y35536610D02*
X8904398Y35727086D01*
X8904398Y35727086D02*
X8952017Y35822324D01*
X8952017Y35822324D02*
X9047255Y35917562D01*
X9047255Y35917562D02*
X9190112Y35965181D01*
X9190112Y35965181D02*
X9285350Y35965181D01*
X9285350Y35965181D02*
X9428207Y35917562D01*
X9428207Y35917562D02*
X9475826Y35869943D01*
X7813922Y58905181D02*
X8385350Y58905181D01*
X8099636Y57905181D02*
X8099636Y58905181D01*
X8623446Y58905181D02*
X9290112Y57905181D01*
X9290112Y58905181D02*
X8623446Y57905181D01*
X8480588Y56317562D02*
X8385350Y56365181D01*
X8385350Y56365181D02*
X8242493Y56365181D01*
X8242493Y56365181D02*
X8099636Y56317562D01*
X8099636Y56317562D02*
X8004398Y56222324D01*
X8004398Y56222324D02*
X7956779Y56127086D01*
X7956779Y56127086D02*
X7909160Y55936610D01*
X7909160Y55936610D02*
X7909160Y55793753D01*
X7909160Y55793753D02*
X7956779Y55603277D01*
X7956779Y55603277D02*
X8004398Y55508039D01*
X8004398Y55508039D02*
X8099636Y55412800D01*
X8099636Y55412800D02*
X8242493Y55365181D01*
X8242493Y55365181D02*
X8337731Y55365181D01*
X8337731Y55365181D02*
X8480588Y55412800D01*
X8480588Y55412800D02*
X8528207Y55460420D01*
X8528207Y55460420D02*
X8528207Y55793753D01*
X8528207Y55793753D02*
X8337731Y55793753D01*
X8956779Y55365181D02*
X8956779Y56365181D01*
X8956779Y56365181D02*
X9528207Y55365181D01*
X9528207Y55365181D02*
X9528207Y56365181D01*
X10004398Y55365181D02*
X10004398Y56365181D01*
X10004398Y56365181D02*
X10242493Y56365181D01*
X10242493Y56365181D02*
X10385350Y56317562D01*
X10385350Y56317562D02*
X10480588Y56222324D01*
X10480588Y56222324D02*
X10528207Y56127086D01*
X10528207Y56127086D02*
X10575826Y55936610D01*
X10575826Y55936610D02*
X10575826Y55793753D01*
X10575826Y55793753D02*
X10528207Y55603277D01*
X10528207Y55603277D02*
X10480588Y55508039D01*
X10480588Y55508039D02*
X10385350Y55412800D01*
X10385350Y55412800D02*
X10242493Y55365181D01*
X10242493Y55365181D02*
X10004398Y55365181D01*
X7956779Y47745181D02*
X7956779Y48745181D01*
X7956779Y48745181D02*
X8337731Y48745181D01*
X8337731Y48745181D02*
X8432969Y48697562D01*
X8432969Y48697562D02*
X8480588Y48649943D01*
X8480588Y48649943D02*
X8528207Y48554705D01*
X8528207Y48554705D02*
X8528207Y48411848D01*
X8528207Y48411848D02*
X8480588Y48316610D01*
X8480588Y48316610D02*
X8432969Y48268991D01*
X8432969Y48268991D02*
X8337731Y48221372D01*
X8337731Y48221372D02*
X7956779Y48221372D01*
X9290112Y48268991D02*
X9432969Y48221372D01*
X9432969Y48221372D02*
X9480588Y48173753D01*
X9480588Y48173753D02*
X9528207Y48078515D01*
X9528207Y48078515D02*
X9528207Y47935658D01*
X9528207Y47935658D02*
X9480588Y47840420D01*
X9480588Y47840420D02*
X9432969Y47792800D01*
X9432969Y47792800D02*
X9337731Y47745181D01*
X9337731Y47745181D02*
X8956779Y47745181D01*
X8956779Y47745181D02*
X8956779Y48745181D01*
X8956779Y48745181D02*
X9290112Y48745181D01*
X9290112Y48745181D02*
X9385350Y48697562D01*
X9385350Y48697562D02*
X9432969Y48649943D01*
X9432969Y48649943D02*
X9480588Y48554705D01*
X9480588Y48554705D02*
X9480588Y48459467D01*
X9480588Y48459467D02*
X9432969Y48364229D01*
X9432969Y48364229D02*
X9385350Y48316610D01*
X9385350Y48316610D02*
X9290112Y48268991D01*
X9290112Y48268991D02*
X8956779Y48268991D01*
X10385350Y48411848D02*
X10385350Y47745181D01*
X10147255Y48792800D02*
X9909160Y48078515D01*
X9909160Y48078515D02*
X10528207Y48078515D01*
X7956779Y45205181D02*
X7956779Y46205181D01*
X7956779Y46205181D02*
X8337731Y46205181D01*
X8337731Y46205181D02*
X8432969Y46157562D01*
X8432969Y46157562D02*
X8480588Y46109943D01*
X8480588Y46109943D02*
X8528207Y46014705D01*
X8528207Y46014705D02*
X8528207Y45871848D01*
X8528207Y45871848D02*
X8480588Y45776610D01*
X8480588Y45776610D02*
X8432969Y45728991D01*
X8432969Y45728991D02*
X8337731Y45681372D01*
X8337731Y45681372D02*
X7956779Y45681372D01*
X9290112Y45728991D02*
X9432969Y45681372D01*
X9432969Y45681372D02*
X9480588Y45633753D01*
X9480588Y45633753D02*
X9528207Y45538515D01*
X9528207Y45538515D02*
X9528207Y45395658D01*
X9528207Y45395658D02*
X9480588Y45300420D01*
X9480588Y45300420D02*
X9432969Y45252800D01*
X9432969Y45252800D02*
X9337731Y45205181D01*
X9337731Y45205181D02*
X8956779Y45205181D01*
X8956779Y45205181D02*
X8956779Y46205181D01*
X8956779Y46205181D02*
X9290112Y46205181D01*
X9290112Y46205181D02*
X9385350Y46157562D01*
X9385350Y46157562D02*
X9432969Y46109943D01*
X9432969Y46109943D02*
X9480588Y46014705D01*
X9480588Y46014705D02*
X9480588Y45919467D01*
X9480588Y45919467D02*
X9432969Y45824229D01*
X9432969Y45824229D02*
X9385350Y45776610D01*
X9385350Y45776610D02*
X9290112Y45728991D01*
X9290112Y45728991D02*
X8956779Y45728991D01*
X10432969Y46205181D02*
X9956779Y46205181D01*
X9956779Y46205181D02*
X9909160Y45728991D01*
X9909160Y45728991D02*
X9956779Y45776610D01*
X9956779Y45776610D02*
X10052017Y45824229D01*
X10052017Y45824229D02*
X10290112Y45824229D01*
X10290112Y45824229D02*
X10385350Y45776610D01*
X10385350Y45776610D02*
X10432969Y45728991D01*
X10432969Y45728991D02*
X10480588Y45633753D01*
X10480588Y45633753D02*
X10480588Y45395658D01*
X10480588Y45395658D02*
X10432969Y45300420D01*
X10432969Y45300420D02*
X10385350Y45252800D01*
X10385350Y45252800D02*
X10290112Y45205181D01*
X10290112Y45205181D02*
X10052017Y45205181D01*
X10052017Y45205181D02*
X9956779Y45252800D01*
X9956779Y45252800D02*
X9909160Y45300420D01*
X7956779Y29965181D02*
X7956779Y30965181D01*
X7956779Y30965181D02*
X8337731Y30965181D01*
X8337731Y30965181D02*
X8432969Y30917562D01*
X8432969Y30917562D02*
X8480588Y30869943D01*
X8480588Y30869943D02*
X8528207Y30774705D01*
X8528207Y30774705D02*
X8528207Y30631848D01*
X8528207Y30631848D02*
X8480588Y30536610D01*
X8480588Y30536610D02*
X8432969Y30488991D01*
X8432969Y30488991D02*
X8337731Y30441372D01*
X8337731Y30441372D02*
X7956779Y30441372D01*
X8909160Y30250896D02*
X9385350Y30250896D01*
X8813922Y29965181D02*
X9147255Y30965181D01*
X9147255Y30965181D02*
X9480588Y29965181D01*
X10004398Y30965181D02*
X10099636Y30965181D01*
X10099636Y30965181D02*
X10194874Y30917562D01*
X10194874Y30917562D02*
X10242493Y30869943D01*
X10242493Y30869943D02*
X10290112Y30774705D01*
X10290112Y30774705D02*
X10337731Y30584229D01*
X10337731Y30584229D02*
X10337731Y30346134D01*
X10337731Y30346134D02*
X10290112Y30155658D01*
X10290112Y30155658D02*
X10242493Y30060420D01*
X10242493Y30060420D02*
X10194874Y30012800D01*
X10194874Y30012800D02*
X10099636Y29965181D01*
X10099636Y29965181D02*
X10004398Y29965181D01*
X10004398Y29965181D02*
X9909160Y30012800D01*
X9909160Y30012800D02*
X9861541Y30060420D01*
X9861541Y30060420D02*
X9813922Y30155658D01*
X9813922Y30155658D02*
X9766303Y30346134D01*
X9766303Y30346134D02*
X9766303Y30584229D01*
X9766303Y30584229D02*
X9813922Y30774705D01*
X9813922Y30774705D02*
X9861541Y30869943D01*
X9861541Y30869943D02*
X9909160Y30917562D01*
X9909160Y30917562D02*
X10004398Y30965181D01*
X7956779Y27425181D02*
X7956779Y28425181D01*
X7956779Y28425181D02*
X8337731Y28425181D01*
X8337731Y28425181D02*
X8432969Y28377562D01*
X8432969Y28377562D02*
X8480588Y28329943D01*
X8480588Y28329943D02*
X8528207Y28234705D01*
X8528207Y28234705D02*
X8528207Y28091848D01*
X8528207Y28091848D02*
X8480588Y27996610D01*
X8480588Y27996610D02*
X8432969Y27948991D01*
X8432969Y27948991D02*
X8337731Y27901372D01*
X8337731Y27901372D02*
X7956779Y27901372D01*
X8909160Y27710896D02*
X9385350Y27710896D01*
X8813922Y27425181D02*
X9147255Y28425181D01*
X9147255Y28425181D02*
X9480588Y27425181D01*
X10337731Y27425181D02*
X9766303Y27425181D01*
X10052017Y27425181D02*
X10052017Y28425181D01*
X10052017Y28425181D02*
X9956779Y28282324D01*
X9956779Y28282324D02*
X9861541Y28187086D01*
X9861541Y28187086D02*
X9766303Y28139467D01*
X7956779Y24885181D02*
X7956779Y25885181D01*
X7956779Y25885181D02*
X8337731Y25885181D01*
X8337731Y25885181D02*
X8432969Y25837562D01*
X8432969Y25837562D02*
X8480588Y25789943D01*
X8480588Y25789943D02*
X8528207Y25694705D01*
X8528207Y25694705D02*
X8528207Y25551848D01*
X8528207Y25551848D02*
X8480588Y25456610D01*
X8480588Y25456610D02*
X8432969Y25408991D01*
X8432969Y25408991D02*
X8337731Y25361372D01*
X8337731Y25361372D02*
X7956779Y25361372D01*
X8909160Y25170896D02*
X9385350Y25170896D01*
X8813922Y24885181D02*
X9147255Y25885181D01*
X9147255Y25885181D02*
X9480588Y24885181D01*
X9766303Y25789943D02*
X9813922Y25837562D01*
X9813922Y25837562D02*
X9909160Y25885181D01*
X9909160Y25885181D02*
X10147255Y25885181D01*
X10147255Y25885181D02*
X10242493Y25837562D01*
X10242493Y25837562D02*
X10290112Y25789943D01*
X10290112Y25789943D02*
X10337731Y25694705D01*
X10337731Y25694705D02*
X10337731Y25599467D01*
X10337731Y25599467D02*
X10290112Y25456610D01*
X10290112Y25456610D02*
X9718684Y24885181D01*
X9718684Y24885181D02*
X10337731Y24885181D01*
X7956779Y22345181D02*
X7956779Y23345181D01*
X7956779Y23345181D02*
X8337731Y23345181D01*
X8337731Y23345181D02*
X8432969Y23297562D01*
X8432969Y23297562D02*
X8480588Y23249943D01*
X8480588Y23249943D02*
X8528207Y23154705D01*
X8528207Y23154705D02*
X8528207Y23011848D01*
X8528207Y23011848D02*
X8480588Y22916610D01*
X8480588Y22916610D02*
X8432969Y22868991D01*
X8432969Y22868991D02*
X8337731Y22821372D01*
X8337731Y22821372D02*
X7956779Y22821372D01*
X8909160Y22630896D02*
X9385350Y22630896D01*
X8813922Y22345181D02*
X9147255Y23345181D01*
X9147255Y23345181D02*
X9480588Y22345181D01*
X9718684Y23345181D02*
X10337731Y23345181D01*
X10337731Y23345181D02*
X10004398Y22964229D01*
X10004398Y22964229D02*
X10147255Y22964229D01*
X10147255Y22964229D02*
X10242493Y22916610D01*
X10242493Y22916610D02*
X10290112Y22868991D01*
X10290112Y22868991D02*
X10337731Y22773753D01*
X10337731Y22773753D02*
X10337731Y22535658D01*
X10337731Y22535658D02*
X10290112Y22440420D01*
X10290112Y22440420D02*
X10242493Y22392800D01*
X10242493Y22392800D02*
X10147255Y22345181D01*
X10147255Y22345181D02*
X9861541Y22345181D01*
X9861541Y22345181D02*
X9766303Y22392800D01*
X9766303Y22392800D02*
X9718684Y22440420D01*
X7956779Y19805181D02*
X7956779Y20805181D01*
X7956779Y20805181D02*
X8337731Y20805181D01*
X8337731Y20805181D02*
X8432969Y20757562D01*
X8432969Y20757562D02*
X8480588Y20709943D01*
X8480588Y20709943D02*
X8528207Y20614705D01*
X8528207Y20614705D02*
X8528207Y20471848D01*
X8528207Y20471848D02*
X8480588Y20376610D01*
X8480588Y20376610D02*
X8432969Y20328991D01*
X8432969Y20328991D02*
X8337731Y20281372D01*
X8337731Y20281372D02*
X7956779Y20281372D01*
X8909160Y20090896D02*
X9385350Y20090896D01*
X8813922Y19805181D02*
X9147255Y20805181D01*
X9147255Y20805181D02*
X9480588Y19805181D01*
X10242493Y20471848D02*
X10242493Y19805181D01*
X10004398Y20852800D02*
X9766303Y20138515D01*
X9766303Y20138515D02*
X10385350Y20138515D01*
X7956779Y17265181D02*
X7956779Y18265181D01*
X7956779Y18265181D02*
X8337731Y18265181D01*
X8337731Y18265181D02*
X8432969Y18217562D01*
X8432969Y18217562D02*
X8480588Y18169943D01*
X8480588Y18169943D02*
X8528207Y18074705D01*
X8528207Y18074705D02*
X8528207Y17931848D01*
X8528207Y17931848D02*
X8480588Y17836610D01*
X8480588Y17836610D02*
X8432969Y17788991D01*
X8432969Y17788991D02*
X8337731Y17741372D01*
X8337731Y17741372D02*
X7956779Y17741372D01*
X8909160Y17550896D02*
X9385350Y17550896D01*
X8813922Y17265181D02*
X9147255Y18265181D01*
X9147255Y18265181D02*
X9480588Y17265181D01*
X10290112Y18265181D02*
X9813922Y18265181D01*
X9813922Y18265181D02*
X9766303Y17788991D01*
X9766303Y17788991D02*
X9813922Y17836610D01*
X9813922Y17836610D02*
X9909160Y17884229D01*
X9909160Y17884229D02*
X10147255Y17884229D01*
X10147255Y17884229D02*
X10242493Y17836610D01*
X10242493Y17836610D02*
X10290112Y17788991D01*
X10290112Y17788991D02*
X10337731Y17693753D01*
X10337731Y17693753D02*
X10337731Y17455658D01*
X10337731Y17455658D02*
X10290112Y17360420D01*
X10290112Y17360420D02*
X10242493Y17312800D01*
X10242493Y17312800D02*
X10147255Y17265181D01*
X10147255Y17265181D02*
X9909160Y17265181D01*
X9909160Y17265181D02*
X9813922Y17312800D01*
X9813922Y17312800D02*
X9766303Y17360420D01*
X7956779Y14725181D02*
X7956779Y15725181D01*
X7956779Y15725181D02*
X8337731Y15725181D01*
X8337731Y15725181D02*
X8432969Y15677562D01*
X8432969Y15677562D02*
X8480588Y15629943D01*
X8480588Y15629943D02*
X8528207Y15534705D01*
X8528207Y15534705D02*
X8528207Y15391848D01*
X8528207Y15391848D02*
X8480588Y15296610D01*
X8480588Y15296610D02*
X8432969Y15248991D01*
X8432969Y15248991D02*
X8337731Y15201372D01*
X8337731Y15201372D02*
X7956779Y15201372D01*
X8909160Y15010896D02*
X9385350Y15010896D01*
X8813922Y14725181D02*
X9147255Y15725181D01*
X9147255Y15725181D02*
X9480588Y14725181D01*
X10242493Y15725181D02*
X10052017Y15725181D01*
X10052017Y15725181D02*
X9956779Y15677562D01*
X9956779Y15677562D02*
X9909160Y15629943D01*
X9909160Y15629943D02*
X9813922Y15487086D01*
X9813922Y15487086D02*
X9766303Y15296610D01*
X9766303Y15296610D02*
X9766303Y14915658D01*
X9766303Y14915658D02*
X9813922Y14820420D01*
X9813922Y14820420D02*
X9861541Y14772800D01*
X9861541Y14772800D02*
X9956779Y14725181D01*
X9956779Y14725181D02*
X10147255Y14725181D01*
X10147255Y14725181D02*
X10242493Y14772800D01*
X10242493Y14772800D02*
X10290112Y14820420D01*
X10290112Y14820420D02*
X10337731Y14915658D01*
X10337731Y14915658D02*
X10337731Y15153753D01*
X10337731Y15153753D02*
X10290112Y15248991D01*
X10290112Y15248991D02*
X10242493Y15296610D01*
X10242493Y15296610D02*
X10147255Y15344229D01*
X10147255Y15344229D02*
X9956779Y15344229D01*
X9956779Y15344229D02*
X9861541Y15296610D01*
X9861541Y15296610D02*
X9813922Y15248991D01*
X9813922Y15248991D02*
X9766303Y15153753D01*
X7956779Y12185181D02*
X7956779Y13185181D01*
X7956779Y13185181D02*
X8337731Y13185181D01*
X8337731Y13185181D02*
X8432969Y13137562D01*
X8432969Y13137562D02*
X8480588Y13089943D01*
X8480588Y13089943D02*
X8528207Y12994705D01*
X8528207Y12994705D02*
X8528207Y12851848D01*
X8528207Y12851848D02*
X8480588Y12756610D01*
X8480588Y12756610D02*
X8432969Y12708991D01*
X8432969Y12708991D02*
X8337731Y12661372D01*
X8337731Y12661372D02*
X7956779Y12661372D01*
X8909160Y12470896D02*
X9385350Y12470896D01*
X8813922Y12185181D02*
X9147255Y13185181D01*
X9147255Y13185181D02*
X9480588Y12185181D01*
X9718684Y13185181D02*
X10385350Y13185181D01*
X10385350Y13185181D02*
X9956779Y12185181D01*
X7956779Y9645181D02*
X7956779Y10645181D01*
X7956779Y10645181D02*
X8337731Y10645181D01*
X8337731Y10645181D02*
X8432969Y10597562D01*
X8432969Y10597562D02*
X8480588Y10549943D01*
X8480588Y10549943D02*
X8528207Y10454705D01*
X8528207Y10454705D02*
X8528207Y10311848D01*
X8528207Y10311848D02*
X8480588Y10216610D01*
X8480588Y10216610D02*
X8432969Y10168991D01*
X8432969Y10168991D02*
X8337731Y10121372D01*
X8337731Y10121372D02*
X7956779Y10121372D01*
X9290112Y10168991D02*
X9432969Y10121372D01*
X9432969Y10121372D02*
X9480588Y10073753D01*
X9480588Y10073753D02*
X9528207Y9978515D01*
X9528207Y9978515D02*
X9528207Y9835658D01*
X9528207Y9835658D02*
X9480588Y9740420D01*
X9480588Y9740420D02*
X9432969Y9692800D01*
X9432969Y9692800D02*
X9337731Y9645181D01*
X9337731Y9645181D02*
X8956779Y9645181D01*
X8956779Y9645181D02*
X8956779Y10645181D01*
X8956779Y10645181D02*
X9290112Y10645181D01*
X9290112Y10645181D02*
X9385350Y10597562D01*
X9385350Y10597562D02*
X9432969Y10549943D01*
X9432969Y10549943D02*
X9480588Y10454705D01*
X9480588Y10454705D02*
X9480588Y10359467D01*
X9480588Y10359467D02*
X9432969Y10264229D01*
X9432969Y10264229D02*
X9385350Y10216610D01*
X9385350Y10216610D02*
X9290112Y10168991D01*
X9290112Y10168991D02*
X8956779Y10168991D01*
X10147255Y10645181D02*
X10242493Y10645181D01*
X10242493Y10645181D02*
X10337731Y10597562D01*
X10337731Y10597562D02*
X10385350Y10549943D01*
X10385350Y10549943D02*
X10432969Y10454705D01*
X10432969Y10454705D02*
X10480588Y10264229D01*
X10480588Y10264229D02*
X10480588Y10026134D01*
X10480588Y10026134D02*
X10432969Y9835658D01*
X10432969Y9835658D02*
X10385350Y9740420D01*
X10385350Y9740420D02*
X10337731Y9692800D01*
X10337731Y9692800D02*
X10242493Y9645181D01*
X10242493Y9645181D02*
X10147255Y9645181D01*
X10147255Y9645181D02*
X10052017Y9692800D01*
X10052017Y9692800D02*
X10004398Y9740420D01*
X10004398Y9740420D02*
X9956779Y9835658D01*
X9956779Y9835658D02*
X9909160Y10026134D01*
X9909160Y10026134D02*
X9909160Y10264229D01*
X9909160Y10264229D02*
X9956779Y10454705D01*
X9956779Y10454705D02*
X10004398Y10549943D01*
X10004398Y10549943D02*
X10052017Y10597562D01*
X10052017Y10597562D02*
X10147255Y10645181D01*
X8480588Y8057562D02*
X8385350Y8105181D01*
X8385350Y8105181D02*
X8242493Y8105181D01*
X8242493Y8105181D02*
X8099636Y8057562D01*
X8099636Y8057562D02*
X8004398Y7962324D01*
X8004398Y7962324D02*
X7956779Y7867086D01*
X7956779Y7867086D02*
X7909160Y7676610D01*
X7909160Y7676610D02*
X7909160Y7533753D01*
X7909160Y7533753D02*
X7956779Y7343277D01*
X7956779Y7343277D02*
X8004398Y7248039D01*
X8004398Y7248039D02*
X8099636Y7152800D01*
X8099636Y7152800D02*
X8242493Y7105181D01*
X8242493Y7105181D02*
X8337731Y7105181D01*
X8337731Y7105181D02*
X8480588Y7152800D01*
X8480588Y7152800D02*
X8528207Y7200420D01*
X8528207Y7200420D02*
X8528207Y7533753D01*
X8528207Y7533753D02*
X8337731Y7533753D01*
X8956779Y7105181D02*
X8956779Y8105181D01*
X8956779Y8105181D02*
X9528207Y7105181D01*
X9528207Y7105181D02*
X9528207Y8105181D01*
X10004398Y7105181D02*
X10004398Y8105181D01*
X10004398Y8105181D02*
X10242493Y8105181D01*
X10242493Y8105181D02*
X10385350Y8057562D01*
X10385350Y8057562D02*
X10480588Y7962324D01*
X10480588Y7962324D02*
X10528207Y7867086D01*
X10528207Y7867086D02*
X10575826Y7676610D01*
X10575826Y7676610D02*
X10575826Y7533753D01*
X10575826Y7533753D02*
X10528207Y7343277D01*
X10528207Y7343277D02*
X10480588Y7248039D01*
X10480588Y7248039D02*
X10385350Y7152800D01*
X10385350Y7152800D02*
X10242493Y7105181D01*
X10242493Y7105181D02*
X10004398Y7105181D01*
X43656779Y27365181D02*
X43656779Y28365181D01*
X43656779Y28365181D02*
X44228207Y27365181D01*
X44228207Y27365181D02*
X44228207Y28365181D01*
X45275826Y27460420D02*
X45228207Y27412800D01*
X45228207Y27412800D02*
X45085350Y27365181D01*
X45085350Y27365181D02*
X44990112Y27365181D01*
X44990112Y27365181D02*
X44847255Y27412800D01*
X44847255Y27412800D02*
X44752017Y27508039D01*
X44752017Y27508039D02*
X44704398Y27603277D01*
X44704398Y27603277D02*
X44656779Y27793753D01*
X44656779Y27793753D02*
X44656779Y27936610D01*
X44656779Y27936610D02*
X44704398Y28127086D01*
X44704398Y28127086D02*
X44752017Y28222324D01*
X44752017Y28222324D02*
X44847255Y28317562D01*
X44847255Y28317562D02*
X44990112Y28365181D01*
X44990112Y28365181D02*
X45085350Y28365181D01*
X45085350Y28365181D02*
X45228207Y28317562D01*
X45228207Y28317562D02*
X45275826Y28269943D01*
X43656779Y24965181D02*
X43656779Y25965181D01*
X43656779Y25965181D02*
X44228207Y24965181D01*
X44228207Y24965181D02*
X44228207Y25965181D01*
X45275826Y25060420D02*
X45228207Y25012800D01*
X45228207Y25012800D02*
X45085350Y24965181D01*
X45085350Y24965181D02*
X44990112Y24965181D01*
X44990112Y24965181D02*
X44847255Y25012800D01*
X44847255Y25012800D02*
X44752017Y25108039D01*
X44752017Y25108039D02*
X44704398Y25203277D01*
X44704398Y25203277D02*
X44656779Y25393753D01*
X44656779Y25393753D02*
X44656779Y25536610D01*
X44656779Y25536610D02*
X44704398Y25727086D01*
X44704398Y25727086D02*
X44752017Y25822324D01*
X44752017Y25822324D02*
X44847255Y25917562D01*
X44847255Y25917562D02*
X44990112Y25965181D01*
X44990112Y25965181D02*
X45085350Y25965181D01*
X45085350Y25965181D02*
X45228207Y25917562D01*
X45228207Y25917562D02*
X45275826Y25869943D01*
X43656779Y22365181D02*
X43656779Y23365181D01*
X43656779Y23365181D02*
X44228207Y22365181D01*
X44228207Y22365181D02*
X44228207Y23365181D01*
X45275826Y22460420D02*
X45228207Y22412800D01*
X45228207Y22412800D02*
X45085350Y22365181D01*
X45085350Y22365181D02*
X44990112Y22365181D01*
X44990112Y22365181D02*
X44847255Y22412800D01*
X44847255Y22412800D02*
X44752017Y22508039D01*
X44752017Y22508039D02*
X44704398Y22603277D01*
X44704398Y22603277D02*
X44656779Y22793753D01*
X44656779Y22793753D02*
X44656779Y22936610D01*
X44656779Y22936610D02*
X44704398Y23127086D01*
X44704398Y23127086D02*
X44752017Y23222324D01*
X44752017Y23222324D02*
X44847255Y23317562D01*
X44847255Y23317562D02*
X44990112Y23365181D01*
X44990112Y23365181D02*
X45085350Y23365181D01*
X45085350Y23365181D02*
X45228207Y23317562D01*
X45228207Y23317562D02*
X45275826Y23269943D01*
X43656779Y19965181D02*
X43656779Y20965181D01*
X43656779Y20965181D02*
X44228207Y19965181D01*
X44228207Y19965181D02*
X44228207Y20965181D01*
X45275826Y20060420D02*
X45228207Y20012800D01*
X45228207Y20012800D02*
X45085350Y19965181D01*
X45085350Y19965181D02*
X44990112Y19965181D01*
X44990112Y19965181D02*
X44847255Y20012800D01*
X44847255Y20012800D02*
X44752017Y20108039D01*
X44752017Y20108039D02*
X44704398Y20203277D01*
X44704398Y20203277D02*
X44656779Y20393753D01*
X44656779Y20393753D02*
X44656779Y20536610D01*
X44656779Y20536610D02*
X44704398Y20727086D01*
X44704398Y20727086D02*
X44752017Y20822324D01*
X44752017Y20822324D02*
X44847255Y20917562D01*
X44847255Y20917562D02*
X44990112Y20965181D01*
X44990112Y20965181D02*
X45085350Y20965181D01*
X45085350Y20965181D02*
X45228207Y20917562D01*
X45228207Y20917562D02*
X45275826Y20869943D01*
X43656779Y17265181D02*
X43656779Y18265181D01*
X43656779Y18265181D02*
X44228207Y17265181D01*
X44228207Y17265181D02*
X44228207Y18265181D01*
X45275826Y17360420D02*
X45228207Y17312800D01*
X45228207Y17312800D02*
X45085350Y17265181D01*
X45085350Y17265181D02*
X44990112Y17265181D01*
X44990112Y17265181D02*
X44847255Y17312800D01*
X44847255Y17312800D02*
X44752017Y17408039D01*
X44752017Y17408039D02*
X44704398Y17503277D01*
X44704398Y17503277D02*
X44656779Y17693753D01*
X44656779Y17693753D02*
X44656779Y17836610D01*
X44656779Y17836610D02*
X44704398Y18027086D01*
X44704398Y18027086D02*
X44752017Y18122324D01*
X44752017Y18122324D02*
X44847255Y18217562D01*
X44847255Y18217562D02*
X44990112Y18265181D01*
X44990112Y18265181D02*
X45085350Y18265181D01*
X45085350Y18265181D02*
X45228207Y18217562D01*
X45228207Y18217562D02*
X45275826Y18169943D01*
X43656779Y14565181D02*
X43656779Y15565181D01*
X43656779Y15565181D02*
X44228207Y14565181D01*
X44228207Y14565181D02*
X44228207Y15565181D01*
X45275826Y14660420D02*
X45228207Y14612800D01*
X45228207Y14612800D02*
X45085350Y14565181D01*
X45085350Y14565181D02*
X44990112Y14565181D01*
X44990112Y14565181D02*
X44847255Y14612800D01*
X44847255Y14612800D02*
X44752017Y14708039D01*
X44752017Y14708039D02*
X44704398Y14803277D01*
X44704398Y14803277D02*
X44656779Y14993753D01*
X44656779Y14993753D02*
X44656779Y15136610D01*
X44656779Y15136610D02*
X44704398Y15327086D01*
X44704398Y15327086D02*
X44752017Y15422324D01*
X44752017Y15422324D02*
X44847255Y15517562D01*
X44847255Y15517562D02*
X44990112Y15565181D01*
X44990112Y15565181D02*
X45085350Y15565181D01*
X45085350Y15565181D02*
X45228207Y15517562D01*
X45228207Y15517562D02*
X45275826Y15469943D01*
X43656779Y12065181D02*
X43656779Y13065181D01*
X43656779Y13065181D02*
X44228207Y12065181D01*
X44228207Y12065181D02*
X44228207Y13065181D01*
X45275826Y12160420D02*
X45228207Y12112800D01*
X45228207Y12112800D02*
X45085350Y12065181D01*
X45085350Y12065181D02*
X44990112Y12065181D01*
X44990112Y12065181D02*
X44847255Y12112800D01*
X44847255Y12112800D02*
X44752017Y12208039D01*
X44752017Y12208039D02*
X44704398Y12303277D01*
X44704398Y12303277D02*
X44656779Y12493753D01*
X44656779Y12493753D02*
X44656779Y12636610D01*
X44656779Y12636610D02*
X44704398Y12827086D01*
X44704398Y12827086D02*
X44752017Y12922324D01*
X44752017Y12922324D02*
X44847255Y13017562D01*
X44847255Y13017562D02*
X44990112Y13065181D01*
X44990112Y13065181D02*
X45085350Y13065181D01*
X45085350Y13065181D02*
X45228207Y13017562D01*
X45228207Y13017562D02*
X45275826Y12969943D01*
X7823696Y33505181D02*
X8395124Y33505181D01*
X8109410Y32505181D02*
X8109410Y33505181D01*
X8680839Y32790896D02*
X9157029Y32790896D01*
X8585601Y32505181D02*
X8918934Y33505181D01*
X8918934Y33505181D02*
X9252267Y32505181D01*
X10109410Y33457562D02*
X10014172Y33505181D01*
X10014172Y33505181D02*
X9871315Y33505181D01*
X9871315Y33505181D02*
X9728458Y33457562D01*
X9728458Y33457562D02*
X9633220Y33362324D01*
X9633220Y33362324D02*
X9585601Y33267086D01*
X9585601Y33267086D02*
X9537982Y33076610D01*
X9537982Y33076610D02*
X9537982Y32933753D01*
X9537982Y32933753D02*
X9585601Y32743277D01*
X9585601Y32743277D02*
X9633220Y32648039D01*
X9633220Y32648039D02*
X9728458Y32552800D01*
X9728458Y32552800D02*
X9871315Y32505181D01*
X9871315Y32505181D02*
X9966553Y32505181D01*
X9966553Y32505181D02*
X10109410Y32552800D01*
X10109410Y32552800D02*
X10157029Y32600420D01*
X10157029Y32600420D02*
X10157029Y32933753D01*
X10157029Y32933753D02*
X9966553Y32933753D01*
X10347506Y32409943D02*
X11109410Y32409943D01*
X11252268Y33505181D02*
X11871315Y33505181D01*
X11871315Y33505181D02*
X11537982Y33124229D01*
X11537982Y33124229D02*
X11680839Y33124229D01*
X11680839Y33124229D02*
X11776077Y33076610D01*
X11776077Y33076610D02*
X11823696Y33028991D01*
X11823696Y33028991D02*
X11871315Y32933753D01*
X11871315Y32933753D02*
X11871315Y32695658D01*
X11871315Y32695658D02*
X11823696Y32600420D01*
X11823696Y32600420D02*
X11776077Y32552800D01*
X11776077Y32552800D02*
X11680839Y32505181D01*
X11680839Y32505181D02*
X11395125Y32505181D01*
X11395125Y32505181D02*
X11299887Y32552800D01*
X11299887Y32552800D02*
X11252268Y32600420D01*
X12157030Y33505181D02*
X12490363Y32505181D01*
X12490363Y32505181D02*
X12823696Y33505181D01*
X13061792Y33505181D02*
X13680839Y33505181D01*
X13680839Y33505181D02*
X13347506Y33124229D01*
X13347506Y33124229D02*
X13490363Y33124229D01*
X13490363Y33124229D02*
X13585601Y33076610D01*
X13585601Y33076610D02*
X13633220Y33028991D01*
X13633220Y33028991D02*
X13680839Y32933753D01*
X13680839Y32933753D02*
X13680839Y32695658D01*
X13680839Y32695658D02*
X13633220Y32600420D01*
X13633220Y32600420D02*
X13585601Y32552800D01*
X13585601Y32552800D02*
X13490363Y32505181D01*
X13490363Y32505181D02*
X13204649Y32505181D01*
X13204649Y32505181D02*
X13109411Y32552800D01*
X13109411Y32552800D02*
X13061792Y32600420D01*
X42907030Y45205181D02*
X42907030Y46205181D01*
X42907030Y46205181D02*
X43287982Y46205181D01*
X43287982Y46205181D02*
X43383220Y46157562D01*
X43383220Y46157562D02*
X43430839Y46109943D01*
X43430839Y46109943D02*
X43478458Y46014705D01*
X43478458Y46014705D02*
X43478458Y45871848D01*
X43478458Y45871848D02*
X43430839Y45776610D01*
X43430839Y45776610D02*
X43383220Y45728991D01*
X43383220Y45728991D02*
X43287982Y45681372D01*
X43287982Y45681372D02*
X42907030Y45681372D01*
X44240363Y45728991D02*
X44383220Y45681372D01*
X44383220Y45681372D02*
X44430839Y45633753D01*
X44430839Y45633753D02*
X44478458Y45538515D01*
X44478458Y45538515D02*
X44478458Y45395658D01*
X44478458Y45395658D02*
X44430839Y45300420D01*
X44430839Y45300420D02*
X44383220Y45252800D01*
X44383220Y45252800D02*
X44287982Y45205181D01*
X44287982Y45205181D02*
X43907030Y45205181D01*
X43907030Y45205181D02*
X43907030Y46205181D01*
X43907030Y46205181D02*
X44240363Y46205181D01*
X44240363Y46205181D02*
X44335601Y46157562D01*
X44335601Y46157562D02*
X44383220Y46109943D01*
X44383220Y46109943D02*
X44430839Y46014705D01*
X44430839Y46014705D02*
X44430839Y45919467D01*
X44430839Y45919467D02*
X44383220Y45824229D01*
X44383220Y45824229D02*
X44335601Y45776610D01*
X44335601Y45776610D02*
X44240363Y45728991D01*
X44240363Y45728991D02*
X43907030Y45728991D01*
X44811792Y46205181D02*
X45430839Y46205181D01*
X45430839Y46205181D02*
X45097506Y45824229D01*
X45097506Y45824229D02*
X45240363Y45824229D01*
X45240363Y45824229D02*
X45335601Y45776610D01*
X45335601Y45776610D02*
X45383220Y45728991D01*
X45383220Y45728991D02*
X45430839Y45633753D01*
X45430839Y45633753D02*
X45430839Y45395658D01*
X45430839Y45395658D02*
X45383220Y45300420D01*
X45383220Y45300420D02*
X45335601Y45252800D01*
X45335601Y45252800D02*
X45240363Y45205181D01*
X45240363Y45205181D02*
X44954649Y45205181D01*
X44954649Y45205181D02*
X44859411Y45252800D01*
X44859411Y45252800D02*
X44811792Y45300420D01*
X42097506Y42665181D02*
X42097506Y43665181D01*
X42097506Y43665181D02*
X42478458Y43665181D01*
X42478458Y43665181D02*
X42573696Y43617562D01*
X42573696Y43617562D02*
X42621315Y43569943D01*
X42621315Y43569943D02*
X42668934Y43474705D01*
X42668934Y43474705D02*
X42668934Y43331848D01*
X42668934Y43331848D02*
X42621315Y43236610D01*
X42621315Y43236610D02*
X42573696Y43188991D01*
X42573696Y43188991D02*
X42478458Y43141372D01*
X42478458Y43141372D02*
X42097506Y43141372D01*
X43049887Y42950896D02*
X43526077Y42950896D01*
X42954649Y42665181D02*
X43287982Y43665181D01*
X43287982Y43665181D02*
X43621315Y42665181D01*
X44478458Y42665181D02*
X43907030Y42665181D01*
X44192744Y42665181D02*
X44192744Y43665181D01*
X44192744Y43665181D02*
X44097506Y43522324D01*
X44097506Y43522324D02*
X44002268Y43427086D01*
X44002268Y43427086D02*
X43907030Y43379467D01*
X45383220Y43665181D02*
X44907030Y43665181D01*
X44907030Y43665181D02*
X44859411Y43188991D01*
X44859411Y43188991D02*
X44907030Y43236610D01*
X44907030Y43236610D02*
X45002268Y43284229D01*
X45002268Y43284229D02*
X45240363Y43284229D01*
X45240363Y43284229D02*
X45335601Y43236610D01*
X45335601Y43236610D02*
X45383220Y43188991D01*
X45383220Y43188991D02*
X45430839Y43093753D01*
X45430839Y43093753D02*
X45430839Y42855658D01*
X45430839Y42855658D02*
X45383220Y42760420D01*
X45383220Y42760420D02*
X45335601Y42712800D01*
X45335601Y42712800D02*
X45240363Y42665181D01*
X45240363Y42665181D02*
X45002268Y42665181D01*
X45002268Y42665181D02*
X44907030Y42712800D01*
X44907030Y42712800D02*
X44859411Y42760420D01*
X42097506Y40125181D02*
X42097506Y41125181D01*
X42097506Y41125181D02*
X42478458Y41125181D01*
X42478458Y41125181D02*
X42573696Y41077562D01*
X42573696Y41077562D02*
X42621315Y41029943D01*
X42621315Y41029943D02*
X42668934Y40934705D01*
X42668934Y40934705D02*
X42668934Y40791848D01*
X42668934Y40791848D02*
X42621315Y40696610D01*
X42621315Y40696610D02*
X42573696Y40648991D01*
X42573696Y40648991D02*
X42478458Y40601372D01*
X42478458Y40601372D02*
X42097506Y40601372D01*
X43049887Y40410896D02*
X43526077Y40410896D01*
X42954649Y40125181D02*
X43287982Y41125181D01*
X43287982Y41125181D02*
X43621315Y40125181D01*
X44478458Y40125181D02*
X43907030Y40125181D01*
X44192744Y40125181D02*
X44192744Y41125181D01*
X44192744Y41125181D02*
X44097506Y40982324D01*
X44097506Y40982324D02*
X44002268Y40887086D01*
X44002268Y40887086D02*
X43907030Y40839467D01*
X44859411Y41029943D02*
X44907030Y41077562D01*
X44907030Y41077562D02*
X45002268Y41125181D01*
X45002268Y41125181D02*
X45240363Y41125181D01*
X45240363Y41125181D02*
X45335601Y41077562D01*
X45335601Y41077562D02*
X45383220Y41029943D01*
X45383220Y41029943D02*
X45430839Y40934705D01*
X45430839Y40934705D02*
X45430839Y40839467D01*
X45430839Y40839467D02*
X45383220Y40696610D01*
X45383220Y40696610D02*
X44811792Y40125181D01*
X44811792Y40125181D02*
X45430839Y40125181D01*
X42097506Y37585181D02*
X42097506Y38585181D01*
X42097506Y38585181D02*
X42478458Y38585181D01*
X42478458Y38585181D02*
X42573696Y38537562D01*
X42573696Y38537562D02*
X42621315Y38489943D01*
X42621315Y38489943D02*
X42668934Y38394705D01*
X42668934Y38394705D02*
X42668934Y38251848D01*
X42668934Y38251848D02*
X42621315Y38156610D01*
X42621315Y38156610D02*
X42573696Y38108991D01*
X42573696Y38108991D02*
X42478458Y38061372D01*
X42478458Y38061372D02*
X42097506Y38061372D01*
X43049887Y37870896D02*
X43526077Y37870896D01*
X42954649Y37585181D02*
X43287982Y38585181D01*
X43287982Y38585181D02*
X43621315Y37585181D01*
X44478458Y37585181D02*
X43907030Y37585181D01*
X44192744Y37585181D02*
X44192744Y38585181D01*
X44192744Y38585181D02*
X44097506Y38442324D01*
X44097506Y38442324D02*
X44002268Y38347086D01*
X44002268Y38347086D02*
X43907030Y38299467D01*
X45430839Y37585181D02*
X44859411Y37585181D01*
X45145125Y37585181D02*
X45145125Y38585181D01*
X45145125Y38585181D02*
X45049887Y38442324D01*
X45049887Y38442324D02*
X44954649Y38347086D01*
X44954649Y38347086D02*
X44859411Y38299467D01*
X42097506Y35045181D02*
X42097506Y36045181D01*
X42097506Y36045181D02*
X42478458Y36045181D01*
X42478458Y36045181D02*
X42573696Y35997562D01*
X42573696Y35997562D02*
X42621315Y35949943D01*
X42621315Y35949943D02*
X42668934Y35854705D01*
X42668934Y35854705D02*
X42668934Y35711848D01*
X42668934Y35711848D02*
X42621315Y35616610D01*
X42621315Y35616610D02*
X42573696Y35568991D01*
X42573696Y35568991D02*
X42478458Y35521372D01*
X42478458Y35521372D02*
X42097506Y35521372D01*
X43049887Y35330896D02*
X43526077Y35330896D01*
X42954649Y35045181D02*
X43287982Y36045181D01*
X43287982Y36045181D02*
X43621315Y35045181D01*
X44478458Y35045181D02*
X43907030Y35045181D01*
X44192744Y35045181D02*
X44192744Y36045181D01*
X44192744Y36045181D02*
X44097506Y35902324D01*
X44097506Y35902324D02*
X44002268Y35807086D01*
X44002268Y35807086D02*
X43907030Y35759467D01*
X45097506Y36045181D02*
X45192744Y36045181D01*
X45192744Y36045181D02*
X45287982Y35997562D01*
X45287982Y35997562D02*
X45335601Y35949943D01*
X45335601Y35949943D02*
X45383220Y35854705D01*
X45383220Y35854705D02*
X45430839Y35664229D01*
X45430839Y35664229D02*
X45430839Y35426134D01*
X45430839Y35426134D02*
X45383220Y35235658D01*
X45383220Y35235658D02*
X45335601Y35140420D01*
X45335601Y35140420D02*
X45287982Y35092800D01*
X45287982Y35092800D02*
X45192744Y35045181D01*
X45192744Y35045181D02*
X45097506Y35045181D01*
X45097506Y35045181D02*
X45002268Y35092800D01*
X45002268Y35092800D02*
X44954649Y35140420D01*
X44954649Y35140420D02*
X44907030Y35235658D01*
X44907030Y35235658D02*
X44859411Y35426134D01*
X44859411Y35426134D02*
X44859411Y35664229D01*
X44859411Y35664229D02*
X44907030Y35854705D01*
X44907030Y35854705D02*
X44954649Y35949943D01*
X44954649Y35949943D02*
X45002268Y35997562D01*
X45002268Y35997562D02*
X45097506Y36045181D01*
X43049887Y32505181D02*
X43049887Y33505181D01*
X43049887Y33505181D02*
X43430839Y33505181D01*
X43430839Y33505181D02*
X43526077Y33457562D01*
X43526077Y33457562D02*
X43573696Y33409943D01*
X43573696Y33409943D02*
X43621315Y33314705D01*
X43621315Y33314705D02*
X43621315Y33171848D01*
X43621315Y33171848D02*
X43573696Y33076610D01*
X43573696Y33076610D02*
X43526077Y33028991D01*
X43526077Y33028991D02*
X43430839Y32981372D01*
X43430839Y32981372D02*
X43049887Y32981372D01*
X44002268Y32790896D02*
X44478458Y32790896D01*
X43907030Y32505181D02*
X44240363Y33505181D01*
X44240363Y33505181D02*
X44573696Y32505181D01*
X44954649Y32505181D02*
X45145125Y32505181D01*
X45145125Y32505181D02*
X45240363Y32552800D01*
X45240363Y32552800D02*
X45287982Y32600420D01*
X45287982Y32600420D02*
X45383220Y32743277D01*
X45383220Y32743277D02*
X45430839Y32933753D01*
X45430839Y32933753D02*
X45430839Y33314705D01*
X45430839Y33314705D02*
X45383220Y33409943D01*
X45383220Y33409943D02*
X45335601Y33457562D01*
X45335601Y33457562D02*
X45240363Y33505181D01*
X45240363Y33505181D02*
X45049887Y33505181D01*
X45049887Y33505181D02*
X44954649Y33457562D01*
X44954649Y33457562D02*
X44907030Y33409943D01*
X44907030Y33409943D02*
X44859411Y33314705D01*
X44859411Y33314705D02*
X44859411Y33076610D01*
X44859411Y33076610D02*
X44907030Y32981372D01*
X44907030Y32981372D02*
X44954649Y32933753D01*
X44954649Y32933753D02*
X45049887Y32886134D01*
X45049887Y32886134D02*
X45240363Y32886134D01*
X45240363Y32886134D02*
X45335601Y32933753D01*
X45335601Y32933753D02*
X45383220Y32981372D01*
X45383220Y32981372D02*
X45430839Y33076610D01*
X43049887Y29965181D02*
X43049887Y30965181D01*
X43049887Y30965181D02*
X43430839Y30965181D01*
X43430839Y30965181D02*
X43526077Y30917562D01*
X43526077Y30917562D02*
X43573696Y30869943D01*
X43573696Y30869943D02*
X43621315Y30774705D01*
X43621315Y30774705D02*
X43621315Y30631848D01*
X43621315Y30631848D02*
X43573696Y30536610D01*
X43573696Y30536610D02*
X43526077Y30488991D01*
X43526077Y30488991D02*
X43430839Y30441372D01*
X43430839Y30441372D02*
X43049887Y30441372D01*
X44002268Y30250896D02*
X44478458Y30250896D01*
X43907030Y29965181D02*
X44240363Y30965181D01*
X44240363Y30965181D02*
X44573696Y29965181D01*
X45049887Y30536610D02*
X44954649Y30584229D01*
X44954649Y30584229D02*
X44907030Y30631848D01*
X44907030Y30631848D02*
X44859411Y30727086D01*
X44859411Y30727086D02*
X44859411Y30774705D01*
X44859411Y30774705D02*
X44907030Y30869943D01*
X44907030Y30869943D02*
X44954649Y30917562D01*
X44954649Y30917562D02*
X45049887Y30965181D01*
X45049887Y30965181D02*
X45240363Y30965181D01*
X45240363Y30965181D02*
X45335601Y30917562D01*
X45335601Y30917562D02*
X45383220Y30869943D01*
X45383220Y30869943D02*
X45430839Y30774705D01*
X45430839Y30774705D02*
X45430839Y30727086D01*
X45430839Y30727086D02*
X45383220Y30631848D01*
X45383220Y30631848D02*
X45335601Y30584229D01*
X45335601Y30584229D02*
X45240363Y30536610D01*
X45240363Y30536610D02*
X45049887Y30536610D01*
X45049887Y30536610D02*
X44954649Y30488991D01*
X44954649Y30488991D02*
X44907030Y30441372D01*
X44907030Y30441372D02*
X44859411Y30346134D01*
X44859411Y30346134D02*
X44859411Y30155658D01*
X44859411Y30155658D02*
X44907030Y30060420D01*
X44907030Y30060420D02*
X44954649Y30012800D01*
X44954649Y30012800D02*
X45049887Y29965181D01*
X45049887Y29965181D02*
X45240363Y29965181D01*
X45240363Y29965181D02*
X45335601Y30012800D01*
X45335601Y30012800D02*
X45383220Y30060420D01*
X45383220Y30060420D02*
X45430839Y30155658D01*
X45430839Y30155658D02*
X45430839Y30346134D01*
X45430839Y30346134D02*
X45383220Y30441372D01*
X45383220Y30441372D02*
X45335601Y30488991D01*
X45335601Y30488991D02*
X45240363Y30536610D01*
X42907030Y9645181D02*
X42907030Y10645181D01*
X42907030Y10645181D02*
X43287982Y10645181D01*
X43287982Y10645181D02*
X43383220Y10597562D01*
X43383220Y10597562D02*
X43430839Y10549943D01*
X43430839Y10549943D02*
X43478458Y10454705D01*
X43478458Y10454705D02*
X43478458Y10311848D01*
X43478458Y10311848D02*
X43430839Y10216610D01*
X43430839Y10216610D02*
X43383220Y10168991D01*
X43383220Y10168991D02*
X43287982Y10121372D01*
X43287982Y10121372D02*
X42907030Y10121372D01*
X44240363Y10168991D02*
X44383220Y10121372D01*
X44383220Y10121372D02*
X44430839Y10073753D01*
X44430839Y10073753D02*
X44478458Y9978515D01*
X44478458Y9978515D02*
X44478458Y9835658D01*
X44478458Y9835658D02*
X44430839Y9740420D01*
X44430839Y9740420D02*
X44383220Y9692800D01*
X44383220Y9692800D02*
X44287982Y9645181D01*
X44287982Y9645181D02*
X43907030Y9645181D01*
X43907030Y9645181D02*
X43907030Y10645181D01*
X43907030Y10645181D02*
X44240363Y10645181D01*
X44240363Y10645181D02*
X44335601Y10597562D01*
X44335601Y10597562D02*
X44383220Y10549943D01*
X44383220Y10549943D02*
X44430839Y10454705D01*
X44430839Y10454705D02*
X44430839Y10359467D01*
X44430839Y10359467D02*
X44383220Y10264229D01*
X44383220Y10264229D02*
X44335601Y10216610D01*
X44335601Y10216610D02*
X44240363Y10168991D01*
X44240363Y10168991D02*
X43907030Y10168991D01*
X45430839Y9645181D02*
X44859411Y9645181D01*
X45145125Y9645181D02*
X45145125Y10645181D01*
X45145125Y10645181D02*
X45049887Y10502324D01*
X45049887Y10502324D02*
X44954649Y10407086D01*
X44954649Y10407086D02*
X44859411Y10359467D01*
X43335601Y8057562D02*
X43240363Y8105181D01*
X43240363Y8105181D02*
X43097506Y8105181D01*
X43097506Y8105181D02*
X42954649Y8057562D01*
X42954649Y8057562D02*
X42859411Y7962324D01*
X42859411Y7962324D02*
X42811792Y7867086D01*
X42811792Y7867086D02*
X42764173Y7676610D01*
X42764173Y7676610D02*
X42764173Y7533753D01*
X42764173Y7533753D02*
X42811792Y7343277D01*
X42811792Y7343277D02*
X42859411Y7248039D01*
X42859411Y7248039D02*
X42954649Y7152800D01*
X42954649Y7152800D02*
X43097506Y7105181D01*
X43097506Y7105181D02*
X43192744Y7105181D01*
X43192744Y7105181D02*
X43335601Y7152800D01*
X43335601Y7152800D02*
X43383220Y7200420D01*
X43383220Y7200420D02*
X43383220Y7533753D01*
X43383220Y7533753D02*
X43192744Y7533753D01*
X43811792Y7105181D02*
X43811792Y8105181D01*
X43811792Y8105181D02*
X44383220Y7105181D01*
X44383220Y7105181D02*
X44383220Y8105181D01*
X44859411Y7105181D02*
X44859411Y8105181D01*
X44859411Y8105181D02*
X45097506Y8105181D01*
X45097506Y8105181D02*
X45240363Y8057562D01*
X45240363Y8057562D02*
X45335601Y7962324D01*
X45335601Y7962324D02*
X45383220Y7867086D01*
X45383220Y7867086D02*
X45430839Y7676610D01*
X45430839Y7676610D02*
X45430839Y7533753D01*
X45430839Y7533753D02*
X45383220Y7343277D01*
X45383220Y7343277D02*
X45335601Y7248039D01*
X45335601Y7248039D02*
X45240363Y7152800D01*
X45240363Y7152800D02*
X45097506Y7105181D01*
X45097506Y7105181D02*
X44859411Y7105181D01*
X43177506Y48645181D02*
X43796553Y48645181D01*
X43796553Y48645181D02*
X43463220Y48264229D01*
X43463220Y48264229D02*
X43606077Y48264229D01*
X43606077Y48264229D02*
X43701315Y48216610D01*
X43701315Y48216610D02*
X43748934Y48168991D01*
X43748934Y48168991D02*
X43796553Y48073753D01*
X43796553Y48073753D02*
X43796553Y47835658D01*
X43796553Y47835658D02*
X43748934Y47740420D01*
X43748934Y47740420D02*
X43701315Y47692800D01*
X43701315Y47692800D02*
X43606077Y47645181D01*
X43606077Y47645181D02*
X43320363Y47645181D01*
X43320363Y47645181D02*
X43225125Y47692800D01*
X43225125Y47692800D02*
X43177506Y47740420D01*
X44129887Y48311848D02*
X44367982Y47645181D01*
X44367982Y47645181D02*
X44606077Y48311848D01*
X44891792Y48645181D02*
X45510839Y48645181D01*
X45510839Y48645181D02*
X45177506Y48264229D01*
X45177506Y48264229D02*
X45320363Y48264229D01*
X45320363Y48264229D02*
X45415601Y48216610D01*
X45415601Y48216610D02*
X45463220Y48168991D01*
X45463220Y48168991D02*
X45510839Y48073753D01*
X45510839Y48073753D02*
X45510839Y47835658D01*
X45510839Y47835658D02*
X45463220Y47740420D01*
X45463220Y47740420D02*
X45415601Y47692800D01*
X45415601Y47692800D02*
X45320363Y47645181D01*
X45320363Y47645181D02*
X45034649Y47645181D01*
X45034649Y47645181D02*
X44939411Y47692800D01*
X44939411Y47692800D02*
X44891792Y47740420D01*
X35105180Y47339412D02*
X35105180Y47910840D01*
X35105180Y47625126D02*
X36105180Y47625126D01*
X36105180Y47625126D02*
X35962323Y47720364D01*
X35962323Y47720364D02*
X35867085Y47815602D01*
X35867085Y47815602D02*
X35819466Y47910840D01*
X36105180Y46720364D02*
X36105180Y46625126D01*
X36105180Y46625126D02*
X36057561Y46529888D01*
X36057561Y46529888D02*
X36009942Y46482269D01*
X36009942Y46482269D02*
X35914704Y46434650D01*
X35914704Y46434650D02*
X35724228Y46387031D01*
X35724228Y46387031D02*
X35486133Y46387031D01*
X35486133Y46387031D02*
X35295657Y46434650D01*
X35295657Y46434650D02*
X35200419Y46482269D01*
X35200419Y46482269D02*
X35152800Y46529888D01*
X35152800Y46529888D02*
X35105180Y46625126D01*
X35105180Y46625126D02*
X35105180Y46720364D01*
X35105180Y46720364D02*
X35152800Y46815602D01*
X35152800Y46815602D02*
X35200419Y46863221D01*
X35200419Y46863221D02*
X35295657Y46910840D01*
X35295657Y46910840D02*
X35486133Y46958459D01*
X35486133Y46958459D02*
X35724228Y46958459D01*
X35724228Y46958459D02*
X35914704Y46910840D01*
X35914704Y46910840D02*
X36009942Y46863221D01*
X36009942Y46863221D02*
X36057561Y46815602D01*
X36057561Y46815602D02*
X36105180Y46720364D01*
X36105180Y45767983D02*
X36105180Y45672745D01*
X36105180Y45672745D02*
X36057561Y45577507D01*
X36057561Y45577507D02*
X36009942Y45529888D01*
X36009942Y45529888D02*
X35914704Y45482269D01*
X35914704Y45482269D02*
X35724228Y45434650D01*
X35724228Y45434650D02*
X35486133Y45434650D01*
X35486133Y45434650D02*
X35295657Y45482269D01*
X35295657Y45482269D02*
X35200419Y45529888D01*
X35200419Y45529888D02*
X35152800Y45577507D01*
X35152800Y45577507D02*
X35105180Y45672745D01*
X35105180Y45672745D02*
X35105180Y45767983D01*
X35105180Y45767983D02*
X35152800Y45863221D01*
X35152800Y45863221D02*
X35200419Y45910840D01*
X35200419Y45910840D02*
X35295657Y45958459D01*
X35295657Y45958459D02*
X35486133Y46006078D01*
X35486133Y46006078D02*
X35724228Y46006078D01*
X35724228Y46006078D02*
X35914704Y45958459D01*
X35914704Y45958459D02*
X36009942Y45910840D01*
X36009942Y45910840D02*
X36057561Y45863221D01*
X36057561Y45863221D02*
X36105180Y45767983D01*
X36946609Y47720364D02*
X36994228Y47815602D01*
X36994228Y47815602D02*
X37041847Y47863221D01*
X37041847Y47863221D02*
X37137085Y47910840D01*
X37137085Y47910840D02*
X37184704Y47910840D01*
X37184704Y47910840D02*
X37279942Y47863221D01*
X37279942Y47863221D02*
X37327561Y47815602D01*
X37327561Y47815602D02*
X37375180Y47720364D01*
X37375180Y47720364D02*
X37375180Y47529888D01*
X37375180Y47529888D02*
X37327561Y47434650D01*
X37327561Y47434650D02*
X37279942Y47387031D01*
X37279942Y47387031D02*
X37184704Y47339412D01*
X37184704Y47339412D02*
X37137085Y47339412D01*
X37137085Y47339412D02*
X37041847Y47387031D01*
X37041847Y47387031D02*
X36994228Y47434650D01*
X36994228Y47434650D02*
X36946609Y47529888D01*
X36946609Y47529888D02*
X36946609Y47720364D01*
X36946609Y47720364D02*
X36898990Y47815602D01*
X36898990Y47815602D02*
X36851371Y47863221D01*
X36851371Y47863221D02*
X36756133Y47910840D01*
X36756133Y47910840D02*
X36565657Y47910840D01*
X36565657Y47910840D02*
X36470419Y47863221D01*
X36470419Y47863221D02*
X36422800Y47815602D01*
X36422800Y47815602D02*
X36375180Y47720364D01*
X36375180Y47720364D02*
X36375180Y47529888D01*
X36375180Y47529888D02*
X36422800Y47434650D01*
X36422800Y47434650D02*
X36470419Y47387031D01*
X36470419Y47387031D02*
X36565657Y47339412D01*
X36565657Y47339412D02*
X36756133Y47339412D01*
X36756133Y47339412D02*
X36851371Y47387031D01*
X36851371Y47387031D02*
X36898990Y47434650D01*
X36898990Y47434650D02*
X36946609Y47529888D01*
X37375180Y46720364D02*
X37375180Y46625126D01*
X37375180Y46625126D02*
X37327561Y46529888D01*
X37327561Y46529888D02*
X37279942Y46482269D01*
X37279942Y46482269D02*
X37184704Y46434650D01*
X37184704Y46434650D02*
X36994228Y46387031D01*
X36994228Y46387031D02*
X36756133Y46387031D01*
X36756133Y46387031D02*
X36565657Y46434650D01*
X36565657Y46434650D02*
X36470419Y46482269D01*
X36470419Y46482269D02*
X36422800Y46529888D01*
X36422800Y46529888D02*
X36375180Y46625126D01*
X36375180Y46625126D02*
X36375180Y46720364D01*
X36375180Y46720364D02*
X36422800Y46815602D01*
X36422800Y46815602D02*
X36470419Y46863221D01*
X36470419Y46863221D02*
X36565657Y46910840D01*
X36565657Y46910840D02*
X36756133Y46958459D01*
X36756133Y46958459D02*
X36994228Y46958459D01*
X36994228Y46958459D02*
X37184704Y46910840D01*
X37184704Y46910840D02*
X37279942Y46863221D01*
X37279942Y46863221D02*
X37327561Y46815602D01*
X37327561Y46815602D02*
X37375180Y46720364D01*
X38645180Y47958459D02*
X38645180Y47339412D01*
X38645180Y47339412D02*
X38264228Y47672745D01*
X38264228Y47672745D02*
X38264228Y47529888D01*
X38264228Y47529888D02*
X38216609Y47434650D01*
X38216609Y47434650D02*
X38168990Y47387031D01*
X38168990Y47387031D02*
X38073752Y47339412D01*
X38073752Y47339412D02*
X37835657Y47339412D01*
X37835657Y47339412D02*
X37740419Y47387031D01*
X37740419Y47387031D02*
X37692800Y47434650D01*
X37692800Y47434650D02*
X37645180Y47529888D01*
X37645180Y47529888D02*
X37645180Y47815602D01*
X37645180Y47815602D02*
X37692800Y47910840D01*
X37692800Y47910840D02*
X37740419Y47958459D01*
X38645180Y46434650D02*
X38645180Y46910840D01*
X38645180Y46910840D02*
X38168990Y46958459D01*
X38168990Y46958459D02*
X38216609Y46910840D01*
X38216609Y46910840D02*
X38264228Y46815602D01*
X38264228Y46815602D02*
X38264228Y46577507D01*
X38264228Y46577507D02*
X38216609Y46482269D01*
X38216609Y46482269D02*
X38168990Y46434650D01*
X38168990Y46434650D02*
X38073752Y46387031D01*
X38073752Y46387031D02*
X37835657Y46387031D01*
X37835657Y46387031D02*
X37740419Y46434650D01*
X37740419Y46434650D02*
X37692800Y46482269D01*
X37692800Y46482269D02*
X37645180Y46577507D01*
X37645180Y46577507D02*
X37645180Y46815602D01*
X37645180Y46815602D02*
X37692800Y46910840D01*
X37692800Y46910840D02*
X37740419Y46958459D01*
X39915180Y47672745D02*
X39915180Y47577507D01*
X39915180Y47577507D02*
X39867561Y47482269D01*
X39867561Y47482269D02*
X39819942Y47434650D01*
X39819942Y47434650D02*
X39724704Y47387031D01*
X39724704Y47387031D02*
X39534228Y47339412D01*
X39534228Y47339412D02*
X39296133Y47339412D01*
X39296133Y47339412D02*
X39105657Y47387031D01*
X39105657Y47387031D02*
X39010419Y47434650D01*
X39010419Y47434650D02*
X38962800Y47482269D01*
X38962800Y47482269D02*
X38915180Y47577507D01*
X38915180Y47577507D02*
X38915180Y47672745D01*
X38915180Y47672745D02*
X38962800Y47767983D01*
X38962800Y47767983D02*
X39010419Y47815602D01*
X39010419Y47815602D02*
X39105657Y47863221D01*
X39105657Y47863221D02*
X39296133Y47910840D01*
X39296133Y47910840D02*
X39534228Y47910840D01*
X39534228Y47910840D02*
X39724704Y47863221D01*
X39724704Y47863221D02*
X39819942Y47815602D01*
X39819942Y47815602D02*
X39867561Y47767983D01*
X39867561Y47767983D02*
X39915180Y47672745D01*
D11*
X7685714Y62247781D02*
X7685714Y63247781D01*
X7685714Y63247781D02*
X7923809Y63247781D01*
X7923809Y63247781D02*
X8066666Y63200162D01*
X8066666Y63200162D02*
X8161904Y63104924D01*
X8161904Y63104924D02*
X8209523Y63009686D01*
X8209523Y63009686D02*
X8257142Y62819210D01*
X8257142Y62819210D02*
X8257142Y62676353D01*
X8257142Y62676353D02*
X8209523Y62485877D01*
X8209523Y62485877D02*
X8161904Y62390639D01*
X8161904Y62390639D02*
X8066666Y62295400D01*
X8066666Y62295400D02*
X7923809Y62247781D01*
X7923809Y62247781D02*
X7685714Y62247781D01*
X9019047Y62771591D02*
X8685714Y62771591D01*
X8685714Y62247781D02*
X8685714Y63247781D01*
X8685714Y63247781D02*
X9161904Y63247781D01*
X9542857Y63247781D02*
X9542857Y62438258D01*
X9542857Y62438258D02*
X9590476Y62343020D01*
X9590476Y62343020D02*
X9638095Y62295400D01*
X9638095Y62295400D02*
X9733333Y62247781D01*
X9733333Y62247781D02*
X9923809Y62247781D01*
X9923809Y62247781D02*
X10019047Y62295400D01*
X10019047Y62295400D02*
X10066666Y62343020D01*
X10066666Y62343020D02*
X10114285Y62438258D01*
X10114285Y62438258D02*
X10114285Y63247781D01*
D12*
X14582857Y5127386D02*
X14797143Y5055958D01*
X14797143Y5055958D02*
X14868572Y4984529D01*
X14868572Y4984529D02*
X14940000Y4841672D01*
X14940000Y4841672D02*
X14940000Y4627386D01*
X14940000Y4627386D02*
X14868572Y4484529D01*
X14868572Y4484529D02*
X14797143Y4413100D01*
X14797143Y4413100D02*
X14654286Y4341672D01*
X14654286Y4341672D02*
X14082857Y4341672D01*
X14082857Y4341672D02*
X14082857Y5841672D01*
X14082857Y5841672D02*
X14582857Y5841672D01*
X14582857Y5841672D02*
X14725715Y5770243D01*
X14725715Y5770243D02*
X14797143Y5698815D01*
X14797143Y5698815D02*
X14868572Y5555958D01*
X14868572Y5555958D02*
X14868572Y5413100D01*
X14868572Y5413100D02*
X14797143Y5270243D01*
X14797143Y5270243D02*
X14725715Y5198815D01*
X14725715Y5198815D02*
X14582857Y5127386D01*
X14582857Y5127386D02*
X14082857Y5127386D01*
X15582857Y4341672D02*
X15582857Y5341672D01*
X15582857Y5841672D02*
X15511429Y5770243D01*
X15511429Y5770243D02*
X15582857Y5698815D01*
X15582857Y5698815D02*
X15654286Y5770243D01*
X15654286Y5770243D02*
X15582857Y5841672D01*
X15582857Y5841672D02*
X15582857Y5698815D01*
X16082858Y5341672D02*
X16654286Y5341672D01*
X16297143Y5841672D02*
X16297143Y4555958D01*
X16297143Y4555958D02*
X16368572Y4413100D01*
X16368572Y4413100D02*
X16511429Y4341672D01*
X16511429Y4341672D02*
X16654286Y4341672D01*
X16940001Y5841672D02*
X17797144Y5841672D01*
X17368572Y4341672D02*
X17368572Y5841672D01*
X18940001Y4341672D02*
X18940001Y5127386D01*
X18940001Y5127386D02*
X18868572Y5270243D01*
X18868572Y5270243D02*
X18725715Y5341672D01*
X18725715Y5341672D02*
X18440001Y5341672D01*
X18440001Y5341672D02*
X18297143Y5270243D01*
X18940001Y4413100D02*
X18797143Y4341672D01*
X18797143Y4341672D02*
X18440001Y4341672D01*
X18440001Y4341672D02*
X18297143Y4413100D01*
X18297143Y4413100D02*
X18225715Y4555958D01*
X18225715Y4555958D02*
X18225715Y4698815D01*
X18225715Y4698815D02*
X18297143Y4841672D01*
X18297143Y4841672D02*
X18440001Y4913100D01*
X18440001Y4913100D02*
X18797143Y4913100D01*
X18797143Y4913100D02*
X18940001Y4984529D01*
X20297144Y5341672D02*
X20297144Y4127386D01*
X20297144Y4127386D02*
X20225715Y3984529D01*
X20225715Y3984529D02*
X20154286Y3913100D01*
X20154286Y3913100D02*
X20011429Y3841672D01*
X20011429Y3841672D02*
X19797144Y3841672D01*
X19797144Y3841672D02*
X19654286Y3913100D01*
X20297144Y4413100D02*
X20154286Y4341672D01*
X20154286Y4341672D02*
X19868572Y4341672D01*
X19868572Y4341672D02*
X19725715Y4413100D01*
X19725715Y4413100D02*
X19654286Y4484529D01*
X19654286Y4484529D02*
X19582858Y4627386D01*
X19582858Y4627386D02*
X19582858Y5055958D01*
X19582858Y5055958D02*
X19654286Y5198815D01*
X19654286Y5198815D02*
X19725715Y5270243D01*
X19725715Y5270243D02*
X19868572Y5341672D01*
X19868572Y5341672D02*
X20154286Y5341672D01*
X20154286Y5341672D02*
X20297144Y5270243D01*
X22654286Y5127386D02*
X22868572Y5055958D01*
X22868572Y5055958D02*
X22940001Y4984529D01*
X22940001Y4984529D02*
X23011429Y4841672D01*
X23011429Y4841672D02*
X23011429Y4627386D01*
X23011429Y4627386D02*
X22940001Y4484529D01*
X22940001Y4484529D02*
X22868572Y4413100D01*
X22868572Y4413100D02*
X22725715Y4341672D01*
X22725715Y4341672D02*
X22154286Y4341672D01*
X22154286Y4341672D02*
X22154286Y5841672D01*
X22154286Y5841672D02*
X22654286Y5841672D01*
X22654286Y5841672D02*
X22797144Y5770243D01*
X22797144Y5770243D02*
X22868572Y5698815D01*
X22868572Y5698815D02*
X22940001Y5555958D01*
X22940001Y5555958D02*
X22940001Y5413100D01*
X22940001Y5413100D02*
X22868572Y5270243D01*
X22868572Y5270243D02*
X22797144Y5198815D01*
X22797144Y5198815D02*
X22654286Y5127386D01*
X22654286Y5127386D02*
X22154286Y5127386D01*
X23654286Y4341672D02*
X23654286Y5341672D01*
X23654286Y5055958D02*
X23725715Y5198815D01*
X23725715Y5198815D02*
X23797144Y5270243D01*
X23797144Y5270243D02*
X23940001Y5341672D01*
X23940001Y5341672D02*
X24082858Y5341672D01*
X25154286Y4413100D02*
X25011429Y4341672D01*
X25011429Y4341672D02*
X24725715Y4341672D01*
X24725715Y4341672D02*
X24582857Y4413100D01*
X24582857Y4413100D02*
X24511429Y4555958D01*
X24511429Y4555958D02*
X24511429Y5127386D01*
X24511429Y5127386D02*
X24582857Y5270243D01*
X24582857Y5270243D02*
X24725715Y5341672D01*
X24725715Y5341672D02*
X25011429Y5341672D01*
X25011429Y5341672D02*
X25154286Y5270243D01*
X25154286Y5270243D02*
X25225715Y5127386D01*
X25225715Y5127386D02*
X25225715Y4984529D01*
X25225715Y4984529D02*
X24511429Y4841672D01*
X26511429Y4341672D02*
X26511429Y5127386D01*
X26511429Y5127386D02*
X26440000Y5270243D01*
X26440000Y5270243D02*
X26297143Y5341672D01*
X26297143Y5341672D02*
X26011429Y5341672D01*
X26011429Y5341672D02*
X25868571Y5270243D01*
X26511429Y4413100D02*
X26368571Y4341672D01*
X26368571Y4341672D02*
X26011429Y4341672D01*
X26011429Y4341672D02*
X25868571Y4413100D01*
X25868571Y4413100D02*
X25797143Y4555958D01*
X25797143Y4555958D02*
X25797143Y4698815D01*
X25797143Y4698815D02*
X25868571Y4841672D01*
X25868571Y4841672D02*
X26011429Y4913100D01*
X26011429Y4913100D02*
X26368571Y4913100D01*
X26368571Y4913100D02*
X26511429Y4984529D01*
X27225714Y4341672D02*
X27225714Y5841672D01*
X27368572Y4913100D02*
X27797143Y4341672D01*
X27797143Y5341672D02*
X27225714Y4770243D01*
X28654286Y4341672D02*
X28511429Y4413100D01*
X28511429Y4413100D02*
X28440000Y4484529D01*
X28440000Y4484529D02*
X28368572Y4627386D01*
X28368572Y4627386D02*
X28368572Y5055958D01*
X28368572Y5055958D02*
X28440000Y5198815D01*
X28440000Y5198815D02*
X28511429Y5270243D01*
X28511429Y5270243D02*
X28654286Y5341672D01*
X28654286Y5341672D02*
X28868572Y5341672D01*
X28868572Y5341672D02*
X29011429Y5270243D01*
X29011429Y5270243D02*
X29082858Y5198815D01*
X29082858Y5198815D02*
X29154286Y5055958D01*
X29154286Y5055958D02*
X29154286Y4627386D01*
X29154286Y4627386D02*
X29082858Y4484529D01*
X29082858Y4484529D02*
X29011429Y4413100D01*
X29011429Y4413100D02*
X28868572Y4341672D01*
X28868572Y4341672D02*
X28654286Y4341672D01*
X30440001Y5341672D02*
X30440001Y4341672D01*
X29797143Y5341672D02*
X29797143Y4555958D01*
X29797143Y4555958D02*
X29868572Y4413100D01*
X29868572Y4413100D02*
X30011429Y4341672D01*
X30011429Y4341672D02*
X30225715Y4341672D01*
X30225715Y4341672D02*
X30368572Y4413100D01*
X30368572Y4413100D02*
X30440001Y4484529D01*
X30940001Y5341672D02*
X31511429Y5341672D01*
X31154286Y5841672D02*
X31154286Y4555958D01*
X31154286Y4555958D02*
X31225715Y4413100D01*
X31225715Y4413100D02*
X31368572Y4341672D01*
X31368572Y4341672D02*
X31511429Y4341672D01*
X33868572Y4341672D02*
X33154286Y4341672D01*
X33154286Y4341672D02*
X33154286Y5841672D01*
X35011430Y5341672D02*
X35011430Y4341672D01*
X34654287Y5913100D02*
X34297144Y4841672D01*
X34297144Y4841672D02*
X35225715Y4841672D01*
X35654286Y5841672D02*
X36582858Y5841672D01*
X36582858Y5841672D02*
X36082858Y5270243D01*
X36082858Y5270243D02*
X36297143Y5270243D01*
X36297143Y5270243D02*
X36440001Y5198815D01*
X36440001Y5198815D02*
X36511429Y5127386D01*
X36511429Y5127386D02*
X36582858Y4984529D01*
X36582858Y4984529D02*
X36582858Y4627386D01*
X36582858Y4627386D02*
X36511429Y4484529D01*
X36511429Y4484529D02*
X36440001Y4413100D01*
X36440001Y4413100D02*
X36297143Y4341672D01*
X36297143Y4341672D02*
X35868572Y4341672D01*
X35868572Y4341672D02*
X35725715Y4413100D01*
X35725715Y4413100D02*
X35654286Y4484529D01*
X37154286Y5698815D02*
X37225714Y5770243D01*
X37225714Y5770243D02*
X37368572Y5841672D01*
X37368572Y5841672D02*
X37725714Y5841672D01*
X37725714Y5841672D02*
X37868572Y5770243D01*
X37868572Y5770243D02*
X37940000Y5698815D01*
X37940000Y5698815D02*
X38011429Y5555958D01*
X38011429Y5555958D02*
X38011429Y5413100D01*
X38011429Y5413100D02*
X37940000Y5198815D01*
X37940000Y5198815D02*
X37082857Y4341672D01*
X37082857Y4341672D02*
X38011429Y4341672D01*
X39582857Y5841672D02*
X40082857Y4341672D01*
X40082857Y4341672D02*
X40582857Y5841672D01*
X41011428Y5698815D02*
X41082856Y5770243D01*
X41082856Y5770243D02*
X41225714Y5841672D01*
X41225714Y5841672D02*
X41582856Y5841672D01*
X41582856Y5841672D02*
X41725714Y5770243D01*
X41725714Y5770243D02*
X41797142Y5698815D01*
X41797142Y5698815D02*
X41868571Y5555958D01*
X41868571Y5555958D02*
X41868571Y5413100D01*
X41868571Y5413100D02*
X41797142Y5198815D01*
X41797142Y5198815D02*
X40939999Y4341672D01*
X40939999Y4341672D02*
X41868571Y4341672D01*
D10*
X21038095Y33045181D02*
X21038095Y32235658D01*
X21038095Y32235658D02*
X21085714Y32140420D01*
X21085714Y32140420D02*
X21133333Y32092800D01*
X21133333Y32092800D02*
X21228571Y32045181D01*
X21228571Y32045181D02*
X21419047Y32045181D01*
X21419047Y32045181D02*
X21514285Y32092800D01*
X21514285Y32092800D02*
X21561904Y32140420D01*
X21561904Y32140420D02*
X21609523Y32235658D01*
X21609523Y32235658D02*
X21609523Y33045181D01*
X22514285Y33045181D02*
X22323809Y33045181D01*
X22323809Y33045181D02*
X22228571Y32997562D01*
X22228571Y32997562D02*
X22180952Y32949943D01*
X22180952Y32949943D02*
X22085714Y32807086D01*
X22085714Y32807086D02*
X22038095Y32616610D01*
X22038095Y32616610D02*
X22038095Y32235658D01*
X22038095Y32235658D02*
X22085714Y32140420D01*
X22085714Y32140420D02*
X22133333Y32092800D01*
X22133333Y32092800D02*
X22228571Y32045181D01*
X22228571Y32045181D02*
X22419047Y32045181D01*
X22419047Y32045181D02*
X22514285Y32092800D01*
X22514285Y32092800D02*
X22561904Y32140420D01*
X22561904Y32140420D02*
X22609523Y32235658D01*
X22609523Y32235658D02*
X22609523Y32473753D01*
X22609523Y32473753D02*
X22561904Y32568991D01*
X22561904Y32568991D02*
X22514285Y32616610D01*
X22514285Y32616610D02*
X22419047Y32664229D01*
X22419047Y32664229D02*
X22228571Y32664229D01*
X22228571Y32664229D02*
X22133333Y32616610D01*
X22133333Y32616610D02*
X22085714Y32568991D01*
X22085714Y32568991D02*
X22038095Y32473753D01*
X41861905Y70545181D02*
X41861905Y71545181D01*
X41861905Y71545181D02*
X42100000Y71545181D01*
X42100000Y71545181D02*
X42242857Y71497562D01*
X42242857Y71497562D02*
X42338095Y71402324D01*
X42338095Y71402324D02*
X42385714Y71307086D01*
X42385714Y71307086D02*
X42433333Y71116610D01*
X42433333Y71116610D02*
X42433333Y70973753D01*
X42433333Y70973753D02*
X42385714Y70783277D01*
X42385714Y70783277D02*
X42338095Y70688039D01*
X42338095Y70688039D02*
X42242857Y70592800D01*
X42242857Y70592800D02*
X42100000Y70545181D01*
X42100000Y70545181D02*
X41861905Y70545181D01*
X42766667Y71545181D02*
X43385714Y71545181D01*
X43385714Y71545181D02*
X43052381Y71164229D01*
X43052381Y71164229D02*
X43195238Y71164229D01*
X43195238Y71164229D02*
X43290476Y71116610D01*
X43290476Y71116610D02*
X43338095Y71068991D01*
X43338095Y71068991D02*
X43385714Y70973753D01*
X43385714Y70973753D02*
X43385714Y70735658D01*
X43385714Y70735658D02*
X43338095Y70640420D01*
X43338095Y70640420D02*
X43290476Y70592800D01*
X43290476Y70592800D02*
X43195238Y70545181D01*
X43195238Y70545181D02*
X42909524Y70545181D01*
X42909524Y70545181D02*
X42814286Y70592800D01*
X42814286Y70592800D02*
X42766667Y70640420D01*
X41861905Y68145181D02*
X41861905Y69145181D01*
X41861905Y69145181D02*
X42100000Y69145181D01*
X42100000Y69145181D02*
X42242857Y69097562D01*
X42242857Y69097562D02*
X42338095Y69002324D01*
X42338095Y69002324D02*
X42385714Y68907086D01*
X42385714Y68907086D02*
X42433333Y68716610D01*
X42433333Y68716610D02*
X42433333Y68573753D01*
X42433333Y68573753D02*
X42385714Y68383277D01*
X42385714Y68383277D02*
X42338095Y68288039D01*
X42338095Y68288039D02*
X42242857Y68192800D01*
X42242857Y68192800D02*
X42100000Y68145181D01*
X42100000Y68145181D02*
X41861905Y68145181D01*
X42814286Y69049943D02*
X42861905Y69097562D01*
X42861905Y69097562D02*
X42957143Y69145181D01*
X42957143Y69145181D02*
X43195238Y69145181D01*
X43195238Y69145181D02*
X43290476Y69097562D01*
X43290476Y69097562D02*
X43338095Y69049943D01*
X43338095Y69049943D02*
X43385714Y68954705D01*
X43385714Y68954705D02*
X43385714Y68859467D01*
X43385714Y68859467D02*
X43338095Y68716610D01*
X43338095Y68716610D02*
X42766667Y68145181D01*
X42766667Y68145181D02*
X43385714Y68145181D01*
X37607200Y52546668D02*
X37654819Y52689525D01*
X37654819Y52689525D02*
X37654819Y52927620D01*
X37654819Y52927620D02*
X37607200Y53022858D01*
X37607200Y53022858D02*
X37559580Y53070477D01*
X37559580Y53070477D02*
X37464342Y53118096D01*
X37464342Y53118096D02*
X37369104Y53118096D01*
X37369104Y53118096D02*
X37273866Y53070477D01*
X37273866Y53070477D02*
X37226247Y53022858D01*
X37226247Y53022858D02*
X37178628Y52927620D01*
X37178628Y52927620D02*
X37131009Y52737144D01*
X37131009Y52737144D02*
X37083390Y52641906D01*
X37083390Y52641906D02*
X37035771Y52594287D01*
X37035771Y52594287D02*
X36940533Y52546668D01*
X36940533Y52546668D02*
X36845295Y52546668D01*
X36845295Y52546668D02*
X36750057Y52594287D01*
X36750057Y52594287D02*
X36702438Y52641906D01*
X36702438Y52641906D02*
X36654819Y52737144D01*
X36654819Y52737144D02*
X36654819Y52975239D01*
X36654819Y52975239D02*
X36702438Y53118096D01*
X36654819Y53451430D02*
X37654819Y53689525D01*
X37654819Y53689525D02*
X36940533Y53880001D01*
X36940533Y53880001D02*
X37654819Y54070477D01*
X37654819Y54070477D02*
X36654819Y54308572D01*
X37654819Y55213334D02*
X37654819Y54641906D01*
X37654819Y54927620D02*
X36654819Y54927620D01*
X36654819Y54927620D02*
X36797676Y54832382D01*
X36797676Y54832382D02*
X36892914Y54737144D01*
X36892914Y54737144D02*
X36940533Y54641906D01*
X24689285Y72620181D02*
X24689285Y71905896D01*
X24689285Y71905896D02*
X24641666Y71763039D01*
X24641666Y71763039D02*
X24546428Y71667800D01*
X24546428Y71667800D02*
X24403571Y71620181D01*
X24403571Y71620181D02*
X24308333Y71620181D01*
X25689285Y71620181D02*
X25117857Y71620181D01*
X25403571Y71620181D02*
X25403571Y72620181D01*
X25403571Y72620181D02*
X25308333Y72477324D01*
X25308333Y72477324D02*
X25213095Y72382086D01*
X25213095Y72382086D02*
X25117857Y72334467D01*
X26308333Y72620181D02*
X26403571Y72620181D01*
X26403571Y72620181D02*
X26498809Y72572562D01*
X26498809Y72572562D02*
X26546428Y72524943D01*
X26546428Y72524943D02*
X26594047Y72429705D01*
X26594047Y72429705D02*
X26641666Y72239229D01*
X26641666Y72239229D02*
X26641666Y72001134D01*
X26641666Y72001134D02*
X26594047Y71810658D01*
X26594047Y71810658D02*
X26546428Y71715420D01*
X26546428Y71715420D02*
X26498809Y71667800D01*
X26498809Y71667800D02*
X26403571Y71620181D01*
X26403571Y71620181D02*
X26308333Y71620181D01*
X26308333Y71620181D02*
X26213095Y71667800D01*
X26213095Y71667800D02*
X26165476Y71715420D01*
X26165476Y71715420D02*
X26117857Y71810658D01*
X26117857Y71810658D02*
X26070238Y72001134D01*
X26070238Y72001134D02*
X26070238Y72239229D01*
X26070238Y72239229D02*
X26117857Y72429705D01*
X26117857Y72429705D02*
X26165476Y72524943D01*
X26165476Y72524943D02*
X26213095Y72572562D01*
X26213095Y72572562D02*
X26308333Y72620181D01*
X27498809Y72286848D02*
X27498809Y71620181D01*
X27260714Y72667800D02*
X27022619Y71953515D01*
X27022619Y71953515D02*
X27641666Y71953515D01*
X32393095Y22320181D02*
X32393095Y21510658D01*
X32393095Y21510658D02*
X32440714Y21415420D01*
X32440714Y21415420D02*
X32488333Y21367800D01*
X32488333Y21367800D02*
X32583571Y21320181D01*
X32583571Y21320181D02*
X32774047Y21320181D01*
X32774047Y21320181D02*
X32869285Y21367800D01*
X32869285Y21367800D02*
X32916904Y21415420D01*
X32916904Y21415420D02*
X32964523Y21510658D01*
X32964523Y21510658D02*
X32964523Y22320181D01*
X33345476Y22320181D02*
X33964523Y22320181D01*
X33964523Y22320181D02*
X33631190Y21939229D01*
X33631190Y21939229D02*
X33774047Y21939229D01*
X33774047Y21939229D02*
X33869285Y21891610D01*
X33869285Y21891610D02*
X33916904Y21843991D01*
X33916904Y21843991D02*
X33964523Y21748753D01*
X33964523Y21748753D02*
X33964523Y21510658D01*
X33964523Y21510658D02*
X33916904Y21415420D01*
X33916904Y21415420D02*
X33869285Y21367800D01*
X33869285Y21367800D02*
X33774047Y21320181D01*
X33774047Y21320181D02*
X33488333Y21320181D01*
X33488333Y21320181D02*
X33393095Y21367800D01*
X33393095Y21367800D02*
X33345476Y21415420D01*
%TO.C,J102*%
X12425000Y59914500D02*
X18775000Y59914500D01*
X12425000Y56485500D02*
X12425000Y59914500D01*
X13060000Y60740000D02*
X14520500Y60740000D01*
X13060000Y59914500D02*
X13060000Y60740000D01*
X13060000Y55660000D02*
X13060000Y56485500D01*
X14520500Y60740000D02*
X14520500Y59914500D01*
X15600000Y56485500D02*
X12425000Y56485500D01*
X16679500Y60740000D02*
X16679500Y59914500D01*
X18140000Y60740000D02*
X16679500Y60740000D01*
X18140000Y59914500D02*
X18140000Y60740000D01*
X18140000Y56485500D02*
X18140000Y55660000D01*
X18140000Y55660000D02*
X13060000Y55660000D01*
X18775000Y59914500D02*
X18775000Y56485500D01*
X18775000Y56485500D02*
X15600000Y56485500D01*
%TO.C,U105*%
D13*
X6150000Y66250000D02*
X6150000Y68250000D01*
X7200000Y69550000D02*
X7650000Y70000000D01*
X7200000Y64950000D02*
X7650000Y64500000D01*
X10150000Y70000000D02*
X7650000Y70000000D01*
X10150000Y64500000D02*
X7650000Y64500000D01*
X10600000Y69550000D02*
X10150000Y70000000D01*
X10600000Y64950000D02*
X10150000Y64500000D01*
X11650000Y66250000D02*
X11650000Y68250000D01*
%TO.C,U1*%
X39255300Y65119160D02*
X39255300Y65919160D01*
X39255300Y65119160D02*
X39255300Y64319160D01*
X42375300Y65119160D02*
X42375300Y65919160D01*
X42375300Y65119160D02*
X42375300Y64319160D01*
X39305300Y63819160D02*
X38975300Y63579160D01*
X38975300Y64059160D01*
X39305300Y63819160D01*
G36*
X39305300Y63819160D02*
G01*
X38975300Y63579160D01*
X38975300Y64059160D01*
X39305300Y63819160D01*
G37*
%TO.C,C1*%
X37534940Y65685600D02*
X37534940Y65404440D01*
X38554940Y65685600D02*
X38554940Y65404440D01*
%TO.C,C101*%
X24590000Y41740580D02*
X24590000Y41459420D01*
X25610000Y41740580D02*
X25610000Y41459420D01*
%TO.C,C104*%
X42990000Y64959420D02*
X42990000Y65240580D01*
X44010000Y64959420D02*
X44010000Y65240580D01*
%TO.C,C107*%
X26290000Y41740580D02*
X26290000Y41459420D01*
X27310000Y41740580D02*
X27310000Y41459420D01*
%TO.C,R4*%
X29277500Y60562742D02*
X29277500Y61037258D01*
X30322500Y60562742D02*
X30322500Y61037258D01*
%TO.C,R104*%
X28077500Y41362742D02*
X28077500Y41837258D01*
X29122500Y41362742D02*
X29122500Y41837258D01*
%TO.C,R105*%
X20077500Y45562742D02*
X20077500Y46037258D01*
X21122500Y45562742D02*
X21122500Y46037258D01*
%TO.C,R106*%
X33461900Y46905358D02*
X33461900Y46430842D01*
X34506900Y46905358D02*
X34506900Y46430842D01*
%TO.C,R107*%
X35292800Y65381902D02*
X35292800Y65856418D01*
X36337800Y65381902D02*
X36337800Y65856418D01*
%TO.C,U4*%
X31440000Y60300000D02*
X31440000Y61100000D01*
X31440000Y60300000D02*
X31440000Y59500000D01*
X34560000Y60300000D02*
X34560000Y61100000D01*
X34560000Y60300000D02*
X34560000Y59500000D01*
X31490000Y59000000D02*
X31160000Y58760000D01*
X31160000Y59240000D01*
X31490000Y59000000D01*
G36*
X31490000Y59000000D02*
G01*
X31160000Y58760000D01*
X31160000Y59240000D01*
X31490000Y59000000D01*
G37*
%TO.C,C3*%
X28059420Y30410000D02*
X28340580Y30410000D01*
X28059420Y29390000D02*
X28340580Y29390000D01*
%TO.C,C4*%
X35759420Y30410000D02*
X36040580Y30410000D01*
X35759420Y29390000D02*
X36040580Y29390000D01*
%TO.C,C5*%
X22240580Y25010000D02*
X21959420Y25010000D01*
X22240580Y23990000D02*
X21959420Y23990000D01*
%TO.C,C6*%
X34790000Y22840580D02*
X34790000Y22559420D01*
X35810000Y22840580D02*
X35810000Y22559420D01*
%TO.C,C7*%
X18890000Y26840580D02*
X18890000Y26559420D01*
X19910000Y26840580D02*
X19910000Y26559420D01*
%TO.C,C9*%
X24090000Y24440580D02*
X24090000Y24159420D01*
X25110000Y24440580D02*
X25110000Y24159420D01*
%TO.C,J2*%
X3750000Y59690000D02*
X5080000Y59690000D01*
X3750000Y58360000D02*
X3750000Y59690000D01*
X3750000Y57090000D02*
X3750000Y54490000D01*
X3750000Y57090000D02*
X6410000Y57090000D01*
X3750000Y54490000D02*
X6410000Y54490000D01*
X6410000Y57090000D02*
X6410000Y54490000D01*
%TO.C,J3*%
X3750000Y49530000D02*
X5080000Y49530000D01*
X3750000Y48200000D02*
X3750000Y49530000D01*
X3750000Y46930000D02*
X3750000Y6230000D01*
X3750000Y46930000D02*
X6410000Y46930000D01*
X3750000Y6230000D02*
X6410000Y6230000D01*
X6410000Y46930000D02*
X6410000Y6230000D01*
%TO.C,Q1*%
X26240300Y37608200D02*
X26240300Y38258200D01*
X26240300Y37608200D02*
X26240300Y36958200D01*
X29360300Y37608200D02*
X29360300Y38258200D01*
X29360300Y37608200D02*
X29360300Y36958200D01*
X29310300Y38770700D02*
X29640300Y39010700D01*
X29640300Y38530700D01*
X29310300Y38770700D01*
G36*
X29640300Y38530700D02*
G01*
X29310300Y38770700D01*
X29640300Y39010700D01*
X29640300Y38530700D01*
G37*
%TO.C,U6*%
D10*
X22450000Y26550000D02*
X22950000Y26550000D01*
X22950000Y26550000D02*
X22950000Y27050000D01*
%TO.C,J4*%
D13*
X46930000Y49530000D02*
X48260000Y49530000D01*
X46930000Y48200000D02*
X46930000Y49530000D01*
X46930000Y46930000D02*
X46930000Y6230000D01*
X46930000Y46930000D02*
X49590000Y46930000D01*
X46930000Y6230000D02*
X49590000Y6230000D01*
X49590000Y46930000D02*
X49590000Y6230000D01*
%TO.C,D1*%
X17915000Y51735000D02*
X17915000Y50265000D01*
X17915000Y50265000D02*
X20200000Y50265000D01*
X20200000Y51735000D02*
X17915000Y51735000D01*
%TO.C,R1*%
X19162742Y53322500D02*
X19637258Y53322500D01*
X19162742Y52277500D02*
X19637258Y52277500D01*
%TO.C,C10*%
X35759420Y32210000D02*
X36040580Y32210000D01*
X35759420Y31190000D02*
X36040580Y31190000D01*
%TO.C,J1*%
X45510000Y56760000D02*
X45510000Y55510000D01*
X45510000Y55510000D02*
X46760000Y55510000D01*
X45800000Y68420000D02*
X45800000Y55800000D01*
X45800000Y55800000D02*
X51770000Y55800000D01*
X45810000Y68410000D02*
X45810000Y66610000D01*
X45810000Y66610000D02*
X46560000Y66610000D01*
X45810000Y65110000D02*
X45810000Y59110000D01*
X45810000Y59110000D02*
X46560000Y59110000D01*
X45810000Y57610000D02*
X45810000Y55810000D01*
X45810000Y55810000D02*
X46560000Y55810000D01*
X46560000Y68410000D02*
X45810000Y68410000D01*
X46560000Y66610000D02*
X46560000Y68410000D01*
X46560000Y65110000D02*
X45810000Y65110000D01*
X46560000Y59110000D02*
X46560000Y65110000D01*
X46560000Y57610000D02*
X45810000Y57610000D01*
X46560000Y55810000D02*
X46560000Y57610000D01*
X48060000Y68410000D02*
X48060000Y67660000D01*
X48060000Y67660000D02*
X51010000Y67660000D01*
X48060000Y56560000D02*
X49400000Y56560000D01*
X48060000Y55810000D02*
X48060000Y56560000D01*
X51010000Y67660000D02*
X51010000Y62110000D01*
X51010000Y62110000D02*
X51010000Y57620000D01*
X51770000Y68420000D02*
X45800000Y68420000D01*
X51770000Y55800000D02*
X51770000Y68420000D01*
%TO.C,D105*%
X33380300Y66419160D02*
X33380300Y64134160D01*
X33380300Y64134160D02*
X34850300Y64134160D01*
X34850300Y64134160D02*
X34850300Y66419160D01*
%TO.C,C11*%
X22740580Y42910000D02*
X22459420Y42910000D01*
X22740580Y41890000D02*
X22459420Y41890000D01*
%TO.C,U101*%
X23290000Y52435000D02*
X23590000Y52435000D01*
X23290000Y52135000D02*
X23290000Y52435000D01*
X23290000Y45515000D02*
X23290000Y45215000D01*
X23290000Y45215000D02*
X23590000Y45215000D01*
X30510000Y52435000D02*
X30210000Y52435000D01*
X30510000Y52135000D02*
X30510000Y52435000D01*
X30510000Y45515000D02*
X30510000Y45215000D01*
X30510000Y45215000D02*
X30210000Y45215000D01*
X23590000Y44612500D02*
X23120000Y44272500D01*
X23120000Y44952500D01*
X23590000Y44612500D01*
G36*
X23590000Y44612500D02*
G01*
X23120000Y44272500D01*
X23120000Y44952500D01*
X23590000Y44612500D01*
G37*
%TO.C,C2*%
X29040580Y55610000D02*
X28759420Y55610000D01*
X29040580Y54590000D02*
X28759420Y54590000D01*
%TO.C,D3*%
X36640000Y71900000D02*
X36640000Y69900000D01*
X36640000Y71900000D02*
X40650000Y71900000D01*
X36640000Y69900000D02*
X40650000Y69900000D01*
%TO.C,D2*%
X41360000Y69400000D02*
X37350000Y69400000D01*
X41360000Y67400000D02*
X37350000Y67400000D01*
X41360000Y67400000D02*
X41360000Y69400000D01*
%TO.C,R2*%
X38677500Y60562742D02*
X38677500Y61037258D01*
X39722500Y60562742D02*
X39722500Y61037258D01*
%TO.C,R5*%
X36977500Y60562742D02*
X36977500Y61037258D01*
X38022500Y60562742D02*
X38022500Y61037258D01*
%TO.C,SW1*%
X34099000Y56040000D02*
X34099000Y50520000D01*
X35534000Y56040000D02*
X34099000Y56040000D01*
X35534000Y50520000D02*
X34099000Y50520000D01*
X40085000Y57726000D02*
X40085000Y56040000D01*
X40901000Y56040000D02*
X40085000Y56040000D01*
X40901000Y56040000D02*
X40901000Y50520000D01*
X40901000Y50520000D02*
X39466000Y50520000D01*
%TO.C,R6*%
X35277500Y60562742D02*
X35277500Y61037258D01*
X36322500Y60562742D02*
X36322500Y61037258D01*
%TO.C,R3*%
X18877500Y30037258D02*
X18877500Y29562742D01*
X19922500Y30037258D02*
X19922500Y29562742D01*
%TO.C,J104*%
X22065000Y73485000D02*
X22065000Y71535000D01*
X22065000Y73485000D02*
X29885000Y73485000D01*
X22065000Y69315000D02*
X22065000Y66085000D01*
X23865000Y64165000D02*
X22785000Y64165000D01*
X28085000Y64165000D02*
X28085000Y63735000D01*
X29165000Y64165000D02*
X28085000Y64165000D01*
X29885000Y73485000D02*
X29885000Y71535000D01*
X29885000Y69315000D02*
X29885000Y66085000D01*
%TO.C,U3*%
X28245000Y27880000D02*
X28245000Y28115000D01*
X28245000Y23135000D02*
X28245000Y23610000D01*
X28720000Y28355000D02*
X28545000Y28355000D01*
X28720000Y23135000D02*
X28245000Y23135000D01*
X32990000Y28355000D02*
X33465000Y28355000D01*
X32990000Y23135000D02*
X33465000Y23135000D01*
X33465000Y28355000D02*
X33465000Y27880000D01*
X33465000Y23135000D02*
X33465000Y23610000D01*
X28245000Y28355000D02*
X28005000Y28685000D01*
X28485000Y28685000D01*
X28245000Y28355000D01*
G36*
X28245000Y28355000D02*
G01*
X28005000Y28685000D01*
X28485000Y28685000D01*
X28245000Y28355000D01*
G37*
%TD*%
D14*
%TO.C,J102*%
X18140000Y58835000D03*
X18140000Y57565000D03*
X16870000Y58835000D03*
X16870000Y57565000D03*
X15600000Y58835000D03*
X15600000Y57565000D03*
X14330000Y58835000D03*
X14330000Y57565000D03*
X13060000Y58835000D03*
X13060000Y57565000D03*
%TD*%
%LPC*%
%TO.C,J102*%
X18140000Y58835000D03*
X18140000Y57565000D03*
X16870000Y58835000D03*
X16870000Y57565000D03*
X15600000Y58835000D03*
X15600000Y57565000D03*
X14330000Y58835000D03*
X14330000Y57565000D03*
X13060000Y58835000D03*
X13060000Y57565000D03*
%TD*%
D15*
%TO.C,U105*%
X11900000Y65375000D03*
X5900000Y65375000D03*
X11900000Y69125000D03*
X5900000Y69125000D03*
%TD*%
D16*
%TO.C,U1*%
X39865300Y63981660D03*
X41765300Y63981660D03*
X40815300Y66256660D03*
%TD*%
D17*
%TO.C,C1*%
X38044940Y66320020D03*
X38044940Y64770020D03*
%TD*%
%TO.C,C101*%
X25100000Y42375000D03*
X25100000Y40825000D03*
%TD*%
D18*
%TO.C,C104*%
X43500000Y64325000D03*
X43500000Y65875000D03*
%TD*%
D17*
%TO.C,C107*%
X26800000Y42375000D03*
X26800000Y40825000D03*
%TD*%
D19*
%TO.C,R4*%
X29800000Y59975000D03*
X29800000Y61625000D03*
%TD*%
%TO.C,R104*%
X28600000Y40775000D03*
X28600000Y42425000D03*
%TD*%
%TO.C,R105*%
X20600000Y44975000D03*
X20600000Y46625000D03*
%TD*%
D20*
%TO.C,R106*%
X33984400Y47493100D03*
X33984400Y45843100D03*
%TD*%
D19*
%TO.C,R107*%
X35815300Y64794160D03*
X35815300Y66444160D03*
%TD*%
D16*
%TO.C,U4*%
X32050000Y59162500D03*
X33000000Y59162500D03*
X33950000Y59162500D03*
X33950000Y61437500D03*
X33000000Y61437500D03*
X32050000Y61437500D03*
%TD*%
D21*
%TO.C,C3*%
X27425000Y29900000D03*
X28975000Y29900000D03*
%TD*%
%TO.C,C4*%
X35125000Y29900000D03*
X36675000Y29900000D03*
%TD*%
D22*
%TO.C,C5*%
X22875000Y24500000D03*
X21325000Y24500000D03*
%TD*%
D17*
%TO.C,C6*%
X35300000Y23475000D03*
X35300000Y21925000D03*
%TD*%
%TO.C,C7*%
X19400000Y27475000D03*
X19400000Y25925000D03*
%TD*%
%TO.C,C9*%
X24600000Y25075000D03*
X24600000Y23525000D03*
%TD*%
D23*
%TO.C,J2*%
X5080000Y58360000D03*
D24*
X5080000Y55820000D03*
%TD*%
D23*
%TO.C,J3*%
X5207000Y48200000D03*
D24*
X4953000Y45660000D03*
X5207000Y43120000D03*
X4953000Y40580000D03*
X5207000Y38040000D03*
X4953000Y35500000D03*
X5207000Y32960000D03*
X4953000Y30420000D03*
X5207000Y27880000D03*
X4953000Y25340000D03*
X5207000Y22800000D03*
X4953000Y20260000D03*
X5207000Y17720000D03*
X4953000Y15180000D03*
X5207000Y12640000D03*
X4953000Y10100000D03*
X5207000Y7560000D03*
%TD*%
D25*
%TO.C,Q1*%
X28750300Y38545700D03*
X26850300Y38545700D03*
X27800300Y36670700D03*
%TD*%
D26*
%TO.C,U6*%
X22350000Y27000000D03*
X22350000Y27900000D03*
X22350000Y28800000D03*
X22350000Y29700000D03*
X21150000Y29700000D03*
X21150000Y28800000D03*
X21150000Y27900000D03*
X21150000Y27000000D03*
%TD*%
D23*
%TO.C,J4*%
X48387000Y48200000D03*
D24*
X48133000Y45660000D03*
X48387000Y43120000D03*
X48133000Y40580000D03*
X48387000Y38040000D03*
X48133000Y35500000D03*
X48387000Y32960000D03*
X48133000Y30420000D03*
X48387000Y27880000D03*
X48133000Y25340000D03*
X48387000Y22800000D03*
X48133000Y20260000D03*
X48387000Y17720000D03*
X48133000Y15180000D03*
X48387000Y12640000D03*
X48133000Y10100000D03*
X48387000Y7560000D03*
%TD*%
D27*
%TO.C,D1*%
X18612500Y51000000D03*
X20187500Y51000000D03*
%TD*%
D28*
%TO.C,R1*%
X18575000Y52800000D03*
X20225000Y52800000D03*
%TD*%
D21*
%TO.C,C10*%
X35125000Y31700000D03*
X36675000Y31700000D03*
%TD*%
D29*
%TO.C,J1*%
X50260000Y56760000D03*
D30*
X48260000Y58360000D03*
D31*
X48260000Y60860000D03*
X48260000Y63360000D03*
X48260000Y65860000D03*
%TD*%
D32*
%TO.C,D105*%
X34115300Y64831660D03*
X34115300Y66406660D03*
%TD*%
D22*
%TO.C,C11*%
X23375000Y42400000D03*
X21825000Y42400000D03*
%TD*%
D33*
%TO.C,U101*%
X24100000Y44650000D03*
X24900000Y44650000D03*
X25700000Y44650000D03*
X26500000Y44650000D03*
X27300000Y44650000D03*
X28100000Y44650000D03*
X28900000Y44650000D03*
X29700000Y44650000D03*
D34*
X31075000Y46025000D03*
X31075000Y46825000D03*
X31075000Y47625000D03*
X31075000Y48425000D03*
X31075000Y49225000D03*
X31075000Y50025000D03*
X31075000Y50825000D03*
X31075000Y51625000D03*
D33*
X29700000Y53000000D03*
X28900000Y53000000D03*
X28100000Y53000000D03*
X27300000Y53000000D03*
X26500000Y53000000D03*
X25700000Y53000000D03*
X24900000Y53000000D03*
X24100000Y53000000D03*
D34*
X22725000Y51625000D03*
X22725000Y50825000D03*
X22725000Y50025000D03*
X22725000Y49225000D03*
X22725000Y48425000D03*
X22725000Y47625000D03*
X22725000Y46825000D03*
X22725000Y46025000D03*
%TD*%
D22*
%TO.C,C2*%
X29675000Y55100000D03*
X28125000Y55100000D03*
%TD*%
D35*
%TO.C,D3*%
X37350000Y70900000D03*
X40650000Y70900000D03*
%TD*%
D36*
%TO.C,D2*%
X40650000Y68400000D03*
X37350000Y68400000D03*
%TD*%
D19*
%TO.C,R2*%
X39200000Y59975000D03*
X39200000Y61625000D03*
%TD*%
%TO.C,R5*%
X37500000Y59975000D03*
X37500000Y61625000D03*
%TD*%
D37*
%TO.C,SW1*%
X39405000Y57090000D03*
X38135000Y57090000D03*
X36865000Y57090000D03*
X35595000Y57090000D03*
X35595000Y49470000D03*
X36865000Y49470000D03*
X38135000Y49470000D03*
X39405000Y49470000D03*
%TD*%
D19*
%TO.C,R6*%
X35800000Y59975000D03*
X35800000Y61625000D03*
%TD*%
D20*
%TO.C,R3*%
X19400000Y30625000D03*
X19400000Y28975000D03*
%TD*%
D38*
%TO.C,J104*%
X28175000Y67575000D03*
X23775000Y67575000D03*
D39*
X27575000Y64875000D03*
X26775000Y64875000D03*
X25975000Y64875000D03*
X25175000Y64875000D03*
X24375000Y64875000D03*
D40*
X30425000Y64975000D03*
X30425000Y70425000D03*
X21525000Y64975000D03*
X21525000Y70425000D03*
%TD*%
D41*
%TO.C,U3*%
X28417500Y27495000D03*
X28417500Y26995000D03*
X28417500Y26495000D03*
X28417500Y25995000D03*
X28417500Y25495000D03*
X28417500Y24995000D03*
X28417500Y24495000D03*
X28417500Y23995000D03*
D42*
X29105000Y23307500D03*
X29605000Y23307500D03*
X30105000Y23307500D03*
X30605000Y23307500D03*
X31105000Y23307500D03*
X31605000Y23307500D03*
X32105000Y23307500D03*
X32605000Y23307500D03*
D41*
X33292500Y23995000D03*
X33292500Y24495000D03*
X33292500Y24995000D03*
X33292500Y25495000D03*
X33292500Y25995000D03*
X33292500Y26495000D03*
X33292500Y26995000D03*
X33292500Y27495000D03*
D42*
X32605000Y28182500D03*
X32105000Y28182500D03*
X31605000Y28182500D03*
X31105000Y28182500D03*
X30605000Y28182500D03*
X30105000Y28182500D03*
X29605000Y28182500D03*
X29105000Y28182500D03*
D43*
X30855000Y25745000D03*
%TD*%
%LPD*%
M02*
