ISO-10303-21;
HEADER;
FILE_DESCRIPTION (( 'STEP AP203' ),
    '1' );
FILE_NAME ('98380A417_416 Stainless Steel Dowel Pin.STEP',
    '2026-01-07T21:07:54',
    ( 'McMaster Carr Supply' ),
    ( 'McMaster Carr Supply' ),
    'SwSTEP 2.0',
    'SolidWorks 2024',
    '' );
FILE_SCHEMA (( 'CONFIG_CONTROL_DESIGN' ));
ENDSEC;

DATA;
#1 = PERSON_AND_ORGANIZATION ( #42, #153 ) ;
#2 = AXIS2_PLACEMENT_3D ( 'NONE', #257, #121, #210 ) ;
#3 = CARTESIAN_POINT ( 'NONE',  ( 0.000000000000000000, 1.435132967750804443E-18, 0.1796875000000000278 ) ) ;
#4 = LINE ( 'NONE', #268, #214 ) ;
#5 = LOCAL_TIME ( 15, 7, 54.00000000000000000, #259 ) ;
#6 = DIRECTION ( 'NONE',  ( 0.000000000000000000, 1.000000000000000000, 0.000000000000000000 ) ) ;
#7 = ORIENTED_EDGE ( 'NONE', *, *, #254, .F. ) ;
#8 = ORIENTED_EDGE ( 'NONE', *, *, #168, .F. ) ;
#9 = APPLICATION_CONTEXT ( 'configuration controlled 3d designs of mechanical parts and assemblies' ) ;
#10 = CIRCLE ( 'NONE', #258, 0.02343749999999999653 ) ;
#11 = CC_DESIGN_PERSON_AND_ORGANIZATION_ASSIGNMENT ( #150, #243, ( #83 ) ) ;
#12 = DIRECTION ( 'NONE',  ( 0.000000000000000000, -1.000000000000000000, 0.000000000000000000 ) ) ;
#13 = CARTESIAN_POINT ( 'NONE',  ( 0.000000000000000000, 6.888638245203864410E-17, -0.1875000000000000278 ) ) ;
#14 = DIRECTION ( 'NONE',  ( 0.000000000000000000, -1.836970198721030181E-16, 1.000000000000000000 ) ) ;
#15 = FACE_OUTER_BOUND ( 'NONE', #262, .T. ) ;
#16 = APPROVAL_PERSON_ORGANIZATION ( #81, #86, #240 ) ;
#17 = DIRECTION ( 'NONE',  ( -0.000000000000000000, -1.836970198721030181E-16, 1.000000000000000000 ) ) ;
#18 = PERSON_AND_ORGANIZATION ( #42, #153 ) ;
#19 = EDGE_CURVE ( 'NONE', #225, #131, #4, .T. ) ;
#20 = APPROVAL_STATUS ( 'not_yet_approved' ) ;
#21 = ADVANCED_BREP_SHAPE_REPRESENTATION ( '98380A417_416 Stainless Steel Dowel Pin', ( #186, #260 ), #140 ) ;
#22 = DATE_TIME_ROLE ( 'creation_date' ) ;
#23 = CC_DESIGN_APPROVAL ( #58, ( #192 ) ) ;
#24 = CC_DESIGN_PERSON_AND_ORGANIZATION_ASSIGNMENT ( #43, #128, ( #177 ) ) ;
#25 = EDGE_LOOP ( 'NONE', ( #29, #47, #176, #113 ) ) ;
#26 = ORIENTED_EDGE ( 'NONE', *, *, #133, .T. ) ;
#27 = CONICAL_SURFACE ( 'NONE', #148, 0.02967998520059885945, 0.2617993877991434126 ) ;
#28 = DIRECTION ( 'NONE',  ( 0.000000000000000000, -1.000000000000000000, 0.000000000000000000 ) ) ;
#29 = ORIENTED_EDGE ( 'NONE', *, *, #133, .F. ) ;
#30 = CARTESIAN_POINT ( 'NONE',  ( 0.000000000000000000, 6.888638245203864410E-17, -0.1875000000000000278 ) ) ;
#31 = CONICAL_SURFACE ( 'NONE', #193, 0.03125000000000000000, 0.7853981633974488341 ) ;
#32 = CARTESIAN_POINT ( 'NONE',  ( 0.000000000000000000, 6.888638245203861944E-17, -0.1875000000000000278 ) ) ;
#33 = CARTESIAN_POINT ( 'NONE',  ( 0.000000000000000000, 0.02343749999999999653, 0.1875000000000000278 ) ) ;
#34 = DIRECTION ( 'NONE',  ( -0.000000000000000000, -1.836970198721030181E-16, 1.000000000000000000 ) ) ;
#35 = LINE ( 'NONE', #160, #232 ) ;
#36 = AXIS2_PLACEMENT_3D ( 'NONE', #138, #164, #185 ) ;
#37 = DIRECTION ( 'NONE',  ( 1.000000000000000000, 0.000000000000000000, 0.000000000000000000 ) ) ;
#38 = APPROVAL_ROLE ( '' ) ;
#39 = DIRECTION ( 'NONE',  ( 0.000000000000000000, 0.000000000000000000, 1.000000000000000000 ) ) ;
#40 = COORDINATED_UNIVERSAL_TIME_OFFSET ( 6, 0, .BEHIND. ) ;
#41 = CIRCLE ( 'NONE', #130, 0.03125000000000000000 ) ;
#42 = PERSON ( 'UNSPECIFIED', 'UNSPECIFIED', 'UNSPECIFIED', ('UNSPECIFIED'), ('UNSPECIFIED'), ('UNSPECIFIED') ) ;
#43 = PERSON_AND_ORGANIZATION ( #42, #153 ) ;
#44 = APPROVAL_STATUS ( 'not_yet_approved' ) ;
#45 = ORIENTED_EDGE ( 'NONE', *, *, #229, .T. ) ;
#46 = ADVANCED_FACE ( 'NONE', ( #203 ), #219, .T. ) ;
#47 = ORIENTED_EDGE ( 'NONE', *, *, #114, .F. ) ;
#48 = ORIENTED_EDGE ( 'NONE', *, *, #118, .F. ) ;
#49 = LOCAL_TIME ( 15, 7, 54.00000000000000000, #174 ) ;
#50 = ORIENTED_EDGE ( 'NONE', *, *, #159, .F. ) ;
#51 = CARTESIAN_POINT ( 'NONE',  ( 0.000000000000000000, 0.03125000000000000000, 0.1796875000000000278 ) ) ;
#52 = DIRECTION ( 'NONE',  ( -0.000000000000000000, -1.836970198721030181E-16, 1.000000000000000000 ) ) ;
#53 = LOCAL_TIME ( 15, 7, 54.00000000000000000, #40 ) ;
#54 = CARTESIAN_POINT ( 'NONE',  ( 0.000000000000000000, 6.888638245203864410E-17, -0.1875000000000000278 ) ) ;
#55 = FACE_OUTER_BOUND ( 'NONE', #25, .T. ) ;
#56 = DIRECTION ( 'NONE',  ( -0.000000000000000000, -1.836970198721030181E-16, 1.000000000000000000 ) ) ;
#57 = CC_DESIGN_APPROVAL ( #245, ( #177 ) ) ;
#58 = APPROVAL ( #44, 'UNSPECIFIED' ) ;
#59 =( CONVERSION_BASED_UNIT ( 'INCH', #278 ) LENGTH_UNIT ( ) NAMED_UNIT ( #110 ) );
#60 = PERSON_AND_ORGANIZATION ( #42, #153 ) ;
#61 = PERSON_AND_ORGANIZATION_ROLE ( 'creator' ) ;
#62 = CALENDAR_DATE ( 2026, 7, 1 ) ;
#63 = AXIS2_PLACEMENT_3D ( 'NONE', #32, #14, #93 ) ;
#64 = DATE_AND_TIME ( #62, #183 ) ;
#65 = CARTESIAN_POINT ( 'NONE',  ( 3.730885567400445292E-18, 0.02967998520059892537, -0.1875000000000000278 ) ) ;
#66 = CLOSED_SHELL ( 'NONE', ( #146, #173, #46, #126, #211, #242, #223, #238 ) ) ;
#67 = DIRECTION ( 'NONE',  ( 0.000000000000000000, 1.836970198721030181E-16, -1.000000000000000000 ) ) ;
#68 = ORIENTED_EDGE ( 'NONE', *, *, #270, .T. ) ;
#69 = VERTEX_POINT ( 'NONE', #132 ) ;
#70 = VECTOR ( 'NONE', #34, 39.37007874015748143 ) ;
#71 = ORIENTED_EDGE ( 'NONE', *, *, #168, .T. ) ;
#72 = CARTESIAN_POINT ( 'NONE',  ( 0.000000000000000000, 7.908889478880891867E-34, 0.1875000000000000278 ) ) ;
#73 = DIRECTION ( 'NONE',  ( 8.659560562354937789E-17, -0.7071067811865477948, -0.7071067811865472397 ) ) ;
#74 = CC_DESIGN_PERSON_AND_ORGANIZATION_ASSIGNMENT ( #217, #170, ( #83 ) ) ;
#75 = CIRCLE ( 'NONE', #165, 0.02967998520059885945 ) ;
#76 = LINE ( 'NONE', #79, #277 ) ;
#77 = CARTESIAN_POINT ( 'NONE',  ( 3.827021247335476461E-18, 0.03124999999999999653, -0.1816406250000000000 ) ) ;
#78 = DIRECTION ( 'NONE',  ( -0.000000000000000000, -1.836970198721030181E-16, 1.000000000000000000 ) ) ;
#79 = CARTESIAN_POINT ( 'NONE',  ( 3.827021247335474150E-18, 0.03124999999999996531, 0.1875000000000000278 ) ) ;
#80 = AXIS2_PLACEMENT_3D ( 'NONE', #212, #143, #123 ) ;
#81 = PERSON_AND_ORGANIZATION ( #42, #153 ) ;
#82 = CALENDAR_DATE ( 2026, 7, 1 ) ;
#83 = PRODUCT_DEFINITION_FORMATION_WITH_SPECIFIED_SOURCE ( 'ANY', '', #213, .NOT_KNOWN. ) ;
#84 = CALENDAR_DATE ( 2026, 7, 1 ) ;
#85 = ORIENTED_EDGE ( 'NONE', *, *, #254, .T. ) ;
#86 = APPROVAL ( #20, 'UNSPECIFIED' ) ;
#87 = DIRECTION ( 'NONE',  ( 0.000000000000000000, -0.2588190451025151329, 0.9659258262890698665 ) ) ;
#88 = CC_DESIGN_SECURITY_CLASSIFICATION ( #177, ( #83 ) ) ;
#89 = EDGE_LOOP ( 'NONE', ( #45, #68, #248, #129 ) ) ;
#90 = ORIENTED_EDGE ( 'NONE', *, *, #181, .T. ) ;
#91 = EDGE_CURVE ( 'NONE', #109, #178, #41, .T. ) ;
#92 = ORIENTED_EDGE ( 'NONE', *, *, #181, .F. ) ;
#93 = DIRECTION ( 'NONE',  ( 0.000000000000000000, -1.000000000000000000, -1.836970198721030181E-16 ) ) ;
#94 = DIRECTION ( 'NONE',  ( -0.000000000000000000, -1.836970198721030181E-16, 1.000000000000000000 ) ) ;
#95 = EDGE_CURVE ( 'NONE', #157, #131, #112, .T. ) ;
#96 = DIRECTION ( 'NONE',  ( -0.000000000000000000, -1.836970198721030181E-16, 1.000000000000000000 ) ) ;
#97 = CYLINDRICAL_SURFACE ( 'NONE', #102, 0.03124999999999996531 ) ;
#98 = PLANE ( 'NONE',  #2 ) ;
#99 = APPLICATION_PROTOCOL_DEFINITION ( 'international standard', 'config_control_design', 1994, #172 ) ;
#100 = APPROVAL_DATE_TIME ( #169, #245 ) ;
#101 = PERSON_AND_ORGANIZATION_ROLE ( 'design_owner' ) ;
#102 = AXIS2_PLACEMENT_3D ( 'NONE', #116, #56, #190 ) ;
#103 = APPROVAL_DATE_TIME ( #197, #58 ) ;
#104 = COORDINATED_UNIVERSAL_TIME_OFFSET ( 6, 0, .BEHIND. ) ;
#105 = DATE_TIME_ROLE ( 'classification_date' ) ;
#106 = APPROVAL_PERSON_ORGANIZATION ( #244, #245, #149 ) ;
#107 = CC_DESIGN_PERSON_AND_ORGANIZATION_ASSIGNMENT ( #18, #101, ( #213 ) ) ;
#108 = VERTEX_POINT ( 'NONE', #65 ) ;
#109 = VERTEX_POINT ( 'NONE', #152 ) ;
#110 = DIMENSIONAL_EXPONENTS ( 1.000000000000000000, 0.000000000000000000, 0.000000000000000000, 0.000000000000000000, 0.000000000000000000, 0.000000000000000000, 0.000000000000000000 ) ;
#111 = ORIENTED_EDGE ( 'NONE', *, *, #114, .T. ) ;
#112 = CIRCLE ( 'NONE', #208, 0.03124999999999993061 ) ;
#113 = ORIENTED_EDGE ( 'NONE', *, *, #159, .T. ) ;
#114 = EDGE_CURVE ( 'NONE', #222, #69, #204, .T. ) ;
#115 = EDGE_LOOP ( 'NONE', ( #7, #226, #206, #50 ) ) ;
#116 = CARTESIAN_POINT ( 'NONE',  ( 0.000000000000000000, 0.000000000000000000, 0.1875000000000000278 ) ) ;
#117 = AXIS2_PLACEMENT_3D ( 'NONE', #253, #52, #163 ) ;
#118 = EDGE_CURVE ( 'NONE', #131, #109, #215, .T. ) ;
#119 = CARTESIAN_POINT ( 'NONE',  ( 0.000000000000000000, 0.000000000000000000, 0.1875000000000000278 ) ) ;
#120 = CARTESIAN_POINT ( 'NONE',  ( 0.000000000000000000, -0.03124999999999986469, -0.1816406250000000000 ) ) ;
#121 = DIRECTION ( 'NONE',  ( 0.000000000000000000, 1.836970198721030181E-16, -1.000000000000000000 ) ) ;
#122 = AXIS2_PLACEMENT_3D ( 'NONE', #247, #234, #162 ) ;
#123 = DIRECTION ( 'NONE',  ( 0.000000000000000000, -1.000000000000000000, 0.000000000000000000 ) ) ;
#124 =( LENGTH_UNIT ( ) NAMED_UNIT ( * ) SI_UNIT ( $, .METRE. ) );
#125 = CC_DESIGN_APPROVAL ( #86, ( #83 ) ) ;
#126 = ADVANCED_FACE ( 'NONE', ( #256 ), #98, .F. ) ;
#127 = CALENDAR_DATE ( 2026, 7, 1 ) ;
#128 = PERSON_AND_ORGANIZATION_ROLE ( 'classification_officer' ) ;
#129 = ORIENTED_EDGE ( 'NONE', *, *, #19, .F. ) ;
#130 = AXIS2_PLACEMENT_3D ( 'NONE', #158, #252, #28 ) ;
#131 = VERTEX_POINT ( 'NONE', #120 ) ;
#132 = CARTESIAN_POINT ( 'NONE',  ( 3.348643591418543444E-18, -0.02343749999999999653, 0.1875000000000000278 ) ) ;
#133 = EDGE_CURVE ( 'NONE', #69, #109, #35, .T. ) ;
#134 = APPROVAL_PERSON_ORGANIZATION ( #60, #58, #38 ) ;
#135 = EDGE_LOOP ( 'NONE', ( #111, #71 ) ) ;
#136 = DIRECTION ( 'NONE',  ( 0.000000000000000000, 0.7071067811865479058, -0.7071067811865469066 ) ) ;
#137 = CC_DESIGN_PERSON_AND_ORGANIZATION_ASSIGNMENT ( #1, #61, ( #192 ) ) ;
#138 = CARTESIAN_POINT ( 'NONE',  ( 0.000000000000000000, 6.781003272622552988E-17, -0.1816406250000000000 ) ) ;
#139 = PRODUCT_DEFINITION_SHAPE ( 'NONE', 'NONE',  #192 ) ;
#140 =( GEOMETRIC_REPRESENTATION_CONTEXT ( 3 ) GLOBAL_UNCERTAINTY_ASSIGNED_CONTEXT ( ( #179 ) ) GLOBAL_UNIT_ASSIGNED_CONTEXT ( ( #59, #147, #218 ) ) REPRESENTATION_CONTEXT ( 'NONE', 'WORKASPACE' ) );
#141 = CARTESIAN_POINT ( 'NONE',  ( 0.000000000000000000, -0.02967998520059879006, -0.1875000000000000278 ) ) ;
#142 = FACE_OUTER_BOUND ( 'NONE', #89, .T. ) ;
#143 = DIRECTION ( 'NONE',  ( -0.000000000000000000, -1.836970198721030181E-16, 1.000000000000000000 ) ) ;
#144 = CIRCLE ( 'NONE', #80, 0.03125000000000000000 ) ;
#145 = CARTESIAN_POINT ( 'NONE',  ( 0.000000000000000000, 0.000000000000000000, 0.000000000000000000 ) ) ;
#146 = ADVANCED_FACE ( 'NONE', ( #142 ), #27, .T. ) ;
#147 =( NAMED_UNIT ( * ) PLANE_ANGLE_UNIT ( ) SI_UNIT ( $, .RADIAN. ) );
#148 = AXIS2_PLACEMENT_3D ( 'NONE', #30, #184, #12 ) ;
#149 = APPROVAL_ROLE ( '' ) ;
#150 = PERSON_AND_ORGANIZATION ( #42, #153 ) ;
#151 = EDGE_CURVE ( 'NONE', #131, #157, #267, .T. ) ;
#152 = CARTESIAN_POINT ( 'NONE',  ( 3.827021247335479543E-18, -0.03125000000000000694, 0.1796875000000000278 ) ) ;
#153 = ORGANIZATION ( 'UNSPECIFIED', 'UNSPECIFIED', '' ) ;
#154 = ORIENTED_EDGE ( 'NONE', *, *, #95, .F. ) ;
#155 = DESIGN_CONTEXT ( 'detailed design', #9, 'design' ) ;
#156 = ORIENTED_EDGE ( 'NONE', *, *, #233, .F. ) ;
#157 = VERTEX_POINT ( 'NONE', #77 ) ;
#158 = CARTESIAN_POINT ( 'NONE',  ( 0.000000000000000000, 1.435132967750804443E-18, 0.1796875000000000278 ) ) ;
#159 = EDGE_CURVE ( 'NONE', #178, #109, #144, .T. ) ;
#160 = CARTESIAN_POINT ( 'NONE',  ( 3.827021247335478772E-18, -0.03125000000000000000, 0.1796875000000000278 ) ) ;
#161 = DIRECTION ( 'NONE',  ( 0.000000000000000000, -1.000000000000000000, 0.000000000000000000 ) ) ;
#162 = DIRECTION ( 'NONE',  ( 0.000000000000000000, -1.000000000000000000, 0.000000000000000000 ) ) ;
#163 = DIRECTION ( 'NONE',  ( 0.000000000000000000, -1.000000000000000000, 0.000000000000000000 ) ) ;
#164 = DIRECTION ( 'NONE',  ( -0.000000000000000000, -1.836970198721030181E-16, 1.000000000000000000 ) ) ;
#165 = AXIS2_PLACEMENT_3D ( 'NONE', #13, #94, #271 ) ;
#166 = MECHANICAL_CONTEXT ( 'NONE', #172, 'mechanical' ) ;
#167 = SECURITY_CLASSIFICATION_LEVEL ( 'unclassified' ) ;
#168 = EDGE_CURVE ( 'NONE', #69, #222, #10, .T. ) ;
#169 = DATE_AND_TIME ( #84, #53 ) ;
#170 = PERSON_AND_ORGANIZATION_ROLE ( 'creator' ) ;
#171 = COORDINATED_UNIVERSAL_TIME_OFFSET ( 6, 0, .BEHIND. ) ;
#172 = APPLICATION_CONTEXT ( 'configuration controlled 3d designs of mechanical parts and assemblies' ) ;
#173 = ADVANCED_FACE ( 'NONE', ( #15 ), #97, .T. ) ;
#174 = COORDINATED_UNIVERSAL_TIME_OFFSET ( 6, 0, .BEHIND. ) ;
#175 = DIRECTION ( 'NONE',  ( -0.000000000000000000, -1.836970198721030181E-16, 1.000000000000000000 ) ) ;
#176 = ORIENTED_EDGE ( 'NONE', *, *, #233, .T. ) ;
#177 = SECURITY_CLASSIFICATION ( '', '', #167 ) ;
#178 = VERTEX_POINT ( 'NONE', #272 ) ;
#179 = UNCERTAINTY_MEASURE_WITH_UNIT (LENGTH_MEASURE( 1.000000000000000082E-05 ), #59, 'distance_accuracy_value', 'NONE');
#180 = ORIENTED_EDGE ( 'NONE', *, *, #151, .T. ) ;
#181 = EDGE_CURVE ( 'NONE', #108, #225, #75, .T. ) ;
#182 = ORIENTED_EDGE ( 'NONE', *, *, #91, .T. ) ;
#183 = LOCAL_TIME ( 15, 7, 54.00000000000000000, #171 ) ;
#184 = DIRECTION ( 'NONE',  ( -0.000000000000000000, -1.836970198721030181E-16, 1.000000000000000000 ) ) ;
#185 = DIRECTION ( 'NONE',  ( 0.000000000000000000, -1.000000000000000000, 0.000000000000000000 ) ) ;
#186 = MANIFOLD_SOLID_BREP ( 'Revolve1', #66 ) ;
#187 = DIRECTION ( 'NONE',  ( 0.000000000000000000, -1.000000000000000000, 0.000000000000000000 ) ) ;
#188 = CC_DESIGN_DATE_AND_TIME_ASSIGNMENT ( #64, #22, ( #192 ) ) ;
#189 = DIRECTION ( 'NONE',  ( 0.000000000000000000, 1.000000000000000000, 0.000000000000000000 ) ) ;
#190 = DIRECTION ( 'NONE',  ( 0.000000000000000000, -1.000000000000000000, 0.000000000000000000 ) ) ;
#191 = DIRECTION ( 'NONE',  ( 3.169619151431694067E-17, 0.2588190451025147998, 0.9659258262890698665 ) ) ;
#192 = PRODUCT_DEFINITION ( 'UNKNOWN', '', #83, #155 ) ;
#193 = AXIS2_PLACEMENT_3D ( 'NONE', #275, #230, #189 ) ;
#194 = CARTESIAN_POINT ( 'NONE',  ( 3.634749887465420287E-18, 0.02967998520059892537, -0.1875000000000000278 ) ) ;
#195 = APPROVAL_DATE_TIME ( #196, #86 ) ;
#196 = DATE_AND_TIME ( #127, #49 ) ;
#197 = DATE_AND_TIME ( #82, #198 ) ;
#198 = LOCAL_TIME ( 15, 7, 54.00000000000000000, #104 ) ;
#199 = APPROVAL_STATUS ( 'not_yet_approved' ) ;
#200 = CARTESIAN_POINT ( 'NONE',  ( 0.000000000000000000, 6.781003272622552988E-17, -0.1816406250000000000 ) ) ;
#201 = ORIENTED_EDGE ( 'NONE', *, *, #270, .F. ) ;
#202 = CC_DESIGN_DATE_AND_TIME_ASSIGNMENT ( #221, #105, ( #177 ) ) ;
#203 = FACE_OUTER_BOUND ( 'NONE', #224, .T. ) ;
#204 = CIRCLE ( 'NONE', #122, 0.02343749999999999653 ) ;
#205 = DIRECTION ( 'NONE',  ( 0.000000000000000000, -1.000000000000000000, 0.000000000000000000 ) ) ;
#206 = ORIENTED_EDGE ( 'NONE', *, *, #118, .T. ) ;
#207 = PLANE ( 'NONE',  #63 ) ;
#208 = AXIS2_PLACEMENT_3D ( 'NONE', #200, #175, #205 ) ;
#209 = CARTESIAN_POINT ( 'NONE',  ( 0.000000000000000000, -0.03124999999999996531, 0.1875000000000000278 ) ) ;
#210 = DIRECTION ( 'NONE',  ( 0.000000000000000000, 1.000000000000000000, 1.836970198721030181E-16 ) ) ;
#211 = ADVANCED_FACE ( 'NONE', ( #55 ), #31, .T. ) ;
#212 = CARTESIAN_POINT ( 'NONE',  ( 0.000000000000000000, 1.435132967750804443E-18, 0.1796875000000000278 ) ) ;
#213 = PRODUCT ( '98380A417_416 Stainless Steel Dowel Pin', '98380A417_416 Stainless Steel Dowel Pin', '', ( #166 ) ) ;
#214 = VECTOR ( 'NONE', #87, 39.37007874015748143 ) ;
#215 = LINE ( 'NONE', #209, #70 ) ;
#216 = LINE ( 'NONE', #194, #227 ) ;
#217 = PERSON_AND_ORGANIZATION ( #42, #153 ) ;
#218 =( NAMED_UNIT ( * ) SI_UNIT ( $, .STERADIAN. ) SOLID_ANGLE_UNIT ( ) );
#219 = CONICAL_SURFACE ( 'NONE', #250, 0.03125000000000000000, 0.7853981633974488341 ) ;
#220 = CALENDAR_DATE ( 2026, 7, 1 ) ;
#221 = DATE_AND_TIME ( #220, #5 ) ;
#222 = VERTEX_POINT ( 'NONE', #33 ) ;
#223 = ADVANCED_FACE ( 'NONE', ( #274 ), #241, .T. ) ;
#224 = EDGE_LOOP ( 'NONE', ( #8, #26, #182, #156 ) ) ;
#225 = VERTEX_POINT ( 'NONE', #141 ) ;
#226 = ORIENTED_EDGE ( 'NONE', *, *, #95, .T. ) ;
#227 = VECTOR ( 'NONE', #191, 39.37007874015748143 ) ;
#228 = EDGE_LOOP ( 'NONE', ( #201, #90, #266, #154 ) ) ;
#229 = EDGE_CURVE ( 'NONE', #225, #108, #273, .T. ) ;
#230 = DIRECTION ( 'NONE',  ( 0.000000000000000000, 1.836970198721030181E-16, -1.000000000000000000 ) ) ;
#231 = FACE_OUTER_BOUND ( 'NONE', #264, .T. ) ;
#232 = VECTOR ( 'NONE', #73, 39.37007874015748143 ) ;
#233 = EDGE_CURVE ( 'NONE', #222, #178, #236, .T. ) ;
#234 = DIRECTION ( 'NONE',  ( -0.000000000000000000, -1.836970198721030181E-16, 1.000000000000000000 ) ) ;
#235 = CYLINDRICAL_SURFACE ( 'NONE', #263, 0.03124999999999996531 ) ;
#236 = LINE ( 'NONE', #51, #237 ) ;
#237 = VECTOR ( 'NONE', #136, 39.37007874015748854 ) ;
#238 = ADVANCED_FACE ( 'NONE', ( #231 ), #207, .F. ) ;
#239 = DIRECTION ( 'NONE',  ( -0.000000000000000000, -1.836970198721030181E-16, 1.000000000000000000 ) ) ;
#240 = APPROVAL_ROLE ( '' ) ;
#241 = CONICAL_SURFACE ( 'NONE', #246, 0.02967998520059885945, 0.2617993877991434126 ) ;
#242 = ADVANCED_FACE ( 'NONE', ( #269 ), #235, .T. ) ;
#243 = PERSON_AND_ORGANIZATION_ROLE ( 'design_supplier' ) ;
#244 = PERSON_AND_ORGANIZATION ( #42, #153 ) ;
#245 = APPROVAL ( #199, 'UNSPECIFIED' ) ;
#246 = AXIS2_PLACEMENT_3D ( 'NONE', #54, #78, #161 ) ;
#247 = CARTESIAN_POINT ( 'NONE',  ( 0.000000000000000000, 7.908889478880891867E-34, 0.1875000000000000278 ) ) ;
#248 = ORIENTED_EDGE ( 'NONE', *, *, #151, .F. ) ;
#249 = ORIENTED_EDGE ( 'NONE', *, *, #229, .F. ) ;
#250 = AXIS2_PLACEMENT_3D ( 'NONE', #3, #67, #6 ) ;
#251 = PRODUCT_RELATED_PRODUCT_CATEGORY ( 'detail', '', ( #213 ) ) ;
#252 = DIRECTION ( 'NONE',  ( -0.000000000000000000, -1.836970198721030181E-16, 1.000000000000000000 ) ) ;
#253 = CARTESIAN_POINT ( 'NONE',  ( 0.000000000000000000, 6.888638245203864410E-17, -0.1875000000000000278 ) ) ;
#254 = EDGE_CURVE ( 'NONE', #157, #178, #76, .T. ) ;
#255 = DIRECTION ( 'NONE',  ( 0.000000000000000000, -1.000000000000000000, 0.000000000000000000 ) ) ;
#256 = FACE_OUTER_BOUND ( 'NONE', #135, .T. ) ;
#257 = CARTESIAN_POINT ( 'NONE',  ( 0.000000000000000000, 3.954444739440445934E-34, 0.1875000000000000278 ) ) ;
#258 = AXIS2_PLACEMENT_3D ( 'NONE', #72, #17, #255 ) ;
#259 = COORDINATED_UNIVERSAL_TIME_OFFSET ( 6, 0, .BEHIND. ) ;
#260 = AXIS2_PLACEMENT_3D ( 'NONE', #145, #39, #37 ) ;
#261 = APPLICATION_PROTOCOL_DEFINITION ( 'international standard', 'config_control_design', 1994, #9 ) ;
#262 = EDGE_LOOP ( 'NONE', ( #180, #85, #265, #48 ) ) ;
#263 = AXIS2_PLACEMENT_3D ( 'NONE', #119, #96, #187 ) ;
#264 = EDGE_LOOP ( 'NONE', ( #249, #92 ) ) ;
#265 = ORIENTED_EDGE ( 'NONE', *, *, #91, .F. ) ;
#266 = ORIENTED_EDGE ( 'NONE', *, *, #19, .T. ) ;
#267 = CIRCLE ( 'NONE', #36, 0.03124999999999993061 ) ;
#268 = CARTESIAN_POINT ( 'NONE',  ( 0.000000000000000000, -0.02967998520059879006, -0.1875000000000000278 ) ) ;
#269 = FACE_OUTER_BOUND ( 'NONE', #115, .T. ) ;
#270 = EDGE_CURVE ( 'NONE', #108, #157, #216, .T. ) ;
#271 = DIRECTION ( 'NONE',  ( 0.000000000000000000, -1.000000000000000000, 0.000000000000000000 ) ) ;
#272 = CARTESIAN_POINT ( 'NONE',  ( 0.000000000000000000, 0.03124999999999999653, 0.1796875000000000278 ) ) ;
#273 = CIRCLE ( 'NONE', #117, 0.02967998520059885945 ) ;
#274 = FACE_OUTER_BOUND ( 'NONE', #228, .T. ) ;
#275 = CARTESIAN_POINT ( 'NONE',  ( 0.000000000000000000, 1.435132967750804443E-18, 0.1796875000000000278 ) ) ;
#276 = SHAPE_DEFINITION_REPRESENTATION ( #139, #21 ) ;
#277 = VECTOR ( 'NONE', #239, 39.37007874015748143 ) ;
#278 = LENGTH_MEASURE_WITH_UNIT ( LENGTH_MEASURE( 0.02539999999999999897 ), #124 );
ENDSEC;
END-ISO-10303-21;
