%TF.GenerationSoftware,KiCad,Pcbnew,10.0.2*%
%TF.CreationDate,2026-06-22T10:40:36-04:00*%
%TF.ProjectId,TagPwrMonitor,54616750-7772-44d6-9f6e-69746f722e6b,rev?*%
%TF.SameCoordinates,Original*%
%TF.FileFunction,Copper,L1,Top*%
%TF.FilePolarity,Positive*%
%FSLAX46Y46*%
G04 Gerber Fmt 4.6, Leading zero omitted, Abs format (unit mm)*
G04 Created by KiCad (PCBNEW 10.0.2) date 2026-06-22 10:40:36*
%MOMM*%
%LPD*%
G01*
G04 APERTURE LIST*
G04 Aperture macros list*
%AMRoundRect*
0 Rectangle with rounded corners*
0 $1 Rounding radius*
0 $2 $3 $4 $5 $6 $7 $8 $9 X,Y pos of 4 corners*
0 Add a 4 corners polygon primitive as box body*
4,1,4,$2,$3,$4,$5,$6,$7,$8,$9,$2,$3,0*
0 Add four circle primitives for the rounded corners*
1,1,$1+$1,$2,$3*
1,1,$1+$1,$4,$5*
1,1,$1+$1,$6,$7*
1,1,$1+$1,$8,$9*
0 Add four rect primitives between the rounded corners*
20,1,$1+$1,$2,$3,$4,$5,0*
20,1,$1+$1,$4,$5,$6,$7,0*
20,1,$1+$1,$6,$7,$8,$9,0*
20,1,$1+$1,$8,$9,$2,$3,0*%
G04 Aperture macros list end*
%TA.AperFunction,Conductor*%
%ADD10C,0.200000*%
%TD*%
%TA.AperFunction,ComponentPad*%
%ADD11C,1.016000*%
%TD*%
%TA.AperFunction,ComponentPad*%
%ADD12C,0.939800*%
%TD*%
%TA.AperFunction,ComponentPad*%
%ADD13RoundRect,0.250000X0.600000X0.725000X-0.600000X0.725000X-0.600000X-0.725000X0.600000X-0.725000X0*%
%TD*%
%TA.AperFunction,ComponentPad*%
%ADD14O,1.700000X1.950000*%
%TD*%
%TA.AperFunction,SMDPad,CuDef*%
%ADD15RoundRect,0.150000X-0.512500X-0.150000X0.512500X-0.150000X0.512500X0.150000X-0.512500X0.150000X0*%
%TD*%
%TA.AperFunction,SMDPad,CuDef*%
%ADD16RoundRect,0.150000X0.512500X0.150000X-0.512500X0.150000X-0.512500X-0.150000X0.512500X-0.150000X0*%
%TD*%
%TA.AperFunction,ComponentPad*%
%ADD17R,1.700000X1.700000*%
%TD*%
%TA.AperFunction,ComponentPad*%
%ADD18C,1.700000*%
%TD*%
%TA.AperFunction,SMDPad,CuDef*%
%ADD19RoundRect,0.250000X0.250000X0.475000X-0.250000X0.475000X-0.250000X-0.475000X0.250000X-0.475000X0*%
%TD*%
%TA.AperFunction,SMDPad,CuDef*%
%ADD20RoundRect,0.250000X0.475000X-0.250000X0.475000X0.250000X-0.475000X0.250000X-0.475000X-0.250000X0*%
%TD*%
%TA.AperFunction,SMDPad,CuDef*%
%ADD21RoundRect,0.250000X-0.250000X-0.475000X0.250000X-0.475000X0.250000X0.475000X-0.250000X0.475000X0*%
%TD*%
%TA.AperFunction,SMDPad,CuDef*%
%ADD22RoundRect,0.250000X-0.450000X0.262500X-0.450000X-0.262500X0.450000X-0.262500X0.450000X0.262500X0*%
%TD*%
%TA.AperFunction,SMDPad,CuDef*%
%ADD23RoundRect,0.250000X0.450000X-0.262500X0.450000X0.262500X-0.450000X0.262500X-0.450000X-0.262500X0*%
%TD*%
%TA.AperFunction,ViaPad*%
%ADD24C,0.660400*%
%TD*%
%TA.AperFunction,Conductor*%
%ADD25C,0.152400*%
%TD*%
%TA.AperFunction,Conductor*%
%ADD26C,0.304800*%
%TD*%
G04 APERTURE END LIST*
%TO.N,/TAG_MIRROR*%
D10*
X38850000Y-10050000D02*
X45650000Y-10050000D01*
X45650000Y-10050000D02*
X47750000Y-14090000D01*
%TD*%
D11*
%TO.P,J102,1,Pin_1_1*%
%TO.N,/STLINK_VSENSE*%
X29450000Y-12680000D03*
%TO.P,J102,2,Pin_2_2*%
%TO.N,/TAG_SWDIO*%
X29450000Y-13950000D03*
%TO.P,J102,3,Pin_3_3*%
%TO.N,GND*%
X28180000Y-12680000D03*
%TO.P,J102,4,Pin_4_4*%
%TO.N,/TAG_SCK*%
X28180000Y-13950000D03*
%TO.P,J102,5,Pin_5_5*%
%TO.N,GND*%
X26910000Y-12680000D03*
%TO.P,J102,6,Pin_6_6*%
%TO.N,unconnected-(J102-Pin_6-Pad6)*%
X26910000Y-13950000D03*
%TO.P,J102,7,Pin_7_7*%
%TO.N,unconnected-(J102-Pin_7-Pad7)*%
X25640000Y-12680000D03*
%TO.P,J102,8,Pin_8_8*%
%TO.N,unconnected-(J102-Pin_8-Pad8)*%
X25640000Y-13950000D03*
%TO.P,J102,9,Pin_9_9*%
%TO.N,GND*%
X24370000Y-12680000D03*
%TO.P,J102,10,Pin_10_10*%
%TO.N,/NRST*%
X24370000Y-13950000D03*
%TD*%
D12*
%TO.P,J101,1,Pin_1_1*%
%TO.N,/TAG_RESET*%
X24130000Y-33835000D03*
%TO.P,J101,2,Pin_2_2*%
%TO.N,GND*%
X24130000Y-32565000D03*
%TO.P,J101,3,Pin_3_3*%
%TO.N,/TAG_SWDIO*%
X25400000Y-33835000D03*
%TO.P,J101,4,Pin_4_4*%
%TO.N,/TAG_SCK*%
X25400000Y-32565000D03*
%TO.P,J101,5,Pin_5_5*%
%TO.N,/TAG_3V3*%
X26670000Y-33835000D03*
%TO.P,J101,6,Pin_6_6*%
%TO.N,unconnected-(J101-Pin_6-Pad6)*%
X26670000Y-32565000D03*
%TD*%
D13*
%TO.P,J1,1,Pin_1_1*%
%TO.N,/TAG_MIRROR*%
X16000000Y-13600000D03*
D14*
%TO.P,J1,2,Pin_2_2*%
%TO.N,/TAG_3V3*%
X13500000Y-13600000D03*
%TO.P,J1,3,Pin_3_3*%
%TO.N,/EXT_PWR*%
X11000000Y-13600000D03*
%TO.P,J1,4,Pin_4_4*%
%TO.N,GND*%
X8500000Y-13600000D03*
%TD*%
D15*
%TO.P,U1,1,GND_1*%
%TO.N,GND*%
X45450000Y-13090000D03*
%TO.P,U1,2,VO_2*%
%TO.N,Net-(J2-Pin_3)*%
X45450000Y-14990000D03*
%TO.P,U1,3,VI_3*%
%TO.N,/TAG_MIRROR*%
X47725000Y-14040000D03*
%TD*%
D16*
%TO.P,U2,1,NC_1*%
%TO.N,unconnected-(U2-NC-Pad1)*%
X18987500Y-22950000D03*
%TO.P,U2,2,A_2*%
%TO.N,/NRST*%
X18987500Y-22000000D03*
%TO.P,U2,3,GND_3*%
%TO.N,GND*%
X18987500Y-21050000D03*
%TO.P,U2,4,Y_4*%
%TO.N,Net-(U2-Y)*%
X16712500Y-21050000D03*
%TO.P,U2,5,VCC_5*%
%TO.N,/TAG_MIRROR*%
X16712500Y-22950000D03*
%TD*%
D17*
%TO.P,J2,1,Pin_1_1*%
%TO.N,/TAG_MIRROR*%
X38850000Y-10050000D03*
D18*
%TO.P,J2,2,Pin_2_2*%
%TO.N,/STLINK_VSENSE*%
X38850000Y-12590000D03*
%TO.P,J2,3,Pin_3_3*%
%TO.N,Net-(J2-Pin_3)*%
X38850000Y-15130000D03*
%TD*%
D19*
%TO.P,C2,1*%
%TO.N,/TAG_MIRROR*%
X47450000Y-17590000D03*
%TO.P,C2,2*%
%TO.N,GND*%
X45550000Y-17590000D03*
%TD*%
D20*
%TO.P,C1,1*%
%TO.N,Net-(J2-Pin_3)*%
X42050000Y-14890000D03*
%TO.P,C1,2*%
%TO.N,GND*%
X42050000Y-12990000D03*
%TD*%
D21*
%TO.P,C3,1*%
%TO.N,/TAG_MIRROR*%
X17000000Y-18600000D03*
%TO.P,C3,2*%
%TO.N,GND*%
X18900000Y-18600000D03*
%TD*%
D22*
%TO.P,R2,1*%
%TO.N,/NRST*%
X21475000Y-22092500D03*
%TO.P,R2,2*%
%TO.N,/TAG_MIRROR*%
X21475000Y-23917500D03*
%TD*%
D23*
%TO.P,R3,1*%
%TO.N,/TAG_RESET*%
X14150000Y-23025000D03*
%TO.P,R3,2*%
%TO.N,Net-(U2-Y)*%
X14150000Y-21200000D03*
%TD*%
D24*
%TO.N,/TAG_SWDIO*%
X28200000Y-35600000D03*
%TO.N,GND*%
X11850000Y-25000000D03*
X41950000Y-11990000D03*
X20150000Y-26500000D03*
X27300000Y-23800000D03*
X18950000Y-20000000D03*
X44050000Y-13090000D03*
X44350000Y-17690000D03*
%TD*%
%TO.N,/STLINK_VSENSE*%
D25*
X29700000Y-12430000D02*
X29450000Y-12680000D01*
X38760000Y-12680000D02*
X38850000Y-12590000D01*
X29450000Y-12680000D02*
X38760000Y-12680000D01*
%TO.N,/TAG_SWDIO*%
X29450000Y-13950000D02*
X29450000Y-34350000D01*
X29450000Y-34350000D02*
X28200000Y-35600000D01*
%TO.N,GND*%
X18987500Y-21050000D02*
X18987500Y-20037500D01*
X18987500Y-20037500D02*
X18950000Y-20000000D01*
X44450000Y-17590000D02*
X44350000Y-17690000D01*
X18900000Y-18600000D02*
X18900000Y-19950000D01*
X42050000Y-12990000D02*
X42050000Y-12090000D01*
X18900000Y-19950000D02*
X18950000Y-20000000D01*
X45450000Y-13090000D02*
X44050000Y-13090000D01*
X45550000Y-17590000D02*
X44450000Y-17590000D01*
X42050000Y-12090000D02*
X41950000Y-11990000D01*
%TO.N,/TAG_SCK*%
X28180000Y-13950000D02*
X28180000Y-15020000D01*
X28180000Y-15020000D02*
X25400000Y-17800000D01*
X25400000Y-17800000D02*
X25400000Y-32565000D01*
%TO.N,/NRST*%
X21382500Y-22000000D02*
X21475000Y-22092500D01*
X21475000Y-16845000D02*
X21625000Y-16695000D01*
X24370000Y-13950000D02*
X21625000Y-16695000D01*
X21475000Y-22092500D02*
X21475000Y-16845000D01*
X18987500Y-22000000D02*
X21382500Y-22000000D01*
%TO.N,/TAG_RESET*%
X24130000Y-34770000D02*
X24130000Y-33835000D01*
X14150000Y-28250000D02*
X21700000Y-35800000D01*
X14150000Y-23025000D02*
X14150000Y-28250000D01*
X21700000Y-35800000D02*
X23100000Y-35800000D01*
X23100000Y-35800000D02*
X24130000Y-34770000D01*
%TO.N,/TAG_3V3*%
D26*
X25600000Y-36500000D02*
X26670000Y-35430000D01*
X10095200Y-26095200D02*
X20500000Y-36500000D01*
X20500000Y-36500000D02*
X25600000Y-36500000D01*
X13500000Y-13600000D02*
X10095200Y-17004800D01*
X26670000Y-35430000D02*
X26670000Y-33835000D01*
X10095200Y-17004800D02*
X10095200Y-26095200D01*
%TO.N,/TAG_MIRROR*%
D25*
X47725000Y-14040000D02*
X47725000Y-14065000D01*
X47450000Y-14340000D02*
X47450000Y-17590000D01*
X17000000Y-18600000D02*
X17650000Y-19250000D01*
X17000000Y-14600000D02*
X16000000Y-13600000D01*
X16000000Y-13600000D02*
X18400000Y-13600000D01*
X17000000Y-18600000D02*
X17000000Y-14600000D01*
X16712500Y-22950000D02*
X17680000Y-23917500D01*
X18400000Y-13600000D02*
X21950000Y-10050000D01*
X17680000Y-23917500D02*
X21475000Y-23917500D01*
X17650000Y-19250000D02*
X17650000Y-22012500D01*
X21950000Y-10050000D02*
X38850000Y-10050000D01*
X47725000Y-14065000D02*
X47450000Y-14340000D01*
X17650000Y-22012500D02*
X16712500Y-22950000D01*
%TO.N,/EXT_PWR*%
X11000000Y-13600000D02*
X11000000Y-14500000D01*
%TO.N,Net-(J2-Pin_3)*%
X42150000Y-14990000D02*
X42050000Y-14890000D01*
X42050000Y-14890000D02*
X39090000Y-14890000D01*
X41750000Y-14590000D02*
X42050000Y-14890000D01*
X39090000Y-14890000D02*
X38850000Y-15130000D01*
X45450000Y-14990000D02*
X42150000Y-14990000D01*
%TO.N,Net-(U2-Y)*%
X14150000Y-21200000D02*
X16562500Y-21200000D01*
X16562500Y-21200000D02*
X16712500Y-21050000D01*
%TD*%
%TA.AperFunction,Conductor*%
%TO.N,GND*%
G36*
X26292339Y-14779172D02*
G01*
X26312651Y-14779535D01*
X26338173Y-14791746D01*
X26341217Y-14792581D01*
X26344970Y-14794993D01*
X26428507Y-14850810D01*
X26613498Y-14927436D01*
X26809884Y-14966500D01*
X27010116Y-14966500D01*
X27097674Y-14949083D01*
X27168386Y-14955410D01*
X27224454Y-14998964D01*
X27248074Y-15065916D01*
X27231748Y-15135010D01*
X27211351Y-15161757D01*
X26838556Y-15534553D01*
X25040986Y-17332124D01*
X25006110Y-17367000D01*
X24932125Y-17440984D01*
X24932121Y-17440989D01*
X24855147Y-17574313D01*
X24855147Y-17574314D01*
X24833293Y-17655875D01*
X24815300Y-17723024D01*
X24815300Y-31611062D01*
X24795298Y-31679183D01*
X24741642Y-31725676D01*
X24671368Y-31735780D01*
X24619299Y-31715828D01*
X24593209Y-31698395D01*
X24415248Y-31624682D01*
X24415243Y-31624680D01*
X24226317Y-31587100D01*
X24033682Y-31587100D01*
X23844756Y-31624680D01*
X23844751Y-31624682D01*
X23666788Y-31698396D01*
X23640303Y-31716093D01*
X23640302Y-31716093D01*
X24189636Y-32265427D01*
X24170128Y-32260200D01*
X24089872Y-32260200D01*
X24012352Y-32280972D01*
X23942848Y-32321099D01*
X23886099Y-32377848D01*
X23845972Y-32447352D01*
X23825200Y-32524872D01*
X23825200Y-32605128D01*
X23830427Y-32624637D01*
X23658590Y-32452800D01*
X23624564Y-32390488D01*
X23624123Y-32388368D01*
X23613775Y-32336345D01*
X23554683Y-32193684D01*
X23468895Y-32065293D01*
X23359707Y-31956105D01*
X23231316Y-31870317D01*
X23088655Y-31811225D01*
X23057481Y-31805024D01*
X22937209Y-31781100D01*
X22937207Y-31781100D01*
X22782793Y-31781100D01*
X22782790Y-31781100D01*
X22631344Y-31811225D01*
X22631339Y-31811227D01*
X22488683Y-31870317D01*
X22360297Y-31956102D01*
X22360290Y-31956107D01*
X22251107Y-32065290D01*
X22251102Y-32065297D01*
X22165317Y-32193683D01*
X22106227Y-32336339D01*
X22106225Y-32336344D01*
X22076100Y-32487790D01*
X22076100Y-32642209D01*
X22106225Y-32793655D01*
X22165317Y-32936316D01*
X22251105Y-33064707D01*
X22297303Y-33110905D01*
X22331328Y-33173218D01*
X22326262Y-33244034D01*
X22297303Y-33289095D01*
X22251103Y-33335295D01*
X22251102Y-33335297D01*
X22165317Y-33463683D01*
X22106227Y-33606339D01*
X22106225Y-33606344D01*
X22076100Y-33757790D01*
X22076100Y-33757793D01*
X22076100Y-33912207D01*
X22106225Y-34063655D01*
X22165317Y-34206316D01*
X22251105Y-34334707D01*
X22360293Y-34443895D01*
X22488684Y-34529683D01*
X22631345Y-34588775D01*
X22782793Y-34618900D01*
X22782794Y-34618900D01*
X22937206Y-34618900D01*
X22937207Y-34618900D01*
X23088655Y-34588775D01*
X23178893Y-34551396D01*
X23249483Y-34543807D01*
X23312970Y-34575586D01*
X23349198Y-34636643D01*
X23346664Y-34707595D01*
X23316208Y-34756900D01*
X22894715Y-35178395D01*
X22832403Y-35212420D01*
X22805619Y-35215300D01*
X21994381Y-35215300D01*
X21926260Y-35195298D01*
X21905286Y-35178395D01*
X14771605Y-28044714D01*
X14737579Y-27982402D01*
X14734700Y-27955619D01*
X14734700Y-24132909D01*
X14754702Y-24064788D01*
X14808358Y-24018295D01*
X14821060Y-24013306D01*
X14922738Y-23979615D01*
X15073652Y-23886530D01*
X15199030Y-23761152D01*
X15292115Y-23610238D01*
X15347887Y-23441926D01*
X15351662Y-23404971D01*
X15378483Y-23339240D01*
X15436586Y-23298441D01*
X15507523Y-23295532D01*
X15568772Y-23331435D01*
X15585824Y-23357366D01*
X15586819Y-23356778D01*
X15675544Y-23506803D01*
X15675549Y-23506810D01*
X15793189Y-23624450D01*
X15793196Y-23624455D01*
X15936394Y-23709143D01*
X15936397Y-23709143D01*
X15936399Y-23709145D01*
X16096169Y-23755562D01*
X16133488Y-23758499D01*
X16133489Y-23758500D01*
X16133498Y-23758500D01*
X16641919Y-23758500D01*
X16710040Y-23778502D01*
X16731014Y-23795404D01*
X17320986Y-24385377D01*
X17320987Y-24385378D01*
X17320989Y-24385379D01*
X17454310Y-24462352D01*
X17454312Y-24462352D01*
X17454315Y-24462354D01*
X17603023Y-24502200D01*
X20262230Y-24502200D01*
X20330351Y-24522202D01*
X20369471Y-24562053D01*
X20425970Y-24653652D01*
X20425975Y-24653658D01*
X20551341Y-24779024D01*
X20551347Y-24779029D01*
X20551348Y-24779030D01*
X20702262Y-24872115D01*
X20870574Y-24927887D01*
X20974455Y-24938500D01*
X21975544Y-24938499D01*
X22079426Y-24927887D01*
X22247738Y-24872115D01*
X22398652Y-24779030D01*
X22524030Y-24653652D01*
X22617115Y-24502738D01*
X22672887Y-24334426D01*
X22683500Y-24230545D01*
X22683499Y-23604456D01*
X22672887Y-23500574D01*
X22617115Y-23332262D01*
X22524030Y-23181348D01*
X22524029Y-23181347D01*
X22524024Y-23181341D01*
X22436778Y-23094095D01*
X22402752Y-23031783D01*
X22407817Y-22960968D01*
X22436778Y-22915905D01*
X22524024Y-22828658D01*
X22524030Y-22828652D01*
X22617115Y-22677738D01*
X22672887Y-22509426D01*
X22683500Y-22405545D01*
X22683499Y-21779456D01*
X22672887Y-21675574D01*
X22617115Y-21507262D01*
X22524030Y-21356348D01*
X22524029Y-21356347D01*
X22524024Y-21356341D01*
X22398658Y-21230975D01*
X22398652Y-21230970D01*
X22247738Y-21137885D01*
X22247734Y-21137883D01*
X22247735Y-21137883D01*
X22146067Y-21104194D01*
X22087695Y-21063780D01*
X22060440Y-20998224D01*
X22059700Y-20984590D01*
X22059700Y-17139380D01*
X22068483Y-17109466D01*
X22075111Y-17078997D01*
X22078926Y-17073899D01*
X22079702Y-17071259D01*
X22096603Y-17050286D01*
X24147616Y-14999272D01*
X24209926Y-14965248D01*
X24261293Y-14964791D01*
X24269884Y-14966500D01*
X24269887Y-14966500D01*
X24470116Y-14966500D01*
X24666502Y-14927436D01*
X24851493Y-14850810D01*
X24935000Y-14795012D01*
X25002750Y-14773798D01*
X25071217Y-14792581D01*
X25074970Y-14794993D01*
X25158507Y-14850810D01*
X25343498Y-14927436D01*
X25539884Y-14966500D01*
X25740116Y-14966500D01*
X25936502Y-14927436D01*
X26121493Y-14850810D01*
X26205000Y-14795012D01*
X26224383Y-14788942D01*
X26241666Y-14778267D01*
X26257570Y-14778551D01*
X26272750Y-14773798D01*
X26292339Y-14779172D01*
G37*
%TD.AperFunction*%
%TA.AperFunction,Conductor*%
G36*
X28783333Y-15347725D02*
G01*
X28840168Y-15390272D01*
X28864979Y-15456792D01*
X28865300Y-15465781D01*
X28865300Y-32123460D01*
X28845298Y-32191581D01*
X28791642Y-32238074D01*
X28721368Y-32248178D01*
X28656788Y-32218684D01*
X28634535Y-32193462D01*
X28587761Y-32123460D01*
X28548895Y-32065293D01*
X28439707Y-31956105D01*
X28311316Y-31870317D01*
X28168655Y-31811225D01*
X28137481Y-31805024D01*
X28017209Y-31781100D01*
X28017207Y-31781100D01*
X27862793Y-31781100D01*
X27862790Y-31781100D01*
X27711344Y-31811225D01*
X27711339Y-31811227D01*
X27568685Y-31870316D01*
X27528955Y-31896863D01*
X27461202Y-31918077D01*
X27392735Y-31899293D01*
X27369859Y-31881192D01*
X27293696Y-31805029D01*
X27293694Y-31805027D01*
X27133446Y-31697953D01*
X26955389Y-31624199D01*
X26766366Y-31586600D01*
X26766364Y-31586600D01*
X26573636Y-31586600D01*
X26573633Y-31586600D01*
X26384610Y-31624199D01*
X26384605Y-31624201D01*
X26206556Y-31697952D01*
X26206554Y-31697953D01*
X26205891Y-31698396D01*
X26180700Y-31715228D01*
X26112947Y-31736441D01*
X26044480Y-31717657D01*
X25997038Y-31664838D01*
X25984700Y-31610461D01*
X25984700Y-18094380D01*
X26004702Y-18026259D01*
X26021605Y-18005285D01*
X27335145Y-16691746D01*
X28647877Y-15379014D01*
X28647877Y-15379013D01*
X28650205Y-15376686D01*
X28712517Y-15342660D01*
X28783333Y-15347725D01*
G37*
%TD.AperFunction*%
%TA.AperFunction,Conductor*%
G36*
X14648442Y-14601934D02*
G01*
X14705278Y-14644481D01*
X14711646Y-14653836D01*
X14789608Y-14780231D01*
X14800970Y-14798652D01*
X14800975Y-14798658D01*
X14926341Y-14924024D01*
X14926347Y-14924029D01*
X14926348Y-14924030D01*
X15077262Y-15017115D01*
X15245574Y-15072887D01*
X15349455Y-15083500D01*
X16289300Y-15083499D01*
X16357421Y-15103501D01*
X16403914Y-15157157D01*
X16415300Y-15209499D01*
X16415300Y-17369940D01*
X16395298Y-17438061D01*
X16355447Y-17477180D01*
X16276353Y-17525966D01*
X16276341Y-17525975D01*
X16150975Y-17651341D01*
X16150970Y-17651347D01*
X16057885Y-17802262D01*
X16002113Y-17970572D01*
X16002112Y-17970579D01*
X15991500Y-18074446D01*
X15991500Y-19125544D01*
X16002112Y-19229425D01*
X16057885Y-19397738D01*
X16150970Y-19548652D01*
X16150975Y-19548658D01*
X16276341Y-19674024D01*
X16276347Y-19674029D01*
X16276348Y-19674030D01*
X16427262Y-19767115D01*
X16595574Y-19822887D01*
X16699455Y-19833500D01*
X16939300Y-19833499D01*
X16948124Y-19836090D01*
X16957232Y-19834781D01*
X16981659Y-19845936D01*
X17007420Y-19853501D01*
X17013444Y-19860453D01*
X17021812Y-19864275D01*
X17036328Y-19886862D01*
X17053913Y-19907156D01*
X17056237Y-19917841D01*
X17060196Y-19924001D01*
X17065300Y-19959499D01*
X17065300Y-20115500D01*
X17045298Y-20183621D01*
X16991642Y-20230114D01*
X16939300Y-20241500D01*
X16133489Y-20241500D01*
X16096171Y-20244437D01*
X16096170Y-20244437D01*
X15936394Y-20290856D01*
X15793196Y-20375544D01*
X15793189Y-20375549D01*
X15675548Y-20493190D01*
X15639918Y-20553439D01*
X15631481Y-20561316D01*
X15626688Y-20571812D01*
X15606003Y-20585105D01*
X15588025Y-20601892D01*
X15575124Y-20604950D01*
X15566962Y-20610196D01*
X15531464Y-20615300D01*
X15362770Y-20615300D01*
X15294649Y-20595298D01*
X15255529Y-20555447D01*
X15199029Y-20463847D01*
X15199024Y-20463841D01*
X15073658Y-20338475D01*
X15073652Y-20338470D01*
X14922738Y-20245385D01*
X14773813Y-20196037D01*
X14754427Y-20189613D01*
X14754420Y-20189612D01*
X14650553Y-20179000D01*
X13649455Y-20179000D01*
X13545574Y-20189612D01*
X13377261Y-20245385D01*
X13226347Y-20338470D01*
X13226341Y-20338475D01*
X13100975Y-20463841D01*
X13100970Y-20463847D01*
X13007885Y-20614762D01*
X12952113Y-20783072D01*
X12952112Y-20783079D01*
X12941500Y-20886946D01*
X12941500Y-21513044D01*
X12952112Y-21616925D01*
X13007885Y-21785238D01*
X13100970Y-21936152D01*
X13100975Y-21936158D01*
X13188222Y-22023405D01*
X13222248Y-22085717D01*
X13217183Y-22156532D01*
X13188222Y-22201595D01*
X13100975Y-22288841D01*
X13100970Y-22288847D01*
X13007885Y-22439762D01*
X12952113Y-22608072D01*
X12952112Y-22608079D01*
X12941500Y-22711946D01*
X12941500Y-23338044D01*
X12952112Y-23441925D01*
X13007885Y-23610238D01*
X13100970Y-23761152D01*
X13100975Y-23761158D01*
X13226341Y-23886524D01*
X13226347Y-23886529D01*
X13226348Y-23886530D01*
X13377262Y-23979615D01*
X13478933Y-24013304D01*
X13537304Y-24053718D01*
X13564560Y-24119274D01*
X13565300Y-24132909D01*
X13565300Y-28326456D01*
X13545298Y-28394577D01*
X13491642Y-28441070D01*
X13421368Y-28451174D01*
X13356788Y-28421680D01*
X13350205Y-28415551D01*
X10793005Y-25858351D01*
X10758979Y-25796039D01*
X10756100Y-25769256D01*
X10756100Y-17330743D01*
X10776102Y-17262622D01*
X10793005Y-17241648D01*
X11868452Y-16166201D01*
X12978388Y-15056264D01*
X13040698Y-15022241D01*
X13106414Y-15025527D01*
X13181884Y-15050049D01*
X13393084Y-15083500D01*
X13393087Y-15083500D01*
X13606913Y-15083500D01*
X13606916Y-15083500D01*
X13818116Y-15050049D01*
X14021483Y-14983972D01*
X14212009Y-14886894D01*
X14385004Y-14761206D01*
X14515316Y-14630893D01*
X14577626Y-14596870D01*
X14648442Y-14601934D01*
G37*
%TD.AperFunction*%
%TA.AperFunction,Conductor*%
G36*
X37374325Y-10637291D02*
G01*
X37383432Y-10635982D01*
X37407857Y-10647137D01*
X37433621Y-10654702D01*
X37439645Y-10661655D01*
X37448012Y-10665476D01*
X37462526Y-10688061D01*
X37480114Y-10708358D01*
X37482438Y-10719044D01*
X37486396Y-10725202D01*
X37491500Y-10760700D01*
X37491500Y-10948649D01*
X37498009Y-11009196D01*
X37498011Y-11009204D01*
X37549110Y-11146202D01*
X37549112Y-11146207D01*
X37636738Y-11263261D01*
X37753791Y-11350886D01*
X37753792Y-11350886D01*
X37753796Y-11350889D01*
X37871711Y-11394869D01*
X37928543Y-11437414D01*
X37953354Y-11503934D01*
X37938263Y-11573308D01*
X37916771Y-11602018D01*
X37813794Y-11704995D01*
X37688108Y-11877987D01*
X37688106Y-11877991D01*
X37612434Y-12026504D01*
X37563688Y-12078118D01*
X37500169Y-12095300D01*
X30349198Y-12095300D01*
X30281077Y-12075298D01*
X30244431Y-12039299D01*
X30239568Y-12032021D01*
X30239567Y-12032019D01*
X30097981Y-11890433D01*
X29931493Y-11779190D01*
X29814839Y-11730870D01*
X29746505Y-11702565D01*
X29746502Y-11702564D01*
X29550119Y-11663500D01*
X29550116Y-11663500D01*
X29349884Y-11663500D01*
X29349880Y-11663500D01*
X29153497Y-11702564D01*
X29153494Y-11702565D01*
X28968503Y-11779191D01*
X28884549Y-11835286D01*
X28816796Y-11856500D01*
X28748329Y-11837716D01*
X28744547Y-11835285D01*
X28661256Y-11779632D01*
X28476361Y-11703046D01*
X28476356Y-11703044D01*
X28280069Y-11664000D01*
X28079930Y-11664000D01*
X27883643Y-11703044D01*
X27883638Y-11703046D01*
X27698742Y-11779633D01*
X27662834Y-11803623D01*
X28221710Y-12362500D01*
X28138200Y-12362500D01*
X28057449Y-12384137D01*
X27985050Y-12425937D01*
X27925937Y-12485050D01*
X27884137Y-12557449D01*
X27862500Y-12638200D01*
X27862500Y-12721800D01*
X27884137Y-12802551D01*
X27925937Y-12874950D01*
X27985050Y-12934063D01*
X28008624Y-12947673D01*
X27883497Y-12972564D01*
X27883490Y-12972566D01*
X27862233Y-12981371D01*
X27791643Y-12988958D01*
X27728157Y-12957177D01*
X27691931Y-12896118D01*
X27694467Y-12825167D01*
X27724923Y-12775865D01*
X27820789Y-12679999D01*
X27545000Y-12404210D01*
X27544999Y-12404210D01*
X27269210Y-12679999D01*
X27269210Y-12680001D01*
X27365075Y-12775866D01*
X27399101Y-12838178D01*
X27394036Y-12908993D01*
X27351489Y-12965829D01*
X27284969Y-12990640D01*
X27227762Y-12981370D01*
X27206505Y-12972565D01*
X27206502Y-12972564D01*
X27081375Y-12947674D01*
X27104950Y-12934063D01*
X27164063Y-12874950D01*
X27205863Y-12802551D01*
X27227500Y-12721800D01*
X27227500Y-12638200D01*
X27205863Y-12557449D01*
X27164063Y-12485050D01*
X27104950Y-12425937D01*
X27032551Y-12384137D01*
X26951800Y-12362500D01*
X26868289Y-12362500D01*
X27427163Y-11803623D01*
X27391260Y-11779634D01*
X27206361Y-11703046D01*
X27206356Y-11703044D01*
X27010069Y-11664000D01*
X26809930Y-11664000D01*
X26613643Y-11703044D01*
X26613638Y-11703046D01*
X26428743Y-11779632D01*
X26428741Y-11779633D01*
X26345449Y-11835286D01*
X26277696Y-11856500D01*
X26209230Y-11837716D01*
X26205448Y-11835286D01*
X26122156Y-11779633D01*
X26121493Y-11779190D01*
X26121491Y-11779189D01*
X25936505Y-11702565D01*
X25936502Y-11702564D01*
X25740119Y-11663500D01*
X25740116Y-11663500D01*
X25539884Y-11663500D01*
X25539880Y-11663500D01*
X25343497Y-11702564D01*
X25343494Y-11702565D01*
X25158503Y-11779191D01*
X25074549Y-11835286D01*
X25006796Y-11856500D01*
X24938329Y-11837716D01*
X24934547Y-11835285D01*
X24851256Y-11779632D01*
X24666361Y-11703046D01*
X24666356Y-11703044D01*
X24470069Y-11664000D01*
X24269930Y-11664000D01*
X24073643Y-11703044D01*
X24073638Y-11703046D01*
X23888743Y-11779632D01*
X23852834Y-11803625D01*
X24411709Y-12362500D01*
X24328200Y-12362500D01*
X24247449Y-12384137D01*
X24175050Y-12425937D01*
X24115937Y-12485050D01*
X24074137Y-12557449D01*
X24052500Y-12638200D01*
X24052500Y-12721709D01*
X23493625Y-12162834D01*
X23469632Y-12198743D01*
X23393046Y-12383638D01*
X23393044Y-12383643D01*
X23354000Y-12579930D01*
X23354000Y-12780069D01*
X23393044Y-12976356D01*
X23393046Y-12976361D01*
X23469632Y-13161256D01*
X23525285Y-13244547D01*
X23546500Y-13312300D01*
X23527717Y-13380767D01*
X23525286Y-13384549D01*
X23469191Y-13468503D01*
X23392565Y-13653494D01*
X23392564Y-13653497D01*
X23353500Y-13849880D01*
X23353500Y-14050119D01*
X23355209Y-14058711D01*
X23348879Y-14129425D01*
X23320724Y-14172384D01*
X21754086Y-15739024D01*
X21265986Y-16227124D01*
X21115986Y-16377124D01*
X21078716Y-16414394D01*
X21007125Y-16485984D01*
X21007121Y-16485989D01*
X20930147Y-16619313D01*
X20890300Y-16768024D01*
X20890300Y-20984590D01*
X20870298Y-21052711D01*
X20816642Y-21099204D01*
X20803933Y-21104194D01*
X20702265Y-21137883D01*
X20551347Y-21230970D01*
X20551341Y-21230975D01*
X20425975Y-21356341D01*
X20421420Y-21362103D01*
X20420199Y-21361137D01*
X20418815Y-21362381D01*
X20414509Y-21371812D01*
X20392865Y-21385721D01*
X20373737Y-21402926D01*
X20361914Y-21405612D01*
X20354783Y-21410196D01*
X20319285Y-21415300D01*
X20290474Y-21415300D01*
X20222353Y-21395298D01*
X20175860Y-21341642D01*
X20174108Y-21329458D01*
X20154993Y-21304000D01*
X19904842Y-21304000D01*
X19840703Y-21286453D01*
X19763601Y-21240855D01*
X19683716Y-21217646D01*
X19603829Y-21194437D01*
X19566511Y-21191500D01*
X19566502Y-21191500D01*
X19113500Y-21191500D01*
X19045379Y-21171498D01*
X18998886Y-21117842D01*
X18987500Y-21065500D01*
X18987500Y-21050000D01*
X18859500Y-21050000D01*
X18791379Y-21029998D01*
X18744886Y-20976342D01*
X18733500Y-20924000D01*
X18733500Y-20796000D01*
X19241500Y-20796000D01*
X20154992Y-20796000D01*
X20108681Y-20636598D01*
X20024051Y-20493498D01*
X20024050Y-20493496D01*
X19906503Y-20375949D01*
X19906501Y-20375948D01*
X19763401Y-20291318D01*
X19603748Y-20244934D01*
X19603750Y-20244934D01*
X19566456Y-20242000D01*
X19241500Y-20242000D01*
X19241500Y-20796000D01*
X18733500Y-20796000D01*
X18733500Y-20242000D01*
X18408541Y-20242000D01*
X18370580Y-20244987D01*
X18356754Y-20242082D01*
X18342768Y-20244093D01*
X18322694Y-20234925D01*
X18301101Y-20230388D01*
X18291039Y-20220468D01*
X18278188Y-20214599D01*
X18266259Y-20196037D01*
X18250544Y-20180544D01*
X18246656Y-20165535D01*
X18239804Y-20154873D01*
X18234700Y-20119375D01*
X18234700Y-19910404D01*
X18254702Y-19842283D01*
X18308358Y-19795790D01*
X18378632Y-19785686D01*
X18400334Y-19790800D01*
X18495672Y-19822392D01*
X18495681Y-19822394D01*
X18599483Y-19832999D01*
X18599483Y-19833000D01*
X18646000Y-19833000D01*
X19154000Y-19833000D01*
X19200517Y-19833000D01*
X19200516Y-19832999D01*
X19304318Y-19822394D01*
X19304321Y-19822393D01*
X19472525Y-19766657D01*
X19623339Y-19673634D01*
X19623345Y-19673629D01*
X19748629Y-19548345D01*
X19748634Y-19548339D01*
X19841657Y-19397525D01*
X19897393Y-19229321D01*
X19897394Y-19229318D01*
X19907999Y-19125516D01*
X19908000Y-19125516D01*
X19908000Y-18854000D01*
X19154000Y-18854000D01*
X19154000Y-19833000D01*
X18646000Y-19833000D01*
X18646000Y-18346000D01*
X19154000Y-18346000D01*
X19908000Y-18346000D01*
X19908000Y-18074483D01*
X19897394Y-17970681D01*
X19897393Y-17970678D01*
X19841657Y-17802474D01*
X19748634Y-17651660D01*
X19748629Y-17651654D01*
X19623345Y-17526370D01*
X19623339Y-17526365D01*
X19472525Y-17433342D01*
X19304321Y-17377606D01*
X19304318Y-17377605D01*
X19200516Y-17367000D01*
X19154000Y-17367000D01*
X19154000Y-18346000D01*
X18646000Y-18346000D01*
X18646000Y-17367000D01*
X18599483Y-17367000D01*
X18495681Y-17377605D01*
X18495678Y-17377606D01*
X18327474Y-17433342D01*
X18176660Y-17526365D01*
X18176654Y-17526370D01*
X18051370Y-17651654D01*
X18049157Y-17654454D01*
X18047149Y-17655875D01*
X18046175Y-17656850D01*
X18046008Y-17656683D01*
X17991216Y-17695482D01*
X17920291Y-17698672D01*
X17858900Y-17663011D01*
X17851483Y-17654450D01*
X17849028Y-17651345D01*
X17723658Y-17525975D01*
X17723654Y-17525972D01*
X17723652Y-17525970D01*
X17723646Y-17525966D01*
X17644553Y-17477180D01*
X17597075Y-17424394D01*
X17584700Y-17369940D01*
X17584700Y-14523069D01*
X17584700Y-14523023D01*
X17584459Y-14522124D01*
X17544854Y-14374315D01*
X17536975Y-14360669D01*
X17532731Y-14346225D01*
X17532726Y-14325166D01*
X17527762Y-14304701D01*
X17532718Y-14290381D01*
X17532715Y-14275229D01*
X17544095Y-14257511D01*
X17550984Y-14237610D01*
X17562895Y-14228242D01*
X17571085Y-14215494D01*
X17590238Y-14206741D01*
X17606793Y-14193724D01*
X17627429Y-14189747D01*
X17635660Y-14185986D01*
X17642127Y-14186914D01*
X17653619Y-14184700D01*
X18476975Y-14184700D01*
X18476977Y-14184700D01*
X18625686Y-14144853D01*
X18759014Y-14067876D01*
X18867876Y-13959014D01*
X22155285Y-10671605D01*
X22217597Y-10637579D01*
X22244380Y-10634700D01*
X37365500Y-10634700D01*
X37374325Y-10637291D01*
G37*
%TD.AperFunction*%
%TA.AperFunction,Conductor*%
G36*
X45272113Y-10678502D02*
G01*
X45315790Y-10726387D01*
X46028698Y-12097887D01*
X46042369Y-12167555D01*
X46016204Y-12233554D01*
X45958511Y-12274931D01*
X45916900Y-12282000D01*
X45704000Y-12282000D01*
X45704000Y-13897999D01*
X46028956Y-13897999D01*
X46066250Y-13895065D01*
X46225900Y-13848681D01*
X46363861Y-13767092D01*
X46432677Y-13749633D01*
X46500008Y-13772150D01*
X46544478Y-13827494D01*
X46554000Y-13875546D01*
X46554000Y-14203872D01*
X46533998Y-14271993D01*
X46480342Y-14318486D01*
X46410068Y-14328590D01*
X46363861Y-14312326D01*
X46226102Y-14230855D01*
X46066329Y-14184437D01*
X46029011Y-14181500D01*
X46029002Y-14181500D01*
X44870998Y-14181500D01*
X44870989Y-14181500D01*
X44833671Y-14184437D01*
X44833670Y-14184437D01*
X44673894Y-14230856D01*
X44530696Y-14315544D01*
X44530693Y-14315546D01*
X44514598Y-14331642D01*
X44477843Y-14368396D01*
X44415534Y-14402420D01*
X44388750Y-14405300D01*
X43337273Y-14405300D01*
X43269152Y-14385298D01*
X43222659Y-14331642D01*
X43217670Y-14318937D01*
X43217115Y-14317262D01*
X43124030Y-14166348D01*
X43124029Y-14166347D01*
X43124024Y-14166341D01*
X42998657Y-14040974D01*
X42995547Y-14038515D01*
X42993967Y-14036284D01*
X42993463Y-14035780D01*
X42993549Y-14035693D01*
X42954518Y-13980575D01*
X42951326Y-13909650D01*
X42986986Y-13848259D01*
X42995558Y-13840832D01*
X42998350Y-13838624D01*
X43123629Y-13713345D01*
X43123634Y-13713339D01*
X43216657Y-13562525D01*
X43272393Y-13394321D01*
X43272394Y-13394318D01*
X43277535Y-13344000D01*
X44282507Y-13344000D01*
X44328818Y-13503401D01*
X44413448Y-13646501D01*
X44413449Y-13646503D01*
X44530996Y-13764050D01*
X44530998Y-13764051D01*
X44674098Y-13848681D01*
X44833751Y-13895065D01*
X44833749Y-13895065D01*
X44871043Y-13897999D01*
X45196000Y-13897999D01*
X45196000Y-13344000D01*
X44282507Y-13344000D01*
X43277535Y-13344000D01*
X43281429Y-13305894D01*
X43281429Y-13305892D01*
X43283000Y-13290511D01*
X43283000Y-13244000D01*
X40817000Y-13244000D01*
X40817000Y-13290516D01*
X40827605Y-13394318D01*
X40827606Y-13394321D01*
X40883342Y-13562525D01*
X40976365Y-13713339D01*
X40976370Y-13713345D01*
X41101657Y-13838632D01*
X41104446Y-13840837D01*
X41105863Y-13842838D01*
X41106850Y-13843825D01*
X41106681Y-13843993D01*
X41145479Y-13898775D01*
X41148674Y-13969700D01*
X41113017Y-14031093D01*
X41104457Y-14038511D01*
X41101345Y-14040971D01*
X40975975Y-14166341D01*
X40975966Y-14166353D01*
X40927180Y-14245447D01*
X40874394Y-14292925D01*
X40819940Y-14305300D01*
X39994220Y-14305300D01*
X39926099Y-14285298D01*
X39892283Y-14253359D01*
X39886209Y-14244999D01*
X39886204Y-14244993D01*
X39735009Y-14093798D01*
X39735006Y-14093796D01*
X39735004Y-14093794D01*
X39579171Y-13980575D01*
X39562012Y-13968108D01*
X39560920Y-13967439D01*
X39560591Y-13967075D01*
X39558004Y-13965196D01*
X39558398Y-13964652D01*
X39513283Y-13914796D01*
X39501670Y-13844756D01*
X39529766Y-13779555D01*
X39558130Y-13754978D01*
X39558004Y-13754804D01*
X39560030Y-13753331D01*
X39560920Y-13752561D01*
X39561997Y-13751899D01*
X39562009Y-13751894D01*
X39735004Y-13626206D01*
X39886206Y-13475004D01*
X40011894Y-13302009D01*
X40108972Y-13111483D01*
X40175049Y-12908116D01*
X40186471Y-12836000D01*
X44282507Y-12836000D01*
X45196000Y-12836000D01*
X45196000Y-12282000D01*
X44871044Y-12282000D01*
X44833749Y-12284934D01*
X44674099Y-12331318D01*
X44530998Y-12415948D01*
X44530996Y-12415949D01*
X44413449Y-12533496D01*
X44413448Y-12533498D01*
X44328818Y-12676598D01*
X44282507Y-12836000D01*
X40186471Y-12836000D01*
X40208500Y-12696916D01*
X40208500Y-12689483D01*
X40817000Y-12689483D01*
X40817000Y-12736000D01*
X41796000Y-12736000D01*
X42304000Y-12736000D01*
X43283000Y-12736000D01*
X43283000Y-12689483D01*
X43272394Y-12585681D01*
X43272393Y-12585678D01*
X43216657Y-12417474D01*
X43123634Y-12266660D01*
X43123629Y-12266654D01*
X42998345Y-12141370D01*
X42998339Y-12141365D01*
X42847525Y-12048342D01*
X42679321Y-11992606D01*
X42679318Y-11992605D01*
X42575516Y-11982000D01*
X42304000Y-11982000D01*
X42304000Y-12736000D01*
X41796000Y-12736000D01*
X41796000Y-11982000D01*
X41524483Y-11982000D01*
X41420681Y-11992605D01*
X41420678Y-11992606D01*
X41252474Y-12048342D01*
X41101660Y-12141365D01*
X41101654Y-12141370D01*
X40976370Y-12266654D01*
X40976365Y-12266660D01*
X40883342Y-12417474D01*
X40827606Y-12585678D01*
X40827605Y-12585681D01*
X40817000Y-12689483D01*
X40208500Y-12689483D01*
X40208500Y-12483084D01*
X40175049Y-12271884D01*
X40108972Y-12068517D01*
X40011894Y-11877991D01*
X39886206Y-11704996D01*
X39886203Y-11704993D01*
X39886201Y-11704990D01*
X39783229Y-11602018D01*
X39749203Y-11539706D01*
X39754268Y-11468891D01*
X39796815Y-11412055D01*
X39828284Y-11394871D01*
X39946204Y-11350889D01*
X40063261Y-11263261D01*
X40112761Y-11197137D01*
X40150887Y-11146207D01*
X40150887Y-11146206D01*
X40150889Y-11146204D01*
X40201989Y-11009201D01*
X40208500Y-10948638D01*
X40208500Y-10784500D01*
X40228502Y-10716379D01*
X40282158Y-10669886D01*
X40334500Y-10658500D01*
X45203992Y-10658500D01*
X45272113Y-10678502D01*
G37*
%TD.AperFunction*%
%TA.AperFunction,Conductor*%
G36*
X49004119Y-75770D02*
G01*
X49014288Y-76436D01*
X49242966Y-91424D01*
X49259282Y-93572D01*
X49490006Y-139465D01*
X49505916Y-143729D01*
X49728654Y-219338D01*
X49743873Y-225641D01*
X49954854Y-329686D01*
X49969111Y-337918D01*
X50164698Y-468604D01*
X50177762Y-478629D01*
X50354624Y-633733D01*
X50366266Y-645375D01*
X50521366Y-822231D01*
X50531399Y-835307D01*
X50662076Y-1030880D01*
X50670317Y-1045153D01*
X50774356Y-1256122D01*
X50780663Y-1271350D01*
X50856269Y-1494080D01*
X50860535Y-1509999D01*
X50906425Y-1740702D01*
X50908576Y-1757043D01*
X50924230Y-1995880D01*
X50924500Y-2004121D01*
X50924500Y-57995878D01*
X50924230Y-58004118D01*
X50924230Y-58004119D01*
X50908576Y-58242956D01*
X50906425Y-58259297D01*
X50860535Y-58490000D01*
X50856269Y-58505919D01*
X50780663Y-58728649D01*
X50774356Y-58743877D01*
X50670317Y-58954846D01*
X50662076Y-58969119D01*
X50531399Y-59164692D01*
X50521366Y-59177768D01*
X50366272Y-59354618D01*
X50354618Y-59366272D01*
X50177768Y-59521366D01*
X50164692Y-59531399D01*
X49969119Y-59662076D01*
X49954846Y-59670317D01*
X49743877Y-59774356D01*
X49728649Y-59780663D01*
X49505919Y-59856269D01*
X49490000Y-59860535D01*
X49259297Y-59906425D01*
X49242956Y-59908576D01*
X49004120Y-59924230D01*
X48995879Y-59924500D01*
X2004121Y-59924500D01*
X1995880Y-59924230D01*
X1757043Y-59908576D01*
X1740704Y-59906425D01*
X1666899Y-59891744D01*
X1509999Y-59860535D01*
X1494080Y-59856269D01*
X1271350Y-59780663D01*
X1256122Y-59774356D01*
X1045153Y-59670317D01*
X1030883Y-59662078D01*
X835303Y-59531396D01*
X822231Y-59521366D01*
X651239Y-59371409D01*
X645375Y-59366266D01*
X633733Y-59354624D01*
X478629Y-59177762D01*
X468604Y-59164698D01*
X337918Y-58969111D01*
X329686Y-58954854D01*
X225641Y-58743873D01*
X219336Y-58728649D01*
X198945Y-58668579D01*
X143729Y-58505916D01*
X139464Y-58490000D01*
X93572Y-58259282D01*
X91424Y-58242966D01*
X75770Y-58004118D01*
X75500Y-57995878D01*
X75500Y-55093713D01*
X3049500Y-55093713D01*
X3049500Y-55306287D01*
X3082754Y-55516243D01*
X3148443Y-55718412D01*
X3244949Y-55907816D01*
X3369896Y-56079792D01*
X3369898Y-56079794D01*
X3369900Y-56079797D01*
X3520202Y-56230099D01*
X3520205Y-56230101D01*
X3520208Y-56230104D01*
X3692184Y-56355051D01*
X3881588Y-56451557D01*
X4083757Y-56517246D01*
X4293713Y-56550500D01*
X4293716Y-56550500D01*
X4506284Y-56550500D01*
X4506287Y-56550500D01*
X4716243Y-56517246D01*
X4918412Y-56451557D01*
X5107816Y-56355051D01*
X5279792Y-56230104D01*
X5430104Y-56079792D01*
X5555051Y-55907816D01*
X5651557Y-55718412D01*
X5717246Y-55516243D01*
X5750500Y-55306287D01*
X5750500Y-55093713D01*
X45049500Y-55093713D01*
X45049500Y-55306287D01*
X45082754Y-55516243D01*
X45148443Y-55718412D01*
X45244949Y-55907816D01*
X45369896Y-56079792D01*
X45369898Y-56079794D01*
X45369900Y-56079797D01*
X45520202Y-56230099D01*
X45520205Y-56230101D01*
X45520208Y-56230104D01*
X45692184Y-56355051D01*
X45881588Y-56451557D01*
X46083757Y-56517246D01*
X46293713Y-56550500D01*
X46293716Y-56550500D01*
X46506284Y-56550500D01*
X46506287Y-56550500D01*
X46716243Y-56517246D01*
X46918412Y-56451557D01*
X47107816Y-56355051D01*
X47279792Y-56230104D01*
X47430104Y-56079792D01*
X47555051Y-55907816D01*
X47651557Y-55718412D01*
X47717246Y-55516243D01*
X47750500Y-55306287D01*
X47750500Y-55093713D01*
X47717246Y-54883757D01*
X47651557Y-54681588D01*
X47555051Y-54492184D01*
X47430104Y-54320208D01*
X47430101Y-54320205D01*
X47430099Y-54320202D01*
X47279797Y-54169900D01*
X47279794Y-54169898D01*
X47279792Y-54169896D01*
X47107816Y-54044949D01*
X46918412Y-53948443D01*
X46716243Y-53882754D01*
X46506287Y-53849500D01*
X46293713Y-53849500D01*
X46083757Y-53882754D01*
X46083754Y-53882754D01*
X46083753Y-53882755D01*
X45881588Y-53948443D01*
X45881586Y-53948444D01*
X45692180Y-54044951D01*
X45520205Y-54169898D01*
X45520202Y-54169900D01*
X45369900Y-54320202D01*
X45369898Y-54320205D01*
X45244951Y-54492180D01*
X45244949Y-54492184D01*
X45148443Y-54681588D01*
X45082754Y-54883757D01*
X45049500Y-55093713D01*
X5750500Y-55093713D01*
X5717246Y-54883757D01*
X5651557Y-54681588D01*
X5555051Y-54492184D01*
X5430104Y-54320208D01*
X5430101Y-54320205D01*
X5430099Y-54320202D01*
X5279797Y-54169900D01*
X5279794Y-54169898D01*
X5279792Y-54169896D01*
X5107816Y-54044949D01*
X4918412Y-53948443D01*
X4716243Y-53882754D01*
X4506287Y-53849500D01*
X4293713Y-53849500D01*
X4083757Y-53882754D01*
X4083754Y-53882754D01*
X4083753Y-53882755D01*
X3881588Y-53948443D01*
X3881586Y-53948444D01*
X3692180Y-54044951D01*
X3520205Y-54169898D01*
X3520202Y-54169900D01*
X3369900Y-54320202D01*
X3369898Y-54320205D01*
X3244951Y-54492180D01*
X3244949Y-54492184D01*
X3148443Y-54681588D01*
X3082754Y-54883757D01*
X3049500Y-55093713D01*
X75500Y-55093713D01*
X75500Y-41597147D01*
X14355750Y-41597147D01*
X14355750Y-41802852D01*
X14395880Y-42004597D01*
X14395882Y-42004602D01*
X14474597Y-42194638D01*
X14588877Y-42365670D01*
X14588882Y-42365676D01*
X14734323Y-42511117D01*
X14734329Y-42511122D01*
X14905362Y-42625403D01*
X15095403Y-42704120D01*
X15297150Y-42744250D01*
X15297151Y-42744250D01*
X15502849Y-42744250D01*
X15502850Y-42744250D01*
X15704597Y-42704120D01*
X15894638Y-42625403D01*
X16065671Y-42511122D01*
X16211122Y-42365671D01*
X16325403Y-42194638D01*
X16404120Y-42004597D01*
X16444250Y-41802850D01*
X16444250Y-41597150D01*
X16444249Y-41597147D01*
X34355750Y-41597147D01*
X34355750Y-41802852D01*
X34395880Y-42004597D01*
X34395882Y-42004602D01*
X34474597Y-42194638D01*
X34588877Y-42365670D01*
X34588882Y-42365676D01*
X34734323Y-42511117D01*
X34734329Y-42511122D01*
X34905362Y-42625403D01*
X35095403Y-42704120D01*
X35297150Y-42744250D01*
X35297151Y-42744250D01*
X35502849Y-42744250D01*
X35502850Y-42744250D01*
X35704597Y-42704120D01*
X35894638Y-42625403D01*
X36065671Y-42511122D01*
X36211122Y-42365671D01*
X36325403Y-42194638D01*
X36404120Y-42004597D01*
X36444250Y-41802850D01*
X36444250Y-41597150D01*
X36404120Y-41395403D01*
X36325403Y-41205362D01*
X36211122Y-41034329D01*
X36211117Y-41034323D01*
X36065676Y-40888882D01*
X36065670Y-40888877D01*
X35894638Y-40774597D01*
X35704602Y-40695882D01*
X35704597Y-40695880D01*
X35502852Y-40655750D01*
X35502850Y-40655750D01*
X35297150Y-40655750D01*
X35297147Y-40655750D01*
X35095402Y-40695880D01*
X35095397Y-40695882D01*
X34905361Y-40774597D01*
X34734329Y-40888877D01*
X34734323Y-40888882D01*
X34588882Y-41034323D01*
X34588877Y-41034329D01*
X34474597Y-41205361D01*
X34395882Y-41395397D01*
X34395880Y-41395402D01*
X34355750Y-41597147D01*
X16444249Y-41597147D01*
X16404120Y-41395403D01*
X16325403Y-41205362D01*
X16211122Y-41034329D01*
X16211117Y-41034323D01*
X16065676Y-40888882D01*
X16065670Y-40888877D01*
X15894638Y-40774597D01*
X15704602Y-40695882D01*
X15704597Y-40695880D01*
X15502852Y-40655750D01*
X15502850Y-40655750D01*
X15297150Y-40655750D01*
X15297147Y-40655750D01*
X15095402Y-40695880D01*
X15095397Y-40695882D01*
X14905361Y-40774597D01*
X14734329Y-40888877D01*
X14734323Y-40888882D01*
X14588882Y-41034323D01*
X14588877Y-41034329D01*
X14474597Y-41205361D01*
X14395882Y-41395397D01*
X14395880Y-41395402D01*
X14355750Y-41597147D01*
X75500Y-41597147D01*
X75500Y-38095287D01*
X14069500Y-38095287D01*
X14069500Y-38304713D01*
X14101159Y-38504602D01*
X14102262Y-38511564D01*
X14166975Y-38710730D01*
X14166977Y-38710735D01*
X14262054Y-38897334D01*
X14385152Y-39066762D01*
X14385154Y-39066764D01*
X14385157Y-39066768D01*
X14533231Y-39214842D01*
X14533234Y-39214844D01*
X14533238Y-39214848D01*
X14702666Y-39337946D01*
X14889265Y-39433023D01*
X15088441Y-39497739D01*
X15295287Y-39530500D01*
X15295290Y-39530500D01*
X15504710Y-39530500D01*
X15504713Y-39530500D01*
X15711559Y-39497739D01*
X15910735Y-39433023D01*
X16097334Y-39337946D01*
X16266762Y-39214848D01*
X16414848Y-39066762D01*
X16537946Y-38897334D01*
X16633023Y-38710735D01*
X16697739Y-38511559D01*
X16730500Y-38304713D01*
X16730500Y-38097147D01*
X17855750Y-38097147D01*
X17855750Y-38302852D01*
X17895880Y-38504597D01*
X17895882Y-38504602D01*
X17974597Y-38694638D01*
X18088877Y-38865670D01*
X18088882Y-38865676D01*
X18234323Y-39011117D01*
X18234329Y-39011122D01*
X18405362Y-39125403D01*
X18595403Y-39204120D01*
X18797150Y-39244250D01*
X18797151Y-39244250D01*
X19002849Y-39244250D01*
X19002850Y-39244250D01*
X19204597Y-39204120D01*
X19394638Y-39125403D01*
X19565671Y-39011122D01*
X19711122Y-38865671D01*
X19825403Y-38694638D01*
X19904120Y-38504597D01*
X19944250Y-38302850D01*
X19944250Y-38097150D01*
X19944249Y-38097147D01*
X30855750Y-38097147D01*
X30855750Y-38302852D01*
X30895880Y-38504597D01*
X30895882Y-38504602D01*
X30974597Y-38694638D01*
X31088877Y-38865670D01*
X31088882Y-38865676D01*
X31234323Y-39011117D01*
X31234329Y-39011122D01*
X31405362Y-39125403D01*
X31595403Y-39204120D01*
X31797150Y-39244250D01*
X31797151Y-39244250D01*
X32002849Y-39244250D01*
X32002850Y-39244250D01*
X32204597Y-39204120D01*
X32394638Y-39125403D01*
X32565671Y-39011122D01*
X32711122Y-38865671D01*
X32825403Y-38694638D01*
X32904120Y-38504597D01*
X32944250Y-38302850D01*
X32944250Y-38097150D01*
X32944249Y-38097147D01*
X32943879Y-38095287D01*
X34069500Y-38095287D01*
X34069500Y-38304713D01*
X34101159Y-38504602D01*
X34102262Y-38511564D01*
X34166975Y-38710730D01*
X34166977Y-38710735D01*
X34262054Y-38897334D01*
X34385152Y-39066762D01*
X34385154Y-39066764D01*
X34385157Y-39066768D01*
X34533231Y-39214842D01*
X34533234Y-39214844D01*
X34533238Y-39214848D01*
X34702666Y-39337946D01*
X34889265Y-39433023D01*
X35088441Y-39497739D01*
X35295287Y-39530500D01*
X35295290Y-39530500D01*
X35504710Y-39530500D01*
X35504713Y-39530500D01*
X35711559Y-39497739D01*
X35910735Y-39433023D01*
X36097334Y-39337946D01*
X36266762Y-39214848D01*
X36414848Y-39066762D01*
X36537946Y-38897334D01*
X36633023Y-38710735D01*
X36697739Y-38511559D01*
X36730500Y-38304713D01*
X36730500Y-38095287D01*
X36697739Y-37888441D01*
X36633023Y-37689265D01*
X36537946Y-37502666D01*
X36414848Y-37333238D01*
X36414844Y-37333234D01*
X36414842Y-37333231D01*
X36266768Y-37185157D01*
X36266764Y-37185154D01*
X36266762Y-37185152D01*
X36097334Y-37062054D01*
X35910735Y-36966977D01*
X35910732Y-36966976D01*
X35910730Y-36966975D01*
X35711564Y-36902262D01*
X35711560Y-36902261D01*
X35711559Y-36902261D01*
X35504713Y-36869500D01*
X35295287Y-36869500D01*
X35088441Y-36902261D01*
X35088435Y-36902262D01*
X34889269Y-36966975D01*
X34889263Y-36966978D01*
X34702666Y-37062054D01*
X34533231Y-37185157D01*
X34385157Y-37333231D01*
X34262054Y-37502666D01*
X34166978Y-37689263D01*
X34166975Y-37689269D01*
X34102262Y-37888435D01*
X34102261Y-37888440D01*
X34102261Y-37888441D01*
X34069500Y-38095287D01*
X32943879Y-38095287D01*
X32936267Y-38057019D01*
X32904120Y-37895403D01*
X32825403Y-37705362D01*
X32711122Y-37534329D01*
X32711117Y-37534323D01*
X32565676Y-37388882D01*
X32565670Y-37388877D01*
X32394638Y-37274597D01*
X32204602Y-37195882D01*
X32204597Y-37195880D01*
X32002852Y-37155750D01*
X32002850Y-37155750D01*
X31797150Y-37155750D01*
X31797147Y-37155750D01*
X31595402Y-37195880D01*
X31595397Y-37195882D01*
X31405361Y-37274597D01*
X31234329Y-37388877D01*
X31234323Y-37388882D01*
X31088882Y-37534323D01*
X31088877Y-37534329D01*
X30974597Y-37705361D01*
X30895882Y-37895397D01*
X30895880Y-37895402D01*
X30855750Y-38097147D01*
X19944249Y-38097147D01*
X19904120Y-37895403D01*
X19825403Y-37705362D01*
X19711122Y-37534329D01*
X19711117Y-37534323D01*
X19565676Y-37388882D01*
X19565670Y-37388877D01*
X19394638Y-37274597D01*
X19204602Y-37195882D01*
X19204597Y-37195880D01*
X19002852Y-37155750D01*
X19002850Y-37155750D01*
X18797150Y-37155750D01*
X18797147Y-37155750D01*
X18595402Y-37195880D01*
X18595397Y-37195882D01*
X18405361Y-37274597D01*
X18234329Y-37388877D01*
X18234323Y-37388882D01*
X18088882Y-37534323D01*
X18088877Y-37534329D01*
X17974597Y-37705361D01*
X17895882Y-37895397D01*
X17895880Y-37895402D01*
X17855750Y-38097147D01*
X16730500Y-38097147D01*
X16730500Y-38095287D01*
X16697739Y-37888441D01*
X16633023Y-37689265D01*
X16537946Y-37502666D01*
X16414848Y-37333238D01*
X16414844Y-37333234D01*
X16414842Y-37333231D01*
X16266768Y-37185157D01*
X16266764Y-37185154D01*
X16266762Y-37185152D01*
X16097334Y-37062054D01*
X15910735Y-36966977D01*
X15910732Y-36966976D01*
X15910730Y-36966975D01*
X15711564Y-36902262D01*
X15711560Y-36902261D01*
X15711559Y-36902261D01*
X15504713Y-36869500D01*
X15295287Y-36869500D01*
X15088441Y-36902261D01*
X15088435Y-36902262D01*
X14889269Y-36966975D01*
X14889263Y-36966978D01*
X14702666Y-37062054D01*
X14533231Y-37185157D01*
X14385157Y-37333231D01*
X14262054Y-37502666D01*
X14166978Y-37689263D01*
X14166975Y-37689269D01*
X14102262Y-37888435D01*
X14102261Y-37888440D01*
X14102261Y-37888441D01*
X14069500Y-38095287D01*
X75500Y-38095287D01*
X75500Y-13346000D01*
X7145504Y-13346000D01*
X8098164Y-13346000D01*
X8057370Y-13416657D01*
X8025000Y-13537465D01*
X8025000Y-13662535D01*
X8057370Y-13783343D01*
X8098164Y-13854000D01*
X7145504Y-13854000D01*
X7175440Y-14043003D01*
X7241490Y-14246286D01*
X7241493Y-14246292D01*
X7338536Y-14436750D01*
X7464177Y-14609679D01*
X7615320Y-14760822D01*
X7788249Y-14886463D01*
X7978707Y-14983506D01*
X7978713Y-14983509D01*
X8181998Y-15049560D01*
X8246000Y-15059696D01*
X8246000Y-14001836D01*
X8316657Y-14042630D01*
X8437465Y-14075000D01*
X8562535Y-14075000D01*
X8683343Y-14042630D01*
X8754000Y-14001836D01*
X8754000Y-15059696D01*
X8818001Y-15049560D01*
X9021286Y-14983509D01*
X9021292Y-14983506D01*
X9211750Y-14886463D01*
X9384679Y-14760822D01*
X9535819Y-14609682D01*
X9535821Y-14609679D01*
X9647754Y-14455618D01*
X9703976Y-14412264D01*
X9774712Y-14406189D01*
X9837504Y-14439320D01*
X9851626Y-14455618D01*
X9963794Y-14610004D01*
X9963796Y-14610006D01*
X9963798Y-14610009D01*
X10114990Y-14761201D01*
X10114993Y-14761203D01*
X10114996Y-14761206D01*
X10287991Y-14886894D01*
X10478517Y-14983972D01*
X10681878Y-15050047D01*
X10681879Y-15050047D01*
X10681884Y-15050049D01*
X10811795Y-15070625D01*
X10875946Y-15101037D01*
X10913473Y-15161305D01*
X10912459Y-15232294D01*
X10881177Y-15284168D01*
X9656186Y-16509157D01*
X9656177Y-16509169D01*
X9581843Y-16583503D01*
X9581842Y-16583505D01*
X9509518Y-16691745D01*
X9459700Y-16812017D01*
X9459698Y-16812022D01*
X9434300Y-16939704D01*
X9434300Y-16939707D01*
X9434300Y-26030107D01*
X9434300Y-26160293D01*
X9459698Y-26287977D01*
X9509518Y-26408254D01*
X9581845Y-26516499D01*
X14783003Y-31717657D01*
X19982234Y-36916887D01*
X19982244Y-36916898D01*
X19986644Y-36921298D01*
X19986645Y-36921299D01*
X20078701Y-37013355D01*
X20186946Y-37085682D01*
X20307223Y-37135502D01*
X20434906Y-37160900D01*
X25665092Y-37160900D01*
X25665093Y-37160900D01*
X25792777Y-37135502D01*
X25913054Y-37085682D01*
X26021299Y-37013355D01*
X27183355Y-35851299D01*
X27183831Y-35850585D01*
X27184177Y-35850296D01*
X27187286Y-35846509D01*
X27188003Y-35847098D01*
X27238303Y-35805053D01*
X27308745Y-35796197D01*
X27372792Y-35826832D01*
X27405011Y-35872358D01*
X27456751Y-35997268D01*
X27456753Y-35997272D01*
X27548540Y-36134641D01*
X27548545Y-36134647D01*
X27665352Y-36251454D01*
X27665358Y-36251459D01*
X27665360Y-36251461D01*
X27802727Y-36343246D01*
X27955360Y-36406469D01*
X28117395Y-36438700D01*
X28117396Y-36438700D01*
X28282604Y-36438700D01*
X28282605Y-36438700D01*
X28444640Y-36406469D01*
X28597273Y-36343246D01*
X28734640Y-36251461D01*
X28851461Y-36134640D01*
X28943246Y-35997273D01*
X29006469Y-35844640D01*
X29038700Y-35682605D01*
X29038700Y-35640380D01*
X29058702Y-35572259D01*
X29075600Y-35551289D01*
X29917876Y-34709014D01*
X29970974Y-34617045D01*
X29994853Y-34575686D01*
X30034700Y-34426977D01*
X30034700Y-18115516D01*
X44542000Y-18115516D01*
X44552605Y-18219318D01*
X44552606Y-18219321D01*
X44608342Y-18387525D01*
X44701365Y-18538339D01*
X44701370Y-18538345D01*
X44826654Y-18663629D01*
X44826660Y-18663634D01*
X44977474Y-18756657D01*
X45145678Y-18812393D01*
X45145681Y-18812394D01*
X45249483Y-18822999D01*
X45249483Y-18823000D01*
X45296000Y-18823000D01*
X45296000Y-17844000D01*
X44542000Y-17844000D01*
X44542000Y-18115516D01*
X30034700Y-18115516D01*
X30034700Y-17064483D01*
X44542000Y-17064483D01*
X44542000Y-17336000D01*
X45296000Y-17336000D01*
X45296000Y-16357000D01*
X45249483Y-16357000D01*
X45145681Y-16367605D01*
X45145678Y-16367606D01*
X44977474Y-16423342D01*
X44826660Y-16516365D01*
X44826654Y-16516370D01*
X44701370Y-16641654D01*
X44701365Y-16641660D01*
X44608342Y-16792474D01*
X44552606Y-16960678D01*
X44552605Y-16960681D01*
X44542000Y-17064483D01*
X30034700Y-17064483D01*
X30034700Y-14849198D01*
X30054702Y-14781077D01*
X30090703Y-14744430D01*
X30092524Y-14743212D01*
X30097981Y-14739567D01*
X30239567Y-14597981D01*
X30350810Y-14431493D01*
X30427436Y-14246502D01*
X30466500Y-14050116D01*
X30466500Y-13849884D01*
X30427436Y-13653498D01*
X30350810Y-13468507D01*
X30345594Y-13460700D01*
X30324380Y-13392947D01*
X30343164Y-13324481D01*
X30395982Y-13277038D01*
X30450360Y-13264700D01*
X37596799Y-13264700D01*
X37664920Y-13284702D01*
X37698735Y-13316639D01*
X37813794Y-13475004D01*
X37813796Y-13475006D01*
X37813798Y-13475009D01*
X37964990Y-13626201D01*
X37964993Y-13626203D01*
X37964996Y-13626206D01*
X38137991Y-13751894D01*
X38137996Y-13751896D01*
X38139088Y-13752566D01*
X38139418Y-13752931D01*
X38141996Y-13754804D01*
X38141602Y-13755345D01*
X38186721Y-13805213D01*
X38198328Y-13875255D01*
X38170226Y-13940453D01*
X38141870Y-13965023D01*
X38141996Y-13965196D01*
X38139982Y-13966658D01*
X38139088Y-13967434D01*
X38137987Y-13968108D01*
X37964993Y-14093796D01*
X37964990Y-14093798D01*
X37813798Y-14244990D01*
X37813796Y-14244993D01*
X37688108Y-14417987D01*
X37591029Y-14608515D01*
X37591026Y-14608521D01*
X37524952Y-14811878D01*
X37524951Y-14811883D01*
X37524951Y-14811884D01*
X37491500Y-15023084D01*
X37491500Y-15236916D01*
X37517901Y-15403605D01*
X37524952Y-15448121D01*
X37557017Y-15546807D01*
X37591028Y-15651483D01*
X37688106Y-15842009D01*
X37813794Y-16015004D01*
X37813796Y-16015006D01*
X37813798Y-16015009D01*
X37964990Y-16166201D01*
X37964993Y-16166203D01*
X37964996Y-16166206D01*
X38137991Y-16291894D01*
X38328517Y-16388972D01*
X38531878Y-16455047D01*
X38531879Y-16455047D01*
X38531884Y-16455049D01*
X38743084Y-16488500D01*
X38743087Y-16488500D01*
X38956913Y-16488500D01*
X38956916Y-16488500D01*
X39168116Y-16455049D01*
X39371483Y-16388972D01*
X39562009Y-16291894D01*
X39735004Y-16166206D01*
X39886206Y-16015004D01*
X40011894Y-15842009D01*
X40108972Y-15651483D01*
X40138122Y-15561763D01*
X40178195Y-15503159D01*
X40243592Y-15475521D01*
X40257956Y-15474700D01*
X40819940Y-15474700D01*
X40888061Y-15494702D01*
X40927180Y-15534553D01*
X40964281Y-15594702D01*
X40975970Y-15613652D01*
X40975972Y-15613654D01*
X40975975Y-15613658D01*
X41101341Y-15739024D01*
X41101347Y-15739029D01*
X41101348Y-15739030D01*
X41252262Y-15832115D01*
X41420574Y-15887887D01*
X41524455Y-15898500D01*
X42575544Y-15898499D01*
X42679426Y-15887887D01*
X42847738Y-15832115D01*
X42998652Y-15739030D01*
X42998658Y-15739024D01*
X43126078Y-15611605D01*
X43188390Y-15577579D01*
X43215173Y-15574700D01*
X44388750Y-15574700D01*
X44456871Y-15594702D01*
X44477840Y-15611600D01*
X44517718Y-15651478D01*
X44530693Y-15664453D01*
X44530696Y-15664455D01*
X44673894Y-15749143D01*
X44673897Y-15749143D01*
X44673899Y-15749145D01*
X44833669Y-15795562D01*
X44870988Y-15798499D01*
X44870989Y-15798500D01*
X44870998Y-15798500D01*
X46029011Y-15798500D01*
X46029011Y-15798499D01*
X46066331Y-15795562D01*
X46226101Y-15749145D01*
X46226103Y-15749143D01*
X46226105Y-15749143D01*
X46297704Y-15706799D01*
X46369307Y-15664453D01*
X46486953Y-15546807D01*
X46571645Y-15403601D01*
X46618062Y-15243831D01*
X46618062Y-15243828D01*
X46618303Y-15243000D01*
X46656516Y-15183165D01*
X46721012Y-15153487D01*
X46791314Y-15163390D01*
X46845103Y-15209730D01*
X46865299Y-15277793D01*
X46865300Y-15278153D01*
X46865300Y-16359940D01*
X46845298Y-16428061D01*
X46805447Y-16467180D01*
X46726353Y-16515966D01*
X46726341Y-16515975D01*
X46600971Y-16641345D01*
X46598511Y-16644457D01*
X46596281Y-16646035D01*
X46595780Y-16646537D01*
X46595694Y-16646451D01*
X46540568Y-16685483D01*
X46469643Y-16688671D01*
X46408254Y-16653008D01*
X46400837Y-16644446D01*
X46398632Y-16641657D01*
X46273345Y-16516370D01*
X46273339Y-16516365D01*
X46122525Y-16423342D01*
X45954321Y-16367606D01*
X45954318Y-16367605D01*
X45850516Y-16357000D01*
X45804000Y-16357000D01*
X45804000Y-18823000D01*
X45850517Y-18823000D01*
X45850516Y-18822999D01*
X45954318Y-18812394D01*
X45954321Y-18812393D01*
X46122525Y-18756657D01*
X46273339Y-18663634D01*
X46273345Y-18663629D01*
X46398624Y-18538350D01*
X46400832Y-18535558D01*
X46402837Y-18534137D01*
X46403825Y-18533150D01*
X46403993Y-18533318D01*
X46458768Y-18494522D01*
X46529693Y-18491323D01*
X46591088Y-18526976D01*
X46598515Y-18535547D01*
X46600974Y-18538657D01*
X46726341Y-18664024D01*
X46726347Y-18664029D01*
X46726348Y-18664030D01*
X46877262Y-18757115D01*
X47045574Y-18812887D01*
X47149455Y-18823500D01*
X47750544Y-18823499D01*
X47854426Y-18812887D01*
X48022738Y-18757115D01*
X48173652Y-18664030D01*
X48299030Y-18538652D01*
X48392115Y-18387738D01*
X48447887Y-18219426D01*
X48458500Y-18115545D01*
X48458499Y-17064456D01*
X48457051Y-17050286D01*
X48447887Y-16960574D01*
X48440971Y-16939704D01*
X48392115Y-16792262D01*
X48299030Y-16641348D01*
X48299027Y-16641345D01*
X48299024Y-16641341D01*
X48173658Y-16515975D01*
X48173654Y-16515972D01*
X48173652Y-16515970D01*
X48173646Y-16515966D01*
X48094553Y-16467180D01*
X48047075Y-16414394D01*
X48034700Y-16359940D01*
X48034700Y-14974500D01*
X48054702Y-14906379D01*
X48108358Y-14859886D01*
X48160700Y-14848500D01*
X48304011Y-14848500D01*
X48304011Y-14848499D01*
X48341331Y-14845562D01*
X48501101Y-14799145D01*
X48501103Y-14799143D01*
X48501105Y-14799143D01*
X48601840Y-14739568D01*
X48644307Y-14714453D01*
X48761953Y-14596807D01*
X48831372Y-14479426D01*
X48846643Y-14453605D01*
X48846643Y-14453603D01*
X48846645Y-14453601D01*
X48893062Y-14293831D01*
X48895999Y-14256511D01*
X48896000Y-14256511D01*
X48896000Y-13823489D01*
X48895999Y-13823488D01*
X48893062Y-13786171D01*
X48893062Y-13786170D01*
X48888989Y-13772150D01*
X48846645Y-13626399D01*
X48846643Y-13626397D01*
X48846643Y-13626394D01*
X48761955Y-13483196D01*
X48761950Y-13483189D01*
X48644310Y-13365549D01*
X48644303Y-13365544D01*
X48501105Y-13280856D01*
X48341329Y-13234437D01*
X48304011Y-13231500D01*
X48304002Y-13231500D01*
X48066057Y-13231500D01*
X47997936Y-13211498D01*
X47954259Y-13163613D01*
X47950819Y-13156996D01*
X46658015Y-10669886D01*
X46226914Y-9840530D01*
X46226913Y-9840529D01*
X46220565Y-9828316D01*
X46217032Y-9815128D01*
X46183710Y-9757413D01*
X46152967Y-9698269D01*
X46152964Y-9698266D01*
X46152962Y-9698262D01*
X46143743Y-9688190D01*
X46136921Y-9676372D01*
X46089801Y-9629252D01*
X46044795Y-9580077D01*
X46044792Y-9580075D01*
X46044790Y-9580073D01*
X46033279Y-9572730D01*
X46023628Y-9563079D01*
X45965912Y-9529757D01*
X45927334Y-9505147D01*
X45909713Y-9493906D01*
X45909272Y-9493700D01*
X45885329Y-9483157D01*
X45884872Y-9482968D01*
X45823165Y-9466432D01*
X45823165Y-9466433D01*
X45820474Y-9465712D01*
X45756941Y-9445638D01*
X45743301Y-9445034D01*
X45730111Y-9441500D01*
X45730110Y-9441500D01*
X45663455Y-9441500D01*
X45596876Y-9438553D01*
X45583545Y-9441500D01*
X40334500Y-9441500D01*
X40266379Y-9421498D01*
X40219886Y-9367842D01*
X40208500Y-9315500D01*
X40208500Y-9151367D01*
X40208499Y-9151350D01*
X40201990Y-9090803D01*
X40201988Y-9090795D01*
X40150889Y-8953797D01*
X40150887Y-8953792D01*
X40063261Y-8836738D01*
X39946207Y-8749112D01*
X39946202Y-8749110D01*
X39809204Y-8698011D01*
X39809196Y-8698009D01*
X39748649Y-8691500D01*
X39748638Y-8691500D01*
X37951362Y-8691500D01*
X37951350Y-8691500D01*
X37890803Y-8698009D01*
X37890795Y-8698011D01*
X37753797Y-8749110D01*
X37753792Y-8749112D01*
X37636738Y-8836738D01*
X37549112Y-8953792D01*
X37549110Y-8953797D01*
X37498011Y-9090795D01*
X37498009Y-9090803D01*
X37491500Y-9151350D01*
X37491500Y-9339300D01*
X37471498Y-9407421D01*
X37417842Y-9453914D01*
X37365500Y-9465300D01*
X21873023Y-9465300D01*
X21806381Y-9483157D01*
X21724313Y-9505147D01*
X21681688Y-9529757D01*
X21623973Y-9563079D01*
X21607479Y-9572601D01*
X21590987Y-9582123D01*
X21590979Y-9582129D01*
X18194715Y-12978395D01*
X18132403Y-13012421D01*
X18105620Y-13015300D01*
X17484499Y-13015300D01*
X17416378Y-12995298D01*
X17369885Y-12941642D01*
X17358499Y-12889300D01*
X17358499Y-12824455D01*
X17347887Y-12720574D01*
X17320591Y-12638200D01*
X17308272Y-12601024D01*
X17305833Y-12530071D01*
X17342141Y-12469061D01*
X17405670Y-12437366D01*
X17452455Y-12437813D01*
X17516233Y-12450500D01*
X17516234Y-12450500D01*
X17683766Y-12450500D01*
X17683767Y-12450500D01*
X17848082Y-12417816D01*
X18002863Y-12353703D01*
X18142162Y-12260626D01*
X18260626Y-12142162D01*
X18353703Y-12002863D01*
X18417816Y-11848082D01*
X18450500Y-11683767D01*
X18450500Y-11516233D01*
X18417816Y-11351918D01*
X18353703Y-11197137D01*
X18260626Y-11057838D01*
X18260621Y-11057832D01*
X18142167Y-10939378D01*
X18142161Y-10939373D01*
X18002864Y-10846298D01*
X18002865Y-10846298D01*
X18002863Y-10846297D01*
X17893420Y-10800964D01*
X17848085Y-10782185D01*
X17848083Y-10782184D01*
X17848082Y-10782184D01*
X17740074Y-10760700D01*
X17683769Y-10749500D01*
X17683767Y-10749500D01*
X17516233Y-10749500D01*
X17516230Y-10749500D01*
X17393830Y-10773847D01*
X17351918Y-10782184D01*
X17351917Y-10782184D01*
X17351914Y-10782185D01*
X17197135Y-10846298D01*
X17057838Y-10939373D01*
X17057832Y-10939378D01*
X16939378Y-11057832D01*
X16939373Y-11057838D01*
X16846298Y-11197135D01*
X16782185Y-11351914D01*
X16749500Y-11516230D01*
X16749500Y-11683769D01*
X16782185Y-11848087D01*
X16823316Y-11947384D01*
X16830905Y-12017973D01*
X16799126Y-12081460D01*
X16738068Y-12117688D01*
X16694101Y-12120949D01*
X16650545Y-12116500D01*
X16650544Y-12116500D01*
X15349455Y-12116500D01*
X15245574Y-12127112D01*
X15077261Y-12182885D01*
X14926347Y-12275970D01*
X14926341Y-12275975D01*
X14800975Y-12401341D01*
X14800970Y-12401347D01*
X14711651Y-12546156D01*
X14658865Y-12593634D01*
X14588790Y-12605037D01*
X14523674Y-12576744D01*
X14515315Y-12569104D01*
X14385009Y-12438798D01*
X14385006Y-12438796D01*
X14385004Y-12438794D01*
X14212009Y-12313106D01*
X14021483Y-12216028D01*
X14021480Y-12216027D01*
X14021478Y-12216026D01*
X13818120Y-12149952D01*
X13818123Y-12149952D01*
X13757195Y-12140302D01*
X13606916Y-12116500D01*
X13393084Y-12116500D01*
X13181884Y-12149951D01*
X13181878Y-12149952D01*
X12978521Y-12216026D01*
X12978515Y-12216029D01*
X12787987Y-12313108D01*
X12614993Y-12438796D01*
X12614990Y-12438798D01*
X12463798Y-12589990D01*
X12463796Y-12589993D01*
X12351936Y-12743955D01*
X12295714Y-12787309D01*
X12224977Y-12793384D01*
X12162186Y-12760252D01*
X12148064Y-12743955D01*
X12071228Y-12638200D01*
X12036206Y-12589996D01*
X12036203Y-12589993D01*
X12036201Y-12589990D01*
X11885009Y-12438798D01*
X11885006Y-12438796D01*
X11885004Y-12438794D01*
X11712009Y-12313106D01*
X11521483Y-12216028D01*
X11521480Y-12216027D01*
X11521478Y-12216026D01*
X11318120Y-12149952D01*
X11318123Y-12149952D01*
X11257195Y-12140302D01*
X11106916Y-12116500D01*
X10893084Y-12116500D01*
X10681884Y-12149951D01*
X10681878Y-12149952D01*
X10478521Y-12216026D01*
X10478515Y-12216029D01*
X10287987Y-12313108D01*
X10114993Y-12438796D01*
X10114990Y-12438798D01*
X9963795Y-12589993D01*
X9851626Y-12744381D01*
X9795403Y-12787735D01*
X9724667Y-12793810D01*
X9661876Y-12760678D01*
X9647754Y-12744381D01*
X9535821Y-12590320D01*
X9535819Y-12590317D01*
X9384679Y-12439177D01*
X9211750Y-12313536D01*
X9021292Y-12216493D01*
X9021286Y-12216490D01*
X8818004Y-12150440D01*
X8754000Y-12140302D01*
X8754000Y-13198163D01*
X8683343Y-13157370D01*
X8562535Y-13125000D01*
X8437465Y-13125000D01*
X8316657Y-13157370D01*
X8246000Y-13198163D01*
X8246000Y-12140302D01*
X8181995Y-12150440D01*
X7978713Y-12216490D01*
X7978707Y-12216493D01*
X7788249Y-12313536D01*
X7615320Y-12439177D01*
X7464177Y-12590320D01*
X7338536Y-12763249D01*
X7241493Y-12953707D01*
X7241490Y-12953713D01*
X7175440Y-13156996D01*
X7145504Y-13346000D01*
X75500Y-13346000D01*
X75500Y-4093713D01*
X3049500Y-4093713D01*
X3049500Y-4306287D01*
X3082754Y-4516243D01*
X3148443Y-4718412D01*
X3244949Y-4907816D01*
X3369896Y-5079792D01*
X3369898Y-5079794D01*
X3369900Y-5079797D01*
X3520202Y-5230099D01*
X3520205Y-5230101D01*
X3520208Y-5230104D01*
X3692184Y-5355051D01*
X3881588Y-5451557D01*
X4083757Y-5517246D01*
X4293713Y-5550500D01*
X4293716Y-5550500D01*
X4506284Y-5550500D01*
X4506287Y-5550500D01*
X4716243Y-5517246D01*
X4918412Y-5451557D01*
X5107816Y-5355051D01*
X5279792Y-5230104D01*
X5430104Y-5079792D01*
X5555051Y-4907816D01*
X5651557Y-4718412D01*
X5717246Y-4516243D01*
X5750500Y-4306287D01*
X5750500Y-4093713D01*
X45049500Y-4093713D01*
X45049500Y-4306287D01*
X45082754Y-4516243D01*
X45148443Y-4718412D01*
X45244949Y-4907816D01*
X45369896Y-5079792D01*
X45369898Y-5079794D01*
X45369900Y-5079797D01*
X45520202Y-5230099D01*
X45520205Y-5230101D01*
X45520208Y-5230104D01*
X45692184Y-5355051D01*
X45881588Y-5451557D01*
X46083757Y-5517246D01*
X46293713Y-5550500D01*
X46293716Y-5550500D01*
X46506284Y-5550500D01*
X46506287Y-5550500D01*
X46716243Y-5517246D01*
X46918412Y-5451557D01*
X47107816Y-5355051D01*
X47279792Y-5230104D01*
X47430104Y-5079792D01*
X47555051Y-4907816D01*
X47651557Y-4718412D01*
X47717246Y-4516243D01*
X47750500Y-4306287D01*
X47750500Y-4093713D01*
X47717246Y-3883757D01*
X47651557Y-3681588D01*
X47555051Y-3492184D01*
X47430104Y-3320208D01*
X47430101Y-3320205D01*
X47430099Y-3320202D01*
X47279797Y-3169900D01*
X47279794Y-3169898D01*
X47279792Y-3169896D01*
X47107816Y-3044949D01*
X46918412Y-2948443D01*
X46716243Y-2882754D01*
X46506287Y-2849500D01*
X46293713Y-2849500D01*
X46083757Y-2882754D01*
X46083754Y-2882754D01*
X46083753Y-2882755D01*
X45881588Y-2948443D01*
X45881586Y-2948444D01*
X45692180Y-3044951D01*
X45520205Y-3169898D01*
X45520202Y-3169900D01*
X45369900Y-3320202D01*
X45369898Y-3320205D01*
X45244951Y-3492180D01*
X45244949Y-3492184D01*
X45148443Y-3681588D01*
X45082754Y-3883757D01*
X45049500Y-4093713D01*
X5750500Y-4093713D01*
X5717246Y-3883757D01*
X5651557Y-3681588D01*
X5555051Y-3492184D01*
X5430104Y-3320208D01*
X5430101Y-3320205D01*
X5430099Y-3320202D01*
X5279797Y-3169900D01*
X5279794Y-3169898D01*
X5279792Y-3169896D01*
X5107816Y-3044949D01*
X4918412Y-2948443D01*
X4716243Y-2882754D01*
X4506287Y-2849500D01*
X4293713Y-2849500D01*
X4083757Y-2882754D01*
X4083754Y-2882754D01*
X4083753Y-2882755D01*
X3881588Y-2948443D01*
X3881586Y-2948444D01*
X3692180Y-3044951D01*
X3520205Y-3169898D01*
X3520202Y-3169900D01*
X3369900Y-3320202D01*
X3369898Y-3320205D01*
X3244951Y-3492180D01*
X3244949Y-3492184D01*
X3148443Y-3681588D01*
X3082754Y-3883757D01*
X3049500Y-4093713D01*
X75500Y-4093713D01*
X75500Y-2004121D01*
X75770Y-1995881D01*
X84416Y-1863965D01*
X91424Y-1757029D01*
X93571Y-1740719D01*
X139466Y-1509990D01*
X143727Y-1494087D01*
X219340Y-1271339D01*
X225638Y-1256132D01*
X329690Y-1045138D01*
X337914Y-1030894D01*
X468610Y-835293D01*
X478623Y-822244D01*
X633740Y-645367D01*
X645367Y-633740D01*
X822244Y-478623D01*
X835293Y-468610D01*
X1030894Y-337914D01*
X1045138Y-329690D01*
X1256132Y-225638D01*
X1271339Y-219340D01*
X1494087Y-143727D01*
X1509990Y-139466D01*
X1740719Y-93571D01*
X1757031Y-91424D01*
X1986508Y-76384D01*
X1995881Y-75770D01*
X2004121Y-75500D01*
X2024531Y-75500D01*
X48975469Y-75500D01*
X48995879Y-75500D01*
X49004119Y-75770D01*
G37*
%TD.AperFunction*%
%TD*%
M02*
