%TF.GenerationSoftware,KiCad,Pcbnew,10.0.2*%
%TF.CreationDate,2026-06-22T10:40:36-04:00*%
%TF.ProjectId,TagPwrMonitor,54616750-7772-44d6-9f6e-69746f722e6b,rev?*%
%TF.SameCoordinates,Original*%
%TF.FileFunction,Soldermask,Top*%
%TF.FilePolarity,Negative*%
%FSLAX46Y46*%
G04 Gerber Fmt 4.6, Leading zero omitted, Abs format (unit mm)*
G04 Created by KiCad (PCBNEW 10.0.2) date 2026-06-22 10:40:36*
%MOMM*%
%LPD*%
G01*
G04 APERTURE LIST*
G04 Aperture macros list*
%AMRoundRect*
0 Rectangle with rounded corners*
0 $1 Rounding radius*
0 $2 $3 $4 $5 $6 $7 $8 $9 X,Y pos of 4 corners*
0 Add a 4 corners polygon primitive as box body*
4,1,4,$2,$3,$4,$5,$6,$7,$8,$9,$2,$3,0*
0 Add four circle primitives for the rounded corners*
1,1,$1+$1,$2,$3*
1,1,$1+$1,$4,$5*
1,1,$1+$1,$6,$7*
1,1,$1+$1,$8,$9*
0 Add four rect primitives between the rounded corners*
20,1,$1+$1,$2,$3,$4,$5,0*
20,1,$1+$1,$4,$5,$6,$7,0*
20,1,$1+$1,$6,$7,$8,$9,0*
20,1,$1+$1,$8,$9,$2,$3,0*%
G04 Aperture macros list end*
%ADD10C,1.016000*%
%ADD11C,0.939800*%
%ADD12RoundRect,0.250000X0.600000X0.725000X-0.600000X0.725000X-0.600000X-0.725000X0.600000X-0.725000X0*%
%ADD13O,1.700000X1.950000*%
%ADD14RoundRect,0.150000X-0.512500X-0.150000X0.512500X-0.150000X0.512500X0.150000X-0.512500X0.150000X0*%
%ADD15RoundRect,0.150000X0.512500X0.150000X-0.512500X0.150000X-0.512500X-0.150000X0.512500X-0.150000X0*%
%ADD16R,1.700000X1.700000*%
%ADD17C,1.700000*%
%ADD18RoundRect,0.250000X0.250000X0.475000X-0.250000X0.475000X-0.250000X-0.475000X0.250000X-0.475000X0*%
%ADD19RoundRect,0.250000X0.475000X-0.250000X0.475000X0.250000X-0.475000X0.250000X-0.475000X-0.250000X0*%
%ADD20RoundRect,0.250000X-0.250000X-0.475000X0.250000X-0.475000X0.250000X0.475000X-0.250000X0.475000X0*%
%ADD21RoundRect,0.250000X-0.450000X0.262500X-0.450000X-0.262500X0.450000X-0.262500X0.450000X0.262500X0*%
%ADD22RoundRect,0.250000X0.450000X-0.262500X0.450000X0.262500X-0.450000X0.262500X-0.450000X-0.262500X0*%
G04 APERTURE END LIST*
D10*
%TO.C,J102*%
X29450000Y-12680000D03*
X29450000Y-13950000D03*
X28180000Y-12680000D03*
X28180000Y-13950000D03*
X26910000Y-12680000D03*
X26910000Y-13950000D03*
X25640000Y-12680000D03*
X25640000Y-13950000D03*
X24370000Y-12680000D03*
X24370000Y-13950000D03*
%TD*%
D11*
%TO.C,J101*%
X24130000Y-33835000D03*
X24130000Y-32565000D03*
X25400000Y-33835000D03*
X25400000Y-32565000D03*
X26670000Y-33835000D03*
X26670000Y-32565000D03*
%TD*%
D12*
%TO.C,J1*%
X16000000Y-13600000D03*
D13*
X13500000Y-13600000D03*
X11000000Y-13600000D03*
X8500000Y-13600000D03*
%TD*%
D14*
%TO.C,U1*%
X45450000Y-13090000D03*
X45450000Y-14990000D03*
X47725000Y-14040000D03*
%TD*%
D15*
%TO.C,U2*%
X18987500Y-22950000D03*
X18987500Y-22000000D03*
X18987500Y-21050000D03*
X16712500Y-21050000D03*
X16712500Y-22950000D03*
%TD*%
D16*
%TO.C,J2*%
X38850000Y-10050000D03*
D17*
X38850000Y-12590000D03*
X38850000Y-15130000D03*
%TD*%
D18*
%TO.C,C2*%
X47450000Y-17590000D03*
X45550000Y-17590000D03*
%TD*%
D19*
%TO.C,C1*%
X42050000Y-14890000D03*
X42050000Y-12990000D03*
%TD*%
D20*
%TO.C,C3*%
X17000000Y-18600000D03*
X18900000Y-18600000D03*
%TD*%
D21*
%TO.C,R2*%
X21475000Y-22092500D03*
X21475000Y-23917500D03*
%TD*%
D22*
%TO.C,R3*%
X14150000Y-23025000D03*
X14150000Y-21200000D03*
%TD*%
M02*
