%TF.GenerationSoftware,KiCad,Pcbnew,10.0.2*%
%TF.CreationDate,2026-08-11T14:35:06-04:00*%
%TF.ProjectId,IMUTagNandBreakcoutv2,494d5554-6167-44e6-916e-64427265616b,rev?*%
%TF.SameCoordinates,Original*%
%TF.FileFunction,Legend,Top*%
%TF.FilePolarity,Positive*%
%FSLAX46Y46*%
G04 Gerber Fmt 4.6, Leading zero omitted, Abs format (unit mm)*
G04 Created by KiCad (PCBNEW 10.0.2) date 2026-08-11 14:35:06*
%MOMM*%
%LPD*%
G01*
G04 APERTURE LIST*
G04 Aperture macros list*
%AMRoundRect*
0 Rectangle with rounded corners*
0 $1 Rounding radius*
0 $2 $3 $4 $5 $6 $7 $8 $9 X,Y pos of 4 corners*
0 Add a 4 corners polygon primitive as box body*
4,1,4,$2,$3,$4,$5,$6,$7,$8,$9,$2,$3,0*
0 Add four circle primitives for the rounded corners*
1,1,$1+$1,$2,$3*
1,1,$1+$1,$4,$5*
1,1,$1+$1,$6,$7*
1,1,$1+$1,$8,$9*
0 Add four rect primitives between the rounded corners*
20,1,$1+$1,$2,$3,$4,$5,0*
20,1,$1+$1,$4,$5,$6,$7,0*
20,1,$1+$1,$6,$7,$8,$9,0*
20,1,$1+$1,$8,$9,$2,$3,0*%
G04 Aperture macros list end*
%ADD10C,0.150000*%
%ADD11C,0.300000*%
%ADD12C,0.120000*%
%ADD13C,0.152400*%
%ADD14C,0.000000*%
%ADD15C,0.200000*%
%ADD16C,0.140000*%
%ADD17C,0.228600*%
%ADD18RoundRect,0.225000X-0.250000X0.225000X-0.250000X-0.225000X0.250000X-0.225000X0.250000X0.225000X0*%
%ADD19RoundRect,0.225000X0.250000X-0.225000X0.250000X0.225000X-0.250000X0.225000X-0.250000X-0.225000X0*%
%ADD20RoundRect,0.225000X-0.225000X-0.250000X0.225000X-0.250000X0.225000X0.250000X-0.225000X0.250000X0*%
%ADD21RoundRect,0.200000X-0.200000X-0.275000X0.200000X-0.275000X0.200000X0.275000X-0.200000X0.275000X0*%
%ADD22RoundRect,0.087500X0.087500X-0.125000X0.087500X0.125000X-0.087500X0.125000X-0.087500X-0.125000X0*%
%ADD23RoundRect,0.087500X0.125000X-0.087500X0.125000X0.087500X-0.125000X0.087500X-0.125000X-0.087500X0*%
%ADD24C,2.000000*%
%ADD25R,0.533400X0.304800*%
%ADD26R,0.304800X0.533400*%
%ADD27RoundRect,0.125000X-0.200000X-0.125000X0.200000X-0.125000X0.200000X0.125000X-0.200000X0.125000X0*%
%ADD28R,3.400000X4.300000*%
%ADD29R,1.700000X1.700000*%
%ADD30O,1.700000X1.700000*%
G04 APERTURE END LIST*
D10*
X131064000Y-115925600D02*
X131064000Y-115163600D01*
X131064000Y-115925600D02*
X131826000Y-115925600D01*
X132390000Y-112826000D02*
X132898000Y-111810000D01*
X132842000Y-114401600D02*
X131064000Y-115925600D01*
X132842000Y-114401600D02*
X132865000Y-112152000D01*
X132842000Y-114401600D02*
X135065000Y-114427000D01*
X132898000Y-111810000D02*
X132390000Y-112826000D01*
X132898000Y-111810000D02*
X133406000Y-112826000D01*
X135507000Y-114469000D02*
X134491000Y-113961000D01*
X135507000Y-114469000D02*
X134491000Y-114977000D01*
X109309160Y-81687200D02*
X109452017Y-81734819D01*
X109452017Y-81734819D02*
X109690112Y-81734819D01*
X109690112Y-81734819D02*
X109785350Y-81687200D01*
X109785350Y-81687200D02*
X109832969Y-81639580D01*
X109832969Y-81639580D02*
X109880588Y-81544342D01*
X109880588Y-81544342D02*
X109880588Y-81449104D01*
X109880588Y-81449104D02*
X109832969Y-81353866D01*
X109832969Y-81353866D02*
X109785350Y-81306247D01*
X109785350Y-81306247D02*
X109690112Y-81258628D01*
X109690112Y-81258628D02*
X109499636Y-81211009D01*
X109499636Y-81211009D02*
X109404398Y-81163390D01*
X109404398Y-81163390D02*
X109356779Y-81115771D01*
X109356779Y-81115771D02*
X109309160Y-81020533D01*
X109309160Y-81020533D02*
X109309160Y-80925295D01*
X109309160Y-80925295D02*
X109356779Y-80830057D01*
X109356779Y-80830057D02*
X109404398Y-80782438D01*
X109404398Y-80782438D02*
X109499636Y-80734819D01*
X109499636Y-80734819D02*
X109737731Y-80734819D01*
X109737731Y-80734819D02*
X109880588Y-80782438D01*
X110880588Y-81639580D02*
X110832969Y-81687200D01*
X110832969Y-81687200D02*
X110690112Y-81734819D01*
X110690112Y-81734819D02*
X110594874Y-81734819D01*
X110594874Y-81734819D02*
X110452017Y-81687200D01*
X110452017Y-81687200D02*
X110356779Y-81591961D01*
X110356779Y-81591961D02*
X110309160Y-81496723D01*
X110309160Y-81496723D02*
X110261541Y-81306247D01*
X110261541Y-81306247D02*
X110261541Y-81163390D01*
X110261541Y-81163390D02*
X110309160Y-80972914D01*
X110309160Y-80972914D02*
X110356779Y-80877676D01*
X110356779Y-80877676D02*
X110452017Y-80782438D01*
X110452017Y-80782438D02*
X110594874Y-80734819D01*
X110594874Y-80734819D02*
X110690112Y-80734819D01*
X110690112Y-80734819D02*
X110832969Y-80782438D01*
X110832969Y-80782438D02*
X110880588Y-80830057D01*
X111785350Y-81734819D02*
X111309160Y-81734819D01*
X111309160Y-81734819D02*
X111309160Y-80734819D01*
X109376779Y-104631819D02*
X109376779Y-103631819D01*
X109376779Y-103631819D02*
X109757731Y-103631819D01*
X109757731Y-103631819D02*
X109852969Y-103679438D01*
X109852969Y-103679438D02*
X109900588Y-103727057D01*
X109900588Y-103727057D02*
X109948207Y-103822295D01*
X109948207Y-103822295D02*
X109948207Y-103965152D01*
X109948207Y-103965152D02*
X109900588Y-104060390D01*
X109900588Y-104060390D02*
X109852969Y-104108009D01*
X109852969Y-104108009D02*
X109757731Y-104155628D01*
X109757731Y-104155628D02*
X109376779Y-104155628D01*
X110329160Y-104346104D02*
X110805350Y-104346104D01*
X110233922Y-104631819D02*
X110567255Y-103631819D01*
X110567255Y-103631819D02*
X110900588Y-104631819D01*
X111662493Y-103965152D02*
X111662493Y-104631819D01*
X111424398Y-103584200D02*
X111186303Y-104298485D01*
X111186303Y-104298485D02*
X111805350Y-104298485D01*
X112900589Y-104346104D02*
X113376779Y-104346104D01*
X112805351Y-104631819D02*
X113138684Y-103631819D01*
X113138684Y-103631819D02*
X113472017Y-104631819D01*
X113662494Y-103631819D02*
X114233922Y-103631819D01*
X113948208Y-104631819D02*
X113948208Y-103631819D01*
X114519637Y-103727057D02*
X114567256Y-103679438D01*
X114567256Y-103679438D02*
X114662494Y-103631819D01*
X114662494Y-103631819D02*
X114900589Y-103631819D01*
X114900589Y-103631819D02*
X114995827Y-103679438D01*
X114995827Y-103679438D02*
X115043446Y-103727057D01*
X115043446Y-103727057D02*
X115091065Y-103822295D01*
X115091065Y-103822295D02*
X115091065Y-103917533D01*
X115091065Y-103917533D02*
X115043446Y-104060390D01*
X115043446Y-104060390D02*
X114472018Y-104631819D01*
X114472018Y-104631819D02*
X115091065Y-104631819D01*
X115995827Y-103631819D02*
X115519637Y-103631819D01*
X115519637Y-103631819D02*
X115472018Y-104108009D01*
X115472018Y-104108009D02*
X115519637Y-104060390D01*
X115519637Y-104060390D02*
X115614875Y-104012771D01*
X115614875Y-104012771D02*
X115852970Y-104012771D01*
X115852970Y-104012771D02*
X115948208Y-104060390D01*
X115948208Y-104060390D02*
X115995827Y-104108009D01*
X115995827Y-104108009D02*
X116043446Y-104203247D01*
X116043446Y-104203247D02*
X116043446Y-104441342D01*
X116043446Y-104441342D02*
X115995827Y-104536580D01*
X115995827Y-104536580D02*
X115948208Y-104584200D01*
X115948208Y-104584200D02*
X115852970Y-104631819D01*
X115852970Y-104631819D02*
X115614875Y-104631819D01*
X115614875Y-104631819D02*
X115519637Y-104584200D01*
X115519637Y-104584200D02*
X115472018Y-104536580D01*
X116233923Y-104727057D02*
X116995827Y-104727057D01*
X117233923Y-103965152D02*
X117233923Y-104631819D01*
X117233923Y-104060390D02*
X117281542Y-104012771D01*
X117281542Y-104012771D02*
X117376780Y-103965152D01*
X117376780Y-103965152D02*
X117519637Y-103965152D01*
X117519637Y-103965152D02*
X117614875Y-104012771D01*
X117614875Y-104012771D02*
X117662494Y-104108009D01*
X117662494Y-104108009D02*
X117662494Y-104631819D01*
X118710113Y-104536580D02*
X118662494Y-104584200D01*
X118662494Y-104584200D02*
X118519637Y-104631819D01*
X118519637Y-104631819D02*
X118424399Y-104631819D01*
X118424399Y-104631819D02*
X118281542Y-104584200D01*
X118281542Y-104584200D02*
X118186304Y-104488961D01*
X118186304Y-104488961D02*
X118138685Y-104393723D01*
X118138685Y-104393723D02*
X118091066Y-104203247D01*
X118091066Y-104203247D02*
X118091066Y-104060390D01*
X118091066Y-104060390D02*
X118138685Y-103869914D01*
X118138685Y-103869914D02*
X118186304Y-103774676D01*
X118186304Y-103774676D02*
X118281542Y-103679438D01*
X118281542Y-103679438D02*
X118424399Y-103631819D01*
X118424399Y-103631819D02*
X118519637Y-103631819D01*
X118519637Y-103631819D02*
X118662494Y-103679438D01*
X118662494Y-103679438D02*
X118710113Y-103727057D01*
X119091066Y-104584200D02*
X119233923Y-104631819D01*
X119233923Y-104631819D02*
X119472018Y-104631819D01*
X119472018Y-104631819D02*
X119567256Y-104584200D01*
X119567256Y-104584200D02*
X119614875Y-104536580D01*
X119614875Y-104536580D02*
X119662494Y-104441342D01*
X119662494Y-104441342D02*
X119662494Y-104346104D01*
X119662494Y-104346104D02*
X119614875Y-104250866D01*
X119614875Y-104250866D02*
X119567256Y-104203247D01*
X119567256Y-104203247D02*
X119472018Y-104155628D01*
X119472018Y-104155628D02*
X119281542Y-104108009D01*
X119281542Y-104108009D02*
X119186304Y-104060390D01*
X119186304Y-104060390D02*
X119138685Y-104012771D01*
X119138685Y-104012771D02*
X119091066Y-103917533D01*
X119091066Y-103917533D02*
X119091066Y-103822295D01*
X119091066Y-103822295D02*
X119138685Y-103727057D01*
X119138685Y-103727057D02*
X119186304Y-103679438D01*
X119186304Y-103679438D02*
X119281542Y-103631819D01*
X119281542Y-103631819D02*
X119519637Y-103631819D01*
X119519637Y-103631819D02*
X119662494Y-103679438D01*
X109409160Y-84227200D02*
X109552017Y-84274819D01*
X109552017Y-84274819D02*
X109790112Y-84274819D01*
X109790112Y-84274819D02*
X109885350Y-84227200D01*
X109885350Y-84227200D02*
X109932969Y-84179580D01*
X109932969Y-84179580D02*
X109980588Y-84084342D01*
X109980588Y-84084342D02*
X109980588Y-83989104D01*
X109980588Y-83989104D02*
X109932969Y-83893866D01*
X109932969Y-83893866D02*
X109885350Y-83846247D01*
X109885350Y-83846247D02*
X109790112Y-83798628D01*
X109790112Y-83798628D02*
X109599636Y-83751009D01*
X109599636Y-83751009D02*
X109504398Y-83703390D01*
X109504398Y-83703390D02*
X109456779Y-83655771D01*
X109456779Y-83655771D02*
X109409160Y-83560533D01*
X109409160Y-83560533D02*
X109409160Y-83465295D01*
X109409160Y-83465295D02*
X109456779Y-83370057D01*
X109456779Y-83370057D02*
X109504398Y-83322438D01*
X109504398Y-83322438D02*
X109599636Y-83274819D01*
X109599636Y-83274819D02*
X109837731Y-83274819D01*
X109837731Y-83274819D02*
X109980588Y-83322438D01*
X110409160Y-84274819D02*
X110409160Y-83274819D01*
X110409160Y-83274819D02*
X110647255Y-83274819D01*
X110647255Y-83274819D02*
X110790112Y-83322438D01*
X110790112Y-83322438D02*
X110885350Y-83417676D01*
X110885350Y-83417676D02*
X110932969Y-83512914D01*
X110932969Y-83512914D02*
X110980588Y-83703390D01*
X110980588Y-83703390D02*
X110980588Y-83846247D01*
X110980588Y-83846247D02*
X110932969Y-84036723D01*
X110932969Y-84036723D02*
X110885350Y-84131961D01*
X110885350Y-84131961D02*
X110790112Y-84227200D01*
X110790112Y-84227200D02*
X110647255Y-84274819D01*
X110647255Y-84274819D02*
X110409160Y-84274819D01*
X111361541Y-83989104D02*
X111837731Y-83989104D01*
X111266303Y-84274819D02*
X111599636Y-83274819D01*
X111599636Y-83274819D02*
X111932969Y-84274819D01*
X109556779Y-76654819D02*
X109556779Y-75654819D01*
X109556779Y-75654819D02*
X109937731Y-75654819D01*
X109937731Y-75654819D02*
X110032969Y-75702438D01*
X110032969Y-75702438D02*
X110080588Y-75750057D01*
X110080588Y-75750057D02*
X110128207Y-75845295D01*
X110128207Y-75845295D02*
X110128207Y-75988152D01*
X110128207Y-75988152D02*
X110080588Y-76083390D01*
X110080588Y-76083390D02*
X110032969Y-76131009D01*
X110032969Y-76131009D02*
X109937731Y-76178628D01*
X109937731Y-76178628D02*
X109556779Y-76178628D01*
X110890112Y-76131009D02*
X111032969Y-76178628D01*
X111032969Y-76178628D02*
X111080588Y-76226247D01*
X111080588Y-76226247D02*
X111128207Y-76321485D01*
X111128207Y-76321485D02*
X111128207Y-76464342D01*
X111128207Y-76464342D02*
X111080588Y-76559580D01*
X111080588Y-76559580D02*
X111032969Y-76607200D01*
X111032969Y-76607200D02*
X110937731Y-76654819D01*
X110937731Y-76654819D02*
X110556779Y-76654819D01*
X110556779Y-76654819D02*
X110556779Y-75654819D01*
X110556779Y-75654819D02*
X110890112Y-75654819D01*
X110890112Y-75654819D02*
X110985350Y-75702438D01*
X110985350Y-75702438D02*
X111032969Y-75750057D01*
X111032969Y-75750057D02*
X111080588Y-75845295D01*
X111080588Y-75845295D02*
X111080588Y-75940533D01*
X111080588Y-75940533D02*
X111032969Y-76035771D01*
X111032969Y-76035771D02*
X110985350Y-76083390D01*
X110985350Y-76083390D02*
X110890112Y-76131009D01*
X110890112Y-76131009D02*
X110556779Y-76131009D01*
X111985350Y-75988152D02*
X111985350Y-76654819D01*
X111747255Y-75607200D02*
X111509160Y-76321485D01*
X111509160Y-76321485D02*
X112128207Y-76321485D01*
X113747255Y-76654819D02*
X113271065Y-76654819D01*
X113271065Y-76654819D02*
X113271065Y-75654819D01*
X114032970Y-76607200D02*
X114175827Y-76654819D01*
X114175827Y-76654819D02*
X114413922Y-76654819D01*
X114413922Y-76654819D02*
X114509160Y-76607200D01*
X114509160Y-76607200D02*
X114556779Y-76559580D01*
X114556779Y-76559580D02*
X114604398Y-76464342D01*
X114604398Y-76464342D02*
X114604398Y-76369104D01*
X114604398Y-76369104D02*
X114556779Y-76273866D01*
X114556779Y-76273866D02*
X114509160Y-76226247D01*
X114509160Y-76226247D02*
X114413922Y-76178628D01*
X114413922Y-76178628D02*
X114223446Y-76131009D01*
X114223446Y-76131009D02*
X114128208Y-76083390D01*
X114128208Y-76083390D02*
X114080589Y-76035771D01*
X114080589Y-76035771D02*
X114032970Y-75940533D01*
X114032970Y-75940533D02*
X114032970Y-75845295D01*
X114032970Y-75845295D02*
X114080589Y-75750057D01*
X114080589Y-75750057D02*
X114128208Y-75702438D01*
X114128208Y-75702438D02*
X114223446Y-75654819D01*
X114223446Y-75654819D02*
X114461541Y-75654819D01*
X114461541Y-75654819D02*
X114604398Y-75702438D01*
X115032970Y-76654819D02*
X115032970Y-75654819D01*
X115032970Y-75654819D02*
X115366303Y-76369104D01*
X115366303Y-76369104D02*
X115699636Y-75654819D01*
X115699636Y-75654819D02*
X115699636Y-76654819D01*
X115937732Y-76750057D02*
X116699636Y-76750057D01*
X116794875Y-75654819D02*
X117366303Y-75654819D01*
X117080589Y-76654819D02*
X117080589Y-75654819D01*
X118271065Y-76654819D02*
X117937732Y-76178628D01*
X117699637Y-76654819D02*
X117699637Y-75654819D01*
X117699637Y-75654819D02*
X118080589Y-75654819D01*
X118080589Y-75654819D02*
X118175827Y-75702438D01*
X118175827Y-75702438D02*
X118223446Y-75750057D01*
X118223446Y-75750057D02*
X118271065Y-75845295D01*
X118271065Y-75845295D02*
X118271065Y-75988152D01*
X118271065Y-75988152D02*
X118223446Y-76083390D01*
X118223446Y-76083390D02*
X118175827Y-76131009D01*
X118175827Y-76131009D02*
X118080589Y-76178628D01*
X118080589Y-76178628D02*
X117699637Y-76178628D01*
X119223446Y-75702438D02*
X119128208Y-75654819D01*
X119128208Y-75654819D02*
X118985351Y-75654819D01*
X118985351Y-75654819D02*
X118842494Y-75702438D01*
X118842494Y-75702438D02*
X118747256Y-75797676D01*
X118747256Y-75797676D02*
X118699637Y-75892914D01*
X118699637Y-75892914D02*
X118652018Y-76083390D01*
X118652018Y-76083390D02*
X118652018Y-76226247D01*
X118652018Y-76226247D02*
X118699637Y-76416723D01*
X118699637Y-76416723D02*
X118747256Y-76511961D01*
X118747256Y-76511961D02*
X118842494Y-76607200D01*
X118842494Y-76607200D02*
X118985351Y-76654819D01*
X118985351Y-76654819D02*
X119080589Y-76654819D01*
X119080589Y-76654819D02*
X119223446Y-76607200D01*
X119223446Y-76607200D02*
X119271065Y-76559580D01*
X119271065Y-76559580D02*
X119271065Y-76226247D01*
X119271065Y-76226247D02*
X119080589Y-76226247D01*
X109556779Y-79194819D02*
X109556779Y-78194819D01*
X109556779Y-78194819D02*
X109937731Y-78194819D01*
X109937731Y-78194819D02*
X110032969Y-78242438D01*
X110032969Y-78242438D02*
X110080588Y-78290057D01*
X110080588Y-78290057D02*
X110128207Y-78385295D01*
X110128207Y-78385295D02*
X110128207Y-78528152D01*
X110128207Y-78528152D02*
X110080588Y-78623390D01*
X110080588Y-78623390D02*
X110032969Y-78671009D01*
X110032969Y-78671009D02*
X109937731Y-78718628D01*
X109937731Y-78718628D02*
X109556779Y-78718628D01*
X110890112Y-78671009D02*
X111032969Y-78718628D01*
X111032969Y-78718628D02*
X111080588Y-78766247D01*
X111080588Y-78766247D02*
X111128207Y-78861485D01*
X111128207Y-78861485D02*
X111128207Y-79004342D01*
X111128207Y-79004342D02*
X111080588Y-79099580D01*
X111080588Y-79099580D02*
X111032969Y-79147200D01*
X111032969Y-79147200D02*
X110937731Y-79194819D01*
X110937731Y-79194819D02*
X110556779Y-79194819D01*
X110556779Y-79194819D02*
X110556779Y-78194819D01*
X110556779Y-78194819D02*
X110890112Y-78194819D01*
X110890112Y-78194819D02*
X110985350Y-78242438D01*
X110985350Y-78242438D02*
X111032969Y-78290057D01*
X111032969Y-78290057D02*
X111080588Y-78385295D01*
X111080588Y-78385295D02*
X111080588Y-78480533D01*
X111080588Y-78480533D02*
X111032969Y-78575771D01*
X111032969Y-78575771D02*
X110985350Y-78623390D01*
X110985350Y-78623390D02*
X110890112Y-78671009D01*
X110890112Y-78671009D02*
X110556779Y-78671009D01*
X112032969Y-78194819D02*
X111556779Y-78194819D01*
X111556779Y-78194819D02*
X111509160Y-78671009D01*
X111509160Y-78671009D02*
X111556779Y-78623390D01*
X111556779Y-78623390D02*
X111652017Y-78575771D01*
X111652017Y-78575771D02*
X111890112Y-78575771D01*
X111890112Y-78575771D02*
X111985350Y-78623390D01*
X111985350Y-78623390D02*
X112032969Y-78671009D01*
X112032969Y-78671009D02*
X112080588Y-78766247D01*
X112080588Y-78766247D02*
X112080588Y-79004342D01*
X112080588Y-79004342D02*
X112032969Y-79099580D01*
X112032969Y-79099580D02*
X111985350Y-79147200D01*
X111985350Y-79147200D02*
X111890112Y-79194819D01*
X111890112Y-79194819D02*
X111652017Y-79194819D01*
X111652017Y-79194819D02*
X111556779Y-79147200D01*
X111556779Y-79147200D02*
X111509160Y-79099580D01*
X113604398Y-78671009D02*
X113747255Y-78718628D01*
X113747255Y-78718628D02*
X113794874Y-78766247D01*
X113794874Y-78766247D02*
X113842493Y-78861485D01*
X113842493Y-78861485D02*
X113842493Y-79004342D01*
X113842493Y-79004342D02*
X113794874Y-79099580D01*
X113794874Y-79099580D02*
X113747255Y-79147200D01*
X113747255Y-79147200D02*
X113652017Y-79194819D01*
X113652017Y-79194819D02*
X113271065Y-79194819D01*
X113271065Y-79194819D02*
X113271065Y-78194819D01*
X113271065Y-78194819D02*
X113604398Y-78194819D01*
X113604398Y-78194819D02*
X113699636Y-78242438D01*
X113699636Y-78242438D02*
X113747255Y-78290057D01*
X113747255Y-78290057D02*
X113794874Y-78385295D01*
X113794874Y-78385295D02*
X113794874Y-78480533D01*
X113794874Y-78480533D02*
X113747255Y-78575771D01*
X113747255Y-78575771D02*
X113699636Y-78623390D01*
X113699636Y-78623390D02*
X113604398Y-78671009D01*
X113604398Y-78671009D02*
X113271065Y-78671009D01*
X114271065Y-79194819D02*
X114271065Y-78194819D01*
X114271065Y-78194819D02*
X114604398Y-78909104D01*
X114604398Y-78909104D02*
X114937731Y-78194819D01*
X114937731Y-78194819D02*
X114937731Y-79194819D01*
X115413922Y-79194819D02*
X115413922Y-78194819D01*
X115413922Y-78194819D02*
X115747255Y-78909104D01*
X115747255Y-78909104D02*
X116080588Y-78194819D01*
X116080588Y-78194819D02*
X116080588Y-79194819D01*
X116318684Y-79290057D02*
X117080588Y-79290057D01*
X117318684Y-79194819D02*
X117318684Y-78194819D01*
X117794874Y-79194819D02*
X117794874Y-78194819D01*
X117794874Y-78194819D02*
X118366302Y-79194819D01*
X118366302Y-79194819D02*
X118366302Y-78194819D01*
X118699636Y-78194819D02*
X119271064Y-78194819D01*
X118985350Y-79194819D02*
X118985350Y-78194819D01*
X109556779Y-86854819D02*
X109556779Y-85854819D01*
X109556779Y-85854819D02*
X110128207Y-86854819D01*
X110128207Y-86854819D02*
X110128207Y-85854819D01*
X111175826Y-86759580D02*
X111128207Y-86807200D01*
X111128207Y-86807200D02*
X110985350Y-86854819D01*
X110985350Y-86854819D02*
X110890112Y-86854819D01*
X110890112Y-86854819D02*
X110747255Y-86807200D01*
X110747255Y-86807200D02*
X110652017Y-86711961D01*
X110652017Y-86711961D02*
X110604398Y-86616723D01*
X110604398Y-86616723D02*
X110556779Y-86426247D01*
X110556779Y-86426247D02*
X110556779Y-86283390D01*
X110556779Y-86283390D02*
X110604398Y-86092914D01*
X110604398Y-86092914D02*
X110652017Y-85997676D01*
X110652017Y-85997676D02*
X110747255Y-85902438D01*
X110747255Y-85902438D02*
X110890112Y-85854819D01*
X110890112Y-85854819D02*
X110985350Y-85854819D01*
X110985350Y-85854819D02*
X111128207Y-85902438D01*
X111128207Y-85902438D02*
X111175826Y-85950057D01*
X109556779Y-89354819D02*
X109556779Y-88354819D01*
X109556779Y-88354819D02*
X110128207Y-89354819D01*
X110128207Y-89354819D02*
X110128207Y-88354819D01*
X111175826Y-89259580D02*
X111128207Y-89307200D01*
X111128207Y-89307200D02*
X110985350Y-89354819D01*
X110985350Y-89354819D02*
X110890112Y-89354819D01*
X110890112Y-89354819D02*
X110747255Y-89307200D01*
X110747255Y-89307200D02*
X110652017Y-89211961D01*
X110652017Y-89211961D02*
X110604398Y-89116723D01*
X110604398Y-89116723D02*
X110556779Y-88926247D01*
X110556779Y-88926247D02*
X110556779Y-88783390D01*
X110556779Y-88783390D02*
X110604398Y-88592914D01*
X110604398Y-88592914D02*
X110652017Y-88497676D01*
X110652017Y-88497676D02*
X110747255Y-88402438D01*
X110747255Y-88402438D02*
X110890112Y-88354819D01*
X110890112Y-88354819D02*
X110985350Y-88354819D01*
X110985350Y-88354819D02*
X111128207Y-88402438D01*
X111128207Y-88402438D02*
X111175826Y-88450057D01*
X109556779Y-94434819D02*
X109556779Y-93434819D01*
X109556779Y-93434819D02*
X109937731Y-93434819D01*
X109937731Y-93434819D02*
X110032969Y-93482438D01*
X110032969Y-93482438D02*
X110080588Y-93530057D01*
X110080588Y-93530057D02*
X110128207Y-93625295D01*
X110128207Y-93625295D02*
X110128207Y-93768152D01*
X110128207Y-93768152D02*
X110080588Y-93863390D01*
X110080588Y-93863390D02*
X110032969Y-93911009D01*
X110032969Y-93911009D02*
X109937731Y-93958628D01*
X109937731Y-93958628D02*
X109556779Y-93958628D01*
X110509160Y-94149104D02*
X110985350Y-94149104D01*
X110413922Y-94434819D02*
X110747255Y-93434819D01*
X110747255Y-93434819D02*
X111080588Y-94434819D01*
X111604398Y-93434819D02*
X111699636Y-93434819D01*
X111699636Y-93434819D02*
X111794874Y-93482438D01*
X111794874Y-93482438D02*
X111842493Y-93530057D01*
X111842493Y-93530057D02*
X111890112Y-93625295D01*
X111890112Y-93625295D02*
X111937731Y-93815771D01*
X111937731Y-93815771D02*
X111937731Y-94053866D01*
X111937731Y-94053866D02*
X111890112Y-94244342D01*
X111890112Y-94244342D02*
X111842493Y-94339580D01*
X111842493Y-94339580D02*
X111794874Y-94387200D01*
X111794874Y-94387200D02*
X111699636Y-94434819D01*
X111699636Y-94434819D02*
X111604398Y-94434819D01*
X111604398Y-94434819D02*
X111509160Y-94387200D01*
X111509160Y-94387200D02*
X111461541Y-94339580D01*
X111461541Y-94339580D02*
X111413922Y-94244342D01*
X111413922Y-94244342D02*
X111366303Y-94053866D01*
X111366303Y-94053866D02*
X111366303Y-93815771D01*
X111366303Y-93815771D02*
X111413922Y-93625295D01*
X111413922Y-93625295D02*
X111461541Y-93530057D01*
X111461541Y-93530057D02*
X111509160Y-93482438D01*
X111509160Y-93482438D02*
X111604398Y-93434819D01*
X113032970Y-93434819D02*
X113271065Y-94434819D01*
X113271065Y-94434819D02*
X113461541Y-93720533D01*
X113461541Y-93720533D02*
X113652017Y-94434819D01*
X113652017Y-94434819D02*
X113890113Y-93434819D01*
X114271065Y-94434819D02*
X114271065Y-93434819D01*
X114842493Y-94434819D02*
X114413922Y-93863390D01*
X114842493Y-93434819D02*
X114271065Y-94006247D01*
X115271065Y-93434819D02*
X115271065Y-94244342D01*
X115271065Y-94244342D02*
X115318684Y-94339580D01*
X115318684Y-94339580D02*
X115366303Y-94387200D01*
X115366303Y-94387200D02*
X115461541Y-94434819D01*
X115461541Y-94434819D02*
X115652017Y-94434819D01*
X115652017Y-94434819D02*
X115747255Y-94387200D01*
X115747255Y-94387200D02*
X115794874Y-94339580D01*
X115794874Y-94339580D02*
X115842493Y-94244342D01*
X115842493Y-94244342D02*
X115842493Y-93434819D01*
X116318684Y-94434819D02*
X116318684Y-93434819D01*
X116318684Y-93434819D02*
X116699636Y-93434819D01*
X116699636Y-93434819D02*
X116794874Y-93482438D01*
X116794874Y-93482438D02*
X116842493Y-93530057D01*
X116842493Y-93530057D02*
X116890112Y-93625295D01*
X116890112Y-93625295D02*
X116890112Y-93768152D01*
X116890112Y-93768152D02*
X116842493Y-93863390D01*
X116842493Y-93863390D02*
X116794874Y-93911009D01*
X116794874Y-93911009D02*
X116699636Y-93958628D01*
X116699636Y-93958628D02*
X116318684Y-93958628D01*
X117842493Y-94434819D02*
X117271065Y-94434819D01*
X117556779Y-94434819D02*
X117556779Y-93434819D01*
X117556779Y-93434819D02*
X117461541Y-93577676D01*
X117461541Y-93577676D02*
X117366303Y-93672914D01*
X117366303Y-93672914D02*
X117271065Y-93720533D01*
X109556779Y-99514819D02*
X109556779Y-98514819D01*
X109556779Y-98514819D02*
X109937731Y-98514819D01*
X109937731Y-98514819D02*
X110032969Y-98562438D01*
X110032969Y-98562438D02*
X110080588Y-98610057D01*
X110080588Y-98610057D02*
X110128207Y-98705295D01*
X110128207Y-98705295D02*
X110128207Y-98848152D01*
X110128207Y-98848152D02*
X110080588Y-98943390D01*
X110080588Y-98943390D02*
X110032969Y-98991009D01*
X110032969Y-98991009D02*
X109937731Y-99038628D01*
X109937731Y-99038628D02*
X109556779Y-99038628D01*
X110509160Y-99229104D02*
X110985350Y-99229104D01*
X110413922Y-99514819D02*
X110747255Y-98514819D01*
X110747255Y-98514819D02*
X111080588Y-99514819D01*
X111366303Y-98610057D02*
X111413922Y-98562438D01*
X111413922Y-98562438D02*
X111509160Y-98514819D01*
X111509160Y-98514819D02*
X111747255Y-98514819D01*
X111747255Y-98514819D02*
X111842493Y-98562438D01*
X111842493Y-98562438D02*
X111890112Y-98610057D01*
X111890112Y-98610057D02*
X111937731Y-98705295D01*
X111937731Y-98705295D02*
X111937731Y-98800533D01*
X111937731Y-98800533D02*
X111890112Y-98943390D01*
X111890112Y-98943390D02*
X111318684Y-99514819D01*
X111318684Y-99514819D02*
X111937731Y-99514819D01*
X109556779Y-102054819D02*
X109556779Y-101054819D01*
X109556779Y-101054819D02*
X109937731Y-101054819D01*
X109937731Y-101054819D02*
X110032969Y-101102438D01*
X110032969Y-101102438D02*
X110080588Y-101150057D01*
X110080588Y-101150057D02*
X110128207Y-101245295D01*
X110128207Y-101245295D02*
X110128207Y-101388152D01*
X110128207Y-101388152D02*
X110080588Y-101483390D01*
X110080588Y-101483390D02*
X110032969Y-101531009D01*
X110032969Y-101531009D02*
X109937731Y-101578628D01*
X109937731Y-101578628D02*
X109556779Y-101578628D01*
X110509160Y-101769104D02*
X110985350Y-101769104D01*
X110413922Y-102054819D02*
X110747255Y-101054819D01*
X110747255Y-101054819D02*
X111080588Y-102054819D01*
X111318684Y-101054819D02*
X111937731Y-101054819D01*
X111937731Y-101054819D02*
X111604398Y-101435771D01*
X111604398Y-101435771D02*
X111747255Y-101435771D01*
X111747255Y-101435771D02*
X111842493Y-101483390D01*
X111842493Y-101483390D02*
X111890112Y-101531009D01*
X111890112Y-101531009D02*
X111937731Y-101626247D01*
X111937731Y-101626247D02*
X111937731Y-101864342D01*
X111937731Y-101864342D02*
X111890112Y-101959580D01*
X111890112Y-101959580D02*
X111842493Y-102007200D01*
X111842493Y-102007200D02*
X111747255Y-102054819D01*
X111747255Y-102054819D02*
X111461541Y-102054819D01*
X111461541Y-102054819D02*
X111366303Y-102007200D01*
X111366303Y-102007200D02*
X111318684Y-101959580D01*
X109556779Y-107134819D02*
X109556779Y-106134819D01*
X109556779Y-106134819D02*
X109937731Y-106134819D01*
X109937731Y-106134819D02*
X110032969Y-106182438D01*
X110032969Y-106182438D02*
X110080588Y-106230057D01*
X110080588Y-106230057D02*
X110128207Y-106325295D01*
X110128207Y-106325295D02*
X110128207Y-106468152D01*
X110128207Y-106468152D02*
X110080588Y-106563390D01*
X110080588Y-106563390D02*
X110032969Y-106611009D01*
X110032969Y-106611009D02*
X109937731Y-106658628D01*
X109937731Y-106658628D02*
X109556779Y-106658628D01*
X110509160Y-106849104D02*
X110985350Y-106849104D01*
X110413922Y-107134819D02*
X110747255Y-106134819D01*
X110747255Y-106134819D02*
X111080588Y-107134819D01*
X111890112Y-106134819D02*
X111413922Y-106134819D01*
X111413922Y-106134819D02*
X111366303Y-106611009D01*
X111366303Y-106611009D02*
X111413922Y-106563390D01*
X111413922Y-106563390D02*
X111509160Y-106515771D01*
X111509160Y-106515771D02*
X111747255Y-106515771D01*
X111747255Y-106515771D02*
X111842493Y-106563390D01*
X111842493Y-106563390D02*
X111890112Y-106611009D01*
X111890112Y-106611009D02*
X111937731Y-106706247D01*
X111937731Y-106706247D02*
X111937731Y-106944342D01*
X111937731Y-106944342D02*
X111890112Y-107039580D01*
X111890112Y-107039580D02*
X111842493Y-107087200D01*
X111842493Y-107087200D02*
X111747255Y-107134819D01*
X111747255Y-107134819D02*
X111509160Y-107134819D01*
X111509160Y-107134819D02*
X111413922Y-107087200D01*
X111413922Y-107087200D02*
X111366303Y-107039580D01*
X113080589Y-106849104D02*
X113556779Y-106849104D01*
X112985351Y-107134819D02*
X113318684Y-106134819D01*
X113318684Y-106134819D02*
X113652017Y-107134819D01*
X113842494Y-106134819D02*
X114413922Y-106134819D01*
X114128208Y-107134819D02*
X114128208Y-106134819D01*
X114699637Y-106230057D02*
X114747256Y-106182438D01*
X114747256Y-106182438D02*
X114842494Y-106134819D01*
X114842494Y-106134819D02*
X115080589Y-106134819D01*
X115080589Y-106134819D02*
X115175827Y-106182438D01*
X115175827Y-106182438D02*
X115223446Y-106230057D01*
X115223446Y-106230057D02*
X115271065Y-106325295D01*
X115271065Y-106325295D02*
X115271065Y-106420533D01*
X115271065Y-106420533D02*
X115223446Y-106563390D01*
X115223446Y-106563390D02*
X114652018Y-107134819D01*
X114652018Y-107134819D02*
X115271065Y-107134819D01*
X116175827Y-106134819D02*
X115699637Y-106134819D01*
X115699637Y-106134819D02*
X115652018Y-106611009D01*
X115652018Y-106611009D02*
X115699637Y-106563390D01*
X115699637Y-106563390D02*
X115794875Y-106515771D01*
X115794875Y-106515771D02*
X116032970Y-106515771D01*
X116032970Y-106515771D02*
X116128208Y-106563390D01*
X116128208Y-106563390D02*
X116175827Y-106611009D01*
X116175827Y-106611009D02*
X116223446Y-106706247D01*
X116223446Y-106706247D02*
X116223446Y-106944342D01*
X116223446Y-106944342D02*
X116175827Y-107039580D01*
X116175827Y-107039580D02*
X116128208Y-107087200D01*
X116128208Y-107087200D02*
X116032970Y-107134819D01*
X116032970Y-107134819D02*
X115794875Y-107134819D01*
X115794875Y-107134819D02*
X115699637Y-107087200D01*
X115699637Y-107087200D02*
X115652018Y-107039580D01*
X116413923Y-107230057D02*
X117175827Y-107230057D01*
X117366304Y-107087200D02*
X117509161Y-107134819D01*
X117509161Y-107134819D02*
X117747256Y-107134819D01*
X117747256Y-107134819D02*
X117842494Y-107087200D01*
X117842494Y-107087200D02*
X117890113Y-107039580D01*
X117890113Y-107039580D02*
X117937732Y-106944342D01*
X117937732Y-106944342D02*
X117937732Y-106849104D01*
X117937732Y-106849104D02*
X117890113Y-106753866D01*
X117890113Y-106753866D02*
X117842494Y-106706247D01*
X117842494Y-106706247D02*
X117747256Y-106658628D01*
X117747256Y-106658628D02*
X117556780Y-106611009D01*
X117556780Y-106611009D02*
X117461542Y-106563390D01*
X117461542Y-106563390D02*
X117413923Y-106515771D01*
X117413923Y-106515771D02*
X117366304Y-106420533D01*
X117366304Y-106420533D02*
X117366304Y-106325295D01*
X117366304Y-106325295D02*
X117413923Y-106230057D01*
X117413923Y-106230057D02*
X117461542Y-106182438D01*
X117461542Y-106182438D02*
X117556780Y-106134819D01*
X117556780Y-106134819D02*
X117794875Y-106134819D01*
X117794875Y-106134819D02*
X117937732Y-106182438D01*
X118937732Y-107039580D02*
X118890113Y-107087200D01*
X118890113Y-107087200D02*
X118747256Y-107134819D01*
X118747256Y-107134819D02*
X118652018Y-107134819D01*
X118652018Y-107134819D02*
X118509161Y-107087200D01*
X118509161Y-107087200D02*
X118413923Y-106991961D01*
X118413923Y-106991961D02*
X118366304Y-106896723D01*
X118366304Y-106896723D02*
X118318685Y-106706247D01*
X118318685Y-106706247D02*
X118318685Y-106563390D01*
X118318685Y-106563390D02*
X118366304Y-106372914D01*
X118366304Y-106372914D02*
X118413923Y-106277676D01*
X118413923Y-106277676D02*
X118509161Y-106182438D01*
X118509161Y-106182438D02*
X118652018Y-106134819D01*
X118652018Y-106134819D02*
X118747256Y-106134819D01*
X118747256Y-106134819D02*
X118890113Y-106182438D01*
X118890113Y-106182438D02*
X118937732Y-106230057D01*
X119366304Y-107134819D02*
X119366304Y-106134819D01*
X119937732Y-107134819D02*
X119509161Y-106563390D01*
X119937732Y-106134819D02*
X119366304Y-106706247D01*
X109556779Y-109674819D02*
X109556779Y-108674819D01*
X109556779Y-108674819D02*
X109937731Y-108674819D01*
X109937731Y-108674819D02*
X110032969Y-108722438D01*
X110032969Y-108722438D02*
X110080588Y-108770057D01*
X110080588Y-108770057D02*
X110128207Y-108865295D01*
X110128207Y-108865295D02*
X110128207Y-109008152D01*
X110128207Y-109008152D02*
X110080588Y-109103390D01*
X110080588Y-109103390D02*
X110032969Y-109151009D01*
X110032969Y-109151009D02*
X109937731Y-109198628D01*
X109937731Y-109198628D02*
X109556779Y-109198628D01*
X110509160Y-109389104D02*
X110985350Y-109389104D01*
X110413922Y-109674819D02*
X110747255Y-108674819D01*
X110747255Y-108674819D02*
X111080588Y-109674819D01*
X111842493Y-108674819D02*
X111652017Y-108674819D01*
X111652017Y-108674819D02*
X111556779Y-108722438D01*
X111556779Y-108722438D02*
X111509160Y-108770057D01*
X111509160Y-108770057D02*
X111413922Y-108912914D01*
X111413922Y-108912914D02*
X111366303Y-109103390D01*
X111366303Y-109103390D02*
X111366303Y-109484342D01*
X111366303Y-109484342D02*
X111413922Y-109579580D01*
X111413922Y-109579580D02*
X111461541Y-109627200D01*
X111461541Y-109627200D02*
X111556779Y-109674819D01*
X111556779Y-109674819D02*
X111747255Y-109674819D01*
X111747255Y-109674819D02*
X111842493Y-109627200D01*
X111842493Y-109627200D02*
X111890112Y-109579580D01*
X111890112Y-109579580D02*
X111937731Y-109484342D01*
X111937731Y-109484342D02*
X111937731Y-109246247D01*
X111937731Y-109246247D02*
X111890112Y-109151009D01*
X111890112Y-109151009D02*
X111842493Y-109103390D01*
X111842493Y-109103390D02*
X111747255Y-109055771D01*
X111747255Y-109055771D02*
X111556779Y-109055771D01*
X111556779Y-109055771D02*
X111461541Y-109103390D01*
X111461541Y-109103390D02*
X111413922Y-109151009D01*
X111413922Y-109151009D02*
X111366303Y-109246247D01*
X113604398Y-109674819D02*
X113128208Y-109674819D01*
X113128208Y-109674819D02*
X113128208Y-108674819D01*
X113890113Y-109627200D02*
X114032970Y-109674819D01*
X114032970Y-109674819D02*
X114271065Y-109674819D01*
X114271065Y-109674819D02*
X114366303Y-109627200D01*
X114366303Y-109627200D02*
X114413922Y-109579580D01*
X114413922Y-109579580D02*
X114461541Y-109484342D01*
X114461541Y-109484342D02*
X114461541Y-109389104D01*
X114461541Y-109389104D02*
X114413922Y-109293866D01*
X114413922Y-109293866D02*
X114366303Y-109246247D01*
X114366303Y-109246247D02*
X114271065Y-109198628D01*
X114271065Y-109198628D02*
X114080589Y-109151009D01*
X114080589Y-109151009D02*
X113985351Y-109103390D01*
X113985351Y-109103390D02*
X113937732Y-109055771D01*
X113937732Y-109055771D02*
X113890113Y-108960533D01*
X113890113Y-108960533D02*
X113890113Y-108865295D01*
X113890113Y-108865295D02*
X113937732Y-108770057D01*
X113937732Y-108770057D02*
X113985351Y-108722438D01*
X113985351Y-108722438D02*
X114080589Y-108674819D01*
X114080589Y-108674819D02*
X114318684Y-108674819D01*
X114318684Y-108674819D02*
X114461541Y-108722438D01*
X114890113Y-109674819D02*
X114890113Y-108674819D01*
X114890113Y-108674819D02*
X115223446Y-109389104D01*
X115223446Y-109389104D02*
X115556779Y-108674819D01*
X115556779Y-108674819D02*
X115556779Y-109674819D01*
X115794875Y-109770057D02*
X116556779Y-109770057D01*
X116794875Y-109674819D02*
X116794875Y-108674819D01*
X116794875Y-108674819D02*
X117128208Y-109389104D01*
X117128208Y-109389104D02*
X117461541Y-108674819D01*
X117461541Y-108674819D02*
X117461541Y-109674819D01*
X117937732Y-109674819D02*
X117937732Y-108674819D01*
X118366303Y-109627200D02*
X118509160Y-109674819D01*
X118509160Y-109674819D02*
X118747255Y-109674819D01*
X118747255Y-109674819D02*
X118842493Y-109627200D01*
X118842493Y-109627200D02*
X118890112Y-109579580D01*
X118890112Y-109579580D02*
X118937731Y-109484342D01*
X118937731Y-109484342D02*
X118937731Y-109389104D01*
X118937731Y-109389104D02*
X118890112Y-109293866D01*
X118890112Y-109293866D02*
X118842493Y-109246247D01*
X118842493Y-109246247D02*
X118747255Y-109198628D01*
X118747255Y-109198628D02*
X118556779Y-109151009D01*
X118556779Y-109151009D02*
X118461541Y-109103390D01*
X118461541Y-109103390D02*
X118413922Y-109055771D01*
X118413922Y-109055771D02*
X118366303Y-108960533D01*
X118366303Y-108960533D02*
X118366303Y-108865295D01*
X118366303Y-108865295D02*
X118413922Y-108770057D01*
X118413922Y-108770057D02*
X118461541Y-108722438D01*
X118461541Y-108722438D02*
X118556779Y-108674819D01*
X118556779Y-108674819D02*
X118794874Y-108674819D01*
X118794874Y-108674819D02*
X118937731Y-108722438D01*
X119556779Y-108674819D02*
X119747255Y-108674819D01*
X119747255Y-108674819D02*
X119842493Y-108722438D01*
X119842493Y-108722438D02*
X119937731Y-108817676D01*
X119937731Y-108817676D02*
X119985350Y-109008152D01*
X119985350Y-109008152D02*
X119985350Y-109341485D01*
X119985350Y-109341485D02*
X119937731Y-109531961D01*
X119937731Y-109531961D02*
X119842493Y-109627200D01*
X119842493Y-109627200D02*
X119747255Y-109674819D01*
X119747255Y-109674819D02*
X119556779Y-109674819D01*
X119556779Y-109674819D02*
X119461541Y-109627200D01*
X119461541Y-109627200D02*
X119366303Y-109531961D01*
X119366303Y-109531961D02*
X119318684Y-109341485D01*
X119318684Y-109341485D02*
X119318684Y-109008152D01*
X119318684Y-109008152D02*
X119366303Y-108817676D01*
X119366303Y-108817676D02*
X119461541Y-108722438D01*
X119461541Y-108722438D02*
X119556779Y-108674819D01*
X109556779Y-112214819D02*
X109556779Y-111214819D01*
X109556779Y-111214819D02*
X109937731Y-111214819D01*
X109937731Y-111214819D02*
X110032969Y-111262438D01*
X110032969Y-111262438D02*
X110080588Y-111310057D01*
X110080588Y-111310057D02*
X110128207Y-111405295D01*
X110128207Y-111405295D02*
X110128207Y-111548152D01*
X110128207Y-111548152D02*
X110080588Y-111643390D01*
X110080588Y-111643390D02*
X110032969Y-111691009D01*
X110032969Y-111691009D02*
X109937731Y-111738628D01*
X109937731Y-111738628D02*
X109556779Y-111738628D01*
X110509160Y-111929104D02*
X110985350Y-111929104D01*
X110413922Y-112214819D02*
X110747255Y-111214819D01*
X110747255Y-111214819D02*
X111080588Y-112214819D01*
X111318684Y-111214819D02*
X111985350Y-111214819D01*
X111985350Y-111214819D02*
X111556779Y-112214819D01*
X113604398Y-112214819D02*
X113128208Y-112214819D01*
X113128208Y-112214819D02*
X113128208Y-111214819D01*
X113890113Y-112167200D02*
X114032970Y-112214819D01*
X114032970Y-112214819D02*
X114271065Y-112214819D01*
X114271065Y-112214819D02*
X114366303Y-112167200D01*
X114366303Y-112167200D02*
X114413922Y-112119580D01*
X114413922Y-112119580D02*
X114461541Y-112024342D01*
X114461541Y-112024342D02*
X114461541Y-111929104D01*
X114461541Y-111929104D02*
X114413922Y-111833866D01*
X114413922Y-111833866D02*
X114366303Y-111786247D01*
X114366303Y-111786247D02*
X114271065Y-111738628D01*
X114271065Y-111738628D02*
X114080589Y-111691009D01*
X114080589Y-111691009D02*
X113985351Y-111643390D01*
X113985351Y-111643390D02*
X113937732Y-111595771D01*
X113937732Y-111595771D02*
X113890113Y-111500533D01*
X113890113Y-111500533D02*
X113890113Y-111405295D01*
X113890113Y-111405295D02*
X113937732Y-111310057D01*
X113937732Y-111310057D02*
X113985351Y-111262438D01*
X113985351Y-111262438D02*
X114080589Y-111214819D01*
X114080589Y-111214819D02*
X114318684Y-111214819D01*
X114318684Y-111214819D02*
X114461541Y-111262438D01*
X114890113Y-112214819D02*
X114890113Y-111214819D01*
X114890113Y-111214819D02*
X115223446Y-111929104D01*
X115223446Y-111929104D02*
X115556779Y-111214819D01*
X115556779Y-111214819D02*
X115556779Y-112214819D01*
X115794875Y-112310057D02*
X116556779Y-112310057D01*
X116794875Y-112214819D02*
X116794875Y-111214819D01*
X116794875Y-111214819D02*
X117128208Y-111929104D01*
X117128208Y-111929104D02*
X117461541Y-111214819D01*
X117461541Y-111214819D02*
X117461541Y-112214819D01*
X118128208Y-111214819D02*
X118318684Y-111214819D01*
X118318684Y-111214819D02*
X118413922Y-111262438D01*
X118413922Y-111262438D02*
X118509160Y-111357676D01*
X118509160Y-111357676D02*
X118556779Y-111548152D01*
X118556779Y-111548152D02*
X118556779Y-111881485D01*
X118556779Y-111881485D02*
X118509160Y-112071961D01*
X118509160Y-112071961D02*
X118413922Y-112167200D01*
X118413922Y-112167200D02*
X118318684Y-112214819D01*
X118318684Y-112214819D02*
X118128208Y-112214819D01*
X118128208Y-112214819D02*
X118032970Y-112167200D01*
X118032970Y-112167200D02*
X117937732Y-112071961D01*
X117937732Y-112071961D02*
X117890113Y-111881485D01*
X117890113Y-111881485D02*
X117890113Y-111548152D01*
X117890113Y-111548152D02*
X117937732Y-111357676D01*
X117937732Y-111357676D02*
X118032970Y-111262438D01*
X118032970Y-111262438D02*
X118128208Y-111214819D01*
X118937732Y-112167200D02*
X119080589Y-112214819D01*
X119080589Y-112214819D02*
X119318684Y-112214819D01*
X119318684Y-112214819D02*
X119413922Y-112167200D01*
X119413922Y-112167200D02*
X119461541Y-112119580D01*
X119461541Y-112119580D02*
X119509160Y-112024342D01*
X119509160Y-112024342D02*
X119509160Y-111929104D01*
X119509160Y-111929104D02*
X119461541Y-111833866D01*
X119461541Y-111833866D02*
X119413922Y-111786247D01*
X119413922Y-111786247D02*
X119318684Y-111738628D01*
X119318684Y-111738628D02*
X119128208Y-111691009D01*
X119128208Y-111691009D02*
X119032970Y-111643390D01*
X119032970Y-111643390D02*
X118985351Y-111595771D01*
X118985351Y-111595771D02*
X118937732Y-111500533D01*
X118937732Y-111500533D02*
X118937732Y-111405295D01*
X118937732Y-111405295D02*
X118985351Y-111310057D01*
X118985351Y-111310057D02*
X119032970Y-111262438D01*
X119032970Y-111262438D02*
X119128208Y-111214819D01*
X119128208Y-111214819D02*
X119366303Y-111214819D01*
X119366303Y-111214819D02*
X119509160Y-111262438D01*
X119937732Y-112214819D02*
X119937732Y-111214819D01*
X109556779Y-114754819D02*
X109556779Y-113754819D01*
X109556779Y-113754819D02*
X109937731Y-113754819D01*
X109937731Y-113754819D02*
X110032969Y-113802438D01*
X110032969Y-113802438D02*
X110080588Y-113850057D01*
X110080588Y-113850057D02*
X110128207Y-113945295D01*
X110128207Y-113945295D02*
X110128207Y-114088152D01*
X110128207Y-114088152D02*
X110080588Y-114183390D01*
X110080588Y-114183390D02*
X110032969Y-114231009D01*
X110032969Y-114231009D02*
X109937731Y-114278628D01*
X109937731Y-114278628D02*
X109556779Y-114278628D01*
X110890112Y-114231009D02*
X111032969Y-114278628D01*
X111032969Y-114278628D02*
X111080588Y-114326247D01*
X111080588Y-114326247D02*
X111128207Y-114421485D01*
X111128207Y-114421485D02*
X111128207Y-114564342D01*
X111128207Y-114564342D02*
X111080588Y-114659580D01*
X111080588Y-114659580D02*
X111032969Y-114707200D01*
X111032969Y-114707200D02*
X110937731Y-114754819D01*
X110937731Y-114754819D02*
X110556779Y-114754819D01*
X110556779Y-114754819D02*
X110556779Y-113754819D01*
X110556779Y-113754819D02*
X110890112Y-113754819D01*
X110890112Y-113754819D02*
X110985350Y-113802438D01*
X110985350Y-113802438D02*
X111032969Y-113850057D01*
X111032969Y-113850057D02*
X111080588Y-113945295D01*
X111080588Y-113945295D02*
X111080588Y-114040533D01*
X111080588Y-114040533D02*
X111032969Y-114135771D01*
X111032969Y-114135771D02*
X110985350Y-114183390D01*
X110985350Y-114183390D02*
X110890112Y-114231009D01*
X110890112Y-114231009D02*
X110556779Y-114231009D01*
X111747255Y-113754819D02*
X111842493Y-113754819D01*
X111842493Y-113754819D02*
X111937731Y-113802438D01*
X111937731Y-113802438D02*
X111985350Y-113850057D01*
X111985350Y-113850057D02*
X112032969Y-113945295D01*
X112032969Y-113945295D02*
X112080588Y-114135771D01*
X112080588Y-114135771D02*
X112080588Y-114373866D01*
X112080588Y-114373866D02*
X112032969Y-114564342D01*
X112032969Y-114564342D02*
X111985350Y-114659580D01*
X111985350Y-114659580D02*
X111937731Y-114707200D01*
X111937731Y-114707200D02*
X111842493Y-114754819D01*
X111842493Y-114754819D02*
X111747255Y-114754819D01*
X111747255Y-114754819D02*
X111652017Y-114707200D01*
X111652017Y-114707200D02*
X111604398Y-114659580D01*
X111604398Y-114659580D02*
X111556779Y-114564342D01*
X111556779Y-114564342D02*
X111509160Y-114373866D01*
X111509160Y-114373866D02*
X111509160Y-114135771D01*
X111509160Y-114135771D02*
X111556779Y-113945295D01*
X111556779Y-113945295D02*
X111604398Y-113850057D01*
X111604398Y-113850057D02*
X111652017Y-113802438D01*
X111652017Y-113802438D02*
X111747255Y-113754819D01*
X110080588Y-116342438D02*
X109985350Y-116294819D01*
X109985350Y-116294819D02*
X109842493Y-116294819D01*
X109842493Y-116294819D02*
X109699636Y-116342438D01*
X109699636Y-116342438D02*
X109604398Y-116437676D01*
X109604398Y-116437676D02*
X109556779Y-116532914D01*
X109556779Y-116532914D02*
X109509160Y-116723390D01*
X109509160Y-116723390D02*
X109509160Y-116866247D01*
X109509160Y-116866247D02*
X109556779Y-117056723D01*
X109556779Y-117056723D02*
X109604398Y-117151961D01*
X109604398Y-117151961D02*
X109699636Y-117247200D01*
X109699636Y-117247200D02*
X109842493Y-117294819D01*
X109842493Y-117294819D02*
X109937731Y-117294819D01*
X109937731Y-117294819D02*
X110080588Y-117247200D01*
X110080588Y-117247200D02*
X110128207Y-117199580D01*
X110128207Y-117199580D02*
X110128207Y-116866247D01*
X110128207Y-116866247D02*
X109937731Y-116866247D01*
X110556779Y-117294819D02*
X110556779Y-116294819D01*
X110556779Y-116294819D02*
X111128207Y-117294819D01*
X111128207Y-117294819D02*
X111128207Y-116294819D01*
X111604398Y-117294819D02*
X111604398Y-116294819D01*
X111604398Y-116294819D02*
X111842493Y-116294819D01*
X111842493Y-116294819D02*
X111985350Y-116342438D01*
X111985350Y-116342438D02*
X112080588Y-116437676D01*
X112080588Y-116437676D02*
X112128207Y-116532914D01*
X112128207Y-116532914D02*
X112175826Y-116723390D01*
X112175826Y-116723390D02*
X112175826Y-116866247D01*
X112175826Y-116866247D02*
X112128207Y-117056723D01*
X112128207Y-117056723D02*
X112080588Y-117151961D01*
X112080588Y-117151961D02*
X111985350Y-117247200D01*
X111985350Y-117247200D02*
X111842493Y-117294819D01*
X111842493Y-117294819D02*
X111604398Y-117294819D01*
X109676779Y-96931819D02*
X109676779Y-95931819D01*
X109676779Y-95931819D02*
X110057731Y-95931819D01*
X110057731Y-95931819D02*
X110152969Y-95979438D01*
X110152969Y-95979438D02*
X110200588Y-96027057D01*
X110200588Y-96027057D02*
X110248207Y-96122295D01*
X110248207Y-96122295D02*
X110248207Y-96265152D01*
X110248207Y-96265152D02*
X110200588Y-96360390D01*
X110200588Y-96360390D02*
X110152969Y-96408009D01*
X110152969Y-96408009D02*
X110057731Y-96455628D01*
X110057731Y-96455628D02*
X109676779Y-96455628D01*
X110629160Y-96646104D02*
X111105350Y-96646104D01*
X110533922Y-96931819D02*
X110867255Y-95931819D01*
X110867255Y-95931819D02*
X111200588Y-96931819D01*
X112057731Y-96931819D02*
X111486303Y-96931819D01*
X111772017Y-96931819D02*
X111772017Y-95931819D01*
X111772017Y-95931819D02*
X111676779Y-96074676D01*
X111676779Y-96074676D02*
X111581541Y-96169914D01*
X111581541Y-96169914D02*
X111486303Y-96217533D01*
X142312969Y-114851819D02*
X141836779Y-114851819D01*
X141836779Y-114851819D02*
X141836779Y-113851819D01*
X142598684Y-114804200D02*
X142741541Y-114851819D01*
X142741541Y-114851819D02*
X142979636Y-114851819D01*
X142979636Y-114851819D02*
X143074874Y-114804200D01*
X143074874Y-114804200D02*
X143122493Y-114756580D01*
X143122493Y-114756580D02*
X143170112Y-114661342D01*
X143170112Y-114661342D02*
X143170112Y-114566104D01*
X143170112Y-114566104D02*
X143122493Y-114470866D01*
X143122493Y-114470866D02*
X143074874Y-114423247D01*
X143074874Y-114423247D02*
X142979636Y-114375628D01*
X142979636Y-114375628D02*
X142789160Y-114328009D01*
X142789160Y-114328009D02*
X142693922Y-114280390D01*
X142693922Y-114280390D02*
X142646303Y-114232771D01*
X142646303Y-114232771D02*
X142598684Y-114137533D01*
X142598684Y-114137533D02*
X142598684Y-114042295D01*
X142598684Y-114042295D02*
X142646303Y-113947057D01*
X142646303Y-113947057D02*
X142693922Y-113899438D01*
X142693922Y-113899438D02*
X142789160Y-113851819D01*
X142789160Y-113851819D02*
X143027255Y-113851819D01*
X143027255Y-113851819D02*
X143170112Y-113899438D01*
X143598684Y-114851819D02*
X143598684Y-113851819D01*
X143598684Y-113851819D02*
X143932017Y-114566104D01*
X143932017Y-114566104D02*
X144265350Y-113851819D01*
X144265350Y-113851819D02*
X144265350Y-114851819D01*
X144503446Y-114947057D02*
X145265350Y-114947057D01*
X146074874Y-114756580D02*
X146027255Y-114804200D01*
X146027255Y-114804200D02*
X145884398Y-114851819D01*
X145884398Y-114851819D02*
X145789160Y-114851819D01*
X145789160Y-114851819D02*
X145646303Y-114804200D01*
X145646303Y-114804200D02*
X145551065Y-114708961D01*
X145551065Y-114708961D02*
X145503446Y-114613723D01*
X145503446Y-114613723D02*
X145455827Y-114423247D01*
X145455827Y-114423247D02*
X145455827Y-114280390D01*
X145455827Y-114280390D02*
X145503446Y-114089914D01*
X145503446Y-114089914D02*
X145551065Y-113994676D01*
X145551065Y-113994676D02*
X145646303Y-113899438D01*
X145646303Y-113899438D02*
X145789160Y-113851819D01*
X145789160Y-113851819D02*
X145884398Y-113851819D01*
X145884398Y-113851819D02*
X146027255Y-113899438D01*
X146027255Y-113899438D02*
X146074874Y-113947057D01*
X146455827Y-114804200D02*
X146598684Y-114851819D01*
X146598684Y-114851819D02*
X146836779Y-114851819D01*
X146836779Y-114851819D02*
X146932017Y-114804200D01*
X146932017Y-114804200D02*
X146979636Y-114756580D01*
X146979636Y-114756580D02*
X147027255Y-114661342D01*
X147027255Y-114661342D02*
X147027255Y-114566104D01*
X147027255Y-114566104D02*
X146979636Y-114470866D01*
X146979636Y-114470866D02*
X146932017Y-114423247D01*
X146932017Y-114423247D02*
X146836779Y-114375628D01*
X146836779Y-114375628D02*
X146646303Y-114328009D01*
X146646303Y-114328009D02*
X146551065Y-114280390D01*
X146551065Y-114280390D02*
X146503446Y-114232771D01*
X146503446Y-114232771D02*
X146455827Y-114137533D01*
X146455827Y-114137533D02*
X146455827Y-114042295D01*
X146455827Y-114042295D02*
X146503446Y-113947057D01*
X146503446Y-113947057D02*
X146551065Y-113899438D01*
X146551065Y-113899438D02*
X146646303Y-113851819D01*
X146646303Y-113851819D02*
X146884398Y-113851819D01*
X146884398Y-113851819D02*
X147027255Y-113899438D01*
X130035541Y-116065419D02*
X130702207Y-116065419D01*
X130702207Y-116065419D02*
X130035541Y-117065419D01*
X130035541Y-117065419D02*
X130702207Y-117065419D01*
X132917255Y-110695628D02*
X132917255Y-111171819D01*
X132583922Y-110171819D02*
X132917255Y-110695628D01*
X132917255Y-110695628D02*
X133250588Y-110171819D01*
X136256541Y-113846819D02*
X136923207Y-114846819D01*
X136923207Y-113846819D02*
X136256541Y-114846819D01*
X122569047Y-113133121D02*
X122711904Y-113180740D01*
X122711904Y-113180740D02*
X122759523Y-113228359D01*
X122759523Y-113228359D02*
X122807142Y-113323597D01*
X122807142Y-113323597D02*
X122807142Y-113466454D01*
X122807142Y-113466454D02*
X122759523Y-113561692D01*
X122759523Y-113561692D02*
X122711904Y-113609312D01*
X122711904Y-113609312D02*
X122616666Y-113656931D01*
X122616666Y-113656931D02*
X122235714Y-113656931D01*
X122235714Y-113656931D02*
X122235714Y-112656931D01*
X122235714Y-112656931D02*
X122569047Y-112656931D01*
X122569047Y-112656931D02*
X122664285Y-112704550D01*
X122664285Y-112704550D02*
X122711904Y-112752169D01*
X122711904Y-112752169D02*
X122759523Y-112847407D01*
X122759523Y-112847407D02*
X122759523Y-112942645D01*
X122759523Y-112942645D02*
X122711904Y-113037883D01*
X122711904Y-113037883D02*
X122664285Y-113085502D01*
X122664285Y-113085502D02*
X122569047Y-113133121D01*
X122569047Y-113133121D02*
X122235714Y-113133121D01*
X123235714Y-113656931D02*
X123235714Y-112656931D01*
X123235714Y-112656931D02*
X123569047Y-113371216D01*
X123569047Y-113371216D02*
X123902380Y-112656931D01*
X123902380Y-112656931D02*
X123902380Y-113656931D01*
X124378571Y-113656931D02*
X124378571Y-112656931D01*
X124378571Y-112656931D02*
X124711904Y-113371216D01*
X124711904Y-113371216D02*
X125045237Y-112656931D01*
X125045237Y-112656931D02*
X125045237Y-113656931D01*
X125426190Y-112656931D02*
X126045237Y-112656931D01*
X126045237Y-112656931D02*
X125711904Y-113037883D01*
X125711904Y-113037883D02*
X125854761Y-113037883D01*
X125854761Y-113037883D02*
X125949999Y-113085502D01*
X125949999Y-113085502D02*
X125997618Y-113133121D01*
X125997618Y-113133121D02*
X126045237Y-113228359D01*
X126045237Y-113228359D02*
X126045237Y-113466454D01*
X126045237Y-113466454D02*
X125997618Y-113561692D01*
X125997618Y-113561692D02*
X125949999Y-113609312D01*
X125949999Y-113609312D02*
X125854761Y-113656931D01*
X125854761Y-113656931D02*
X125569047Y-113656931D01*
X125569047Y-113656931D02*
X125473809Y-113609312D01*
X125473809Y-113609312D02*
X125426190Y-113561692D01*
X126949999Y-112656931D02*
X126473809Y-112656931D01*
X126473809Y-112656931D02*
X126426190Y-113133121D01*
X126426190Y-113133121D02*
X126473809Y-113085502D01*
X126473809Y-113085502D02*
X126569047Y-113037883D01*
X126569047Y-113037883D02*
X126807142Y-113037883D01*
X126807142Y-113037883D02*
X126902380Y-113085502D01*
X126902380Y-113085502D02*
X126949999Y-113133121D01*
X126949999Y-113133121D02*
X126997618Y-113228359D01*
X126997618Y-113228359D02*
X126997618Y-113466454D01*
X126997618Y-113466454D02*
X126949999Y-113561692D01*
X126949999Y-113561692D02*
X126902380Y-113609312D01*
X126902380Y-113609312D02*
X126807142Y-113656931D01*
X126807142Y-113656931D02*
X126569047Y-113656931D01*
X126569047Y-113656931D02*
X126473809Y-113609312D01*
X126473809Y-113609312D02*
X126426190Y-113561692D01*
X127616666Y-112656931D02*
X127711904Y-112656931D01*
X127711904Y-112656931D02*
X127807142Y-112704550D01*
X127807142Y-112704550D02*
X127854761Y-112752169D01*
X127854761Y-112752169D02*
X127902380Y-112847407D01*
X127902380Y-112847407D02*
X127949999Y-113037883D01*
X127949999Y-113037883D02*
X127949999Y-113275978D01*
X127949999Y-113275978D02*
X127902380Y-113466454D01*
X127902380Y-113466454D02*
X127854761Y-113561692D01*
X127854761Y-113561692D02*
X127807142Y-113609312D01*
X127807142Y-113609312D02*
X127711904Y-113656931D01*
X127711904Y-113656931D02*
X127616666Y-113656931D01*
X127616666Y-113656931D02*
X127521428Y-113609312D01*
X127521428Y-113609312D02*
X127473809Y-113561692D01*
X127473809Y-113561692D02*
X127426190Y-113466454D01*
X127426190Y-113466454D02*
X127378571Y-113275978D01*
X127378571Y-113275978D02*
X127378571Y-113037883D01*
X127378571Y-113037883D02*
X127426190Y-112847407D01*
X127426190Y-112847407D02*
X127473809Y-112752169D01*
X127473809Y-112752169D02*
X127521428Y-112704550D01*
X127521428Y-112704550D02*
X127616666Y-112656931D01*
X121926191Y-114266875D02*
X122592857Y-115266875D01*
X122592857Y-114266875D02*
X121926191Y-115266875D01*
X123021429Y-115219256D02*
X123021429Y-115266875D01*
X123021429Y-115266875D02*
X122973810Y-115362113D01*
X122973810Y-115362113D02*
X122926191Y-115409732D01*
X123640476Y-114790684D02*
X123640476Y-115266875D01*
X123307143Y-114266875D02*
X123640476Y-114790684D01*
X123640476Y-114790684D02*
X123973809Y-114266875D01*
X125069048Y-114743065D02*
X125830953Y-114743065D01*
X125830953Y-115028779D02*
X125069048Y-115028779D01*
X127259524Y-114790684D02*
X127259524Y-115266875D01*
X126926191Y-114266875D02*
X127259524Y-114790684D01*
X127259524Y-114790684D02*
X127592857Y-114266875D01*
X127973810Y-115219256D02*
X127973810Y-115266875D01*
X127973810Y-115266875D02*
X127926191Y-115362113D01*
X127926191Y-115362113D02*
X127878572Y-115409732D01*
X128307143Y-114266875D02*
X128973809Y-115266875D01*
X128973809Y-114266875D02*
X128307143Y-115266875D01*
X123402381Y-115876819D02*
X124069047Y-115876819D01*
X124069047Y-115876819D02*
X123402381Y-116876819D01*
X123402381Y-116876819D02*
X124069047Y-116876819D01*
X124450000Y-116353009D02*
X125211905Y-116353009D01*
X125211905Y-116638723D02*
X124450000Y-116638723D01*
X125688095Y-116495866D02*
X126450000Y-116495866D01*
X126830952Y-115876819D02*
X127497618Y-115876819D01*
X127497618Y-115876819D02*
X126830952Y-116876819D01*
X126830952Y-116876819D02*
X127497618Y-116876819D01*
X109423696Y-90894819D02*
X109995124Y-90894819D01*
X109709410Y-91894819D02*
X109709410Y-90894819D01*
X110280839Y-91609104D02*
X110757029Y-91609104D01*
X110185601Y-91894819D02*
X110518934Y-90894819D01*
X110518934Y-90894819D02*
X110852267Y-91894819D01*
X111709410Y-90942438D02*
X111614172Y-90894819D01*
X111614172Y-90894819D02*
X111471315Y-90894819D01*
X111471315Y-90894819D02*
X111328458Y-90942438D01*
X111328458Y-90942438D02*
X111233220Y-91037676D01*
X111233220Y-91037676D02*
X111185601Y-91132914D01*
X111185601Y-91132914D02*
X111137982Y-91323390D01*
X111137982Y-91323390D02*
X111137982Y-91466247D01*
X111137982Y-91466247D02*
X111185601Y-91656723D01*
X111185601Y-91656723D02*
X111233220Y-91751961D01*
X111233220Y-91751961D02*
X111328458Y-91847200D01*
X111328458Y-91847200D02*
X111471315Y-91894819D01*
X111471315Y-91894819D02*
X111566553Y-91894819D01*
X111566553Y-91894819D02*
X111709410Y-91847200D01*
X111709410Y-91847200D02*
X111757029Y-91799580D01*
X111757029Y-91799580D02*
X111757029Y-91466247D01*
X111757029Y-91466247D02*
X111566553Y-91466247D01*
X111947506Y-91990057D02*
X112709410Y-91990057D01*
X113471315Y-91894819D02*
X112899887Y-91894819D01*
X113185601Y-91894819D02*
X113185601Y-90894819D01*
X113185601Y-90894819D02*
X113090363Y-91037676D01*
X113090363Y-91037676D02*
X112995125Y-91132914D01*
X112995125Y-91132914D02*
X112899887Y-91180533D01*
X113757030Y-90894819D02*
X114090363Y-91894819D01*
X114090363Y-91894819D02*
X114423696Y-90894819D01*
X114899887Y-91323390D02*
X114804649Y-91275771D01*
X114804649Y-91275771D02*
X114757030Y-91228152D01*
X114757030Y-91228152D02*
X114709411Y-91132914D01*
X114709411Y-91132914D02*
X114709411Y-91085295D01*
X114709411Y-91085295D02*
X114757030Y-90990057D01*
X114757030Y-90990057D02*
X114804649Y-90942438D01*
X114804649Y-90942438D02*
X114899887Y-90894819D01*
X114899887Y-90894819D02*
X115090363Y-90894819D01*
X115090363Y-90894819D02*
X115185601Y-90942438D01*
X115185601Y-90942438D02*
X115233220Y-90990057D01*
X115233220Y-90990057D02*
X115280839Y-91085295D01*
X115280839Y-91085295D02*
X115280839Y-91132914D01*
X115280839Y-91132914D02*
X115233220Y-91228152D01*
X115233220Y-91228152D02*
X115185601Y-91275771D01*
X115185601Y-91275771D02*
X115090363Y-91323390D01*
X115090363Y-91323390D02*
X114899887Y-91323390D01*
X114899887Y-91323390D02*
X114804649Y-91371009D01*
X114804649Y-91371009D02*
X114757030Y-91418628D01*
X114757030Y-91418628D02*
X114709411Y-91513866D01*
X114709411Y-91513866D02*
X114709411Y-91704342D01*
X114709411Y-91704342D02*
X114757030Y-91799580D01*
X114757030Y-91799580D02*
X114804649Y-91847200D01*
X114804649Y-91847200D02*
X114899887Y-91894819D01*
X114899887Y-91894819D02*
X115090363Y-91894819D01*
X115090363Y-91894819D02*
X115185601Y-91847200D01*
X115185601Y-91847200D02*
X115233220Y-91799580D01*
X115233220Y-91799580D02*
X115280839Y-91704342D01*
X115280839Y-91704342D02*
X115280839Y-91513866D01*
X115280839Y-91513866D02*
X115233220Y-91418628D01*
X115233220Y-91418628D02*
X115185601Y-91371009D01*
X115185601Y-91371009D02*
X115090363Y-91323390D01*
X141173696Y-75654819D02*
X141745124Y-75654819D01*
X141459410Y-76654819D02*
X141459410Y-75654819D01*
X142030839Y-76369104D02*
X142507029Y-76369104D01*
X141935601Y-76654819D02*
X142268934Y-75654819D01*
X142268934Y-75654819D02*
X142602267Y-76654819D01*
X143459410Y-75702438D02*
X143364172Y-75654819D01*
X143364172Y-75654819D02*
X143221315Y-75654819D01*
X143221315Y-75654819D02*
X143078458Y-75702438D01*
X143078458Y-75702438D02*
X142983220Y-75797676D01*
X142983220Y-75797676D02*
X142935601Y-75892914D01*
X142935601Y-75892914D02*
X142887982Y-76083390D01*
X142887982Y-76083390D02*
X142887982Y-76226247D01*
X142887982Y-76226247D02*
X142935601Y-76416723D01*
X142935601Y-76416723D02*
X142983220Y-76511961D01*
X142983220Y-76511961D02*
X143078458Y-76607200D01*
X143078458Y-76607200D02*
X143221315Y-76654819D01*
X143221315Y-76654819D02*
X143316553Y-76654819D01*
X143316553Y-76654819D02*
X143459410Y-76607200D01*
X143459410Y-76607200D02*
X143507029Y-76559580D01*
X143507029Y-76559580D02*
X143507029Y-76226247D01*
X143507029Y-76226247D02*
X143316553Y-76226247D01*
X143697506Y-76750057D02*
X144459410Y-76750057D01*
X145221315Y-76654819D02*
X144649887Y-76654819D01*
X144935601Y-76654819D02*
X144935601Y-75654819D01*
X144935601Y-75654819D02*
X144840363Y-75797676D01*
X144840363Y-75797676D02*
X144745125Y-75892914D01*
X144745125Y-75892914D02*
X144649887Y-75940533D01*
X145507030Y-75654819D02*
X145840363Y-76654819D01*
X145840363Y-76654819D02*
X146173696Y-75654819D01*
X146649887Y-76083390D02*
X146554649Y-76035771D01*
X146554649Y-76035771D02*
X146507030Y-75988152D01*
X146507030Y-75988152D02*
X146459411Y-75892914D01*
X146459411Y-75892914D02*
X146459411Y-75845295D01*
X146459411Y-75845295D02*
X146507030Y-75750057D01*
X146507030Y-75750057D02*
X146554649Y-75702438D01*
X146554649Y-75702438D02*
X146649887Y-75654819D01*
X146649887Y-75654819D02*
X146840363Y-75654819D01*
X146840363Y-75654819D02*
X146935601Y-75702438D01*
X146935601Y-75702438D02*
X146983220Y-75750057D01*
X146983220Y-75750057D02*
X147030839Y-75845295D01*
X147030839Y-75845295D02*
X147030839Y-75892914D01*
X147030839Y-75892914D02*
X146983220Y-75988152D01*
X146983220Y-75988152D02*
X146935601Y-76035771D01*
X146935601Y-76035771D02*
X146840363Y-76083390D01*
X146840363Y-76083390D02*
X146649887Y-76083390D01*
X146649887Y-76083390D02*
X146554649Y-76131009D01*
X146554649Y-76131009D02*
X146507030Y-76178628D01*
X146507030Y-76178628D02*
X146459411Y-76273866D01*
X146459411Y-76273866D02*
X146459411Y-76464342D01*
X146459411Y-76464342D02*
X146507030Y-76559580D01*
X146507030Y-76559580D02*
X146554649Y-76607200D01*
X146554649Y-76607200D02*
X146649887Y-76654819D01*
X146649887Y-76654819D02*
X146840363Y-76654819D01*
X146840363Y-76654819D02*
X146935601Y-76607200D01*
X146935601Y-76607200D02*
X146983220Y-76559580D01*
X146983220Y-76559580D02*
X147030839Y-76464342D01*
X147030839Y-76464342D02*
X147030839Y-76273866D01*
X147030839Y-76273866D02*
X146983220Y-76178628D01*
X146983220Y-76178628D02*
X146935601Y-76131009D01*
X146935601Y-76131009D02*
X146840363Y-76083390D01*
X138697505Y-79194819D02*
X138221315Y-79194819D01*
X138221315Y-79194819D02*
X138221315Y-78194819D01*
X139030839Y-79194819D02*
X139030839Y-78194819D01*
X139030839Y-78194819D02*
X139411791Y-78194819D01*
X139411791Y-78194819D02*
X139507029Y-78242438D01*
X139507029Y-78242438D02*
X139554648Y-78290057D01*
X139554648Y-78290057D02*
X139602267Y-78385295D01*
X139602267Y-78385295D02*
X139602267Y-78528152D01*
X139602267Y-78528152D02*
X139554648Y-78623390D01*
X139554648Y-78623390D02*
X139507029Y-78671009D01*
X139507029Y-78671009D02*
X139411791Y-78718628D01*
X139411791Y-78718628D02*
X139030839Y-78718628D01*
X139983220Y-79147200D02*
X140126077Y-79194819D01*
X140126077Y-79194819D02*
X140364172Y-79194819D01*
X140364172Y-79194819D02*
X140459410Y-79147200D01*
X140459410Y-79147200D02*
X140507029Y-79099580D01*
X140507029Y-79099580D02*
X140554648Y-79004342D01*
X140554648Y-79004342D02*
X140554648Y-78909104D01*
X140554648Y-78909104D02*
X140507029Y-78813866D01*
X140507029Y-78813866D02*
X140459410Y-78766247D01*
X140459410Y-78766247D02*
X140364172Y-78718628D01*
X140364172Y-78718628D02*
X140173696Y-78671009D01*
X140173696Y-78671009D02*
X140078458Y-78623390D01*
X140078458Y-78623390D02*
X140030839Y-78575771D01*
X140030839Y-78575771D02*
X139983220Y-78480533D01*
X139983220Y-78480533D02*
X139983220Y-78385295D01*
X139983220Y-78385295D02*
X140030839Y-78290057D01*
X140030839Y-78290057D02*
X140078458Y-78242438D01*
X140078458Y-78242438D02*
X140173696Y-78194819D01*
X140173696Y-78194819D02*
X140411791Y-78194819D01*
X140411791Y-78194819D02*
X140554648Y-78242438D01*
X140745125Y-79290057D02*
X141507029Y-79290057D01*
X142316553Y-79099580D02*
X142268934Y-79147200D01*
X142268934Y-79147200D02*
X142126077Y-79194819D01*
X142126077Y-79194819D02*
X142030839Y-79194819D01*
X142030839Y-79194819D02*
X141887982Y-79147200D01*
X141887982Y-79147200D02*
X141792744Y-79051961D01*
X141792744Y-79051961D02*
X141745125Y-78956723D01*
X141745125Y-78956723D02*
X141697506Y-78766247D01*
X141697506Y-78766247D02*
X141697506Y-78623390D01*
X141697506Y-78623390D02*
X141745125Y-78432914D01*
X141745125Y-78432914D02*
X141792744Y-78337676D01*
X141792744Y-78337676D02*
X141887982Y-78242438D01*
X141887982Y-78242438D02*
X142030839Y-78194819D01*
X142030839Y-78194819D02*
X142126077Y-78194819D01*
X142126077Y-78194819D02*
X142268934Y-78242438D01*
X142268934Y-78242438D02*
X142316553Y-78290057D01*
X142745125Y-79194819D02*
X142745125Y-78194819D01*
X143316553Y-79194819D02*
X142887982Y-78623390D01*
X143316553Y-78194819D02*
X142745125Y-78766247D01*
X144507030Y-79194819D02*
X144507030Y-78194819D01*
X144507030Y-78194819D02*
X144887982Y-78194819D01*
X144887982Y-78194819D02*
X144983220Y-78242438D01*
X144983220Y-78242438D02*
X145030839Y-78290057D01*
X145030839Y-78290057D02*
X145078458Y-78385295D01*
X145078458Y-78385295D02*
X145078458Y-78528152D01*
X145078458Y-78528152D02*
X145030839Y-78623390D01*
X145030839Y-78623390D02*
X144983220Y-78671009D01*
X144983220Y-78671009D02*
X144887982Y-78718628D01*
X144887982Y-78718628D02*
X144507030Y-78718628D01*
X145840363Y-78671009D02*
X145983220Y-78718628D01*
X145983220Y-78718628D02*
X146030839Y-78766247D01*
X146030839Y-78766247D02*
X146078458Y-78861485D01*
X146078458Y-78861485D02*
X146078458Y-79004342D01*
X146078458Y-79004342D02*
X146030839Y-79099580D01*
X146030839Y-79099580D02*
X145983220Y-79147200D01*
X145983220Y-79147200D02*
X145887982Y-79194819D01*
X145887982Y-79194819D02*
X145507030Y-79194819D01*
X145507030Y-79194819D02*
X145507030Y-78194819D01*
X145507030Y-78194819D02*
X145840363Y-78194819D01*
X145840363Y-78194819D02*
X145935601Y-78242438D01*
X145935601Y-78242438D02*
X145983220Y-78290057D01*
X145983220Y-78290057D02*
X146030839Y-78385295D01*
X146030839Y-78385295D02*
X146030839Y-78480533D01*
X146030839Y-78480533D02*
X145983220Y-78575771D01*
X145983220Y-78575771D02*
X145935601Y-78623390D01*
X145935601Y-78623390D02*
X145840363Y-78671009D01*
X145840363Y-78671009D02*
X145507030Y-78671009D01*
X146411792Y-78194819D02*
X147030839Y-78194819D01*
X147030839Y-78194819D02*
X146697506Y-78575771D01*
X146697506Y-78575771D02*
X146840363Y-78575771D01*
X146840363Y-78575771D02*
X146935601Y-78623390D01*
X146935601Y-78623390D02*
X146983220Y-78671009D01*
X146983220Y-78671009D02*
X147030839Y-78766247D01*
X147030839Y-78766247D02*
X147030839Y-79004342D01*
X147030839Y-79004342D02*
X146983220Y-79099580D01*
X146983220Y-79099580D02*
X146935601Y-79147200D01*
X146935601Y-79147200D02*
X146840363Y-79194819D01*
X146840363Y-79194819D02*
X146554649Y-79194819D01*
X146554649Y-79194819D02*
X146459411Y-79147200D01*
X146459411Y-79147200D02*
X146411792Y-79099580D01*
X143697506Y-81734819D02*
X143697506Y-80734819D01*
X143697506Y-80734819D02*
X144078458Y-80734819D01*
X144078458Y-80734819D02*
X144173696Y-80782438D01*
X144173696Y-80782438D02*
X144221315Y-80830057D01*
X144221315Y-80830057D02*
X144268934Y-80925295D01*
X144268934Y-80925295D02*
X144268934Y-81068152D01*
X144268934Y-81068152D02*
X144221315Y-81163390D01*
X144221315Y-81163390D02*
X144173696Y-81211009D01*
X144173696Y-81211009D02*
X144078458Y-81258628D01*
X144078458Y-81258628D02*
X143697506Y-81258628D01*
X144649887Y-81449104D02*
X145126077Y-81449104D01*
X144554649Y-81734819D02*
X144887982Y-80734819D01*
X144887982Y-80734819D02*
X145221315Y-81734819D01*
X146078458Y-81734819D02*
X145507030Y-81734819D01*
X145792744Y-81734819D02*
X145792744Y-80734819D01*
X145792744Y-80734819D02*
X145697506Y-80877676D01*
X145697506Y-80877676D02*
X145602268Y-80972914D01*
X145602268Y-80972914D02*
X145507030Y-81020533D01*
X146983220Y-80734819D02*
X146507030Y-80734819D01*
X146507030Y-80734819D02*
X146459411Y-81211009D01*
X146459411Y-81211009D02*
X146507030Y-81163390D01*
X146507030Y-81163390D02*
X146602268Y-81115771D01*
X146602268Y-81115771D02*
X146840363Y-81115771D01*
X146840363Y-81115771D02*
X146935601Y-81163390D01*
X146935601Y-81163390D02*
X146983220Y-81211009D01*
X146983220Y-81211009D02*
X147030839Y-81306247D01*
X147030839Y-81306247D02*
X147030839Y-81544342D01*
X147030839Y-81544342D02*
X146983220Y-81639580D01*
X146983220Y-81639580D02*
X146935601Y-81687200D01*
X146935601Y-81687200D02*
X146840363Y-81734819D01*
X146840363Y-81734819D02*
X146602268Y-81734819D01*
X146602268Y-81734819D02*
X146507030Y-81687200D01*
X146507030Y-81687200D02*
X146459411Y-81639580D01*
X136268934Y-84274819D02*
X135792744Y-84274819D01*
X135792744Y-84274819D02*
X135792744Y-83274819D01*
X136602268Y-84274819D02*
X136602268Y-83274819D01*
X136602268Y-83274819D02*
X136983220Y-83274819D01*
X136983220Y-83274819D02*
X137078458Y-83322438D01*
X137078458Y-83322438D02*
X137126077Y-83370057D01*
X137126077Y-83370057D02*
X137173696Y-83465295D01*
X137173696Y-83465295D02*
X137173696Y-83608152D01*
X137173696Y-83608152D02*
X137126077Y-83703390D01*
X137126077Y-83703390D02*
X137078458Y-83751009D01*
X137078458Y-83751009D02*
X136983220Y-83798628D01*
X136983220Y-83798628D02*
X136602268Y-83798628D01*
X137554649Y-84227200D02*
X137697506Y-84274819D01*
X137697506Y-84274819D02*
X137935601Y-84274819D01*
X137935601Y-84274819D02*
X138030839Y-84227200D01*
X138030839Y-84227200D02*
X138078458Y-84179580D01*
X138078458Y-84179580D02*
X138126077Y-84084342D01*
X138126077Y-84084342D02*
X138126077Y-83989104D01*
X138126077Y-83989104D02*
X138078458Y-83893866D01*
X138078458Y-83893866D02*
X138030839Y-83846247D01*
X138030839Y-83846247D02*
X137935601Y-83798628D01*
X137935601Y-83798628D02*
X137745125Y-83751009D01*
X137745125Y-83751009D02*
X137649887Y-83703390D01*
X137649887Y-83703390D02*
X137602268Y-83655771D01*
X137602268Y-83655771D02*
X137554649Y-83560533D01*
X137554649Y-83560533D02*
X137554649Y-83465295D01*
X137554649Y-83465295D02*
X137602268Y-83370057D01*
X137602268Y-83370057D02*
X137649887Y-83322438D01*
X137649887Y-83322438D02*
X137745125Y-83274819D01*
X137745125Y-83274819D02*
X137983220Y-83274819D01*
X137983220Y-83274819D02*
X138126077Y-83322438D01*
X138316554Y-84370057D02*
X139078458Y-84370057D01*
X139316554Y-84274819D02*
X139316554Y-83274819D01*
X139316554Y-83274819D02*
X139649887Y-83989104D01*
X139649887Y-83989104D02*
X139983220Y-83274819D01*
X139983220Y-83274819D02*
X139983220Y-84274819D01*
X140649887Y-83274819D02*
X140840363Y-83274819D01*
X140840363Y-83274819D02*
X140935601Y-83322438D01*
X140935601Y-83322438D02*
X141030839Y-83417676D01*
X141030839Y-83417676D02*
X141078458Y-83608152D01*
X141078458Y-83608152D02*
X141078458Y-83941485D01*
X141078458Y-83941485D02*
X141030839Y-84131961D01*
X141030839Y-84131961D02*
X140935601Y-84227200D01*
X140935601Y-84227200D02*
X140840363Y-84274819D01*
X140840363Y-84274819D02*
X140649887Y-84274819D01*
X140649887Y-84274819D02*
X140554649Y-84227200D01*
X140554649Y-84227200D02*
X140459411Y-84131961D01*
X140459411Y-84131961D02*
X140411792Y-83941485D01*
X140411792Y-83941485D02*
X140411792Y-83608152D01*
X140411792Y-83608152D02*
X140459411Y-83417676D01*
X140459411Y-83417676D02*
X140554649Y-83322438D01*
X140554649Y-83322438D02*
X140649887Y-83274819D01*
X141459411Y-84227200D02*
X141602268Y-84274819D01*
X141602268Y-84274819D02*
X141840363Y-84274819D01*
X141840363Y-84274819D02*
X141935601Y-84227200D01*
X141935601Y-84227200D02*
X141983220Y-84179580D01*
X141983220Y-84179580D02*
X142030839Y-84084342D01*
X142030839Y-84084342D02*
X142030839Y-83989104D01*
X142030839Y-83989104D02*
X141983220Y-83893866D01*
X141983220Y-83893866D02*
X141935601Y-83846247D01*
X141935601Y-83846247D02*
X141840363Y-83798628D01*
X141840363Y-83798628D02*
X141649887Y-83751009D01*
X141649887Y-83751009D02*
X141554649Y-83703390D01*
X141554649Y-83703390D02*
X141507030Y-83655771D01*
X141507030Y-83655771D02*
X141459411Y-83560533D01*
X141459411Y-83560533D02*
X141459411Y-83465295D01*
X141459411Y-83465295D02*
X141507030Y-83370057D01*
X141507030Y-83370057D02*
X141554649Y-83322438D01*
X141554649Y-83322438D02*
X141649887Y-83274819D01*
X141649887Y-83274819D02*
X141887982Y-83274819D01*
X141887982Y-83274819D02*
X142030839Y-83322438D01*
X142459411Y-84274819D02*
X142459411Y-83274819D01*
X143697506Y-84274819D02*
X143697506Y-83274819D01*
X143697506Y-83274819D02*
X144078458Y-83274819D01*
X144078458Y-83274819D02*
X144173696Y-83322438D01*
X144173696Y-83322438D02*
X144221315Y-83370057D01*
X144221315Y-83370057D02*
X144268934Y-83465295D01*
X144268934Y-83465295D02*
X144268934Y-83608152D01*
X144268934Y-83608152D02*
X144221315Y-83703390D01*
X144221315Y-83703390D02*
X144173696Y-83751009D01*
X144173696Y-83751009D02*
X144078458Y-83798628D01*
X144078458Y-83798628D02*
X143697506Y-83798628D01*
X144649887Y-83989104D02*
X145126077Y-83989104D01*
X144554649Y-84274819D02*
X144887982Y-83274819D01*
X144887982Y-83274819D02*
X145221315Y-84274819D01*
X146078458Y-84274819D02*
X145507030Y-84274819D01*
X145792744Y-84274819D02*
X145792744Y-83274819D01*
X145792744Y-83274819D02*
X145697506Y-83417676D01*
X145697506Y-83417676D02*
X145602268Y-83512914D01*
X145602268Y-83512914D02*
X145507030Y-83560533D01*
X146459411Y-83370057D02*
X146507030Y-83322438D01*
X146507030Y-83322438D02*
X146602268Y-83274819D01*
X146602268Y-83274819D02*
X146840363Y-83274819D01*
X146840363Y-83274819D02*
X146935601Y-83322438D01*
X146935601Y-83322438D02*
X146983220Y-83370057D01*
X146983220Y-83370057D02*
X147030839Y-83465295D01*
X147030839Y-83465295D02*
X147030839Y-83560533D01*
X147030839Y-83560533D02*
X146983220Y-83703390D01*
X146983220Y-83703390D02*
X146411792Y-84274819D01*
X146411792Y-84274819D02*
X147030839Y-84274819D01*
X136268934Y-86814819D02*
X135792744Y-86814819D01*
X135792744Y-86814819D02*
X135792744Y-85814819D01*
X136602268Y-86814819D02*
X136602268Y-85814819D01*
X136602268Y-85814819D02*
X136983220Y-85814819D01*
X136983220Y-85814819D02*
X137078458Y-85862438D01*
X137078458Y-85862438D02*
X137126077Y-85910057D01*
X137126077Y-85910057D02*
X137173696Y-86005295D01*
X137173696Y-86005295D02*
X137173696Y-86148152D01*
X137173696Y-86148152D02*
X137126077Y-86243390D01*
X137126077Y-86243390D02*
X137078458Y-86291009D01*
X137078458Y-86291009D02*
X136983220Y-86338628D01*
X136983220Y-86338628D02*
X136602268Y-86338628D01*
X137554649Y-86767200D02*
X137697506Y-86814819D01*
X137697506Y-86814819D02*
X137935601Y-86814819D01*
X137935601Y-86814819D02*
X138030839Y-86767200D01*
X138030839Y-86767200D02*
X138078458Y-86719580D01*
X138078458Y-86719580D02*
X138126077Y-86624342D01*
X138126077Y-86624342D02*
X138126077Y-86529104D01*
X138126077Y-86529104D02*
X138078458Y-86433866D01*
X138078458Y-86433866D02*
X138030839Y-86386247D01*
X138030839Y-86386247D02*
X137935601Y-86338628D01*
X137935601Y-86338628D02*
X137745125Y-86291009D01*
X137745125Y-86291009D02*
X137649887Y-86243390D01*
X137649887Y-86243390D02*
X137602268Y-86195771D01*
X137602268Y-86195771D02*
X137554649Y-86100533D01*
X137554649Y-86100533D02*
X137554649Y-86005295D01*
X137554649Y-86005295D02*
X137602268Y-85910057D01*
X137602268Y-85910057D02*
X137649887Y-85862438D01*
X137649887Y-85862438D02*
X137745125Y-85814819D01*
X137745125Y-85814819D02*
X137983220Y-85814819D01*
X137983220Y-85814819D02*
X138126077Y-85862438D01*
X138316554Y-86910057D02*
X139078458Y-86910057D01*
X139316554Y-86814819D02*
X139316554Y-85814819D01*
X139316554Y-85814819D02*
X139649887Y-86529104D01*
X139649887Y-86529104D02*
X139983220Y-85814819D01*
X139983220Y-85814819D02*
X139983220Y-86814819D01*
X140459411Y-86814819D02*
X140459411Y-85814819D01*
X140887982Y-86767200D02*
X141030839Y-86814819D01*
X141030839Y-86814819D02*
X141268934Y-86814819D01*
X141268934Y-86814819D02*
X141364172Y-86767200D01*
X141364172Y-86767200D02*
X141411791Y-86719580D01*
X141411791Y-86719580D02*
X141459410Y-86624342D01*
X141459410Y-86624342D02*
X141459410Y-86529104D01*
X141459410Y-86529104D02*
X141411791Y-86433866D01*
X141411791Y-86433866D02*
X141364172Y-86386247D01*
X141364172Y-86386247D02*
X141268934Y-86338628D01*
X141268934Y-86338628D02*
X141078458Y-86291009D01*
X141078458Y-86291009D02*
X140983220Y-86243390D01*
X140983220Y-86243390D02*
X140935601Y-86195771D01*
X140935601Y-86195771D02*
X140887982Y-86100533D01*
X140887982Y-86100533D02*
X140887982Y-86005295D01*
X140887982Y-86005295D02*
X140935601Y-85910057D01*
X140935601Y-85910057D02*
X140983220Y-85862438D01*
X140983220Y-85862438D02*
X141078458Y-85814819D01*
X141078458Y-85814819D02*
X141316553Y-85814819D01*
X141316553Y-85814819D02*
X141459410Y-85862438D01*
X142078458Y-85814819D02*
X142268934Y-85814819D01*
X142268934Y-85814819D02*
X142364172Y-85862438D01*
X142364172Y-85862438D02*
X142459410Y-85957676D01*
X142459410Y-85957676D02*
X142507029Y-86148152D01*
X142507029Y-86148152D02*
X142507029Y-86481485D01*
X142507029Y-86481485D02*
X142459410Y-86671961D01*
X142459410Y-86671961D02*
X142364172Y-86767200D01*
X142364172Y-86767200D02*
X142268934Y-86814819D01*
X142268934Y-86814819D02*
X142078458Y-86814819D01*
X142078458Y-86814819D02*
X141983220Y-86767200D01*
X141983220Y-86767200D02*
X141887982Y-86671961D01*
X141887982Y-86671961D02*
X141840363Y-86481485D01*
X141840363Y-86481485D02*
X141840363Y-86148152D01*
X141840363Y-86148152D02*
X141887982Y-85957676D01*
X141887982Y-85957676D02*
X141983220Y-85862438D01*
X141983220Y-85862438D02*
X142078458Y-85814819D01*
X143697506Y-86814819D02*
X143697506Y-85814819D01*
X143697506Y-85814819D02*
X144078458Y-85814819D01*
X144078458Y-85814819D02*
X144173696Y-85862438D01*
X144173696Y-85862438D02*
X144221315Y-85910057D01*
X144221315Y-85910057D02*
X144268934Y-86005295D01*
X144268934Y-86005295D02*
X144268934Y-86148152D01*
X144268934Y-86148152D02*
X144221315Y-86243390D01*
X144221315Y-86243390D02*
X144173696Y-86291009D01*
X144173696Y-86291009D02*
X144078458Y-86338628D01*
X144078458Y-86338628D02*
X143697506Y-86338628D01*
X144649887Y-86529104D02*
X145126077Y-86529104D01*
X144554649Y-86814819D02*
X144887982Y-85814819D01*
X144887982Y-85814819D02*
X145221315Y-86814819D01*
X146078458Y-86814819D02*
X145507030Y-86814819D01*
X145792744Y-86814819D02*
X145792744Y-85814819D01*
X145792744Y-85814819D02*
X145697506Y-85957676D01*
X145697506Y-85957676D02*
X145602268Y-86052914D01*
X145602268Y-86052914D02*
X145507030Y-86100533D01*
X147030839Y-86814819D02*
X146459411Y-86814819D01*
X146745125Y-86814819D02*
X146745125Y-85814819D01*
X146745125Y-85814819D02*
X146649887Y-85957676D01*
X146649887Y-85957676D02*
X146554649Y-86052914D01*
X146554649Y-86052914D02*
X146459411Y-86100533D01*
X138887981Y-91894819D02*
X138411791Y-91894819D01*
X138411791Y-91894819D02*
X138411791Y-90894819D01*
X139221315Y-91894819D02*
X139221315Y-90894819D01*
X139221315Y-90894819D02*
X139602267Y-90894819D01*
X139602267Y-90894819D02*
X139697505Y-90942438D01*
X139697505Y-90942438D02*
X139745124Y-90990057D01*
X139745124Y-90990057D02*
X139792743Y-91085295D01*
X139792743Y-91085295D02*
X139792743Y-91228152D01*
X139792743Y-91228152D02*
X139745124Y-91323390D01*
X139745124Y-91323390D02*
X139697505Y-91371009D01*
X139697505Y-91371009D02*
X139602267Y-91418628D01*
X139602267Y-91418628D02*
X139221315Y-91418628D01*
X140173696Y-91847200D02*
X140316553Y-91894819D01*
X140316553Y-91894819D02*
X140554648Y-91894819D01*
X140554648Y-91894819D02*
X140649886Y-91847200D01*
X140649886Y-91847200D02*
X140697505Y-91799580D01*
X140697505Y-91799580D02*
X140745124Y-91704342D01*
X140745124Y-91704342D02*
X140745124Y-91609104D01*
X140745124Y-91609104D02*
X140697505Y-91513866D01*
X140697505Y-91513866D02*
X140649886Y-91466247D01*
X140649886Y-91466247D02*
X140554648Y-91418628D01*
X140554648Y-91418628D02*
X140364172Y-91371009D01*
X140364172Y-91371009D02*
X140268934Y-91323390D01*
X140268934Y-91323390D02*
X140221315Y-91275771D01*
X140221315Y-91275771D02*
X140173696Y-91180533D01*
X140173696Y-91180533D02*
X140173696Y-91085295D01*
X140173696Y-91085295D02*
X140221315Y-90990057D01*
X140221315Y-90990057D02*
X140268934Y-90942438D01*
X140268934Y-90942438D02*
X140364172Y-90894819D01*
X140364172Y-90894819D02*
X140602267Y-90894819D01*
X140602267Y-90894819D02*
X140745124Y-90942438D01*
X140935601Y-91990057D02*
X141697505Y-91990057D01*
X142507029Y-91799580D02*
X142459410Y-91847200D01*
X142459410Y-91847200D02*
X142316553Y-91894819D01*
X142316553Y-91894819D02*
X142221315Y-91894819D01*
X142221315Y-91894819D02*
X142078458Y-91847200D01*
X142078458Y-91847200D02*
X141983220Y-91751961D01*
X141983220Y-91751961D02*
X141935601Y-91656723D01*
X141935601Y-91656723D02*
X141887982Y-91466247D01*
X141887982Y-91466247D02*
X141887982Y-91323390D01*
X141887982Y-91323390D02*
X141935601Y-91132914D01*
X141935601Y-91132914D02*
X141983220Y-91037676D01*
X141983220Y-91037676D02*
X142078458Y-90942438D01*
X142078458Y-90942438D02*
X142221315Y-90894819D01*
X142221315Y-90894819D02*
X142316553Y-90894819D01*
X142316553Y-90894819D02*
X142459410Y-90942438D01*
X142459410Y-90942438D02*
X142507029Y-90990057D01*
X142887982Y-91847200D02*
X143030839Y-91894819D01*
X143030839Y-91894819D02*
X143268934Y-91894819D01*
X143268934Y-91894819D02*
X143364172Y-91847200D01*
X143364172Y-91847200D02*
X143411791Y-91799580D01*
X143411791Y-91799580D02*
X143459410Y-91704342D01*
X143459410Y-91704342D02*
X143459410Y-91609104D01*
X143459410Y-91609104D02*
X143411791Y-91513866D01*
X143411791Y-91513866D02*
X143364172Y-91466247D01*
X143364172Y-91466247D02*
X143268934Y-91418628D01*
X143268934Y-91418628D02*
X143078458Y-91371009D01*
X143078458Y-91371009D02*
X142983220Y-91323390D01*
X142983220Y-91323390D02*
X142935601Y-91275771D01*
X142935601Y-91275771D02*
X142887982Y-91180533D01*
X142887982Y-91180533D02*
X142887982Y-91085295D01*
X142887982Y-91085295D02*
X142935601Y-90990057D01*
X142935601Y-90990057D02*
X142983220Y-90942438D01*
X142983220Y-90942438D02*
X143078458Y-90894819D01*
X143078458Y-90894819D02*
X143316553Y-90894819D01*
X143316553Y-90894819D02*
X143459410Y-90942438D01*
X144649887Y-91894819D02*
X144649887Y-90894819D01*
X144649887Y-90894819D02*
X145030839Y-90894819D01*
X145030839Y-90894819D02*
X145126077Y-90942438D01*
X145126077Y-90942438D02*
X145173696Y-90990057D01*
X145173696Y-90990057D02*
X145221315Y-91085295D01*
X145221315Y-91085295D02*
X145221315Y-91228152D01*
X145221315Y-91228152D02*
X145173696Y-91323390D01*
X145173696Y-91323390D02*
X145126077Y-91371009D01*
X145126077Y-91371009D02*
X145030839Y-91418628D01*
X145030839Y-91418628D02*
X144649887Y-91418628D01*
X145602268Y-91609104D02*
X146078458Y-91609104D01*
X145507030Y-91894819D02*
X145840363Y-90894819D01*
X145840363Y-90894819D02*
X146173696Y-91894819D01*
X146554649Y-91894819D02*
X146745125Y-91894819D01*
X146745125Y-91894819D02*
X146840363Y-91847200D01*
X146840363Y-91847200D02*
X146887982Y-91799580D01*
X146887982Y-91799580D02*
X146983220Y-91656723D01*
X146983220Y-91656723D02*
X147030839Y-91466247D01*
X147030839Y-91466247D02*
X147030839Y-91085295D01*
X147030839Y-91085295D02*
X146983220Y-90990057D01*
X146983220Y-90990057D02*
X146935601Y-90942438D01*
X146935601Y-90942438D02*
X146840363Y-90894819D01*
X146840363Y-90894819D02*
X146649887Y-90894819D01*
X146649887Y-90894819D02*
X146554649Y-90942438D01*
X146554649Y-90942438D02*
X146507030Y-90990057D01*
X146507030Y-90990057D02*
X146459411Y-91085295D01*
X146459411Y-91085295D02*
X146459411Y-91323390D01*
X146459411Y-91323390D02*
X146507030Y-91418628D01*
X146507030Y-91418628D02*
X146554649Y-91466247D01*
X146554649Y-91466247D02*
X146649887Y-91513866D01*
X146649887Y-91513866D02*
X146840363Y-91513866D01*
X146840363Y-91513866D02*
X146935601Y-91466247D01*
X146935601Y-91466247D02*
X146983220Y-91418628D01*
X146983220Y-91418628D02*
X147030839Y-91323390D01*
X145411792Y-96974819D02*
X145411792Y-95974819D01*
X145411792Y-95974819D02*
X145983220Y-96974819D01*
X145983220Y-96974819D02*
X145983220Y-95974819D01*
X147030839Y-96879580D02*
X146983220Y-96927200D01*
X146983220Y-96927200D02*
X146840363Y-96974819D01*
X146840363Y-96974819D02*
X146745125Y-96974819D01*
X146745125Y-96974819D02*
X146602268Y-96927200D01*
X146602268Y-96927200D02*
X146507030Y-96831961D01*
X146507030Y-96831961D02*
X146459411Y-96736723D01*
X146459411Y-96736723D02*
X146411792Y-96546247D01*
X146411792Y-96546247D02*
X146411792Y-96403390D01*
X146411792Y-96403390D02*
X146459411Y-96212914D01*
X146459411Y-96212914D02*
X146507030Y-96117676D01*
X146507030Y-96117676D02*
X146602268Y-96022438D01*
X146602268Y-96022438D02*
X146745125Y-95974819D01*
X146745125Y-95974819D02*
X146840363Y-95974819D01*
X146840363Y-95974819D02*
X146983220Y-96022438D01*
X146983220Y-96022438D02*
X147030839Y-96070057D01*
X145411792Y-99514819D02*
X145411792Y-98514819D01*
X145411792Y-98514819D02*
X145983220Y-99514819D01*
X145983220Y-99514819D02*
X145983220Y-98514819D01*
X147030839Y-99419580D02*
X146983220Y-99467200D01*
X146983220Y-99467200D02*
X146840363Y-99514819D01*
X146840363Y-99514819D02*
X146745125Y-99514819D01*
X146745125Y-99514819D02*
X146602268Y-99467200D01*
X146602268Y-99467200D02*
X146507030Y-99371961D01*
X146507030Y-99371961D02*
X146459411Y-99276723D01*
X146459411Y-99276723D02*
X146411792Y-99086247D01*
X146411792Y-99086247D02*
X146411792Y-98943390D01*
X146411792Y-98943390D02*
X146459411Y-98752914D01*
X146459411Y-98752914D02*
X146507030Y-98657676D01*
X146507030Y-98657676D02*
X146602268Y-98562438D01*
X146602268Y-98562438D02*
X146745125Y-98514819D01*
X146745125Y-98514819D02*
X146840363Y-98514819D01*
X146840363Y-98514819D02*
X146983220Y-98562438D01*
X146983220Y-98562438D02*
X147030839Y-98610057D01*
X145411792Y-102054819D02*
X145411792Y-101054819D01*
X145411792Y-101054819D02*
X145983220Y-102054819D01*
X145983220Y-102054819D02*
X145983220Y-101054819D01*
X147030839Y-101959580D02*
X146983220Y-102007200D01*
X146983220Y-102007200D02*
X146840363Y-102054819D01*
X146840363Y-102054819D02*
X146745125Y-102054819D01*
X146745125Y-102054819D02*
X146602268Y-102007200D01*
X146602268Y-102007200D02*
X146507030Y-101911961D01*
X146507030Y-101911961D02*
X146459411Y-101816723D01*
X146459411Y-101816723D02*
X146411792Y-101626247D01*
X146411792Y-101626247D02*
X146411792Y-101483390D01*
X146411792Y-101483390D02*
X146459411Y-101292914D01*
X146459411Y-101292914D02*
X146507030Y-101197676D01*
X146507030Y-101197676D02*
X146602268Y-101102438D01*
X146602268Y-101102438D02*
X146745125Y-101054819D01*
X146745125Y-101054819D02*
X146840363Y-101054819D01*
X146840363Y-101054819D02*
X146983220Y-101102438D01*
X146983220Y-101102438D02*
X147030839Y-101150057D01*
X145411792Y-104594819D02*
X145411792Y-103594819D01*
X145411792Y-103594819D02*
X145983220Y-104594819D01*
X145983220Y-104594819D02*
X145983220Y-103594819D01*
X147030839Y-104499580D02*
X146983220Y-104547200D01*
X146983220Y-104547200D02*
X146840363Y-104594819D01*
X146840363Y-104594819D02*
X146745125Y-104594819D01*
X146745125Y-104594819D02*
X146602268Y-104547200D01*
X146602268Y-104547200D02*
X146507030Y-104451961D01*
X146507030Y-104451961D02*
X146459411Y-104356723D01*
X146459411Y-104356723D02*
X146411792Y-104166247D01*
X146411792Y-104166247D02*
X146411792Y-104023390D01*
X146411792Y-104023390D02*
X146459411Y-103832914D01*
X146459411Y-103832914D02*
X146507030Y-103737676D01*
X146507030Y-103737676D02*
X146602268Y-103642438D01*
X146602268Y-103642438D02*
X146745125Y-103594819D01*
X146745125Y-103594819D02*
X146840363Y-103594819D01*
X146840363Y-103594819D02*
X146983220Y-103642438D01*
X146983220Y-103642438D02*
X147030839Y-103690057D01*
X145411792Y-107134819D02*
X145411792Y-106134819D01*
X145411792Y-106134819D02*
X145983220Y-107134819D01*
X145983220Y-107134819D02*
X145983220Y-106134819D01*
X147030839Y-107039580D02*
X146983220Y-107087200D01*
X146983220Y-107087200D02*
X146840363Y-107134819D01*
X146840363Y-107134819D02*
X146745125Y-107134819D01*
X146745125Y-107134819D02*
X146602268Y-107087200D01*
X146602268Y-107087200D02*
X146507030Y-106991961D01*
X146507030Y-106991961D02*
X146459411Y-106896723D01*
X146459411Y-106896723D02*
X146411792Y-106706247D01*
X146411792Y-106706247D02*
X146411792Y-106563390D01*
X146411792Y-106563390D02*
X146459411Y-106372914D01*
X146459411Y-106372914D02*
X146507030Y-106277676D01*
X146507030Y-106277676D02*
X146602268Y-106182438D01*
X146602268Y-106182438D02*
X146745125Y-106134819D01*
X146745125Y-106134819D02*
X146840363Y-106134819D01*
X146840363Y-106134819D02*
X146983220Y-106182438D01*
X146983220Y-106182438D02*
X147030839Y-106230057D01*
X145411792Y-109674819D02*
X145411792Y-108674819D01*
X145411792Y-108674819D02*
X145983220Y-109674819D01*
X145983220Y-109674819D02*
X145983220Y-108674819D01*
X147030839Y-109579580D02*
X146983220Y-109627200D01*
X146983220Y-109627200D02*
X146840363Y-109674819D01*
X146840363Y-109674819D02*
X146745125Y-109674819D01*
X146745125Y-109674819D02*
X146602268Y-109627200D01*
X146602268Y-109627200D02*
X146507030Y-109531961D01*
X146507030Y-109531961D02*
X146459411Y-109436723D01*
X146459411Y-109436723D02*
X146411792Y-109246247D01*
X146411792Y-109246247D02*
X146411792Y-109103390D01*
X146411792Y-109103390D02*
X146459411Y-108912914D01*
X146459411Y-108912914D02*
X146507030Y-108817676D01*
X146507030Y-108817676D02*
X146602268Y-108722438D01*
X146602268Y-108722438D02*
X146745125Y-108674819D01*
X146745125Y-108674819D02*
X146840363Y-108674819D01*
X146840363Y-108674819D02*
X146983220Y-108722438D01*
X146983220Y-108722438D02*
X147030839Y-108770057D01*
X145411792Y-112214819D02*
X145411792Y-111214819D01*
X145411792Y-111214819D02*
X145983220Y-112214819D01*
X145983220Y-112214819D02*
X145983220Y-111214819D01*
X147030839Y-112119580D02*
X146983220Y-112167200D01*
X146983220Y-112167200D02*
X146840363Y-112214819D01*
X146840363Y-112214819D02*
X146745125Y-112214819D01*
X146745125Y-112214819D02*
X146602268Y-112167200D01*
X146602268Y-112167200D02*
X146507030Y-112071961D01*
X146507030Y-112071961D02*
X146459411Y-111976723D01*
X146459411Y-111976723D02*
X146411792Y-111786247D01*
X146411792Y-111786247D02*
X146411792Y-111643390D01*
X146411792Y-111643390D02*
X146459411Y-111452914D01*
X146459411Y-111452914D02*
X146507030Y-111357676D01*
X146507030Y-111357676D02*
X146602268Y-111262438D01*
X146602268Y-111262438D02*
X146745125Y-111214819D01*
X146745125Y-111214819D02*
X146840363Y-111214819D01*
X146840363Y-111214819D02*
X146983220Y-111262438D01*
X146983220Y-111262438D02*
X147030839Y-111310057D01*
X144935601Y-116342438D02*
X144840363Y-116294819D01*
X144840363Y-116294819D02*
X144697506Y-116294819D01*
X144697506Y-116294819D02*
X144554649Y-116342438D01*
X144554649Y-116342438D02*
X144459411Y-116437676D01*
X144459411Y-116437676D02*
X144411792Y-116532914D01*
X144411792Y-116532914D02*
X144364173Y-116723390D01*
X144364173Y-116723390D02*
X144364173Y-116866247D01*
X144364173Y-116866247D02*
X144411792Y-117056723D01*
X144411792Y-117056723D02*
X144459411Y-117151961D01*
X144459411Y-117151961D02*
X144554649Y-117247200D01*
X144554649Y-117247200D02*
X144697506Y-117294819D01*
X144697506Y-117294819D02*
X144792744Y-117294819D01*
X144792744Y-117294819D02*
X144935601Y-117247200D01*
X144935601Y-117247200D02*
X144983220Y-117199580D01*
X144983220Y-117199580D02*
X144983220Y-116866247D01*
X144983220Y-116866247D02*
X144792744Y-116866247D01*
X145411792Y-117294819D02*
X145411792Y-116294819D01*
X145411792Y-116294819D02*
X145983220Y-117294819D01*
X145983220Y-117294819D02*
X145983220Y-116294819D01*
X146459411Y-117294819D02*
X146459411Y-116294819D01*
X146459411Y-116294819D02*
X146697506Y-116294819D01*
X146697506Y-116294819D02*
X146840363Y-116342438D01*
X146840363Y-116342438D02*
X146935601Y-116437676D01*
X146935601Y-116437676D02*
X146983220Y-116532914D01*
X146983220Y-116532914D02*
X147030839Y-116723390D01*
X147030839Y-116723390D02*
X147030839Y-116866247D01*
X147030839Y-116866247D02*
X146983220Y-117056723D01*
X146983220Y-117056723D02*
X146935601Y-117151961D01*
X146935601Y-117151961D02*
X146840363Y-117247200D01*
X146840363Y-117247200D02*
X146697506Y-117294819D01*
X146697506Y-117294819D02*
X146459411Y-117294819D01*
X136350838Y-89281819D02*
X135874648Y-89281819D01*
X135874648Y-89281819D02*
X135874648Y-88281819D01*
X136684172Y-89281819D02*
X136684172Y-88281819D01*
X136684172Y-88281819D02*
X137065124Y-88281819D01*
X137065124Y-88281819D02*
X137160362Y-88329438D01*
X137160362Y-88329438D02*
X137207981Y-88377057D01*
X137207981Y-88377057D02*
X137255600Y-88472295D01*
X137255600Y-88472295D02*
X137255600Y-88615152D01*
X137255600Y-88615152D02*
X137207981Y-88710390D01*
X137207981Y-88710390D02*
X137160362Y-88758009D01*
X137160362Y-88758009D02*
X137065124Y-88805628D01*
X137065124Y-88805628D02*
X136684172Y-88805628D01*
X137636553Y-89234200D02*
X137779410Y-89281819D01*
X137779410Y-89281819D02*
X138017505Y-89281819D01*
X138017505Y-89281819D02*
X138112743Y-89234200D01*
X138112743Y-89234200D02*
X138160362Y-89186580D01*
X138160362Y-89186580D02*
X138207981Y-89091342D01*
X138207981Y-89091342D02*
X138207981Y-88996104D01*
X138207981Y-88996104D02*
X138160362Y-88900866D01*
X138160362Y-88900866D02*
X138112743Y-88853247D01*
X138112743Y-88853247D02*
X138017505Y-88805628D01*
X138017505Y-88805628D02*
X137827029Y-88758009D01*
X137827029Y-88758009D02*
X137731791Y-88710390D01*
X137731791Y-88710390D02*
X137684172Y-88662771D01*
X137684172Y-88662771D02*
X137636553Y-88567533D01*
X137636553Y-88567533D02*
X137636553Y-88472295D01*
X137636553Y-88472295D02*
X137684172Y-88377057D01*
X137684172Y-88377057D02*
X137731791Y-88329438D01*
X137731791Y-88329438D02*
X137827029Y-88281819D01*
X137827029Y-88281819D02*
X138065124Y-88281819D01*
X138065124Y-88281819D02*
X138207981Y-88329438D01*
X138398458Y-89377057D02*
X139160362Y-89377057D01*
X139398458Y-89281819D02*
X139398458Y-88281819D01*
X139398458Y-88281819D02*
X139636553Y-88281819D01*
X139636553Y-88281819D02*
X139779410Y-88329438D01*
X139779410Y-88329438D02*
X139874648Y-88424676D01*
X139874648Y-88424676D02*
X139922267Y-88519914D01*
X139922267Y-88519914D02*
X139969886Y-88710390D01*
X139969886Y-88710390D02*
X139969886Y-88853247D01*
X139969886Y-88853247D02*
X139922267Y-89043723D01*
X139922267Y-89043723D02*
X139874648Y-89138961D01*
X139874648Y-89138961D02*
X139779410Y-89234200D01*
X139779410Y-89234200D02*
X139636553Y-89281819D01*
X139636553Y-89281819D02*
X139398458Y-89281819D01*
X140969886Y-89281819D02*
X140636553Y-88805628D01*
X140398458Y-89281819D02*
X140398458Y-88281819D01*
X140398458Y-88281819D02*
X140779410Y-88281819D01*
X140779410Y-88281819D02*
X140874648Y-88329438D01*
X140874648Y-88329438D02*
X140922267Y-88377057D01*
X140922267Y-88377057D02*
X140969886Y-88472295D01*
X140969886Y-88472295D02*
X140969886Y-88615152D01*
X140969886Y-88615152D02*
X140922267Y-88710390D01*
X140922267Y-88710390D02*
X140874648Y-88758009D01*
X140874648Y-88758009D02*
X140779410Y-88805628D01*
X140779410Y-88805628D02*
X140398458Y-88805628D01*
X141398458Y-89281819D02*
X141398458Y-88281819D01*
X141398458Y-88281819D02*
X141636553Y-88281819D01*
X141636553Y-88281819D02*
X141779410Y-88329438D01*
X141779410Y-88329438D02*
X141874648Y-88424676D01*
X141874648Y-88424676D02*
X141922267Y-88519914D01*
X141922267Y-88519914D02*
X141969886Y-88710390D01*
X141969886Y-88710390D02*
X141969886Y-88853247D01*
X141969886Y-88853247D02*
X141922267Y-89043723D01*
X141922267Y-89043723D02*
X141874648Y-89138961D01*
X141874648Y-89138961D02*
X141779410Y-89234200D01*
X141779410Y-89234200D02*
X141636553Y-89281819D01*
X141636553Y-89281819D02*
X141398458Y-89281819D01*
X142588934Y-88805628D02*
X142588934Y-89281819D01*
X142255601Y-88281819D02*
X142588934Y-88805628D01*
X142588934Y-88805628D02*
X142922267Y-88281819D01*
X144017506Y-89281819D02*
X144017506Y-88281819D01*
X144017506Y-88281819D02*
X144398458Y-88281819D01*
X144398458Y-88281819D02*
X144493696Y-88329438D01*
X144493696Y-88329438D02*
X144541315Y-88377057D01*
X144541315Y-88377057D02*
X144588934Y-88472295D01*
X144588934Y-88472295D02*
X144588934Y-88615152D01*
X144588934Y-88615152D02*
X144541315Y-88710390D01*
X144541315Y-88710390D02*
X144493696Y-88758009D01*
X144493696Y-88758009D02*
X144398458Y-88805628D01*
X144398458Y-88805628D02*
X144017506Y-88805628D01*
X144969887Y-88996104D02*
X145446077Y-88996104D01*
X144874649Y-89281819D02*
X145207982Y-88281819D01*
X145207982Y-88281819D02*
X145541315Y-89281819D01*
X146398458Y-89281819D02*
X145827030Y-89281819D01*
X146112744Y-89281819D02*
X146112744Y-88281819D01*
X146112744Y-88281819D02*
X146017506Y-88424676D01*
X146017506Y-88424676D02*
X145922268Y-88519914D01*
X145922268Y-88519914D02*
X145827030Y-88567533D01*
X147017506Y-88281819D02*
X147112744Y-88281819D01*
X147112744Y-88281819D02*
X147207982Y-88329438D01*
X147207982Y-88329438D02*
X147255601Y-88377057D01*
X147255601Y-88377057D02*
X147303220Y-88472295D01*
X147303220Y-88472295D02*
X147350839Y-88662771D01*
X147350839Y-88662771D02*
X147350839Y-88900866D01*
X147350839Y-88900866D02*
X147303220Y-89091342D01*
X147303220Y-89091342D02*
X147255601Y-89186580D01*
X147255601Y-89186580D02*
X147207982Y-89234200D01*
X147207982Y-89234200D02*
X147112744Y-89281819D01*
X147112744Y-89281819D02*
X147017506Y-89281819D01*
X147017506Y-89281819D02*
X146922268Y-89234200D01*
X146922268Y-89234200D02*
X146874649Y-89186580D01*
X146874649Y-89186580D02*
X146827030Y-89091342D01*
X146827030Y-89091342D02*
X146779411Y-88900866D01*
X146779411Y-88900866D02*
X146779411Y-88662771D01*
X146779411Y-88662771D02*
X146827030Y-88472295D01*
X146827030Y-88472295D02*
X146874649Y-88377057D01*
X146874649Y-88377057D02*
X146922268Y-88329438D01*
X146922268Y-88329438D02*
X147017506Y-88281819D01*
X138120362Y-94048009D02*
X137787029Y-94048009D01*
X137787029Y-94571819D02*
X137787029Y-93571819D01*
X137787029Y-93571819D02*
X138263219Y-93571819D01*
X139120362Y-94571819D02*
X138644172Y-94571819D01*
X138644172Y-94571819D02*
X138644172Y-93571819D01*
X139406077Y-94286104D02*
X139882267Y-94286104D01*
X139310839Y-94571819D02*
X139644172Y-93571819D01*
X139644172Y-93571819D02*
X139977505Y-94571819D01*
X140263220Y-94524200D02*
X140406077Y-94571819D01*
X140406077Y-94571819D02*
X140644172Y-94571819D01*
X140644172Y-94571819D02*
X140739410Y-94524200D01*
X140739410Y-94524200D02*
X140787029Y-94476580D01*
X140787029Y-94476580D02*
X140834648Y-94381342D01*
X140834648Y-94381342D02*
X140834648Y-94286104D01*
X140834648Y-94286104D02*
X140787029Y-94190866D01*
X140787029Y-94190866D02*
X140739410Y-94143247D01*
X140739410Y-94143247D02*
X140644172Y-94095628D01*
X140644172Y-94095628D02*
X140453696Y-94048009D01*
X140453696Y-94048009D02*
X140358458Y-94000390D01*
X140358458Y-94000390D02*
X140310839Y-93952771D01*
X140310839Y-93952771D02*
X140263220Y-93857533D01*
X140263220Y-93857533D02*
X140263220Y-93762295D01*
X140263220Y-93762295D02*
X140310839Y-93667057D01*
X140310839Y-93667057D02*
X140358458Y-93619438D01*
X140358458Y-93619438D02*
X140453696Y-93571819D01*
X140453696Y-93571819D02*
X140691791Y-93571819D01*
X140691791Y-93571819D02*
X140834648Y-93619438D01*
X141263220Y-94571819D02*
X141263220Y-93571819D01*
X141263220Y-94048009D02*
X141834648Y-94048009D01*
X141834648Y-94571819D02*
X141834648Y-93571819D01*
X142072744Y-94667057D02*
X142834648Y-94667057D01*
X143263220Y-93571819D02*
X143453696Y-93571819D01*
X143453696Y-93571819D02*
X143548934Y-93619438D01*
X143548934Y-93619438D02*
X143644172Y-93714676D01*
X143644172Y-93714676D02*
X143691791Y-93905152D01*
X143691791Y-93905152D02*
X143691791Y-94238485D01*
X143691791Y-94238485D02*
X143644172Y-94428961D01*
X143644172Y-94428961D02*
X143548934Y-94524200D01*
X143548934Y-94524200D02*
X143453696Y-94571819D01*
X143453696Y-94571819D02*
X143263220Y-94571819D01*
X143263220Y-94571819D02*
X143167982Y-94524200D01*
X143167982Y-94524200D02*
X143072744Y-94428961D01*
X143072744Y-94428961D02*
X143025125Y-94238485D01*
X143025125Y-94238485D02*
X143025125Y-93905152D01*
X143025125Y-93905152D02*
X143072744Y-93714676D01*
X143072744Y-93714676D02*
X143167982Y-93619438D01*
X143167982Y-93619438D02*
X143263220Y-93571819D01*
X144120363Y-94571819D02*
X144120363Y-93571819D01*
X144120363Y-93571819D02*
X144691791Y-94571819D01*
X144691791Y-94571819D02*
X144691791Y-93571819D01*
X145929887Y-94571819D02*
X145929887Y-93571819D01*
X145929887Y-93571819D02*
X146310839Y-93571819D01*
X146310839Y-93571819D02*
X146406077Y-93619438D01*
X146406077Y-93619438D02*
X146453696Y-93667057D01*
X146453696Y-93667057D02*
X146501315Y-93762295D01*
X146501315Y-93762295D02*
X146501315Y-93905152D01*
X146501315Y-93905152D02*
X146453696Y-94000390D01*
X146453696Y-94000390D02*
X146406077Y-94048009D01*
X146406077Y-94048009D02*
X146310839Y-94095628D01*
X146310839Y-94095628D02*
X145929887Y-94095628D01*
X146882268Y-94286104D02*
X147358458Y-94286104D01*
X146787030Y-94571819D02*
X147120363Y-93571819D01*
X147120363Y-93571819D02*
X147453696Y-94571819D01*
X147929887Y-94000390D02*
X147834649Y-93952771D01*
X147834649Y-93952771D02*
X147787030Y-93905152D01*
X147787030Y-93905152D02*
X147739411Y-93809914D01*
X147739411Y-93809914D02*
X147739411Y-93762295D01*
X147739411Y-93762295D02*
X147787030Y-93667057D01*
X147787030Y-93667057D02*
X147834649Y-93619438D01*
X147834649Y-93619438D02*
X147929887Y-93571819D01*
X147929887Y-93571819D02*
X148120363Y-93571819D01*
X148120363Y-93571819D02*
X148215601Y-93619438D01*
X148215601Y-93619438D02*
X148263220Y-93667057D01*
X148263220Y-93667057D02*
X148310839Y-93762295D01*
X148310839Y-93762295D02*
X148310839Y-93809914D01*
X148310839Y-93809914D02*
X148263220Y-93905152D01*
X148263220Y-93905152D02*
X148215601Y-93952771D01*
X148215601Y-93952771D02*
X148120363Y-94000390D01*
X148120363Y-94000390D02*
X147929887Y-94000390D01*
X147929887Y-94000390D02*
X147834649Y-94048009D01*
X147834649Y-94048009D02*
X147787030Y-94095628D01*
X147787030Y-94095628D02*
X147739411Y-94190866D01*
X147739411Y-94190866D02*
X147739411Y-94381342D01*
X147739411Y-94381342D02*
X147787030Y-94476580D01*
X147787030Y-94476580D02*
X147834649Y-94524200D01*
X147834649Y-94524200D02*
X147929887Y-94571819D01*
X147929887Y-94571819D02*
X148120363Y-94571819D01*
X148120363Y-94571819D02*
X148215601Y-94524200D01*
X148215601Y-94524200D02*
X148263220Y-94476580D01*
X148263220Y-94476580D02*
X148310839Y-94381342D01*
X148310839Y-94381342D02*
X148310839Y-94190866D01*
X148310839Y-94190866D02*
X148263220Y-94095628D01*
X148263220Y-94095628D02*
X148215601Y-94048009D01*
X148215601Y-94048009D02*
X148120363Y-94000390D01*
X130725180Y-91406636D02*
X130487085Y-91406636D01*
X130582323Y-91168541D02*
X130487085Y-91406636D01*
X130487085Y-91406636D02*
X130582323Y-91644731D01*
X130296609Y-91263779D02*
X130487085Y-91406636D01*
X130487085Y-91406636D02*
X130296609Y-91549493D01*
D11*
X109807143Y-119605328D02*
X109807143Y-118105328D01*
X110521429Y-119605328D02*
X110521429Y-118605328D01*
X110521429Y-118748185D02*
X110592858Y-118676757D01*
X110592858Y-118676757D02*
X110735715Y-118605328D01*
X110735715Y-118605328D02*
X110950001Y-118605328D01*
X110950001Y-118605328D02*
X111092858Y-118676757D01*
X111092858Y-118676757D02*
X111164287Y-118819614D01*
X111164287Y-118819614D02*
X111164287Y-119605328D01*
X111164287Y-118819614D02*
X111235715Y-118676757D01*
X111235715Y-118676757D02*
X111378572Y-118605328D01*
X111378572Y-118605328D02*
X111592858Y-118605328D01*
X111592858Y-118605328D02*
X111735715Y-118676757D01*
X111735715Y-118676757D02*
X111807144Y-118819614D01*
X111807144Y-118819614D02*
X111807144Y-119605328D01*
X113164287Y-118605328D02*
X113164287Y-119605328D01*
X112521429Y-118605328D02*
X112521429Y-119391042D01*
X112521429Y-119391042D02*
X112592858Y-119533900D01*
X112592858Y-119533900D02*
X112735715Y-119605328D01*
X112735715Y-119605328D02*
X112950001Y-119605328D01*
X112950001Y-119605328D02*
X113092858Y-119533900D01*
X113092858Y-119533900D02*
X113164287Y-119462471D01*
X113664287Y-118105328D02*
X114521430Y-118105328D01*
X114092858Y-119605328D02*
X114092858Y-118105328D01*
X115664287Y-119605328D02*
X115664287Y-118819614D01*
X115664287Y-118819614D02*
X115592858Y-118676757D01*
X115592858Y-118676757D02*
X115450001Y-118605328D01*
X115450001Y-118605328D02*
X115164287Y-118605328D01*
X115164287Y-118605328D02*
X115021429Y-118676757D01*
X115664287Y-119533900D02*
X115521429Y-119605328D01*
X115521429Y-119605328D02*
X115164287Y-119605328D01*
X115164287Y-119605328D02*
X115021429Y-119533900D01*
X115021429Y-119533900D02*
X114950001Y-119391042D01*
X114950001Y-119391042D02*
X114950001Y-119248185D01*
X114950001Y-119248185D02*
X115021429Y-119105328D01*
X115021429Y-119105328D02*
X115164287Y-119033900D01*
X115164287Y-119033900D02*
X115521429Y-119033900D01*
X115521429Y-119033900D02*
X115664287Y-118962471D01*
X117021430Y-118605328D02*
X117021430Y-119819614D01*
X117021430Y-119819614D02*
X116950001Y-119962471D01*
X116950001Y-119962471D02*
X116878572Y-120033900D01*
X116878572Y-120033900D02*
X116735715Y-120105328D01*
X116735715Y-120105328D02*
X116521430Y-120105328D01*
X116521430Y-120105328D02*
X116378572Y-120033900D01*
X117021430Y-119533900D02*
X116878572Y-119605328D01*
X116878572Y-119605328D02*
X116592858Y-119605328D01*
X116592858Y-119605328D02*
X116450001Y-119533900D01*
X116450001Y-119533900D02*
X116378572Y-119462471D01*
X116378572Y-119462471D02*
X116307144Y-119319614D01*
X116307144Y-119319614D02*
X116307144Y-118891042D01*
X116307144Y-118891042D02*
X116378572Y-118748185D01*
X116378572Y-118748185D02*
X116450001Y-118676757D01*
X116450001Y-118676757D02*
X116592858Y-118605328D01*
X116592858Y-118605328D02*
X116878572Y-118605328D01*
X116878572Y-118605328D02*
X117021430Y-118676757D01*
X119378572Y-118819614D02*
X119592858Y-118891042D01*
X119592858Y-118891042D02*
X119664287Y-118962471D01*
X119664287Y-118962471D02*
X119735715Y-119105328D01*
X119735715Y-119105328D02*
X119735715Y-119319614D01*
X119735715Y-119319614D02*
X119664287Y-119462471D01*
X119664287Y-119462471D02*
X119592858Y-119533900D01*
X119592858Y-119533900D02*
X119450001Y-119605328D01*
X119450001Y-119605328D02*
X118878572Y-119605328D01*
X118878572Y-119605328D02*
X118878572Y-118105328D01*
X118878572Y-118105328D02*
X119378572Y-118105328D01*
X119378572Y-118105328D02*
X119521430Y-118176757D01*
X119521430Y-118176757D02*
X119592858Y-118248185D01*
X119592858Y-118248185D02*
X119664287Y-118391042D01*
X119664287Y-118391042D02*
X119664287Y-118533900D01*
X119664287Y-118533900D02*
X119592858Y-118676757D01*
X119592858Y-118676757D02*
X119521430Y-118748185D01*
X119521430Y-118748185D02*
X119378572Y-118819614D01*
X119378572Y-118819614D02*
X118878572Y-118819614D01*
X120378572Y-119605328D02*
X120378572Y-118605328D01*
X120378572Y-118891042D02*
X120450001Y-118748185D01*
X120450001Y-118748185D02*
X120521430Y-118676757D01*
X120521430Y-118676757D02*
X120664287Y-118605328D01*
X120664287Y-118605328D02*
X120807144Y-118605328D01*
X121878572Y-119533900D02*
X121735715Y-119605328D01*
X121735715Y-119605328D02*
X121450001Y-119605328D01*
X121450001Y-119605328D02*
X121307143Y-119533900D01*
X121307143Y-119533900D02*
X121235715Y-119391042D01*
X121235715Y-119391042D02*
X121235715Y-118819614D01*
X121235715Y-118819614D02*
X121307143Y-118676757D01*
X121307143Y-118676757D02*
X121450001Y-118605328D01*
X121450001Y-118605328D02*
X121735715Y-118605328D01*
X121735715Y-118605328D02*
X121878572Y-118676757D01*
X121878572Y-118676757D02*
X121950001Y-118819614D01*
X121950001Y-118819614D02*
X121950001Y-118962471D01*
X121950001Y-118962471D02*
X121235715Y-119105328D01*
X123235715Y-119605328D02*
X123235715Y-118819614D01*
X123235715Y-118819614D02*
X123164286Y-118676757D01*
X123164286Y-118676757D02*
X123021429Y-118605328D01*
X123021429Y-118605328D02*
X122735715Y-118605328D01*
X122735715Y-118605328D02*
X122592857Y-118676757D01*
X123235715Y-119533900D02*
X123092857Y-119605328D01*
X123092857Y-119605328D02*
X122735715Y-119605328D01*
X122735715Y-119605328D02*
X122592857Y-119533900D01*
X122592857Y-119533900D02*
X122521429Y-119391042D01*
X122521429Y-119391042D02*
X122521429Y-119248185D01*
X122521429Y-119248185D02*
X122592857Y-119105328D01*
X122592857Y-119105328D02*
X122735715Y-119033900D01*
X122735715Y-119033900D02*
X123092857Y-119033900D01*
X123092857Y-119033900D02*
X123235715Y-118962471D01*
X123950000Y-119605328D02*
X123950000Y-118105328D01*
X124092858Y-119033900D02*
X124521429Y-119605328D01*
X124521429Y-118605328D02*
X123950000Y-119176757D01*
X125378572Y-119605328D02*
X125235715Y-119533900D01*
X125235715Y-119533900D02*
X125164286Y-119462471D01*
X125164286Y-119462471D02*
X125092858Y-119319614D01*
X125092858Y-119319614D02*
X125092858Y-118891042D01*
X125092858Y-118891042D02*
X125164286Y-118748185D01*
X125164286Y-118748185D02*
X125235715Y-118676757D01*
X125235715Y-118676757D02*
X125378572Y-118605328D01*
X125378572Y-118605328D02*
X125592858Y-118605328D01*
X125592858Y-118605328D02*
X125735715Y-118676757D01*
X125735715Y-118676757D02*
X125807144Y-118748185D01*
X125807144Y-118748185D02*
X125878572Y-118891042D01*
X125878572Y-118891042D02*
X125878572Y-119319614D01*
X125878572Y-119319614D02*
X125807144Y-119462471D01*
X125807144Y-119462471D02*
X125735715Y-119533900D01*
X125735715Y-119533900D02*
X125592858Y-119605328D01*
X125592858Y-119605328D02*
X125378572Y-119605328D01*
X127164287Y-118605328D02*
X127164287Y-119605328D01*
X126521429Y-118605328D02*
X126521429Y-119391042D01*
X126521429Y-119391042D02*
X126592858Y-119533900D01*
X126592858Y-119533900D02*
X126735715Y-119605328D01*
X126735715Y-119605328D02*
X126950001Y-119605328D01*
X126950001Y-119605328D02*
X127092858Y-119533900D01*
X127092858Y-119533900D02*
X127164287Y-119462471D01*
X127664287Y-118605328D02*
X128235715Y-118605328D01*
X127878572Y-118105328D02*
X127878572Y-119391042D01*
X127878572Y-119391042D02*
X127950001Y-119533900D01*
X127950001Y-119533900D02*
X128092858Y-119605328D01*
X128092858Y-119605328D02*
X128235715Y-119605328D01*
X129878572Y-119605328D02*
X129878572Y-118105328D01*
X129878572Y-118105328D02*
X130735715Y-119605328D01*
X130735715Y-119605328D02*
X130735715Y-118105328D01*
X131378573Y-119176757D02*
X132092859Y-119176757D01*
X131235716Y-119605328D02*
X131735716Y-118105328D01*
X131735716Y-118105328D02*
X132235716Y-119605328D01*
X132735715Y-119605328D02*
X132735715Y-118105328D01*
X132735715Y-118105328D02*
X133592858Y-119605328D01*
X133592858Y-119605328D02*
X133592858Y-118105328D01*
X134307144Y-119605328D02*
X134307144Y-118105328D01*
X134307144Y-118105328D02*
X134664287Y-118105328D01*
X134664287Y-118105328D02*
X134878573Y-118176757D01*
X134878573Y-118176757D02*
X135021430Y-118319614D01*
X135021430Y-118319614D02*
X135092859Y-118462471D01*
X135092859Y-118462471D02*
X135164287Y-118748185D01*
X135164287Y-118748185D02*
X135164287Y-118962471D01*
X135164287Y-118962471D02*
X135092859Y-119248185D01*
X135092859Y-119248185D02*
X135021430Y-119391042D01*
X135021430Y-119391042D02*
X134878573Y-119533900D01*
X134878573Y-119533900D02*
X134664287Y-119605328D01*
X134664287Y-119605328D02*
X134307144Y-119605328D01*
X137450001Y-118819614D02*
X137664287Y-118891042D01*
X137664287Y-118891042D02*
X137735716Y-118962471D01*
X137735716Y-118962471D02*
X137807144Y-119105328D01*
X137807144Y-119105328D02*
X137807144Y-119319614D01*
X137807144Y-119319614D02*
X137735716Y-119462471D01*
X137735716Y-119462471D02*
X137664287Y-119533900D01*
X137664287Y-119533900D02*
X137521430Y-119605328D01*
X137521430Y-119605328D02*
X136950001Y-119605328D01*
X136950001Y-119605328D02*
X136950001Y-118105328D01*
X136950001Y-118105328D02*
X137450001Y-118105328D01*
X137450001Y-118105328D02*
X137592859Y-118176757D01*
X137592859Y-118176757D02*
X137664287Y-118248185D01*
X137664287Y-118248185D02*
X137735716Y-118391042D01*
X137735716Y-118391042D02*
X137735716Y-118533900D01*
X137735716Y-118533900D02*
X137664287Y-118676757D01*
X137664287Y-118676757D02*
X137592859Y-118748185D01*
X137592859Y-118748185D02*
X137450001Y-118819614D01*
X137450001Y-118819614D02*
X136950001Y-118819614D01*
X138450001Y-119605328D02*
X138450001Y-118105328D01*
X138450001Y-118105328D02*
X138950001Y-119176757D01*
X138950001Y-119176757D02*
X139450001Y-118105328D01*
X139450001Y-118105328D02*
X139450001Y-119605328D01*
X140021430Y-118105328D02*
X140950002Y-118105328D01*
X140950002Y-118105328D02*
X140450002Y-118676757D01*
X140450002Y-118676757D02*
X140664287Y-118676757D01*
X140664287Y-118676757D02*
X140807145Y-118748185D01*
X140807145Y-118748185D02*
X140878573Y-118819614D01*
X140878573Y-118819614D02*
X140950002Y-118962471D01*
X140950002Y-118962471D02*
X140950002Y-119319614D01*
X140950002Y-119319614D02*
X140878573Y-119462471D01*
X140878573Y-119462471D02*
X140807145Y-119533900D01*
X140807145Y-119533900D02*
X140664287Y-119605328D01*
X140664287Y-119605328D02*
X140235716Y-119605328D01*
X140235716Y-119605328D02*
X140092859Y-119533900D01*
X140092859Y-119533900D02*
X140021430Y-119462471D01*
X142307144Y-118105328D02*
X141592858Y-118105328D01*
X141592858Y-118105328D02*
X141521430Y-118819614D01*
X141521430Y-118819614D02*
X141592858Y-118748185D01*
X141592858Y-118748185D02*
X141735716Y-118676757D01*
X141735716Y-118676757D02*
X142092858Y-118676757D01*
X142092858Y-118676757D02*
X142235716Y-118748185D01*
X142235716Y-118748185D02*
X142307144Y-118819614D01*
X142307144Y-118819614D02*
X142378573Y-118962471D01*
X142378573Y-118962471D02*
X142378573Y-119319614D01*
X142378573Y-119319614D02*
X142307144Y-119462471D01*
X142307144Y-119462471D02*
X142235716Y-119533900D01*
X142235716Y-119533900D02*
X142092858Y-119605328D01*
X142092858Y-119605328D02*
X141735716Y-119605328D01*
X141735716Y-119605328D02*
X141592858Y-119533900D01*
X141592858Y-119533900D02*
X141521430Y-119462471D01*
X143307144Y-118105328D02*
X143450001Y-118105328D01*
X143450001Y-118105328D02*
X143592858Y-118176757D01*
X143592858Y-118176757D02*
X143664287Y-118248185D01*
X143664287Y-118248185D02*
X143735715Y-118391042D01*
X143735715Y-118391042D02*
X143807144Y-118676757D01*
X143807144Y-118676757D02*
X143807144Y-119033900D01*
X143807144Y-119033900D02*
X143735715Y-119319614D01*
X143735715Y-119319614D02*
X143664287Y-119462471D01*
X143664287Y-119462471D02*
X143592858Y-119533900D01*
X143592858Y-119533900D02*
X143450001Y-119605328D01*
X143450001Y-119605328D02*
X143307144Y-119605328D01*
X143307144Y-119605328D02*
X143164287Y-119533900D01*
X143164287Y-119533900D02*
X143092858Y-119462471D01*
X143092858Y-119462471D02*
X143021429Y-119319614D01*
X143021429Y-119319614D02*
X142950001Y-119033900D01*
X142950001Y-119033900D02*
X142950001Y-118676757D01*
X142950001Y-118676757D02*
X143021429Y-118391042D01*
X143021429Y-118391042D02*
X143092858Y-118248185D01*
X143092858Y-118248185D02*
X143164287Y-118176757D01*
X143164287Y-118176757D02*
X143307144Y-118105328D01*
X145378572Y-118105328D02*
X145878572Y-119605328D01*
X145878572Y-119605328D02*
X146378572Y-118105328D01*
X146807143Y-118248185D02*
X146878571Y-118176757D01*
X146878571Y-118176757D02*
X147021429Y-118105328D01*
X147021429Y-118105328D02*
X147378571Y-118105328D01*
X147378571Y-118105328D02*
X147521429Y-118176757D01*
X147521429Y-118176757D02*
X147592857Y-118248185D01*
X147592857Y-118248185D02*
X147664286Y-118391042D01*
X147664286Y-118391042D02*
X147664286Y-118533900D01*
X147664286Y-118533900D02*
X147592857Y-118748185D01*
X147592857Y-118748185D02*
X146735714Y-119605328D01*
X146735714Y-119605328D02*
X147664286Y-119605328D01*
D10*
X132578095Y-89651819D02*
X132578095Y-90461342D01*
X132578095Y-90461342D02*
X132625714Y-90556580D01*
X132625714Y-90556580D02*
X132673333Y-90604200D01*
X132673333Y-90604200D02*
X132768571Y-90651819D01*
X132768571Y-90651819D02*
X132959047Y-90651819D01*
X132959047Y-90651819D02*
X133054285Y-90604200D01*
X133054285Y-90604200D02*
X133101904Y-90556580D01*
X133101904Y-90556580D02*
X133149523Y-90461342D01*
X133149523Y-90461342D02*
X133149523Y-89651819D01*
X133578095Y-89747057D02*
X133625714Y-89699438D01*
X133625714Y-89699438D02*
X133720952Y-89651819D01*
X133720952Y-89651819D02*
X133959047Y-89651819D01*
X133959047Y-89651819D02*
X134054285Y-89699438D01*
X134054285Y-89699438D02*
X134101904Y-89747057D01*
X134101904Y-89747057D02*
X134149523Y-89842295D01*
X134149523Y-89842295D02*
X134149523Y-89937533D01*
X134149523Y-89937533D02*
X134101904Y-90080390D01*
X134101904Y-90080390D02*
X133530476Y-90651819D01*
X133530476Y-90651819D02*
X134149523Y-90651819D01*
X128324580Y-93494857D02*
X128372200Y-93542476D01*
X128372200Y-93542476D02*
X128419819Y-93685333D01*
X128419819Y-93685333D02*
X128419819Y-93780571D01*
X128419819Y-93780571D02*
X128372200Y-93923428D01*
X128372200Y-93923428D02*
X128276961Y-94018666D01*
X128276961Y-94018666D02*
X128181723Y-94066285D01*
X128181723Y-94066285D02*
X127991247Y-94113904D01*
X127991247Y-94113904D02*
X127848390Y-94113904D01*
X127848390Y-94113904D02*
X127657914Y-94066285D01*
X127657914Y-94066285D02*
X127562676Y-94018666D01*
X127562676Y-94018666D02*
X127467438Y-93923428D01*
X127467438Y-93923428D02*
X127419819Y-93780571D01*
X127419819Y-93780571D02*
X127419819Y-93685333D01*
X127419819Y-93685333D02*
X127467438Y-93542476D01*
X127467438Y-93542476D02*
X127515057Y-93494857D01*
X128419819Y-92542476D02*
X128419819Y-93113904D01*
X128419819Y-92828190D02*
X127419819Y-92828190D01*
X127419819Y-92828190D02*
X127562676Y-92923428D01*
X127562676Y-92923428D02*
X127657914Y-93018666D01*
X127657914Y-93018666D02*
X127705533Y-93113904D01*
X127515057Y-92161523D02*
X127467438Y-92113904D01*
X127467438Y-92113904D02*
X127419819Y-92018666D01*
X127419819Y-92018666D02*
X127419819Y-91780571D01*
X127419819Y-91780571D02*
X127467438Y-91685333D01*
X127467438Y-91685333D02*
X127515057Y-91637714D01*
X127515057Y-91637714D02*
X127610295Y-91590095D01*
X127610295Y-91590095D02*
X127705533Y-91590095D01*
X127705533Y-91590095D02*
X127848390Y-91637714D01*
X127848390Y-91637714D02*
X128419819Y-92209142D01*
X128419819Y-92209142D02*
X128419819Y-91590095D01*
X135354580Y-93844857D02*
X135402200Y-93892476D01*
X135402200Y-93892476D02*
X135449819Y-94035333D01*
X135449819Y-94035333D02*
X135449819Y-94130571D01*
X135449819Y-94130571D02*
X135402200Y-94273428D01*
X135402200Y-94273428D02*
X135306961Y-94368666D01*
X135306961Y-94368666D02*
X135211723Y-94416285D01*
X135211723Y-94416285D02*
X135021247Y-94463904D01*
X135021247Y-94463904D02*
X134878390Y-94463904D01*
X134878390Y-94463904D02*
X134687914Y-94416285D01*
X134687914Y-94416285D02*
X134592676Y-94368666D01*
X134592676Y-94368666D02*
X134497438Y-94273428D01*
X134497438Y-94273428D02*
X134449819Y-94130571D01*
X134449819Y-94130571D02*
X134449819Y-94035333D01*
X134449819Y-94035333D02*
X134497438Y-93892476D01*
X134497438Y-93892476D02*
X134545057Y-93844857D01*
X135449819Y-92892476D02*
X135449819Y-93463904D01*
X135449819Y-93178190D02*
X134449819Y-93178190D01*
X134449819Y-93178190D02*
X134592676Y-93273428D01*
X134592676Y-93273428D02*
X134687914Y-93368666D01*
X134687914Y-93368666D02*
X134735533Y-93463904D01*
X134449819Y-92559142D02*
X134449819Y-91940095D01*
X134449819Y-91940095D02*
X134830771Y-92273428D01*
X134830771Y-92273428D02*
X134830771Y-92130571D01*
X134830771Y-92130571D02*
X134878390Y-92035333D01*
X134878390Y-92035333D02*
X134926009Y-91987714D01*
X134926009Y-91987714D02*
X135021247Y-91940095D01*
X135021247Y-91940095D02*
X135259342Y-91940095D01*
X135259342Y-91940095D02*
X135354580Y-91987714D01*
X135354580Y-91987714D02*
X135402200Y-92035333D01*
X135402200Y-92035333D02*
X135449819Y-92130571D01*
X135449819Y-92130571D02*
X135449819Y-92416285D01*
X135449819Y-92416285D02*
X135402200Y-92511523D01*
X135402200Y-92511523D02*
X135354580Y-92559142D01*
X128203333Y-100216580D02*
X128155714Y-100264200D01*
X128155714Y-100264200D02*
X128012857Y-100311819D01*
X128012857Y-100311819D02*
X127917619Y-100311819D01*
X127917619Y-100311819D02*
X127774762Y-100264200D01*
X127774762Y-100264200D02*
X127679524Y-100168961D01*
X127679524Y-100168961D02*
X127631905Y-100073723D01*
X127631905Y-100073723D02*
X127584286Y-99883247D01*
X127584286Y-99883247D02*
X127584286Y-99740390D01*
X127584286Y-99740390D02*
X127631905Y-99549914D01*
X127631905Y-99549914D02*
X127679524Y-99454676D01*
X127679524Y-99454676D02*
X127774762Y-99359438D01*
X127774762Y-99359438D02*
X127917619Y-99311819D01*
X127917619Y-99311819D02*
X128012857Y-99311819D01*
X128012857Y-99311819D02*
X128155714Y-99359438D01*
X128155714Y-99359438D02*
X128203333Y-99407057D01*
X129060476Y-99645152D02*
X129060476Y-100311819D01*
X128822381Y-99264200D02*
X128584286Y-99978485D01*
X128584286Y-99978485D02*
X129203333Y-99978485D01*
X123848333Y-88201819D02*
X123515000Y-87725628D01*
X123276905Y-88201819D02*
X123276905Y-87201819D01*
X123276905Y-87201819D02*
X123657857Y-87201819D01*
X123657857Y-87201819D02*
X123753095Y-87249438D01*
X123753095Y-87249438D02*
X123800714Y-87297057D01*
X123800714Y-87297057D02*
X123848333Y-87392295D01*
X123848333Y-87392295D02*
X123848333Y-87535152D01*
X123848333Y-87535152D02*
X123800714Y-87630390D01*
X123800714Y-87630390D02*
X123753095Y-87678009D01*
X123753095Y-87678009D02*
X123657857Y-87725628D01*
X123657857Y-87725628D02*
X123276905Y-87725628D01*
X124705476Y-87535152D02*
X124705476Y-88201819D01*
X124467381Y-87154200D02*
X124229286Y-87868485D01*
X124229286Y-87868485D02*
X124848333Y-87868485D01*
X123873333Y-94231819D02*
X123540000Y-93755628D01*
X123301905Y-94231819D02*
X123301905Y-93231819D01*
X123301905Y-93231819D02*
X123682857Y-93231819D01*
X123682857Y-93231819D02*
X123778095Y-93279438D01*
X123778095Y-93279438D02*
X123825714Y-93327057D01*
X123825714Y-93327057D02*
X123873333Y-93422295D01*
X123873333Y-93422295D02*
X123873333Y-93565152D01*
X123873333Y-93565152D02*
X123825714Y-93660390D01*
X123825714Y-93660390D02*
X123778095Y-93708009D01*
X123778095Y-93708009D02*
X123682857Y-93755628D01*
X123682857Y-93755628D02*
X123301905Y-93755628D01*
X124206667Y-93231819D02*
X124825714Y-93231819D01*
X124825714Y-93231819D02*
X124492381Y-93612771D01*
X124492381Y-93612771D02*
X124635238Y-93612771D01*
X124635238Y-93612771D02*
X124730476Y-93660390D01*
X124730476Y-93660390D02*
X124778095Y-93708009D01*
X124778095Y-93708009D02*
X124825714Y-93803247D01*
X124825714Y-93803247D02*
X124825714Y-94041342D01*
X124825714Y-94041342D02*
X124778095Y-94136580D01*
X124778095Y-94136580D02*
X124730476Y-94184200D01*
X124730476Y-94184200D02*
X124635238Y-94231819D01*
X124635238Y-94231819D02*
X124349524Y-94231819D01*
X124349524Y-94231819D02*
X124254286Y-94184200D01*
X124254286Y-94184200D02*
X124206667Y-94136580D01*
X130653295Y-83769819D02*
X130653295Y-84579342D01*
X130653295Y-84579342D02*
X130700914Y-84674580D01*
X130700914Y-84674580D02*
X130748533Y-84722200D01*
X130748533Y-84722200D02*
X130843771Y-84769819D01*
X130843771Y-84769819D02*
X131034247Y-84769819D01*
X131034247Y-84769819D02*
X131129485Y-84722200D01*
X131129485Y-84722200D02*
X131177104Y-84674580D01*
X131177104Y-84674580D02*
X131224723Y-84579342D01*
X131224723Y-84579342D02*
X131224723Y-83769819D01*
X132177104Y-83769819D02*
X131700914Y-83769819D01*
X131700914Y-83769819D02*
X131653295Y-84246009D01*
X131653295Y-84246009D02*
X131700914Y-84198390D01*
X131700914Y-84198390D02*
X131796152Y-84150771D01*
X131796152Y-84150771D02*
X132034247Y-84150771D01*
X132034247Y-84150771D02*
X132129485Y-84198390D01*
X132129485Y-84198390D02*
X132177104Y-84246009D01*
X132177104Y-84246009D02*
X132224723Y-84341247D01*
X132224723Y-84341247D02*
X132224723Y-84579342D01*
X132224723Y-84579342D02*
X132177104Y-84674580D01*
X132177104Y-84674580D02*
X132129485Y-84722200D01*
X132129485Y-84722200D02*
X132034247Y-84769819D01*
X132034247Y-84769819D02*
X131796152Y-84769819D01*
X131796152Y-84769819D02*
X131700914Y-84722200D01*
X131700914Y-84722200D02*
X131653295Y-84674580D01*
X133853095Y-75188819D02*
X134424523Y-75188819D01*
X134138809Y-76188819D02*
X134138809Y-75188819D01*
X134757857Y-76188819D02*
X134757857Y-75188819D01*
X134757857Y-75188819D02*
X135138809Y-75188819D01*
X135138809Y-75188819D02*
X135234047Y-75236438D01*
X135234047Y-75236438D02*
X135281666Y-75284057D01*
X135281666Y-75284057D02*
X135329285Y-75379295D01*
X135329285Y-75379295D02*
X135329285Y-75522152D01*
X135329285Y-75522152D02*
X135281666Y-75617390D01*
X135281666Y-75617390D02*
X135234047Y-75665009D01*
X135234047Y-75665009D02*
X135138809Y-75712628D01*
X135138809Y-75712628D02*
X134757857Y-75712628D01*
X136281666Y-76188819D02*
X135710238Y-76188819D01*
X135995952Y-76188819D02*
X135995952Y-75188819D01*
X135995952Y-75188819D02*
X135900714Y-75331676D01*
X135900714Y-75331676D02*
X135805476Y-75426914D01*
X135805476Y-75426914D02*
X135710238Y-75474533D01*
X134138095Y-101491819D02*
X134138095Y-102301342D01*
X134138095Y-102301342D02*
X134185714Y-102396580D01*
X134185714Y-102396580D02*
X134233333Y-102444200D01*
X134233333Y-102444200D02*
X134328571Y-102491819D01*
X134328571Y-102491819D02*
X134519047Y-102491819D01*
X134519047Y-102491819D02*
X134614285Y-102444200D01*
X134614285Y-102444200D02*
X134661904Y-102396580D01*
X134661904Y-102396580D02*
X134709523Y-102301342D01*
X134709523Y-102301342D02*
X134709523Y-101491819D01*
X135614285Y-101825152D02*
X135614285Y-102491819D01*
X135376190Y-101444200D02*
X135138095Y-102158485D01*
X135138095Y-102158485D02*
X135757142Y-102158485D01*
X129528700Y-102362819D02*
X129528700Y-102600914D01*
X129290605Y-102505676D02*
X129528700Y-102600914D01*
X129528700Y-102600914D02*
X129766795Y-102505676D01*
X129385843Y-102791390D02*
X129528700Y-102600914D01*
X129528700Y-102600914D02*
X129671557Y-102791390D01*
X135168095Y-79321819D02*
X135168095Y-80131342D01*
X135168095Y-80131342D02*
X135215714Y-80226580D01*
X135215714Y-80226580D02*
X135263333Y-80274200D01*
X135263333Y-80274200D02*
X135358571Y-80321819D01*
X135358571Y-80321819D02*
X135549047Y-80321819D01*
X135549047Y-80321819D02*
X135644285Y-80274200D01*
X135644285Y-80274200D02*
X135691904Y-80226580D01*
X135691904Y-80226580D02*
X135739523Y-80131342D01*
X135739523Y-80131342D02*
X135739523Y-79321819D01*
X136739523Y-80321819D02*
X136168095Y-80321819D01*
X136453809Y-80321819D02*
X136453809Y-79321819D01*
X136453809Y-79321819D02*
X136358571Y-79464676D01*
X136358571Y-79464676D02*
X136263333Y-79559914D01*
X136263333Y-79559914D02*
X136168095Y-79607533D01*
X126178095Y-75406819D02*
X126178095Y-76216342D01*
X126178095Y-76216342D02*
X126225714Y-76311580D01*
X126225714Y-76311580D02*
X126273333Y-76359200D01*
X126273333Y-76359200D02*
X126368571Y-76406819D01*
X126368571Y-76406819D02*
X126559047Y-76406819D01*
X126559047Y-76406819D02*
X126654285Y-76359200D01*
X126654285Y-76359200D02*
X126701904Y-76311580D01*
X126701904Y-76311580D02*
X126749523Y-76216342D01*
X126749523Y-76216342D02*
X126749523Y-75406819D01*
X127654285Y-75406819D02*
X127463809Y-75406819D01*
X127463809Y-75406819D02*
X127368571Y-75454438D01*
X127368571Y-75454438D02*
X127320952Y-75502057D01*
X127320952Y-75502057D02*
X127225714Y-75644914D01*
X127225714Y-75644914D02*
X127178095Y-75835390D01*
X127178095Y-75835390D02*
X127178095Y-76216342D01*
X127178095Y-76216342D02*
X127225714Y-76311580D01*
X127225714Y-76311580D02*
X127273333Y-76359200D01*
X127273333Y-76359200D02*
X127368571Y-76406819D01*
X127368571Y-76406819D02*
X127559047Y-76406819D01*
X127559047Y-76406819D02*
X127654285Y-76359200D01*
X127654285Y-76359200D02*
X127701904Y-76311580D01*
X127701904Y-76311580D02*
X127749523Y-76216342D01*
X127749523Y-76216342D02*
X127749523Y-75978247D01*
X127749523Y-75978247D02*
X127701904Y-75883009D01*
X127701904Y-75883009D02*
X127654285Y-75835390D01*
X127654285Y-75835390D02*
X127559047Y-75787771D01*
X127559047Y-75787771D02*
X127368571Y-75787771D01*
X127368571Y-75787771D02*
X127273333Y-75835390D01*
X127273333Y-75835390D02*
X127225714Y-75883009D01*
X127225714Y-75883009D02*
X127178095Y-75978247D01*
%TO.C,C10*%
D12*
X133590000Y-81181420D02*
X133590000Y-81462580D01*
X134610000Y-81181420D02*
X134610000Y-81462580D01*
%TO.C,C12*%
X128885000Y-92992580D02*
X128885000Y-92711420D01*
X129905000Y-92992580D02*
X129905000Y-92711420D01*
%TO.C,C13*%
X133160000Y-93111420D02*
X133160000Y-93392580D01*
X134180000Y-93111420D02*
X134180000Y-93392580D01*
%TO.C,C9*%
X130441100Y-107107220D02*
X130441100Y-107388380D01*
X131461100Y-107107220D02*
X131461100Y-107388380D01*
%TO.C,C4*%
X131254420Y-99442000D02*
X131535580Y-99442000D01*
X131254420Y-100462000D02*
X131535580Y-100462000D01*
%TO.C,R4*%
X123777742Y-88654500D02*
X124252258Y-88654500D01*
X123777742Y-89699500D02*
X124252258Y-89699500D01*
%TO.C,C14*%
X137550000Y-81136420D02*
X137550000Y-81417580D01*
X138570000Y-81136420D02*
X138570000Y-81417580D01*
%TO.C,C507*%
X139320000Y-81126420D02*
X139320000Y-81407580D01*
X140340000Y-81126420D02*
X140340000Y-81407580D01*
%TO.C,C2*%
X128873200Y-87020980D02*
X128873200Y-86739820D01*
X129893200Y-87020980D02*
X129893200Y-86739820D01*
%TO.C,R3*%
X123827742Y-91704500D02*
X124302258Y-91704500D01*
X123827742Y-92749500D02*
X124302258Y-92749500D01*
%TO.C,U5*%
X132235600Y-85821200D02*
X132660600Y-85821200D01*
X132235600Y-85996200D02*
X132235600Y-85821200D01*
X132235600Y-88023461D02*
X132235600Y-87866200D01*
X134030600Y-85821200D02*
X134455600Y-85821200D01*
X134455600Y-85821200D02*
X134455600Y-85996200D01*
X134455600Y-87866200D02*
X134455600Y-88041200D01*
X134455600Y-88041200D02*
X134030600Y-88041200D01*
X132755600Y-88071200D02*
X132755600Y-88351200D01*
X132475600Y-88071200D01*
X132755600Y-88071200D01*
G36*
X132755600Y-88351200D02*
G01*
X132475600Y-88071200D01*
X132755600Y-88071200D01*
X132755600Y-88351200D01*
G37*
%TO.C,C11*%
X131915000Y-81181420D02*
X131915000Y-81462580D01*
X132935000Y-81181420D02*
X132935000Y-81462580D01*
%TO.C,TP1*%
X136315000Y-77732000D02*
G75*
G02*
X133915000Y-77732000I-1200000J0D01*
G01*
X133915000Y-77732000D02*
G75*
G02*
X136315000Y-77732000I1200000J0D01*
G01*
%TO.C,U4*%
D13*
X129935100Y-102485600D02*
X129935100Y-102763818D01*
X129935100Y-105052182D02*
X129935100Y-105330400D01*
X129935100Y-105330400D02*
X130717320Y-105330400D01*
X130717320Y-102485600D02*
X129935100Y-102485600D01*
X132505680Y-105330400D02*
X133287900Y-105330400D01*
X133287900Y-102485600D02*
X132505680Y-102485600D01*
X133287900Y-102763818D02*
X133287900Y-102485600D01*
X133287900Y-105330400D02*
X133287900Y-105052182D01*
D14*
G36*
X133567300Y-103848501D02*
G01*
X133313300Y-103848501D01*
X133313300Y-103467500D01*
X133567300Y-103467500D01*
X133567300Y-103848501D01*
G37*
%TO.C,C1*%
D12*
X132244500Y-107082420D02*
X132244500Y-107363580D01*
X133264500Y-107082420D02*
X133264500Y-107363580D01*
%TO.C,C7*%
X130524200Y-87020980D02*
X130524200Y-86739820D01*
X131544200Y-87020980D02*
X131544200Y-86739820D01*
%TO.C,U1*%
D15*
X135530001Y-80967000D02*
X135530001Y-80967000D01*
X135530001Y-80967000D01*
X135530001Y-80967000D01*
X135530001Y-80967000D01*
X135530001Y-80967000D01*
X135530001Y-80967001D01*
X135530001Y-80967001D01*
X135530001Y-80967001D01*
X135530001Y-80967001D01*
X135530001Y-80967001D01*
X135530001Y-80967001D01*
X135530001Y-80967001D01*
X135530000Y-80967001D01*
X135530000Y-80967001D01*
X135530000Y-80967001D01*
X135530000Y-80967001D01*
X135530000Y-80967001D01*
X135530000Y-80967001D01*
X135530000Y-80967001D01*
X135530000Y-80967001D01*
X135530000Y-80967001D01*
X135530000Y-80967001D01*
X135530000Y-80967001D01*
X135530000Y-80967001D01*
X135529999Y-80967001D01*
X135529999Y-80967001D01*
X135529999Y-80967001D01*
X135529999Y-80967001D01*
X135529999Y-80967001D01*
X135529999Y-80967001D01*
X135529999Y-80967000D01*
X135529999Y-80967000D01*
X135529999Y-80967000D01*
X135529999Y-80967000D01*
X135529999Y-80967000D01*
X135529999Y-80967000D01*
X135529999Y-80967000D02*
X135529999Y-80967000D01*
X135529999Y-80967000D01*
X135529999Y-80967000D01*
X135529999Y-80967000D01*
X135529999Y-80967000D01*
X135529999Y-80967000D01*
X135529999Y-80966999D01*
X135529999Y-80966999D01*
X135529999Y-80966999D01*
X135529999Y-80966999D01*
X135529999Y-80966999D01*
X135530000Y-80966999D01*
X135530000Y-80966999D01*
X135530000Y-80966999D01*
X135530000Y-80966999D01*
X135530000Y-80966999D01*
X135530000Y-80966999D01*
X135530000Y-80966999D01*
X135530000Y-80966999D01*
X135530000Y-80966999D01*
X135530000Y-80966999D01*
X135530000Y-80966999D01*
X135530000Y-80966999D01*
X135530001Y-80966999D01*
X135530001Y-80966999D01*
X135530001Y-80966999D01*
X135530001Y-80966999D01*
X135530001Y-80966999D01*
X135530001Y-80966999D01*
X135530001Y-80967000D01*
X135530001Y-80967000D01*
X135530001Y-80967000D01*
X135530001Y-80967000D01*
X135530001Y-80967000D01*
X135530001Y-80967000D01*
X135530001Y-80967000D01*
%TO.C,U6*%
D12*
X122830000Y-76792000D02*
X131050000Y-76792000D01*
X122830000Y-77487000D02*
X122830000Y-76792000D01*
X122830000Y-83012000D02*
X122830000Y-82317000D01*
X131050000Y-76792000D02*
X131050000Y-77487000D01*
X131050000Y-82317000D02*
X131050000Y-83012000D01*
X131050000Y-83012000D02*
X122830000Y-83012000D01*
X122600000Y-77992000D02*
X122270000Y-78232000D01*
X122270000Y-77752000D01*
X122600000Y-77992000D01*
G36*
X122600000Y-77992000D02*
G01*
X122270000Y-78232000D01*
X122270000Y-77752000D01*
X122600000Y-77992000D01*
G37*
%TD*%
%LPC*%
%TO.C,U1*%
D16*
X135950000Y-81317000D02*
G75*
G02*
X135810000Y-81317000I-70000J0D01*
G01*
X135810000Y-81317000D02*
G75*
G02*
X135950000Y-81317000I70000J0D01*
G01*
X135950000Y-81717000D02*
G75*
G02*
X135810000Y-81717000I-70000J0D01*
G01*
X135810000Y-81717000D02*
G75*
G02*
X135950000Y-81717000I70000J0D01*
G01*
X136350000Y-81317000D02*
G75*
G02*
X136210000Y-81317000I-70000J0D01*
G01*
X136210000Y-81317000D02*
G75*
G02*
X136350000Y-81317000I70000J0D01*
G01*
X136350000Y-81717000D02*
G75*
G02*
X136210000Y-81717000I-70000J0D01*
G01*
X136210000Y-81717000D02*
G75*
G02*
X136350000Y-81717000I70000J0D01*
G01*
%TD*%
D17*
%TO.C,U2*%
X130844900Y-92426900D03*
X131244950Y-92426900D03*
X131645000Y-92426900D03*
X130844900Y-92826950D03*
X131244950Y-92826950D03*
X131645000Y-92826950D03*
X130844900Y-93227000D03*
X131244950Y-93227000D03*
X131645000Y-93227000D03*
%TD*%
D18*
%TO.C,C10*%
X134100000Y-80547000D03*
X134100000Y-82097000D03*
%TD*%
D19*
%TO.C,C12*%
X129395000Y-93627000D03*
X129395000Y-92077000D03*
%TD*%
D18*
%TO.C,C13*%
X133670000Y-92477000D03*
X133670000Y-94027000D03*
%TD*%
%TO.C,C9*%
X130951100Y-106472800D03*
X130951100Y-108022800D03*
%TD*%
D20*
%TO.C,C4*%
X130620000Y-99952000D03*
X132170000Y-99952000D03*
%TD*%
D21*
%TO.C,R4*%
X123190000Y-89177000D03*
X124840000Y-89177000D03*
%TD*%
D18*
%TO.C,C14*%
X138060000Y-80502000D03*
X138060000Y-82052000D03*
%TD*%
%TO.C,C507*%
X139830000Y-80492000D03*
X139830000Y-82042000D03*
%TD*%
D19*
%TO.C,C2*%
X129383200Y-87655400D03*
X129383200Y-86105400D03*
%TD*%
D21*
%TO.C,R3*%
X123240000Y-92227000D03*
X124890000Y-92227000D03*
%TD*%
D22*
%TO.C,U5*%
X133095600Y-87693700D03*
X133595600Y-87693700D03*
D23*
X134108100Y-87431200D03*
X134108100Y-86931200D03*
X134108100Y-86431200D03*
D22*
X133595600Y-86168700D03*
X133095600Y-86168700D03*
D23*
X132583100Y-86431200D03*
X132583100Y-86931200D03*
X132583100Y-87431200D03*
%TD*%
D18*
%TO.C,C11*%
X132425000Y-80547000D03*
X132425000Y-82097000D03*
%TD*%
D24*
%TO.C,TP1*%
X135115000Y-77732000D03*
%TD*%
D25*
%TO.C,U4*%
X130430400Y-103157999D03*
X130430400Y-103658000D03*
X130430400Y-104158000D03*
X130430400Y-104658001D03*
D26*
X131111501Y-104835100D03*
X131611500Y-104835100D03*
X132111499Y-104835100D03*
D25*
X132792600Y-104658001D03*
X132792600Y-104158000D03*
X132792600Y-103658000D03*
X132792600Y-103157999D03*
D26*
X132111499Y-102980900D03*
X131611500Y-102980900D03*
X131111501Y-102980900D03*
%TD*%
D18*
%TO.C,C1*%
X132754500Y-106448000D03*
X132754500Y-107998000D03*
%TD*%
D19*
%TO.C,C7*%
X131034200Y-87655400D03*
X131034200Y-86105400D03*
%TD*%
D27*
%TO.C,U6*%
X123190000Y-77997000D03*
X123190000Y-79267000D03*
X123190000Y-80537000D03*
X123190000Y-81807000D03*
X130690000Y-81807000D03*
X130690000Y-80537000D03*
X130690000Y-79267000D03*
X130690000Y-77997000D03*
D28*
X126940000Y-79902000D03*
%TD*%
D29*
%TO.C,J3*%
X106553000Y-76200000D03*
D30*
X106807000Y-78740000D03*
X106553000Y-81280000D03*
X106807000Y-83820000D03*
X106553000Y-86360000D03*
X106807000Y-88900000D03*
X106553000Y-91440000D03*
X106807000Y-93980000D03*
X106553000Y-96520000D03*
X106807000Y-99060000D03*
X106553000Y-101600000D03*
X106807000Y-104140000D03*
X106553000Y-106680000D03*
X106807000Y-109220000D03*
X106553000Y-111760000D03*
X106807000Y-114300000D03*
X106553000Y-116840000D03*
%TD*%
D29*
%TO.C,J4*%
X149733000Y-76200000D03*
D30*
X149987000Y-78740000D03*
X149733000Y-81280000D03*
X149987000Y-83820000D03*
X149733000Y-86360000D03*
X149987000Y-88900000D03*
X149733000Y-91440000D03*
X149987000Y-93980000D03*
X149733000Y-96520000D03*
X149987000Y-99060000D03*
X149733000Y-101600000D03*
X149987000Y-104140000D03*
X149733000Y-106680000D03*
X149987000Y-109220000D03*
X149733000Y-111760000D03*
X149987000Y-114300000D03*
X149733000Y-116840000D03*
%TD*%
%LPD*%
M02*
